<?xml version="1.0" encoding="UTF-8"?>
<svg width="300px" height="300px" viewBox="0 0 300 300" version="1.1" xmlns="http://www.w3.org/2000/svg" xmlns:xlink="http://www.w3.org/1999/xlink">
    <title>Group 2</title>
    <g id="Page-1" stroke="none" stroke-width="1" fill="none" fill-rule="evenodd">
        <g id="For-you-and-your-partner-Copy" transform="translate(-57.000000, -163.000000)">
            <g id="Group-2" transform="translate(57.000000, 163.000000)">
                <circle id="Mask" fill="#E13856" opacity="0.0770321801" cx="150" cy="150" r="150"></circle>
                <g id="Asset-23" transform="translate(3.000000, 13.000000)" fill-rule="nonzero">
                    <g id="freepik--Desk--inject-2" transform="translate(19.800000, 264.000000)" fill="#2E353A">
                        <path d="M274.548,0.354 C274.548,0.438 213.126,0.51 137.382,0.51 C61.638,0.51 0.204,0.444 0.204,0.354 C0.204,0.264 61.608,0.198 137.382,0.198 C213.156,0.198 274.548,0.27 274.548,0.354 Z" id="Path"></path>
                    </g>
                    <rect id="Rectangle" fill="#FAFAFA" x="150.996" y="84.702" width="29.19" height="7.722"></rect>
                    <path d="M167.844,100.56 C167.844,100.56 167.844,100.506 167.844,100.416 L167.844,100.02 C167.844,99.66 167.844,99.15 167.844,98.502 C167.844,97.17 167.844,95.25 167.796,92.832 L167.886,92.928 L138.696,92.982 L138.846,92.832 L138.846,92.832 L138.846,96.75 C138.846,98.04 138.846,99.312 138.846,100.554 L138.702,100.404 L159.504,100.47 L165.642,100.512 L167.304,100.512 L167.742,100.512 C167.791617,100.503253 167.842383,100.503253 167.892,100.512 L167.76,100.512 L167.34,100.512 L165.714,100.512 L159.606,100.554 L138.702,100.62 L138.558,100.62 L138.558,100.476 C138.558,99.234 138.558,97.962 138.558,96.672 L138.558,92.754 L138.558,92.754 L138.708,92.61 L167.898,92.664 L167.988,92.664 L167.988,92.754 C167.988,95.196 167.952,97.128 167.94,98.478 C167.94,99.12 167.94,99.618 167.94,99.978 C167.94,100.134 167.94,100.26 167.94,100.356 C167.92362,100.43031 167.890818,100.500013 167.844,100.56 L167.844,100.56 Z" id="Path" fill="#E0E0E0"></path>
                    <path d="M270.498,57.516 C270.495442,57.4700355 270.495442,57.4239645 270.498,57.378 C270.498,57.276 270.498,57.144 270.498,56.982 C270.498,56.622 270.498,56.112 270.498,55.464 C270.498,54.132 270.498,52.212 270.45,49.794 L270.54,49.884 L241.35,49.944 L241.5,49.794 L241.5,49.794 L241.5,51.768 C241.5,52.422 241.5,53.07 241.5,53.712 L241.5,57.51 L241.356,57.366 L262.158,57.432 L268.296,57.474 L269.958,57.474 L270.39,57.474 L270.546,57.474 C270.546,57.474 270.504,57.474 270.414,57.474 L269.994,57.474 L268.368,57.474 L262.2,57.6 L241.296,57.666 L241.152,57.666 L241.152,57.516 C241.152,56.28 241.152,55.008 241.152,53.718 L241.152,49.8 L241.152,49.8 C241.452,49.506 241.236,49.722 241.302,49.656 L270.492,49.71 L270.6,49.71 L270.6,49.8 C270.6,52.242 270.564,54.174 270.552,55.524 C270.552,56.166 270.552,56.664 270.552,57.024 L270.552,57.402 C270.504,57.48 270.504,57.522 270.498,57.516 Z" id="Path" fill="#E0E0E0"></path>
                    <path d="M274.458,49.8 C274.449462,49.7523796 274.449462,49.7036204 274.458,49.656 C274.458,49.542 274.458,49.41 274.458,49.248 C274.458,48.864 274.458,48.348 274.458,47.7 C274.458,46.344 274.422,44.43 274.398,42.078 L274.506,42.186 L256.968,42.228 C256.83,42.36 257.148,42.048 257.112,42.078 L257.112,42.078 L257.112,46.05 C257.112,47.346 257.112,48.594 257.112,49.794 L256.974,49.656 L269.52,49.722 L273.174,49.764 L274.158,49.764 C274.275839,49.7552856 274.394161,49.7552856 274.512,49.764 C274.406174,49.772578 274.299826,49.772578 274.194,49.764 L273.234,49.764 L269.634,49.806 L256.992,49.872 L256.8,49.872 L256.8,49.8 C256.8,48.6 256.8,47.352 256.8,46.056 L256.8,42.078 L256.8,42.078 C256.764,42.114 257.082,41.796 256.95,41.934 L274.488,41.97 L274.596,41.97 L274.596,42.072 C274.596,44.472 274.548,46.386 274.536,47.754 C274.536,48.396 274.536,48.906 274.536,49.284 C274.536,49.662 274.464,49.8 274.458,49.8 Z" id="Path" fill="#E0E0E0"></path>
                    <rect id="Rectangle" fill="#E0E0E0" x="165.276" y="177.216" width="29.19" height="7.722"></rect>
                    <rect id="Rectangle" fill="#FAFAFA" x="186.264" y="161.358" width="29.19" height="7.722"></rect>
                    <path d="M203.112,177.216 C203.106692,177.170153 203.106692,177.123847 203.112,177.078 L203.112,176.682 C203.112,176.316 203.112,175.812 203.112,175.164 C203.112,173.826 203.082,171.912 203.064,169.494 L203.154,169.584 L173.964,169.644 L174.114,169.494 L174.114,169.494 L174.114,177.204 L173.97,177.06 L194.772,177.126 L200.91,177.168 L202.572,177.168 L203.004,177.168 L203.16,177.168 C203.16,177.168 203.118,177.168 203.022,177.168 L202.608,177.168 L200.982,177.168 L194.874,177.204 L173.97,177.27 L173.826,177.27 L173.826,169.41 L173.826,169.41 L173.976,169.26 L203.166,169.32 L203.256,169.32 L203.256,169.41 C203.256,171.852 203.22,173.784 203.208,175.128 C203.208,175.77 203.208,176.274 203.208,176.628 C203.208,176.784 203.208,176.91 203.208,177.012 C203.208,177.114 203.118,177.222 203.112,177.216 Z" id="Path" fill="#E0E0E0"></path>
                    <path d="M151.2,118.296 L160.752,123.696 C162.918934,124.926536 164.473929,127.005662 165.042,129.432 L170.916,154.398 C170.916,154.398 175.116,160.674 175.716,162.798 C175.716,162.798 169.23,162.198 166.182,159.588 L165.63,155.136 L154.308,135 L143.298,129.036 L151.2,118.296 Z" id="Path" fill="#FFBE9D"></path>
                    <path d="M165.6,155.946 L166.398,160.362 C166.403204,160.932094 166.34891,161.501175 166.236,162.06 C166.007143,162.634016 165.680281,163.163898 165.27,163.626 C164.831682,164.154263 164.338966,164.634912 163.8,165.06 C163.757342,165.088207 163.713286,165.11424 163.668,165.138 C163.398754,165.274071 163.235133,165.556172 163.250716,165.857446 C163.266299,166.158719 163.458152,166.422434 163.74,166.53 C164.34,166.602 165.834,165.834 167.118,164.286 L167.184,164.214 C168.528,162.678 168.384,165.858 168.342,167.016 C168.3,168.174 168.372,171.756 168.72,172.038 C169.224,172.458 169.782,171.972 169.788,170.838 C169.794,169.704 170.064,166.206 170.676,166.236 C171.288,166.266 171.018,172.164 171.018,172.164 C171.018,172.164 170.76,173.424 171.462,173.484 C172.734,173.592 172.758,166.284 172.722,165.684 C172.722,165.27 173.154,166.284 173.154,166.752 C173.154,167.22 172.764,172.632 174.054,172.752 C175.044,172.848 173.946,167.586 174.654,166.488 C175.362,165.39 175.08,170.574 176.034,170.628 C176.388,170.628 176.634,170.628 176.388,167.628 C176.159264,165.748947 175.816633,163.885517 175.362,162.048 L175.044,161.25 L171.168,154.98 C168.648,156.792 168.504,156.21 165.6,155.946 Z" id="Path" fill="#FFBE9D"></path>
                    <path d="M75,256.008 C75,256.092 67.584,259.008 58.374,262.476 C49.164,265.944 41.664,268.728 41.6339097,268.644 C41.604,268.56 49.05,265.644 58.26,262.182 C67.47,258.72 75,255.93 75,256.008 Z" id="Path" fill="#E0E0E0"></path>
                    <path d="M164.688129,257.568 C164.724,257.646 157.23,261.06 147.954,265.188 C138.678,269.316 131.124,272.604 131.087871,272.526 C131.052,272.448 138.546,269.034 147.828,264.906 C157.11,260.778 164.652,257.49 164.688129,257.568 Z" id="Path" fill="#E0E0E0"></path>
                    <path d="M265.146,254.334 C265.068695,254.43411 264.977822,254.522964 264.876,254.598 L264.066,255.312 C263.364,255.912 262.32,256.788 261.018,257.838 C258.414,259.938 254.724,262.722 250.482,265.566 C246.24,268.41 242.256,270.768 239.328,272.382 C237.864,273.186 236.664,273.822 235.83,274.242 L234.864,274.716 C234.754867,274.780627 234.637919,274.831036 234.516,274.866 C234.61573,274.788689 234.722151,274.720419 234.834,274.662 L235.77,274.134 C236.592,273.678 237.768,273.018 239.22,272.19 C242.118,270.528 246.072,268.146 250.308,265.308 C254.544,262.47 258.246,259.716 260.88,257.664 C262.2,256.638 263.28,255.804 263.994,255.216 L264.84,254.55 C264.934211,254.467555 265.036766,254.395163 265.146,254.334 L265.146,254.334 Z" id="Path" fill="#E0E0E0"></path>
                    <path d="M144.876,29.448 C144.871725,29.4000952 144.871725,29.3519048 144.876,29.304 L144.876,28.908 C144.876,28.548 144.876,28.038 144.876,27.39 C144.876,26.058 144.876,24.138 144.828,21.726 L144.918,21.816 L115.728,21.87 L115.878,21.726 L115.878,21.726 L115.878,29.448 L115.734,29.298 L136.536,29.364 L142.674,29.406 L144.336,29.406 L144.768,29.406 L144.924,29.406 L144.786,29.406 L144.372,29.406 L142.746,29.406 L136.638,29.448 L115.734,29.514 L115.59,29.514 L115.59,21.738 L115.59,21.738 L115.74,21.588 L144.93,21.642 L145.02,21.642 L145.02,21.732 C145.02,24.168 144.984,26.106 144.972,27.45 C144.972,28.092 144.972,28.59 144.972,28.95 L144.972,29.328 C144.946245,29.3726192 144.913877,29.4130785 144.876,29.448 L144.876,29.448 Z" id="Path" fill="#E0E0E0"></path>
                    <path d="M148.836,21.726 C148.827829,21.6763338 148.827829,21.6256662 148.836,21.576 C148.836,21.468 148.836,21.33 148.836,21.168 C148.836,20.79 148.836,20.268 148.806,19.62 C148.806,18.264 148.776,16.35 148.752,13.998 L148.86,14.106 L131.322,14.148 C131.184,14.28 131.502,13.968 131.466,14.004 L131.466,14.004 L131.466,18 C131.466,19.296 131.466,20.55 131.466,21.75 L131.322,21.606 L143.874,21.672 L147.528,21.714 L148.512,21.714 L148.866,21.714 C148.760071,21.71949 148.653929,21.71949 148.548,21.714 L147.588,21.714 L143.988,21.756 L131.346,21.822 L131.208,21.822 L131.208,21.684 C131.208,20.484 131.208,19.23 131.208,17.934 L131.208,13.974 L131.208,13.974 C131.172,14.004 131.49,13.692 131.358,13.824 L148.896,13.866 L149.004,13.866 L149.004,13.968 C149.004,16.368 148.962,18.282 148.95,19.656 C148.95,20.298 148.95,20.802 148.95,21.18 C148.95,21.558 148.842,21.732 148.836,21.726 Z" id="Path" fill="#E0E0E0"></path>
                    <path d="M235.878,109.734 C235.872692,109.688153 235.872692,109.641847 235.878,109.596 C235.878,109.494 235.878,109.362 235.878,109.2 C235.878,108.834 235.878,108.33 235.878,107.676 C235.878,106.344 235.848,104.43 235.824,102.012 L235.92,102.102 L206.73,102.162 C206.796,102.096 206.58,102.312 206.874,102.012 L206.874,102.012 L206.874,109.722 L206.724,109.578 L227.526,109.644 L233.67,109.686 L235.332,109.686 L235.764,109.686 L235.92,109.686 C235.874153,109.691308 235.827847,109.691308 235.782,109.686 L235.368,109.686 L233.736,109.686 L227.628,109.722 L206.724,109.788 L206.58,109.788 L206.58,102 L206.58,102 C206.874,101.706 206.658,101.916 206.73,101.85 L235.92,101.91 L236.01,101.91 L236.01,102 C236.01,104.442 235.968,106.374 235.956,107.718 C235.956,108.36 235.956,108.864 235.956,109.218 L235.956,109.602 C235.934654,109.648589 235.908512,109.692827 235.878,109.734 Z" id="Path" fill="#E0E0E0"></path>
                    <path d="M239.832,102 C239.832,102 239.832,101.946 239.832,101.856 C239.832,101.766 239.832,101.61 239.832,101.442 C239.832,101.064 239.832,100.548 239.832,99.894 C239.832,98.544 239.796,96.63 239.772,94.278 L239.88,94.386 L222.342,94.428 L222.492,94.278 L222.492,94.278 L222.492,96.276 C222.492,96.942 222.492,97.596 222.492,98.244 L222.492,102 L222.348,101.862 L234.894,101.928 L238.548,101.964 L239.538,101.964 L239.886,101.964 C239.780174,101.972578 239.673826,101.972578 239.568,101.964 L238.614,101.964 L235.014,102 L222.372,102.072 L222.228,102.072 L222.228,98.184 C222.228,97.536 222.228,96.882 222.228,96.216 L222.228,94.218 L222.228,94.218 L222.378,94.068 L239.916,94.11 L240.024,94.11 L240.024,94.218 C240.024,96.618 239.982,98.532 239.964,99.9 C239.964,100.542 239.964,101.052 239.964,101.424 C239.934298,101.618999 239.890177,101.811527 239.832,102 Z" id="Path" fill="#E0E0E0"></path>
                    <path d="M286.164,239.616 C286.164,239.706 222.234,239.754 143.364,239.73 C64.494,239.706 0.564,239.616 0.564,239.532 C0.564,239.448 64.518,239.4 143.4,239.4 C222.282,239.4 286.164,239.532 286.164,239.616 Z" id="Path" fill="#263238"></path>
                    <path d="M286.164,229.254 C286.164,229.344 222.234,229.392 143.364,229.368 C64.494,229.344 0.6,229.254 0.6,229.2 C0.6,229.146 64.518,229.062 143.4,229.086 C222.282,229.11 286.164,229.2 286.164,229.254 Z" id="Path" fill="#263238"></path>
                    <path d="M13.338,239.952 C13.1836109,238.118325 13.1315302,236.277471 13.182,234.438 C13.1313433,232.598529 13.1834243,230.757665 13.338,228.924 C13.4961883,230.75746 13.5482752,232.59853 13.494,234.438 C13.5480882,236.277471 13.4960016,238.11853 13.338,239.952 L13.338,239.952 Z" id="Path" fill="#263238"></path>
                    <path d="M46.2,239.952 C46.0456109,238.118325 45.9935302,236.277471 46.044,234.438 C45.9933433,232.598529 46.0454243,230.757665 46.2,228.924 C46.3581883,230.75746 46.4102752,232.59853 46.356,234.438 C46.4100882,236.277471 46.3580016,238.11853 46.2,239.952 L46.2,239.952 Z" id="Path" fill="#263238"></path>
                    <path d="M79.008,239.952 C78.8499984,238.11853 78.7979118,236.277471 78.852,234.438 C78.7977248,232.59853 78.8498117,230.75746 79.008,228.924 C79.1625757,230.757665 79.2146567,232.598529 79.164,234.438 C79.2144698,236.277471 79.1623891,238.118325 79.008,239.952 L79.008,239.952 Z" id="Path" fill="#263238"></path>
                    <path d="M111.84,239.952 C111.681998,238.11853 111.629912,236.277471 111.684,234.438 C111.629725,232.59853 111.681812,230.75746 111.84,228.924 C111.994576,230.757665 112.046657,232.598529 111.996,234.438 C112.04647,236.277471 111.994389,238.118325 111.84,239.952 L111.84,239.952 Z" id="Path" fill="#263238"></path>
                    <path d="M144.672,239.952 C144.517611,238.118325 144.46553,236.277471 144.516,234.438 C144.465343,232.598529 144.517424,230.757665 144.672,228.924 C144.826576,230.757665 144.878657,232.598529 144.828,234.438 C144.87847,236.277471 144.826389,238.118325 144.672,239.952 L144.672,239.952 Z" id="Path" fill="#263238"></path>
                    <path d="M177.504,239.952 C177.349611,238.118325 177.29753,236.277471 177.348,234.438 C177.297343,232.598529 177.349424,230.757665 177.504,228.924 C177.662188,230.75746 177.714275,232.59853 177.66,234.438 C177.714088,236.277471 177.662002,238.11853 177.504,239.952 L177.504,239.952 Z" id="Path" fill="#263238"></path>
                    <path d="M214.872,239.952 C214.717611,238.118325 214.66553,236.277471 214.716,234.438 C214.665343,232.598529 214.717424,230.757665 214.872,228.924 C215.026576,230.757665 215.078657,232.598529 215.028,234.438 C215.07847,236.277471 215.026389,238.118325 214.872,239.952 L214.872,239.952 Z" id="Path" fill="#263238"></path>
                    <path d="M252.24,239.952 C252.081998,238.11853 252.029912,236.277471 252.084,234.438 C252.029725,232.59853 252.081812,230.75746 252.24,228.924 C252.394576,230.757665 252.446657,232.598529 252.396,234.438 C252.44647,236.277471 252.394389,238.118325 252.24,239.952 L252.24,239.952 Z" id="Path" fill="#263238"></path>
                    <path d="M206.268,208.2 C205.242,209.58 203.34,209.064 202.476,208.2 C201.612,207.336 201.276,206.064 200.958,204.87 C200.25,202.134 199.536,199.272 200.19,196.524 C200.353114,195.691485 200.741155,194.919554 201.312,194.292 C201.899686,193.659546 202.781784,193.39148 203.622,193.59 C204.582,193.872 205.158,194.832 205.566,195.744 C206.77424,198.433308 207.366658,201.358496 207.3,204.306 C207.357597,205.68415 206.997914,207.047599 206.268,208.218" id="Path" fill="#D61335"></path>
                    <g id="Group" opacity="0.2" transform="translate(199.800000, 193.200000)" fill="#000000">
                        <path d="M6.468,15 C5.442,16.38 3.54,15.864 2.676,15 C1.812,14.136 1.476,12.864 1.158,11.67 C0.45,8.934 -0.264,6.072 0.39,3.324 C0.553114036,2.49148459 0.941154583,1.71955367 1.512,1.092 C2.09968639,0.45954559 2.98178363,0.191479674 3.822,0.39 C4.782,0.672 5.358,1.632 5.766,2.544 C6.97424042,5.23330804 7.56665762,8.15849607 7.5,11.106 C7.55759712,12.4841496 7.1979142,13.8475988 6.468,15.018" id="Path"></path>
                    </g>
                    <path d="M202.386,215.202 C200.755378,214.381985 198.904766,214.106496 197.106,214.416 C196.126491,214.477794 195.195479,214.864132 194.46,215.514 C193.788,216.222 193.632,217.488 194.364,218.13 C194.840982,218.467036 195.419204,218.630125 196.002,218.592 C197.406,218.592 198.966,218.406 200.064,219.276 C200.664,219.774 201.09,220.584 201.864,220.842 C202.645224,221.046327 203.466919,220.705385 203.874,220.008 C204.25739,219.316794 204.358446,218.504048 204.156,217.74 C203.997927,216.662736 203.342275,215.722598 202.386,215.202 Z" id="Path" fill="#D61335"></path>
                    <path d="M208.92,210.264 C207.926342,208.894459 207.674734,207.121969 208.248,205.53 C208.82871,203.962144 209.831671,202.585409 211.146,201.552 C212.63828,200.295188 214.360037,199.339562 216.216,198.738 C216.938255,198.469877 217.70952,198.359404 218.478,198.414 C219.256344,198.483007 219.950304,198.932172 220.332,199.614 C220.83,200.628 220.296,201.834 219.732,202.812 C218.72283,204.53395 217.581395,206.174888 216.318,207.72 C215.298,208.962 214.14,210.186 212.622,210.72 C211.104,211.254 209.556,211.146 208.788,210.084" id="Path" fill="#D61335"></path>
                    <path d="M205.8,229.398 C205.754019,229.18704 205.729892,228.971905 205.728,228.756 C205.692,228.288 205.65,227.706 205.602,227.01 C205.539594,226.146874 205.431442,225.287667 205.278,224.436 C205.076687,223.400639 204.791753,222.383305 204.426,221.394 C204.068329,220.40381 203.573506,219.468696 202.956,218.616 C202.452771,217.924283 201.800758,217.354284 201.048,216.948 C200.538744,216.677585 199.989989,216.489267 199.422,216.39 C199.206968,216.374973 198.993939,216.338798 198.786,216.282 C199.001488,216.260972 199.218512,216.260972 199.434,216.282 C200.02447,216.345172 200.599226,216.511709 201.132,216.774 C201.926793,217.173007 202.617196,217.752452 203.148,218.466 C203.792393,219.327812 204.305936,220.280091 204.672,221.292 C205.043893,222.297307 205.326975,223.33327 205.518,224.388 C205.66144,225.24761 205.751612,226.115264 205.788,226.986 C205.824,227.73 205.83,228.33 205.83,228.744 C205.844891,228.962432 205.834826,229.181849 205.8,229.398 Z" id="Path" fill="#263238"></path>
                    <path d="M205.692,228.054 C205.678854,227.954432 205.678854,227.853568 205.692,227.754 C205.692,227.532 205.692,227.25 205.692,226.908 C205.692,226.17 205.74,225.108 205.74,223.788 C205.74,221.154 205.608,217.518 205.278,213.516 C204.948,209.514 204.456,205.902 203.988,203.316 C203.88,202.668 203.766,202.08 203.664,201.57 C203.562,201.06 203.478,200.61 203.394,200.256 L203.214,199.422 C203.186141,199.326485 203.172,199.227495 203.172,199.128 C203.212854,199.218749 203.244999,199.313173 203.268,199.41 C203.328,199.626 203.4,199.896 203.49,200.232 C203.58,200.568 203.694,201.024 203.808,201.54 C203.922,202.056 204.054,202.632 204.174,203.28 C204.809865,206.653447 205.266506,210.058221 205.542,213.48 C205.872,217.494 205.974,221.142 205.926,223.776 C205.926,225.096 205.848,226.176 205.794,226.902 C205.762,227.242 205.738,227.524 205.722,227.748 C205.72268,227.850766 205.712626,227.953323 205.692,228.054 L205.692,228.054 Z" id="Path" fill="#263238"></path>
                    <path d="M205.86,221.028 C205.834951,220.73253 205.834951,220.43547 205.86,220.14 C205.908,219.57 206.01,218.748 206.196,217.74 C206.422807,216.564557 206.715265,215.402738 207.072,214.26 C207.4986,212.858602 208.023914,211.489176 208.644,210.162 C209.723589,207.710324 211.237997,205.474286 213.114,203.562 C213.45685,203.245176 213.819589,202.950576 214.2,202.68 C214.356,202.554 214.494,202.422 214.638,202.326 L215.04,202.062 C215.282492,201.894766 215.534961,201.742484 215.796,201.606 C214.920319,202.261234 214.084812,202.968509 213.294,203.724 C211.478556,205.644508 210.003465,207.860187 208.932,210.276 C208.315335,211.595785 207.786191,212.954721 207.348,214.344 C206.973953,215.479286 206.657549,216.632758 206.4,217.8 C206.19,218.796 206.064,219.6 205.98,220.17 C205.960239,220.458467 205.920139,220.74518 205.86,221.028 L205.86,221.028 Z" id="Path" fill="#263238"></path>
                    <path d="M151.74,96.858 L151.74,96.858 C148.326831,96.725828 145.578439,94.0112701 145.404,90.6 L145.116,84.75 C145.116,84.75 139.668,84.192 139.32,78.786 C138.972,73.38 139.254,60.93 139.254,60.93 L139.254,60.93 C145.370023,57.9123049 152.640168,58.4402914 158.256,62.31 L159.09,62.91 L158.562,90.432 C158.516621,92.1912065 157.770562,93.8594416 156.489578,95.0660677 C155.208594,96.2726939 153.498776,96.9177782 151.74,96.858 L151.74,96.858 Z" id="Path" fill="#FFBE9D"></path>
                    <path d="M145.104,84.672 C147.605001,84.5791944 150.021708,83.7436864 152.046,82.272 C152.046,82.272 150.582,86.25 145.164,86.046 L145.104,84.672 Z" id="Path" fill="#EB996E"></path>
                    <path d="M158.712,68.52 C158.802,68.472 162.372,67.224 162.444,70.92 C162.516,74.616 158.79,73.92 158.784,73.83 C158.778,73.74 158.712,68.52 158.712,68.52 Z" id="Path" fill="#FFBE9D"></path>
                    <path d="M159.882,72.408 C159.882,72.408 159.948,72.456 160.056,72.504 C160.212833,72.5618656 160.385167,72.5618656 160.542,72.504 C161.018721,72.1825222 161.288417,71.631703 161.25,71.058 C161.253207,70.739141 161.18558,70.4235473 161.052,70.134 C160.972284,69.9023067 160.787568,69.7220425 160.554,69.648 C160.400236,69.6158262 160.244327,69.692543 160.176,69.834 C160.134,69.942 160.176,70.014 160.134,70.02 C160.092,70.026 160.056,69.96 160.08,69.804 C160.101348,69.7266237 160.142743,69.6562533 160.2,69.6 C160.300337,69.5214376 160.427243,69.4848715 160.554,69.498 C160.864691,69.5539901 161.123835,69.7676699 161.238,70.062 C161.402849,70.3786696 161.487328,70.7310072 161.484,71.088 C161.535576,71.7595794 161.178175,72.3962735 160.578,72.702 C160.375829,72.7689313 160.154018,72.7378778 159.978,72.618 C159.894,72.498 159.87,72.414 159.882,72.408 Z" id="Path" fill="#EB996E"></path>
                    <path d="M142.254,69.468 C142.276529,69.8836641 142.623786,70.2070639 143.04,70.2 C143.23883,70.204851 143.4312,70.1292444 143.57352,69.9903133 C143.71584,69.8513822 143.796059,69.6608888 143.796,69.462 C143.779751,69.0449106 143.43335,68.7171616 143.016,68.724 C142.8151,68.7174557 142.620223,68.7931403 142.476402,68.9335645 C142.33258,69.0739886 142.252259,69.2670011 142.254,69.468 L142.254,69.468 Z" id="Path" fill="#263238"></path>
                    <path d="M140.676,68.478 C140.778,68.574 141.342,68.112 142.17,68.07 C142.998,68.028 143.634,68.412 143.718,68.304 C143.802,68.196 143.652,68.082 143.376,67.902 C143.00458,67.6712284 142.570386,67.5621555 142.134,67.59 C141.695873,67.6063431 141.274842,67.7642301 140.934,68.04 C140.706,68.25 140.628,68.436 140.676,68.478 Z" id="Path" fill="#263238"></path>
                    <path d="M150.366,69.048 C150.382251,69.4684034 150.731338,69.7988367 151.152,69.792 C151.35083,69.796851 151.5432,69.7212444 151.68552,69.5823133 C151.82784,69.4433822 151.908059,69.2528888 151.908,69.054 C151.8918,68.6359549 151.546344,68.3064431 151.128,68.31 C150.928615,68.3051687 150.735639,68.3805919 150.592374,68.5193452 C150.449108,68.6580986 150.36755,68.8485629 150.366,69.048 L150.366,69.048 Z" id="Path" fill="#263238"></path>
                    <path d="M148.848,68.202 C148.95,68.298 149.514,67.836 150.342,67.794 C151.17,67.752 151.806,68.136 151.89,68.034 C151.974,67.932 151.824,67.806 151.548,67.626 C151.175502,67.3977834 150.742129,67.288917 150.306,67.314 C149.868215,67.3320372 149.447698,67.4897311 149.106,67.764 C148.878,67.974 148.8,68.16 148.848,68.202 Z" id="Path" fill="#263238"></path>
                    <path d="M146.154,74.52 C145.711059,74.4061649 145.255329,74.3497028 144.798,74.352 C144.582,74.352 144.378,74.304 144.336,74.166 C144.305183,73.94793 144.342924,73.725673 144.444,73.53 C144.618,73.002 144.798,72.456 144.984,71.88 C145.74,69.534 146.268,67.614 146.184,67.584 C145.564805,68.9417751 145.053231,70.3460951 144.654,71.784 C144.474,72.384 144.306,72.918 144.138,73.44 C144.018294,73.7036273 143.994936,74.0009122 144.072,74.28 C144.142791,74.4286793 144.277554,74.5369318 144.438,74.574 C144.559617,74.5876728 144.682383,74.5876728 144.804,74.574 C145.254468,74.6133598 145.708115,74.595214 146.154,74.52 L146.154,74.52 Z" id="Path" fill="#263238"></path>
                    <path d="M148.464,64.962 C148.56,65.184 149.382,65.034 150.36,65.1 C151.338,65.166 152.16,65.388 152.262,65.178 C152.316,65.082 152.166,64.872 151.836,64.674 C151.40048,64.421716 150.910756,64.2776796 150.408,64.254 C149.907009,64.2223723 149.405583,64.3086834 148.944,64.506 C148.596,64.668 148.422,64.854 148.464,64.962 Z" id="Path" fill="#263238"></path>
                    <path d="M140.856,66.06 C141.012,66.24 141.576,66.012 142.26,65.97 C142.944,65.928 143.538,66.03 143.664,65.826 C143.718,65.724 143.616,65.538 143.352,65.376 C142.630285,64.9724557 141.736101,65.0459828 141.09,65.562 C140.856,65.772 140.784,66 140.856,66.06 Z" id="Path" fill="#263238"></path>
                    <path d="M136.446,57.654 C136.339431,56.9838142 136.581371,56.3054785 137.088,55.854 C137.62927,55.41454 138.409323,55.4323262 138.93,55.896 C138.800451,55.4447928 138.869971,54.9597263 139.121035,54.5630682 C139.372099,54.16641 139.780756,53.8960005 140.244,53.82 C141.12,53.718 141.906,54.342 142.77,54.534 C143.630088,54.6694482 144.510873,54.5198411 145.278,54.108 C146.064,53.748 146.784,53.262 147.582,52.908 C151.07657,51.4222606 155.115759,53.0283 156.636,56.508 C157.855213,56.1400197 159.175052,56.5624636 159.954,57.57 C160.695318,58.5793813 161.035302,59.8281282 160.908,61.074 C160.836228,61.9097784 160.671202,62.7349075 160.416,63.534 C160.416,63.6 160.416,63.672 160.416,63.738 C160.518,66.738 160.362,70.224 159.096,70.338 C156.888,70.488 157.194,66.294 157.194,66.294 C154.428,65.388 155.226,61.272 154.518,60.696 C153.81,60.12 152.31,58.752 146.784,61.956 C144.720874,63.0104759 142.378034,63.3883534 140.088,63.036 L139.944,63.036 L139.908,63.036 L139.866,63.036 C139.344102,62.9306368 138.840655,62.7486682 138.372,62.496 C137.826774,62.2156311 137.383788,61.7705453 137.106,61.224 C136.832885,60.6606478 136.92009,59.9889384 137.328,59.514 C136.850283,58.9990729 136.54238,58.3497547 136.446,57.654 Z" id="Path" fill="#263238"></path>
                    <path d="M145.584,77.112 C145.716651,77.4422225 145.896526,77.7514453 146.118,78.03 C146.342177,78.3119577 146.676313,78.4844854 147.036,78.504 C147.427748,78.4793946 147.778156,78.2518573 147.96,77.904 C148.14476,77.5695639 148.218308,77.1850118 148.17,76.806 C148.134,76.47 147.96,76.068 147.618,76.044 C147.474795,76.0485286 147.334812,76.0876415 147.21,76.158 L145.464,76.974" id="Path" fill="#EB996E"></path>
                    <path d="M146.4,78.546 C146.721343,78.5447851 147.040049,78.4879458 147.342,78.378 C147.646746,78.2394393 147.890106,77.9939442 148.026,77.688 C148.18174,77.3107736 148.168637,76.8849378 147.99,76.518 C147.944653,76.4255151 147.88824,76.3388806 147.822,76.26 C147.744,76.188 147.762,76.194 147.684,76.206 C147.606,76.218 147.498,76.29 147.402,76.332 L147.114,76.47 L146.118,76.92 C145.821696,77.0872766 145.499094,77.2029264 145.164,77.262 C145.419952,77.0366031 145.709414,76.8524002 146.022,76.716 C146.292,76.566 146.622,76.392 146.988,76.206 L147.27,76.062 C147.372597,76.0050828 147.478826,75.9549747 147.588,75.912 C147.673324,75.8813097 147.766676,75.8813097 147.852,75.912 C147.932375,75.9394965 148.003176,75.9894732 148.056,76.056 C148.142115,76.1551798 148.216599,76.2638867 148.278,76.38 C148.490572,76.8343668 148.490572,77.3596332 148.278,77.814 C148.103286,78.1758036 147.792767,78.4539769 147.414,78.588 C147.167843,78.6840493 146.89965,78.7089975 146.64,78.66 C146.454,78.6 146.4,78.564 146.4,78.546 Z" id="Path" fill="#263238"></path>
                    <path d="M154.686,60.138 C154.698613,59.919549 154.688559,59.7003789 154.656,59.484 C154.530257,58.899014 154.203268,58.3766819 153.732,58.008 C153.022939,57.4741047 152.135647,57.233483 151.254,57.336 C150.174074,57.4630933 149.119909,57.7544557 148.128,58.2 C147.602279,58.4143945 147.065519,58.6006579 146.52,58.758 C146.006704,58.90302 145.479997,58.9954952 144.948,59.034 C144.04852,59.1065756 143.143222,59.0356909 142.266,58.824 C141.678082,58.6858377 141.106779,58.4846746 140.562,58.224 C140.37,58.128 140.226,58.044 140.13,57.99 C140.0806,57.9631876 140.034319,57.9309917 139.992,57.894 C139.992,57.894 140.202,57.996 140.592,58.17 C141.140541,58.4123611 141.711184,58.601236 142.296,58.734 C143.161983,58.9262502 144.052275,58.9849286 144.936,58.908 C145.457948,58.8643759 145.974395,58.7699285 146.478,58.626 C147,58.482 147.534,58.278 148.074,58.068 C149.079349,57.6120147 150.150657,57.3183669 151.248,57.198 C152.163547,57.1023148 153.080361,57.3670286 153.804,57.936 C154.287008,58.3231677 154.61145,58.8738649 154.716,59.484 C154.755707,59.7014555 154.745448,59.9250929 154.686,60.138 Z" id="Path" fill="#455A64"></path>
                    <path d="M159.366,69.054 C159.33512,69.0195796 159.308896,68.9812517 159.288,68.94 C159.246,68.868 159.18,68.754 159.102,68.604 C158.891604,68.1820535 158.724743,67.7397701 158.604,67.284 C158.421318,66.6055346 158.336461,65.9044576 158.352,65.202 C158.41379,64.3510911 158.532051,63.505228 158.706,62.67 C158.875542,61.8427224 158.832186,60.9859371 158.58,60.18 C158.457947,59.8398553 158.265797,59.5291454 158.016,59.268 C157.787167,59.0465478 157.506697,58.8856899 157.2,58.8 C156.759354,58.6618805 156.282478,58.698398 155.868,58.902 C155.726737,58.9962886 155.592395,59.1005543 155.466,59.214 C155.556906,59.0644315 155.682431,58.9389055 155.832,58.848 C156.25755,58.6085285 156.762131,58.5522233 157.23,58.692 C157.552899,58.7789869 157.849555,58.9437956 158.094,59.172 C158.362448,59.443758 158.567358,59.7716131 158.694,60.132 C158.966648,60.9584425 159.016321,61.8422103 158.838,62.694 C158.667247,63.5239446 158.547026,64.3634882 158.478,65.208 C158.454146,65.8983744 158.5248,66.5887686 158.688,67.26 C158.802161,67.7114143 158.952652,68.1528539 159.138,68.58 C159.224931,68.7325052 159.301116,68.8908898 159.366,69.054 Z" id="Path" fill="#455A64"></path>
                    <path d="M155.184,59.676 C155.175019,59.6022725 155.175019,59.5277275 155.184,59.454 C155.184,59.298 155.184,59.094 155.184,58.854 C155.178375,58.0955311 155.054902,57.3425444 154.818,56.622 C154.638236,56.1335186 154.36745,55.6835665 154.02,55.296 C153.626006,54.8505857 153.100779,54.5417521 152.52,54.414 C151.874819,54.3049505 151.212252,54.3691366 150.6,54.6 C149.934061,54.8512803 149.299761,55.1795054 148.71,55.578 C148.114003,55.9847161 147.490506,56.3495921 146.844,56.67 C146.224799,56.9452622 145.563444,57.1136442 144.888,57.168 C144.285064,57.2131754 143.678763,57.1707344 143.088,57.042 C142.570573,56.9200935 142.067701,56.7430827 141.588,56.514 C140.904192,56.1672828 140.29317,55.6927228 139.788,55.116 C139.645272,54.9640465 139.516737,54.799361 139.404,54.624 C139.362274,54.5643619 139.324204,54.5022479 139.29,54.438 C139.343072,54.4894457 139.391276,54.5456847 139.434,54.606 C139.556268,54.7718827 139.688512,54.930175 139.83,55.08 C140.336844,55.6217167 140.936225,56.0687131 141.6,56.4 C142.071528,56.6214232 142.56671,56.7884969 143.076,56.898 C143.667208,57.0237344 144.273653,57.0621426 144.876,57.012 C145.533575,56.9546058 146.176674,56.7862234 146.778,56.514 C147.416871,56.1946456 148.034187,55.8338767 148.626,55.434 C149.223111,55.0267319 149.867926,54.694249 150.546,54.444 C151.189007,54.2012593 151.88616,54.1390134 152.562,54.264 C153.15985,54.4104236 153.698192,54.7371993 154.104,55.2 C154.457262,55.6036922 154.72833,56.0724567 154.902,56.58 C155.137305,57.3122782 155.246855,58.0791276 155.226,58.848 C155.226,59.118 155.226,59.328 155.226,59.448 C155.218745,59.525089 155.20469,59.6013859 155.184,59.676 Z" id="Path" fill="#455A64"></path>
                    <polygon id="Path" fill="#FFBE9D" points="146.832 263.586 154.512 187.62 135.714 186.174 135.858 262.32"></polygon>
                    <path d="M157.638,186.162 L154.896,205.416 L187.896,234.048 L180.81,242.25 L143.79,217.524 C140.79,215.412 137.334,211.266 137.526,207.594 L138.816,183.426 L157.638,186.162 Z" id="Path" fill="#FFBE9D"></path>
                    <path d="M179.4,241.446 L179.4,241.446 C179.4,241.446 176.4,254.046 178.17,255.444 L191.268,235.878 L186.168,232.428 L185.85,233.256 C184.580836,236.577231 182.331223,239.433717 179.4,241.446 Z" id="Path" fill="#D61335"></path>
                    <g id="Group" opacity="0.6" transform="translate(184.800000, 234.600000)" fill="#FFFFFF">
                        <path d="M0.798,0.732 C1.17763711,0.421401082 1.72978247,0.444622149 2.082,0.786 C2.40717196,1.15516966 2.38606944,1.71438662 2.034,2.058 C1.63272387,2.38931237 1.04520394,2.36071626 0.678,1.992 C0.379189468,1.5713374 0.463732252,0.990105758 0.87,0.672" id="Path"></path>
                    </g>
                    <g id="Group" opacity="0.6" transform="translate(177.600000, 234.600000)" fill="#FFFFFF">
                        <path d="M13.656,1.278 L12.03,0.27 L0.084,19.404 C0.084,19.404 -0.12,20.532 0.558,20.844 L13.656,1.278 Z" id="Path"></path>
                    </g>
                    <path d="M179.076,241.692 C179.172,241.752 179.538,241.308 180.162,241.044 C180.786,240.78 181.362,240.798 181.362,240.684 C181.362,240.57 180.732,240.342 179.988,240.684 C179.244,241.026 178.974,241.656 179.076,241.692 Z" id="Path" fill="#263238"></path>
                    <path d="M178.554,244.314 C178.632,244.398 179.07,244.092 179.688,244.038 C180.306,243.984 180.804,244.176 180.888,244.08 C180.972,243.984 180.444,243.558 179.688,243.642 C178.932,243.726 178.464,244.254 178.554,244.314 Z" id="Path" fill="#263238"></path>
                    <path d="M180.228,247.122 C180.306,247.05 179.916,246.6 179.232,246.492 C178.548,246.384 178.032,246.696 178.086,246.792 C178.14,246.888 178.608,246.792 179.166,246.888 C179.724,246.984 180.156,247.2 180.228,247.122 Z" id="Path" fill="#263238"></path>
                    <path d="M179.166,241.446 C179.464267,241.180253 179.687688,240.840985 179.814,240.462 C179.987913,240.066702 180.112839,239.651622 180.186,239.226 C180.230998,238.974305 180.257071,238.719592 180.264,238.464 C180.276644,238.313344 180.266531,238.161644 180.234,238.014 C180.179609,237.79195 179.982573,237.634322 179.754,237.63 C179.553289,237.631038 179.36639,237.732369 179.256,237.9 C179.172091,238.02441 179.105481,238.159648 179.058,238.302 C178.970421,238.545799 178.904172,238.796741 178.86,239.052 C178.794223,239.483508 178.794223,239.922492 178.86,240.354 C178.879815,240.755082 179.022224,241.140425 179.268,241.458 C179.328,241.458 179.178,241.02 179.142,240.324 C179.122047,239.921815 179.15228,239.51871 179.232,239.124 C179.281464,238.892832 179.34969,238.666081 179.436,238.446 C179.52,238.206 179.64,238.026 179.766,238.032 C179.892,238.038 179.832,238.032 179.862,238.128 C179.875556,238.237582 179.875556,238.348418 179.862,238.458 C179.84931,239.106557 179.740112,239.749609 179.538,240.366 C179.388341,240.716644 179.264022,241.07757 179.166,241.446 Z" id="Path" fill="#263238"></path>
                    <path d="M179.4,241.41 C179.442,241.41 179.226,240.966 178.626,240.522 C178.27821,240.25558 177.886225,240.05248 177.468,239.922 C177.219065,239.849032 176.964018,239.798826 176.706,239.772 C176.369731,239.704353 176.022407,239.815587 175.788,240.066 C175.68082,240.251641 175.68082,240.480359 175.788,240.666 C175.870414,240.792523 175.96928,240.90753 176.082,241.008 C176.612384,241.492666 177.314396,241.74539 178.032,241.71 C178.8,241.668 179.178,241.344 179.154,241.314 C179.13,241.284 178.716,241.458 178.032,241.428 C177.638526,241.407327 177.253979,241.303009 176.904,241.122 C176.702571,241.016164 176.5168,240.882894 176.352,240.726 C176.166,240.552 176.046,240.36 176.124,240.3 C176.277878,240.178209 176.478314,240.131955 176.67,240.174 C176.904972,240.187164 177.138088,240.223337 177.366,240.282 C177.754928,240.383108 178.126898,240.540791 178.47,240.75 C179.046,241.11 179.334,241.452 179.4,241.41 Z" id="Path" fill="#263238"></path>
                    <path d="M138.732,193.464 C138.745127,193.581635 138.745127,193.700365 138.732,193.818 C138.732,194.082 138.678,194.418 138.642,194.832 C138.552,195.744 138.438,197.004 138.294,198.54 C138.15,200.076 138,201.972 137.934,204.042 C137.868,206.112 137.784,208.44 138.696,210.642 C139.60782,212.690713 140.919449,214.536786 142.554,216.072 C143.869977,217.351919 145.273362,218.538782 146.754,219.624 C148.014,220.56 149.058,221.286 149.754,221.796 L150.576,222.396 C150.675075,222.460746 150.767522,222.535106 150.852,222.618 C150.740671,222.576831 150.635652,222.520283 150.54,222.45 L149.682,221.91 C148.944,221.43 147.882,220.71 146.598,219.816 C145.089432,218.746324 143.66158,217.567144 142.326,216.288 C140.652119,214.733609 139.311061,212.855719 138.384,210.768 C137.941603,209.667853 137.684132,208.502136 137.622,207.318 C137.562,206.178 137.574,205.08 137.622,204.036 C137.706,201.954 137.886,200.088 138.048,198.522 C138.21,196.956 138.378,195.696 138.498,194.82 C138.558,194.412 138.606,194.082 138.642,193.818 C138.656788,193.696646 138.687033,193.577681 138.732,193.464 Z" id="Path" fill="#EB996E"></path>
                    <path d="M155.622,206.238 C154.94629,206.036274 154.253319,205.89768 153.552,205.824 C152.847267,205.846151 152.146179,205.93454 151.458,206.088 C152.741792,205.265942 154.400685,205.325701 155.622,206.238 L155.622,206.238 Z" id="Path" fill="#EB996E"></path>
                    <path d="M135.858,261.39 L135.858,261.39 C135.858,261.39 123.39,265.05 123.096,267.282 L146.586,268.92 L147.042,262.782 L146.166,262.92 C142.654367,263.471951 139.05792,262.938136 135.858,261.39 L135.858,261.39 Z" id="Path" fill="#D61335"></path>
                    <g id="Group" opacity="0.6" transform="translate(142.800000, 263.400000)" fill="#FFFFFF">
                        <path d="M1.446,0.342 C1.90912654,0.511478395 2.16850377,1.00429513 2.046,1.482 C1.89372354,1.95078026 1.39842844,2.21564395 0.924,2.082 C0.452059651,1.88832038 0.195779485,1.37576005 0.324,0.882 C0.539527079,0.411923173 1.08867551,0.197039004 1.566,0.396" id="Path"></path>
                    </g>
                    <g id="Group" opacity="0.6" transform="translate(123.000000, 265.800000)" fill="#FFFFFF">
                        <path d="M23.586,3.12 L23.652,1.212 L1.104,0.354 C1.104,0.354 0.03,0.738 0.096,1.482 L23.586,3.12 Z" id="Path"></path>
                    </g>
                    <path d="M135.486,261.246 C135.486,261.36 136.05,261.45 136.59,261.846 C137.13,262.242 137.394,262.758 137.502,262.722 C137.61,262.686 137.502,262.008 136.824,261.522 C136.146,261.036 135.468,261.138 135.486,261.246 Z" id="Path" fill="#263238"></path>
                    <path d="M132.948,262.092 C132.912,262.2 133.398,262.434 133.752,262.944 C134.106,263.454 134.184,263.976 134.298,263.982 C134.412,263.988 134.532,263.34 134.076,262.71 C133.62,262.08 132.96,261.984 132.948,262.092 Z" id="Path" fill="#263238"></path>
                    <path d="M131.346,264.942 C131.448,264.978 131.646,264.414 131.394,263.742 C131.142,263.07 130.626,262.806 130.572,262.896 C130.518,262.986 130.824,263.346 131.022,263.886 C131.22,264.426 131.232,264.924 131.346,264.942 Z" id="Path" fill="#263238"></path>
                    <path d="M135.744,261.198 C136.12908,261.334522 136.544487,261.361524 136.944,261.276 C137.372232,261.22838 137.793226,261.129678 138.198,260.982 C138.439469,260.895691 138.674127,260.791399 138.9,260.67 C139.037838,260.605279 139.165243,260.520343 139.278,260.418 C139.440518,260.261942 139.479712,260.016975 139.374,259.818 C139.268534,259.646794 139.088316,259.535548 138.888,259.518 C138.739325,259.508338 138.590024,259.518426 138.444,259.548 C138.188476,259.593763 137.937499,259.662029 137.694,259.752 C137.284607,259.902396 136.901804,260.11709 136.56,260.388 C135.96,260.856 135.762,261.27 135.798,261.294 C135.834,261.318 136.14,260.994 136.722,260.616 C137.062572,260.398254 137.429535,260.224854 137.814,260.1 C138.038756,260.025699 138.269661,259.971487 138.504,259.938 C138.756,259.89 138.966,259.902 139.026,260.016 C139.086,260.13 139.026,260.076 138.99,260.148 C138.905433,260.220374 138.812825,260.282784 138.714,260.334 C138.504034,260.450094 138.287691,260.554259 138.066,260.646 C137.689727,260.799586 137.300072,260.91809 136.902,261 C136.511571,261.036796 136.124474,261.102984 135.744,261.198 Z" id="Path" fill="#263238"></path>
                    <path d="M135.882,261.372 C136.126139,261.050276 136.26261,260.659759 136.272,260.256 C136.320111,259.822998 136.295778,259.385008 136.2,258.96 C136.142217,258.705814 136.057748,258.458442 135.948,258.222 C135.843938,257.896691 135.573908,257.651833 135.24,257.58 C135.026423,257.566585 134.824699,257.679175 134.724,257.868 C134.659169,258.004334 134.608891,258.147123 134.574,258.294 C134.517846,258.554007 134.499657,258.820778 134.52,259.086 C134.555592,259.530137 134.699824,259.958713 134.94,260.334 C135.354,260.976 135.822,261.15 135.834,261.108 C135.846,261.066 135.492,260.802 135.186,260.196 C135.004471,259.844411 134.902076,259.457359 134.886,259.062 C134.877612,258.833725 134.901857,258.605422 134.958,258.384 C135.012,258.138 135.12,257.946 135.21,257.976 C135.3,258.006 135.51,258.186 135.594,258.39 C135.695922,258.602052 135.778264,258.822969 135.84,259.05 C135.947627,259.440669 135.998151,259.844858 135.99,260.25 C135.972,260.928 135.822,261.348 135.882,261.372 Z" id="Path" fill="#263238"></path>
                    <polygon id="Path" fill="#263238" points="134.112 190.692 137.85 152.562 142.392 151.71 138.006 190.764"></polygon>
                    <path d="M169.8,149.268 C169.8,149.268 171.468,160.452 170.106,163.434 C168.744,166.416 163.8,175.092 163.284,178.8 L162,196.8 L137.91,193.32 L138.012,190.74 L139.572,151.038 L158.262,144.066 L169.8,149.268 Z" id="Path" fill="#263238"></path>
                    <path d="M140.202,162.659996 C140.286,162.659996 139.848,169.02 139.224,176.844 C138.6,184.668 138.024,191.016 137.94,191.010004 C137.856,191.004 138.288,184.65 138.912,176.82 C139.536,168.99 140.112,162.654 140.202,162.659996 Z" id="Path" fill="#455A64"></path>
                    <path d="M158.79,85.566 L169.236,94.2 L169.788,149.292 C169.788,149.292 158.388,145.884 153.642,147.216 C148.896,148.548 142.842,153.456 140.7,153.348 C139.481717,153.278016 138.25978,153.306107 137.046,153.432 L137.694,145.2 C137.694,145.2 135.534,138.474 136.62,133.518 C137.706,128.562 140.532,112.668 140.952,105.264 L145.668,91.8 L158.79,85.566 Z" id="Path" fill="#00A0FF"></path>
                    <path d="M152.94,134.4 C152.905926,134.619188 152.843398,134.832992 152.754,135.036 C152.550494,135.605106 152.309981,136.160291 152.034,136.698 C151.631639,137.502248 151.168285,138.274506 150.648,139.008 C149.37025,140.809895 147.786231,142.373606 145.968,143.628 C145.228405,144.136495 144.452298,144.589726 143.646,144.984 C143.103172,145.25093 142.544065,145.483391 141.972,145.68 C141.764885,145.762289 141.549707,145.822619 141.33,145.86 C141.33,145.806 142.206,145.494 143.544,144.786 C144.32522,144.37334 145.078807,143.910366 145.8,143.4 C146.681251,142.76751 147.513606,142.069535 148.29,141.312 C149.055884,140.545525 149.763829,139.723267 150.408,138.852 C150.931837,138.13677 151.406912,137.387074 151.83,136.608 C152.562,135.288 152.886,134.4 152.94,134.4 Z" id="Path" fill="#263238"></path>
                    <g id="Group" opacity="0.3" transform="translate(153.000000, 102.600000)" fill="#000000">
                        <path d="M0.426,1.494 C0.126,8.25 0.336,15.996 3.114,22.158 C4.404,25.02 6.162,27.78 6.444,30.906 C6.63,32.982 6.144,35.046 5.664,37.074 C5.112,39.378 3.864,42.57 4.83,44.334 C7.64670154,41.6332239 9.52797058,38.1040052 10.2,34.26 C10.686,31.548 10.128,28.758 9.486,26.076 C7.368,17.22 4.29,8.616 1.05,0.102" id="Path"></path>
                    </g>
                    <path d="M163.83,90.894 C163.83,90.894 167.718,91.59 169.23,94.176 C170.742,96.762 175.488,123.6 175.488,123.6 L157.656,123.984 L153.456,105.426 C153.456,105.426 151.026,90.096 163.83,90.894 Z" id="Path" fill="#00A0FF"></path>
                    <path d="M175.488,123.6 C175.376992,123.619046 175.264626,123.629079 175.152,123.63 L174.174,123.678 L170.496,123.798 L157.662,124.128 L157.542,124.128 L157.542,124.008 L155.322,113.91 C154.794,111.51 154.284,109.152 153.804,106.962 L153.804,106.962 C153.400074,105.534648 153.225895,104.052104 153.288,102.57 C153.318152,101.219982 153.47687,99.8759084 153.762,98.556 C153.993804,97.3695068 154.398093,96.2233493 154.962,95.154 C155.471708,94.2495554 156.131049,93.4380597 156.912,92.754 C158.010831,91.7453641 159.397518,91.1055162 160.878,90.924 C161.105561,90.9039985 161.334439,90.9039985 161.562,90.924 C161.72855,90.9199007 161.895147,90.9299367 162.06,90.954 L162.462,91.026 C161.938794,90.9852 161.413206,90.9852 160.89,91.026 C159.44584,91.244832 158.102392,91.8977229 157.038,92.898 C156.283236,93.5883167 155.648572,94.3993882 155.16,95.298 C154.620543,96.3531887 154.236567,97.4808664 154.02,98.646 C153.745129,99.9506978 153.596444,101.278819 153.576,102.612 C153.520967,104.060252 153.695115,105.508104 154.092,106.902 L154.092,106.902 L154.092,106.902 C154.578,109.092 155.088,111.432 155.622,113.85 C156.396,117.45 157.14,120.84 157.818,123.954 L157.674,123.84 L170.508,123.618 L174.192,123.582 L175.17,123.582 L175.488,123.6 Z" id="Path" fill="#263238"></path>
                    <path d="M153.318,101.454 C151.44093,101.768654 149.548134,101.980968 147.648,102.09 C145.757432,102.303686 143.856596,102.413851 141.954,102.42 C143.831187,102.104952 145.723896,101.890645 147.624,101.778 C149.514504,101.564263 151.415454,101.456095 153.318,101.454 L153.318,101.454 Z" id="Path" fill="#FAFAFA"></path>
                    <path d="M170.298,98.136 C170.328,98.22 166.602,99.438 161.982,100.854 C157.362,102.27 153.582,103.35 153.582,103.254 C153.582,103.158 157.278,101.958 161.898,100.542 C166.518,99.126 170.274,98.058 170.298,98.136 Z" id="Path" fill="#FAFAFA"></path>
                    <path d="M155.856,116.706 C155.856,116.79 152.196,116.874 147.678,116.886 C143.16,116.898 139.5,116.85 139.5,116.76 C139.5,116.67 143.16,116.592 147.678,116.574 C152.196,116.556 155.856,116.616 155.856,116.706 Z" id="Path" fill="#FAFAFA"></path>
                    <path d="M174.6,118.284 C174.6,118.368 170.814,118.956 166.11,119.592 C161.406,120.228 157.59,120.672 157.577972,120.588 C157.566,120.504 161.37,119.916 166.068,119.28 C170.766,118.644 174.564,118.2 174.6,118.284 Z" id="Path" fill="#FAFAFA"></path>
                    <path d="M160.2,90.99 C160.134,91.056 159.162,90.084 157.8,89.106 C156.438,88.128 155.208,87.504 155.25,87.42 C157.214817,88.1165447 158.93606,89.3668419 160.206,91.02 L160.2,90.99 Z" id="Path" fill="#FAFAFA"></path>
                    <path d="M152.148,135.774 C151.948892,135.800714 151.747108,135.800714 151.548,135.774 C151.146,135.774 150.57,135.726 149.862,135.684 C148.44,135.594 146.478,135.444 144.306,135.264 C142.134,135.084 140.178,134.904 138.762,134.754 C138.054,134.682 137.478,134.616 137.088,134.562 C136.884296,134.551017 136.682748,134.514739 136.488,134.454 C136.687136,134.427709 136.888864,134.427709 137.088,134.454 L138.774,134.544 C140.196,134.64 142.158,134.784 144.324,134.964 C146.49,135.144 148.446,135.33 149.862,135.474 C150.576,135.546 151.146,135.612 151.542,135.666 C151.747627,135.677339 151.951116,135.713605 152.148,135.774 L152.148,135.774 Z" id="Path" fill="#FAFAFA"></path>
                    <path d="M161.76,132.396 C160.330266,132.883343 158.86885,133.272252 157.386,133.56 C155.924997,133.941537 154.439496,134.222198 152.94,134.4 C154.369437,133.911677 155.830921,133.52275 157.314,133.236 C158.774878,132.853906 160.260418,132.573238 161.76,132.396 L161.76,132.396 Z" id="Path" fill="#FAFAFA"></path>
                    <path d="M158.544,146.076 C158.544,146.16 153.798,147.114 147.918,148.206 C142.038,149.298 137.244,150.108 137.231977,150.006 C137.22,149.904 141.972,148.968 147.858,147.882 C153.744,146.796 158.526,145.992 158.544,146.076 Z" id="Path" fill="#FAFAFA"></path>
                    <path d="M173.754,123.654 L175.266,134.532 C175.612203,137.000771 174.911868,139.501969 173.334,141.432 L157.098,161.292 C157.098,161.292 154.698,168.456 153.36,170.19 C153.36,170.19 149.88,164.682 150.102,160.674 L153.294,157.524 L162.384,136.308 L160.41,123.942 L173.754,123.654 Z" id="Path" fill="#FFBE9D"></path>
                    <path d="M153.726,156.51 L150.84,159.942 C150.402888,160.30782 149.930577,160.629394 149.43,160.902 C148.848898,161.08913 148.24027,161.176367 147.63,161.16 C146.939981,161.154732 146.252345,161.078328 145.578,160.932 C145.53,160.932 145.47,160.902 145.434,160.884 C145.344589,160.839481 145.245875,160.816859 145.146,160.818 C144.884716,160.771753 144.619867,160.878095 144.463117,161.092193 C144.306367,161.306291 144.284991,161.590889 144.408,161.826 C144.726,162.324 146.28,162.99 148.29,162.99 L148.386,162.99 C150.432,163.044 147.888,164.958 146.976,165.672 C146.064,166.386 143.376,168.72 143.376,169.17 C143.376,169.824 144.108,169.944 145.002,169.212 C145.896,168.48 148.74,166.464 149.106,166.956 C149.472,167.448 144.768,171.006 144.768,171.006 C144.768,171.006 143.634,171.606 144.036,172.206 C144.762,173.256 150.402,168.606 150.84,168.198 C151.14,167.916 150.63,168.93 150.288,169.212 C149.946,169.494 145.488,172.668 146.244,173.742 C146.802,174.564 150.15,170.358 151.44,170.202 C152.73,170.046 148.572,173.136 149.142,173.904 C149.352,174.186 149.55,174.372 151.674,172.254 C152.977625,170.881456 154.194006,169.428612 155.316,167.904 L155.724,167.148 L158.07,160.158 C155.028,159.396 155.4,158.916 153.726,156.51 Z" id="Path" fill="#FFBE9D"></path>
                    <rect id="Rectangle" fill="#455A64" x="72.732" y="9.876" width="4.554" height="121.584"></rect>
                    <circle id="Oval" fill="#D61335" cx="75.006" cy="14.082" r="14.082"></circle>
                    <rect id="Rectangle" fill="#455A64" x="70.908" y="27.552" width="7.968" height="1.722" rx="0.828"></rect>
                    <polygon id="Path" fill="#263238" points="79.56 229.134 70.452 229.38 70.452 119.364 79.56 119.364"></polygon>
                    <rect id="Rectangle" fill="#263238" x="67.092" y="117.474" width="15.732" height="1.89" rx="0.912"></rect>
                </g>
            </g>
        </g>
    </g>
</svg>