<?xml version="1.0" encoding="UTF-8"?>
<svg width="310px" height="307px" viewBox="0 0 310 307" version="1.1" xmlns="http://www.w3.org/2000/svg" xmlns:xlink="http://www.w3.org/1999/xlink">
    <title>Group 3</title>
    <g id="Page-1" stroke="none" stroke-width="1" fill="none" fill-rule="evenodd">
        <g id="For-you-and-your-partner-Copy" transform="translate(-68.000000, -835.000000)">
            <g id="Group-3" transform="translate(68.000000, 835.000000)">
                <circle id="Mask-Copy" fill="#E13856" opacity="0.0770321801" cx="155" cy="157" r="150"></circle>
                <g id="Asset-22" fill-rule="nonzero">
                    <path d="M174.447,285.6 C162.386,279.888 157.57,266.308 155.869,253.659 C155.582,251.559 154.98,249.375 155.666,247.359 C156.352,245.343 158.466,243.698 160.496,244.258 C162.183,244.734 163.17,246.428 164.297,247.758 C165.798199,249.563979 167.781494,250.906405 170.016,251.629 C171.465,252.098 173.194,252.245 174.391,251.293 C176.029,249.984 175.791,247.45 175.455,245.364 C174.769,241.472 174.085333,237.584667 173.404,233.702 C172.929707,231.637688 172.790262,229.510565 172.991,227.402 C173.306,225.302 174.426,223.202 176.316,222.334 C178.206,221.466 180.859,222.173 181.622,224.14 C181.849756,224.990625 182.018162,225.85604 182.126,226.73 C182.329,227.591 182.896,228.48 183.757,228.585 C184.618,228.69 185.367,227.955 185.892,227.234 C187.691,224.763 188.692,221.802 189.602,218.869 C190.512,215.936 191.366,212.947 192.934,210.315 C194.502,207.683 196.896,205.415 199.857,204.715 C202.818,204.015 206.318,205.352 207.557,208.159 C208.796,210.966 207.599,214.249 206.157,216.951 C203.982796,220.953161 201.240696,224.619512 198.016,227.836 C197.37108,228.360005 196.910078,229.076029 196.7,229.88 C196.476,231.35 198.03,232.505 199.5,232.736 C201.138,232.988 202.804,232.54 204.463,232.456 C206.122,232.372 208.012,232.792 208.887,234.227 C210.098,236.215 208.691,238.756 207.186,240.527 C204.164547,244.056742 200.558267,247.040269 196.525,249.347 C195.083,250.166 193.55,250.936 192.493,252.224 C191.436,253.512 191.009,255.514 192.003,256.858 C192.997,258.202 195.006,258.349 196.56,257.775 C198.114,257.201 199.409,256.088 200.851,255.255 C203.532,253.687 207.27,253.253 209.531,255.423 C210.961593,256.960688 211.58637,259.0813 211.218,261.149 C210.84564,263.180677 210.067099,265.116314 208.929,266.84 C205.303774,273.071595 200.091414,278.230817 193.823,281.792 C187.523,285.222 181.496,286.888 174.475,285.593" id="Path" fill="#F5F5F5"></path>
                    <path d="M176.358,277.151 C177.28633,269.946924 178.627875,262.802147 180.376,255.752 L181.72,250.201 C182.161,248.374 182.602,246.568 183.12,244.825 C184.162174,241.492661 185.389073,238.220932 186.795,235.025 C188.118,231.952 189.483,229.089 190.778,226.422 C192.073,223.755 193.368,221.27 194.6,219.1 C196.544973,215.624836 198.764008,212.310328 201.236,209.188 C202.111,208.082 202.818,207.242 203.301,206.682 C203.539,206.416 203.721,206.213 203.854,206.052 C203.914532,205.977556 203.982556,205.909532 204.057,205.849 C204.007388,205.930449 203.951201,206.007706 203.889,206.08 C203.756,206.241 203.581,206.458 203.364,206.738 C202.895,207.312 202.209,208.138 201.355,209.279 C198.94086,212.432238 196.762616,215.759265 194.838,219.233 C193.613,221.431 192.367,223.895 191.079,226.569 C189.791,229.243 188.447,232.106 187.138,235.172 C185.744062,238.368715 184.528855,241.640426 183.498,244.972 C182.959,246.701 182.525,248.472 182.098,250.32 C181.671,252.168 181.209,254.002 180.754,255.871 C179.014397,262.907611 177.665997,270.035201 176.715,277.221" id="Path" fill="#E0E0E0"></path>
                    <path d="M183.253,244.797 C183.101285,244.524684 182.981493,244.235774 182.896,243.936 C182.693,243.383 182.42,242.536 182.098,241.549 C181.447,239.519 180.649,236.684 179.781,233.562 C178.913,230.44 178.08,227.619 177.401,225.603 C177.065,224.602 176.785,223.783 176.589,223.223 C176.470981,222.938053 176.379592,222.642794 176.316,222.341 C176.487595,222.598021 176.62634,222.875512 176.729,223.167 C176.974,223.713 177.296,224.518 177.66,225.512 C178.409,227.514 179.291,230.321 180.159,233.457 C181.027,236.593 181.769,239.337 182.357,241.465 L183.057,243.894 C183.158746,244.185928 183.224564,244.48916 183.253,244.797 L183.253,244.797 Z" id="Path" fill="#E0E0E0"></path>
                    <path d="M209.244,235.235 C208.908387,235.37478 208.558708,235.478041 208.201,235.543 C207.501,235.725 206.535,235.977 205.331,236.327 C202.916,237.027 199.619,238.063 196.028,239.393 C192.437,240.723 189.238,242.067 186.928,243.11 C185.78,243.621 184.863,244.062 184.226,244.363 C183.905957,244.537256 183.570953,244.682503 183.225,244.797 C183.516444,244.572969 183.830877,244.380555 184.163,244.223 C184.772,243.88 185.675,243.404 186.809,242.858 C189.07,241.752 192.262,240.359 195.86,239.022 C198.932004,237.874429 202.060377,236.883817 205.233,236.054 C206.451,235.739 207.445,235.529 208.138,235.396 C208.500922,235.30839 208.871162,235.254494 209.244,235.235 Z" id="Path" fill="#E0E0E0"></path>
                    <path d="M176.603,276.598 C176.603,276.598 176.512,276.507 176.365,276.304 L175.742,275.415 C175.203,274.631 174.454,273.49 173.551,272.055 C171.731,269.199 169.351,265.181 166.782,260.701 C164.213,256.221 161.882,252.182 160.111,249.291 L158.011,245.875 L157.451,244.944 C157.377949,244.837793 157.319116,244.72248 157.276,244.601 C157.276,244.601 157.367,244.699 157.514,244.902 C157.661,245.105 157.892,245.434 158.137,245.791 C158.676,246.575 159.425,247.716 160.335,249.144 C162.148,252 164.535,256.025 167.104,260.505 C169.673,264.985 172.004,269.024 173.768,271.915 C174.629,273.315 175.329,274.47 175.868,275.331 L176.435,276.262 C176.50584,276.365944 176.562349,276.478961 176.603,276.598 Z" id="Path" fill="#E0E0E0"></path>
                    <path d="M210.329,259.07 C210.329,259.07 210.224,259.154 210,259.273 C209.776,259.392 209.419,259.588 209.027,259.798 L205.415,261.681 C202.363,263.277 198.184,265.524 193.564,267.981 C188.944,270.438 184.73,272.685 181.664,274.211 C180.117,274.974 178.864,275.611 177.996,275.982 L176.981,276.437 C176.86844,276.502411 176.745215,276.547435 176.617,276.57 C176.722235,276.495401 176.832125,276.427597 176.946,276.367 L177.926,275.842 L181.538,273.959 C184.583,272.37 188.769,270.123 193.389,267.659 C198.009,265.195 202.223,262.962 205.289,261.436 C206.829,260.666 208.089,260.036 208.957,259.658 L209.965,259.203 C210.079932,259.142797 210.202329,259.098075 210.329,259.07 Z" id="Path" fill="#E0E0E0"></path>
                    <path d="M86.919,135.331 C86.919,135.331 78.603,136.5 83.3,154.7 C87.997,172.9 91.931,182.308 91.931,182.308 C91.931,182.308 92.554,186.431 89.229,186.305 C85.904,186.179 79.121,183.505 76.825,187.068 C74.438,190.792 76.524,195.272 81.725,199.969 C86.926,204.666 97.993,215.369 98.987,216.342 C99.981,217.315 100.709,219.317 98.427,219.59 C96.145,219.863 79.961,217.966 79.527,225.701 C79.093,233.436 95.767,244.132 97.566,245.336 C99.365,246.54 99.666,247.478 99.246,248.528 C98.826,249.578 93.464,248.423 88.837,248.066 C84.21,247.709 78.785,248.122 78.904,252.602 C79.023,257.082 87.78,268.422 113.337,276.85 L125.412,280 L134.351,271.194 C152.341,251.181 154.308,236.992 152.187,233.044 C150.066,229.096 145.187,231.441 141.309,234.045 C137.431,236.649 133.371,240.345 132.503,239.645 C131.635,238.945 131.411,237.979 132.377,236.04 C133.343,234.101 142.506,216.531 138.278,210.035 C134.05,203.539 120.946,213.234 118.825,214.13 C116.704,215.026 116.354,212.898 116.725,211.589 C117.096,210.28 121.38,195.489 123.571,188.804 C125.762,182.119 125.349,177.205 121.429,175.161 C117.649,173.194 113.106,178.906 110.278,180.67 C107.45,182.434 105.952,178.57 105.952,178.57 C105.952,178.57 104.727,168.448 99.722,150.325 C94.717,132.202 86.751,135.443 86.751,135.443" id="Path" fill="#EBEBEB"></path>
                    <path d="M125.398,282.982 C121.779,269.682 115.745,245.882 110.453,225.456 C105.161,205.03 100.366,186.599 96.817,173.257 C95.032,166.593 93.59,161.203 92.617,157.451 L91.476,153.16 C91.35,152.677 91.252,152.306 91.189,152.04 C91.126,151.774 91.098,151.655 91.098,151.655 C91.098,151.655 91.147,151.774 91.224,152.026 L91.553,153.139 L92.764,157.416 C93.814,161.133 95.298,166.516 97.104,173.18 C100.73,186.48 105.574,204.96 110.859,225.358 C116.144,245.756 122.136,269.57 125.692,282.912" id="Path" fill="#E0E0E0"></path>
                    <path d="M86.1,191.226 C86.3804435,191.339517 86.6479607,191.482662 86.898,191.653 C87.395,191.947 88.109,192.395 88.998,192.955 C90.741,194.082 93.114,195.699 95.697,197.526 L102.298,202.23 L104.3,203.63 C104.553339,203.787491 104.78815,203.972991 105,204.183 C104.719556,204.069483 104.452039,203.926338 104.202,203.756 C103.698,203.462 102.991,203.014 102.102,202.447 C100.373,201.299 98.021,199.647 95.438,197.827 L88.858,193.2 L86.842,191.8 C86.5735649,191.63762 86.3246095,191.445032 86.1,191.226 L86.1,191.226 Z" id="Path" fill="#E0E0E0"></path>
                    <path d="M106.043,203.602 C105.952,203.546 109.067,198.506 112.994,192.36 C116.921,186.214 120.19,181.3 120.281,181.3 C120.372,181.3 117.257,186.389 113.323,192.549 C109.389,198.709 106.134,203.658 106.043,203.602 Z" id="Path" fill="#E0E0E0"></path>
                    <path d="M112.749,235.298 C112.953565,235.054025 113.188853,234.83756 113.449,234.654 L115.332,233.002 C116.928,231.602 119.112,229.67 121.45,227.444 C123.788,225.218 125.846,223.139 127.316,221.62 L129.059,219.814 C129.270869,219.581312 129.505357,219.370273 129.759,219.184 C129.59647,219.448324 129.406411,219.694698 129.192,219.919 C128.814,220.374 128.247,221.018 127.54,221.802 C126.14,223.377 124.089,225.498 121.737,227.724 C119.385,229.95 117.173,231.868 115.535,233.212 C114.709,233.912 114.037,234.416 113.561,234.773 C113.311049,234.978132 113.038642,235.154257 112.749,235.298 L112.749,235.298 Z" id="Path" fill="#E0E0E0"></path>
                    <path d="M92.274,228.067 C92.5565623,228.100835 92.8339434,228.169004 93.1,228.27 L95.319,228.97 C97.181,229.558 99.75,230.405 102.578,231.364 C105.406,232.323 107.961,233.212 109.802,233.87 L111.979,234.675 C112.250797,234.757818 112.511664,234.872975 112.756,235.018 C112.473438,234.984165 112.196057,234.915996 111.93,234.815 L109.718,234.115 C107.849,233.52 105.28,232.673 102.452,231.714 C99.624,230.755 97.069,229.866 95.228,229.208 L93.051,228.403 C92.7788704,228.324205 92.5177989,228.21131 92.274,228.067 Z" id="Path" fill="#E0E0E0"></path>
                    <path d="M94.64,256.795 C94.9989029,256.858345 95.3523107,256.949623 95.697,257.068 L98.539,257.936 C100.933,258.685 104.23,259.742 107.87,260.932 C111.51,262.122 114.793,263.228 117.166,264.047 L119.966,265.027 C120.315795,265.134621 120.655439,265.272821 120.981,265.44 C120.620621,265.387089 120.266496,265.297971 119.924,265.174 L117.082,264.306 C114.688,263.557 111.384,262.5 107.744,261.303 C104.104,260.106 100.8,259 98.455,258.195 L95.655,257.208 C95.3032866,257.105828 94.9631301,256.967419 94.64,256.795 L94.64,256.795 Z" id="Path" fill="#E0E0E0"></path>
                    <path d="M120.4,265.055 C120.64643,264.752404 120.920624,264.473523 121.219,264.222 L123.536,262.045 C125.489,260.204 128.184,257.649 131.068,254.744 C133.952,251.839 136.514,249.144 138.348,247.184 L140.518,244.86 C140.773475,244.563154 141.052009,244.286961 141.351,244.034 C141.147026,244.363178 140.912669,244.672529 140.651,244.958 C140.175,245.539 139.461,246.358 138.551,247.366 C136.766,249.382 134.246,252.112 131.348,255.017 C128.45,257.922 125.748,260.456 123.725,262.248 C122.717,263.137 121.898,263.851 121.324,264.348 C121.037155,264.610099 120.727982,264.846663 120.4,265.055 L120.4,265.055 Z" id="Path" fill="#E0E0E0"></path>
                    <path d="M309.078,286.783 C309.078,286.881 239.883,286.965 154.546,286.965 C69.209,286.965 0,286.881 0,286.783 C0,286.685 69.181,286.601 154.546,286.601 C239.911,286.601 309.078,286.685 309.078,286.783 Z" id="Path" fill="#263238"></path>
                    <path d="M44.387,268.604 C45.087,266.028 43.365,263.445 41.468,261.604 C39.571,259.763 37.317,258.062 36.33,255.598 C34.734,251.594 36.883,246.414 34.16,243.075 C32.557,241.115 29.687,240.457 28.266,238.357 C27.6110066,237.196152 27.1766817,235.924031 26.985,234.605 C25.4737559,227.945735 22.1974177,221.816202 17.5,216.86 C17.1873469,222.783447 18.4710457,228.682176 21.217,233.94 C22.323,236.04 23.674,238.084 24.017,240.422 C24.612,244.23 22.491,248.122 23.422,251.881 C24.493,256.151 29.288,259.014 29.519,263.41 C29.708,267.127 26.467,270.41 26.719,274.099 C26.9087367,275.680041 27.4752798,277.192423 28.371,278.509 C31.248,283.29 35.469,286.58 41.867,286.468 L49.707,286.748 L44.387,268.604 Z" id="Path" fill="#D61335"></path>
                    <g id="Group" opacity="0.3" transform="translate(16.800000, 216.300000)" fill="#000000">
                        <path d="M27.587,52.304 C28.287,49.728 26.565,47.145 24.668,45.304 C22.771,43.463 20.517,41.762 19.53,39.298 C17.934,35.294 20.083,30.114 17.36,26.775 C15.757,24.815 12.887,24.157 11.466,22.057 C10.8110066,20.896152 10.3766817,19.624031 10.185,18.305 C8.67375587,11.6457349 5.39741771,5.5162019 0.7,0.56 C0.387346915,6.48344718 1.67104568,12.382176 4.417,17.64 C5.523,19.74 6.874,21.784 7.217,24.122 C7.812,27.93 5.691,31.822 6.622,35.581 C7.693,39.851 12.488,42.714 12.719,47.11 C12.908,50.827 9.667,54.11 9.919,57.799 C10.1087367,59.3800408 10.6752798,60.8924228 11.571,62.209 C14.448,66.99 18.669,70.28 25.067,70.168 L32.907,70.448 L27.587,52.304 Z" id="Path"></path>
                    </g>
                    <path d="M51.317,286.951 C52.0353303,287.061089 52.7673919,287.044505 53.48,286.902 C54.3380294,286.786171 55.1822627,286.584493 55.9999961,286.3 C57.1351935,285.902654 58.197103,285.320851 59.143,284.578 C59.7283835,284.10783 60.1838102,283.495775 60.466,282.8 C60.6994114,282.042087 60.8243181,281.254939 60.837,280.462 C60.8503615,279.6146 60.9111231,278.768611 61.019,277.928 C61.170858,277.032279 61.494098,276.174267 61.971,275.401 C62.902,273.784 64.435,272.244 64.932,270.039 C65.429,267.834 65.079,265.524 64.715,263.172 C64.351,260.82 64.015,258.272 64.897,255.808 C65.779,253.344 67.459,251.139 68.32,248.381 C69.181,245.623 68.775,242.585 68.957,239.624 C69.0132277,238.120277 69.3602906,236.641694 69.979,235.27 C70.609,233.87 71.491,232.575 72.177,231.112 C73.577,228.165 73.815,224.812 74.193,221.536 C74.3843333,219.884 74.5733333,218.213333 74.76,216.524 C74.8733303,214.827584 75.1642547,213.14773 75.628,211.512 C76.1590999,209.860118 76.7854833,208.240403 77.504,206.661 C77.8781974,205.843486 78.1826147,204.995801 78.414,204.127 C78.5458738,203.233788 78.6299934,202.334176 78.666,201.432 C78.753132,199.620997 78.6828682,197.805848 78.456,196.007 C78.246,194.201 77.917,192.409 77.756,190.596 C77.756,190.484 77.756,190.379 77.756,190.281 L77.756,189.917 L77.434,190.078 C75.7787778,190.927101 74.3415675,192.146334 73.234,193.641 C72.1483229,195.103788 71.2762538,196.71358 70.644,198.422 C69.328,201.789 68.859,205.317 68.201,208.684 C67.543,212.051 66.703,215.362 64.981,218.162 C64.12,219.562 63.084,220.836 62.181,222.194 C61.2080566,223.519295 60.5432235,225.045063 60.235,226.66 C59.773,229.978 61.635,232.89 61.215,235.83 C61.0444454,237.270162 60.5670463,238.657007 59.815,239.897 C59.115,241.15 58.268,242.305 57.47,243.474 C56.6611793,244.613819 55.9582541,245.825193 55.37,247.093 C54.816314,248.333892 54.4891575,249.663855 54.404,251.02 C54.215,253.666 54.593,256.172 54.404,258.538 C54.1854747,260.789988 53.5291878,262.977611 52.472,264.978 C51.52,266.91 50.463,268.653 49.581,270.347 C49.14,271.187 48.727,272.013 48.391,272.839 C48.074804,273.639316 47.8402797,274.469532 47.691,275.317 C47.4567158,276.799847 47.4378544,278.30876 47.635,279.797 C47.8452805,281.86788 48.62011,283.841274 49.875,285.502 C50.0693591,285.751078 50.2823013,285.985081 50.512,286.202 C50.6665907,286.364241 50.8378727,286.509713 51.023,286.636 C51.317,286.853 51.471,286.951 51.471,286.951 C50.9151951,286.50682 50.4083306,286.004649 49.959,285.453 C48.7552907,283.789732 48.0291222,281.829078 47.859,279.783 C47.6807499,278.31587 47.7137523,276.830763 47.957,275.373 C48.1074087,274.546245 48.3419619,273.737036 48.657,272.958 C48.993,272.146 49.406,271.327 49.854,270.487 C50.743,268.814 51.807,267.078 52.78,265.139 C53.8039097,263.090471 54.4219265,260.863233 54.6,258.58 C54.803,256.165 54.439,253.68 54.635,251.069 C54.7242961,249.756329 55.0441865,248.469659 55.58,247.268 C56.1694491,246.025193 56.8724354,244.83949 57.68,243.726 C58.471,242.564 59.318,241.402 60.046,240.121 C60.8402794,238.844399 61.351131,237.412104 61.544,235.921 C61.922,232.792 60.144,229.866 60.578,226.779 C60.8819465,225.233859 61.5250808,223.775451 62.461,222.509 C63.357,221.172 64.4,219.898 65.261,218.463 C67.046,215.586 67.907,212.205 68.558,208.824 C69.209,205.443 69.699,201.943 70.98,198.646 C71.5994844,196.985504 72.4502062,195.420742 73.507,193.998 C74.5726145,192.563777 75.954803,191.394786 77.546,190.582 L77.189,190.379 C77.189,190.484 77.189,190.589 77.189,190.701 C77.385,192.535 77.714,194.327 77.924,196.119 C78.1450465,197.89019 78.2129647,199.677141 78.127,201.46 C78.0953919,202.334026 78.0159396,203.205664 77.889,204.071 C77.6659667,204.9115 77.3708737,205.731203 77.007,206.521 C76.2827769,208.115571 75.6540008,209.751792 75.124,211.421 C74.651833,213.084261 74.3538976,214.792111 74.235,216.517 C74.053,218.204 73.864,219.877 73.682,221.529 C73.311,224.826 73.059,228.116 71.722,230.965 C71.022,232.365 70.182,233.702 69.531,235.165 C68.8926955,236.588065 68.5361264,238.121312 68.481,239.68 C68.306,242.704 68.698,245.658 67.886,248.339 C67.074,251.02 65.359,253.239 64.498,255.759 C63.637,258.279 63.952,260.967 64.33,263.305 C64.708,265.643 65.086,267.967 64.582,270.046 C64.078,272.125 62.636,273.679 61.698,275.345 C61.2270369,276.129908 60.908777,276.99681 60.76,277.9 C60.6542538,278.750009 60.5981586,279.605461 60.592,280.462 C60.5918165,281.234471 60.4810256,282.002936 60.263,282.744 C59.9968634,283.383251 59.5787731,283.947914 59.045,284.389 C58.1307251,285.128771 57.1023261,285.715077 55.9999961,286.125 C55.1872956,286.440118 54.3455812,286.674579 53.487,286.825 C52.9625073,286.920215 52.4310155,286.971725 51.898,286.979 C51.506,286.944 51.317,286.951 51.317,286.951 Z" id="Path" fill="#263238"></path>
                    <path d="M76.083,194.6 C76.0512023,194.674177 76.0277255,194.75165 76.013,194.831 C75.964,195.02 75.908,195.251 75.838,195.531 C75.684,196.147 75.502,197.085 75.201,198.247 C74.9,199.409 74.186,200.718 73.577,202.342 C72.8637358,204.162348 72.2422874,206.017348 71.715,207.9 C71.113,210 70.588,212.31 70.035,214.795 C69.482,217.28 68.887,219.94 67.522,222.453 C66.878,223.727 66.157,225.015 65.583,226.422 C65.0185818,227.868662 64.6398945,229.381059 64.456,230.923 C64.0612461,234.112668 63.4957679,237.278879 62.762,240.408 C61.194,246.827 59.696,252.945 58.331,258.517 L54.6,273.308 C53.564,277.508 52.724,280.882 52.136,283.276 C51.863,284.431 51.646,285.334 51.492,285.999 C51.429,286.286 51.373,286.517 51.338,286.699 C51.3147204,286.778802 51.3006291,286.861001 51.296,286.944 C51.296,286.944 51.338,286.867 51.387,286.713 C51.436,286.559 51.506,286.3 51.59,286.013 C51.765,285.362 52.017,284.459 52.29,283.318 C52.92,280.938 53.809,277.55 54.908,273.392 C56.007,269.234 57.288,264.187 58.723,258.643 C60.158,253.099 61.614,246.953 63.196,240.527 C63.9528355,237.386031 64.5347307,234.205472 64.939,231 C65.1203789,229.497523 65.4871716,228.023298 66.031,226.611 C66.584,225.211 67.298,223.958 67.935,222.67 C69.335,220.108 69.888,217.371 70.441,214.893 C70.994,212.415 71.484,210.091 72.058,208.005 C72.632,205.919 73.234,204.057 73.836,202.447 C74.438,200.837 75.103,199.507 75.39,198.303 C75.677,197.099 75.817,196.203 75.936,195.559 C75.9826667,195.274333 76.0246667,195.041 76.062,194.859 C76.083,194.698 76.097,194.6 76.083,194.6 Z" id="Path" fill="#263238"></path>
                    <path d="M52.703,287 C57.82,283.955 59.29,274.715 57.155,269.157 C55.02,263.599 51.282,258.517 50.708,252.588 C50.267,248.031 51.758,243.355 50.708,238.903 C49.308,232.89 43.407,228.235 43.477,222.054 C43.477,218.589 45.486,215.327 45.332,211.862 C45.136,207.613 41.874,204.246 39.858,200.501 C36.764,194.775 36.561,188.006 35.504,181.601 C34.447,175.196 32.004,168.301 26.306,165.144 C25.466,170.597 24.031,174.335 24.486,181.72 C24.647,184.373 27.727,189.42 28.147,195.265 C28.399,198.765 28.567,202.216 28.784,205.695 C29.001,209.174 29.211,212.527 30.422,215.691 C31.353,218.12 32.844,220.325 33.537,222.831 C34.832,227.542 33.124,232.631 34.174,237.419 C35.063,241.465 37.863,244.944 38.437,249.046 C39.242,254.807 35.511,260.799 37.415,266.294 C38.367,269.024 40.607,271.194 41.244,274.029 C41.741,276.213 41.202,278.53 41.65,280.721 C42.35,284.221 49.119,287.021 52.717,286.79" id="Path" fill="#D61335"></path>
                    <path d="M27.706,170.513 C27.696569,170.61545 27.696569,170.71855 27.706,170.821 C27.706,171.052 27.776,171.346 27.825,171.717 C27.937,172.508 28.07,173.663 28.336,175.161 C28.602,176.659 29.4,178.353 30.016,180.397 C30.632,182.441 31.318,184.779 31.892,187.397 C32.466,190.015 32.97,192.934 33.481,196.063 C33.992,199.192 34.552,202.601 36.106,205.863 C36.806,207.501 37.632,209.139 38.206,210.882 C38.7968597,212.674961 39.1590553,214.53533 39.284,216.419 C39.5740729,220.40957 40.0764509,224.381861 40.789,228.319 C42.357,236.397 43.848,244.09 45.206,251.097 C46.564,258.104 47.929,264.355 49.021,269.647 L51.632,282.149 L52.332,285.544 C52.416,285.908 52.486,286.195 52.535,286.419 C52.553931,286.521646 52.582044,286.622384 52.6190652,286.72 C52.6200548,286.616284 52.6082992,286.512835 52.584,286.412 C52.584,286.181 52.493,285.887 52.43,285.523 C52.276,284.711 52.059,283.563 51.786,282.107 C51.205,279.118 50.386,274.841 49.336,269.577 C48.286,264.313 47.019,257.985 45.626,251.006 C44.233,244.027 42.826,236.306 41.251,228.228 C40.5368995,224.290865 40.0321902,220.318615 39.739,216.328 C39.6318459,214.416452 39.286166,212.525795 38.71,210.7 C38.087,208.915 37.268,207.27 36.554,205.653 C35.007,202.44 34.454,199.087 33.915,195.972 C33.376,192.857 32.872,189.931 32.263,187.299 C31.654,184.667 30.989,182.315 30.303,180.299 C29.617,178.283 28.854,176.575 28.553,175.112 C28.252,173.649 28.091,172.473 27.944,171.696 C27.874,171.325 27.818,171.038 27.776,170.807 C27.7630801,170.706809 27.7396167,170.608263 27.706,170.513 Z" id="Path" fill="#263238"></path>
                    <path d="M274.575,24.283 L271.775,24.283 C271.779021,24.9239968 271.522785,25.5391934 271.064929,25.9878138 C270.607072,26.4364342 269.986782,26.6800809 269.346,26.663 C268.382091,26.6912324 267.506998,26.1031475 267.169,25.2 C266.869529,24.4574829 266.945053,23.6162969 267.372,22.939 C267.841,22.162 268.877,21.455 270.753,21.784 L270.753,15.484 L268.002,15.484 L268.002,19.159 C265.647015,19.8502672 264.057791,22.0469671 264.138,24.5 C264.138,28.574 267.792,29.519 269.353,29.519 C270.55,29.491 274.624,29.204 274.575,24.283 Z" id="Path" fill="#D61335"></path>
                    <rect id="Rectangle" fill="#D61335" transform="translate(269.363500, 12.925500) rotate(180.000000) translate(-269.363500, -12.925500) " x="267.967" y="11.62" width="2.793" height="2.611"></rect>
                    <path d="M289.835,20.559 C289.842594,20.4401212 289.842594,20.3208788 289.835,20.202 C289.835,19.95 289.835,19.607 289.8,19.166 C289.8,18.942 289.8,18.683 289.8,18.403 C289.8,18.123 289.716,17.815 289.667,17.486 C289.618,17.157 289.569,16.786 289.513,16.422 L289.219,15.232 C288.702126,13.181576 287.850706,11.2304064 286.699,9.457 C285.177064,7.09601286 283.1908,5.06926149 280.861,3.5 C278.018469,1.60402869 274.754609,0.433557435 271.355,0.091 C270.424029,0.00862456864 269.48852,-0.0100856149 268.555,0.035 C268.086,0.07 267.603,0.035 267.155,0.126 L265.72,0.343 C263.740892,0.708603337 261.825937,1.36185761 260.036,2.282 C258.163152,3.26941192 256.442175,4.52124644 254.926,5.999 C253.373225,7.56974195 252.076463,9.37434414 251.083,11.347 C250.035458,13.3838217 249.357619,15.5903534 249.081,17.864 C248.993234,18.4410775 248.944125,19.0233744 248.934,19.607 C248.898968,20.1921428 248.898968,20.7788572 248.934,21.364 C248.983913,22.5412514 249.133785,23.7121313 249.382,24.864 C249.920913,27.360158 250.920308,29.7340189 252.329,31.864 L252.329,31.654 L249.466,38.794 L249.291,39.214 L249.732,39.095 L257.369,36.995 L257.18,36.995 C259.746949,38.9347311 262.735156,40.241772 265.902,40.81 C267.373772,41.084339 268.873771,41.1760317 270.368,41.083 C271.088574,41.0722556 271.80716,41.004376 272.517,40.88 L273.56,40.719 C273.903,40.656 274.26,40.551 274.575,40.467 C279.268159,39.2727909 283.384113,36.4494301 286.188,32.501 C287.235276,31.0439614 288.076226,29.4492177 288.687,27.762 C288.82,27.391 288.946,27.062 289.072,26.698 C289.198,26.334 289.247,25.998 289.324,25.683 C289.401,25.368 289.485,25.046 289.555,24.752 C289.625,24.458 289.646,24.171 289.688,23.898 C289.751,23.359 289.849,22.883 289.87,22.498 C289.891,22.113 289.87,21.742 289.905,21.448 C289.94,21.154 289.905,20.972 289.905,20.811 C289.912863,20.7388804 289.912863,20.6661196 289.905,20.594 C289.882694,20.661806 289.870891,20.7326249 289.87,20.804 C289.87,20.972 289.87,21.182 289.821,21.448 C289.772,21.714 289.779,22.078 289.751,22.491 C289.723,22.904 289.618,23.373 289.534,23.891 C288.147943,31.8166684 282.211722,38.1757289 274.4,40.103 C274.071,40.187 273.742,40.285 273.406,40.348 L272.377,40.502 C271.68277,40.6178829 270.980765,40.6810633 270.277,40.691 C268.809826,40.7694206 267.338548,40.6707087 265.895,40.397 C262.795845,39.8326197 259.872839,38.54736 257.362,36.645 L257.278,36.575 L257.173,36.575 L249.536,38.675 L249.809,38.976 C250.742333,36.6426667 251.699,34.265 252.679,31.843 L252.728,31.731 L252.658,31.626 C251.282965,29.5386985 250.305235,27.2154042 249.774,24.773 C249.535694,23.6387499 249.390544,22.4869112 249.34,21.329 C249.316601,20.7571553 249.32829,20.1844139 249.375,19.614 C249.382799,19.0444697 249.429575,18.4761412 249.515,17.913 C249.782839,15.6883699 250.444133,13.5290916 251.468,11.536 C252.443125,9.61057212 253.705952,7.84497456 255.213,6.3 C256.696252,4.85184834 258.379356,3.6237012 260.211,2.653 C261.960417,1.74650488 263.832841,1.10035343 265.769,0.735 L267.169,0.518 C267.631,0.448 268.107,0.455 268.569,0.42 C269.481273,0.37428152 270.39556,0.388311497 271.306,0.462 C274.658748,0.77631043 277.883761,1.9057858 280.7,3.752 C283.002333,5.28980738 284.969232,7.27813732 286.482,9.597 C287.636868,11.3386177 288.502068,13.2557676 289.044,15.274 L289.359,16.457 C289.422,16.828 289.478,17.157 289.534,17.507 C289.59,17.857 289.639,18.137 289.681,18.417 C289.723,18.697 289.716,18.949 289.737,19.173 C289.772,19.607 289.793,19.95 289.814,20.202 C289.81256,20.3213466 289.819578,20.4406453 289.835,20.559 Z" id="Path" fill="#263238"></path>
                    <path d="M81.088,103.11 L121.513,103.11 C121.513,103.11 121.513,69.167 156.786,68.558 C175.112,68.243 184.611,80.248 188.468,89.439 C192.948,100.114 191.59,112.28 185.591,122.185 C178.731,133.49 163.961,144.844 136.717,140.049 L136.458,230.118 L176.435,230.118 L176.435,176.722 C176.435,176.722 232.498,162.225 232.498,100.422 C232.498,41.307 184.695,28.532 158.998,27.713 C144.697,27.258 139.517,26.642 121.835,29.155 C99.309,32.375 80.612,58.534 81.088,103.11 Z" id="Path" fill="#00A0FF"></path>
                    <rect id="Rectangle" fill="#00A0FF" x="136.346" y="248.892" width="40.572" height="37.891"></rect>
                    <rect id="Rectangle" fill="#00A0FF" x="136.346" y="248.892" width="40.572" height="37.891"></rect>
                    <path d="M81.088,103.11 L121.513,103.11 C121.513,103.11 121.513,69.167 156.786,68.558 C175.112,68.243 184.611,80.248 188.468,89.439 C192.948,100.114 191.59,112.28 185.591,122.185 C178.731,133.49 163.961,144.844 136.717,140.049 L136.458,230.118 L176.435,230.118 L176.435,176.722 C176.435,176.722 232.498,162.225 232.498,100.422 C232.498,41.307 184.695,28.532 158.998,27.713 C144.697,27.258 139.517,26.642 121.835,29.155 C99.309,32.375 80.612,58.534 81.088,103.11 Z" id="Path" fill="#00A0FF"></path>
                    <path d="M64.344,103.11 L104.769,103.11 C104.769,103.11 104.769,69.167 140.042,68.558 C158.361,68.243 167.86,80.248 171.724,89.439 C176.204,100.114 174.846,112.28 168.84,122.185 C161.987,133.49 146.958,143.766 119.714,138.985 L119.714,230.118 L159.691,230.118 L159.691,176.722 C159.691,176.722 215.754,162.225 215.754,100.422 C215.754,41.307 162.743,27.573 140.049,27.573 C122.696,27.594 63.581,31.794 64.344,103.11 Z" id="Path" fill="#00A0FF"></path>
                    <path d="M64.344,103.11 L104.769,103.11 C104.769,103.11 104.769,69.167 140.042,68.558 C158.361,68.243 167.86,80.248 171.724,89.439 C176.204,100.114 174.846,112.28 168.84,122.185 C161.987,133.49 146.958,143.766 119.714,138.985 L119.714,230.118 L159.691,230.118 L159.691,176.722 C159.691,176.722 215.754,162.225 215.754,100.422 C215.754,41.307 162.743,27.573 140.049,27.573 C122.696,27.594 63.581,31.794 64.344,103.11 Z" id="Path" fill="#000000" opacity="0.3"></path>
                    <rect id="Rectangle" fill="#00A0FF" x="119.602" y="248.892" width="40.572" height="37.891"></rect>
                    <rect id="Rectangle" fill="#000000" opacity="0.3" x="119.602" y="248.892" width="40.572" height="37.891"></rect>
                    <path d="M144.606,68.747 C144.405706,68.7642894 144.204294,68.7642894 144.004,68.747 C143.605,68.747 143.031,68.614 142.282,68.607 C140.164308,68.5030427 138.041549,68.5920767 135.94,68.873 C132.823727,69.2682678 129.757365,69.9885226 126.791,71.022 C125.042573,71.6306853 123.339616,72.3628631 121.695,73.213 C119.918695,74.1063228 118.245131,75.1907359 116.704,76.447 C115.176744,77.7166235 113.806696,79.1642218 112.623,80.759 C109.581446,84.7335734 107.315934,89.2455995 105.945,94.059 C105.355206,96.0954748 104.947602,98.1803459 104.727,100.289 C104.643,101.031 104.622,101.612 104.601,102.011 C104.601465,102.212988 104.582714,102.414563 104.545,102.613 C104.52984,102.41262 104.52984,102.21138 104.545,102.011 C104.53363,101.431754 104.552325,100.852309 104.601,100.275 C104.761947,98.1432599 105.134787,96.0328464 105.714,93.975 C106.555863,90.9236618 107.754114,87.9820734 109.284,85.211 C110.202791,83.5832396 111.229415,82.0187486 112.357,80.528 C113.548698,78.9055298 114.935821,77.4361199 116.487,76.153 C118.04521,74.8792608 119.740305,73.7828491 121.541,72.884 C123.204957,72.0308455 124.929249,71.3008873 126.7,70.7 C129.693112,69.6697216 132.78872,68.9656409 135.933,68.6 C138.048562,68.3400587 140.184707,68.2908172 142.31,68.453 C142.887552,68.4899255 143.462501,68.5600413 144.032,68.663 C144.22499,68.6781877 144.416751,68.7062501 144.606,68.747 L144.606,68.747 Z" id="Path" fill="#263238"></path>
                    <path d="M205.52,61.53 C205.52,61.53 205.471,61.481 205.387,61.369 C205.303,61.257 205.177,61.089 205.037,60.886 C204.715,60.431 204.267,59.801 203.707,58.996 C203.413,58.59 203.112,58.121 202.741,57.638 L201.481,56.105 L200.032,54.341 C199.507,53.732 198.891,53.137 198.282,52.486 C197.673,51.835 197.029,51.142 196.315,50.47 L194.054,48.426 C193.662,48.083 193.277,47.726 192.857,47.362 L191.555,46.333 C190.666,45.633 189.784,44.933 188.825,44.233 C184.647264,41.2369108 180.21303,38.6157235 175.574,36.4 L171.885,34.734 L168.224,33.334 C167.034,32.844 165.816,32.494 164.633,32.102 C163.45,31.71 162.309,31.311 161.133,31.038 L157.808,30.1 C156.723,29.813 155.645,29.638 154.616,29.4 C153.587,29.162 152.593,28.952 151.62,28.833 L148.82,28.427 C147.049,28.126 145.425,28.063 144.011,27.923 C143.311,27.867 142.611,27.79 142.03,27.762 L140.364,27.713 L138.054,27.643 L137.452,27.643 L137.249,27.643 L137.452,27.643 L140.364,27.643 L142.037,27.643 C142.653,27.643 143.311,27.727 144.025,27.776 C145.425,27.895 147.077,27.937 148.848,28.231 L151.648,28.609 C152.621,28.721 153.615,28.973 154.658,29.162 C155.701,29.351 156.758,29.547 157.864,29.862 L161.224,30.73 C162.386,30.996 163.534,31.43 164.724,31.787 C165.914,32.144 167.125,32.487 168.329,33.019 L172.004,34.419 L175.714,36.092 C180.37551,38.3137108 184.826913,40.9517526 189.014,43.974 C189.98,44.674 190.862,45.423 191.751,46.116 L193.053,47.152 C193.473,47.502 193.858,47.852 194.25,48.23 L196.504,50.33 C197.204,51.03 197.834,51.73 198.457,52.367 C199.08,53.004 199.675,53.627 200.2,54.25 L201.6,56.035 L202.846,57.589 C203.203,58.079 203.504,58.555 203.784,58.989 C204.33,59.808 204.757,60.452 205.058,60.914 L205.387,61.425 C205.434904,61.4552235 205.479484,61.4904184 205.52,61.53 L205.52,61.53 Z" id="Path" fill="#263238"></path>
                    <path d="M201.306,148.33 C201.220708,148.480191 201.119817,148.620969 201.005,148.75 L200.067,149.905 C199.668,150.409 199.164,151.018 198.541,151.697 C197.918,152.376 197.253,153.181 196.441,154 C195.629,154.819 194.761,155.75 193.774,156.688 C192.787,157.626 191.716,158.599 190.575,159.621 C185.570503,163.989078 180.084428,167.772497 174.223,170.898 C172.865,171.598 171.584,172.298 170.345,172.837 C169.106,173.376 167.958,173.929 166.887,174.377 C165.816,174.825 164.843,175.196 163.989,175.525 C163.135,175.854 162.386,176.113 161.77,176.316 L160.37,176.771 C160.206094,176.831317 160.037533,176.878139 159.866,176.911 C160.017805,176.826379 160.17716,176.756076 160.342,176.701 L161.742,176.183 C162.351,175.959 163.093,175.686 163.933,175.336 C164.773,174.986 165.76,174.636 166.81,174.139 C167.86,173.642 169.022,173.173 170.233,172.564 C171.444,171.955 172.739,171.304 174.09,170.597 C176.757,169.134 179.634,167.412 182.539,165.424 C185.444,163.436 188.062,161.343 190.379,159.369 C191.52,158.361 192.619,157.416 193.585,156.464 C194.551,155.512 195.468,154.651 196.273,153.825 C197.078,152.999 197.785,152.236 198.415,151.564 C199.045,150.892 199.563,150.304 199.983,149.814 L200.97,148.701 C201.071091,148.567874 201.18351,148.443745 201.306,148.33 Z" id="Path" fill="#263238"></path>
                    <path d="M158.984,226.94 C158.879,226.94 158.802,215.698 158.802,201.831 C158.802,187.964 158.879,176.715 158.984,176.715 C159.089,176.715 159.166,187.957 159.166,201.831 C159.166,215.705 159.082,226.94 158.984,226.94 Z" id="Path" fill="#263238"></path>
                    <path d="M160.524,284.2 C160.426,284.2 160.342,276.311 160.342,266.581 C160.342,256.851 160.426,248.955 160.524,248.955 C160.622,248.955 160.706,256.844 160.706,266.581 C160.706,276.318 160.622,284.2 160.524,284.2 Z" id="Path" fill="#263238"></path>
                    <path d="M200.319,97.741 C199.619,99.141 202.23,100.282 203.735,100.744 C205.270461,101.120889 206.85947,101.229823 208.432,101.066 C210.532,100.954 212.681,100.758 214.494,99.722 C216.083576,98.7374171 217.352988,97.3123682 218.148,95.62 C218.935041,93.9391051 219.556314,92.1854753 220.003,90.384 C220.003,90.384 203.462,91.462 200.319,97.741 Z" id="Path" fill="#00A0FF"></path>
                    <g id="Group" opacity="0.4" transform="translate(200.200000, 90.300000)" fill="#000000">
                        <path d="M0.119,7.441 C-0.581,8.841 2.03,9.982 3.535,10.444 C5.07046141,10.8208894 6.65947037,10.929823 8.232,10.766 C10.332,10.654 12.481,10.458 14.294,9.422 C15.8835757,8.4374171 17.1529879,7.0123682 17.948,5.32 C18.7350413,3.63910514 19.356314,1.88547528 19.803,0.084 C19.803,0.084 3.262,1.162 0.119,7.441 Z" id="Path"></path>
                    </g>
                    <path d="M247.037,93.254 C249.761581,95.1937577 253.030621,96.2205402 256.375,96.187 C257.964,96.187 259.651,95.865 260.82,94.787 C261.359,94.297 261.765,93.667 262.318,93.191 C262.696,92.869 263.137,92.624 263.494,92.281 C263.876689,91.9514796 264.068598,91.4519887 264.005,90.951 C263.868277,90.3404917 263.527541,89.7948212 263.039,89.404 C261.142,88.326 258.874,88.368 256.69,88.417 C254.504306,88.5116149 252.34522,88.9339934 250.285,89.67 C248.591,90.237 246.82,91.07 245.959,92.61" id="Path" fill="#00A0FF"></path>
                    <g id="Group" opacity="0.4" transform="translate(245.700000, 88.200000)" fill="#000000">
                        <path d="M18.305,2.751 C18.0575475,2.16055768 17.6219822,1.66839354 17.066,1.351 C15.169,0.273 13.174,0.175 10.99,0.224 C8.80430562,0.318614932 6.64521995,0.74099344 4.585,1.477 C2.891,2.044 1.12,2.877 0.259,4.417 L1.337,5.061 C4.06158051,7.00075774 7.33062052,8.02754017 10.675,7.994 C12.264,7.994 13.951,7.672 15.12,6.594 C15.659,6.104 16.065,5.474 16.618,4.998 C16.996,4.676 17.437,4.431 17.794,4.088 C18.1789199,3.75703609 18.3710551,3.25432609 18.305,2.751 Z" id="Path"></path>
                    </g>
                    <path d="M214.753,118.384 L249.648,118.839288 C249.792626,118.844221 249.93061,118.778149 250.017219,118.662205 C250.103827,118.546262 250.128037,118.395203 250.082,118.258 L245.987,105.49 C245.987,105.49 246.589,99.106 247.429,91.434 C248.689,79.779 250.376,65.128 250.397,65.17 C248.01,58.478 233.926,57.337 233.926,57.337 L217.875,58.296 L217.315,57.351 L212.695,59.5 C211.687353,59.9687943 210.718335,60.5164998 209.797,61.138 C206.745,63.175 199.395,67.851 198.051,73.038 C194.957,85.106 200.2,98.588 200.2,98.588 L203.574,95.949 C204.425018,95.2957159 205.3183,94.6994153 206.248,94.164 L213.01,112.28 C212.195464,112.797471 211.655953,113.652981 211.54,114.611 C211.484,116.081 212.24,117.845 214.753,118.349" id="Path" fill="#00A0FF"></path>
                    <g id="Group" opacity="0.3" transform="translate(224.700000, 78.400000)" fill="#000000">
                        <path d="M5.012,18.62 C6.118,12.67 5.537,6.552 4.949,0.532 C3.01,5.432 3.08,11.032 1.029,15.89 C0.775447637,16.4021331 0.591806997,16.9459919 0.483,17.507 C0.374019182,18.0791628 0.548788141,18.668682 0.952,19.089 C1.505,19.6 2.352,19.32 3.087,19.229 C3.75175411,19.1078821 4.39854233,18.9032618 5.012,18.62" id="Path"></path>
                    </g>
                    <g id="Group" opacity="0.4" transform="translate(216.300000, 105.700000)" fill="#000000">
                        <path d="M0.56,5.089 C3.36,6.069 6.342,4.256 9.303,3.934 C11.263,3.724 13.223,4.172 15.169,4.487 C19.1040384,5.12356524 23.1073278,5.22247004 27.069,4.781 C27.6769871,4.74850554 28.2721807,4.59375522 28.819,4.326 C29.3930022,3.93463849 29.7363035,3.28472462 29.7360002,2.59 C23.142,1.89 16.555,1.512 9.961,0.833 C8.31966062,0.552915944 6.63862935,0.607680418 5.019,0.994 C3.031,1.61 1.519,3.171 0.119,4.718" id="Path"></path>
                    </g>
                    <path d="M263.004,88.641 C260.148,82.229 250.103,64.477 250.103,64.477 L242.326,74.2 L244.139,93.345 C244.139,93.345 248.248,88.76 259.735,88.669 C261.425773,88.7366233 262.995307,89.5651312 264.005,90.923 L263.004,88.641 Z" id="Path" fill="#00A0FF"></path>
                    <path d="M216.3,85.253 C215.745755,83.8925093 215.307854,82.4874776 214.991,81.053 C214.550961,79.6546352 214.230148,78.2215135 214.032,76.769 C214.580094,78.13169 215.017835,79.5362072 215.341,80.969 C215.776216,82.3686565 216.096939,83.8013743 216.3,85.253 L216.3,85.253 Z" id="Path" fill="#263238"></path>
                    <path d="M241.738,72.933 C241.992067,73.110862 242.226694,73.3149879 242.438,73.542 C243.053664,74.1398067 243.631136,74.7757276 244.167,75.446 C245.981208,77.6558921 247.254034,80.2590726 247.884,83.048 C248.215531,84.5884484 248.291209,86.172967 248.108,87.738 C247.926,89.138 247.653,90.433 247.478,91.497 C247.303,92.561 247.184,93.429 247.128,94.031 C247.117526,94.3432697 247.084776,94.6543936 247.03,94.962 C246.975082,94.6501892 246.958626,94.3328185 246.981,94.017 C247.011516,93.1591668 247.090978,92.3037752 247.219,91.455 C247.366,90.384 247.611,89.11 247.772,87.696 C247.933758,86.168995 247.851053,84.6259661 247.527,83.125 C246.91028,80.3880163 245.701255,77.8194349 243.985,75.6 C242.69,73.878 241.682,72.982 241.738,72.933 Z" id="Path" fill="#263238"></path>
                    <path d="M234.612,116.858 C234.368807,116.966395 234.112193,117.041731 233.849,117.082 C233.549382,117.158225 233.245518,117.21666 232.939,117.257 C232.582,117.306 232.176,117.383 231.721,117.404 C230.654414,117.498308 229.581586,117.498308 228.515,117.404 C227.210168,117.269901 225.921037,117.012075 224.665,116.634 C223.415767,116.231097 222.20659,115.713213 221.053,115.087 C220.119741,114.562859 219.232273,113.961066 218.4,113.288 C218.036,113.008 217.742,112.714 217.476,112.469 C217.246581,112.262312 217.029223,112.042617 216.825,111.811 C216.633061,111.628328 216.465963,111.421221 216.328,111.195 C216.377,111.146 217.133,111.986 218.561,113.085 C219.394582,113.724633 220.276942,114.298051 221.2,114.8 C222.33996,115.398953 223.529759,115.897825 224.756,116.291 C225.990514,116.662903 227.25541,116.925251 228.536,117.075 C229.581916,117.188963 230.63525,117.219392 231.686,117.166 C233.499,117.054 234.598,116.788 234.612,116.858 Z" id="Path" fill="#263238"></path>
                    <path d="M245.385,112.868 C245.549762,113.184557 245.642959,113.533449 245.658,113.89 C245.769695,114.743327 245.705372,115.610491 245.469,116.438 C245.226593,117.283592 244.739495,118.038594 244.069,118.608 C243.558,119.035 243.166,119.168 243.145,119.133 C243.124,119.098 243.46,118.867 243.894,118.433 C244.460677,117.842874 244.871979,117.121291 245.091,116.333 C245.651,114.485 245.252,112.875 245.385,112.868 Z" id="Path" fill="#263238"></path>
                    <path d="M243.488,115.332 C243.798349,116.803037 243.210807,118.318564 241.99,119.196 C241.913,119.119 242.571,118.426 242.97,117.355 C243.369,116.284 243.383,115.339 243.488,115.332 Z" id="Path" fill="#263238"></path>
                    <path d="M237.244,92.302 C236.871238,92.9278357 236.454875,93.5266496 235.998,94.094 C235.636122,94.7262351 235.226604,95.3299822 234.773,95.9 C234.907467,95.1612731 235.22517,94.4681025 235.697,93.884 C236.069597,93.2335802 236.602077,92.6890528 237.244,92.302 Z" id="Path" fill="#263238"></path>
                    <path d="M213.29,75.348 C213.255,75.39 212.702,74.949 211.743,74.319 C210.500592,73.5112175 209.174568,72.8399915 207.788,72.317 C206.39529,71.798231 204.948989,71.4366558 203.476,71.239 C202.858465,71.1896402 202.243951,71.1078608 201.635,70.994 C202.255058,70.908382 202.883942,70.908382 203.504,70.994 C205.011807,71.1268212 206.49501,71.4611306 207.914,71.988 C209.329642,72.5169024 210.667131,73.2350963 211.89,74.123 C212.413435,74.4615039 212.885009,74.8741318 213.29,75.348 L213.29,75.348 Z" id="Path" fill="#263238"></path>
                    <path d="M250.11,64.246 C248.840836,65.2484662 247.656184,66.353517 246.568,67.55 C245.575418,68.8269618 244.688169,70.1824161 243.915,71.603 C243.997886,71.1262346 244.161212,70.6670273 244.398,70.245 C244.905017,69.193912 245.542363,68.2108469 246.295,67.319 C247.045304,66.4274782 247.903556,65.632714 248.85,64.953 C249.224352,64.6438966 249.651108,64.4044392 250.11,64.246 L250.11,64.246 Z" id="Path" fill="#263238"></path>
                    <path d="M235.697,58.478 C235.76423,58.5769806 235.816147,58.6855348 235.851,58.8 C235.987566,59.1170114 236.09761,59.4448011 236.18,59.78 C236.47515,61.027446 236.47515,62.326554 236.18,63.574 C235.744351,65.4361977 234.747428,67.119728 233.324,68.397 C231.527375,69.9189839 229.238257,70.7351044 226.884,70.693 C224.539048,70.682975 222.259358,69.9198066 220.381,68.516 C218.874833,67.3623108 217.651505,65.8804311 216.804,64.183 C216.234724,63.0453532 215.833865,61.8309866 215.614,60.578 C215.55329,60.2399017 215.511227,59.8987195 215.488,59.556 C215.468025,59.4354888 215.468025,59.3125112 215.488,59.192 C215.523,59.192 215.565,59.682 215.761,60.55 C216.033186,61.767642 216.463857,62.9443383 217.042,64.05 C217.895885,65.6978824 219.108681,67.1331438 220.591,68.25 C222.413866,69.6028777 224.62098,70.3385823 226.891,70.35 C229.15859,70.3862074 231.363155,69.6033011 233.1,68.145 C234.477449,66.9165118 235.453125,65.301768 235.9,63.511 C236.211579,62.3006306 236.254584,61.0367493 236.026,59.808 C235.9,58.94 235.655,58.492 235.697,58.478 Z" id="Path" fill="#263238"></path>
                    <g id="Group" opacity="0.3" transform="translate(234.500000, 92.400000)" fill="#000000">
                        <path d="M3.647,1.141 C3.647,0.791 3.591,0.378 3.283,0.203 C3.0848667,0.103159985 2.8511333,0.103159985 2.653,0.203 C2.45744499,0.306149188 2.28387432,0.446432334 2.142,0.616 C1.32204758,1.47473399 0.686059369,2.49183873 0.273,3.605 L3.703,3.311 C3.682,2.604 3.668,1.862 3.647,1.141 Z" id="Path"></path>
                    </g>
                    <g id="Group" opacity="0.3" transform="translate(246.400000, 80.500000)" fill="#000000">
                        <path d="M3.136,5.824 C2.79069367,3.86274823 1.93344413,2.02750977 0.651,0.504 C2.128,5.348 1.631,8.085 0.798,11.403 L0.98,10.934 C1.932,8.995 3.402,7.784 3.136,5.824 Z" id="Path"></path>
                    </g>
                    <polygon id="Path" fill="#FFBE9D" points="242.683 249.046 240.59 280.441 226.94 280.28 224.791 247.639"></polygon>
                    <path d="M240.975,276.311 L240.975,277.2 C240.975,277.2 256.375,283.388 256.522,286.3 L225.96,286.125 L226.436,275.954 C230.999719,278.182042 236.30743,278.312371 240.975,276.311 L240.975,276.311 Z" id="Path" fill="#D61335"></path>
                    <path d="M229.516,279.251 C228.91747,279.435191 228.546831,280.032995 228.648,280.651 C228.806695,281.269313 229.422673,281.654299 230.048,281.526 C230.69336,281.33317 231.087045,280.682075 230.958,280.021 C230.727417,279.392503 230.039284,279.060835 229.404,279.272" id="Path" fill="#FFFFFF"></path>
                    <path d="M225.967,286.153 L226.079,283.703 L255.332,284.774 C255.332,284.774 256.69,285.376 256.529,286.328 L225.967,286.153 Z" id="Path" fill="#263238"></path>
                    <path d="M241.087,277.305 C241.087,277.452 240.338,277.515 239.596,278.005 C238.854,278.495 238.469,279.104 238.329,279.048 C238.189,278.992 238.42,278.124 239.323,277.564 C240.226,277.004 241.122,277.2 241.087,277.305 Z" id="Path" fill="#263238"></path>
                    <path d="M244.3,278.649 C244.3,278.796 243.684,279.041 243.173,279.671 C242.662,280.301 242.515,280.966 242.368,280.959 C242.221,280.952 242.123,280.105 242.774,279.335 C243.425,278.565 244.3,278.509 244.3,278.649 Z" id="Path" fill="#263238"></path>
                    <path d="M246.085,282.492 C245.945,282.527 245.742,281.792 246.134,280.966 C246.526,280.14 247.219,279.825 247.282,279.951 C247.345,280.077 246.911,280.511 246.582,281.183 C246.253,281.855 246.232,282.478 246.085,282.492 Z" id="Path" fill="#263238"></path>
                    <path d="M240.191,19.439 C240.982,17.479 240.023,15.106 238.322,13.839 C236.537743,12.6574336 234.359453,12.2273093 232.26,12.642 C230.182285,13.0791762 228.170361,13.7851143 226.275,14.742 C224.477623,12.9374276 221.817324,12.2986031 219.39651,13.0902506 C216.975696,13.8818981 215.206863,15.969125 214.823,18.487 C213.279939,18.0914907 211.644848,18.5848051 210.578009,19.7677328 C209.51117,20.9506605 209.188769,22.627843 209.741,24.122 L219.198,27.447 L229.53,45.647 C232.688682,48.3418251 237.356167,48.2756901 240.437229,45.4924522 C243.518291,42.7092143 244.056952,38.072445 241.696,34.657 C242.274893,34.1421867 242.766591,33.5370194 243.152,32.865 C244.819765,31.8787699 246.022491,30.2650504 246.491,28.385 C247.394,24.339 244.258,19.915 240.191,19.439 Z" id="Path" fill="#263238"></path>
                    <path d="M233.926,57.337 C233.345,54.383 232.932,52.353 232.939,52.374 C232.946,52.395 238.539,50.204 238.133,42.413 C237.944,38.535 236.46,32.424 235.095,27.468 C233.856,23.002 229.698,18.081 225.295,19.502 L211.995,26.012 C210.651,26.446 210.42,27.699 210.735,29.071 L210.735,29.771 L215.922,51.233 L218.113,60.823 C219.081049,64.90471 223.005586,67.571694 227.157,66.969 L227.157,66.969 C229.361136,66.6480983 231.335823,65.4336083 232.616514,63.61124 C233.897204,61.7888717 234.370841,59.5195011 233.926,57.337 Z" id="Path" fill="#FFBE9D"></path>
                    <path d="M235.004,32.648 C235.120636,33.1637943 234.813007,33.6806123 234.304,33.824 C234.05407,33.8937911 233.786481,33.858535 233.563157,33.7263904 C233.339832,33.5942458 233.180128,33.3766655 233.121,33.124 C233.008076,32.6088007 233.314286,32.0943673 233.821,31.948 C234.07093,31.8782089 234.338519,31.913465 234.561843,32.0456096 C234.785168,32.1777542 234.944872,32.3953345 235.004,32.648 Z" id="Path" fill="#263238"></path>
                    <path d="M234.43,31.157 C234.332,31.311 233.492,30.919 232.449,31.157 C231.406,31.395 230.755,32.06 230.615,31.955 C230.475,31.85 230.615,31.654 230.902,31.346 C231.288223,30.9404803 231.788743,30.6621424 232.337,30.548 C232.878498,30.4312279 233.443236,30.4926125 233.947,30.723 C234.318,30.884 234.5,31.087 234.43,31.157 Z" id="Path" fill="#263238"></path>
                    <path d="M224.875,35 C224.991195,35.5140606 224.683017,36.0287189 224.175,36.169 C223.930842,36.2400743 223.668397,36.2105133 223.446168,36.0869063 C223.223938,35.9632993 223.060397,35.7559215 222.992,35.511 C222.879076,34.9958007 223.185286,34.4813673 223.692,34.335 C223.937141,34.2621471 224.201342,34.2917594 224.424272,34.4170748 C224.647201,34.5423902 224.809822,34.7527078 224.875,35 L224.875,35 Z" id="Path" fill="#263238"></path>
                    <path d="M224.364,33.6 C224.273,33.747 223.426,33.362 222.383,33.6 C221.34,33.838 220.689,34.496 220.549,34.391 C220.409,34.286 220.549,34.097 220.843,33.782 C221.218578,33.3823649 221.706873,33.1064783 222.243,32.991 C222.783964,32.8759988 223.347431,32.9347953 223.853,33.159 C224.252,33.355 224.413,33.558 224.364,33.6 Z" id="Path" fill="#263238"></path>
                    <path d="M229.635,40.208 C230.149054,39.9265759 230.694033,39.7057653 231.259,39.55 C231.525,39.466 231.763,39.361 231.77,39.172 C231.733372,38.8935837 231.613864,38.6326165 231.427,38.423 L230.216,36.561 C228.522,33.908 227.234,31.703 227.339,31.661 C227.444,31.619 228.907,33.691 230.608,36.337 C231.014,36.995 231.413,37.618 231.784,38.22 C232.021723,38.5040889 232.148539,38.8646465 232.141,39.235 C232.098711,39.4388628 231.967867,39.6133207 231.784,39.711 C231.64753,39.784601 231.501454,39.8387907 231.35,39.872 C230.795193,40.0574071 230.218753,40.1703423 229.635,40.208 Z" id="Path" fill="#263238"></path>
                    <path d="M232.939,52.374 C229.398453,53.1741948 225.705245,52.9754789 222.271,51.8 C222.271,51.8 225.939,56.588 233.338,54.299 L232.939,52.374 Z" id="Path" fill="#EB996E"></path>
                    <path d="M224.56,32.144 C224.49,32.445 223.419,32.438 222.201,32.732 C220.983,33.026 220.017,33.495 219.828,33.257 C219.737,33.145 219.877,32.851 220.248,32.557 C221.253622,31.7315537 222.585007,31.4187428 223.853,31.71 C224.336,31.801 224.588,32.004 224.56,32.144 Z" id="Path" fill="#263238"></path>
                    <path d="M234.031,27.846 C233.87,28.133 232.967,28.063 231.931,28.266 C230.895,28.469 230.083,28.819 229.831,28.616 C229.719,28.511 229.831,28.245 230.132,27.916 C231.080086,27.1472647 232.354716,26.9150341 233.513,27.3 C233.933,27.496 234.108,27.713 234.031,27.846 Z" id="Path" fill="#263238"></path>
                    <path d="M215.236,21 C215.549595,22.5352191 216.529965,23.8513324 217.911154,24.5913033 C219.292343,25.3312742 220.931151,25.4183835 222.383,24.829 C223.496,24.381 224.637,23.534 225.757,23.947 C226.877,24.36 227.318,25.942 228.417,26.558 C229.985,27.44 231.875,25.914 233.667,26.068 C235.067,26.18 236.124,27.258 237.209,28.126 C238.294,28.994 239.799,29.729 241.017,29.071 C240.736499,27.9020124 240.320693,26.7697052 239.778,25.697 C239.230598,24.6170743 238.324952,23.760917 237.216,23.275 C236.607,23.03 235.935,22.946 235.347,22.645 C234.087,22.001 233.52,20.545 232.596,19.446 C231.374852,18.0399484 229.54997,17.3099956 227.696,17.486 C226.177,17.64 224.742,18.403 223.216,18.34 C222.089,18.291 221.011,17.787 219.891,17.808 C217.693,17.808 216.048,19.768 214.83,21.588" id="Path" fill="#263238"></path>
                    <path d="M222.6,22.603 C221.599,22.526 219.534,22.316 218.855,21.602 C217.452824,20.0293397 215.317796,19.3247806 213.255,19.754 C211.190271,20.3695275 209.769852,22.2615258 209.755,24.416 C207.259906,25.0248829 205.298613,26.9512488 204.645,29.435 C203.983591,32.0259049 204.637847,34.7763952 206.395,36.792 C206.815529,37.3178181 207.199114,37.8721459 207.543,38.451 C207.068344,39.0398229 206.65111,39.6727061 206.297,40.341 C204.701,43.883 209.041,45.241 209.041,45.241 C209.041,47.621 211.246,47.607 212.653,47.6 C214.06,47.593 214.837,51.345 215.936,51.205 L214.823,39.606 C214.985982,39.6693811 215.159133,39.7025882 215.334,39.704 C217.987,39.746 217.294,34.727 216.44,33.404 C217.223434,32.4306383 217.881891,31.3629981 218.4,30.226 C218.882839,28.4755691 218.918941,26.6319918 218.505,24.864 C219.429,24.724 223.055,22.631 222.6,22.603 Z" id="Path" fill="#263238"></path>
                    <path d="M215.194,40.222 C215.01138,39.470302 214.454943,38.8653936 213.721076,38.6207715 C212.98721,38.3761494 212.179115,38.5262134 211.582,39.018 C210.882,39.62 210.511,40.628 210.931,42.315 C212.065,46.823 216.356,44.758 216.328,44.625 C216.3,44.492 215.677,42.084 215.194,40.222 Z" id="Path" fill="#FFBE9D"></path>
                    <path d="M214.522,43.267 C214.522,43.267 214.459,43.344 214.34,43.435 C214.1745,43.5619006 213.96621,43.6196195 213.759,43.596 C213.241,43.54 212.646,42.896 212.422,42.077 C212.315242,41.6943257 212.293737,41.2928897 212.359,40.901 C212.373411,40.5920119 212.53813,40.3096369 212.8,40.145 C212.97422,40.0517382 213.189889,40.0925403 213.318,40.243 C213.409,40.355 213.402,40.453 213.43,40.453 C213.458,40.453 213.507,40.355 213.43,40.18 C213.378525,40.074568 213.291879,39.9903981 213.185,39.942 C213.036832,39.882063 212.871168,39.882063 212.723,39.942 C212.365738,40.1103244 212.121781,40.452395 212.079,40.845 C211.981602,41.2825226 211.996047,41.7375362 212.121,42.168 C212.373,43.071 213.052,43.806 213.752,43.827 C214.018649,43.8449221 214.278116,43.735946 214.452,43.533 C214.543,43.4 214.543,43.274 214.522,43.267 Z" id="Path" fill="#EB996E"></path>
                    <path d="M239.4,33.929 C239.4,33.929 239.806,33.614 240.38,32.907 C241.174837,31.8999928 241.661084,30.6843758 241.78,29.407 C241.872723,28.5355115 241.786981,27.6542686 241.528,26.817 C241.229011,25.8565828 240.674989,24.9953081 239.925,24.325 C238.143777,22.7939289 235.682038,22.3271852 233.464,23.1 C233.254,23.17 233.058,23.275 232.862,23.359 C232.666,23.443 232.491,23.569 232.309,23.674 L232.029,23.828 L232.029,23.52 C232.022986,22.9777471 231.821679,22.4558393 231.462,22.05 C231.105815,21.6479738 230.663025,21.3320374 230.167,21.126 C229.216261,20.7298097 228.162996,20.6512445 227.164,20.902 C225.232,21.343 223.594,22.225 222.047,22.4 C220.833877,22.6101469 219.58598,22.3605676 218.547,21.7 C218.272856,21.5113972 218.035603,21.2741439 217.847,21 C217.782593,20.9069116 217.730809,20.8056969 217.693,20.699 C217.948856,21.0427307 218.258503,21.3429225 218.61,21.588 C219.631963,22.17794 220.832492,22.379271 221.991,22.155 C222.797028,22.0033424 223.585218,21.7687621 224.343,21.455 C225.232422,21.096941 226.144381,20.7976313 227.073,20.559 C227.591483,20.4396398 228.123231,20.3878767 228.655,20.405 C229.215912,20.4342738 229.767615,20.5597685 230.286,20.776 C230.820249,21.0096823 231.297783,21.3558944 231.686,21.791 C232.10261,22.2632772 232.33607,22.8692805 232.344,23.499 L232.064,23.345 L232.645,23.009 C232.862,22.925 233.072,22.813 233.296,22.736 C235.640344,21.9231705 238.24079,22.4368388 240.1,24.08 C240.884408,24.7938244 241.458188,25.7089686 241.759,26.726 C242.019592,27.6039075 242.095855,28.5262131 241.983,29.435 C241.836297,30.7556472 241.291939,32.0005917 240.422,33.005 C240.189578,33.2662443 239.928996,33.5010025 239.645,33.705 C239.570192,33.7868387 239.488197,33.8618055 239.4,33.929 L239.4,33.929 Z" id="Path" fill="#455A64"></path>
                    <path d="M238.448,18.102 C237.990646,17.8693214 237.502884,17.7020211 236.999,17.605 C236.4184,17.5264796 235.827583,17.579103 235.27,17.759 C234.553333,17.9841933 233.930882,18.4393451 233.499,19.054 L233.324,19.299 L233.219,19.019 C232.474791,17.2668424 230.841486,16.0539129 228.949,15.848 C227.489259,15.7930957 226.05073,16.2104163 224.847,17.038 C223.821523,17.7064931 222.730954,18.2693674 221.592,18.718 C220.807334,19.0171676 219.96042,19.1158138 219.128,19.005 C218.905591,18.9690623 218.687451,18.9104225 218.477,18.83 C218.337,18.767 218.267,18.732 218.267,18.718 C218.267,18.704 218.582,18.809 219.149,18.865 C219.95493,18.9157874 220.761808,18.7817069 221.508,18.473 C222.623372,17.9970181 223.691988,17.4181848 224.7,16.744 C225.320214,16.3606689 225.976725,16.0394472 226.66,15.785 C227.411826,15.5108635 228.215369,15.4080291 229.012,15.484 C231.025919,15.7094175 232.754068,17.0209829 233.513,18.9 L233.24,18.9 C233.715126,18.224032 234.406476,17.7302107 235.2,17.5 C235.793477,17.3270524 236.419274,17.2958825 237.027,17.409 C237.415387,17.4825599 237.787545,17.6247859 238.126,17.829 C238.246515,17.9032014 238.355082,17.9952476 238.448,18.102 L238.448,18.102 Z" id="Path" fill="#455A64"></path>
                    <path d="M229.229,42.28 C228.893336,41.9860959 228.445005,41.8554397 228.004,41.923 C227.498451,42.0256395 227.060564,42.3387796 226.8,42.784 L226.8,42.784 L226.758,42.84 L226.758,42.84 C226.656389,42.9978908 226.609645,43.1848677 226.625,43.372 C226.689156,43.7827695 226.950754,44.1359264 227.325,44.317 C227.931198,44.6243272 228.665092,44.5178845 229.159,44.051 C229.639221,43.5686461 229.669651,42.798752 229.229,42.28 L229.229,42.28 Z" id="Path" fill="#D61335"></path>
                    <path d="M229.6,44.457 C229.551,44.457 229.481,44.247 229.292,43.953 C228.823397,43.1719 227.920398,42.762206 227.024,42.924 C226.681,42.973 226.471,43.064 226.443,43.022 C226.415,42.98 226.59,42.798 226.961,42.672 C227.457907,42.5109817 227.996987,42.5409305 228.473,42.756 C228.948233,42.9709932 229.3237,43.3589751 229.523,43.841 C229.649,44.205 229.6,44.45 229.6,44.457 Z" id="Path" fill="#263238"></path>
                    <path d="M215.292,45.325 C215.327,45.325 215.495,45.675 215.229,46.207 C215.055662,46.5597378 214.738004,46.8200778 214.358092,46.9207611 C213.978181,47.0214444 213.573281,46.9525949 213.248,46.732 C212.874609,46.504968 212.628645,46.1166046 212.583,45.682 C212.56186,45.3362424 212.663503,44.9941265 212.87,44.716 C213.234,44.254 213.647,44.24 213.64,44.282 C213.633,44.324 213.332,44.436 213.087,44.863 C212.945148,45.0982904 212.886015,45.3742447 212.919,45.647 C212.971932,45.9703207 213.163778,46.2542535 213.444,46.424 C213.720367,46.6007687 214.058867,46.6516709 214.375,46.564 C214.634638,46.4736701 214.858094,46.3017812 215.012,46.074 C215.285,45.668 215.236,45.325 215.292,45.325 Z" id="Path" fill="#D61335"></path>
                    <path d="M212.933,45.052 C212.968,45.052 212.933,45.29 212.604,45.444 C212.174306,45.6424457 211.66458,45.4663584 211.449,45.045 C211.219205,44.6311035 211.351049,44.1098606 211.75,43.855 C212.037,43.687 212.261,43.757 212.254,43.799 C212.247,43.841 212.079,43.89 211.904,44.065 C211.727926,44.2849479 211.700877,44.5890196 211.835361,44.8365938 C211.969846,45.084168 212.23965,45.226986 212.52,45.199 C212.758,45.15 212.884,45.017 212.933,45.052 Z" id="Path" fill="#D61335"></path>
                    <path d="M220.626,107.219 C220.626,107.219 237.958,108.227 248.206,108.318 C256.137,108.395 259.679,106.288 261.261,101.185 C262.598,96.908 259.735,88.697 259.735,88.697 C254.366,88.697 251.055,89.467 247.604,91.084 L248.521,94.836 L220.577,97.244 L220.626,107.219 Z" id="Path" fill="#FFBE9D"></path>
                    <path d="M254.352,98.84 C253.596378,97.8638181 252.716236,96.9907362 251.734,96.243 C250.681203,95.5988241 249.546297,95.0996539 248.36,94.759 C248.733589,94.7052506 249.114552,94.7387944 249.473,94.857 C251.250986,95.2776006 252.811285,96.3394015 253.855,97.839 C254.090972,98.132885 254.260522,98.4743733 254.352,98.84 Z" id="Path" fill="#EB996E"></path>
                    <path d="M214.284,91.056 L214.284,91.056 C214.284,91.056 208.922,92.344 204.988,94.976 L209.188,106.358 C210.588,110.096 214.865,111.958 218.288,109.991 C223.559,106.981 225.421,98.189 225.421,98.189 L231.21,73.073 L221.571,67.06 L214.284,91.056" id="Path" fill="#FFBE9D"></path>
                    <path d="M221.571,67.06 L221.963,58.8 L219.821,50.4 C219.702,49.938 219.639,49.357 220.017,49.077 C220.403523,48.7806196 220.945494,48.798197 221.312,49.119 C221.893,49.721 224.693,57.064 224.693,57.064 C224.693,57.064 228.942,54.516 229.698,54.39 C230.454,54.264 231.406,56.553 231.462,56.728 C231.489809,57.2409567 231.489809,57.7550433 231.462,58.268 C231.462,58.268 234.087,58.345 234.325,58.702 C234.515845,59.431308 234.616926,60.18119 234.626,60.935 C234.626,60.935 235.739,61.292 235.914,62.132 C236.089,62.972 236.453,64.358 235.914,64.659 C235.375,64.96 234.283,65.576 234.283,65.576 C234.283,65.576 233.842,69.86 233.723,70.252 C233.604,70.644 231.147,73.052 231.147,73.052 L221.571,67.06 Z" id="Path" fill="#FFBE9D"></path>
                    <path d="M212.646,110.166 C212.646,110.166 212.912,110.313 213.451,110.495 C214.251887,110.745147 215.098747,110.81213 215.929,110.691 C217.255712,110.496859 218.497958,109.923141 219.506,109.039 C220.838402,107.830192 221.96395,106.411434 222.838,104.839 C223.350902,103.912847 223.786384,102.945889 224.14,101.948 C224.50403,100.848832 224.803211,99.7292388 225.036,98.595 C225.582,96.236 226.177,93.695 226.807,90.993 C228.067,85.596 229.481,79.555 231.007,73.059 L231.007,73.01 L231.042,73.01 C231.525,72.534 232.008,72.051 232.491,71.547 C232.729,71.295 232.967,71.043 233.191,70.784 C233.296,70.651 233.415,70.518 233.506,70.385 C233.597,70.252 233.59,70.133 233.625,69.958 C233.814,68.558 233.961,67.109 234.115,65.646 L234.115,65.555 L234.199,65.506 L235.536,64.764 C235.634,64.701 235.788,64.631 235.851,64.575 C235.920335,64.5164055 235.965274,64.4340178 235.977,64.344 C236.012778,64.1120382 236.012778,63.8759618 235.977,63.644 C235.909175,63.1306639 235.803894,62.6229762 235.662,62.125 C235.426346,61.6875523 235.025624,61.3624383 234.549,61.222 L234.43,61.18 L234.43,61.061 C234.43,60.655 234.388,60.235 234.339,59.822 C234.319973,59.6151548 234.289594,59.4095114 234.248,59.206 C234.230456,59.1174568 234.204678,59.0307466 234.171,58.947 C234.171,58.898 234.171,58.947 234.122,58.905 C234.085845,58.8860959 234.048422,58.8697233 234.01,58.856 C233.166263,58.6695287 232.305086,58.573321 231.441,58.569 L231.259,58.569 L231.259,58.394 C231.259,57.96 231.259,57.477 231.259,56.994 C231.230091,56.829247 231.173276,56.6706364 231.091,56.525 C231.021,56.357 230.937,56.189 230.853,56.028 C230.690734,55.7028666 230.498573,55.3935338 230.279,55.104 C230.184047,54.9674717 230.065528,54.848953 229.929,54.754 C229.822262,54.6667904 229.674278,54.6503478 229.551,54.712 C229.212321,54.8417216 228.8826,54.9937206 228.564,55.167 C227.262,55.867 225.988,56.567 224.749,57.323 L224.56,57.435 L224.483,57.239 C223.825,55.58 223.167,53.942 222.523,52.339 C222.201,51.527 221.886,50.729 221.564,49.938 C221.462648,49.576411 221.163584,49.3045339 220.794,49.238 C220.451097,49.1250644 220.075402,49.2608925 219.884,49.567 C219.797554,49.7200362 219.760859,49.8961749 219.779,50.071 C219.779,50.225 219.877,50.463 219.926,50.652 L220.241,51.856 C220.451,52.661 220.661,53.452 220.864,54.236 C221.279333,55.8133333 221.683,57.3533333 222.075,58.856 L222.075,58.8 C221.935,61.6793333 221.802,64.4326667 221.676,67.06 L221.676,67.102 L215.299,87.85 L213.5,93.625 C213.29,94.276 213.129,94.78 213.017,95.144 C212.905,95.508 212.835,95.655 212.835,95.655 C212.835,95.655 212.877,95.473 212.968,95.13 L213.409,93.597 C213.815,92.246 214.396,90.286 215.131,87.801 C216.643,82.789 218.792,75.635 221.389,67.011 L221.389,67.046 C221.510333,64.4233333 221.634,61.67 221.76,58.786 L221.76,58.835 C221.358667,57.3276667 220.950333,55.7876667 220.535,54.215 C220.325,53.431 220.115,52.64 219.905,51.842 L219.59,50.638 C219.523986,50.4294868 219.472529,50.2166416 219.436,50.001 C219.410181,49.7580145 219.461618,49.5130733 219.583,49.301 C219.712581,49.0826504 219.912509,48.91481 220.15,48.825 C220.379324,48.7638293 220.620676,48.7638293 220.85,48.825 C221.085272,48.8791775 221.303868,48.9896768 221.487,49.147 C221.663712,49.3137593 221.793981,49.523638 221.865,49.756 C222.187,50.547 222.502,51.345 222.831,52.157 L224.791,57.057 L224.532,56.966 C225.785,56.224 227.052,55.482 228.375,54.789 C228.709824,54.6104204 229.055885,54.4537579 229.411,54.32 C229.521724,54.2743696 229.641566,54.2551949 229.761,54.264 C229.881632,54.2822971 229.996527,54.3277762 230.097,54.397 C230.265602,54.5179394 230.414379,54.6643543 230.538,54.831 C230.772052,55.1373159 230.975997,55.4655037 231.147,55.811 C231.238,55.979 231.322,56.154 231.399,56.329 C231.498628,56.5143442 231.564967,56.7157302 231.595,56.924 C231.595,57.421 231.595,57.883 231.595,58.324 L231.42,58.135 C232.31985,58.1406426 233.216431,58.2439137 234.094,58.443 C234.156559,58.4639419 234.217407,58.4896852 234.276,58.52 C234.349439,58.5640772 234.409836,58.62689 234.451,58.702 C234.505311,58.8156076 234.545284,58.9355276 234.57,59.059 C234.619,59.283 234.64,59.493 234.668,59.71 C234.717,60.137 234.745,60.557 234.759,60.977 L234.633,60.809 C235.211484,60.9787109 235.694868,61.3785787 235.97,61.915 C236.123372,62.4445683 236.235705,62.9851689 236.306,63.532 C236.354862,63.8145699 236.354862,64.1034301 236.306,64.386 C236.269451,64.5550974 236.178471,64.7075493 236.047,64.82 C235.934069,64.8998399 235.814652,64.9700852 235.69,65.03 L234.395,65.8 L234.486,65.66 C234.325,67.123 234.178,68.565 233.982,69.986 L233.94,70.259 C233.922298,70.3678583 233.879125,70.4709936 233.814,70.56 C233.704612,70.7103883 233.5878,70.8552344 233.464,70.994 C233.233,71.26 232.988,71.519 232.764,71.771 C232.274,72.275 231.791,72.758 231.308,73.234 L231.35,73.15 C229.81,79.646 228.382,85.68 227.101,91.077 C226.461667,93.7696667 225.862,96.299 225.302,98.665 C225.060178,99.8074578 224.749274,100.934194 224.371,102.039 C224.012394,103.048421 223.567413,104.025038 223.041,104.958 C222.146771,106.548532 220.994789,107.979639 219.632,109.193 C218.594538,110.08941 217.316667,110.66141 215.957,110.838 C215.111151,110.951554 214.25046,110.865246 213.444,110.586 C213.238866,110.510619 213.039929,110.419342 212.849,110.313 L212.646,110.166 Z" id="Path" fill="#EB996E"></path>
                    <path d="M231.469,58.289 C231.469,58.338 231.231,58.366 230.86,58.38 C230.388885,58.388973 229.919863,58.4452557 229.46,58.548 C229.01616,58.6570984 228.606921,58.8761616 228.27,59.185 C228.018,59.423 227.906,59.626 227.85,59.605 C227.794,59.584 227.85,59.332 228.081,59.01 C228.408069,58.6022094 228.86098,58.3142169 229.369,58.191 C229.859889,58.0756965 230.368163,58.0543205 230.867,58.128 C231.245,58.17 231.469,58.24 231.469,58.289 Z" id="Path" fill="#EB996E"></path>
                    <path d="M229.418,58.366 C229.32,58.366 229.313,58.114 229.418,57.883 C229.523,57.652 229.649,57.491 229.74,57.526 C229.831,57.561 229.845,57.778 229.74,58.009 C229.635,58.24 229.509,58.401 229.418,58.366 Z" id="Path" fill="#EB996E"></path>
                    <path d="M234.752,60.9 C234.071339,61.1050041 233.362708,61.2018504 232.652,61.187 C232.200317,61.1741368 231.770196,61.3800735 231.497,61.74 C231.308,62.027 231.371,62.265 231.315,62.279 C231.259,62.293 231.091,62.048 231.266,61.628 C231.363961,61.3907436 231.539059,61.1934491 231.763,61.068 C232.02424,60.9320785 232.309651,60.8488338 232.603,60.823 C233.317884,60.7147247 234.046698,60.7408386 234.752,60.9 L234.752,60.9 Z" id="Path" fill="#EB996E"></path>
                    <path d="M234.283,63.427 C234.381,63.427 234.444,63.945 234.409,64.582 C234.374,65.219 234.276,65.723 234.178,65.716 C234.08,65.709 234.017,65.198 234.045,64.561 C234.073,63.924 234.178,63.42 234.283,63.427 Z" id="Path" fill="#EB996E"></path>
                    <path d="M237.195,82.278 L237.811,80.129 C237.869476,79.9277845 238.030613,79.7728919 238.233981,79.7224103 C238.43735,79.6719288 238.652216,79.7334873 238.798,79.884 L239.61,80.71 L240.114,78.694 C240.174738,78.4545971 240.378613,78.2786695 240.624328,78.2536285 C240.870043,78.2285875 241.105217,78.3597713 241.213,78.582 L242.361,80.976 L237.195,82.278 Z" id="Path" fill="#FFFFFF"></path>
                    <path d="M242.368,81.9 C241.585552,82.2798663 240.753834,82.5484665 239.897,82.698 C239.067666,82.9644411 238.205539,83.1151956 237.335,83.146 C238.946572,82.4986723 240.64056,82.0792985 242.368,81.9 Z" id="Path" fill="#FFFFFF"></path>
                    <path d="M200.739,69.93 C200.739,69.93 200.48,70.196 200.116,70.756 C199.628688,71.5666242 199.307457,72.4660703 199.171,73.402 C198.971378,74.7928233 198.929111,76.2017114 199.045,77.602 C199.122,79.184 199.248,80.927 199.444,82.747 C199.768873,85.8524675 200.254861,88.9389605 200.9,91.994 C201.145,93.17 201.369,94.094 201.53,94.794 C201.6,95.081 201.656,95.333 201.705,95.543 C201.754,95.753 201.761,95.809 201.761,95.809 C201.72834,95.7242481 201.700299,95.6377879 201.677,95.55 L201.474,94.808 C201.299,94.157 201.061,93.219 200.774,92.008 C200.094154,88.9519752 199.587017,85.8600762 199.255,82.747 C199.059,80.927 198.94,79.184 198.87,77.595 C198.764562,76.1936374 198.816216,74.7848778 199.024,73.395 C199.175325,72.451116 199.518375,71.548229 200.032,70.742 C200.230574,70.4411472 200.468331,70.16808 200.739,69.93 L200.739,69.93 Z" id="Path" fill="#FFFFFF"></path>
                    <path d="M215.474,60.41 C215.423869,60.4443093 215.369819,60.472509 215.313,60.494 L214.851,60.718 C214.452,60.907 213.871,61.187 213.178,61.572 C211.371443,62.5795429 209.616878,63.6776058 207.921,64.862 C205.919,66.262 204.148,67.536 202.853,68.46 L201.32,69.545 L200.893,69.832 C200.845315,69.8700747 200.793687,69.902929 200.739,69.93 C200.781096,69.8852502 200.828053,69.8453366 200.879,69.811 L201.285,69.503 L202.797,68.376 C204.071,67.431 205.835,66.115 207.837,64.743 C209.535961,63.5535237 211.302972,62.4643343 213.129,61.481 C213.829,61.11 214.417,60.837 214.83,60.662 L215.306,60.466 C215.35853,60.4381987 215.415296,60.4192767 215.474,60.41 L215.474,60.41 Z" id="Path" fill="#FFFFFF"></path>
                    <path d="M248.857,64.967 L248.738,64.876 L248.423,64.603 C248.032544,64.2784731 247.623518,63.9769626 247.198,63.7 C245.777005,62.7939615 244.269214,62.0318589 242.697,61.425 C241.129627,60.8041436 239.5288,60.2713138 237.902,59.829 C237.279,59.654 236.768,59.528 236.418,59.444 L236.012,59.339 L235.872,59.29 L236.019,59.29 L236.425,59.367 C236.782,59.437 237.3,59.549 237.923,59.71 C239.565586,60.123517 241.179092,60.6449834 242.753,61.271 C244.334271,61.8777008 245.843744,62.6570866 247.254,63.595 C247.842053,63.9855573 248.38035,64.4462827 248.857,64.967 Z" id="Path" fill="#FFFFFF"></path>
                    <path d="M215.67,118.398 C215.574615,118.379157 215.482592,118.346123 215.397,118.3 C215.152992,118.197619 214.918711,118.07345 214.697,117.929 C213.935441,117.472624 213.386485,116.732288 213.171,115.871 C212.978825,115.010156 213.074741,114.110019 213.444,113.309 C213.5507,113.060193 213.687017,112.825163 213.85,112.609 C213.962,112.462 214.039,112.392 214.046,112.399 C213.856027,112.696925 213.687597,113.008052 213.542,113.33 C213.210198,114.114751 213.131883,114.983563 213.318,115.815 C213.527262,116.641023 214.039495,117.35815 214.753,117.824 C215.299,118.223 215.684,118.37 215.67,118.398 Z" id="Path" fill="#FFFFFF"></path>
                    <path d="M213.444,110.817 C213.598213,111.092405 213.709175,111.389879 213.773,111.699 C213.88312,111.993351 213.949166,112.302351 213.969,112.616 C213.698494,112.04843 213.521222,111.440976 213.444,110.817 L213.444,110.817 Z" id="Path" fill="#FFFFFF"></path>
                    <path d="M222.908,267.764 L244.258,267.652 L243.873,193.837 L243.67,118.741 L214.753,118.384 L209.552,128.184 C207.424944,132.12675 206.068433,136.438603 205.555,140.889 C205.191,144.284 207.732,155.344 208.621,158.158 L216.58,183.4 L222.908,267.764 Z" id="Path" fill="#263238"></path>
                    <path d="M249.935,118.846 L273.399,182.805 C276.21372,191.148947 275.153439,200.314091 270.508,207.795 L243.264,260.96 L227.948,241.801 L250.74,194.201 L230.65,161.644 L234.031,118.944 L243.495,118.79 L249.935,118.846 Z" id="Path" fill="#263238"></path>
                    <path d="M241.724,140.273 C241.724,140.273 241.724,140.385 241.759,140.602 C241.794,140.819 241.794,141.155 241.815,141.568 C241.864,142.429 241.927,143.668 242.011,145.271 C242.172,148.512 242.396,153.167 242.676,158.914 C242.956,164.661 243.257,171.514 243.607,179.144 C243.775,182.952 243.957,186.949 244.139,191.093 C244.279,193.193 244.216,195.293 244.237,197.393 C244.258,199.493 244.237,201.705 244.237,203.903 C244.237,221.494 244.293,237.419 244.314,248.962 C244.314,254.716 244.314,259.378 244.314,262.619 C244.314,264.222 244.314,265.468 244.314,266.329 C244.314,266.742 244.314,267.064 244.314,267.295 C244.314,267.526 244.314,267.624 244.314,267.624 C244.314,267.624 244.314,267.512 244.314,267.295 L244.314,266.336 C244.314,265.468 244.314,264.236 244.272,262.619 C244.272,259.378 244.216,254.716 244.174,248.969 C244.125,237.426 244.062,221.501 243.992,203.91 C243.992,201.712 243.992,199.542 243.992,197.4 C243.992,195.258 244.027,193.144 243.894,191.1 C243.719,186.956 243.544,182.966 243.383,179.158 C243.061,171.542 242.774,164.689 242.529,158.921 C242.284,153.153 242.116,148.519 241.983,145.278 C241.927,143.682 241.885,142.436 241.857,141.568 C241.857,141.155 241.857,140.833 241.857,140.602 C241.857,140.371 241.724,140.273 241.724,140.273 Z" id="Path" fill="#455A64"></path>
                    <path d="M241.185,120.106 C241.267596,120.331341 241.319397,120.5668 241.339,120.806 C241.409,121.254 241.493,121.905 241.591,122.717 C241.773,124.334 241.969,126.581 242.088,129.066 C242.207,131.551 242.2,133.805 242.165,135.436 C242.165,136.248 242.116,136.906 242.081,137.361 C242.086894,137.597163 242.058602,137.832937 241.997,138.061 C241.917709,137.186044 241.887328,136.307343 241.906,135.429 C241.906,133.798 241.829,131.558 241.724,129.073 C241.619,126.588 241.451,124.355 241.332,122.731 C241.233949,121.859437 241.184872,120.98306 241.185,120.106 L241.185,120.106 Z" id="Path" fill="#455A64"></path>
                    <path d="M236.481,121.548 C236.523,121.597 236.117,121.779 236.012,122.346 C235.940572,122.657791 236.042153,122.983918 236.278,123.2 C236.551457,123.469607 236.96163,123.545302 237.313306,123.391058 C237.664982,123.236814 237.887121,122.88379 237.874,122.5 C237.860945,122.181427 237.68335,121.892502 237.405,121.737 C237.120254,121.599098 236.802691,121.543343 236.488,121.576 C236.488,121.576 236.558,121.478 236.74,121.429 C237.002496,121.364913 237.278988,121.392069 237.524,121.506 C237.919516,121.675676 238.188858,122.050062 238.224,122.479 C238.275655,123.013019 237.983486,123.521177 237.495986,123.745206 C237.008487,123.969235 236.432593,123.859992 236.061,123.473 C235.760472,123.169927 235.650285,122.726491 235.774,122.318 C235.844297,122.056063 236.00246,121.826232 236.222,121.667 C236.369,121.541 236.474,121.527 236.481,121.548 Z" id="Path" fill="#455A64"></path>
                    <path d="M225.281,120.281 C225.38411,120.50161 225.448063,120.738473 225.47,120.981 C225.58668,121.606523 225.607921,122.246114 225.533,122.878 C225.436717,123.825677 225.16367,124.746914 224.728,125.594 C223.155856,128.611943 219.741085,130.184005 216.426,129.416 C215.802549,129.270042 215.203622,129.034244 214.648,128.716 C214.434074,128.618873 214.23958,128.483677 214.074,128.317 C214.845102,128.673545 215.652448,128.94579 216.482,129.129 C218.495072,129.549726 220.592335,129.10781 222.264484,127.910567 C223.936632,126.713325 225.0307,124.870279 225.281,122.829 C225.370083,121.982003 225.370083,121.127997 225.281,120.281 L225.281,120.281 Z" id="Path" fill="#455A64"></path>
                    <path d="M252.749,126.406 C252.295137,126.463872 251.834009,126.411035 251.405,126.252 C249.248875,125.573909 247.625153,123.787013 247.156,121.576 C247.04709,121.129884 247.04709,120.664116 247.156,120.218 C247.226,120.218 247.226,120.736 247.436,121.513 C247.723825,122.525489 248.238512,123.459107 248.941,124.243 C249.649836,125.02125 250.529088,125.624987 251.51,126.007 C252.238,126.294 252.756,126.343 252.749,126.406 Z" id="Path" fill="#455A64"></path>
                    <path d="M261.1,195.363 C260.751158,195.765339 260.331141,196.099929 259.861,196.35 C259.369487,196.661798 258.833811,196.897779 258.272,197.05 C257.565062,197.237322 256.819222,197.217886 256.123,196.994 C254.900347,196.532914 253.852696,195.700668 253.127,194.614 C252.793729,194.205628 252.518152,193.753398 252.308,193.27 C252.687919,193.62864 253.03035,194.025016 253.33,194.453 C254.074751,195.440262 255.081077,196.19925 256.235,196.644 C257.422323,196.961774 258.688092,196.776972 259.735,196.133 C260.174957,195.850535 260.6307,195.593449 261.1,195.363 L261.1,195.363 Z" id="Path" fill="#455A64"></path>
                    <path d="M255.745,199.451 C254.174936,197.665981 252.793284,195.723692 251.622,193.655 C252.451376,194.509985 253.190291,195.44829 253.827,196.455 C254.566203,197.386094 255.20884,198.389921 255.745,199.451 Z" id="Path" fill="#455A64"></path>
                    <path d="M219.87,142.758 C219.772,142.793 219.527,142.387 219.31,141.855 C219.093,141.323 219.002,140.854 219.093,140.819 C219.184,140.784 219.436,141.183 219.653,141.722 C219.87,142.261 219.961,142.716 219.87,142.758 Z" id="Path" fill="#FAFAFA"></path>
                    <path d="M233.422,144.69 C233.324,144.69 233.24,144.347 233.24,143.92 C233.24,143.493 233.324,143.143 233.422,143.143 C233.52,143.143 233.604,143.493 233.604,143.92 C233.604,144.347 233.52,144.69 233.422,144.69 Z" id="Path" fill="#FAFAFA"></path>
                    <path d="M227.85,152.054 C227.752,152.054 227.64,151.627 227.605,151.095 C227.57,150.563 227.605,150.122 227.717,150.115 C227.829,150.108 227.934,150.535 227.969,151.074 C228.004,151.613 227.955,152.047 227.85,152.054 Z" id="Path" fill="#FAFAFA"></path>
                    <path d="M217.7,157.5 C217.616,157.563 217.329,157.304 216.951,157.031 C216.573,156.758 216.251,156.562 216.251,156.464 C216.251,156.366 216.72,156.464 217.14,156.737 C217.56,157.01 217.756,157.416 217.7,157.5 Z" id="Path" fill="#FAFAFA"></path>
                    <path d="M235.613,164.311 C235.529,164.255 235.613,163.954 235.851,163.611 C236.089,163.268 236.306,163.072 236.39,163.128 C236.474,163.184 236.39,163.492 236.152,163.828 C235.914,164.164 235.697,164.367 235.613,164.311 Z" id="Path" fill="#FAFAFA"></path>
                    <path d="M224.518,166.25 C224.413,166.25 224.329,165.669 224.329,164.955 C224.329,164.241 224.413,163.667 224.518,163.667 C224.623,163.667 224.7,164.248 224.7,164.955 C224.7,165.662 224.616,166.25 224.518,166.25 Z" id="Path" fill="#FAFAFA"></path>
                    <path d="M220.913,174.104 C220.857,174.181 220.493,174.02 220.101,173.733 C219.709,173.446 219.436,173.152 219.499,173.068 C219.562,172.984 219.919,173.152 220.311,173.439 C220.703,173.726 220.976,174.02 220.913,174.104 Z" id="Path" fill="#FAFAFA"></path>
                    <path d="M232.134,176.834 C232.169,176.925 231.945,177.114 231.623,177.261 C231.301,177.408 231.007,177.443 230.972,177.352 C230.937,177.261 231.154,177.065 231.476,176.925 C231.798,176.785 232.092,176.743 232.134,176.834 Z" id="Path" fill="#FAFAFA"></path>
                    <path d="M224.518,189.616 C224.427,189.658 224.063,189.119 223.706,188.405 C223.349,187.691 223.132,187.075 223.223,187.005 C223.314,186.935 223.678,187.502 224.035,188.216 C224.307982,188.636187 224.47382,189.116876 224.518,189.616 L224.518,189.616 Z" id="Path" fill="#FAFAFA"></path>
                    <path d="M236.908,188.454 C236.817,188.405 236.978,187.929 237.265,187.397 C237.552,186.865 237.853,186.466 237.965,186.515 C238.077,186.564 237.895,187.033 237.615,187.572 C237.335,188.111 236.992,188.496 236.908,188.454 Z" id="Path" fill="#FAFAFA"></path>
                    <path d="M231.483,199.297 C231.385,199.297 231.392,198.73 231.28,198.072 C231.168,197.414 231.007,196.889 231.098,196.84 C231.189,196.791 231.532,197.288 231.644,198.016 C231.756,198.744 231.581,199.311 231.483,199.297 Z" id="Path" fill="#FAFAFA"></path>
                    <path d="M225.673,205.492 C225.603,205.562 225.253,205.296 224.896,204.904 C224.539,204.512 224.308,204.141 224.385,204.071 C224.462,204.001 224.812,204.267 225.169,204.659 C225.526,205.051 225.75,205.422 225.673,205.492 Z" id="Path" fill="#FAFAFA"></path>
                    <path d="M239.778,207.844 C239.701,207.774 239.96,207.396 240.352,206.997 C240.744,206.598 241.115,206.339 241.185,206.409 C241.255,206.479 240.996,206.857 240.611,207.256 C240.226,207.655 239.848,207.9 239.778,207.844 Z" id="Path" fill="#FAFAFA"></path>
                    <path d="M231.7,217.119 C231.602,217.119 231.602,216.566 231.7,215.922 C231.798,215.278 231.952,214.774 232.057,214.788 C232.162,214.802 232.155,215.334 232.057,215.978 C231.959,216.622 231.763,217.133 231.7,217.119 Z" id="Path" fill="#FAFAFA"></path>
                    <path d="M226.212,221.613 C226.121,221.669 225.82,221.305 225.512,220.808 C225.204,220.311 225.057,219.87 225.141,219.821 C225.225,219.772 225.54,220.129 225.841,220.626 C226.142,221.123 226.296,221.564 226.212,221.613 Z" id="Path" fill="#FAFAFA"></path>
                    <path d="M239.351,227.297 C239.414,227.381 239.057,227.738 238.56,228.095 C238.063,228.452 237.608,228.676 237.545,228.592 C237.482,228.508 237.846,228.151 238.343,227.794 C238.84,227.437 239.295,227.22 239.351,227.297 Z" id="Path" fill="#FAFAFA"></path>
                    <path d="M228.403,234.668 C228.305,234.633 228.403,234.073 228.494,233.373 C228.585,232.673 228.529,232.099 228.634,232.085 C228.739,232.071 228.921,232.652 228.858,233.408 C228.795,234.164 228.494,234.71 228.403,234.668 Z" id="Path" fill="#FAFAFA"></path>
                    <path d="M232.778,245.252 C232.694,245.315 232.4,245.077 232.12,244.72 C231.84,244.363 231.665,244.02 231.742,243.957 C231.819,243.894 232.12,244.132 232.4,244.489 C232.68,244.846 232.855,245.189 232.778,245.252 Z" id="Path" fill="#FAFAFA"></path>
                    <path d="M227.997,252.35 C227.92,252.406 227.535,251.986 227.143,251.419 C226.751,250.852 226.499,250.341 226.583,250.285 C226.667,250.229 227.045,250.642 227.437,251.209 C227.829,251.776 228.081,252.294 227.997,252.35 Z" id="Path" fill="#FAFAFA"></path>
                    <path d="M241.164,243.439 C241.073,243.439 241.08,243.145 241.164,242.858 C241.248,242.571 241.43,242.375 241.528,242.41 C241.626,242.445 241.612,242.704 241.528,242.991 C241.444,243.278 241.262,243.474 241.164,243.439 Z" id="Path" fill="#FAFAFA"></path>
                    <path d="M235.361,260.351 C235.263,260.302 235.438,259.805 235.578,259.182 C235.718,258.559 235.767,258.034 235.872,258.027 C235.977,258.02 236.082,258.58 235.935,259.259 C235.788,259.938 235.445,260.4 235.361,260.351 Z" id="Path" fill="#FAFAFA"></path>
                    <path d="M239.134,152.166 C239.043,152.208 238.819,151.928 238.637,151.536 C238.455,151.144 238.378,150.794 238.469,150.752 C238.56,150.71 238.784,150.99 238.966,151.382 C239.148,151.774 239.225,152.124 239.134,152.166 Z" id="Path" fill="#FAFAFA"></path>
                    <path d="M229.418,130.361 C229.474,130.452 228.984,130.844 228.459,131.404 C227.934,131.964 227.577,132.482 227.486,132.426 C227.395,132.37 227.633,131.726 228.186,131.159 C228.739,130.592 229.369,130.277 229.418,130.361 Z" id="Path" fill="#FAFAFA"></path>
                    <path d="M238.07,130.109 C237.965,130.109 237.804,129.71 237.559,129.234 C237.314,128.758 237.09,128.366 237.167,128.296 C237.244,128.226 237.622,128.534 237.867,129.066 C238.112,129.598 238.168,130.088 238.07,130.109 Z" id="Path" fill="#FAFAFA"></path>
                    <path d="M211.12,137.2 C211.029,137.158 211.12,136.696 211.337,136.164 C211.554,135.632 211.799,135.219 211.89,135.261 C211.981,135.303 211.89,135.758 211.673,136.297 C211.456,136.836 211.218,137.256 211.12,137.2 Z" id="Path" fill="#FAFAFA"></path>
                    <path d="M211.995,147.791 C211.932,147.868 211.533,147.644 211.099,147.287 C210.665,146.93 210.399,146.587 210.441,146.496 C210.483,146.405 210.91,146.65 211.337,147.007 C211.764,147.364 212.058,147.7 211.995,147.791 Z" id="Path" fill="#FAFAFA"></path>
                    <path d="M229.677,121.975 C229.586,122.01 229.39,121.751 229.25,121.394 C229.11,121.037 229.068,120.694 229.159,120.694 C229.25,120.694 229.446,120.918 229.586,121.275 C229.726,121.632 229.768,121.933 229.677,121.975 Z" id="Path" fill="#FAFAFA"></path>
                    <path d="M246.61,127.141 C246.512,127.141 246.519,126.7 246.61,126.203 C246.701,125.706 246.883,125.314 246.981,125.335 C247.079,125.356 247.072,125.776 246.981,126.28 C246.89,126.784 246.708,127.162 246.61,127.141 Z" id="Path" fill="#FAFAFA"></path>
                    <path d="M250.6,135.142 C250.502,135.1 250.6,134.582 250.88,133.973 C251.16,133.364 251.405,132.909 251.503,132.944 C251.601,132.979 251.503,133.504 251.216,134.113 C250.929,134.722 250.684,135.177 250.6,135.142 Z" id="Path" fill="#FAFAFA"></path>
                    <path d="M247.751,141.596 C247.66,141.638 247.324,141.155 247.009,140.511 C246.694,139.867 246.498,139.314 246.589,139.272 C246.68,139.23 247.009,139.706 247.331,140.35 C247.653,140.994 247.842,141.547 247.751,141.596 Z" id="Path" fill="#FAFAFA"></path>
                    <path d="M253.82,148.05 C253.722,148.015 253.82,147.609 253.967,147.147 C254.114,146.685 254.366,146.335 254.464,146.37 C254.562,146.405 254.464,146.811 254.31,147.273 C254.156,147.735 253.911,148.085 253.82,148.05 Z" id="Path" fill="#FAFAFA"></path>
                    <path d="M248.395,154.371 C248.311,154.427 248.094,154.238 247.919,153.951 C247.744,153.664 247.667,153.391 247.751,153.342 C247.835,153.293 248.052,153.475 248.227,153.762 C248.402,154.049 248.5,154.322 248.395,154.371 Z" id="Path" fill="#FAFAFA"></path>
                    <path d="M249.55,167.412 C249.48,167.482 249.046,167.132 248.577,166.635 C248.108,166.138 247.8,165.676 247.877,165.606 C247.954,165.536 248.381,165.886 248.85,166.39 C249.319,166.894 249.627,167.349 249.55,167.412 Z" id="Path" fill="#FAFAFA"></path>
                    <path d="M256.655,159.922 C256.578,159.985 256.193,159.635 255.801,159.131 C255.409,158.627 255.157,158.179 255.234,158.116 C255.311,158.053 255.696,158.41 256.088,158.907 C256.48,159.404 256.739,159.859 256.655,159.922 Z" id="Path" fill="#FAFAFA"></path>
                    <path d="M260.554,170.261 C260.463,170.219 260.624,169.694 260.911,169.092 C261.198,168.49 261.499,168.028 261.611,168.07 C261.723,168.112 261.548,168.637 261.261,169.246 C260.974,169.855 260.645,170.303 260.554,170.261 Z" id="Path" fill="#FAFAFA"></path>
                    <path d="M252.266,178.773 C252.182,178.822 251.853,178.437 251.405,178.024 C250.957,177.611 250.544,177.324 250.593,177.219 C250.642,177.114 251.16,177.303 251.65,177.758 C252.14,178.213 252.35,178.724 252.266,178.773 Z" id="Path" fill="#FAFAFA"></path>
                    <path d="M252.784,187.551 C252.784,187.649 252.434,187.733 252.007,187.733 C251.58,187.733 251.237,187.649 251.237,187.551 C251.237,187.453 251.58,187.369 252.007,187.369 C252.434,187.369 252.784,187.446 252.784,187.551 Z" id="Path" fill="#FAFAFA"></path>
                    <path d="M261.303,185.094 C261.212,185.038 261.394,184.604 261.527,184.058 C261.66,183.512 261.716,183.036 261.821,183.029 C261.926,183.022 262.038,183.533 261.884,184.142 C261.73,184.751 261.387,185.15 261.303,185.094 Z" id="Path" fill="#FAFAFA"></path>
                    <path d="M269.766,188.041 C269.675,188.041 269.416,187.579 269.192,186.942 C268.968,186.305 268.863,185.759 268.954,185.731 C269.045,185.703 269.311,186.186 269.535,186.823 C269.759,187.46 269.864,188.006 269.766,188.041 Z" id="Path" fill="#FAFAFA"></path>
                    <path d="M268.422,200.081 C268.331,200.032 268.548,199.444 268.898,198.765 C269.248,198.086 269.598,197.575 269.703,197.624 C269.808,197.673 269.577,198.254 269.227,198.933 C268.877,199.612 268.506,200.123 268.422,200.081 Z" id="Path" fill="#FAFAFA"></path>
                    <path d="M260.694,207.151 C260.603,207.193 260.316,206.71 260.05,206.073 C259.784,205.436 259.651,204.89 259.749,204.848 C259.847,204.806 260.127,205.296 260.393,205.933 C260.659,206.57 260.785,207.116 260.694,207.151 Z" id="Path" fill="#FAFAFA"></path>
                    <path d="M252.14,209.881 C252.14,209.979 251.853,210.063 251.496,210.063 C251.139,210.063 250.845,209.979 250.845,209.881 C250.845,209.783 251.139,209.699 251.496,209.699 C251.853,209.699 252.14,209.776 252.14,209.881 Z" id="Path" fill="#FAFAFA"></path>
                    <path d="M257.047,221.109 C256.949,221.109 256.753,220.724 256.613,220.192 C256.473,219.66 256.431,219.198 256.529,219.177 C256.627,219.156 256.816,219.562 256.963,220.094 C257.11,220.626 257.138,221.081 257.047,221.109 Z" id="Path" fill="#FAFAFA"></path>
                    <path d="M250.845,217.364 C250.761,217.315 250.845,216.986 251.076,216.664 C251.307,216.342 251.538,216.062 251.622,216.111 C251.706,216.16 251.622,216.496 251.391,216.853 C251.16,217.21 250.936,217.42 250.845,217.364 Z" id="Path" fill="#FAFAFA"></path>
                    <path d="M250.719,229.761 C250.621,229.761 250.481,229.292 250.411,228.683 C250.341,228.074 250.362,227.577 250.46,227.563 C250.558,227.549 250.698,228.032 250.768,228.641 C250.838,229.25 250.817,229.747 250.719,229.761 Z" id="Path" fill="#FAFAFA"></path>
                </g>
            </g>
        </g>
    </g>
</svg>