<?xml version="1.0" encoding="UTF-8"?>
<svg width="333px" height="308px" viewBox="0 0 333 308" version="1.1" xmlns="http://www.w3.org/2000/svg" xmlns:xlink="http://www.w3.org/1999/xlink">
    <title>Group 5</title>
    <g id="Page-1" stroke="none" stroke-width="1" fill="none" fill-rule="evenodd">
        <g id="For-you-and-your-partner-Copy" transform="translate(-44.000000, -1803.000000)">
            <g id="Group-5" transform="translate(44.078000, 1803.000000)">
                <g id="Group-4" transform="translate(23.922000, 0.000000)">
                    <circle id="Mask-Copy" fill="#E13856" opacity="0.0770321801" cx="150" cy="158" r="150"></circle>
                    <g id="Asset-25" transform="translate(20.000000, 0.000000)" fill-rule="nonzero">
                        <rect id="Rectangle" fill="#E0E0E0" transform="translate(61.533697, 125.283349) rotate(-25.700000) translate(-61.533697, -125.283349) " x="20.4696968" y="68.8753495" width="82.128" height="112.816" rx="2.176"></rect>
                        <rect id="Rectangle" fill="#FAFAFA" transform="translate(60.879888, 123.931839) rotate(-25.700000) translate(-60.879888, -123.931839) " x="24.4038875" y="71.427839" width="72.952" height="105.008"></rect>
                        <path d="M52.168,71.616 C49.4862291,69.5479073 45.8669955,69.1701943 42.816,70.64 L40.8,66.64 C40.0949915,65.1723909 38.8355989,64.0451511 37.2991249,63.5064849 C35.7626509,62.9678187 34.075082,63.0618953 32.608,63.768 L32.608,63.768 C31.1300172,64.4728247 29.9950567,65.7391519 29.4556672,67.2852017 C28.9162776,68.8312514 29.0172082,70.5287593 29.736,72 L31.76,76.2 L30.4,76.872 C27.4151054,78.3698647 25.5121603,81.4047074 25.464,84.744 L25.464,86.824 L54.016,73.048 L52.168,71.616 Z M36.896,72.272 C35.252135,73.0617261 33.2792862,72.3701802 32.4882512,70.7269446 C31.6972163,69.083709 32.3871909,67.1103102 34.029796,66.3179668 C35.6724012,65.5256235 37.6463488,66.2140264 38.44,67.856 C39.2306657,69.501944 38.5400039,71.4773082 36.896,72.272 L36.896,72.272 Z" id="Shape" fill="#EBEBEB"></path>
                        <path d="M36.064,94.12 C36.12,94.232 32.176,96.248 27.264,98.624 C22.352,101 18.304,102.816 18.248,102.696 C18.192,102.576 22.136,100.568 27.048,98.192 C31.96,95.816 36,94 36.064,94.12 Z" id="Path" fill="#E0E0E0"></path>
                        <path d="M28.272,101.6 C26.9536585,102.497012 25.5494227,103.260766 24.08,103.88 C22.6816313,104.643737 21.2102891,105.265506 19.688,105.736 C21.0063415,104.838988 22.4105773,104.075234 23.88,103.456 C25.2803172,102.696306 26.7512517,102.074709 28.272,101.6 Z" id="Path" fill="#E0E0E0"></path>
                        <path d="M74.1842116,89.792 C74.24,89.904 63.176,95.344 49.48,101.936 C35.784,108.528 24.632,113.784 24.5757882,113.664 C24.52,113.544 35.576,108.112 49.28,101.512 C62.984,94.912 74.128,89.672 74.1842116,89.792 Z" id="Path" fill="#E0E0E0"></path>
                        <path d="M76.4562763,94.52 C76.52,94.632 65.456,100.08 51.76,106.672 C38.064,113.264 26.912,118.512 26.8557882,118.4 C26.8,118.288 37.856,112.84 51.552,106.248 C65.248,99.656 76.4,94.4 76.4562763,94.52 Z" id="Path" fill="#E0E0E0"></path>
                        <path d="M78.7362118,99.248 C78.792,99.368 67.736,104.808 54.04,111.4 C40.344,117.992 29.184,123.248 29.1277882,123.128 C29.072,123.008 40.128,117.6 53.832,110.976 C67.536,104.352 78.68,99.128 78.7362118,99.248 Z" id="Path" fill="#E0E0E0"></path>
                        <path d="M81.0162116,104 C81.072,104.12 70.008,109.56 56.312,116.152 C42.616,122.744 31.464,128 31.407788,127.856 C31.352,127.712 42.4,122.304 56.112,115.704 C69.824,109.104 80.96,103.864 81.0162116,104 Z" id="Path" fill="#E0E0E0"></path>
                        <path d="M83.2882118,108.712 C83.344,108.824 72.288,114.312 58.592,120.864 C44.896,127.416 33.736,132.704 33.6797884,132.592 C33.624,132.48 44.688,126.992 58.384,120.44 C72.08,113.888 83.2,108.592 83.2882118,108.712 Z" id="Path" fill="#E0E0E0"></path>
                        <path d="M85.6002118,113.44 C85.656,113.56 74.6,119 60.896,125.592 C47.192,132.184 36,137.44 36,137.32 C36,137.2 47,131.72 60.704,125.168 C74.408,118.616 85.512,113.32 85.6002118,113.44 Z" id="Path" fill="#E0E0E0"></path>
                        <path d="M62.816,129.648 C62.5244643,129.864682 62.2106976,130.049723 61.88,130.2 L59.256,131.544 C57.032,132.664 53.944,134.176 50.52,135.824 C47.096,137.472 43.984,138.944 41.72,139.984 L39.024,141.2 C38.7027293,141.363747 38.3647882,141.492486 38.016,141.584 C38.3051369,141.363728 38.6193209,141.17844 38.952,141.032 L41.6,139.688 C43.824,138.568 46.912,137.048 50.336,135.4 C53.76,133.752 56.872,132.288 59.136,131.24 L61.824,130.032 C62.137377,129.863171 62.4706265,129.734171 62.816,129.648 Z" id="Path" fill="#E0E0E0"></path>
                        <path d="M70.648,76.944 C69.4356487,77.7851417 68.1377693,78.4957575 66.776,79.064 C65.4818635,79.7783707 64.1138048,80.3497364 62.696,80.768 C63.9069399,79.9223802 65.2050188,79.2089732 66.568,78.64 C67.8625578,77.9285605 69.2305863,77.3598899 70.648,76.944 Z" id="Path" fill="#E0E0E0"></path>
                        <path d="M56.504,145.376 C56.56,145.496 53.72,146.976 50.168,148.696 C48.0484448,149.798703 45.8598907,150.763377 43.616,151.584 C43.56,151.464 46.4,149.984 49.96,148.272 C52.0781833,147.169848 54.263868,146.202589 56.504,145.376 Z" id="Path" fill="#E0E0E0"></path>
                        <path d="M59,149.472 C56.924374,150.728102 54.7706589,151.850385 52.552,152.832 C50.4006272,153.953224 48.1801489,154.93654 45.904,155.776 C45.848,155.656 48.728,154.176 52.352,152.408 C55.976,150.64 58.944,149.352 59,149.472 Z" id="Path" fill="#E0E0E0"></path>
                        <path d="M93.6,126.752 C92.6768697,127.452291 91.6655009,128.027911 90.592,128.464 C89.5881717,129.03351 88.5116755,129.464108 87.392,129.744 C88.3143337,129.044618 89.3259432,128.471552 90.4,128.04 C91.4026201,127.466088 92.4793618,127.032699 93.6,126.752 L93.6,126.752 Z" id="Path" fill="#E0E0E0"></path>
                        <path d="M95.64,130.512 C94.7155329,131.214644 93.7011981,131.79042 92.624,132.224 C91.6174348,132.789731 90.5418155,133.222667 89.424,133.512 C90.3462366,132.805981 91.3610472,132.229935 92.44,131.8 C94.136,130.968 95.576,130.4 95.64,130.512 Z" id="Path" fill="#E0E0E0"></path>
                        <path d="M55.2,156.872 C54.3153723,157.558836 53.3375889,158.116415 52.296,158.528 C51.3214267,159.084141 50.2739841,159.501503 49.184,159.768 C50.0695156,159.0804 51.0470211,158.520287 52.088,158.104 C53.0637638,157.552223 54.1109624,157.137651 55.2,156.872 Z" id="Path" fill="#E0E0E0"></path>
                        <path d="M98.024,134.92 C97.3897571,135.476965 96.6609275,135.915888 95.872,136.216 C95.1344927,136.65614 94.3200336,136.95206 93.472,137.088 C94.1022838,136.525643 94.8321578,136.08609 95.624,135.792 C96.3615073,135.35186 97.1759664,135.05594 98.024,134.92 L98.024,134.92 Z" id="Path" fill="#E0E0E0"></path>
                        <path d="M53.648,170.144 C53.7242517,170.06871 53.8103713,170.00412 53.904,169.952 L54.704,169.44 L57.6,167.568 L68.104,160.968 L68.312,160.84 L68.4,161.072 C68.9018194,162.351645 68.9414292,163.76628 68.512,165.072 C68.0717956,166.553812 66.9513264,167.736866 65.4956022,168.25688 C64.0398781,168.776895 62.4234346,168.571522 61.144,167.704 C59.8058581,166.66807 59.2168055,164.932413 59.648,163.296 C59.7854665,162.667427 60.0799644,162.083936 60.504,161.6 C60.6059535,161.483259 60.7184271,161.376141 60.84,161.28 C60.9656,161.168585 61.1055003,161.074421 61.256,161 C61.4538695,160.896155 61.6901305,160.896155 61.888,161 C62.0399633,161.105201 62.1614022,161.24872 62.24,161.416 C62.8088516,162.458091 63.1368925,163.614435 63.2,164.8 C63.2596536,165.928189 63.082523,167.056375 62.68,168.112 C62.3287006,169.158868 61.6463638,170.063035 60.736,170.688 C59.7881064,171.24977 58.6035431,171.224962 57.68,170.624 C56.8315771,170.097841 56.1902757,169.295509 55.864,168.352 C55.272,166.52 55.648,164.752 55.864,163.24 L55.928,162.896 L56.152,163.16 C57.1140504,164.250638 57.7173304,165.610811 57.88,167.056 C58.0104878,168.13211 57.9067857,169.223711 57.576,170.256 C57.3706787,170.908528 57.0628294,171.524226 56.664,172.08 C56.5611176,172.223259 56.4488726,172.359556 56.328,172.488 C56.248,172.576 56.208,172.624 56.2,172.616 C56.7261359,171.885541 57.131314,171.075184 57.4,170.216 C57.689335,169.199803 57.7629105,168.134321 57.616,167.088 C57.4357756,165.709385 56.8416191,164.417861 55.912,163.384 L56.2,163.296 C55.968,164.808 55.64,166.536 56.2,168.224 C56.5065397,169.071072 57.090036,169.789872 57.856,170.264 C58.6458266,170.780473 59.6607951,170.8022 60.472,170.32 C61.3045663,169.734974 61.9204928,168.891239 62.224,167.92 C62.6010188,166.922382 62.764541,165.856763 62.704,164.792 C62.6495353,163.69239 62.3517082,162.618573 61.832,161.648 C61.7890111,161.553243 61.7230091,161.470741 61.64,161.408 C61.592,161.408 61.544,161.408 61.44,161.408 C61.2186225,161.53908 61.0189154,161.703704 60.848,161.896 C60.4851841,162.308545 60.2272233,162.802512 60.096,163.336 C59.7082794,164.785144 60.224936,166.325663 61.408,167.248 C62.6001123,168.055746 64.1120336,168.229049 65.456,167.712 C66.7231039,167.213229 67.694571,166.165222 68.096,164.864 C68.4903519,163.656017 68.4621406,162.34983 68.016,161.16 L68.312,161.264 L57.712,167.712 L54.728,169.496 C54.408,169.68 54.144,169.824 53.928,169.952 C53.8428999,170.027249 53.7488592,170.091734 53.648,170.144 Z" id="Path" fill="#E0E0E0"></path>
                        <path d="M100.64,147.328 C100.629955,147.616461 100.578772,147.902009 100.488,148.176 C100.399763,148.514259 100.262294,148.837715 100.08,149.136 C99.819915,149.553396 99.4156947,149.860831 98.944,150 C98.6557489,150.095784 98.3442511,150.095784 98.056,150 C97.7565038,149.874143 97.4966514,149.669579 97.304,149.408 C96.9342484,148.855126 96.5976559,148.280781 96.296,147.688 L94.04,143.576 L94.456,143.488 C94.384,145.56 94.304,147.824 94.224,150.192 C94.224,150.76 94.176,151.32 94.16,151.872 L94.16,152.808 L93.752,151.96 C92.512,149.424 91.352,147.048 90.352,144.976 L90.728,144.976 C90.1628242,147.032675 89.8723023,149.155099 89.864,151.288 C89.864,152.832 89.976,153.688 89.92,153.688 C89.8427416,153.488621 89.7994746,153.277694 89.792,153.064 C89.6927672,152.446802 89.628664,151.824467 89.6,151.2 C89.5243428,149.043862 89.7614725,146.888137 90.304,144.8 L90.44,144.28 L90.68,144.768 L94.144,151.728 L93.696,151.816 C93.696,151.272 93.696,150.712 93.76,150.144 C93.856,147.744 93.944,145.512 94.024,143.432 L94.024,142.632 L94.408,143.352 L96.592,147.488 C96.877631,148.071607 97.1927031,148.640339 97.536,149.192 C97.8087071,149.639478 98.3374114,149.861921 98.848,149.744 C99.5775448,149.491245 100.132773,148.890999 100.328,148.144 C100.410406,147.864227 100.514728,147.591383 100.64,147.328 L100.64,147.328 Z" id="Path" fill="#E0E0E0"></path>
                        <path d="M100.536,143.936 C100.616,144.048 96.88,146.712 92.2,149.896 C87.52,153.08 83.664,155.568 83.592,155.496 C83.52,155.424 87.256,152.72 91.936,149.536 C96.616,146.352 100.464,143.832 100.536,143.936 Z" id="Path" fill="#E0E0E0"></path>
                        <path d="M105.128,144.728 C105.216,144.832 102.472,147.32 99.016,150.328 C96.9822639,152.185419 94.8455483,153.926842 92.616,155.544 C92.528,155.44 95.264,152.952 98.728,149.944 C100.764206,148.089446 102.900759,146.348156 105.128,144.728 L105.128,144.728 Z" id="Path" fill="#E0E0E0"></path>
                        <path d="M185.744,28.08 C185.856,24.144 182.208,21.096 178.544,19.648 C174.88,18.2 170.8,17.664 167.528,15.464 C164.632,13.512 162.68,10.472 160.232,7.984 C154.070098,1.75710905 145.03165,-0.667612997 136.580469,1.63906228 C128.129288,3.94573756 121.575989,10.6260892 119.432,19.12 C118.016,24.72 118.984,31.376 123.432,35.12 C128.568,39.448 136.184,38.488 142.76,37.144 C149.336,35.8 156.792,34.464 162.288,38.328 C165.6,40.664 167.504,44.456 169.528,47.928 C171.552,51.4 174.096,55.024 177.928,56.344 C181.76,57.664 186.96,55.384 187.104,51.336" id="Path" fill="#263238"></path>
                        <path d="M185.472,30.248 C185.04,33.552 187.432,36.512 189.816,38.84 C192.2,41.168 194.88,43.64 195.304,46.952 C195.792,50.816 192.976,54.616 193.792,58.424 C194.312,60.824 196.192,62.704 197.328,64.896 C198.848258,68.0580026 199.100168,71.6820752 198.032,75.024 C197.048,78.352 195.488,85.784 193.176,88.368 C186.776,95.52 176.592,101.688 167.24,103.84 C157.888,105.992 148.176,106 138.6,105.44 C130.76,104.96 121.744,105.32 115.216,94.536 C111.832,88.936 110.152,81.52 108.36,75.248 C106.808,69.84 105.472,64.048 107.08,58.664 C108.016,55.52 109.904,52.736 110.832,49.592 C111.984,45.664 111.568,41.464 112.032,37.4 C113.060876,28.42897 118.353005,20.504747 126.24538,16.1174495 C134.137755,11.7301521 143.661552,11.4183409 151.824,15.28" id="Path" fill="#263238"></path>
                        <path d="M115.784,43.792 C116.512,32.544 124,18.76 135.2,20 L170.184,28.928 C173.590605,29.2930132 176.14971,32.2067772 176.072,35.632 L172.152,120 L172.392,120.048 C172.392,120.048 164.392,143.856 141.28,136.584 C136.696,135.144 134.6,130.128 133.688,124.96 L133.456,124.96 C133.456,124.344 133.456,123.776 133.456,123.192 C133.000545,119.343812 132.952278,115.458315 133.312,111.6 L133.312,111.6 C133.248,104.784 133.256,102 133.256,102.056 C133.256,102.112 118.856,99.656 115.944,80.872 C114.464,71.584 114.968,56.296 115.784,43.792 Z" id="Path" fill="#FFBE9D"></path>
                        <path d="M121.415999,55.096 C121.415131,56.3878642 122.437004,57.4486319 123.728,57.496 C124.346483,57.5488687 124.96002,57.3490591 125.428757,56.9421167 C125.897495,56.5351743 126.181487,55.9557787 126.216001,55.336 C126.216869,54.0441358 125.194996,52.9833681 123.904,52.936 C123.285517,52.8831313 122.67198,53.0829409 122.203243,53.4898833 C121.734505,53.8968257 121.450513,54.4762213 121.415999,55.096 L121.415999,55.096 Z" id="Path" fill="#263238"></path>
                        <path d="M119.08,51.76 C119.376,52.072 121.2,50.728 123.792,50.736 C126.384,50.744 128.272,52.048 128.552,51.736 C128.696,51.592 128.392,51.032 127.568,50.424 C126.447494,49.6473901 125.115313,49.234051 123.752,49.24 C122.406275,49.2355842 121.0934,49.6554804 120,50.44 C119.2,51.048 118.936,51.616 119.08,51.76 Z" id="Path" fill="#263238"></path>
                        <path d="M146.855999,55.096 C146.855131,56.3878642 147.877004,57.4486319 149.168,57.496 C149.786483,57.5488687 150.40002,57.3490591 150.868757,56.9421167 C151.337495,56.5351743 151.621487,55.9557787 151.656001,55.336 C151.656869,54.0441358 150.634996,52.9833681 149.344,52.936 C148.725517,52.8831313 148.11198,53.0829409 147.643243,53.4898833 C147.174505,53.8968257 146.890513,54.4762213 146.855999,55.096 L146.855999,55.096 Z" id="Path" fill="#263238"></path>
                        <path d="M144.52,52.296 C144.816,52.608 146.648,51.264 149.232,51.28 C151.816,51.296 153.712,52.592 154.032,52.272 C154.168,52.136 153.864,51.568 153.04,50.96 C151.919494,50.1833901 150.587313,49.770051 149.224,49.776 C147.877392,49.7739142 146.564435,50.1966359 145.472,50.984 C144.648,51.592 144.376,52.16 144.52,52.296 Z" id="Path" fill="#263238"></path>
                        <path d="M135.088,71.472 C135.088,71.32 133.488,71.04 130.88,70.672 C130.224,70.6 129.6,70.472 129.488,70.016 C129.429283,69.3329417 129.582952,68.6484171 129.928,68.056 C130.56,66.456 131.208,64.784 131.896,63.032 C134.624,55.832 136.608,49.984 136.32,49.88 C136.032,49.776 133.576,55.48 130.848,62.68 C130.192,64.44 129.56,66.128 128.968,67.736 C128.546946,68.5309013 128.422185,69.449598 128.616,70.328 C128.808696,70.8020947 129.210707,71.1597659 129.704,71.296 C130.069721,71.3932984 130.445665,71.4470047 130.824,71.456 C133.448,71.6 135.072,71.616 135.088,71.472 Z" id="Path" fill="#263238"></path>
                        <path d="M133.232,102.096 C142.075465,102.256489 150.789365,99.9547567 158.4,95.448 C158.4,95.448 152.056,108.416 133.288,106.648 L133.232,102.096 Z" id="Path" fill="#EB996E"></path>
                        <path d="M136.168,77.712 C137.169633,76.4520053 138.754421,75.8035453 140.352,76 C141.508801,76.1077157 142.570445,76.6862686 143.288,77.6 C143.991612,78.4840495 144.071374,79.71238 143.488,80.68 C142.635413,81.6325121 141.288036,81.9685637 140.088,81.528 C138.871135,81.0840579 137.753803,80.4044159 136.8,79.528 C136.508712,79.3075897 136.259414,79.0366144 136.064,78.728 C135.868462,78.4349575 135.868462,78.0530425 136.064,77.76" id="Path" fill="#EB996E"></path>
                        <path d="M142.696,73.28 C142.28,73.28 142.264,76.064 139.856,78.08 C137.448,80.096 134.456,79.76 134.432,80.152 C134.432,80.328 135.104,80.696 136.368,80.736 C138.015813,80.7500304 139.615985,80.1835977 140.888,79.136 C142.112772,78.1376963 142.903965,76.7043744 143.096,75.136 C143.2,73.96 142.888,73.264 142.696,73.28 Z" id="Path" fill="#263238"></path>
                        <path d="M143.368,47.76 C143.616,48.464 146.208,48.136 149.24,48.512 C152.272,48.888 154.728,49.72 155.136,49.088 C155.312,48.784 154.888,48.12 153.904,47.44 C151.232898,45.7348092 147.926457,45.3513682 144.936,46.4 C143.816,46.88 143.256,47.432 143.368,47.76 Z" id="Path" fill="#263238"></path>
                        <path d="M120.048,44.272 C120.504,44.856 122.288,44.272 124.432,44.224 C126.576,44.176 128.432,44.632 128.808,44.016 C128.992,43.72 128.704,43.128 127.912,42.568 C125.735032,41.2015555 122.948696,41.2836924 120.856,42.776 C120.096,43.376 119.848,44 120.048,44.272 Z" id="Path" fill="#263238"></path>
                        <path d="M183.288,90.6 C178.035588,91.6553895 172.596146,90.119865 168.67096,86.4736905 C164.745773,82.827516 162.81406,77.5158441 163.48,72.2 C164.064,67.6 166.544,62.912 164.952,58.552 C162.84,52.784 154.76,51.016 152.616,45.264 C151.368,41.92 152.488,38.008 151.072,34.736 C149.744,31.648 146.504,29.88 143.352,28.736 C140.2,27.592 136.808,26.808 134.16,24.736 C131.512,22.664 129.864,18.792 131.568,15.936 C145.576126,17.6137093 159.334444,20.9545931 172.552,25.888 C175.616,27.032 178.832,28.408 180.64,31.128 C182.552,34.008 182.464,37.728 182.296,41.184 L179.944,91.704" id="Path" fill="#263238"></path>
                        <path d="M182.112,97.048 C182.222183,96.9958694 182.324512,96.9285474 182.416,96.848 C182.648,96.68 182.92,96.472 183.216,96.216 C183.944,95.648 185.008,94.8 186.328,93.64 C187.943918,92.2395119 189.420165,90.6855675 190.736,89 C192.530137,86.7595217 193.734764,84.1054922 194.24,81.28 C194.8,78.2 194.392,74.328 191.84,71.416 C190.481015,70.0639619 189.02077,68.8176722 187.472,67.688 C185.911152,66.500117 184.72752,64.8858204 184.064,63.04 C182.672,59.216 183.264,54.784 182.76,50.24 C182.225198,45.5217485 180.382578,41.046814 177.44,37.32 C175.923327,35.4472847 174.035814,33.9084025 171.896,32.8 C169.768,31.68 167.464,31.2 165.328,30.584 C163.231713,30.058087 161.27109,29.0927736 159.576,27.752 C157.973125,26.4157388 156.564841,24.8620487 155.392,23.136 C152.992,19.792 151.296,16.232 149.048,13.256 C147.988798,11.7942035 146.746688,10.4741251 145.352,9.328 C144.045996,8.27662336 142.56458,7.46414695 140.976,6.928 C137.944,5.896 134.752,6.24 132.64,7.728 C130.894205,9.08139328 129.818051,11.1228788 129.688,13.328 C129.572098,14.711288 129.974089,16.088322 130.816,17.192 C131.032043,17.4708207 131.288149,17.7161434 131.576,17.92 C131.768,18.064 131.864,18.128 131.88,18.12 C131.809114,18.0216322 131.72575,17.9328896 131.632,17.856 C131.369199,17.6200482 131.137955,17.3511597 130.944,17.056 C130.193576,15.9634315 129.861338,14.6373203 130.008,13.32 C130.183558,11.2322587 131.23961,9.31798151 132.912,8.056 C134.888,6.68 137.912,6.376 140.784,7.4 C142.299182,7.92539653 143.710046,8.71342192 144.952,9.728 C146.293348,10.8529306 147.486842,12.1431941 148.504,13.568 C150.672,16.488 152.384,20.048 154.768,23.48 C155.975969,25.2720781 157.42719,26.8875378 159.08,28.28 C160.851418,29.6976245 162.905253,30.7204507 165.104,31.28 C167.28,31.928 169.52,32.392 171.504,33.456 C173.556363,34.5415028 175.360027,36.0427402 176.8,37.864 C179.653749,41.4814519 181.443311,45.8223868 181.968,50.4 C182.52,54.776 181.888,59.272 183.368,63.336 C184.086205,65.3033067 185.355374,67.0223776 187.024,68.288 C188.552678,69.3861685 189.996738,70.5975741 191.344,71.912 C193.744,74.592 194.208,78.248 193.696,81.224 C193.233596,83.9712017 192.10158,86.5621984 190.4,88.768 C189.123541,90.4516366 187.699213,92.0178629 186.144,93.448 C184.864,94.632 183.832,95.52 183.144,96.128 C182.778685,96.409886 182.43382,96.7173238 182.112,97.048 Z" id="Path" fill="#455A64"></path>
                        <path d="M185.536,99.368 C189.392,95.648 195.984,98.888 199.216,103.16 C202.448,107.432 204.744,112.952 209.616,115.096 C214.488,117.24 220.92,115.4 225.04,118.824 C230.72,123.544 227.528,134.488 233.68,138.592 C236.12,140.192 239.336,140.192 241.944,141.512 C248.088,144.712 248.016,153.344 247.064,160.2 C245.736,169.8 244.272,179.768 238.968,187.896 C233.664,196.024 223.344,201.736 214.168,198.6 C205.368,195.584 200.816,186.064 197.224,177.464 C192.28,165.554667 187.338667,153.648 182.4,141.744 C179.528,134.856 176.624,127.864 175.688,120.456 C174.752,113.048 176.016,105.056 180.72,99.264" id="Path" fill="#263238"></path>
                        <path d="M188,91.2 C190.808,90.864 192.944,94.296 192.208,97.016 C191.472,99.736 188.856,101.56 186.184,102.488 C184.709834,103.076383 183.106192,103.264072 181.536,103.032 C179.949315,102.765926 178.615633,101.692918 178.016,100.2 C177.413437,98.8696571 177.990626,97.3019842 179.312,96.68 C181.152,95.528 182.232,94.624 183.688,93.816 C185.912,92.592 185.776,92.424 188,91.2" id="Path" fill="#00A0FF"></path>
                        <polygon id="Path" fill="#00A0FF" points="123.552 121.336 134.432 113.096 175.432 110.472 177.08 115.968 163.744 199.192 174.264 298.48 117.072 298.48"></polygon>
                        <g id="Group" opacity="0.3" transform="translate(119.200000, 257.600000)" fill="#000000">
                            <path d="M48.248,5.656 C46.944,4.256 44.8,2.336 42.888,2.296 C29.192,1.992 15.2,0.624 1.504,0.32 L0.408,40.896 C3.688,35.12 6.808,29.112 7.648,22.496 C8.024,19.616 8.512,16.184 11.136,14.952 C12.624,14.256 14.336,14.528 15.936,14.84 C20.888,15.824 25.8,17.096 30.832,17.416 C35.864,17.736 41.128,16.992 45.36,14.216 C46.8606829,13.3334374 48.0682427,12.0284937 48.832,10.464 C49.5670599,8.88061235 49.3407432,7.01737495 48.248,5.656 Z" id="Path"></path>
                        </g>
                        <path d="M132.416,123.016 L131.152,111.12 C131.044944,110.114963 131.345279,109.108958 131.985798,108.327104 C132.626317,107.545249 133.553548,107.052817 134.56,106.96 L172.304,103.552 C172.793256,103.507693 173.279131,103.667097 173.647053,103.992624 C174.014975,104.318152 174.232379,104.78099 174.248,105.272 L174.672,119.432 L163.744,137.976 L152.544,141.552 L138.776,141.552 L130.872,133.112 L132.416,123.016 Z" id="Path" fill="#00A0FF"></path>
                        <path d="M169.104,114.888 C168.597771,114.862708 168.093134,114.811978 167.592,114.736 C166.225398,114.603228 164.850412,114.579152 163.48,114.664 C161.44711,114.797689 159.427691,115.089234 157.44,115.536 C155.184,116.008 152.736,116.672 150.136,117.304 C147.697878,117.941702 145.2126,118.383113 142.704,118.624 C140.641729,118.822828 138.560813,118.682299 136.544,118.208 C135.182896,117.887357 133.883178,117.346934 132.696,116.608 C132.379765,116.406865 132.07527,116.187842 131.784,115.952 C131.584,115.776 131.488,115.688 131.496,115.672 C131.504,115.656 131.952,115.976 132.792,116.472 C133.99522,117.128074 135.285397,117.610207 136.624,117.904 C138.612243,118.316751 140.65239,118.419298 142.672,118.208 C145.15205,117.939112 147.609219,117.489923 150.024,116.864 C152.616,116.232 155.072,115.576 157.352,115.128 C159.364349,114.696502 161.408386,114.428958 163.464,114.328 C164.851942,114.275011 166.241815,114.349995 167.616,114.552 C168.104,114.632 168.472,114.704 168.728,114.768 C168.858502,114.789504 168.985169,114.82993 169.104,114.888 Z" id="Path" fill="#263238"></path>
                        <g id="Group" opacity="0.3" transform="translate(132.000000, 114.400000)" fill="#000000">
                            <path d="M1.32,2.4 C0.312,5.176 0.28,8.616 2.328,10.744 C4,12.48 6.688,12.92 9.048,12.448 C11.3854696,11.8409144 13.6034187,10.8428374 15.608,9.496 C20.808,6.408 26.088,3.208 31.984,1.896 C32.3728505,1.84636245 32.7407567,1.69145456 33.048,1.448 C33.1885056,1.31641025 33.2682354,1.13250372 33.2682354,0.94 C33.2682354,0.747496278 33.1885056,0.56358975 33.048,0.432 C32.9015786,0.340240948 32.7327803,0.290431591 32.56,0.288 C27.344,-0.232 22.16,1.24 17.04,2.392 C11.92,3.544 6.456,4.352 1.52,2.576" id="Path"></path>
                        </g>
                        <path d="M140.528,106.576 C139.999534,106.872176 139.556024,107.299158 139.24,107.816 C138.64,108.768 138.672,110.392 138.72,112.152 C138.816,115.672 139.4,118.488 139.264,118.512 C139.000849,117.936639 138.828147,117.324084 138.752,116.696 C138.460849,115.200234 138.292289,113.683196 138.248,112.16 C138.217469,111.319627 138.236168,110.478187 138.304,109.64 C138.355531,108.930827 138.577854,108.244646 138.952,107.64 C139.213752,107.232033 139.581549,106.902951 140.016,106.688 C140.328,106.552 140.528,106.552 140.528,106.576 Z" id="Path" fill="#263238"></path>
                        <path d="M150.504,116.92 C150.352,116.92 150.696,114.312 150.232,111.16 C149.768,108.008 148.752,105.608 148.888,105.56 C149.242681,106.021123 149.513474,106.541047 149.688,107.096 C150.182232,108.385993 150.528448,109.727915 150.72,111.096 C150.921419,112.467931 150.961693,113.858712 150.84,115.24 C150.827116,115.815341 150.713392,116.38396 150.504,116.92 Z" id="Path" fill="#263238"></path>
                        <path d="M162.656,104.56 C162.997018,104.967388 163.242978,105.445643 163.376,105.96 C163.785365,107.171574 163.95121,108.452114 163.864,109.728 C163.785107,111.00808 163.450521,112.259377 162.88,113.408 C162.677894,113.901361 162.369191,114.343927 161.976,114.704 C161.84,114.632 163.232,112.608 163.4,109.696 C163.568,106.784 162.512,104.6 162.656,104.56 Z" id="Path" fill="#263238"></path>
                        <path d="M109.736,126.688 C109.736,126.688 96.864,135.312 93.488,150.872 C90.832,163.112 83.544,227.736 83.544,227.736 L70.8,252.536 L79.128,272.328 L79.128,272.328 C86.258909,272.834838 93.3403314,270.812384 99.128,266.616 L104.728,262.552 L115,247.312 L109.736,126.688 Z" id="Path" fill="#EBEBEB"></path>
                        <polygon id="Path" fill="#EBEBEB" points="131.552 115.28 109.736 126.688 104.584 143.608 100 192.648 108.632 250.136 93.488 298.304 119.608 298.496 120.232 270.256 122.84 178.864 125.4 120.648"></polygon>
                        <path d="M120.984,191.464 C120.829477,191.248975 120.693011,191.021532 120.576,190.784 L119.496,188.784 C119.04,187.904 118.608,186.776 118.04,185.488 C117.768,184.84 117.552,184.12 117.24,183.368 C116.928,182.616 116.688,181.824 116.44,180.968 C114.384,174.2 113.024,164.416 113.312,153.632 C113.312,152.832 113.368,151.968 113.432,151.144 L113.432,151 L113.56,150.944 L117.384,149.344 L117.328,149.736 L113.6,146.672 L113.52,146.608 L113.52,146.512 C113.336,142.448 114.32,138.792 115.256,135.608 C116.192,132.424 117.264,129.664 118.184,127.408 C119.104,125.152 119.912,123.408 120.488,122.176 C120.776,121.578667 121,121.122667 121.16,120.808 C121.229754,120.646143 121.318367,120.493085 121.424,120.352 C121.372195,120.519205 121.308018,120.682322 121.232,120.84 C121.08,121.192 120.872,121.64 120.624,122.24 C120.096,123.456 119.336,125.24 118.448,127.512 C117.56,129.784 116.552,132.528 115.624,135.712 C114.696,138.896 113.776,142.536 113.968,146.48 L113.88,146.32 L117.704,149.376 L118.008,149.616 L117.648,149.768 L113.832,151.368 L113.976,151.168 C113.92,151.968 113.888,152.808 113.864,153.632 C113.576,164.376 114.88,174.112 116.84,180.832 C117.048,181.688 117.328,182.472 117.576,183.232 C117.824,183.992 118.04,184.704 118.296,185.352 C118.832,186.64 119.24,187.752 119.664,188.664 L120.672,190.696 C120.7977,190.942639 120.902081,191.199575 120.984,191.464 L120.984,191.464 Z" id="Path" fill="#263238"></path>
                        <path d="M103.872,225.8 C103.780312,225.571832 103.708055,225.336328 103.656,225.096 C103.528,224.584 103.36,223.896 103.144,223.04 C102.928,222.184 102.656,221.048 102.408,219.76 C102.16,218.472 101.816,217.024 101.56,215.4 C101.304,213.776 100.976,212 100.76,210.072 C100.544,208.144 100.272,206.072 100.04,203.928 C99.648,199.592 99.384,194.8 99.376,189.776 C99.368,184.752 99.68,179.952 100.088,175.616 C100.328,173.448 100.536,171.392 100.832,169.472 C101.128,167.552 101.4,165.776 101.688,164.152 C101.976,162.528 102.288,161.072 102.552,159.792 C102.816,158.512 103.072,157.392 103.296,156.52 C103.52,155.648 103.688,154.976 103.824,154.464 C103.871608,154.223454 103.941235,153.987795 104.032,153.76 C104.013393,154.005712 103.973238,154.249315 103.912,154.488 C103.808,155 103.656,155.696 103.48,156.56 C103.304,157.424 103.04,158.56 102.808,159.84 C102.576,161.12 102.264,162.584 102.008,164.208 C101.752,165.832 101.448,167.608 101.208,169.528 C100.968,171.448 100.736,173.528 100.504,175.656 C100.12,179.984 99.856,184.76 99.832,189.776 C99.808,194.792 100.088,199.56 100.456,203.888 C100.672,206.048 100.856,208.112 101.128,210.024 C101.4,211.936 101.64,213.72 101.928,215.344 C102.216,216.968 102.472,218.424 102.728,219.712 C102.984,221 103.184,222.112 103.384,223 C103.584,223.888 103.704,224.552 103.816,225.072 C103.928,225.592 103.88,225.8 103.872,225.8 Z" id="Path" fill="#263238"></path>
                        <path d="M109.768,269.944 C109.513174,270.720137 109.158178,271.459712 108.712,272.144 C106.747189,275.5539 104.236549,278.618556 101.28,281.216 C100.689781,281.778638 100.037606,282.272466 99.336,282.688 C99.8654854,282.072434 100.440434,281.497485 101.056,280.968 C102.450326,279.616849 103.767096,278.1879 105,276.688 C106.226727,275.178417 107.369775,273.60272 108.424,271.968 C108.822564,271.261781 109.271739,270.585345 109.768,269.944 Z" id="Path" fill="#263238"></path>
                        <path d="M210.016,125.296 C219.333764,128.899998 226.246892,136.90483 228.456,146.648 C235.592,178.112 247.808,219.952 247.992,233.456 C248.24,250.648 240.72,262.416 230.904,264.592 C223.144,266.304 152.792,262.456 152.792,262.456 L149.504,236.24 L206.472,227.856 L198.672,184.264 L206.4,123.888 L210.016,125.296 Z" id="Path" fill="#EBEBEB"></path>
                        <path d="M206.4,123.888 L190.648,117.488 L174.04,107.752 L173.936,110.6 L173.936,110.6 C175.969057,114.08241 176.671072,118.183658 175.912,122.144 L162.096,194.24 L165.232,246.912 L171.632,298.528 L221.6,298.528 L198.656,244.544 L206.752,171.808 L206.4,123.888 Z" id="Path" fill="#EBEBEB"></path>
                        <path d="M220.984,265.032 L220.648,265.08 L219.64,265.176 C218.752,265.272 217.44,265.264 215.744,265.304 C212.352,265.304 207.432,265.232 201.344,265.032 C189.096,264.624 172.048,263.8 152.808,262.688 L152.616,262.688 L152.616,262.488 C152.224,259.368 151.816,256.088 151.392,252.728 C150.68,247.072 149.992,241.528 149.328,236.28 L149.328,236.056 L149.544,236.056 L193.048,229.728 L205.848,227.92 L209.28,227.448 L210.176,227.344 C210.277046,227.333213 210.378954,227.333213 210.48,227.344 L210.176,227.408 L209.296,227.56 L205.872,228.096 L193.12,230.048 L149.64,236.536 L149.832,236.28 C150.496,241.56 151.192,247.072 151.904,252.728 C152.32,256.072 152.704,259.368 153.128,262.488 L152.912,262.288 C172.112,263.416 189.192,264.288 201.424,264.784 C207.544,265.024 212.464,265.16 215.824,265.2 C217.512,265.2 218.832,265.2 219.712,265.152 L220.72,265.096 C220.806342,265.068329 220.894572,265.046939 220.984,265.032 L220.984,265.032 Z" id="Path" fill="#263238"></path>
                        <path d="M198.216,179.856 C198.272967,180.014019 198.313188,180.177582 198.336,180.344 C198.408,180.712 198.504,181.144 198.608,181.736 C198.848,183.024 199.168,184.768 199.552,186.888 C200.352,191.304 201.368,197.288 202.52,203.904 C203.672,210.52 204.624,216.52 205.36,220.944 C205.688,223.072 205.968,224.824 206.16,226.112 C206.24,226.682667 206.304,227.154667 206.352,227.528 C206.385057,227.691148 206.398486,227.857663 206.392,228.024 C206.328378,227.870336 206.285339,227.708939 206.264,227.544 C206.184,227.168 206.088,226.744 205.976,226.144 C205.736,224.864 205.416,223.12 205.024,221 C204.224,216.648 203.176,210.6 202.048,203.984 C200.92,197.368 199.912,191.312 199.216,186.944 C198.888,184.808 198.624,183.056 198.416,181.768 C198.336,181.2 198.28,180.736 198.224,180.36 C198.200089,180.19301 198.197401,180.023665 198.216,179.856 L198.216,179.856 Z" id="Path" fill="#263238"></path>
                        <path d="M181.28,112.8 C181.30815,112.855959 181.329631,112.91503 181.344,112.976 C181.344,113.12 181.432,113.288 181.488,113.504 C181.6,113.968 181.808,114.648 181.992,115.552 C182.553912,118.111022 182.9547,120.702781 183.192,123.312 C183.557596,127.244777 183.659157,131.197638 183.496,135.144 C183.336,139.648 182.864,144.624 182.184,149.896 L182.184,150.064 L182.016,150.064 L176.872,151.016 L177.048,150.704 C177.336,151.504 177.64,152.344 177.848,153.224 C179.52,159.336 178.784,165.52 177.256,170.696 C175.81995,175.297779 173.783756,179.690256 171.2,183.76 C169.048,187.248 167.104,189.936 165.768,191.76 C165.112,192.664 164.592,193.36 164.208,193.88 L163.792,194.424 C163.747111,194.487418 163.696209,194.546358 163.64,194.6 C163.66885,194.528925 163.706475,194.461737 163.752,194.4 L164.136,193.824 L165.624,191.656 C166.912,189.768 168.824,187.064 170.912,183.568 C173.433669,179.511619 175.423315,175.147842 176.832,170.584 C178.32,165.456 179.032,159.384 177.384,153.352 C177.152,152.488 176.856,151.656 176.584,150.88 L176.488,150.616 L176.76,150.56 L181.912,149.616 L181.72,149.816 C182.408,144.552 182.904,139.592 183.088,135.104 C183.272507,131.173085 183.205705,127.234397 182.888,123.312 C182.675541,120.710903 182.323029,118.123149 181.832,115.56 C181.672,114.656 181.496,113.96 181.408,113.496 C181.36,113.28 181.328,113.104 181.296,112.96 C181.283961,112.907551 181.278586,112.853794 181.28,112.8 L181.28,112.8 Z" id="Path" fill="#263238"></path>
                        <path d="M181.272,186.752 L181.272,175.248 C181.272,175.248 181.424,172.408 179.032,173.008 C176.64,173.608 177.096,178.088 177.096,178.088 C177.096,178.088 176.648,195.56 177.688,195.408 C178.728,195.256 179.136,193.92 179.136,193.92 L179.136,187.2 L181.272,186.752 Z" id="Path" fill="#00A0FF"></path>
                        <path d="M191.2,187.464 C189.155762,187.700585 187.096449,187.780818 185.04,187.704 C182.983551,187.780818 180.924238,187.700585 178.88,187.464 C180.924641,187.23271 182.983754,187.155159 185.04,187.232 C187.096246,187.155159 189.155359,187.23271 191.2,187.464 L191.2,187.464 Z" id="Path" fill="#263238"></path>
                        <path d="M213.976,132.112 C213.561233,132.308655 213.130309,132.469248 212.688,132.592 C211.518324,133.010431 210.377228,133.504817 209.272,134.072 C205.612692,135.945025 202.438582,138.642608 200,141.952 C199.308454,142.88311 198.700745,143.873647 198.184,144.912 C197.729871,145.891087 197.363113,146.908373 197.088,147.952 C196.620681,149.734144 196.315439,151.554888 196.176,153.392 C196.04,154.992 196.016,156.24 196,157.12 C196.028549,157.578222 196.028549,158.037778 196,158.496 C195.896903,158.044651 195.845903,157.582969 195.848,157.12 C195.780931,155.870232 195.780931,154.617768 195.848,153.368 C195.931755,151.506099 196.19973,149.657073 196.648,147.848 C196.916452,146.771286 197.283329,145.721535 197.744,144.712 C198.265629,143.644226 198.884228,142.626619 199.592,141.672 C202.06103,138.306509 205.315539,135.595791 209.072,133.776 C210.205535,133.232064 211.379761,132.777353 212.584,132.416 C213.037742,132.272368 213.50369,132.170609 213.976,132.112 L213.976,132.112 Z" id="Path" fill="#263238"></path>
                        <polygon id="Path" fill="#263238" points="11.176 227.736 93.488 258.224 162.872 268.824 80.376 228.608"></polygon>
                        <path d="M46.4,260.608 C45.746887,256.209259 44.2588435,251.975939 42.016,248.136 C41.5381855,247.409023 41.1614032,246.620471 40.896,245.792 C40.6403155,244.946683 40.8135429,244.029772 41.36,243.336 C42.416,242.192 44.352,242.704 45.648,243.568 C48.2847428,245.488861 50.2295214,248.21099 51.192,251.328 C52.1350094,254.424415 52.741184,257.613537 53,260.84" id="Path" fill="#FFBE9D"></path>
                        <path d="M78.48,252.8 L74.4,252.8 C73.4037427,251.81145 72.164952,251.102387 70.808,250.744 C69.864,250.472 68.936,250.976 68.104,251.792 C69.928,248.784 71.904,245.464 72.28,244.552 C73.016,242.784 71.4,241.456 68.744,241.456 C66.088,241.456 54.456,257.96 54.456,257.96 C54.456,257.96 61.656,244.688 62.392,242.664 C64.144,237.592 58.6,237.216 56.592,239.664 C54.088,242.664 44,257.928 44,257.928 C44,257.928 42.08,261.016 43.408,263.968 C44.736,266.92 48.568,265.736 48.568,265.736 C48.6769682,267.482737 49.702734,269.04117 51.264,269.832 C54.224,271.432 58.112,269.568 58.112,269.568 L73.168,272.952 L78.616,272.408 C86.2399902,271.647774 92.3717086,265.802861 93.496,258.224 L93.496,258.224 L78.48,252.8 Z" id="Path" fill="#FFBE9D"></path>
                        <path d="M68.336,251.536 C68.504,251.64 66.504,254.792 63.904,258.568 C62.6,260.456 61.4,262.152 60.504,263.368 C60.0564162,264.047662 59.5476321,264.684981 58.984,265.272 C59.327374,264.540112 59.7456038,263.845743 60.232,263.2 C61.032,261.936 62.216,260.216 63.512,258.328 C64.808,256.44 66.008,254.736 66.88,253.528 C67.264,252.992 67.616,252.52 67.928,252.088 C68.0444174,251.890301 68.1811588,251.705298 68.336,251.536 L68.336,251.536 Z" id="Path" fill="#EB996E"></path>
                        <path d="M67.432,268.328 C67.8086265,267.465043 68.2667005,266.639973 68.8,265.864 C69.688,264.384 70.96,262.36 72.352,260.12 C73.048,259 73.712,257.936 74.264,256.92 C74.7406723,256.067208 74.8586747,255.05987 74.592,254.12 C74.3301609,253.24081 73.8919119,252.424197 73.304,251.72 C73.304,251.72 73.56,251.84 73.896,252.208 C74.3633827,252.731758 74.710198,253.351657 74.912,254.024 C75.2528835,255.045782 75.1573779,256.162908 74.648,257.112 C74.104,258.136 73.448,259.208 72.752,260.312 C71.36,262.552 70.048,264.552 69.088,265.984 C68.5956037,266.805783 68.0420395,267.58933 67.432,268.328 L67.432,268.328 Z" id="Path" fill="#EB996E"></path>
                        <path d="M75.352,269.832 C75.5028741,269.013269 75.7723784,268.220926 76.152,267.48 L77.232,265.024 C77.681988,264.042346 78.0512105,263.025647 78.336,261.984 C78.6166273,260.982426 78.4409813,259.908058 77.856,259.048 C77.5696681,258.697469 77.2015239,258.422734 76.784,258.248 C76.435596,258.069358 76.0545857,257.96322 75.664,257.936 C75.0997467,258.018566 74.5565866,258.208672 74.064,258.496 C73.68,258.688 73.456,258.784 73.44,258.752 C73.424,258.72 73.616,258.584 73.968,258.344 C74.1869993,258.195611 74.4140102,258.059405 74.648,257.936 C74.9636178,257.750607 75.3157314,257.635965 75.68,257.6 C76.1243594,257.608181 76.5624747,257.706144 76.968,257.888 C77.4482513,258.066 77.8769934,258.360073 78.216,258.744 C78.9107441,259.701724 79.1315808,260.923687 78.816,262.064 C78.5147325,263.146762 78.1074285,264.197178 77.6,265.2 C77.176,266.12 76.8,266.936 76.432,267.6 C75.768,268.984 75.416,269.848 75.352,269.832 Z" id="Path" fill="#EB996E"></path>
                        <path d="M78.128,255.584 C78.128,255.584 78.368,255.584 78.768,255.776 C79.3382044,256.013545 79.8758574,256.322695 80.368,256.696 C83.7508226,259.246491 84.7696401,263.882111 82.768,267.616 C82.4830705,268.155405 82.1367745,268.660084 81.736,269.12 C81.448,269.44 81.256,269.584 81.24,269.568 C81.224,269.552 81.84,268.824 82.464,267.464 C84.2034115,263.841639 83.2343873,259.499221 80.12,256.96 C78.984,256 78.088,255.664 78.128,255.584 Z" id="Path" fill="#EB996E"></path>
                        <path d="M51.616,246.928 C50.6124731,248.826134 49.473526,250.649519 48.208,252.384 C47.0669352,254.210787 45.7970476,255.953875 44.408,257.6 C45.407312,255.699442 46.5464473,253.875756 47.816,252.144 C49.808,249.176 51.504,246.856 51.616,246.928 Z" id="Path" fill="#EB996E"></path>
                        <path d="M149.256,237.224 L139.848,235.096 L130.808,226.584 C129.718979,225.554954 128.303435,224.940608 126.808,224.848 L110.368,223.896 C108.727626,223.806514 107.114608,224.344187 105.856,225.4 L94.096,235.336 L145.384,260.336 L152.416,260.96 L149.256,237.224 Z" id="Path" fill="#FFBE9D"></path>
                        <path d="M121.376,232.8 C120.303169,232.725831 119.235011,232.594982 118.176,232.408 C116.256,232.192 113.44,231.928 110.728,233.208 C109.469332,233.818298 108.280974,234.56404 107.184,235.432 C106.144,236.232 105.208,236.936 104.384,237.488 C103.739146,237.935943 103.059668,238.331859 102.352,238.672 C102.100482,238.807581 101.831193,238.907218 101.552,238.968 C101.552,238.896 102.64,238.4 104.208,237.216 C105.008,236.632 105.904,235.888 106.936,235.08 C108.046053,234.174026 109.25991,233.403281 110.552,232.784 C111.873414,232.187522 113.302438,231.866332 114.752,231.84 C115.920251,231.822569 117.087682,231.910929 118.24,232.104 C119.216,232.264 120,232.448 120.536,232.576 C120.825122,232.610892 121.107894,232.686298 121.376,232.8 L121.376,232.8 Z" id="Path" fill="#EB996E"></path>
                        <path d="M124.752,241.992 C124.752,242.064 124.072,241.768 122.976,241.656 C121.539334,241.528666 120.092485,241.728326 118.744,242.24 C117.390614,242.774276 116.093592,243.441546 114.872,244.232 C114.375158,244.58944 113.838167,244.88747 113.272,245.12 C113.689177,244.668602 114.165495,244.275707 114.688,243.952 C115.883433,243.061875 117.194038,242.337947 118.584,241.8 C119.998104,241.260875 121.527348,241.095551 123.024,241.32 C123.649518,241.386315 124.246025,241.618289 124.752,241.992 Z" id="Path" fill="#EB996E"></path>
                        <path d="M145.912,243.512 C145.8,243.584 144.472,241.616 142.712,239.28 C140.952,236.944 139.464,235.104 139.568,235.016 C140.906596,236.194283 142.08947,237.538458 143.088,239.016 C144.864,241.352 146.024,243.448 145.912,243.512 Z" id="Path" fill="#EB996E"></path>
                        <path d="M120,224.872 L140.848,205.456 C141.27763,205.056735 141.509471,204.488425 141.48172,203.902571 C141.45397,203.316718 141.169446,202.772867 140.704,202.416 L140.704,202.416 C139.939601,201.83989 138.874823,201.883418 138.16,202.52 L113.72,224.44" id="Path" fill="#00A0FF"></path>
                        <g id="Group" opacity="0.3" transform="translate(113.600000, 201.600000)" fill="#000000">
                            <path d="M6.4,23.272 L27.248,3.856 C27.6776296,3.45673469 27.9094714,2.88842461 27.8817205,2.30257114 C27.8539695,1.71671766 27.5694464,1.17286697 27.104,0.816 L27.104,0.816 C26.3396013,0.239889573 25.2748232,0.283418236 24.56,0.92 L0.12,22.84" id="Path"></path>
                        </g>
                    </g>
                </g>
                <path d="M332,300.5 C332,300.64 257.673325,300.76 166.007519,300.76 C74.3417131,300.76 0,300.64 0,300.5 C0,300.36 74.3116365,300.24 166.007519,300.24 C257.703402,300.24 332,300.36 332,300.5 Z" id="Path" fill="#263238" fill-rule="nonzero"></path>
            </g>
        </g>
    </g>
</svg>