<svg width="603" height="603" viewBox="0 0 603 603" fill="none" xmlns="http://www.w3.org/2000/svg">
<circle opacity="0.0770322" cx="301.5" cy="301.5" r="301.5" fill="#E13856"/>
<path fill-rule="evenodd" clip-rule="evenodd" d="M296.19 139.538C278.485 145.027 265.589 168.226 256.983 205.999C246.613 251.51 252.718 372.869 267.023 400.125C273.136 411.772 280.15 420.022 290.453 424.51C302.553 429.781 310.993 425.81 322.965 425.466C365.458 424.246 385.217 470.521 408.552 461.325C418.068 457.577 423.311 447.196 426.243 437.421C434.851 408.731 427.986 326.115 416.203 283.457C394.522 204.972 328.853 129.414 296.19 139.538Z" fill="#F48C7D"/>
<mask id="mask0" mask-type="alpha" maskUnits="userSpaceOnUse" x="255" y="262" width="177" height="201">
<path fill-rule="evenodd" clip-rule="evenodd" d="M255.889 262.146H431.096V462.537H255.889V262.146Z" fill="white"/>
</mask>
<g mask="url(#mask0)">
<path fill-rule="evenodd" clip-rule="evenodd" d="M346.698 335.741C328.993 341.23 271.955 232.353 263.349 270.126C252.979 315.635 252.719 372.871 267.024 400.125C273.137 411.771 280.151 420.024 290.451 424.51C302.554 429.781 310.994 425.812 322.966 425.467C365.459 424.247 385.218 470.523 408.553 461.327C418.066 457.578 423.31 447.196 426.244 437.421C434.852 408.732 431.582 360.029 419.799 317.376C398.118 238.889 379.361 325.617 346.698 335.741Z" fill="#00AEFC"/>
</g>
<mask id="mask1" mask-type="alpha" maskUnits="userSpaceOnUse" x="36" y="138" width="179" height="325">
<path fill-rule="evenodd" clip-rule="evenodd" d="M36 138.623H214.309V462.535H36V138.623Z" fill="white"/>
</mask>
<g mask="url(#mask1)">
<path fill-rule="evenodd" clip-rule="evenodd" d="M169.912 139.538C187.617 145.027 200.513 168.226 209.119 205.999C219.489 251.51 213.384 372.869 199.079 400.125C192.966 411.772 185.952 420.022 175.649 424.51C163.549 429.781 155.109 425.81 143.137 425.466C100.644 424.246 80.8846 470.521 57.5494 461.325C48.0343 457.577 42.7906 447.196 39.859 437.421C31.2511 408.731 38.116 326.115 49.8991 283.457C71.5795 204.972 137.249 129.414 169.912 139.538Z" fill="#F48C7D"/>
</g>
<path fill-rule="evenodd" clip-rule="evenodd" d="M405.669 387.133C405.11 387.29 404.476 378.367 398.376 373.712C395.908 371.822 392.762 371.309 387.649 369.209C382.939 367.281 379.228 365.188 376.664 363.583C378.466 366.177 381.403 369.115 382.5 373.771C383.793 379.243 382.012 387.349 381.891 387.349C381.752 387.353 383.052 378.477 381.784 374.188C379.507 366.469 376.66 365.265 374.49 361.75C370.29 354.952 366.46 350.658 361.989 347.189C361.647 346.924 361.317 346.687 360.981 346.441C363.11 350.467 365.979 358.117 364.633 366.71C363.955 371.024 362.611 375.278 359.889 378.81C358.012 381.246 353.509 385.978 352.589 388.68C351.161 392.834 353.274 398.567 352.888 398.567C352.375 398.567 350.916 392.442 352.26 387.964C353.148 385.001 357.669 379.837 358.354 378.785C357.421 379.216 356.084 380.822 352.316 381.278C345.874 382.065 345.143 381.595 342.1 383.359C339.519 384.85 337.933 390.184 337.755 390.184C337.591 390.14 338.929 385.274 341.472 383.092C343.328 381.494 346.382 380.69 352.734 379.865C357.34 379.268 359.744 374.556 359.744 374.556C361.05 371.96 362.092 369.241 362.394 366.353C363.461 356.368 358.583 347.684 356.033 343.402C350.464 340.618 345.695 340.156 338.452 335.849C334.044 333.23 328.21 328.879 322.425 321.344C320.808 332.018 318.403 343.344 319.489 360.07C320.566 376.7 331.438 392.316 331.438 392.316C332.421 394.155 316.215 377.252 313.298 357.338C311.326 343.877 313.926 339.952 315.455 321.489C315.938 315.687 315.976 310.315 315.323 305C313.515 312.604 310.222 320.139 307.654 325.617C307.091 326.823 306.492 327.978 305.801 329.309C304.621 331.588 303.157 334.421 301.039 339.064C297.968 345.792 295.02 351.97 294.304 356.62C293.434 362.252 295.801 366.362 297.032 368.993C299.726 374.779 302.593 375.686 305.955 382.53C309.063 388.844 309.823 394.586 309.697 394.621C309.594 394.621 308.846 391.045 306.601 386.307C304.812 382.523 302.929 379.802 300.056 375.692C295.736 369.52 294.829 369.203 293.72 366.475C292.781 364.18 292.414 361.922 292.345 359.879C291.488 362.817 290.757 366.572 290.734 370.94C290.688 378.456 292.75 384.298 294.19 387.563C292.578 384.514 290.263 379.174 289.654 372.126C289.064 365.354 289.852 359.658 291.381 356.385C292.781 353.38 294.436 347.556 294.436 347.556C294.222 347.817 292.166 349.53 291.12 350.246C286.559 353.373 285.272 354.742 282.634 356.473C275.759 360.977 278.086 370.289 277.561 370.293C277.21 370.293 275.461 360.083 282.311 354.742C284.289 353.207 286.141 352.325 289.547 349.236C291.981 347.029 293.934 345.007 294.938 343.255C295.915 341.563 296.58 339.54 297.525 337.459C299.682 332.728 301.173 329.849 302.372 327.533C303.042 326.239 303.626 325.118 304.159 323.982C304.331 323.608 304.508 323.184 304.68 322.738C300.329 325.263 292.313 326.836 288.176 327.827C285.037 328.574 279.316 331.34 276.588 333.585C269.662 339.28 270.406 343.93 270.005 343.732C269.637 343.547 270.017 337.877 275.435 333.369C277.598 331.573 279.988 329.778 281.702 328.973C273.424 328.854 268.915 320.811 270.005 320.462C270.246 320.386 271.87 328.194 283.35 327.959C285.112 327.921 295.089 325.523 299.911 323.108C304.31 320.905 306.106 315.691 306.925 311.342C309.214 299.258 310.014 288.815 307.87 282.326C301.501 263.077 281.023 253.157 279.178 251.958C270.836 246.542 261.563 238.785 253.375 231.357C240.775 219.935 230.764 209.324 230.764 209.324C230.764 209.324 222.843 217.169 212.24 226.22C204.014 233.255 194.163 241.011 185.158 246.401C183.268 247.531 161.741 263.077 155.374 282.326C153.23 288.815 154.028 299.258 156.319 311.342C157.136 315.691 158.932 320.905 163.333 323.108C168.153 325.523 178.13 327.921 179.9 327.959C191.372 328.194 192.998 320.386 193.243 320.462C194.329 320.811 189.818 328.854 181.542 328.973C183.254 329.778 185.646 331.573 187.809 333.369C193.225 337.877 193.607 343.547 193.243 343.732C192.838 343.93 193.579 339.28 186.656 333.585C183.928 331.34 178.207 328.574 175.066 327.827C170.931 326.836 162.915 325.263 158.564 322.738C158.736 323.184 158.913 323.608 159.085 323.982C159.618 325.118 160.2 326.239 160.872 327.533C162.071 329.849 163.562 332.728 165.719 337.459C166.662 339.54 167.336 341.563 168.306 343.255C169.308 345.007 171.261 347.029 173.697 349.236C177.103 352.325 178.955 353.207 180.933 354.742C187.783 360.083 186.032 370.293 185.683 370.293C185.158 370.289 187.485 360.977 180.61 356.473C177.972 354.742 176.683 353.373 172.124 350.246C171.084 349.53 169.022 347.817 168.806 347.556C168.806 347.556 170.463 353.38 171.863 356.385C173.392 359.658 174.18 365.354 173.59 372.126C172.981 379.174 170.664 384.514 169.054 387.563C170.494 384.298 172.556 378.456 172.51 370.94C172.485 366.572 171.756 362.817 170.899 359.879C170.83 361.922 170.463 364.18 169.524 366.475C168.413 369.203 167.506 369.52 163.188 375.692C160.315 379.802 158.432 382.523 156.643 386.307C154.398 391.045 153.648 394.621 153.547 394.621C153.419 394.586 154.181 388.844 157.289 382.53C160.651 375.686 163.518 374.779 166.212 368.993C167.443 366.362 169.81 362.252 168.94 356.62C168.23 351.97 165.274 345.792 162.203 339.064C160.087 334.421 158.621 331.588 157.441 329.309C156.75 327.978 156.153 326.823 155.59 325.617C153.02 320.139 149.729 312.604 147.921 305C147.268 310.315 147.306 315.687 147.789 321.489C149.318 339.952 151.918 343.877 149.946 357.338C147.027 377.252 130.823 394.155 131.806 392.316C131.806 392.316 142.678 376.7 143.755 360.07C144.838 343.344 142.434 332.018 140.817 321.344C135.034 328.879 129.2 333.23 124.792 335.849C117.547 340.156 112.778 340.618 107.209 343.402C104.661 347.684 99.783 356.368 100.848 366.353C101.152 369.241 102.194 371.96 103.5 374.556C103.5 374.556 105.902 379.268 110.508 379.865C116.862 380.69 119.914 381.494 121.772 383.092C124.315 385.274 125.653 390.14 125.489 390.184C125.311 390.184 123.725 384.85 121.144 383.359C118.099 381.595 117.377 382.065 110.926 381.278C107.16 380.822 105.82 379.216 104.888 378.785C105.573 379.837 110.096 385.001 110.984 387.964C112.328 392.442 110.869 398.567 110.356 398.567C109.968 398.567 112.081 392.834 110.655 388.68C109.735 385.978 105.23 381.246 103.359 378.81C100.633 375.278 99.2874 371.024 98.6091 366.71C97.2651 358.117 100.132 350.467 102.263 346.441C101.927 346.687 101.597 346.924 101.255 347.189C96.7842 350.658 92.9517 354.952 88.7538 361.75C86.5845 365.265 83.7369 366.469 81.4605 374.188C80.1984 378.477 81.492 387.353 81.3513 387.349C81.2316 387.349 79.4487 379.243 80.7423 373.771C81.8406 369.115 84.7764 366.177 86.5782 363.583C84.0162 365.188 80.3055 367.281 75.5931 369.209C70.4817 371.309 67.3359 371.822 64.8684 373.712C58.7679 378.367 58.1316 387.29 57.5751 387.133C57.2055 387.032 59.0829 376.219 66.6702 371.517C68.6043 370.312 73.1256 369.121 77.6784 367.338C81.0216 366.032 86.9016 361.517 88.4619 359.707C90.8853 356.903 93.6552 351.666 98.1219 347.258C100.543 344.868 102.828 343.163 105.06 341.771C101.591 342.199 98.7183 341.848 96.3957 341.214C91.3599 339.832 90.2763 337.491 86.3178 337.758C79.8624 338.194 75.8913 343.333 75.0723 344.486C72.6384 347.898 72.2898 350.855 70.0512 353.163C66.96 356.34 59.5722 358.039 59.3937 357.483C59.2803 357.113 69.7635 357.17 73.6716 343.896C74.6859 340.435 79.7742 337.117 82.5756 336.895C82.5756 336.895 76.9875 335.416 72.8022 336.279C66.1557 337.651 61.374 341.798 61.2711 341.645C61.1514 341.468 67.8756 335.374 77.2479 334.591C84.9864 333.946 87.8844 337.491 96.3957 338.766C100.36 339.356 105.993 339.52 113.185 337.51C114.288 336.957 115.405 336.388 116.545 335.74C118.131 334.851 119.838 333.789 121.625 332.524C118.899 332.741 115.695 332.577 112.372 331.422C105.453 329.03 104.634 324.7 97.6893 321.781C88.8357 318.057 80.4966 321.046 80.4126 320.34C80.3433 319.719 86.7357 316.961 93.8022 318.471C100.264 319.847 102.185 323.702 107.914 326.672C111.656 328.612 117.32 330.311 125.768 329.309C130.277 325.489 135.109 320.304 139.809 313.15C139.162 305.672 139.448 297.916 142.176 288.235C145.023 278.113 151.556 268.529 164.627 249.369C165.82 247.626 167 245.933 168.174 244.278C167.976 244.196 167.8 244.093 167.588 244.024C160.536 241.632 153.427 248.527 150.92 250.948C145.72 255.992 143.362 265.568 142.898 265.442C142.499 265.329 143.234 259.467 145.162 255.65C145.796 254.394 146.493 253.321 147.18 252.422C143.337 254.598 132.058 261.628 125.153 271.505C119.05 280.232 117.618 296.994 117.022 296.85C116.419 296.698 116.799 280.701 124.036 270.629C132.56 258.758 139.523 254.262 143.337 252.605C141.623 253.1 139.586 253.569 137.272 253.6C132.923 253.657 128.139 251.424 128.456 250.941C128.786 250.448 134.481 253.214 139.2 252.504C141.027 252.231 147.224 250.918 153.902 246.542C155.215 245.687 156.25 244.9 156.922 244.36C151.878 246.09 143.234 248.006 130.886 246.223C128.895 245.933 125.712 245.318 123.904 245.818C121.018 246.611 117.961 251.103 112.328 253.012C104.26 255.746 94.6065 254.35 94.6065 253.512C94.6065 252.617 105.701 255.148 113.616 251.063C116.278 249.688 119.134 246.466 120.915 244.988C102.916 243.413 99.6381 234.879 100.652 234.028C101.35 233.451 104.35 243.472 125.006 244.278C140.305 244.868 152.119 242.831 157.258 240.75C154.423 239.786 151.233 238.329 148.062 236.046C142.841 232.273 141.617 229.068 137.018 227.056C134.469 225.947 131.361 225.408 127.53 225.884C125.426 227.197 120.649 229.765 114.174 229.748C110.268 229.736 105.041 228.346 105.104 227.984C105.243 227.178 110.844 229.162 115.182 228.656C119.477 228.154 122.767 226.747 124.758 225.714C123.794 225.878 120.453 226.317 117.282 224.286C115.747 223.303 113.914 221.699 114.256 221.262C114.668 220.741 117.32 223.595 119.888 224.204C123.794 225.135 126.306 223.69 129.966 223.45C132.682 223.266 136.657 223.717 141.724 226.804C142.226 225.592 143.912 221.229 142.524 215.242C140.995 208.677 133.081 206.718 133.2 206.077C133.347 205.283 139.372 207.86 141.218 210.092C141.808 210.802 142.207 211.525 142.493 212.184C142.182 210.855 141.985 209.091 142.308 207.073C142.684 204.752 143.755 201.657 144.242 202.03C145.074 202.671 142.974 205.691 143.152 208.412C143.387 212.127 143.849 213.822 143.956 217.077C144.034 219.555 143.184 223.457 144.242 228.148C144.801 230.63 148.36 232.879 152.138 235.206C158.131 238.892 163.955 239.541 166.918 239.652C163.98 236.437 160.068 231.426 157.174 224.54C154.473 218.104 153.997 213.207 153.478 210.601C152.812 207.245 149.836 199.676 143.595 194.204C135.922 187.469 124.802 182.986 125.006 182.293C125.539 180.524 140.147 189.296 144.801 193C144.04 191.211 143.526 189.073 143.824 186.745C144.129 184.317 145.055 183.834 145.334 181.329C145.924 176.058 140.811 172.609 141.25 172.208C141.84 171.675 144.484 174.302 145.473 176.87C145.67 177.404 145.912 178.076 145.912 178.076C145.905 176.572 146.094 174.373 147.098 171.961C147.745 170.409 148.593 167.954 149.24 168.309C150.172 168.823 145.708 181.711 145.588 188.257C145.519 191.94 145.975 193.582 146.951 194.819C151.136 200.103 154.574 203.82 156.002 207.738C156.065 207.917 156.122 208.093 156.185 208.272C158.526 204.225 161.202 197.274 162.3 188.257C164.07 173.68 158.335 168.029 158.684 167.681C159.02 167.351 160.84 169.835 161.92 172.469C162.737 174.455 163.27 176.383 163.308 177.53C163.308 176.476 163.72 174.842 164.228 173.143C164.893 170.915 166.46 168.118 167.044 168.517C167.823 169.063 164.665 172.349 164.077 178.189C163.581 183.137 163.885 186.732 163.682 189.884C165.484 188.668 168.692 186.396 170.734 183.046C174.014 177.67 172.466 170.701 173.178 170.535C173.678 170.421 174.325 174.772 173.514 178.387C172.708 181.965 170.811 184.285 169.898 185.275C170.962 184.521 172.403 183.662 174.224 183.011C177.769 181.734 182.926 182.845 182.645 183.689C182.487 184.166 175.954 180.816 168.008 187.627C166.282 189.111 164.564 190.653 163.879 192.297C162.47 195.67 161.811 197.877 160.651 201.694C159.933 204.074 157.993 207.396 157.233 211.951C156.21 218.035 159.192 224.072 164.316 230.166C167.044 233.413 170.246 235.658 173.291 237.237C175.511 234.263 195.224 216.613 207.964 201.125C212.614 195.478 216.331 190.121 217.935 185.865C223.458 171.221 215.781 122.531 223.351 112.108C225.485 109.173 235.43 109.425 237.875 112.108C245.561 120.546 237.919 171.27 243.595 185.865C245.645 191.121 250.928 197.933 257.239 204.893C270.284 219.276 287.72 234.249 289.953 237.237C292.998 235.658 296.2 233.413 298.926 230.166C304.052 224.072 307.032 218.035 306.018 211.951C305.257 207.396 303.309 204.074 302.593 201.694C301.431 197.877 300.772 195.67 299.365 192.297C298.68 190.653 296.96 189.111 295.236 187.627C287.288 180.816 280.757 184.166 280.597 183.689C280.318 182.845 285.475 181.734 289.02 183.011C290.841 183.662 292.279 184.521 293.346 185.275C292.433 184.285 290.536 181.965 289.73 178.387C288.919 174.772 289.566 170.421 290.066 170.535C290.778 170.701 289.23 177.67 292.508 183.046C294.55 186.396 297.76 188.668 299.562 189.884C299.359 186.732 299.663 183.137 299.167 178.189C298.577 172.349 295.419 169.063 296.2 168.517C296.782 168.118 298.351 170.915 299.016 173.143C299.522 174.842 299.934 176.476 299.934 177.53C299.974 176.383 300.505 174.455 301.324 172.469C302.404 169.835 304.222 167.351 304.56 167.681C304.909 168.029 299.174 173.68 300.944 188.257C302.04 197.274 304.718 204.225 307.057 208.272C307.12 208.093 307.179 207.917 307.242 207.738C308.67 203.82 312.106 200.103 316.291 194.819C317.269 193.582 317.725 191.94 317.656 188.257C317.536 181.711 313.069 168.823 314.004 168.309C314.649 167.954 315.499 170.409 316.146 171.961C317.148 174.373 317.339 176.572 317.332 178.076C317.332 178.076 317.574 177.404 317.771 176.87C318.76 174.302 321.404 171.675 321.994 172.208C322.438 172.609 317.32 176.058 317.91 181.329C318.189 183.834 319.115 184.317 319.42 186.745C319.718 189.073 319.204 191.211 318.441 193C323.097 189.296 337.705 180.524 338.238 182.293C338.44 182.986 327.322 187.469 319.647 194.204C313.405 199.676 310.432 207.245 309.766 210.601C309.245 213.207 308.771 218.104 306.068 224.54C303.176 231.426 299.264 236.437 296.326 239.652C299.289 239.541 305.11 238.892 311.104 235.206C314.884 232.879 318.441 230.63 319 228.148C320.058 223.457 319.21 219.555 319.285 217.077C319.395 213.822 319.857 212.127 320.092 208.412C320.268 205.691 318.175 202.671 319 202.03C319.489 201.657 320.56 204.752 320.934 207.073C321.259 209.091 321.062 210.855 320.751 212.184C321.037 211.525 321.436 210.802 322.026 210.092C323.872 207.86 329.897 205.283 330.042 206.077C330.163 206.718 322.246 208.677 320.72 215.242C319.33 221.229 321.016 225.592 321.518 226.804C326.585 223.717 330.562 223.266 333.278 223.45C336.938 223.69 339.448 225.135 343.356 224.204C345.924 223.595 348.576 220.741 348.988 221.262C349.33 221.699 347.497 223.303 345.962 224.286C342.791 226.317 339.448 225.878 338.484 225.714C340.477 226.747 343.767 228.154 348.062 228.656C352.398 229.162 357.999 227.178 358.14 227.984C358.203 228.346 352.976 229.736 349.07 229.748C342.593 229.765 337.818 227.197 335.712 225.884C331.881 225.408 328.773 225.947 326.224 227.056C321.625 229.068 320.403 232.273 315.182 236.046C312.011 238.329 308.821 239.786 305.986 240.75C311.123 242.831 322.939 244.868 338.238 244.278C358.894 243.472 361.894 233.451 362.592 234.028C363.606 234.879 360.328 243.413 342.327 244.988C344.11 246.466 346.963 249.688 349.626 251.063C357.543 255.148 368.635 252.617 368.635 253.512C368.635 254.35 358.984 255.746 350.916 253.012C345.283 251.103 342.226 246.611 339.34 245.818C337.532 245.318 334.349 245.933 332.358 246.223C320.008 248.006 311.364 246.09 306.322 244.36C306.994 244.9 308.027 245.687 309.34 246.542C316.02 250.918 322.217 252.231 324.042 252.504C328.761 253.214 334.456 250.448 334.788 250.941C335.103 251.424 330.321 253.657 325.97 253.6C323.656 253.569 321.621 253.1 319.907 252.605C323.719 254.262 330.682 258.758 339.208 270.629C346.443 280.701 346.831 296.698 346.222 296.85C345.626 296.994 344.194 280.232 338.091 271.505C331.184 261.628 319.907 254.598 316.064 252.422C316.749 253.321 317.446 254.394 318.082 255.65C320.008 259.467 320.745 265.329 320.346 265.442C319.882 265.568 317.521 255.992 312.322 250.948C309.817 248.527 302.706 241.632 295.654 244.024C295.444 244.093 295.268 244.196 295.07 244.278C296.244 245.933 297.424 247.626 298.615 249.369C311.688 268.529 318.221 278.113 321.068 288.235C323.796 297.916 324.08 305.672 323.433 313.15C328.133 320.304 332.967 325.489 337.476 329.309C345.924 330.311 351.588 328.612 355.33 326.672C361.057 323.702 362.978 319.847 369.442 318.471C376.506 316.961 382.901 319.719 382.831 320.34C382.747 321.046 374.406 318.057 365.553 321.781C358.608 324.7 357.791 329.03 350.872 331.422C347.547 332.577 344.345 332.741 341.617 332.524C343.406 333.789 345.111 334.851 346.697 335.74C347.839 336.388 348.956 336.957 350.059 337.51C357.251 339.52 362.884 339.356 366.848 338.766C375.358 337.491 378.258 333.946 385.994 334.591C395.368 335.374 402.091 341.468 401.977 341.645C401.87 341.798 397.088 337.651 390.442 336.279C386.254 335.416 380.666 336.895 380.666 336.895C383.47 337.117 388.558 340.435 389.572 343.896C393.478 357.17 403.964 357.113 403.848 357.483C403.672 358.039 396.282 356.34 393.193 353.163C390.954 350.855 390.606 347.898 388.17 344.486C387.353 343.333 383.382 338.194 376.924 337.758C372.968 337.491 371.884 339.832 366.848 341.214C364.526 341.848 361.653 342.199 358.184 341.771C360.416 343.163 362.699 344.868 365.122 347.258C369.587 351.666 372.359 356.903 374.788 359.707C376.342 361.517 382.22 366.032 385.564 367.338C390.118 369.121 394.64 370.312 396.574 371.517C404.159 376.219 406.036 387.032 405.669 387.133Z" fill="#E7625B"/>
<path fill-rule="evenodd" clip-rule="evenodd" d="M424.729 426.334L424.063 431.84L391.91 425.261L391.95 424.939L424.729 426.334Z" fill="#94C1DA"/>
<path fill-rule="evenodd" clip-rule="evenodd" d="M422.86 427.798L422.597 429.969L391.91 425.261L422.86 427.798Z" fill="#9D1212"/>
<path fill-rule="evenodd" clip-rule="evenodd" d="M492.62 357.054C494.264 360.441 495.431 364.043 496.122 367.76C492.208 369.931 488.065 371.346 483.772 371.953C473.247 373.434 465.04 371.445 459.351 366.033C456.72 363.534 450.815 356.907 452.64 349.292C452.822 348.519 453.085 347.761 453.415 347.022C456.308 340.592 463.873 337.171 469.843 337.106C478.264 337.007 486.355 344.095 492.62 357.054ZM531.753 315.333H526.952C525.999 320.447 525.281 329.344 522.797 334.884C517.864 345.821 511.253 354.735 507.093 359.026C505.81 360.359 503.573 362.68 500.398 365.013C499.608 361.56 498.441 358.188 496.895 354.998C495.893 352.925 493.245 347.45 488.854 342.352C483.098 335.642 476.685 332.286 469.793 332.351C462.31 332.433 452.789 336.843 449.072 345.113C448.629 346.1 448.265 347.138 448.02 348.19C445.619 358.205 452.854 366.411 456.077 369.486C462.869 375.933 472.407 378.352 484.43 376.64C488.705 376.031 492.834 374.75 496.765 372.791C496.977 375.983 496.878 379.272 496.435 382.628C495.826 387.395 494.461 392.115 492.405 396.67C487.044 408.577 477.275 418.477 465.582 423.84C451.063 430.465 437.1 428.706 430.061 427.078L428.893 426.799L427.826 431.421L428.975 431.684C436.606 433.477 451.768 435.367 467.556 428.147C476.437 424.086 484.283 417.706 490.236 409.711C492.8 406.259 494.988 402.559 496.731 398.709C498.968 393.711 500.463 388.499 501.139 383.234C501.729 378.778 501.78 374.387 501.286 370.177C505.776 367.218 508.836 364.059 510.497 362.333C514.262 358.436 520.445 350.311 525.493 340.18C526.07 339.046 526.612 337.895 527.123 336.778C529.292 331.976 530.569 322.19 531.753 315.333Z" fill="#94C1DA"/>
<path fill-rule="evenodd" clip-rule="evenodd" d="M497.701 368.5L497.554 368.582C493.279 371.081 488.705 372.677 483.969 373.353C473.001 374.915 464.383 372.792 458.381 367.07C455.569 364.407 449.252 357.284 451.243 348.963C451.457 348.109 451.753 347.254 452.114 346.431C455.256 339.476 463.396 335.756 469.826 335.675C478.822 335.576 487.373 342.945 493.902 356.446C495.71 360.196 496.977 364.19 497.668 368.336L497.701 368.5ZM530.289 315.334H528.382C527.429 320.645 526.662 329.738 524.079 335.494C519.081 346.595 512.355 355.639 508.111 360.03C506.616 361.593 503.818 364.489 499.74 367.219L499.444 367.414L499.379 367.055C498.638 363.107 497.371 359.243 495.612 355.622C494.641 353.6 492.044 348.241 487.785 343.272C482.308 336.909 476.256 333.703 469.809 333.785C462.772 333.866 453.841 337.978 450.371 345.692C449.96 346.611 449.63 347.565 449.401 348.518C447.181 357.811 454.021 365.558 457.064 368.451C463.511 374.583 472.654 376.87 484.232 375.226C488.902 374.569 493.426 373.057 497.668 370.705L497.98 370.524L498.031 370.885C498.442 374.716 498.375 378.729 497.848 382.807C497.208 387.708 495.826 392.576 493.705 397.263C488.211 409.483 478.163 419.63 466.176 425.122C451.44 431.865 437.246 430.17 429.961 428.509L429.535 430.351C437.051 432.077 451.72 433.837 466.963 426.848C475.632 422.883 483.278 416.667 489.1 408.857C491.601 405.485 493.738 401.883 495.431 398.118C497.619 393.25 499.066 388.185 499.74 383.055C500.332 378.449 500.349 373.928 499.791 369.619L499.757 369.47L499.889 369.388C504.591 366.395 507.764 363.107 509.476 361.347C513.159 357.531 519.245 349.522 524.226 339.541C524.787 338.438 525.312 337.304 525.822 336.185C527.912 331.531 529.121 321.945 530.289 315.334Z" fill="#00AEFC"/>
<path fill-rule="evenodd" clip-rule="evenodd" d="M437.782 425.833L436.527 436.196L408.527 432.805L409.781 422.443L437.782 425.833Z" fill="#D7D8DD"/>
<path fill-rule="evenodd" clip-rule="evenodd" d="M437.782 425.833L436.527 436.196L408.527 432.805L409.781 422.443L437.782 425.833Z" fill="#D7D8DD"/>
<path fill-rule="evenodd" clip-rule="evenodd" d="M436.873 433.347L436.527 436.195L408.527 432.806L408.872 429.958L436.873 433.347Z" fill="#C8CBD3"/>
<path fill-rule="evenodd" clip-rule="evenodd" d="M437.58 427.16L437.443 428.288L409.41 425.159L409.578 423.771L437.58 427.16Z" fill="#E1E3E7"/>
<path fill-rule="evenodd" clip-rule="evenodd" d="M500.067 300.953L511.066 300.694L511.272 309.491L514.416 309.418L514.615 317.902L497.33 318.311L497.131 309.825L500.275 309.75L500.067 300.953Z" fill="#94C1DA"/>
<path fill-rule="evenodd" clip-rule="evenodd" d="M501.668 302.173L509.524 301.986L509.73 310.787L512.874 310.712L513.015 316.684L498.871 317.016L498.732 311.046L501.874 310.97L501.668 302.173Z" fill="#A7CFE4"/>
<path fill-rule="evenodd" clip-rule="evenodd" d="M501.427 316.204L500.713 316.221L500.618 312.151L501.332 312.137L501.427 316.204Z" fill="#DDEBF6"/>
<path fill-rule="evenodd" clip-rule="evenodd" d="M503.425 316.158L502.711 316.174L502.616 312.105L503.33 312.09L503.425 316.158Z" fill="#DDEBF6"/>
<path fill-rule="evenodd" clip-rule="evenodd" d="M505.423 316.111L504.709 316.127L504.614 312.058L505.328 312.043L505.423 316.111Z" fill="#DDEBF6"/>
<path fill-rule="evenodd" clip-rule="evenodd" d="M507.423 316.063L506.709 316.08L506.614 312.01L507.328 311.995L507.423 316.063Z" fill="#DDEBF6"/>
<path fill-rule="evenodd" clip-rule="evenodd" d="M509.421 316.016L508.707 316.033L508.613 311.963L509.327 311.948L509.421 316.016Z" fill="#DDEBF6"/>
<path fill-rule="evenodd" clip-rule="evenodd" d="M511.419 315.969L510.705 315.986L510.611 311.916L511.325 311.901L511.419 315.969Z" fill="#DDEBF6"/>
<path fill-rule="evenodd" clip-rule="evenodd" d="M478.29 203.754L479.953 274.557C480.341 291.04 494.369 304.23 511.14 303.835L547.455 302.983C564.224 302.586 577.445 288.76 577.057 272.275L575.364 200.205C574.551 165.634 552.709 164.009 525.951 164.587C501.234 165.12 477.403 166.044 478.29 203.754Z" fill="#C0DBF0"/>
<path fill-rule="evenodd" clip-rule="evenodd" d="M526.05 164.584C542.062 164.24 556.357 164.685 565.431 172.503C556.372 166.93 543.488 166.615 529.246 166.919C504.529 167.453 478 168.261 478.886 205.971L478.262 203.753C477.376 166.044 501.331 165.117 526.05 164.584Z" fill="#CCE6F8"/>
<path fill-rule="evenodd" clip-rule="evenodd" d="M529.226 292.731C500.648 293.403 489.186 285.081 488.741 269.27L487.264 206.406C487.023 196.19 496.588 187.651 508.581 187.368L544.897 186.515C556.894 186.234 566.848 194.314 567.087 204.529L568.511 265.042C568.799 281.496 558.887 292.034 529.226 292.731Z" fill="#00AEFC"/>
<path fill-rule="evenodd" clip-rule="evenodd" d="M547.205 299.843L558.203 299.585L558.411 308.384L561.555 308.31L561.752 316.794L544.469 317.202L544.27 308.718L547.413 308.642L547.205 299.843Z" fill="#94C1DA"/>
<path fill-rule="evenodd" clip-rule="evenodd" d="M548.807 301.064L556.663 300.879L556.869 309.68L560.012 309.604L560.153 315.575L546.012 315.907L545.871 309.938L549.015 309.863L548.807 301.064Z" fill="#A7CFE4"/>
<path fill-rule="evenodd" clip-rule="evenodd" d="M536.355 315.67L522.8 315.987L522.482 302.433L536.036 302.116L536.355 315.67Z" fill="#94C1DA"/>
<path fill-rule="evenodd" clip-rule="evenodd" d="M534.653 314.289L524.283 314.53L523.979 301.647L534.348 301.403L534.653 314.289Z" fill="#A7CFE4"/>
<path fill-rule="evenodd" clip-rule="evenodd" d="M528.072 244.08C499.128 246.218 489.266 245.701 488.208 246.554L487.338 206.457C487.099 196.242 496.593 187.89 508.588 187.607L544.904 186.754C556.901 186.473 566.752 194.369 566.991 204.583L568.033 244.704C568.014 243.91 550.061 242.457 528.072 244.08Z" fill="#CCE6F8"/>
<path opacity="0.506022" fill-rule="evenodd" clip-rule="evenodd" d="M529.315 292.729C500.736 293.401 489.36 285.076 488.989 269.263L487.809 219.057C489.426 234.372 491.429 246.21 493.321 253.551C494.3 257.352 495.906 262.936 500.564 268.249C506.784 275.341 514.634 277.991 517.452 278.791C548.102 287.506 565.735 270.427 568.388 262.89L568.438 265.045C568.824 281.494 558.973 292.034 529.315 292.729Z" fill="white"/>
<path fill-rule="evenodd" clip-rule="evenodd" d="M483.236 269.57C483.654 272.344 484.664 278.61 488.744 285.152C490.267 287.592 493.085 291.998 498.4 294.921C502.018 296.914 505.324 297.412 509.322 297.806C521.865 299.052 531.889 298.382 543.317 297.865C558.032 297.2 557.055 297.607 558.443 297.225C562.402 296.135 568.538 293.375 574.783 284.833C570.178 295.238 559.703 302.693 547.454 302.983L511.139 303.836C494.368 304.23 480.313 291.078 479.926 274.595L478.244 202.765C479.347 211.27 481.594 258.696 483.236 269.57Z" fill="#A7CFE4"/>
<path fill-rule="evenodd" clip-rule="evenodd" d="M558.429 314.864L557.715 314.882L557.62 310.813L558.334 310.796L558.429 314.864Z" fill="#DDEBF6"/>
<path fill-rule="evenodd" clip-rule="evenodd" d="M556.429 314.91L555.715 314.929L555.62 310.857L556.334 310.843L556.429 314.91Z" fill="#DDEBF6"/>
<path fill-rule="evenodd" clip-rule="evenodd" d="M554.431 314.957L553.717 314.974L553.622 310.904L554.336 310.89L554.431 314.957Z" fill="#DDEBF6"/>
<path fill-rule="evenodd" clip-rule="evenodd" d="M552.433 315.005L551.719 315.022L551.624 310.952L552.338 310.938L552.433 315.005Z" fill="#DDEBF6"/>
<path fill-rule="evenodd" clip-rule="evenodd" d="M550.435 315.052L549.721 315.069L549.626 310.999L550.34 310.984L550.435 315.052Z" fill="#DDEBF6"/>
<path fill-rule="evenodd" clip-rule="evenodd" d="M548.435 315.099L547.721 315.116L547.626 311.046L548.34 311.031L548.435 315.099Z" fill="#DDEBF6"/>
<path fill-rule="evenodd" clip-rule="evenodd" d="M496.293 269.784H523.981V267.335H496.293V269.784Z" fill="black"/>
<path fill-rule="evenodd" clip-rule="evenodd" d="M496.293 264.534H510.466V262.085H496.293V264.534Z" fill="black"/>
<path fill-rule="evenodd" clip-rule="evenodd" d="M496.293 259.284H523.981V256.835H496.293V259.284Z" fill="black"/>
<path fill-rule="evenodd" clip-rule="evenodd" d="M496.293 254.034H510.466V251.585H496.293V254.034Z" fill="black"/>
<path fill-rule="evenodd" clip-rule="evenodd" d="M496.293 248.784H523.981V246.335H496.293V248.784Z" fill="black"/>
<path fill-rule="evenodd" clip-rule="evenodd" d="M496.293 243.534H510.466V241.085H496.293V243.534Z" fill="black"/>
<path fill-rule="evenodd" clip-rule="evenodd" d="M496.293 238.284H523.981V235.835H496.293V238.284Z" fill="black"/>
<path fill-rule="evenodd" clip-rule="evenodd" d="M496.293 233.034H510.466V230.585H496.293V233.034Z" fill="black"/>
<path fill-rule="evenodd" clip-rule="evenodd" d="M496.293 227.784H523.981V225.335H496.293V227.784Z" fill="black"/>
<path fill-rule="evenodd" clip-rule="evenodd" d="M496.293 222.534H510.466V220.085H496.293V222.534Z" fill="black"/>
<path fill-rule="evenodd" clip-rule="evenodd" d="M496.293 217.284H523.981V214.835H496.293V217.284Z" fill="black"/>
<path fill-rule="evenodd" clip-rule="evenodd" d="M496.293 212.034H510.466V209.585H496.293V212.034Z" fill="black"/>
<path fill-rule="evenodd" clip-rule="evenodd" d="M496.293 206.784H523.981V204.335H496.293V206.784Z" fill="black"/>
<path fill-rule="evenodd" clip-rule="evenodd" d="M496.293 201.534H510.466V199.085H496.293V201.534Z" fill="black"/>
<path fill-rule="evenodd" clip-rule="evenodd" d="M496.293 196.284H523.981V193.835H496.293V196.284Z" fill="black"/>
<path fill-rule="evenodd" clip-rule="evenodd" d="M496.293 191.034H510.466V188.585H496.293V191.034Z" fill="black"/>
</svg>
