<svg width="598" height="598" viewBox="0 0 598 598" fill="none" xmlns="http://www.w3.org/2000/svg">
<mask id="mask0" mask-type="alpha" maskUnits="userSpaceOnUse" x="0" y="0" width="598" height="598">
<path d="M299 598C464.133 598 598 464.133 598 299C598 133.867 464.133 0 299 0C133.867 0 0 133.867 0 299C0 464.133 133.867 598 299 598Z" fill="#FF3556"/>
</mask>
<g mask="url(#mask0)">
<path opacity="0.09" d="M298.53 598.31C463.663 598.31 597.53 464.443 597.53 299.31C597.53 134.176 463.663 0.30957 298.53 0.30957C133.397 0.30957 -0.469727 134.176 -0.469727 299.31C-0.469727 464.443 133.397 598.31 298.53 598.31Z" fill="#FF3556"/>
<path d="M134.25 316.58H420.39C425 316.58 428.73 319.18 428.73 322.39V399.18H414.35V331.75C414.35 328.9 411.03 326.59 406.94 326.59H141.66C137.56 326.59 134.25 328.9 134.25 331.75V399.18H119.86V322.39C119.86 319.18 123.6 316.58 128.21 316.58H134.25Z" fill="#D1D1D1"/>
<path d="M-309 598.31L683.12 598.31V597.19L-309 597.19V598.31Z" fill="#1A2E35"/>
<path d="M680.66 399.8H-225.41C-230.746 399.8 -235.864 397.68 -239.637 393.907C-243.41 390.133 -245.53 385.016 -245.53 379.68C-245.53 374.343 -243.41 369.226 -239.637 365.453C-235.864 361.679 -230.746 359.56 -225.41 359.56H680.66C685.996 359.56 691.114 361.679 694.887 365.453C698.66 369.226 700.78 374.343 700.78 379.68C700.78 385.016 698.66 390.133 694.887 393.907C691.114 397.68 685.996 399.8 680.66 399.8Z" fill="#D1D1D1"/>
<path d="M533.02 583.17H547.5V399.8H533.02V583.17Z" fill="#D1D1D1"/>
<path d="M16.1098 583.17H30.5898L30.5898 399.8H16.1098L16.1098 583.17Z" fill="#D1D1D1"/>
<path d="M277.7 583.17H292.18V399.8H277.7V583.17Z" fill="#D1D1D1"/>
<path d="M-122.24 532.14L547.49 532.14V516.81L-122.24 516.81V532.14Z" fill="#D1D1D1"/>
<path d="M-203.59 532.14H117.41V516.81H-203.59V532.14Z" fill="#D1D1D1"/>
<path d="M555.385 589.547C558.905 581.19 554.984 571.561 546.626 568.041C538.269 564.521 528.64 568.443 525.12 576.8C521.6 585.158 525.522 594.786 533.879 598.306C542.237 601.826 551.865 597.905 555.385 589.547Z" fill="#BEBEBF"/>
<path d="M540.538 592.282C545.596 592.149 549.587 587.941 549.454 582.884C549.321 577.827 545.113 573.835 540.056 573.969C534.999 574.102 531.007 578.31 531.14 583.367C531.274 588.424 535.481 592.416 540.538 592.282Z" fill="#EEEEEE"/>
<path d="M301.36 583.17C301.36 579.922 300.397 576.748 298.593 574.048C296.789 571.347 294.224 569.243 291.224 568C288.223 566.757 284.922 566.432 281.737 567.066C278.551 567.699 275.626 569.263 273.329 571.559C271.033 573.856 269.469 576.781 268.836 579.967C268.202 583.152 268.527 586.453 269.77 589.454C271.013 592.454 273.117 595.019 275.818 596.823C278.518 598.627 281.692 599.59 284.94 599.59C289.295 599.59 293.471 597.86 296.551 594.781C299.63 591.701 301.36 587.525 301.36 583.17Z" fill="#BEBEBF"/>
<path d="M285.217 592.311C290.274 592.177 294.266 587.969 294.133 582.912C293.999 577.855 289.792 573.864 284.734 573.997C279.677 574.13 275.686 578.338 275.819 583.395C275.952 588.452 280.16 592.444 285.217 592.311Z" fill="#EEEEEE"/>
<path d="M38.5272 589.453C41.9976 581.075 38.0189 571.469 29.6407 567.999C21.2625 564.529 11.6574 568.507 8.18698 576.886C4.71661 585.264 8.69519 594.869 17.0734 598.339C25.4516 601.81 35.0568 597.831 38.5272 589.453Z" fill="#BEBEBF"/>
<path d="M32.5299 583.17C32.5339 581.359 32.0005 579.586 30.9973 578.078C29.9941 576.569 28.5661 575.392 26.8938 574.695C25.2216 573.998 23.3802 573.813 21.6026 574.162C19.8249 574.512 18.1909 575.381 16.907 576.659C15.6232 577.937 14.7472 579.567 14.3899 581.344C14.0326 583.12 14.21 584.962 14.8996 586.637C15.5892 588.312 16.7602 589.746 18.2643 590.755C19.7685 591.765 21.5383 592.306 23.3499 592.31C24.5529 592.313 25.7445 592.079 26.8568 591.621C27.9692 591.163 28.9805 590.49 29.8329 589.641C30.6853 588.793 31.3623 587.784 31.825 586.674C32.2878 585.564 32.5273 584.373 32.5299 583.17Z" fill="#EEEEEE"/>
<path d="M-130.39 255.18C-123 245.63 -118.07 252.04 -117.89 253.18C-114.78 271.83 -110.49 300.72 -108.75 302.47C-103.89 307.37 -46.8598 302.05 -39.7498 302.3L68.1202 288.3C83.6881 286.085 99.4608 285.689 115.12 287.12L207.34 290.91L309.02 290.76C308.69 304.26 297.84 316.42 298.37 329.7C298.63 336.16 298.91 342.65 299.09 349.14C299.09 350.76 260.46 361.36 255.09 361.27C234.9 360.93 214.51 358.49 194.57 355.37C165.64 350.84 136.23 351.37 108.57 341.52C95.5702 336.87 86.1902 333.23 71.7202 334.24C57.2502 335.25 43.0202 339.15 28.9302 342.56C10.8102 346.94 -8.80978 350.74 -27.2998 346.27C-50.9598 340.56 -83.7298 329.15 -107.94 331.78C-115.87 332.63 -121.3 339.78 -128.5 335.32C-137.37 329.81 -132.92 320.32 -133.11 311.53C-133.23 304.16 -135.97 262.39 -130.39 255.18Z" fill="#FAB977"/>
<path d="M-101.17 331.45C-81.3599 334.55 -60.1699 341.34 -43.3799 345.45C-23.9899 350.12 1.05008 351.29 20.0501 346.7C34.8201 343.12 52.3001 335.7 67.5201 334.61C82.7401 333.52 85.4001 335.61 99.0501 340.47C128.05 350.81 158.84 350.23 189.16 354.98C193.23 355.62 197.33 356.24 201.42 356.8C218.375 359.298 235.467 360.754 252.6 361.16C258.21 361.26 298.75 350.16 298.7 348.45C298.51 341.65 298.22 334.85 297.95 328.08C297.74 323.08 299.09 318.22 300.95 313.4C301.37 304.53 306.55 299.09 309.03 290.74L202.53 287.38L104.99 283.38C88.5909 281.882 72.073 282.298 55.7701 284.62L-56.4699 299.31C-60.4699 299.17 -79.3399 300.7 -96.8499 301.36C-97.3445 308.875 -98.5057 316.331 -100.32 323.64C-100.47 326.31 -100.81 328.88 -101.17 331.45Z" fill="#0086C3"/>
<path d="M-101.17 331.45C-81.3599 334.55 -60.1699 341.34 -43.3799 345.45C-23.9899 350.12 1.05008 351.29 20.0501 346.7C34.8201 343.12 52.3001 335.7 67.5201 334.61C82.7401 333.52 85.4001 335.61 99.0501 340.47C128.05 350.81 158.84 350.23 189.16 354.98C193.23 355.62 197.33 356.24 201.42 356.8C201.42 356.68 201.42 356.57 201.49 356.46C203.83 343.95 201.49 339.58 189.42 339.92C163.95 340.65 139.5 336.5 114.73 330.85C103.18 328.22 91.5201 325.45 79.7301 325.47C68.8301 325.47 58.0901 327.89 47.3601 329.77C-1.71087 338.323 -52.0452 336.257 -100.25 323.71C-100.47 326.31 -100.81 328.88 -101.17 331.45Z" fill="#831454"/>
<path d="M-134.08 265.54C-126.99 255.75 -121.87 262.01 -121.65 263.1C-117.94 281.64 -112.74 310.38 -110.95 312.1C-105.95 316.84 -49.1101 309.71 -41.9501 309.73L65.4099 292.31C80.8833 289.603 96.6193 288.707 112.3 289.64L204.6 290.5L306.22 287.11C306.32 300.62 295.86 313.11 296.81 326.37C297.27 332.82 297.81 339.3 298.15 345.78C298.25 347.4 259.92 359.22 254.58 359.3C234.38 359.61 213.93 357.82 193.9 355.3C164.84 351.69 135.47 353.18 107.55 344.19C94.3799 339.95 84.9199 336.61 70.4799 338.09C56.0399 339.57 41.9499 343.9 27.9799 347.75C9.97992 352.75 -9.48009 357.13 -28.1101 353.25C-51.9401 348.25 -85.0501 337.94 -109.17 341.33C-117.06 342.44 -122.27 349.76 -129.6 345.53C-138.6 340.3 -134.5 330.66 -134.97 321.9C-135.36 314.58 -139.42 272.92 -134.08 265.54Z" fill="#FAB977"/>
<path d="M-101.83 333.07C-100.248 325.697 -99.3247 318.197 -99.0702 310.66C-81.5802 309.43 -62.7602 307.31 -58.7702 307.32L52.9298 289.04C69.1488 286.202 85.6429 285.259 102.08 286.23L199.7 287.14L306.22 287.07C303.99 295.5 298.99 301.07 298.85 309.98C297.19 314.85 296 319.75 296.36 324.74C296.84 331.5 297.36 338.29 297.76 345.09C297.86 346.78 257.69 359.17 252.09 359.26C230.92 359.58 209.47 357.7 188.48 355.1C158.02 351.31 127.23 352.87 97.9598 343.45C84.1598 339.01 81.3898 337.05 66.2598 338.59C51.1298 340.13 33.8398 348.14 19.1898 352.18C0.349792 357.38 -24.7202 357.01 -44.2402 352.95C-61.1702 349.43 -82.5502 343.31 -102.47 340.84C-102.184 338.26 -101.97 335.67 -101.83 333.07Z" fill="#00A2FF"/>
<path d="M532.08 302.71L544.64 342.57C544.839 343.42 545.229 344.214 545.78 344.89C547.49 346.68 550.44 345.6 552.78 344.68C563.86 340.18 576.35 341.92 588.17 343.73C585.837 337.637 583.503 331.547 581.17 325.46L576.73 313.88C574.78 308.79 572.55 303.34 567.91 300.48C566.12 299.38 561.31 299.32 555.77 299.72C553.32 299.9 550.72 300.16 548.18 300.47C542.28 301.17 536.69 302.06 533.92 302.47C533.313 302.591 532.698 302.671 532.08 302.71Z" fill="#FFBF9D"/>
<path d="M542.37 276.15C542.67 273.979 543.559 271.931 544.94 270.23C547.94 266.65 552.84 265.33 557.85 264.59C558.4 264.5 558.97 264.43 559.52 264.35C562.33 264 568.52 264.52 570.7 262.54C573.22 260.25 569.57 255.45 572.18 253.54C576.86 250.02 587.54 258.39 593.32 255.59C597.99 253.33 599.15 249.81 605.32 250.12C613.43 250.52 625.32 247.91 634.47 248.89C639.68 259.77 647.3 270.89 656.87 278.89C657.315 284.221 657.194 289.584 656.51 294.89C652.89 319.35 621.02 321.29 601.79 324.02C594.957 325.147 588.034 325.642 581.11 325.5C568.64 324.9 558.19 320.34 550.91 306.2C550.75 305.9 550.59 305.59 550.44 305.28C549.69 303.77 548.91 302.17 548.12 300.51C544.53 292.91 541.09 284.15 542.37 276.15Z" fill="#FFBF9D"/>
<path d="M594.03 311.06C596.48 310.67 600.62 314.45 603.63 313.85C605.507 313.428 607.233 312.503 608.625 311.175C610.016 309.847 611.02 308.165 611.53 306.31C611.682 305.624 611.752 304.923 611.74 304.22C638.52 299.73 587.66 245.4 635.22 239.47C639.39 238.95 642.22 240.54 642.6 243.7C645.18 263.31 670.53 264.62 673.53 283.31C674.25 287.85 673.78 292.49 673.31 297.06C671.77 312.12 669.31 333.16 653.11 339.64C642.3 343.98 628.71 342.64 617.26 343.22L584.07 344.91C578.28 345.21 576.58 345.65 573.59 340.31C571.337 336.212 570.073 331.644 569.9 326.97C569.9 327.57 581.27 323.14 582.46 322.44C584.721 321.105 586.801 319.485 588.65 317.62C589.91 316.34 592.35 311.52 593.89 311.12L594.03 311.06Z" fill="#4C2A1A"/>
<path d="M563.08 337.38H681.92C684.78 337.38 687.1 343.12 687.1 350.19C687.1 357.26 684.78 362.99 681.92 362.99H563.08C560.22 362.99 557.91 357.26 557.91 350.19C557.91 343.12 560.22 337.38 563.08 337.38Z" fill="#E5E5E6"/>
<path d="M533.89 302.49L534.63 302.65L550.94 306.16L570.11 310.31C565.025 307.204 560.217 303.664 555.74 299.73C553.202 297.415 550.979 294.776 549.13 291.88C545.254 285.376 543.772 277.721 544.94 270.24C543.559 271.942 542.67 273.989 542.37 276.16C541.09 284.16 544.56 292.92 548.15 300.48C542.25 301.17 536.66 302.06 533.89 302.49Z" fill="#EBA05D"/>
<path d="M540.34 302.11C519.84 287.66 498.03 273.03 473.11 270.21C462.11 268.96 451.02 270.1 439.96 270.04C427.43 269.97 414.96 268.37 402.41 268.1C368.5 267.4 335.23 276.48 302.53 285.49C300.693 285.844 298.975 286.652 297.53 287.84C295.88 289.45 295.38 291.84 295.03 294.16C291.823 314.855 293.216 336.003 299.11 356.1C299.489 357.822 300.247 359.438 301.33 360.83C303.26 363 306.33 363.56 309.25 363.94C359.54 370.65 410.75 364.03 461.25 368.75C483.31 370.81 505.97 374.99 527.25 368.97C534.06 367.04 540.7 363.97 545.88 359.19C553.88 351.77 556.72 340.19 554.94 329.64C553.983 324.246 551.819 319.139 548.61 314.7C546.36 311.46 543.13 304.09 540.34 302.11Z" fill="#00A2FF"/>
<path d="M150.01 349.21C150.01 349.21 150.94 349.35 152.38 349.56H149.95C149.98 349.4 149.99 349.31 150.01 349.21Z" fill="#9B1F63"/>
<path d="M237.28 342C241.47 346.92 249.99 350.48 257.28 350C265.84 349.46 311.34 357.54 320.22 359.3C340.29 363.3 364.48 357.72 384.78 357.66C410.08 357.59 403.54 360.31 428.84 359.88C455.84 359.42 481.64 354.45 507.57 347.37C521.24 343.63 533.89 328.08 530.47 308.86C527.88 294.29 505.21 296.93 494.79 298.42C475.983 301.087 457.236 304.153 438.55 307.62C423.55 310.38 403.76 311.02 390.03 317.83L389.72 318C387.351 318.233 384.97 318.33 382.59 318.29H381.97H381.73C368.37 318.84 354.97 318.21 341.6 318.49C323.83 318.86 306.6 323.49 289.02 325.68C283.7 326.35 277.3 328.12 272.02 327.84C265.02 327.47 258.77 324.11 251.51 324.54C242.53 325.09 228.83 332.08 237.28 342Z" fill="#FAB977"/>
<path d="M211 320.31C210.35 326.58 209.37 336.49 215.3 340.71C215.569 340.988 215.853 341.252 216.15 341.5L216.26 341.59C218.843 345.112 222.545 347.654 226.76 348.8C230.992 351.071 235.728 352.237 240.53 352.19C248.8 352.09 258.6 351.19 265.47 346.73C270.32 343.6 269.07 338.14 265.54 335.18C265.696 334.423 265.587 333.635 265.23 332.95C264.15 330.64 264.65 328.2 263.02 325.95C261.639 324.158 259.831 322.742 257.76 321.83C252.43 319.28 246.76 318.89 240.98 319.36C240.258 319.409 239.564 319.662 238.98 320.09C233.49 318.54 228.46 320.09 223.74 322.71C223.128 322.063 222.337 321.612 221.469 321.414C220.6 321.216 219.692 321.281 218.86 321.6C219.28 316.82 211.53 315.54 211 320.31ZM226.61 330.04C228.22 330.21 229.83 330.39 231.43 330.68C232.681 330.931 233.914 331.265 235.12 331.68C235.339 331.782 235.582 331.816 235.82 331.78C235.705 331.896 235.631 332.047 235.61 332.21C235.391 332.976 235.466 333.796 235.82 334.51H235.51C234.74 334.59 231.76 334.63 232.42 334.68H232.09C230.763 333.809 229.49 332.857 228.28 331.83C227.814 331.164 227.251 330.57 226.61 330.07V330.04Z" fill="#FAB977"/>
<path d="M455.91 298.61C464.24 316.47 470.74 335.44 471.78 355.26C471.795 355.728 471.988 356.172 472.318 356.502C472.649 356.833 473.093 357.025 473.56 357.04C480.47 357.84 487.56 356.56 494.24 354.96C500.75 353.4 546.11 352.63 552 349.38C568.74 340.17 544.6 310.38 524.52 296.9C515.19 290.62 502.65 290.1 491.81 290.6C484.81 290.93 477.92 292.13 470.97 292.89C466.68 293.36 462.32 294 458.8 296.48C457.68 294.94 455.01 296.66 455.91 298.61Z" fill="#00A2FF"/>
<path d="M-234.67 399.81L60.68 399.81C66.6779 399.81 71.54 394.947 71.54 388.95L71.54 249.81C71.54 243.812 66.6779 238.95 60.68 238.95L-234.67 238.95C-240.668 238.95 -245.53 243.812 -245.53 249.81V388.95C-245.53 394.947 -240.668 399.81 -234.67 399.81Z" fill="#D1D1D1"/>
<path d="M407.58 390.16C406.58 326.44 359.74 272.88 359.74 272.88C316.32 259.5 264.74 267.33 105.79 273.99C64.4499 275.72 81.2999 273.64 1.26991 275.6C-179.47 280.01 -76.2501 394.19 -68.8901 390.16H407.58Z" fill="#0086C3"/>
<path d="M237.28 342C241.47 346.92 249.99 350.48 257.28 350C265.84 349.46 311.34 357.54 320.22 359.3C340.29 363.3 364.48 357.72 384.78 357.66C410.08 357.59 403.54 360.31 428.84 359.88C455.84 359.42 481.64 354.45 507.57 347.37C521.24 343.63 533.89 328.08 530.47 308.86C527.88 294.29 505.21 296.93 494.79 298.42C475.983 301.087 457.236 304.153 438.55 307.62C423.55 310.38 403.76 311.02 390.03 317.83L389.72 318C387.351 318.233 384.97 318.33 382.59 318.29H381.97H381.73C368.37 318.84 354.97 318.21 341.6 318.49C323.83 318.86 306.6 323.49 289.02 325.68C283.7 326.35 277.3 328.12 272.02 327.84C265.02 327.47 258.77 324.11 251.51 324.54C242.53 325.09 228.83 332.08 237.28 342Z" fill="#FFBF9D"/>
<path d="M211 320.31C210.35 326.58 209.37 336.49 215.3 340.71C215.569 340.988 215.853 341.252 216.15 341.5L216.26 341.59C218.843 345.112 222.545 347.654 226.76 348.8C230.992 351.071 235.728 352.237 240.53 352.19C248.8 352.09 258.6 351.19 265.47 346.73C270.32 343.6 269.07 338.14 265.54 335.18C265.696 334.423 265.587 333.635 265.23 332.95C264.15 330.64 264.65 328.2 263.02 325.95C261.639 324.158 259.831 322.742 257.76 321.83C252.43 319.28 246.76 318.89 240.98 319.36C240.258 319.409 239.564 319.662 238.98 320.09C233.49 318.54 228.46 320.09 223.74 322.71C223.128 322.063 222.337 321.612 221.469 321.414C220.6 321.216 219.692 321.281 218.86 321.6C219.28 316.82 211.53 315.54 211 320.31ZM226.61 330.04C228.22 330.21 229.83 330.39 231.43 330.68C232.681 330.931 233.914 331.265 235.12 331.68C235.339 331.782 235.582 331.816 235.82 331.78C235.705 331.896 235.631 332.047 235.61 332.21C235.391 332.976 235.466 333.796 235.82 334.51H235.51C234.74 334.59 231.76 334.63 232.42 334.68H232.09C230.763 333.809 229.49 332.857 228.28 331.83C227.814 331.164 227.251 330.57 226.61 330.07V330.04Z" fill="#FFBF9D"/>
<path d="M455.91 298.61C464.24 316.47 470.74 335.44 471.78 355.26C471.795 355.728 471.988 356.172 472.318 356.502C472.649 356.833 473.093 357.025 473.56 357.04C480.47 357.84 487.56 356.56 494.24 354.96C500.75 353.4 546.11 352.63 552 349.38C568.74 340.17 544.6 310.38 524.52 296.9C515.19 290.62 502.65 290.1 491.81 290.6C484.81 290.93 477.92 292.13 470.97 292.89C466.68 293.36 462.32 294 458.8 296.48C457.68 294.94 455.01 296.66 455.91 298.61Z" fill="#00A2FF"/>
<path d="M-234.67 399.81L60.68 399.81C66.6779 399.81 71.54 394.947 71.54 388.95L71.54 249.81C71.54 243.812 66.6779 238.95 60.68 238.95L-234.67 238.95C-240.668 238.95 -245.53 243.812 -245.53 249.81V388.95C-245.53 394.947 -240.668 399.81 -234.67 399.81Z" fill="#D1D1D1"/>
<path d="M83.04 590.58L91.78 585.31C93.397 584.31 95.2589 583.778 97.16 583.77H122.9V-83.69C122.9 -86.58 124.9 -88.93 127.47 -89H246.26C248.79 -89 249.72 -87.5 249.72 -85.63C249.72 -83.76 248.79 -82.26 246.26 -82.26H128.82V583.74H156.59C158.491 583.747 160.353 584.28 161.97 585.28L170.71 590.6C173.43 592.25 172.4 596.94 169.32 596.94C168.825 596.937 168.341 596.799 167.92 596.54L159.28 591.31C158.433 590.784 157.457 590.504 156.46 590.5H98.34C96.6444 590.507 94.9835 590.981 93.54 591.87L85.84 596.56C85.4187 596.819 84.9344 596.957 84.44 596.96C81.35 596.92 80.32 592.23 83.04 590.58Z" fill="white"/>
<path d="M266.07 336.87C256.41 336.87 230.82 334.16 201.81 309.06C201.653 309.006 201.512 308.913 201.4 308.79L201.04 308.4L200.68 308.09C187.14 293.31 171.21 273.38 168.03 249.31C165.45 229.81 172.12 211.1 178.57 193.02C179.72 189.81 180.9 186.49 182.01 183.24C185.58 172.73 189.26 160.24 189.59 147.51H189.43V147.26C189.43 146.55 191.85 75.2605 173.43 19.7605L173.35 19.5205L175.72 18.7305L175.8 18.9705C194.36 74.8205 191.97 146.62 191.94 147.31V147.56H191.75C191.35 163.64 185.87 178.98 180.58 193.82C178.58 199.35 176.58 205.07 174.83 210.72C170.9 223.51 169.26 233.9 169.67 243.41C170.14 254.03 173.4 264.97 179.36 275.9C184.66 285.62 191.99 295.4 202.43 306.7C231.18 331.95 256.49 334.7 266.03 334.7C266.988 334.712 267.946 334.672 268.9 334.58H269.15L269.42 336.75H269.17C269.17 336.75 268.07 336.87 266.07 336.87Z" fill="#FF073D"/>
<path d="M175.53 19.0298C194.13 74.9098 191.72 146.61 191.69 147.31H191.53C191.05 169.46 181.02 189.82 174.61 210.65C171.35 221.26 168.96 232.27 169.44 243.43C169.94 254.93 173.68 265.98 179.16 276.03C185.34 287.36 193.54 297.44 202.27 306.88C231.53 332.6 257.53 334.95 266.02 334.95C266.991 334.962 267.963 334.922 268.93 334.83L269.13 336.5C269.07 336.5 268 336.62 266.07 336.62C257.38 336.62 231.27 334.24 201.93 308.84C201.796 308.799 201.675 308.723 201.58 308.62L201.22 308.23L201.04 308.07C185.78 291.55 171.28 272.19 168.25 249.29C165.22 226.39 175.02 204.55 182.25 183.29C186.25 171.63 189.58 159.61 189.85 147.24H189.7C189.7 146.53 192.12 75.1798 173.7 19.6498L175.6 19.0198L175.53 19.0298ZM175.92 18.3898L175.45 18.5398L173.55 19.1698L173.07 19.3298L173.23 19.8098C191.66 75.2598 189.23 146.51 189.23 147.22V147.72H189.39C189.03 160.36 185.39 172.72 181.83 183.13C180.73 186.37 179.54 189.69 178.4 192.9C171.93 211.02 165.25 229.75 167.84 249.31C171.02 273.37 186.84 293.31 200.45 308.04L200.81 308.39L200.91 308.47L200.99 308.54L201.14 308.71L201.31 308.9C201.44 309.041 201.601 309.15 201.78 309.22C230.84 334.35 256.49 337.06 266.17 337.06C267.212 337.077 268.253 337.034 269.29 336.93L269.78 336.87L269.72 336.38L269.52 334.71L269.46 334.21L268.96 334.28C268.96 334.28 267.96 334.39 266.12 334.39C256.61 334.39 231.38 331.67 202.69 306.47C192.27 295.2 184.96 285.47 179.69 275.74C173.74 264.84 170.49 253.94 170.03 243.36C169.62 233.88 171.26 223.52 175.18 210.75C176.91 205.11 178.95 199.39 180.93 193.87C186.2 179.09 191.65 163.81 192.11 147.78H192.29V147.28C192.29 146.56 194.72 74.7298 176.13 18.8098L175.97 18.3398L175.92 18.3898Z" fill="#D7EBF4"/>
<path d="M268.93 337.54L278.75 335.38C279.49 335.27 280.22 335.17 280.11 334.43L279.9 333.12C279.79 332.38 279 332.61 278.26 332.73L268.26 333.56C268.085 333.587 267.916 333.648 267.765 333.74C267.613 333.832 267.481 333.953 267.376 334.096C267.271 334.239 267.195 334.401 267.153 334.573C267.111 334.746 267.103 334.925 267.13 335.1L267.34 336.42C267.366 336.6 267.429 336.773 267.524 336.928C267.62 337.083 267.745 337.217 267.894 337.322C268.043 337.427 268.212 337.5 268.39 337.537C268.568 337.575 268.752 337.576 268.93 337.54Z" fill="#0086C3"/>
<path d="M287.14 342.43L280.99 343.49L278.23 327.5L284.38 326.46L287.14 342.43Z" fill="#D7EBF4"/>
</g>
</svg>
