<svg id="Layer_1" data-name="Layer 1" xmlns="http://www.w3.org/2000/svg" xmlns:xlink="http://www.w3.org/1999/xlink" viewBox="0 0 1009.79 688.59"><defs><style>.cls-1{fill:none;}.cls-2{fill:#ff3556;opacity:0.09;}.cls-3{clip-path:url(#clip-path);}.cls-4{fill:#d1d1d1;}.cls-5{fill:#1a2e35;}.cls-6{fill:#bebebf;}.cls-7{fill:#eee;}.cls-8{fill:#fab977;}.cls-9{fill:#0086c3;}.cls-10{fill:#831454;}.cls-11{fill:#00a2ff;}.cls-12{fill:#ffbf9d;}.cls-13{fill:#4c2a1a;}.cls-14{fill:#e5e5e6;}.cls-15{fill:#eba05d;}.cls-16{fill:#9b1f63;}.cls-17{fill:#fff;}.cls-18{fill:#ff073d;}.cls-19{fill:#d7ebf4;}</style><clipPath id="clip-path" transform="translate(306.53 88.31)"><circle class="cls-1" cx="301" cy="300" r="299"/></clipPath></defs><title>fh</title><circle class="cls-2" cx="607.53" cy="388.31" r="299"/><g class="cls-3"><path class="cls-4" d="M136.72,317.27H422.86c4.61,0,8.34,2.6,8.34,5.81v76.79H416.82V332.44c0-2.85-3.32-5.16-7.41-5.16H144.13c-4.1,0-7.41,2.31-7.41,5.16v67.43H122.33V323.08c0-3.21,3.74-5.81,8.35-5.81Z" transform="translate(306.53 88.31)"/><rect class="cls-5" x="-306.53" y="597.88" width="992.12" height="1.12" transform="translate(685.59 1285.19) rotate(-180)"/><path class="cls-4" d="M683.13,400.49H-222.94a20.12,20.12,0,0,1-20.12-20.12h0a20.12,20.12,0,0,1,20.12-20.12H683.13a20.12,20.12,0,0,1,20.12,20.12h0A20.12,20.12,0,0,1,683.13,400.49Z" transform="translate(306.53 88.31)"/><rect class="cls-4" x="535.48" y="400.49" width="14.48" height="183.37" transform="translate(1391.98 1072.66) rotate(-180)"/><rect class="cls-4" x="-201.11" y="400.49" width="14.48" height="197.39" transform="translate(-81.21 1086.68) rotate(-180)"/><rect class="cls-4" x="18.58" y="400.49" width="14.48" height="183.37" transform="translate(358.17 1072.66) rotate(-180)"/><rect class="cls-4" x="280.17" y="400.49" width="14.48" height="183.37" transform="translate(881.35 1072.66) rotate(-180)"/><rect class="cls-4" x="-119.76" y="517.5" width="669.73" height="15.33" transform="translate(736.73 1138.64) rotate(-180)"/><rect class="cls-4" x="-201.11" y="517.5" width="321" height="15.33" transform="translate(225.3 1138.64) rotate(-180)"/><circle class="cls-6" cx="542.72" cy="583.86" r="16.42" transform="translate(100.51 945.71) rotate(-67.16)"/><circle class="cls-7" cx="542.72" cy="583.86" r="9.16" transform="translate(291.38 102.77) rotate(-1.51)"/><path class="cls-6" d="M303.83,583.86a16.42,16.42,0,1,0-16.42,16.42A16.42,16.42,0,0,0,303.83,583.86Z" transform="translate(306.53 88.31)"/><circle class="cls-7" cx="287.41" cy="583.86" r="9.16" transform="translate(291.28 96.07) rotate(-1.51)"/><circle class="cls-6" cx="25.82" cy="583.86" r="16.42" transform="translate(-216.94 472.59) rotate(-67.5)"/><path class="cls-7" d="M35,583.86A9.16,9.16,0,1,0,25.82,593,9.16,9.16,0,0,0,35,583.86Z" transform="translate(306.53 88.31)"/><path class="cls-8" d="M-127.92,255.87c7.39-9.55,12.32-3.14,12.5-2,3.11,18.65,7.4,47.54,9.14,49.29,4.86,4.9,61.89-.42,69-.17l107.87-14a202.69,202.69,0,0,1,47-1.18l92.22,3.79,101.68-.15c-.33,13.5-11.18,25.66-10.65,38.94.26,6.46.54,12.95.72,19.44,0,1.62-38.63,12.22-44,12.13-20.19-.34-40.58-2.78-60.52-5.9-28.93-4.53-58.34-4-86-13.85-13-4.65-22.38-8.29-36.85-7.28s-28.7,4.91-42.79,8.32c-18.12,4.38-37.74,8.18-56.23,3.71-23.66-5.71-56.43-17.12-80.64-14.49-7.93.85-13.36,8-20.56,3.54-8.87-5.51-4.42-15-4.61-23.79C-130.76,304.85-133.5,263.08-127.92,255.87Z" transform="translate(306.53 88.31)"/><path class="cls-9" d="M-98.7,332.14c19.81,3.1,41,9.89,57.79,14,19.39,4.67,44.43,5.84,63.43,1.25,14.77-3.58,32.25-11,47.47-12.09s17.88,1,31.53,5.86c29,10.34,59.79,9.76,90.11,14.51,4.07.64,8.17,1.26,12.26,1.82a419.17,419.17,0,0,0,51.18,4.36c5.61.1,46.15-11,46.1-12.71-.19-6.8-.48-13.6-.75-20.37-.21-5,1.14-9.86,3-14.68.42-8.87,5.6-14.31,8.08-22.66L205,288.07l-97.54-4a212.18,212.18,0,0,0-49.22,1.24L-54,300c-4-.14-22.87,1.39-40.38,2.05a127.15,127.15,0,0,1-3.47,22.28.06.06,0,0,1,0,0C-98,327-98.34,329.57-98.7,332.14Z" transform="translate(306.53 88.31)"/><path class="cls-10" d="M-98.7,332.14c19.81,3.1,41,9.89,57.79,14,19.39,4.67,44.43,5.84,63.43,1.25,14.77-3.58,32.25-11,47.47-12.09s17.88,1,31.53,5.86c29,10.34,59.79,9.76,90.11,14.51,4.07.64,8.17,1.26,12.26,1.82,0-.12,0-.23.07-.34,2.34-12.51,0-16.88-12.07-16.54-25.47.73-49.92-3.42-74.69-9.07-11.55-2.63-23.21-5.4-35-5.38-10.9,0-21.64,2.42-32.37,4.3a348.47,348.47,0,0,1-147.61-6.06.06.06,0,0,1,0,0C-98,327-98.34,329.57-98.7,332.14Z" transform="translate(306.53 88.31)"/><path class="cls-8" d="M-131.61,266.23c7.09-9.79,12.21-3.53,12.43-2.44,3.71,18.54,8.91,47.28,10.7,49,5,4.74,61.84-2.39,69-2.37L67.88,293a202.34,202.34,0,0,1,46.89-2.67l92.3.86,101.62-3.39c.1,13.51-10.36,26-9.41,39.26.46,6.45,1,12.93,1.34,19.41.1,1.62-38.23,13.44-43.57,13.52-20.2.31-40.65-1.48-60.68-4-29.06-3.61-58.43-2.12-86.35-11.11-13.17-4.24-22.63-7.58-37.07-6.1s-28.53,5.81-42.5,9.66c-18,5-37.46,9.38-56.09,5.5-23.83-5-56.94-15.31-81.06-11.92-7.89,1.11-13.1,8.43-20.43,4.2-9-5.23-4.9-14.87-5.37-23.63C-132.89,315.27-136.95,273.61-131.61,266.23Z" transform="translate(306.53 88.31)"/><path class="cls-11" d="M-99.36,333.76a127.31,127.31,0,0,0,2.76-22.41c17.49-1.23,36.31-3.35,40.3-3.34L55.4,289.73a212.4,212.4,0,0,1,49.15-2.81l97.62.91,106.52-.07c-2.23,8.43-7.23,14-7.37,22.91-1.66,4.87-2.85,9.77-2.49,14.76.48,6.76,1,13.55,1.4,20.35.1,1.69-40.07,14.08-45.67,14.17-21.17.32-42.62-1.56-63.61-4.16-30.46-3.79-61.25-2.23-90.52-11.65-13.8-4.44-16.57-6.4-31.7-4.86s-32.42,9.55-47.07,13.59c-18.84,5.2-43.91,4.83-63.43.77C-58.7,350.12-80.08,344-100,341.53Q-99.57,337.66-99.36,333.76Z" transform="translate(306.53 88.31)"/><path class="cls-12" d="M534.55,303.4l12.56,39.86a5.74,5.74,0,0,0,1.14,2.32c1.71,1.79,4.66.71,7-.21,11.08-4.5,23.57-2.76,35.39-.95q-3.5-9.14-7-18.27l-4.44-11.58c-1.95-5.09-4.18-10.54-8.82-13.4-1.79-1.1-6.6-1.16-12.14-.76-2.45.18-5.05.44-7.59.75-5.9.7-11.49,1.59-14.26,2A13.88,13.88,0,0,1,534.55,303.4Z" transform="translate(306.53 88.31)"/><path class="cls-12" d="M544.84,276.84a12,12,0,0,1,2.57-5.92c3-3.58,7.9-4.9,12.91-5.64.55-.09,1.12-.16,1.67-.24,2.81-.35,9,.17,11.18-1.81,2.52-2.29-1.13-7.09,1.48-9,4.68-3.52,15.36,4.85,21.14,2.05,4.67-2.26,5.83-5.78,12-5.47,8.11.4,20-2.21,29.15-1.23,5.21,10.88,12.83,22,22.4,30a75.8,75.8,0,0,1-.36,16c-3.62,24.46-35.49,26.4-54.72,29.13a112.77,112.77,0,0,1-20.68,1.48c-12.47-.6-22.92-5.16-30.2-19.3-.16-.3-.32-.61-.47-.92-.75-1.51-1.53-3.11-2.32-4.77C547,293.6,543.56,284.84,544.84,276.84Z" transform="translate(306.53 88.31)"/><path class="cls-13" d="M596.5,311.75c2.45-.39,6.59,3.39,9.6,2.79A10.61,10.61,0,0,0,614,307a8.93,8.93,0,0,0,.21-2.09c26.78-4.49-24.08-58.82,23.48-64.75,4.17-.52,7,1.07,7.38,4.23C647.65,264,673,265.31,676,284c.72,4.54.25,9.18-.22,13.75-1.54,15.06-4,36.1-20.2,42.58-10.81,4.34-24.4,3-35.85,3.58l-33.19,1.69c-5.79.3-7.49.74-10.48-4.6a30,30,0,0,1-3.69-13.34c0,.6,11.37-3.83,12.56-4.53a30.74,30.74,0,0,0,6.19-4.82c1.26-1.28,3.7-6.1,5.24-6.5Z" transform="translate(306.53 88.31)"/><path class="cls-14" d="M565.55,338.07H684.39c2.86,0,5.18,5.74,5.18,12.81h0c0,7.07-2.32,12.8-5.18,12.8H565.55c-2.86,0-5.17-5.73-5.17-12.8h0C560.38,343.81,562.69,338.07,565.55,338.07Z" transform="translate(306.53 88.31)"/><path class="cls-15" d="M536.36,303.18l.74.16,16.31,3.51L572.58,311a103.5,103.5,0,0,1-14.37-10.58,39.11,39.11,0,0,1-6.61-7.85,32.48,32.48,0,0,1-4.19-21.64,12,12,0,0,0-2.57,5.92c-1.28,8,2.19,16.76,5.78,24.32C544.72,301.86,539.13,302.75,536.36,303.18Z" transform="translate(306.53 88.31)"/><path class="cls-11" d="M542.81,302.8c-20.5-14.45-42.31-29.08-67.23-31.9-11-1.25-22.09-.11-33.15-.17-12.53-.07-25-1.67-37.55-1.94-33.91-.7-67.18,8.38-99.88,17.39a11.22,11.22,0,0,0-5,2.35c-1.65,1.61-2.15,4-2.5,6.32a142.55,142.55,0,0,0,4.08,61.94,11.86,11.86,0,0,0,2.22,4.73c1.93,2.17,5,2.73,7.92,3.11,50.29,6.71,101.5.09,152,4.81,22.06,2.06,44.72,6.24,66,.22,6.81-1.93,13.45-5,18.63-9.78,8-7.42,10.84-19,9.06-29.55a36.33,36.33,0,0,0-6.33-14.94C548.83,312.15,545.6,304.78,542.81,302.8Z" transform="translate(306.53 88.31)"/><path class="cls-16" d="M152.48,349.9s.93.14,2.37.35h-2.43C152.45,350.09,152.46,350,152.48,349.9Z" transform="translate(306.53 88.31)"/><path class="cls-8" d="M239.75,342.69c4.19,4.92,12.71,8.48,20,8,8.56-.54,54.06,7.54,62.94,9.3,20.07,4,44.26-1.58,64.56-1.64,25.3-.07,18.76,2.65,44.06,2.22,27-.46,52.8-5.43,78.73-12.51,13.67-3.74,26.32-19.29,22.9-38.51-2.59-14.57-25.26-11.93-35.68-10.44q-28.21,4-56.24,9.2c-15,2.76-34.79,3.4-48.52,10.21l-.31.17a62.22,62.22,0,0,1-7.13.29l-.62,0-.24,0c-13.36.55-26.76-.08-40.13.2-17.77.37-35,5-52.58,7.19-5.32.67-11.72,2.44-17,2.16-7-.37-13.25-3.73-20.51-3.3C245,325.78,231.3,332.77,239.75,342.69Z" transform="translate(306.53 88.31)"/><path class="cls-8" d="M213.47,321c-.65,6.27-1.63,16.18,4.3,20.4a10.86,10.86,0,0,0,.85.79l.11.09a19.3,19.3,0,0,0,10.5,7.21A28.53,28.53,0,0,0,243,352.88c8.27-.1,18.07-1,24.94-5.46,4.85-3.13,3.6-8.59.07-11.55a3.36,3.36,0,0,0-.31-2.23c-1.08-2.31-.58-4.75-2.21-7a13.52,13.52,0,0,0-5.26-4.12c-5.33-2.55-11-2.94-16.78-2.47a3.83,3.83,0,0,0-2,.73c-5.49-1.55-10.52,0-15.24,2.62a4.5,4.5,0,0,0-4.88-1.11C221.75,317.51,214,316.23,213.47,321Zm15.61,9.73c1.61.17,3.22.35,4.82.64a28.67,28.67,0,0,1,3.69,1,1.22,1.22,0,0,0,.7.1.74.74,0,0,0-.21.43,3.2,3.2,0,0,0,.21,2.3l-.31,0c-.77.08-3.75.12-3.09.17l-.33,0a38.52,38.52,0,0,1-3.81-2.85A8.19,8.19,0,0,0,229.08,330.76Z" transform="translate(306.53 88.31)"/><path class="cls-11" d="M458.38,299.3c8.33,17.86,14.83,36.83,15.87,56.65a1.84,1.84,0,0,0,1.78,1.78c6.91.8,14-.48,20.68-2.08,6.51-1.56,51.87-2.33,57.76-5.58,16.74-9.21-7.4-39-27.48-52.48-9.33-6.28-21.87-6.8-32.71-6.3-7,.33-13.89,1.53-20.84,2.29-4.29.47-8.65,1.11-12.17,3.59C460.15,295.63,457.48,297.35,458.38,299.3Z" transform="translate(306.53 88.31)"/><rect class="cls-4" x="-243.06" y="239.63" width="317.07" height="160.86" rx="10.86" ry="10.86" transform="translate(137.48 728.44) rotate(-180)"/><path class="cls-9" d="M410.05,390.85c-1-63.72-47.84-117.28-47.84-117.28-43.42-13.38-95-5.55-253.95,1.11-41.34,1.73-24.49-.35-104.52,1.61C-177,280.7-73.78,394.88-66.42,390.85Z" transform="translate(306.53 88.31)"/><path class="cls-12" d="M239.75,342.69c4.19,4.92,12.71,8.48,20,8,8.56-.54,54.06,7.54,62.94,9.3,20.07,4,44.26-1.58,64.56-1.64,25.3-.07,18.76,2.65,44.06,2.22,27-.46,52.8-5.43,78.73-12.51,13.67-3.74,26.32-19.29,22.9-38.51-2.59-14.57-25.26-11.93-35.68-10.44q-28.21,4-56.24,9.2c-15,2.76-34.79,3.4-48.52,10.21l-.31.17a62.22,62.22,0,0,1-7.13.29l-.62,0-.24,0c-13.36.55-26.76-.08-40.13.2-17.77.37-35,5-52.58,7.19-5.32.67-11.72,2.44-17,2.16-7-.37-13.25-3.73-20.51-3.3C245,325.78,231.3,332.77,239.75,342.69Z" transform="translate(306.53 88.31)"/><path class="cls-12" d="M213.47,321c-.65,6.27-1.63,16.18,4.3,20.4a10.86,10.86,0,0,0,.85.79l.11.09a19.3,19.3,0,0,0,10.5,7.21A28.53,28.53,0,0,0,243,352.88c8.27-.1,18.07-1,24.94-5.46,4.85-3.13,3.6-8.59.07-11.55a3.36,3.36,0,0,0-.31-2.23c-1.08-2.31-.58-4.75-2.21-7a13.52,13.52,0,0,0-5.26-4.12c-5.33-2.55-11-2.94-16.78-2.47a3.83,3.83,0,0,0-2,.73c-5.49-1.55-10.52,0-15.24,2.62a4.5,4.5,0,0,0-4.88-1.11C221.75,317.51,214,316.23,213.47,321Zm15.61,9.73c1.61.17,3.22.35,4.82.64a28.67,28.67,0,0,1,3.69,1,1.22,1.22,0,0,0,.7.1.74.74,0,0,0-.21.43,3.2,3.2,0,0,0,.21,2.3l-.31,0c-.77.08-3.75.12-3.09.17l-.33,0a38.52,38.52,0,0,1-3.81-2.85A8.19,8.19,0,0,0,229.08,330.76Z" transform="translate(306.53 88.31)"/><path class="cls-11" d="M458.38,299.3c8.33,17.86,14.83,36.83,15.87,56.65a1.84,1.84,0,0,0,1.78,1.78c6.91.8,14-.48,20.68-2.08,6.51-1.56,51.87-2.33,57.76-5.58,16.74-9.21-7.4-39-27.48-52.48-9.33-6.28-21.87-6.8-32.71-6.3-7,.33-13.89,1.53-20.84,2.29-4.29.47-8.65,1.11-12.17,3.59C460.15,295.63,457.48,297.35,458.38,299.3Z" transform="translate(306.53 88.31)"/><rect class="cls-4" x="-243.06" y="239.63" width="317.07" height="160.86" rx="10.86" ry="10.86" transform="translate(137.48 728.44) rotate(-180)"/><path class="cls-17" d="M85.51,591.27,94.25,586a10.31,10.31,0,0,1,5.38-1.54h25.74V-83c0-2.89,2-5.24,4.57-5.31H248.73c2.53,0,3.46,1.5,3.46,3.37s-.93,3.37-3.46,3.37H131.29v666h27.77a10.31,10.31,0,0,1,5.38,1.54l8.74,5.32c2.72,1.65,1.69,6.34-1.39,6.34a2.7,2.7,0,0,1-1.4-.4L161.75,592a5.39,5.39,0,0,0-2.82-.81H100.81a9.22,9.22,0,0,0-4.8,1.37l-7.7,4.69a2.7,2.7,0,0,1-1.4.4h0C83.82,597.61,82.79,592.92,85.51,591.27Z" transform="translate(306.53 88.31)"/><path class="cls-18" d="M268.54,337.56c-9.66,0-35.25-2.71-64.26-27.81a1,1,0,0,1-.41-.27l-.36-.39-.36-.31,0,0C189.61,294,173.68,274.07,170.5,250c-2.58-19.5,4.09-38.21,10.54-56.29,1.15-3.21,2.33-6.53,3.44-9.78,3.57-10.51,7.25-23,7.58-35.73h-.16v-.25c0-.71,2.42-72-16-127.5l-.08-.24,2.37-.79.08.24C196.83,75.51,194.44,147.31,194.41,148v.25h-.19c-.4,16.08-5.88,31.42-11.17,46.26-2,5.53-4,11.25-5.75,16.9-3.93,12.79-5.57,23.18-5.16,32.69.47,10.62,3.73,21.56,9.69,32.49,5.3,9.72,12.63,19.5,23.07,30.8,28.75,25.25,54.06,28,63.6,28a26.62,26.62,0,0,0,2.87-.12l.25,0,.27,2.17-.25,0S270.54,337.56,268.54,337.56Z" transform="translate(306.53 88.31)"/><path class="cls-19" d="M178,19.72C196.6,75.6,194.19,147.3,194.16,148H194c-.48,22.15-10.51,42.51-16.92,63.34-3.26,10.61-5.65,21.62-5.17,32.78.5,11.5,4.24,22.55,9.72,32.6,6.18,11.33,14.38,21.41,23.11,30.85C234,333.29,260,335.64,268.49,335.64a27.05,27.05,0,0,0,2.91-.12l.2,1.67c-.06,0-1.13.12-3.06.12-8.69,0-34.8-2.38-64.14-27.78a.79.79,0,0,1-.35-.22l-.36-.39-.18-.16,0,0c-15.26-16.52-29.76-35.88-32.79-58.78s6.77-44.74,14-66c4-11.66,7.33-23.68,7.6-36.05h-.15c0-.71,2.42-72.06-16-127.59l1.9-.63m.32-.63-.47.15-1.9.63-.48.16.16.48c18.43,55.45,16,126.7,16,127.41l0,.5h.16c-.36,12.64-4,25-7.56,35.41-1.1,3.24-2.29,6.56-3.43,9.77-6.47,18.12-13.15,36.85-10.56,56.41,3.18,24.06,19,44,32.61,58.73l0,0,.36.35.1.08.08.07.15.17.17.19a1.27,1.27,0,0,0,.47.32c29.06,25.13,54.71,27.84,64.39,27.84a26.86,26.86,0,0,0,3.12-.13l.49-.06-.06-.49-.2-1.67-.06-.5-.5.07s-1,.11-2.84.11c-9.51,0-34.74-2.72-63.43-27.92-10.42-11.27-17.73-21-23-30.73-5.95-10.9-9.2-21.8-9.66-32.38-.41-9.48,1.23-19.84,5.15-32.61,1.73-5.64,3.77-11.36,5.75-16.88,5.27-14.78,10.72-30.06,11.18-46.09h.18l0-.5c0-.72,2.43-72.55-16.16-128.47l-.16-.47Z" transform="translate(306.53 88.31)"/><path class="cls-9" d="M271.4,338.23l9.82-2.16c.74-.11,1.47-.21,1.36-.95l-.21-1.31c-.11-.74-.9-.51-1.64-.39l-10,.83a1.35,1.35,0,0,0-1.13,1.54l.21,1.32A1.34,1.34,0,0,0,271.4,338.23Z" transform="translate(306.53 88.31)"/><polygon class="cls-19" points="596.14 431.43 589.99 432.49 587.23 416.5 593.38 415.46 596.14 431.43"/></g></svg>