<svg xmlns="http://www.w3.org/2000/svg" xmlns:xlink="http://www.w3.org/1999/xlink" viewBox="0 0 1709.61 3586.1"><defs><style>.cls-1{fill:none;}.cls-2{isolation:isolate;}.cls-3{fill:#ff3556;opacity:0.09;}.cls-4{clip-path:url(#clip-path);}.cls-5{fill:#f4a673;}.cls-6{opacity:0.35;}.cls-6,.cls-9{mix-blend-mode:multiply;}.cls-7{fill:#e0ad74;}.cls-8{fill:#7692b5;}.cls-9{opacity:0.55;}.cls-10{fill:#ffbf9d;}.cls-11{fill:#373736;}.cls-12{fill:#fff;}.cls-13{fill:#00a2ff;}.cls-14{fill:#0086c3;}.cls-15{fill:#d1f5ff;}.cls-16{fill:#85d0f5;}</style><clipPath id="clip-path" transform="translate(679.07 399.83)"><circle class="cls-1" cx="300" cy="300" r="300"/></clipPath></defs><title>Intravenous Lines</title><g class="cls-2"><g id="Layer_1" data-name="Layer 1"><circle class="cls-3" cx="979.07" cy="699.83" r="300"/><g class="cls-4"><path class="cls-5" d="M-300.65,2714.37s17.4,56,34.29,81.81c18.72,28.58,4.49,94-54,96.33-60.58,2.45-131.75,76.2-170,105.49-38.69,29.59-194.08,52.6-188.49,17.72,3.35-20.88,15.35-21.23,30.7-28.3,12.45-5.74,24.2-7.31,47.3-24.55,50.26-37.48,56.08-85.88,148.88-170.69,41.62-38,48.82-78.43,48.82-78.43Z" transform="translate(679.07 399.83)"/><g class="cls-6"><path class="cls-7" d="M-648.23,2987.42c2.92-1.35,5.82-2.46,8.83-3.6,17.41,11.9,39.91,18.67,62.82,16.08,45.69-5.17,87.32-21.54,118.63-56.56,34-38,66.8-49.94,109.54-73,30.34-16.36,50.77-46.18,40.46-82.27-5.49-19.2-13.52-35.51-23.07-53.05a102.54,102.54,0,0,1-8.45-20.91l38.81.24s17.41,56,34.3,81.81c18.72,28.58,4.49,94-54,96.33-60.58,2.45-131.75,76.2-170,105.49-38.69,29.59-194.08,52.6-188.49,17.72C-675.58,2994.84-663.58,2994.49-648.23,2987.42Z" transform="translate(679.07 399.83)"/></g><path class="cls-5" d="M328.15,2854.39s-19.57,55.3-37.45,80.41c-19.82,27.84-8.16,93.72,50.24,98.37,60.43,4.81,128.68,81.27,165.8,112,37.5,31.08,191.88,60.12,187.65,25.05-2.53-21-14.51-21.81-29.57-29.47-12.21-6.22-23.89-8.26-46.31-26.37-48.75-39.42-52.68-88-142.11-176.38-40.1-39.63-45.72-80.27-45.72-80.27Z" transform="translate(679.07 399.83)"/><g class="cls-6"><path class="cls-7" d="M320.57,2985.35c18.37,5.05,81,29.87,94.33,41.6,22.9,19.69,45.78,39.27,69.52,58C531,3121.58,592,3155,637.23,3127.41c11.15,6.55,19.38,9.2,27.59,13.38,15.06,7.66,27,8.48,29.57,29.47,4.23,35.07-150.15,6-187.65-25.05-37.12-30.77-105.37-107.23-165.8-112-45.95-3.66-62.63-45.05-58.14-76.17C290.7,2970.28,303,2980.51,320.57,2985.35Z" transform="translate(679.07 399.83)"/></g><path class="cls-8" d="M-375,1904.35C-141.69,1427.5,74.16,1146,74.16,1146c2.1.3,5.45,2.65,9.64,6.45,1.08-2.16,2.07-4.38,3.36-6.45,0,0,171.35,48.17,441.9,30.13,0,0,110.48,217.57,76.66,501.65s-40.59,389.4-36.08,420.73-68.76,456.81-100.33,797.57c0,0-118.36-20.29-168-22.55,0,0,19.25-295.36,11.92-435.09-8.47-161.43-20.32-284.53,15.38-370.63,24.59-59.3-40.95-374.79-70.29-507.8-5.25-23.8-35.18-31.73-51.52-13.66C97.34,1667.39-180.63,1939-177.49,1985.52c3.65,54.11,50.46,191.63,30.17,293.09s-111.31,471.22-111.31,471.22c-42.53-13.53-170.52-36.08-170.52-36.08C-405.48,2596.51-375,1904.35-375,1904.35Z" transform="translate(679.07 399.83)"/><g class="cls-9"><path class="cls-8" d="M341.34,1289.39c-100.4-9.85-202.09-55.76-302.57-94.76C61.36,1162.7,74.16,1146,74.16,1146c2.1.3,5.45,2.65,9.64,6.45,1.08-2.16,2.07-4.38,3.36-6.45,0,0,122,34.06,322.18,34h0c17.16,0,35-.3,53.18-.82,2.39-.07,4.71-.1,7.11-.18,19.22-.63,39-1.54,59.43-2.9,0,0,.25.49.64,1.31.28.55.55,1.13,1.13,2.34.25.55.57,1.22.88,1.89,1.09,2.32,2.48,5.42,4.2,9.29l1,2.25c3.18,7.25,7.07,16.71,11.56,28.34q1.11,2.9,2.26,6c30.27,80.45,79,248.32,55,450.28-33.82,284.08-40.59,389.4-36.08,420.73s-68.76,456.81-100.33,797.57c0,0-17.47-3-41.73-6.8,68.7-312.37,130.35-636.11,130.91-953.75.27-152.67,29.85-333.6-14.45-481.86l-.56-1.83C516.31,1361.59,435.12,1298.6,341.34,1289.39Z" transform="translate(679.07 399.83)"/></g><g class="cls-9"><path class="cls-8" d="M-280.8,2631.52c33.62-136.91,59.06-274.13,72.51-416.15,7.15-75.51-2.71-150.92-11.07-226.31-6-54.47,60.18-108.52,110.13-180.47,56.89-82,149-152.11,192.44-243.17,23.4-49,43.47-98.71,62-149.24,42.56,23.72,72.08,37.49,124.05,38A336.22,336.22,0,0,0,354,1443.6c-52.64,220.46,73.35,526.09,53.83,629.24-22.79,120.37-54,312.53-53.22,459.56.58,111.68,9.13,232.06-2.41,346-19.44-2.44-37.59-4.34-50.81-4.94,0,0,19.25-295.36,11.92-435.09-8.47-161.43-20.32-284.53,15.38-370.63,24.59-59.3-40.95-374.79-70.29-507.8-5.25-23.8-35.18-31.73-51.52-13.66C97.34,1667.39-180.63,1939-177.49,1985.52c3.65,54.11,50.46,191.63,30.17,293.09s-111.31,471.22-111.31,471.22c-13.07-4.16-34.23-9.17-57.26-14.12C-295.41,2705.76-288.93,2664.63-280.8,2631.52Z" transform="translate(679.07 399.83)"/></g><path class="cls-10" d="M-114.34,1502.57c-153.54-340.25-193-458.43-186.3-529.75,6.77-72.53,103.72-263.41,112.73-346.84S-118,323.3-60.52,293.45s249-35.8,249-35.8c31-16,78.61-64.09,90.9-209.6,0,0,137,36.83,164,45.28,25.3,7.91.39,189.69,98.42,201.3l1,.17c6.52.69,23.76,4.13,23.76,4.13,47.51,8.51,134.11,25.58,160.07,41.28C763,362.19,847,446.52,865,609.53s62.41,295.23,80.8,346.36,43.2,182.61,20.65,496a268.06,268.06,0,0,0,4.44,54.69c.84,2.3,24,65.46,39.81,101.16,16.06,36.35,21.22,87.93,19.53,126s-4.59,66.51-30.94,56.65c0,0-.85,64.68-36.78,49,0,0-14.38,28-38,3,0,0-20.69,15.24-34.66-3-11-14.37-2.75-55.17,3.06-94.8s-.53-85.29-11.52-87.83c-44.59-10.28-21.67,105-60,91.32-22.92-8.18-11-110.76,7.6-140.35s33.64-66.11,43.86-101.48c2.82-16.32,6.82-48.71,1.23-81.43-7.89-46.22-58.33-186.72-59.74-325.38-1.13-110.48-58.06-184.31-81.73-230C713.85,833.43,671,725.37,642.07,655.4c.2,30.6-.65,62.87-3.21,97.34-2.81,37.63-238.44-135.89-295.24-152.12C299,587.87,10.89,696.46,15.77,662.86c.1-.69.26-1.43.37-2.12-43.77,142.61-188.9,299.11-166.28,360.93,25.36,69.33,60.87,159.1,72.71,225.05,10.62,59.18,52,214.19,60.4,245.45,11.92,34.86,29.47,75.58,49.47,104.24s37.19,124.66,14.7,133.92c-37.66,15.51-33.82-108.78-60.31-101.46-10.88,3-6.59,28.33,1.12,67.64,2.89,14.74,19.36,25.3,31,32.13,19.41,11.38,40.59,32.55,35.12,39.72-13,17.08-40.19,7.06-40.19,7.06-5.07,37.77-51.86,7.33-51.86,7.33-18.45,40-62-13-62-13-8.26,7.16-23.6,5-38.32-19.59-5.56-9.29-14-29.29-19.75-47.78-10.69-34.65-5.38-60.2,8.92-97.28C-135.74,1570.42-116.72,1510.13-114.34,1502.57Z" transform="translate(679.07 399.83)"/><g class="cls-6"><path class="cls-7" d="M839.65,1657.18c2.78-6.26,6.32-10.86,10.89-13,31.8-14.58,57,8.51,83.54,22.21,35.49,18.29,65,7.58,89.81-12.93a347.67,347.67,0,0,1,6.34,80.2c-1.69,38-4.59,66.51-30.94,56.65,0,0-.85,64.68-36.78,49,0,0-14.38,28-38,3,0,0-20.69,15.24-34.66-3-11-14.37-2.75-55.17,3.06-94.8s-.53-85.29-11.52-87.83c-42.66-9.84-23.67,95-55.52,92.09A157.27,157.27,0,0,0,833.3,1713C834.65,1698.81,834.94,1676.21,839.65,1657.18Z" transform="translate(679.07 399.83)"/></g><g class="cls-6"><path class="cls-7" d="M-86.37,1672.74c22.51-3.74,37.72-27.85,45.09-47.13s9.19-39.72,16-59c5.46-15.58,13.09-28,21.49-40,10.33,25.08,22.63,50.21,36.28,69.76,20,28.66,37.19,124.66,14.7,133.92-37.66,15.51-33.82-108.78-60.31-101.46-10.88,3-6.59,28.33,1.12,67.64,2.89,14.74,19.36,25.3,31,32.13,19.41,11.38,40.59,32.55,35.12,39.72-13,17.08-40.19,7.06-40.19,7.06-5.07,37.77-51.86,7.33-51.86,7.33-18.45,40-62-13-62-13-8.26,7.16-23.6,5-38.32-19.59-5.56-9.29-14-29.29-19.75-47.78a115.92,115.92,0,0,1-4.66-24.08C-142.34,1666.54-110.36,1676.74-86.37,1672.74Z" transform="translate(679.07 399.83)"/></g><g class="cls-6"><path class="cls-7" d="M840.14,988.7c13.23,24.89,24.49,50,27.54,81.13,1.25,12.71,6.46,47.71-2.14,66.53-15.57-19.47-29.35-38.28-35-66C824.4,1040.56,829.44,1014.14,840.14,988.7Z" transform="translate(679.07 399.83)"/></g><g class="cls-6"><path class="cls-7" d="M484,251.28C390.92,244,297.44,143.16,270.69,112c.24-1.25.47-2.5.7-3.78a596.67,596.67,0,0,0,8-60.19s137,36.83,164,45.28c17.13,5.33,11.21,90.48,36.09,148.45C480.89,245.05,482.37,248.2,484,251.28Z" transform="translate(679.07 399.83)"/></g><path class="cls-10" d="M533.44,293.17s-81.55,343,109.5,410.6c0,0-17.12,287.54-102.7,497.18,0,0-221,71.9-482.47-32.83,0,0-61.18-265.5-42-505.26,0,0,141.84-65.62,138.28-403.61l34.41-1.6S179.33,421,235.75,505.36c21.44,32.08,161.41,38.31,180.58,22.55,86.92-71.47,82.87-254.72,82.87-254.72Z" transform="translate(679.07 399.83)"/><g class="cls-6"><path class="cls-7" d="M15.77,662.86s21-9.81,46.66-41C58.09,643.79,54.86,666,55.51,689c1.57,56.11,6.75,110.53,26.68,163.4,31.9,84.61,127.2,159.64,216.52,171.1,98,12.57,180-32.92,215.32-127,27.56-73.41,47.18-151.13,74.65-225.26a158,158,0,0,0,54.26,32.52S625.82,991.31,540.24,1201c0,0-221,71.9-482.47-32.84C57.77,1168.11-3.41,902.62,15.77,662.86Z" transform="translate(679.07 399.83)"/></g><path class="cls-10" d="M360.74-235.28s285.33,32.95,282.18,74.4S629.39-35.74,622.62-9.82s-3.37,36.45,0,57.87S614.7,121.27,599,155c-19.27,41.28-28.18,91.08-56.36,101.23s-186-32.69-224.33-168S337.85-227.39,360.74-235.28Z" transform="translate(679.07 399.83)"/><g class="cls-6"><path class="cls-7" d="M482.49-99.86c-27.07-10.46-47-19.48-65.5-12.88-18.15,6.47-24.81,47-29.41,63.3-12.68,45.07-22,97.49-22,97.49-10.37-12.76-18.39-29.67-23.31-42.92-3.58-9.63-12.63-11.25-19.13-7.69a11.6,11.6,0,0,0-7.51,2.14A79.35,79.35,0,0,0,306,7.72c-5.24-117.08,36.25-236.61,54.78-243,0,0,285.33,32.95,282.18,74.4-1.38,18.11-4.16,44.24-7.39,70.13C584.21-80.45,532.54-80.5,482.49-99.86Z" transform="translate(679.07 399.83)"/></g><path class="cls-10" d="M307.35,62.33s-84.55-57.49-69.9-115,48.48-78.91,94.7,10.14c0,0,2.25,95.82,6.76,104.84S332.15,73.6,307.35,62.33Z" transform="translate(679.07 399.83)"/><path class="cls-11" d="M277.8-287s54.1-49.47,8.39-112.83C286.19-399.83,249.16-317.38,277.8-287Z" transform="translate(679.07 399.83)"/><path class="cls-11" d="M278.2-287.15s-92.88,18.9-96.35-56.08C181.85-343.23,264-344,278.2-287.15Z" transform="translate(679.07 399.83)"/><path class="cls-11" d="M274.29-293.9s44-104.84,178.11-74.4S676.32-289.76,753-327.57c0,0,7.18,82.37-110,92.29,0,0,51.56,50.86,130.19,26.34,0,0-54.68,185.82-360.18,65.54,0,0-53,72.33-47.35,191.45,0,0-18-13.89-31.57-21.23s26.71-129.44-72.14-99.7c-63.78,19.19,12.37,118.3,34.94,125.07,0,0,5.14,38.89-24.45,50.72,0,0-130.83-122.5-90.53-281.82C217.34-319.23,274.29-293.9,274.29-293.9Z" transform="translate(679.07 399.83)"/><g class="cls-6"><path class="cls-7" d="M271.63-49.44s42.55,4,30.88,54c-6.74,28.84-42.66.34-27.88-19.19S271.63-49.44,271.63-49.44Z" transform="translate(679.07 399.83)"/></g><g class="cls-6"><path class="cls-7" d="M561.19,165.14S537.52,198.4,482.28,155c0,0,53.12,16.91,69.68,5.92S564.18,162,561.19,165.14Z" transform="translate(679.07 399.83)"/></g><g class="cls-6"><path class="cls-7" d="M569.79,3.66s9.58,120.9-5.64,127.1S514,115,518.49,106s31.87,15.58,36.43,13.53C564.29,115.26,561.33,19.22,569.79,3.66Z" transform="translate(679.07 399.83)"/></g><g class="cls-6"><path class="cls-7" d="M433,20.29s49.32,43.12,79.27,20.36c5.14-3.91,12.28-24.62,10.26-30.33-1.35-3.82-4.66-7.42-11.95-8.83-22.27-4.3-65.31-9.73-77.36,16.56Z" transform="translate(679.07 399.83)"/></g><g class="cls-6"><path class="cls-7" d="M620.25,51.43c-12.43,3.16-25.67,3.09-35.33-5.86-4.16-3.85-8.64-22.57-6.39-27.39,1.51-3.22,4.71-6.09,11.21-6.7a159.61,159.61,0,0,1,29-.35s2.46,5.46,3.73,18.33C623.35,38.35,620.25,51.43,620.25,51.43Z" transform="translate(679.07 399.83)"/></g><path class="cls-11" d="M579.71,33.17s4,25.49,42.34,26.62c10.08.3,1.08-15.7,1.08-15.7C611.19,45.24,596.41,43.06,579.71,33.17Z" transform="translate(679.07 399.83)"/><path class="cls-11" d="M420.69-37.35S439-52.57,454.23-57.64,533.28-50.46,535-42s-10.15,21.56-15.22,21.14-55-18.69-61.51-17.38S424.78-34.81,420.69-37.35Z" transform="translate(679.07 399.83)"/><path class="cls-11" d="M628.45-44.17c-19.33-.79-43.31-.29-45.14,3.83-3.5,7.88,5.16,23.26,10.2,24,2.23.31,19,.06,31.69-1.1Z" transform="translate(679.07 399.83)"/><path class="cls-12" d="M62,266.53l-1.66,29.66s62.54.9,77.26-4.54-9.07-30.8-9.07-30.8Z" transform="translate(679.07 399.83)"/><path class="cls-13" d="M76.72,269.76l-1,18.51s39,.57,48.22-2.83-5.66-19.22-5.66-19.22Z" transform="translate(679.07 399.83)"/><rect class="cls-14" x="296.96" y="188.4" width="6.08" height="18.74" rx="0.73" ry="0.73" transform="translate(637.98 484.61) rotate(-15.07)"/><rect class="cls-13" x="283.53" y="137.68" width="16.7" height="59.85" rx="1.11" ry="1.11" transform="translate(645.54 481.47) rotate(-15.07)"/><path class="cls-12" d="M371.06,212.62c-.2-.78-.51-1.56-.74-2.34l.12,0-.47-1a36.44,36.44,0,0,0-4-7.51L332.32,137.2,295,147.25l-16.12,4.32-19.46,5.26c-1.91,5.84-8.84,26.59-16.2,40.41l1.68,37.1a36.64,36.64,0,0,0,.38,8.49l0,1.09.2,0a15.79,15.79,0,0,0,.46,2.41c6.86,25.51,40.46,38.67,75,29.36S378,238.12,371.06,212.62Zm-56.92,37.69c-20.64,5.52-40.3-.63-43.84-13.83a11.07,11.07,0,0,1-.23-1.28l-.12,0v-.55a16.86,16.86,0,0,1,0-4.43l-.51-38,19.08-5.14,16.12-4.37,19.12-5.13,18.64,33.09a14.4,14.4,0,0,1,2.15,3.85l.27.51h0a10.71,10.71,0,0,0,.39,1.21C348.67,229.51,334.81,244.74,314.14,250.31Z" transform="translate(679.07 399.83)"/><path class="cls-15" d="M358.6,214.6c-.16-.54-.35-1-.55-1.59l.12,0-.39-.7a23.31,23.31,0,0,0-2.92-5.18l-25.15-44.54-28.5,7.67-16.12,4.36-28.46,7.67.63,51.12a22.56,22.56,0,0,0,0,5.92l0,.81.16,0c.08.54.16,1.12.27,1.67,4.79,17.79,31.27,26.12,59.1,18.61S363.39,232.4,358.6,214.6Zm-44.46,35.71c-20.64,5.52-40.3-.63-43.84-13.83a11.07,11.07,0,0,1-.23-1.28l-.12,0v-.55a16.86,16.86,0,0,1,0-4.43l-.51-38,19.08-5.14,16.12-4.37,19.12-5.13,18.64,33.09a14.4,14.4,0,0,1,2.15,3.85l.27.51h0a10.71,10.71,0,0,0,.39,1.21C348.67,229.51,334.81,244.74,314.14,250.31Z" transform="translate(679.07 399.83)"/><path class="cls-12" d="M243.24,197.24" transform="translate(679.07 399.83)"/><path class="cls-12" d="M259.83,155.58c-.08.24-.2.66-.39,1.25l-.16,0Z" transform="translate(679.07 399.83)"/><path class="cls-16" d="M111,565.76l-3.38-1.93c.07-.13,7.8-14.68,17.36-83.66,7.4-53.38-3.55-122.77-11.54-173.43-2.48-15.75-4.62-29.36-5.72-39.58-3.15-29.26,15.35-63.55,26.66-81.39a255.56,255.56,0,0,0,15.09-27.87c7.47-15.77,25.82-42.64,64.83-45.37,56.34-3.91,67.3,25.33,67.74,26.58l-3.67,1.29,1.84-.64-1.84.65c-.1-.28-10.68-27.8-63.79-24-37,2.6-54.49,28.15-61.59,43.15a259.9,259.9,0,0,1-15.32,28.3c-11,17.4-29.1,50.8-26.08,78.89,1.09,10.12,3.23,23.68,5.7,39.38,8,50.9,19,120.62,11.55,174.58C119.09,551,111.31,565.19,111,565.76Z" transform="translate(679.07 399.83)"/><path class="cls-16" d="M103.06,565.76l-3.38-1.93c.07-.13,7.8-14.68,17.36-83.66,7.4-53.38-3.54-122.76-11.53-173.42-2.49-15.76-4.63-29.36-5.73-39.59-3.15-29.26,15.35-63.55,26.66-81.39a257.29,257.29,0,0,0,15.09-27.87c8.68-18.33,33.36-50,70.82-52.67,56.17-3.94,73.71,33,73.88,33.41l-3.54,1.62c-.66-1.42-16.71-34.9-70.07-31.15-35.66,2.5-59.25,32.89-67.57,50.45a259.84,259.84,0,0,1-15.33,28.3c-11,17.4-29.09,50.8-26.07,78.89,1.09,10.12,3.23,23.69,5.7,39.39,8,50.9,19,120.62,11.55,174.57C111.16,551,103.38,565.19,103.06,565.76Z" transform="translate(679.07 399.83)"/><path class="cls-16" d="M95,565.76l-3.38-1.93c.07-.13,7.81-14.68,17.37-83.66,7.39-53.38-3.55-122.76-11.54-173.42C95,291,92.87,277.39,91.77,267.16c-3.15-29.26,15.35-63.55,26.65-81.39a255.5,255.5,0,0,0,15.1-27.87c6.91-14.6,38.16-55.52,77.69-58.29,56.13-3.9,77.36,37,77.56,37.43l-3.48,1.75c-.19-.39-20.32-39.11-73.81-35.3-37.79,2.65-67.79,42-74.44,56.07a259.84,259.84,0,0,1-15.33,28.3c-11,17.4-29.09,50.8-26.07,78.89,1.09,10.12,3.22,23.69,5.7,39.39,8,50.9,19,120.62,11.54,174.57C103.14,551,95.37,565.19,95,565.76Z" transform="translate(679.07 399.83)"/><rect class="cls-13" x="131.16" y="145.26" width="32.12" height="16.85" rx="1.21" ry="1.21" transform="translate(775.64 346.81) rotate(30)"/><path class="cls-14" d="M85.38,272.39l-.73,12.05s27.07.34,33.45-1.88-3.91-12.51-3.91-12.51Z" transform="translate(679.07 399.83)"/></g></g></g></svg>