<svg id="Layer_1" data-name="Layer 1" xmlns="http://www.w3.org/2000/svg" xmlns:xlink="http://www.w3.org/1999/xlink" viewBox="0 0 1578.09 1073"><defs><style>.cls-1{fill:none;}.cls-2,.cls-22{fill:#ff3556;}.cls-2{opacity:0.09;}.cls-3{clip-path:url(#clip-path);}.cls-4{fill:#d1d1d1;}.cls-5{fill:#1a2e35;}.cls-6{fill:#bebebf;}.cls-7{fill:#eee;}.cls-8{fill:#fab977;}.cls-9{fill:#0086c3;}.cls-10{fill:#831454;}.cls-11{fill:#00a2ff;}.cls-12{fill:#ffbf9d;}.cls-13{fill:#4c2a1a;}.cls-14{fill:#e5e5e6;}.cls-15{fill:#eba05d;}.cls-16{fill:#9b1f63;}.cls-17{fill:#fff;}.cls-18{fill:#e1f0fd;}.cls-19{fill:#59adda;}.cls-20{fill:#d7ebf4;}.cls-21{fill:#c8d9e0;}.cls-22{opacity:0.7;}.cls-23{fill:#b9e0f9;}</style><clipPath id="clip-path" transform="translate(3.36 313.57)"><circle class="cls-1" cx="300" cy="300" r="300"/></clipPath></defs><title>fd</title><circle class="cls-2" cx="303.36" cy="613.57" r="300"/><g class="cls-3"><path class="cls-4" d="M882,317.14H434.84c-7.2,0-13,4.07-13,9.08v120h22.48V340.86c0-4.46,5.18-8.07,11.58-8.07H870.45c6.39,0,11.58,3.61,11.58,8.07V446.23H904.5v-120c0-5-5.83-9.08-13-9.08Z" transform="translate(3.36 313.57)"/><rect class="cls-5" x="27.61" y="1069.26" width="1550.48" height="1.75"/><path class="cls-4" d="M28.09,447.2h1416a31.45,31.45,0,0,0,31.45-31.45h0a31.45,31.45,0,0,0-31.45-31.44H28.09A31.45,31.45,0,0,0-3.36,415.75h0A31.45,31.45,0,0,0,28.09,447.2Z" transform="translate(3.36 313.57)"/><rect class="cls-4" x="239.56" y="760.78" width="22.63" height="286.56"/><rect class="cls-4" x="1390.71" y="760.78" width="22.63" height="308.48"/><rect class="cls-4" x="1047.38" y="760.78" width="22.63" height="286.56"/><rect class="cls-4" x="638.57" y="760.78" width="22.63" height="286.56"/><rect class="cls-4" x="239.56" y="943.64" width="1046.65" height="23.95"/><rect class="cls-4" x="911.69" y="943.64" width="501.65" height="23.95"/><circle class="cls-6" cx="247.52" cy="733.77" r="25.66" transform="translate(-262.06 467.19) rotate(-22.84)"/><circle class="cls-7" cx="247.52" cy="733.77" r="14.31" transform="translate(-489.14 1275.5) rotate(-88.49)"/><path class="cls-6" d="M620.86,733.77a25.67,25.67,0,1,1,25.67,25.66A25.67,25.67,0,0,1,620.86,733.77Z" transform="translate(3.36 313.57)"/><circle class="cls-7" cx="646.53" cy="733.77" r="14.31" transform="translate(-100.63 1674.35) rotate(-88.49)"/><circle class="cls-6" cx="1055.34" cy="733.77" r="25.66" transform="translate(-197.11 773.29) rotate(-22.5)"/><path class="cls-7" d="M1041,733.77a14.31,14.31,0,1,1,14.31,14.3A14.3,14.3,0,0,1,1041,733.77Z" transform="translate(3.36 313.57)"/><path class="cls-8" d="M1295.6,221.19c-11.55-14.93-19.25-4.91-19.54-3.19-4.86,29.14-11.56,74.3-14.28,77-7.6,7.65-96.72-.66-107.86-.28l-168.59-21.9A316.6,316.6,0,0,0,912,271l-144.13,5.93-158.89-.24c.51,21.1,17.46,40.09,16.63,60.85-.4,10.1-.85,20.24-1.12,30.38-.07,2.53,60.38,19.09,68.73,19,31.56-.52,63.43-4.34,94.57-9.22,45.23-7.09,91.18-6.22,134.34-21.64,20.36-7.27,35-13,57.61-11.37s44.84,7.66,66.86,13c28.32,6.85,59,12.78,87.88,5.8,37-8.93,88.18-26.75,126-22.65,12.39,1.34,20.89,12.52,32.13,5.54,13.86-8.62,6.91-23.47,7.21-37.18C1300,297.73,1304.32,232.45,1295.6,221.19Z" transform="translate(3.36 313.57)"/><path class="cls-9" d="M1249.94,340.38c-31,4.85-64.07,15.47-90.32,21.82-30.3,7.3-69.44,9.13-99.12,1.95-23.1-5.59-50.41-17.23-74.19-18.9s-27.94,1.54-49.28,9.17c-45.25,16.16-93.43,15.25-140.83,22.68-6.36,1-12.76,1.95-19.16,2.83-26.49,3.72-53.34,6.4-80,6.82-8.76.15-72.13-17.21-72-19.86.3-10.63.76-21.26,1.18-31.84.32-7.82-1.79-15.41-4.62-22.95-.67-13.85-8.76-22.36-12.64-35.4l166.38-5.19,152.44-6.26a332.15,332.15,0,0,1,76.92,1.93l175.37,23c6.24-.21,35.74,2.17,63.11,3.21.58,11.62,2.74,23.22,5.43,34.82a.17.17,0,0,0,0,.07C1248.92,332.32,1249.38,336.36,1249.94,340.38Z" transform="translate(3.36 313.57)"/><path class="cls-10" d="M1249.94,340.38c-31,4.85-64.07,15.47-90.32,21.82-30.3,7.3-69.44,9.13-99.12,1.95-23.1-5.59-50.41-17.23-74.19-18.9s-27.94,1.54-49.28,9.17c-45.25,16.16-93.43,15.25-140.83,22.68-6.36,1-12.76,1.95-19.16,2.83,0-.18-.06-.35-.1-.52-3.66-19.55,0-26.39,18.86-25.85,39.8,1.14,78-5.36,116.73-14.17,18.05-4.12,36.26-8.45,54.77-8.41,17,0,33.82,3.78,50.58,6.72a544.73,544.73,0,0,0,230.7-9.48.17.17,0,0,0,0,.07C1248.92,332.32,1249.38,336.36,1249.94,340.38Z" transform="translate(3.36 313.57)"/><path class="cls-8" d="M1301.37,237.37c-11.08-15.29-19.09-5.52-19.43-3.8-5.79,29-13.92,73.89-16.72,76.54-7.85,7.41-96.65-3.73-107.81-3.71l-167.8-27.25A316.73,316.73,0,0,0,916.33,275l-144.25,1.35L613.27,271c-.15,21.11,16.18,40.63,14.7,61.35-.73,10.08-1.5,20.2-2.09,30.33-.15,2.53,59.74,21,68.09,21.13,31.56.48,63.53-2.31,94.82-6.2,45.43-5.65,91.33-3.32,135-17.36,20.58-6.63,35.37-11.85,57.94-9.54s44.57,9.08,66.41,15.11c28.09,7.75,58.55,14.65,87.65,8.59,37.25-7.75,89-23.94,126.68-18.64,12.34,1.74,20.48,13.18,31.93,6.56,14.14-8.17,7.66-23.23,8.39-36.93C1303.36,314,1309.72,248.91,1301.37,237.37Z" transform="translate(3.36 313.57)"/><path class="cls-11" d="M1251,342.92c-2.31-11.69-4.11-23.39-4.32-35-27.33-1.92-56.74-5.24-63-5.22L1009.11,274.1a331.71,331.71,0,0,0-76.82-4.38l-152.55,1.41L613.27,271c3.47,13.16,11.29,21.92,11.51,35.79,2.6,7.62,4.46,15.27,3.9,23.08-.76,10.57-1.57,21.17-2.19,31.79-.16,2.65,62.62,22,71.38,22.15,33.08.5,66.59-2.43,99.39-6.51,47.62-5.91,95.74-3.48,141.47-18.19,21.58-6.94,25.9-10,49.55-7.59s50.66,14.92,73.55,21.24c29.45,8.12,68.62,7.54,99.13,1.19,26.46-5.5,59.88-15.06,91-18.93Q1251.28,349,1251,342.92Z" transform="translate(3.36 313.57)"/><path class="cls-12" d="M260.29,295.47q-9.83,31.15-19.63,62.29a8.78,8.78,0,0,1-1.78,3.62c-2.68,2.81-7.28,1.12-10.87-.33-17.32-7-36.85-4.3-55.32-1.48q5.48-14.26,10.94-28.55l6.93-18.1c3-7.95,6.54-16.46,13.78-20.94,2.8-1.72,10.32-1.81,19-1.18,3.83.28,7.88.68,11.85,1.17,9.22,1.09,18,2.48,22.29,3.15A25.9,25.9,0,0,0,260.29,295.47Z" transform="translate(3.36 313.57)"/><path class="cls-12" d="M244.21,254a18.94,18.94,0,0,0-4-9.25c-4.64-5.58-12.36-7.66-20.19-8.81-.86-.14-1.74-.25-2.6-.37-4.39-.55-14,.27-17.47-2.84-3.94-3.56,1.77-11.07-2.31-14.12-7.32-5.49-24,7.58-33,3.2-7.29-3.52-9.11-9-18.79-8.54-12.68.63-31.26-3.46-45.56-1.93-8.14,17-20,34.37-35,46.91a117.61,117.61,0,0,0,.56,25c5.66,38.22,55.46,41.26,85.52,45.52,11.44,1.63,22.29,2.79,32.32,2.32,19.47-.94,35.81-8.07,47.18-30.16.26-.48.5-.95.74-1.44,1.17-2.37,2.4-4.86,3.62-7.45C240.78,280.16,246.22,266.46,244.21,254Z" transform="translate(3.36 313.57)"/><path class="cls-13" d="M163.48,308.52c-3.84-.61-10.3,5.29-15,4.35a16.54,16.54,0,0,1-12.4-11.79,15.11,15.11,0,0,1-.33-3.27c-41.85-7,37.64-91.93-36.7-101.2-6.52-.81-10.89,1.68-11.53,6.62-4,30.59-43.58,32.7-48.21,61.88-1.12,7.1-.39,14.35.34,21.5,2.41,23.53,6.28,56.41,31.58,66.55,16.89,6.77,38.13,4.68,56,5.59l51.88,2.64c9.06.46,11.7,1.15,16.37-7.2a46.56,46.56,0,0,0,5.77-20.84c0,.94-17.76-6-19.62-7.08a47.39,47.39,0,0,1-9.67-7.54c-2-2-5.8-9.52-8.19-10.15Z" transform="translate(3.36 313.57)"/><path class="cls-14" d="M211.84,349.66H26.12c-4.47,0-8.09,8.95-8.09,20h0c0,11,3.62,20,8.09,20H211.84c4.47,0,8.09-9,8.09-20h0C219.93,358.61,216.31,349.66,211.84,349.66Z" transform="translate(3.36 313.57)"/><path class="cls-15" d="M257.46,295.12l-1.16.25q-12.74,2.76-25.49,5.49-15,3.24-29.95,6.46c7.77-5,15.71-10.24,22.46-16.52a60.94,60.94,0,0,0,10.32-12.27c6.16-9.85,8.23-22.17,6.56-33.83a18.94,18.94,0,0,1,4,9.25c2,12.51-3.43,26.21-9,38C244.39,293.06,253.14,294.45,257.46,295.12Z" transform="translate(3.36 313.57)"/><path class="cls-11" d="M247.39,294.53c32-22.59,66.11-45.45,105.06-49.86,17.18-1.94,34.52-.17,51.8-.27,19.6-.1,39.11-2.61,58.7-3,53-1.1,105,13.09,156.08,27.17,2.82.78,5.78,1.63,7.88,3.68,2.58,2.52,3.35,6.31,3.91,9.87a223,223,0,0,1-6.38,96.81c-.77,2.63-1.64,5.34-3.47,7.39-3,3.39-7.88,4.26-12.38,4.86C530,401.64,450,391.29,371,398.67c-34.48,3.23-69.88,9.75-103.2.34-10.65-3-21-7.73-29.12-15.28-12.43-11.59-16.94-29.73-14.16-46.18a56.71,56.71,0,0,1,9.9-23.34C238,309.15,243,297.62,247.39,294.53Z" transform="translate(3.36 313.57)"/><path class="cls-16" d="M857.39,368.14c0-.06-1.45.22-3.71.54h3.8Z" transform="translate(3.36 313.57)"/><path class="cls-8" d="M721,356.87c-6.55,7.68-19.86,13.26-31.28,12.54-13.38-.84-84.49,11.78-98.37,14.55-31.35,6.24-69.17-2.48-100.89-2.57-39.54-.12-29.31,4.13-68.85,3.46-42.17-.71-82.52-8.48-123-19.55-21.36-5.83-41.13-30.14-35.78-60.17,4.05-22.77,39.47-18.64,55.75-16.32q44.1,6.3,87.9,14.37c23.38,4.32,54.37,5.33,75.83,16,.17.08.32.18.48.26a97.76,97.76,0,0,0,11.14.46l1,0c.13,0,.25,0,.38,0,20.87.86,41.82-.12,62.71.32,27.78.57,54.75,7.75,82.18,11.23,8.31,1,18.32,3.81,26.62,3.38,10.93-.58,20.72-5.83,32-5.17C712.81,330.44,734.21,341.36,721,356.87Z" transform="translate(3.36 313.57)"/><path class="cls-8" d="M749.78,325a7.08,7.08,0,0,0-7.63,1.73c-7.38-4.09-15.23-6.51-23.81-4.09a5.9,5.9,0,0,0-3.14-1.13c-9-.74-17.89-.13-26.22,3.86a21.06,21.06,0,0,0-8.21,6.43c-2.56,3.53-1.77,7.35-3.47,11a5.33,5.33,0,0,0-.48,3.48c-5.51,4.63-7.47,13.16.11,18.07,10.74,7,26.06,8.36,39,8.52a44.66,44.66,0,0,0,21.53-5.24,30.26,30.26,0,0,0,16.41-11.28l.17-.14a14.42,14.42,0,0,0,1.33-1.24c9.27-6.58,7.74-22.08,6.72-31.86C761.29,315.52,749.13,317.52,749.78,325Zm-14.71,16a60.4,60.4,0,0,1-6,4.46l-.51.06c1-.09-3.63-.15-4.83-.27l-.48-.06a5,5,0,0,0,.32-3.6c-.11-.44-.25-.61-.33-.66a2.12,2.12,0,0,0,1.1-.16,43.44,43.44,0,0,1,5.77-1.56c2.5-.46,5-.74,7.53-1A12.7,12.7,0,0,0,735.07,341Z" transform="translate(3.36 313.57)"/><path class="cls-11" d="M374.81,285.74c-5.51-3.89-12.32-4.88-19-5.62-10.86-1.2-21.64-3.07-32.57-3.57-16.93-.79-36.53,0-51.11,9.84-31.38,21.12-69.12,67.61-43,82,9.21,5.07,80.1,6.28,90.26,8.71,10.48,2.5,21.53,4.5,32.32,3.25a2.88,2.88,0,0,0,2.79-2.78c1.63-31,11.78-60.63,24.79-88.54C380.74,286,376.57,283.33,374.81,285.74Z" transform="translate(3.36 313.57)"/><rect class="cls-4" x="983.38" y="509.39" width="495.52" height="251.39" rx="10.86" ry="10.86"/><path class="cls-9" d="M454.86,432.13c1.57-99.58,74.76-183.28,74.76-183.28,67.86-20.91,148.4-8.68,396.88,1.73,64.6,2.71,38.27-.54,163.35,2.52,282.47,6.9,121.14,185.33,109.63,179Z" transform="translate(3.36 313.57)"/><path class="cls-12" d="M721,356.87c-6.55,7.68-19.86,13.26-31.28,12.54-13.38-.84-84.49,11.78-98.37,14.55-31.35,6.24-69.17-2.48-100.89-2.57-39.54-.12-29.31,4.13-68.85,3.46-42.17-.71-82.52-8.48-123-19.55-21.36-5.83-41.13-30.14-35.78-60.17,4.05-22.77,39.47-18.64,55.75-16.32q44.1,6.3,87.9,14.37c23.38,4.32,54.37,5.33,75.83,16,.17.08.32.18.48.26a97.76,97.76,0,0,0,11.14.46l1,0c.13,0,.25,0,.38,0,20.87.86,41.82-.12,62.71.32,27.78.57,54.75,7.75,82.18,11.23,8.31,1,18.32,3.81,26.62,3.38,10.93-.58,20.72-5.83,32-5.17C712.81,330.44,734.21,341.36,721,356.87Z" transform="translate(3.36 313.57)"/><path class="cls-12" d="M749.78,325a7.08,7.08,0,0,0-7.63,1.73c-7.38-4.09-15.23-6.51-23.81-4.09a5.9,5.9,0,0,0-3.14-1.13c-9-.74-17.89-.13-26.22,3.86a21.06,21.06,0,0,0-8.21,6.43c-2.56,3.53-1.77,7.35-3.47,11a5.33,5.33,0,0,0-.48,3.48c-5.51,4.63-7.47,13.16.11,18.07,10.74,7,26.06,8.36,39,8.52a44.66,44.66,0,0,0,21.53-5.24,30.26,30.26,0,0,0,16.41-11.28l.17-.14a14.42,14.42,0,0,0,1.33-1.24c9.27-6.58,7.74-22.08,6.72-31.86C761.29,315.52,749.13,317.52,749.78,325Zm-14.71,16a60.4,60.4,0,0,1-6,4.46l-.51.06c1-.09-3.63-.15-4.83-.27l-.48-.06a5,5,0,0,0,.32-3.6c-.11-.44-.25-.61-.33-.66a2.12,2.12,0,0,0,1.1-.16,43.44,43.44,0,0,1,5.77-1.56c2.5-.46,5-.74,7.53-1A12.7,12.7,0,0,0,735.07,341Z" transform="translate(3.36 313.57)"/><path class="cls-11" d="M374.81,285.74c-5.51-3.89-12.32-4.88-19-5.62-10.86-1.2-21.64-3.07-32.57-3.57-16.93-.79-36.53,0-51.11,9.84-31.38,21.12-69.12,67.61-43,82,9.21,5.07,80.1,6.28,90.26,8.71,10.48,2.5,21.53,4.5,32.32,3.25a2.88,2.88,0,0,0,2.79-2.78c1.63-31,11.78-60.63,24.79-88.54C380.74,286,376.57,283.33,374.81,285.74Z" transform="translate(3.36 313.57)"/><rect class="cls-4" x="983.38" y="509.39" width="495.52" height="251.39" rx="10.86" ry="10.86"/><path class="cls-17" d="M634.16-270.5c-2.56,0-4.63-3.21-4.63-7.17v-28.74c0-4,2.07-7.16,4.63-7.16s4.64,3.2,4.64,7.16v28.74C638.8-273.71,636.72-270.5,634.16-270.5Z" transform="translate(3.36 313.57)"/><path class="cls-17" d="M727-270.5c-2.57,0-4.64-3.21-4.64-7.17v-28.74c0-4,2.07-7.16,4.64-7.16s4.63,3.2,4.63,7.16v28.74C731.63-273.71,729.56-270.5,727-270.5Z" transform="translate(3.36 313.57)"/><path class="cls-17" d="M678.37-78.68c-2.56,0-4.63-3.63-4.63-8.12v-24.26H683V-86.8C683-82.31,680.93-78.68,678.37-78.68Z" transform="translate(3.36 313.57)"/><path class="cls-11" d="M689.36-38c0,4.47-2.47,8.12-5.5,8.12h-11c-3,0-5.49-3.65-5.49-8.12V-62.66l22-.22Z" transform="translate(3.36 313.57)"/><path class="cls-18" d="M683.86-86.7h-11c-3,0-5.49,3.66-5.49,8.12v16.23h22V-78.58C689.36-83,686.89-86.7,683.86-86.7Z" transform="translate(3.36 313.57)"/><path class="cls-18" d="M738-277.06v139.11a39.16,39.16,0,0,1-9.57,26l-.12.14a30.3,30.3,0,0,1-22.58,10.54H650.88A30.31,30.31,0,0,1,628.15-112h0a39.22,39.22,0,0,1-9.42-25.84V-277.06Z" transform="translate(3.36 313.57)"/><path class="cls-11" d="M731.47-188.38v43.59A34.92,34.92,0,0,1,723-121.62l-.12.12a27,27,0,0,1-20.11,9.39H653.89a27,27,0,0,1-20.24-9.54h0a34.92,34.92,0,0,1-8.39-23v-43.72Z" transform="translate(3.36 313.57)"/><path class="cls-17" d="M846.41,748.48l-13.67-8.33a16.15,16.15,0,0,0-8.41-2.4H784.12v-1043c0-4.52-3.18-8.19-7.14-8.29v0H591.32c-4,0-5.4,2.35-5.4,5.26s1.45,5.27,5.4,5.27H774.85V737.75H731.46a16.2,16.2,0,0,0-8.41,2.4l-13.66,8.33c-4.25,2.58-2.63,9.9,2.18,9.9a4.17,4.17,0,0,0,2.19-.62l13.49-8.21a8.44,8.44,0,0,1,4.42-1.26h90.82a14.34,14.34,0,0,1,7.5,2.14l12,7.33a4.2,4.2,0,0,0,2.19.62h0C849,758.38,850.66,751.06,846.41,748.48Z" transform="translate(3.36 313.57)"/><path class="cls-9" d="M214.32,230.63l-15.7-.84c-1.16,0-2.32,0-2.33-1.12l0-2.08c0-1.16,1.27-1,2.43-1l15.56-1.23a2.1,2.1,0,0,1,2.13,2.09l0,2.08A2.11,2.11,0,0,1,214.32,230.63Z" transform="translate(3.36 313.57)"/><path class="cls-19" d="M676.81,59.85c-2.52-25.7,0-96.58,0-97.3v-.25l3.12.11v.25c0,.71-2.5,71.4,0,96.88l0,.25-3.11.31Z" transform="translate(3.36 313.57)"/><path class="cls-20" d="M677.06-37.44l2.62.09c0,.72-2.51,71.36,0,96.92l-2.62.26c-2.52-25.74,0-96.56,0-97.27m-.49-.52v.5c0,.71-2.53,71.43,0,97.33l.05.5.5,0,2.61-.25.5,0-.05-.5c-2.51-25.65,0-96.14,0-96.85l0-.5-.5,0-2.63-.09-.5,0Z" transform="translate(3.36 313.57)"/><path class="cls-20" d="M195.48,217.52l-9.74,1S192.77,215.94,195.48,217.52Z" transform="translate(3.36 313.57)"/><path class="cls-20" d="M195.48,217.52v22.25h-9.74V218.49S192.77,215.94,195.48,217.52Z" transform="translate(3.36 313.57)"/><path class="cls-20" d="M195.48,217.52s5.58.5,3.22,8-3.66,8.69-3.66,8.69l.44-16.52Z" transform="translate(3.36 313.57)"/><path class="cls-21" d="M356.2,261.47a.77.77,0,0,1-1,.41c-35.16-15.56-81.89-26.35-138.89-32.07l.26-2.61C274.63,233,322,239.76,357.93,255.59a.8.8,0,0,1,.4,1.06Z" transform="translate(3.36 313.57)"/><rect class="cls-22" x="345.39" y="256.41" width="22.92" height="4.83" rx="0.36" ry="0.36" transform="translate(131.38 195.61) rotate(22.78)"/><path class="cls-23" d="M454.6,461.92c-2.57,0-5.12-.1-7.59-.31-55.94-4.6-94.26-48.14-94.64-48.58l-.23-.37c-.13-.23-12.13-22-52.91-43.61-16.82-8.92-26.41-20.95-28.48-35.76-2-14.18,3.91-25.85,5.26-27.15.14-.15,14.66-15.84,5.13-52.93-5.85-22.8-33.19-26.21-49-26.21a107.94,107.94,0,0,0-15.51,1.05l-.32,0-.54-3.23.33-.06A110.08,110.08,0,0,1,232,223.74c16.79,0,45.9,3.72,52.31,28.65,10,39-5.87,55.95-6,56.11-.68.76-6.45,11.93-4.11,25.51,2.28,13.19,11.22,24,26.59,32.14,42,22.25,53.74,44.07,54.22,45,1.53,1.68,39.28,42.84,92.29,47.2,2.37.2,4.81.3,7.23.3,26.28,0,51.4-11.27,73.55-21.21,19.62-8.79,38.12-17.09,55.2-17.09a47.35,47.35,0,0,1,7.82.63l.33,0-.54,3.24-.32-.06a45.23,45.23,0,0,0-7.29-.58c-16.39,0-34.58,8.16-53.83,16.8C506.94,450.5,481.49,461.92,454.6,461.92Z" transform="translate(3.36 313.57)"/><path class="cls-9" d="M232,224.07c18,0,45.75,4.1,52,28.4,10,39.07-5.78,55.64-5.94,55.8-.7.76-6.57,12.07-4.2,25.8,2.29,13.29,11.29,24.18,26.76,32.37,42,22.24,53.6,43.94,54.08,44.85,3,3.33,40,43,92.56,47.38,2.43.2,4.84.29,7.25.29,26.3,0,51.36-11.21,73.69-21.23,19.49-8.74,38-17.06,55.06-17.06a46.72,46.72,0,0,1,7.77.62l-.43,2.59a44.6,44.6,0,0,0-7.34-.59c-16.46,0-34.77,8.21-54,16.84-22.55,10.11-47.86,21.46-74.67,21.46q-3.77,0-7.56-.31c-55.65-4.58-94-48-94.42-48.47l-.2-.32c-.12-.22-11.87-21.92-53-43.73-16.73-8.86-26.26-20.82-28.32-35.52-2-14,3.84-25.58,5.17-26.86.15-.15,14.73-16.24,5.22-53.26-5.8-22.58-32-26.44-49.29-26.44a110.4,110.4,0,0,0-15.56,1l-.43-2.58A109,109,0,0,1,232,224.07m0-.66a110,110,0,0,0-15.94,1.08l-.64.11.1.64.43,2.59.1.65.65-.11a109.52,109.52,0,0,1,15.46-1c15.68,0,42.85,3.37,48.65,25.95,9.44,36.75-4.9,52.49-5.05,52.64-1.36,1.31-7.35,13.13-5.35,27.41,2.09,14.93,11.74,27,28.66,36,40.8,21.62,52.64,43.24,52.76,43.46l.23.37c.44.51,38.84,44.15,94.92,48.77,2.47.2,5,.31,7.61.31,27,0,52.45-11.44,74.94-21.53,19.25-8.63,37.4-16.77,53.72-16.77a43.39,43.39,0,0,1,7.23.58l.65.11.11-.65.43-2.59.11-.65-.65-.11a48.09,48.09,0,0,0-7.88-.63c-17.15,0-35.68,8.31-55.3,17.11-22.16,9.94-47.24,21.19-73.45,21.19-2.42,0-4.84-.1-7.2-.29-52.38-4.32-89.83-44.65-92.07-47.11-.9-1.68-13-23.18-54.32-45.05C285.65,357.77,276.76,347,274.5,334c-2.31-13.41,3.33-24.42,4.05-25.25.13-.13,16.19-17,6.08-56.4-6.46-25.14-35.74-28.9-52.62-28.9Z" transform="translate(3.36 313.57)"/></g></svg>