<svg width="690" height="603" viewBox="0 0 690 603" fill="none" xmlns="http://www.w3.org/2000/svg">
<circle opacity="0.0770322" cx="344.5" cy="301.5" r="301.5" fill="#E13856"/>
<mask id="mask0" mask-type="alpha" maskUnits="userSpaceOnUse" x="61" y="496" width="629" height="2">
<path fill-rule="evenodd" clip-rule="evenodd" d="M61.835 496.306H689.82V497.306H61.835V496.306Z" fill="white"/>
</mask>
<g mask="url(#mask0)">
<path fill-rule="evenodd" clip-rule="evenodd" d="M689.82 496.805C689.82 496.884 549.23 496.948 375.843 496.948C202.396 496.948 61.835 496.884 61.835 496.805C61.835 496.727 202.396 496.663 375.843 496.663C549.23 496.663 689.82 496.727 689.82 496.805Z" fill="#1A2E35"/>
</g>
<path fill-rule="evenodd" clip-rule="evenodd" d="M406 346H161.012L53.696 239.966C46.8051 233.158 47.6064 221.82 55.3866 216.045L60.8356 212L277.952 215.219L406 346Z" fill="#E9E9E9"/>
<path fill-rule="evenodd" clip-rule="evenodd" d="M163 348.955L142.745 364L50.0752 239.517C44.947 232.63 46.3798 222.893 53.2758 217.771L61.0451 212L163 348.955Z" fill="#D2D2D2"/>
<path fill-rule="evenodd" clip-rule="evenodd" d="M54.3748 364H656.624C664.011 364 670 357.955 670 350.501C670 343.043 664.011 337 656.624 337H54.3748C46.9876 337 41 343.043 41 350.501C41 357.955 46.9876 364 54.3748 364Z" fill="#D2D2D2"/>
<mask id="mask1" mask-type="alpha" maskUnits="userSpaceOnUse" x="0" y="59" width="690" height="449">
<path fill-rule="evenodd" clip-rule="evenodd" d="M0 508H690V59H0V508Z" fill="white"/>
</mask>
<g mask="url(#mask1)">
<path fill-rule="evenodd" clip-rule="evenodd" d="M142 486H152V364H142V486Z" fill="#D2D2D2"/>
<path fill-rule="evenodd" clip-rule="evenodd" d="M632 486H642V364H632V486Z" fill="#D2D2D2"/>
<path fill-rule="evenodd" clip-rule="evenodd" d="M486 486H496V364H486V486Z" fill="#D2D2D2"/>
<path fill-rule="evenodd" clip-rule="evenodd" d="M312 486H322V364H312V486Z" fill="#D2D2D2"/>
<path fill-rule="evenodd" clip-rule="evenodd" d="M143 452H588V442H143V452Z" fill="#D2D2D2"/>
<path fill-rule="evenodd" clip-rule="evenodd" d="M429 452H642V442H429V452Z" fill="#D2D2D2"/>
<path fill-rule="evenodd" clip-rule="evenodd" d="M136 485.999C136 479.924 140.925 475 146.999 475C153.075 475 158 479.924 158 485.999C158 492.074 153.075 497 146.999 497C140.925 497 136 492.074 136 485.999Z" fill="#BFBFC0"/>
<path fill-rule="evenodd" clip-rule="evenodd" d="M141 486C141 482.686 143.686 480 146.999 480C150.314 480 153 482.686 153 486C153 489.314 150.314 492 146.999 492C143.686 492 141 489.314 141 486Z" fill="#EFEFEF"/>
<path fill-rule="evenodd" clip-rule="evenodd" d="M306 485.999C306 479.924 310.924 475 316.999 475C323.074 475 328 479.924 328 485.999C328 492.074 323.074 497 316.999 497C310.924 497 306 492.074 306 485.999Z" fill="#BFBFC0"/>
<path fill-rule="evenodd" clip-rule="evenodd" d="M311 486C311 482.686 313.686 480 317.001 480C320.314 480 323 482.686 323 486C323 489.314 320.314 492 317.001 492C313.686 492 311 489.314 311 486Z" fill="#EFEFEF"/>
<path fill-rule="evenodd" clip-rule="evenodd" d="M480 485.999C480 479.924 484.924 475 490.999 475C497.076 475 502 479.924 502 485.999C502 492.074 497.076 497 490.999 497C484.924 497 480 492.074 480 485.999Z" fill="#BFBFC0"/>
<path fill-rule="evenodd" clip-rule="evenodd" d="M485 486C485 482.686 487.686 480 491.001 480C494.314 480 497 482.686 497 486C497 489.314 494.314 492 491.001 492C487.686 492 485 489.314 485 486Z" fill="#EFEFEF"/>
<path fill-rule="evenodd" clip-rule="evenodd" d="M62 233V343H76V248.061L62 233Z" fill="#D2D2D2"/>
<path fill-rule="evenodd" clip-rule="evenodd" d="M266 239L317 258.558L289.571 263L270.682 250.094L266 239Z" fill="#FFBF9D"/>
<path fill-rule="evenodd" clip-rule="evenodd" d="M358.035 338.99C360.033 339.751 390.458 296.07 386.675 283.873C386.49 283.279 321.123 270.687 310.279 267.632C286.347 260.882 259.327 236.792 245.812 234.524C217.81 229.827 171.401 257.625 178.785 281.607C189.918 317.752 210.981 339 246.309 338.673C247.567 338.66 355.833 338.197 358.035 338.99Z" fill="#00A3FF"/>
<path fill-rule="evenodd" clip-rule="evenodd" d="M238 233.252C238 233.252 252.279 230.97 277 240.132C277 240.132 275.295 247.26 267.622 251.473C259.95 255.685 238 233.252 238 233.252Z" fill="#00A3FF"/>
<path fill-rule="evenodd" clip-rule="evenodd" d="M578 289.936C578 289.936 451.968 291.432 393.5 273.643C335.032 255.853 287.502 257.016 287.502 257.016C287.502 257.016 249.193 296.874 239.884 333.374C239.296 335.685 239 338.062 239 340.448V383.041C239 383.041 309.904 365.602 394.754 383.041C459.995 396.449 573.313 383.041 573.313 383.041L578 289.936Z" fill="#0087C4"/>
<path fill-rule="evenodd" clip-rule="evenodd" d="M194.734 300.404C194.734 300.404 265.194 330.501 280.037 327.832C294.881 325.162 334 283.539 334 283.539L326.545 278.254L276.003 305.564C276.003 305.564 229.626 281.232 209.71 268.828C198.986 262.148 188.845 297.992 194.734 300.404Z" fill="#FFBF9D"/>
<path fill-rule="evenodd" clip-rule="evenodd" d="M241.918 287.193C238.128 300.837 239.431 307.272 222.734 316.943C220.002 318.524 215.097 321 215.097 321C207.196 313.358 183.106 300.005 179.048 281.446C178.668 279.704 180.619 276.251 181.884 274.996C186.673 270.247 199.335 260.81 209.771 263.461C219.053 265.816 233.661 274.485 241.446 279.379C244.031 281.002 242.809 283.987 241.918 287.193Z" fill="#00A3FF"/>
<path fill-rule="evenodd" clip-rule="evenodd" d="M327 278.562C327 278.562 330.027 270.648 330.816 268.62C331.604 266.593 337.605 261.445 337.843 262.884C338.078 264.325 335.79 267.509 336.657 267.619C337.525 267.728 341.158 260.921 343.606 261.001C346.053 261.083 344.711 269.818 343.843 273.791C342.974 277.762 334.39 284 334.39 284L327 278.562Z" fill="#FFBF9D"/>
<path fill-rule="evenodd" clip-rule="evenodd" d="M657.861 364H471.14C464.463 364 459 358.54 459 351.866V269.135C459 262.462 464.463 257 471.14 257H657.861C664.538 257 670 262.462 670 269.135V351.866C670 358.54 664.538 364 657.861 364Z" fill="#D2D2D2"/>
<path fill-rule="evenodd" clip-rule="evenodd" d="M203.196 188.737C195.863 179.404 182.546 177.237 172.593 183.747L171.604 184.394C161.349 191.989 162.112 204.884 170.038 214.857L197.696 252.326C200.9 256.715 206.785 258.23 211.73 255.939L221.097 251.601C225.866 249.392 227.48 243.457 224.489 239.157C223.552 237.809 219.317 232.372 218.061 230.614C218.061 230.614 227.265 222.323 220.641 212.059C217.442 207.099 210.017 197.419 203.196 188.737Z" fill="#FFBF9D"/>
<path fill-rule="evenodd" clip-rule="evenodd" d="M218.351 230C218.351 230 211.934 234.916 202 235.135C202 235.135 210.183 240.671 220 232.668L218.351 230Z" fill="#FF9A6C"/>
<path fill-rule="evenodd" clip-rule="evenodd" d="M203.735 196.592C204.205 197.252 204.033 198.193 203.349 198.694C202.669 199.195 201.735 199.068 201.265 198.408C200.795 197.75 200.967 196.809 201.648 196.307C202.33 195.805 203.265 195.932 203.735 196.592Z" fill="#1A2E35"/>
<path fill-rule="evenodd" clip-rule="evenodd" d="M203.998 194.422C203.941 194.716 202.264 194.63 200.663 195.618C199.049 196.582 198.417 198.074 198.114 197.997C197.97 197.968 197.928 197.527 198.195 196.865C198.454 196.209 199.077 195.345 200.078 194.736C201.079 194.128 202.161 193.955 202.892 194.009C203.633 194.059 204.031 194.284 203.998 194.422Z" fill="#1A2E35"/>
<path fill-rule="evenodd" clip-rule="evenodd" d="M188.735 207.592C189.206 208.252 189.033 209.193 188.349 209.694C187.669 210.195 186.735 210.068 186.265 209.408C185.795 208.75 185.967 207.808 186.648 207.306C187.33 206.805 188.265 206.933 188.735 207.592Z" fill="#1A2E35"/>
<path fill-rule="evenodd" clip-rule="evenodd" d="M188.998 205.421C188.941 205.716 187.263 205.631 185.663 206.619C184.049 207.583 183.417 209.074 183.113 208.997C182.971 208.97 182.927 208.529 183.195 207.865C183.455 207.209 184.077 206.344 185.078 205.736C186.079 205.128 187.161 204.956 187.892 205.009C188.632 205.06 189.031 205.284 188.998 205.421Z" fill="#1A2E35"/>
<path fill-rule="evenodd" clip-rule="evenodd" d="M202.455 212.992C202.387 212.905 203.264 212.07 204.731 210.79C205.11 210.477 205.441 210.136 205.327 209.808C205.229 209.447 204.771 209.115 204.264 208.766C203.234 208.024 202.156 207.243 201.026 206.426C196.459 203.067 192.868 200.196 193.004 200.009C193.138 199.824 196.95 202.395 201.515 205.755C202.631 206.591 203.697 207.385 204.714 208.148C205.171 208.515 205.78 208.869 205.973 209.626C206.064 210.008 205.912 210.432 205.697 210.677C205.489 210.932 205.263 211.09 205.07 211.236C203.515 212.403 202.521 213.08 202.455 212.992Z" fill="#1A2E35"/>
<path fill-rule="evenodd" clip-rule="evenodd" d="M184.993 198.279C185.123 198.828 183.37 199.689 181.623 201.178C179.845 202.632 178.681 204.207 178.169 203.978C177.932 203.861 177.926 203.267 178.266 202.428C178.599 201.593 179.312 200.536 180.368 199.653C181.425 198.773 182.588 198.262 183.465 198.087C184.347 197.907 184.924 198.023 184.993 198.279Z" fill="#1A2E35"/>
<path fill-rule="evenodd" clip-rule="evenodd" d="M201 190.605C200.956 191.149 199.541 191.495 198.142 192.341C196.71 193.143 195.748 194.181 195.216 193.973C194.97 193.865 194.904 193.388 195.179 192.727C195.449 192.072 196.103 191.267 197.075 190.7C198.048 190.134 199.102 189.945 199.84 190.013C200.588 190.077 201.008 190.348 201 190.605Z" fill="#1A2E35"/>
<path fill-rule="evenodd" clip-rule="evenodd" d="M177.049 221C176.827 221.04 168.723 223.631 173.51 230.702C178.297 237.772 184.124 231.309 183.998 231.096C183.873 230.885 177.049 221 177.049 221Z" fill="#FFBF9D"/>
<path fill-rule="evenodd" clip-rule="evenodd" d="M180.94 229.515C180.893 229.514 180.878 229.675 180.738 229.899C180.6 230.117 180.296 230.406 179.831 230.518C178.893 230.753 177.429 230.065 176.497 228.907C176.025 228.323 175.728 227.667 175.598 227.047C175.449 226.427 175.53 225.874 175.859 225.568C176.171 225.243 176.595 225.277 176.822 225.404C177.056 225.526 177.111 225.686 177.157 225.672C177.189 225.676 177.225 225.464 176.962 225.23C176.834 225.12 176.634 225.019 176.372 225.002C176.106 224.985 175.807 225.082 175.566 225.28C175.047 225.671 174.911 226.457 175.053 227.135C175.166 227.838 175.485 228.585 176.014 229.241C177.063 230.531 178.73 231.289 179.958 230.896C180.547 230.692 180.856 230.281 180.953 229.986C181.049 229.681 180.974 229.511 180.94 229.515Z" fill="#FF9A6C"/>
<path fill-rule="evenodd" clip-rule="evenodd" d="M167.577 197.59L197 179.16C194.775 177.763 192.106 177.229 189.48 177.06C183.822 176.697 178.008 177.97 173.223 180.996C168.438 184.023 162.62 196.08 161.351 201.574C160.336 205.971 161.847 208.204 161.847 208.204C163.898 212.227 168.829 215.093 172.108 218.213C173.798 219.823 178.441 225 178.441 225C178.441 225 178.442 225 178.442 224.999C180.036 223.944 179.789 222.289 178.501 220.879L174.103 214.914C174.103 214.914 176.983 207.503 169.734 202.17C168.947 201.882 166.359 199.894 167.577 197.59Z" fill="#1A2E35"/>
<path fill-rule="evenodd" clip-rule="evenodd" d="M188.643 215.644C188.571 215.716 188.448 215.71 188.369 215.63C188.289 215.55 188.285 215.427 188.358 215.355C188.431 215.284 188.554 215.29 188.632 215.37C188.711 215.449 188.716 215.572 188.643 215.644Z" fill="#FF9A6C"/>
<path fill-rule="evenodd" clip-rule="evenodd" d="M190.664 212.665C190.59 212.737 190.458 212.723 190.368 212.631C190.278 212.539 190.263 212.407 190.336 212.335C190.408 212.263 190.541 212.278 190.632 212.37C190.722 212.462 190.737 212.594 190.664 212.665Z" fill="#FF9A6C"/>
<path fill-rule="evenodd" clip-rule="evenodd" d="M192.697 210.731C192.619 210.797 192.468 210.748 192.358 210.621C192.25 210.493 192.224 210.335 192.302 210.269C192.381 210.203 192.532 210.252 192.64 210.379C192.75 210.506 192.775 210.664 192.697 210.731Z" fill="#FF9A6C"/>
<path fill-rule="evenodd" clip-rule="evenodd" d="M190.565 216.599C190.48 216.656 190.381 216.657 190.345 216.602C190.309 216.547 190.349 216.456 190.435 216.401C190.52 216.344 190.619 216.343 190.655 216.398C190.691 216.453 190.651 216.542 190.565 216.599Z" fill="#FF9A6C"/>
<path fill-rule="evenodd" clip-rule="evenodd" d="M193.631 213.666C193.55 213.729 193.427 213.707 193.355 213.615C193.282 213.524 193.288 213.398 193.369 213.335C193.449 213.271 193.573 213.294 193.646 213.385C193.718 213.477 193.711 213.602 193.631 213.666Z" fill="#FF9A6C"/>
<path fill-rule="evenodd" clip-rule="evenodd" d="M206.647 202.649C206.575 202.721 206.45 202.712 206.368 202.63C206.287 202.548 206.28 202.422 206.353 202.351C206.425 202.279 206.55 202.287 206.632 202.37C206.713 202.452 206.72 202.577 206.647 202.649Z" fill="#FF9A6C"/>
<path fill-rule="evenodd" clip-rule="evenodd" d="M208.647 200.682C208.567 200.746 208.437 200.717 208.356 200.617C208.275 200.516 208.273 200.382 208.352 200.318C208.433 200.253 208.564 200.283 208.645 200.383C208.725 200.484 208.726 200.618 208.647 200.682Z" fill="#FF9A6C"/>
<path fill-rule="evenodd" clip-rule="evenodd" d="M204.615 203.616C204.542 203.688 204.431 203.695 204.368 203.631C204.304 203.566 204.312 203.456 204.386 203.385C204.459 203.312 204.569 203.305 204.633 203.37C204.695 203.433 204.687 203.544 204.615 203.616Z" fill="#FF9A6C"/>
<path fill-rule="evenodd" clip-rule="evenodd" d="M207.68 204.616C207.624 204.702 207.499 204.72 207.4 204.656C207.3 204.592 207.264 204.47 207.319 204.384C207.375 204.298 207.5 204.279 207.6 204.344C207.701 204.408 207.736 204.53 207.68 204.616Z" fill="#FF9A6C"/>
<path fill-rule="evenodd" clip-rule="evenodd" d="M209.549 203.649C209.451 203.68 209.351 203.639 209.323 203.557C209.297 203.475 209.355 203.383 209.452 203.351C209.549 203.32 209.651 203.36 209.677 203.442C209.703 203.524 209.647 203.617 209.549 203.649Z" fill="#FF9A6C"/>
<path fill-rule="evenodd" clip-rule="evenodd" d="M161.346 201.712C158.918 199.678 157.781 196.388 158.035 193.25C158.288 190.113 160.145 187.142 162.867 185.515C164.263 184.681 165.868 184.179 167.123 183.149C169.457 181.23 170.064 177.965 171.75 175.468C174.378 171.578 179.923 169.924 184.286 171.731C186.045 172.457 187.706 173.693 189.611 173.628C191.259 173.574 192.697 172.548 194.277 172.078C197.469 171.13 201.164 172.733 202.863 175.572C204.562 178.41 204.299 182.199 202.458 184.95C200.618 187.702 197.369 189.396 194.043 189.648C191.041 189.875 187.697 189.1 185.235 190.816C182.684 192.593 182.034 196.505 179.146 197.671C177.632 198.282 175.921 197.938 174.313 197.64C172.706 197.34 170.94 197.122 169.524 197.933C168.11 198.744 168.638 201.059 169.968 202L161.346 201.712Z" fill="#1A2E35"/>
<path fill-rule="evenodd" clip-rule="evenodd" d="M193.961 175C193.968 175 193.975 175.046 193.983 175.135C193.989 175.225 194.004 175.358 193.999 175.536C194 175.887 193.965 176.411 193.794 177.062C193.622 177.71 193.303 178.484 192.732 179.247C192.165 180.007 191.315 180.744 190.209 181.186C189.113 181.633 187.761 181.804 186.398 181.449C185.033 181.095 183.797 180.224 182.385 179.677C181.681 179.404 180.919 179.244 180.147 179.329C179.375 179.421 178.616 179.726 177.948 180.196C177.283 180.67 176.721 181.32 176.329 182.073C175.946 182.836 175.783 183.702 175.865 184.586C175.937 185.472 176.147 186.357 176.136 187.276C176.149 188.19 175.757 189.148 175.029 189.686C174.313 190.234 173.44 190.416 172.624 190.457C171.799 190.503 170.995 190.357 170.246 190.194C168.758 189.876 167.283 189.553 166.026 190.045C164.771 190.516 163.973 191.643 163.571 192.713C163.162 193.807 163.149 194.898 163.282 195.82C163.416 196.743 163.674 197.516 163.915 198.128C164.158 198.742 164.383 199.204 164.537 199.518C164.69 199.829 164.772 199.994 164.76 200C164.755 200.002 164.729 199.966 164.681 199.891C164.632 199.815 164.561 199.702 164.477 199.55C164.305 199.246 164.058 198.792 163.795 198.18C163.533 197.57 163.253 196.793 163.096 195.848C162.942 194.911 162.938 193.775 163.35 192.628C163.755 191.509 164.575 190.302 165.928 189.779C167.284 189.239 168.826 189.579 170.306 189.885C171.059 190.043 171.822 190.177 172.609 190.129C173.385 190.088 174.198 189.905 174.83 189.418C175.472 188.937 175.811 188.122 175.803 187.27C175.814 186.413 175.607 185.536 175.532 184.614C175.442 183.689 175.621 182.725 176.033 181.916C176.452 181.11 177.052 180.423 177.761 179.919C178.472 179.423 179.283 179.098 180.112 179.004C180.947 178.914 181.769 179.095 182.494 179.383C183.952 179.96 185.166 180.828 186.469 181.174C187.763 181.524 189.063 181.375 190.124 180.96C191.194 180.548 192.02 179.856 192.585 179.129C193.152 178.4 193.482 177.653 193.667 177.024C194.032 175.754 193.914 174.995 193.961 175Z" fill="#375A64"/>
<path fill-rule="evenodd" clip-rule="evenodd" d="M199.378 172.001C199.389 171.988 199.579 172.139 199.849 172.486C200.117 172.83 200.453 173.388 200.698 174.151C200.938 174.912 201.077 175.881 200.955 176.941C200.838 178.003 200.441 179.127 199.808 180.157C198.524 182.237 196.641 183.432 195.293 184.109C194.609 184.449 194.035 184.676 193.635 184.818C193.234 184.958 193.007 185.016 193 184.996C192.98 184.941 193.862 184.615 195.191 183.896C196.496 183.17 198.302 181.976 199.535 179.974C200.145 178.982 200.532 177.911 200.659 176.902C200.79 175.893 200.683 174.963 200.479 174.223C200.059 172.724 199.317 172.041 199.378 172.001Z" fill="#375A64"/>
<path fill-rule="evenodd" clip-rule="evenodd" d="M201.052 218.014C201.305 217.827 202.447 219.592 204.758 219.862C207.067 220.141 208.81 218.719 208.982 218.956C209.078 219.052 208.788 219.572 208.013 220.11C207.255 220.644 205.963 221.133 204.549 220.967C203.138 220.798 202.082 220.029 201.554 219.343C201.011 218.648 200.924 218.083 201.052 218.014Z" fill="#1A2E35"/>
<path fill-rule="evenodd" clip-rule="evenodd" d="M350.889 312C344.295 312 336.825 310.698 328.588 308.084C313.572 303.319 301.125 295.801 301 295.725L301.827 294.368C302.313 294.666 350.822 323.76 372.393 302.853C388.59 287.154 391.059 244.099 390.278 210.746C389.429 174.486 384.645 141.558 384.598 141.23L386.167 141C386.216 141.329 391.013 174.352 391.866 210.709C393.011 259.684 386.833 291.068 373.498 303.992C368.001 309.32 360.35 311.999 350.889 312Z" fill="white"/>
<path fill-rule="evenodd" clip-rule="evenodd" d="M458.471 222.495C458.486 222.55 458.508 222.577 458.54 222.577C458.522 222.536 458.508 222.505 458.499 222.482C458.457 222.4 458.449 222.4 458.471 222.495Z" fill="#9DDEDA"/>
<path fill-rule="evenodd" clip-rule="evenodd" d="M425 494H435V62H425V494Z" fill="white"/>
<path fill-rule="evenodd" clip-rule="evenodd" d="M384.153 134H387.844C395.63 134 402 127.579 402 119.73V77H370V119.73C370 127.579 376.368 134 384.153 134Z" fill="white"/>
<path fill-rule="evenodd" clip-rule="evenodd" d="M383.943 131H387.058C393.626 131 399 125.703 399 119.227V109H372V119.227C372 125.703 377.374 131 383.943 131Z" fill="#FF1849"/>
<path fill-rule="evenodd" clip-rule="evenodd" d="M363 70H435V62H363V70Z" fill="white"/>
<path fill-rule="evenodd" clip-rule="evenodd" d="M383 79H389V70H383V79Z" fill="white"/>
<path fill-rule="evenodd" clip-rule="evenodd" d="M403 497H460V486H403V497Z" fill="white"/>
<path opacity="0.314174" fill-rule="evenodd" clip-rule="evenodd" d="M188 300.389L207.841 320.889C207.841 320.889 212.082 324 214.516 324C216.95 324 223.311 319.242 225.372 317.411C227.433 315.581 228 313.807 228 313.807C228 313.807 221.068 315.398 217.698 317.778C214.329 320.156 206.303 312.836 202.173 308.625C198.042 304.416 189.519 298.41 188 300.389Z" fill="black"/>
<path fill-rule="evenodd" clip-rule="evenodd" d="M241.18 286.957C241.646 285.712 242.053 284.438 242.337 283.146C242.47 282.501 242.583 281.843 242.563 281.211C242.553 280.9 242.493 280.584 242.354 280.392C242.259 280.246 241.9 280.115 241.62 279.95L234.635 276.212C232.305 274.97 229.943 273.783 227.673 272.423C225.415 271.037 223.149 269.67 221 268.097L221.054 268C223.507 269.017 225.845 270.239 228.191 271.443C230.524 272.671 232.764 274.075 235.038 275.421L241.862 279.452L242.288 279.707C242.404 279.771 242.656 279.923 242.758 280.105C242.983 280.476 243.002 280.856 243 281.206C242.983 281.913 242.826 282.574 242.656 283.226C242.296 284.525 241.817 285.776 241.281 287L241.18 286.957Z" fill="#1A2E35"/>
<path fill-rule="evenodd" clip-rule="evenodd" d="M590.697 452L597.364 480.415L610.556 503.088C611.507 504.722 610.876 506.82 609.184 507.659C608.236 508.128 607.129 508.114 606.199 507.611C600.276 504.412 578.545 492.529 578.102 490.236C577.59 487.578 569 457.675 569 457.675L590.697 452Z" fill="#FF1849"/>
<path fill-rule="evenodd" clip-rule="evenodd" d="M610 507.621L578 488L578.363 489.311C578.678 490.444 579.379 491.431 580.355 492.09C582.964 493.854 590.276 498.57 606.889 507.6C607.855 508.125 609.027 508.134 610 507.621Z" fill="white"/>
<path fill-rule="evenodd" clip-rule="evenodd" d="M581.636 476.121C582.612 476.462 583.223 477.626 582.923 478.616C582.624 479.606 581.443 480.237 580.461 479.915C579.479 479.592 578.703 478.214 579.111 477.265C579.519 476.316 580.946 475.65 581.823 476.198" fill="white"/>
<path fill-rule="evenodd" clip-rule="evenodd" d="M599.098 495.999C599.315 496.036 599.586 494.214 601.327 492.827C603.023 491.392 605.014 491.355 605 491.154C605.006 491.07 604.508 490.936 603.688 491.035C602.876 491.128 601.767 491.521 600.817 492.298C599.871 493.078 599.319 494.049 599.123 494.783C598.922 495.522 599.008 495.995 599.098 495.999Z" fill="#1A2E35"/>
<path fill-rule="evenodd" clip-rule="evenodd" d="M602.034 499.996C602.206 500.076 602.878 498.973 604.262 498.195C605.628 497.39 607.002 497.318 606.999 497.139C607.042 496.983 605.472 496.771 603.911 497.681C602.337 498.574 601.861 499.963 602.034 499.996Z" fill="#1A2E35"/>
<path fill-rule="evenodd" clip-rule="evenodd" d="M593.022 491.996C593.213 492.105 594.336 490.084 596.572 488.446C598.783 486.773 601.051 486.266 600.999 486.054C601.003 485.871 598.51 486.08 596.135 487.87C593.743 489.633 592.844 491.949 593.022 491.996Z" fill="#1A2E35"/>
<path fill-rule="evenodd" clip-rule="evenodd" d="M590.009 482.984C590.143 483.155 591.659 481.91 593.865 481.181C596.062 480.421 597.987 480.501 597.999 480.279C598.044 480.096 596.01 479.665 593.648 480.477C591.278 481.266 589.872 482.862 590.009 482.984Z" fill="#1A2E35"/>
<path fill-rule="evenodd" clip-rule="evenodd" d="M588.009 473.988C588.149 474.153 589.52 472.533 591.799 471.952C594.065 471.313 595.942 472.057 595.998 471.839C596.03 471.755 595.604 471.439 594.812 471.207C594.026 470.973 592.865 470.888 591.641 471.216C590.419 471.546 589.418 472.213 588.812 472.821C588.199 473.43 587.947 473.93 588.009 473.988Z" fill="#1A2E35"/>
<path fill-rule="evenodd" clip-rule="evenodd" d="M590.898 469.965C590.939 469.955 590.892 469.528 590.604 468.805C590.315 468.089 589.768 467.066 588.742 466.05C588.227 465.576 587.648 464.946 586.626 464.78C586.117 464.695 585.471 464.947 585.205 465.448C584.938 465.937 584.965 466.467 585.097 466.951C585.7 468.87 588.013 470.276 590.408 469.954C592.801 469.591 594.536 467.803 594.965 465.901C595.041 465.419 595.023 464.854 594.621 464.407C594.221 463.953 593.501 463.918 593.06 464.111C592.138 464.496 591.684 465.172 591.232 465.704C590.364 466.835 589.935 467.898 589.717 468.636C589.501 469.379 589.487 469.806 589.529 469.814C589.666 469.864 589.908 468.112 591.649 466C592.096 465.502 592.603 464.888 593.277 464.649C593.605 464.53 593.933 464.58 594.13 464.803C594.326 465.016 594.37 465.415 594.294 465.798C593.919 467.362 592.328 468.993 590.299 469.27C588.285 469.561 586.252 468.321 585.752 466.781C585.638 466.409 585.632 466.006 585.78 465.729C585.925 465.457 586.227 465.315 586.558 465.35C587.26 465.425 587.87 465.953 588.372 466.394C590.394 468.269 590.764 470.033 590.898 469.965Z" fill="#1A2E35"/>
<path fill-rule="evenodd" clip-rule="evenodd" d="M570 460.66L571.23 465L593 460.16L592.265 457L570 460.66Z" fill="black"/>
<path fill-rule="evenodd" clip-rule="evenodd" d="M505.147 459.725L506.641 482.555C506.641 482.555 484.131 491.755 484 496L528 494.668L527.12 459L505.147 459.725Z" fill="#FF1849"/>
<path fill-rule="evenodd" clip-rule="evenodd" d="M519.836 480.056C520.585 480.237 521.124 481.062 520.975 481.821C520.825 482.58 519.995 483.138 519.243 482.97C518.49 482.801 517.813 481.832 518.047 481.094C518.281 480.357 519.29 479.755 519.98 480.1" fill="white"/>
<path fill-rule="evenodd" clip-rule="evenodd" d="M528 494.638L527.913 491L485.694 493.645C485.694 493.645 483.762 494.584 484.025 496L528 494.638Z" fill="white"/>
<path fill-rule="evenodd" clip-rule="evenodd" d="M506.002 481.252C506.016 481.498 507.07 481.572 508.126 482.328C509.199 483.05 509.761 484.098 509.95 483.993C510.144 483.938 509.792 482.478 508.5 481.591C507.215 480.691 505.95 481.028 506.002 481.252Z" fill="#1A2E35"/>
<path fill-rule="evenodd" clip-rule="evenodd" d="M501.001 484.085C500.959 484.272 501.898 484.574 502.654 485.367C503.436 486.14 503.649 487.014 503.863 487C504.065 487.025 504.176 485.896 503.216 484.926C502.265 483.947 501 483.901 501.001 484.085Z" fill="#1A2E35"/>
<path fill-rule="evenodd" clip-rule="evenodd" d="M498.773 489.999C498.964 490.042 499.222 488.859 498.653 487.591C498.091 486.319 497.096 485.845 497.013 486.043C496.9 486.24 497.551 486.908 498.004 487.958C498.48 488.994 498.565 489.982 498.773 489.999Z" fill="#1A2E35"/>
<path fill-rule="evenodd" clip-rule="evenodd" d="M506.009 476.799C506.114 476.974 507.178 476.678 508.503 476.72C509.83 476.739 510.872 477.082 510.989 476.912C511.119 476.769 510.089 476.073 508.526 476.043C506.965 476.002 505.888 476.649 506.009 476.799Z" fill="#1A2E35"/>
<path fill-rule="evenodd" clip-rule="evenodd" d="M505 459.649L505.261 464L527 463.314V459L505 459.649Z" fill="black"/>
<path fill-rule="evenodd" clip-rule="evenodd" d="M505 471.829C505.001 471.92 505.903 472.03 507.332 471.749C508.044 471.608 508.878 471.355 509.749 470.947C510.185 470.742 510.628 470.499 511.066 470.214C511.278 470.074 511.528 469.931 511.755 469.66C511.999 469.421 512.125 468.828 511.822 468.477C511.573 468.136 511.148 467.998 510.811 468C510.468 467.999 510.191 468.074 509.94 468.144C509.425 468.281 508.944 468.463 508.505 468.671C507.628 469.092 506.921 469.611 506.397 470.109C505.347 471.115 505.004 471.954 505.083 471.995C505.188 472.066 505.692 471.356 506.768 470.519C507.303 470.102 507.99 469.668 508.812 469.316C509.223 469.143 509.667 468.99 510.138 468.874C510.627 468.734 511.046 468.718 511.18 468.928C511.227 469.008 511.236 469.04 511.136 469.184C511.033 469.317 510.838 469.449 510.63 469.59C510.228 469.863 509.82 470.102 509.42 470.312C508.621 470.728 507.851 471.02 507.192 471.22C505.869 471.621 504.993 471.709 505 471.829Z" fill="#1A2E35"/>
<path fill-rule="evenodd" clip-rule="evenodd" d="M506.416 471.999C506.502 472.03 506.956 471.24 506.998 469.835C507.016 469.139 506.908 468.297 506.578 467.411C506.412 466.97 506.188 466.519 505.901 466.08C505.597 465.648 505.224 465.07 504.283 465C503.794 464.997 503.398 465.35 503.27 465.647C503.115 465.952 503.091 466.21 503.041 466.468C502.969 466.99 502.996 467.498 503.089 467.966C503.278 468.906 503.735 469.681 504.225 470.233C505.231 471.357 506.248 471.589 506.266 471.514C506.342 471.404 505.486 471.008 504.71 469.923C504.327 469.388 503.978 468.679 503.855 467.856C503.794 467.446 503.786 467.01 503.857 466.57C503.919 466.096 504.105 465.71 504.303 465.754C504.548 465.744 504.979 466.087 505.194 466.457C505.461 466.85 505.677 467.251 505.849 467.646C506.184 468.441 506.346 469.204 506.403 469.851C506.515 471.151 506.284 471.97 506.416 471.999Z" fill="#1A2E35"/>
<path fill-rule="evenodd" clip-rule="evenodd" d="M480.552 184.794L494.367 152.188C494.367 152.188 503.985 122.509 519.308 123.006L523 149.699L501.776 195L479 185.292" fill="#00A3FF"/>
<path fill-rule="evenodd" clip-rule="evenodd" d="M492.782 203C492.782 203 488.613 254.927 489.029 270.242C489.261 278.765 494.747 460.66 494.747 460.66H532.299L525.352 267.852L564.749 462L598 456.606L571.459 248.993C571.459 248.993 566.914 220.735 557.561 209.137L492.782 203Z" fill="#00A3FF"/>
<path fill-rule="evenodd" clip-rule="evenodd" d="M528.99 463C528.978 463.001 528.955 462.827 528.921 462.484C528.89 462.111 528.847 461.608 528.792 460.969C528.691 459.597 528.546 457.637 528.362 455.133C528.016 450.025 527.519 442.7 526.906 433.662C525.74 415.498 524.135 390.463 522.362 362.813C520.638 335.13 519.064 310.086 518.045 291.932C517.775 282.833 518.73 275.422 520.367 270.571C521.17 268.142 522.207 266.388 523.112 265.378C523.521 264.833 523.956 264.533 524.224 264.314C524.497 264.096 524.639 263.991 524.645 264.001C524.652 264.008 524.524 264.134 524.269 264.366C524.018 264.602 523.604 264.912 523.22 265.465C522.363 266.486 521.378 268.232 520.621 270.652C519.079 275.48 518.2 282.862 518.532 291.915C519.69 310.077 521.286 335.113 523.048 362.77C524.743 390.427 526.278 415.465 527.393 433.633C527.914 442.676 528.335 450.007 528.631 455.116C528.759 457.625 528.861 459.586 528.932 460.96C528.958 461.602 528.977 462.105 528.993 462.48C529.003 462.823 529.002 462.999 528.99 463Z" fill="#375A64"/>
<path fill-rule="evenodd" clip-rule="evenodd" d="M595.996 460C595.809 460.026 589.616 416.839 582.162 363.551C574.708 310.246 568.818 267.025 569.004 267C569.191 266.974 575.383 310.153 582.839 363.459C590.29 416.747 596.182 459.975 595.996 460Z" fill="#375A64"/>
<path fill-rule="evenodd" clip-rule="evenodd" d="M575 254.06L564.179 168.67L569.626 130.289C564.865 126.157 559.178 123.247 552.228 122L519.553 123.361L507.239 152.257L485 258L575 254.06Z" fill="#00A3FF"/>
<path fill-rule="evenodd" clip-rule="evenodd" d="M566.593 127C565.945 127.002 563.551 133.069 561.765 138.535C558.568 148.32 559.642 158.995 564.756 167.94L576.076 187.738L542 199.127L546.985 215L594.696 202.264C599.111 201.086 602.662 197.823 604.195 193.538C605.567 189.701 605.171 185.458 603.114 181.938L578.246 139.41C578.246 139.41 570.165 126.987 566.593 127Z" fill="#00A3FF"/>
<path fill-rule="evenodd" clip-rule="evenodd" d="M461.07 178.93C461.07 178.93 463.428 173.793 466.857 174.006C470.285 174.221 479.928 175.291 479.928 175.291L481 180L460 178.93" fill="#FFBF9D"/>
<path fill-rule="evenodd" clip-rule="evenodd" d="M472 178.969L477.68 160.598C477.974 159.645 478.826 159 479.786 159C481.255 159 482.316 160.463 481.914 161.935L476.994 180L472 178.969Z" fill="#FF1849"/>
<path fill-rule="evenodd" clip-rule="evenodd" d="M451 179H507.515L545 230L492.136 229.229L451 179Z" fill="#1A2E35"/>
<path fill-rule="evenodd" clip-rule="evenodd" d="M520.989 197.321C520.989 197.321 525.531 196.796 528.45 197.089C531.371 197.381 542.343 199.863 542.343 199.863L547 214.418L541.556 213.934L537.894 215.698C532.058 216.469 525.345 217.245 524.069 216.927C524.069 216.927 521.869 215.691 522.529 214.446C522.529 214.446 517.547 213.862 518.059 209.909C518.059 209.909 515.202 209.397 514.835 206.324L505.706 205.823C504.806 205.773 504.081 205.071 504.004 204.174C503.917 203.15 505.298 202.796 506.325 202.752L520.553 202.138C522.244 202.065 523.149 200.121 522.118 198.782L520.989 197.321Z" fill="#FFBF9D"/>
<path fill-rule="evenodd" clip-rule="evenodd" d="M554.631 75.8761C556.286 71.8535 561.526 70.0222 565.612 71.5181C569.699 73.0141 572.428 77.2072 572.919 81.529C573.161 83.6549 572.894 85.9242 571.672 87.6809C570.386 89.528 568.18 90.5836 565.95 90.8963C561.966 91.4552 557.742 89.7199 555.303 86.5226C552.863 83.3253 552.306 78.7934 553.9 75.1005" fill="#1A2E35"/>
<path fill-rule="evenodd" clip-rule="evenodd" d="M570.997 77.0016C571.018 77.0153 570.925 77.196 570.715 77.4986C570.507 77.8011 570.174 78.2182 569.708 78.6899C568.786 79.6334 567.258 80.7596 565.295 81.412C563.333 82.0665 561.412 82.0875 560.088 81.8921C559.422 81.7976 558.893 81.6663 558.538 81.5517C558.181 81.4372 557.993 81.3511 558 81.328C558.019 81.266 558.809 81.5087 560.121 81.6263C561.423 81.7503 563.274 81.6862 565.169 81.0548C567.063 80.4245 568.564 79.3728 569.514 78.4998C570.474 77.6257 570.943 76.9628 570.997 77.0016Z" fill="#375A64"/>
<path fill-rule="evenodd" clip-rule="evenodd" d="M571.999 81.0042C572.015 81.0291 571.861 81.1849 571.568 81.4501C571.277 81.7201 570.83 82.0721 570.258 82.48C569.116 83.2815 567.412 84.2602 565.35 84.7335C564.32 84.9619 563.314 85.0308 562.406 84.988C561.497 84.9333 560.69 84.7644 560.031 84.5587C559.373 84.3482 558.854 84.133 558.514 83.9403C558.171 83.7572 557.989 83.6454 558.001 83.618C558.03 83.5431 558.795 83.9296 560.098 84.265C560.751 84.4291 561.54 84.5623 562.421 84.5944C563.302 84.6122 564.272 84.5361 565.27 84.3137C567.269 83.8559 568.949 82.9461 570.115 82.2207C571.279 81.4846 571.96 80.9471 571.999 81.0042Z" fill="#375A64"/>
<path fill-rule="evenodd" clip-rule="evenodd" d="M512.3 87.6957C502.681 66.7068 525.559 56.1617 538.042 59.6611C549.774 62.9487 554.778 68.7414 556.707 76.5262C558.639 84.3155 558.547 92.7503 555.47 100.168C553.953 103.826 551.222 107.543 547.262 108" fill="#1A2E35"/>
<path fill-rule="evenodd" clip-rule="evenodd" d="M524.224 127.118C524.153 120.977 524.107 116.004 524.106 116.04C524.106 116.04 515.391 114.616 513.585 103.428C512.688 97.8635 512.972 88.7403 513.448 81.283C513.878 74.571 518.398 66.3351 525.195 67.0427L546.42 72.3218C548.485 72.5358 550.041 74.2704 549.999 76.3122L548.617 119.509L548.652 126.925C548.681 133.331 543.601 138.634 537.102 138.982C530.16 139.353 524.301 133.958 524.224 127.118Z" fill="#FFD2BD"/>
<path fill-rule="evenodd" clip-rule="evenodd" d="M515.001 89.3983C514.965 90.2254 515.606 90.9405 516.434 90.9965C517.261 91.0525 517.961 90.4301 517.998 89.6029C518.037 88.7758 517.395 88.0595 516.569 88.0035C515.741 87.9475 515.039 88.5712 515.001 89.3983Z" fill="#1A2E35"/>
<path fill-rule="evenodd" clip-rule="evenodd" d="M530.001 89.3983C529.965 90.2254 530.606 90.9405 531.433 90.9965C532.26 91.0525 532.961 90.4301 532.998 89.6029C533.036 88.7758 532.395 88.0595 531.569 88.0035C530.741 87.9475 530.039 88.5712 530.001 89.3983Z" fill="#1A2E35"/>
<path fill-rule="evenodd" clip-rule="evenodd" d="M524.224 96.9373C524.231 96.8492 523.201 96.6819 521.53 96.4823C521.108 96.4411 520.706 96.3619 520.635 96.092C520.535 95.8043 520.713 95.3783 520.918 94.9166C521.317 93.9575 521.733 92.9516 522.17 91.8977C523.908 87.5997 525.167 84.0644 524.982 84.0009C524.795 83.9373 523.236 87.3688 521.498 91.6668C521.079 92.7274 520.679 93.7378 520.299 94.7047C520.138 95.1541 519.863 95.666 520.08 96.2604C520.193 96.5559 520.504 96.7723 520.775 96.8403C521.046 96.9173 521.284 96.9217 521.495 96.9329C523.175 97.0176 524.216 97.0254 524.224 96.9373Z" fill="#1A2E35"/>
<path fill-rule="evenodd" clip-rule="evenodd" d="M524 116.094C524 116.094 531.535 116.59 539 112C539 112 535.21 119.972 524 118.901V116.094Z" fill="#E09074"/>
<path fill-rule="evenodd" clip-rule="evenodd" d="M546.656 90.5515C546.827 90.4718 552.926 87.9002 552.999 94.5877C553.07 101.273 546.013 99.9623 546 99.7707C545.985 99.5781 546.656 90.5515 546.656 90.5515Z" fill="#FFD2BD"/>
<path fill-rule="evenodd" clip-rule="evenodd" d="M549.006 96.4443C549.035 96.4216 549.125 96.5273 549.325 96.6171C549.52 96.7046 549.855 96.7649 550.205 96.6273C550.918 96.3534 551.508 95.1951 551.528 93.9573C551.539 93.3332 551.405 92.7388 551.181 92.25C550.97 91.7487 550.647 91.4009 550.286 91.3406C549.927 91.2588 549.675 91.4816 549.593 91.676C549.504 91.8681 549.549 92.0056 549.513 92.0158C549.495 92.034 549.367 91.9033 549.418 91.6191C549.446 91.4827 549.523 91.3191 549.681 91.1861C549.841 91.0508 550.08 90.9792 550.331 91.0053C550.851 91.036 551.326 91.518 551.571 92.0568C551.846 92.5967 552.013 93.2639 551.999 93.9652C551.969 95.3497 551.285 96.6512 550.311 96.9479C549.836 97.0797 549.438 96.9388 549.231 96.7774C549.021 96.6103 548.983 96.458 549.006 96.4443Z" fill="#E09074"/>
<path fill-rule="evenodd" clip-rule="evenodd" d="M554.834 72C554.834 72 551.976 65.3945 545.162 62.1345C541.861 60.5559 539.392 59.7411 537 59.1471C537 59.1471 540.974 58.2155 547.407 61.0406C550.33 62.3238 553.274 63.9955 555.222 66.5014C556.458 68.093 558.002 71.2026 558 72H554.834Z" fill="#375A64"/>
<path fill-rule="evenodd" clip-rule="evenodd" d="M536.985 85.6107C536.812 85.9184 535.277 84.9676 533.371 85.3571C531.461 85.7177 530.296 87.1998 530.043 86.9774C529.921 86.8812 530.048 86.3427 530.559 85.6864C531.057 85.0374 531.986 84.3126 533.176 84.0782C534.366 83.8438 535.456 84.1719 536.119 84.5926C536.792 85.0157 537.071 85.4749 536.985 85.6107Z" fill="#E09074"/>
<path fill-rule="evenodd" clip-rule="evenodd" d="M536.999 85.677C536.971 85.7244 536.573 85.5711 535.901 85.4449C535.234 85.3167 534.273 85.2424 533.259 85.4337C532.245 85.625 531.415 86.0382 530.877 86.3929C530.335 86.7486 530.053 87.0299 530.005 86.9974C529.966 86.9752 530.171 86.6362 530.694 86.2147C531.209 85.794 532.079 85.313 533.172 85.1078C534.265 84.9007 535.296 85.0224 535.976 85.2174C536.664 85.4105 537.022 85.6436 536.999 85.677Z" fill="#1A2E35"/>
<path fill-rule="evenodd" clip-rule="evenodd" d="M537.992 81.3574C537.826 81.8753 536.089 81.8368 534.023 81.931C531.954 81.993 530.213 82.1418 530.013 81.6335C529.925 81.3863 530.281 81.0086 530.989 80.6683C531.693 80.3302 532.752 80.0488 533.944 80.006C535.137 79.9621 536.218 80.1654 536.947 80.4575C537.682 80.7496 538.063 81.106 537.992 81.3574Z" fill="#1A2E35"/>
<path fill-rule="evenodd" clip-rule="evenodd" d="M520.937 86.9821C520.791 87.0816 520.509 86.7511 520.054 86.3682C519.602 85.979 518.944 85.5719 518.141 85.42C516.513 85.0907 515.207 86.0147 515.018 85.6893C514.932 85.5502 515.152 85.0945 515.729 84.6517C516.297 84.2191 517.255 83.854 518.314 84.0582C519.375 84.251 520.22 84.9912 520.615 85.6765C521.023 86.3657 521.062 86.903 520.937 86.9821Z" fill="#E09074"/>
<path fill-rule="evenodd" clip-rule="evenodd" d="M521.995 87.9975C521.942 88.0372 521.692 87.5942 521.165 87.0398C520.647 86.4879 519.812 85.8477 518.775 85.5801C517.738 85.3125 516.756 85.4828 516.09 85.7287C515.418 85.9706 515.035 86.2498 515.001 86.187C514.976 86.1461 515.311 85.7607 515.999 85.4214C516.676 85.0821 517.732 84.8388 518.857 85.1294C519.982 85.4188 520.859 86.1614 521.357 86.8055C521.863 87.4559 522.033 87.9732 521.995 87.9975Z" fill="#1A2E35"/>
<path fill-rule="evenodd" clip-rule="evenodd" d="M521.996 82.2692C521.901 82.8198 520.349 82.9785 518.506 82.9996C516.662 83.0085 515.109 82.8764 515.005 82.328C514.901 81.7952 516.447 81.0137 518.491 81.0004C520.533 80.9804 522.094 81.7352 521.996 82.2692Z" fill="#1A2E35"/>
<path fill-rule="evenodd" clip-rule="evenodd" d="M540.484 66.1847C539.265 68.0098 538.029 69.8672 537.397 71.9656C536.766 74.0651 536.818 76.4768 538.058 78.2874C539.246 80.0215 541.283 80.929 543.133 81.9366C544.985 82.943 546.885 84.3238 547.344 86.3711C547.488 87.011 547.212 89.2482 547.697 89.6937C548.361 90.3068 549.527 89.9292 550.031 89.1816C550.535 88.4328 550.861 85.9734 550.875 85.0736C550.914 82.2821 550.953 79.4905 550.992 76.6978C551.027 74.3328 550.994 71.8823 549.963 69.7505C548.522 66.7701 545.535 65.817 541.177 66.0281" fill="#1A2E35"/>
<path fill-rule="evenodd" clip-rule="evenodd" d="M513.273 83C513.642 80.1444 514.662 77.3427 516.43 75.0933C518.198 72.8449 520.746 71.1859 523.543 70.7571C526.349 70.3261 529.183 71.1174 532.015 71.2824C534.848 71.4463 538.074 70.7392 539.553 68.2753C540.014 67.5053 540.232 66.43 539.643 65.7587C539.421 65.505 539.114 65.3468 538.811 65.2031C535.054 63.3993 530.795 62.5855 526.686 63.2062C522.577 63.828 518.645 65.9417 516.064 69.2541C513.482 72.5677 512.355 77.0879 513.371 81.1894" fill="#1A2E35"/>
<path fill-rule="evenodd" clip-rule="evenodd" d="M511.434 78.9999C511.42 79.0044 511.375 78.8772 511.301 78.6296C511.223 78.3842 511.138 78.0117 511.074 77.5243C510.947 76.5563 510.931 75.0909 511.457 73.3992C511.971 71.7221 513.045 69.8143 514.823 68.3061C516.577 66.7843 518.956 65.6667 521.576 65.2266C524.204 64.782 526.763 65.0431 528.987 65.5654C530.101 65.8321 531.142 66.1563 532.094 66.5153C533.051 66.871 533.904 67.2638 534.721 67.4867C536.37 67.8311 537.781 68.0416 538.701 67.8457C539.64 67.6555 539.969 67.1501 539.999 67.1985C540.007 67.203 539.934 67.3201 539.742 67.4945C539.553 67.6735 539.211 67.8739 538.735 67.9999C537.762 68.2498 536.357 68.0832 534.65 67.7635C533.799 67.5508 532.927 67.167 531.982 66.8316C531.036 66.4906 530.005 66.1822 528.906 65.93C526.712 65.4337 524.202 65.1928 521.641 65.6261C519.087 66.0561 516.774 67.1332 515.06 68.592C513.325 70.0372 512.261 71.8639 511.726 73.4892C511.179 75.1235 511.151 76.5507 511.228 77.5074C511.314 78.4698 511.473 78.9898 511.434 78.9999Z" fill="#375A64"/>
<path fill-rule="evenodd" clip-rule="evenodd" d="M523 61.1837C522.997 61.1596 523.254 61.0994 523.727 61.0491C524.201 60.9955 524.893 60.9736 525.745 61.0469C527.436 61.187 529.819 61.8194 531.888 63.395C532.912 64.1741 533.766 65.0177 534.672 65.6052C535.558 66.1983 536.536 66.4609 537.342 66.6327C538.155 66.7968 538.834 66.8176 539.29 66.7607C539.749 66.7071 539.982 66.5878 539.999 66.6206C540.012 66.6338 539.795 66.8066 539.318 66.9106C538.847 67.02 538.137 67.0408 537.288 66.9062C536.45 66.7651 535.428 66.5254 534.46 65.905C533.501 65.3076 532.626 64.4585 531.633 63.7047C529.638 62.186 527.355 61.5305 525.712 61.3237C524.053 61.1104 523.006 61.257 523 61.1837Z" fill="#375A64"/>
<path fill-rule="evenodd" clip-rule="evenodd" d="M557.996 81.9993C557.961 82.0148 557.841 81.7527 557.517 81.3522C557.186 80.9641 556.614 80.449 555.739 80.0805C554.875 79.7028 553.735 79.453 552.468 79.4695C551.195 79.4829 549.804 79.7472 548.334 80.0011C546.867 80.2622 545.411 80.4212 544.097 80.3004C542.786 80.192 541.635 79.8917 540.719 79.5418C539.8 79.197 539.114 78.8017 538.66 78.5117C538.207 78.2195 537.988 78.0193 538 78.0038C538.044 77.9409 539 78.6675 540.821 79.2971C541.728 79.6078 542.855 79.872 544.126 79.9577C545.401 80.0568 546.798 79.8958 548.262 79.6357C549.725 79.3838 551.143 79.1227 552.466 79.1268C553.79 79.1299 554.971 79.4179 555.863 79.8431C556.765 80.2612 557.34 80.8382 557.645 81.2686C557.789 81.4926 557.89 81.6691 557.935 81.7991C557.988 81.9271 558.009 81.9942 557.996 81.9993Z" fill="#375A64"/>
<path fill-rule="evenodd" clip-rule="evenodd" d="M555.997 75.9994C555.965 76.0147 555.849 75.7413 555.522 75.3377C555.194 74.9406 554.612 74.4342 553.747 74.093C552.888 73.7419 551.766 73.6161 550.535 73.7539C549.3 73.8753 547.972 74.245 546.53 74.513C545.097 74.7799 543.634 74.8466 542.388 74.4474C541.144 74.0689 540.176 73.3689 539.507 72.6755C538.831 71.9809 538.449 71.2842 538.241 70.7942C538.137 70.5481 538.07 70.3513 538.039 70.2134C538.004 70.0778 537.992 70.0056 538.005 70.0013C538.087 69.9553 538.357 71.1705 539.707 72.4786C540.373 73.1195 541.314 73.7616 542.493 74.0995C543.667 74.4561 545.05 74.3861 546.459 74.1247C547.872 73.8644 549.222 73.498 550.5 73.393C551.771 73.2694 552.963 73.4302 553.856 73.836C554.754 74.2297 555.34 74.8017 555.647 75.2458C555.949 75.6975 556.016 75.9939 555.997 75.9994Z" fill="#375A64"/>
<path fill-rule="evenodd" clip-rule="evenodd" d="M525.13 101.925C525.596 101.278 526.413 100.922 527.225 101.014C527.788 101.078 528.357 101.363 528.699 101.845C529.041 102.324 529.113 103.007 528.803 103.467C528.452 103.984 527.72 104.103 527.1 103.918C526.482 103.733 525.949 103.306 525.443 102.879C525.303 102.762 525.16 102.639 525.072 102.478C524.985 102.314 524.967 102.103 525.074 101.97" fill="#FF9A6C"/>
<path fill-rule="evenodd" clip-rule="evenodd" d="M528.757 99.0002C528.515 98.9868 528.511 100.497 527.126 101.57C525.741 102.644 524.013 102.475 524.001 102.685C523.978 102.781 524.386 102.98 525.114 102.998C525.829 103.021 526.874 102.806 527.723 102.15C528.569 101.493 528.931 100.616 528.987 99.9961C529.049 99.3659 528.869 98.9913 528.757 99.0002Z" fill="#1A2E35"/>
<path fill-rule="evenodd" clip-rule="evenodd" d="M564 131.062C562.861 133.216 562.226 135.618 561.752 138.006C561.282 140.406 561.068 142.852 561.005 145.293C560.92 147.741 561.164 150.177 561.261 152.617C561.304 153.84 561.444 155.056 561.495 156.286C561.608 157.508 561.722 158.734 561.767 159.979L561.66 160C561.314 158.813 561.023 157.607 560.753 156.396C560.543 155.173 560.348 153.946 560.191 152.711C559.948 150.235 559.942 147.733 560.144 145.251C560.319 142.77 560.644 140.296 561.228 137.883C561.85 135.487 562.631 133.109 563.912 131L564 131.062Z" fill="#1A2E35"/>
</g>
</svg>
