<svg xmlns="http://www.w3.org/2000/svg" viewBox="0 0 300 300"><defs><style>.cls-1{fill:#c13b56;opacity:0.08;isolation:isolate;}.cls-2{fill:#d9b287;}.cls-3{fill:#c7a47e;}.cls-12,.cls-4{fill:#fff;}.cls-5{fill:#737372;}.cls-6,.cls-8{fill:#201c3f;}.cls-10,.cls-7{fill:#312f61;}.cls-12,.cls-13,.cls-14,.cls-15,.cls-7,.cls-8,.cls-9{fill-rule:evenodd;}.cls-11,.cls-9{fill:#454691;}.cls-13{fill:#222221;}.cls-14{fill:#c4c4c4;}.cls-15{fill:#d8d8d8;}.cls-16{fill:#dadada;}.cls-17{fill:#b4b4b3;}.cls-18{fill:#3d3c7c;}.cls-19{opacity:0.26;}.cls-20{fill:#472919;}.cls-21{fill:#4e2f1e;}.cls-22{fill:#ebebeb;}.cls-23{fill:#3b3a79;}</style></defs><g id="Layer_2" data-name="Layer 2"><g id="OBJECTS"><g id="Page-1"><g id="For-you-and-your-partner-Copy-4"><g id="Group-4"><circle id="Mask-Copy-2" class="cls-1" cx="150" cy="150" r="150"/></g></g></g><path class="cls-2" d="M163.27,134.75a7.8,7.8,0,0,0-1.61,1.21c-2.84,2.49-8.93,13-11.66,19.63a49.07,49.07,0,0,1-6.09,10.85l7.37,3.82s2.12-4.46,8.74-11.86,10-14.19,11.37-19.57C171.77,136.86,164.54,133.93,163.27,134.75Z"/><path class="cls-2" d="M162.75,141.62c.39-.67-4-1.46-4-1.46s1.4-19.75,4.6-24c0,0-1.37-12.48,1-17,.15-14.75,8.31-19.1,16.13-16.24,7.36,2.69,6.79,12.24,2.77,20.28-4.82,9.63-5.19,11.69-5.91,16.22-1,6.1-7.08,20-8.39,22.26C165.3,140.75,165.38,144.29,162.75,141.62Z"/><path class="cls-2" d="M147.25,161a21.58,21.58,0,0,1-4,5.07c-1.84,1.54-2.39,2.17-5.22,4.86-3.08,2.91-3.5,2.81-4.76,3.47s-.61,3.83,2.83,2,4.09-2.8,4.09-2.8-3.82,4.51-5.61,7-3,4-1.69,4.68c.67.35,1.15.2,3.7-3s5.46-6.75,5.46-6.75-9.08,12-7.66,13c.92.67,1.65.36,4.45-3.61s5.29-7.89,5.29-7.89-6.28,10.91-6.42,11.94c-.09.62.31,3.41,2.79-1l5.73-10.13s-4.9,9.46-3.58,10.06,3.09-3.72,5.91-9.6,2.24-6,2.48-7.82,3.5-5.76,3.5-5.76Z"/><path class="cls-2" d="M110.94,261.06a8,8,0,1,1-1.77-11.19A8,8,0,0,1,110.94,261.06Z"/><path class="cls-3" d="M153,196c-.75,1.36-4.81,7.5-5.14,9.62-1,6.68-8,19-16.3,25.51-6.94,5.48-16.72,16.45-16.72,16.45l-10.61-2.38s8.69-14.57,18.64-31.18c7.26-12.13,8.3-17.34,11.91-22.73C136.86,189.9,153.16,194.13,153,196Z"/><path class="cls-3" d="M145.25,203.31c-2,1.76-12.14-7-9.92-11.09,5.25-7.92,30.74-52.2,43.3-48.56,0,0,20.22-1,10.22,17.72-7.35,13.77-26.87,25.44-32.49,31.14C153.24,195.69,148.93,200.76,145.25,203.31Z"/><path class="cls-3" d="M119,242.71s-6.73,7.31-6.62,14.4c.1,5.78-11.94,2.91-12.67,5.71,0,0-18.41-11-16.41-16.74,1.2-3.46,11.39-4.41,15.57-.74,4.66,4.09,10.92-6.33,10.92-6.33Z"/><path class="cls-4" d="M102.66,245.22l2.66-2.2s4.83,5.52,9.16,6.36l-.31,2.57S107.65,253.86,102.66,245.22Z"/><path class="cls-3" d="M142.57,179.82a67.87,67.87,0,0,0-7.71,10.12c-2.89,4.95-1.58,5.22-1.79,8.44s2.73,1.84,2.73,1.84,6.68-9,6.77-9.31S142.57,179.82,142.57,179.82Z"/><path class="cls-5" d="M110.18,266.28c-1,1.49-2.15,2.77-10.82-3a128.86,128.86,0,0,0-12.23-8c-8.37-4.6-12.3-9-14.12-11.73-1.52-2.25-2.69-4.31-2.35-4.91l.16-.25c-.2.29-.37.57-.49.76-.33.6.84,2.66,2.35,4.91,1.83,2.74,5.73,6.86,13.9,11.8,5.59,3.39,9.32,5.82,12.46,7.93,8.93,6,9.91,4.45,10.9,2.91Z"/><path class="cls-6" d="M118.75,250.63c-.23-.33-.81-.25-1.52.21a5.44,5.44,0,0,0-1.81,2l0,0a3.75,3.75,0,0,0-1,1.12l.45.26a4.46,4.46,0,0,1,2-1.66,9.55,9.55,0,0,0,1.16-.69C119,251.2,118.85,250.78,118.75,250.63Zm-1,.81a8.43,8.43,0,0,1-1.1.66l-.18.1a4.79,4.79,0,0,1,1-.92,1.74,1.74,0,0,1,.75-.33A1.79,1.79,0,0,1,117.76,251.44Z"/><path class="cls-7" d="M102.34,260.63a61.35,61.35,0,0,0-6.62-3.12,93.75,93.75,0,0,1-10.57-5.58,89.73,89.73,0,0,1-9-7.08,30.59,30.59,0,0,1-5.1-6.08l.38-1.06a3.36,3.36,0,0,1,1.71-.53c1,0,2.63.62,7.39,2,6.09,1.76,8.21,2.11,12,1.88s8.08.11,8.77.93,1.5,2.84,3.84,5.83c4.6,5.85,1.47,3.79,6.81,5.06,2.41.58,4-1.73,3.87-1.13a6.68,6.68,0,0,0-1.27,3.89c.13,2.58-1.39,5.67-3.73,8.44C108.17,263.93,104.17,261.77,102.34,260.63Z"/><path class="cls-8" d="M106.65,242.54c-.05-1.24.63-2.06.19-3.33-.23-.67-1.72-1-5,.52A17.55,17.55,0,0,1,95.3,241l.15.08a36.45,36.45,0,0,1-9-.72l-.14.85c5,.72,9.73,1.13,13,1.37,1.3.33,2.5,2,3.37,2.09C105.36,244.89,106.68,243.33,106.65,242.54Z"/><path class="cls-9" d="M71.76,238.51a1.66,1.66,0,0,0,.29,1.76l.37.49v0l.41.52h0l.45.55,0,0c.15.19.31.37.47.56l0,0c.16.19.33.39.51.58h0c.18.2.36.39.55.58l0,0,.55.55.05,0,.6.56a89.73,89.73,0,0,0,9,7.08,89.81,89.81,0,0,0,10.57,5.58c2.37,1.07,12.35,6.86,15,7,.19-.23.65-1.26.82-1.49a21.11,21.11,0,0,1-2.58.06c-3.7-.5-12.59-6.06-15.94-7.59A50.39,50.39,0,0,1,75.5,242.4s-2.93-3.84.7-3.37c3.14.4,10.07,2.14,10.07,2.14l.46-.77c-10.36-1.93-9.77-3.86-12.6-3.89a3.36,3.36,0,0,0-2.43,1A.89.89,0,0,1,71.76,238.51Z"/><path class="cls-10" d="M111.46,263.3c2.12-2.63,3.21-5.21,3.09-7.65,0-.11,0-.23,0-.35-.46-.2-.89,0-1,1.27-.13,2.26-1.91,5.52-2.6,6.67A1.91,1.91,0,0,1,111.46,263.3Z"/><path class="cls-9" d="M84.58,242.61s3.35-1,.28-2.24c-1.12-.45-11-3.2-11.28-1.47-.15,1.13-.43,1,.78,3s8.88,8.25,7.66,6.84c-2.64-3.05-1.2-4,2-4.31a24.18,24.18,0,0,1,4.39-.21Z"/><path class="cls-11" d="M87.37,243.79s4.2,12-2.6,7.17c0,0,4.71,3.74,6.35,3.59s2.48-4.16.39-10.34Z"/><path class="cls-11" d="M92.79,244s3.95,13.14-1.75,10.71c0,0,3.74,2.77,5.34,2.37,3.24-.82,2.64-6.47.54-12.65Z"/><path class="cls-11" d="M98.08,244.5s4.75,15.59-1.68,13.05c0,0,4.65,3.48,6.24,3.07,2-.51-.21-9.43,7.14-7.94,1.47.3-7.24-6.1-8-8.43Z"/><path class="cls-7" d="M114.51,256.76a8.24,8.24,0,0,0,0-1.11,1.69,1.69,0,0,1,0-.23,9.62,9.62,0,0,1,1.51-3.33c2.21-3.15-.49-2.43-.94-2-1,.87-2.67,3.29-7.16,0a17.74,17.74,0,0,1-5.61-6.88c-.74-1.68-1.29-2-1.49-2.11-2.93-.43-3.74.14-6.67.41a48.24,48.24,0,0,1-10.39-.87,3.89,3.89,0,0,0,2.62,3.33h0l.25.08h0l.29.07H87l.25,0,.33.05c3.76.42,10.24.47,11.74.61s3.52,2,4.79,3.6c3.7,4.65,5.31,3.77,7.61,6.7.8,1,1.24,3.18.42,6.44,0,.06,1.49-2.42,1.53-2.38s0-2.41,0-2.4a.21.21,0,0,0,.1.06h0l.15,0h.2A1.58,1.58,0,0,0,114.51,256.76Z"/><path class="cls-12" d="M100.44,242.56a.55.55,0,0,0,.17.75.54.54,0,0,0,.75-.17.54.54,0,0,0-.92-.58Z"/><path class="cls-13" d="M100.54,242.62a.43.43,0,1,0,.72.46.43.43,0,0,0-.13-.59A.44.44,0,0,0,100.54,242.62Z"/><path class="cls-14" d="M100.42,243.09s-2.15-1.31-2-2.4c0,0,.42-.48.58-.07.42,1.15.88,1.07,2.1,1.87C101.13,242.49,101.2,243.4,100.42,243.09Z"/><path class="cls-12" d="M96.69,243a.54.54,0,1,0,.84.67.55.55,0,0,0-.08-.76A.54.54,0,0,0,96.69,243Z"/><path class="cls-13" d="M96.77,243.07a.43.43,0,1,0,.6-.07A.42.42,0,0,0,96.77,243.07Z"/><path class="cls-14" d="M96.6,243.51s-2-1.53-1.69-2.6c0,0,.47-.43.58,0,.3,1.19.76,1.16,1.88,2.09C97.37,243,97.34,243.91,96.6,243.51Z"/><path class="cls-12" d="M93.08,243a.54.54,0,1,0,.75.77.53.53,0,0,0,0-.76A.54.54,0,0,0,93.08,243Z"/><path class="cls-13" d="M93.16,243.08a.44.44,0,0,0,0,.61.43.43,0,1,0,0-.61Z"/><path class="cls-14" d="M92.94,243.5s-1.75-1.67-1.33-2.7c0,0,.52-.37.58.07.15,1.22.57,1.16,1.57,2.22C93.76,243.09,93.62,244,92.94,243.5Z"/><path class="cls-12" d="M89.48,242.67a.54.54,0,0,0-.15.75.54.54,0,0,0,.9-.61A.54.54,0,0,0,89.48,242.67Z"/><path class="cls-13" d="M89.54,242.76a.42.42,0,0,0,.48.7.42.42,0,0,0,.12-.59A.44.44,0,0,0,89.54,242.76Z"/><path class="cls-14" d="M89.25,243.14s-1.39-1.68-.8-2.62c0,0,.58-.28.56.17-.06,1.22.32,1,1.13,2.18C90.14,242.87,89.84,243.73,89.25,243.14Z"/><path class="cls-12" d="M98.71,242.82a.54.54,0,1,0,.75-.16A.55.55,0,0,0,98.71,242.82Z"/><path class="cls-13" d="M98.81,242.88a.43.43,0,1,0,.59-.13A.43.43,0,0,0,98.81,242.88Z"/><path class="cls-12" d="M99.69,240.66s-1.55-.61-1.24,1.35c.2,1.23.52,1.25.72,1.15s.43-.1.09-.85C98.85,241.41,99.36,240.53,99.69,240.66Z"/><path class="cls-12" d="M94.94,243.06a.54.54,0,0,0,.84.68.55.55,0,0,0-.08-.76A.54.54,0,0,0,94.94,243.06Z"/><path class="cls-13" d="M95,243.13a.44.44,0,0,0,.07.6.43.43,0,1,0,.54-.66A.44.44,0,0,0,95,243.13Z"/><path class="cls-12" d="M96.21,240.94s-1.54-.69-1.44,1.29c0,1.24.38,1.3.59,1.22s.42,0,.17-.83C95.23,241.68,95.89,240.77,96.21,240.94Z"/><path class="cls-12" d="M91.34,242.86a.54.54,0,1,0,.76,0A.54.54,0,0,0,91.34,242.86Z"/><path class="cls-13" d="M91.42,242.94a.42.42,0,1,0,.6,0A.42.42,0,0,0,91.42,242.94Z"/><path class="cls-12" d="M92.83,241.06s-1.42-1-1.56.95c-.1,1.25.22,1.34.44,1.28s.43,0,.27-.8C91.79,241.52,92.53,240.85,92.83,241.06Z"/><path class="cls-12" d="M87.78,242.23a.54.54,0,1,0,.61.89.54.54,0,0,0-.61-.89Z"/><path class="cls-13" d="M87.85,242.32a.41.41,0,0,0-.11.59.42.42,0,0,0,.59.12.44.44,0,0,0,.11-.6A.43.43,0,0,0,87.85,242.32Z"/><path class="cls-12" d="M89.7,240.84s-1.36-1.38-1.84.54c-.31,1.21,0,1.35.21,1.34s.43.07.41-.75C88.46,241,89.45,240.59,89.7,240.84Z"/><path class="cls-14" d="M99.56,241s5.3,1.07,5.31-1.79-4.34.49-5.26,1.49l.3.13s2.65-2.31,3.8-2.11.64,1,.2,1.27a8.16,8.16,0,0,1-3.49,1c-.11,0-.48-.23-.6-.23S99.73,241,99.56,241Z"/><path class="cls-14" d="M100.38,240.66s2.76-2.36,2-4.36-2.29-1.71-2.58,1.48l-.28,3.2.47-.1a19.67,19.67,0,0,1,.4-3.42c.32-1.13.76-2.28,1.17-1.43s.6,1.53-.4,3c-.48.72-1.08,1.23-1.27,1.54s0,.44,0,.44Z"/><path class="cls-15" d="M99.45,240.7a5.54,5.54,0,0,1-1.82-.64,4,4,0,0,0-3,0c0,.1-.4-.05-.4-.05s-.09-.31.42-.65a2.53,2.53,0,0,1,3.18.19,5.69,5.69,0,0,0,2.27,1.16S100.34,241.33,99.45,240.7Z"/><path class="cls-15" d="M100.24,240.77a24.35,24.35,0,0,1-3.07-.28c-1.08-.22-2.78.14-3.32-.14s-.67.22-.67.22.17.39,2.36.2a12.65,12.65,0,0,1,3.55.27C99.81,241,100,241.13,100.24,240.77Z"/><path class="cls-16" d="M110.91,264.82a11.37,11.37,0,0,1,.63-1.77,49.08,49.08,0,0,1-15.18-5.79c-2.83-1.66-7.63-4-10.8-6a93.61,93.61,0,0,1-9-6.62A33,33,0,0,1,72.37,240a1.54,1.54,0,0,1,0-1.87c.5-.76.78-1.65-.19-1.19a6.39,6.39,0,0,0-1.66,1.93c-.34.6.83,2.66,2.34,4.91,1.83,2.73,5.81,6.9,14,11.85,5.58,3.37,9.24,5.77,12.38,7.88,8.93,6,9.92,4.45,10.9,2.91A7.55,7.55,0,0,0,110.91,264.82Z"/><path class="cls-17" d="M108.15,264.39s-6.57-2.21-9-3.77c-3.84-2.45-2-.07,1.73,2.83C107.1,268.36,110.71,265.84,108.15,264.39Z"/><path class="cls-17" d="M82,251.81s-6.81-4.29-9.74-9.57c0,0,2.37,2.14,4,3.64C82.31,251.38,84.15,250.43,82,251.81Z"/><path class="cls-18" d="M193.11,144.5a72.36,72.36,0,0,1-13.7,26.67c-12,14.92-15.37,25.91-15.37,25.91l-25.86-11.84,29-52.23Z"/><path class="cls-2" d="M192.92,112.89c-2-14.29,1.27-18.33-2.45-29.63-1.94-5.9-5.25-11.68-10.77-18.62-3.11-3.91-14.29,2.56-14.29,2.56a62.86,62.86,0,0,1-4.2,9.24c-6.2,11.59-6,22.22-1.09,27.2,2.5,2.55,2.57,12,3.08,16.61,1.1,10.21,2.12,17.34,3.24,23.6C169,158.09,167.59,162,171,165c3.84,3.42,9.63,3.23,13.83,2.54a44.23,44.23,0,0,1,2.72-7.26c2.18-4.54,3.93-6.2,4.72-10.35a17.79,17.79,0,0,0,.32-4.7c-.35-5.11-2.77-6.85-1.95-9.65.63-2.15,3.2-1.73,4-4.14a5.89,5.89,0,0,0-.21-3.84C192.94,122.9,193.61,117.77,192.92,112.89Z"/><g class="cls-19"><path class="cls-20" d="M174.52,119.72a10.11,10.11,0,0,1-2.07.65,7.09,7.09,0,0,1-2.11,0,11.9,11.9,0,0,1-2.22-.57,4.45,4.45,0,0,0,2,1.46,4.81,4.81,0,0,0,2.55.21,5.75,5.75,0,0,0,2.32-1,5.39,5.39,0,0,0,1.62-1.84C175.88,119.07,175.21,119.42,174.52,119.72Z"/><path class="cls-20" d="M176.16,123.31c-.66.33-1.28.64-1.89.89a9,9,0,0,1-1.84.56,6.09,6.09,0,0,1-1.86.06,11.22,11.22,0,0,1-2-.46,3.79,3.79,0,0,0,1.76,1.36,4.34,4.34,0,0,0,2.31.2,5.13,5.13,0,0,0,2.09-.92A4.58,4.58,0,0,0,176.16,123.31Z"/><path class="cls-20" d="M172.38,129.65a5.41,5.41,0,0,1-1.28.08,11.28,11.28,0,0,1-1.47-.21,2.49,2.49,0,0,0,1.24,1.11,3,3,0,0,0,1.73.18,3.59,3.59,0,0,0,1.53-.71,3,3,0,0,0,1-1.33c-.53.19-1,.37-1.43.52A8.35,8.35,0,0,1,172.38,129.65Z"/><path class="cls-20" d="M188.83,93.4a12,12,0,0,1,0-1.34,16.06,16.06,0,0,1,.28-2.39,15.79,15.79,0,0,0-1.4,1.44c0,.29-.08.59-.1.89,0,.48-.05,1-.05,1.43s.07,1,.09,1.39a5.46,5.46,0,0,1-.5,2.48,6.39,6.39,0,0,1-1.63,2.1,12.85,12.85,0,0,1-5.31,2.57,21.77,21.77,0,0,1-6.25.6,16.53,16.53,0,0,1-6.06-1.4,9.08,9.08,0,0,1-2.48-1.67,6.94,6.94,0,0,1-1.62-2.34,6.3,6.3,0,0,0,1.32,2.55,9,9,0,0,0,2.43,2,16.12,16.12,0,0,0,6.32,1.82,21.27,21.27,0,0,0,6.7-.45,14.09,14.09,0,0,0,5.94-2.81,7.33,7.33,0,0,0,1.91-2.51,6.28,6.28,0,0,0,.54-2.94C188.92,94.26,188.85,93.85,188.83,93.4Z"/><path class="cls-20" d="M180.17,114.35a7.58,7.58,0,0,0,2.08.58,12.49,12.49,0,0,1-1.8-1.09c-.58-.39-1.14-.81-1.7-1.22-1.11-.84-2.2-1.71-3.29-2.59a19.92,19.92,0,0,0-3.59-2.37,11.63,11.63,0,0,0-2-.8,6.83,6.83,0,0,0-1.08-.2,2.85,2.85,0,0,0-1.09,0,4.16,4.16,0,0,1,1,.26,9,9,0,0,1,.94.43,17.76,17.76,0,0,1,1.78,1.06c1.15.76,2.23,1.61,3.31,2.49a28,28,0,0,0,3.53,2.44Q179.18,113.92,180.17,114.35Z"/><path class="cls-20" d="M179.39,107.55a14.79,14.79,0,0,1-2.32-.45,4.94,4.94,0,0,0,2.12,1.36,5.63,5.63,0,0,0,2.58.2,6.31,6.31,0,0,0,2.4-.88,5.55,5.55,0,0,0,1.81-1.73,23.35,23.35,0,0,1-2.21.9,12.22,12.22,0,0,1-2.18.55A9,9,0,0,1,179.39,107.55Z"/><path class="cls-20" d="M166.82,124.14c0-1.45,0-2.9-.13-4.35a40.56,40.56,0,0,0-.46-4.36c-.24,1.46-.36,2.91-.46,4.36s-.12,2.9-.12,4.35,0,2.91.12,4.36a43.28,43.28,0,0,0,.46,4.36,43.32,43.32,0,0,0,.47-4.36C166.78,127.05,166.82,125.6,166.82,124.14Z"/></g><path class="cls-2" d="M164.29,62.14s2.59,6.13-.19,9.81,17.66-1.42,17.42-3.3S179.23,58.1,180.18,55C180.18,55,171.88,61.36,164.29,62.14Z"/><path class="cls-2" d="M183.29,39.41c1.28,10,3.72,15.62-9.16,20.21-4.62,1.65-10.89,4-13.42,4.71-4.27,1.15-6.63-3.86-10.12-14.88-2.79-8.83-1.1-19.92-1.1-19.92,2.87-4.89,12.37-5.83,18-6.54C177.82,21.67,181.78,27.54,183.29,39.41Z"/><path class="cls-2" d="M149.49,39.27s.11,11-.15,12-.43,2.58,2.36,2.18,3.43-1.68,3.43-1.68Z"/><path class="cls-21" d="M168.46,44.32s.84,11.12-5.29,13.36c-.6.22-.74,1.65-1.14,2.2-3.09,4.23-6.46,1-6.46,1l-.48.1a7.17,7.17,0,0,0,1.14,1.88c1,1.3,1.47,2,2.55,1.8,11.94-2.26,14.52-7.13,14.95-8.7C174.46,53.36,168.65,39.73,168.46,44.32Z"/><path class="cls-21" d="M159.27,53.37c-2.34.43-6.84.66-6.88,2.37a2.08,2.08,0,0,0,1,1.72,38.18,38.18,0,0,0,4.45-1.23c1.52-.51,2.95.89,3.24,3.16s.82,1.57-.53,2.3.7,1,.7,1l2.14-2.35S162.9,52.69,159.27,53.37Z"/><path class="cls-21" d="M180.31,53.05a12,12,0,0,0,1-1.8l.14-.46C180.74,52.33,180.31,53.05,180.31,53.05Z"/><path class="cls-21" d="M174,30.23a16.31,16.31,0,0,0-1.26-3.53c-.65-1.37-3.1-3.24-4.42-4.64-.15-.18-.3-.36-.46-.53h0a3.36,3.36,0,0,0-.67-.63A8.17,8.17,0,0,0,163,19.14l-.48-.08-.69-.27a8.48,8.48,0,0,0-3.05-.56,41,41,0,0,0-4.9-1.14,6.9,6.9,0,0,0-3,1.34,8.56,8.56,0,0,0-2,2.27,7.75,7.75,0,0,0-1.33,3,11.21,11.21,0,0,0,0,3.22,22.67,22.67,0,0,0,1.09,3.42c.3,1,.11,2,.76,2.87a7.14,7.14,0,0,0,.6.72c.36.11.77.21,1.26.33,1.92.43,2.48-.18,3.62-1.13a9.49,9.49,0,0,0,1.4-.79A17.71,17.71,0,0,1,158.58,31c10.33-2.81,10.48,13.7,10.41,15.73s.85,4.28,1.11,1.65c0-.16.63.35.61-.88,0,0,0,0,0,0a4.64,4.64,0,0,1,.08,3.59c-.12.68-.31,1.86-.31,1.86a53.57,53.57,0,0,0,2.34-6.11c.7-2.36,1.38-9.72,1.39-12.73C174.46,32.2,174.44,31.18,174,30.23Z"/><path class="cls-21" d="M153.88,19.13A19.43,19.43,0,0,1,160.31,18c3.33.07,3.24-1,5.41-1.25a23.24,23.24,0,0,1,8.22.89c8.34,2.66,8.76,6.57,10.09,8.18s3.72,5.1,3.35,7.25-.93,2.87.07,5.65.13,2.17-.55,4.52,0,2.18-.44,4.18.25,2.1-.88,3.35-.54,1.4-1.14,2.43-.18,1.29-1.37,2-5.51,4.74-9,2.2c-7.66-5.59-6.1-8.41-3-5.49-.4-.38.08-8.05.08-8.05s.7-5.26.47-5.8-.43-4.07-1.43-5.56-9.43-8-9.82-8.2S153.88,19.13,153.88,19.13Z"/><path class="cls-2" d="M171.73,190.65c.64,1.42,3.12,8.36,4.62,9.88,4.73,4.84,10.38,17.79,10.64,28.34.22,8.85,3.14,23.25,3.14,23.25l-8.27,7.07s-6.45-15.7-13.78-33.62c-5.35-13.08-8.9-17-11-23.15C157.13,199.91,170.28,189.4,171.73,190.65Z"/><path class="cls-2" d="M169.53,208.31c-1.25,2.34-13.82-2.24-13.2-6.89,2.13-9.26,5.36-60.6,18.4-61.62,7.86-2.57,15.09-1.69,18.39,2.44,2.72,3.41,2,8.07,1.45,11.53-1.46,9.42-8.09,17.35-11.57,24.38-.72,1.44-1.35,2.88-1.35,2.88-1.18,2.75-1.6,4.48-5.53,13.26C173.46,200.24,171.13,205.07,169.53,208.31Z"/><path class="cls-2" d="M189,248.63c.26.91.49,1.64.64,2.11,1.74,5.48,2.85,8.87,5.45,12.51.67.93.76.88.91,1.3,1.39,3.95-6.71,9.71-5.3,11.89,0,0-20.55,6.09-23.44.7-1.72-3.23,4.49-11.36,10-11.94,6.17-.66,2.76-12.32,2.76-12.32Z"/><path class="cls-4" d="M181,265l.86-3.34s7.15,1.63,11.15-.23l1.26,2.26S190.15,269.09,181,265Z"/><path class="cls-2" d="M170.75,194.46a67.63,67.63,0,0,0-.31,12.71c.57,5.71,1.79,5.16,3.52,7.89s3.28-.11,3.28-.11-8-11.23-8.13-11.52S170.75,194.46,170.75,194.46Z"/><path class="cls-5" d="M199.48,277.66c.1,1.77-.11,3.51-10.54,3.89a128.94,128.94,0,0,0-14.59.71c-9.48,1.19-15.24-.06-18.33-1.2-2.54-.94-4.7-1.91-4.78-2.59,0-.11,0-.21,0-.31,0,.36,0,.68.05.91.08.69,2.23,1.66,4.78,2.6,3.09,1.14,8.66,2.18,18.18,1.38,6.51-.54,11-.76,14.74-.89,10.75-.4,10.64-2.23,10.53-4.05Z"/><path class="cls-6" d="M197.23,260c-.38-.14-.8.27-1.11,1.06a5.5,5.5,0,0,0-.3,2.67h.05a3.7,3.7,0,0,0-.14,1.48l.52-.06a4.31,4.31,0,0,1,.62-2.49,10.22,10.22,0,0,0,.54-1.25C197.76,260.28,197.4,260,197.23,260Zm-.32,1.23a9.9,9.9,0,0,1-.51,1.19l-.09.19a5,5,0,0,1,.3-1.36,2,2,0,0,1,.42-.71A1.75,1.75,0,0,1,196.91,261.19Z"/><path class="cls-7" d="M189.83,277.69a62.65,62.65,0,0,0-7.2,1.36,96.34,96.34,0,0,1-11.84,1.69,88.82,88.82,0,0,1-11.44-.44,30.69,30.69,0,0,1-7.7-1.92l-.32-1.08a3.31,3.31,0,0,1,1.08-1.44c.77-.54,2.49-1,7.16-2.71,6-2.14,7.88-3.11,10.83-5.53s6.6-4.66,7.64-4.4,2.88,1.42,6.53,2.46c7.16,2,3.41,2.21,8.49.1,2.28-.95,2.25-3.78,2.46-3.19a6.75,6.75,0,0,0,1.26,3.91c1.62,2,2.2,5.39,1.94,9C196.47,276.94,192,277.54,189.83,277.69Z"/><path class="cls-8" d="M182.68,260.51c-.76-1-.69-2-1.79-2.8-.59-.41-2,.21-3.71,3.33a17.75,17.75,0,0,1-4.61,4.86l.17,0a36.62,36.62,0,0,1-7.75,4.73l.39.76c4.51-2.38,8.54-4.8,11.37-6.54,1.24-.49,3.19.16,3.95-.29C183,263.18,183.18,261.14,182.68,260.51Z"/><path class="cls-9" d="M152.08,277.75a1.67,1.67,0,0,0,1.27,1.25l.58.18h0l.63.19h0l.7.18h0l.71.17.05,0,.76.16h0c.26.06.53.11.79.15h.06c.25.05.51.09.76.12h.07l.82.1a88.82,88.82,0,0,0,11.44.44,89,89,0,0,0,11.84-1.69c2.54-.52,14-1.69,16.26-3.12,0-.29-.21-1.4-.2-1.69a20.51,20.51,0,0,1-2.05,1.57c-3.29,1.77-13.76,2.48-17.37,3.22a50.52,50.52,0,0,1-21.89-.33s-4.62-1.39-1.4-3.14c2.77-1.52,9.4-4.19,9.4-4.19l-.07-.88c-9.53,4.51-10.18,2.61-12.49,4.24-.37.27-1.44,1.31-1.39,2.22C151.6,277,152,277.19,152.08,277.75Z"/><path class="cls-10" d="M198.77,274.5c.17-3.37-.46-6.1-2-8a2.64,2.64,0,0,1-.21-.29c-.49.11-.73.51,0,1.59,1.23,1.91,1.7,5.59,1.82,6.92A2.78,2.78,0,0,1,198.77,274.5Z"/><path class="cls-9" d="M164.86,273.53s2.11-2.79-1.09-2c-1.17.3-10.82,3.9-10,5.44.54,1,.27,1.1,2.39,2s12,1.46,10.23,1c-3.93-.92-3.31-2.52-.9-4.68a24.41,24.41,0,0,1,3.43-2.74Z"/><path class="cls-11" d="M167.82,272.85s10.45,7.25,2.1,7.33c0,0,6,.27,7.25-.82s-.44-4.82-5.76-8.59Z"/><path class="cls-11" d="M172.31,269.82s10.91,8.31,4.87,9.68c0,0,4.65.06,5.71-1.21,2.14-2.57-1.66-6.78-7-10.56Z"/><path class="cls-11" d="M176.9,267.14s13,9.83,6.3,11.55c0,0,5.81.08,6.87-1.18,1.33-1.61-5.73-7.51,1.1-10.62,1.37-.62-9.44-.69-11.44-2.11Z"/><path class="cls-7" d="M197.4,267.41a7.28,7.28,0,0,0-.62-.91l-.15-.2a9.81,9.81,0,0,1-.73-3.57c-.06-3.85-1.82-1.69-2-1.1-.3,1.3-.23,4.24-5.82,4.18a17.77,17.77,0,0,1-8.58-2.28c-1.59-.92-2.25-.9-2.45-.83-2.62,1.37-2.94,2.31-5.15,4.25a47.88,47.88,0,0,1-8.93,5.39,3.88,3.88,0,0,0,4.08,1.16h0l.25-.09h0l.27-.11.05,0,.23-.11.29-.16c3.3-1.86,8.57-5.63,9.86-6.4s4-.45,6,.1c5.73,1.6,6.51-.06,10.1,1,1.24.36,2.87,1.86,4.13,5,0,.05-.22-2.83-.17-2.83s-1.41-1.95-1.4-1.95h.13s0,0,0,0l.14-.06h0l.13-.09h0A2.05,2.05,0,0,0,197.4,267.41Z"/><path class="cls-12" d="M177.67,264.18a.55.55,0,0,0,.58.51.54.54,0,1,0-.58-.51Z"/><path class="cls-13" d="M177.79,264.17a.43.43,0,0,0,.45.41.43.43,0,1,0-.45-.41Z"/><path class="cls-14" d="M178,264.62s-2.5.2-3-.78c0,0,.06-.65.43-.4,1,.68,1.34.35,2.8.28C178.19,263.72,178.77,264.42,178,264.62Z"/><path class="cls-12" d="M174.89,266.74a.54.54,0,0,0,.51.57.55.55,0,0,0,.57-.52.56.56,0,0,0-.52-.57A.54.54,0,0,0,174.89,266.74Z"/><path class="cls-13" d="M175,266.74a.43.43,0,0,0,.41.45.42.42,0,0,0,.44-.4.41.41,0,0,0-.4-.45A.43.43,0,0,0,175,266.74Z"/><path class="cls-14" d="M175.12,267.21s-2.5-.08-2.89-1.12c0,0,.13-.62.46-.34.94.79,1.3.5,2.76.59C175.45,266.34,176,267.09,175.12,267.21Z"/><path class="cls-12" d="M172,268.86a.54.54,0,1,0,.63-.44A.54.54,0,0,0,172,268.86Z"/><path class="cls-13" d="M172.09,268.88a.42.42,0,0,0,.34.49.43.43,0,1,0,.15-.84A.42.42,0,0,0,172.09,268.88Z"/><path class="cls-14" d="M172.15,269.35s-2.4-.33-2.66-1.41c0,0,.2-.61.51-.28.83.89,1.14.61,2.58.87C172.58,268.53,173,269.34,172.15,269.35Z"/><path class="cls-12" d="M168.86,270.7a.54.54,0,0,0,1,.37.54.54,0,0,0-1-.37Z"/><path class="cls-13" d="M169,270.74a.44.44,0,0,0,.26.55.43.43,0,0,0,.55-.26.41.41,0,0,0-.26-.54A.42.42,0,0,0,169,270.74Z"/><path class="cls-14" d="M169,271.22s-2.11-.54-2.18-1.65c0,0,.31-.56.55-.19.67,1,.82.6,2.19,1.11C169.51,270.49,169.78,271.35,169,271.22Z"/><path class="cls-12" d="M176.43,265.4a.54.54,0,1,0,1.07-.06.54.54,0,1,0-1.07.06Z"/><path class="cls-13" d="M176.54,265.4a.43.43,0,0,0,.45.4.42.42,0,0,0,.4-.45.41.41,0,0,0-.45-.4A.43.43,0,0,0,176.54,265.4Z"/><path class="cls-12" d="M176,263.08s-1.61.42-.21,1.83c.88.88,1.15.7,1.26.5s.28-.33-.43-.74S175.6,263.17,176,263.08Z"/><path class="cls-12" d="M173.51,267.82a.54.54,0,0,0,.51.56.53.53,0,0,0,.57-.51.52.52,0,0,0-.51-.56A.54.54,0,0,0,173.51,267.82Z"/><path class="cls-13" d="M173.62,267.82a.43.43,0,1,0,.45-.4A.44.44,0,0,0,173.62,267.82Z"/><path class="cls-12" d="M173.29,265.35s-1.64.34-.41,1.9c.78,1,1.07.82,1.2.64s.31-.3-.35-.78S172.94,265.4,173.29,265.35Z"/><path class="cls-12" d="M170.48,269.77a.54.54,0,1,0,1.06.18.54.54,0,0,0-1.06-.18Z"/><path class="cls-13" d="M170.59,269.79a.43.43,0,0,0,.84.14.43.43,0,0,0-.84-.14Z"/><path class="cls-12" d="M170.63,267.44s-1.75,0-.7,1.69c.65,1.05,1,.94,1.1.78s.35-.26-.25-.82S170.27,267.44,170.63,267.44Z"/><path class="cls-12" d="M167.23,271.34a.54.54,0,0,0,.33.69.53.53,0,0,0,.69-.32.54.54,0,0,0-1-.37Z"/><path class="cls-13" d="M167.34,271.38a.42.42,0,0,0,.25.55.43.43,0,1,0,.29-.81A.42.42,0,0,0,167.34,271.38Z"/><path class="cls-12" d="M168,269.1s-1.91-.33-1.18,1.52c.47,1.15.79,1.09,1,.95s.39-.19-.11-.84S167.61,269,168,269.1Z"/><path class="cls-14" d="M176,263.42s4.92-2.25,3.24-4.57-3.22,2.95-3.37,4.3l.31-.08s.79-3.42,1.84-3.93,1.13.46.91.91a8.36,8.36,0,0,1-2.24,2.85c-.09.08-.52.1-.62.17S176.17,263.32,176,263.42Z"/><path class="cls-14" d="M176.51,262.68s.85-3.53-.92-4.73-2.86,0-1.21,2.71l1.65,2.76.32-.36a19.91,19.91,0,0,1-1.69-3c-.4-1.1-.72-2.29.12-1.85s1.38.89,1.45,2.69c0,.86-.15,1.63-.12,2s.26.36.26.36Z"/><path class="cls-15" d="M175.78,263.25a5.27,5.27,0,0,1-1.85.55,4,4,0,0,0-2.44,1.8c0,.12-.35.2-.35.2s-.26-.2,0-.77a2.55,2.55,0,0,1,2.69-1.72,5.89,5.89,0,0,0,2.52-.39S176.87,263.25,175.78,263.25Z"/><path class="cls-15" d="M176.46,262.85a24.65,24.65,0,0,1-2.66,1.58c-1,.45-2.16,1.74-2.76,1.83s-.41.57-.41.57.37.22,2-1.22a12.68,12.68,0,0,1,3-1.87C176.26,263.31,176.51,263.26,176.46,262.85Z"/><path class="cls-16" d="M199.21,276.05a11.19,11.19,0,0,1-.52-1.81A49,49,0,0,1,183,278.47c-3.26.32-8.51,1.26-12.29,1.46a92.68,92.68,0,0,1-11.14-.09,33.19,33.19,0,0,1-6.13-1.25,1.57,1.57,0,0,1-1.1-1.52c0-.91-.34-1.79-.85-.85a6.48,6.48,0,0,0-.21,2.54c.08.68,2.24,1.66,4.78,2.59,3.09,1.14,8.76,2.18,18.27,1.38,6.5-.54,10.87-.75,14.65-.89,10.75-.39,10.64-2.22,10.53-4A7.12,7.12,0,0,0,199.21,276.05Z"/><path class="cls-17" d="M196.73,277.32s-6.62,2.07-9.52,2.25c-4.53.27-1.64,1.1,3.07,1.27C198.22,281.15,199.66,277,196.73,277.32Z"/><path class="cls-17" d="M168.19,282.48s-8,.54-13.49-2l5.37.59C168.17,282,169.11,280.11,168.19,282.48Z"/><path class="cls-11" d="M199.72,142.8a50.93,50.93,0,0,1-9.34,27.63C179.3,186.05,178.26,198,178.26,198l-27.1-8.61,10.49-37.8,2.09-7.85,3.7-11.66Z"/><path class="cls-22" d="M186,70.32c-1.78-1.54-9.28-2-11.46-1.59a8.75,8.75,0,0,0-2.17.54C167.55,70.51,159,81.1,158.22,83.33c-2.92,8.78-2,16.34,1.9,20.31,2.5,2.55,1.65,14.74,2.15,19.4,1,9.62.81,12.2,1.86,18.21,8.3-.4,13.37-.6,17.09-1.43a53.67,53.67,0,0,1,11.14-.58c1.94.1,5.38.41,5.8-.73a1,1,0,0,0-.08-.73c-.29-.68-.77-1.81-1.26-3.25-2.87-8.38-2.13-15.55-2.29-18.7C193,85,194.57,77.78,186,70.32ZM176.19,101c-9.95.64-14.3-22.31-1.2-28.19.67-.45-.2-1.12.79-.75C183.8,74,193.44,95.73,176.19,101Z"/><path class="cls-23" d="M163.59,137.63c3.18.32,6.49.56,9.92.7a179.14,179.14,0,0,0,24.62-.65l1.42,5.44s-27.15,2.53-35.61-.28C163.82,141.11,163.71,139.37,163.59,137.63Z"/><path class="cls-22" d="M181,65.82s3.35,6.49,4.62,7.85,5.53,15.89,5.53,15.89l.4-9.13S187,69.82,181,65.82Z"/><path class="cls-2" d="M168.57,133.45a8.14,8.14,0,0,0-1.31,1.54c-2.23,3-5.89,14.65-7.13,21.69a49.3,49.3,0,0,1-3.6,11.9l8,2.14s1.12-4.81,6-13.47,6.66-16,6.87-21.58C177.33,133.67,169.64,132.38,168.57,133.45Z"/><path class="cls-2" d="M170.38,140.52c.3-.73-4.17-.88-4.17-.88s-1.45-19.75,1.11-24.38c0,0-3.16-12.15-1.48-17-2-14.61,5.48-20.09,13.63-18.38,7.68,1.6,8.49,11.12,5.66,19.67-3.38,10.22-3.45,12.31-3.51,16.9-.08,6.17-4.13,20.82-5.1,23.23C172.78,139.28,173.37,142.78,170.38,140.52Z"/><path class="cls-2" d="M159.16,161.92a21.37,21.37,0,0,1-3,5.73c-1.51,1.86-1.93,2.58-4.21,5.76-2.48,3.44-2.91,3.42-4,4.29s.12,3.88,3.15,1.42,3.49-3.52,3.49-3.52-2.91,5.15-4.2,7.92-2.21,4.47-.78,4.91c.73.23,1.17,0,3.07-3.62s4.1-7.66,4.1-7.66-6.67,13.47-5.07,14.23c1,.49,1.69.05,3.69-4.38s3.71-8.74,3.71-8.74-4.11,11.9-4.06,12.93c0,.63.94,3.3,2.55-1.48s3.73-11,3.73-11-3,10.21-1.63,10.55,2.34-4.23,4-10.54,1.08-6.31,1-8.15,2.37-6.31,2.37-6.31Z"/><g class="cls-19"><path class="cls-20" d="M182.53,91.72c-.86,1.73-1.6,3.5-2.38,5.24-.38.88-.77,1.75-1.16,2.62s-.81,1.73-1.27,2.58a12.25,12.25,0,0,0,1.69-2.36,25.06,25.06,0,0,0,1.3-2.59c.39-.89.74-1.78,1-2.7A24,24,0,0,0,182.53,91.72Z"/><path class="cls-20" d="M179.75,120.92a10.38,10.38,0,0,0-1.62,1l-.74.55c-.25.18-.49.36-.79.54a2,2,0,0,0,1-.11,3.94,3.94,0,0,0,.88-.48,4.21,4.21,0,0,0,.72-.68A2.92,2.92,0,0,0,179.75,120.92Z"/></g></g></g></svg>