<?xml version="1.0" encoding="utf-8"?>
<!-- Generator: Adobe Illustrator 25.0.0, SVG Export Plug-In . SVG Version: 6.00 Build 0)  -->
<svg version="1.1" id="Layer_1" xmlns="http://www.w3.org/2000/svg" xmlns:xlink="http://www.w3.org/1999/xlink" x="0px" y="0px"
	 viewBox="0 0 300 300" style="enable-background:new 0 0 300 300;" xml:space="preserve">
<style type="text/css">
	.st0{opacity:8.000000e-02;fill:#E13856;enable-background:new    ;}
	.st1{fill:url(#SVGID_1_);}
	.st2{fill:#C80E00;}
	.st3{opacity:0.89;}
	.st4{opacity:0.8;fill:#FFFFFF;enable-background:new    ;}
	.st5{fill:url(#SVGID_2_);}
	.st6{fill:url(#SVGID_3_);}
	.st7{fill:url(#SVGID_4_);}
	.st8{fill:url(#SVGID_5_);}
	.st9{fill:url(#SVGID_6_);}
	.st10{fill:url(#SVGID_7_);}
	.st11{fill:url(#SVGID_8_);}
	.st12{fill:url(#SVGID_9_);}
	.st13{fill:url(#SVGID_10_);}
	.st14{opacity:0.74;fill:#FFFFFF;enable-background:new    ;}
	.st15{opacity:0.9;fill:url(#SVGID_11_);enable-background:new    ;}
	.st16{opacity:0.9;fill:url(#SVGID_12_);enable-background:new    ;}
	.st17{opacity:0.9;fill:url(#SVGID_13_);enable-background:new    ;}
	.st18{opacity:0.9;fill:url(#SVGID_14_);enable-background:new    ;}
	.st19{opacity:0.9;}
	.st20{fill:url(#SVGID_15_);}
	.st21{fill:url(#SVGID_16_);}
	.st22{fill:url(#SVGID_17_);}
	.st23{fill:url(#SVGID_18_);}
	.st24{fill:#FFFFFF;}
	.st25{fill:url(#SVGID_19_);}
	.st26{fill:#183658;}
	.st27{fill:#1A1A1A;}
	.st28{fill:#9E9DA2;}
	.st29{fill:#D8D9DD;}
	.st30{fill:#24B6FF;}
	.st31{fill:#CF283C;}
	.st32{fill:#EAFCFC;}
	.st33{fill:#059DD8;}
	.st34{opacity:0.5;fill:#FEB546;enable-background:new    ;}
	.st35{fill:#B75742;}
	.st36{fill:#263D60;}
	.st37{fill:#355389;}
	.st38{fill:#F7A491;}
	.st39{opacity:0.3;fill:#F47458;enable-background:new    ;}
	.st40{fill:#F48C7F;}
	.st41{fill:#F47458;}
	.st42{fill:#13375B;}
	.st43{fill:#3C8F7C;}
	.st44{fill:#50BFA5;}
	.st45{fill:#5184CE;}
	.st46{fill:#EAB054;}
	.st47{opacity:0.6;fill:#C5DDF9;enable-background:new    ;}
	.st48{opacity:0.7;fill:#C5DDF9;enable-background:new    ;}
	.st49{opacity:0.2;fill:#FFFFFF;enable-background:new    ;}
	.st50{fill:#F7CC7F;}
</style>
<g>
	<g id="Layer_1_1_">
		<g id="Page-1">
			<g id="For-you-and-your-partner-Copy-4">
				<g id="Group-4">
					<circle id="Mask-Copy-2" class="st0" cx="150" cy="150" r="150"/>
				</g>
			</g>
		</g>
		
			<linearGradient id="SVGID_1_" gradientUnits="userSpaceOnUse" x1="246.3691" y1="112.1222" x2="187.3491" y2="194.5422" gradientTransform="matrix(1 0 0 -1 0 302)">
			<stop  offset="0" style="stop-color:#FF928E"/>
			<stop  offset="1" style="stop-color:#FE7062"/>
		</linearGradient>
		<path class="st1" d="M206.7,123.4h41.9l0,0v61c0,10.9-8.8,19.8-19.8,19.8l0,0h-22.1l0,0V123.4L206.7,123.4z"/>
		<path class="st2" d="M254.2,130.4h-49.5L195.7,94h47.9l12.5,33.3c0.5,1.1,0,2.4-1.1,2.8C254.8,130.3,254.5,130.4,254.2,130.4z"/>
		<path class="st2" d="M243.9,94.5l-51,1.4l-1.4-4.5l48.8-0.9c1.8,0,3.3,1.1,3.3,2.4L243.9,94.5z"/>
		<g class="st3">
			<path class="st4" d="M217,145.3h21.7c0.6,0,1.1,0.5,1.1,1.1v34.6c0,0.6-0.5,1.1-1.1,1.1H217c-0.6,0-1.1-0.5-1.1-1.1v-34.6
				C215.8,145.8,216.3,145.3,217,145.3z"/>
			
				<linearGradient id="SVGID_2_" gradientUnits="userSpaceOnUse" x1="222.7309" y1="183.85" x2="221.9809" y2="116.24" gradientTransform="matrix(1 0 0 -1 0 302)">
				<stop  offset="0" style="stop-color:#E1473D"/>
				<stop  offset="1" style="stop-color:#E9605A"/>
			</linearGradient>
			<path class="st5" d="M218.2,147.3h8.1c0.3,0,0.6,0.3,0.6,0.6v31.7c0,0.3-0.3,0.6-0.6,0.6h-8.1c-0.3,0-0.6-0.3-0.6-0.6v-31.7
				C217.6,147.6,217.9,147.3,218.2,147.3z"/>
			
				<linearGradient id="SVGID_3_" gradientUnits="userSpaceOnUse" x1="233.8795" y1="183.7199" x2="233.1295" y2="116.1199" gradientTransform="matrix(1 0 0 -1 0 302)">
				<stop  offset="0" style="stop-color:#E1473D"/>
				<stop  offset="1" style="stop-color:#E9605A"/>
			</linearGradient>
			<path class="st6" d="M229.3,147.3h8.1c0.3,0,0.6,0.3,0.6,0.6v31.7c0,0.3-0.3,0.6-0.6,0.6h-8.1c-0.3,0-0.6-0.3-0.6-0.6v-31.7
				C228.7,147.6,229,147.3,229.3,147.3z"/>
		</g>
		
			<linearGradient id="SVGID_4_" gradientUnits="userSpaceOnUse" x1="65.4032" y1="97.4551" x2="150.4731" y2="211.4051" gradientTransform="matrix(1 0 0 -1 0 302)">
			<stop  offset="0" style="stop-color:#FF928E"/>
			<stop  offset="1" style="stop-color:#FE7062"/>
		</linearGradient>
		<path class="st7" d="M116.8,204.1H88.7c-7.6,0-13.8-6.2-13.8-13.8l0,0v-67l0,0h41.9l0,0V204.1L116.8,204.1z"/>
		<path class="st2" d="M69.3,130.4h49.4l9.6-36.4H79.9l-12.5,33.3c-0.5,1.1,0,2.4,1.1,2.9C68.7,130.3,69,130.4,69.3,130.4z"/>
		<path class="st2" d="M79.9,94.5l54.5,0.4l0.2-4.4H83.5c-2,0-3.6,1.1-3.6,2.4V94.5z"/>
		<g class="st3">
			<path class="st4" d="M106.6,182.2H84.9c-0.6,0-1.1-0.5-1.1-1.1v-34.6c0-0.6,0.5-1.1,1.1-1.1h21.7c0.6,0,1.1,0.5,1.1,1.1v34.6
				C107.7,181.7,107.2,182.2,106.6,182.2z"/>
			
				<linearGradient id="SVGID_5_" gradientUnits="userSpaceOnUse" x1="103.8685" y1="170.0893" x2="98.8085" y2="106.7593" gradientTransform="matrix(1 0 0 -1 0 302)">
				<stop  offset="0" style="stop-color:#E1473D"/>
				<stop  offset="1" style="stop-color:#E9605A"/>
			</linearGradient>
			<path class="st8" d="M105.3,180.2h-8c-0.3,0-0.6-0.3-0.6-0.6v-31.7c0-0.3,0.3-0.6,0.6-0.6h8c0.3,0,0.6,0.3,0.6,0.6v31.7
				C106,179.9,105.7,180.2,105.3,180.2z"/>
			
				<linearGradient id="SVGID_6_" gradientUnits="userSpaceOnUse" x1="92.7889" y1="170.9701" x2="87.7289" y2="107.6401" gradientTransform="matrix(1 0 0 -1 0 302)">
				<stop  offset="0" style="stop-color:#E1473D"/>
				<stop  offset="1" style="stop-color:#E9605A"/>
			</linearGradient>
			<path class="st9" d="M94.2,180.2h-8c-0.3,0-0.6-0.3-0.6-0.6v-31.7c0-0.3,0.3-0.6,0.6-0.6h8c0.3,0,0.6,0.3,0.6,0.6v31.7
				C94.8,179.9,94.5,180.2,94.2,180.2z"/>
		</g>
		
			<linearGradient id="SVGID_7_" gradientUnits="userSpaceOnUse" x1="172.5283" y1="152.9016" x2="316.4583" y2="300.8516" gradientTransform="matrix(1 0 0 -1 0 302)">
			<stop  offset="0" style="stop-color:#FF928E"/>
			<stop  offset="1" style="stop-color:#FE7062"/>
		</linearGradient>
		<path class="st10" d="M161.1,72.9c0,0-56.7,42.8-58.2,42.8v88c0,2.2,1.8,3.9,3.9,3.9h109.6c1.5,0,2.8-1.2,2.8-2.8v-89.1
			L161.1,72.9z"/>
		
			<linearGradient id="SVGID_8_" gradientUnits="userSpaceOnUse" x1="156.8831" y1="122.7295" x2="159.0131" y2="91.4295" gradientTransform="matrix(1 0 0 -1 0 302)">
			<stop  offset="0" style="stop-color:#FF928E"/>
			<stop  offset="1" style="stop-color:#FE7062"/>
		</linearGradient>
		<path class="st11" d="M143.6,198h29.7c1.8,0,3.2,1.4,3.2,3.2v2.9l0,0h-36.1l0,0v-2.9C140.4,199.4,141.9,198,143.6,198z"/>
		
			<linearGradient id="SVGID_9_" gradientUnits="userSpaceOnUse" x1="163.605" y1="181.0503" x2="160.955" y2="136.9103" gradientTransform="matrix(1 0 0 -1 0 302)">
			<stop  offset="0" style="stop-color:#E1473D"/>
			<stop  offset="1" style="stop-color:#E9605A"/>
		</linearGradient>
		<path class="st12" d="M143.6,201.9h29.7c1.8,0,3.2,1.4,3.2,3.2v2.9l0,0h-36.1l0,0v-2.9C140.4,203.3,141.9,201.9,143.6,201.9z"/>
		
			<linearGradient id="SVGID_10_" gradientUnits="userSpaceOnUse" x1="186.6065" y1="172.086" x2="111.4065" y2="50.836" gradientTransform="matrix(1 0 0 -1 0 302)">
			<stop  offset="0" style="stop-color:#E1473D"/>
			<stop  offset="1" style="stop-color:#E9605A"/>
		</linearGradient>
		<path class="st13" d="M149.7,150h17.5c2,0,3.6,1.6,3.6,3.6V198l0,0h-24.6l0,0v-44.5C146.2,151.6,147.8,150,149.7,150z"/>
		<path class="st14" d="M169,146.8h-21.1c-1,0-1.7-0.8-1.7-1.7c0,0,0,0,0,0v-1.5c0-0.9,0.7-1.7,1.6-1.7l21.1-1.5
			c1-0.1,1.8,0.7,1.9,1.6c0,0,0,0.1,0,0.1v3C170.8,146,170,146.8,169,146.8C169,146.8,169,146.8,169,146.8z"/>
		
			<linearGradient id="SVGID_11_" gradientUnits="userSpaceOnUse" x1="226.3584" y1="212.8813" x2="214.2884" y2="198.3513" gradientTransform="matrix(1 0 0 -1 0 302)">
			<stop  offset="0" style="stop-color:#E1473D"/>
			<stop  offset="1" style="stop-color:#E9605A"/>
		</linearGradient>
		<path class="st15" d="M190.3,125.4h-0.2c-6.1,0-11.4,4.3-11.4,10.4v10.9h11.6V125.4z"/>
		
			<linearGradient id="SVGID_12_" gradientUnits="userSpaceOnUse" x1="240.1165" y1="201.4546" x2="228.0464" y2="186.9246" gradientTransform="matrix(1 0 0 -1 0 302)">
			<stop  offset="0" style="stop-color:#E1473D"/>
			<stop  offset="1" style="stop-color:#E9605A"/>
		</linearGradient>
		<path class="st16" d="M178.7,150v32.2c0,1.1,1.3,2.8,2.4,2.8h9.3v-35H178.7z"/>
		
			<linearGradient id="SVGID_13_" gradientUnits="userSpaceOnUse" x1="233.0882" y1="207.2815" x2="221.0282" y2="192.7615" gradientTransform="matrix(1 0 0 -1 0 302)">
			<stop  offset="0" style="stop-color:#E1473D"/>
			<stop  offset="1" style="stop-color:#E9605A"/>
		</linearGradient>
		<path class="st17" d="M193.5,125.4h-0.6v21.3h11.6v-10.9C204.6,129.7,199.6,125.4,193.5,125.4z"/>
		
			<linearGradient id="SVGID_14_" gradientUnits="userSpaceOnUse" x1="248.1279" y1="194.7951" x2="236.0579" y2="180.2651" gradientTransform="matrix(1 0 0 -1 0 302)">
			<stop  offset="0" style="stop-color:#E1473D"/>
			<stop  offset="1" style="stop-color:#E9605A"/>
		</linearGradient>
		<path class="st18" d="M192.9,185h9.6c1.1,0,2-1.7,2-2.8V150h-11.6V185z"/>
		<g class="st19">
			
				<linearGradient id="SVGID_15_" gradientUnits="userSpaceOnUse" x1="170.4698" y1="305.0735" x2="143.6499" y2="228.1835" gradientTransform="matrix(1 0 0 -1 0 302)">
				<stop  offset="0" style="stop-color:#E1473D"/>
				<stop  offset="1" style="stop-color:#E9605A"/>
			</linearGradient>
			<path class="st20" d="M126.2,125.4H126c-6.1,0-11.4,4.3-11.4,10.4v10.9h11.6L126.2,125.4z"/>
			
				<linearGradient id="SVGID_16_" gradientUnits="userSpaceOnUse" x1="178.8975" y1="302.1274" x2="152.0775" y2="225.2474" gradientTransform="matrix(1 0 0 -1 0 302)">
				<stop  offset="0" style="stop-color:#E1473D"/>
				<stop  offset="1" style="stop-color:#E9605A"/>
			</linearGradient>
			<path class="st21" d="M114.6,150v32.2c0,1.1,1.3,2.8,2.4,2.8h9.3v-35H114.6z"/>
			
				<linearGradient id="SVGID_17_" gradientUnits="userSpaceOnUse" x1="181.8087" y1="301.1105" x2="154.9887" y2="224.2305" gradientTransform="matrix(1 0 0 -1 0 302)">
				<stop  offset="0" style="stop-color:#E1473D"/>
				<stop  offset="1" style="stop-color:#E9605A"/>
			</linearGradient>
			<path class="st22" d="M129.4,125.4h-0.6v21.3h11.6v-10.9C140.5,129.7,135.5,125.4,129.4,125.4z"/>
			
				<linearGradient id="SVGID_18_" gradientUnits="userSpaceOnUse" x1="191.2198" y1="297.8366" x2="164.3998" y2="220.9566" gradientTransform="matrix(1 0 0 -1 0 302)">
				<stop  offset="0" style="stop-color:#E1473D"/>
				<stop  offset="1" style="stop-color:#E9605A"/>
			</linearGradient>
			<path class="st23" d="M128.8,185h9.6c1.1,0,2-1.7,2-2.8V150h-11.6V185z"/>
		</g>
		<path class="st24" d="M205.6,187h-28c-1.6,0-2.9-1.3-2.9-2.9c0,0,0,0,0,0v-48.5c0-7.7,6.2-13.9,13.9-13.9h6
			c7.7,0,13.9,6.2,13.9,13.9v48.5C208.5,185.7,207.2,187,205.6,187C205.6,187,205.6,187,205.6,187z M188.6,122
			c-7.5,0-13.6,6.1-13.6,13.6v48.5c0,1.5,1.2,2.6,2.6,2.6h28c1.5,0,2.6-1.2,2.6-2.6v-48.6c0-7.5-6.1-13.6-13.6-13.6L188.6,122z"/>
		<path class="st24" d="M141.5,187h-28c-1.6,0-2.9-1.3-2.9-2.9c0,0,0,0,0,0v-48.5c0-7.7,6.2-13.9,13.9-13.9h6
			c7.7,0,13.9,6.2,13.9,13.9v48.5C144.4,185.7,143.1,187,141.5,187C141.5,187,141.5,187,141.5,187z M124.5,122
			c-7.5,0-13.6,6.1-13.6,13.6v48.5c0,1.5,1.2,2.6,2.7,2.6h28c1.5,0,2.6-1.2,2.6-2.6v-48.6c0-7.5-6.1-13.6-13.6-13.6L124.5,122z"/>
		
			<linearGradient id="SVGID_19_" gradientUnits="userSpaceOnUse" x1="198.6118" y1="218.7062" x2="140.4118" y2="117.2862" gradientTransform="matrix(1 0 0 -1 0 302)">
			<stop  offset="0" style="stop-color:#FF928E"/>
			<stop  offset="1" style="stop-color:#FE7062"/>
		</linearGradient>
		<path class="st25" d="M147,198h-0.6c-0.2,0-0.4-0.2-0.4-0.4v-47.2c0-0.2,0.2-0.4,0.4-0.4l0,0h0.7V198z"/>
		<rect x="186.5" y="73.8" class="st2" width="9.6" height="15.7"/>
		<path class="st2" d="M187.7,71.6h7.7c2.2,0,3.9,1.8,3.9,3.9c0,0,0,0,0,0v0.9l0,0h-15.6l0,0v-0.9C183.8,73.3,185.5,71.6,187.7,71.6
			L187.7,71.6z"/>
		<path class="st2" d="M99.3,120.2l61.7-47.3l58.6,45.4c1.6,1.2,3.9,0.9,5.1-0.7c0.3-0.4,0.6-0.9,0.7-1.5l0.8-4l-65.2-49.7L98,110.7
			c-1.1,0.9-1.5,2.4-1,3.7L99.3,120.2z"/>
		<path class="st26" d="M56.2,219.9c0,0,34.4,5.7,34.8,5.5s4.9-19.5,4.9-19.5s-28.4-5.1-28.9-5.1s-6.6,4.9-6.7,5.3
			S56.2,219.9,56.2,219.9z"/>
		<path class="st26" d="M161.1,224.8c0.8,0.1,42.5-0.8,42.5-0.8l-3.1-9.6c0,0-5.8-8.7-8.8-8.6s-21.2-2.8-24.3-0.6s-5.9,0.4-7.4,5.6
			s-2.6,5.8-1.5,8.9C159,221.6,159.9,223.3,161.1,224.8z"/>
		<ellipse class="st27" cx="73.6" cy="223.3" rx="14.2" ry="14.2"/>
		<circle class="st28" cx="73.6" cy="223.3" r="9.9"/>
		<circle class="st29" cx="73.6" cy="223.3" r="6.6"/>
		<ellipse class="st27" cx="182.7" cy="223.3" rx="14.2" ry="14.2"/>
		<circle class="st28" cx="182.7" cy="223.3" r="9.9"/>
		<path class="st29" d="M176.1,223.3c0,3.6,2.9,6.6,6.6,6.6s6.6-2.9,6.6-6.6c0-3.6-2.9-6.6-6.6-6.6c0,0,0,0,0,0
			C179.1,216.7,176.1,219.7,176.1,223.3z"/>
		<path class="st30" d="M215.2,209.8c-1.2-7.9-5.1-9.6-16.5-11.9c-12.6-2.5-28.7-10.8-28.7-10.8s-27.4-13.4-34.1-14.9
			s-23.2-1.1-37.1-1s-22,4-29,9.5s-19.2,9.7-19.2,9.7l-2.2,0.4c-2.3,0.4-3.9,2.4-3.9,4.7v19.6c0,2.2,1.5,4.2,3.6,4.7l8,2.1l0,0
			c0.6,0.1,1.2-0.3,1.3-0.9c0,0,0,0,0-0.1c1.1-8.8,9.1-15.1,17.9-14c8.1,1,14.1,7.8,14.1,15.9c0,1-0.1,2-0.3,2.9
			c-0.2,0.9,0.4,1.7,1.3,1.9c0.1,0,0.2,0,0.3,0h73.7c1.3,0,2.4-1.1,2.4-2.4c0-0.1,0-0.2,0-0.3c-0.1-0.7-0.1-1.4-0.1-2.1
			c0-8.8,7.2-16,16-16s16,7.2,16,16c0,0.6,0,1.2-0.1,1.8c-0.2,1.5,0.9,2.9,2.4,3c0.1,0,0.2,0,0.3,0H212c1.9,0,3.5-1.6,3.5-3.5
			c0,0,0,0,0,0v-10.3C215.5,212.5,215.4,211.2,215.2,209.8z"/>
		<path class="st31" d="M44.9,197.8h8.7c0.5-0.1,1,0.3,1.1,0.9c0,0.2,0,0.4-0.1,0.6l-1,2.4c-0.9,2.2-3.1,3.7-5.5,3.7h-3.2
			c-0.6,0-1.1-0.5-1.1-1.1v-5.2C43.8,198.3,44.3,197.8,44.9,197.8z"/>
		<path class="st32" d="M201.4,201.4c4.8,0.7,10.4,5.3,10.4,5.3c0.8,0.9,0.8,2.2-0.1,3c-0.4,0.4-1,0.6-1.6,0.6l-9.4-0.6
			c-1.9-0.1-3.6-1.5-4.1-3.3l0,0C195.6,203.3,196.3,200.7,201.4,201.4z"/>
		<path class="st33" d="M44.5,215.8c-0.5,0-0.9,0.4-0.9,0.8c0,0.1,0,0.2,0.1,0.4c0.6,1.6,2,2.8,3.7,3.3l9,2.4
			c0.7,0.1,1.4-0.4,1.5-1.1c0,0,0,0,0-0.1c0.2-1.5,0.5-3,1.1-4.4c0.2-0.4,0-0.8-0.4-0.9c-0.1,0-0.2-0.1-0.3-0.1L44.5,215.8z"/>
		<path class="st33" d="M198.9,219.5c-0.6,0-1.1,0.5-1.1,1.1c0,0.1,0,0.1,0,0.2c0.1,0.8,0.2,1.5,0.1,2.3c0,0.7,0,1.3-0.1,2
			c-0.2,1.7,1,3.2,2.7,3.4c0.1,0,0.2,0,0.3,0h11.8c2.1,0,3.9-1.7,3.9-3.9v-3c0-0.9-0.7-1.6-1.6-1.6L198.9,219.5z"/>
		<path class="st34" d="M170,191.7c-0.2-0.1-15.8-8.6-26.1-13.4s-21.7-4.2-22.2-4.2c-1.3,0-28.7-0.6-37,2s-19.5,14.7-20,15.2
			l-0.1,0.1l3,13.9H68c8.6-0.5,15.2,1.8,19.1,6.6c1.7,2.2,2.9,4.8,3.3,7.5v0.3l31.1,0.8h0.7l43.3,0.8v-0.4
			c0.2-14.1,4.7-28.8,4.7-28.9l0.1-0.3L170,191.7z M91,219.1c-0.5-2.8-1.6-5.4-3.4-7.6c-2.8-3.5-8.4-7.5-19.4-7l-2.8-12.9
			c1.3-1.4,11.7-12.4,19.5-14.8s33.1-2,36.5-2v45L91,219.1z M164.7,220.7l-42.6-0.8v-45c2,0,12.2-0.1,21.5,4.2
			c9.6,4.4,23.7,12.1,25.8,13.3C168.8,194.4,165,207.7,164.7,220.7L164.7,220.7z"/>
		<path class="st33" d="M43.7,217c0.6,1.6,2,2.8,3.7,3.3l9,2.4c0.7,0.1,1.4-0.4,1.5-1.1c0,0,0,0,0-0.1c0.1-0.6,0.2-1.2,0.3-1.7
			L43.7,217z"/>
		<path class="st33" d="M197.9,223.9c0,0.4,0,0.8-0.1,1.1c-0.2,1.7,1,3.2,2.7,3.4c0.1,0,0.2,0,0.3,0h11.8c2.1,0,3.9-1.7,3.9-3.9
			v-0.6L197.9,223.9z"/>
		<path class="st33" d="M167.5,223.9c0-0.8,0.1-1.6,0.2-2.4c0.1-0.9-0.5-1.7-1.3-1.8c-0.1,0-0.1,0-0.2,0l-76.7-1.9
			c-0.7,0-1.2,0.5-1.3,1.2c0,0.1,0,0.2,0,0.4c0.7,2.4,0.8,4.9,0.3,7.4c-0.2,0.9,0.4,1.7,1.3,1.9c0.1,0,0.2,0,0.3,0h75.1
			c1.3,0,2.4-1.1,2.4-2.4c0-0.1,0-0.2,0-0.3C167.5,225.3,167.5,224.6,167.5,223.9z"/>
		<path class="st33" d="M167.5,223.9L167.5,223.9H88.8c0,1-0.1,2-0.3,3c-0.2,0.9,0.4,1.7,1.3,1.9c0.1,0,0.2,0,0.3,0h75.1
			c1.3,0,2.4-1.1,2.4-2.4c0-0.1,0-0.2,0-0.3C167.5,225.4,167.5,224.6,167.5,223.9z"/>
		<path class="st32" d="M73.9,193.1l42.4,0.4c1.5,0,2.7-1.1,2.9-2.5c0.3-2.4,0.3-12.9,0.3-12.9c-0.2-1.2-1.1-2.1-2.3-2.1
			c-7.1-0.4-14.3-0.3-21.4,0.5c-8.1,1-15.6,4.7-21.3,10.4l-3,3C71.4,189.8,69.4,193,73.9,193.1z"/>
		<path class="st32" d="M124.2,179.4v11c0,1.4,1.1,2.6,2.5,2.6l33.3,1.3c0.8,0,1.6-0.3,2-1c0.6-0.9,0.7-2.3-2.3-4.3
			c-5.2-3.4-18.4-10.7-23.3-11.4c-3.2-0.4-6.5-0.7-9.7-0.7c-1.3,0-2.4,1-2.4,2.3C124.2,179.3,124.2,179.3,124.2,179.4z"/>
		<path class="st35" d="M80.2,187.9c0,0,27.6-3.1,28.2-2.6s4.4,9.5,5.1,12L81,197l-2.3-3.5L80.2,187.9z"/>
		<path class="st36" d="M138.7,190.4c1.5,1.8,2.6,4,3.3,6.3l-0.8,1.3l-1.6-1.7L138.7,190.4z"/>
		<path class="st27" d="M141.4,182.5c-0.5-3.2-3.4-5.5-6.4-3.9c-0.8,0.4-1.5,1-2.1,1.6c-1.3,1.6-1.6,3.6-2.9,5.2
			c0.5,0.4,1.1,0.8,1.7,1.1l0.8-1.1l-0.3,1.4c2.7,1.2,5.7,1.8,8.8,1.7C141.6,186.6,141.7,184.5,141.4,182.5z"/>
		<path class="st37" d="M134.7,189.5c0,0-2.9-0.2-4,1.1s2.5,11.1,2.7,12.7s-1.7,4.7-1.7,4.7s8,3.7,9.9,2.4c0,0-0.3-12.7-0.5-13.8
			c-0.6-2.1-1.4-4.2-2.4-6.2C138.3,190,134.7,189.5,134.7,189.5z"/>
		<path class="st38" d="M135.6,185.6c0,0,0,0.1,0,0.2c-0.2,1.2-0.6,2.5-1,3.6c-0.4,0.8,1.4,3.2,3.1,2.9c0.5-0.1-0.4-2.2-0.4-2.5
			c0.1-0.4,0.2-1,0.3-1.6c0.1-0.4,0.1-0.7,0.2-1c0.2-0.9,0.3-1.7,0.3-1.7L135.6,185.6z"/>
		<path class="st35" d="M80.4,188.5c0-0.2-0.1-0.4-0.2-0.5l-4.1,4.1c0,0-3.1,4.9,3.7,5h1.9L80.4,188.5z"/>
		<path class="st39" d="M135.6,185.9c0-0.1,0-0.2,0-0.2l2.6-0.1c0,0-0.1,0.8-0.3,1.7c-0.1,0.3-0.1,0.7-0.2,1
			c-0.5-0.1-0.9-0.3-1.2-0.6c-0.4-0.4-0.8-0.9-0.9-1.4C135.6,186.1,135.6,186,135.6,185.9z"/>
		<path class="st38" d="M137.4,179.8c-0.8-0.1-1.5,0.3-2,0.9c-0.8,1-1.6,4,0.3,5.7s3.8-0.2,4.1-2.2S140.1,179.7,137.4,179.8z"/>
		<path class="st38" d="M140.3,184.1c-0.2,0.4-0.6,0.7-0.9,0.5s-0.2-0.6,0-1s0.6-0.7,0.9-0.6S140.6,183.6,140.3,184.1z"/>
		<path class="st27" d="M137.5,179.5c0,0-1.6,2.9-2.8,3s-1.3,1.7-1.3,1.7s0.4-3.6,1.6-4.2C135.8,179.5,136.7,179.3,137.5,179.5z"/>
		<path class="st38" d="M135,183.2c0.1,0.5-0.1,1-0.4,1.1s-0.7-0.3-0.8-0.8s0.1-1,0.4-1.1S135,182.7,135,183.2z"/>
		<path class="st40" d="M131,203.6c0,0,1.1-4.7,1.5-5.7s2.2-5.8,2.2-5.8l-2.2-0.5l-2.1,5.4c-0.6,1.7-0.4,4.8-0.4,5.7l-0.1,0.8l0,0
			c0,0.1,0,0.1-0.1,0.2c0,0.1-0.1,0.2-0.1,0.4c0,0.1-0.1,0.1-0.1,0.2c0,0.2-0.1,0.5-0.1,0.7c0,0.1,0,0.2,0,0.3v0.4
			c0,0.3,0.3,0.2,0.3,0.2s0,0.2,0.1,0.2c0.1,0,0.1,0,0.2,0l0,0c0,0.1,0.1,0.2,0.2,0.2c0.1,0,0.2,0,0.2-0.1l0,0
			c0.1,0.1,0.3,0.1,0.4,0c0.1-0.1,0.1-0.5,0.1-0.5c0,0,0.1-0.1,0.1-0.2c0-0.1,0.2-0.5,0.2-0.6c0-0.2-0.1-0.4-0.1-0.6
			c-0.1-0.2-0.1-0.4-0.2-0.5c0-0.1,0-0.2,0-0.2L131,203.6z"/>
		<path class="st38" d="M128.1,186.5l-0.7,4.5c0,0,2.5,5.3,4,4.9c1.2-0.4,0.5-5.1,0.5-5.1c-0.3-1.2-0.5-2.5-0.5-3.8
			C131.5,185.7,128.1,186.5,128.1,186.5z"/>
		<path class="st41" d="M131.3,186.9c0.2-1.3-3.3-0.4-3.3-0.4l-0.1,0.4c0.1,0.2,0.2,0.4,0.4,0.6c0.8,0.8,1.9,1.3,3,1.4
			C131.3,188.2,131.3,187.6,131.3,186.9z"/>
		<path class="st38" d="M127.5,180.2c-0.1,0-0.8,5.1,0.5,6.5c1.3,1.4,3.9,1.9,4.8,0.8s1-6.7-1.1-8.2S127.5,180.2,127.5,180.2z"/>
		<path class="st42" d="M130.9,176.5c-1.2,0.2-2.2,0.8-3,1.7c-0.7,0.1-1.7,0.5-2.7,2.1c-1.1,1.8-0.6,4.2,1.1,5.4
			c0.8,0.5,1.3,1.4,1.4,2.4l0.2-0.7c0.2-0.5,0.2-1,0.2-1.6c0-0.3-0.1-0.6-0.2-0.9c-0.3-0.7,0.7-1.2,1-1.9s0.2-1.6,0.6-2.4l0.4-0.6
			c0.6-0.4,1.3-0.6,2-0.6C133.1,179.8,133,176.1,130.9,176.5z"/>
		<path class="st38" d="M129,184.1c0,0.6-0.3,1.1-0.6,1.1s-0.7-0.5-0.7-1.1s0.3-1.1,0.6-1.1C128.7,182.9,129,183.4,129,184.1z"/>
		<path class="st43" d="M126.8,190.8L126.8,190.8c0.2-0.3,0.5-0.6,0.9-0.6c1.7-0.1,6.2-0.2,8.5,3.9c0.4,0.6,0.6,1.3,0.8,2l0.5,2
			l-12-0.4v-1.3C125.5,194.4,125.9,192.5,126.8,190.8z"/>
		<path class="st27" d="M155.3,198.8l1.7-7.1c0.1-0.5-0.2-0.9-0.6-1.1c0,0,0,0,0,0c-0.5-0.1-0.9,0.2-1.1,0.6c0,0,0,0,0,0l-1.8,7.4
			L155.3,198.8z"/>
		<path class="st38" d="M150.8,198.6l1.2-0.7l1.3-0.6l0,0c0.1,0,0.2-0.1,0.4-0.1c0.2-0.1,0.5-0.1,0.7-0.2c0.1,0,0.2,0,0.4,0
			c0.1,0,1.1-0.5,1.3-0.6c0.2-0.1,0.3-0.2,0.5-0.4l0.6-0.4c0.5-0.3,0.1-0.7,0.1-0.7c0.2-0.1,0.3-0.3,0.2-0.4c0-0.1-0.1-0.2-0.2-0.3
			l0.1-0.1c0.1-0.1,0.2-0.3,0.1-0.4c-0.1-0.1-0.2-0.2-0.3-0.3c-0.1,0-0.1,0-0.1,0c0-0.2-0.2-0.6-0.4-0.6c-0.3,0.1-0.7,0.2-1,0.3
			c-0.1,0-0.2,0-0.4,0c-0.1,0-1,0.2-1.1,0.2s-0.5,0.6-0.7,0.8c-0.2,0.3-0.4,0.6-0.6,0.9c-0.1,0.1-0.2,0.2-0.4,0.2l0,0
			c0,0-5.5,2-8.7,3L150.8,198.6z"/>
		<path class="st44" d="M133.8,198c-0.2-1.8-0.6-3.5-1.2-5.2c-1-2.2-4.3-3.4-5.9-2.1c-0.9,0.7-0.5,4.1,0.2,7.1L133.8,198z"/>
		<path class="st40" d="M72.1,186.8c-0.1,0.1-0.2,0.3-0.2,0.5c-0.1,0.4,0,0.8,0.2,1.1C72,187.9,72,187.3,72.1,186.8z"/>
		<path class="st35" d="M83.2,194.6c1.7,1.3,3.2,2.6,4.8,4.1c0.3,0.5-0.8,6.4-0.8,6.4c-0.9,0-1.7-0.2-2.5-0.6
			c0.2-1.4,0.3-2.8,0.2-4.2c-0.2-0.2-4.9-2.2-4.9-2.2l0.3-2.4L83.2,194.6z"/>
		<polygon class="st38" points="111.2,197.8 113.4,208.4 109.6,208.1 107.8,198.3 		"/>
		<path class="st45" d="M111.9,198.1l-4.1,0.2c0,0-0.3-2.9-0.4-4.2c-0.1-1.6-0.1-3.8,0.1-3.8c0.7,0.1,1.4,0.5,1.8,1
			C111,193.4,111.9,198.1,111.9,198.1z"/>
		<path class="st32" d="M109.2,193.7c0.1,0.5,2.7,14.4,2.7,14.4c-6.2,3.4-10.9,0.5-10.9,0.5s0.2-9.4-0.1-10.7
			c-0.2-0.9-1-6.5-0.4-6.7c0.9-0.3,1.8-0.6,2.7-0.8c1.4-0.2,2.9-0.2,4.3-0.2C108.3,191.3,108.9,192.5,109.2,193.7z"/>
		<path class="st42" d="M107,180.4c0,0,2.5,0,2.3,2c0.8,0.2,1.2,1.1,1,1.8c-0.1,0.2-0.2,0.4-0.3,0.6c0,0,1.3,1.8-1,3.5
			c0,0-0.6,2.4-3.2,1.3c-0.6,0.3-1.3,0.3-1.8-0.2c-1.1-0.8-1.2-1.2-1.2-1.2s-2.4-0.4-2-2.6c0,0-1.2-1.1,0.6-2.4c0,0,0-3,2.5-2.6
			C103.7,180.7,105.2,178.4,107,180.4z"/>
		<path class="st38" d="M103,185.3c-0.1,0.5-0.4,0.9-0.8,0.9s-0.6-0.5-0.5-1s0.4-0.9,0.8-0.9S103.1,184.8,103,185.3z"/>
		<path class="st38" d="M108.9,186.9c-0.2,0.5-0.7,0.8-1,0.6s-0.4-0.7-0.2-1.1s0.7-0.8,1-0.6S109.1,186.4,108.9,186.9z"/>
		<path class="st38" d="M105.9,188.6c0,0,0.2,1.4,0.3,2.1c0,0.3-0.1,0.5-0.4,0.6c-0.7,0.2-2,0.6-2.8-0.3c-0.1-0.1-0.1-0.2-0.1-0.3
			l0.3-3.2L105.9,188.6z"/>
		<path class="st40" d="M106.1,189.9c-0.7,0.3-2.8,0-3-1.3l0.1-1.1l2.7,1.1C105.9,188.6,106,189.5,106.1,189.9z"/>
		<path class="st38" d="M106.6,182.1c-0.7-0.1-1.5,0-2.2,0.4c-1,0.6-2.8,3.2-1.3,5.5s3.8,1.1,4.7-0.6S109,182.9,106.6,182.1z"/>
		<path class="st42" d="M108.4,183.3c-0.6-0.3-1.2-0.5-1.9-0.5c-0.8,0.1-3.4,2-3.8,1.6s0.1-2,0.4-2.2c0.5-0.4,1-0.7,1.6-1
			c0.5,0,0.9,0,1.4,0.1c0.2,0,1.5,0.7,1.5,0.7L108.4,183.3z"/>
		<path class="st38" d="M92.9,209.4c0-0.1,0.1-0.1,0.1-0.1c0.5,0,1.1-0.1,1.6-0.2c0.1,0,0.2,0,0.3-0.1c0.2,0,0.3,0,0.5,0
			c0.1,0,0.2,0,0.2,0c0.3,0,1-0.3,1.4-0.4c0.1,0,0.2-0.1,0.2-0.2c0.3-1.6,1.1-5.1,1.2-6.3c0.1-1.5,0.9-8.2,0.9-8.2l2.8,0.7
			c0,0-1,5-1.2,7.4c-0.2,1.9-1.9,5.8-2.4,7c-0.1,0.5-0.5,0.9-1,0.9c-0.1,0-0.2,0.1-0.2,0.1c-0.1,0.1-0.2,0.2-0.3,0.3
			c-0.1,0.1-0.2,0.1-0.2,0.2c-0.1,0.2-0.2,0.4-0.3,0.5s-0.1,0.2-0.2,0.1c-0.1,0-0.2-0.1-0.2-0.2c0-0.2,0-0.4,0.1-0.5
			c0.1-0.1,0.1-0.3,0-0.4c-0.1-0.1-0.1-0.2-0.2-0.2c-0.1-0.1-0.2-0.1-0.3-0.1c-0.2,0.1-0.4,0.1-0.6,0.1h-0.2h-0.1
			c-0.1,0-0.3,0-0.4,0h-0.3c-0.1,0-0.2,0-0.3,0c-0.1,0-0.2,0-0.2-0.1c0,0,0-0.1,0-0.1c0,0,0-0.1,0.1-0.1l0.4-0.1h-0.5
			c-0.1,0-0.3-0.1-0.3-0.1C93.1,209.5,92.9,209.5,92.9,209.4z"/>
		<path class="st45" d="M97.5,198.1l4,1.9c0,0,0.6-2.9,1.1-4.8c0.4-1.6-1.6-4.3-2.2-4C98.9,192.1,97.5,198.1,97.5,198.1z"/>
		<path class="st30" d="M124.5,192.9l35.5,1.5c0,0-3.1,10.4-3.2,10.9s-11.7,6.9-14.7,6.8s-9.8-2.5-11.2-3s-5.3-3.4-5.1-5.2
			S124.5,192.9,124.5,192.9z"/>
		<path class="st46" d="M125.5,196.5h9c0.4,0,0.7,0.3,0.7,0.7v0.3c0,0.4-0.3,0.7-0.7,0.7h-9c-0.4,0-0.7-0.3-0.7-0.7v-0.3
			C124.8,196.8,125.1,196.5,125.5,196.5z"/>
		<path class="st30" d="M138.9,178.4l4.8,2l-0.3-1l-1.8-1c0,0-1.5-0.3-1.6-0.4C139.6,178.1,139.2,178.2,138.9,178.4z"/>
		<path class="st47" d="M161.9,191l-37.6-3.2v2.5c0,1.4,1.1,2.6,2.5,2.6l33.3,1.3c0.8,0,1.6-0.3,2-1
			C162.5,192.6,162.4,191.6,161.9,191z"/>
		<polygon class="st48" points="124.2,187.8 124.2,187.4 161.7,190.9 161.9,191 		"/>
		<polygon class="st49" points="132.9,193.2 136.3,193.4 139.1,189.1 135.8,188.8 		"/>
		<polygon class="st49" points="139,193.5 141.7,189.3 140.5,189.2 137.7,193.4 		"/>
		<path class="st30" d="M73.3,193l42.9,0.4l0.4,13.6c0,0-5,7.3-5.6,7.2s-13.4-2.1-14.6-2.1s-11.2-4.9-11.7-4.8s-3.6-1.6-3.6-1.6
			l-5.1-3.6l-5-5.2L73.3,193z"/>
		<path class="st46" d="M72.7,195.6h9c0.4,0,0.7,0.3,0.7,0.7v0.3c0,0.4-0.3,0.7-0.7,0.7h-9c-0.4,0-0.7-0.3-0.7-0.7v-0.3
			C72.1,195.9,72.4,195.6,72.7,195.6z"/>
		<path class="st50" d="M125.5,192.6c0.4,0.3,0.9,0.4,1.4,0.4c-0.4,0.1-0.7,0.2-1.1,0.3c0,0-0.6-0.4-0.6-0.5L125.5,192.6z"/>
		<path class="st30" d="M128.7,177l4.2,0.3c0,0-0.7-1.1-1-1.1h-2.2L128.7,177z"/>
	</g>
</g>
</svg>
