<?xml version="1.0" encoding="utf-8"?>
<!-- Generator: Adobe Illustrator 25.0.0, SVG Export Plug-In . SVG Version: 6.00 Build 0)  -->
<svg version="1.1" id="Layer_1" xmlns="http://www.w3.org/2000/svg" xmlns:xlink="http://www.w3.org/1999/xlink" x="0px" y="0px"
	 viewBox="0 0 600 600" style="enable-background:new 0 0 600 600;" xml:space="preserve">
<style type="text/css">
	.st0{opacity:9.000000e-02;fill:#FF3556;enable-background:new    ;}
	.st1{fill:#FFB98B;}
	.st2{fill:#DA172D;}
	.st3{fill:#426FB5;}
	.st4{fill:url(#SVGID_1_);}
	.st5{fill:#AE172D;}
	.st6{fill:url(#SVGID_2_);}
</style>
<circle class="st0" cx="299.7" cy="300.3" r="299.7"/>
<g>
	<path class="st1" d="M433.1,298.4c-2.6-1.8-5.7-3.7-11.2-10.4c-3.3-4-7.8-6.8-12.6-8.6c-0.9-0.3-1.8-0.6-2.5-1.2
		c-1.6-1.1-1.8-3.4-2.3-5.2c-0.4-1.7-0.8-3.5-1.2-5.2c-0.9-3.5-1.8-9-1.8-18.3c0-22-4.5-40.9-6.9-46c-2.4-5.1-3.9-9-6.7-29.8
		c-2.8-20.7,2.6-17.3,0-42.4c-2.6-25.1-21.9-29.5-30.5-31.5c-8.6-2-26.3-9.3-29.7-11.9c-1.7-1.3-1.9-7.8-1.8-14.1c2.6-4,4-9.4,5-14
		c0.4,0.5,1.3,1.5,2.1,1.6c1.1,0.1,2.6-3.3,3.1-5.1c0.5-1.8,1.2-8,0.4-10.3c-0.7-2.3-2.5-0.5-3.1,0.4c-0.2,0.3-0.6,0.6-1.1,0.9
		c0.2-3.1,0.3-6.1,0.8-9.1c0.9-6,0.5-11.7-1.6-17.5c-4.3-12.2-21-13-23.3-13.1l0,0h0h0l0,0c-2.3,0.1-19,0.9-23.3,13.1
		c-2,5.8-2.4,11.5-1.6,17.5c0.4,3,0.6,6.1,0.8,9.1c-0.5-0.3-0.9-0.6-1.1-0.9c-0.6-0.9-2.3-2.7-3.1-0.4c-0.7,2.3-0.1,8.5,0.4,10.3
		c0.5,1.8,2.1,5.2,3.1,5.1c0.8-0.1,1.6-1,2.1-1.6c1,4.7,2.3,10,5,14c0.2,6.3-0.1,12.8-1.8,14.1c-3.4,2.6-21.1,9.9-29.7,11.9
		c-8.6,2-27.9,6.4-30.5,31.5c-2.6,25.1,2.8,21.7,0,42.4c-2.8,20.7-4.3,24.7-6.7,29.8c-2.4,5.1-6.9,24.1-6.9,46
		c0,9.3-0.9,14.8-1.8,18.3c-0.5,1.7-0.8,3.5-1.2,5.2c-0.4,1.8-0.7,4.1-2.3,5.2c-0.8,0.5-1.7,0.9-2.5,1.2c-4.8,1.8-9.3,4.6-12.6,8.6
		c-5.5,6.7-8.6,8.6-11.2,10.4c-2.6,1.8-1.7,6.4,4.1,5c5.9-1.3,9.8-8.8,11.2-8.3c1.4,0.4-1.6,11.5-2.8,15.2
		c-1.2,3.7-2.4,8.2-3.2,10.5c-0.8,2.3-1.6,6.5,0.1,8.8c1.7,2.3,4.2-0.7,5.9-6.7c1.7-6,5.2-16.7,5.2-16.7s-1.9,9-3.3,14.5
		c-1.4,5.5-5.1,12.5-2,15.1c1.6,1.4,3.6-0.4,4.7-3c1.1-2.7,2.5-7.1,2.6-7.5c1-4.5,4.1-16.7,4.1-16.7s-2,10.3-3.1,15.2
		c-0.6,2.7-2.2,6.3-2.2,8.5c0,1.7,1.4,2.9,3.2,2.4c1.6-0.5,3.1-4.1,4-8c1-4,2.4-11.1,3.3-14.5c0.3-1.3,0.9-2.6,0.9-1.6
		c-0.1,2.1-1.7,7.8-2.2,10.6c-0.7,3.6-0.5,6.2,1.2,6.4c1.1,0.1,2-0.1,2.9-1.7c1.1-1.8,2.1-6.6,2.8-10c1.2-5.5,2.9-10.5,3.6-15.4
		c0.7-4.9,1.7-15,2.5-18.3c0.8-3.3,2.3-7.6,2.3-7.6l-0.1,0c3-9.3,10.2-31.5,14.9-45.1c6-17.4,3.9-23.5,4.8-31
		c0.6-4.9,5.7-17.1,9.4-30.2c5.6,11.7,11.4,29,7.9,46.1c-6.1,30-4.2,21.2-6.1,30c-2.1,9.6-4.2,19.1-5.2,28.9
		c-2.1,22-3.8,44.2-0.3,66c1.3,7.9,5.9,53.9,5.6,55.5c-1.1,6-4.6,18.5-6,25.6c-1.4,7.1-0.7,17.7-0.1,37c0.5,19.3,3,34.3,3.8,44.9
		c0.7,9.1-0.6,32.4-1,38.8c-0.1,1.1-0.3,2.2-0.6,3.3c-0.8,2.4-2,5.7-3.5,8.5c-2.6,5.1-8.8,14.7-10.8,16.7c-2,2-5.3,7-2.2,8.4
		c1.1,0.5,1.6,0,1.6,0c-0.4,1.6,0.3,3.3,1.3,3.8c0.8,0.4,1.8,0.3,1.8,0.3c0.1,1.2,1.5,3.6,4.6,2.8c0,0,0.8,2.7,3.1,2.9
		c0.8,0,1.6,0,2.3-0.3c0.7-0.3,1.4-1,2.2-2.9c0,0-0.6,2.4,2.4,3.6c3,1.2,6.6-0.2,8.4-4.1c1.8-3.9,1.6-4.6,3.2-7.9
		c1.5-3.4,0.8-12.1,1.9-15.7c1.1-3.6,4.4-4.8,4.7-7.7c0.2-1.8,0.3-5.2-0.2-8.4c0.1,0,0.2-13.3,0.2-13.3l0.4-5.9
		c0.6-9.2,1.7-18.3,3.5-27.3c2.9-15.2,6.9-40.3,8.1-55.5c1.6-20.4,3.5-37.6,4.6-40.8c0-0.1,0.1-0.4,0.2-0.6
		c4.1-12.5,6.9-25.4,8.4-38.4c0.5-4.1,0.9-8.7,1.2-13.6c1.5-21.5,0.8-33.2,4.6-33.7c3.8,0.6,3.2,12.2,4.6,33.7
		c0.3,4.9,0.8,9.4,1.2,13.6c1.5,13.1,4.4,25.9,8.4,38.4c0.1,0.3,0.2,0.5,0.2,0.6c1.1,3.3,3,20.4,4.6,40.8
		c1.2,15.2,5.2,40.4,8.1,55.5c1.7,9,2.9,18.2,3.5,27.3l0.4,5.9c0,0,0.1,13.3,0.2,13.3c-0.4,3.2-0.3,6.6-0.2,8.4
		c0.3,3,3.6,4.2,4.7,7.7c1.1,3.6,0.4,12.3,1.9,15.7c1.5,3.4,1.3,4.1,3.2,7.9c1.8,3.9,5.4,5.2,8.4,4.1c3-1.2,2.4-3.6,2.4-3.6
		c0.8,1.9,1.5,2.7,2.2,2.9c0.7,0.3,1.5,0.3,2.3,0.3c2.4-0.1,3.1-2.9,3.1-2.9c3.1,0.8,4.5-1.5,4.6-2.8c0,0,1,0.1,1.8-0.3
		c1-0.5,1.7-2.2,1.3-3.8c0,0,0.5,0.5,1.6,0c3.1-1.4-0.2-6.3-2.2-8.4c-2-2-8.2-11.6-10.8-16.7c-1.5-2.9-2.7-6.2-3.5-8.5
		c-0.4-1.1-0.6-2.2-0.6-3.3c-0.4-6.4-1.7-29.7-1-38.8c0.8-10.6,3.3-25.6,3.8-44.9c0.5-19.3,1.2-29.9-0.1-37
		c-1.4-7.1-4.9-19.6-6-25.6c-0.3-1.6,4.3-47.6,5.6-55.5c3.5-21.8,1.8-44-0.3-66c-1-9.8-3.1-19.3-5.2-28.9c-1.9-8.7,0,0-6.1-30
		c-3.5-17.1,2.3-34.4,7.9-46.1c3.7,13.1,8.8,25.3,9.4,30.2c0.9,7.5-1.2,13.5,4.8,31c4.7,13.5,11.9,35.8,14.9,45.1l-0.1,0
		c0,0,1.6,4.3,2.3,7.6c0.8,3.3,1.8,13.4,2.5,18.3c0.7,4.9,2.4,10,3.6,15.4c0.8,3.4,1.8,8.2,2.8,10c0.9,1.6,1.9,1.9,2.9,1.7
		c1.7-0.2,1.8-2.8,1.2-6.4c-0.5-2.8-2.1-8.6-2.2-10.6c0-1,0.5,0.3,0.9,1.6c0.9,3.4,2.3,10.6,3.3,14.5c0.9,3.9,2.4,7.5,4,8
		c1.8,0.5,3.2-0.6,3.2-2.4c0-2.2-1.5-5.7-2.2-8.5c-1.2-4.9-3.1-15.2-3.1-15.2s3,12.3,4.1,16.7c0.1,0.4,1.5,4.9,2.6,7.5
		c1.1,2.6,3,4.4,4.7,3c3.1-2.6-0.5-9.6-2-15.1c-1.4-5.5-3.3-14.5-3.3-14.5s3.5,10.7,5.2,16.7c1.7,6,4.2,9,5.9,6.7
		c1.7-2.3,0.9-6.5,0.1-8.8c-0.8-2.3-1.9-6.8-3.2-10.5c-1.2-3.7-4.3-14.8-2.8-15.2c1.4-0.4,5.3,7,11.2,8.3
		C434.9,304.8,435.7,300.2,433.1,298.4z"/>
	<g>
		<g>
			<g>
				<path class="st2" d="M270.9,170c0,0,0.2-0.1,0.5-0.2c0.3-0.1,0.9-0.2,1.4-0.6c0.3-0.1,0.6-0.3,0.9-0.5c0.3-0.2,0.6-0.5,1-0.8
					c0.7-0.6,1.4-1.3,2.1-2.2c1.4-1.8,2.6-4.1,3.9-6.7c1.3-2.6,2.8-5.5,5.3-7.8l1-0.8c0.2-0.1,0.3-0.2,0.6-0.4l0.5-0.3
					c0.6-0.4,1.5-0.8,2.3-1.1c1.6-0.6,3.1-0.9,4.6-1.1c3-0.4,5.7-0.6,7.8-1c2.1-0.4,3.7-1,4.6-1.6c1-0.6,1.4-1.1,1.4-1l2.6,3
					c0,0,0,0,0,0v0c0,0-0.2,0.1-0.5,0.4c-0.4,0.3-0.9,0.6-1.6,1c-1.4,0.8-3.5,1.4-6,1.7c-2.4,0.3-5.2,0.3-8,0.6
					c-1.4,0.1-2.8,0.3-4.1,0.7c-0.6,0.2-1.2,0.4-1.9,0.8l-0.5,0.3l-0.4,0.3l-0.9,0.6c-2.2,1.8-3.8,4.3-5.3,6.8
					c-1.4,2.5-2.9,4.9-4.5,6.7c-0.8,0.9-1.6,1.6-2.4,2.2c-0.4,0.3-0.8,0.5-1.1,0.8c-0.4,0.2-0.8,0.4-1.1,0.5
					c-0.7,0.4-1.2,0.4-1.5,0.5c-0.4,0.1-0.5,0.1-0.5,0.1c-0.2,0.1-0.4-0.1-0.5-0.3C270.6,170.3,270.7,170.1,270.9,170z"/>
			</g>
			<g>
				<path class="st2" d="M304.1,145.9c0-0.1-0.4,1.1-0.8,1.3c-0.4,0.1-0.9-0.2-1.5-0.3c-0.5,0-1.1-0.1-1.9-0.1
					c-0.8,0-1.8,0.1-2.8,0.2c-2.1,0.2-4.8,0.7-7.8,0.6l-0.6,0l-0.1,0l-0.2,0l-0.3,0l-1.1-0.2c-0.7-0.1-1.5-0.3-2.3-0.5
					c-1.6-0.4-3-1-4.4-1.5c-1.4-0.6-2.7-1.1-4.1-1.7c-1.3-0.5-2.6-0.9-3.9-1.2c-1.5-0.3-1.7-0.2-2.9,0.6l-0.3,0.2l-0.1,0.1l-0.1,0.1
					l-0.1,0l-0.2,0.1l-0.8,0.4c-0.5,0.3-1.1,0.6-1.7,0.8c-1.2,0.5-2.2,0.7-3.1,0.9c-0.9,0.2-1.7,0.3-2.4,0.3c-1.3,0.1-2,0.1-2,0.1
					c-0.2,0-0.4-0.2-0.4-0.4c0-0.2,0.1-0.4,0.3-0.4c0,0,0.7-0.2,2-0.4c0.6-0.2,1.3-0.4,2.2-0.6c0.8-0.3,1.8-0.6,2.6-1.1
					c0.4-0.2,0.9-0.5,1.4-0.9l0.7-0.5l0.2-0.1l0,0c0,0,0.1-0.1-0.1,0l0,0l0.1-0.1l0.4-0.4c0.3-0.3,0.6-0.5,0.9-0.6l0.4-0.3l0.1-0.1
					l0,0c0.3-0.1,0.1,0,0.2-0.1l0,0l0.1,0l0.4-0.1c0.4-0.1,1.1-0.2,1.4-0.2c0.4,0,0.6,0,1.1,0.1c1.5,0.2,2.9,0.6,4.4,1
					c1.4,0.5,2.8,0.9,4.3,1.4c1.4,0.4,2.8,0.9,4.1,1.2c0.6,0.1,1.2,0.3,1.9,0.4l1.1,0.1l0.3,0c0,0,0.2,0,0,0l0.1,0l0.5,0
					c2.5,0,5-0.5,7.3-0.7c1.1-0.1,2.2-0.2,3.2-0.2c1-0.1,2,0.1,2.8,0.1c0.7,0.1,1.2,0.2,1.5,0.4c0.3,0.4,0.2,1.6,0.2,1.6
					c-0.2-0.1-0.4,0.1-0.5,0.3C303.7,145.6,303.8,145.8,304.1,145.9z"/>
			</g>
			<path class="st3" d="M292,95.1c0.2,1.6,0.4,3.2,0.5,4.6c0.1,1.4,0.1,2.8,0.2,4.1c0,3.1,0,5.6-0.1,7.1c1.1,0.3,2.2,0.8,3.1,1.4
				c0-0.7,0-3.9-0.2-8.7c-0.1-1.3-0.2-2.8-0.3-4.3c-0.2-1.5-0.4-3-0.7-4.7c-0.3-1.6-0.8-3.1-0.9-4.9c-0.1-0.9-0.2-1.7-0.3-2.6
				c-0.1-0.7,0.1-1.6,0.2-2.4c0-1.6,0.7-3.3,1-4.9c0.6-1.6,1.1-3.2,1.6-4.7c0.5-1.5,1.1-3.1,1.4-4.6c0.3-1.5,0.6-3,0.6-4.3
				c0.1-1.4,0-2.6-0.2-3.7c-0.1-0.6-0.2-1.1-0.4-1.5c-0.2-0.5-0.4-0.9-0.5-1.3c-0.3-0.8-0.7-1.2-0.9-1.6c-0.2-0.3-0.3-0.5-0.3-0.5
				c-0.2-0.3-0.6-0.4-0.9-0.2c-0.3,0.2-0.4,0.6-0.2,0.9c0,0,0.1,0.2,0.3,0.5c0.2,0.3,0.6,0.9,0.8,1.5c0.1,0.3,0.2,0.7,0.4,1.1
				c0.1,0.4,0.2,0.9,0.3,1.4c0.1,1,0.2,2.1,0.1,3.4c-0.1,1.2-0.4,2.6-0.7,4c-0.4,1.4-0.9,2.8-1.5,4.4c-0.6,1.5-1.2,3.1-1.8,4.7
				c-0.4,1.7-1.2,3.4-1.3,5.3c-0.1,1-0.3,1.8-0.3,2.8c0.1,0.9,0.1,1.7,0.2,2.6C291.4,91.7,291.8,93.4,292,95.1z"/>
			<path class="st3" d="M318.2,58.4c0,0-0.2,0.2-0.5,0.7c-0.3,0.4-0.6,1-0.9,1.9c-0.6,1.7-0.8,4.5-0.1,7.7c0.3,1.6,0.9,3.3,1.6,5.1
				c0.7,1.8,1.5,3.7,2.2,5.7c0.7,2,1.3,4.3,1.5,6.6c0.1,1.4,0,2.3-0.1,3.5c-0.1,1.2-0.3,2.4-0.5,3.5l-0.3,1.7c0,0.2-0.1,0.6-0.1,0.8
				l-0.1,0.8c-0.1,1,0,2.1-0.1,3.2c0,2.3-0.2,4.6-0.9,6.8c-0.7,2.2-1.6,4.2-2.8,5.9c-1.1,1.7-2.4,3.2-3.7,4.4
				c-1.3,1.2-2.5,2.3-3.6,3.2c-1.1,0.8-2.1,1.6-3,2.2c-1.7,1.1-2.7,1.8-2.7,1.8c-0.7,0.5-1.7,0.3-2.2-0.4c-0.5-0.7-0.3-1.7,0.4-2.2
				c0,0,0,0,0,0l0.1-0.1c0,0,0.9-0.6,2.6-1.6c0.8-0.5,1.7-1.2,2.8-2c1.1-0.8,2.2-1.8,3.4-2.9c1.2-1.1,2.4-2.4,3.4-3.9
				c1.1-1.5,1.9-3.2,2.5-5c0.6-1.9,0.8-3.9,0.9-6.1c0-1.1,0-2.2,0.1-3.5l0.1-0.8c0.1-0.4,0.1-0.6,0.2-0.9l0.3-1.7
				c0.2-1.1,0.4-2.2,0.6-3.2c0.1-1,0.3-2.3,0.2-3.2c-0.1-2.1-0.5-4.1-1.2-6.1c-0.6-2-1.4-3.9-2-5.7c-0.6-1.8-1.2-3.7-1.5-5.4
				c-0.6-3.5-0.3-6.5,0.5-8.5c0.4-1,0.8-1.7,1.1-2.2c0.3-0.4,0.5-0.7,0.5-0.7c0.2-0.3,0.7-0.4,1-0.2
				C318.3,57.7,318.4,58.1,318.2,58.4z"/>
			<g>
				<path class="st3" d="M316.1,131.3c-1,0-1.9-0.1-2.9-0.2c-0.9-0.1-1.8,0-2.7-0.1c-0.9,0-1.9,0-2.8,0c-0.9,0-1.9-0.1-2.9-0.1
					c-1.9-0.1-3.9-0.3-5.9-0.8c-1-0.3-1.9-0.6-2.9-1c-0.9-0.5-1.8-1-2.6-1.7c-0.8-0.6-1.6-1.6-2.1-2.3c-0.5-0.7-1.1-1.7-1.6-2.4
					c-0.2-0.4-0.5-0.7-0.8-1l-0.4-0.4l-0.1-0.1c0.2,0.1,0,0,0,0l-0.3-0.2c-0.9-0.6-1.5-0.7-2.3-0.9c-0.9-0.2-1.7-0.2-2.7-0.3l-2.8,0
					c-1.8-0.1-3.7-0.1-5.5-0.1c-0.4,0-0.7-0.5-0.5-0.7c0.1-0.1,0.1-0.1,0.2-0.1c0.1,0,0.2-0.1,0.3-0.1c1.8-0.2,3.7-0.4,5.5-0.7
					l2.9-0.2c1,0,2,0,3,0.2c1.1,0.2,2.3,0.6,3,1l0.3,0.2c0.1,0.1,0,0,0.3,0.2l0.2,0.1l0.6,0.6c0.4,0.4,0.8,0.8,1.1,1.2
					c0.7,0.8,1.1,1.5,1.7,2.3c0.6,0.8,1.1,1.3,1.7,1.9c0.7,0.5,1.4,1,2.2,1.3c0.8,0.3,1.6,0.6,2.5,0.9c1.7,0.4,3.5,0.6,5.4,0.7
					c1.9,0.1,3.7,0.1,5.7,0.3c1,0.1,2,0.3,3,0.4c0.9,0.3,1.8,0.6,2.7,0.9c0.4,0.1,0.5,0.5,0.4,0.9
					C316.7,131.2,316.4,131.3,316.1,131.3z"/>
				<path class="st3" d="M273.2,137.2c1.1-0.6,2.3-1.4,3.5-2.4c1-0.6,2.1-1.3,3.3-1.9c1.2-0.7,2.5-1.3,4.2-1.6
					c0.7-0.1,1.4-0.2,2.2-0.2c0.8,0.1,1.7,0,2.5,0.2c1.6,0.3,3.1,0.8,4.7,1.4c1.4,0.6,2.9,1.2,4.3,1.8c1.5,0.6,2.7,1.2,4.1,1.7
					c1.4,0.5,2.6,0.7,3.8,0.8c0.6,0.1,1.2,0.1,1.7,0.1c0.3,0,0.5,0,0.8,0c0.1,0,0.5-0.1,0.8-0.1c1-0.2,1.7-0.5,2.5-0.9
					c0.7-0.3,1.3-0.8,1.7-1.1c0.9-0.7,1.3-1.4,1.3-1.4c0.1-0.4,0.5-0.5,0.9-0.4c0.4,0.1,0.5,0.5,0.4,0.9c0,0,0,0.2-0.1,0.6
					c-0.1,0.4-0.3,1-0.7,1.7c-0.4,0.7-1.1,1.4-2,2.1c-0.9,0.7-2.1,1.2-3.4,1.5c-0.3,0-0.5,0.1-1,0.1c-0.3,0-0.7,0-1.1,0
					c-0.7,0-1.5,0-2.2-0.1c-1.4-0.1-3-0.7-4.4-1.3c-1.4-0.5-2.8-1.4-4.1-2.1c-1.3-0.8-2.8-1.4-4.1-2.2c-1.3-0.7-2.8-1.2-4.2-1.5
					c-0.7-0.2-1.4-0.2-2.1-0.3c-0.7-0.1-1.5,0.1-2.2,0.2c-1.2,0.2-2.6,0.7-3.7,1.4c-1.2,0.6-2.3,1.2-3.3,1.8c-1,0.6-2,1.1-2.8,1.6
					c-0.8,0.5-1.6,0.9-2.3,1.2c-0.8,0.2-3.1-0.1-3-0.5c0-0.2,0.8-0.3,1.5-0.4C271.6,137.8,272.4,137.6,273.2,137.2z"/>
				<g>
					<path class="st3" d="M272.9,132.5c-1.8-0.1-4.4-2.2-4.1-2.4c0.3-0.3,2.8,1,4.3,1.1c1.8,0.1,3.5-0.2,5.3-0.4
						c1.2-0.2,2.5-0.3,3.7-0.4c1,0,3.4,0.5,4.2,1c0.3,0.2-0.9,0.1-1.2,0.4c-0.2,0.3-0.6,0.4-0.9,0.2c-0.5-0.3-1.3-0.4-2.1-0.3
						c-1.2,0.1-2.4,0.2-3.6,0.4c-1.8,0.2-3.7,0.5-5.5,0.4C273,132.5,273,132.5,272.9,132.5z"/>
				</g>
				<path class="st3" d="M292.9,117.8c0,0,0.2,0.2,0.4,0.5c0.1,0.1,0.3,0.4,0.5,0.5c0.2,0.2,0.4,0.3,0.6,0.5
					c0.6,0.3,1.4,0.7,2.2,1.2c0.4,0.2,0.8,0.5,1.2,0.8c0.4,0.2,0.8,0.6,1.2,1c0.4,0.4,0.8,0.7,1.1,1.1c0.3,0.4,0.6,0.8,0.8,1.2
					c0.5,0.8,0.7,1.7,1.1,2.4c0.1,0.3,0.2,0.7,0.3,0.9c0.1,0.2,0.2,0.4,0.2,0.5c-0.2-0.2,0.2,0.3,0,0c-0.2-0.1-0.1-0.1-0.5-0.1l0,0
					c0,0-0.2,0-0.2,0.1c-0.5,0.5,0.1,1.1,0.1,1c-0.3-0.2-0.4-0.6-0.2-0.9c0.2-0.3,0.6-0.4,0.9-0.2c0-0.1,0.8,0.6,0.1,1.3
					c-0.1,0.1-0.2,0.2-0.3,0.2l0,0c-0.5,0.1-0.4,0-0.7-0.1c-0.4-0.3-0.2-0.1-0.4-0.4c-0.1-0.2-0.2-0.5-0.4-0.9
					c-0.1-0.3-0.1-0.6-0.3-1c-0.3-0.6-0.4-1.4-0.9-2.1c-0.2-0.4-0.5-0.7-0.7-1.1c-0.2-0.4-0.6-0.6-0.9-1c-0.3-0.3-0.6-0.6-1-0.9
					c-0.4-0.3-0.8-0.5-1.2-0.8c-0.7-0.4-1.5-0.8-2.2-1.1c-0.4-0.3-0.6-0.5-0.9-0.8c-0.3-0.2-0.4-0.4-0.5-0.6
					c-0.3-0.3-0.4-0.5-0.4-0.5l0,0c-0.2-0.3-0.2-0.7,0.1-1C292.3,117.5,292.7,117.5,292.9,117.8L292.9,117.8z"/>
				<path class="st3" d="M278.6,125.3c0.5-0.1,1.8-0.6,2.3-0.7c1-0.2,2.1-0.5,3.1-0.7c0.6-0.1,1-0.3,1.7-0.3c0.5,0,1.1-0.1,1.6-0.1
					c0.5,0,1.1,0.1,1.6,0.1c0.5,0,0.9,0.2,1.4,0.3c0.4,0.1,0.8,0.2,1.1,0.3c0.3,0.1,0.6,0.2,0.8,0.3c0.5,0.2,0.7,0.3,0.7,0.3
					c0.4,0.1,0.5,0.5,0.4,0.9c-0.1,0.3-0.5,0.5-0.9,0.4l-0.1,0c0,0-0.2-0.1-0.7-0.2c-0.2-0.1-0.5-0.2-0.8-0.3
					c-0.3-0.1-0.6-0.1-1-0.2c-0.4-0.1-0.8-0.2-1.2-0.2c-0.4,0-0.9-0.1-1.3-0.1c-0.5,0-1,0.1-1.6,0.1c-0.4,0-1,0.2-1.5,0.3
					c-1,0.2-2.1,0.5-3.1,0.7c-0.5,0.1-1.1,0.2-1.5,0.2c-0.5,0.1-1,0-1.4,0c-0.4,0-3.3-1.3-3.2-1.6
					C275.3,124.3,278.2,125.4,278.6,125.3z"/>
				<g>
					<path class="st3" d="M270.7,131l2.7-2.1c1.3-1.4,3.4-1.4,5-1.3l1.3,0.1c2.5,0.2,5.1,0.4,7.4-0.6c0.5-0.2,1-0.5,1.6-0.8
						c1.2-0.7,2.4-1.4,3.9-1.4c0.4,0,0.7,0.3,0.7,0.7c0,0.4-0.3,0.7-0.7,0.7c-1.1,0-2.1,0.6-3.2,1.2c-0.6,0.3-1.1,0.6-1.7,0.9
						c-2.5,1.1-5.3,0.9-8,0.7l-1.3-0.1c-1.2-0.1-2.5-0.1-3.4,0.5c-0.1,0.1-3.4,1.7-3.5,1.8L270.7,131z"/>
				</g>
				<path class="st3" d="M304.4,139.2c0,0-0.8,0-2.1,0.1c-0.7,0-1.5,0.1-2.5-0.1c-1-0.2-2.2-0.2-3.3-0.5c-1.1-0.3-2.3-0.6-3.5-0.6
					c-0.5,0-1.2,0-1.7,0.1l-1,0.3c-0.3,0.1-0.5,0.3-0.7,0.5c-0.2,0.1-0.5,0.3-0.7,0.6c-0.2,0.2-0.5,0.4-0.6,0.7
					c-0.1,0.2-0.3,0.6-0.4,0.8l-0.3,1.1c-0.3,1.3-0.2,2.9-0.8,4.6c-0.4,1.4-1.6,3-2.6,4.1c-1.1,1.1-2.1,2.1-3.1,3.1
					c-1,1-1.8,2-2.3,3.1c-0.2,0.4-0.4,1.2-0.6,1.7c-0.1,0.6-0.3,1.1-0.4,1.6c-0.3,1.1-0.6,2.2-1,3.1c-0.5,1.1-1,1.5-1.4,2.1
					c-1.1,1-2.6,1.7-2.8,1.4c-0.2-0.3,1.7-1.3,2.8-3.3c0.1-0.1,0.1-0.2,0.2-0.3c0.3-0.8,0.5-2.3,0.8-3.3c0.1-0.6,0.3-1.2,0.4-1.8
					c0.2-0.6,0.3-1.1,0.7-1.9c0.6-1.3,1.5-2.5,2.5-3.5c1-1,2-2.1,3.1-3.2c0.4-0.6,1-1.1,1.3-1.7c0.4-0.5,0.7-1.2,1-1.9
					c0.4-1.2,0.4-2.8,0.7-4.4l0.3-1.1c0.2-0.5,0.4-0.8,0.6-1.2c0.2-0.4,0.5-0.7,0.8-1c0.3-0.3,0.6-0.6,0.9-0.8
					c0.4-0.2,0.7-0.5,1.1-0.7l1-0.3c0.9-0.2,1.6-0.2,2.3-0.2c1.4,0.1,2.7,0.4,3.8,0.6c1.1,0.3,2.1,0.3,2.9,0.4
					c0.8,0.2,1.6,0.1,2.3,0c1.3-0.1,2.1-0.1,2.1-0.1c0.5,0,1,0.4,1,0.9C305.4,138.7,305,139.2,304.4,139.2
					C304.4,139.2,304.4,139.2,304.4,139.2z"/>
				<g>
					<path class="st3" d="M271,156.6c-0.1-0.4,2.6-2.2,3.6-3.2c1-0.9,2-1.8,3.2-2.4c1.1-0.5,2.4-0.8,3.9-0.8c0.4,0,1.1,0,1.3-0.3
						c0.2-0.3,0.6-0.4,0.9-0.2c0.3,0.2,0.4,0.6,0.2,0.9c-0.6,0.9-1.7,0.9-2.4,0.9c-1.3,0-2.4,0.2-3.3,0.6c-1,0.5-1.9,1.3-2.8,2.1
						C274.4,155.4,271.1,156.9,271,156.6z"/>
				</g>
			</g>
			<path class="st3" d="M291.1,174.6L291.1,174.6c0,0-0.3-0.1-0.8-0.1c-0.2-0.1-0.5-0.1-0.8-0.2c-0.2-0.2-0.4-0.1-0.8-0.5
				c-0.1-0.1-0.5-0.4-0.4-0.4c-0.1-0.2-0.2-0.4-0.2-0.6c-0.1-0.2-0.2-0.5-0.3-0.8c-0.1-0.3-0.3-0.6-0.4-0.9c-0.4-0.6-0.8-1-1.4-1.4
				c-0.5-0.4-1.1-0.7-1.7-1c-2.4-1-4.6-1.5-6.4-2.1c-0.7-0.2-2.7-0.6-3.2-0.8c0,0,0,0,0,0.1c0,0,0,0.1,0.1,0.2c0,0.1,0,0.1,0.1,0.3
				c0.1,0.2,0.2,0.4,0.4,0.6c0.7,0.6,1.4,0.7,2.3,1c1.7,0.6,4.1,1.2,6.2,2c0.5,0.2,1,0.5,1.4,0.8c0.4,0.3,0.8,0.7,1,1.1
				c0.1,0.2,0.2,0.4,0.3,0.6c0.1,0.3,0.2,0.5,0.3,0.8c0.1,0.3,0.2,0.5,0.4,0.8c0.3,0.5,0.4,0.4,0.5,0.7c0.2,0.3,0.9,0.6,1.3,0.8
				c0.4,0.1,0.7,0.2,1,0.3c0.5,0.1,0.9,0.2,0.9,0.2c0.4,0.1,0.7-0.2,0.8-0.6C291.7,175.1,291.5,174.7,291.1,174.6z"/>
			<path class="st3" d="M276.5,174.4c0.7,0.3,1.6,0.5,2.5,0.6c0.9,0.1,1.8,0.2,2.8,0.2c1,0,2-0.1,3-0.3c1.1-0.2,2.1-0.4,3.3-0.6
				c0.6,0,1.2-0.1,1.8,0c0.5,0,1.1,0.1,1.8,0.3c1.2,0.3,2.2,0.8,3.2,1.3c1.9,1.1,3.5,2.3,4.8,3.2c1.3,1,2.3,1.9,2.9,2.5
				c0.3,0.3,0.6,0.5,0.6,0.6c0.1,0,0,0-0.1,0c-0.1,0,0,0-0.2,0.1c-0.2,0.2-0.2,0.3-0.2,0.3c0.1-0.4,0.5-0.5,0.9-0.4
				c0.4,0.1,0.5,0.5,0.4,0.9c0,0,0,0.2-0.4,0.4c-0.2,0.1-0.3,0.1-0.4,0.1c-0.2,0-0.3,0-0.4,0c-0.5-0.1-0.8-0.2-1.3-0.4
				c-1-0.4-2.2-1.2-3.4-2.2c-1.2-1.1-2.6-2.5-4.3-3.5c-0.8-0.5-1.7-0.9-2.6-1.2c-0.4-0.1-0.9-0.2-1.4-0.3c-0.4-0.1-1,0-1.5,0
				c-1,0.1-2.1,0.3-3.2,0.5c-1.1,0.2-2.2,0.3-3.3,0.2c-1.1,0-2.1-0.1-3.1-0.3c-1-0.2-1.9-0.4-2.7-0.7c-1.6-0.5-5.4-3.3-5.2-3.6
				C271,171.9,274.9,173.9,276.5,174.4z"/>
			<path class="st3" d="M272.9,207.3c0,0,0.4-0.3,1.2-0.8c0.4-0.3,0.8-0.6,1.4-0.9c0.5-0.4,1.1-0.8,1.7-1.3c1.2-1,2.6-2,4-3.4
				c0.7-0.7,1.4-1.3,2.2-2c0.7-0.7,1.4-1.5,2.1-2.2l1.1-1.1c0.4-0.4,0.8-0.8,1.2-1.2c0.8-0.7,1.7-1.4,2.6-1.9c1.7-1.1,3.5-2,5.1-2.6
				c1.6-0.6,3-0.9,4-1c1-0.1,1.6-0.1,1.6-0.1c0.9,0,1.6,0.7,1.6,1.5c0,0.9-0.7,1.6-1.5,1.6h0c0,0-0.5,0-1.3,0.1
				c-0.8,0.1-2,0.3-3.3,0.8c-1.4,0.5-2.9,1.2-4.5,2.2c-0.8,0.5-1.6,1.1-2.3,1.7c-0.4,0.3-0.7,0.6-1,0.9l-1.2,1.1
				c-0.8,0.7-1.6,1.5-2.3,2.2c-0.8,0.7-1.6,1.3-2.4,1.9c-1.5,1.3-3.2,2.2-4.5,3.2c-0.7,0.5-1.3,0.8-1.9,1.1c-0.6,0.3-1,0.6-1.5,0.8
				c-0.8,0.4-1.3,0.7-1.3,0.7c-0.3,0.2-0.8,0.1-0.9-0.3C272.5,207.8,272.6,207.5,272.9,207.3z"/>
			<path class="st3" d="M301,195.9l-0.3,0.7l-0.1-0.7c-0.8,0.3-1.6,0.5-2.5,0.6c-0.8,0.2-1.6,0.4-2.4,0.6c-0.8,0.2-1.5,0.5-2.3,0.8
				c-0.8,0.2-1.4,0.7-2.2,1.1c-0.3,0.2-0.8,0.4-1,0.6l-1,0.8c-0.6,0.5-1.1,1-1.6,1.7c-0.5,0.6-1,1.3-1.3,2c-0.4,0.7-0.7,1.4-0.9,2.2
				c-0.2,0.8-0.3,1.5-0.4,2.3c0,0.8,0,1.7-0.3,2.8c-0.2,0.7-0.8,1.9-1.3,2.6c-0.3,0.4-0.5,0.7-0.9,1.1l-0.9,0.9
				c-0.6,0.6-1.2,1.2-2,1.7c-0.7,0.5-1.4,1.1-2.2,1.5c-0.8,0.4-1.5,0.9-2.4,1.3l-2.5,1c-0.4,0.1-0.8,0-0.9-0.4
				c-0.1-0.3,0-0.7,0.3-0.9l0.1,0l2.3-1.1c0.8-0.4,1.4-0.9,2.1-1.3c0.7-0.4,1.3-1,2-1.5c0.6-0.5,1.2-1.1,1.8-1.7l0.9-0.9
				c0.2-0.2,0.5-0.6,0.7-0.9c0.5-0.7,0.7-1.1,1-2c0.1-0.6,0.1-1.4,0.1-2.3c0.1-0.9,0.1-1.9,0.4-2.8c0.2-0.9,0.6-1.8,1-2.6
				c0.4-0.8,1-1.6,1.5-2.3c0.6-0.7,1.2-1.4,2-2l1-0.8c0.4-0.3,0.8-0.5,1.2-0.7c0.8-0.4,1.6-1,2.4-1.3c0.9-0.3,1.7-0.7,2.6-0.9
				c0.9-0.2,1.8-0.4,2.7-0.5c0.9,0,1.8-0.1,2.7,0l0-0.7l0.4,0.7C301.1,195,301.2,195.5,301,195.9L301,195.9z"/>
			<path class="st3" d="M305.5,121.2c-0.2-0.9-0.4-1.8-0.8-2.8c-0.2-0.5-0.4-1-0.7-1.4l-0.4-0.7l-0.2-0.4l-0.1-0.2l0,0
				c0.1,0.1-0.2-0.2-0.2-0.2l-0.1-0.1c-0.7-0.7-1.2-1.4-2.3-2.2c-1-0.9-2.1-1.4-3.1-2c-1.1-0.6-2.1-1.1-3.3-1.6
				c-1.1-0.5-2.2-0.9-3.4-1.4c-2.5-0.8-5.2-1.7-8-2.1c-1.4-0.4-2.9-0.3-4.4-0.4c-0.8,0-1.5-0.1-2.4,0c-0.7,0.1-1.5,0.1-2.2,0.2
				c-3.3,0.5-6.3,1.5-9.3,3c-3,1.5-5.8,3.4-8.4,5.7c-1.4,1.3-2.4,2.4-3.6,3.7c-0.2,0.2-0.4,0.4-0.6,0.7c0.6,1.1,1.2,2.2,1.9,3.2
				c0.4-0.5,0.8-1,1.2-1.4c1.1-1.1,2.4-2.5,3.4-3.5c2.3-2.1,4.9-3.8,7.6-5.1c2.7-1.3,5.5-2.1,8.1-2.5c0.7-0.1,1.5-0.1,2.2-0.2
				c0.5-0.1,1.3,0,1.9,0.1c1.3,0.1,2.6,0,3.9,0.4c2.6,0.4,4.9,1.2,7.1,2c1.2,0.5,2.3,1,3.4,1.4c1,0.4,2,0.9,2.9,1.4
				c0.9,0.5,1.7,1,2.3,1.5c0.6,0.3,1.3,1.3,1.9,1.9l0,0l0.1,0.1l0.1,0.2l0.3,0.5c0.2,0.3,0.3,0.7,0.5,1c0.3,0.7,0.4,1.4,0.6,2
				c0.5,2.7,0.4,5.2,0.3,6.8c0,1.7-0.9,7.2-0.9,7.2c0,0.7,1.2-3.3,1.9-3.1c0.8,0.2,1.6-0.2,1.9-1l0-0.1c0,0,0.3-0.9,0.6-2.6
				C305.6,127.5,306.2,124.8,305.5,121.2z"/>
			<path class="st3" d="M364.5,121.6c-1.9-2.1-4.3-5.8-6.5-7.4c-3.6-2.7-7.6-4.8-11.8-6.3c-4.2-1.5-8.5-2.4-13.1-2.8l-3.2-0.1
				c-1.2,0-2.4,0-3.6,0.2c-2.3,0.3-4.6,1.1-6.7,2.1c-1.1,0.5-2,1.2-3,1.8c-0.9,0.7-1.8,1.5-2.7,2.4c-0.8,1-1.5,2-2.2,3
				c-0.5,1-0.9,1.9-1.3,2.9c-0.2,0.5-0.1,1.1,0.2,1.5c0.4-0.2,0.8-0.3,1.2-0.5c0.3-0.3,4.9-3.9,5-4.1l2.2-1.8
				c0.8-0.5,1.6-1.1,2.5-1.5c1.7-0.8,3.6-1.5,5.5-1.8c0.9-0.2,1.9-0.2,2.8-0.2l3.2,0.1c4,0.3,8.1,1.1,12,2.4
				c3.9,1.4,7.5,3.2,10.9,5.7c2.7,2,2.9,3.2,5,5.8C362.2,123.2,363.9,123,364.5,121.6z"/>
			<path class="st3" d="M304.4,224.6c0,0,0.1,0.4,0,1c-0.1,0.6-0.4,1.2-1.1,1.7c-1.3,1.2-3.2,2.9-5.5,4.9c-2.3,1.9-5,4.2-7.9,6.5
				c-1.5,1.1-3,2.3-4.5,3.5c-1.4,1.2-2.8,2.5-4.1,3.9c-1.2,1.4-2.3,2.9-3.1,4.5c-0.8,1.6-1.3,3.4-1.5,5c-0.5,3.5-0.1,6.9,0,9.9
				c0.2,3,0.2,5.5,0,7.3c-0.1,0.9-0.2,1.6-0.3,2.1c-0.1,0.5-0.1,0.7-0.1,0.7c-0.1,0.4-0.4,0.6-0.8,0.5c-0.3-0.1-0.6-0.4-0.6-0.7
				l0-0.1c0,0,0-0.2,0.1-0.7c0.1-0.4,0.1-1.1,0.1-2c0-1.7-0.1-4.1-0.5-7c-0.4-2.9-0.9-6.5-0.5-10.4c0.2-2,0.7-4,1.5-6
				c0.9-1.9,2-3.8,3.4-5.4c1.4-1.6,2.9-3,4.5-4.3c1.5-1.2,3-2.4,4.5-3.6c2.9-2.3,5.5-4.5,7.8-6.5c2.2-1.9,4.1-3.6,5.3-4.7
				c0.6-0.6,1.1-1,1.7-1.1c0.6-0.1,1,0,1,0C304,223.7,304.3,224.1,304.4,224.6z"/>
			<path class="st3" d="M276.7,254.9c0,0,0,0.4-0.1,0.9c-0.1,0.5-0.4,1.1-1,1.8c-0.5,0.6-1.1,1.4-1.9,2.2c-0.8,0.8-1.6,1.6-2.4,2.4
				c-0.9,0.7-1.8,1.4-2.6,2.1c-0.8,0.7-1.6,1.2-2.4,1.6c-1.4,0.9-3.2,1.5-3.4,1.2c-0.2-0.3,4.2-3.1,6.6-5.7c0.7-0.8,2.3-2.6,3-3.4
				c0.7-0.7,1.4-1.9,1.9-2.5c0.5-0.7-0.2-0.8,0.2-1.1c0.5-0.2,0.8-0.3,0.8-0.3C276.1,254,276.6,254.3,276.7,254.9
				C276.7,254.9,276.7,254.9,276.7,254.9z"/>
			<path class="st3" d="M291.3,234.6c-0.6,1-1.2,2-1.9,3c-0.9,0.9-2,1.7-3,2.5c-1.1,0.6-2.3,1.1-3.5,1.5c-1.2,0.3-2.5,0.6-3.7,0.8
				l-3.4,0.2l-1.7,0.2c-0.6,0-1.1,0.2-1.6,0.3c-1,0.2-2.1,0.6-3.1,1c-1.1,0.3-2,1-3.1,1.4l-3.8,1.6l3-2.6l0.7-0.6
				c0.3-0.3,0.7-0.2,1,0.1c0.3,0.3,0.2,0.7-0.1,1l-0.7,0.6l-0.8-1.1c1-0.7,1.9-1.5,3-2l1.6-0.8c0.6-0.2,1.2-0.4,1.8-0.6
				c1.2-0.5,2.3-0.6,3.5-0.9c0.7-0.1,1.2-0.2,1.8-0.2l1.7-0.2c1-0.2,2.1-0.5,3.1-0.8c1-0.4,1.9-0.9,2.9-1.3c0.8-0.6,1.7-1.1,2.6-1.6
				c0.9-0.8,1.8-1.5,2.8-2.2c0.3-0.2,0.8-0.1,1,0.2C291.4,234.1,291.4,234.3,291.3,234.6z"/>
			<path class="st3" d="M304.9,122c-0.1,0,0.6,0.2,0.9,0.6c0.3,0.4,0.1,5.3-0.9,11.6c-0.2,1.5,0.1,3.1,0.5,5.3
				c0.5,2.3,1.3,5.1,2.3,8.5c1,3.4,2.4,7.2,3,11.9c0.2,1.4,0.2,2.3,0.2,3.5c0,1.1-0.1,2.5-0.1,3.8c-0.2,2.5-0.7,5-1.2,7.5
				c-1.2,5-3,10-4.7,15.1c-1.7,5.1-3.3,10.3-3.6,15.6c-0.1,1.3-0.1,2.6,0,4c0,1.3,0.3,2.6,0.6,3.9l0.1,0.5l0,0.1
				c-0.1-0.3,0-0.1,0-0.1l0,0.1l0.1,0.3l0.4,1l0.7,2c0.4,1.4,1.1,2.6,1.7,3.8c2.4,4.9,5.1,10.3,7.6,15.3c0.6,1.2,1.3,2.5,1.9,3.7
				l1,1.9c0.3,0.6,0.7,1.1,1.1,1.7c0.7,1.1,1.5,2.3,2.1,3.2c0.9,1,1.8,2.1,2.7,3.1c3.7,3.8,7.5,7.3,10.9,11.2
				c3.3,3.9,6.1,7.8,8.1,11.8c1.9,4,3.2,8,3.4,11.7c0.5,3.7-0.2,6.8-0.2,9.2c-0.2,2.5,0,4.4,0.3,5.6c0.4,1.2,0.6,2.6,0.3,2.8
				c-0.3,0.1-2.4-5.8-2.4-8.4c0-2.6,0.5-5.6-0.2-9c-0.3-3.4-1.7-7-3.6-10.7c-2-3.7-4.8-7.3-8.1-11c-3.3-3.6-7.2-7-11.2-10.9
				c-0.9-1-1.9-2-2.8-3c-1-1.3-1.7-2.4-2.6-3.6c-0.4-0.6-0.8-1.2-1.2-1.8l-1-1.8c-0.7-1.2-1.4-2.5-2.1-3.8
				c-2.7-5.1-5.4-9.9-8.2-15.3c-0.7-1.4-1.4-2.7-1.9-4.1l-0.8-2l-0.4-1l-0.1-0.3l0-0.1l-0.1-0.2l0-0.1l-0.1-0.6
				c-0.3-1.5-0.7-3.1-0.8-4.6c-0.2-1.6-0.2-3.1-0.1-4.6c0.2-6.1,1.9-11.7,3.6-16.9c1.7-5.2,3.6-10,4.7-14.7c0.6-2.3,1-4.6,1.2-6.7
				c0-1.1,0.2-2,0.1-3.1c-0.1-1.1-0.1-2.4-0.2-3.1c-0.4-4-1.7-7.7-2.7-11.1c-1-3.4-1.7-6.5-2.1-9.2c-0.2-2.7-0.2-5.2,0.1-6.4
				c0.2-0.7,0-1.2,0.4-1.5c0.3-0.3,1.1-0.4,1-0.4L304.9,122z"/>
			<g>
				<path class="st3" d="M308.1,233.4c-0.3-0.7-1.1-1-1.8-0.7c-27.1,12.2-32.4,43.2-37,70.5c-0.6,3.3-1.1,6.6-1.7,10
					c-1.4,13.9,0,28,1.4,41.5c1.3,13.4,9.4,27.3,8,40.9c-0.5,1.6-1,3.2-1.6,4.9c-2.3,7.3-4.9,15.6-9.3,22.3
					c-15.9,34.5-9,71.7,1.7,107.2c0.1-0.9,0.1-1.8,0.1-2.7c0-1.3,0.4-2.3,1-3.1c-9.7-33.4-15.2-68.1-0.5-100
					c4.6-6.8,7.2-15.3,9.6-22.8c0.5-1.7,1.1-3.4,1.6-5l0.1-0.3c1.4-13.9-6.7-28-8-41.5c-1.3-13.5-2.7-27.4-1.4-40.9
					c0.6-3.2,1.2-6.6,1.7-9.9c4.7-28,9.6-56.9,35.4-68.5C308.1,234.9,308.4,234.1,308.1,233.4z"/>
			</g>
			<g>
				<path class="st3" d="M270.5,544.3c-0.3,0,4.8-11.3-1.3-34.3l-0.7-3.2c-7.1-31.6-1.3-64.3,4.2-95.9l0.7-3.9
					c0.1-0.7,0.8-1.3,1.6-1.1c0.7,0.1,1.2,0.8,1.1,1.6l-0.7,3.9c-5.5,31.3-11.1,63.7-4.2,94.8l0.7,3.2c2.3,9.9,3.3,18.4,0.9,29.5
					C272.5,540.4,270.9,544.3,270.5,544.3z"/>
			</g>
			<g>
				<path class="st3" d="M265,544.2c-0.6-0.4,0.6-9.7,1.7-13.8c2.5-8.6,1.9-17.6,1.4-26.4c-0.5-8-0.9-16.2,0.8-24.3
					c0.8-3.9,2.2-7.7,3.5-11.5c2.2-6.2,4.2-12.1,4.1-18.1c-0.1-6.8-2.1-10.2-4.4-13.8c-2.3-3.8-4.7-7.8-4.7-15.5
					c0-0.8,0.6-1.4,1.4-1.4c0,0,0,0,0,0c0.8,0,1.4,0.6,1.4,1.4c-0.1,6.9,2,10.3,4.3,14c2.3,3.8,4.7,7.7,4.8,15.2
					c0.1,6.5-2.2,12.9-4.3,19.1c-1.3,3.7-2.6,7.4-3.4,11.1c-1.7,7.7-1.2,15.8-0.7,23.6c0.5,9,1.1,18.2-1.5,27.3
					C268.1,535.5,265.2,544.4,265,544.2z"/>
			</g>
			<g>
				<path class="st3" d="M256.3,345.1c-0.7-0.3,3.7-13.1,4-19c0.1-1.7,0-3.3,0-5c0-1.6-0.1-3.3,0-4.9c0.4-12.1,5.7-23.8,14.6-32.1
					c0.6-0.5,2.4-2.4,2.9-1.9c0.5,0.6-0.5,3.4-1,3.9c-8.3,7.8-13.3,18.8-13.7,30.2c-0.1,1.6,0,3.2,0,4.8c0,1.7,0.1,3.5,0,5.2
					C262.7,332.6,256.5,345.3,256.3,345.1z"/>
			</g>
			<g>
				<path class="st3" d="M282.5,328.2c0.1-1.2,0.3-2.3,0.5-3.4c0.3-1.7,0.5-3.3,0.6-4.9c0.3-7.7-3.6-15.6-12.3-24.8
					c-0.5-0.6-0.5-1.4,0.1-1.9c0.6-0.5,1.4-0.5,1.9,0.1c5.8,6.2,13.5,15.6,13,26.9c-0.1,1.8-0.4,3.6-0.7,5.3
					c-0.2,1.1-0.4,2.2-0.5,3.3c-0.4,3.3,0.1,11.3-0.6,11.4C284.5,339.9,282.1,331.7,282.5,328.2z"/>
			</g>
			<g>
				<path class="st3" d="M278.5,391.5c-4.7,3-10.4,7.5-11.9,14.3c-0.3,1.2-0.4,2.4-0.5,3.5c-0.1,0.7-0.1,1.5-0.3,2.2
					c-0.3,2.2-2,7.2-1.6,7.4c0.1,0,3-4.8,3.4-7.1c0.1-0.8,0.2-1.5,0.3-2.3c0.1-1.1,0.2-2.2,0.5-3.3c1-4.7,4.5-8.8,10.8-12.9
					C278.8,392.7,278.6,392.1,278.5,391.5z"/>
			</g>
			<g>
				<path class="st3" d="M336.9,391.5c4.7,3,10.4,7.5,11.9,14.3c0.3,1.2,0.4,2.4,0.5,3.5c0.1,0.7,0.1,1.5,0.3,2.2
					c0.3,2.2,2,7.2,1.6,7.4c-0.1,0-3-4.8-3.4-7.1c-0.1-0.8-0.2-1.5-0.3-2.3c-0.1-1.1-0.2-2.2-0.5-3.3c-1-4.7-4.5-8.8-10.8-12.9
					C336.6,392.7,336.8,392.1,336.9,391.5z"/>
			</g>
			<g>
				<path class="st3" d="M288.5,297.7c0-2.2,0.4-4.4,0.8-6.6c0.6-3.3,1.2-6.5,0.4-9.4c-0.8-2.7-2.6-5.1-4.6-7.5
					c-2.5-3.2-5.2-6.5-5.3-10.8c0-0.8,0.6-1.4,1.3-1.4c0.7,0,1.4,0.6,1.4,1.3c0.1,3.4,2.4,6.2,4.7,9.2c2.1,2.6,4.2,5.3,5.1,8.5
					c1,3.6,0.3,7.2-0.3,10.7c-0.4,2.1-0.8,4.1-0.8,6.1c-0.1,4.9,3.8,15.5,3.1,15.8C294.2,313.6,288.4,303.2,288.5,297.7z"/>
			</g>
			<g>
				<path class="st3" d="M291.3,289.8l-0.6-4.4c-0.1-0.8,0.4-1.4,1.2-1.5c0.7-0.1,0.5-2.7,0.6-2l1.5,7.5c0.6,4.4,4.7,12.5,4.2,13
					C298,302.7,292,294.7,291.3,289.8z"/>
			</g>
			<g>
				<path class="st3" d="M346.5,424c15.1,32.7,9.1,68.2-0.9,102.3c0.2,0.5,0.3,1,0.2,1.6c0,0.2,0,0.3,0,0.3c0,0.1,0.1,0.2,0.1,0.3
					c-0.3-0.8,0.4,0.8,0.4,0.8c0.3,0.5,0.5,0.9,0.8,1.4c10.8-35.7,17.9-73.2,1.8-108.1c-4.3-6.5-6.9-14.8-9.2-22.1
					c-0.5-1.7-1.1-3.4-1.6-4.9c-1.3-13.6,3.4-27.4,4.7-40.9c1.4-13.6,2.8-27.7,1.4-41.7c-0.6-3.2-1.1-6.5-1.7-9.9
					c-4.4-26-9.4-55.4-33.3-68.6c0.3,1.1,0.5,2.2,0.4,3.4c21.3,13,25.8,39.7,30.2,65.7c0.6,3.3,1.1,6.7,1.7,9.8
					c1.4,13.6,0,27.5-1.4,41c-1.4,13.6-6.1,27.7-4.7,41.5l0.1,0.3c0.5,1.6,1.1,3.3,1.6,5C339.4,408.9,342.1,417.4,346.5,424z"/>
			</g>
			<g>
				<path class="st3" d="M342,536.2c-2.2-10.2-0.9-17.4,1.2-26.8l0.7-3.2c6.9-31.1,1.3-63.5-4.2-94.8l-0.7-3.9
					c-0.1-0.7,0.4-1.5,1.1-1.6c0.8-0.2,1.5,0.4,1.6,1.1l0.7,3.9c5.5,31.6,11.2,64.3,4.2,95.9l-0.7,3.2c-2.2,9.4-4.9,19.2-1.4,28.4
					c0.6,1.7,1.6,5,1,5.5C345.2,544.1,342.4,538.2,342,536.2z"/>
			</g>
			<g>
				<path class="st3" d="M347.9,537c-0.8-1.9-1.5-3.8-2.1-5.8c-2.6-9-2.1-18.3-1.5-27.3c0.5-7.8,0.9-15.9-0.7-23.6
					c-0.8-3.7-2.1-7.5-3.4-11.2c-2.1-6.2-4.3-12.5-4.3-19.1c0.1-7.5,2.5-11.4,4.8-15.2c2.2-3.7,4.3-7.1,4.3-14
					c0-0.8,0.6-1.4,1.4-1.4c0,0,0,0,0,0c0.8,0,1.4,0.6,1.4,1.4c0.1,7.7-2.3,11.6-4.7,15.5c-2.2,3.6-4.3,7.1-4.4,13.8
					c-0.1,6.1,2,11.9,4.1,18.1c1.3,3.7,2.6,7.6,3.5,11.5c1.7,8.1,1.3,16.4,0.8,24.3c-0.5,8.7-1,17.8,1.4,26.4
					c0.6,2.3,1.5,4.5,2.5,6.7c0.8,1.8-0.2,6.7-0.8,7.1C349.9,544.4,348.9,539.3,347.9,537z"/>
			</g>
			<g>
				<path class="st3" d="M348.8,326.3c-0.1-1.7,0-3.5,0-5.2c0-1.6,0.1-3.2,0-4.8c-0.4-11.4-5.4-22.4-13.7-30.2
					c-0.6-0.5-2.3-3.9-1.8-4.5c0.5-0.6,3.1,1.9,3.7,2.5c8.8,8.3,14.1,20,14.6,32.1c0.1,1.6,0,3.3,0,4.9c0,1.7-0.1,3.3,0,5
					c0.3,5.9,4.6,18.7,4,19C355.3,345.3,349.1,332.6,348.8,326.3z"/>
			</g>
			<g>
				<path class="st3" d="M327.5,339.9c-0.1,0-0.5-8.2-0.9-11.4c-0.1-1.1-0.3-2.2-0.5-3.3c-0.3-1.7-0.6-3.5-0.7-5.3
					c-0.5-11.2,7.2-20.7,13-26.9c0.5-0.6,1.4-0.6,1.9-0.1c0.6,0.5,0.6,1.4,0.1,1.9c-8.7,9.2-12.6,17.1-12.3,24.8
					c0.1,1.6,0.3,3.2,0.6,4.9c0.2,1.1,0.4,2.3,0.5,3.4C329.7,331.7,328.1,339.9,327.5,339.9z"/>
			</g>
			<g>
				<path class="st3" d="M317.4,313.6c-0.7-0.3,3.2-10.9,3.1-15.8c0-2-0.4-4-0.8-6.1c-0.6-3.5-1.3-7.1-0.3-10.7
					c0.9-3.3,3-5.9,5.1-8.5c2.4-3,4.7-8.5,4.8-11.9c0-0.8,0.6,1.4,1.3,1.4c0.8,0,1.4,0.7,1.3,1.4c-0.2,4.3-2.8,7.6-5.3,10.8
					c-2,2.5-3.8,4.8-4.6,7.5c-0.8,3-0.2,6.1,0.4,9.4c0.4,2.1,0.8,4.3,0.8,6.6C323.4,303.2,317.6,313.6,317.4,313.6z"/>
			</g>
			<g>
				<path class="st3" d="M314.6,302.9c-0.4,0,2.6-9.1,3.1-13.5l1.5-7.7c0.1-0.8-0.2,2,0.6,2.1c0.8,0.1,1.3,0.8,1.2,1.5l-0.6,4.3
					C319.8,294.7,314.9,302.9,314.6,302.9z"/>
			</g>
			<g>
				<path class="st3" d="M326.8,202.1c-1.3-1.1-2.3-2.4-3.4-3.6c-0.7-0.8-1.4-1.6-2.2-2.4c-4.5-4.6-11.3-6.9-17.7-6
					c-0.8,0.1-1.4-0.4-1.5-1.2c-0.1-0.8,0.4-1.4,1.2-1.5c7.2-1,14.9,1.6,20,6.8c0.8,0.8,1.6,1.7,2.3,2.6c1,1.2,2,2.3,3.1,3.3
					c3.6,3.2,14.4,6.4,14.3,7.1C342.7,207.8,330.9,205.7,326.8,202.1z"/>
			</g>
			<g>
				<path class="st3" d="M328.9,193.2c-0.9,0-1.8-0.1-2.6-0.1c-2.7-0.2-5.5-0.4-8.2-0.8c-0.8-0.1-1.3-0.8-1.2-1.5
					c0.1-0.8,0.7-1.3,1.5-1.2c2.7,0.3,5.4,0.6,8.1,0.7c2,0.1,3.8,0.2,5.5-0.3c1.3-0.4,2.6-1.1,3.9-1.8c2.3-1.3,8.8-1.6,8.7-0.8
					c-0.1,0.8-4.2,0.6-7.4,3.2c-1.3,1.1-2.9,1.6-4.6,2.1C331.4,193.1,330.2,193.2,328.9,193.2z"/>
			</g>
			<g>
				<path class="st3" d="M341.6,234.9c-0.5-1-0.8-2-1.2-3c-0.3-1-0.6-1.9-1.1-2.7c-1.5-3-4.7-5-7.5-6.7c-2.8-1.6-5.7-3.2-8.6-4.7
					c-8.4-4.5-17-9.2-23.9-16c-0.5-0.5-0.5-1.4,0-1.9c0.5-0.5,1.4-0.5,1.9,0c6.6,6.5,15.1,11.1,23.3,15.5c2.9,1.6,5.8,3.1,8.7,4.8
					c3.2,1.8,6.7,4.1,8.6,7.8c0.5,1,0.9,2.1,1.2,3.1c0.3,0.9,0.6,1.8,1,2.6c0.8,1.7,4.8,5.3,4.4,5.9
					C348.2,240.1,342.7,237.1,341.6,234.9z"/>
			</g>
			<g>
				<path class="st3" d="M340.1,222.7c-1.3-0.8-2.5-1.5-3.7-2.1c-3.2-1.5-6.9-1.9-10.5-2.3c-0.8-0.1-1.3-0.8-1.2-1.5
					c0.1-0.8-2-1.3-1.2-1.2c3.6,0.4,10.4,0.9,14,2.6c1.4,0.6,2.7,1.5,4,2.2c0,0,7.5,5.3,7.1,5.9
					C348.4,226.7,340.1,222.7,340.1,222.7z"/>
			</g>
			<g>
				<path class="st3" d="M327.7,226.2c-1.4-1.5-3.3-3-4.5-4.8c-0.5-0.8-3-3.9-3.6-4.7c-0.8-1.1-2.1-2.5-3.7-2.8
					c-0.7-0.1-1.2-0.9-1.1-1.6c0.1-0.7,0.9-1.2,1.6-1.1c2,0.4,3.9,1.8,5.4,3.9c0.6,0.9,1.2,1.9,1.7,2.9c0.4,0.7,0.8,1.5,1.3,2.2
					c1,1.6,2.3,3,3.7,4.5c1.6,1.8,4.7,7.3,4.1,7.7C332.5,232.5,329.3,228,327.7,226.2z"/>
			</g>
			<g>
				<path class="st3" d="M350.4,260.3c-0.1,0-5.7-2.4-8.1-4.1l-1-0.7c-2.4-1.7-5-3.2-7.6-4.5c-1.4-0.7-3.2-1.5-5-2
					c-1.7-0.5-3.5-0.6-5.3-0.8c-3.2-0.3-6.4-0.7-9.3-2.4c-0.7-0.4-0.9-1.2-0.5-1.9c0.4-0.6,1.2-0.9,1.9-0.5c2.3,1.4,5.2,1.7,8.1,2
					c1.9,0.2,3.9,0.4,5.8,0.9c2,0.6,3.9,1.4,5.5,2.2c2.7,1.4,5.4,3,7.9,4.7l1,0.7C346.2,255.5,351.1,260.3,350.4,260.3z"/>
			</g>
			<g>
				<path class="st3" d="M340.9,248.7c-0.9,0-1.8,0.1-2.7,0.2c-0.6,0.1-1.3,0.1-1.9,0.2c-1.9,0.2-3.7,0.1-5.6-0.1
					c-0.8-0.1-1.3-0.8-1.2-1.5c0.1-0.8-2.4-1.7-1.6-1.6c1.7,0.2,6.5,0.6,8.2,0.5c0.6,0,1.2-0.1,1.8-0.2c1-0.1,2-0.2,2.9-0.3
					c4.5-0.1,13.1,5.7,12.6,6.2C353.2,252.5,344.7,248.6,340.9,248.7z"/>
			</g>
			<g>
				<path class="st2" d="M293.3,44.2c0,0-0.2,1-0.6,2.7c-0.2,0.9-0.3,1.9-0.5,3.1c-0.2,1.2-0.2,2.6-0.3,4c0,1.5,0,3.1,0.2,4.8
					c0.1,1.7,0.4,3.5,0.7,5.3c0.4,1.8,0.8,3.7,1.5,5.5c0.5,1.8,1.5,3.6,2.2,5.5c0.7,1.9,1.6,3.7,2.1,5.8c0.5,1.9,1,3.8,1.1,5.8
					c0.3,2,0.3,3.8,0.4,5.6c0.1,1.8,0,3.4,0,4.9c0,1.5-0.1,2.9,0,4.1c0,1.2,0.2,2.2,0.3,3c0.2,0.8,0.2,1.4,0,1.9
					c-0.2,0.5-0.5,0.9-0.5,0.9l0,0c-0.2,0.2-0.5,0.3-0.8,0.2c0,0-0.4-0.1-0.8-0.5c-0.4-0.4-0.8-1.1-0.9-2.1
					c-0.1-0.9-0.3-2.1-0.2-3.4c-0.1-1.3,0-2.6,0-4.2c0-1.5,0.1-3.1,0-4.8c-0.1-1.7-0.1-3.5-0.3-5.3c-0.1-1.8-0.5-3.7-1-5.6
					c-0.4-1.7-1.3-3.6-1.9-5.5c-0.7-1.9-1.5-3.7-2.1-5.7c-0.6-1.9-1-3.9-1.4-5.8c-0.3-1.9-0.5-3.8-0.5-5.5c-0.1-1.8,0.1-3.4,0.2-5
					c0.2-1.5,0.3-2.9,0.6-4.2c0.3-1.2,0.4-2.3,0.7-3.1c0.5-1.7,0.8-2.6,0.8-2.6c0.1-0.2,0.3-0.3,0.5-0.3
					C293.2,43.8,293.3,44,293.3,44.2z"/>
			</g>
			<g>
				<path class="st2" d="M324.1,45.6c0,0,0,1.1-0.1,3.1c0,1-0.1,2.2-0.1,3.5c0,1.4-0.1,2.9-0.3,4.6c-0.2,1.7-0.4,3.5-0.6,5.4
					c-0.2,1.9-0.7,3.9-1,6c-0.4,2.1-0.7,4.2-1.4,6.4c-0.6,2.1-1.1,4.3-1.7,6.5c-0.7,2.1-1.3,4.3-2,6.4c-0.6,2.1-1,4.2-1.6,6.1
					l-0.4,1.5c-0.1,0.3-0.1,1-0.2,1.4c-0.1,1-0.2,2-0.3,2.9c-0.2,1.9,0.1,3.6,0,5.1c0,1.6,0.4,3,0.5,4.3c0.1,1.3,0.4,2.4,0.6,3.3
					c0.6,1.8,3.1,14,3.1,14c-0.2,0.3-2.1-2.2-2.4-2.3c0,0-3.2-8.9-3.6-10.9c-0.3-1-0.7-2.1-0.9-3.5c-0.2-1.4-0.5-3-0.5-4.7
					c0.1-1.7-0.1-3.8,0.2-5.7c0.1-1,0.3-1.9,0.4-2.9c0.1-0.5,0.1-0.9,0.3-1.6c0.1-0.5,0.3-1,0.4-1.5c0.6-2,1.2-4.2,1.8-6.3
					c0.7-2.1,1.5-4.2,2.2-6.3c0.6-2.1,1.3-4.2,1.9-6.3c0.7-2.1,1.1-4.2,1.6-6.2c0.4-2,1-4,1.2-5.9c0.3-1.9,0.5-3.7,0.8-5.3
					c0.3-1.6,0.4-3.2,0.5-4.5c0.1-1.4,0.2-2.5,0.3-3.5c0.2-1.9,0.2-3.1,0.2-3.1c0-0.2,0.2-0.4,0.4-0.4
					C324,45.2,324.2,45.4,324.1,45.6z"/>
			</g>
			<g>
				<path class="st2" d="M316.2,117.9c-7.2-7.4-13.6-10.4-20.6-12.9c-6-2.2-12.6-4.1-19.1-3.5c-3.5,0.3-7.2,1.4-11.2,3.3
					c-5.4,2.6-10.4,6.2-14.9,10.7c0,0.1,0,0.1,0,0.2c0.4,0.8,0.9,1.7,1.3,2.5c4.5-4.6,9.4-8.3,14.8-10.9c3.7-1.8,7.1-2.8,10.3-3.1
					c5.6-0.5,11.2,0.9,17.9,3.4c6.2,2.2,14.6,10.1,20.8,18.5c0.5-0.9,1.4-1.6,2.4-1.9c0.3-0.1,0.5-0.2,0.8-0.2c0.1,0,0.2,0,0.3,0
					C318,121.5,316.5,118.3,316.2,117.9z"/>
			</g>
			<g>
				<path class="st2" d="M366.2,118.2c-4.6-4.5-9.1-10.8-14.6-13.4c-4-1.9-7.7-3-11.2-3.3c-6.5-0.6-13,1.3-19.1,3.5
					c-4.2,1.5-9.1,3.5-13.6,6.3c-0.6,0.4-0.8,1.3-0.4,1.9c0.4,0.6,1.2,0.8,1.9,0.4c4.3-2.7,9-4.5,13.1-6c6.6-2.4,12.2-3.9,17.9-3.4
					c3.2,0.3,6.6,1.3,10.3,3.1c5.3,2.5,9.7,8.8,14.2,13.2C365.1,119.7,365.6,119,366.2,118.2z"/>
			</g>
			<g>
				<path class="st2" d="M282.3,159.3c-0.5,0.7-1.1,1.3-1.8,1.7c0,2.1,0.2,4.4-0.1,6.6l-0.2,1.3c0,0.2-0.1,0.5-0.1,0.6l-0.2,0.6
					c-0.2,0.9-0.6,1.5-0.9,2.3c-0.4,0.7-0.8,1.3-1.3,1.9c-0.4,0.6-0.9,1.1-1.4,1.5c-0.5,0.4-0.9,0.8-1.4,1.1
					c-0.4,0.3-0.8,0.6-1.2,0.7c-0.7,0.3-1.1,0.5-1.1,0.5l-0.1,0c-0.2,0.1-0.3,0.3-0.2,0.5c0.1,0.2,0.3,0.3,0.5,0.2
					c0,0,0.4-0.2,1.2-0.5c0.4-0.1,0.8-0.4,1.3-0.7c0.5-0.2,1-0.7,1.6-1.1c0.5-0.5,1.1-0.9,1.7-1.6c0.5-0.6,1-1.3,1.5-2.1
					c0.4-0.8,0.9-1.7,1.2-2.5l0.2-0.6c0.1-0.3,0.1-0.5,0.2-0.7l0.3-1.4c0.2-1.9,0.2-3.7,0.2-5.4
					C282.2,161.3,282.2,160.2,282.3,159.3z"/>
			</g>
			<g>
				<path class="st2" d="M259.6,149.5c0,0,0.8-0.3,2-0.8c0.6-0.2,1.3-0.5,1.9-0.9c0.7-0.4,1.4-0.8,2.1-1.1l0.9-0.8
					c0.4-0.3,0.6-0.6,0.8-0.8c0.2-0.3,0.5-0.5,0.6-0.8c0.2-0.3,0.3-0.6,0.4-0.8c0.3-0.5,0.3-1,0.4-1.3c0.1-0.3,0.4-0.5,0.4-0.5
					l0.1-0.1c0.2-0.1,0.5-0.1,0.7,0.2c0,0,0.2,0.3,0.1,0.7c-0.1,0.4-0.2,1-0.6,1.6c-0.2,0.3-0.4,0.6-0.6,1c-0.2,0.3-0.5,0.6-0.8,1
					c-0.3,0.3-0.6,0.7-0.9,0.9l-1,0.8c-0.8,0.4-1.6,0.8-2.3,1.2c-0.4,0.2-0.7,0.4-1.1,0.5c-0.3,0.1-0.7,0.2-1,0.3
					c-1.2,0.4-2,0.6-2,0.6c-0.2,0.1-0.5,0-0.5-0.3C259.3,149.8,259.4,149.6,259.6,149.5z"/>
			</g>
			<g>
				<path class="st2" d="M314,159.2c0,2.2,0.2,4.8,0.1,5.6l0,0c0,0-0.3,4.1-0.7,10.3c-0.1,1.6-0.3,3.2-0.3,5c0,1.8-0.1,3.7-0.1,5.6
					c0,2-0.1,4-0.1,6c-0.1,2.1,0,4.1,0,6.2c-0.1,2,0.1,4.1-0.1,6c-0.1,1-0.1,1.9-0.2,2.9c-0.1,0.9-0.3,1.8-0.5,2.7l-0.2,1.3
					l-0.1,0.6l-0.2,0.7c-0.3,0.9-0.5,1.8-0.8,2.5c-0.3,0.7-0.6,1.4-1,2.1c-0.3,0.7-0.7,1.3-1.1,1.9c-0.3,0.5-0.6,0.9-0.9,1.2
					c1.2,0.6,2.2,1.4,2.9,2.4c0.4-0.4,0.8-0.9,1.1-1.4c0.5-0.7,1-1.4,1.4-2.2c0.5-0.8,0.9-1.6,1.3-2.5c0.4-0.9,0.7-1.8,1-2.7
					l0.2-0.7c0.1-0.4,0.1-0.5,0.2-0.8l0.3-1.5c0.2-1,0.5-2,0.6-3.1c0.1-1,0.2-2.1,0.3-3.1c0.3-2.1,0.2-4.2,0.3-6.3
					c0.1-2.1,0-4.1,0.2-6.1c0.1-2,0.2-4,0.3-5.9c0.1-1.9,0.2-3.8,0.3-5.5c0.1-1.7,0.3-3.4,0.4-5c0.5-6.2,0.9-10.3,0.9-10.3
					c0,0,0.3-3.9,0-5.2C317.7,159.7,315.4,160.4,314,159.2z"/>
			</g>
			<g>
				<g>
					<path class="st2" d="M312.8,219.3c0,0-0.8,1.3-1.6,2.4c-0.4,0.5-1.1,1.2-1.9,2.1c-0.8,0.9-1.9,2.1-3.1,3.4
						c-1.1,1.4-2.4,3-3.8,4.8c-1.5,1.7-2.9,3.9-4.5,6.2c-1.7,2.2-3.1,4.8-4.8,7.6c-1.7,2.7-3.1,5.8-4.8,9c-0.9,1.6-1.4,3.3-2.2,5.1
						c-0.7,1.8-1.5,3.5-2.1,5.4c-1.1,3.8-2.6,7.6-3.3,11.8c-0.4,2.1-1,4.2-1.2,6.3c-0.2,2.2-0.7,4.5-0.8,6.7
						c-0.8,8.9-0.5,18.6,0.3,28.5c0.8,10,2.1,20.3,2.7,30.8c0.6,10.6,0.8,21.5-1.4,32.3c-2.1,10.8-0.4,20.6-3.3,30.5
						c-0.6,2.4-1.1,5.1-1.7,7.6c-0.3,2.5-0.7,5-1,7.5c-0.2,2.6-0.4,5.1-0.5,7.6c0,2.5-0.1,5-0.1,7.5c0,10,0.3,19.7-0.6,29
						c-0.8,9.2-2.6,17.8-3.7,25.7c-1.2,7.9-1.8,15.2-1.4,21.6c0.6,6.5,1.1,12.2,1.1,17c-0.2,4.8,1.7,8.5,0.4,10.7
						c-0.7,1.1-1.4,1.8-1.9,2.3c-0.5,0.4-0.7,0.7-0.7,0.7c-0.1,0,0.9-1.1,1.8-3.3c0.9-2.3-1.5-5.8-1.5-10.3
						c-0.1-4.6-0.6-10.2-1.3-16.7c-0.4-6.7,0.1-14.1,1.2-22.1c1.1-8,2.7-16.5,3.4-25.6c0.7-9,0.3-18.7,0.3-28.8c0-2.5,0-5.1,0.1-7.6
						c0.1-2.6,0.3-5.2,0.4-7.8c0.3-2.6,0.6-5.3,0.9-7.9c0.6-2.6,1-5.1,1.7-7.8c1.1-3.9,2.2-19.4,2.7-26.6c0.2-2.6,0.5-5.1,0.9-7.6
						c1.3-9.1,1.1-18.4,0.5-27.5c-0.7-10.4-2-20.7-2.9-30.8c-0.8-10.1-1.2-19.8-0.4-29.3c0.1-2.4,0.5-4.6,0.8-6.8
						c0.2-2.3,0.9-4.5,1.3-6.6c0.7-4.4,2.2-8.4,3.4-12.3c0.6-1.9,1.5-3.8,2.2-5.6c0.8-1.8,1.4-3.6,2.2-5.3c1.7-3.3,3.1-6.6,4.9-9.4
						c1.7-2.9,3.2-5.6,4.9-7.9c1.6-2.3,3-4.6,4.6-6.4c1.5-1.9,2.8-3.6,4-5c1.2-1.4,2.2-2.5,3.1-3.4c0.8-0.9,2.7-3,3.1-3.5
						c0.5-0.4-0.1,1.1-0.1,1.1C310.3,218.9,312.5,218.4,312.8,219.3z"/>
				</g>
				<g>
					<path class="st2" d="M278.5,283.5c0,0-0.4,0.4-1,1.2c-0.4,0.4-0.7,0.8-1.1,1.4c-0.4,0.5-0.8,1.1-1.3,1.8
						c-1.8,2.7-3.6,6.8-5.2,11c-1.6,4.2-3.2,8.5-5,11.4c-0.9,1.5-1.7,2.6-2.4,3.4c-0.6,0.8-1,1.2-1,1.2c-0.1,0.2-0.4,0.2-0.6,0
						c-0.2-0.1-0.2-0.4-0.1-0.6l0,0c0,0,0.3-0.4,0.9-1.2c0.6-0.8,1.4-1.9,2.2-3.4c1.6-2.9,3.2-7.1,4.7-11.3
						c1.5-4.2,3.1-8.6,5.2-11.4c1-1.4,2.1-2.5,2.8-3.1c0.7-0.7,1.2-1,1.2-1c0.2-0.1,0.4-0.1,0.6,0.1
						C278.6,283.1,278.6,283.3,278.5,283.5z"/>
				</g>
				<g>
					<path class="st2" d="M278.4,283.9c0,0,0,0.2-0.1,0.6c-0.1,0.4-0.3,1-0.2,1.5c-0.1,1.1,0.2,3.1,1.1,5.2c0.4,1.1,1,2.2,1.7,3.5
						c0.6,1.3,1.2,2.6,1.9,4c0.6,1.4,1.3,2.8,2,4.3c0.7,1.4,1.4,3,1.9,4.5c0.6,1.6,1.1,3.2,1.4,4.8c0.3,1.7,0.2,3.3,0.2,4.8
						c0,1.5-0.1,3-0.2,4.4c0.1,1.3,0.1,2.7,0.3,3.9c0.3,1.2,0.4,2.2,0.8,3.1c0.3,0.9,0.5,1.7,0.9,2.3c0.6,1.2,1,2,1,2l0,0.1
						c0.1,0.2,0,0.5-0.2,0.6c-0.2,0.1-0.4,0-0.5-0.2c0,0-0.4-0.7-1.1-2c-0.4-0.6-0.6-1.5-1-2.4c-0.4-0.9-0.6-2.1-0.9-3.3
						c-0.3-1.3-0.3-2.5-0.5-4c0-1.4,0.1-2.9,0.1-4.4c0-1.6,0-3.1-0.3-4.6c-0.3-1.5-0.8-3-1.4-4.5c-0.6-1.5-1.3-2.9-2-4.4
						c-0.7-1.4-1.4-2.8-2.1-4.2c-0.7-1.4-1.3-2.7-2-3.9c-0.6-1.2-1.3-2.4-1.8-3.6c-0.5-1.2-0.9-2.3-1.1-3.3c-0.2-1.1-0.3-2-0.3-2.9
						c0-0.9,0.2-1.4,0.2-1.8c0.1-0.4,0.1-0.6,0.1-0.6c0.1-0.6,0.7-1,1.3-0.9C278.1,282.7,278.5,283.3,278.4,283.9
						C278.4,283.9,278.4,283.9,278.4,283.9z"/>
				</g>
				<g>
					<path class="st2" d="M278.6,329.6c0,0,0.2,0.3,0.2,0.8c0,0.5-0.3,1.1-0.6,1.9c-0.6,1.6-1.5,3.8-2.5,6.5
						c-0.5,1.3-1.1,2.8-1.7,4.3c-0.6,1.5-1.3,3.1-2,4.8c-0.7,1.7-1.3,3.4-1.8,5.2c-0.5,1.8-1,3.6-1.4,5.5c-0.3,1.9-0.5,3.7-0.5,5.6
						c-0.1,1.8,0.2,3.7,0.3,5.5c0.2,1.8,0.2,3.6,0.1,5.3c-0.1,1.7-0.4,3.3-0.7,4.7c-0.6,2.9-1.5,5.2-2.1,6.8c-0.7,1.6-1,2.5-1,2.5
						c-0.1,0.2-0.3,0.3-0.5,0.2c-0.2-0.1-0.3-0.3-0.2-0.5l0,0c0,0,0.3-0.9,0.9-2.5c0.5-1.6,1.3-3.9,1.8-6.7c0.3-1.4,0.4-2.9,0.5-4.5
						c0.1-0.8,0-1.7,0-2.5c-0.1-0.9-0.1-1.7-0.2-2.6c-0.1-1.8-0.4-3.6-0.4-5.6c0-2,0.1-3.9,0.4-5.9c0.3-1.9,0.8-3.9,1.3-5.7
						c0.6-1.8,1.2-3.6,1.8-5.3c0.7-1.7,1.3-3.3,2-4.9c0.7-1.5,1.2-3,1.7-4.3c1-2.7,1.9-4.9,2.5-6.5c0.3-0.8,0.5-1.4,0.8-1.8
						c0.3-0.4,0.7-0.5,0.7-0.5C278.1,329.2,278.4,329.3,278.6,329.6z"/>
				</g>
				<g>
					<path class="st2" d="M274.8,418.4c0,0-0.3,0.7-0.9,2.1c-0.6,1.4-1.5,3.2-2.6,5.3c-1.1,2.2-2.4,4.6-3.4,7.4
						c-1,2.8-1.7,5.8-1.7,9c-0.1,3.2,0,6.4-0.1,9.5c-0.1,3.1-0.5,5.9-1.3,8.3c-0.4,1.2-0.8,2.2-1.3,3.1c-0.5,0.9-1,1.6-1.4,2.2
						c-0.4,0.6-1.9,1.9-2.1,1.8c-0.2-0.1,2.2-3.6,2.6-4.4c0.4-0.9,0.8-1.9,1.1-3c0.7-2.3,0.9-5,1-8c0-3-0.2-6.2-0.2-9.5
						c-0.1-3.3,0.5-6.7,1.5-9.6c1-3,2.3-5.5,3.3-7.7c1-2.2,1.9-4,2.4-5.3c0.5-1.3,0.8-2.1,0.8-2.1c0.2-0.7,0.9-1,1.6-0.8
						C274.8,416.9,275.1,417.6,274.8,418.4C274.9,418.3,274.9,418.3,274.8,418.4L274.8,418.4z"/>
				</g>
				<g>
					<path class="st2" d="M273.9,448.1c0,0,0.1,0,0.3,0.1c0.3,0.1,0.5,0.1,1,0.3c0.6,0.2,1.2,0.6,1.7,1.1c0.5,0.5,1,1.1,1.5,1.8
						c0.4,0.7,0.8,1.5,1.1,2.4c0.3,0.9,0.5,1.9,0.4,2.9c0,0.9,0,1.9-0.2,2.9c-0.1,1.1-0.4,2-0.7,3c-0.5,1.9-1.2,3.8-1.7,5.5
						c-0.3,0.9-0.4,1.7-0.6,2.5c-0.2,0.8-0.3,1.6-0.4,2.3c-0.4,2.5-0.3,5.3-0.5,5.3c-0.2,0-0.5-0.9-0.5-1.8c0-0.4-0.1-1-0.1-1.6
						c0-0.6,0.1-1.3,0.1-2.1c0-0.8,0.1-1.6,0.3-2.4c0.2-0.8,0.3-1.8,0.5-2.7c0.4-1.8,1-3.7,1.4-5.6c0.2-0.9,0.4-1.9,0.5-2.8
						c0.2-0.9,0.1-1.8,0.1-2.8c0-0.8-0.2-1.6-0.4-2.3c-0.2-0.7-0.6-1.4-0.9-1.9c-0.3-0.5-0.8-1-1.1-1.3c-0.4-0.3-0.7-0.5-1-0.6
						c-0.2-0.2-0.7-0.2-0.9-0.2c-0.2,0-0.3-0.1-0.3-0.1c-0.6-0.1-1-0.7-0.9-1.3C272.7,448.4,273.3,448,273.9,448.1
						C273.9,448.1,273.9,448.1,273.9,448.1z"/>
				</g>
				<g>
					<path class="st2" d="M270.1,486.6c0,0,0.2,0.3,0.1,0.4c-0.1,0.2-0.2,0.4-0.4,0.7c-0.2,0.3-0.4,0.6-0.6,1
						c-0.2,0.4-0.7,0.8-1,1.3c-0.8,1-1.7,1.9-2.7,2.9c-0.4,0.5-0.9,1.1-1.4,1.6c-0.4,0.5-0.9,1.2-1.2,1.9c-0.7,1.3-1.2,2.7-1.5,4
						c-0.2,0.7-0.2,1.3-0.3,2c-0.1,0.6-0.1,1.5-0.2,2.1c-0.1,1.1,0.3,3.9,0.1,3.9c-0.2,0-0.6-0.7-0.7-1.4c-0.2-0.7-0.3-1.6-0.4-2.8
						c0-0.6,0-1.2,0-1.9c0.1-0.7,0.1-1.4,0.3-2.1c0.3-1.5,0.8-2.9,1.6-4.4c0.4-0.7,0.8-1.3,1.2-2c0.5-0.6,1-1.2,1.4-1.8
						c1-1.1,1.9-2.1,2.6-2.9c0.3-0.4,0.7-0.8,0.9-1.2c0.2-0.4,0.4-0.7,0.6-1c0.2-0.3,0.3-0.5,0.4-0.7c0.1-0.2,0.4-0.1,0.4-0.1
						C269.6,486.3,269.9,486.4,270.1,486.6z"/>
				</g>
				<g>
					<path class="st2" d="M263.7,533.7c0.6-1.7,0.4-4.8,0.4-7.4c0.1-2.7,0.7-5.3,1.4-7.2c0.6-1.9,1.1-3.1,1.1-3.1
						c0.1-0.2,0.3-0.3,0.5-0.3c0.2,0.1,0.3,0.3,0.2,0.6c0,0-0.5,1.2-1.1,3.1c-0.6,1.8-1.2,4.4-1.3,6.9c0,2.6,0,5.3-0.7,7.3
						c-0.3,1-0.9,1.8-1.4,2.2c-0.5,0.5-1.3,0.7-1.5,0.4C261.5,536.2,263.1,535.5,263.7,533.7z"/>
				</g>
				<g>
					<path class="st2" d="M278.6,335.5c0,0,1.3,1.6,3.2,4c1,1.2,2.1,2.7,3.2,4.4c1,1.7,2,3.7,2.4,5.8c0.3,1.2,0.3,2.1,0.3,3.1
						c0,1.1,0,2.1-0.1,3.1c-0.1,1.9-0.3,3.7-0.2,5.2c0.1,0.7,0.1,1.4,0.2,2c0.1,0.6,0.2,1.1,0.4,1.5c0.3,0.8,0.5,1.2,0.5,1.2l0,0.1
						c0.1,0.2,0,0.4-0.2,0.5c-0.2,0.1-0.4,0-0.5-0.2c0,0-0.2-0.5-0.6-1.3c-0.2-0.4-0.3-1-0.5-1.6c-0.2-0.6-0.2-1.4-0.3-2.2
						c-0.1-1.6,0-3.4,0-5.3c0-1,0-1.9,0-2.9c-0.1-0.9-0.1-2.1-0.4-3c-0.4-1.9-1.3-3.7-2.4-5.2c-1-1.6-2.2-2.9-3.2-4.1
						c-2-2.3-3.4-3.9-3.4-3.9c-0.4-0.4-0.3-1,0.1-1.4C277.6,335,278.3,335,278.6,335.5C278.6,335.5,278.6,335.5,278.6,335.5z"/>
				</g>
				<g>
					<path class="st2" d="M276.2,314.1c0,0,0.3,0.1,0.4,0.3c0.1,0.2,0.1,0.6,0.1,1.1c0,0.9-0.3,2.1-0.8,3.5
						c-0.5,1.4-1.2,2.9-2.1,4.4c-0.2,0.4-0.5,0.8-0.8,1.2l-0.9,1.1c-0.6,0.7-1.3,1.4-1.9,2.1c-0.7,0.6-1.3,1.3-1.9,1.9
						c-0.7,0.6-1.1,1.3-1.7,2c-0.6,0.7-1,1.3-1.4,2c-0.5,0.6-0.8,1.3-1.1,1.9c-0.7,1.2-1.1,2.2-1.4,3c-0.3,0.7-0.5,1.2-0.5,1.2l0,0
						c-0.1,0.2-0.3,0.3-0.5,0.2c-0.2-0.1-0.3-0.3-0.2-0.5c0,0,0.2-0.4,0.4-1.2c0.3-0.8,0.7-1.9,1.3-3.1c0.3-0.6,0.6-1.3,1.1-2
						c0.4-0.7,0.9-1.5,1.4-2.1c0.5-0.7,1.1-1.4,1.7-2.1c0.6-0.7,1.3-1.4,1.9-2c0.6-0.7,1.2-1.3,1.8-2l0.8-1.1c0.2-0.3,0.5-0.7,0.7-1
						c0.9-1.4,1.5-2.9,2-4.1c0.4-1.3,0.6-2.3,0.7-3c0-0.4,0-0.5,0-0.8c0-0.2,0.3-0.4,0.3-0.4C275.6,314.1,275.9,314.1,276.2,314.1z"
						/>
				</g>
				<g>
					<path class="st2" d="M284.1,425.4c0,0-0.2-0.4-0.5-1.2c-0.3-0.7-0.7-1.8-1.1-3.1c-0.2-0.7-0.4-1.4-0.5-2.1
						c-0.1-0.8-0.4-1.5-0.4-2.4c-0.1-0.9-0.2-1.7-0.2-2.6c0-0.9,0-1.8,0-2.7c0-0.9,0-1.9-0.1-2.8l-0.1-1.3c-0.1-0.5-0.2-0.9-0.3-1.4
						c-0.4-1.7-2-5.2-2.6-6.5c-0.4,0.5,0.4,3,0,3.4c0,0,0,0,0,0c0.4,1,0.9,2.2,1.2,3.4c0.1,0.4,0.2,0.8,0.2,1.2l0.2,1.3
						c0.1,0.9,0.1,1.8,0.1,2.7c0,0.9,0,1.8,0.1,2.8c0,0.9,0.2,1.9,0.3,2.7c0.1,0.9,0.3,1.7,0.5,2.5c0.2,0.8,0.4,1.5,0.7,2.2
						c0.4,1.4,0.9,2.4,1.3,3.2c0.3,0.7,0.5,1.2,0.5,1.2c0.1,0.2,0.3,0.3,0.5,0.2C284.1,425.9,284.2,425.7,284.1,425.4L284.1,425.4z"
						/>
				</g>
				<g>
					<path class="st2" d="M331.4,425.4c0,0,0.2-0.4,0.5-1.2c0.3-0.7,0.7-1.8,1.1-3.1c0.2-0.7,0.4-1.4,0.5-2.1
						c0.1-0.8,0.4-1.5,0.4-2.4c0.1-0.9,0.2-1.7,0.2-2.6c0-0.9,0-1.8,0-2.7c0-0.9,0-1.9,0.1-2.8l0.1-1.3c0.1-0.5,0.2-0.9,0.3-1.4
						c0.4-1.7,1-3.2,1.6-4.5c0.4,0.5,0.7,1,1.1,1.4c0,0,0,0,0,0c-0.4,1-0.9,2.2-1.2,3.4c-0.1,0.4-0.2,0.8-0.2,1.2l-0.2,1.3
						c-0.1,0.9-0.1,1.8-0.1,2.7c0,0.9,0,1.8-0.1,2.8c0,0.9-0.2,1.9-0.3,2.7c-0.1,0.9-0.3,1.7-0.5,2.5c-0.2,0.8-0.4,1.5-0.7,2.2
						c-0.4,1.4-0.9,2.4-1.3,3.2c-0.3,0.7-0.5,1.2-0.5,1.2c-0.1,0.2-0.3,0.3-0.5,0.2C331.4,425.9,331.3,425.7,331.4,425.4
						L331.4,425.4z"/>
				</g>
				<g>
					<path class="st2" d="M292.4,245.9c0,0-0.2,0.5-0.4,1.4c-0.1,0.7-0.3,1.8,0,3.2c0.1,0.7,0.3,1.5,0.6,2.2
						c0.3,0.8,0.7,1.6,1.2,2.4c0.4,0.8,1.1,1.5,1.7,2.4c0.6,0.8,1.3,1.5,2,2.3c0.7,0.8,1.4,1.6,2,2.4c0.6,0.9,1.3,1.6,1.7,2.6
						c0.5,0.8,0.9,1.8,1.2,2.7c0.3,0.9,0.4,1.8,0.5,2.6c0.1,0.8,0.1,1.6,0,2.2c-0.1,0.7-0.3,1.2-0.4,1.7c-0.4,0.9-0.6,1.4-0.6,1.4
						c-0.1,0.2-0.3,0.3-0.5,0.2c-0.2-0.1-0.3-0.3-0.2-0.5l0-0.1c0,0,0.2-0.5,0.5-1.3c0.1-0.4,0.2-0.9,0.3-1.5c0-0.6,0-1.3-0.1-2
						c-0.1-0.7-0.3-1.5-0.6-2.3c-0.3-0.8-0.6-1.6-1.2-2.4c-0.4-0.8-1.2-1.5-1.7-2.3c-0.6-0.8-1.4-1.5-2.1-2.3
						c-0.7-0.8-1.5-1.5-2.2-2.3c-0.6-0.8-1.4-1.5-1.9-2.4c-0.6-0.8-1.1-1.7-1.4-2.6c-0.4-0.9-0.7-1.7-0.8-2.6
						c-0.4-1.6-0.3-3.1-0.1-4.2c0.2-0.9,0.4-1.4,0.4-1.4c0.2-0.6,0.8-1,1.4-0.8C292.2,244.7,292.6,245.3,292.4,245.9
						C292.5,245.9,292.5,245.9,292.4,245.9z"/>
				</g>
			</g>
			<g>
				<g>
					<path class="st2" d="M346.9,546.2c-0.9-2.3,1.5-5.8,1.5-10.3c0.1-4.6,0.6-10.2,1.3-16.7c0.4-6.7-0.1-14.1-1.2-22.1
						c-1.1-8-2.7-16.5-3.4-25.6c-0.7-9-0.3-18.7-0.3-28.8c0-2.5,0-5.1-0.1-7.6c-0.1-2.6-0.3-5.2-0.4-7.8c-0.3-2.6-0.6-5.3-0.9-7.9
						c-0.6-2.6-1-5.1-1.7-7.8c-1.5-5.2-5.2-25.5-5.2-25.5l-0.2-1l-0.8-3.8c-2-10.3-1.9-21-1.2-31.4c0.7-10.4,2-20.7,2.9-30.8
						c0.8-10.1,1.2-19.8,0.4-29.3c-0.1-2.4-0.5-4.6-0.8-6.8c-0.2-2.3-0.9-4.5-1.3-6.6c-0.7-4.4-2.2-8.4-3.4-12.3
						c-0.6-1.9-1.5-3.8-2.2-5.6c-0.8-1.8-1.4-3.6-2.2-5.3c-1.7-3.3-3.1-6.6-4.9-9.4c-1.7-2.9-3.2-5.6-4.9-7.9
						c-1.6-2.3-3-4.6-4.6-6.4c-1.5-1.9-2.8-3.6-4-5c-1.2-1.4-2.2-2.5-3.1-3.4c-0.6-0.7-1.7-2-2.5-2.8c-0.6,1.2-1.5,2.3-2.7,3.1
						c0.1,0.1,0.1,0.2,0.2,0.3c0.4,0.5,1.1,1.2,1.9,2.1c0.8,0.9,1.9,2.1,3.1,3.4c1.1,1.4,2.4,3,3.8,4.8c1.5,1.7,2.9,3.9,4.5,6.2
						c1.7,2.2,3.1,4.8,4.8,7.6c1.7,2.7,3.1,5.8,4.8,9c0.9,1.6,1.4,3.3,2.2,5.1c0.7,1.8,1.5,3.5,2.1,5.4c1.1,3.8,2.6,7.6,3.3,11.8
						c0.4,2.1,1,4.2,1.2,6.3c0.2,2.2,0.7,4.5,0.8,6.7c0.8,8.9,0.5,18.6-0.3,28.5c-0.8,10-2.1,20.3-2.7,30.8
						c-0.6,10.6-0.8,21.5,1.4,32.3c2.1,10.8,3.8,20.6,6.6,30.5c0.6,2.4,1.1,5.1,1.7,7.6c0.3,2.5,0.7,5,1,7.5
						c0.2,2.6,0.4,5.1,0.5,7.6c0,2.5,0.1,5,0.1,7.5c0,10-0.3,19.7,0.6,29c0.8,9.2,2.6,17.8,3.7,25.7c1.2,7.9,1.8,15.2,1.4,21.6
						c-0.6,6.5-1.1,12.2-1.1,17c0.2,4.8-1.7,8.5-0.4,10.7c0.8,1.1,1.4,1.8,1.9,2.3c0.5,0.4,0.7,0.7,0.7,0.7
						C348.8,549.5,347.8,548.5,346.9,546.2z"/>
				</g>
				<g>
					<path class="st2" d="M333.9,283.5c0,0,0.4,0.4,1,1.2c0.4,0.4,0.7,0.8,1.1,1.4c0.4,0.5,0.8,1.1,1.3,1.8c1.8,2.7,3.6,6.8,5.2,11
						c1.6,4.2,3.2,8.5,5,11.4c0.9,1.5,1.7,2.6,2.4,3.4c0.6,0.8,1,1.2,1,1.2c0.1,0.2,0.4,0.2,0.6,0c0.2-0.1,0.2-0.4,0.1-0.6l0,0
						c0,0-0.3-0.4-0.9-1.2c-0.6-0.8-1.4-1.9-2.2-3.4c-1.6-2.9-3.2-7.1-4.7-11.3c-1.5-4.2-3.1-8.6-5.2-11.4c-1-1.4-2.1-2.5-2.8-3.1
						c-0.7-0.7-1.2-1-1.2-1c-0.2-0.1-0.4-0.1-0.6,0.1C333.8,283.1,333.8,283.3,333.9,283.5z"/>
				</g>
				<g>
					<path class="st2" d="M334.1,283.9c0,0,0,0.2,0.1,0.6c0.1,0.4,0.3,1,0.2,1.5c0.1,1.1-0.2,3.1-1.1,5.2c-0.4,1.1-1,2.2-1.7,3.5
						c-0.6,1.3-1.2,2.6-1.9,4c-0.6,1.4-1.3,2.8-2,4.3c-0.7,1.4-1.4,3-1.9,4.5c-0.6,1.6-1.1,3.2-1.4,4.8c-0.3,1.7-0.2,3.3-0.2,4.8
						c0,1.5,0.1,3,0.2,4.4c-0.1,1.3-0.1,2.7-0.3,3.9c-0.3,1.2-0.4,2.2-0.8,3.1c-0.3,0.9-0.5,1.7-0.9,2.3c-0.6,1.2-1,2-1,2l0,0.1
						c-0.1,0.2,0,0.5,0.2,0.6c0.2,0.1,0.4,0,0.5-0.2c0,0,0.4-0.7,1.1-2c0.4-0.6,0.6-1.5,1-2.4c0.4-0.9,0.6-2.1,0.9-3.3
						c0.3-1.3,0.3-2.5,0.5-4c0-1.4-0.1-2.9-0.1-4.4c0-1.6,0-3.1,0.3-4.6c0.3-1.5,0.8-3,1.4-4.5c0.6-1.5,1.3-2.9,2-4.4
						c0.7-1.4,1.4-2.8,2.1-4.2c0.7-1.4,1.3-2.7,2-3.9c0.6-1.2,1.3-2.4,1.8-3.6c0.5-1.2,0.9-2.3,1.1-3.3c0.2-1.1,0.3-2,0.3-2.9
						c0-0.9-0.2-1.4-0.2-1.8c-0.1-0.4-0.1-0.6-0.1-0.6c-0.1-0.6-0.7-1-1.3-0.9C334.3,282.7,333.9,283.3,334.1,283.9
						C334.1,283.9,334.1,283.9,334.1,283.9z"/>
				</g>
				<g>
					<path class="st2" d="M333.8,329.6c0,0-0.2,0.3-0.2,0.8c0,0.5,0.3,1.1,0.6,1.9c0.6,1.6,1.5,3.8,2.5,6.5c0.5,1.3,1.1,2.8,1.7,4.3
						c0.6,1.5,1.3,3.1,2,4.8c0.7,1.7,1.3,3.4,1.8,5.2c0.5,1.8,1,3.6,1.3,5.5c0.3,1.9,0.5,3.7,0.5,5.6c0.1,1.8-0.2,3.7-0.3,5.5
						c-0.2,1.8-0.2,3.6-0.1,5.3c0.1,1.7,0.4,3.3,0.7,4.7c0.6,2.9,1.5,5.2,2.1,6.8c0.7,1.6,1,2.5,1,2.5c0.1,0.2,0.3,0.3,0.5,0.2
						c0.2-0.1,0.3-0.3,0.2-0.5l0,0c0,0-0.3-0.9-0.9-2.5c-0.5-1.6-1.3-3.9-1.8-6.7c-0.3-1.4-0.4-2.9-0.5-4.5c-0.1-0.8,0-1.7,0-2.5
						c0.1-0.9,0.1-1.7,0.2-2.6c0.1-1.8,0.4-3.6,0.4-5.6c0-2-0.1-3.9-0.4-5.9c-0.3-1.9-0.8-3.9-1.3-5.7c-0.6-1.8-1.2-3.6-1.8-5.3
						c-0.7-1.7-1.3-3.3-2-4.9c-0.7-1.5-1.2-3-1.7-4.3c-1-2.7-1.9-4.9-2.5-6.5c-0.3-0.8-0.5-1.4-0.8-1.8c-0.3-0.4-0.7-0.5-0.7-0.5
						C334.3,329.2,334,329.3,333.8,329.6z"/>
				</g>
				<g>
					<path class="st2" d="M340.9,418.4c0,0,0.3,0.7,0.9,2.1c0.6,1.4,1.5,3.2,2.6,5.3c1.1,2.2,2.4,4.6,3.4,7.4c1,2.8,1.7,5.8,1.7,9
						c0.1,3.2,0,6.4,0.1,9.5c0.1,3.1,0.5,5.9,1.3,8.3c0.4,1.2,0.8,2.2,1.3,3.1c0.5,0.9,1,1.6,1.4,2.2c0.4,0.6,1.9,1.9,2.1,1.8
						c0.2-0.1-2.2-3.6-2.6-4.4c-0.4-0.9-0.8-1.9-1.1-3c-0.7-2.3-0.9-5-1-8c0-3,0.2-6.2,0.2-9.5c0.1-3.3-0.5-6.7-1.5-9.6
						c-1-3-2.3-5.5-3.3-7.7c-1-2.2-1.9-4-2.4-5.3c-0.5-1.3-0.8-2.1-0.8-2.1c-0.2-0.7-0.9-1-1.6-0.8
						C341,416.9,340.6,417.6,340.9,418.4C340.9,418.3,340.9,418.3,340.9,418.4L340.9,418.4z"/>
				</g>
				<g>
					<path class="st2" d="M341.8,448.1c0,0-0.1,0-0.3,0.1c-0.3,0.1-0.5,0.1-1,0.3c-0.6,0.2-1.2,0.6-1.7,1.1c-0.5,0.5-1,1.1-1.5,1.8
						c-0.4,0.7-0.8,1.5-1.1,2.4c-0.3,0.9-0.5,1.9-0.4,2.9c0,0.9,0,1.9,0.2,2.9c0.1,1.1,0.4,2,0.7,3c0.5,1.9,1.2,3.8,1.7,5.5
						c0.3,0.9,0.4,1.7,0.6,2.5c0.2,0.8,0.3,1.6,0.4,2.3c0.4,2.5,0.3,5.3,0.5,5.3c0.2,0,0.5-0.9,0.5-1.8c0-0.4,0.1-1,0.1-1.6
						c0-0.6-0.1-1.3-0.1-2.1c0-0.8-0.1-1.6-0.3-2.4c-0.2-0.8-0.3-1.8-0.5-2.7c-0.4-1.8-1-3.7-1.4-5.6c-0.2-0.9-0.4-1.9-0.5-2.8
						c-0.2-0.9-0.1-1.8-0.1-2.8c0-0.8,0.2-1.6,0.4-2.3c0.2-0.7,0.6-1.4,0.9-1.9c0.3-0.5,0.8-1,1.1-1.3c0.4-0.3,0.7-0.5,1-0.6
						c0.2-0.2,0.7-0.2,0.9-0.2c0.2,0,0.3-0.1,0.3-0.1c0.6-0.1,1-0.7,0.9-1.3C343.1,448.4,342.5,448,341.8,448.1
						C341.8,448.1,341.8,448.1,341.8,448.1z"/>
				</g>
				<g>
					<path class="st2" d="M345.7,486.6c0,0-0.2,0.3-0.1,0.4c0.1,0.2,0.2,0.4,0.4,0.7c0.2,0.3,0.4,0.6,0.6,1c0.2,0.4,0.7,0.8,1,1.3
						c0.8,1,1.7,1.9,2.7,2.9c0.5,0.5,0.9,1.1,1.4,1.6c0.4,0.5,0.9,1.2,1.2,1.9c0.7,1.3,1.2,2.7,1.5,4c0.2,0.7,0.2,1.3,0.3,2
						c0.1,0.6,0.1,1.5,0.2,2.1c0.1,1.1-0.3,3.9-0.1,3.9c0.2,0,0.6-0.7,0.7-1.4c0.2-0.7,0.3-1.6,0.4-2.8c0-0.6,0-1.2,0-1.9
						c-0.1-0.7-0.1-1.4-0.3-2.1c-0.3-1.5-0.8-2.9-1.6-4.4c-0.4-0.7-0.8-1.3-1.2-2c-0.5-0.6-1-1.2-1.4-1.8c-1-1.1-1.9-2.1-2.6-2.9
						c-0.3-0.4-0.7-0.8-0.9-1.2c-0.2-0.4-0.4-0.7-0.6-1c-0.2-0.3-0.3-0.5-0.4-0.7c-0.1-0.2-0.4-0.1-0.4-0.1
						C346.1,486.3,345.8,486.4,345.7,486.6z"/>
				</g>
				<g>
					<path class="st2" d="M352,533.7c-0.6-1.7-0.4-4.8-0.4-7.4c-0.1-2.7-0.7-5.3-1.4-7.2c-0.6-1.9-1.1-3.1-1.1-3.1
						c-0.1-0.2-0.3-0.3-0.5-0.3c-0.2,0.1-0.3,0.3-0.2,0.6c0,0,0.5,1.2,1.1,3.1c0.6,1.8,1.2,4.4,1.3,6.9c0,2.6,0,5.3,0.7,7.3
						c0.3,1,0.9,1.8,1.4,2.2c0.5,0.5,1.3,0.7,1.5,0.4C354.3,536.2,352.6,535.5,352,533.7z"/>
				</g>
				<g>
					<path class="st2" d="M333.8,335.5c0,0-1.3,1.6-3.2,4c-1,1.2-2.1,2.7-3.2,4.4c-1,1.7-2,3.7-2.4,5.8c-0.3,1.2-0.3,2.1-0.3,3.1
						c0,1.1,0,2.1,0.1,3.1c0.1,1.9,0.3,3.7,0.2,5.2c-0.1,0.7-0.1,1.4-0.2,2c-0.1,0.6-0.2,1.1-0.4,1.5c-0.3,0.8-0.5,1.2-0.5,1.2
						l0,0.1c-0.1,0.2,0,0.4,0.2,0.5c0.2,0.1,0.4,0,0.5-0.2c0,0,0.2-0.5,0.6-1.3c0.2-0.4,0.3-1,0.5-1.6c0.2-0.6,0.2-1.4,0.3-2.2
						c0.1-1.6,0-3.4,0-5.3c0-1,0-1.9,0-2.9c0.1-0.9,0.1-2.1,0.4-3c0.4-1.9,1.3-3.7,2.4-5.2c1-1.6,2.2-2.9,3.2-4.1
						c2-2.3,3.4-3.9,3.4-3.9c0.4-0.4,0.3-1-0.1-1.4C334.8,335,334.2,335,333.8,335.5C333.8,335.5,333.8,335.5,333.8,335.5z"/>
				</g>
				<g>
					<path class="st2" d="M336.2,314.1c0,0-0.3,0.1-0.4,0.3c-0.1,0.2-0.1,0.6-0.1,1.1c0,0.9,0.3,2.1,0.8,3.5
						c0.5,1.4,1.2,2.9,2.1,4.4c0.2,0.4,0.5,0.8,0.8,1.2l0.8,1.1c0.6,0.7,1.3,1.4,1.9,2.1c0.7,0.6,1.3,1.3,1.9,1.9
						c0.7,0.6,1.1,1.3,1.7,2c0.6,0.7,1,1.3,1.4,2c0.5,0.6,0.8,1.3,1.1,1.9c0.7,1.2,1.1,2.2,1.4,3c0.3,0.7,0.5,1.2,0.5,1.2l0,0
						c0.1,0.2,0.3,0.3,0.5,0.2c0.2-0.1,0.3-0.3,0.2-0.5c0,0-0.2-0.4-0.4-1.2c-0.3-0.8-0.7-1.9-1.3-3.1c-0.3-0.6-0.6-1.3-1.1-2
						c-0.4-0.7-0.9-1.5-1.4-2.1c-0.5-0.7-1.1-1.4-1.7-2.1c-0.6-0.7-1.3-1.4-1.9-2c-0.6-0.7-1.2-1.3-1.8-2l-0.8-1.1
						c-0.2-0.3-0.5-0.7-0.7-1c-0.9-1.4-1.5-2.9-2-4.1c-0.4-1.3-0.6-2.3-0.7-3c0-0.4,0-0.5,0-0.8c0-0.2-0.3-0.4-0.3-0.4
						C336.8,314.1,336.5,314.1,336.2,314.1z"/>
				</g>
				<g>
					<path class="st2" d="M320,245.9c0,0,0.2,0.5,0.4,1.4c0.1,0.7,0.3,1.8,0,3.2c-0.1,0.7-0.3,1.5-0.6,2.2c-0.3,0.8-0.7,1.6-1.2,2.4
						c-0.4,0.8-1.1,1.5-1.7,2.4c-0.6,0.8-1.3,1.5-2,2.3c-0.7,0.8-1.4,1.6-2,2.4c-0.6,0.9-1.3,1.6-1.7,2.6c-0.5,0.8-0.9,1.8-1.2,2.7
						c-0.3,0.9-0.4,1.8-0.5,2.6c-0.1,0.8-0.1,1.6,0,2.2c0.1,0.7,0.3,1.2,0.4,1.7c0.4,0.9,0.6,1.4,0.6,1.4c0.1,0.2,0.3,0.3,0.5,0.2
						c0.2-0.1,0.3-0.3,0.2-0.5l0-0.1c0,0-0.2-0.5-0.5-1.3c-0.1-0.4-0.2-0.9-0.3-1.5c0-0.6,0-1.3,0.1-2c0.1-0.7,0.3-1.5,0.6-2.3
						c0.3-0.8,0.6-1.6,1.2-2.4c0.4-0.8,1.2-1.5,1.7-2.3c0.6-0.8,1.4-1.5,2.1-2.3c0.7-0.8,1.5-1.5,2.2-2.3c0.6-0.8,1.4-1.5,1.9-2.4
						c0.6-0.8,1.1-1.7,1.4-2.6c0.4-0.9,0.7-1.7,0.8-2.6c0.4-1.6,0.3-3.1,0.1-4.2c-0.2-0.9-0.4-1.4-0.4-1.4c-0.2-0.6-0.8-1-1.4-0.8
						C320.2,244.7,319.8,245.3,320,245.9C320,245.9,320,245.9,320,245.9z"/>
				</g>
			</g>
			<g>
				<path class="st2" d="M259.7,567.2c-0.2,0-0.5,0-0.7,0c-1.6-0.1-3.1-0.3-4.7-0.8c-2.2-0.6-3.6-1.6-4.2-3.1
					c-0.5-1.3-0.2-2.8,0.9-4.5c1.2-1.9,2.8-3.3,4.4-4.8l1-0.9c3.3-3.1,8.6-15.2,10.9-18.9l0.6,1.8c-5.2,10.6-4.1,17.3-3.2,20
					c0.2,0.5,0.4,1,0.6,1.6c0.8,2,1.7,4.1,0.8,6.2C265.4,566,263,567.2,259.7,567.2z M265,541c-3.2,4.4-5.4,11.3-7.6,13.3l-1,0.9
					c-1.5,1.4-3.1,2.8-4.2,4.5c-0.6,0.9-1.1,2.1-0.7,3.3c0.3,1,1.4,1.7,3.2,2.2c1.4,0.4,2.9,0.6,4.4,0.7c0.2,0,0.4,0,0.6,0
					c1.3,0,4.3-0.2,5.3-2.4c0.7-1.5-0.1-3.3-0.8-5.1c-0.2-0.6-0.5-1.1-0.6-1.6C262.6,553.8,262.7,546.5,265,541z"/>
			</g>
			<path class="st2" d="M250.9,563.1c0,0,0,0.1,0,0.2c0,0.1-0.2,0.2-0.3,0.3c-0.3,0.2-0.7,0.6-1.2,1c-1,0.8-2.2,2-3.5,3.1
				c-2.5,2.3-5.2,4.4-5.2,4.4c0,0-0.1,0-0.1,0c0,0,0-0.1,0-0.1c0,0,2.3-2.5,4.8-4.9c1.2-1.2,2.4-2.4,3.3-3.3
				c0.5-0.5,0.8-0.8,1.1-1.1c0.1-0.1,0.2-0.3,0.3-0.3c0.1,0,0.2,0,0.2,0C250.7,562.6,250.9,562.9,250.9,563.1z"/>
			<path class="st2" d="M252.3,564.8c0,0,0.1,0.1,0,0.2c-0.1,0.1-0.2,0.2-0.3,0.4c-0.3,0.3-0.6,0.8-1,1.4c-0.9,1.2-2,2.7-3.1,4.2
				c-2.5,2.9-5,5.8-5,5.8c0,0.1-0.1,0.1-0.2,0c-0.1,0-0.1-0.1,0-0.2c0,0,2.3-3,4.7-6c1.1-1.6,2.1-3.2,2.9-4.4c0.4-0.6,0.7-1.1,1-1.4
				c0.1-0.2,0.2-0.3,0.3-0.4c0-0.1,0.2-0.1,0.2-0.1C251.9,564.4,252.2,564.6,252.3,564.8z"/>
			<path class="st2" d="M255.1,566.1c0,0,0.1,0.1,0.1,0.2c0,0.1-0.1,0.3-0.2,0.5c-0.2,0.4-0.5,0.9-0.8,1.6c-0.3,0.7-0.7,1.4-1.1,2.3
				c-0.4,0.8-0.9,1.7-1.4,2.6c-0.3,0.4-0.4,0.8-0.8,1.3c-0.3,0.4-0.6,0.8-0.9,1.1c-0.6,0.7-1.1,1.4-1.7,1.9
				c-1.1,1.1-1.8,1.8-1.8,1.8c-0.1,0.1-0.2,0.1-0.2,0c-0.1-0.1-0.1-0.2,0-0.2c0,0,0.6-0.8,1.6-1.9c0.5-0.5,1-1.3,1.5-2
				c0.3-0.4,0.5-0.8,0.8-1.2c0.2-0.3,0.4-0.9,0.6-1.3c0.2-0.5,0.4-0.9,0.6-1.3c0.2-0.4,0.4-0.9,0.6-1.3c0.4-0.9,0.7-1.7,1-2.3
				c0.3-0.7,0.5-1.3,0.7-1.7c0.1-0.2,0.1-0.4,0.2-0.4c0.1-0.1,0.3-0.1,0.3-0.1C254.7,565.8,255,565.9,255.1,566.1z"/>
			<path class="st2" d="M258.6,567.1c0,0-1.4,3.6-2.8,7.1c-1.8,3.4-3.7,6.8-3.7,6.8c0,0.1-0.1,0.1-0.2,0c-0.1,0-0.1-0.1-0.1-0.2l0,0
				c0,0,1.5-3.5,3.1-7c1.1-3.7,2.2-7.4,2.2-7.4c0.1-0.4,0.5-0.6,0.9-0.5C258.5,566.2,258.7,566.6,258.6,567.1
				C258.6,567,258.6,567.1,258.6,567.1z"/>
			<path class="st2" d="M263.6,566.2c0,0-0.1,1-0.2,2.5c-0.1,1.5-0.3,3.4-0.5,5.4c-0.2,1-0.2,2-0.5,2.9c-0.3,0.9-0.4,1.8-0.7,2.5
				c-0.6,1.4-1,2.3-1,2.3c0,0.1-0.1,0.1-0.2,0.1c-0.1,0-0.1-0.1-0.1-0.2l0,0c0,0,0.3-0.9,0.7-2.3c0.2-0.7,0.3-1.6,0.5-2.4
				c0.2-0.9,0.2-1.9,0.2-2.8c0.1-1.9,0.1-3.9,0.1-5.4c0-1.5,0-2.5,0-2.5c0-0.4,0.4-0.8,0.8-0.8C263.3,565.3,263.6,565.7,263.6,566.2
				C263.6,566.1,263.6,566.2,263.6,566.2z"/>
			<path class="st2" d="M264.4,553.3c0,0,0.6,0.6,1.4,1.5c0.2,0.2,0.4,0.5,0.6,0.8c0.2,0.3,0.4,0.6,0.6,1c0.4,0.7,0.7,1.5,1,2.3
				c0.5,1.6,0.6,3.3,0.5,4.5c0,0.6-0.1,1.1-0.1,1.5c-0.1,0.4-0.1,0.6-0.1,0.6c0,0.1-0.1,0.1-0.1,0.1c-0.1,0-0.1-0.1-0.1-0.1
				c0,0,0-0.2,0.1-0.6c0-0.4,0.1-0.9,0.1-1.5c0-1.2-0.2-2.8-0.7-4.3c-0.3-0.7-0.6-1.5-1-2.1c-0.2-0.3-0.4-0.6-0.6-0.9
				c-0.2-0.3-0.5-0.5-0.7-0.7c-0.9-0.9-1.5-1.4-1.5-1.4c-0.2-0.2-0.2-0.4,0-0.6C264,553.1,264.2,553.1,264.4,553.3
				C264.4,553.3,264.4,553.3,264.4,553.3L264.4,553.3z"/>
			<path class="st2" d="M266.1,564c0,0,0,0.1,0.1,0.4c0,0.1,0.1,0.3,0.1,0.6c0,0.3,0,0.5-0.1,0.7c-0.1,0.5-0.2,0.9-0.4,1.5
				c-0.1,0.5-0.3,1.1-0.3,1.6c0,0.6-0.2,1.1-0.1,1.6c0.1,0.5,0.2,1,0.3,1.4c0.3,0.8,0.8,1.2,0.7,1.2l-0.1,0.1c0,0,0,0,0,0
				c0,0,0,0,0,0c0,0-0.5-0.4-0.9-1.2c-0.2-0.4-0.4-0.9-0.5-1.4c-0.2-0.5-0.1-1.2-0.1-1.8c0-0.6,0.1-1.2,0.1-1.7
				c0.1-0.5,0.2-1.1,0.2-1.5c0-0.5,0-0.5-0.1-0.8c-0.1-0.2-0.1-0.4-0.1-0.4c-0.1-0.3,0-0.7,0.3-0.8
				C265.6,563.5,265.9,563.6,266.1,564C266.1,564,266.1,564,266.1,564z"/>
			<g>
				<path class="st2" d="M269.5,544.9c-0.5,1.1-1.1,2.2-1.8,3.1c-0.2,0.3-0.5,0.6-0.8,0.9c-0.8,0.8-1.6,1.7-1.9,2.8
					c-0.2,0.9-0.1,1.9,0.1,2.8c0.2,1,0.3,2-0.1,2.8c-0.1,0.2,0,0.5,0.2,0.6c0.1,0,0.1,0,0.2,0c0.2,0,0.3-0.1,0.4-0.2
					c0.5-1.1,0.3-2.2,0.2-3.3c-0.1-0.9-0.3-1.7-0.1-2.5c0.2-0.9,0.9-1.7,1.7-2.5c0.3-0.3,0.6-0.6,0.8-0.9c0.6-0.7,1.1-1.6,1.5-2.4
					C269.7,545.7,269.6,545.3,269.5,544.9z"/>
			</g>
			<path class="st2" d="M265.4,543.6c0,0-0.1,0.2-0.2,0.6c0,0.2-0.2,0.5-0.2,0.7c0,0.3,0,0.6-0.1,0.9c0,0.3,0.1,0.7,0.1,1.1
				c0,0.4,0.2,0.8,0.3,1.2c0.1,0.4,0.4,0.8,0.5,1.3l0.6,1.3c0.4,0.9,0.9,1.7,1.2,2.6c0.3,0.8,0.6,1.7,0.7,2.4c0.1,0.7,0.1,1.4,0,1.8
				c-0.1,0.4-0.1,0.7-0.1,0.7c0,0.1-0.1,0.1-0.1,0.1c-0.1,0-0.1-0.1-0.1-0.1l0,0c0,0,0-0.2,0.1-0.6c0.1-0.4,0-1-0.1-1.7
				c-0.1-0.7-0.4-1.5-0.8-2.3c-0.4-0.8-0.9-1.6-1.3-2.5l-0.6-1.3c-0.2-0.4-0.4-0.8-0.6-1.3c-0.1-0.4-0.3-0.9-0.4-1.3
				c-0.1-0.4-0.2-0.8-0.2-1.2c0-0.4,0-0.8,0-1.1c0-0.3,0.1-0.5,0.2-0.8c0.1-0.4,0.2-0.6,0.2-0.6c0.1-0.2,0.3-0.3,0.5-0.3
				C265.4,543.1,265.5,543.3,265.4,543.6C265.4,543.6,265.4,543.6,265.4,543.6z"/>
			<g>
				<g>
					<path class="st2" d="M349,563.9c-0.9-2.1,0-4.2,0.8-6.2c0.2-0.5,0.4-1.1,0.6-1.6c0.9-2.6,2.1-9.3-3.2-20l1.2-0.7
						c2.3,3.6,7,14.6,10.3,17.7l1,0.9c1.6,1.4,3.2,2.9,4.4,4.8c1,1.6,1.3,3.2,0.9,4.5c-0.5,1.4-1.9,2.5-4.2,3.1
						c-1.5,0.4-3.1,0.7-4.7,0.8c-0.2,0-0.5,0-0.7,0C352.2,567.2,349.9,566,349,563.9z M351.7,556.6c-0.2,0.5-0.4,1.1-0.6,1.6
						c-0.8,1.8-1.5,3.6-0.8,5.1c0.9,2.2,4,2.4,5.3,2.4c0.2,0,0.4,0,0.6,0c1.5-0.1,3-0.3,4.4-0.7c1.8-0.5,2.9-1.2,3.2-2.2
						c0.4-1.1-0.2-2.4-0.7-3.3c-1.1-1.7-2.7-3.1-4.2-4.5l-1-0.9c-2.2-2-3.6-6.8-6.8-11.2C353.4,548.5,352.7,553.8,351.7,556.6z"/>
				</g>
				<path class="st2" d="M364.3,563.1c0,0,0,0.1,0,0.2c0,0.1,0.2,0.2,0.3,0.3c0.3,0.2,0.7,0.6,1.2,1c1,0.8,2.2,2,3.5,3.1
					c2.5,2.3,5.2,4.4,5.2,4.4c0,0,0.1,0,0.1,0c0,0,0-0.1,0-0.1c0,0-2.3-2.5-4.8-4.9c-1.2-1.2-2.4-2.4-3.3-3.3
					c-0.5-0.5-0.8-0.8-1.1-1.1c-0.1-0.1-0.2-0.3-0.3-0.3c-0.1,0-0.2,0-0.2,0C364.6,562.6,364.4,562.9,364.3,563.1z"/>
				<path class="st2" d="M362.9,564.8c0,0-0.1,0.1,0,0.2c0.1,0.1,0.2,0.2,0.3,0.4c0.3,0.3,0.6,0.8,1,1.4c0.9,1.2,2,2.7,3.1,4.2
					c2.5,2.9,5,5.8,5,5.8c0,0.1,0.1,0.1,0.2,0c0.1,0,0.1-0.1,0-0.2c0,0-2.3-3-4.7-6c-1.1-1.6-2.1-3.2-2.9-4.4
					c-0.4-0.6-0.7-1.1-1-1.4c-0.1-0.2-0.2-0.3-0.3-0.4c0-0.1-0.2-0.1-0.2-0.1C363.3,564.4,363.1,564.6,362.9,564.8z"/>
				<path class="st2" d="M360.1,566.1c0,0-0.1,0.1-0.1,0.2c0,0.1,0.1,0.3,0.2,0.5c0.2,0.4,0.5,0.9,0.8,1.6c0.3,0.7,0.7,1.4,1.1,2.3
					c0.4,0.8,0.9,1.7,1.4,2.6c0.3,0.4,0.4,0.8,0.8,1.3c0.3,0.4,0.6,0.8,0.9,1.1c0.6,0.7,1.1,1.4,1.7,1.9c1.1,1.1,1.8,1.8,1.8,1.8
					c0.1,0.1,0.2,0.1,0.2,0c0.1-0.1,0.1-0.2,0-0.2c0,0-0.6-0.8-1.6-1.9c-0.5-0.5-1-1.3-1.5-2c-0.3-0.4-0.5-0.8-0.8-1.2
					c-0.2-0.3-0.4-0.9-0.6-1.3c-0.2-0.5-0.4-0.9-0.6-1.3c-0.2-0.4-0.4-0.9-0.6-1.3c-0.4-0.9-0.7-1.7-1-2.3c-0.3-0.7-0.5-1.3-0.7-1.7
					c-0.1-0.2-0.1-0.4-0.2-0.4c-0.1-0.1-0.3-0.1-0.3-0.1C360.5,565.8,360.3,565.9,360.1,566.1z"/>
				<path class="st2" d="M356.7,567.1c0,0,1.4,3.6,2.8,7.1c1.8,3.4,3.7,6.8,3.7,6.8c0,0.1,0.1,0.1,0.2,0c0.1,0,0.1-0.1,0.1-0.2l0,0
					c0,0-1.5-3.5-3.1-7c-1.1-3.7-2.2-7.4-2.2-7.4c-0.1-0.4-0.5-0.6-0.9-0.5C356.7,566.2,356.5,566.6,356.7,567.1
					C356.6,567,356.7,567.1,356.7,567.1z"/>
				<path class="st2" d="M351.6,566.2c0,0,0.1,1,0.2,2.5c0.1,1.5,0.3,3.4,0.5,5.4c0.2,1,0.2,2,0.5,2.9c0.3,0.9,0.4,1.8,0.7,2.5
					c0.6,1.4,1,2.3,1,2.3c0,0.1,0.1,0.1,0.2,0.1c0.1,0,0.1-0.1,0.1-0.2l0,0c0,0-0.3-0.9-0.7-2.3c-0.2-0.7-0.3-1.6-0.4-2.4
					c-0.2-0.9-0.2-1.9-0.2-2.8c-0.1-1.9-0.1-3.9-0.1-5.4c0-1.5,0-2.5,0-2.5c0-0.4-0.4-0.8-0.8-0.8
					C352,565.3,351.6,565.7,351.6,566.2C351.6,566.1,351.6,566.2,351.6,566.2z"/>
				<path class="st2" d="M350.8,553.3c0,0-0.6,0.6-1.4,1.5c-0.2,0.2-0.4,0.5-0.6,0.8c-0.2,0.3-0.4,0.6-0.6,1c-0.4,0.7-0.7,1.5-1,2.3
					c-0.5,1.6-0.6,3.3-0.5,4.5c0,0.6,0.1,1.1,0.1,1.5c0.1,0.4,0.1,0.6,0.1,0.6c0,0.1,0.1,0.1,0.1,0.1c0.1,0,0.1-0.1,0.1-0.1
					c0,0,0-0.2-0.1-0.6c0-0.4-0.1-0.9-0.1-1.5c0-1.2,0.2-2.8,0.7-4.3c0.3-0.7,0.6-1.5,1-2.1c0.2-0.3,0.4-0.6,0.6-0.9
					c0.2-0.3,0.5-0.5,0.7-0.7c0.9-0.9,1.5-1.4,1.5-1.4c0.2-0.2,0.2-0.4,0-0.6C351.3,553.1,351,553.1,350.8,553.3
					C350.8,553.3,350.8,553.3,350.8,553.3L350.8,553.3z"/>
				<path class="st2" d="M349.1,564c0,0,0,0.1-0.1,0.4c0,0.1-0.1,0.3-0.1,0.6c0,0.3,0,0.5,0.1,0.7c0.1,0.5,0.2,0.9,0.4,1.5
					c0.1,0.5,0.3,1.1,0.3,1.6c0,0.6,0.2,1.1,0.1,1.6c-0.1,0.5-0.2,1-0.3,1.4c-0.3,0.8-0.8,1.2-0.7,1.2l0.1,0.1c0,0,0,0,0,0
					c0,0,0,0,0,0c0,0,0.5-0.4,0.9-1.2c0.2-0.4,0.4-0.9,0.5-1.4c0.2-0.5,0.1-1.2,0.1-1.8c0-0.6-0.1-1.2-0.1-1.7
					c-0.1-0.5-0.2-1.1-0.2-1.5c0-0.5,0-0.5,0.1-0.8c0.1-0.2,0.1-0.4,0.1-0.4c0.1-0.3,0-0.7-0.3-0.8
					C349.7,563.5,349.3,563.6,349.1,564C349.2,564,349.1,564,349.1,564z"/>
				<g>
					<path class="st2" d="M350.2,554.5c0.1-0.9,0.3-1.9,0.1-2.8c-0.3-1.2-1.1-2-1.9-2.8c-0.3-0.3-0.5-0.6-0.8-0.9
						c-0.6-0.7-1.1-1.6-1.5-2.5c-0.1,0.3-0.3-0.7-0.4-0.3c0.4,0.8,0,0.9,1.3,3.4c0.2,0.4,0.5,0.6,0.8,0.9c0.7,0.8,1.5,1.5,1.7,2.5
						c0.2,0.8,0.1,1.6-0.1,2.5c-0.2,1.1-0.4,2.3,0.2,3.3c0.1,0.1,0.2,0.2,0.4,0.2c0.1,0,0.1,0,0.2,0c0.2-0.1,0.3-0.3,0.2-0.6
						C349.9,556.5,350,555.5,350.2,554.5z"/>
				</g>
				<path class="st2" d="M349.8,543.6c0,0,0.1,0.2,0.2,0.6c0,0.2,0.2,0.5,0.2,0.7c0,0.3,0,0.6,0.1,0.9c0,0.3-0.1,0.7-0.1,1.1
					c0,0.4-0.2,0.8-0.3,1.2c-0.1,0.4-0.4,0.8-0.5,1.3l-0.6,1.3c-0.4,0.9-0.9,1.7-1.2,2.6c-0.3,0.8-0.6,1.7-0.7,2.4
					c-0.1,0.7-0.1,1.4,0,1.8c0.1,0.4,0.1,0.7,0.1,0.7c0,0.1,0.1,0.1,0.1,0.1c0.1,0,0.1-0.1,0.1-0.1l0,0c0,0,0-0.2-0.1-0.6
					c-0.1-0.4,0-1,0.1-1.7c0.1-0.7,0.4-1.5,0.8-2.3c0.4-0.8,0.9-1.6,1.3-2.5l0.6-1.3c0.2-0.4,0.4-0.8,0.6-1.3
					c0.1-0.4,0.3-0.9,0.4-1.3c0.1-0.4,0.2-0.8,0.2-1.2c0-0.4,0-0.8,0-1.1c0-0.3-0.1-0.5-0.2-0.8c-0.1-0.4-0.2-0.6-0.2-0.6
					c-0.1-0.2-0.3-0.3-0.5-0.3C349.9,543.1,349.7,543.3,349.8,543.6C349.8,543.6,349.8,543.6,349.8,543.6z"/>
			</g>
			<g>
				<radialGradient id="SVGID_1_" cx="320.1862" cy="146.3353" r="18.4464" gradientUnits="userSpaceOnUse">
					<stop  offset="2.139040e-02" style="stop-color:#DA172D"/>
					<stop  offset="0.4513" style="stop-color:#D7152B"/>
					<stop  offset="0.8226" style="stop-color:#CC0D24"/>
					<stop  offset="1" style="stop-color:#C4081F"/>
				</radialGradient>
				<path class="st4" d="M336.7,150.4c0-2-0.2-4.1-1-5.9c-0.3-0.6-0.6-1.2-1-1.8c-1.3-1.8-1.7-4-1.7-6.2c0-0.4,0-0.8-0.1-1.2
					c-0.1-0.6-0.2-1.1-0.4-1.6c-0.4-0.8-1.3-1.4-2.2-1.6c-0.6-0.1-2.6-1.3-3.2-1.9c-0.1-0.8-0.3-1.5-0.8-2c-0.4-0.4-1-0.7-1.5-1
					c-2.6-1.1-5.5-1.4-8.2-0.5c-1.6,0.5-3.3,1-4.8,1.8c-1.7,0.9-2.4,2.2-3.6,3.6c-1,1.1-2.2,2.1-3.2,3.1c-1.9,1.9-0.9,7.2-0.9,9.9
					c0,1.5,0.3,3.1,1.3,4.1c0.4,0.4,1,0.7,1.4,1.2c1.5,1.6,0.8,4.2,1.6,6.3c0.6,1.7,2.1,2.9,3.7,3.7c1.6,0.8,3.3,1.2,4.9,1.9
					c2.3,1,4.4,2.5,6.7,3.5c2.3,1,5.1,1.4,7.3,0.2c0.9-0.5,1.6-1.2,2.3-2C335.9,160.1,336.7,155.1,336.7,150.4z"/>
				<path class="st5" d="M326.8,129c-0.1-0.3-0.3-0.6-0.6-0.9c-0.4-0.4-1-0.7-1.5-1c-2.6-1.1-5.5-1.4-8.2-0.5
					c-1.4,0.5-2.7,1.3-3.8,2.3c2.8,2.1,5.9,5.5,9.9,3.5c0.9-0.5,2-0.7,3.1-1C326,130.7,326.4,129.9,326.8,129z"/>
				<path class="st5" d="M326,131.9c0,1.9-2.2,3.9-4.1,3.9c-1.9,0-4.8-2.1-4.8-4c0-1.9,2.9-3.4,4.8-3.4
					C323.8,128.3,326,130,326,131.9z"/>
			</g>
			<path class="st3" d="M364.4,146.3c-0.1-0.2-1-1.4-1.3-1.7c-0.7-0.6-1.6-1.2-2.7-1.8c-1-0.6-2.3-1.1-3.3-1.8
				c-0.3-0.2-0.5-0.3-0.8-0.5c-0.3-0.3-0.5-0.5-0.8-0.8c-0.4-0.4-0.7-1.1-1-1.7c-0.6-1.4-1-3.2-1.8-4.9c-0.3-0.9-0.8-1.7-1.3-2.6
				c-0.2-0.4-0.5-0.8-0.8-1.2l-0.4-0.6c-0.2-0.3-0.4-0.4-0.6-0.6c-0.6-0.8-1.5-1.5-2.3-2.1c-0.4-0.3-1-0.6-1.5-0.8l-0.8-0.4
				l-0.7-0.2c-2.1-0.7-4.3-0.4-6.2-0.1c-1.7,0.4-3.7,0.9-5.3,0.9c-1.8,0.1-5.9,0.9-7.3,1.6c-0.7,0.3-7.1,2.4-5.9,5.6
				c0.5,1.2,2.3,1.8,3.3,1.1c1.7-0.6,3.6-5,5-5.4c1.4-0.2,3.3-0.2,5.1-0.3c2-0.1,3.6-0.6,5.6-1c1.8-0.3,3.4-0.6,5.1-0.1l0.7,0.2
				l0.5,0.3c0.3,0.2,0.7,0.3,1,0.6c0.7,0.5,1.4,1,1.9,1.7c0.5,0.4,1.1,1.4,1.6,2.1c0.4,0.7,0.8,1.4,1.2,2.3c0.8,1.6,1.2,3.2,1.9,4.8
				c0.4,0.8,0.8,1.6,1.5,2.3c0.3,0.3,0.6,0.5,0.8,0.8c0.3,0.2,0.7,0.5,1,0.7c1.4,0.8,2.6,1.3,3.6,1.8c1,0.5,5.3,3,5.1,2.7
				C364.8,147,364.7,146.8,364.4,146.3z"/>
			<path class="st3" d="M342.1,114.3c0,0-0.3,0.1-0.8,0.3c-0.4,0.3-1.1,0.6-1.7,1.3c-0.6,0.7-1.2,1.6-1.4,2.6
				c-0.1,0.5-0.2,1.1-0.2,1.8c0,0.4,0,0.5-0.1,1l-0.3,0.9c-0.3,0.6-0.7,1.3-1.2,1.8c-0.5,0.5-1,1-1.5,1.3c-0.3,0.2-0.5,0.3-0.8,0.5
				c-0.3,0.1-0.5,0.2-0.8,0.3c-0.5,0.2-1.1,0.3-1.6,0.5c-2,0.4-3.2,0.6-3.2,0.6l-0.1,0c-0.4,0-0.7-0.3-0.8-0.7c0-0.4,2-0.9,3.7-1.2
				c0.4-0.1,0.9-0.2,1.4-0.4c0.3-0.1,0.5-0.2,0.8-0.3c0.2-0.1,0.4-0.3,0.7-0.4c0.5-0.2,0.9-0.6,1.3-1c0.4-0.4,0.7-0.8,1-1.3l0.3-0.9
				c0.1-0.1,0.1-0.6,0.1-0.8c0-0.6,0.1-1.2,0.3-1.9c0.3-1.3,1-2.3,1.7-3c0.7-0.7,1.5-1.2,2-1.4c0.5-0.2,0.8-0.3,0.8-0.3
				c0.2-0.1,0.4,0,0.5,0.2C342.4,114,342.3,114.2,342.1,114.3z"/>
			<path class="st3" d="M351.7,118.1c0,0-0.3,0-0.8,0c-0.3,0-0.5,0-0.9,0.1c-0.3,0-0.7,0.2-1.1,0.2c-0.8,0.3-1.6,0.6-2.4,1.3
				c-0.4,0.3-0.7,0.7-1,1.1c-0.3,0.3-0.6,0.9-0.9,1.4c-0.3,0.5-0.6,1-0.9,1.5c-0.3,0.5-0.8,1-1.3,1.4c-0.4,0.4-0.9,0.7-1.4,1
				c-0.5,0.3-1,0.5-1.5,0.6c-1,0.3-1.8,0.3-2.4,0.1c-0.6-0.1-0.9-0.2-0.9-0.2c-0.4-0.1-0.6-0.5-0.4-0.9c0.1-0.3,0.3-0.4,0.6-0.5
				l0.2,0c0,0,0.3,0,0.7,0c0.2,0,0.5-0.1,0.8-0.1c0.3,0,0.6-0.2,1-0.3c0.7-0.3,1.5-0.7,2.2-1.3c0.4-0.3,0.7-0.6,1.1-1
				c0.4-0.4,0.7-0.9,1-1.4c0.3-0.5,0.6-1,1.1-1.5c0.4-0.5,0.9-0.9,1.4-1.2c1-0.7,2.1-1,3-1.2c0.5,0,0.9-0.1,1.3-0.1
				c0.4,0,0.7,0,1,0.1c0.5,0.1,0.8,0.2,0.8,0.2c0.2,0,0.3,0.2,0.2,0.4C352,118,351.8,118.1,351.7,118.1z"/>
			<path class="st3" d="M362.8,129c0,0-0.2-0.1-0.6-0.3c-0.2-0.1-0.4-0.1-0.7-0.2c-0.2,0-0.6-0.1-1-0.1c-0.8-0.1-1.5-0.1-2.5,0
				c-0.9,0.1-1.9,0.3-2.9,0.5c-1,0.2-2,0.4-3,0.5c-0.5,0-1,0.1-1.5,0.1c-0.5,0-0.9,0-1.4-0.1c-0.2,0-0.4-0.1-0.5-0.1
				c-0.2-0.1-0.4-0.2-0.6-0.2c-0.4-0.1-0.7-0.4-0.9-0.6c-0.4-0.5-0.6-0.8-0.6-0.8c-0.2-0.3,0-0.7,0.3-0.9c0.2-0.1,0.3-0.1,0.5,0
				l0.3,0.1c0,0,0.2,0.1,0.4,0.2c0.2,0,0.3,0.1,0.5,0.1c0.1,0,0.2,0,0.3,0.1c0.2,0,0.4,0,0.6,0.1c0.3,0,0.7,0,1.1,0.1
				c0.4,0.1,0.8,0,1.3,0c0.9,0,1.9-0.1,2.9-0.2c1-0.1,2.1-0.2,3.1-0.1c1,0,2.1,0.1,2.7,0.4c0.4,0.1,0.7,0.2,1.1,0.4
				c0.3,0.2,0.6,0.3,0.8,0.4c0.3,0.3,0.5,0.5,0.5,0.5c0.1,0.1,0.1,0.3,0,0.4C363.1,129,362.9,129,362.8,129z"/>
			<g>
				<g>
					<path class="st2" d="M361.8,138.8c0,0-0.5,0-1.5-0.1c-0.5-0.1-1,0.1-1.6,0.2c-0.6,0-1.3,0.4-2,0.5c-1.5,0.5-3.1,1.3-5,2.2
						c-0.9,0.4-1.9,0.8-3,1.1c-0.6,0.1-1,0.3-1.7,0.4l-1.6,0.1c-1,0.1-2.2,0-3.3,0c-1,0-2.1,0-3.1,0c-1,0-1.9,0.1-2.8,0.2
						c-0.9,0-1.7,0.2-2.4,0.4c-0.7,0.2-1.4,0.3-2,0.5c-0.5,0.2-1,0.4-1.4,0.6c-0.8,0.3-1.2,0.5-1.2,0.5l-0.3,0.1
						c-0.8,0.3-1.8-0.1-2.1-0.9c-0.3-0.8,0.1-1.8,0.9-2.1c0,0,0.1,0,0.1,0c0,0,0.6-0.2,1.5-0.5c0.5-0.2,1.1-0.3,1.7-0.6
						c0.7-0.2,1.5-0.2,2.3-0.4c0.8-0.1,1.8-0.2,2.7-0.2c1,0,2-0.1,3,0c1,0.1,2,0.2,3.1,0.3c1,0.1,2,0.3,3.1,0.3l1.6,0
						c0.4,0,0.9-0.1,1.4-0.2c1-0.2,1.9-0.5,2.8-0.8c1.8-0.7,3.6-1.4,5.2-1.8c0.8-0.2,1.5-0.4,2.2-0.4c0.7,0,1.3-0.2,1.8,0
						c0.9,0.1,1.5,0.2,1.5,0.2c0.2,0,0.4,0.2,0.4,0.5C362.2,138.6,362,138.8,361.8,138.8z"/>
				</g>
				<g>
					<path class="st2" d="M353.3,170.8c0,0,0-0.2-0.1-0.5c0-0.3-0.2-0.7-0.1-1.4c0-1.3,0.4-2.9,1-4.8c0.2-0.9,0.6-1.9,0.6-3
						c0-0.3,0.1-0.4,0-0.8l0-0.9c-0.1-0.5-0.2-1-0.4-1.5c-0.3-1.1-1-2.1-1.7-3c-0.8-0.9-1.7-1.7-2.7-2.4c-1-0.5-2.3-1.3-3.4-1.5
						c-1.1-0.4-2.3-0.6-3.4-0.9c-1.1-0.2-2.4-0.3-3.3-0.4c-1.1-0.1-2.2-0.1-3.2-0.2c-2-0.2-3.5,0-4.6,0c-1.1,0-1.7,0-1.7,0l-0.1,0
						c-1,0-1.7-0.8-1.7-1.7c0-1,0.8-1.7,1.7-1.7c0,0,0.1,0,0.1,0c0,0,0.7,0,1.9,0.1c1.2,0.1,2.9,0.1,4.8,0.4c1,0.1,2,0.3,3.1,0.4
						c1.2,0.2,2.4,0.4,3.6,0.7c1.2,0.3,2.5,0.7,3.8,1.2c1.4,0.5,2.3,1.2,3.6,1.9c1.1,0.8,2.2,1.8,3,3c0.8,1.2,1.5,2.4,1.8,3.7
						c0.2,0.6,0.3,1.4,0.3,2l0,0.9l0,0.5l-0.1,0.5c-0.2,1.2-0.6,2.2-0.9,3.2c-0.7,1.8-1.2,3.4-1.2,4.4c-0.1,0.5,0,1,0,1.3
						c0,0.3,0.1,0.5,0.1,0.5c0,0.2-0.1,0.4-0.4,0.5C353.5,171.2,353.3,171,353.3,170.8z"/>
				</g>
				<g>
					<path class="st2" d="M346.5,166.7c0,0-0.2-1.3-0.4-3.2c0-0.5-0.2-1-0.1-1.5c0-0.6,0-1.2,0.1-1.8c0-1.2,0.1-2.6,0.3-3.8
						c0.2-1.3,0.3-2.5,0.2-3.6c0-0.3,0-0.5-0.1-0.8c-0.1-0.3-0.2-0.5-0.2-0.7c-0.2-0.4-0.4-0.8-0.7-1.1c-1.1-1.3-2.2-1.1-2.2-1.2
						c-0.4,0-0.7-0.3-0.7-0.7c0-0.4,0.3-0.7,0.7-0.7c0,0,0.4,0,1,0.2c0.3,0.1,0.7,0.3,1.1,0.5c0.4,0.2,0.7,0.6,1.1,1
						c0.3,0.4,0.6,0.9,0.9,1.5c0.1,0.3,0.2,0.6,0.3,0.9c0.1,0.3,0.1,0.7,0.1,0.9c0.2,1.3-0.1,2.6-0.3,3.9c-0.3,1.3-0.4,2.5-0.4,3.6
						c0,0.6-0.1,1.1-0.1,1.7c-0.1,0.5,0,1,0.1,1.5c0.2,1.9,0.3,3.2,0.3,3.2c0,0.2-0.1,0.4-0.4,0.5
						C346.7,167.1,346.5,166.9,346.5,166.7z"/>
				</g>
			</g>
			<radialGradient id="SVGID_2_" cx="316.3799" cy="128.8091" r="8.744" gradientUnits="userSpaceOnUse">
				<stop  offset="2.139040e-02" style="stop-color:#DA172D"/>
				<stop  offset="0.4513" style="stop-color:#D7152B"/>
				<stop  offset="0.8226" style="stop-color:#CC0D24"/>
				<stop  offset="1" style="stop-color:#C4081F"/>
			</radialGradient>
			<path class="st6" d="M327.6,126.2c0,0-5.1-10.1-10.1-8.2c-5,1.9-8.3,5-6.9,15.5l2.2,1.9c0,0,3.6-2.2,4.6-2.4c0,0-3.2-7,2.8-6.8
				c0.7,0,2.8,0.3,3.7,1.3L327.6,126.2z"/>
		</g>
		<g>
			<path class="st3" d="M252,118.8c-0.8,1.4-0.9,2.3-1.6,3.8c-0.8,1.7-1.2,3.4-1.7,5.1c-0.6,1.7-0.9,3.5-1.3,5.2
				c-0.2,0.9-0.4,1.7-0.6,2.7l-0.4,2.6c-0.2,1.8-0.5,3.5-0.7,5.3c-0.2,1.8-0.6,3.6-0.7,5.4c-0.1,1.8-0.2,3.7-0.3,5.5
				c-0.2,3.7-0.4,7.4-0.4,11.1c-0.1,7.3-0.3,14.6-0.5,21.8c-0.3,7.2-1.1,14.1-2.4,20.8c-1.2,6.7-3.4,12.9-5.9,18.5
				c-0.7,1.4-1.4,2.7-2.1,4.1c-0.8,1.3-1.6,2.5-2.4,3.7c-0.4,0.6-0.8,1.2-1.2,1.8c-0.4,0.5-0.9,1.1-1.3,1.7
				c-0.9,1.1-1.8,2.2-2.6,3.3c-3.4,4.3-4.8,8.3-6.6,12.5c-1.9,4.2-2.8,8.1-3.3,11.3c-0.4,3.2-0.4,5.8-0.3,7.6
				c0.1,1.7,0.2,2.7,0.2,2.7c0,0.4-0.1,14.7,0.3,14.6c0.4,0,1.1-14.4,1.1-14.7l0-0.1c0,0-0.1-0.9-0.2-2.6c-0.1-1.7,0-4.2,0.4-7.3
				c0.5-3.1,1.5-6.8,3.4-10.7c1.8-4,3.2-7.8,6.6-12c0.9-1.1,1.8-2.1,2.7-3.2c0.5-0.6,0.9-1.1,1.4-1.7c0.4-0.6,0.8-1.2,1.3-1.9
				c0.8-1.3,1.7-2.5,2.5-3.8c0.7-1.4,1.5-2.8,2.2-4.2c2.8-5.8,5-12.2,6.4-19c1.4-6.8,2.2-14,2.6-21.2c0.3-7.2,0.5-14.6,0.7-21.9
				c0-3.7,0.3-7.3,0.5-10.9l0.3-5.4c0.1-1.8,0.5-3.6,0.7-5.4c0.3-1.8,0.5-3.6,0.8-5.3l0.4-2.6c0.1-0.7,0.4-1.7,0.5-2.5
				c0.4-1.7,0.8-3.4,1.3-5c0.5-1.6,1-3.3,1.7-4.7c0.5-1,1.9-3.3,2.3-4.2C255.1,118.8,252.8,119.9,252,118.8z"/>
			<g>
				<path class="st3" d="M216.9,276.3c-0.2,0-0.4,0-0.5-0.1c-0.3-0.2-0.4-0.6-0.2-1c7.8-12,11.4-25.4,16.9-38.3l4.4-10.6
					c1.4-3.5,2.9-7,3.2-10.8c0-0.4,0.3-0.7,0.7-0.6c0.4,0,0.7,0.3,0.6,0.7c-0.2,4-1.8,7.8-3.3,11.2l-4.4,10.6
					c-5.4,13-9.2,26.5-17,38.6C217.2,276.2,217.1,276.3,216.9,276.3z"/>
			</g>
			<path class="st3" d="M247.8,150.1c0,0-0.8,1.9-2.1,5.3c-0.7,1.7-1.6,3.7-2.6,6.1c-1,2.3-2.2,4.9-3.1,7.8
				c-1.1,2.9-1.8,6.1-2.3,9.5c-0.5,3.5-0.7,7.2-0.8,11.1c0,1.9-0.2,3.9-0.4,6c-0.1,1-0.2,2-0.3,3.1c-0.1,1.1-0.4,2-0.5,3.1
				c-0.9,4.1-2.2,8.1-3.7,12c-1.5,3.9-3,7.7-4.5,11.5c-0.8,1.9-1.5,3.8-2,5.7c-0.6,1.9-1.3,3.7-1.7,5.6c-0.4,1.9-0.8,3.7-1.2,5.5
				c-0.4,1.7-0.4,3.6-0.6,5.4c-0.4,3.5,1.3,6.9,1,10c-0.2,3.1-0.6,6-1.2,8.5c-0.3,1.3-0.6,2.4-0.9,3.5c-0.4,1-0.8,2-1.1,2.9
				c-0.2,0.4-0.3,0.8-0.5,1.2c-0.2,0.4-0.4,0.7-0.6,1c-0.4,0.6-0.7,1.1-1,1.6c-0.5,0.9-0.8,1.3-0.8,1.3
				c-0.2,0.3-10.6,17.1-10.9,16.9c-0.3-0.2,9.5-17.3,9.7-17.6l0.1-0.1c0,0,0.3-0.4,0.7-1.2c0.2-0.4,0.5-0.9,0.9-1.5
				c0.2-0.3,0.4-0.6,0.6-0.9c0.1-0.4,0.3-0.8,0.5-1.2c0.3-0.8,0.7-1.7,1.1-2.7c0.3-1,0.5-2.2,0.8-3.4c0.5-2.4,0.9-5.3,1.1-8.4
				c0.2-3.1-1.5-6.5-1.1-10c0.2-1.8,0.2-3.6,0.6-5.5c0.4-1.9,0.8-3.8,1.2-5.7c0.4-1.9,1.1-3.8,1.7-5.7c0.6-1.9,1.3-3.9,2-5.8
				c1.5-3.8,3-7.7,4.4-11.6c1.5-3.9,2.7-7.7,3.5-11.7c0.2-1,0.4-2,0.5-3c0.1-1,0.1-2,0.2-3c0.1-2,0.3-3.9,0.3-5.9
				c0.1-3.9,0.3-7.7,0.7-11.3c0.5-3.6,1.2-7,2.3-10c1-3,2.2-5.7,3.1-8c1-2.3,1.8-4.3,2.5-6c1.3-3.4,2-5.3,2-5.3c0.3-0.7,1-1,1.7-0.8
				C247.7,148.6,248.1,149.4,247.8,150.1L247.8,150.1z"/>
			<g>
				<path class="st2" d="M251.9,117.4c-0.4-0.5-0.8-1-1.2-1.5c-0.2-0.3-0.1-0.2-0.4-0.4c-4.3,5.2-5.9,10.3-7.8,16.4
					c-3,10.2-4.2,21.8-3.6,35.5c0.1,2.3,0.2,4.6,0.4,6.9c0.6,9.5,1.2,19.3-1.4,28.3c-1.2,4.2-3.2,8.3-5.2,12.3
					c-1.1,2.2-2,4.8-2.8,7.4c-0.8,2.4-1.7,5-2.7,7c-0.3,0.7,0,1.5,0.6,1.8c0.3,0.1,0.6,0.2,0.9,0.1c0.4-0.1,0.7-0.4,0.9-0.7
					c1.1-2.2,2-4.9,2.8-7.4c0.8-2.4,1.7-5,2.7-7c2-4.1,4-8.3,5.3-12.7c2.8-9.5,2.2-19.5,1.6-29.2c-0.1-2.3-0.3-4.6-0.4-6.8
					c-0.6-13.4,0.6-24.7,3.5-34.6C246.9,127.1,249.2,122,251.9,117.4z"/>
			</g>
			<g>
				<path class="st2" d="M216.6,274.1l-8.1,13.4c-0.9,2.3-1.6,4.6-2,6.9c-0.4,2.4-0.4,4.8,0.2,7.1c0.2,1.1,0.8,2.4,1.3,2.9
					c0.5,0.5,0.8,0.6,1.3,0.7c0.5,0.1,1,0.1,1.5,0c1-0.2,2-0.8,2.6-1.6c0.8-1.1,1.1-2,1.4-3.1c0.6-2.3,0.5-4.7,0.7-7.2
					c0.2-2.5,0.1-4.9,0.2-7.4c0-2.4,2.1-5,2.2-7.4c0.2-2.5,0.8-5,1.1-7.4c0.8-2.4,1.4-4.7,2.4-7.1c0.9-2.4,2-4.6,2.9-6.8
					c0.9-2.3,0-4.4,0.7-6.8c0.4-1.2,0.8-2.3,1.1-3.5l0.8-3.5c0.6-2.3,0.7-4.8,1-7.2c0.2-1.2,0.1-2.4,0.2-3.6l0-1.8
					c0-0.6,0-1.2,0.6-1.8l0.7,0.3h0c-0.2,1.1-0.6,2-1.2,2.8l-1.5,2.5c-0.9,1.7-1.8,3.5-2.5,5.3c-1.4,3.7-2.4,7.5-3.3,11.4l-0.7,11.7
					c-0.5,2-1,3.9-1.5,5.9C218,270.3,217.4,272.2,216.6,274.1L216.6,274.1z M215.4,273.6c0.7-1.8,1.3-3.7,1.9-5.6
					c0.5-1.9,1-3.8,1.4-5.8l0.3-11.8c0.4-2,0.8-3.9,1.3-5.9c0.5-2,1.1-3.9,1.8-5.8c0.7-1.9,1.6-3.8,2.6-5.6l1.6-2.6
					c0.6-0.8,1.4-1.6,2.4-2v0l0-0.6l0.8,0.9c0.5,0.6,0.5,1.2,0.5,1.9l0,1.9c0,1.2,0,2.5-0.2,3.7c-0.3,2.5-0.5,5-1.1,7.4l-0.8,3.7
					c-0.3,1.2-0.8,2.3-1.1,3.5c-0.7,2.4,0.2,4.7-0.8,7c-1,2.3-2,4.5-2.9,6.7c-1,2.2-1.7,4.6-2.4,6.9c-0.4,2.4-0.9,4.7-1.1,7.2
					c-0.1,2.4-2.2,4.8-2.2,7.3c-0.1,2.5,0,5-0.2,7.4c-0.2,2.4-0.1,4.9-0.7,7.5c-0.3,1.3-0.9,2.7-1.6,3.6c-0.9,1.2-2.1,1.9-3.5,2.2
					c-0.7,0.2-1.4,0.2-2.1,0c-0.4,0-0.8-0.2-1.1-0.4c-0.4-0.2-0.5-0.4-0.8-0.6c-1.2-1.3-1.5-2.4-1.8-3.7c-1.2-5.1,0-10.3,1.9-14.8
					L215.4,273.6z"/>
			</g>
			<g>
				<path class="st2" d="M212.4,297c-0.6,0.1-1.2,0.2-1.7,0.2c-1.4-0.1-2.8-0.9-3.7-2.1c-0.9-1.1-1.3-2.5-1.1-3.8
					c0.1-0.3,0.3-0.5,0.6-0.5c0.3,0,0.5,0.3,0.5,0.6c-0.2,1,0.1,2.1,0.8,2.9c0.8,1,1.9,1.6,3,1.7c2.1,0.2,4.3-1.4,5-3.6
					c-0.2-0.2-0.2-0.5-0.1-0.7c0.1-0.2,0.5-0.4,0.8-0.2c0.4,0.2,0.5,0.6,0.4,1C216.3,294.7,214.5,296.5,212.4,297z"/>
			</g>
			<g>
				<path class="st2" d="M248.1,122.6c0,0-0.3,0.3-0.9,0.7c-0.6,0.5-1.6,1-2.3,2c-0.4,0.4-0.9,0.9-1.4,1.4c-0.4,0.6-0.9,1.2-1.3,1.8
					c-0.5,0.6-0.9,1.3-1.2,2.1c-0.4,0.8-0.8,1.4-1,2.3c-0.6,1.6-1.1,3.3-1.5,4.8c-0.4,1.5-0.9,3-1.3,4.2c-0.4,1.2-1,2.2-1.3,2.9
					c-0.3,0.7-0.5,1.1-0.5,1.1c-0.1,0.2-0.3,0.3-0.5,0.2c-0.2-0.1-0.3-0.3-0.2-0.5l0-0.1c0,0,0.2-0.4,0.5-1.1
					c0.3-0.7,0.8-1.6,1.1-2.8c0.3-1.2,0.8-2.6,1.1-4.3c0.4-1.6,0.9-3.3,1.4-4.9c0.2-0.8,0.7-1.7,1-2.4c0.4-0.8,0.7-1.6,1.3-2.2
					c0.5-0.7,0.9-1.4,1.4-2c0.5-0.6,1-1.1,1.5-1.6c0.9-1.1,1.8-1.6,2.4-2.1c0.6-0.5,0.9-0.7,0.9-0.7c0.4-0.3,0.9-0.2,1.2,0.1
					C248.5,121.8,248.5,122.3,248.1,122.6C248.1,122.6,248.1,122.6,248.1,122.6z"/>
			</g>
			<g>
				<path class="st2" d="M240.6,178.6c-0.6,0.6-1.5,1.6-2.6,2.8c-1,1.1-2.2,2.3-3.4,3.6c-0.6,0.7-1.3,1.4-1.8,2.2
					c-0.5,0.8-1.2,1.6-1.6,2.5c-0.5,0.9-0.9,1.8-1.2,2.8c-0.3,0.9-0.6,1.9-0.8,2.8c-0.4,1.8-0.7,3.5-1,4.9c-0.2,1.5-0.4,2.7-0.4,3.5
					c0,0.4,0,0.8,0,1c0,0.1,0,0.3,0.1,0.4c0.5,0.6,0.8,0,0.8,0.1c0.1-0.1,0.1-0.3,0-0.5c0,0,0,0,0-0.1c0-0.2,0-0.5,0.1-0.9
					c0.1-0.8,0.3-2,0.5-3.5c0.3-1.4,0.6-3.1,1.1-4.8c0.2-0.9,0.5-1.8,0.8-2.6c0.3-0.9,0.8-1.7,1.2-2.5c0.4-0.8,1.1-1.5,1.6-2.3
					c0.6-0.7,1.2-1.4,1.8-2.1c1.3-1.3,2.5-2.5,3.5-3.5c0.8-0.8,1.5-1.4,2-2C241,180,240.8,179.3,240.6,178.6z M227.9,204.8
					c0,0,0.1-0.1,0.2-0.1C228,204.7,227.9,204.8,227.9,204.8z"/>
			</g>
			<g>
				<path class="st2" d="M250.1,162.2c-0.6-1-1.5-1.8-2.3-2.6c-0.8-0.7-1.7-1.5-2.5-2.2c-0.4-0.4-0.8-0.8-1.1-1.2
					c-0.3-0.3-0.6-0.8-0.9-1.2c-1.1-1.7-1.5-3.5-1.8-5.1c-0.3-1.6-0.3-3-0.3-3.9c0-0.4,0-0.6,0-0.9c-0.3,0.9-0.8,1.8-1.4,2.6
					c0,0.7,0.1,1.6,0.3,2.5c0.3,1.7,0.9,3.7,2.1,5.6c0.4,0.4,0.6,0.9,1.1,1.4c0.4,0.4,0.8,0.8,1.2,1.2c0.9,0.7,1.7,1.5,2.6,2.2
					c0.8,0.8,1.6,1.4,2.2,2.3c0.5,0.9,0.9,1.8,1.2,2.8c0.6,2,0.8,3.9,1,5.6c0.1,1.7,0.2,3.1,0.2,4c0,0.5,0,0.9,0,1.1
					c0,0.1,0,0.3,0,0.3c0,0,0,0.1,0,0.2l0,0c0,0,0.1,0.3,0.5,0.3c0.5-0.2,0.3-0.2,0.3-0.2c0-0.1,0-0.2,0-0.3c0,0,0,0,0,0
					c0,0,0,0,0,0c0,0,0,0,0,0c0-0.1,0-0.1,0-0.2c0-0.3,0-0.6,0-1.1c0-1,0-2.4-0.1-4.1c-0.1-1.7-0.3-3.7-0.9-5.8
					C251.1,164.3,250.7,163.2,250.1,162.2z M251.9,176.4c0,0-0.1,0-0.1,0C251.8,176.3,251.8,176.3,251.9,176.4
					C251.9,176.3,251.9,176.3,251.9,176.4z M251.7,176.4c-0.1,0-0.1,0.1-0.2,0.2C251.6,176.5,251.6,176.5,251.7,176.4z M252.2,176.4
					c0.1,0.1,0.1,0.1,0.1,0.1C252.3,176.5,252.2,176.5,252.2,176.4z"/>
			</g>
			<g>
				<path class="st2" d="M253.7,145.9c-0.3-1.1-0.6-2.2-1-3.4c-0.3-1.2-0.6-2.4-0.8-3.6c-0.3-1.3-0.3-2.5-0.5-3.8
					c-0.1-2.6-0.2-5.2-0.2-7.6c0.1-2.4,0.1-4.7,0.3-6.6c0.1-1,0.1-1.8,0.1-2.6c0-0.3,0-0.6,0.1-0.9c-0.3-0.4-0.6-0.8-0.9-1.2
					c-0.1,0.5-0.3,1.1-0.4,1.9c-0.1,0.8-0.3,1.7-0.4,2.7c-0.1,2-0.1,4.3,0,6.8c0.1,2.4,0.1,5.1,0.3,7.7c0.2,1.3,0.3,2.7,0.5,3.9
					c0.2,1.3,0.6,2.5,0.9,3.7c0.4,1.2,0.7,2.3,1,3.4c0.3,1.1,0.7,2.1,0.8,3c0.4,1.9,0.3,3.5,0.2,4.6c-0.1,0.5-0.2,1-0.3,1.2
					c-0.1,0.3-0.1,0.4-0.1,0.4l0,0c-0.1,0.2,0.1,0.4,0.3,0.5c0.2,0.1,0.5-0.1,0.5-0.3c0,0,0-0.2,0.1-0.5c0.1-0.3,0.2-0.8,0.3-1.4
					c0.2-1.2,0.2-2.9-0.2-4.9C254.4,148,254,147,253.7,145.9z"/>
			</g>
			<g>
				<path class="st2" d="M251,127.2c0,0,0.2,0.2,0.6,0.4c0.4,0.3,1,0.8,1.5,1.4c1.1,1.2,2.2,3.2,2.8,5.3c0.7,2.1,0.9,4.2,1,5.8
					c0,0.8,0.1,1.5,0,1.9c0,0.2,0,0.4,0,0.6c0,0.1,0,0.1,0,0.2l0,0c0,0.1-0.1,0.3-0.3,0.3c-0.3,0-0.3-0.1-0.3,0
					c-0.2-0.1-0.2-0.4-0.1-0.6c0.1-0.2,0.4-0.2,0.6-0.1c0,0,0-0.1-0.3-0.1c-0.2,0-0.3,0.2-0.3,0.3v0c0,0,0-0.1,0-0.1
					c0-0.1,0-0.3,0-0.5c0-0.4,0-1.1-0.1-1.9c-0.1-1.5-0.5-3.6-1.2-5.5c-0.7-1.9-1.7-3.7-2.7-4.8c-0.5-0.6-1-0.9-1.3-1.2
					c-0.4-0.3-0.6-0.4-0.6-0.4c-0.3-0.2-0.4-0.6-0.2-0.9C250.3,127,250.7,127,251,127.2C251,127.2,251,127.2,251,127.2z"/>
			</g>
			<g>
				<path class="st2" d="M205.9,302.6c-1.9,2.9-3.7,6-5.7,8.7c1.7-3.6,3.8-7.3,5.8-10.8L205.9,302.6z"/>
				<path class="st2" d="M206.5,303.6c-0.1,0.3-0.2,0.7-0.4,1.2c-0.4,1.3-0.9,2.9-1.4,4.6c-1.3,3.2-2.6,6.4-2.6,6.4
					c0,0.1,0,0.1,0.1,0.2c0.1,0,0.1,0,0.1-0.1c0,0,1.5-3.2,2.9-6.3c0.6-1.6,1.2-3.3,1.7-4.5c0.1-0.3,0.2-0.5,0.3-0.8
					C206.9,304.2,206.7,303.9,206.5,303.6z"/>
				<path class="st2" d="M210.1,306c-0.7,4.1-1.6,8.3-4.1,11.7c1.4-3.9,2.6-7.7,3-11.9L210.1,306z"/>
				<path class="st2" d="M212,305.4c0,1.4-0.1,3.4-0.1,5.4c-0.5,3.5-1,7-1,7l0,0c0,0.1,0,0.1,0.1,0.1c0.1,0,0.1,0,0.1-0.1
					c0,0,0.8-3.5,1.5-6.9c0.3-2.5,0.5-4.9,0.6-6.2C212.9,305,212.5,305.2,212,305.4z"/>
				<path class="st2" d="M215.8,302.5c0,0,0.2,0.9,0.5,2.2c0.3,1.3,0.7,3.1,1.1,4.9c0.1,0.9,0.4,1.8,0.4,2.7c0,0.9,0.2,1.7,0.1,2.4
					c-0.1,1.4-0.2,2.3-0.2,2.3c0,0.1-0.1,0.1-0.1,0.1c-0.1,0-0.1-0.1-0.1-0.1v0c0,0,0-0.9,0-2.3c0-0.7-0.2-1.5-0.3-2.3
					c-0.1-0.8-0.4-1.7-0.6-2.6c-0.5-1.8-1.1-3.5-1.5-4.8c-0.4-1.3-0.7-2.2-0.7-2.2c-0.1-0.4,0.1-0.8,0.4-0.9
					C215.3,301.8,215.7,302,215.8,302.5C215.8,302.4,215.8,302.4,215.8,302.5z"/>
			</g>
		</g>
		<g>
			<path class="st3" d="M364.5,121.6c0.8,1.4,0.9,2.3,1.6,3.8c0.8,1.7,1.2,3.4,1.7,5.1c0.6,1.7,0.9,3.5,1.3,5.2
				c0.2,0.9,0.4,1.7,0.6,2.7l0.4,2.6c0.2,1.8,0.5,3.5,0.7,5.3c0.2,1.8,0.6,3.6,0.7,5.4c0.1,1.8,0.2,3.7,0.3,5.5
				c0.2,3.7,0.4,7.4,0.4,11.1c0.1,7.3,0.3,14.6,0.5,21.8c0.3,7.2,1.1,14.1,2.4,20.8c1.2,6.7,3.4,12.9,5.9,18.5
				c0.7,1.4,1.4,2.7,2.1,4.1c0.8,1.3,1.6,2.5,2.4,3.7c0.4,0.6,0.8,1.2,1.2,1.8c0.4,0.5,0.9,1.1,1.3,1.7c0.9,1.1,1.8,2.2,2.6,3.3
				c3.4,4.3,6.7,8.3,8.5,12.5c1.9,4.2,0.1,8.1,0.6,11.3c0.4,3.2,0.4,5.8,0.3,7.6c-0.1,1.7-0.2,2.7-0.2,2.7c0,0.4,0.7,10.7,0.3,10.7
				c-0.4,0-1.7-10.4-1.6-10.8l0-0.1c0,0,0.1-0.9,0.2-2.6c0.1-1.7,0-4.2-0.4-7.3c-0.5-3.1,1.2-6.8-0.7-10.7c-1.8-4-5.1-7.8-8.5-12
				c-0.9-1.1-1.8-2.1-2.7-3.2c-0.5-0.6-0.9-1.1-1.4-1.7c-0.4-0.6-0.8-1.2-1.3-1.9c-0.8-1.3-1.7-2.5-2.5-3.8
				c-0.7-1.4-1.5-2.8-2.2-4.2c-2.8-5.8-5-12.2-6.4-19c-1.4-6.8-2.2-14-2.6-21.2c-0.3-7.2-0.5-14.6-0.7-21.9c0-3.7-0.3-7.3-0.5-10.9
				l-0.3-5.4c-0.1-1.8-0.5-3.6-0.7-5.4c-0.3-1.8-0.5-3.6-0.8-5.3l-0.4-2.6c-0.1-0.7-0.4-1.7-0.5-2.5c-0.4-1.7-0.8-3.4-1.3-5
				c-0.5-1.6-1-3.3-1.7-4.7c-0.5-1-1.9-3.3-2.3-4.2C361.4,121.5,363.7,122.6,364.5,121.6z"/>
			<g>
				<path class="st3" d="M398.8,279.1c0.2,0,0.4,0,0.5-0.1c0.3-0.2,0.4-0.6,0.2-1c-7.8-12-10.7-25.4-16.1-38.3l-4.4-10.6
					c-1.4-3.5-2.9-7-3.2-10.8c0-0.4-0.3-0.7-0.7-0.6c-0.4,0-0.7,0.3-0.6,0.7c0.2,4,1.8,7.8,3.3,11.2l4.4,10.6
					c5.4,13,8.4,26.5,16.2,38.6C398.5,278.9,398.7,279,398.8,279.1z"/>
			</g>
			<path class="st3" d="M368.7,152.9c0,0,0.8,1.9,2.1,5.3c0.7,1.7,1.6,3.7,2.6,6.1c1,2.3,2.2,4.9,3.1,7.8c1.1,2.9,1.8,6.1,2.3,9.5
				c0.5,3.5,0.7,7.2,0.8,11.1c0,1.9,0.2,3.9,0.4,6c0.1,1,0.2,2,0.3,3.1c0.1,1.1,0.4,2,0.5,3.1c0.9,4.1,2.2,8.1,3.7,12
				c1.5,3.9,3,7.7,4.5,11.5c0.8,1.9,1.5,3.8,2,5.7c0.6,1.9,1.3,3.7,1.7,5.6c0.4,1.9,0.8,3.7,1.2,5.5c0.4,1.7,0.4,3.6,0.6,5.4
				c0.4,3.5-2.1,6.9-1.8,10c0.2,3.1,0.6,6,1.2,8.5c0.3,1.3,0.6,2.4,0.9,3.5c0.4,1,0.8,2,1.1,2.9c0.2,0.4,0.3,0.8,0.5,1.2
				c0.2,0.4,0.4,0.7,0.6,1c0.4,0.6,0.7,1.2,1,1.6c0.5,0.9,0.8,1.3,0.8,1.3c0.2,0.3,8.7,10.1,9,9.9c0.3-0.2-7.7-10.3-7.9-10.6
				l-0.1-0.1c0,0-0.3-0.4-0.7-1.2c-0.2-0.4-0.5-0.9-0.9-1.5c-0.2-0.3-0.4-0.6-0.6-0.9c-0.1-0.4-0.3-0.8-0.4-1.2
				c-0.3-0.8-0.7-1.7-1.1-2.7c-0.3-1-0.5-2.2-0.8-3.4c-0.5-2.4-0.9-5.3-1.1-8.4c-0.2-3.1,2.3-6.5,1.9-10c-0.2-1.8-0.2-3.6-0.6-5.5
				c-0.4-1.9-0.8-3.8-1.2-5.7c-0.4-1.9-1.1-3.8-1.7-5.7c-0.6-1.9-1.3-3.9-2-5.8c-1.5-3.8-3-7.7-4.4-11.6c-1.5-3.9-2.7-7.7-3.5-11.7
				c-0.2-1-0.4-2-0.5-3c-0.1-1-0.1-2-0.2-3c-0.1-2-0.3-3.9-0.3-5.9c-0.1-3.9-0.3-7.7-0.7-11.3c-0.5-3.6-1.2-7-2.3-10
				c-1-3-2.2-5.7-3.1-8c-1-2.3-1.8-4.3-2.5-6c-1.3-3.4-2-5.3-2-5.3c-0.3-0.7-1-1-1.7-0.8C368.8,151.4,368.5,152.2,368.7,152.9
				L368.7,152.9z"/>
			<g>
				<path class="st2" d="M364.6,120.2c0.4-0.5,0.8-1,1.2-1.5c0.2-0.3,0.1-0.2,0.4-0.4c4.3,5.2,5.9,10.3,7.8,16.4
					c3,10.2,4.2,21.8,3.6,35.5c-0.1,2.3-0.2,4.6-0.4,6.9c-0.6,9.5-1.2,19.3,1.4,28.3c1.2,4.2,3.2,8.3,5.2,12.3
					c1.1,2.2,2,4.8,2.8,7.4c0.8,2.4,1.7,5,2.7,7c0.3,0.7,0,1.5-0.6,1.8c-0.3,0.1-0.6,0.2-0.9,0.1c-0.4-0.1-0.7-0.4-0.9-0.7
					c-1.1-2.2-2-4.8-2.8-7.4c-0.8-2.4-1.7-5-2.7-7c-2-4.1-4-8.3-5.3-12.7c-2.8-9.5-2.2-19.5-1.6-29.2c0.1-2.3,0.3-4.6,0.4-6.8
					c0.6-13.4-0.6-24.7-3.5-34.6C369.6,129.9,367.4,124.8,364.6,120.2z"/>
			</g>
			<g>
				<path class="st2" d="M399.1,276.8c-0.7-1.9-1.4-3.8-2-5.7c-0.6-1.9-1.1-3.9-1.5-5.9l0.1-11.7c-0.9-3.9-1.9-7.7-3.3-11.4
					c-0.7-1.8-1.5-3.6-2.5-5.3l-1.5-2.5c-0.6-0.8-1.1-1.6-1.2-2.8l0,0l0.7-0.3c0.5,0.6,0.6,1.2,0.6,1.8l0,1.8c0,1.2,0,2.4,0.2,3.6
					c0.3,2.4,0.4,4.9,1,7.2l0.8,3.5c0.3,1.2,0.7,2.3,1.1,3.5c0.7,2.4-1.1,4.5-0.1,6.8c1,2.3,2,4.5,2.9,6.8c1,2.3,1.7,4.6,2.4,7.1
					c0.4,2.5,0.9,5,1.1,7.4c0.1,2.5,3,5,3,7.4c0,2.5,0,4.9,0.2,7.4c0.1,2.5,0.1,4.9,0.7,7.2c0.3,1.1,0.6,2,1.4,3.1
					c0.5,0.8,1.5,1.4,2.6,1.6c0.5,0.1,1,0.1,1.5,0c0.5-0.1,0.8-0.2,1.3-0.7c0.5-0.5,1.1-1.8,1.3-2.9c0.6-2.3,0.6-4.7,0.2-7.1
					c-0.4-2.4-1-4.7-2-6.9L399.1,276.8L399.1,276.8z M409.3,289.7c1.9,4.6,3.1,9.8,1.9,14.8c-0.3,1.3-0.6,2.4-1.8,3.7
					c-0.3,0.2-0.4,0.4-0.8,0.6c-0.4,0.2-0.8,0.4-1.1,0.4c-0.7,0.2-1.5,0.1-2.1,0c-1.4-0.3-2.6-1-3.5-2.2c-0.7-0.9-1.3-2.3-1.6-3.6
					c-0.6-2.5-0.6-5.1-0.7-7.5c-0.2-2.5-0.2-4.9-0.2-7.4c0-2.5-2.9-4.9-3-7.3c-0.2-2.4-0.8-4.8-1.1-7.2c-0.7-2.2-1.4-4.7-2.4-6.9
					c-0.9-2.2-1.9-4.5-2.9-6.7c-1-2.3,0.7-4.6,0-7c-0.4-1.2-0.8-2.3-1.1-3.5l-0.8-3.7c-0.7-2.4-0.8-4.9-1.1-7.4
					c-0.2-1.2-0.1-2.5-0.2-3.7l0-1.9c0-0.6,0-1.3,0.5-1.9l0.8-0.9l0,0.6v0c1,0.5,1.8,1.2,2.4,2l1.6,2.6c1,1.8,1.8,3.7,2.6,5.6
					c0.7,1.9,1.3,3.9,1.8,5.8c0.5,2,0.9,3.9,1.3,5.9l-0.5,11.8c0.4,1.9,0.9,3.9,1.4,5.8c0.5,1.9,1.2,3.8,1.9,5.6L409.3,289.7z"/>
			</g>
			<g>
				<path class="st2" d="M404.1,299.7c0.6,0.1,1.2,0.2,1.7,0.2c1.4-0.1,2.8-0.9,3.7-2.1c0.9-1.1,1.3-2.5,1.1-3.8
					c-0.1-0.3-0.3-0.5-0.6-0.5c-0.3,0-0.5,0.3-0.5,0.6c0.2,1-0.1,2.1-0.8,2.9c-0.8,1-1.9,1.6-3,1.7c-2.1,0.2-4.3-1.4-5-3.6
					c0.2-0.2,0.2-0.5,0.1-0.7c-0.1-0.2-0.5-0.3-0.8-0.2c-0.4,0.2-0.5,0.6-0.4,1C400.2,297.5,402,299.2,404.1,299.7z"/>
			</g>
			<g>
				<path class="st2" d="M368.4,125.4c0,0,0.3,0.3,0.9,0.7c0.6,0.5,1.6,1,2.3,2c0.4,0.4,0.9,0.9,1.4,1.4c0.4,0.6,0.9,1.2,1.3,1.8
					c0.5,0.6,0.9,1.3,1.2,2.1c0.4,0.8,0.8,1.4,1,2.3c0.6,1.6,1.1,3.3,1.5,4.8c0.4,1.5,0.9,3,1.3,4.2c0.4,1.2,1,2.2,1.3,2.9
					c0.3,0.7,0.5,1.1,0.5,1.1c0.1,0.2,0.3,0.3,0.5,0.2c0.2-0.1,0.3-0.3,0.2-0.5l0-0.1c0,0-0.2-0.4-0.5-1.1c-0.3-0.7-0.8-1.6-1.1-2.8
					c-0.3-1.2-0.8-2.6-1.1-4.3c-0.4-1.6-0.9-3.3-1.4-4.9c-0.2-0.8-0.7-1.7-1-2.4c-0.4-0.8-0.7-1.6-1.3-2.2c-0.5-0.7-0.9-1.4-1.4-2
					c-0.5-0.6-1-1.1-1.5-1.6c-0.9-1.1-1.8-1.6-2.4-2.1c-0.6-0.5-0.9-0.7-0.9-0.7c-0.4-0.3-0.9-0.2-1.2,0.1
					C368,124.5,368.1,125.1,368.4,125.4C368.4,125.3,368.4,125.4,368.4,125.4z"/>
			</g>
			<g>
				<path class="st2" d="M375.3,183.4c0.6,0.5,1.2,1.2,2,2c1,1,2.2,2.2,3.5,3.5c0.6,0.7,1.3,1.3,1.8,2.1c0.5,0.8,1.2,1.5,1.6,2.3
					c0.4,0.8,0.9,1.6,1.2,2.5c0.3,0.9,0.6,1.8,0.8,2.6c0.5,1.7,0.8,3.4,1.1,4.8c0.3,1.4,0.4,2.6,0.5,3.5c0,0.4,0.1,0.7,0.1,0.9
					c0,0.1,0,0,0,0.1c-0.1,0.1-0.1,0.3,0,0.5c0-0.1,0.3,0.5,0.8-0.1c0.1-0.2,0.1-0.3,0.1-0.4c0-0.3,0-0.6,0-1
					c-0.1-0.9-0.2-2.1-0.4-3.5c-0.2-1.5-0.5-3.1-1-4.9c-0.2-0.9-0.5-1.8-0.8-2.8c-0.3-1-0.7-1.8-1.2-2.8c-0.4-1-1.1-1.7-1.6-2.5
					c-0.6-0.8-1.2-1.5-1.8-2.2c-1.3-1.3-2.4-2.6-3.4-3.6c-1.2-1.2-2.1-2.2-2.6-2.8C375.8,182,375.6,182.7,375.3,183.4z M388.4,207.5
					c0.2,0,0.2,0.2,0.2,0.1C388.6,207.5,388.5,207.5,388.4,207.5z"/>
			</g>
			<g>
				<path class="st2" d="M365.2,168.1c-0.6,2.1-0.8,4.1-0.9,5.8c-0.1,1.7-0.1,3.1-0.1,4.1c0,0.5,0,0.9,0,1.1c0,0.1,0,0.2,0,0.2
					c0,0,0,0,0,0c0,0,0,0,0,0c0,0,0,0,0,0c0,0.1,0,0.2,0,0.3c0.1,0-0.1,0,0.3,0.2c0.4,0,0.5-0.3,0.5-0.3l0,0c0,0,0-0.2,0-0.2
					c0-0.1,0-0.2,0-0.3c0-0.3,0-0.6,0-1.1c0-1,0-2.4,0.2-4c0.1-1.7,0.4-3.6,1-5.6c0.3-1,0.7-2,1.2-2.8c0.6-0.9,1.4-1.6,2.2-2.3
					c0.9-0.7,1.7-1.5,2.6-2.2c0.4-0.4,0.8-0.8,1.2-1.2c0.4-0.4,0.7-0.9,1.1-1.4c1.2-1.9,1.8-3.9,2.1-5.6c0.2-0.9,0.3-1.7,0.3-2.5
					c-0.6-0.8-1.1-1.6-1.4-2.6c0,0.2,0,0.5,0,0.9c0,0.9,0,2.3-0.3,3.9c-0.2,1.6-0.7,3.4-1.8,5.1c-0.3,0.4-0.5,0.9-0.9,1.2
					c-0.4,0.4-0.8,0.8-1.1,1.2c-0.8,0.7-1.7,1.4-2.5,2.2c-0.8,0.8-1.7,1.6-2.3,2.6C365.9,166,365.5,167.1,365.2,168.1z M364.7,179.1
					C364.7,179.1,364.7,179.1,364.7,179.1C364.7,179.1,364.6,179.1,364.7,179.1C364.6,179.1,364.6,179.1,364.7,179.1z M365,179.3
					c0-0.1-0.1-0.1-0.2-0.2C365,179.3,365,179.3,365,179.3z M364.3,179.3c0,0,0-0.1,0.1-0.1C364.3,179.2,364.3,179.3,364.3,179.3z"
					/>
			</g>
			<g>
				<path class="st2" d="M362.8,148.7c0.3-1.1,0.6-2.2,1-3.4c0.3-1.2,0.6-2.4,0.8-3.6c0.3-1.3,0.3-2.5,0.5-3.8
					c0.1-2.6,0.2-5.2,0.2-7.6c-0.1-2.4-0.2-4.7-0.3-6.6c-0.2-2.2-1.4-3.9-1.4-4.2c0.3-0.4,1.8-0.1,2.2-0.5c0.1,0.5,0.3,1.1,0.4,1.9
					c0.1,0.8,0.3,1.7,0.4,2.7c0.1,2,0.1,4.3,0,6.8c-0.1,2.4-0.1,5.1-0.3,7.7c-0.2,1.3-0.3,2.7-0.5,3.9c-0.2,1.3-0.6,2.5-0.9,3.7
					c-0.4,1.2-0.7,2.3-1,3.4c-0.3,1.1-0.7,2.1-0.8,3c-0.4,1.9-0.3,3.5-0.2,4.6c0.1,0.5,0.2,1,0.3,1.2c0.1,0.3,0.1,0.4,0.1,0.4l0,0
					c0.1,0.2-0.1,0.4-0.3,0.5c-0.2,0.1-0.5-0.1-0.5-0.3c0,0,0-0.2-0.1-0.5c-0.1-0.3-0.2-0.8-0.3-1.3c-0.2-1.2-0.2-2.9,0.2-4.9
					C362.2,150.8,362.5,149.8,362.8,148.7z"/>
			</g>
			<g>
				<path class="st2" d="M365.5,129.9c0,0-0.2,0.2-0.6,0.4c-0.4,0.3-1,0.8-1.5,1.4c-1.1,1.2-2.2,3.2-2.8,5.3c-0.7,2.1-0.9,4.2-1,5.8
					c0,0.8-0.1,1.5,0,1.9c0,0.2,0,0.4,0,0.6c0,0.1,0,0.1,0,0.2l0,0c0,0.1,0.1,0.3,0.3,0.3c0.3,0,0.3-0.1,0.3,0
					c0.2-0.1,0.2-0.4,0.1-0.6c-0.1-0.2-0.4-0.2-0.6-0.1c0,0,0-0.1,0.3-0.1c0.2,0,0.3,0.2,0.3,0.3v0c0,0,0,0,0-0.1c0-0.1,0-0.3,0-0.5
					c0-0.4,0-1.1,0.1-1.9c0.1-1.5,0.5-3.6,1.2-5.5c0.7-1.9,1.7-3.7,2.7-4.8c0.5-0.6,1-0.9,1.3-1.2c0.4-0.3,0.6-0.4,0.6-0.4
					c0.3-0.2,0.4-0.6,0.2-0.9S365.8,129.7,365.5,129.9C365.5,129.9,365.5,129.9,365.5,129.9z"/>
			</g>
			<g>
				<path class="st2" d="M410.7,305.4c1.9,2.9,3.7,6,5.7,8.7c-1.7-3.6-3.8-7.3-5.8-10.8L410.7,305.4z"/>
				<path class="st2" d="M410,306.4c0.1,0.3,0.2,0.7,0.4,1.2c0.4,1.3,0.9,2.9,1.4,4.6c1.3,3.2,2.6,6.4,2.6,6.4c0,0.1,0,0.1-0.1,0.2
					c-0.1,0-0.1,0-0.1,0c0,0-1.5-3.2-2.9-6.3c-0.6-1.6-1.2-3.3-1.7-4.5c-0.1-0.3-0.2-0.5-0.3-0.8C409.6,306.9,409.8,306.7,410,306.4
					z"/>
				<path class="st2" d="M406.4,308.8c0.7,4.1,1.6,8.3,4.1,11.7c-1.4-3.9-2.6-7.7-3-11.9L406.4,308.8z"/>
				<path class="st2" d="M404.5,308.1c0,1.4,0.1,3.4,0.1,5.4c0.5,3.5,1,7,1,7l0,0c0,0.1,0,0.1-0.1,0.1c-0.1,0-0.1,0-0.1-0.1
					c0,0-0.8-3.5-1.5-6.9c-0.3-2.5-0.5-4.9-0.6-6.2C403.6,307.8,404.1,308,404.5,308.1z"/>
				<path class="st2" d="M400.7,305.2c0,0-0.2,0.9-0.5,2.2c-0.3,1.3-0.7,3.1-1.1,4.9c-0.1,0.9-0.4,1.8-0.4,2.7
					c0,0.9-0.2,1.7-0.1,2.4c0.1,1.4,0.2,2.3,0.2,2.3c0,0.1,0.1,0.1,0.1,0.1c0.1,0,0.1-0.1,0.1-0.1v0c0,0,0-0.9,0-2.3
					c0-0.7,0.2-1.5,0.3-2.3c0.1-0.8,0.4-1.7,0.6-2.6c0.5-1.8,1.1-3.5,1.5-4.8c0.4-1.3,0.7-2.2,0.7-2.2c0.1-0.4-0.1-0.8-0.4-0.9
					C401.3,304.5,400.9,304.8,400.7,305.2C400.7,305.2,400.7,305.2,400.7,305.2z"/>
			</g>
		</g>
	</g>
</g>
</svg>
