<svg id="_ÎÓÈ_1" data-name="‘ÎÓÈ_1" xmlns="http://www.w3.org/2000/svg" viewBox="0 0 1191.77 1860.93"><defs><style>.cls-1{fill:#ffbf9d;}.cls-2{fill:#fddd68;}.cls-3{fill:#b05a1d;}.cls-4{fill:#00a3ff;}.cls-5{fill:#fdc159;}.cls-6{fill:#f9a885;}.cls-7{fill:#ddd;}.cls-8{fill:#d61335;}.cls-9{fill:#1a2e35;}.cls-10{fill:none;stroke:#334b51;stroke-linecap:round;stroke-linejoin:round;stroke-width:10px;}.cls-11{fill:#ffb6b0;}.cls-12{fill:#1db8fc;}.cls-13{fill:#243d3f;}.cls-14{fill:#fff;}.cls-15{fill:#fcbd24;}.cls-16{fill:#0693ea;}.cls-17{fill:#8b5145;}.cls-18{fill:#263e44;}</style></defs><path class="cls-1" d="M1197.46,463.62c13.2-9,52.81-36.54,77.62-24.78,5.52,45.1-20.73,279.62-58.79,256.76-1.94,31.4-43.7,89-56.65,116.49,0,0,42.3-1.59,63.19,109.14,11.08,54.32-74.31,115.48-83.32,122-89.82-120.77-72.37-198.21-64.81-248.61C1080.1,758.59,1101.1,529,1197.46,463.62Z" transform="translate(-480.22 -36.72)"/><path class="cls-2" d="M1652.33,786.33l-.33,5.84-.33.07-28.13,5.33-18.1,3.44-19.35,3.67-2.46.47L1558.28,810h0l-49.41,9.39h0l-1.42.26-15.54,2.95-17.14,3.26-.9.16-.54.1-21.42,4.07-159.31,30.23L955,924.42l-2.64-20,9.37-1.78,1.25-.24,16.73-3.17h0L981,899l16.73-3.18,1.25-.22v0l16.72-3.16,1.26-.24,16.72-3.18,1.25-.23,16.73-3.18,1.25-.24,16.73-3.16,1.25-.25h0l16.72-3.17,1.26-.25,16.71-3.16,1.26-.24h0l16.73-3.18,1.25-.23,16.73-3.18,1.25-.24,16.72-3.16.1,0,1.16-.21,16.72-3.18,1.25-.24,16.73-3.17,1.25-.24,16.73-3.18,1.25-.24,16.73-3.16,1.25-.25,16.72-3.16,1.26-.24h0l16.71-3.18,1.26-.24,16.72-3.17,1.25-.24,16-3,1.25-.24,16.73-3.16,1.27-.24,16.71-3.18,1.27-.25,16.71-3.16,1.26-.24,16.72-3.18h0l1.25-.23,16.71-3.18,1.27-.24,16.73-3.16,1.25-.24,3-.57,8.84-1.68,4.87-.93,1.25-.24,11.17-2.11,1.45-.28h0l4.09-.78,1.26-.24,7.08-1.33.77-.16h0l8.85-1.69,1.25-.23,16.67-3.16h.06l1.25-.25,13-2.46.33-.06h0l3.36-.64,1.25-.24,16.73-3.18,1.25-.23,16.72-3.18,1.26-.24h0l16.71-3.16,1.25-.24,3.79-.73h0l12.93-2.45,1.27-.24,16.72-3.17,1.26-.24,4.35-.83,12.36-2.35,1.25-.23,16.74-3.17,1.25-.25,6.5-1.23,15.49-2.93,4.52-.86C1653.52,775.71,1653,780.75,1652.33,786.33Z" transform="translate(-480.22 -36.72)"/><polygon class="cls-3" points="806.38 804.3 805.13 804.54 806.48 814.76 807.73 814.52 806.38 804.3"/><polygon class="cls-3" points="788.4 807.71 787.15 807.95 788.5 818.17 789.75 817.93 788.4 807.71"/><polygon class="cls-3" points="770.42 811.12 769.17 811.36 770.52 821.58 771.77 821.34 770.42 811.12"/><polygon class="cls-3" points="752.44 814.53 751.19 814.77 752.54 824.99 753.79 824.75 752.44 814.53"/><polygon class="cls-3" points="734.46 817.95 733.21 818.18 734.56 828.4 735.81 828.16 734.46 817.95"/><polygon class="cls-3" points="716.49 821.36 715.23 821.59 716.58 831.81 717.84 831.58 716.49 821.36"/><polygon class="cls-3" points="698.51 824.77 697.25 825.01 698.6 835.23 699.86 834.99 698.51 824.77"/><polygon class="cls-3" points="680.52 828.18 679.27 828.42 680.62 838.64 681.87 838.4 680.52 828.18"/><polygon class="cls-3" points="662.55 831.59 661.29 831.83 662.64 842.05 663.9 841.81 662.55 831.59"/><polygon class="cls-3" points="644.57 835 643.31 835.24 644.66 845.46 645.92 845.22 644.57 835"/><polygon class="cls-3" points="626.59 838.41 625.33 838.65 626.68 848.87 627.94 848.63 626.59 838.41"/><polygon class="cls-3" points="608.61 841.83 607.36 842.06 608.71 852.28 609.96 852.04 608.61 841.83"/><polygon class="cls-3" points="590.63 845.24 589.38 845.48 590.73 855.69 591.98 855.46 590.63 845.24"/><polygon class="cls-3" points="572.65 848.65 571.39 848.89 572.74 859.11 574 858.87 572.65 848.65"/><polygon class="cls-3" points="554.67 852.06 553.42 852.3 554.77 862.52 556.02 862.28 554.67 852.06"/><polygon class="cls-3" points="536.69 855.47 535.44 855.71 536.79 865.93 538.04 865.69 536.69 855.47"/><polygon class="cls-3" points="518.71 858.88 517.46 859.12 518.81 869.34 520.06 869.1 518.71 858.88"/><polygon class="cls-3" points="500.74 862.29 499.48 862.53 500.83 872.75 502.09 872.51 500.74 862.29"/><polygon class="cls-3" points="482.75 865.71 481.5 865.94 482.85 876.16 484.1 875.92 482.75 865.71"/><polygon class="cls-3" points="1147.27 739.62 1146.02 739.86 1147.37 750.08 1148.62 749.84 1147.27 739.62"/><polygon class="cls-3" points="1129.29 743.03 1128.04 743.27 1129.38 753.49 1130.64 753.25 1129.29 743.03"/><polygon class="cls-3" points="1111.31 746.44 1110.06 746.68 1111.41 756.9 1112.66 756.66 1111.31 746.44"/><polygon class="cls-3" points="1093.33 749.85 1092.08 750.09 1093.43 760.31 1094.68 760.07 1093.33 749.85"/><polygon class="cls-3" points="1075.35 753.26 1074.1 753.5 1075.45 763.72 1076.7 763.48 1075.35 753.26"/><polygon class="cls-3" points="1057.38 756.68 1056.12 756.91 1057.47 767.13 1058.72 766.89 1057.38 756.68"/><polygon class="cls-3" points="1039.39 760.09 1038.14 760.33 1039.49 770.54 1040.74 770.31 1039.39 760.09"/><polygon class="cls-3" points="1021.41 763.5 1020.16 763.74 1021.51 773.96 1022.76 773.72 1021.41 763.5"/><polygon class="cls-3" points="1003.44 766.91 1002.18 767.15 1003.53 777.37 1004.79 777.13 1003.44 766.91"/><polygon class="cls-3" points="985.46 770.32 984.2 770.56 985.55 780.78 986.81 780.54 985.46 770.32"/><polygon class="cls-3" points="967.48 773.73 966.22 773.97 967.57 784.19 968.83 783.95 967.48 773.73"/><polygon class="cls-3" points="949.5 777.14 948.25 777.38 949.6 787.6 950.85 787.36 949.5 777.14"/><polygon class="cls-3" points="931.52 780.56 930.26 780.79 931.61 791.01 932.87 790.77 931.52 780.56"/><polygon class="cls-3" points="913.54 783.97 912.28 784.21 913.63 794.42 914.89 794.19 913.54 783.97"/><polygon class="cls-3" points="895.56 787.38 894.31 787.62 895.66 797.84 896.91 797.6 895.56 787.38"/><polygon class="cls-3" points="877.58 790.79 876.33 791.03 877.68 801.25 878.93 801.01 877.58 790.79"/><polygon class="cls-3" points="859.6 794.2 858.35 794.44 859.69 804.66 860.95 804.42 859.6 794.2"/><polygon class="cls-3" points="841.62 797.61 840.37 797.85 841.72 808.07 842.97 807.83 841.62 797.61"/><polygon class="cls-3" points="823.64 801.02 822.39 801.26 823.74 811.48 824.99 811.24 823.64 801.02"/><path class="cls-1" d="M687.07,813.62q36.12,15.63,75.26,30.7c42.83,16.43,84.23,30.55,123.82,42.73h0l.6.22,1,.39c.32.12.63.24.91.33,2.64,1,5,2,7.09,2.84.84.69,1.64,1.39,2.44,2.06,2.08,1.8,4.06,3.45,6,5.05,1.79,1.53,3.59,3,5.32,4.35,18,14.61,32.9,24.13,52.94,26.07,3.26.27,34.06,3.29,41.06-10.82,5.16-10.46-5.75-24.51-6.63-25.66-12.33-15.46-30.93-15.61-61.81-22.36-11.13-2.42-20.87-5.13-29.4-7.75l-.73-.21-2.54-.79c-3-.92-5.7-1.82-8.28-2.71l-1-.32L885.47,855,711.2,761.89a35.35,35.35,0,0,0-20-2.67c-1.06.17-18.41,3.3-23.53,16.18C662.91,787.47,670.13,804.8,687.07,813.62Z" transform="translate(-480.22 -36.72)"/><path class="cls-4" d="M670,558.8c0,.58-.07,1.22-.11,1.92-.16,2.64-.29,6.16-.28,10.27a183.28,183.28,0,0,0,3.18,33c10.49,59.68,16.58,80.14,16.58,80.14C708.74,755,741.34,845.1,745.47,856.49c61.23,24,124.57,37.42,185.8,61.36,5.93-19.25,4.15-26.65,10.08-45.9-55.8-25.93-106-53.23-161.81-79.16.11-36.55,1.14-66.27,2-86.48,2.47-55.2,5.41-71-2-98.68-4.69-17.43-12.46-44.77-37.77-63.69a92.74,92.74,0,0,0-37.64-16.46l-18.33-.54a213.71,213.71,0,0,0-12.14,23.26Q671.71,554.58,670,558.8Z" transform="translate(-480.22 -36.72)"/><path class="cls-1" d="M779.54,792.79s-46.47,21.7-19.09,65.51l1.92,4.53,166,53.91,18.85,2.6,2.86-20.1L941.35,872Z" transform="translate(-480.22 -36.72)"/><path class="cls-5" d="M903.62,1210.87l-17.63-8.5a782.35,782.35,0,0,0,87.22-279.18q1.49-13,2.49-25.23c.07-.85.15-1.69.21-2.52l6.93,8,.65.75.81.95,1.07,1.23.69.8h0l.73.83,5.57,6.44c-.08,2-.16,3.95-.26,5.95,0,.58-.05,1.16-.08,1.73-.09,1.63-.17,3.27-.27,4.93-.09,1.12-.21,2.24-.32,3.38,0,.41-.09.83-.13,1.24-.15,1.46-.29,2.93-.45,4.41-.05.46-.09.92-.14,1.37-.14,1.31-.28,2.61-.43,3.93-.26,2.26-.53,4.52-.81,6.82,0,.41-.09.83-.15,1.23h0q-1,8.07-2.24,16.44c-.05.4-.11.81-.19,1.22-.79,5.37-1.67,10.8-2.63,16.33-.06.42-.14.82-.21,1.23-3.19,18.12-7.22,37-12.32,56.64-1,3.86-2,7.7-3.08,11.48-.11.41-.22.81-.34,1.2q-2.26,8.09-4.64,15.91l-.37,1.19c-1.66,5.43-3.38,10.78-5.11,16-.15.4-.27.79-.4,1.18-1.44,4.31-2.9,8.56-4.41,12.75l-.41,1.17q-2.84,7.9-5.76,15.51c-.14.38-.3.77-.44,1.15q-3,7.86-6.12,15.37c-.16.37-.31.76-.47,1.13v0q-3.23,7.75-6.5,15.19c-.17.39-.33.77-.51,1.13q-7.26,16.39-14.66,31v0c-.12.26-.24.52-.38.76q-3.81,7.59-7.62,14.72c-.19.37-.38.74-.58,1.1v0C907.79,1203.34,905.71,1207.16,903.62,1210.87Z" transform="translate(-480.22 -36.72)"/><path class="cls-3" d="M991.32,931.71h0l-5.58-1.24.27-1.22,5.44,1.22C991.4,930.87,991.36,931.28,991.32,931.71Z" transform="translate(-480.22 -36.72)"/><path class="cls-3" d="M989.33,949.47l-7.45-1.66.27-1.21,7.33,1.63Z" transform="translate(-480.22 -36.72)"/><path class="cls-3" d="M986.9,967.13l-8.87-2,.27-1.21,8.79,1.95C987,966.31,987,966.72,986.9,967.13Z" transform="translate(-480.22 -36.72)"/><path class="cls-3" d="M984.05,984.69l-9.87-2.19.27-1.21,9.81,2.18Z" transform="translate(-480.22 -36.72)"/><rect class="cls-3" x="974.85" y="995.23" width="1.24" height="10.25" transform="translate(-692.69 1699.19) rotate(-77.49)"/><rect class="cls-3" x="971" y="1012.58" width="1.24" height="10.25" transform="translate(-712.56 1709.17) rotate(-77.49)"/><rect class="cls-3" x="967.15" y="1029.93" width="1.24" height="10.25" transform="translate(-732.51 1719) rotate(-77.49)"/><path class="cls-3" d="M968.31,1054l-9.52-2.11.26-1.21,9.6,2.13C968.54,1053.22,968.43,1053.62,968.31,1054Z" transform="translate(-480.22 -36.72)"/><path class="cls-3" d="M963.3,1071.11l-8.37-1.86.28-1.21,8.46,1.88C963.55,1070.32,963.42,1070.72,963.3,1071.11Z" transform="translate(-480.22 -36.72)"/><path class="cls-3" d="M957.79,1088.31l-7.7-2.89.43-1.16,7.66,2.88Z" transform="translate(-480.22 -36.72)"/><path class="cls-3" d="M953,1102.23l-8-3.35.48-1.14,8,3.32C953.25,1101.45,953.11,1101.84,953,1102.23Z" transform="translate(-480.22 -36.72)"/><path class="cls-3" d="M946.78,1118.9l-8.68-3.61.48-1.15,8.65,3.6C947.07,1118.13,946.92,1118.52,946.78,1118.9Z" transform="translate(-480.22 -36.72)"/><path class="cls-3" d="M940.18,1135.4l-8.91-3.71.48-1.14,8.9,3.7C940.49,1134.64,940.34,1135,940.18,1135.4Z" transform="translate(-480.22 -36.72)"/><path class="cls-3" d="M933.17,1151.74l-8.74-3.65.48-1.14,8.77,3.65Z" transform="translate(-480.22 -36.72)"/><rect class="cls-3" x="919.89" y="1159.51" width="1.24" height="10.25" transform="translate(-988.81 1529.63) rotate(-67.38)"/><rect class="cls-3" x="913.06" y="1175.91" width="1.24" height="10.25" transform="translate(-1008.1 1533.59) rotate(-67.39)"/><path class="cls-3" d="M909.9,1199.39l-8-3.35.48-1.15,8.14,3.4Z" transform="translate(-480.22 -36.72)"/><path class="cls-1" d="M1155,981.86c3.09-7.09,6.46-13.76,11.36-18.94,2.5-2.64,5.08-5.34,8.16-6.63a7.85,7.85,0,0,1,7.28.46c4.77-8.93,22.87-49.79,26.83-50.41,0,0,14,28.52,15.6,33.63,8.4,27.53,1.64,46.2-7,72.44-1.52,4.58-3.09,9.29-5.85,12.8-5.46,6.94-15.18,11.48-21.79,6.37-14.41-11.15-19.31-17.71-32.94-33.09C1152.37,993.67,1152,988.8,1155,981.86Z" transform="translate(-480.22 -36.72)"/><path class="cls-6" d="M1182.16,956.54a128,128,0,0,0-16.41,29.63,7.36,7.36,0,0,1-2.66-1.41,4,4,0,0,1-1.26-3.14,5.38,5.38,0,0,1,1.79-3.17l11.4-12" transform="translate(-480.22 -36.72)"/><path class="cls-7" d="M1126.46,1850.33s-2.68-.61-3.14,6.72c-.77,12.18-2.21,15.29,14.4,19.43,24.38,6.08,90.65,11.13,122.33,6.78,16.34-2.23,18.68-7.69,19.23-17.57.58-10.22-3.13-9.77-3.13-9.77Z" transform="translate(-480.22 -36.72)"/><path class="cls-8" d="M1276.3,1856.77c-.51,9.1-46.19,13.72-77.66,11-14.38-1.26-26.08-2.81-35.48-4.48-29.25-5-36.83-10.86-36.82-11s-3.35-22.46,7.72-32.91c9.94-9.34,18.51-10.15,28.63-8.94,12.33,1.4,27,5.78,49.11,1.12,0,0,42.57,1.34,47.48,2.58C1274.13,1817.88,1277.89,1828.4,1276.3,1856.77Z" transform="translate(-480.22 -36.72)"/><path class="cls-7" d="M1189.51,1826.16c-1.17-6.9-3.76-14.25-9-16.94-1.38-.71-3.46-.63-3.81,1.19-.25,1.31.64,2.47,1.36,3.46,2.75,3.78,4.05,8.87,4.78,13.9s1,10.17,2.09,15.1a9.23,9.23,0,0,0,1.16,3.18,2.33,2.33,0,0,0,2.5,1.19c1.52-.5,1.94-2.93,2-4.91A81.66,81.66,0,0,0,1189.51,1826.16Z" transform="translate(-480.22 -36.72)"/><path class="cls-7" d="M1200.49,1814.5c-.89-1.85-2-3.71-3.56-4.47a3,3,0,0,0-4.17,2.21c-.33,1.63.43,3.24,1.1,4.68a61.72,61.72,0,0,1,5.53,21.85c.17,2.47.21,5,1.08,7.26a6.72,6.72,0,0,0,1,1.72c1.41,1.78,3.86.73,4.07-1.79C1206.39,1835.08,1204.92,1823.79,1200.49,1814.5Z" transform="translate(-480.22 -36.72)"/><path class="cls-6" d="M1361.5,1365.21s-18.29,42.28-18.77,50.64,18.76,54.53,18.77,89.38c0,87.22-85.73,316.43-91.07,322.83s-52.48,20-51.82-19.25-42.22-438.95-42.22-438.95Z" transform="translate(-480.22 -36.72)"/><path class="cls-1" d="M1330.31,1295.13s11.09,94.66,9.6,115-10.4,42.28-9.6,104.48c.38,29.18,60,310,60,310s6.34,14.34,20.07,14.34,38.66-6.6,38.66-6.6c16.23-88.88,73.2-216.23,77.41-320.75,1.23-30.46-15.68-54.06-14-74.65,5.1-60.42,14.66-89.38,13.91-117.6Z" transform="translate(-480.22 -36.72)"/><path class="cls-9" d="M1563.29,933.62c22.53,29.73,31.67,93.49,35.58,122.06,11.54,84.29-59,274.78-82.47,356.46-9,14.47-160,11.69-176.63-16.55,0,0-143.36,15-165-13.76-13-68.82-115.45-255.92-80-453.2Z" transform="translate(-480.22 -36.72)"/><path class="cls-1" d="M1593.21,1037.67s-58.25,66.56-177.07,82.58c-108.06,14.58-299.2-8.51-328.77-66-30.81-59.92-15.25-129.35,0-164.09-1.58,3.61,513.28,88.62,501.07,36.78C1593.06,946.56,1593.21,1037.67,1593.21,1037.67Z" transform="translate(-480.22 -36.72)"/><path class="cls-6" d="M1446.1,414.75s.46,225.16-113.57,220.4c-97-4-66-203.79-66-203.79l42.36,8.93,5.23-20.61,101.2-28.35,12.81,15.9Z" transform="translate(-480.22 -36.72)"/><path class="cls-4" d="M1528.15,668.9l70.72,341.75c-132.8,75.43-502.7-8.28-522.79-88.52,0,0,4-64.89,53.55-140.69-53.55-41,7.89-127.33,42.35-172.18,23.74-30.89,51.33-132.25,72-172.24l37.48-9.39s-35.15,105.56,32.7,108.45c74.2,3.16,114-128.85,114-128.85,27.52,10.62,98.32,45.57,96.74,55.29C1493.32,657.29,1528.15,668.9,1528.15,668.9Z" transform="translate(-480.22 -36.72)"/><path class="cls-9" d="M1313.61,167.08a9.61,9.61,0,0,0-4-3.86A98.53,98.53,0,0,0,1263,148.61a570.23,570.23,0,0,0-3.71,85.93c1.18,36.92,12,70.22,25.62,103.6q16-80.94,29-162.73C1314.37,172.62,1314.78,169.52,1313.61,167.08Z" transform="translate(-480.22 -36.72)"/><path class="cls-1" d="M1460.64,265.14c0,92.86-19.06,119.77-43.17,143.2-38.66,37.56-103.26,29.11-129.67,12.09-38.35-24.7-65.63-82.29-35.41-143.72,7.47-15.19,19.79-25.21,21.14-31.64,18.6-89.3,34.09-130.93,61.23-146.37,12.6-7.18,23.86-9.31,30.28-9.31C1386.29,89.39,1460.64,112.72,1460.64,265.14Z" transform="translate(-480.22 -36.72)"/><path class="cls-6" d="M1666.7,1119.2c1.23,4.38,2.4,9.56.31,13.4s-7,4.34-10.31,2.06-5.55-6.5-7.43-10.66c-7-15.39-11.65-33.54-8.35-50.74,2.21-4.62,6.14-7.89,10.39-8.66Z" transform="translate(-480.22 -36.72)"/><path class="cls-1" d="M1595.61,1057.89c-10.41,23.55-13.62,52.51-5.4,77.38s25.85,44.58,46.51,52c6.3,2.27,13.8,3.15,18.77-2.2,6.08-6.52,5.17-18.4,3.73-28.26q-3.85-26.56-7.72-53.12c-1.13-7.73,2.12-16.1,2.21-24s-1.25-16-4.94-22.3c-5-8.52-13.34-12.76-21.55-15-3.17-.86-6.54-1.48-9.6-.13-4.23,1.86-6.88,7-10.13,10.83S1599,1061.52,1595.61,1057.89Z" transform="translate(-480.22 -36.72)"/><path class="cls-1" d="M1435.69,362c-29.5-21.84-55.74-50.5-90.31-41.14-25.26,6.84-48,21.94-72.85,30.43-6.11,2.09-27.14,3.26-28.27,10.71-4.8,31.72,15.3,80.66,60.47,88.23C1365,460.28,1428.56,442.34,1435.69,362Z" transform="translate(-480.22 -36.72)"/><path class="cls-9" d="M1434.61,201.42S1290.4,226.26,1260,165.92c-21.12-41.87,4.52-105.67,44.37-129.2l7.24,38.53,8.15-22.66,10.67,24.93,13.77-13.6S1448,83,1465.34,126.6c44.12,110.61-8.45,191.28-9.28,194.63C1428.71,253.08,1437.91,252,1434.61,201.42Z" transform="translate(-480.22 -36.72)"/><path class="cls-1" d="M1451.29,272.68c-.48-6.53,2.12-13.27,6.5-16.86a12.3,12.3,0,0,1,14.94-.73c7.29,5,9.77,16.65,9.89,27a98.15,98.15,0,0,1-4.51,30.76c-2.51,7.93-6.41,15.77-12.58,19.39a11.92,11.92,0,0,1-17.47-6.67" transform="translate(-480.22 -36.72)"/><path class="cls-6" d="M1473.82,298.66c-1.11,8.41-4.44,17-10.52,20.81a32.88,32.88,0,0,0,2.27-8.83c.22-3.1-.53-6.48-2.5-8.37a4.06,4.06,0,0,0-6.55,1.05,118.36,118.36,0,0,0,.13-13.19,43.45,43.45,0,0,1,1.34-13c1.24-4.12,3.7-7.86,7-9.23a7.05,7.05,0,0,1,9.13,4.08c-3.15-1-6.74.4-8.83,3.52a13.41,13.41,0,0,0-1.25,11.51,4.22,4.22,0,0,1,5.63-2.49c2,.94,3.47,3.4,4,6A23.86,23.86,0,0,1,1473.82,298.66Z" transform="translate(-480.22 -36.72)"/><path class="cls-7" d="M1453.14,1860.05c5.69-4.08,6.86,22,2.25,24.81s-76.22,4.26-79.93-2.81-4.28-16.69.3-22.91C1398.05,1861.14,1433.75,1873.94,1453.14,1860.05Z" transform="translate(-480.22 -36.72)"/><path class="cls-8" d="M1452.78,1860.73c3.67-3.69,5.6-9.59,6-15.46.86-13.41-5.91-26.29-15-33.53s-20-9.67-30.79-10.37c-9.08-.6-19,.28-25.9,7.71-8.62,9.28-9.61,25.26-10,39.49-.11,4.26-.08,9,2.2,12.16,1.81,2.51,4.62,3.41,7.27,4.09a120.36,120.36,0,0,0,54.18,1.34C1445,1865.29,1449.43,1864.09,1452.78,1860.73Z" transform="translate(-480.22 -36.72)"/><path class="cls-10" d="M1344.56,1389.19c-36-53.18-66.47-112.33-90.23-175.43" transform="translate(-480.22 -36.72)"/><path class="cls-10" d="M1254.3,1217.12c-29.32-1.53-57.79-20.23-75.45-49.58" transform="translate(-480.22 -36.72)"/><path class="cls-6" d="M1361,399.26c-32.1,3.73-65-4.82-93.31-24.21,8,19.71,24.62,29.83,42.07,33.29S1345.31,409.37,1361,399.26Z" transform="translate(-480.22 -36.72)"/><path class="cls-5" d="M1013.11,1275.23l-19.57.48a782.82,782.82,0,0,0-49.72-288.24q-4.62-12.26-9.29-23.59c-.33-.78-.64-1.56-1-2.33l9.83,4,.92.36,1.15.48L947,967l1,.4h0l1,.4,7.9,3.19c.83,1.79,1.66,3.59,2.48,5.42.25.53.49,1.05.72,1.57.67,1.5,1.34,3,2,4.51.43,1,.84,2.1,1.26,3.16l.45,1.16c.53,1.36,1.08,2.74,1.61,4.14.16.42.34.85.5,1.28l1.41,3.69c.8,2.13,1.59,4.27,2.39,6.44.15.38.29.78.43,1.16h0c1.85,5.09,3.69,10.32,5.5,15.65.13.38.27.78.38,1.18,1.75,5.14,3.44,10.38,5.11,15.73.14.4.25.8.37,1.19,5.43,17.58,10.48,36.25,14.88,56q1.3,5.85,2.49,11.63c.09.41.18.82.25,1.22q1.67,8.22,3.12,16.27c.07.41.15.83.22,1.24q1.5,8.38,2.75,16.58c.06.42.13.83.19,1.23.68,4.5,1.32,8.94,1.89,13.35.06.42.12.83.17,1.24q1.08,8.32,1.95,16.43c.05.4.09.82.13,1.23q.9,8.35,1.56,16.46c0,.4.08.82.1,1.22v0q.67,8.38,1.15,16.49c0,.42,0,.83.06,1.24q1,17.89,1.12,34.31v0c0,.28,0,.57,0,.85q.06,8.49-.07,16.57c0,.42,0,.83,0,1.25h0Q1013.34,1268.85,1013.11,1275.23Z" transform="translate(-480.22 -36.72)"/><path class="cls-3" d="M963.82,986.79h0l-5.54,1.45L958,987l5.4-1.4Z" transform="translate(-480.22 -36.72)"/><path class="cls-3" d="M970.15,1003.5l-7.39,1.93-.31-1.2,7.27-1.9Z" transform="translate(-480.22 -36.72)"/><path class="cls-3" d="M976,1020.33l-8.79,2.3-.31-1.21,8.71-2.26Q975.86,1019.74,976,1020.33Z" transform="translate(-480.22 -36.72)"/><path class="cls-3" d="M981.52,1037.26l-9.79,2.55-.31-1.19,9.73-2.54C981.27,1036.47,981.39,1036.87,981.52,1037.26Z" transform="translate(-480.22 -36.72)"/><rect class="cls-3" x="975.9" y="1054.5" width="10.25" height="1.24" transform="translate(-714.83 245.15) rotate(-14.62)"/><rect class="cls-3" x="980.39" y="1071.69" width="10.25" height="1.24" transform="translate(-719.11 246.98) rotate(-14.63)"/><rect class="cls-3" x="984.88" y="1088.89" width="10.25" height="1.24" transform="matrix(0.97, -0.25, 0.25, 0.97, -723.31, 248.67)"/><path class="cls-3" d="M999.13,1106.13l-9.44,2.47-.32-1.2,9.51-2.49C999,1105.32,999.05,1105.73,999.13,1106.13Z" transform="translate(-480.22 -36.72)"/><path class="cls-3" d="M1002.47,1123.63l-8.29,2.17-.32-1.21,8.39-2.19C1002.33,1122.81,1002.4,1123.22,1002.47,1123.63Z" transform="translate(-480.22 -36.72)"/><path class="cls-3" d="M1005.41,1141.45l-8.17.94-.14-1.23,8.13-.93Z" transform="translate(-480.22 -36.72)"/><path class="cls-3" d="M1007.48,1156l-8.68.68-.1-1.24,8.61-.68C1007.37,1155.22,1007.42,1155.63,1007.48,1156Z" transform="translate(-480.22 -36.72)"/><path class="cls-3" d="M1009.56,1173.7l-9.36.74-.1-1.24,9.33-.74C1009.48,1172.88,1009.52,1173.29,1009.56,1173.7Z" transform="translate(-480.22 -36.72)"/><path class="cls-3" d="M1011.22,1191.39l-9.62.76-.1-1.23,9.61-.77C1011.15,1190.57,1011.19,1191,1011.22,1191.39Z" transform="translate(-480.22 -36.72)"/><path class="cls-3" d="M1012.43,1209.12l-9.44.75-.09-1.24,9.47-.75Z" transform="translate(-480.22 -36.72)"/><rect class="cls-3" x="1001.92" y="1225.76" width="10.25" height="1.24" transform="translate(-573.64 46.36) rotate(-4.52)"/><rect class="cls-3" x="1003.32" y="1243.47" width="10.25" height="1.24" transform="translate(-575.18 46.67) rotate(-4.52)"/><path class="cls-3" d="M1013.46,1262.14l-8.67.69-.1-1.24,8.79-.69C1013.48,1261.31,1013.47,1261.73,1013.46,1262.14Z" transform="translate(-480.22 -36.72)"/><path class="cls-11" d="M756.94,1111.93c5.17,60.13,6.16,109.46,5,152.28-2.08,75.55-6.9,106.2-9.11,123.37-2.93,22.77-6.11,42-8.67,56.2-3.1,3.89-17.15,20.67-36.36,20.48-24.07-.24-49.37-27.08-50.32-65.92-4.88-14.83-8.45-28-11.08-38.89-1.06-4.38-5.07-21.35-8.63-44-1.9-12.13-6-40.78-7.43-104.86-.72-32.44-.78-75.7,1.69-127.17,11.9-6.86,76-42.85,107.49-18C753.63,1076.6,755.53,1095.59,756.94,1111.93Z" transform="translate(-480.22 -36.72)"/><path class="cls-1" d="M643.92,1510.89c6.19,67.61,19.27,115.73,26.22,146.72A1021,1021,0,0,1,692,1806.51c1,27.89,18.83,45.63,30.84,44.74s27.33-21.49,23.64-49.69q3.11-182.73,6.19-365.48l-6.09-18.5c-13.26-24-34.35-38.06-53.15-35.19-18.36,2.8-28.85,20.94-35.44,32.72C639.84,1447.58,641.19,1481.08,643.92,1510.89Z" transform="translate(-480.22 -36.72)"/><path class="cls-6" d="M728.32,580.2c4.12-11.14-6.25-27.14-13.43-34.88a52.19,52.19,0,0,0-14.35-10.84l-11.3-5.5a114.2,114.2,0,0,1-5.5-44.14,111.17,111.17,0,0,1,2.8-17.74l13.39-27.69c-3.89,1.92-33.25,15.83-63.62,1.26-19.17-9.19-28.5-24.81-31.73-30.92a238.23,238.23,0,0,0-2.12,24.76c-.16,4.92-.16,9.46-.05,13.61A262.36,262.36,0,0,0,604.46,475c1.27,10.19.4,28.09-8.53,61.92q.15,15,.32,30c5.32-4.21,13.28-9,22-7.83,14.62,2,17.24,18.82,31.89,29.57C675,606.9,721.6,598.4,728.32,580.2Z" transform="translate(-480.22 -36.72)"/><path class="cls-1" d="M595.25,416a116.27,116.27,0,0,0,17,20.51c35.89,26.1,78,34.36,104.64,17.33,37.41-23.92,29.49-88.21,25.86-117.69A217.56,217.56,0,0,0,720,263q1-9.4,2.09-18.82c-21.55-23.76-56.93-30.78-85.26-25.32-4.68.9-48.57,10-62.57,44.67-4.15,10.28-4.31,19.39-3.68,31.47.67,12.83.82,23,1.74,29.78C578.55,370.85,581,394,595.25,416Z" transform="translate(-480.22 -36.72)"/><path class="cls-1" d="M735.2,327.31q11.52,23.58,23,47.15c-13.56,11.92-19.7,11.33-22.47,10C723.67,378.61,732.76,337.73,735.2,327.31Z" transform="translate(-480.22 -36.72)"/><path class="cls-12" d="M780,671.76a433.89,433.89,0,0,1-3.68,43.59c-4.54,32.57-8.67,43.13-11.78,61.45-.62,3.63-1.06,6.83-1.42,9.65-.45,3.48-.73,6.38-1,8.68-2.82,27-1.83,53.15-1.5,72.9.4,24.21.68,40.63.06,53a118.54,118.54,0,0,1-2,17.35v0c-2.64,12.71-11.37,55-33.84,59.9-6.38,1.42-9.07-1.78-24.2-5.59-2.73-.69-5.87-1.38-9.5-2.09-10.95-2.12-22.41-4-34.4-5.44a526.07,526.07,0,0,0-90.1-3.48c-8.15.39-15.93.95-23.32,1.62-5.55.53-10.92,1.09-16,1.72l-.75.1-.5.05c-.26.06-.49.08-.73.12,5.77-10.77,10.69-20.12,14.81-28.24,12-23.52,17.4-36.66,19.76-44.27.26-.88.5-1.68.69-2.43A193.08,193.08,0,0,1,568,887.47c2.15-5.42,4.14-9.76,5.41-12.41,8.22-58.5,3.57-103.73-1.85-133.44-12-65.63-38.26-113.63-15.5-164.56a114.27,114.27,0,0,1,20.21-30.46L599,529.83a267,267,0,0,0,23.32,15.54c8,4.77,18.75,10.58,30,15.87a232.71,232.71,0,0,0,22.53,9c1.07.38,2.17.73,3.26,1.07,9.12,2.84,28.34,6.41,32.9,1.12,4.87-5.61-4.63-23.8-22.43-44.57a38.72,38.72,0,0,1,15.85.8q19.57,16.38,39.14,32.8s6.75,5.38,14.28,16.17c15.91,22.77,20.44,56.28,21.67,76.55C780.24,664.79,780,671.76,780,671.76Z" transform="translate(-480.22 -36.72)"/><path class="cls-13" d="M876.7,1858.15q-1.29,6.13-2.59,12.28c-6.39.6-16,1.32-27.62,1.44-12.56.14-35.47-.33-84.85-9.48-18.64-3.45-43.08-8.52-71.67-16q-1.56-12.93-3.11-25.86Z" transform="translate(-480.22 -36.72)"/><path class="cls-8" d="M689.63,1837.61c148.87,32.26,184.9,29.71,188.09,20.28,2.55-7.48-15.31-23.22-27-30.76-12.75-8.21-20.17-8-30.11-11.22a55.45,55.45,0,0,1-5.44-2.1c-1.45-.62-3-1.34-4.54-2.2s-3.24-1.81-5-2.92c-.73-.47-1.49-1-2.28-1.48s-1.55-1.06-2.34-1.62c-1.5-1.07-3.09-2.17-4.75-3.32-1.33-.92-2.74-1.82-4.22-2.74s-3.21-1.92-5-2.88c-1.58-.83-3.27-1.65-5.09-2.43-1.53-.67-3.18-1.32-4.93-2-.19,0-.35-.13-.53-.19-1.95-.68-3.82-1.26-5.58-1.75-2.12-.59-4.08-1.06-5.84-1.42-1.56-.31-2.94-.55-4.17-.75l-.37-3.08a148,148,0,0,1-69.16,1.44,69,69,0,0,0-1.68,51.1Z" transform="translate(-480.22 -36.72)"/><path class="cls-8" d="M728.67,1764.74c-1.79,3.23-1.31,6.38-.37,12.54s1.85,12.06,6.44,17.13c1.55,1.72,6.42,7.11,13.48,7.13,7.23,0,14.19-5.62,17.34-14a62.54,62.54,0,0,0-.57-13.37c-1.24-8.25-2.08-13.81-6.38-16.73s-9.47-1.63-15.72-.19C737.19,1758.52,731.38,1759.86,728.67,1764.74Z" transform="translate(-480.22 -36.72)"/><path class="cls-14" d="M778.23,1818.45a2.91,2.91,0,0,0,3.93-1.13l9.84-17.79c-1.57-1-3.21-1.92-5-2.88l-9.88,17.86A2.9,2.9,0,0,0,778.23,1818.45Z" transform="translate(-480.22 -36.72)"/><path class="cls-14" d="M766.7,1815.66a2.89,2.89,0,0,0,3.94-1.13l11.25-20.31c-1.53-.67-3.18-1.32-4.93-2-.19,0-.35-.13-.53-.19l-10.86,19.65A2.9,2.9,0,0,0,766.7,1815.66Z" transform="translate(-480.22 -36.72)"/><path class="cls-14" d="M755.06,1812.83a2.9,2.9,0,0,0,3.94-1.12l11.85-21.39c-2.12-.59-4.08-1.06-5.84-1.42l-11.06,20A2.85,2.85,0,0,0,755.06,1812.83Z" transform="translate(-480.22 -36.72)"/><path class="cls-14" d="M788.47,1822.21a2.92,2.92,0,0,0,3.94-1.12l8.56-15.5c-1.5-1.07-3.09-2.17-4.75-3.32l-8.87,16A2.9,2.9,0,0,0,788.47,1822.21Z" transform="translate(-480.22 -36.72)"/><path class="cls-14" d="M800,1824.78a2.91,2.91,0,0,0,3.94-1.12l6.67-12.05c-1.58-.84-3.24-1.81-5-2.92l-6.74,12.15A2.9,2.9,0,0,0,800,1824.78Z" transform="translate(-480.22 -36.72)"/><path class="cls-14" d="M811.38,1826.53a2.9,2.9,0,0,0,3.94-1.12l5.25-9.5a55.45,55.45,0,0,1-5.44-2.1l-4.87,8.78A2.9,2.9,0,0,0,811.38,1826.53Z" transform="translate(-480.22 -36.72)"/><path class="cls-15" d="M565.18,1002" transform="translate(-480.22 -36.72)"/><path class="cls-15" d="M576.65,1095.59" transform="translate(-480.22 -36.72)"/><path class="cls-9" d="M563.34,335.73l183.14-39.87c-.79-6.9-6.11-47.64-41.11-71-26-17.39-53.35-15-70.16-13.6-19.05,1.64-52.54,4.52-71.05,30.54-14.31,20.12-12.69,44.24-12,54.07A101.75,101.75,0,0,0,563.34,335.73Z" transform="translate(-480.22 -36.72)"/><path class="cls-9" d="M529.88,368.31c6.59,49.68,53.77,91.1,74.32,83.2,4.67-1.79,10.82-7.23,17.3-55.16a645,645,0,0,0,5.61-105c-6.9,4.6-14.45,9.27-22.66,13.86-10,5.62-19.65,10.34-28.66,14.33l-22.54-30.06C546.25,298.67,524.72,329.37,529.88,368.31Z" transform="translate(-480.22 -36.72)"/><path class="cls-1" d="M634.87,343.53c8.4,12.47,11,25.44,5.72,29s-16.3-3.72-24.7-16.19-11-25.44-5.72-29S626.47,331.06,634.87,343.53Z" transform="translate(-480.22 -36.72)"/><path class="cls-9" d="M573.51,261.73c7-11,12.61-12.56,11.84-18.07-1.32-9.44-19.17-15.95-33-16.21-15.89-.29-36.25,7.45-44.88,24.93-14.18,28.75,11.32,67.72,28.67,67.94,9.48.12,17.38-11.32,21.19-16.83C567.91,288.15,562.35,279.09,573.51,261.73Z" transform="translate(-480.22 -36.72)"/><path class="cls-16" d="M755.25,987c6.18,79.08,9.57,164.56,8.56,255.64-.67,61.57-3.3,120.4-7.35,176.22q-3.66,173.39-7.34,346.76l-62.38-5.51c-33-133-47.32-233.24-46.47-264.27.54-19.5,2.45-37.92,2.45-37.92,2-19,4.76-35.14,7.34-47.7Q618.86,1184,587.68,957.67L697.76,932.6l61.77,4.89Q757.4,962.26,755.25,987Z" transform="translate(-480.22 -36.72)"/><path class="cls-17" d="M647.29,1098.2c6.27,130.89-4.62,211.82-15.08,284.7-4.68,32.61-11.06,75.17-24.92,76.53-6.78.66-14.45-9.28-29.82-29.17-10.49-13.58-11.07-21.12-20.7-30.37a69.67,69.67,0,0,0-25.54-15.36,611.26,611.26,0,0,1-15.09-80.71c-1.49-12.61-4.61-42.38-3.56-108.65.53-33.56,2.15-78.26,6.73-131.35,12.57-6.63,80.25-41.31,111.78-14.36C645.26,1061.56,646.48,1081.25,647.29,1098.2Z" transform="translate(-480.22 -36.72)"/><path class="cls-1" d="M492.63,1508.84c-6.12,69.93-1.65,121.31-.27,154.13a1055.28,1055.28,0,0,1-5.09,155.56c-4.07,28.56,10.78,49.9,23.16,51.19s31.76-16.84,33.2-46.22l73.44-370.81-2.79-20c-9.09-26.91-28-45-47.63-45.58-19.2-.53-33.21,16-42.09,26.79C500.11,1443.65,495.33,1478,492.63,1508.84Z" transform="translate(-480.22 -36.72)"/><path class="cls-13" d="M680.19,1881.23l-2,12.83c-6.57,1-16.43,2.26-28.45,3-13,.84-36.64,1.64-88.14-5-19.45-2.52-45-6.39-74.91-12.46q-2.32-13.27-4.66-26.54Z" transform="translate(-480.22 -36.72)"/><path class="cls-8" d="M485.86,1870.51c155.54,25,192.6,20.31,195.37,10.4,2.21-7.87-17.11-23.12-29.64-30.25-13.63-7.77-21.28-7.1-31.72-9.9a59.3,59.3,0,0,1-5.75-1.86c-1.53-.57-3.13-1.22-4.81-2s-3.44-1.69-5.32-2.74c-.78-.44-1.59-.89-2.43-1.4s-1.67-1-2.52-1.54c-1.61-1-3.3-2.07-5.08-3.17-1.43-.87-2.94-1.72-4.52-2.59s-3.42-1.8-5.35-2.68c-1.67-.78-3.47-1.53-5.39-2.23-1.61-.6-3.36-1.18-5.2-1.75-.19,0-.36-.12-.55-.16-2.06-.6-4-1.09-5.86-1.5-2.23-.49-4.27-.86-6.12-1.14-1.63-.23-3.06-.4-4.34-.54l-.55-3.16a152.9,152.9,0,0,1-38.81,7.13,151.29,151.29,0,0,1-32.53-1.77,71.44,71.44,0,0,0,1.12,52.87Z" transform="translate(-480.22 -36.72)"/><path class="cls-8" d="M522.1,1793.07c-1.67,3.44-1,6.66.32,13,1.35,6.46,2.58,12.35,7.6,17.33,1.71,1.69,7,7,14.32,6.6,7.47-.39,14.35-6.6,17.13-15.48a65.63,65.63,0,0,0-1.34-13.77c-1.75-8.45-2.93-14.14-7.53-16.91s-9.87-1.16-16.24.68C530.55,1786.16,524.62,1787.88,522.1,1793.07Z" transform="translate(-480.22 -36.72)"/><path class="cls-14" d="M576.28,1845.75a3,3,0,0,0,4-1.38l9.16-18.93c-1.67-.9-3.42-1.8-5.35-2.68l-9.19,19A3,3,0,0,0,576.28,1845.75Z" transform="translate(-480.22 -36.72)"/><path class="cls-14" d="M564.22,1843.52a3,3,0,0,0,4-1.38l10.48-21.61c-1.61-.6-3.36-1.18-5.2-1.75-.19,0-.36-.12-.55-.16l-10.11,20.89A3,3,0,0,0,564.22,1843.52Z" transform="translate(-480.22 -36.72)"/><path class="cls-14" d="M552.05,1841.25a3,3,0,0,0,4-1.38l11-22.75c-2.23-.49-4.27-.86-6.12-1.14l-10.3,21.29A3,3,0,0,0,552.05,1841.25Z" transform="translate(-480.22 -36.72)"/><path class="cls-14" d="M587.07,1849.07a3,3,0,0,0,4-1.38l8-16.49c-1.61-1-3.3-2.07-5.08-3.17l-8.27,17A3,3,0,0,0,587.07,1849.07Z" transform="translate(-480.22 -36.72)"/><path class="cls-14" d="M599.09,1851.07a3,3,0,0,0,4-1.38l6.21-12.81q-2.5-1.17-5.32-2.74l-6.28,12.93A3,3,0,0,0,599.09,1851.07Z" transform="translate(-480.22 -36.72)"/><path class="cls-14" d="M611,1852.24a3,3,0,0,0,4-1.38l4.9-10.1a59.3,59.3,0,0,1-5.75-1.86l-4.53,9.34A3,3,0,0,0,611,1852.24Z" transform="translate(-480.22 -36.72)"/><path class="cls-4" d="M692.87,980.91q-32.62,229.76-65.24,459.51l-76.65,340L484.93,1778q-.4-145.54-.82-291.11a235.1,235.1,0,0,1,25.28-80.73c3.41-6.42,7-12.4,10.6-17.94-6.4-67-10.33-138.48-10.6-214.06q-.15-43.18,1.23-84.4c-4.78-25.48-13-89.66,23.24-149.22a183.29,183.29,0,0,1,26.91-34.25l139.44,26.91Q696.54,957.06,692.87,980.91Z" transform="translate(-480.22 -36.72)"/><path class="cls-17" d="M578.88,557.32c9.77-5.52,22.86-6.21,32.79-1.66,17,7.78,22.5,29.9,29.41,100.34,6.22,63.5,9,120,11.25,160.11,1.42,25.82,2.7,46.87,3.53,60.28-5.79,4.05-14.54,8.71-24.36,7.51-41.62-5.1-58.37-110.07-66.32-159.9C556,666.24,541.92,578.21,578.88,557.32Z" transform="translate(-480.22 -36.72)"/><path class="cls-4" d="M578.88,557.32c9.77-5.52,22.86-6.21,32.79-1.66,17,7.78,22.5,29.9,29.41,100.34,6.22,63.5,9,120,11.25,160.11,1.42,25.82,2.7,46.87,3.53,60.28-5.79,4.05-14.54,8.71-24.36,7.51-41.62-5.1-58.37-110.07-66.32-159.9C556,666.24,541.92,578.21,578.88,557.32Z" transform="translate(-480.22 -36.72)"/><path class="cls-2" d="M1661.54,1013.29c.25,2.15,1.73,4.13,1.18,6h0l-30.12-1.59-20.75-1.1-22.2-1.18-2.82-.14-29.07-1.55h0l-56.66-3h0l-1.63-.09-17.81-.94-19.66-1-1-.06-.63,0-24.56-1.29L1253,997.58,865.89,977.07l1.41-20.14,10.75.57,1.44.07,19.18,1h0l1.43.08,19.19,1,1.43.08h0l19.18,1,1.44.08,19.18,1,1.44.08,19.18,1,1.44.08,19.18,1,1.43.07h0l19.17,1,1.45.07,19.16,1,1.44.07h0l19.18,1,1.43.09,19.19,1,1.43.07,19.18,1h.11l1.33.08,19.19,1,1.43.07,19.18,1,1.44.07,19.18,1,1.44.07,19.18,1,1.44.07,19.18,1,1.43.07h0l19.17,1,1.43.07,19.18,1,1.44.07,18.36,1,1.44.07,19.18,1,1.45.07,19.17,1,1.45.08,19.16,1,1.46.07,19.16,1h0l1.43.08,19.17,1,1.45.08,19.18,1,1.44.07,3.46.19,10.14.53,5.58.29,1.44.08,12.81.69,1.66.08h0l4.69.25,1.44.07,8.12.44.89,0h0l10.15.53,1.43.08,19.12,1h.07l1.43.07,15,.8.37,0h0l3.85.21,1.44.07,19.19,1,1.43.09,19.18,1,1.44.07h0l19.17,1,1.43.07,4.35.22h0l14.83.78,1.45.08,19.18,1,1.44.08,5,.26,14.18.74,1.43.09,19.2,1,1.44.08,7.45.39,8.4.45h0C1658.58,1003.06,1658.58,1003.06,1661.54,1013.29Z" transform="translate(-480.22 -36.72)"/><polygon class="cls-3" points="770.42 940.51 768.98 940.43 768.25 950.74 769.69 950.82 770.42 940.51"/><polygon class="cls-3" points="749.8 939.41 748.36 939.34 747.63 949.65 749.07 949.72 749.8 939.41"/><polygon class="cls-3" points="729.18 938.32 727.74 938.25 727.02 948.55 728.46 948.63 729.18 938.32"/><polygon class="cls-3" points="708.56 937.23 707.12 937.15 706.39 947.46 707.83 947.54 708.56 937.23"/><polygon class="cls-3" points="687.94 936.14 686.5 936.06 685.77 946.37 687.21 946.45 687.94 936.14"/><polygon class="cls-3" points="667.32 935.04 665.89 934.97 665.16 945.28 666.6 945.35 667.32 935.04"/><polygon class="cls-3" points="646.7 933.95 645.26 933.88 644.54 944.18 645.98 944.26 646.7 933.95"/><polygon class="cls-3" points="626.08 932.86 624.64 932.78 623.91 943.09 625.35 943.17 626.08 932.86"/><polygon class="cls-3" points="605.47 931.77 604.03 931.69 603.3 942 604.74 942.08 605.47 931.77"/><polygon class="cls-3" points="584.85 930.68 583.41 930.6 582.68 940.91 584.12 940.98 584.85 930.68"/><polygon class="cls-3" points="564.22 929.58 562.78 929.51 562.06 939.81 563.5 939.89 564.22 929.58"/><polygon class="cls-3" points="543.61 928.49 542.17 928.41 541.44 938.72 542.88 938.8 543.61 928.49"/><polygon class="cls-3" points="522.99 927.4 521.55 927.32 520.82 937.63 522.26 937.71 522.99 927.4"/><polygon class="cls-3" points="502.37 926.31 500.93 926.23 500.2 936.54 501.64 936.61 502.37 926.31"/><polygon class="cls-3" points="481.75 925.21 480.31 925.14 479.58 935.45 481.02 935.52 481.75 925.21"/><polygon class="cls-3" points="461.13 924.12 459.69 924.04 458.96 934.35 460.4 934.43 461.13 924.12"/><polygon class="cls-3" points="440.51 923.03 439.07 922.95 438.34 933.26 439.78 933.34 440.51 923.03"/><polygon class="cls-3" points="419.89 921.94 418.45 921.86 417.73 932.17 419.17 932.24 419.89 921.94"/><polygon class="cls-3" points="399.27 920.84 397.83 920.77 397.11 931.08 398.54 931.15 399.27 920.84"/><polygon class="cls-3" points="1161.36 961.22 1159.92 961.14 1159.19 971.45 1160.63 971.53 1161.36 961.22"/><polygon class="cls-3" points="1140.74 960.13 1139.3 960.05 1138.57 970.36 1140.01 970.43 1140.74 960.13"/><polygon class="cls-3" points="1120.13 959.03 1118.69 958.96 1117.96 969.27 1119.4 969.34 1120.13 959.03"/><polygon class="cls-3" points="1099.5 957.94 1098.07 957.87 1097.34 968.17 1098.78 968.25 1099.5 957.94"/><polygon class="cls-3" points="1078.88 956.85 1077.44 956.77 1076.72 967.08 1078.15 967.16 1078.88 956.85"/><polygon class="cls-3" points="1058.27 955.76 1056.83 955.68 1056.1 965.99 1057.54 966.07 1058.27 955.76"/><polygon class="cls-3" points="1037.65 954.66 1036.21 954.59 1035.48 964.9 1036.92 964.97 1037.65 954.66"/><polygon class="cls-3" points="1017.02 953.57 1015.59 953.5 1014.86 963.8 1016.3 963.88 1017.02 953.57"/><polygon class="cls-3" points="996.41 952.48 994.97 952.4 994.24 962.71 995.68 962.79 996.41 952.48"/><polygon class="cls-3" points="975.79 951.39 974.35 951.31 973.62 961.62 975.06 961.7 975.79 951.39"/><polygon class="cls-3" points="955.17 950.29 953.73 950.22 953 960.53 954.44 960.6 955.17 950.29"/><polygon class="cls-3" points="934.55 949.2 933.11 949.13 932.38 959.43 933.82 959.51 934.55 949.2"/><polygon class="cls-3" points="913.93 948.11 912.49 948.03 911.76 958.34 913.2 958.42 913.93 948.11"/><polygon class="cls-3" points="893.31 947.02 891.87 946.94 891.14 957.25 892.58 957.33 893.31 947.02"/><polygon class="cls-3" points="872.69 945.93 871.25 945.85 870.53 956.16 871.97 956.23 872.69 945.93"/><polygon class="cls-3" points="852.07 944.83 850.63 944.76 849.91 955.07 851.35 955.14 852.07 944.83"/><polygon class="cls-3" points="831.45 943.74 830.01 943.66 829.28 953.97 830.72 954.05 831.45 943.74"/><polygon class="cls-3" points="810.84 942.65 809.4 942.57 808.67 952.88 810.11 952.96 810.84 942.65"/><polygon class="cls-3" points="790.21 941.56 788.77 941.48 788.05 951.79 789.49 951.86 790.21 941.56"/><path class="cls-1" d="M622.12,882.84q42,16.62,86.88,32.67,64.08,22.82,124.44,40.85h0l.6.21c.33.13.69.24,1,.37l.91.32c2.66,1,5.06,1.9,7.13,2.73.86.68,1.67,1.37,2.48,2,2.11,1.77,4.11,3.4,6.12,5,1.81,1.5,3.63,2.91,5.37,4.26,18.21,14.34,33.27,23.64,53.34,25.27,3.26.22,34.1,2.78,40.89-11.44,5-10.53-6.12-24.42-7-25.56-12.56-15.27-31.16-15.14-62.14-21.42-11.16-2.25-20.94-4.81-29.51-7.3l-.73-.2-2.55-.75c-3-.88-5.74-1.74-8.32-2.59l-1-.31-7.73-2.63L667.49,832.66c-18.29-12.1-39.51-12.2-51.63-1.56a31.52,31.52,0,0,0-10.57,22.8C605,872,621.21,882.28,622.12,882.84Z" transform="translate(-480.22 -36.72)"/><path class="cls-1" d="M852.64,930.8c-4.66,14.47-4.87,14.73-9.53,29.2-73.19-29-149.54-48.76-222.74-77.8-17.47-9.4-23.76-31.5-14.31-48.25,9.7-17.19,32.72-23,49.84-12C721.91,856.62,786.63,896.14,852.64,930.8Z" transform="translate(-480.22 -36.72)"/><path class="cls-18" d="M624.37,224.72a93.26,93.26,0,0,1,51.85,10.37c33.86,18.1,44,51.51,45.92,58.14-3.08-8.51-14.18-35.82-43.7-53.7A103.8,103.8,0,0,0,624.37,224.72Z" transform="translate(-480.22 -36.72)"/><path class="cls-1" d="M1524.92,462.52c-48.08,31.49-66.69,252.73-22,247.65,6.07,51.28,70.94,208.39,92.83,353.68-23,54.17,44.9-8.82,52.58,0,36.9-94.2,20-250.13,18.45-260.2C1651.59,702.19,1632.85,518.93,1524.92,462.52Z" transform="translate(-480.22 -36.72)"/></svg>