<?xml version="1.0" encoding="utf-8"?>
<!-- Generator: Adobe Illustrator 25.0.0, SVG Export Plug-In . SVG Version: 6.00 Build 0)  -->
<svg version="1.1" id="Layer_1" xmlns="http://www.w3.org/2000/svg" xmlns:xlink="http://www.w3.org/1999/xlink" x="0px" y="0px"
	 viewBox="0 0 300 300" style="enable-background:new 0 0 300 300;" xml:space="preserve">
<style type="text/css">
	.st0{opacity:8.000000e-02;fill:#E13856;enable-background:new    ;}
	.st1{fill:#FBA489;}
	.st2{fill:#F1856A;}
	.st3{fill:#391829;}
	.st4{fill:#FFFFFF;}
	.st5{fill:#DB675C;}
	.st6{fill:#382040;}
	.st7{fill:#E4776D;}
	.st8{fill:#CE2450;}
	.st9{fill:#E62859;}
</style>
<g>
	<g id="OBJECTS">
		<g id="Page-1">
			<g id="For-you-and-your-partner-Copy-4">
				<g id="Group-4">
					<circle id="Mask-Copy-2" class="st0" cx="150" cy="150" r="150"/>
				</g>
			</g>
		</g>
	</g>
</g>
<g>
	<path class="st1" d="M180.6,175c-4.1-0.7-7.9-1.2-11.2-1.4c-3.8-0.2-6.8-3.3-6.8-7.1v-16.4H138v16.4c0,3.7-2.9,6.9-6.6,7.1
		c-2.9,0.2-6.2,0.5-9.8,1.1l-0.4,33.4H181L180.6,175z"/>
	<path class="st2" d="M138,164.6c3.8,1.9,7.9,3.1,12.3,3.1c4.4,0,8.5-1.1,12.3-3.1v-19.5H138V164.6z"/>
	<g>
		<path class="st1" d="M129.4,125.3c0,5.9-4.4,10.7-9.9,10.7c-5.5,0-9.9-9.5-9.9-15.4c0-5.9,4.3-6.8,9.9-5.9
			C124.9,115.5,129.4,119.4,129.4,125.3z"/>
		<path class="st1" d="M171.2,125.3c0,5.9,4.4,10.7,9.9,10.7c5.5,0,9.9-9.5,9.9-15.4c0-5.9-4.3-6.8-9.9-5.9
			C175.7,115.5,171.2,119.4,171.2,125.3z"/>
	</g>
	<path class="st1" d="M181.4,95.6c-3.8-11-31.1-11.4-31.1-11.4s-27.3,0.4-31.1,11.4c-3.8,11-3.4,33.8,2.3,44.8
		c5.7,11,16.3,20.1,28.9,20.1c12.5,0,23.2-9.1,28.9-20.1C184.9,129.4,185.2,106.7,181.4,95.6z"/>
	<g>
		<path class="st3" d="M136.5,120.2c0,2.5-1.6,4.5-3.6,4.5c-2,0-3.6-2-3.6-4.5c0-2.5,1.6-4.5,3.6-4.5
			C134.9,115.6,136.5,117.7,136.5,120.2z"/>
		<path class="st3" d="M171.2,120.2c0,2.5-1.6,4.5-3.6,4.5c-2,0-3.6-2-3.6-4.5c0-2.5,1.6-4.5,3.6-4.5
			C169.6,115.6,171.2,117.7,171.2,120.2z"/>
	</g>
	<g>
		<path class="st4" d="M150.3,139.1c7.2,0,9.7,5,9.8,5.2c0.3,0.6-4.1,5.9-9.8,5.9c-5.7,0-10.1-5.3-9.8-5.9
			C140.6,144.1,143.1,139.1,150.3,139.1z"/>
	</g>
	<g>
		<path class="st5" d="M150.3,139.1c7.2,0,9.7,5,9.8,5.2c0.3,0.6-4.1,5.9-9.8,5.9c-5.7,0-10.1-5.3-9.8-5.9
			C140.6,144.1,143.1,139.1,150.3,139.1z"/>
	</g>
	<g>
		<path class="st4" d="M156.6,143.1v-2.4c-1.5-0.9-3.6-1.6-6.3-1.6c-2.8,0-4.9,0.8-6.4,1.7v2.3H156.6z"/>
	</g>
	<path class="st6" d="M127.6,88.2c1.8-0.2,3.8-0.2,5.5,0.4c1.8,0.6,3.4,2,3.7,3.8c0.5,2.4-1.1,4.6-2.6,6.6c-2.1,2.8-4.3,5.5-6.4,8.3
		c-1.5,2-3.1,3.9-4,6.2c-0.8,1.9-1.1,4-1.3,6.1c-0.3,2.8-0.4,5.6-0.4,8.5c0,0.3,0,0.6-0.1,0.9c-0.2,0.3-0.5,0.5-0.8,0.6
		c-0.9,0.5-1.8,0.9-2.8,1.4c-1.2-5.2-2.6-21.7-3.2-23.6c-1-3.3-1.7-6.7-2-10.1c-0.1-0.8-0.1-1.5,0-2.3c0.4-1.7,1.9-2.9,3.4-3.7
		C120.1,89.3,123.8,88.5,127.6,88.2z"/>
	<path class="st6" d="M166.8,75.8c-0.2,0-0.4,0.1-0.4,0.2c-0.6,0.8,0.3,3.2,0.4,4c0.2,1,2.3,7.9,0.8,8.4c-1.8,0.6-3.4,2-3.7,3.8
		c-0.5,2.4,1.1,4.6,2.6,6.6c2.1,2.8,4.3,5.5,6.4,8.3c1.5,2,3.1,3.9,4,6.2c0.8,1.9,1.1,4,1.3,6.1c0.3,2.8,0.4,5.6,0.4,8.5
		c0,0.3,0,0.6,0.1,0.9c0.2,0.3,0.5,0.5,0.8,0.6c0.9,0.5,1.8,0.9,2.8,1.4c0,0,0.1-0.2,0.1-0.2c1.3-6.2,1.7-12.7,2.5-19
		c0.4-3.2,0.3-6.3,1.3-9.3c1.6-4.7,2.8-9.7,2.1-14.8c-0.3-1.9-0.8-3.7-1.9-5.3c-1.4-2-3.6-3.3-5.9-4.1c-2.3-0.8-4.7-1.1-7.1-1.4
		C172.1,76.6,168.2,75.5,166.8,75.8z"/>
	<path class="st6" d="M170.1,71.7c-3.7-4.2-7.7-8.6-12.9-10.5c-6.1-2.3-12.9-0.9-19.2,0.6c-3.5,0.9-7.1,1.9-10,4.1
		c-3.1,2.3-5.1,5.8-7.8,8.7c-2.6,2.9-6.6,5.2-10.3,4.1c-0.3,3-0.5,6.1,0.2,9c1.5,6.6,7.1,11.6,13.5,13.8c6.3,2.2,13.3,2,19.9,0.9
		c6.5-1.1,13.1-3,18.3-7.2c4.5-3.6,7.6-8.6,9.8-13.9c0.8-1.9,1.5-3.9,0.9-5.9C172.1,74,171.1,72.9,170.1,71.7z"/>
	<path class="st7" d="M150.3,132c-1.9,0-3.5-0.9-4.1-2c-0.1,0.3-0.3,0.5-0.3,0.8c0,1.6,1.9,2.8,4.3,2.8c2.4,0,4.3-1.3,4.3-2.8
		c0-0.3-0.1-0.6-0.3-0.8C153.8,131.1,152.2,132,150.3,132z"/>
	<path class="st8" d="M114.2,299h72.2c-0.4-8.2-0.6-28.6-0.1-37.8c1-19.3,16.7-78.6,16.7-78.6c-15.7-6.7-23.9-8.4-33.5-9
		c-1.7,3.9-9.6,6.9-19.2,6.9c-9.6,0-17.5-3-19.2-6.9c-9.6,0.6-19,3.1-34.7,9.8c0,0,16.8,58.5,17.9,77.8
		C114.8,270.4,114.6,290.8,114.2,299z"/>
	<g>
		<path class="st6" d="M128,115.1c-0.2,0.1-0.5,0-0.7-0.1c-0.4-0.3-0.6-0.8-0.3-1.3c0-0.1,4-6.3,11.7-4.2c0.5,0.1,0.8,0.7,0.6,1.1
			c-0.1,0.5-0.6,0.8-1.1,0.6c-6.4-1.8-9.6,3.3-9.6,3.3C128.5,114.9,128.3,115,128,115.1z"/>
	</g>
	<g>
		<path class="st6" d="M172.2,115.5c-0.2-0.1-0.4-0.2-0.5-0.5c-0.1-0.2-2.8-5.4-9.3-4.3c-0.5,0.1-1-0.2-1.1-0.8
			c-0.1-0.5,0.3-1,0.8-1.1c7.9-1.4,11.2,5.2,11.3,5.3c0.2,0.5,0,1-0.4,1.2C172.7,115.6,172.4,115.6,172.2,115.5z"/>
	</g>
	<g>
		<path class="st9" d="M78.1,274.3c5.3,0.6,15-4.6,15.3-5.6c0.7-2,1.2-4.1,1.5-6.2c1.6-9.8,9.5-39.9,10.4-42.5
			c5-14.3,3.7-38.8,1.3-39.1c-5.5-0.6-19.1,4.4-22.9,18.6c-4,14.9-16.5,50.8-18.9,59.1c-0.4,1.5,2.3-0.3,2.1,1.2
			c-0.3,2.1-0.6,4.6-0.8,7.5C67.5,272.9,72.9,273.7,78.1,274.3z"/>
	</g>
	<g>
		<path class="st1" d="M164.4,216.1c-0.1-0.1-0.2-0.2-0.3-0.2c-1.4-0.8-6.5,5.6-6.5,4.9c0-0.6,5.6-4.9,7.4-9.9
			c0.4-1,0.7-3.2-0.7-3.5c-1.2-0.3-2.1,0.7-2.7,1.5c-0.6,0.9-2.6,4.4-2.6,4.3c0.2-0.3-3.1,3.7-3.1,3.7c-0.1-0.3,1-1.7,1.4-2.1
			c0.5-0.7,0.9-1.3,1.4-2c0.9-1.3,1.7-2.7,2.4-4c0.7-1.4,1.4-2.8,1.7-4.4c0.3-2.4-2.1-5.4-3.6-2.8c-1,1.8-1.4,3.8-3.1,6.9
			c-0.3,0.6-2.5,5.1-2.6,5c-0.1-0.1,1.3-3,1.7-3.7c0.6-1.4,1.9-4.5,1.8-7.5c0-2.1-3.1-2.5-3.8-0.9c-0.6,1.3-0.9,2.7-1.2,4.1
			c-0.6,2.5-2,4.7-3.7,6.7c-1.8,2.2-3.7,3.3-6.3,2.9c-2.8-0.4-2.4-1.7-0.6-4.2c1-1.4,3.3-3,3.8-4.9c0.5-2.4-3.4-2.3-5-0.6
			c-1.9,2.1-3.8,3.5-4.9,5.2c-2.4,3.8-3.5,7-6.3,10.6c-0.9,1.2-1.9,1.9-2.9,2.5c-0.1,0.1-0.9,0.5-2.1,1.1c-1,3.6-1,7.7-0.8,11.5
			c4.1-2.5,7.8-4.7,10.6-6.3c0.7,0.1,1.5-0.9,2.2-1c2-0.4,3.5,0,5.5,0.5c3.9,0.9,7.2,0,10.7-1.6c2.5-1.2,4.1-2.2,6.8-4.3
			C161.6,221.7,166,217.6,164.4,216.1z"/>
		<path class="st9" d="M82.4,278.8c1.6-0.5,3.1-1.4,4.6-2.3c17.6-10.3,48.2-35.1,55.5-39.9c0,0-8-15.4-12.4-18.9
			c-10.7,7-44.6,23.8-55.6,29.8c-2.1,1.1-3.7,2.8-5.4,4.4C57,263.6,68.4,283.1,82.4,278.8z"/>
	</g>
	<path class="st9" d="M194.3,299.9c1.6-13.8,1.3-25.5,2.7-44.1c0.2-2.9-0.4-32.8-1-36c-3.1-14.4-0.7-37.5,3.6-37.9
		c5.4-0.5,15.3,6.7,17.3,21c2.3,17.1,7.2,39.6,6.2,52.2c-2.2,28.3-3.7,44.8-3.7,44.8H194.3z"/>
	<g>
		<g>
			<path class="st6" d="M89.1,168.2c-0.5,0-1-0.3-1.2-0.8c-0.3-0.7,0-1.4,0.7-1.7l16.3-7.1c0.7-0.3,1.4,0,1.7,0.7
				c0.3,0.7,0,1.4-0.7,1.7l-16.3,7.1C89.4,168.2,89.2,168.2,89.1,168.2z"/>
		</g>
		<g>
			<path class="st6" d="M81.1,170.4c4.3-0.2,10,0.1,13.9,1.4l-5-5.3l-0.5-7.2C87.9,163,84.3,167.4,81.1,170.4z"/>
		</g>
	</g>
	<g>
		<g>
			<path class="st6" d="M76,158.8c-0.5,0-1-0.3-1.2-0.8c-0.3-0.7,0-1.4,0.7-1.7l16.3-7.1c0.7-0.3,1.4,0,1.7,0.7
				c0.3,0.7,0,1.4-0.7,1.7l-16.3,7.1C76.4,158.8,76.2,158.8,76,158.8z"/>
		</g>
		<g>
			<path class="st6" d="M100.2,147c-4.3,0.2-10-0.1-13.9-1.4l5,5.3l0.5,7.2C93.5,154.3,97.1,150,100.2,147z"/>
		</g>
	</g>
</g>
</svg>
