<?xml version="1.0" encoding="utf-8"?>
<!-- Generator: Adobe Illustrator 25.0.0, SVG Export Plug-In . SVG Version: 6.00 Build 0)  -->
<svg version="1.1" id="Layer_1" xmlns="http://www.w3.org/2000/svg" xmlns:xlink="http://www.w3.org/1999/xlink" x="0px" y="0px"
	 viewBox="0 0 299 299" style="enable-background:new 0 0 299 299;" xml:space="preserve">
<style type="text/css">
	.st0{opacity:7.703218e-02;fill-rule:evenodd;clip-rule:evenodd;fill:#E13856;enable-background:new    ;}
	.st1{opacity:0.99;}
	.st2{fill:#98BAF4;}
	.st3{fill:#EDF4FF;}
	.st4{fill:#EBF3FF;}
	.st5{fill:#FFFFFF;}
	.st6{fill:#7CAAED;}
	.st7{fill:#AFCDFB;}
	.st8{fill:#7FA8E5;}
	.st9{fill:#DFEBFD;}
	.st10{fill:#CCE1FF;}
	.st11{fill:#BDD7FD;}
	.st12{opacity:0.5;}
	.st13{fill:#D4E6FF;}
	.st14{fill:#ACD29A;}
	.st15{fill:#233862;}
	.st16{opacity:0.3;}
	.st17{fill:#172944;}
	.st18{fill:#2B478B;}
	.st19{fill:#A8302D;}
	.st20{fill:#A2C2DD;}
	.st21{fill:#EA6A60;}
	.st22{fill:#4D4F4E;}
	.st23{opacity:0.35;fill:#4D4F4E;}
	.st24{fill:#2F3030;}
	.st25{fill:#1D1918;}
	.st26{fill:#252626;}
	.st27{fill:url(#SVGID_1_);}
	.st28{fill:#A2ECF5;}
	.st29{opacity:0.64;fill:#3E403F;}
	.st30{fill:#696B6A;}
	.st31{clip-path:url(#SVGID_3_);}
	.st32{fill:url(#SVGID_4_);}
	.st33{opacity:0.35;fill:url(#SVGID_5_);}
	.st34{opacity:0.35;fill:url(#SVGID_6_);}
	.st35{fill:url(#SVGID_7_);}
	.st36{fill:url(#SVGID_8_);}
	.st37{opacity:0.35;fill:#F46C57;}
	.st38{fill:url(#SVGID_9_);}
	.st39{fill:url(#SVGID_10_);}
	.st40{fill:url(#SVGID_11_);}
	.st41{fill:url(#SVGID_12_);}
	.st42{fill:#FFBB8E;}
	.st43{opacity:0.5;fill:#F7C3AE;}
	.st44{opacity:0.35;fill:#F7C3AE;}
	.st45{opacity:0.35;}
	.st46{fill:#F7C3AE;}
	.st47{fill:#A83A01;}
	.st48{opacity:0.2;fill:#FFBB8E;}
	.st49{fill:#1F1715;}
	.st50{fill:#673101;}
	.st51{fill:url(#SVGID_13_);}
	.st52{fill:#E37D4D;}
	.st53{fill:#3E403F;}
	.st54{opacity:0.5;fill:#A2ECF5;}
	.st55{fill:url(#SVGID_14_);}
	.st56{fill:url(#SVGID_15_);}
	.st57{fill:#FF8F7D;}
	.st58{opacity:0.35;fill:url(#SVGID_16_);}
	.st59{fill:url(#SVGID_17_);}
	.st60{fill:url(#SVGID_18_);}
	.st61{opacity:0.24;fill:#991F1F;}
	.st62{fill:url(#SVGID_19_);}
	.st63{fill:#FF7761;}
	.st64{fill:url(#SVGID_20_);}
	.st65{fill:url(#SVGID_21_);}
	.st66{fill:url(#SVGID_22_);}
	.st67{fill:url(#SVGID_23_);}
	.st68{fill:url(#SVGID_24_);}
	.st69{fill:#ED4D32;}
	.st70{fill:#D4442D;}
	.st71{fill:#474747;}
	.st72{fill:#383838;}
	.st73{fill:#545454;}
	.st74{fill:url(#SVGID_25_);}
	.st75{fill:url(#SVGID_26_);}
	.st76{opacity:0.35;fill:url(#SVGID_27_);}
	.st77{fill:#48494F;}
	.st78{fill:#DEDEDE;}
	.st79{fill:#BDBDBD;}
	.st80{opacity:0.19;fill:url(#SVGID_28_);}
	.st81{fill:#8ECF84;}
	.st82{opacity:0.35;fill:#B4E6FF;}
	.st83{fill:#6B9C63;}
	.st84{opacity:0.35;fill:#FFBB8E;}
	.st85{fill:#7595A6;}
	.st86{fill:#612000;}
	.st87{fill:#301700;}
	.st88{fill:#752700;}
	.st89{opacity:0.35;fill:#752700;}
	.st90{fill:url(#SVGID_29_);}
	.st91{opacity:0.35;fill:url(#SVGID_30_);}
	.st92{opacity:0.53;fill:#80BBC2;}
	.st93{fill:#575958;}
	.st94{fill:#FFA854;}
	.st95{opacity:0.35;fill:#FF9126;}
	.st96{fill:url(#SVGID_31_);}
	.st97{fill:url(#SVGID_32_);}
	.st98{fill:url(#SVGID_33_);}
	.st99{fill:url(#SVGID_34_);}
	.st100{fill:url(#SVGID_35_);}
	.st101{fill:url(#SVGID_36_);}
	.st102{fill:url(#SVGID_37_);}
	.st103{fill:url(#SVGID_38_);}
	.st104{fill:url(#SVGID_39_);}
	.st105{fill:url(#SVGID_40_);}
</style>
<circle id="Mask-Copy-2_1_" class="st0" cx="149.5" cy="149.5" r="149.5"/>
<g class="st1">
	<g>
		<rect x="194.5" y="80.2" class="st2" width="89.3" height="110"/>
	</g>
	<g>
		<rect x="203.4" y="85.5" class="st3" width="80.4" height="12"/>
	</g>
	<g>
		<rect x="137.2" y="105.3" class="st4" width="100.8" height="85.2"/>
	</g>
	<g>
		<rect x="134.7" y="102.2" class="st5" width="104.9" height="3.1"/>
	</g>
	<g>
		<rect x="192.7" y="78.6" class="st5" width="92.7" height="3.1"/>
	</g>
	<g>
		<rect x="137.2" y="113" class="st6" width="65.2" height="15.8"/>
	</g>
	<g>
		<rect x="76.4" y="115.4" class="st7" width="60.9" height="33.8"/>
	</g>
	<g>
		<rect x="76.4" y="156.1" class="st7" width="60.9" height="33.8"/>
	</g>
	<g>
		<rect x="84.8" y="149.1" class="st8" width="52.4" height="7"/>
	</g>
	<g>
		<g>
			<path class="st5" d="M156.3,118.1h1.2v2.2h2.2v-2.2h1.2v5.5h-1.2v-2.2h-2.2v2.2h-1.2V118.1z"/>
		</g>
		<g>
			<path class="st5" d="M162.1,120.9c0-1.6,1.2-2.8,2.9-2.8c1.7,0,2.9,1.3,2.9,2.8c0,1.6-1.2,2.8-2.9,2.8
				C163.3,123.7,162.1,122.5,162.1,120.9z M166.7,120.9c0-0.9-0.7-1.7-1.7-1.7c-1,0-1.7,0.8-1.7,1.7c0,0.9,0.7,1.7,1.7,1.7
				C166,122.6,166.7,121.8,166.7,120.9z"/>
		</g>
		<g>
			<path class="st5" d="M168.6,122.8l0.7-0.9c0.5,0.4,1,0.7,1.6,0.7c0.5,0,0.8-0.2,0.8-0.5c0-0.3-0.2-0.5-1.1-0.7
				c-1.1-0.3-1.8-0.6-1.8-1.7c0-1,0.8-1.7,1.9-1.7c0.8,0,1.5,0.3,2,0.7l-0.6,0.9c-0.5-0.3-1-0.5-1.4-0.5c-0.5,0-0.7,0.2-0.7,0.5
				c0,0.4,0.2,0.5,1.2,0.7c1.1,0.3,1.7,0.7,1.7,1.7c0,1.1-0.8,1.7-2,1.7C170.1,123.7,169.3,123.4,168.6,122.8z"/>
		</g>
		<g>
			<path class="st5" d="M174,118.1h2.3c1.3,0,2.1,0.8,2.1,1.9c0,1.3-1,1.9-2.2,1.9h-0.9v1.7H174V118.1z M176.2,120.9
				c0.6,0,1-0.4,1-0.9c0-0.5-0.4-0.8-1-0.8h-0.9v1.7H176.2z"/>
		</g>
		<g>
			<path class="st5" d="M179.3,118.1h1.2v5.5h-1.2V118.1z"/>
		</g>
		<g>
			<path class="st5" d="M183.2,119.3h-1.7v-1.1h4.6v1.1h-1.7v4.4h-1.2V119.3z"/>
		</g>
		<g>
			<path class="st5" d="M188.2,118.1h1.1l2.4,5.5h-1.3l-0.5-1.2h-2.3l-0.5,1.2h-1.2L188.2,118.1z M189.5,121.3l-0.7-1.8l-0.7,1.8
				H189.5z"/>
		</g>
		<g>
			<path class="st5" d="M192.5,118.1h1.2v4.4h2.7v1.1h-4V118.1z"/>
		</g>
	</g>
	<g>
		<rect x="243.1" y="149.7" class="st7" width="40.7" height="26.8"/>
	</g>
	<g>
		<rect x="243.1" y="110.2" class="st7" width="40.7" height="26.8"/>
	</g>
	<g>
		<rect x="204.2" y="86.2" class="st7" width="79.5" height="10.6"/>
	</g>
	<g>
		<polygon class="st9" points="137.2,106.3 238,109.4 238,105.3 137.2,105.3 		"/>
	</g>
	<g>
		<rect x="72.6" y="115.2" class="st5" width="64.7" height="3.3"/>
	</g>
	<g>
		<g>
			<rect x="152.9" y="152.6" class="st2" width="70.8" height="37"/>
		</g>
		<g>
			<rect x="155.3" y="155.2" class="st5" width="66.4" height="34.5"/>
		</g>
		<g>
			<rect x="157.8" y="157.4" class="st7" width="61.5" height="7.9"/>
		</g>
		<g>
			<rect x="157.8" y="167.5" class="st7" width="18" height="22.1"/>
		</g>
		<g>
			<rect x="177.5" y="167.5" class="st7" width="22.1" height="22.1"/>
		</g>
		<g>
			<rect x="201.1" y="167.5" class="st7" width="18.2" height="22.1"/>
		</g>
		<g>
			<polygon class="st10" points="184.8,167.5 199.6,167.5 199.6,175.7 197,189.6 180.5,189.6 			"/>
		</g>
		<g>
			<g>
				<g>
					<rect x="180.4" y="171.7" class="st5" width="16.5" height="17.9"/>
				</g>
				<g>
					<rect x="181.2" y="172.5" class="st2" width="15" height="17.1"/>
				</g>
				<g>
					<rect x="188.4" y="172.5" class="st5" width="0.6" height="17.1"/>
				</g>
			</g>
			<g>
				<g>
					<path class="st5" d="M187.1,181.1c0-0.2,0.2-0.4,0.4-0.4s0.4,0.2,0.4,0.4c0,0.2-0.2,0.4-0.4,0.4S187.1,181.2,187.1,181.1z"/>
				</g>
				<g>
					<path class="st5" d="M189.6,181.1c0-0.2,0.2-0.4,0.4-0.4s0.4,0.2,0.4,0.4c0,0.2-0.2,0.4-0.4,0.4S189.6,181.2,189.6,181.1z"/>
				</g>
			</g>
		</g>
		<g>
			<polygon class="st10" points="163.5,167.5 172.6,167.5 169.7,189.6 160.6,189.6 			"/>
		</g>
		<g>
			<polygon class="st10" points="174,157.4 172.9,165.3 163.8,165.3 164.9,157.4 			"/>
		</g>
		<g>
			<polygon class="st10" points="205.5,167.5 214.6,167.5 211.7,189.6 202.5,189.6 			"/>
		</g>
		<g>
			<polygon class="st10" points="215.9,157.4 214.8,165.3 205.7,165.3 206.8,157.4 			"/>
		</g>
		<g>
			<polygon class="st10" points="203.1,157.4 201.6,165.3 185.2,165.3 186.7,157.4 			"/>
		</g>
	</g>
	<g>
		<polygon class="st10" points="201.2,169.1 201.2,169.1 201.2,169.3 		"/>
	</g>
	<g>
		<polygon class="st11" points="262.1,137.1 248.7,137.1 254.5,110.2 268,110.2 		"/>
	</g>
	<g>
		<polygon class="st10" points="274,176.6 260.6,176.6 266.5,149.7 279.9,149.7 		"/>
	</g>
	<g>
		<polygon class="st10" points="254.9,149.7 249,176.6 243.1,176.6 243.1,149.7 		"/>
	</g>
	<g>
		<polygon class="st10" points="283.8,110.2 283.8,137.1 269,137.1 275.5,110.2 		"/>
	</g>
	<g>
		<rect x="223.7" y="86.2" class="st3" width="1.1" height="10.6"/>
	</g>
	<g>
		<rect x="246.3" y="86.2" class="st3" width="1.1" height="10.6"/>
	</g>
	<g>
		<rect x="268.4" y="86.2" class="st3" width="1.1" height="10.6"/>
	</g>
	<g class="st12">
		<g>
			<g>
				<rect x="83.5" y="127.5" class="st2" width="6.7" height="10.6"/>
			</g>
			<g>
				<g>
					<g>
						<path class="st5" d="M90.5,138.5h-7.4v-11.3h7.4V138.5z M83.8,137.8h6.1v-10h-6.1V137.8z"/>
					</g>
				</g>
				<g>
					<rect x="83.7" y="131" class="st5" width="6.2" height="0.5"/>
				</g>
				<g>
					<rect x="83.7" y="134.6" class="st5" width="6.2" height="0.5"/>
				</g>
				<g>
					
						<rect x="81.5" y="132.5" transform="matrix(-1.836970e-16 1 -1 -1.836970e-16 219.5739 45.9648)" class="st5" width="10.7" height="0.5"/>
				</g>
			</g>
		</g>
		<g>
			<g>
				<rect x="103" y="127.5" class="st2" width="6.7" height="10.6"/>
			</g>
			<g>
				<g>
					<g>
						<path class="st5" d="M110,138.5h-7.4v-11.3h7.4V138.5z M103.2,137.8h6.1v-10h-6.1V137.8z"/>
					</g>
				</g>
				<g>
					<rect x="103.2" y="131" class="st5" width="6.2" height="0.5"/>
				</g>
				<g>
					<rect x="103.2" y="134.6" class="st5" width="6.2" height="0.5"/>
				</g>
				<g>
					
						<rect x="100.9" y="132.5" transform="matrix(-1.836970e-16 1 -1 -1.836970e-16 239.0392 26.4995)" class="st5" width="10.7" height="0.5"/>
				</g>
			</g>
		</g>
		<g>
			<g>
				<rect x="122.4" y="127.5" class="st2" width="6.7" height="10.6"/>
			</g>
			<g>
				<g>
					<g>
						<path class="st5" d="M129.4,138.5H122v-11.3h7.4V138.5z M122.7,137.8h6.1v-10h-6.1V137.8z"/>
					</g>
				</g>
				<g>
					<rect x="122.6" y="131" class="st5" width="6.2" height="0.5"/>
				</g>
				<g>
					<rect x="122.6" y="134.6" class="st5" width="6.2" height="0.5"/>
				</g>
				<g>
					
						<rect x="120.4" y="132.5" transform="matrix(-1.836970e-16 1 -1 -1.836970e-16 258.5044 7.0343)" class="st5" width="10.7" height="0.5"/>
				</g>
			</g>
		</g>
	</g>
	<g class="st12">
		<g>
			<g>
				<rect x="83.5" y="164" class="st2" width="6.7" height="10.6"/>
			</g>
			<g>
				<g>
					<g>
						<path class="st5" d="M90.5,174.9h-7.4v-11.3h7.4V174.9z M83.8,174.3h6.1v-10h-6.1V174.3z"/>
					</g>
				</g>
				<g>
					<rect x="83.7" y="167.5" class="st5" width="6.2" height="0.5"/>
				</g>
				<g>
					<rect x="83.7" y="171.1" class="st5" width="6.2" height="0.5"/>
				</g>
				<g>
					
						<rect x="81.5" y="169" transform="matrix(-1.836970e-16 1 -1 -1.836970e-16 256.0593 82.4503)" class="st5" width="10.7" height="0.5"/>
				</g>
			</g>
		</g>
		<g>
			<g>
				<rect x="103" y="164" class="st2" width="6.7" height="10.6"/>
			</g>
			<g>
				<g>
					<g>
						<path class="st5" d="M110,174.9h-7.4v-11.3h7.4V174.9z M103.2,174.3h6.1v-10h-6.1V174.3z"/>
					</g>
				</g>
				<g>
					<rect x="103.2" y="167.5" class="st5" width="6.2" height="0.5"/>
				</g>
				<g>
					<rect x="103.2" y="171.1" class="st5" width="6.2" height="0.5"/>
				</g>
				<g>
					
						<rect x="100.9" y="169" transform="matrix(-1.836970e-16 1 -1 -1.836970e-16 275.5246 62.985)" class="st5" width="10.7" height="0.5"/>
				</g>
			</g>
		</g>
		<g>
			<g>
				<rect x="122.4" y="164" class="st2" width="6.7" height="10.6"/>
			</g>
			<g>
				<g>
					<g>
						<path class="st5" d="M129.4,174.9H122v-11.3h7.4V174.9z M122.7,174.3h6.1v-10h-6.1V174.3z"/>
					</g>
				</g>
				<g>
					<rect x="122.6" y="167.5" class="st5" width="6.2" height="0.5"/>
				</g>
				<g>
					<rect x="122.6" y="171.1" class="st5" width="6.2" height="0.5"/>
				</g>
				<g>
					
						<rect x="120.4" y="169" transform="matrix(-1.836970e-16 1 -1 -1.836970e-16 294.9898 43.5198)" class="st5" width="10.7" height="0.5"/>
				</g>
			</g>
		</g>
	</g>
	<g>
		<rect x="135.7" y="141.4" class="st13" width="105.4" height="3.7"/>
	</g>
	<g>
		<rect x="149.9" y="188.8" class="st8" width="78.7" height="1.6"/>
	</g>
	<g>
		<path class="st14" d="M147.9,190.5c0,0-0.4-3.9,3.5-4.9c3.9-1,5.5-4.5,10-1.5c4.6,2.9,3.1,6.4,3.1,6.4H147.9z"/>
	</g>
</g>
<g>
	<g>
		<g>
			<path class="st15" d="M283.8,185.9v1.8c0,0.2,0,0.3-0.1,0.5c-0.2,0.3-0.5,0.6-0.9,0.6h-0.3c-0.6,0-1-0.5-1-1v-1.8
				c0-0.2,0.1-0.4,0.1-0.5c0,0,0,0,0,0c0.2-0.3,0.5-0.5,0.9-0.5h0.3C283.4,184.9,283.8,185.3,283.8,185.9z"/>
		</g>
		<g class="st16">
			<path class="st15" d="M283.7,188.2c-0.2,0.3-0.5,0.6-0.9,0.6h-0.3c-0.6,0-1-0.5-1-1v-1.8c0-0.2,0.1-0.4,0.1-0.5
				C281.6,185.5,282,188,283.7,188.2z"/>
		</g>
	</g>
	<g>
		<polygon class="st17" points="267.5,199.4 272.6,199.4 272.6,194.2 267.3,194.2 		"/>
	</g>
	<g>
		<path class="st5" d="M283.5,188.5l-25,0.6v-13.2H275c1.6,0,3,0.9,3.7,2.3l1.1,2.1L283.5,188.5z"/>
	</g>
	<g>
		<path class="st15" d="M269.3,198.5c0,1.4,0.7,2.9,0.7,2.9s1.1,0,1.2,0c1.1,0,1.9-1.3,1.9-2.9c0-1.6-2.1-2.9-3.2-2.9
			S269.3,196.9,269.3,198.5z"/>
	</g>
	<g>
		<ellipse class="st18" cx="270" cy="198.5" rx="1.9" ry="2.9"/>
	</g>
	<g>
		<ellipse class="st7" cx="270.1" cy="198.5" rx="1.5" ry="2.2"/>
	</g>
	<g>
		<path class="st15" d="M283.3,198.5c0,1.4,0.7,2.9,0.7,2.9s1.1,0,1.2,0c1.1,0,1.9-1.3,1.9-2.9c0-1.6-2.1-2.9-3.2-2.9
			C283,195.6,283.3,196.9,283.3,198.5z"/>
	</g>
	<g>
		<path class="st18" d="M282.1,198.5c0,1.6,0.9,2.9,1.9,2.9c1.1,0,1.9-1.3,1.9-2.9c0-1.6-0.9-2.9-1.9-2.9
			C283,195.6,282.1,196.9,282.1,198.5z"/>
	</g>
	<g>
		<path class="st15" d="M251.1,198.5c0,1.4,0.7,2.9,0.7,2.9s1.1,0,1.2,0c1.1,0,1.9-1.3,1.9-2.9c0-1.6-2.1-2.9-3.2-2.9
			C250.8,195.6,251.1,196.9,251.1,198.5z"/>
	</g>
	<g>
		<path class="st18" d="M249.9,198.5c0,1.6,0.9,2.9,1.9,2.9c1.1,0,1.9-1.3,1.9-2.9c0-1.6-0.9-2.9-1.9-2.9
			C250.8,195.6,249.9,196.9,249.9,198.5z"/>
	</g>
	<g>
		<path class="st5" d="M289.2,197.1c0,1.2-0.9,1.7-2.2,1.7l-13.8,0.1c0-0.2-0.6-0.1-0.6-0.4c0-1.9-1.1-3.4-2.5-3.4
			c-1.4,0-2.7,1-2.7,2.9c0,0.3-0.3,0.6-0.3,0.9l-7.4-0.6c0,0-0.8-2.7-0.8-4.6c0-1.6,0-4.8-0.1-5.6c0-0.1,8.1-0.1,10.1-0.1
			c0.3,0,0.4,0,0.5,0l0,0l0,0c0.4,0.3,2.5,1.7,3.8,2.6c1.2,0.8,9.7,1.1,13,1.2c0.8,0,1.3,0,1.3,0s0.5,0.5,0.9,1.2
			c0.3,0.6,0.6,1.3,0.6,2.1c0,0.5,0,1.1,0,1.7C289.2,196.9,289.2,197,289.2,197.1z"/>
	</g>
	<g>
		<path class="st2" d="M281.5,188h-11.3c-0.3,0-0.5-0.2-0.6-0.4l-2.8-6.2c-0.1-0.2,0.1-0.4,0.3-0.4H279c0.3,0,0.5,0.2,0.6,0.4l2,4.6
			l0.5,1.1C282.3,187.5,282,188,281.5,188z"/>
	</g>
	<g>
		<path class="st9" d="M276.3,196.8c0,0.2,0,0.4,0,0.5c-0.1,1.1-1.2,2-1.2,2h-2.5c0-0.2,0.1-0.5,0.1-0.7c0-0.6-0.1-1.3-0.4-1.8
			c-0.4-1-1.3-1.7-2.2-1.7c-0.9,0-1.7,0.7-2.2,1.7c-0.2,0.5-0.8,1.1-0.8,1.7c0,0.3-0.2,0.3-0.2,0.5l-8.5,0.3v-23.5h7.3l0,4.4
			c0,0,0.1,0.7,0.4,1.2c0.2,0.5,0.5,1.2,0.8,2c0.7,1.6,1.4,3.4,1.9,4.5c0.2,0.6,0.4,1,0.5,1c0.1,0.3,2.2,1.4,3.9,2.3
			c0.4,0.2,0.8,0.5,1.2,0.7c0.5,0.3,0.9,0.6,1.1,0.7C276.1,193.2,276.3,195.4,276.3,196.8z"/>
	</g>
	<g>
		<polygon class="st5" points="287.7,191.8 274.4,191.8 269.5,188 269.5,188 282.9,188 286.7,191.1 		"/>
	</g>
	<g>
		<path class="st19" d="M276.1,194.1l-1.2-0.1c-0.4,0-0.8-0.4-0.8-0.8l-0.3-1.5c0,0,0,0,0-0.1c0.9,0.5,1.6,0.9,1.9,1.2
			C275.8,192.9,276,193.4,276.1,194.1z"/>
	</g>
	<g>
		<path class="st5" d="M279.7,180.3h-13.9c0,0-0.1-0.9-0.4-1.9c-0.3-0.9-0.8-1.9-1.8-2.5H275c1.9,0,3.5,1,4.1,2.5
			c0,0.1,0.1,0.1,0.1,0.2C279.4,179.1,279.6,179.6,279.7,180.3z"/>
	</g>
	<g>
		<path class="st20" d="M276.1,194.1l-1.2-0.1c-0.4,0-0.8-0.4-0.8-0.8l-0.3-1.5c0,0,0,0,0-0.1c0.9,0.5,1.6,0.9,1.9,1.2
			C275.8,192.9,276,193.4,276.1,194.1z"/>
	</g>
	<g>
		<path class="st15" d="M289.2,197.1c0,1.2-0.7,2.3-2.3,2.3l-14.4,0c0-0.2,0.2-0.6,0.2-0.8c0-0.6-0.1-1.2-0.3-1.7h16.9
			C289.2,196.9,289.2,197,289.2,197.1z"/>
	</g>
	<g>
		<path class="st15" d="M267.5,198.6c0,0.3,0,0.5,0.1,0.7h-9.1v-2.5h9.4C267.7,197.4,267.5,198,267.5,198.6z"/>
	</g>
	<g>
		<path class="st15" d="M279.8,191.9h5.5c0.2,0,0.3,0.2,0.3,0.5l-0.2,1.9c0,0.3-0.2,0.5-0.4,0.5h-4.5c-0.3,0-0.5-0.3-0.6-0.7
			l-0.3-1.6C279.4,192.2,279.6,191.9,279.8,191.9z"/>
	</g>
	<g>
		<path class="st7" d="M281.6,185.9c-6.4-0.3-10.8-3.8-12.1-5h9.5c0.3,0,0.5,0.2,0.6,0.4L281.6,185.9z"/>
	</g>
	<g>
		<polygon class="st5" points="261.1,175.9 261.1,198.2 236.7,198.5 236.7,175.9 		"/>
	</g>
	<g>
		<path class="st9" d="M279.7,180.3h-13.9c0,0-0.1-0.9-0.4-1.9h13.7c0,0.1,0.1,0.1,0.1,0.2C279.4,179.1,279.6,179.6,279.7,180.3z"/>
	</g>
	<g>
		<path class="st15" d="M288.6,193c-0.1,0.1-0.2,0.2-0.3,0.2l-1.9,0.3c-0.2,0-0.3-0.2-0.2-0.5l0.2-1.3l0,0l0-0.3
			c0-0.2,0.1-0.4,0.2-0.4l0.1,0l1,0.8C287.7,191.8,288.1,192.3,288.6,193z"/>
	</g>
	<g>
		<rect x="236.7" y="191.3" class="st21" width="38.9" height="2"/>
	</g>
	<g>
		<rect x="236.7" y="180" class="st21" width="24.3" height="2"/>
	</g>
	<g>
		<g>
			<path class="st21" d="M245.4,186.6c0-1.9,1.6-3.5,3.5-3.5c1.9,0,3.5,1.6,3.5,3.5c0,1.9-1.6,3.5-3.5,3.5
				C247,190.1,245.4,188.5,245.4,186.6z"/>
		</g>
		<g>
			<g>
				<g>
					<g>
						<path class="st5" d="M248.9,189.7c-0.8,0-1.6-0.3-2.2-0.9c-0.6-0.6-0.9-1.3-0.9-2.2c0-0.8,0.3-1.6,0.9-2.2
							c0.6-0.6,1.3-0.9,2.2-0.9c0.8,0,1.6,0.3,2.2,0.9c0.6,0.6,0.9,1.3,0.9,2.2c0,0.8-0.3,1.6-0.9,2.2
							C250.5,189.3,249.7,189.7,248.9,189.7z M248.9,183.8c-0.7,0-1.4,0.3-2,0.8c-0.5,0.5-0.8,1.2-0.8,2c0,0.7,0.3,1.4,0.8,2
							c0.5,0.5,1.2,0.8,2,0.8c0.7,0,1.4-0.3,2-0.8c0.5-0.5,0.8-1.2,0.8-2c0-0.7-0.3-1.4-0.8-2C250.4,184.1,249.7,183.8,248.9,183.8z
							"/>
					</g>
				</g>
				<g>
					<polygon class="st5" points="250.9,186.1 249.4,186.1 249.4,184.6 248.4,184.6 248.4,186.1 246.9,186.1 246.9,187.1 
						248.4,187.1 248.4,188.6 249.4,188.6 249.4,187.1 250.9,187.1 					"/>
				</g>
			</g>
		</g>
	</g>
	<g>
		<path class="st15" d="M278.4,194.3l-2.3-0.2h0l-1.2-0.1c-0.4,0-0.8-0.4-0.8-0.8l-0.3-1.5c0,0,0,0,0-0.1v0c0-0.3,0.3-0.6,0.6-0.5
			l3.6,0.7c0.2,0,0.4,0.2,0.5,0.4l0.4,1.5C278.9,194.1,278.7,194.3,278.4,194.3z"/>
	</g>
	<g>
		<path class="st2" d="M265.9,182.1l2.4,5.9h-4.1c0,0-0.8-0.1-1-1.9c-0.1-1.8-0.1-5-0.1-5l1.8,0
			C265.6,181.2,265.7,181.6,265.9,182.1z"/>
	</g>
	<g>
		<path class="st15" d="M267.1,184.9c0,0,0.2,2.4-1,3h2.2L267.1,184.9z"/>
	</g>
	<g>
		<path class="st15" d="M267.4,186.5c0,0-0.5-0.4-0.5-0.6v1.7h0.7L267.4,186.5z"/>
	</g>
	<g>
		<path class="st15" d="M266.9,185.9v1.8c0,0.2,0,0.3-0.1,0.5c-0.2,0.3-0.5,0.6-0.9,0.6h-0.3c-0.6,0-1-0.5-1-1v-1.8
			c0-0.2,0.1-0.4,0.1-0.5c0,0,0,0,0,0c0.2-0.3,0.5-0.5,0.9-0.5h0.3C266.4,184.9,266.9,185.3,266.9,185.9z"/>
	</g>
	<g>
		<path class="st15" d="M261.1,198.6c0,0.3,0,0.5,0.1,0.7h-16.8v-2.5h17.3C261.3,197.4,261.1,198,261.1,198.6z"/>
	</g>
	<g>
		<path class="st15" d="M253.4,198.6c0,0.3,0,0.5,0.1,0.7h-16.8v-2.5H254C253.6,197.4,253.4,198,253.4,198.6z"/>
	</g>
	<g>
		<path class="st17" d="M244.7,199.4h-6c-0.1-0.5-0.5-4.4,2.8-4.4C244.6,195,244.8,198.5,244.7,199.4z"/>
	</g>
	<g>
		<g>
			<path class="st15" d="M240.6,198.5c0,1.4,0.7,2.9,0.7,2.9s1.1,0,1.2,0c1.1,0,1.9-1.3,1.9-2.9c0-1.6-2.1-2.9-3.2-2.9
				C240.2,195.6,240.6,196.9,240.6,198.5z"/>
		</g>
		<g>
			<path class="st18" d="M239.4,198.5c0,1.6,0.9,2.9,1.9,2.9c1.1,0,1.9-1.3,1.9-2.9c0-1.6-0.9-2.9-1.9-2.9
				C240.2,195.6,239.4,196.9,239.4,198.5z"/>
		</g>
		<g>
			<ellipse class="st7" cx="241.3" cy="198.5" rx="1.5" ry="2.2"/>
		</g>
	</g>
</g>
<ellipse class="st2" cx="104.2" cy="238.6" rx="99.6" ry="0.7"/>
<g>
	<g>
		<g>
			<ellipse class="st22" cx="168.2" cy="188" rx="13.7" ry="17.9"/>
			<path class="st23" d="M160.6,203c0.6-1.3,1.9-2.6,4.1-3.7c12.2,0,15.7-10,16.7-15.6c0.3,1.4,0.4,2.8,0.4,4.3
				c0,9.9-6.1,17.9-13.7,17.9C165.4,205.9,162.8,204.9,160.6,203z"/>
		</g>
		<g>
			<ellipse class="st24" cx="160.5" cy="188" rx="13.7" ry="17.9"/>
			<path class="st25" d="M26.2,204.7h9.6V239h-9.6c-6.6,0-11.9-7.7-11.9-17.2C14.3,212.4,19.6,204.7,26.2,204.7z"/>
			<path class="st25" d="M104.9,204.7h9.9c0,0,0,34.4,0,34.3h-9.9c-5.2,0-9.4-7.7-9.4-17.2C95.4,212.4,99.7,204.7,104.9,204.7z"/>
			<g>
				<ellipse class="st25" cx="114.8" cy="221.9" rx="9.4" ry="17.2"/>
			</g>
			<rect x="30.7" y="224.5" class="st25" width="120" height="6.1"/>
			<g>
				<ellipse class="st25" cx="35" cy="221.9" rx="11.9" ry="17.2"/>
			</g>
			<path class="st25" d="M60.5,227.7c0,0,34.2,1.3,35,0.2c0.8-1.1,2.4-12.6,0.8-17.4c-1.6-4.8,2.6-12.6-9.4-15
				c-12-2.4-22.6-1.3-24.5,0c-1.9,1.3-0.9-8.6-2,4c-1.1,12.6-0.1,28.6-0.1,28.6L60.5,227.7z"/>
			<path class="st25" d="M69.5,204.7h9.6V239h-9.6c-6.6,0-11.9-7.7-11.9-17.2C57.6,212.4,62.9,204.7,69.5,204.7z"/>
			<path class="st25" d="M140.9,226.3c0.4-0.1,27.5-2.8,28.8-4.8c1.3-2,4.1-0.8,4.2-7.5c0.1-6.7,5.3-6.9-2.1-11.4
				c-7.4-4.5-8.6-6.1-17.9-7c-9.3-0.9-11.3,0.5-12.8,4.4c-1.6,3.9-2.4,4.7-1.6,11.5C140.4,218.4,140.9,226.3,140.9,226.3z"/>
			<path class="st25" d="M148.6,204.7h9.9c0,0,0,34.4,0,34.3h-9.9c-5.2,0-9.4-7.7-9.4-17.2C139.1,212.4,143.3,204.7,148.6,204.7z"/>
		</g>
		<path class="st26" d="M121,156.3c0,0-4.5-7.9-8.8-9c-4.3-1.2-15-1.9-23-1.9c-8,0-17.7,0.4-21.3,2.8c-3.6,2.4-4.4,8.6-4.4,8.6
			s3.6-1.4,6.5-1.6c0.7-1.2,2.7-7.5,6.5-7.7c3.8-0.2,17.4-0.6,22.7-0.3c5.3,0.3,9.3,0.9,10.5,1.9c1.2,1,5.6,5.7,5.6,5.7L121,156.3z"
			/>
		
			<linearGradient id="SVGID_1_" gradientUnits="userSpaceOnUse" x1="-4227.1743" y1="195.9202" x2="-4233.2695" y2="189.8249" gradientTransform="matrix(-1 0 0 1 -4161.7876 0)">
			<stop  offset="0" style="stop-color:#FE5236"/>
			<stop  offset="1" style="stop-color:#FE6C54"/>
		</linearGradient>
		<path class="st27" d="M36.1,180.9c0,0,15.9-18.9,20.9-22.8c5-3.9,27-7.8,36.3-8.5c7.7-0.6,30.7-0.2,30.7-0.2s-5.4,21.1-6.1,22
			c-0.7,0.9,5.1,28.3-14.9,25.5s-25.1-3-32.4-4.6c-7.3-1.6-12.9,2.7-17.5,0C48.5,189.6,36.1,180.9,36.1,180.9z"/>
		<g>
			<path class="st28" d="M36.1,180.9c0,0,15.4-18.3,20.6-22.6c0.2-0.1,0.4-0.3,0.7-0.4c18.9-3.9,44.3-0.1,45.1,0
				c0,0,0.7,0.2,1.6,2.6c0.9,2.4-1.7,3.4-10.1,25.7c-1.8,4.7-2.9,7.5-3.6,8.9c-0.5-0.1-0.9-0.1-1.4-0.2c-0.3-2.5-0.8-7.2-4.8-6.4
				c-6.8,1.2-14.6,0.6-33.3,2.4C45.5,187.5,36.1,180.9,36.1,180.9z"/>
			<g>
				<path class="st29" d="M60.8,157.3c-1.1,0.2-2.3,0.4-3.4,0.6c-0.2,0.1-0.4,0.3-0.7,0.4c-5.2,4.3-20.6,22.6-20.6,22.6
					s1.1,0.8,2.8,1.9C40.5,181.3,51.2,165.8,60.8,157.3z"/>
				<path class="st29" d="M78.9,156.1l-5.4,27.3c1.6,0.1,3.1,0.2,4.7,0.3c0.3-3.9,1.5-17.8,3.6-27.5
					C80.9,156.2,79.9,156.1,78.9,156.1z"/>
			</g>
		</g>
	</g>
	<g>
		<path class="st30" d="M71.5,169.5L71.5,169.5c-6.5,0-11.8,5.3-11.8,11.8v3.3c0,0.5,0.4,0.9,0.9,0.9h21.8c0.5,0,0.9-0.4,0.9-0.9
			v-3.3C83.4,174.8,78.1,169.5,71.5,169.5z"/>
		<g>
			<defs>
				<path id="SVGID_2_" d="M86.1,180.9c2.9-0.7,4.7-6.5,10.8-19.2c0.8-1.6,1.6-3,2.5-4.2c-7.4-0.9-26.9-2.8-42.1,0.4
					c-0.2,0.1-0.4,0.3-0.7,0.4c-5.2,4.3-20.6,22.6-20.6,22.6l0,0C48.5,184.2,83.2,181.6,86.1,180.9z"/>
			</defs>
			<clipPath id="SVGID_3_">
				<use xlink:href="#SVGID_2_"  style="overflow:visible;"/>
			</clipPath>
			<g class="st31">
				
					<linearGradient id="SVGID_4_" gradientUnits="userSpaceOnUse" x1="-4716.4814" y1="-128.5833" x2="-4716.4814" y2="-144.5964" gradientTransform="matrix(-0.9916 -0.1294 -0.1294 0.9916 -4622.8271 -306.937)">
					<stop  offset="0" style="stop-color:#923200"/>
					<stop  offset="1" style="stop-color:#BF4100"/>
				</linearGradient>
				<path class="st32" d="M78,162.4c0,0,0.1,1.5,0.3,4.6c0.2,2.8,1.3,8.2-3.5,10.9c-2.9-0.9-11.6,0.3-11.6,0.3s0.9-8.3,1.3-12
					c0.4-3.7,1.2-5.2,1.4-5.7c0.3-0.3,4-2.3,4-2.3l4.6,0.6L78,162.4z"/>
				
					<linearGradient id="SVGID_5_" gradientUnits="userSpaceOnUse" x1="-4712.8467" y1="-128.6114" x2="-4712.8467" y2="-134.8238" gradientTransform="matrix(-0.9916 -0.1294 -0.1294 0.9916 -4622.8271 -306.937)">
					<stop  offset="0" style="stop-color:#923200"/>
					<stop  offset="1" style="stop-color:#BF4100"/>
				</linearGradient>
				<path class="st33" d="M63.5,175.2c3.5-2.3,3.6-8.8,3.6-8.8c0,0,1.7,0.6,2.1,1s0.8,0.5,1.4,1.4c0.7,0.9,0.4,1,0.5,2.1
					s-0.2,2.1-0.6,3.7c-0.2,0.9-0.6,1.4-1,1.9c-3.1,0.2-6.3,0.6-6.3,0.6S63.4,176.3,63.5,175.2z"/>
				
					<linearGradient id="SVGID_6_" gradientUnits="userSpaceOnUse" x1="-4717.5591" y1="-129.4966" x2="-4717.5591" y2="-136.2014" gradientTransform="matrix(-0.9916 -0.1294 -0.1294 0.9916 -4622.8271 -306.937)">
					<stop  offset="0" style="stop-color:#923200"/>
					<stop  offset="1" style="stop-color:#BF4100"/>
				</linearGradient>
				<path class="st34" d="M70.8,173.5c0,0-0.9,2.4-1.6,2.5c-0.6,0.1-3.1,0.8-3.1,0.8s3.5-2.2,3.6-2.4c0.1-0.2,1-2,1-3.2
					c0.1-1.2-0.5-1,0.3-2.1s0.8-1.6,1.8-2.3c1-0.7,3.4-0.8,3.4-0.8s-1.7,6.6,1.1,8.4c-0.6,0.9-1.4,1.7-2.5,2.4
					c-0.5-0.2-1.3-0.3-2.1-0.3C71.5,175.1,70.8,173.5,70.8,173.5z"/>
				
					<linearGradient id="SVGID_7_" gradientUnits="userSpaceOnUse" x1="367.2671" y1="-129.6144" x2="367.2671" y2="-122.2965" gradientTransform="matrix(0.9916 0.1294 -0.1294 0.9916 -310.1914 256.4972)">
					<stop  offset="0" style="stop-color:#CF4F3C"/>
					<stop  offset="1" style="stop-color:#AD4232"/>
				</linearGradient>
				<path class="st35" d="M73.3,174.2c0,0-0.2-0.5-2.4-0.8c-2.2-0.3-2.3,0.4-2.3,0.4l3.2,0.6L73.3,174.2z"/>
				
					<linearGradient id="SVGID_8_" gradientUnits="userSpaceOnUse" x1="361.0945" y1="-125.5141" x2="361.9374" y2="-97.5928" gradientTransform="matrix(0.9916 0.1294 -0.1294 0.9916 -310.1914 256.4972)">
					<stop  offset="0" style="stop-color:#F46C57"/>
					<stop  offset="1" style="stop-color:#CF4F3C"/>
				</linearGradient>
				<path class="st36" d="M61.1,179.2c2.3-2.6,4.6-5.1,4.6-5.1l1.5,3.9c0,0-5.9,5.8-6.8,7.3L61.1,179.2z"/>
				<path class="st37" d="M66.9,178.5c-1.3,1.3-5.7,5.6-6.5,6.9l0.4-3.7c1.8-1.1,3.2-3.3,4.9-7.5l1.2,3.3
					C67,177.8,66.9,178.1,66.9,178.5z"/>
				
					<linearGradient id="SVGID_9_" gradientUnits="userSpaceOnUse" x1="367.3531" y1="-125.7033" x2="368.196" y2="-97.7823" gradientTransform="matrix(0.9916 0.1294 -0.1294 0.9916 -310.1914 256.4972)">
					<stop  offset="0" style="stop-color:#F46C57"/>
					<stop  offset="1" style="stop-color:#CF4F3C"/>
				</linearGradient>
				<path class="st38" d="M75.9,205.9c0,0-10.4,2.5-12.7,1.8c-2.4-0.7-2.7-2.3-2.7-2.3s2.6-11,3.1-13s0.4-4.7,0.1-5.2
					c-0.3-0.5-1.6-2.7-2-3.6c-0.4-0.9,1.2-3.1,1.2-3.1s2.5-5.5,2.7-6.2c0.2-0.7,8.9-1.1,11.1,1.6c-1.2,2.6-4.9,13.3-5.3,15.6
					C71,193.7,75.9,205.9,75.9,205.9z"/>
				
					<linearGradient id="SVGID_10_" gradientUnits="userSpaceOnUse" x1="366.7247" y1="-126.4534" x2="366.7247" y2="-101.4079" gradientTransform="matrix(0.9916 0.1294 -0.1294 0.9916 -310.1914 256.4972)">
					<stop  offset="0" style="stop-color:#CF4F3C"/>
					<stop  offset="1" style="stop-color:#AD4232"/>
				</linearGradient>
				<path class="st39" d="M73.3,174.2c-0.9,1.2-4.6,5.9-6.4,6.3c-0.6-0.7,1.3-5.4,1.8-6.7C70,173.8,71.8,173.9,73.3,174.2z"/>
				<g>
					
						<linearGradient id="SVGID_11_" gradientUnits="userSpaceOnUse" x1="363.7913" y1="-126.4533" x2="363.7913" y2="-101.4085" gradientTransform="matrix(0.9916 0.1294 -0.1294 0.9916 -310.1914 256.4972)">
						<stop  offset="0" style="stop-color:#CF4F3C"/>
						<stop  offset="1" style="stop-color:#AD4232"/>
					</linearGradient>
					<path class="st40" d="M63.5,207.7l-0.3-0.1c1-5.3,3-15.5,3-16.3c0-0.4-0.3-1.6-0.6-2.9c-0.6-2.3-0.9-3.8-0.8-4.2
						c0.3-0.8,2.8-5.5,2.9-5.7l0.3,0.2c0,0-2.7,4.9-2.9,5.7c-0.1,0.4,0.4,2.4,0.8,4.1c0.3,1.3,0.6,2.5,0.6,2.9
						C66.5,192.4,63.6,207.1,63.5,207.7z"/>
				</g>
				<path class="st37" d="M70.6,184.9c1.8-0.5,4.2-4.2,4.5-4.6c-1.5,4.1-3.3,9.6-3.6,11.2c-0.4,2.3,4.5,14.4,4.5,14.4
					s-8.2,1.7-10.6,1.9c-2.4,0.2-2.8-0.4-3.6-0.8c2.3-0.9,9.1-3,9.4-6c0.4-3.7-0.9-11-1.3-11.9c-0.4-0.9-6.1-1.8-6.1-1.8
					c-0.3-0.5-1.5-2.6-1.9-3.5C63.9,184.2,69.1,185.3,70.6,184.9z"/>
				
					<linearGradient id="SVGID_12_" gradientUnits="userSpaceOnUse" x1="375.9156" y1="-125.9621" x2="376.7585" y2="-98.0411" gradientTransform="matrix(0.9916 0.1294 -0.1294 0.9916 -310.1914 256.4972)">
					<stop  offset="0" style="stop-color:#F46C57"/>
					<stop  offset="1" style="stop-color:#CF4F3C"/>
				</linearGradient>
				<path class="st41" d="M76.7,175.9c0,0,6.3,11.6,6,13c-0.4,1.4-9.5,9.7-9.5,9.7l-0.4-1.2c0,0,6.1-8.2,6.3-9
					c0.2-0.8-4.8-9.1-4.8-9.1L76.7,175.9z"/>
				<path class="st37" d="M80.9,188.2c-0.7,0.4-6.9,7.8-7.4,8.3c1.6-2.1,5.5-7.5,5.7-8.1c0.2-0.6-3.3-6.6-4.5-8.5c0-0.4,0.1-0.8,0-1
					C75.1,179.8,78.8,187.6,80.9,188.2z"/>
				<path class="st42" d="M72.8,197.4l-0.5,0.5c0,0,1.2,3.2,1.4,3.3s0.5,0.1,0.5,0.1S73.7,198.5,72.8,197.4z"/>
				<path class="st42" d="M69.8,169.3l0.1,0l1.4,0.9l1.6-0.5l0.1,0c0,0-0.8,3.5-0.2,4.4c-0.5,0.3-2.1,0.6-2.1,0.6s-1.4-0.5-1.9-0.9
					C69.8,173.1,69.8,169.3,69.8,169.3z"/>
				<g>
					<path class="st43" d="M71.4,171.4l1.6-0.5l0.1,0c0,0-0.3,1-0.4,2.1c-0.5,0.2-1,0.4-1.5,0.3c-0.5-0.1-1-0.3-1.4-0.7
						c0.1-1.1,0.1-2.1,0.1-2.1l0.1,0L71.4,171.4z"/>
					<g>
						<path class="st42" d="M65.9,165.2c0.1-0.7,0.5-0.7,1.2-0.6c0.7,0.1,1.2,0.7,1.1,1.4c-0.1,0.7-0.6,1.4-1.3,1.4
							C66.2,167.3,65.8,165.9,65.9,165.2z"/>
						<path class="st44" d="M67.2,164.9c-0.7-0.1-1.1-0.1-1.2,0.6c0,0.3,0,0.6,0.1,1c-0.2-0.4-0.2-0.9-0.2-1.2
							c0.1-0.7,0.5-0.7,1.2-0.6c0.6,0.1,1,0.5,1.1,1C68,165.2,67.6,164.9,67.2,164.9z"/>
						<g class="st45">
							<path class="st46" d="M66.9,166.5C67,166.5,67,166.5,66.9,166.5c0.1-0.1,0.1-0.1,0.1-0.1c0,0-0.1-0.1-0.1-0.2
								c0-0.1,0-0.1,0.1-0.2c0.2-0.2,0-0.6-0.2-0.8c-0.2-0.2-0.4-0.2-0.6-0.1c0,0,0,0.1,0,0.1c0,0,0.1,0,0.1,0
								c0.1-0.1,0.3,0,0.4,0.1c0.2,0.2,0.3,0.5,0.2,0.6c-0.1,0.1-0.1,0.2-0.1,0.3C66.8,166.3,66.9,166.4,66.9,166.5
								C66.9,166.5,66.9,166.5,66.9,166.5z"/>
						</g>
					</g>
					<path class="st42" d="M70,157.9c1.4,0.1,2.9,0.2,4.3,0.3c0.2,0,0.5,0,0.7,0c0.5,0.2,1.1,0.4,1.6,0.4c0.5,0.8,0.8,2,0.6,3.4
						c0,0-1.1,6.4-1.5,7.4c-0.4,1.1-2.6,3.6-4.8,3.3c-2.2-0.2-3.8-3.1-4-4.3c-0.2-1.1,0.1-7.6,0.1-7.6c0.2-1.5,0.7-2.5,1.3-3.2
						C69,157.8,69.5,157.9,70,157.9z"/>
					<path class="st44" d="M70.7,163.8l-0.1,1.1c0,0-0.5-0.7-1.2-0.7c-0.6,0-1.3,0.3-1.3,0.3l0-0.9l1.4-0.5L70.7,163.8z"/>
					<path class="st47" d="M70.7,164.1c0,0-1.4-0.8-2.6-0.1c0.1-0.3,1.4-1.3,2.7-0.5C70.9,163.5,70.7,163.9,70.7,164.1z"/>
					<path class="st48" d="M67.1,167.9c0.2,1.1,1.8,4.1,4,4.3c2.2,0.3,4.4-2.3,4.8-3.3s1.5-7.4,1.5-7.4c0,0,0,0,0-0.1
						c0,0.2,0,0.5,0,0.8c0,0-1.1,6.4-1.5,7.4c-0.4,1.1-2.6,3.6-4.8,3.3c-2.2-0.2-3.8-3.1-4-4.3s0.1-7.6,0.1-7.6c0,0,0-0.1,0-0.1
						C67.1,162.6,67,167,67.1,167.9z"/>
					<g>
						<path class="st49" d="M68.5,165.8c0.2,0.1,0.8,0.2,1.9,0.2c0.1,0,0.1-0.1,0.1-0.2c0-0.5-0.3-1.2-1.1-1.3c-0.7-0.1-0.9,0.7-1,1
							C68.4,165.6,68.4,165.7,68.5,165.8z"/>
						<path class="st5" d="M68.5,165.8c0.2,0.1,0.8,0.2,1.9,0.2c0.1,0,0.1-0.1,0.1-0.1c0-0.5-0.3-1-1.1-1.1c-0.7-0.1-0.9,0.6-1,0.9
							C68.4,165.7,68.4,165.7,68.5,165.8z"/>
						<path class="st50" d="M68.8,165.3c0-0.4,0.4-0.7,0.8-0.6c0.4,0,0.7,0.4,0.6,0.8c0,0.2-0.1,0.3-0.2,0.5c-0.4,0-0.7,0-1-0.1
							C68.8,165.7,68.7,165.5,68.8,165.3z"/>
						<path class="st49" d="M69,165.4c0-0.3,0.3-0.5,0.6-0.5c0.3,0,0.5,0.3,0.5,0.6c0,0.3-0.3,0.5-0.6,0.5
							C69.1,165.9,68.9,165.6,69,165.4z"/>
						<path class="st5" d="M69.8,165.2c0-0.1,0.1-0.2,0.2-0.2c0.1,0,0.2,0.1,0.2,0.2c0,0.1-0.1,0.2-0.2,0.2
							C69.8,165.4,69.8,165.3,69.8,165.2z"/>
					</g>
					<path class="st44" d="M67.9,166.5c0-0.2,0.6-0.4,1.3-0.3c0.7,0.1,1.3,0.3,1.3,0.6s-0.6,0.4-1.3,0.3S67.9,166.8,67.9,166.5z"/>
					<path class="st44" d="M73.2,164.2l-0.1,1.1c0,0,0.7-0.6,1.3-0.4c0.6,0.2,1.2,0.7,1.2,0.7l0.2-0.8l-1.2-0.9L73.2,164.2z"/>
					
						<linearGradient id="SVGID_13_" gradientUnits="userSpaceOnUse" x1="-4715.9092" y1="-128.5838" x2="-4715.9092" y2="-144.5964" gradientTransform="matrix(-0.9916 -0.1294 -0.1294 0.9916 -4622.8271 -306.937)">
						<stop  offset="0" style="stop-color:#923200"/>
						<stop  offset="1" style="stop-color:#BF4100"/>
					</linearGradient>
					<path class="st51" d="M76.1,161.2c-8.9,2.7-9,3.5-9,3.5l-1.2-4.1c0,0,1.3-4.5,6.9-3.9c5.6,0.6,5.3,5.7,5.3,5.7l-1.4,4.7
						C76.6,167.1,76.9,161.6,76.1,161.2z"/>
					<path class="st52" d="M71.8,168.1l-0.8-0.4l0,0l0,0c-0.1-0.1-0.1-0.1-0.1-0.2c0,0,0,0,0-0.1c0,0,0-0.1,0-0.1
						c0-0.1,0.1-0.1,0.1-0.2c0.1-0.2,0.2-0.5,0.4-0.7c0.1-0.1,0.1-0.2,0.2-0.4c0-0.1,0-0.1,0.1-0.2c0-0.1,0-0.1,0-0.2
						c0-0.1,0-0.1,0-0.2c0-0.1,0-0.1,0-0.2c0-0.1-0.1-0.3-0.1-0.4l0,0c0,0-0.1-0.1-0.1-0.1c0,0-0.1,0.1-0.1,0.1
						c0,0.1,0.1,0.2,0.1,0.4c0,0.1,0,0.1,0,0.2c0,0.1,0,0.1,0,0.2c0,0.1,0,0.1,0,0.2c0,0.1,0,0.1-0.1,0.2c0,0.1-0.1,0.2-0.2,0.3
						c-0.1,0.2-0.3,0.4-0.4,0.7c0,0.1-0.1,0.1-0.1,0.2c0,0,0,0.1,0,0.1c0,0,0,0.1,0,0.1c0,0.2,0,0.4,0.2,0.5l0,0l0,0l0,0l0.8,0.3
						C71.8,168.2,71.8,168.2,71.8,168.1C71.9,168.1,71.9,168.1,71.8,168.1z"/>
					<path class="st5" d="M69.8,169c0-0.5,0.7,0,1.6,0.1c0.9,0.1,1.6-0.4,1.6,0.2c0,0.5-0.8,1.1-1.7,1.1
						C70.5,170.2,69.8,169.5,69.8,169z"/>
					<path class="st47" d="M73.2,164.3c0,0,1.5-0.4,2.6,0.5c0-0.3-1-1.6-2.5-1.2C73.2,163.7,73.2,164.1,73.2,164.3z"/>
					<g>
						<path class="st49" d="M73,166.2c0.2,0.1,0.8,0.2,1.9,0.2c0.1,0,0.1-0.1,0.1-0.2c0-0.5-0.3-1.2-1.1-1.3c-0.7-0.1-0.9,0.7-1,1
							C72.9,166.1,72.9,166.2,73,166.2z"/>
						<path class="st5" d="M73,166.2c0.2,0.1,0.8,0.2,1.9,0.2c0.1,0,0.1-0.1,0.1-0.1c0-0.5-0.3-1-1.1-1.1c-0.7-0.1-0.9,0.6-1,0.9
							C72.8,166.1,72.9,166.2,73,166.2z"/>
						<path class="st50" d="M73.2,165.8c0-0.4,0.4-0.7,0.8-0.6c0.4,0,0.7,0.4,0.6,0.8c0,0.2-0.1,0.3-0.2,0.5c-0.4,0-0.7,0-1-0.1
							C73.3,166.2,73.2,166,73.2,165.8z"/>
						<path class="st49" d="M73.4,165.8c0-0.3,0.3-0.5,0.6-0.5c0.3,0,0.5,0.3,0.5,0.6c0,0.3-0.3,0.5-0.6,0.5
							C73.6,166.4,73.4,166.1,73.4,165.8z"/>
						<path class="st5" d="M74.3,165.6c0-0.1,0.1-0.2,0.2-0.2c0.1,0,0.2,0.1,0.2,0.2s-0.1,0.2-0.2,0.2
							C74.3,165.8,74.2,165.7,74.3,165.6z"/>
					</g>
					<path class="st44" d="M72.5,167c0-0.2,0.6-0.4,1.3-0.3c0.7,0.1,1.3,0.3,1.3,0.6c0,0.2-0.6,0.4-1.3,0.3
						C73,167.5,72.4,167.3,72.5,167z"/>
				</g>
				<path class="st42" d="M72.9,174.1c0,0-3.3,4.3-5.2,4.8c-0.6-0.7,1.2-5.1,1.2-5.1s1.2,0.1,1.2,0.1
					C70.2,174,72.9,174.1,72.9,174.1z"/>
			</g>
		</g>
		<g>
			<path class="st53" d="M89.8,177.7c-3.7,1.8-21.7,1-29.6,0.9c-5.6-0.1-16.2-0.2-22-0.3c-1.4,1.6-2.2,2.6-2.2,2.6s3.9,2.7,8.1,5.6
				c0.6,0.1,1.1,0.2,1.5,0.3c4.6,0.8,21.9,1.3,37.3,1.5C98.4,188.6,86.6,187.6,89.8,177.7z"/>
			<g>
				<path class="st53" d="M91.3,178c-1.9-3.9-6.9-7-11.1-7c-4.2,0-6.1,3.1-4.3,7c1.9,3.9,6.9,7,11.1,7
					C91.3,184.9,93.2,181.8,91.3,178z M86.1,183c-3.1,0-6.7-2.3-8-5.1c-1.4-2.8,0-5.1,3.1-5.1c3.1,0,6.7,2.3,8,5.1
					C90.5,180.7,89.1,183,86.1,183z"/>
				<path class="st53" d="M76.3,175.5c0,0,1.9,0.5,5.1,0.5c3.2,0,6.2-0.8,6.2-0.8s2.6,1.3,1.5,1.5c-1.1,0.1-4,0.9-6.7,0.9
					c-2.7,0-5.9-0.5-6-0.6c0-0.1-0.3-1.5-0.3-1.5L76.3,175.5z"/>
				<path class="st53" d="M63.7,178.8c0.4-0.2,11.5-2,15.2-2.3c3.7-0.3,9.5,2.8,9.5,2.8l-9.9,0.7L63.7,178.8z"/>
			</g>
		</g>
		<g>
			<path class="st54" d="M69.3,156.6c-15.8,10.3-26.2,24.2-28.7,27.5c1.1,0.8,2.3,1.6,3.6,2.4c9.3-10.4,24.1-22.3,37.6-30.1
				C76.9,156.2,74.9,156.2,69.3,156.6z"/>
			<path class="st54" d="M84.3,156.3c-15,10.3-24.9,23.6-27.3,26.7c1.1,0.8,2.3,1.6,3.6,2.4c8.5-9.5,24.6-20.3,37.6-28.1
				C95,157,90,156.5,84.3,156.3z"/>
		</g>
		<g>
			<path class="st22" d="M92.3,187.1c8.4-22.3,11-23.3,10.1-25.7c-0.9-2.4-1.6-2.6-1.6-2.6c-0.8-0.1-25.8-3.9-44.6-0.1
				c0.2-0.2,0.3-0.3,0.5-0.4c0.2-0.1,0.4-0.3,0.7-0.4c18.9-3.9,44.3-0.1,45.1,0c0,0,0.7,0.2,1.6,2.6c0.9,2.4-1.7,3.4-10.1,25.7
				c-1.8,4.7-2.9,7.5-3.6,8.9c-0.4-0.1-0.8-0.1-1.2-0.2C89.9,193.4,90.9,190.9,92.3,187.1z"/>
			<path class="st22" d="M36.9,180c4.1,0.8,9.7,1.3,15.5,1.4c14.5,0.2,31.1-1.3,33-1.8c2.9-0.7,4.7-6.5,10.8-19.2
				c0.6-1.2,1.1-2.1,1.8-3.1c0.4,0,1,0.1,1.5,0.2c-0.9,1.2-1.8,2.7-2.6,4.2c-6.1,12.7-7.9,18.5-10.8,19.2c-1.9,0.5-19,2-33.7,1.7
				c-6.3-0.1-12.3-0.7-16.3-1.7C36.3,180.6,36.5,180.4,36.9,180z"/>
		</g>
		<g>
			<g>
				
					<linearGradient id="SVGID_14_" gradientUnits="userSpaceOnUse" x1="-4250.417" y1="213.1259" x2="-4250.417" y2="159.8329" gradientTransform="matrix(-1 0 0 1 -4161.7876 0)">
					<stop  offset="0" style="stop-color:#FE5236"/>
					<stop  offset="1" style="stop-color:#FE6C54"/>
				</linearGradient>
				<path class="st55" d="M174.7,189.3c-0.1-0.6-0.2-1.1-0.5-1.7c-2.2-4.7-13.6-29.1-14.3-30c-2.1-1.4-18.7-8.4-32.4-8.4
					c-13.8,0-24.5-0.3-30.6,12.4c-6.1,12.7-7.9,18.5-10.8,19.2c-2.9,0.7-37.6,3.3-50,0C31.2,183,10.7,194,3.4,198.6
					c0.2,0.3,0.3,0.8,0,1.2c-0.9,1.5-1.9,3-2.6,4.6v17.9c0,0.1,0,0.2,0,0.3c-0.2,0.9,0,1.8,0.5,2.5c1.4,2,3.3,2.6,4.9,2.6H59
					c0.9,0,1.7-0.6,1.8-1.5c1.2-5.6,6.4-25.2,18-25.2c11.1,0,13.7,18.1,14.2,24.6c0.1,1.3,1.2,2.3,2.5,2.3h45.9
					c1.3,0,2.5-0.9,2.9-2.2c1.7-6.2,7-23.4,15-23.4c9.8,0,9.6,20.7,9.6,20.7c1.1-0.1,5.7-2.5,7.5-7.9
					C177.3,208.3,175.3,193.2,174.7,189.3z"/>
				
					<linearGradient id="SVGID_15_" gradientUnits="userSpaceOnUse" x1="-4457.8818" y1="256.7106" x2="-4457.8818" y2="196.4079" gradientTransform="matrix(-1 0 0 1 -4415.6377 0)">
					<stop  offset="0" style="stop-color:#FE5236"/>
					<stop  offset="1" style="stop-color:#FE7963"/>
				</linearGradient>
				<path class="st56" d="M84.2,181.2c-8.1,0.9-37,2.7-48.1-0.3c-4.4,2-25.5,11.3-33.8,16.3c0,0,0,0,0,0c-1,2-1.5,4.3-1.6,6.6
					c-0.1,5.4-0.2,15.8-0.4,18.7c0,0.6,0.1,1.2,0.4,1.7c1.4,2.7,3.6,3.4,5.4,3.4h42.8l0.2-18.8l2.1-11.7L84.2,181.2z"/>
				<path class="st57" d="M45.6,182.2c-4.7,2.8-21.9,13.5-22.5,14.3c-0.5,0.8,24.1-11.7,28.9-14.1C49.8,182.5,47.6,182.4,45.6,182.2
					z"/>
				<linearGradient id="SVGID_16_" gradientUnits="userSpaceOnUse" x1="27.4559" y1="226.8727" x2="27.4559" y2="188.4466">
					<stop  offset="0" style="stop-color:#FE5236"/>
					<stop  offset="1" style="stop-color:#FE7963"/>
				</linearGradient>
				<path class="st58" d="M2.1,205.4h46.7c1.3-5.9,2.1-8.1,2.1-8.1l3.3-1.4c-5.3,1-22.6,2.3-33.9,2.3c-6.9,0-10.6-2-12.6-3.9
					c-2.1,1.1-3.9,2.1-5.4,3c0,0,0,0,0,0c-1,2-1.5,4.3-1.6,6.6c0,0.5,0,1,0,1.5C1.1,205.3,1.6,205.2,2.1,205.4z"/>
			</g>
			<g>
				<g>
					
						<linearGradient id="SVGID_17_" gradientUnits="userSpaceOnUse" x1="-4502.7354" y1="180.487" x2="-4502.7354" y2="180.5315" gradientTransform="matrix(-1 0 0 1 -4415.6377 0)">
						<stop  offset="0" style="stop-color:#D1442C"/>
						<stop  offset="1" style="stop-color:#FE6C54"/>
					</linearGradient>
					<path class="st59" d="M87.1,180.4L87.1,180.4L87.1,180.4C87.1,180.5,87.1,180.4,87.1,180.4z"/>
					
						<linearGradient id="SVGID_18_" gradientUnits="userSpaceOnUse" x1="-4484.0605" y1="199.2451" x2="-4484.0605" y2="212.3112" gradientTransform="matrix(-1 0 0 1 -4415.6377 0)">
						<stop  offset="0" style="stop-color:#D1442C"/>
						<stop  offset="1" style="stop-color:#FE6C54"/>
					</linearGradient>
					<path class="st60" d="M51.1,197.6l-0.2-0.4l33.3-16c0.8-0.1,1.4-0.2,1.8-0.2L51.1,197.6z"/>
				</g>
				<path class="st61" d="M176.4,215.1c0.2-1.9,0.3-4.5,0.1-7.3c-2.3,3.2-5.9,4.5-8.8,5c1.2,5.1,1.1,10.2,1.1,10.2
					C170,222.9,174.6,220.5,176.4,215.1z"/>
				<path class="st61" d="M28,215c4,6.7,17.4,8.4,23.4,6.8c6-1.6,11.9-17.6,11.9-17.6l7.4,0.5c-6,5.9-9,17.4-9.9,21.5
					c-0.2,0.9-1,1.5-1.9,1.5c-4.9,0-20.4,0-33.3,0C26,224.6,26.8,220.5,28,215z"/>
				
					<linearGradient id="SVGID_19_" gradientUnits="userSpaceOnUse" x1="-4539.1992" y1="229.2468" x2="-4539.1992" y2="243.7036" gradientTransform="matrix(-1 0 0 1 -4419.8135 0)">
					<stop  offset="0" style="stop-color:#FE5236"/>
					<stop  offset="1" style="stop-color:#FE6C54"/>
				</linearGradient>
				<path class="st62" d="M91.7,217h55.4c-0.8,2-1.4,4-1.9,5.7H92.7C92.5,220.9,92.2,219,91.7,217z"/>
				<path class="st61" d="M91.4,205.2c0.8,3.5,10,13.9,18.3,13.9s11.8,0,24.2,0c12.4,0,13.2-14.8,15-16.4c0,0,3.3,0.9,4.2,1.1
					c0.2,0.1,0.6,0.3,1.2,0.7c-5.4,4.8-8.9,16.4-10.2,21.3c-0.3,1.3-1.5,2.2-2.9,2.2H95.5c-1.3,0-2.4-1-2.5-2.3
					c-0.3-3.4-1.2-10.2-3.6-15.7C90.4,208.5,91.1,206.9,91.4,205.2z"/>
				<path class="st61" d="M108.1,153.4c2.5-1.1,3.7-2.1,2.6-2.1c-1,0-3.9,0.9-6.4,2.1c-2.5,1.1-3.7,2.1-2.6,2.1
					C102.8,155.5,105.6,154.6,108.1,153.4z"/>
				<path class="st63" d="M175.4,194.4l-84.8,1.7c17.6-4.4,76.4-6.8,84.1-7.6C174.7,189,175,191.3,175.4,194.4z"/>
				<g>
					<linearGradient id="SVGID_20_" gradientUnits="userSpaceOnUse" x1="128.1099" y1="224.373" x2="128.1099" y2="233.5023">
						<stop  offset="0" style="stop-color:#D1442C"/>
						<stop  offset="1" style="stop-color:#FE6C54"/>
					</linearGradient>
					<path class="st64" d="M129,222.2l-0.5-0.1c2.3-13.3-1.9-38.4-2-38.6l0.5-0.1C127.1,183.7,131.3,208.9,129,222.2z"/>
				</g>
				<path class="st63" d="M126.8,183c-36.4,0.1-62.5,9.2-62.9,9.2L126.8,183z"/>
				<g>
					<g>
						<linearGradient id="SVGID_21_" gradientUnits="userSpaceOnUse" x1="93.6365" y1="224.3731" x2="93.6365" y2="233.5024">
							<stop  offset="0" style="stop-color:#D1442C"/>
							<stop  offset="1" style="stop-color:#FE6C54"/>
						</linearGradient>
						<path class="st65" d="M97.4,221.4h-0.4c0-16.6-4.4-21.8-6.3-24.1c-0.6-0.7-1-1.1-0.8-1.6c0.3-0.8,1.7-3.7,3.1-6.3
							c2.8-5.3,3-5.4,3.1-5.4l0.1,0.3c0,0,0,0,0,0c-0.4,0.4-5.5,9.9-6,11.5c-0.1,0.2,0.3,0.6,0.8,1.2
							C92.9,199.3,97.4,204.6,97.4,221.4z"/>
					</g>
					
						<linearGradient id="SVGID_22_" gradientUnits="userSpaceOnUse" x1="-4237.2803" y1="206.6438" x2="-4237.2803" y2="222.3438" gradientTransform="matrix(-1 0 0 1 -4161.7876 0)">
						<stop  offset="9.964900e-04" style="stop-color:#FE654D"/>
						<stop  offset="1" style="stop-color:#FE5135"/>
					</linearGradient>
					<path class="st66" d="M77.6,194.8c10.1,0,17.7,8.9,17.7,23.3c0,3.4,0.5,6.8-0.4,9.7c-0.4-0.1-0.8-0.2-1.2-0.5
						c0-0.1,0-0.2,0-0.3c0-1.7-0.2-3.4-0.8-5c-0.2-0.5-0.6-0.9-1.1-0.9c-1.1-8-4-20.1-13.1-20.1c-11.5,0-16.6,19-17.9,24.9
						c-0.2,1-1.1,1.7-2.2,1.7h-3.2C57.2,205.1,67.7,194.8,77.6,194.8z"/>
				</g>
			</g>
			
				<linearGradient id="SVGID_23_" gradientUnits="userSpaceOnUse" x1="-4318.8052" y1="206.1962" x2="-4318.8052" y2="222.2003" gradientTransform="matrix(-1 0 0 1 -4161.7876 0)">
				<stop  offset="9.964900e-04" style="stop-color:#FE654D"/>
				<stop  offset="1" style="stop-color:#FE5135"/>
			</linearGradient>
			<path class="st67" d="M158.6,195.9c9.8,0,13.1,13,13.1,25.5c0,0.1,0,0.1,0,0.2c-1.2,0.9-2.3,1.4-2.8,1.4c0,0,0.2-20.7-9.6-20.7
				c-8,0-13.4,17.2-15,23.4c-0.2,0.7-0.6,1.3-1.2,1.7c-1.2-2.8-0.5-6.1-0.1-10C144.1,204.9,150,195.9,158.6,195.9z"/>
			<g>
				<linearGradient id="SVGID_24_" gradientUnits="userSpaceOnUse" x1="149.7223" y1="224.3681" x2="149.7223" y2="233.4832">
					<stop  offset="0" style="stop-color:#D1442C"/>
					<stop  offset="1" style="stop-color:#FE6C54"/>
				</linearGradient>
				<path class="st68" d="M152,182.5c-0.1,0-0.3,0-0.4,0l4.7,11.9c-0.3,0.1-1,0.4-2,1c-1.2,0.7-3,2-4.7,4c-2,2.3-3.6,5-4.7,8.2
					c-1.4,3.9-2.1,8.5-2.1,13.5h0.4c0-5,0.7-9.5,2.1-13.4c1.1-3.1,2.7-5.8,4.7-8.1c1.8-2,3.5-3.2,4.7-3.9c1.3-0.7,2.1-1,2.1-1
					l0.2-0.1L152,182.5z"/>
			</g>
			<g>
				<g>
					<ellipse class="st69" cx="120.6" cy="190.7" rx="3.5" ry="3.3"/>
					<path class="st70" d="M114.5,191.3c0.1,0.6,2.8,0.8,6,0.5c3.3-0.3,5.9-1,5.8-1.6c-0.1-0.6-2.8-0.8-6-0.5
						C117.1,189.9,114.5,190.7,114.5,191.3z"/>
				</g>
				<g>
					<ellipse class="st69" cx="150" cy="188.1" rx="2.3" ry="3.3"/>
					
						<ellipse transform="matrix(0.9894 -0.1449 0.1449 0.9894 -25.6795 23.7114)" class="st70" cx="149.9" cy="188.1" rx="4" ry="1.1"/>
				</g>
			</g>
		</g>
		<g>
			<path class="st71" d="M155.1,216.9l21.6-2.9c-0.6,1.8-1.1,10.6-1.4,11.7c-0.3,1.3-1.5,2.2-2.9,2.2h-18
				C154.7,224.3,155,220.6,155.1,216.9z"/>
			<path class="st72" d="M162.4,227.9l-1-9.7l1.2-2.4l14-1.9c-0.6,1.8-1.1,10.6-1.4,11.7c-0.3,1.3-1.5,2.2-2.9,2.2H162.4z"/>
		</g>
		<g>
			<g>
				<path class="st28" d="M158.2,162.9c0,0,0.9,14.2,0.6,18.4c-2.5,0-62.8,3.6-62.9,3.4c-0.1-0.2,1.9-26,15.7-28.7
					C125.4,153.3,135,154.8,158.2,162.9z"/>
				<path class="st29" d="M158.2,162.9c-23.2-8-32.8-9.5-46.5-6.9c12.5-0.3,22.1,0,41.8,6.7c1.3,0.5,2.4,1.5,2.9,2.9
					c0.6,1.8,1.6,4.6,2.4,7.4C158.5,168,158.2,162.9,158.2,162.9z"/>
			</g>
			<path class="st73" d="M96,183.2h27.1c16.4-0.9,34.4-1.9,35.7-1.9c0.1-1.8,0-5.4-0.1-9c-0.1-2-1.8-3.6-3.8-3.6H99.5
				C97.2,174.4,96.3,180.5,96,183.2z"/>
			<path class="st30" d="M108.6,169.5L108.6,169.5c-6.2,0-11.2,5-11.2,11.2v2.5h22.5v-2.5C119.9,174.5,114.8,169.5,108.6,169.5z"/>
			<g>
				<g>
					<linearGradient id="SVGID_25_" gradientUnits="userSpaceOnUse" x1="24.7702" y1="228.4711" x2="26.9086" y2="218.6956">
						<stop  offset="9.964900e-04" style="stop-color:#393B3A"/>
						<stop  offset="1" style="stop-color:#4D4F4E"/>
					</linearGradient>
					<path class="st74" d="M40.3,222.2c-2-5.8-2.5-10.1-6.2-10.1c-3.7,0-16.3,0-17.5,0h0c-2.5,0-4.7,0-5.9,0
						c-3.7,0-4.1,4.3-6.2,10.1C4,224,3,225.1,1.9,225.9c0.2,0.2,0.9,0.7,1.8,1.3c0.8,0.4,1.7,0.5,2.5,0.5h42.3
						C46.4,227.5,42,226.9,40.3,222.2z"/>
					
						<linearGradient id="SVGID_26_" gradientUnits="userSpaceOnUse" x1="75.3223" y1="250.8964" x2="75.3223" y2="231.8106" gradientTransform="matrix(1 0 -0.307 1 33.3394 1.100000e-03)">
						<stop  offset="9.964900e-04" style="stop-color:#393B3A"/>
						<stop  offset="1" style="stop-color:#939695"/>
					</linearGradient>
					<path class="st75" d="M39.1,222.1c-2.1-5.8-2.5-10-6.2-10c0.5,0,0.9,0,1.2,0c3.7,0,4.1,4.2,6.2,10c2.1,5.8,8.6,5.3,9,5.5
						c0,0-0.4,0-1.2,0C47.7,227.5,41.2,227.9,39.1,222.1z"/>
				</g>
				<g>
					<path class="st22" d="M160,157.7c0,0-3.8-8.1-8-9.5c-4.2-1.4-14.7-2.7-22.7-3.1s-17.7-0.5-21.5,1.7c-3,1.7-4.4,5.8-5,7.5
						c-0.1,0.3,0.2,0.5,0.5,0.4c1.3-0.7,3.9-2.1,6-2.4c0.5-0.1,1-0.4,1.2-0.8c0.9-1.7,2.6-4.8,5.8-4.8c3.8,0,17.4,0.3,22.7,0.9
						c5.3,0.5,9.2,1.4,10.3,2.5c1.1,1.1,5.1,6,5.1,6L160,157.7z"/>
					<path class="st22" d="M126.8,183.5c-1.6,0.1-3.1,0.2-4.7,0.3c-0.3-4.1-1.6-19.4-4-29.2c1-0.1,2-0.2,3-0.2L126.8,183.5z"/>
				</g>
			</g>
			<g>
				<path class="st54" d="M145.2,172.5c0.3,1,0.6,1.9,0.9,2.9c0.2,0.5,0.3,1,0.5,1.5c0.1,0.2,0.2,0.4,0.2,0.6c0,0,0.2,0.3,0.2,0.4
					c0.2,0.5,0.5,1,0.7,1.4c0,0,0.1,0.1,0.1,0.2c0.7-2.8,2.9-10.9,4.8-18.4c-2.1-0.7-4-1.3-5.8-1.9l-2.7,12
					C144.7,171.5,145.1,171.9,145.2,172.5z"/>
				<path class="st54" d="M149.5,181.7c2-0.1,3.7-0.2,5.1-0.3c1.2-3.5,2.6-7.7,3.9-11.8c-0.2-3.7-0.4-6.8-0.4-6.8
					c-0.9-0.3-1.9-0.6-2.8-0.9L149.5,181.7z"/>
			</g>
			<linearGradient id="SVGID_27_" gradientUnits="userSpaceOnUse" x1="24.3879" y1="231.8381" x2="24.3879" y2="223.116">
				<stop  offset="9.964900e-04" style="stop-color:#393B3A"/>
				<stop  offset="1" style="stop-color:#4D4F4E"/>
			</linearGradient>
			<path class="st76" d="M48.5,227.7c-0.5-0.2-6.1-0.3-8-5.2H0.3c0,0,0,0,0,0c0,0.6,0.1,1.2,0.4,1.8c1,1.9,2.4,2.8,3.7,3.2
				c0.6,0.1,1.3,0.2,2.2,0.2C11.3,227.7,48.5,227.7,48.5,227.7z"/>
		</g>
		<path class="st22" d="M123.1,154.8c9.1,0,18.6,2.4,35,8.1c0,0,0.9,14.2,0.6,18.4c-2.4,0-60.2,3.4-62.8,3.4c-0.1,0-0.1,0-0.1,0
			c-0.1-0.2,1.9-26,15.7-28.7C115.7,155.2,119.4,154.8,123.1,154.8L123.1,154.8z M123.1,153.8c-3.7,0-7.4,0.4-11.7,1.2
			c-2.9,0.5-5.5,2.1-7.7,4.5c-1.8,2-3.5,4.7-4.8,7.9c-1.8,4.2-2.7,8.6-3.3,11.5c-0.3,1.7-0.5,3.1-0.6,4c-0.1,0.6-0.1,0.9-0.1,1.2
			c0,0.5-0.1,0.7,0.1,1c0.3,0.4,0.7,0.4,0.9,0.4c1.4,0,16.6-0.9,32.7-1.8c14.3-0.8,29-1.6,30.2-1.6c0.5,0,0.9-0.4,0.9-0.9
			c0.3-4.2-0.6-17.9-0.6-18.5c0-0.4-0.3-0.7-0.6-0.8c-8.8-3-15.1-5-20.4-6.2C132.5,154.5,127.7,153.8,123.1,153.8L123.1,153.8z"/>
		<g>
			<g>
				<g>
					<ellipse class="st77" cx="158.4" cy="221.9" rx="9.4" ry="17.2"/>
				</g>
				<g>
					<ellipse class="st78" cx="159.6" cy="221.9" rx="5.2" ry="9.4"/>
				</g>
				<path class="st79" d="M163.1,221.9c0-4.7-1.9-8.6-4.3-9.3c0.3-0.1,0.5-0.1,0.8-0.1c2.9,0,5.2,4.2,5.2,9.4c0,5.2-2.3,9.4-5.2,9.4
					c-0.3,0-0.6,0-0.8-0.1C161.2,230.4,163.1,226.5,163.1,221.9z"/>
			</g>
			<g>
				<g>
					<ellipse class="st77" cx="78.3" cy="221.9" rx="11.9" ry="17.2"/>
				</g>
				<g>
					<ellipse class="st78" cx="79.7" cy="221.9" rx="6.9" ry="10"/>
				</g>
				<path class="st79" d="M84.4,221.9c0-5-2.5-9.1-5.8-9.8c0.4-0.1,0.7-0.1,1.1-0.1c3.8,0,6.9,4.5,6.9,10c0,5.5-3.1,10-6.9,10
					c-0.4,0-0.7,0-1.1-0.1C81.9,230.9,84.4,226.8,84.4,221.9z"/>
			</g>
		</g>
		<path class="st71" d="M146.2,221.1c-0.6,1.8-1,3.4-1.4,4.6c-0.4,1.3-1.6,2.2-2.9,2.2h-47c-1.3,0-2.4-1-2.5-2.3
			c-0.1-1.2-0.3-2.8-0.5-4.6H146.2z"/>
		<path class="st53" d="M40.4,175.8c0,0-1.4,2.3-0.2,2.5c-0.9,0.3-2.1,0.2-2.1,0.2L40.4,175.8z"/>
	</g>
	
		<linearGradient id="SVGID_28_" gradientUnits="userSpaceOnUse" x1="-4294.9297" y1="-454.2395" x2="-4294.9297" y2="-475.3199" gradientTransform="matrix(-0.9877 -0.3072 0 1 -4137.2856 -666.209)">
		<stop  offset="0" style="stop-color:#B61C1C"/>
		<stop  offset="1" style="stop-color:#F00000"/>
	</linearGradient>
	<path class="st80" d="M97.6,181.5v-0.5c0-3.8,3-5.9,6.7-4.7l2.1,0.6c4.7,1.5,8.5,6.5,8.5,11.2v0c0,1.8-1.2,2.9-2.7,2.9v0.2
		l-1.1-0.4L95.6,186c-0.5-0.1-0.8-0.6-0.8-1.1v-2.6c0-0.5,0.4-0.7,0.8-0.6l1,0.3C97.2,182.2,97.6,182,97.6,181.5z"/>
	<g>
		<g>
			<g>
				<path class="st42" d="M98.6,180.1c-0.1,0.2-0.2,0.4-0.3,0.5c-0.3,0.4-0.5,0.9-0.8,1.3c-0.3,0.4-0.5,0.9-0.8,1.3l-0.1,0.2
					l-0.1,0.3c-0.1,0.1-0.1,0.2-0.1,0.3c-0.1,0.2-0.2,0.4-0.3,0.5c0,0,0,0,0,0.1c0.2,0,2.2-0.1,5.5-0.2c0.1-0.9,0.3-1.8,0.4-2.6
					C100.9,181.4,99.5,180.7,98.6,180.1z"/>
				<path class="st81" d="M101.8,181.8c-0.9-0.4-2.3-1.1-3.2-1.7c1.6-0.9,3-2.6,4.1-4.2c0.4-2.2,0.9-3.9,1.5-5.1
					c-1.8,2.3-6.5,8.5-6.4,8.7c0.2,0.2,0.5,0.4,0.8,0.7C99.5,180.7,100.9,181.4,101.8,181.8C101.8,181.8,101.8,181.8,101.8,181.8z"
					/>
				<path class="st81" d="M98.6,180.1c0.9,0.6,2.3,1.3,3.2,1.7c0.3-2.2,0.6-4.2,0.9-6C101.6,177.5,100.2,179.1,98.6,180.1z"/>
				<path class="st82" d="M98.6,180.1c0.9,0.6,2.3,1.3,3.2,1.7c0.3-2.2,0.6-4.2,0.9-6C101.6,177.5,100.2,179.1,98.6,180.1z"/>
				<path class="st81" d="M118.5,181.4c0,0,0,0.1,0,0.1C118.4,181.5,118.4,181.4,118.5,181.4z"/>
				<path class="st81" d="M118,182.8C118,182.9,118,182.9,118,182.8C118,182.9,118,182.9,118,182.8z"/>
				<path class="st81" d="M119.3,180c-0.1,0.1-0.2,0.2-0.2,0.3C119.1,180.2,119.2,180.1,119.3,180z"/>
				<path class="st81" d="M118.6,175.8c0.5,1.2,0.9,2.2,1.3,3.2c-0.1,0.1-0.1,0.2-0.2,0.3c1.7-2.8,1.4-6.4,1.4-6.7
					c0-0.3-3.4-3.2-4.8-3.4l-6-0.8c0,0-0.6-0.1-4.8,0.9c-0.5,0.3-0.9,0.7-1.2,1.4c-0.6,1.2-1.1,2.9-1.5,5.1c-0.3,1.7-0.6,3.7-0.9,6
					l0,0c-0.1,0.8-0.2,1.7-0.4,2.6c1.7-0.1,3.6-0.2,5.8-0.3c1.8-7.1,3.5-12.8,3.5-12.9l0.2,0c0,0.1-1.7,5.7-3.5,12.8
					c2.2-0.1,4.7-0.3,7.3-0.4C117.2,181.3,119.1,177.5,118.6,175.8z M106.1,182.9c-0.1,0.2-1.5,0.8-1.5,0.8l-1.1-1.1l0.8-5
					c0,0,1.6-0.5,2.9,0.4C107.1,178.1,106.1,182.8,106.1,182.9z"/>
				<path class="st81" d="M117.9,183.2C117.9,183.3,117.9,183.3,117.9,183.2C117.9,183.3,117.9,183.3,117.9,183.2z"/>
				<path class="st81" d="M118.8,180.5c0,0.1-0.1,0.1-0.1,0.2C118.8,180.7,118.8,180.6,118.8,180.5z"/>
				<path class="st81" d="M119.5,179.7c-0.1,0.1-0.1,0.2-0.2,0.3C119.4,179.8,119.4,179.7,119.5,179.7z"/>
				<path class="st81" d="M119.7,179.3c-0.1,0.1-0.1,0.2-0.2,0.3C119.6,179.5,119.6,179.4,119.7,179.3z"/>
				<path class="st83" d="M110.7,171.2c0,0.1-1.7,5.7-3.5,12.9c0.1,0,0.1,0,0.2,0c1.7-7.1,3.4-12.7,3.5-12.8L110.7,171.2z"/>
				<path class="st83" d="M104.2,177.7l-0.8,5l1.1,1.1c0,0,1.5-0.6,1.5-0.8c0.1-0.2,1.1-4.9,1.1-4.9
					C105.8,177.2,104.2,177.7,104.2,177.7z"/>
				<path class="st82" d="M119.3,179.9C119.3,179.9,119.3,179.9,119.3,179.9C119.3,179.9,119.3,179.9,119.3,179.9z"/>
				<path class="st82" d="M118.8,180.5c0.1-0.1,0.1-0.2,0.2-0.3c0,0,0,0,0,0s0,0,0,0C119,180.3,118.9,180.4,118.8,180.5z"/>
				<path class="st82" d="M118.2,182.3c0,0.2-0.1,0.3-0.1,0.5C118.1,182.6,118.1,182.5,118.2,182.3z"/>
				<path class="st82" d="M118,182.9c0,0.1-0.1,0.2-0.1,0.3C118,183.1,118,183,118,182.9z"/>
				<path class="st82" d="M117.9,183.5L117.9,183.5c0,0,0-0.1,0-0.1C117.9,183.4,117.9,183.4,117.9,183.5z"/>
				<path class="st82" d="M119.7,179.3C119.7,179.3,119.7,179.3,119.7,179.3C119.7,179.3,119.7,179.3,119.7,179.3z"/>
				<path class="st82" d="M119.5,179.6C119.5,179.6,119.5,179.6,119.5,179.6C119.5,179.6,119.5,179.6,119.5,179.6z"/>
				<path class="st82" d="M118.4,181.5c-0.1,0.2-0.2,0.5-0.2,0.8C118.3,182,118.3,181.8,118.4,181.5z"/>
				<path class="st82" d="M118.7,180.7c-0.1,0.2-0.2,0.4-0.3,0.7C118.5,181.2,118.6,180.9,118.7,180.7z"/>
				<path class="st81" d="M117.9,183.2c0-0.1,0-0.2,0.1-0.3c0,0,0-0.1,0-0.1c0-0.2,0.1-0.4,0.1-0.5c0.1-0.3,0.2-0.5,0.2-0.8
					c0,0,0-0.1,0-0.1c0.1-0.3,0.2-0.5,0.3-0.7c0-0.1,0.1-0.1,0.1-0.2c0.1-0.1,0.1-0.2,0.2-0.3c0,0,0,0,0,0c0.1-0.1,0.2-0.2,0.2-0.3
					c0,0,0,0,0-0.1c0.1-0.1,0.1-0.2,0.2-0.3c0,0,0,0,0,0c0.1-0.1,0.1-0.2,0.2-0.3c0,0,0,0,0,0c0.1-0.1,0.1-0.2,0.2-0.3
					c-0.4-1-0.8-2.1-1.3-3.2c0.5,1.7-1.4,5.5-3.9,7.9c1-0.1,2.1-0.1,3.2-0.2C117.9,183.4,117.9,183.4,117.9,183.2
					C117.9,183.3,117.9,183.3,117.9,183.2z"/>
				<path class="st82" d="M117.9,183.2c0-0.1,0-0.2,0.1-0.3c0,0,0-0.1,0-0.1c0-0.2,0.1-0.4,0.1-0.5c0.1-0.3,0.2-0.5,0.2-0.8
					c0,0,0-0.1,0-0.1c0.1-0.3,0.2-0.5,0.3-0.7c0-0.1,0.1-0.1,0.1-0.2c0.1-0.1,0.1-0.2,0.2-0.3c0,0,0,0,0,0c0.1-0.1,0.2-0.2,0.2-0.3
					c0,0,0,0,0-0.1c0.1-0.1,0.1-0.2,0.2-0.3c0,0,0,0,0,0c0.1-0.1,0.1-0.2,0.2-0.3c0,0,0,0,0,0c0.1-0.1,0.1-0.2,0.2-0.3
					c-0.4-1-0.8-2.1-1.3-3.2c0.5,1.7-1.4,5.5-3.9,7.9c1-0.1,2.1-0.1,3.2-0.2C117.9,183.4,117.9,183.4,117.9,183.2
					C117.9,183.3,117.9,183.3,117.9,183.2z"/>
			</g>
			<path class="st42" d="M102.4,180c1-1.3,3.2-3,3.1-4.8c-0.2-1.9-2.1-3.3-2.1-3.3c-0.1,0.1-3.7,2.8-6.2,4.7c-0.5,2.1-0.8,4-1,5.5
				C98.9,181.4,101.9,180.6,102.4,180z"/>
			<path class="st81" d="M105.5,169.3c0,0-7.2,5.1-7.9,5.8c-0.6,0.7,3.7,3.6,3.7,3.6s3.2-3.2,3.5-4.5
				C105.1,172.9,105.5,169.3,105.5,169.3z"/>
		</g>
		<g>
			<g>
				<path class="st42" d="M122,176.1c0,0,0,0.1,0.1,0.3c0.1,0.2,0.2,0.5,0.4,1c0.2,0.4,0.4,0.9,0.6,1.5c0.2,0.6,0.5,1.2,0.7,2
					c0.3,0.7,0.5,1.5,0.8,2.3c0.3,0.8,0.6,1.7,0.9,2.7c0.1,0.3,0.1,0.5,0.2,0.8l0,0.1l0,0.2l0,0.1l0,0.2l0,0c0,0,0,0.1,0,0.2
					c0,0.1,0,0.2,0,0.3c0,0.1,0,0.1,0,0.2c0,0.3-0.2,0.6-0.3,0.8c-0.1,0.2-0.3,0.4-0.5,0.5c0,0-0.1,0.1-0.1,0.1c0,0-0.1,0.1-0.1,0.1
					c-0.1,0-0.1,0.1-0.2,0.1c-0.2,0.1-0.4,0.2-0.5,0.2c-0.1,0-0.2,0.1-0.3,0.1c-0.1,0-0.2,0-0.2,0c-0.3,0-0.4,0-0.6,0
					c-0.2,0-0.3,0-0.5,0c-0.3,0-0.6-0.1-0.8-0.1c-1.1-0.2-2.1-0.4-3.1-0.6c-2-0.5-4-1-5.8-1.5c-0.9-0.3-1.8-0.5-2.6-0.7
					c-0.8-0.2-1.6-0.5-2.3-0.7c-1.4-0.4-2.7-0.8-3.5-1.1c-0.8-0.3-1.3-0.4-1.3-0.4l0.5-2.1c0,0,0.5,0.1,1.4,0.3
					c0.9,0.2,2.1,0.4,3.6,0.7c0.7,0.1,1.5,0.3,2.4,0.4c0.8,0.2,1.7,0.3,2.7,0.5c0.9,0.2,1.9,0.3,2.8,0.5c1,0.2,1.9,0.3,2.9,0.4
					c1,0.1,1.9,0.3,2.8,0.3c0.2,0,0.4,0,0.6,0c0.1,0,0.2,0,0.3,0c0.1,0,0.1,0,0.1,0c0,0,0,0,0,0c0,0-0.1,0-0.1,0
					c-0.1,0-0.2,0-0.3,0.1c0,0-0.1,0-0.1,0.1c0,0-0.1,0-0.1,0.1c0,0-0.1,0-0.1,0.1c-0.1,0.1-0.3,0.2-0.4,0.4
					c-0.1,0.2-0.2,0.5-0.3,0.7c0,0.1,0,0.1,0,0.2c0,0.1,0,0.1,0,0.2c0,0.1,0,0.2,0,0.2l0,0c0,0.2,0,0.1,0,0.1l0,0l0,0l0,0l0,0l0,0
					l0,0l0,0c-0.1-0.1-0.2-0.3-0.3-0.5c-0.2-0.4-0.4-0.8-0.6-1.2c-0.2-0.4-0.4-0.8-0.6-1.1c-0.4-0.7-0.8-1.5-1.2-2.1
					c-0.4-0.7-0.7-1.3-1-1.8c-0.3-0.5-0.6-1-0.8-1.4c-0.2-0.4-0.4-0.7-0.5-0.9c-0.1-0.2-0.2-0.3-0.2-0.3L122,176.1z"/>
				<path class="st84" d="M120,185.5c0,0,1.1,0.4,1.7,0.9c-0.2-0.5-0.8-0.7-0.8-1c-0.1-0.3,4-1.5,4-1.5c0-0.1-0.1-0.7-0.2-0.7
					c-0.1,0-4.5,0.7-4.5,0.8c0,0.1-0.4,0.6-0.3,0.6c0.1,0,0.1,0.2,0.1,0.2c0.1,0.1,0.4,0.7,0.4,0.7L120,185.5z"/>
			</g>
			<g>
				<g>
					<g>
						<path class="st81" d="M120.9,172.4c0,0,3.9,10.5,3.6,10.6c-1.3,0.8-5.6,1.1-5.6,1.1s-4-8.2-4-8.8
							C115,174.7,120.9,172.4,120.9,172.4z"/>
					</g>
					<path class="st83" d="M124.6,181.5l0.7,1.9c0,0-6.5,2-6.8,1.7c-0.3-0.3-0.6-2-0.6-2L124.6,181.5z"/>
					<path class="st83" d="M100.1,181.2c0.4,0.1,1.9-0.8,1.9-0.8l-3.2-6.2l-1.2,0.5c-0.1,0.4-0.2,0.8-0.3,1.1
						C98.1,177.6,99.8,181.2,100.1,181.2z"/>
				</g>
				<g>
					<path class="st85" d="M117.4,168.3c0,0-2.8-1.9-6.3-0.8c3.9,1.1,4.5,2.1,4.7,2C116.1,169.5,117.4,168.3,117.4,168.3z"/>
					<path class="st42" d="M112,169.5c0,0.2-1.2,2.1-1.2,2.1l0.2-2.4L112,169.5z"/>
					<path class="st42" d="M118.8,159.8c-0.1,1.2-2.5,9.5-2.5,9.5s-3.3,1.2-4.8,1s-1.3-1.8-1.3-1.8s1.7-5.1,1.6-5.8
						C111.6,162.1,118.8,159.8,118.8,159.8z"/>
					<path class="st84" d="M116.2,161.1c-0.3,0.4-0.6,0.7-1,0.9c-2,0.9-2.8,0.6-2.8,0.6s-0.2,0-0.4-0.1c-0.2,0.1-0.3,0.2-0.2,0.3
						c0.2,0.6-1.6,5.8-1.6,5.8s0,0.4,0.1,0.8c3.1,0.7,6.1-1.7,7.5-5.3c0.4-1.6,0.8-3.1,0.9-3.6C118.7,160.4,117.6,160.8,116.2,161.1
						z"/>
					<path class="st83" d="M118.1,170.1c-0.1-0.2-0.7-1.8-0.7-1.8l-5.4,1.2l0.1,2.3L118.1,170.1z"/>
					<polygon class="st83" points="111,169.2 109.4,171.3 108.6,168.7 110.4,168 					"/>
					<polygon class="st83" points="112,169.5 110.8,171.6 111.9,170.7 112.1,171.8 					"/>
					<polygon class="st83" points="109.4,171.3 111,169.2 110.8,171.6 110.6,170.3 					"/>
					<g>
						<path d="M108.4,158.4l0.6,0l0.1-0.3l0.2,0l0-0.1l-0.6,0c-0.2,0-0.3,0.1-0.3,0.3L108.4,158.4z"/>
						<path class="st86" d="M109.3,156c0,0-0.7-3.9-0.6-4.4c0-0.5,1.2-1,1.3-0.9c0.1,0.1,0.8,0.4,1,0.9S109.3,156,109.3,156z"/>
						<path class="st42" d="M109.8,153.4l-1.2,3.5c0,0,0.6,2.7-0.1,4.1c0.4,1.5,0.5,4.7,0.5,4.7l8.4-0.7l0.7-8.8l0.1-3.4
							L109.8,153.4z"/>
						<path class="st84" d="M115.6,157.3l-0.2,0.8c0,0-1.7-1-2.4-0.3c0.1-0.5,0.1-1.4,0.1-1.4c0,0,1.1,0.2,1.3,0.3
							c0.2,0,0.4,0.1,0.6,0.2C115,157,115.6,157.3,115.6,157.3z"/>
						<path class="st84" d="M109.4,156.6c0.1-0.1,0.4-0.1,0.6-0.2c0.2,0,1.3-0.2,1.3-0.2c0,0-0.1,0.9-0.1,1.4
							c-0.7-0.7-2.5,0.1-2.5,0.1l0,0c0-0.4-0.1-0.7-0.1-0.8C108.6,156.9,109.2,156.7,109.4,156.6z"/>
						<path class="st87" d="M110.6,157.8c0.4,0.1,0.7,0.5,0.5,1c-0.1,0.2-0.3,0.5-0.7,0.4c-1.1-0.1-1.4-0.8-1.4-0.8
							S109.7,157.5,110.6,157.8z"/>
						<path class="st5" d="M110.6,157.9c0.4,0.1,0.6,0.5,0.5,0.9c-0.1,0.2-0.3,0.4-0.7,0.4c-1.1-0.1-1.4-0.8-1.4-0.8
							S109.7,157.6,110.6,157.9z"/>
						<path class="st87" d="M110.6,157.9c0.3,0.1,0.5,0.3,0.5,0.6c0,0.2-0.1,0.5-0.3,0.6c-0.1,0.1-0.3,0.1-0.5,0.1
							c-0.2,0-0.4-0.1-0.6-0.1c-0.1-0.1-0.2-0.3-0.3-0.5c0-0.2,0.1-0.5,0.2-0.6C110,157.8,110.3,157.8,110.6,157.9z"/>
						<path class="st42" d="M109,158.9c0.3-0.1,0.7-0.2,1.2-0.1c0.9,0,1.6,0.3,1.5,0.7c0,0.3-0.7,0.6-1.6,0.5c-0.4,0-0.7-0.1-1-0.2
							C109.2,159.5,109.1,159.2,109,158.9z"/>
						<path class="st84" d="M111.2,159.4c0,0.2-0.5,0.4-1.2,0.3c-0.6,0-1.2-0.3-1.1-0.5c0-0.2,0.5-0.4,1.2-0.3
							C110.7,159,111.2,159.2,111.2,159.4z"/>
						<path class="st88" d="M119.6,153.8l-3.2-0.2l0.9,0.5l0,5.5c0,1-0.7,1.9-1.8,2c-1.4,0.2-3.3,0.4-4.6,0.3c-2.3-0.1-2.5-1-2.5-1
							s-0.8,5.9,0.6,6.5c4,1.6,7.5-0.3,8.3-1.2C118.2,165.5,119.6,153.8,119.6,153.8z"/>
						<g class="st45">
							<polygon class="st88" points="116.4,153.6 116.9,153.6 116.9,153.8 							"/>
							<path class="st88" d="M108.6,166.1c4,1.6,7.5-0.3,8.3-1.2c0.6-0.7,2.6-11.1,2.6-11.1s-1.4,11.7-2.2,12.5
								c-0.8,0.8-4.4,2.8-8.3,1.2c-0.4-0.2-0.6-0.8-0.7-1.6C108.5,166,108.5,166.1,108.6,166.1z"/>
						</g>
						<path class="st88" d="M109.8,153.4c-0.4-0.3-2.1-1.6-0.7-4.2c1.6-3,10.2-1.4,10.5,4.5C119.5,153.8,109.8,153.4,109.8,153.4z"
							/>
						<path class="st89" d="M109.8,153.4c-0.4-0.3-2.1-1.6-0.7-4.2c0.5-0.8,1.5-1.3,2.7-1.4c-0.6,0.8-1.3,2.1-1.1,3
							c0.3,1.6,8,2.9,9,3C119.5,153.8,109.8,153.4,109.8,153.4z"/>
						<path class="st52" d="M112,161.4l-0.8-0.3l0,0l0,0l0,0c-0.1-0.1-0.1-0.2-0.1-0.3c0-0.1,0-0.2,0-0.3c0-0.1,0.1-0.2,0.1-0.2
							c0-0.1,0.1-0.1,0.1-0.2c0.1-0.3,0.3-0.5,0.4-0.8c0.1-0.1,0.1-0.3,0.2-0.4c0-0.1,0.1-0.1,0.1-0.2l0-0.1l0,0l0,0l0-0.1
							c0-0.1,0-0.3,0-0.4c0-0.1,0-0.3-0.1-0.4c0,0,0-0.1,0.1-0.1c0,0,0.1,0,0.1,0.1l0,0c0,0.1,0.1,0.3,0.1,0.5c0,0.2,0,0.3,0,0.5
							l0,0.1l0,0l0,0l0,0.1c0,0.1,0,0.1-0.1,0.2c-0.1,0.1-0.1,0.3-0.2,0.4c-0.1,0.3-0.3,0.6-0.4,0.8c0,0.1-0.1,0.1-0.1,0.2
							c0,0.1-0.1,0.1-0.1,0.2c0,0.1,0,0.2,0.1,0.3l0,0l0,0l0.7,0.4c0,0,0.1,0.1,0,0.1C112.1,161.4,112,161.5,112,161.4z"/>
						<path class="st88" d="M113.3,155.9c-0.3,0-0.3,0.9,0,1.1c0.3-0.1,2.1,0.2,2.3,0.3c0.2-0.1,0.3-0.8,0.3-0.8
							C115.9,156.3,113.5,155.8,113.3,155.9z"/>
						<path class="st88" d="M111.2,155.9c0,0,0.3,1,0,1.1c-0.3-0.1-2.4-0.1-2.6,0c-0.2-0.1-0.1-0.8-0.1-0.8
							C108.5,155.9,110.9,155.7,111.2,155.9z"/>
						<path class="st87" d="M113.6,158c-0.4,0.1-0.6,0.6-0.5,1c0.1,0.2,0.3,0.4,0.7,0.4c1.1-0.1,1.4-0.9,1.4-0.9
							S114.5,157.7,113.6,158z"/>
						<path class="st5" d="M113.6,158.1c-0.4,0.1-0.6,0.5-0.5,0.9c0.1,0.2,0.3,0.4,0.8,0.4c1.1-0.1,1.4-0.9,1.4-0.9
							S114.5,157.8,113.6,158.1z"/>
						<path class="st87" d="M113.5,158.6c0-0.2,0.1-0.4,0.3-0.5c0.5-0.1,0.9,0.1,1.2,0.3c0.1,0.1,0.1,0.2,0.1,0.4c0,0.1,0,0.1,0,0.2
							c-0.2,0.2-0.5,0.4-1,0.5C113.7,159.2,113.5,158.9,113.5,158.6z"/>
						<path class="st42" d="M112.6,159.5c0-0.3,0.7-0.6,1.6-0.5c0.9,0,1.6,0.3,1.5,0.7s-0.7,0.6-1.6,0.5
							C113.3,160.2,112.6,159.9,112.6,159.5z"/>
						<path class="st84" d="M112.9,159.6c0,0.2,0.5,0.4,1.2,0.4c0.6,0,1.2-0.2,1.1-0.5c0-0.2-0.5-0.4-1.2-0.4
							C113.4,159.2,112.9,159.4,112.9,159.6z"/>
						<path class="st5" d="M113.7,163c-0.8,0-2.7,0-3.6-0.2c-0.1,0-0.2,0.1-0.2,0.2c0,0.5,0,1,0,1.3c0,0.1,0.1,0.3,0.2,0.3
							c0.7,0,2.5,0.1,3.6-1.3C113.9,163.1,113.8,163,113.7,163z"/>
						<path class="st42" d="M118.3,158.5c0.1-0.5,0.5-0.9,1-1c0.3,0,0.6,0,0.8,0.1c0.5,0.3,0.8,4.1-1.5,3.7
							C118.4,160.3,118.2,159.2,118.3,158.5z"/>
						<path class="st84" d="M118.3,158.5c0.1-0.5,0.5-0.9,1-1c0.3,0,0.6,0,0.8,0.1c0.5,0.3,0.8,4.1-1.5,3.7
							C118.4,160.3,118.2,159.2,118.3,158.5z"/>
						<g class="st45">
							<path class="st46" d="M118.8,159.8c-0.1,0-0.1,0-0.2-0.1c0-0.1,0-0.2,0.1-0.2c0,0,0,0,0,0c0.1,0,0.2-0.1,0.2-0.2
								c0-0.1,0-0.1-0.1-0.2c-0.1-0.1-0.1-0.2-0.1-0.4c0.1-0.3,0.4-0.7,0.8-0.7c0.2,0,0.4,0,0.5,0.2c0.1,0.1,0,0.2,0,0.3
								c-0.1,0.1-0.2,0-0.3,0c0,0-0.1-0.1-0.2,0c-0.2,0.1-0.4,0.4-0.4,0.5c0.2,0.2,0.3,0.4,0.2,0.6
								C119.2,159.6,118.9,159.8,118.8,159.8C118.8,159.8,118.8,159.8,118.8,159.8z"/>
						</g>
						<path class="st5" d="M114.6,158.4c0-0.1,0.1-0.2,0.2-0.2c0.1,0,0.2,0.1,0.2,0.2c0,0.1-0.1,0.2-0.2,0.2
							C114.6,158.6,114.6,158.5,114.6,158.4z"/>
						<path class="st5" d="M110.7,158.2c0-0.1,0.1-0.2,0.2-0.2c0.1,0,0.2,0.1,0.2,0.2c0,0.1-0.1,0.2-0.2,0.2
							C110.7,158.4,110.7,158.3,110.7,158.2z"/>
						<path d="M112.2,159.5l0-0.9c0-0.2,0.2-0.4,0.4-0.4l2.4,0.1c0.2,0,0.4,0.2,0.4,0.4l0,0.9c0,0.2-0.2,0.4-0.4,0.4l-2.4-0.1
							C112.4,159.9,112.2,159.7,112.2,159.5z M112.7,158.4c-0.1,0-0.3,0.1-0.3,0.2l0,0.9c0,0.1,0.1,0.3,0.2,0.3l2.4,0.1
							c0.1,0,0.3-0.1,0.3-0.2l0-0.9c0-0.1-0.1-0.3-0.2-0.3L112.7,158.4z"/>
						<path d="M108.3,159.3l0-0.9c0-0.2,0.2-0.4,0.4-0.4l2.4,0.1c0.2,0,0.4,0.2,0.4,0.4l0,0.9c0,0.2-0.2,0.4-0.4,0.4l-2.4-0.1
							C108.4,159.7,108.3,159.5,108.3,159.3z M108.7,158.2c-0.1,0-0.3,0.1-0.3,0.2l0,0.9c0,0.1,0.1,0.3,0.2,0.3l2.4,0.1
							c0.1,0,0.3-0.1,0.3-0.2l0-0.9c0-0.1-0.1-0.3-0.2-0.3L108.7,158.2z"/>
						
							<rect x="111.8" y="158.4" transform="matrix(4.645351e-02 -0.9989 0.9989 4.645351e-02 -51.9517 263.2748)" width="0.2" height="0.8"/>
						<polygon points="116,158.8 115.4,158.8 115.3,158.5 115.1,158.4 115.1,158.3 116,158.3 						"/>
						<path d="M116,158.3l3-0.8c0,0-0.5,0.2-0.7,0.6c-0.3,0.2-2.4,0.4-2.4,0.4L116,158.3z"/>
						<path class="st88" d="M111.5,161.4c-0.4,0-2.2,0.1-2.6,0.6c1.1,0.3,4.9,0.2,4.9,0.2S113.1,161.6,111.5,161.4z"/>
					</g>
				</g>
			</g>
		</g>
	</g>
	<g>
		<g>
			<g>
				
					<linearGradient id="SVGID_29_" gradientUnits="userSpaceOnUse" x1="-4266.7051" y1="187.8622" x2="-4266.7051" y2="176.8768" gradientTransform="matrix(-1 0 0 1 -4161.7876 0)">
					<stop  offset="0" style="stop-color:#FE5236"/>
					<stop  offset="1" style="stop-color:#FE6C54"/>
				</linearGradient>
				<path class="st90" d="M97.6,180.6v-0.5c0-3.8,3-6.8,6.8-6.8h2.1c4.7,0,8.6,3.8,8.6,8.6v0c0,1.8-1.2,3.3-2.8,3.7v0.2h-1.1H95.6
					c-0.5,0-0.8-0.4-0.8-0.8v-2.6c0-0.5,0.4-0.8,0.8-0.8h1.1C97.2,181.5,97.6,181.1,97.6,180.6z"/>
				
					<linearGradient id="SVGID_30_" gradientUnits="userSpaceOnUse" x1="-4266.7051" y1="193.6348" x2="-4266.7051" y2="177.1718" gradientTransform="matrix(-1 0 0 1 -4161.7876 0)">
					<stop  offset="0" style="stop-color:#B61C1C"/>
					<stop  offset="1" style="stop-color:#F00000"/>
				</linearGradient>
				<path class="st91" d="M95.2,181.6c0.3,2.4,2.8,2.8,11.4,2.8c7.4,0,7.1-5.1,6.2-8.4c1.4,1.5,2.3,3.6,2.3,5.8v0
					c0,1.8-1.2,3.3-2.8,3.7v0.2h-1.1H95.6c-0.5,0-0.8-0.4-0.8-0.8v-2.6C94.8,182,95,181.8,95.2,181.6z"/>
			</g>
		</g>
		<path class="st22" d="M151.5,181.8c-1.4,0.1-3,0.2-4.8,0.3l-7.4-25.2c0.8,0.2,1.5,0.4,2.3,0.6L151.5,181.8z"/>
		<g>
			<g>
				<path class="st92" d="M124.7,176c0,0,19-1.8,19.9-1.8c0.9,0,4.2,7.6,3.1,7.6s-22.2,1.4-22.2,1.4L124.7,176z"/>
				<path class="st92" d="M144.7,174.2c-0.9,0-19.9,1.8-19.9,1.8l0.4,3.5l0,0c0.1-0.7,0.4-2.6,1-2.9c0.6-0.4,16.6-1.8,17.4-1.8
					s2.4,1.9,2.5,1.2l0,0C145.5,175,145,174.2,144.7,174.2z"/>
				<g>
					<path class="st54" d="M135.4,175c-1.2,0.1-2.3,0.2-3.4,0.3c0,0-0.2,6.7-0.1,7.3c0,0.1,0,0.1,0,0.2c0.8-0.1,1.7-0.1,2.5-0.2
						C134.7,180.3,135,177.7,135.4,175z"/>
					<path class="st54" d="M135.8,182.6c0.8-0.1,1.6-0.1,2.4-0.2c0.3-2.9,0.5-5.7,0.7-7.7c-0.6,0.1-1.3,0.1-1.9,0.2L135.8,182.6z"/>
				</g>
			</g>
		</g>
	</g>
	<g>
		<g>
			<g>
				<ellipse class="st77" cx="80.1" cy="221.9" rx="5.2" ry="7.5"/>
			</g>
			<g>
				<ellipse class="st78" cx="81.6" cy="221.9" rx="2.5" ry="3.7"/>
			</g>
		</g>
		<g>
			<g>
				<ellipse class="st77" cx="160" cy="221.9" rx="3.9" ry="7.5"/>
			</g>
			<g>
				<ellipse class="st78" cx="161.1" cy="221.9" rx="1.9" ry="3.7"/>
			</g>
		</g>
	</g>
	<g>
		<g>
			<g>
				<ellipse class="st93" cx="42.5" cy="213.7" rx="3.4" ry="3.8"/>
				<ellipse class="st94" cx="42.1" cy="213.7" rx="3" ry="3.2"/>
				<path class="st95" d="M43.5,210.9c0.4,0.5,0.6,1.2,0.6,1.9c0,1.8-1.3,3.2-3,3.2c-0.5,0-1-0.1-1.4-0.4c0.5,0.8,1.4,1.3,2.4,1.3
					c1.6,0,3-1.4,3-3.2C45,212.5,44.4,211.4,43.5,210.9z"/>
			</g>
			<g>
				<ellipse class="st93" cx="2.9" cy="213.7" rx="2.3" ry="3.8"/>
				<path class="st94" d="M0.2,213.7c0,1.8,1.3,3.2,2.4,3.2s2-1.4,2-3.2s-0.9-3.2-2-3.2S0.2,212,0.2,213.7z"/>
				<path class="st95" d="M4,211.5c0.1,0.3,0.1,0.7,0.1,1.1c0,2.1-1.1,3.8-2.4,3.8c-0.3,0-0.5-0.1-0.8-0.2c0.5,0.4,1.1,0.7,1.6,0.7
					c1.1,0,2-1.4,2-3.2C4.6,212.9,4.4,212.1,4,211.5z"/>
			</g>
		</g>
		<g>
			
				<linearGradient id="SVGID_31_" gradientUnits="userSpaceOnUse" x1="108.8315" y1="219.1662" x2="108.8315" y2="196.907" gradientTransform="matrix(1 0 -0.2028 0.9966 -42.763 -0.7917)">
				<stop  offset="9.964900e-04" style="stop-color:#393B3A"/>
				<stop  offset="1" style="stop-color:#4D4F4E"/>
			</linearGradient>
			<path class="st96" d="M37.6,208.9H6.8c-2.7,0-4.7-1.6-4.1-3.3l1.2-4c0.4-1.3,2.1-2.2,4.1-2.2h35.2c2,0,3.4,1.2,3.1,2.4l-0.9,2.9
				C44.6,207.1,41.4,208.9,37.6,208.9z"/>
			
				<linearGradient id="SVGID_32_" gradientUnits="userSpaceOnUse" x1="-4438.2959" y1="212.2673" x2="-4438.2959" y2="220.8886" gradientTransform="matrix(-1 0 0 1 -4415.6377 0)">
				<stop  offset="9.964900e-04" style="stop-color:#2A2B2B"/>
				<stop  offset="1" style="stop-color:#4D4F4E"/>
			</linearGradient>
			<polygon class="st97" points="3.9,201.6 41.4,201.6 41.4,200.3 3.9,200.3 			"/>
			
				<linearGradient id="SVGID_33_" gradientUnits="userSpaceOnUse" x1="-4438.2959" y1="212.2673" x2="-4438.2959" y2="220.8886" gradientTransform="matrix(-1 0 0 1 -4415.6377 0)">
				<stop  offset="9.964900e-04" style="stop-color:#2A2B2B"/>
				<stop  offset="1" style="stop-color:#4D4F4E"/>
			</linearGradient>
			<polygon class="st98" points="3.9,203.7 41.4,203.7 41.4,202.4 3.9,202.4 			"/>
			
				<linearGradient id="SVGID_34_" gradientUnits="userSpaceOnUse" x1="-4438.2959" y1="212.2673" x2="-4438.2959" y2="220.8886" gradientTransform="matrix(-1 0 0 1 -4415.6377 0)">
				<stop  offset="9.964900e-04" style="stop-color:#2A2B2B"/>
				<stop  offset="1" style="stop-color:#4D4F4E"/>
			</linearGradient>
			<polygon class="st99" points="3.9,205.8 41.4,205.8 41.4,204.5 3.9,204.5 			"/>
			
				<linearGradient id="SVGID_35_" gradientUnits="userSpaceOnUse" x1="-4438.2959" y1="212.2673" x2="-4438.2959" y2="220.8886" gradientTransform="matrix(-1 0 0 1 -4415.6377 0)">
				<stop  offset="9.964900e-04" style="stop-color:#2A2B2B"/>
				<stop  offset="1" style="stop-color:#4D4F4E"/>
			</linearGradient>
			<polygon class="st100" points="3.9,207.9 41.4,207.9 41.4,206.6 3.9,206.6 			"/>
		</g>
		<g>
			<linearGradient id="SVGID_36_" gradientUnits="userSpaceOnUse" x1="47.0358" y1="219.0195" x2="47.0358" y2="193.3201">
				<stop  offset="0" style="stop-color:#EEE8CF"/>
				<stop  offset="1" style="stop-color:#EEEDE7"/>
			</linearGradient>
			<path class="st101" d="M35.9,202c0.1-1.4,1.1-2.5,2.5-2.8c3.2-0.8,8.4-2,8.4-2l10.7,0.2c0.7,0,1.3,0.6,1.3,1.3v8.8
				c0,0.7-0.6,1.3-1.3,1.3H37.3c-1.2,0-2.1-1.1-1.9-2.3C35.5,205.6,35.7,204.1,35.9,202z"/>
			<linearGradient id="SVGID_37_" gradientUnits="userSpaceOnUse" x1="4.3666" y1="219.0195" x2="4.3666" y2="193.3201">
				<stop  offset="0" style="stop-color:#EEE8CF"/>
				<stop  offset="1" style="stop-color:#EEEDE7"/>
			</linearGradient>
			<path class="st102" d="M7.3,208.9c0.6,0,1.1-1.1,1-2.3c-0.1-1-0.2-2.5-0.3-4.6c-0.1-1.4-0.6-2.5-1.3-2.8c-1.7-0.8-4.3-2-4.3-2
				l-0.1,0c0,0,0,0,0,0c-1.1,2.2-1.9,4.7-1.9,7.2c0,1.2,0.1,2.6,0,4.1c0,0.2,0.2,0.4,0.4,0.4H7.3z"/>
			<linearGradient id="SVGID_38_" gradientUnits="userSpaceOnUse" x1="63.2197" y1="203.0366" x2="66.874" y2="203.0366">
				<stop  offset="0" style="stop-color:#EEDFA2"/>
				<stop  offset="1" style="stop-color:#EEEDE7"/>
			</linearGradient>
			<path class="st103" d="M50.9,197.2c-0.7,2.3-1.6,6.5-1.6,11.6h8.1c0.7,0,1.3-0.6,1.3-1.3v-8.9c0-0.7-0.5-1.3-1.2-1.3
				C56,197.2,53.2,197.2,50.9,197.2z"/>
			<linearGradient id="SVGID_39_" gradientUnits="userSpaceOnUse" x1="0.4106" y1="206.6946" x2="8.353" y2="206.6946">
				<stop  offset="0" style="stop-color:#EEE8CF"/>
				<stop  offset="1" style="stop-color:#EEEDE7"/>
			</linearGradient>
			<path class="st104" d="M8.2,204.5c-0.1,1.5-0.4,2.9-1.3,3.3c-1.6,0.8-4.9,0.5-6.5,0.3c0,0.1,0,0.2,0,0.4c0,0.2,0.2,0.4,0.4,0.4
				h6.6c0.6,0,1.1-1.1,1-2.3C8.3,206,8.2,205.4,8.2,204.5z"/>
			<linearGradient id="SVGID_40_" gradientUnits="userSpaceOnUse" x1="35.2951" y1="203.7739" x2="58.7764" y2="203.7739">
				<stop  offset="0" style="stop-color:#EEE8CF"/>
				<stop  offset="1" style="stop-color:#EEEDE7"/>
			</linearGradient>
			<path class="st105" d="M57.4,208.9c0.7,0,1.3-0.6,1.3-1.3v-8.8c-0.1,3.3-0.3,8.8-1.6,9.2c-1.9,0.6-16,0.7-19,0.1
				c-1.3-0.2-2.1-2.1-2.5-4.1c-0.1,1.1-0.3,2-0.4,2.7c-0.2,1.2,0.7,2.3,1.9,2.3H57.4z"/>
		</g>
	</g>
</g>
</svg>
