<?xml version="1.0" encoding="utf-8"?>
<!-- Generator: Adobe Illustrator 25.0.0, SVG Export Plug-In . SVG Version: 6.00 Build 0)  -->
<svg version="1.1" id="Layer_1" xmlns="http://www.w3.org/2000/svg" xmlns:xlink="http://www.w3.org/1999/xlink" x="0px" y="0px"
	 viewBox="0 0 300 300" style="enable-background:new 0 0 300 300;" xml:space="preserve">
<style type="text/css">
	.st0{opacity:7.703218e-02;fill-rule:evenodd;clip-rule:evenodd;fill:#E13856;enable-background:new    ;}
	.st1{fill:#D9B287;}
	.st2{fill:#C7A47E;}
	.st3{fill:#FFFFFF;}
	.st4{fill:#737372;}
	.st5{fill:#201C3F;}
	.st6{fill-rule:evenodd;clip-rule:evenodd;fill:#312F61;}
	.st7{fill-rule:evenodd;clip-rule:evenodd;fill:#201C3F;}
	.st8{fill-rule:evenodd;clip-rule:evenodd;fill:#454691;}
	.st9{fill:#312F61;}
	.st10{fill:#454691;}
	.st11{fill-rule:evenodd;clip-rule:evenodd;fill:#FFFFFF;}
	.st12{fill-rule:evenodd;clip-rule:evenodd;fill:#222221;}
	.st13{fill-rule:evenodd;clip-rule:evenodd;fill:#C4C4C4;}
	.st14{fill-rule:evenodd;clip-rule:evenodd;fill:#D8D8D8;}
	.st15{fill:#DADADA;}
	.st16{fill:#B4B4B3;}
	.st17{fill:#3D3C7C;}
	.st18{opacity:0.26;}
	.st19{fill:#472919;}
	.st20{fill:#4E2F1E;}
	.st21{fill:#EBEBEB;}
	.st22{fill:#3B3A79;}
</style>
<circle id="Mask-Copy-2_1_" class="st0" cx="150" cy="149.5" r="149.5"/>
<g id="Layer_2_1_">
	<g id="OBJECTS">
		<path class="st1" d="M138.4,109.7c-0.7,0-1.3,0-2,0.1c-3.8,0.5-14.7,5.9-20.7,9.9c-3.5,2.3-7.2,4.2-11.1,5.7l4,7.3
			c0,0,4.3-2.5,13.9-5s16.2-6.3,20.4-10C144.3,116.2,139.9,109.7,138.4,109.7z"/>
		<path class="st1" d="M134.1,115.1c0.7-0.3-2.5-3.5-2.5-3.5s12.2-15.7,17.2-17.4c0,0,5.8-11.2,10.3-13.7
			c8.4-12.2,17.6-11.3,22.5-4.5c4.6,6.4-1.1,14-9,18.5c-9.4,5.3-10.9,6.9-14,10.2c-4.2,4.6-17.1,12.8-19.4,13.9
			C136.7,115.8,134.8,118.8,134.1,115.1z"/>
		<path class="st1" d="M110.4,122.6c-1.9,1-4,1.6-6.2,2c-2.4,0.3-3.2,0.5-7.1,1.1c-4.2,0.7-4.5,0.4-5.9,0.2s-2.7,2.9,1.2,3.2
			s5-0.1,5-0.1s-5.7,1.6-8.6,2.7s-4.7,1.6-4,3c0.4,0.7,0.8,0.8,4.8-0.4s8.3-2.6,8.3-2.6s-14.3,4.9-13.7,6.6c0.4,1.1,1.2,1.2,5.7-0.5
			s8.8-3.6,8.8-3.6s-11.3,5.6-12,6.4c-0.4,0.5-1.7,3,2.9,0.7l10.4-5.2c0,0-9.4,5.2-8.6,6.4s4.7-1.4,10.3-4.7s5.2-3.8,6.4-5.1
			s6.1-2.8,6.1-2.8L110.4,122.6z"/>
		<path class="st1" d="M111.6,258.7c-2.6,3.6-7.6,4.3-11.2,1.7c-3.6-2.6-4.3-7.6-1.7-11.2c2.6-3.5,7.5-4.3,11.1-1.7
			C113.4,250.1,114.2,255.1,111.6,258.7C111.6,258.7,111.6,258.7,111.6,258.7z"/>
		<path class="st2" d="M153.9,193.4c-0.8,1.4-4.8,7.5-5.2,9.7c-1,6.7-8.1,19.1-16.4,25.6c-7,5.5-16.8,16.5-16.8,16.5l-10.7-2.4
			c0,0,8.7-14.6,18.7-31.3c7.3-12.2,8.3-17.4,11.9-22.8C137.6,187.2,154,191.5,153.9,193.4z"/>
		<path class="st2" d="M146.1,200.7c-2,1.8-12.2-7-10-11.1c5.3-7.9,30.9-52.4,43.5-48.8c0,0,20.3-1,10.3,17.8
			c-7.4,13.8-27,25.6-32.6,31.3C154.1,193,149.7,198.1,146.1,200.7z"/>
		<path class="st2" d="M119.7,240.3c0,0-6.8,7.3-6.6,14.5c0.1,5.8-12,2.9-12.7,5.7c0,0-18.5-11-16.5-16.8c1.2-3.5,11.4-4.4,15.6-0.7
			c4.7,4.1,11-6.4,11-6.4L119.7,240.3z"/>
		<path class="st3" d="M103.3,242.8l2.7-2.2c0,0,4.9,5.5,9.2,6.4l-0.3,2.6C114.8,249.5,108.3,251.5,103.3,242.8z"/>
		<path class="st2" d="M143.4,177.1c-2.9,3.1-5.5,6.5-7.8,10.2c-2.9,5-1.6,5.2-1.8,8.5s2.7,1.9,2.7,1.9s6.7-9.1,6.8-9.4
			S143.4,177.1,143.4,177.1z"/>
		<path class="st4" d="M110.8,263.9c-1,1.5-2.2,2.8-10.8-3c-3.9-2.9-8-5.6-12.3-8c-8.4-4.6-12.3-9-14.2-11.8
			c-1.5-2.3-2.7-4.3-2.4-4.9l0.2-0.3c-0.2,0.3-0.4,0.6-0.5,0.8c-0.3,0.6,0.8,2.7,2.3,4.9c1.8,2.7,5.8,6.9,14,11.8
			c5.6,3.4,9.4,5.9,12.5,8c9,6,10,4.5,11,2.9L110.8,263.9z"/>
		<path class="st5" d="M119.4,248.2c-0.2-0.3-0.8-0.2-1.5,0.2c-0.8,0.5-1.4,1.2-1.8,2l0,0c-0.4,0.3-0.7,0.7-1,1.1l0.4,0.3
			c0.5-0.7,1.2-1.3,2-1.7c0.4-0.2,0.8-0.4,1.2-0.7C119.7,248.8,119.5,248.4,119.4,248.2z M118.4,249c-0.4,0.2-0.7,0.5-1.1,0.7
			l-0.2,0.1c0.3-0.4,0.6-0.7,1-0.9c0.2-0.2,0.5-0.3,0.8-0.3C118.8,248.7,118.6,248.9,118.4,249L118.4,249z"/>
		<path class="st6" d="M103,258.3c-2.2-1.2-4.4-2.2-6.7-3.1c-3.7-1.6-7.2-3.5-10.6-5.6c-3.2-2.2-6.2-4.5-9.1-7.1
			c-2-1.8-3.7-3.9-5.1-6.1l0.4-1.1c0.5-0.3,1.1-0.5,1.7-0.5c1,0,2.6,0.6,7.4,2c6.1,1.8,8.2,2.1,12.1,1.9s8.1,0.1,8.8,0.9
			s1.5,2.9,3.9,5.9c4.6,5.9,1.5,3.8,6.8,5.1c2.4,0.6,4.1-1.7,3.9-1.1c-0.8,1.1-1.3,2.5-1.3,3.9c0.1,2.6-1.4,5.7-3.7,8.5
			C108.8,261.6,104.8,259.4,103,258.3z"/>
		<path class="st7" d="M107.3,240.1c0-1.2,0.6-2.1,0.2-3.3c-0.2-0.7-1.7-1-5,0.5c-2.1,0.8-4.4,1.2-6.6,1.2l0.2,0.1
			c-3,0.1-6.1-0.1-9.1-0.7l-0.1,0.9c5.1,0.7,9.8,1.1,13.1,1.4c1.3,0.3,2.5,2,3.4,2.1C106,242.4,107.3,240.9,107.3,240.1z"/>
		<path class="st8" d="M72.2,236c-0.3,0.6-0.1,1.3,0.3,1.8l0.4,0.5l0,0c0.1,0.2,0.3,0.4,0.4,0.5l0,0l0.5,0.6l0,0l0.5,0.6v0.1
			l0.5,0.6l0,0l0.6,0.6l0,0c0.2,0.2,0.4,0.4,0.6,0.6c0,0,0,0,0,0.1l0.6,0.6c2.9,2.6,5.9,4.9,9.1,7.1c3.4,2.1,7,4,10.6,5.6
			c2.4,1.1,12.4,6.9,15.1,7.1c0.2-0.2,0.7-1.3,0.8-1.5c-0.9,0.1-1.7,0.1-2.6,0c-3.7-0.5-12.7-6.1-16-7.6c-6.7-3-12.6-7.5-17.4-13.1
			c0,0-2.9-3.9,0.7-3.4c3.2,0.4,10.1,2.1,10.1,2.1l0.5-0.8c-10.4-1.9-9.8-3.9-12.7-3.9c-0.9,0-1.8,0.3-2.4,1
			C72.4,235.3,72.4,235.7,72.2,236z"/>
		<path class="st9" d="M112.1,260.9c2.1-2.6,3.2-5.2,3.1-7.7v-0.4c-0.5-0.2-0.9,0-1,1.3c-0.1,2.3-1.9,5.5-2.6,6.7
			C111.8,260.9,111.9,260.9,112.1,260.9z"/>
		<path class="st8" d="M85.1,240.1c0,0,3.4-1,0.3-2.2c-1.1-0.4-11.1-3.2-11.3-1.5c-0.2,1.1-0.4,1,0.8,3s8.9,8.3,7.7,6.9
			c-2.7-3.1-1.2-4,2-4.3c1.5-0.2,2.9-0.3,4.4-0.2L85.1,240.1z"/>
		<path class="st10" d="M87.9,241.3c0,0,4.2,12.1-2.6,7.2c0,0,4.7,3.8,6.4,3.6s2.5-4.2,0.4-10.4L87.9,241.3z"/>
		<path class="st10" d="M93.3,241.5c0,0,4,13.2-1.8,10.7c0,0,3.8,2.8,5.4,2.4c3.2-0.8,2.7-6.5,0.5-12.7L93.3,241.5z"/>
		<path class="st10" d="M98.7,242.1c0,0,4.8,15.6-1.7,13.1c0,0,4.7,3.5,6.3,3.1c2-0.5-0.2-9.5,7.2-8c1.5,0.3-7.3-6.1-8.1-8.5
			L98.7,242.1z"/>
		<path class="st6" d="M115.2,254.4c0-0.4,0-0.7,0-1.1V253c0.3-1.2,0.8-2.3,1.5-3.3c2.2-3.2-0.5-2.4-1-2.1c-1,0.9-2.7,3.3-7.2,0
			c-2.4-1.8-4.4-4.2-5.6-6.9c-0.8-1.7-1.3-2.1-1.5-2.1c-3-0.4-3.8,0.1-6.7,0.4c-3.5,0.1-7-0.2-10.4-0.9c0.1,1.5,1.2,2.8,2.6,3.3l0,0
			l0.3,0.1l0,0l0.3,0.1h0.1h0.2H88c3.8,0.4,10.3,0.5,11.8,0.6s3.5,2,4.8,3.6c3.7,4.7,5.3,3.8,7.6,6.7c0.8,1,1.2,3.2,0.4,6.5
			c0,0.1,1.5-2.4,1.5-2.4s0-2.4,0-2.4c0,0,0.1,0.1,0.1,0.1l0,0h0.2h0.2C114.9,254.3,115,254.4,115.2,254.4z"/>
		<path class="st11" d="M101,240.1c-0.2,0.3-0.1,0.6,0.2,0.8c0.3,0.2,0.6,0.1,0.8-0.2c0,0,0,0,0,0c0.2-0.3,0.1-0.6-0.2-0.8
			C101.5,239.8,101.2,239.9,101,240.1z"/>
		<path class="st12" d="M101.1,240.2c-0.1,0.2-0.1,0.5,0.1,0.6c0.2,0.1,0.5,0.1,0.6-0.1c0.1-0.2,0.1-0.5-0.1-0.6c0,0,0,0,0,0
			C101.5,239.9,101.3,240,101.1,240.2C101.1,240.2,101.1,240.2,101.1,240.2z"/>
		<path class="st13" d="M101,240.6c0,0-2.2-1.3-2-2.4c0,0,0.4-0.5,0.6-0.1c0.4,1.2,0.9,1.1,2.1,1.9C101.7,240,101.8,241,101,240.6z"
			/>
		<path class="st11" d="M97.3,240.5c-0.2,0.2-0.2,0.6,0.1,0.8c0.2,0.2,0.6,0.2,0.8-0.1c0.2-0.2,0.2-0.6-0.1-0.8
			C97.8,240.3,97.5,240.3,97.3,240.5C97.3,240.5,97.3,240.5,97.3,240.5z"/>
		<path class="st12" d="M97.3,240.6c-0.1,0.2-0.1,0.5,0.1,0.6c0,0,0,0,0,0c0.2,0.1,0.4,0.1,0.6-0.1c0,0,0,0,0,0
			c0.1-0.2,0.1-0.4-0.1-0.6C97.8,240.4,97.5,240.4,97.3,240.6z"/>
		<path class="st13" d="M97.2,241.1c0,0-2-1.5-1.7-2.6c0,0,0.5-0.4,0.6,0c0.3,1.2,0.8,1.2,1.9,2.1C98,240.6,97.9,241.5,97.2,241.1z"
			/>
		<path class="st11" d="M93.7,240.6c-0.2,0.2-0.3,0.5-0.1,0.8c0.2,0.2,0.5,0.3,0.8,0.1c0,0,0.1,0,0.1-0.1c0.2-0.2,0.3-0.5,0.1-0.8
			C94.3,240.3,94,240.3,93.7,240.6C93.7,240.5,93.7,240.5,93.7,240.6z"/>
		<path class="st12" d="M93.7,240.6c-0.2,0.2-0.2,0.4,0,0.6c0.2,0.2,0.4,0.2,0.6,0c0.2-0.2,0.2-0.4,0-0.6
			C94.2,240.5,93.9,240.5,93.7,240.6C93.7,240.6,93.7,240.6,93.7,240.6z"/>
		<path class="st13" d="M93.5,241.1c0,0-1.8-1.7-1.3-2.7c0,0,0.5-0.4,0.6,0.1c0.2,1.2,0.6,1.2,1.6,2.2
			C94.3,240.6,94.2,241.5,93.5,241.1z"/>
		<path class="st11" d="M90,240.2c-0.2,0.2-0.3,0.5-0.1,0.8c0.2,0.2,0.4,0.2,0.7,0.1c0.3-0.1,0.4-0.5,0.2-0.7
			c-0.1-0.3-0.5-0.4-0.7-0.2C90.1,240.2,90,240.2,90,240.2z"/>
		<path class="st12" d="M90.1,240.3c-0.2,0.1-0.2,0.4-0.1,0.6c0.1,0.2,0.4,0.3,0.6,0.1c0.2-0.1,0.3-0.4,0.1-0.6
			C90.6,240.2,90.3,240.2,90.1,240.3z"/>
		<path class="st13" d="M89.8,240.7c0,0-1.4-1.7-0.8-2.6c0,0,0.6-0.3,0.6,0.2c-0.1,1.2,0.3,1,1.1,2.2
			C90.7,240.4,90.4,241.3,89.8,240.7z"/>
		<path class="st11" d="M99.3,240.4c-0.2,0.3-0.1,0.6,0.2,0.7s0.6,0.1,0.7-0.2c0.2-0.3,0.1-0.6-0.2-0.7
			C99.8,240,99.5,240.1,99.3,240.4z"/>
		<path class="st12" d="M99.4,240.4c-0.1,0.2-0.1,0.5,0.1,0.6c0.2,0.1,0.5,0.1,0.6-0.1c0.1-0.2,0.1-0.5-0.1-0.6c0,0,0,0,0,0
			C99.8,240.2,99.5,240.2,99.4,240.4C99.4,240.4,99.4,240.4,99.4,240.4z"/>
		<path class="st11" d="M100.3,238.2c0,0-1.6-0.6-1.2,1.4c0.2,1.2,0.5,1.2,0.7,1.1s0.4-0.1,0.1-0.9C99.4,239,100,238.1,100.3,238.2z
			"/>
		<path class="st11" d="M95.5,240.6c-0.2,0.2-0.2,0.6,0.1,0.8s0.6,0.2,0.8-0.1c0.2-0.2,0.2-0.6-0.1-0.7c0,0,0,0,0,0
			C96,240.3,95.7,240.4,95.5,240.6C95.5,240.6,95.5,240.6,95.5,240.6z"/>
		<path class="st12" d="M95.6,240.7c-0.1,0.2-0.1,0.4,0.1,0.6c0.2,0.1,0.5,0.1,0.6-0.1c0.1-0.2,0.1-0.4-0.1-0.6c0,0,0,0,0,0
			C96,240.5,95.8,240.5,95.6,240.7z"/>
		<path class="st11" d="M96.8,238.5c0,0-1.5-0.7-1.4,1.3c0.1,1.2,0.4,1.3,0.6,1.2s0.4-0.1,0.2-0.8C95.8,239.2,96.5,238.3,96.8,238.5
			z"/>
		<path class="st11" d="M91.9,240.4c-0.2,0.2-0.2,0.5,0,0.8c0.2,0.2,0.6,0.2,0.8,0c0,0,0,0,0,0c0.2-0.2,0.2-0.5,0-0.7c0,0,0,0,0,0
			C92.5,240.2,92.1,240.2,91.9,240.4C91.9,240.4,91.9,240.4,91.9,240.4z"/>
		<path class="st12" d="M92,240.5c-0.2,0.2-0.2,0.4,0,0.6s0.4,0.2,0.6,0c0.2-0.2,0.2-0.4,0-0.6C92.4,240.3,92.2,240.3,92,240.5z"/>
		<path class="st11" d="M93.4,238.6c0,0-1.4-1-1.6,1c-0.1,1.2,0.2,1.3,0.4,1.3s0.4,0,0.3-0.8C92.3,239.1,93.1,238.4,93.4,238.6z"/>
		<path class="st11" d="M88.3,239.8c-0.2,0.2-0.3,0.5-0.1,0.8c0.2,0.2,0.4,0.2,0.7,0.1c0.2-0.2,0.3-0.5,0.1-0.8
			C88.9,239.7,88.6,239.6,88.3,239.8z"/>
		<path class="st12" d="M88.4,239.9c-0.2,0.1-0.2,0.4-0.1,0.6c0,0,0,0,0,0c0.1,0.2,0.4,0.3,0.6,0.1c0.2-0.1,0.3-0.4,0.1-0.6
			C88.9,239.8,88.6,239.7,88.4,239.9C88.4,239.8,88.4,239.9,88.4,239.9z"/>
		<path class="st11" d="M90.2,238.4c0,0-1.4-1.4-1.8,0.5c-0.3,1.2,0,1.4,0.2,1.4s0.4,0.1,0.4-0.8C89,238.5,90,238.1,90.2,238.4z"/>
		<path class="st13" d="M100.2,238.5c0,0,5.3,1.1,5.3-1.8s-4.3,0.5-5.3,1.5l0.3,0.1c0,0,2.7-2.3,3.8-2.1s0.7,1,0.2,1.3
			c-1.1,0.6-2.3,0.9-3.5,1c-0.1,0-0.5-0.2-0.6-0.2S100.3,238.5,100.2,238.5z"/>
		<path class="st13" d="M101,238.2c0,0,2.8-2.4,2-4.4s-2.3-1.7-2.6,1.5l-0.3,3.2l0.5-0.1c0-1.1,0.2-2.3,0.4-3.4
			c0.3-1.1,0.8-2.3,1.2-1.4s0.6,1.5-0.4,3c-0.5,0.7-1.1,1.2-1.3,1.6s0,0.4,0,0.4L101,238.2z"/>
		<path class="st14" d="M100,238.2c-0.6-0.1-1.3-0.3-1.8-0.6c-1-0.4-2-0.4-3,0c0,0.1-0.4-0.1-0.4-0.1s-0.1-0.3,0.4-0.7
			c1-0.7,2.3-0.6,3.2,0.2c0.7,0.6,1.4,1,2.3,1.2C100.7,238.2,100.9,238.9,100,238.2z"/>
		<path class="st14" d="M100.8,238.3c-1,0-2.1-0.1-3.1-0.3c-1.1-0.2-2.8,0.1-3.3-0.1s-0.7,0.2-0.7,0.2s0.2,0.4,2.4,0.2
			c1.2-0.1,2.4,0,3.6,0.3C100.4,238.6,100.6,238.7,100.8,238.3z"/>
		<path class="st15" d="M111.6,262.5c0.2-0.6,0.4-1.2,0.6-1.8c-5.4-1.1-10.5-3.1-15.2-5.8c-2.8-1.7-7.7-4-10.8-6.1
			c-3.1-2-6.1-4.3-9-6.6c-1.6-1.4-3-3-4.2-4.6c-0.4-0.6-0.4-1.3,0-1.9c0.5-0.8,0.8-1.7-0.2-1.2c-0.7,0.5-1.2,1.2-1.7,1.9
			c-0.3,0.6,0.8,2.7,2.4,4.9c1.8,2.8,5.8,6.9,14,11.9c5.6,3.4,9.3,5.8,12.4,7.9c9,6,10,4.5,10.9,2.9
			C111.1,263.6,111.3,263,111.6,262.5z"/>
		<path class="st16" d="M108.8,262c0,0-6.6-2.2-9.1-3.8c-3.8-2.5-2-0.1,1.7,2.9C107.7,266,111.3,263.5,108.8,262z"/>
		<path class="st16" d="M82.5,249.4c0,0-6.8-4.3-9.8-9.6l4,3.6C82.8,249,84.7,248,82.5,249.4z"/>
		<path class="st17" d="M199.2,149.6c-4.5,9.1-10.9,17.1-18.8,23.6c-14.8,12.3-20.3,22.5-20.3,22.5l-23.1-16.8l38.9-45.7
			L199.2,149.6z"/>
		<path class="st1" d="M193.9,109.9c-2-14.3,1.3-18.4-2.5-29.8c-2-5.9-5.3-11.7-10.8-18.7c-3.1-3.9-14.4,2.6-14.4,2.6
			c-1.2,3.2-2.6,6.3-4.2,9.3c-6.2,11.6-6,22.3-1.1,27.3c2.5,2.6,2.6,12,3.1,16.7c1.1,10.2,2.1,17.4,3.3,23.7
			c2.6,14.3,1.1,18.2,4.5,21.2c3.9,3.4,9.7,3.2,13.9,2.6c0.7-2.5,1.6-4.9,2.7-7.3c2.2-4.6,3.9-6.2,4.7-10.4c0.3-1.6,0.4-3.1,0.3-4.7
			c-0.4-5.1-2.8-6.9-2-9.7c0.6-2.2,3.2-1.7,4.1-4.2c0.4-1.3,0.3-2.6-0.2-3.8C193.9,119.9,194.6,114.8,193.9,109.9z"/>
		<g class="st18">
			<path class="st19" d="M175.4,116.7c-0.7,0.3-1.4,0.5-2.1,0.7c-0.7,0.1-1.4,0.2-2.1,0.1c-0.8-0.1-1.5-0.3-2.2-0.6
				c0.5,0.7,1.2,1.2,2,1.5c0.8,0.3,1.7,0.4,2.6,0.2c0.8-0.2,1.6-0.5,2.3-1c0.7-0.5,1.2-1.1,1.6-1.8
				C176.8,116.1,176.1,116.4,175.4,116.7z"/>
			<path class="st19" d="M177.1,120.3c-0.7,0.3-1.3,0.6-1.9,0.9c-0.6,0.3-1.2,0.4-1.9,0.6c-0.6,0.1-1.2,0.1-1.9,0.1
				c-0.7-0.1-1.3-0.3-2-0.5c0.4,0.6,1.1,1.1,1.8,1.4c0.7,0.3,1.5,0.4,2.3,0.2c0.8-0.1,1.5-0.5,2.1-0.9
				C176.3,121.6,176.8,121,177.1,120.3z"/>
			<path class="st19" d="M173.3,126.7c-0.4,0.1-0.9,0.1-1.3,0.1c-0.5,0-1-0.1-1.5-0.2c0.3,0.5,0.7,0.9,1.2,1.1
				c0.5,0.2,1.2,0.3,1.7,0.2c0.6-0.1,1.1-0.3,1.5-0.7c0.5-0.3,0.8-0.8,1-1.3c-0.5,0.2-1,0.4-1.4,0.5
				C174.2,126.5,173.7,126.6,173.3,126.7z"/>
			<path class="st19" d="M189.8,90.3c0-0.4,0-0.9,0-1.3c0-0.8,0.1-1.6,0.3-2.4c-0.5,0.5-1,0.9-1.4,1.4c0,0.3-0.1,0.6-0.1,0.9
				c0,0.5-0.1,1-0.1,1.4c0,0.5,0.1,1,0.1,1.4c0,0.9-0.1,1.7-0.5,2.5c-0.4,0.8-1,1.5-1.6,2.1c-1.6,1.3-3.4,2.1-5.3,2.6
				c-2,0.5-4.2,0.7-6.3,0.6c-2.1-0.1-4.2-0.6-6.1-1.4c-0.9-0.4-1.8-1-2.5-1.7c-0.7-0.7-1.3-1.5-1.6-2.4c0.2,0.9,0.7,1.8,1.3,2.6
				c0.7,0.8,1.5,1.5,2.4,2c2,1,4.1,1.7,6.4,1.8c2.2,0.2,4.5,0.1,6.7-0.4c2.2-0.5,4.3-1.4,6-2.8c0.8-0.7,1.5-1.6,1.9-2.5
				c0.4-0.9,0.6-2,0.6-3C189.9,91.2,189.8,90.7,189.8,90.3z"/>
			<path class="st19" d="M181.1,111.3c0.7,0.3,1.4,0.5,2.1,0.6c-0.6-0.3-1.2-0.7-1.8-1.1c-0.6-0.4-1.1-0.8-1.7-1.2
				c-1.1-0.8-2.2-1.7-3.3-2.6c-1.1-0.9-2.3-1.7-3.6-2.4c-0.6-0.3-1.3-0.6-2-0.8c-0.4-0.1-0.7-0.2-1.1-0.2c-0.4-0.1-0.7-0.1-1.1,0
				c0.3,0,0.7,0.1,1,0.3c0.3,0.1,0.6,0.3,0.9,0.4c0.6,0.3,1.2,0.7,1.8,1.1c1.2,0.8,2.2,1.6,3.3,2.5c1.1,0.9,2.3,1.7,3.5,2.4
				C179.8,110.7,180.5,111,181.1,111.3z"/>
			<path class="st19" d="M180.3,104.5c-0.8-0.1-1.6-0.2-2.3-0.5c0.6,0.6,1.3,1.1,2.1,1.4c0.8,0.3,1.7,0.3,2.6,0.2
				c0.9-0.1,1.7-0.4,2.4-0.9c0.7-0.4,1.4-1,1.9-1.7c-0.7,0.3-1.5,0.6-2.2,0.9c-0.7,0.2-1.4,0.4-2.2,0.6
				C181.8,104.6,181.1,104.6,180.3,104.5z"/>
			<path class="st19" d="M167.7,121.2c0-1.5,0-2.9-0.1-4.4c-0.1-1.5-0.2-2.9-0.5-4.4c-0.2,1.4-0.4,2.9-0.5,4.4
				c-0.1,1.5-0.1,2.9-0.1,4.4s0,2.9,0.1,4.4c0.1,1.5,0.2,2.9,0.5,4.4c0.2-1.4,0.4-2.9,0.5-4.4C167.7,124.1,167.7,122.6,167.7,121.2z
				"/>
		</g>
		<path class="st1" d="M165.2,58.9c0,0,2.6,6.2-0.2,9.9s17.7-1.4,17.5-3.3s-2.3-10.6-1.4-13.7C181.1,51.7,172.8,58.1,165.2,58.9z"/>
		<path class="st1" d="M184.2,36.1c1.3,10,3.7,15.7-9.2,20.3c-4.6,1.7-10.9,4-13.5,4.7c-4.3,1.2-6.7-3.9-10.2-14.9
			c-2.8-8.9-1.1-20-1.1-20c2.9-4.9,12.4-5.9,18-6.6C178.8,18.2,182.7,24.1,184.2,36.1z"/>
		<path class="st1" d="M150.3,35.9c0,0,0.1,11-0.1,12s-0.4,2.6,2.4,2.2s3.5-1.7,3.5-1.7L150.3,35.9z"/>
		<path class="st20" d="M169.4,41c0,0,0.9,11.2-5.3,13.4c-0.6,0.2-0.7,1.7-1.1,2.2c-3.1,4.2-6.5,1-6.5,1l-0.5,0.1
			c0.3,0.7,0.7,1.3,1.1,1.9c1,1.3,1.5,2,2.6,1.8c12-2.3,14.6-7.2,15-8.7C175.4,50.1,169.6,36.4,169.4,41z"/>
		<path class="st20" d="M160.1,50.1c-2.3,0.4-6.9,0.7-6.9,2.4c0,0.7,0.4,1.4,1,1.7c1.5-0.3,3-0.7,4.5-1.2c1.5-0.5,3,0.9,3.3,3.2
			s0.8,1.6-0.5,2.3s0.7,1,0.7,1l2.2-2.4C164.3,57.2,163.8,49.4,160.1,50.1z"/>
		<path class="st20" d="M181.2,49.8c0.4-0.6,0.7-1.2,1-1.8c0.1-0.3,0.1-0.5,0.1-0.5C182,48.3,181.7,49,181.2,49.8z"/>
		<path class="st20" d="M174.9,26.8c-0.3-1.2-0.7-2.4-1.3-3.5c-0.6-1.4-3.1-3.3-4.4-4.7c-0.1-0.2-0.3-0.4-0.5-0.5l0,0
			c-0.2-0.2-0.4-0.5-0.7-0.6c-1.2-1-2.7-1.6-4.2-1.8l-0.5-0.1c-0.2-0.1-0.5-0.2-0.7-0.3c-1-0.4-2-0.6-3.1-0.6
			c-1.6-0.5-3.3-0.9-4.9-1.1c-1.1,0.2-2.1,0.7-3,1.4c-0.8,0.6-1.5,1.4-2,2.3c-0.6,0.9-1.1,1.9-1.3,3c-0.1,1.1-0.1,2.2,0.1,3.2
			c0.3,1.2,0.6,2.4,1.1,3.5c0.3,1,0.1,2,0.8,2.9c0.2,0.3,0.4,0.5,0.6,0.7c0.3,0.1,0.8,0.2,1.3,0.3c1.9,0.4,2.5-0.2,3.6-1.1
			c0.5-0.2,1-0.5,1.4-0.8c0.7-0.5,1.5-0.9,2.3-1.3c10.4-2.8,10.5,13.8,10.5,15.8s0.9,4.3,1.1,1.7c0-0.2,0.6,0.3,0.6-0.9l0,0
			c0.5,1.1,0.5,2.4,0.1,3.6c-0.1,0.7-0.3,1.9-0.3,1.9c0.9-2,1.7-4,2.4-6.1c0.8-4.2,1.3-8.5,1.4-12.8
			C175.4,28.8,175.4,27.8,174.9,26.8z"/>
		<path class="st20" d="M154.7,15.7c2.1-0.7,4.3-1.1,6.5-1.1c3.3,0.1,3.3-1,5.4-1.3c2.8-0.2,5.6,0.1,8.3,0.9
			c8.4,2.7,8.8,6.6,10.1,8.2s3.7,5.1,3.4,7.3s-0.9,2.9,0.1,5.7s0.1,2.2-0.6,4.5s0,2.2-0.4,4.2s0.2,2.1-0.9,3.4s-0.5,1.4-1.1,2.4
			s-0.2,1.3-1.4,2s-5.5,4.8-9.1,2.2c-7.7-5.6-6.1-8.4-3-5.5c-0.4-0.4,0.1-8.1,0.1-8.1s0.7-5.3,0.5-5.8s-0.4-4.1-1.4-5.6
			s-9.5-8-9.9-8.2S154.7,15.7,154.7,15.7z"/>
		<path class="st1" d="M172.6,188c0.6,1.4,3.1,8.4,4.6,9.9c4.8,4.9,10.4,17.9,10.7,28.5c0.2,8.9,3.1,23.3,3.1,23.3l-8.3,7.1
			c0,0-6.5-15.8-13.8-33.8c-5.4-13.1-8.9-17.1-11.1-23.2C158,197.3,171.2,186.7,172.6,188z"/>
		<path class="st1" d="M170.4,205.7c-1.3,2.4-13.9-2.2-13.3-6.9c2.1-9.3,5.4-60.9,18.5-61.9c7.9-2.6,15.2-1.7,18.5,2.5
			c2.7,3.4,2,8.1,1.5,11.6c-1.5,9.5-8.1,17.4-11.6,24.5c-0.7,1.4-1.4,2.9-1.4,2.9c-1.2,2.8-1.6,4.5-5.6,13.3
			C174.4,197.6,172,202.4,170.4,205.7z"/>
		<path class="st1" d="M190,246.2c0.3,0.9,0.5,1.6,0.6,2.1c1.8,5.5,2.9,8.9,5.5,12.6c0.7,0.9,0.8,0.9,0.9,1.3
			c1.4,4-6.7,9.8-5.3,11.9c0,0-20.6,6.1-23.5,0.7c-1.7-3.2,4.5-11.4,10.1-12c6.2-0.7,2.8-12.4,2.8-12.4L190,246.2z"/>
		<path class="st3" d="M182,262.7l0.9-3.4c0,0,7.2,1.6,11.2-0.2l1.3,2.3C195.3,261.4,191.1,266.8,182,262.7z"/>
		<path class="st1" d="M171.7,191.8c-0.5,4.2-0.6,8.5-0.3,12.8c0.6,5.7,1.8,5.2,3.5,7.9s3.3-0.1,3.3-0.1s-8.1-11.3-8.2-11.6
			S171.7,191.8,171.7,191.8z"/>
		<path class="st4" d="M200.5,275.4c0.1,1.8-0.1,3.5-10.6,3.9c-4.9,0-9.8,0.2-14.7,0.7c-9.5,1.2-15.3-0.1-18.4-1.2
			c-2.6-1-4.7-1.9-4.8-2.6c0-0.1,0-0.2,0-0.3c0,0.4,0,0.7,0.1,0.9c0.1,0.7,2.2,1.7,4.8,2.6c3.1,1.1,8.7,2.2,18.3,1.4
			c6.5-0.5,11-0.8,14.8-0.9c10.8-0.4,10.7-2.2,10.6-4.1C200.5,275.7,200.5,275.5,200.5,275.4z"/>
		<path class="st5" d="M198.2,257.6c-0.4-0.1-0.8,0.3-1.1,1.1c-0.3,0.9-0.4,1.8-0.3,2.7l0,0c-0.1,0.5-0.2,1-0.1,1.5l0.5,0
			c0-0.9,0.2-1.8,0.6-2.5c0.2-0.4,0.4-0.8,0.5-1.3C198.8,257.9,198.4,257.6,198.2,257.6z M197.9,258.8c-0.1,0.4-0.3,0.8-0.5,1.2
			l-0.1,0.2c0-0.5,0.1-0.9,0.3-1.4c0.1-0.3,0.2-0.5,0.4-0.7C198.1,258.4,198,258.6,197.9,258.8L197.9,258.8z"/>
		<path class="st6" d="M190.8,275.4c-2.4,0.3-4.8,0.8-7.2,1.4c-3.9,0.8-7.9,1.4-11.9,1.7c-3.8,0.1-7.7-0.1-11.5-0.5
			c-2.6-0.3-5.2-1-7.7-1.9l-0.3-1.1c0.2-0.6,0.6-1.1,1.1-1.4c0.8-0.5,2.5-1,7.2-2.7c6-2.1,7.9-3.1,10.9-5.6s6.6-4.7,7.7-4.4
			s2.9,1.4,6.6,2.5c7.2,2,3.4,2.2,8.5,0.1c2.3-1,2.3-3.8,2.5-3.2c0,1.4,0.4,2.8,1.3,3.9c1.6,2,2.2,5.4,1.9,9
			C197.5,274.6,193,275.2,190.8,275.4z"/>
		<path class="st7" d="M183.6,258.1c-0.8-1-0.7-2-1.8-2.8c-0.6-0.4-2,0.2-3.7,3.3c-1.2,1.9-2.8,3.6-4.6,4.9h0.2
			c-2.4,1.9-5,3.5-7.8,4.7l0.4,0.8c4.5-2.4,8.6-4.8,11.4-6.6c1.2-0.5,3.2,0.2,4-0.3C184,260.8,184.1,258.8,183.6,258.1z"/>
		<path class="st8" d="M152.9,275.4c0.1,0.6,0.6,1.1,1.3,1.3l0.6,0.2l0,0l0.6,0.2l0,0l0.7,0.2l0,0l0.7,0.2h0.1l0.8,0.2l0,0
			c0.3,0.1,0.5,0.1,0.8,0.1h0.1c0.2,0,0.5,0.1,0.8,0.1h0.1l0.8,0.1c3.8,0.4,7.7,0.5,11.5,0.5c4-0.3,8-0.9,11.9-1.7
			c2.6-0.5,14.1-1.7,16.3-3.1c0-0.3-0.2-1.4-0.2-1.7c-0.7,0.6-1.3,1.1-2.1,1.6c-3.3,1.8-13.8,2.5-17.4,3.2c-7.3,1.5-14.8,1.4-22-0.3
			c0,0-4.6-1.4-1.4-3.1c2.8-1.5,9.4-4.2,9.4-4.2l-0.1-0.9c-9.6,4.5-10.2,2.6-12.5,4.3c-0.4,0.3-1.4,1.3-1.4,2.2
			C152.4,274.6,152.8,274.9,152.9,275.4z"/>
		<path class="st9" d="M199.8,272.2c0.2-3.4-0.5-6.1-2-8l-0.2-0.3c-0.5,0.1-0.7,0.5,0,1.6c1.2,1.9,1.7,5.6,1.8,7
			C199.5,272.4,199.7,272.3,199.8,272.2z"/>
		<path class="st8" d="M165.7,271.2c0,0,2.1-2.8-1.1-2c-1.2,0.3-10.9,3.9-10,5.5c0.6,1,0.3,1.1,2.4,2s12.1,1.5,10.3,1
			c-3.9-0.9-3.3-2.5-0.9-4.7c1.1-1,2.2-1.9,3.4-2.8L165.7,271.2z"/>
		<path class="st10" d="M168.7,270.5c0,0,10.5,7.3,2.1,7.4c0,0,6,0.3,7.3-0.8s-0.4-4.8-5.8-8.6L168.7,270.5z"/>
		<path class="st10" d="M173.2,267.5c0,0,10.9,8.4,4.9,9.7c0,0,4.7,0,5.7-1.2c2.1-2.6-1.7-6.8-7-10.6L173.2,267.5z"/>
		<path class="st10" d="M177.8,264.8c0,0,13,9.9,6.3,11.6c0,0,5.8,0.1,6.9-1.2c1.3-1.6-5.8-7.5,1.1-10.7c1.4-0.6-9.5-0.7-11.5-2.1
			L177.8,264.8z"/>
		<path class="st6" d="M198.4,265.1c-0.2-0.3-0.4-0.6-0.6-0.9l-0.1-0.2c-0.5-1.1-0.7-2.4-0.7-3.6c-0.1-3.9-1.8-1.7-2-1.1
			c-0.3,1.3-0.2,4.3-5.8,4.2c-3,0-6-0.8-8.6-2.3c-1.6-0.9-2.3-0.9-2.5-0.8c-2.6,1.4-2.9,2.3-5.2,4.3c-2.8,2.1-5.8,3.9-9,5.4
			c1,1.2,2.6,1.6,4.1,1.2l0,0l0.2-0.1l0,0l0.3-0.1l0,0l0.2-0.1l0.3-0.2c3.3-1.9,8.6-5.6,9.9-6.4s4.1-0.5,6,0.1
			c5.8,1.6,6.5-0.1,10.1,1c1.2,0.4,2.9,1.9,4.1,5c0,0-0.2-2.9-0.2-2.8s-1.4-2-1.4-2h0.1l0.1-0.1l0,0l0.1-0.1l0,0
			C198.2,265.3,198.3,265.2,198.4,265.1z"/>
		<path class="st11" d="M178.6,261.8c0,0.3,0.3,0.5,0.6,0.5c0.3,0,0.5-0.3,0.5-0.6s-0.3-0.5-0.6-0.5
			C178.8,261.3,178.6,261.5,178.6,261.8L178.6,261.8z"/>
		<path class="st12" d="M178.7,261.8c0,0.2,0.2,0.4,0.5,0.4c0.2,0,0.4-0.2,0.4-0.5c0,0,0,0,0,0c0-0.2-0.2-0.4-0.4-0.4
			C178.9,261.4,178.7,261.6,178.7,261.8C178.7,261.8,178.7,261.8,178.7,261.8z"/>
		<path class="st13" d="M178.9,262.3c0,0-2.5,0.2-3-0.8c0,0,0.1-0.6,0.4-0.4c1,0.7,1.4,0.4,2.8,0.3
			C179.1,261.4,179.7,262.1,178.9,262.3z"/>
		<path class="st11" d="M175.8,264.4c0,0.3,0.2,0.5,0.5,0.6c0.3,0,0.5-0.3,0.5-0.6c0-0.3-0.2-0.5-0.5-0.5
			C176.1,263.9,175.8,264.1,175.8,264.4z"/>
		<path class="st12" d="M175.9,264.4c0,0.2,0.2,0.4,0.4,0.5c0.2,0,0.4-0.2,0.4-0.4c0-0.2-0.2-0.4-0.4-0.4
			C176.1,264,175.9,264.2,175.9,264.4z"/>
		<path class="st13" d="M176.1,264.9c0,0-2.5-0.1-2.9-1.1c0,0,0.1-0.6,0.5-0.3c0.9,0.8,1.3,0.5,2.8,0.6
			C176.4,264,176.9,264.7,176.1,264.9z"/>
		<path class="st11" d="M172.9,266.5c0,0.3,0.2,0.6,0.4,0.6c0.3,0,0.6-0.1,0.6-0.4s-0.1-0.6-0.4-0.6l0,0
			C173.2,266,172.9,266.2,172.9,266.5C172.9,266.5,172.9,266.5,172.9,266.5z"/>
		<path class="st12" d="M173,266.5c0,0.2,0.1,0.5,0.4,0.5c0.2,0,0.5-0.1,0.5-0.4c0-0.2-0.1-0.5-0.4-0.5
			C173.3,266.1,173,266.3,173,266.5C173,266.5,173,266.5,173,266.5z"/>
		<path class="st13" d="M173.1,267c0,0-2.4-0.3-2.7-1.4c0,0,0.2-0.6,0.5-0.3c0.8,0.9,1.1,0.6,2.6,0.9
			C173.5,266.2,173.9,267,173.1,267z"/>
		<path class="st11" d="M169.8,268.4c-0.1,0.3,0.1,0.6,0.3,0.7c0.3,0.1,0.6,0,0.7-0.3c0-0.3-0.2-0.6-0.5-0.6
			C170.1,268.1,169.9,268.2,169.8,268.4L169.8,268.4z"/>
		<path class="st12" d="M169.9,268.4c-0.1,0.2,0,0.5,0.3,0.5c0.2,0.1,0.5,0,0.5-0.3c0.1-0.2,0-0.5-0.3-0.5
			C170.2,268.1,169.9,268.2,169.9,268.4C169.9,268.4,169.9,268.4,169.9,268.4z"/>
		<path class="st13" d="M169.8,268.9c0,0-2.1-0.5-2.2-1.7c0,0,0.3-0.6,0.6-0.2c0.7,1,0.8,0.6,2.2,1.1
			C170.4,268.1,170.7,269,169.8,268.9z"/>
		<path class="st11" d="M177.4,263c0,0.3,0.3,0.5,0.5,0.5c0,0,0,0,0,0c0.3,0,0.5-0.3,0.5-0.6c0-0.3-0.3-0.5-0.6-0.5
			C177.6,262.5,177.3,262.8,177.4,263z"/>
		<path class="st12" d="M177.5,263c0,0.2,0.2,0.4,0.4,0.4c0,0,0,0,0,0c0.2,0,0.4-0.2,0.4-0.5c0-0.2-0.2-0.4-0.5-0.4
			C177.6,262.6,177.5,262.8,177.5,263z"/>
		<path class="st11" d="M176.9,260.7c0,0-1.6,0.4-0.2,1.8c0.9,0.9,1.2,0.7,1.3,0.5s0.3-0.3-0.4-0.7
			C176.6,261.8,176.5,260.8,176.9,260.7z"/>
		<path class="st11" d="M174.4,265.5c0,0.3,0.2,0.6,0.5,0.6c0.3,0,0.6-0.2,0.6-0.5c0-0.3-0.2-0.5-0.5-0.5
			C174.7,265,174.5,265.2,174.4,265.5z"/>
		<path class="st12" d="M174.5,265.5c0,0.2,0.2,0.4,0.4,0.4c0.2,0,0.4-0.2,0.4-0.4s-0.2-0.4-0.4-0.4
			C174.7,265.1,174.5,265.2,174.5,265.5z"/>
		<path class="st11" d="M174.2,263c0,0-1.7,0.3-0.4,1.9c0.8,1,1.1,0.8,1.2,0.6s0.3-0.3-0.4-0.8S173.9,263,174.2,263z"/>
		<path class="st11" d="M171.4,267.4c-0.1,0.3,0.1,0.6,0.4,0.6c0.3,0.1,0.6-0.1,0.6-0.4c0.1-0.3-0.1-0.6-0.4-0.6c0,0,0,0,0,0
			C171.7,267,171.4,267.1,171.4,267.4z"/>
		<path class="st12" d="M171.5,267.5c0,0.2,0.1,0.5,0.4,0.5c0.2,0,0.5-0.1,0.5-0.4c0-0.2-0.1-0.5-0.3-0.5
			C171.8,267.1,171.5,267.2,171.5,267.5z"/>
		<path class="st11" d="M171.5,265.1c0,0-1.8,0-0.7,1.7c0.7,1.1,1,1,1.1,0.8s0.4-0.3-0.2-0.8S171.2,265.1,171.5,265.1z"/>
		<path class="st11" d="M168.1,269c-0.1,0.3,0,0.6,0.3,0.7c0.3,0.1,0.6,0,0.7-0.3c0.1-0.3,0-0.6-0.3-0.7c0,0,0,0,0,0
			C168.5,268.6,168.2,268.7,168.1,269z"/>
		<path class="st12" d="M168.2,269c-0.1,0.2,0,0.5,0.3,0.5c0,0,0,0,0,0c0.2,0.1,0.4,0,0.5-0.2c0,0,0,0,0,0c0.1-0.2,0-0.5-0.3-0.5
			c0,0,0,0,0,0C168.5,268.7,168.3,268.8,168.2,269C168.2,269,168.2,269,168.2,269z"/>
		<path class="st11" d="M168.9,266.8c0,0-1.9-0.3-1.2,1.5c0.5,1.1,0.8,1.1,1,1s0.4-0.2-0.1-0.9S168.5,266.7,168.9,266.8z"/>
		<path class="st13" d="M177,261c0,0,5-2.2,3.3-4.6s-3.2,3-3.4,4.3l0.3-0.1c0,0,0.8-3.4,1.8-3.9s1.1,0.5,0.9,0.9
			c-0.5,1.1-1.3,2.1-2.2,2.9c-0.1,0.1-0.5,0.1-0.6,0.2S177.1,261,177,261z"/>
		<path class="st13" d="M177.4,260.3c0,0,0.9-3.5-0.9-4.8s-2.9,0-1.2,2.7l1.6,2.8l0.3-0.4c-0.7-1-1.2-2-1.7-3
			c-0.4-1.1-0.7-2.3,0.1-1.9c0.8,0.5,1.4,0.9,1.5,2.7c0,0.9-0.1,1.6-0.1,2s0.3,0.4,0.3,0.4L177.4,260.3z"/>
		<path class="st14" d="M176.7,260.9c-0.6,0.3-1.2,0.5-1.9,0.5c-1,0.3-1.9,0.9-2.4,1.8c0,0.1-0.4,0.2-0.4,0.2s-0.3-0.2,0-0.8
			s0.7-1.7,2.7-1.7c0.9,0.1,1.7-0.1,2.5-0.4C177.3,260.6,177.8,260.9,176.7,260.9z"/>
		<path class="st14" d="M177.4,260.5c-0.9,0.6-1.7,1.1-2.7,1.6c-1,0.5-2.2,1.8-2.8,1.8s-0.4,0.6-0.4,0.6s0.4,0.2,2-1.2
			c0.9-0.8,1.9-1.4,3.1-1.9C177.2,261,177.4,260.9,177.4,260.5z"/>
		<path class="st15" d="M200.2,273.7c-0.2-0.6-0.4-1.2-0.5-1.8c-5,2.3-10.3,3.7-15.7,4.2c-3.3,0.3-8.6,1.3-12.3,1.5
			c-3.7,0.2-7.5,0.2-11.2-0.1c-2.1-0.2-4.1-0.6-6.1-1.3c-0.7-0.2-1.1-0.8-1.1-1.5c0-0.9-0.3-1.8-0.9-0.9c-0.2,0.8-0.3,1.7-0.2,2.5
			c0.1,0.7,2.2,1.7,4.8,2.6c3.1,1.1,8.8,2.2,18.4,1.4c6.5-0.5,10.9-0.8,14.7-0.9c10.8-0.4,10.7-2.2,10.6-4.1
			C200.5,274.9,200.4,274.3,200.2,273.7z"/>
		<path class="st16" d="M197.8,275c0,0-6.6,2.1-9.6,2.2c-4.6,0.3-1.6,1.1,3.1,1.3C199.2,278.9,200.7,274.7,197.8,275z"/>
		<path class="st16" d="M169.1,280.2c0,0-8.1,0.5-13.6-2l5.4,0.6C169.1,279.7,170,277.8,169.1,280.2z"/>
		<path class="st10" d="M200.8,139.9c-0.3,10-3.6,19.6-9.4,27.8c-11.1,15.7-12.2,27.7-12.2,27.7l-27.2-8.6l10.5-38l2.1-7.9l3.7-11.7
			L200.8,139.9z"/>
		<path class="st21" d="M186.9,67.1c-1.8-1.6-9.3-2-11.5-1.6c-0.7,0.1-1.5,0.3-2.2,0.5c-4.8,1.2-13.4,11.9-14.2,14.1
			c-2.9,8.8-2,16.4,1.9,20.4c2.5,2.6,1.6,14.8,2.2,19.5c1,9.7,0.8,12.3,1.9,18.3c8.3-0.4,13.4-0.6,17.2-1.4
			c3.7-0.6,7.4-0.8,11.2-0.6c1.9,0.1,5.4,0.4,5.8-0.7c0.1-0.2,0-0.5-0.1-0.7c-0.3-0.7-0.8-1.8-1.3-3.3c-2.9-8.4-2.1-15.6-2.3-18.8
			C194,81.8,195.6,74.6,186.9,67.1z M177.1,98c-10,0.7-14.4-22.4-1.2-28.3c0.7-0.4-0.2-1.1,0.8-0.8C184.8,70.8,194.4,92.6,177.1,98z
			"/>
		<path class="st22" d="M164.5,134.7c3.2,0.3,6.5,0.6,9.9,0.7c8.3,0.3,16.5,0.1,24.7-0.6l1.4,5.5c0,0-27.3,2.5-35.8-0.3
			C164.7,138.2,164.6,136.5,164.5,134.7z"/>
		<path class="st21" d="M182,62.6c0,0,3.4,6.5,4.6,7.9s5.6,16,5.6,16l0.4-9.2C192.6,77.3,188,66.6,182,62.6z"/>
		<path class="st1" d="M141.6,109.7c-0.7,0-1.4,0.2-2,0.4c-3.6,1-13.8,7.9-19.1,12.7c-3.1,2.8-6.5,5.2-10.2,7.2l5,6.7
			c0,0,3.9-3.1,13.1-6.9s15.2-8.5,18.8-12.8C148.4,115.4,143.1,109.6,141.6,109.7z"/>
		<path class="st1" d="M138.6,116.4c0.7-0.4-2.8-3.3-2.8-3.3s11.1-16.5,16-18.6c0,0,5.1-11.6,9.4-14.3c7.5-12.8,16.8-12.4,22.2-6
			c5.1,6-0.2,14.1-7.8,19c-9,6-10.4,7.6-13.3,11.1c-3.9,4.8-16.2,13.9-18.5,15.2C141.3,117,139.6,120.1,138.6,116.4z"/>
		<path class="st1" d="M116.5,126.3c-1.8,1.2-3.8,2.1-5.9,2.7c-2.3,0.5-3.1,0.8-6.9,1.9c-4.1,1.2-4.4,0.9-5.8,0.9s-2.3,3.1,1.6,3.1
			s4.9-0.6,4.9-0.6s-5.5,2.3-8.2,3.6s-4.5,2.1-3.7,3.4c0.4,0.6,0.9,0.7,4.7-0.9s8-3.5,8-3.5s-13.7,6.5-12.9,8.1
			c0.5,1,1.3,1.1,5.6-1.2s8.4-4.6,8.4-4.6S95.7,146,95,146.9c-0.4,0.5-1.3,3.2,2.9,0.4l9.8-6.4c0,0-8.8,6.2-7.8,7.3s4.5-1.9,9.7-5.8
			s4.8-4.3,5.8-5.8s5.8-3.5,5.8-3.5L116.5,126.3z"/>
		<g class="st18">
			<path class="st19" d="M178.6,85.5c-1.8,0.8-3.4,1.8-5.1,2.7c-0.9,0.5-1.7,0.9-2.6,1.3s-1.7,0.9-2.6,1.2c1-0.2,1.9-0.4,2.8-0.8
				c0.9-0.4,1.8-0.8,2.6-1.2c0.9-0.5,1.7-0.9,2.5-1.5C177,86.7,177.8,86.1,178.6,85.5z"/>
			<path class="st19" d="M158.2,106.8c-0.6-0.1-1.3-0.2-1.9-0.2h-0.9l-1-0.1c0.2,0.3,0.5,0.4,0.9,0.5c0.3,0.1,0.7,0.2,1,0.2
				c0.3,0,0.7,0,1-0.1C157.6,107.1,157.9,107,158.2,106.8z"/>
		</g>
	</g>
</g>
</svg>
