<?xml version="1.0" encoding="utf-8"?>
<!-- Generator: Adobe Illustrator 25.0.0, SVG Export Plug-In . SVG Version: 6.00 Build 0)  -->
<svg version="1.1" id="Layer_1" xmlns="http://www.w3.org/2000/svg" xmlns:xlink="http://www.w3.org/1999/xlink" x="0px" y="0px"
	 viewBox="0 0 300 300" style="enable-background:new 0 0 300 300;" xml:space="preserve">
<style type="text/css">
	.st0{opacity:8.000000e-02;fill:#E13856;enable-background:new    ;}
	.st1{fill:#F7C9B2;}
	.st2{fill:#282828;}
	.st3{fill:#F5B39A;}
	.st4{fill:#C80E00;}
	.st5{fill:#403834;}
	.st6{fill:#313236;}
	.st7{opacity:0.5;fill:#89540E;}
	.st8{fill:#525252;}
	.st9{fill:#696C70;}
	.st10{fill:#90949A;}
	.st11{opacity:0.3;}
	.st12{fill:#059DD8;}
	.st13{fill:#333333;}
	.st14{fill:#24B6FF;}
	.st15{fill:#5D8BC6;}
	.st16{fill:#582D11;}
</style>
<g id="Page-1">
	<g id="For-you-and-your-partner-Copy-4">
		<g id="Group-4">
			<circle id="Mask-Copy-2" class="st0" cx="150" cy="150" r="150"/>
		</g>
	</g>
</g>
<g>
	<g>
		<path class="st1" d="M161.4,73.8c-5.8,14.6,10,27.8-0.5,73.9l30.5,3V68.2L161.4,73.8z"/>
		<path class="st1" d="M221.4,73.8c5.8,14.6-9.4,27.8,1.1,73.8l-31,3V68.2L221.4,73.8z"/>
		<path class="st2" d="M231.2,279.6c0,0,3.3,4.3,6,6.5c2.7,2.1,7.6,5.5,7.3,10.8c-0.3,5.2-16.2,1.8-18.9,0
			c-2.6-1.8-8.3-7.4-10.3-7.2c-2,0.1-5.6-1.3-5.1-6.7C210.7,277.4,228.2,276,231.2,279.6z"/>
		<path class="st2" d="M154.9,279.6c0,0-3.3,4.3-6,6.5c-2.6,2.1-7.6,5.5-7.3,10.8c0.3,5.2,16.2,1.8,18.9,0c2.7-1.8,8.3-7.4,10.3-7.2
			c2,0.1,5.6-1.3,5.1-6.7C175.4,277.4,157.8,276,154.9,279.6z"/>
		<path class="st3" d="M221.2,92.7c-0.6-0.4-1.2-0.7-1.8-1.2c-18.2-11.3-33.6-21.4-39.8-20.3c-6.2,1.1-13.2,1.6-15.7,2.1l0,0
			c-0.7,0.1-1.7,0.7-2.8,1.5c-1.9,5.7-0.8,11.2,0.6,18.7l0,0c2.6-0.5,8.9-9.3,9.1-9.3c0.2,0,5.1,2.2,12.1,1.5
			c7-0.7,10.1,1.1,15.3,10.6c5.2,9.6,12.5,16.3,17.7,17.5c0,0-1.1,23.1,0.8,27.8c0.8,2,2.9,3.2,5.1,3.8
			C216.3,119,219.2,103.8,221.2,92.7z"/>
		<path class="st4" d="M226.2,54.3c-6.9-5.3-17.5-9.2-20.5-11.1c-3-1.8-6.2-6-6.2-6l-8.1,3l-8.1-3c0,0-3.2,4.2-6.2,6
			c-3,1.8-13.6,1.6-20.5,6.9c-6.9,5.3-11.3,25.6-11.8,29.7c-0.5,4.2-3.2,13.6-3.2,13.6l13.6,7.8l4.5-32.9c0,0,1-0.7,0.7,6.4
			c-0.1,3.7,4.4,5.4,11.2,6.9c4,0.9,11.5,1.3,16,2.4c13.8,3.4,10.5,24.8,31.3,25.6c0.8,0,1.4-0.7,1.3-1.4
			c-0.4-2.6,0.9-10.9,0.9-15.3c0-7.8,1.5-1.2,1.5-1.2l4.9,11.2c0,0-5,2.9,0,0C232.7,100.1,233.1,59.6,226.2,54.3z"/>
		<path class="st1" d="M147.1,82.9c-2.5,3.7-6.4,9-6.1,15c0.3,6,3.5,12.7,6.1,12.7c2.5,0,9.2-0.9,10.1-2.8c0.9-1.8,1.9-12,1.9-12
			s-5.9-2.6-4.9-4.4l1.4-3L147.1,82.9z"/>
		<path class="st3" d="M200.4,39.9c0,0,2.2,2.3,1.7,4.1c-0.5,1.8-5.5,7.1-10.6,6.9v-9.5L200.4,39.9z"/>
		<path class="st3" d="M182.4,39.9c0,0-2.2,2.3-1.7,4.1c0.5,1.8,5.5,7.1,10.6,6.9v-9.5L182.4,39.9z"/>
		<path class="st1" d="M191.4,47.2c3.9,0,8.5-4.1,10.7-8.3c2.2-4.1,2.8-8.9,3.6-12.7c0.8-3.8,2-16.1-1.4-19.9
			c-3.3-3.8-8.8-5.2-12.9-5.3V47.2z"/>
		<path class="st1" d="M205.3,22.2c0.7-0.8,2.8-1.4,2.8,0c0,1.4-1.5,2.3-1.6,4.3c-0.1,2-0.7,4.4-2.7,4.5
			C201.8,31.1,205.3,22.2,205.3,22.2z"/>
		<path class="st1" d="M191.4,47.2c-3.9,0-8.5-4.1-10.7-8.3c-2.2-4.1-2.8-8.9-3.6-12.7c-0.8-3.8-2-16.1,1.4-19.9
			c3.3-3.8,8.8-5.2,12.9-5.3V47.2z"/>
		<path class="st1" d="M177.4,22.2c-0.7-0.8-2.8-1.4-2.8,0c0,1.4,1.5,2.3,1.6,4.3c0.1,2,0.7,4.4,2.7,4.5
			C181,31.1,177.4,22.2,177.4,22.2z"/>
		<path class="st5" d="M204.3,6.3c2.5,2.9,2.5,10.7,2,15.9c0,0-0.9,2.2-1.3,3.8c0,0-1.5-11.8-4.4-12.7c-2.8-0.9-2.5,1.7-9.1,1.7V1
			C195.5,1.1,201,2.5,204.3,6.3z"/>
		<path class="st4" d="M162.5,71.2c0,0,0.6,0.2,1.6,0.6c0.5,0.2,1.1,0.4,1.8,0.6c0.7,0.2,1.5,0.3,2.4,0.6c3.5,0.7,8.4,0.6,13.3,1.5
			c1.2,0.2,2.4,0.5,3.6,0.9c1.2,0.3,2.3,0.8,3.4,1.3c1,0.5,2.1,1,2.9,1.6c0.9,0.6,1.8,1.1,2.5,1.7c1.5,1.1,2.6,2.2,3.3,2.9
			c0.8,0.8,1.2,1.2,1.2,1.2s-0.5-0.3-1.4-0.9c-0.4-0.3-1-0.7-1.6-1.1c-0.6-0.4-1.3-0.8-2.1-1.3c-0.7-0.5-1.6-0.9-2.5-1.4
			c-0.9-0.5-1.9-0.8-2.9-1.3c-2.1-0.8-4.3-1.5-6.7-1.9c-2.3-0.5-4.7-0.7-7-1c-2.3-0.3-4.4-0.7-6.2-1.2c-0.9-0.3-1.7-0.5-2.4-0.9
			c-0.7-0.3-1.3-0.6-1.7-0.9C163,71.6,162.5,71.2,162.5,71.2z"/>
		<path class="st5" d="M178.5,6.3c-2.5,2.9-2.5,10.7-2,15.9c0,0,0.9,2.2,1.3,3.8c0,0,1.5-11.8,4.4-12.7c2.8-0.9,2.5,1.7,9.1,1.7V1
			C187.2,1.1,181.8,2.5,178.5,6.3z"/>
		<path class="st4" d="M164.4,70.6c0,0,0.6,0.4,1.8,0.6c1.1,0.3,2.9,0.3,4.9,0.5c4.1,0.2,9.6,0.3,15,1.5c1.4,0.3,2.7,0.7,4,1.1
			c1.3,0.4,2.5,1,3.7,1.5c1.2,0.6,2.2,1.3,3.2,1.9c0.9,0.7,1.8,1.4,2.6,2.1c0.7,0.8,1.4,1.4,1.9,2.1c0.6,0.6,0.9,1.3,1.3,1.7
			c0.7,1,1.1,1.6,1.1,1.6s-0.4-0.5-1.2-1.5c-0.4-0.4-0.8-1.1-1.4-1.6c-0.6-0.6-1.3-1.2-2-1.9c-0.8-0.6-1.7-1.2-2.6-1.9
			c-1-0.5-2.1-1.2-3.2-1.7c-1.2-0.5-2.4-1.1-3.6-1.4c-1.3-0.4-2.6-0.8-3.9-1c-5.3-1.3-10.8-1.4-14.9-1.9c-2-0.2-3.8-0.4-4.9-0.8
			C165,71,164.4,70.5,164.4,70.6z"/>
		<path class="st4" d="M179.6,80c0,0,0.7-0.1,2-0.2c1.3-0.1,3.1-0.2,5.2,0.1c2.1,0.3,4.7,1.2,6.8,3c2.1,1.8,3.9,4,5.8,6.2
			c3.8,4.2,8.2,7.9,11.8,10.3c1.8,1.2,3.4,2,4.6,2.4c1.2,0.4,1.9,0.2,1.9,0.2s-0.7,0.3-2-0.1c-1.2-0.3-2.9-1-4.8-2.1
			c-3.7-2.2-8.3-5.9-12.2-10.1c-1.9-2.2-3.6-4.4-5.7-6.2c-2-1.8-4.3-2.7-6.4-3.1c-2.1-0.4-3.9-0.4-5.1-0.4
			C180.3,80,179.6,80,179.6,80z"/>
		<path class="st3" d="M144.7,86.6c-2,3.2-3.8,7.1-3.6,11.3c0,0.7,0.1,1.4,0.2,2.1c1.3-4,6.2-5.2,10.6-5.2l2.4-3.3l-6-5.6
			C148.2,85.8,146.7,86.1,144.7,86.6z"/>
		<path class="st4" d="M152.6,92.7l-10.4-1.3c1.3-3.3,1.6-7.4,3.2-9.7l10.7,6.1l-1.9,3.6c-0.2,0.3-0.1,0.8,0.2,1.3H152.6z"/>
		<path class="st1" d="M163.2,86.4c0,0,0.2-1.5,2.1-2.3c1.9-0.8,4-3.5,4.6-4.6c0.5-1.1,1.6-1,3.7-4.4c2.1-3.3,1.6-4.7,0.5-5.6
			c-1.1-1-1-1.8-1-1.8s0.3-1-1.5-2c-1.5-0.8-2.1-0.6-2.1-0.6s-0.3-1.1-1.5-1.7c-1.2-0.6-2-0.2-2-0.2s-0.7,0.1-1.7-0.4
			c-1-0.5-2.6,0.3-4.1,1.7c-1.5,1.4-1.9,2.8-2.7,4c-0.7,1.2-1.5,4.1-1.9,7.7c-0.5,3.7-4.4,8.7-4.4,8.7S155.2,87.9,163.2,86.4z"/>
		<path class="st1" d="M141.3,99.9c0.9-3.8,2.2-6.3,5.7-9.9c3.6-3.6,6.6-8,8-11.5l8.9,6.5c0,0-2.6,6.1-3.8,13
			c-1.2,6.9-2.1,9.1-3.9,10.7c-1.9,1.7-11.3-4.7-11.5-5.1C144.5,103.3,141.3,99.9,141.3,99.9z"/>
		<g>
			<path class="st6" d="M228,267.5c-0.7-3.4-1.8-26.4-2.5-35.3c-0.7-8.9-0.1-13.5-0.8-20.9c-0.7-7.4-2-22-1.7-38.1
				c0.4-15.1-1.9-30.7-3.3-40.2c0,0-19.2,3.1-26.7,3.1c-7.5,0-30.2-3.1-30.2-3.1c-1.4,9.5-3.6,22.4-3.5,37.5
				c0.1,17.4,2.6,33.5,1.9,40.8c-0.7,7.4-0.1,12-0.8,20.9c-0.7,8.9-1.8,32-2.5,35.3c-0.7,3.4-3.2,10.5-3.2,12c0,0,11.4-1.8,21.1,4
				c0,0,1.4-1.8,2.8-14.1c1.4-12.3,4.6-38.1,5.7-43.6c1.1-5.5,5.2-49.3,7-49.6c1.8,0.3,9.2,44,10.3,49.6c1.1,5.5,4.3,31.4,5.7,43.6
				c1.4,12.3,2.8,14.1,2.8,14.1c9.6-5.8,21.1-4,21.1-4C231.2,278,228.7,270.9,228,267.5z"/>
			<path class="st7" d="M220.7,138c-0.3-1.6-0.6-3.3-0.9-5.1c0,0-19.2,3.1-26.7,3.1c-7.5,0-30.2-3.1-30.2-3.1
				c-0.2,1.5-0.5,3-0.8,4.4l0,0C169.3,140.3,208.7,145.6,220.7,138z"/>
		</g>
	</g>
	<g>
		<g>
			<path class="st8" d="M187.3,92.9c-2.8-4.4-12.1-4.8-22.9-5.2c-7.2-0.3-15.3-0.6-22.3-2.2c-17.6-4.2-21.8-17.2-21.3-21.4l0.8,0.1
				c-0.5,4,3.5,16.4,20.6,20.5c6.9,1.7,15,2,22.2,2.2c11,0.4,20.5,0.7,23.5,5.6L187.3,92.9z"/>
		</g>
		<g>
			<g>
				<g>
					<path class="st9" d="M194.8,93.8c0,3.4-2.8,6.2-6.2,6.2c-3.4,0-6.2-2.8-6.2-6.2c0-3.4,2.8-6.2,6.2-6.2
						C192,87.5,194.8,90.3,194.8,93.8z"/>
				</g>
				<g>
					<path class="st10" d="M193.7,93.3c0,3.2-2.6,5.7-5.7,5.7c-3.2,0-5.7-2.6-5.7-5.7c0-3.2,2.6-5.7,5.7-5.7
						C191.2,87.5,193.7,90.1,193.7,93.3z"/>
				</g>
				<g class="st11">
					<path class="st10" d="M182.8,93.8c0-3.2,2.6-5.7,5.7-5.7c1.5,0,2.8,0.6,3.8,1.5c-1-1.2-2.6-2.1-4.3-2.1c-3.2,0-5.7,2.6-5.7,5.7
						c0,1.7,0.7,3.1,1.9,4.2C183.3,96.4,182.8,95.2,182.8,93.8z"/>
				</g>
			</g>
			<g>
				<g>
					<path class="st9" d="M191.7,93.4c0,2-1.6,3.5-3.5,3.5c-2,0-3.5-1.6-3.5-3.5c0-2,1.6-3.5,3.5-3.5
						C190.1,89.8,191.7,91.4,191.7,93.4z"/>
				</g>
				<g>
					<path class="st10" d="M191.1,93.1c0,1.8-1.4,3.2-3.2,3.2c-1.8,0-3.2-1.4-3.2-3.2c0-1.8,1.4-3.2,3.2-3.2
						C189.6,89.8,191.1,91.3,191.1,93.1z"/>
				</g>
				<g class="st11">
					<path class="st10" d="M184.9,93.4c0-1.8,1.4-3.2,3.2-3.2c0.8,0,1.6,0.3,2.2,0.9c-0.6-0.7-1.4-1.2-2.4-1.2
						c-1.8,0-3.2,1.4-3.2,3.2c0,0.9,0.4,1.8,1.1,2.4C185.2,94.9,184.9,94.2,184.9,93.4z"/>
				</g>
			</g>
		</g>
		<g>
			<g>
				<path class="st2" d="M83.1,276.6c-1.9,1.5-17.5-0.9-18.4,1c-0.9,1.8-2.6,6.9-1.6,9.7c0,0-0.8,0.6-0.4,2.1c0.4,1.4,4.4,1.9,9.5,2
					c5.1,0.1,20.5,1.6,24.9,0.6c4.3-1,8.3-2.3,8.9-4c0.6-1.7,2-5.4-1.8-5c-3.8,0.4-8.4,0.2-10.3-0.8c-1.9-1-6.1-2.8-7.7-4.2
					C84.5,276.4,83.9,276,83.1,276.6z"/>
			</g>
			<g>
				<path class="st12" d="M69.2,143c0,0,12.4,24.1,16.8,32.5c4.4,8.4,13.1,18.2,10.2,27.5c-2.7,8.7-9,68.8-9.9,75
					c-0.1,0.4-0.4,0.6-0.8,0.6c-9.9,1.7-20.5-0.8-20.5-0.8c-1,0-1.7-0.8-1.8-1.7c-0.1-2.8,0-9.2,1.3-20.3
					c1.6-14.1,7.5-51.7,7.5-51.7S53.2,165.5,52.1,157c-1.1-8.5-1.9-15,6.1-31L69.2,143z"/>
			</g>
		</g>
		<g>
			<g>
				<path class="st13" d="M94.3,284c-1.9,1.6-17.6-1.5-18.5,0.3c-0.9,1.8-2.4,7.9-1.4,10.7c0,0-0.8,0.6-0.3,2.1
					c0.5,1.4,4.4,1.9,9.5,1.8c5.1,0,20.6,1.2,24.9,0.2c4.3-1.1,8.2-2.5,8.8-4.2c0.6-1.7,1.9-5.4-1.9-4.9c-3.8,0.5-8.4,0.4-10.3-0.6
					c-1.9-1-6.1-2.6-7.8-4.1C95.7,283.8,95.1,283.4,94.3,284z"/>
			</g>
			<g>
				<path class="st14" d="M90.3,150.8c0,0,5.8,18.3,9.9,29.6c3.3,8.9,10.1,22.3,8.3,32.3c-1.6,9-8.9,66.3-10.2,72.4
					c-0.1,0.4-2.4,1-2.7,1.1c-8.8,1.3-18.5-1.1-18.5-1.1c-1-0.1-1.7-0.9-1.6-1.9c0.1-2.8,0.7-9.2,2.8-20.2
					c2.7-13.9,6.3-55.1,6.3-55.1s-33.6-45.2-34-53.7c-0.4-8.5-0.8-15.1,8.4-30.5L90.3,150.8z"/>
			</g>
		</g>
		<path class="st3" d="M173.5,104.1c0,0,5,0.2,6.7,0.7c1.7,0.5,15.6-4,15.5-8.2c-0.1-4.2-1.1-2.2-4.8-1.2c-3.7,1-7.3,2.3-7.4,0.3
			c-0.1-2,3.2-1.1,4.1-2.9c0.7-1.3-1.7-1.2-5-1c-1.3,0.1-3.7,0.5-4.3,0.6c-5,1-5.5,2.6-7.6,2.5C168.6,94.5,173.5,104.1,173.5,104.1z
			"/>
		<path class="st15" d="M121.5,61.5c3.2-2.9,3.4-7.5,2-11.3c-0.5-1.2-1.2-2.5-2.1-3.6c0.1-0.2,0.3-0.4,0.5-0.6
			c0.9,1.2,1.8,2.6,2.3,4c1.6,4.1,1.3,9.3-2.4,12.5C121.7,62.1,121.6,61.8,121.5,61.5z"/>
		<path class="st9" d="M121.2,61c2.9-2.8,3.1-7.1,1.8-10.6c-0.2-0.5,0-1.1,0.5-1.3c0.4-0.2,1,0.1,1.2,0.6c1.6,4.2,1.3,9.7-2.5,13.1
			C122,62.1,121.7,61.5,121.2,61z"/>
		<g>
			<path class="st1" d="M123.1,22.7c0.7,1.2,5.8,4.2,6.3,10c0.3,3.2,0.1,2.9-0.6,3.8c-1.2,1.6,0.1,3.9,0.7,5.1
				c1.1,1.9,2.4,3.2,0.1,3.9c-2.6,0.8-1.7,1.8-1.1,2.5c0.4,0.6-0.7,1.4-1.1,1.7c0,0,0.9,1.3,0.1,1.8c-0.9,0.6-1.7,0.3-1.8,1
				c-0.2,0.7,0,3.4-1.3,4.1c-1.4,0.7-4.5-0.6-6.2-1c-1.4-0.3-3.4-0.8-5.3,0.4c-6.1,3.8-6.2,8.5-6.2,8.5s-2.5,2.3-7-7.4
				c-0.6-1.3-5.4-4.4-4.9-6.8c0.6-3,1.1-17.8,7.6-17c0.3,0,14.7-2.8,14.7-2.8L123.1,22.7z"/>
		</g>
		<path class="st3" d="M99.5,57.2c-0.6-1.3-5.4-4.4-4.9-6.8c0.3-1.4,0.6-5.3,1.4-9c5-1.7,8.7-2,8,1.5c-0.3,1.4,2.4,1.5,1.5,2.5
			c-4.5,5,11.3,10,11.3,10l0,0c-1.2-0.2-2.6-0.2-4,0.6c-6.1,3.8-6.2,8.5-6.2,8.5S104,66.9,99.5,57.2z"/>
		<path class="st1" d="M110.9,56.9c-6.7-2.6-8.6-11.1-8.6-11.1l-5.8-1.2c0,0-0.7,0.8-1.4,1.8c-0.2,1.8-0.4,3.2-0.5,4
			c0,0.2,0,0.3,0,0.5c2.3,1.8,6.1,4.6,6.1,4.6s6.2,3.1,8.2,3.9c0.6-0.8,1.4-1.5,2.4-2.3C111.2,57.1,111.1,57,110.9,56.9z"/>
		<path class="st16" d="M93.6,24.7C97.3,18,102,11.6,110.3,13c8.3,1.4,16.4,6.1,18.1,2.6c0,0,2.4,8.5-1,11.7
			c-0.5-1.6-13.2,9.7-15.2,11.4c-2,1.7,0.4-4-2.7-4.3c-3.1-0.3-6.1,5.5-5.6,8.5c0.4,2.3-4.8,5.2-4.8,5.2l-5.7,2.6l-0.5,4.4L92,38.2
			C92,38.2,89.9,31.3,93.6,24.7z"/>
		<path class="st14" d="M49.6,143.2c0,0,19.1-71.3,24.4-78.8c5.3-7.4,18.1-16.7,18.1-16.7l20.5,13.1c0,0-4.3,59.9-17.8,99.9
			C94.9,160.6,68.7,166,49.6,143.2z"/>
		<path class="st12" d="M98.8,88.4c0,0,34.6,21.3,39.9,22.2c5.3,0.8,37-6.2,37-6.2l-1.5-11.5c0,0-31.3,2.1-33.2,0
			c-3.5-3.9-18.5-22.1-28.4-32.2L98.8,88.4z"/>
		<path class="st10" d="M106.7,54.3c-2-6.6,1.2-11.8,1.4-12l0.8,0.4c0,0-3.2,5.2-1.3,11.4c1,3.5,2.9,5.7,5.5,6.8
			c-0.6,0.1-1.6,0-3.3-1.1C108.4,58.4,107.3,56.6,106.7,54.3z"/>
		<path class="st6" d="M123.2,63.7c0.3,1-0.4,2.1-1.5,2.3c-1.1,0.3-2.2-0.4-2.5-1.4c-0.3-1,0.4-2.1,1.5-2.3
			C121.8,62,122.9,62.6,123.2,63.7z"/>
		<path class="st9" d="M106.8,53.2c0.5-0.1,1.1,0.2,1.2,0.6c1.5,4.9,4.6,7.3,9.1,7.1c-0.1,0.6,0,1.3,0.2,1.9c-0.4,0-0.9,0.1-1.3,0
			c-4.9-0.2-8.3-3.2-9.9-8.5C106,53.9,106.3,53.4,106.8,53.2z"/>
		<path class="st6" d="M109.9,40c0.3,1.1-0.1,2.5-1,3.1c-0.8,0.6-1.8,0.2-2.1-1c-0.3-1.1,0.1-2.5,0.9-3.1
			C108.6,38.5,109.6,38.9,109.9,40z"/>
		<path class="st6" d="M123.9,60.6c0.3,1.2-0.4,2.4-1.7,2.7l-2.9,0.7c-1.3,0.3-2.6-0.4-2.9-1.6l0,0c-0.3-1.2,0.5-2.4,1.7-2.7
			l2.9-0.7C122.3,58.7,123.6,59.4,123.9,60.6L123.9,60.6z"/>
	</g>
	<g>
		<path class="st1" d="M225.4,98.4c-0.4,4.6-0.6,14.4-0.1,26.7c0.5,12.3,0.5,19.3-3.3,24.1c-3.9,4.7-3,6.8-5.2,12.1
			c-2.2,5.3-2.3,6.8-1.3,7.6c1,0.7,3.4-1.1,4.2-3c0.7-1.9,2.4-7.6,2.4-7.6s-1,6.7-1.1,8c0,1.3-4.2,5-4.2,6.9c0,1.8,4.4,0.4,6.4,0
			c2-0.4,7.6-3.2,8.5-5.1c1-2,0.7-7.2,0.6-11.7c-0.1-4.5,0.9-12.4,1.3-14.9c0.4-2.6,2.5-26.3,3-33.9c0.5-7.6,0.8-13.7,0.8-13.7
			L225.4,98.4z"/>
	</g>
	<g>
		<path class="st4" d="M219.6,147.6c0,0,7.2,5.1,16,5.9c0,0,4.8-41.9,5.4-48.2c0.7-6.3-11.4-44.5-12.8-48c-1.4-3.6-6.5-6.5-12.7-8.7
			l-2.3,23.7c0,0,8.9,27.1,9.6,31.9C223.4,108.9,219.6,147.6,219.6,147.6z"/>
	</g>
	<path class="st12" d="M108.8,95.9c0-0.3,0-0.5,0-0.5S97.7,85.3,94.6,81.7c0,0-10.1,60.9-18.9,77.9c10.8,2.7,19.3,1,19.3,1
		C101.6,140.7,106.1,115.9,108.8,95.9z"/>
</g>
</svg>
