<?xml version="1.0" encoding="utf-8"?>
<!-- Generator: Adobe Illustrator 25.0.0, SVG Export Plug-In . SVG Version: 6.00 Build 0)  -->
<svg version="1.1" id="Layer_1" xmlns="http://www.w3.org/2000/svg" xmlns:xlink="http://www.w3.org/1999/xlink" x="0px" y="0px"
	 viewBox="0 0 300 300" style="enable-background:new 0 0 300 300;" xml:space="preserve">
<style type="text/css">
	.st0{opacity:8.000000e-02;fill:#E13856;enable-background:new    ;}
	.st1{fill:#7D97F4;}
	.st2{fill:#91B3FA;}
	.st3{fill:#FFFFFF;}
	.st4{fill:url(#SVGID_1_);}
	.st5{fill:url(#SVGID_2_);}
	.st6{fill:url(#SVGID_3_);}
	.st7{fill:url(#SVGID_4_);}
	.st8{fill:url(#SVGID_5_);}
	.st9{clip-path:url(#SVGID_7_);fill:url(#SVGID_8_);}
	.st10{fill:url(#SVGID_9_);}
	.st11{fill:url(#SVGID_10_);}
	.st12{fill:url(#SVGID_11_);}
	.st13{opacity:0.78;fill:#FFFFFF;}
	.st14{fill:url(#SVGID_12_);}
	.st15{fill:url(#SVGID_13_);}
	.st16{fill:url(#SVGID_14_);}
	.st17{opacity:0.9;fill:#FFFFFF;}
	.st18{fill:url(#SVGID_15_);}
	.st19{fill:url(#SVGID_16_);}
	.st20{fill:url(#SVGID_17_);}
	.st21{fill:url(#SVGID_18_);}
	.st22{fill:url(#SVGID_19_);}
	.st23{fill:url(#SVGID_20_);}
	.st24{fill:url(#SVGID_21_);}
	.st25{fill:url(#SVGID_22_);}
	.st26{fill:url(#SVGID_23_);}
	.st27{fill:url(#SVGID_24_);}
	.st28{fill:url(#SVGID_25_);}
	.st29{fill:url(#SVGID_26_);}
	.st30{fill:url(#SVGID_27_);}
	.st31{fill:url(#SVGID_28_);}
	.st32{fill:url(#SVGID_29_);}
	.st33{fill:url(#SVGID_30_);}
	.st34{fill:url(#SVGID_31_);}
	.st35{fill:url(#SVGID_32_);}
	.st36{fill:url(#SVGID_33_);}
	.st37{fill:url(#SVGID_34_);}
	.st38{fill:url(#SVGID_35_);}
	.st39{fill:url(#SVGID_36_);}
	.st40{fill:url(#SVGID_37_);}
	.st41{fill:url(#SVGID_38_);}
	.st42{fill:url(#SVGID_39_);}
	.st43{fill:url(#SVGID_40_);}
	.st44{fill:url(#SVGID_41_);}
	.st45{fill:url(#SVGID_42_);}
	.st46{fill:url(#SVGID_43_);}
	.st47{fill:url(#SVGID_44_);}
	.st48{fill:url(#SVGID_45_);}
	.st49{fill:url(#SVGID_46_);}
	.st50{fill:url(#SVGID_47_);}
	.st51{fill:url(#SVGID_48_);}
	.st52{fill:url(#SVGID_49_);}
	.st53{fill:url(#SVGID_50_);}
	.st54{fill:url(#SVGID_51_);}
	.st55{fill:url(#SVGID_52_);}
	.st56{fill:url(#SVGID_53_);}
	.st57{fill:url(#SVGID_54_);}
	.st58{fill:url(#SVGID_55_);}
	.st59{fill:url(#SVGID_56_);}
	.st60{fill:url(#SVGID_57_);}
	.st61{fill:url(#SVGID_58_);}
</style>
<g id="Page-1">
	<g id="For-you-and-your-partner-Copy-4">
		<g id="Group-4">
			<circle id="Mask-Copy-2" class="st0" cx="150" cy="150" r="150"/>
		</g>
	</g>
</g>
<g>
	<g>
		<g>
			<path class="st1" d="M250.5,44.6H49.8c-8.6,0-15.5,6.8-15.3,15.2L38.6,237c0.2,7.6,7,13.8,15.2,13.7l191.2-1.5
				c8.1-0.1,14.9-6.2,15.1-13.8l5.3-175.8C265.7,51.4,259,44.6,250.5,44.6z"/>
			<path class="st2" d="M233.6,60.1l-24.6,0c-2,0-3.8,1.1-4.7,2.8c-4.5,8.8-9,17.5-13.4,26.2c-0.9,1.7-2.7,2.8-4.7,2.8
				c-23.9,0-47.8,0.1-71.8,0.1c-2,0-3.8-1.1-4.7-2.8c-4.4-8.7-8.8-17.5-13.3-26.3c-0.9-1.7-2.7-2.9-4.7-2.9l-24.9,0
				c-8.6,0-15.5,6.7-15.3,15l2.8,147.4c0.1,7.7,7,13.9,15.2,13.8l160-1.1c8.2-0.1,14.9-6.3,15.1-13.9L248.6,75
				C248.8,66.8,242.1,60.1,233.6,60.1z"/>
			<path class="st3" d="M190.8,62c-0.7-1.1-2-1.8-3.4-1.8c-24.6,0-49.3,0-73.9,0c-1.4,0-2.7,0.7-3.4,1.8c-0.7,1.1-0.8,2.6-0.2,3.8
				c3,5.8,6,11.5,9,17.3c0.9,1.7,2.7,2.8,4.6,2.7c17.9,0,35.8-0.1,53.6-0.1c2,0,3.7-1.1,4.6-2.8c3-5.7,6.1-11.5,9.1-17.2
				C191.5,64.5,191.5,63.1,190.8,62z"/>
			<g>
				<linearGradient id="SVGID_1_" gradientUnits="userSpaceOnUse" x1="149.5598" y1="68.8451" x2="151.356" y2="68.8451">
					<stop  offset="0" style="stop-color:#09005D"/>
					<stop  offset="1" style="stop-color:#1A0F91"/>
				</linearGradient>
				<path class="st4" d="M151.3,72.9c0,0.4-0.4,1-0.8,1h-0.2c-0.4,0-0.8-0.6-0.8-1l0-8.3c0-0.4,0.4-0.8,0.8-0.8h0.2
					c0.4,0,0.8,0.3,0.8,0.8L151.3,72.9z"/>
				<g>
					<g>
						
							<linearGradient id="SVGID_2_" gradientUnits="userSpaceOnUse" x1="223.9016" y1="762.4966" x2="225.5854" y2="762.4966" gradientTransform="matrix(0.8378 -0.5459 0.5459 0.8378 -466.6233 -446.0793)">
							<stop  offset="0" style="stop-color:#09005D"/>
							<stop  offset="1" style="stop-color:#1A0F91"/>
						</linearGradient>
						<path class="st5" d="M140.9,73.1c0.2,0.4,0.1,0.8-0.2,1l0,0c-0.4,0.2-0.8,0.1-1.1-0.2l-4.7-7c-0.2-0.4-0.1-0.8,0.2-1.1l0,0
							c0.4-0.2,0.9-0.1,1.1,0.2L140.9,73.1z"/>
						
							<linearGradient id="SVGID_3_" gradientUnits="userSpaceOnUse" x1="81.2424" y1="1145.4033" x2="82.9336" y2="1145.4033" gradientTransform="matrix(0.6144 -0.789 0.789 0.6144 -825.6544 -562.8454)">
							<stop  offset="0" style="stop-color:#09005D"/>
							<stop  offset="1" style="stop-color:#1A0F91"/>
						</linearGradient>
						<path class="st6" d="M132.4,78.1c0.3,0.3,0.4,0.7,0.1,1.1l0,0c-0.3,0.3-0.8,0.4-1.1,0.1l-6.8-5.1c-0.3-0.3-0.4-0.7-0.1-1.1
							l0,0c0.3-0.3,0.8-0.4,1.1-0.1L132.4,78.1z"/>
					</g>
					<g>
						
							<linearGradient id="SVGID_4_" gradientUnits="userSpaceOnUse" x1="-1688.1095" y1="-483.364" x2="-1686.3983" y2="-483.364" gradientTransform="matrix(-0.8378 -0.5459 -0.5459 0.8378 -1514.7136 -446.0793)">
							<stop  offset="0" style="stop-color:#09005D"/>
							<stop  offset="1" style="stop-color:#1A0F91"/>
						</linearGradient>
						<path class="st7" d="M159.7,73.1c-0.2,0.4-0.1,0.8,0.2,1l0,0c0.4,0.2,0.8,0.1,1.1-0.2l4.7-7c0.2-0.4,0.1-0.8-0.2-1l0,0
							c-0.4-0.2-0.8-0.1-1.1,0.2L159.7,73.1z"/>
						
							<linearGradient id="SVGID_5_" gradientUnits="userSpaceOnUse" x1="-1320.7123" y1="-655.0439" x2="-1319.0273" y2="-655.0439" gradientTransform="matrix(-0.6144 -0.789 -0.789 0.6144 -1155.6825 -562.8454)">
							<stop  offset="0" style="stop-color:#09005D"/>
							<stop  offset="1" style="stop-color:#1A0F91"/>
						</linearGradient>
						<path class="st8" d="M168.2,78c-0.3,0.3-0.4,0.7-0.1,1.1l0,0c0.3,0.3,0.8,0.4,1.1,0.1l6.8-5.1c0.3-0.3,0.4-0.7,0.1-1.1l0,0
							c-0.3-0.3-0.8-0.4-1.1-0.1L168.2,78z"/>
					</g>
				</g>
			</g>
			<g>
				<defs>
					<path id="SVGID_6_" d="M190.8,62c-0.7-1.1-2-1.8-3.4-1.8c-24.6,0-49.3,0-73.9,0c-1.4,0-2.7,0.7-3.4,1.8
						c-0.7,1.1-0.8,2.6-0.2,3.8c3,5.8,6,11.5,9,17.3c0.9,1.7,2.7,2.8,4.6,2.7c17.9,0,35.8-0.1,53.6-0.1c2,0,3.7-1.1,4.6-2.8
						c3-5.7,6.1-11.5,9.1-17.2C191.5,64.5,191.5,63.1,190.8,62z"/>
				</defs>
				<clipPath id="SVGID_7_">
					<use xlink:href="#SVGID_6_"  style="overflow:visible;"/>
				</clipPath>
				<linearGradient id="SVGID_8_" gradientUnits="userSpaceOnUse" x1="173.2789" y1="67.0952" x2="108.9577" y2="122.1069">
					<stop  offset="0" style="stop-color:#E1473D"/>
					<stop  offset="1" style="stop-color:#E9605A"/>
				</linearGradient>
				<path class="st9" d="M151.7,95.9c0,0.6-0.5,1.1-1.2,1.1l-0.2,0c-0.7,0-1.2-0.5-1.2-1.1l0.1-18.6c0-0.6,0.5-1,1.2-1h0.2
					c0.7,0,1.2,0.3,1.2,0.9L151.7,95.9z"/>
			</g>
		</g>
		<g>
			<g>
				<linearGradient id="SVGID_9_" gradientUnits="userSpaceOnUse" x1="43.0795" y1="87.5089" x2="69.1529" y2="87.5089">
					<stop  offset="0" style="stop-color:#DAE3FE"/>
					<stop  offset="1" style="stop-color:#E9EFFD"/>
				</linearGradient>
				<path class="st10" d="M44.8,123.9c-0.2,0-0.4-0.2-0.4-0.4l-1.2-59c-0.2-7.3,6.1-13.3,13.9-13.3l11.7,0c0.2,0,0.4,0.2,0.5,0.4
					c0,0.2-0.2,0.4-0.4,0.4L57,52c-7.3,0-13.2,5.6-13.1,12.4l1.2,59C45.2,123.7,45,123.9,44.8,123.9z"/>
			</g>
			<g>
				<linearGradient id="SVGID_10_" gradientUnits="userSpaceOnUse" x1="252.6901" y1="208.6731" x2="254.8288" y2="208.6731">
					<stop  offset="0" style="stop-color:#DAE3FE"/>
					<stop  offset="1" style="stop-color:#E9EFFD"/>
				</linearGradient>
				<path class="st11" d="M253.1,231.6c-0.2,0-0.4-0.2-0.4-0.4l1.3-45c0-0.2,0.2-0.4,0.4-0.4c0.2,0,0.4,0.2,0.4,0.4l-1.3,45
					C253.5,231.4,253.3,231.6,253.1,231.6z"/>
			</g>
		</g>
	</g>
	<g>
		<path class="st1" d="M253.8,246.4l-5.6-0.6c-2.9-3.5-5.9-6.7-8.8-10.2c-0.7-0.8-1.7-1.1-2.8-1.1c-19.8,0-39.7,0-59.5,0
			c-1.1,0-2.1,0.3-2.8,1.1c-2.9,3.5-5.9,6.8-8.8,10.3l-5.6,0.5l0,7.5c0,0.5,0.1,1,0.3,1.4c0.6,1.3,1.9,2.2,3.3,2.2
			c28.9,0,57.8,0,86.7,0c1.4,0,2.7-0.9,3.3-2.2c0.2-0.4,0.3-0.9,0.3-1.4L253.8,246.4z"/>
		<linearGradient id="SVGID_11_" gradientUnits="userSpaceOnUse" x1="190.2223" y1="275.8603" x2="275.8132" y2="126.1462">
			<stop  offset="0" style="stop-color:#4F52FF"/>
			<stop  offset="1" style="stop-color:#4042E2"/>
		</linearGradient>
		<path class="st12" d="M252.9,244.4c-4.5-5.3-9.1-10.3-13.6-15.6c-0.7-0.8-1.7-1-2.8-1c-19.8,0-39.7,0-59.5,0c-1.1,0-2.1,0.2-2.8,1
			c-4.5,5.3-9.1,10.5-13.6,15.8c-0.9,1.1-1.1,2.6-0.5,3.9c0.6,1.3,1.9,2.2,3.3,2.2c28.9,0,57.8,0,86.7,0c1.4,0,2.7-0.9,3.3-2.2
			C254.1,247.1,253.9,245.5,252.9,244.4z"/>
		<g>
			<path class="st1" d="M203.6,248.4c-2.7,0-4.8-1.2-5.8-2.4c-0.9-1.1-0.8-2.7,0.4-4.1c0.6-0.8,1.9-1.8,3.3-1.8H212
				c1.4,0,2.7,0.8,3.3,1.6c1.2,1.4,1.3,3.2,0.4,4.4c-1,1.3-3.1,2.4-5.8,2.4H203.6z"/>
			<path class="st13" d="M212,241.4c-3.5,0-6.9,0-10.4,0c-0.6,0-1.4,0.7-1.8,1.3c-1.9,2.2-0.1,4.3,3.9,4.3c2.1,0,4.2,0,6.3,0
				c4,0,5.7-2.1,3.9-4.3C213.4,242.1,212.6,241.4,212,241.4z"/>
		</g>
		
			<linearGradient id="SVGID_12_" gradientUnits="userSpaceOnUse" x1="86.0003" y1="1062.5775" x2="86.0003" y2="1072.5482" gradientTransform="matrix(0.5985 -0.7354 0.7273 0.5919 -621.4724 -325.8055)">
			<stop  offset="0" style="stop-color:#E1473D"/>
			<stop  offset="1" style="stop-color:#E9605A"/>
		</linearGradient>
		<path class="st14" d="M206.2,241.8l0.4,3.5c0,0,0,0.1,0.1,0.1c0,0,0.1,0,0.1-0.1l0.6-3.9C207.4,241.4,206.1,240.8,206.2,241.8z"/>
	</g>
	<g>
		<g>
			<linearGradient id="SVGID_13_" gradientUnits="userSpaceOnUse" x1="183.2174" y1="232.2879" x2="131.3611" y2="174.2982">
				<stop  offset="0" style="stop-color:#FF928E"/>
				<stop  offset="1" style="stop-color:#FE7062"/>
			</linearGradient>
			<circle class="st15" cx="122.7" cy="164.6" r="24.3"/>
			<linearGradient id="SVGID_14_" gradientUnits="userSpaceOnUse" x1="152.1752" y1="207.0674" x2="25.6012" y2="24.7342">
				<stop  offset="0" style="stop-color:#FF928E"/>
				<stop  offset="1" style="stop-color:#FE7062"/>
			</linearGradient>
			<circle class="st16" cx="122.7" cy="164.6" r="23.5"/>
			<path class="st13" d="M101,163.7C101,163.7,101,163.7,101,163.7c-0.2,0-0.3-0.1-0.2-0.3c0-0.9,0.2-1.9,0.3-2.8
				c0-0.1,0.2-0.2,0.3-0.2c0.1,0,0.2,0.2,0.2,0.3c-0.2,0.9-0.3,1.8-0.3,2.7C101.3,163.6,101.2,163.7,101,163.7z"/>
			<path class="st13" d="M103.3,155.1c0,0-0.1,0-0.1,0c-0.1-0.1-0.2-0.2-0.1-0.3c3.8-7.4,11.3-12.1,19.6-12.1c1.3,0,2.7,0.1,4,0.4
				c0.1,0,0.2,0.2,0.2,0.3c0,0.1-0.2,0.2-0.3,0.2c-1.3-0.2-2.6-0.3-3.9-0.3c-8.1,0-15.5,4.5-19.2,11.8
				C103.5,155.1,103.4,155.1,103.3,155.1z"/>
			
				<ellipse transform="matrix(0.3827 -0.9239 0.9239 0.3827 -76.5009 215.7925)" class="st17" cx="123.2" cy="165.1" rx="19.9" ry="19.9"/>
		</g>
		<g>
			<linearGradient id="SVGID_15_" gradientUnits="userSpaceOnUse" x1="110.5084" y1="167.0585" x2="136.8916" y2="167.0585">
				<stop  offset="0" style="stop-color:#E1473D"/>
				<stop  offset="1" style="stop-color:#E9605A"/>
			</linearGradient>
			<path class="st18" d="M129.5,155.4c-2.3,0-4.4,1.2-5.8,3.1c-1.4-1.9-3.4-3.1-5.8-3.1c-4.1,0-7.4,3.7-7.4,8.3
				c0,4.1,7.1,11.6,11.7,14.6c0.9,0.6,2.1,0.5,2.9-0.1c4-3,11.8-10.4,11.8-14.4C136.9,159.1,133.6,155.4,129.5,155.4z"/>
			<linearGradient id="SVGID_16_" gradientUnits="userSpaceOnUse" x1="125.7162" y1="157.224" x2="115.3788" y2="187.9408">
				<stop  offset="0" style="stop-color:#FEBBBA"/>
				<stop  offset="1" style="stop-color:#FF928E"/>
			</linearGradient>
			<path class="st19" d="M124.2,170.9C124.2,170.9,124.2,170.9,124.2,170.9c-0.3,0-0.6-0.2-0.7-0.5l-3.4-7.6l-3.3,3.6
				c-0.1,0.2-0.4,0.3-0.6,0.3h-8.5c-0.4,0-0.8-0.4-0.8-0.8c0-0.4,0.4-0.8,0.8-0.8h8.1l3.9-4.3c0.2-0.2,0.4-0.3,0.7-0.2
				c0.3,0,0.5,0.2,0.6,0.5l3.3,7.2l3.4-6.1c0.1-0.3,0.4-0.4,0.7-0.4c0.3,0,0.6,0.2,0.7,0.5l1.4,3.3h7.4c0.4,0,0.8,0.4,0.8,0.8
				c0,0.4-0.4,0.8-0.8,0.8h-7.9c-0.3,0-0.6-0.2-0.7-0.5l-0.9-2.2l-3.3,6.1C124.7,170.7,124.5,170.9,124.2,170.9z"/>
		</g>
	</g>
	<g>
		<g>
			<g>
				<linearGradient id="SVGID_17_" gradientUnits="userSpaceOnUse" x1="177.0587" y1="175.7289" x2="119.3476" y2="95.7141">
					<stop  offset="0" style="stop-color:#FF928E"/>
					<stop  offset="1" style="stop-color:#FE7062"/>
				</linearGradient>
				<circle class="st20" cx="125.8" cy="104.7" r="24.3"/>
				<linearGradient id="SVGID_18_" gradientUnits="userSpaceOnUse" x1="182.3499" y1="186.1206" x2="55.776" y2="3.7873">
					<stop  offset="0" style="stop-color:#FF928E"/>
					<stop  offset="1" style="stop-color:#FE7062"/>
				</linearGradient>
				<circle class="st21" cx="125.8" cy="104.7" r="23.5"/>
				<path class="st13" d="M104.1,103.8C104.1,103.8,104.1,103.8,104.1,103.8c-0.2,0-0.3-0.1-0.2-0.3c0-0.9,0.2-1.9,0.3-2.8
					c0-0.1,0.2-0.2,0.3-0.2c0.1,0,0.2,0.2,0.2,0.3c-0.2,0.9-0.3,1.8-0.3,2.7C104.4,103.7,104.3,103.8,104.1,103.8z"/>
				<path class="st13" d="M106.4,95.2c0,0-0.1,0-0.1,0c-0.1-0.1-0.2-0.2-0.1-0.3c3.8-7.4,11.3-12.1,19.6-12.1c1.3,0,2.7,0.1,4,0.4
					c0.1,0,0.2,0.2,0.2,0.3c0,0.1-0.2,0.2-0.3,0.2c-1.3-0.2-2.6-0.3-3.9-0.3c-8.1,0-15.5,4.5-19.2,11.8
					C106.6,95.1,106.5,95.2,106.4,95.2z"/>
				
					<ellipse transform="matrix(0.9871 -0.1602 0.1602 0.9871 -15.2205 21.595)" class="st17" cx="126.3" cy="105.2" rx="19.9" ry="19.9"/>
			</g>
		</g>
		<g>
			<g>
				<linearGradient id="SVGID_19_" gradientUnits="userSpaceOnUse" x1="114.792" y1="103.6783" x2="130.6389" y2="103.6783">
					<stop  offset="0" style="stop-color:#E1473D"/>
					<stop  offset="1" style="stop-color:#E9605A"/>
				</linearGradient>
				<path class="st22" d="M118.5,117.3c-0.5-0.5-4.4-4.5-3.7-7.6c0.2-0.7,0.6-1.3,1.2-1.6c1.7-0.8,4.7,0.5,6.8,1.5
					c0.3,0.2,0.7,0.3,0.9,0.4c0.4,0.2,2.2-0.7,3.6-2.5c0.9-1.1,2.6-4,0.6-6.6c-4-5-2.2-10.6-2.1-10.8l1.6,0.6
					c-0.1,0.2-1.6,4.9,1.8,9.2c1.9,2.4,1.7,5.6-0.6,8.6c-1.5,2-4,3.7-5.6,3.1c-0.3-0.1-0.6-0.3-1-0.4c-1.5-0.7-4.3-2-5.4-1.5
					c-0.1,0.1-0.2,0.2-0.3,0.5c-0.4,1.9,2.2,5.1,3.2,6.1L118.5,117.3z"/>
			</g>
			<linearGradient id="SVGID_20_" gradientUnits="userSpaceOnUse" x1="119.7442" y1="105.8709" x2="136.7809" y2="105.8709">
				<stop  offset="0" style="stop-color:#E1473D"/>
				<stop  offset="1" style="stop-color:#E9605A"/>
			</linearGradient>
			<path class="st23" d="M135.7,98.9c-0.8-1.2-2.1-2.1-3.5-2.3c-2.9-0.4-4.8,1.5-5.5,4.1c-0.3,1.1-0.4,2.2-1,3.2
				c-0.8,1.3-2.1,1.4-3.4,1.9c-2.5,1.1-3.2,4.2-2,6.5c1.6,3.2,6.4,3.3,9.3,2.1C134.5,112.4,138.8,103.9,135.7,98.9z"/>
		</g>
	</g>
	<g>
		<g>
			<g>
				<linearGradient id="SVGID_21_" gradientUnits="userSpaceOnUse" x1="165.6877" y1="259.3633" x2="124.4257" y2="224.5135">
					<stop  offset="0" style="stop-color:#FF928E"/>
					<stop  offset="1" style="stop-color:#FE7062"/>
				</linearGradient>
				<circle class="st24" cx="121.6" cy="222.1" r="24.3"/>
				<linearGradient id="SVGID_22_" gradientUnits="userSpaceOnUse" x1="124.4753" y1="226.2964" x2="-2.0986" y2="43.9631">
					<stop  offset="0" style="stop-color:#FF928E"/>
					<stop  offset="1" style="stop-color:#FE7062"/>
				</linearGradient>
				<circle class="st25" cx="121.6" cy="222.1" r="23.5"/>
				<path class="st13" d="M99.9,221.2C99.9,221.2,99.9,221.2,99.9,221.2c-0.2,0-0.3-0.1-0.2-0.3c0-0.9,0.2-1.9,0.3-2.8
					c0-0.1,0.2-0.2,0.3-0.2c0.1,0,0.2,0.2,0.2,0.3c-0.2,0.9-0.3,1.8-0.3,2.7C100.1,221.1,100,221.2,99.9,221.2z"/>
				<path class="st13" d="M102.2,212.6c0,0-0.1,0-0.1,0c-0.1-0.1-0.2-0.2-0.1-0.3c3.8-7.4,11.3-12.1,19.6-12.1c1.3,0,2.7,0.1,4,0.4
					c0.1,0,0.2,0.2,0.2,0.3c0,0.1-0.2,0.2-0.3,0.2c-1.3-0.2-2.6-0.3-3.9-0.3c-8.1,0-15.5,4.5-19.2,11.8
					C102.3,212.5,102.3,212.6,102.2,212.6z"/>
				
					<ellipse transform="matrix(0.2445 -0.9697 0.9697 0.2445 -123.6211 286.5443)" class="st17" cx="122.1" cy="222.6" rx="19.9" ry="19.9"/>
			</g>
		</g>
		<linearGradient id="SVGID_23_" gradientUnits="userSpaceOnUse" x1="114.1257" y1="221.2955" x2="128.938" y2="221.2955">
			<stop  offset="0" style="stop-color:#E1473D"/>
			<stop  offset="1" style="stop-color:#E9605A"/>
		</linearGradient>
		<path class="st26" d="M128.9,225.6c0,4.1-3.3,7.4-7.4,7.4c-4.1,0-7.4-3.3-7.4-7.4c0-4.1,5.8-16.1,7.4-16.1
			C123.4,209.5,128.9,221.6,128.9,225.6z"/>
	</g>
	<g>
		
			<linearGradient id="SVGID_24_" gradientUnits="userSpaceOnUse" x1="2470.1074" y1="247.0027" x2="2426.7349" y2="294.18" gradientTransform="matrix(1 0 0 1 -2394.1074 0)">
			<stop  offset="0" style="stop-color:#09005D"/>
			<stop  offset="1" style="stop-color:#1A0F91"/>
		</linearGradient>
		<path class="st27" d="M62.3,250.5c0,0-0.4,2.5-0.7,5.1c-0.1,1,0.7,1.8,1.7,1.9c3.4,0.1,10.5,0.4,13.1,0.3c0.4,0,0.6-0.4,0.5-0.8
			l0,0c-0.1-0.3-0.4-0.5-0.6-0.7l-11.8-5.4L62.3,250.5z"/>
		
			<linearGradient id="SVGID_25_" gradientUnits="userSpaceOnUse" x1="2456.0293" y1="250.5067" x2="2459.8818" y2="250.5067" gradientTransform="matrix(1 0 0 1 -2394.1074 0)">
			<stop  offset="0" style="stop-color:#FEBBBA"/>
			<stop  offset="1" style="stop-color:#FF928E"/>
		</linearGradient>
		<path class="st28" d="M61.9,249l0.4,3c0,0,2.1,1,3.5-0.1l-0.9-3.4L61.9,249z"/>
		
			<linearGradient id="SVGID_26_" gradientUnits="userSpaceOnUse" x1="2473.5227" y1="193.6502" x2="2436.6167" y2="243.6715" gradientTransform="matrix(1 0 0 1 -2394.1074 0)">
			<stop  offset="0" style="stop-color:#09005D"/>
			<stop  offset="1" style="stop-color:#1A0F91"/>
		</linearGradient>
		<path class="st29" d="M62.2,191.8c-0.2,0.8-0.8,39.6,3.3,57c0.1,0.3-0.1,0.6-0.3,0.7c-0.6,0.3-1.9,0.6-3.4,0.7
			c-0.5,0-0.9-0.3-1-0.7c-1.2-4-6.9-24.3-7.6-43.6c-0.8-21.6,0-0.7,0-0.7l0.5-13.4L62.2,191.8z"/>
		
			<linearGradient id="SVGID_27_" gradientUnits="userSpaceOnUse" x1="2460.3774" y1="238.0574" x2="2417.0046" y2="285.2349" gradientTransform="matrix(1 0 0 1 -2394.1074 0)">
			<stop  offset="0" style="stop-color:#09005D"/>
			<stop  offset="1" style="stop-color:#1A0F91"/>
		</linearGradient>
		<path class="st30" d="M48.7,251.8c0,0-0.7,1.3-1.4,4.7c-0.1,0.6,0.3,1.2,0.9,1.3c1.1,0.1,2.8,0.2,4.2,0.2c0.6,0,1.1-0.6,1-1.2
			c-0.2-1.2-0.6-3.3-2.1-4.9L48.7,251.8z"/>
		
			<linearGradient id="SVGID_28_" gradientUnits="userSpaceOnUse" x1="2442.1448" y1="250.3091" x2="2445.4709" y2="250.3091" gradientTransform="matrix(1 0 0 1 -2394.1074 0)">
			<stop  offset="0" style="stop-color:#FEBBBA"/>
			<stop  offset="1" style="stop-color:#FF928E"/>
		</linearGradient>
		<path class="st31" d="M48,247.9l0.8,4.6c0,0,0.8,0.6,2.5,0.2l-0.4-4.9L48,247.9z"/>
		
			<linearGradient id="SVGID_29_" gradientUnits="userSpaceOnUse" x1="2466.9451" y1="188.7972" x2="2430.0391" y2="238.8185" gradientTransform="matrix(1 0 0 1 -2394.1074 0)">
			<stop  offset="0" style="stop-color:#09005D"/>
			<stop  offset="1" style="stop-color:#1A0F91"/>
		</linearGradient>
		<path class="st32" d="M45.8,193c-3.4,20.5,0.7,50.7,2.1,56.6c0.1,0.4,0.4,0.6,0.7,0.7c0.6,0.1,1.6,0.2,2.7-0.1
			c0.3-0.1,0.6-0.4,0.6-0.8c0.2-4.8-0.1-34.1,3-45.6c0.2-0.6,0.5-1.1,1-1.5l6.1-4.4l0.5-7.1L45.8,193z"/>
		
			<linearGradient id="SVGID_30_" gradientUnits="userSpaceOnUse" x1="2438.8374" y1="174.9282" x2="2471.9316" y2="174.9282" gradientTransform="matrix(1 0 0 1 -2394.1074 0)">
			<stop  offset="0" style="stop-color:#09005D"/>
			<stop  offset="1" style="stop-color:#1A0F91"/>
		</linearGradient>
		<path class="st33" d="M67.4,154.2c-10.2-0.2-21,2.9-21,2.9c-3,17.7-0.9,37.8-0.9,37.8c7.9,2.1,16.8-1.3,16.8-1.3
			c1.3-7.4,7.4-28.2,7.4-28.2c5-0.6,3.9-4.7,7.3-6.6c-2.6-3,1.4-1.5,0.9-3.8C74.2,156.2,70.5,154.3,67.4,154.2z"/>
		<path class="st3" d="M97.5,139.2c-1-1.2-2.3-0.6-2.3-0.6c-1.5,6.3-9.3,11.5-17.4,14c0.5,2.2,1.7,6,4.3,9
			C95.5,154,97.5,139.2,97.5,139.2z"/>
		<g>
			
				<linearGradient id="SVGID_31_" gradientUnits="userSpaceOnUse" x1="4550.5977" y1="146.6986" x2="4563.8052" y2="176.748" gradientTransform="matrix(-1 0 0 1 4643.6704 0)">
				<stop  offset="0" style="stop-color:#FEBBBA"/>
				<stop  offset="1" style="stop-color:#FF928E"/>
			</linearGradient>
			<path class="st34" d="M97.2,139.5c0.1,0.3-1.1,0.8-1.8-0.5c0-0.7-0.4-3.4,0-4c2.1-2.8,6.1-6.4,6.1-6.4c0.7,0.7,0.1,1.3,0.1,1.3
				l-2,2c0.4,0.7,0.9,1.4,1.1,2.3c0.2,0.7,0.1,1.4-0.3,2c-0.3,0.6-0.8,1.4-1.3,2C98.4,139.5,97.2,139.5,97.2,139.5z"/>
			
				<linearGradient id="SVGID_32_" gradientUnits="userSpaceOnUse" x1="2491.4702" y1="136.6911" x2="2496.9812" y2="128.2183" gradientTransform="matrix(1 0 0 1 -2394.1074 0)">
				<stop  offset="0" style="stop-color:#FEBBBA"/>
				<stop  offset="1" style="stop-color:#FF928E"/>
			</linearGradient>
			<path class="st35" d="M98.8,133.3l-1.8,1.5l-0.6,1.5l1.6,1.8c0,0,0.5-3,0.9-3.6C99.3,133.8,99.1,133.5,98.8,133.3z"/>
		</g>
		<linearGradient id="SVGID_33_" gradientUnits="userSpaceOnUse" x1="34.9234" y1="165.3027" x2="49.8954" y2="165.3027">
			<stop  offset="0" style="stop-color:#DAE3FE"/>
			<stop  offset="1" style="stop-color:#E9EFFD"/>
		</linearGradient>
		<path class="st36" d="M49.9,166.7l-3.9-9.9c0,0-9.5,6.5-11.1,14.6c1.8,0.1,5.1,0.6,8.3,2.2C43.9,169.9,49.9,166.7,49.9,166.7z"/>
		
			<linearGradient id="SVGID_34_" gradientUnits="userSpaceOnUse" x1="2447.9399" y1="151.2489" x2="2457.7876" y2="151.2489" gradientTransform="matrix(1 0 0 1 -2394.1074 0)">
			<stop  offset="0" style="stop-color:#FEBBBA"/>
			<stop  offset="1" style="stop-color:#FF928E"/>
		</linearGradient>
		<path class="st37" d="M57.1,145.9l-3.2,9.4c-0.1,0.2,0,0.3,0.2,0.4c0.9,0.5,4.1,1.9,7.9-0.5c0.4-0.3,0.7-0.7,0.7-1.1l1-8.1H57.1z"
			/>
		<linearGradient id="SVGID_35_" gradientUnits="userSpaceOnUse" x1="42.8652" y1="187.8736" x2="60.5879" y2="187.8736">
			<stop  offset="0" style="stop-color:#DAE3FE"/>
			<stop  offset="1" style="stop-color:#E9EFFD"/>
		</linearGradient>
		<path class="st38" d="M50.9,155.9l3.9-3.3l5.8,14.1l-4.2,56.1l-13.2,0.4c-0.1,0-0.2,0-0.2-0.1c-0.1-0.1-0.1-0.2-0.1-0.2l1.8-53.9
			c0,0,0.1-11.7,1.3-11.9C47.2,156.6,50.9,155.9,50.9,155.9z"/>
		<path class="st3" d="M60.6,166l2.2-13.4l1.9,1.7l4,0l0.9,11.3l-5.8,57.9c0,0.1-0.1,0.2-0.1,0.2c-0.1,0.1-0.2,0.1-0.3,0.1l-7.1-1
			L60.6,166z"/>
		<path class="st3" d="M68.3,154.2c0,0,6.5-0.4,10.2-1.9c4.4,7.8,5.5,8.1,5.5,8.1s-5.3,4.7-14.4,5.1C60.6,166,68.3,154.2,68.3,154.2
			z"/>
		
			<linearGradient id="SVGID_36_" gradientUnits="userSpaceOnUse" x1="2456.5977" y1="169.4234" x2="2474.3696" y2="156.6335" gradientTransform="matrix(1 0 0 1 -2394.1074 0)">
			<stop  offset="0" style="stop-color:#9CFFFB"/>
			<stop  offset="1" style="stop-color:#9BFFFA"/>
		</linearGradient>
		<polygon class="st39" points="63.2,166.6 63.2,168 68.2,167.6 68.2,166.1 		"/>
		<path class="st2" d="M60.3,170C60.2,170,60.2,170,60.3,170l-4.5-2.4c-0.1,0-0.1-0.1-0.1-0.2l-0.6-4l-1.6-0.3
			c-0.1,0-0.1-0.1-0.2-0.1l-1.7-5.6c0-0.1,0-0.2,0.1-0.3c0.1,0,0.2,0,0.3,0.1l1.7,5.4l1.6,0.3c0.1,0,0.2,0.1,0.2,0.2l0.6,4.1
			l4.3,2.3c0.1,0.1,0.1,0.2,0.1,0.3C60.4,170,60.3,170,60.3,170z"/>
		<path class="st2" d="M61.3,168.6C61.3,168.6,61.3,168.6,61.3,168.6c-0.2-0.1-0.2-0.2-0.1-0.2l2.3-4.1l-0.4-2.3
			c0-0.1,0-0.1,0.1-0.2l1.8-1l-0.5-6.6c0-0.1,0.1-0.2,0.1-0.2c0.1,0,0.2,0.1,0.2,0.1l0.5,6.7c0,0.1,0,0.1-0.1,0.1l-1.8,1l0.4,2.2
			c0,0,0,0.1,0,0.1l-2.3,4.1C61.4,168.6,61.4,168.6,61.3,168.6z"/>
		<g>
			<linearGradient id="SVGID_37_" gradientUnits="userSpaceOnUse" x1="34.7185" y1="177.5884" x2="59.6263" y2="177.5884">
				<stop  offset="0" style="stop-color:#DAE3FE"/>
				<stop  offset="1" style="stop-color:#E9EFFD"/>
			</linearGradient>
			<path class="st40" d="M58.2,175.7c0,0-10.7,6-14.3,0.9c-0.7-1.1-0.9-2.1-0.7-3.1c-3.2-1.6-6.5-2.1-8.3-2.2
				c-0.5,2.5-0.2,5.1,1.2,7.7c6.3,11.5,23.5-0.6,23.5-0.6L58.2,175.7z"/>
			<g>
				
					<linearGradient id="SVGID_38_" gradientUnits="userSpaceOnUse" x1="2461.2693" y1="159.8797" x2="2474.9653" y2="216.9462" gradientTransform="matrix(1 0 0 1 -2394.1074 0)">
					<stop  offset="0" style="stop-color:#4F52FF"/>
					<stop  offset="1" style="stop-color:#4042E2"/>
				</linearGradient>
				<path class="st41" d="M56.9,183.3l5.8-20.3c0.1-0.2,0.3-0.4,0.5-0.4c1.1-0.1,4.1-0.5,7.6-0.8c4.3-0.4,9.2-0.7,12.1-0.4
					c0.4,0,0.7,0.5,0.5,0.9c-1.7,3.4-8.6,17.2-12,21.7c-0.1,0.1-0.3,0.2-0.5,0.2l-13.5-0.1C57.1,184.1,56.8,183.7,56.9,183.3z"/>
				<path class="st1" d="M71.5,160l4.2-0.7c0.2,0,0.4,0.2,0.3,0.4l-0.4,1.3c0,0.1-0.1,0.2-0.2,0.2l-4.1,0.5c-0.2,0-0.4-0.2-0.3-0.4
					l0.3-1.1C71.3,160.2,71.4,160.1,71.5,160z"/>
				<path class="st1" d="M68.3,163.6l0.3-1.8c0-0.2,0.2-0.3,0.4-0.3l8.5-0.9c0.3,0,0.5,0.2,0.4,0.5l-0.5,2.3c0,0.2-0.2,0.3-0.4,0.3
					l-8.3,0.4C68.5,164.1,68.3,163.9,68.3,163.6z"/>
				
					<linearGradient id="SVGID_39_" gradientUnits="userSpaceOnUse" x1="2451.8845" y1="174.9768" x2="2459.6443" y2="174.9768" gradientTransform="matrix(1 0 0 1 -2394.1074 0)">
					<stop  offset="0" style="stop-color:#FEBBBA"/>
					<stop  offset="1" style="stop-color:#FF928E"/>
				</linearGradient>
				<path class="st42" d="M58.3,178.4c0,0-0.8-3.3-0.5-4.5c0.3-1.2,1-2.7,3.1-2.4c2.1,0.3,4.6,1.2,4.6,1.2s-0.1,1.5-1.7,1l1,0.8
					c0,0-0.1,1.2-1.5,0.6l0.9,1c0,0-0.6,1-1.6,0.4C61.6,175.9,61.2,178.8,58.3,178.4z"/>
			</g>
		</g>
		<path class="st2" d="M48.2,178.8c-1,0-1.9-0.1-2.6-0.5c-0.1-0.1-0.1-0.2-0.1-0.3c0.1-0.1,0.2-0.1,0.3-0.1c2.8,1.5,9.8-1.1,9.9-1.1
			c0,0,1.4-0.5,1.8-1.4c0.1-0.1,0.2-0.1,0.3-0.1c0.1,0.1,0.1,0.2,0.1,0.3c-0.6,1.1-2,1.6-2.1,1.6C55.5,177.3,51.4,178.8,48.2,178.8z
			"/>
		<path class="st2" d="M44.3,184.8c-0.1,0-0.2-0.4-0.2-0.5c0-0.1,0.1-0.4,0.2-0.4c8.1-0.3,12.7-4.1,12.7-4.1c0.1-0.1,0.2-0.1,0.3,0
			c0.1,0.1,0.1,0.5,0,0.6C57.2,180.5,52.5,184.5,44.3,184.8C44.3,184.8,44.3,184.8,44.3,184.8z"/>
		<g>
			
				<linearGradient id="SVGID_40_" gradientUnits="userSpaceOnUse" x1="1000.6074" y1="-43.907" x2="986.9448" y2="-25.8325" gradientTransform="matrix(0.8116 -0.5843 0.5843 0.8116 -723.8468 757.3876)">
				<stop  offset="0" style="stop-color:#FEBBBA"/>
				<stop  offset="1" style="stop-color:#FF928E"/>
			</linearGradient>
			<path class="st43" d="M64.7,135.5c0.1,0.1,3.4,11.6,3.4,11.6l-6.6,1.7l-4.7-10.4C56.8,138.4,63,133,64.7,135.5z"/>
			
				<linearGradient id="SVGID_41_" gradientUnits="userSpaceOnUse" x1="990.1729" y1="-39.5664" x2="1006.4932" y2="-39.5664" gradientTransform="matrix(0.8116 -0.5843 0.5843 0.8116 -723.8468 757.3876)">
				<stop  offset="0" style="stop-color:#09005D"/>
				<stop  offset="1" style="stop-color:#1A0F91"/>
			</linearGradient>
			<path class="st44" d="M59.4,139.2c-0.2,0.3-0.2,0.6-0.1,0.9l2,5.6c0,0.1,0.1,0.2,0.1,0.2c0.3,0.4,1.3,1.6,2.5,0.5
				c1-1,2-1.8,2.9-2.1c0.5-0.2,1.1,0.2,1.2,0.7c0.3,1.1,0.9,3.3,1.1,5.3c0.1,0.5-0.3,1-0.8,1.1c-1.3,0.3-3.9,0.7-6.1,0.6
				c-0.4,0-0.7-0.2-0.8-0.6c-0.7-1.4-2.6-5.5-3.3-6.5c-0.7-1-2.2-1-3-0.9c-0.3,0-0.5-0.1-0.7-0.2c-0.6-0.6-1.6-1.8-0.2-3.4
				c0.4-0.4,0.3-1,0-1.4c-0.7-0.7-1.3-1.8-0.2-3.2c1.1-1.4,2.6-1.3,3.5-1c0.4,0.1,0.9,0,1.2-0.4c0.1-0.2,0.3-0.3,0.6-0.3
				c0.5,0,1-0.4,1-0.9c0-0.9,0.4-2,1.9-2.5c2.9-0.9,4.7,1.8,4.9,3.9c0.2,2.1-3,2.9-4.8,2.8C60.9,137.2,59.9,138.5,59.4,139.2z"/>
			
				<linearGradient id="SVGID_42_" gradientUnits="userSpaceOnUse" x1="980.597" y1="-29.5932" x2="991.5555" y2="-40.8364" gradientTransform="matrix(0.8116 -0.5843 0.5843 0.8116 -723.8468 757.3876)">
				<stop  offset="0" style="stop-color:#FEBBBA"/>
				<stop  offset="1" style="stop-color:#FF928E"/>
			</linearGradient>
			<path class="st45" d="M59,146.8c0,0-0.5-3.6-2-3.8c-1.5-0.2-2.9,1.1-1.4,3.1C57.4,148.6,59,146.8,59,146.8z"/>
			<path class="st2" d="M65.2,136c0,0-0.1,0-0.1,0c-0.1-0.1-0.1-0.2-0.1-0.3c0,0,0.7-1,0.3-2.1c-0.3-0.8-1-1.4-2.2-1.9
				c-0.1,0-0.2-0.2-0.1-0.3c0-0.1,0.2-0.2,0.3-0.1c1.3,0.5,2.1,1.2,2.4,2.1c0.4,1.2-0.3,2.4-0.4,2.4C65.4,135.9,65.3,136,65.2,136z"
				/>
		</g>
	</g>
	<g>
		<g>
			<g>
				<g>
					
						<linearGradient id="SVGID_43_" gradientUnits="userSpaceOnUse" x1="3261.312" y1="1256.4921" x2="3204.8083" y2="1300.8589" gradientTransform="matrix(1 2.500000e-03 -2.500000e-03 1 -3015.7161 -1032.6027)">
						<stop  offset="0" style="stop-color:#09005D"/>
						<stop  offset="1" style="stop-color:#1A0F91"/>
					</linearGradient>
					<path class="st46" d="M223.9,243.3c-3.8-0.1-5.8-0.6-6.8-1c0,0.4,0,0.8,0,1.2c0,0.4,0.3,0.8,0.7,0.8l20.9-0.1
						c0.7,0,1.1-0.8,0.8-1.4C236.8,243,229.8,243.5,223.9,243.3z"/>
					
						<linearGradient id="SVGID_44_" gradientUnits="userSpaceOnUse" x1="-7041.4565" y1="1267.283" x2="-6991.458" y2="1250.797" gradientTransform="matrix(-1 -2.500000e-03 -2.500000e-03 1 -6801.084 -1041.8528)">
						<stop  offset="0" style="stop-color:#09005D"/>
						<stop  offset="1" style="stop-color:#1A0F91"/>
					</linearGradient>
					<path class="st47" d="M218.1,235.4c0.5-1.7,2.1-2.8,3.8-2.8l1.7,0.1c9.3,2.2,13.9,7.4,15.8,10c0,0.1,0.1,0.1,0.1,0.2
						c-2.7,0.2-9.7,0.7-15.6,0.5c-3.8-0.1-5.8-0.6-6.8-1C217.2,239.4,217.6,237,218.1,235.4z"/>
				</g>
				<linearGradient id="SVGID_45_" gradientUnits="userSpaceOnUse" x1="217.9495" y1="230.1939" x2="230.0207" y2="230.1939">
					<stop  offset="0" style="stop-color:#FEBBBA"/>
					<stop  offset="1" style="stop-color:#FF928E"/>
				</linearGradient>
				<path class="st48" d="M217.9,224.1l1.2,9.9c0,1,0.7,1.8,1.6,1.9l3.8,0.3c0.9,0.1,2.7-0.5,2.7-1.5l2.8-10.6H217.9z"/>
			</g>
			<g>
				<g>
					
						<linearGradient id="SVGID_46_" gradientUnits="userSpaceOnUse" x1="1343.3787" y1="1261.2869" x2="1286.875" y2="1305.6537" gradientTransform="matrix(-1 2.500000e-03 2.500000e-03 1 1511.9778 -1032.6027)">
						<stop  offset="0" style="stop-color:#09005D"/>
						<stop  offset="1" style="stop-color:#1A0F91"/>
					</linearGradient>
					<path class="st49" d="M190.3,243.3c3.8-0.1,5.8-0.6,6.8-1c0,0.4,0,0.8,0,1.2c0,0.4-0.3,0.8-0.7,0.8l-20.9-0.1
						c-0.7,0-1.1-0.8-0.8-1.4C177.4,243,184.4,243.5,190.3,243.3z"/>
					
						<linearGradient id="SVGID_47_" gradientUnits="userSpaceOnUse" x1="-5123.5229" y1="1272.0778" x2="-5073.5249" y2="1255.5918" gradientTransform="matrix(1 -2.500000e-03 2.500000e-03 1 5297.3457 -1041.8528)">
						<stop  offset="0" style="stop-color:#09005D"/>
						<stop  offset="1" style="stop-color:#1A0F91"/>
					</linearGradient>
					<path class="st50" d="M196.1,235.4c-0.5-1.7-2.1-2.8-3.8-2.8l-1.7,0.1c-9.3,2.2-13.9,7.4-15.8,10c0,0.1-0.1,0.1-0.1,0.2
						c2.7,0.2,9.7,0.7,15.6,0.5c3.8-0.1,5.8-0.6,6.8-1C197.1,239.4,196.6,237,196.1,235.4z"/>
				</g>
				
					<linearGradient id="SVGID_48_" gradientUnits="userSpaceOnUse" x1="-1699.9957" y1="230.1939" x2="-1687.9246" y2="230.1939" gradientTransform="matrix(-1 0 0 1 -1503.7382 0)">
					<stop  offset="0" style="stop-color:#FEBBBA"/>
					<stop  offset="1" style="stop-color:#FF928E"/>
				</linearGradient>
				<path class="st51" d="M196.3,224.1l-1.2,9.9c0,1-0.7,1.8-1.6,1.9l-3.8,0.3c-0.9,0.1-2.7-0.5-2.7-1.5l-2.8-10.6H196.3z"/>
			</g>
		</g>
		<linearGradient id="SVGID_49_" gradientUnits="userSpaceOnUse" x1="165.9155" y1="190.2694" x2="248.2915" y2="190.2694">
			<stop  offset="0" style="stop-color:#09005D"/>
			<stop  offset="1" style="stop-color:#1A0F91"/>
		</linearGradient>
		<path class="st52" d="M247.7,150.4l-40.6,0.1l-40.6-0.1c0,0-3.9,24.8,8,42c3.8,11.5,6.1,26.8,7.6,30.5c1.5,3.7,2.3,7.1,2.3,7.1
			h12.6l5.3-40.9c0.3-2,1.9-3.5,3.9-3.5h1.7c1.9,0,3.5,1.4,3.7,3.2l6.6,41.3l11.3-0.4c0,0,0.8-3.3,2.3-7c1.5-3.7,3.8-18.9,7.7-30.4
			C251.5,175.1,247.7,150.4,247.7,150.4z"/>
		<linearGradient id="SVGID_50_" gradientUnits="userSpaceOnUse" x1="226.6711" y1="77.4198" x2="204.0863" y2="141.8284">
			<stop  offset="0" style="stop-color:#E1473D"/>
			<stop  offset="1" style="stop-color:#E9605A"/>
		</linearGradient>
		<path class="st53" d="M242.4,159c-10.6,6.5-15.3,12.5-32.3,13.2v0c-0.6,0-1.4,0.6-2.3,0.6h-1.5c-0.8,0-2.1-0.5-3.2-0.6v0
			c-16.4-0.7-21.2-6.7-31.8-13.2c-11.9-7.3-5.2-24.5-2.5-33.3c2.7-8.8,1.6-20.8,5.1-33.6c2.3-8.6,11-12.5,16.4-14.1
			c0.9-0.3,1.7-0.3,2.3-0.5c1.3-0.3,2.2-0.3,2.2-0.3h24.6c0,0,0.8,0,2.2,0.3c0.7,0.2,1.4,0.3,2.3,0.5c5.4,1.6,14,5.5,16.3,14.1
			c3.4,12.8,2.2,24.8,4.9,33.6C247.9,134.5,254.3,151.7,242.4,159z"/>
		<linearGradient id="SVGID_51_" gradientUnits="userSpaceOnUse" x1="199.4737" y1="102.8759" x2="207.6502" y2="75.8689">
			<stop  offset="0" style="stop-color:#FEBBBA"/>
			<stop  offset="1" style="stop-color:#FF928E"/>
		</linearGradient>
		<path class="st54" d="M221.6,77.5c-1.5,8-7.4,13.8-14.5,13.8c-7.1,0-13-5.7-14.5-13.7c1.3-0.3,2.2-0.3,2.2-0.3h24.6
			C219.4,77.2,220.2,77.2,221.6,77.5z"/>
		<g>
			<linearGradient id="SVGID_52_" gradientUnits="userSpaceOnUse" x1="190.6985" y1="83.4033" x2="194.8894" y2="69.5608">
				<stop  offset="0" style="stop-color:#FEBBBA"/>
				<stop  offset="1" style="stop-color:#FF928E"/>
			</linearGradient>
			<path class="st55" d="M195.8,68.7c0,0-4.1-3-3.8,3.5c0.4,6.6,3.1,5.3,3.1,5.3L195.8,68.7z"/>
			
				<linearGradient id="SVGID_53_" gradientUnits="userSpaceOnUse" x1="-1668.8923" y1="83.4033" x2="-1664.7014" y2="69.5608" gradientTransform="matrix(-1 0 0 1 -1445.9028 0)">
				<stop  offset="0" style="stop-color:#FEBBBA"/>
				<stop  offset="1" style="stop-color:#FF928E"/>
			</linearGradient>
			<path class="st56" d="M217.9,68.7c0,0,4.1-3,3.8,3.5c-0.4,6.6-3.1,5.3-3.1,5.3L217.9,68.7z"/>
		</g>
		<linearGradient id="SVGID_54_" gradientUnits="userSpaceOnUse" x1="205.105" y1="89.0539" x2="210.7707" y2="46.9441">
			<stop  offset="0" style="stop-color:#FEBBBA"/>
			<stop  offset="1" style="stop-color:#FF928E"/>
		</linearGradient>
		<path class="st57" d="M196.1,63.3c-1.6,6.5-3.8,17.9,2,23c3.7,3.2,9.3,3.5,13.8,2.4c11.5-3,6.9-21.1,5.3-29.7
			C217.3,58.9,199.8,52.2,196.1,63.3z"/>
		<linearGradient id="SVGID_55_" gradientUnits="userSpaceOnUse" x1="206.3812" y1="69.799" x2="209.7831" y2="44.5146">
			<stop  offset="0" style="stop-color:#09005D"/>
			<stop  offset="1" style="stop-color:#1A0F91"/>
		</linearGradient>
		<path class="st58" d="M195.1,68.3c0,0,0.7-9.9,5.1-7.3c4.4,2.6,5.6,4.6,9.4,3.4c3.8-1.1,5.2-6,6.9-2.5c1.7,3.6,2.8,9.1,2.8,9.1
			s1.2-6.9,0.9-9.7c-0.3-2.9-0.1-10.6-6.4-10c0,0-5.7,3.3-11.4,2.8C195.2,53.6,192.6,63,195.1,68.3z"/>
		<linearGradient id="SVGID_56_" gradientUnits="userSpaceOnUse" x1="168.1181" y1="92.8247" x2="140.2384" y2="-84.4901">
			<stop  offset="0" style="stop-color:#FEBBBA"/>
			<stop  offset="1" style="stop-color:#FF928E"/>
		</linearGradient>
		<path class="st59" d="M191.1,152.5c0.7,0.1,1.2,0,0-2.8c-1.2-2.8-8-1.2-8-1.2s-14.3-23.4-9.1-30.9c5.2-7.6,16.5-20.1,9.1-36.6
			c0,0-22.3,10-26.1,23c-3.7,12.9-6,40.5,23,53.5c0,0,0,0,0,0c2.9,3.8,8.1,3.8,12.7,2.3C197.4,158.1,190.4,152.4,191.1,152.5z"/>
		<linearGradient id="SVGID_57_" gradientUnits="userSpaceOnUse" x1="256.3765" y1="92.6413" x2="377.9319" y2="-62.3696">
			<stop  offset="0" style="stop-color:#FEBBBA"/>
			<stop  offset="1" style="stop-color:#FF928E"/>
		</linearGradient>
		<path class="st60" d="M222.6,152.5c-0.7,0.1-1.2,0,0-2.8c1.2-2.8,8-1.2,8-1.2s14.3-23.4,9.1-30.9c-5.2-7.6-16.5-20.1-9.1-36.6
			c0,0,22.3,10,26.1,23c3.7,12.9,6,40.5-23,53.5c0,0,0,0,0,0c-2.9,3.8-8.1,3.8-12.7,2.3C216.3,158.1,223.3,152.4,222.6,152.5z"/>
		<g>
			<linearGradient id="SVGID_58_" gradientUnits="userSpaceOnUse" x1="211.6271" y1="110.7796" x2="197.8318" y2="163.374">
				<stop  offset="0" style="stop-color:#233894"/>
				<stop  offset="0.9964" style="stop-color:#DD397A"/>
			</linearGradient>
			<path class="st61" d="M226.5,129.1c-0.1,0-0.1,0-0.2,0c-16.7-10.7-37.9-3.1-38.1-3c-0.1,0.1-0.3,0-0.4-0.2
				c-0.1-0.1,0-0.3,0.2-0.4c0.2-0.1,21.6-7.8,38.6,3.1c0.1,0.1,0.2,0.3,0.1,0.4C226.6,129.1,226.5,129.1,226.5,129.1z"/>
		</g>
	</g>
</g>
</svg>
