<?xml version="1.0" encoding="utf-8"?>
<!-- Generator: Adobe Illustrator 25.0.0, SVG Export Plug-In . SVG Version: 6.00 Build 0)  -->
<svg version="1.1" id="Layer_1" xmlns="http://www.w3.org/2000/svg" xmlns:xlink="http://www.w3.org/1999/xlink" x="0px" y="0px"
	 viewBox="0 0 300 300" style="enable-background:new 0 0 300 300;" xml:space="preserve">
<style type="text/css">
	.st0{opacity:8.000000e-02;fill:#E13856;enable-background:new    ;}
	.st1{fill:#F7C9B2;}
	.st2{fill:#232426;}
	.st3{fill:#007AC3;}
	.st4{fill:#059DD8;}
	.st5{fill:#313236;}
	.st6{fill:#18AEEA;}
	.st7{fill:#F5B39A;}
	.st8{fill:#0057A2;}
	.st9{fill:#644733;}
	.st10{fill:#D5F8FF;}
	.st11{fill:#A6E0EA;}
	.st12{fill:#5F4047;}
	.st13{fill:#24B6FF;}
	.st14{fill:#14B1EF;}
	.st15{fill:none;stroke:#000000;stroke-width:2;stroke-linecap:round;stroke-linejoin:round;stroke-miterlimit:10;}
</style>
<g id="Page-1">
	<g id="For-you-and-your-partner-Copy-4">
		<g id="Group-4">
			<circle id="Mask-Copy-2" class="st0" cx="150" cy="150" r="150"/>
		</g>
	</g>
</g>
<g>
	<g>
		<path class="st1" d="M104,276.8c-0.7,3.4-15.4,8.4-17.9,10.6c-2.5,2.3-0.5,5.2,3.2,5.7c3.6,0.5,14.5,0.9,18.3-1.6
			c3.8-2.5,4.7-3.4,7.8-2.9c3.1,0.5,6.7-2.3,4.7-11.8C118,267.3,104,276.8,104,276.8z"/>
		<path class="st1" d="M98.9,162.5c0,16.6,1.7,31.8,2.6,50.9s3.4,61.2,3.6,64.4c0.2,3.2,11.6-0.2,13.3-0.7
			c1.7-0.5,3.1-46.5,2.5-61.7s-1.5-52.9-1.5-52.9L98.9,162.5L98.9,162.5z"/>
		<path class="st1" d="M119.4,162.5h-9c0.9,19.4-0.3,59.7-0.1,69.4c0.2,8.3,0.3,36.5-0.4,47.9c4.1,0.4,7.9-3.4,8.8-3.7
			c1.7-0.5,2.8-45.5,2.2-60.6C120.2,200.2,119.4,162.5,119.4,162.5z"/>
		<path class="st1" d="M130.5,280c-5.7,5.9-22.8,11.5-19,15.6c1,1,6.8,3.2,16.1,0.9c9.3-2.3,7.9-5.9,12.4-6.1s10-1.1,5.7-10.4H130.5
			z"/>
		<path class="st1" d="M118.1,161.2c1.4,21.4,1.6,53.7,2.3,60.5c0.6,6.8,4.5,24,5.6,34.2c1,10.2,4.5,24.6,5.6,24.6s2.5,4.5,7.2,4.2
			c4.7-0.2,3.3-4.2,3.3-4.2s3.3-40.2-2.3-57.5c-3.5-10.9,2.7-60,2.7-60L118.1,161.2z"/>
		<path class="st1" d="M142.4,163l-10.1-0.7c-0.9,20.1-2.4,55.2-0.9,60.7c1.4,5,5.9,46.8,4.6,61.7c0.9,0.1,1.8,0.1,2.6,0.1
			c4.7-0.2,7-4.7,7-4.7s-0.4-39.7-5.9-57C136.2,212.1,142.4,163,142.4,163z"/>
	</g>
	<g>
		<path class="st2" d="M165.3,260.4c-0.6,3.4-13.2,6.3-15.6,8.6c-2.3,2.3-1.6,7.3,1.8,7.7c3.4,0.5,13.6,0.9,17.2-1.6
			c3.6-2.5,4.4-3.4,7.3-2.9c2.9,0.5,6.3-2.3,4.4-11.8C178.5,250.9,165.3,260.4,165.3,260.4z"/>
		<path class="st3" d="M162.7,135.2c-3.2,7.3-3.3,42.8-1.6,61.9c3.6,39.5,0.7,60.4,0.9,63.6s16.6,3.2,18.4,2.7
			c1.9-0.5,2.3-49.2,1.6-64.4s-1.6-52.9-1.6-52.9L162.7,135.2z"/>
		<path class="st4" d="M162.7,135.2c-3.2,7.3-3.3,42.8-1.6,61.9c3.6,39.5,0.7,60.4,0.9,63.6s16.6,3.2,18.4,2.7
			c1.9-0.5,2.3-49.2,1.6-64.4s-1.6-52.9-1.6-52.9L162.7,135.2z"/>
		<path class="st4" d="M180.4,263.4c1.9-0.5,2.3-49.2,1.6-64.4s-1.6-52.9-1.6-52.9l-6.5-4c-3.5,1.3-6.1,2.2-6.1,2.2
			c-2.3,29.8,4.3,102.1,3.1,119.1C175.2,263.7,179.5,263.6,180.4,263.4z"/>
		<path class="st5" d="M183.7,263.6c-3.6,4-11.8,7-16.2,9.7c-2.1,1.3-2.8,4.6-1.7,5.9c0.9,1,6.4,3.2,15.1,0.9
			c8.7-2.3,7.4-5.9,11.7-6.1c4.2-0.2,9.3-1.1,5.3-10.4H183.7z"/>
		<path class="st3" d="M173,144.4c1.6,21.4,1.9,53.7,2.6,60.5c0.7,6.8,2.6,20.7,3.8,30.9s0,30.6,1.2,30.6s7,1.7,12.4,1.5s7-2,7-2
			s0.9-38.4-2.4-59.7c-1.8-11.4,3-60,3-60L173,144.4z"/>
		<path class="st6" d="M173,144.4c1.6,21.4,1.9,53.7,2.6,60.5c0.7,6.8,2.6,20.7,3.8,30.9s0,30.6,1.2,30.6s7,1.7,12.4,1.5s7-2,7-2
			s0.9-38.4-2.4-59.7c-1.8-11.4,3-60,3-60L173,144.4z"/>
		<path class="st6" d="M192.9,267.8c5.4-0.2,7-2,7-2s0.9-38.4-2.4-59.7c-1.8-11.4,3-60,3-60l-10.1-0.6c-1.1,11-4.5,48.5-2.3,63.9
			c1.7,12,3.5,44.8,4.3,58.5C192.5,267.8,192.7,267.9,192.9,267.8z"/>
		<path class="st7" d="M93.9,90.6c-4,0.3-8.6,0.1-12,0s-6.2,3.1-7.5,5.6s2,5.8,2.8,6.8s7.7,2.2,7.7,2.2l12-7.3L93.9,90.6z"/>
		<path class="st7" d="M144.8,29.9c-7.3,0.4-10,7.1-8.5,10.3s8.1,2.4,9.8,0C147.9,37.9,149.1,29.7,144.8,29.9z"/>
		<path class="st8" d="M160.1,56.8c0,0,0.1,21.5,4.3,20.8c4.3-0.7,6.9-8.6,6.9-8.6l-7.7-11.6L160.1,56.8z"/>
		<path class="st1" d="M167.9,72.8c-1.4-0.3-20.2-1.9-20.2-1.9l1.7-12.7l14.3-0.8L167.9,72.8z"/>
		<path class="st1" d="M189.4,52.5c1-0.1,2.2,0.1,2.2-0.7c-0.1-1.3-0.8-2.2-1.7-3.3c-1.5-1.7-6.4-5.6-6.6-8.4
			c-0.2-2.8,0.7-6.2,0.8-7.6c0.2-1.3-1.2-2-0.6-5.1c0.5-3.1,1.4-9.1,6.9-11.9c5.5-2.9,12.9-4.9,18.4,1.2c5.4,6.1,4.2,16.3-0.4,23.1
			c-4.6,6.8-5.2,6.6-2.9,10.4c0.4,0.7,2.2,2.6,2.2,3.1c-0.1,3.8-13.3,5.1-13.3,5C194.4,58.1,189.4,52.5,189.4,52.5z"/>
		<path class="st7" d="M204.8,39.5c-2.2,3.1-5.7,5.4-5.7,5.4l-8.7,4.3c0.5,0.6,0.9,1.3,1.1,2.1c2.2-0.3,8.7-1.4,12.5-6.2
			C206.2,42.4,205.8,40.6,204.8,39.5z"/>
		<path class="st9" d="M204.5,35.5l-1,4.1c-0.5,3.2,0.9,6.5,0.8,6.6l0,0c0.4-1.3,1.7-2.9,4-6.4c0.1-0.2,0.3-0.4,0.4-0.6L204.5,35.5z
			"/>
		<path class="st10" d="M201,43.4c-5.6-0.3-4.6-9.4-4.6-9.4c-9,1-12.2-1.4-12.2-1.4c-0.2,1.3-1.4,4.9-1.2,7.8
			c0.2,2.8,1.8,5.7,3.2,7.4c0.8,0.9,2,1.7,2.9,2.2l0,0C197.5,52.1,201,43.4,201,43.4z"/>
		<path class="st1" d="M203.2,41c1.5,0.7,1.6-2.4,1.6-2.4l-0.9-1.1l-1.7-2L203.2,41z"/>
		<path class="st10" d="M183.8,25.7c0,0,5.1-2.1,12.3,3.7S207,41.7,207,41.7s0.7,1.5,3.7,0.1s4.7-5.3,4.6-8.7
			c-0.1-3.4,1.9-18.8-14.6-21.1C184.2,9.7,183.8,25.7,183.8,25.7z"/>
		<g>
			<path class="st11" d="M199.3,45.2c-0.1,0-0.1,0-0.1-0.1c-0.1-0.1-0.1-0.2,0-0.3l4.1-3.8c0.1-0.1,0.2-0.1,0.3,0s0.1,0.2,0,0.3
				l-4.1,3.8C199.4,45.2,199.3,45.2,199.3,45.2z"/>
		</g>
		<g>
			<path class="st10" d="M195.6,34.8c-0.1,0-0.1,0-0.2-0.1c-0.1-0.1,0-0.2,0.1-0.3l4-2.1c0.1-0.1,0.2,0,0.3,0.1s0,0.2-0.1,0.3
				L195.6,34.8L195.6,34.8z"/>
		</g>
		<path class="st11" d="M197.3,40.7L197.3,40.7c-0.1,2.3-1.5,4.9-3.1,6c-2.4,1.7-4.3,1.8-8,1c0.8,0.9,2,1.7,2.9,2.2
			c8.5,2.2,11.9-6.5,11.9-6.5C199.1,43.3,197.9,42.1,197.3,40.7z"/>
		<path class="st11" d="M211.1,17c4.6,5.5,2.6,20.3-5.4,22.8l0,0c0.9,1.2,1.3,2,1.3,2s0.7,1.5,3.7,0.1s4.7-5.3,4.6-8.7
			C215.3,30.8,216.3,22.5,211.1,17z"/>
		<path class="st4" d="M181,53.9c-5.6,2.7-22.7,2.3-20.9,2.9c6.7,2.4,4.3,20.8,4.3,20.8l14-1.3L181,53.9z"/>
		<path class="st1" d="M103.1,5c-5.3,2.5-8.8,5.9-9.2,14c-0.4,8.1,0.8,8.9,2.4,10.3s-1.3,5.4,0.3,9.8c1.6,4.5,7.2,10.7,12.2,9.7
			s5.1-3.4,5.9-1.2c0,0,0.5,4.9,5.4,3c8.4-3.2,9.9-7.5,9.7-8.1c-0.3-0.7-3.4-3.9-2.4-6.7c1-2.8,5.5-17-0.7-24.4
			C120.5,4.2,107.3,3,103.1,5z"/>
		<path class="st7" d="M125.9,34.9c0.3-0.7,2-1,2.5-2.7c-0.2-3.4-6.8-0.4-6.8-0.4c-1.8,3.5-6.9,12.5-8.5,13.6
			c-0.8,0.6-0.4,1.2,0.2,1.6c0.7-0.4,0.5-1.5,0.9-0.4C114.2,46.6,121.4,43.7,125.9,34.9z"/>
		<path class="st12" d="M127.3,35.9c0.7-1.8,2.8-8.4,2.5-14.9l-13.9-4.6l5.8,15.4c0.9,2.7,4.4,5.2,5.5,5.2l0,0
			C127.1,36.6,127.2,36.2,127.3,35.9z"/>
		<path class="st1" d="M118.1,36.1c1.7,0.9,3.8,0.4,3.7-1.1c-0.2-3.1,1.6-6.1,1-7.3c-0.5-1.2-7.9-2.5-7.9-2.5v9.9L118.1,36.1z"/>
		<path class="st13" d="M189.4,52.5c-4.1-0.4-13.8,0-16.4,12.7c-2.6,12.7-6.2,34.8-7.2,43.2s-7.9,29.3-7.9,31.4
			c0,2.1,10,15.7,45.3,11c0,0,2.1-14.9,2.1-21s-0.2-22.8,1.5-26.9s11.9-31.8,11.4-37.3S213,55.1,213,55.1l-7.5-5.1l-10.6,6.9
			L189.4,52.5z"/>
		<path class="st13" d="M108.8,56.2c1.2-1.7,2.8-7.7,4.3-8.1s3.8,0.7,11.3-3s20.8-10.7,21.5-10.1c0.7,0.6,7,22.5,7.5,37.4
			c0.5,14-4.5,69.7-4.8,97.6c-0.2,28.5,1.4,40,1.4,43.7c0,2.8-11.8,0.7-38,2.5c-26.2,1.7-22.9-3.4-22.5-4.8
			c1.4-4.5,1.4-78.1,1.1-88.6C90.3,112.2,91.4,81.2,108.8,56.2z"/>
		<path class="st13" d="M116.4,151.9c-3.3-30.3-1-82.5-0.2-104.1c-1.5,0.2-2.4,0.1-3,0.2c-1.5,0.4-3.1,6.4-4.3,8.1
			c-17.4,25-18.6,56-18.2,66.5c0.3,10.5,0.3,84.1-1.1,88.6c-0.4,1.4-3.7,6.5,22.5,4.8c5.1-0.3,9.7-0.5,13.8-0.6
			C124.8,210.1,119.8,183.2,116.4,151.9z"/>
		<path class="st14" d="M127.1,51.8c-3.4,3.4-8.2,8.2-6.7,17.5s6.7,23.9,6.7,23.9s-6.3-0.2-10.7-1.7c-4.5-1.6-8.5-2.9-16.2,1.7
			c0,0-1.2,9.3-1.2,10s2.1,8.9,11.5,10c9.4,1,23.9,7,27.8,3.8c3.8-3.1,8.4-13.3,10.1-20.1c1.7-6.8,3.3-9.8,4.3-16.4
			s-1.8-18.9-5.7-26.2C143.2,46.9,137.2,41.5,127.1,51.8z"/>
		<path class="st1" d="M100.2,93.2c-4.6,0.9-10.3,1.4-13.1,0.7c-2.9-0.7-6.2,3.3-7.3,5.5c-1.2,2.2-1.3,6.8,0,9s4.8,5.1,6,4.5
			c1.2-0.7,1.5-4.7,2.4-5.6s5.4-0.8,7.3-2.1c2-1.3,3.5-2.1,3.5-2.1L100.2,93.2z"/>
		<path class="st8" d="M195.1,77.7c-2.2,0.1-3.3-20.1-0.2-20.6s6.1,17.3,6.1,17.3v2.1L195.1,77.7z"/>
		<path class="st13" d="M200.5,71.7c-0.3,12.3-4.5,29.7-6.6,40.4c-2.1,10.5-7.6,39-7.8,39.7c4.9,0.2,10.6,0,17.1-0.9
			c0,0,2.1-14.9,2.1-21s-0.2-22.8,1.5-26.9s11.9-31.8,11.4-37.3c-0.2-1.7-0.8-3.4-1.5-4.9L200.5,71.7z"/>
		<path class="st1" d="M155.6,38.2c-3,0.5-8.3,1.6-10.2,0c-2-1.6-3.1-3.2-1.8-5.7s1.8-4.7,4.7-5.5s9.3,1,12.7,3.1
			s16.9,13.1,21.6,16.9c4.7,3.8,8.3,8.5,9,9.4c0.8,0.9,7.1,0.8,13.8,0s10,0,12.3,3.8c2.4,3.8-0.7,12.7-7.1,13.2
			c-6.4,0.5-12.7-1.3-15.3-2.1c-2.6-0.8-6.2-2.4-8.1-3c-2-0.7-10.5-9.3-15.7-15.3C166.2,47,158.5,37.7,155.6,38.2z"/>
		<path class="st4" d="M194.9,57.1c1.6,0.7,3.7,17.7,0.2,20.6c0,0,15.3-0.3,19.6-4.1c4.3-3.8,4.6-8,3.8-11.5s-3.8-5.8-5.5-6.8
			C211.3,54.2,194.9,57.1,194.9,57.1z"/>
		<path class="st12" d="M117.5,18.8l-8.2-3.8c0,0-10.7,5.6-15.5,1.5C89,12.2,96,6.2,96,6.2L107.4,2c0,0,9.3-2.6,14.7,2.2
			c5.5,4.8,7.8,12.4,7.6,16.9S117.5,18.8,117.5,18.8z"/>
	</g>
	<path class="st14" d="M138.3,116.9c3.8-3.1,8.4-13.3,10.1-20.1c1.7-6.8,3.3-9.8,4.3-16.4c0.6-4.3-0.3-10.9-2.1-17
		c0.4,14.7-12.5,48.4-14.7,48.1c-2.5-0.3-27.3-3.9-31.2-8.4c-3.9-4.5-0.3-10-1.7-11.4c-0.9,0.4-1.8,0.9-2.7,1.5c0,0-1.2,9.3-1.2,10
		s2.1,8.9,11.5,10C120,114.1,134.5,120.1,138.3,116.9z"/>
</g>
<path d="M111,293.5v3c0,0,2.7,2.5,12.1,1.8s15.1-6.1,15.1-6.1s-0.4-0.4,2.7-0.9c3.1-0.6,5-0.5,6.4-1.6c1.4-1.2,0-4,0-4
	s0.3,2.6-3.3,3.2s-6.4,0.3-8.4,2.3s-6,4.5-10.2,5.3c-4.2,0.8-9.2,0.2-9.2,0.2S113.1,296.3,111,293.5z"/>
<path class="st15" d="M124.4,285.6c0,0-6.1,3.6-7.7,7.2c0,0,10.6-2,20.9-2.2"/>
<path d="M85,289.4v3c0,0,2.7,2.5,12.1,1.8c9.4-0.7,15.1-5.4,15.1-5.4s2.8,0.5,5.9-0.1s1.2-0.9,2.6-2.1c1.4-1.2,0-5.1,0-5.1
	s0.9,2.6-2.7,3.2c-3.6,0.6-6.4,0.3-8.4,2.3s-6,4.5-10.2,5.3c-4.2,0.8-9.2,0.2-9.2,0.2S87.1,292.2,85,289.4z"/>
<path class="st15" d="M98.4,281.5c0,0-6.1,3.6-7.7,7.2c0,0,10.6-2,20.9-2.2"/>
</svg>
