<?xml version="1.0" encoding="utf-8"?>
<!-- Generator: Adobe Illustrator 25.0.0, SVG Export Plug-In . SVG Version: 6.00 Build 0)  -->
<svg version="1.1" id="Layer_1" xmlns="http://www.w3.org/2000/svg" xmlns:xlink="http://www.w3.org/1999/xlink" x="0px" y="0px"
	 viewBox="0 0 300 300" style="enable-background:new 0 0 300 300;" xml:space="preserve">
<style type="text/css">
	.st0{opacity:8.000000e-02;fill:#E13856;enable-background:new    ;}
	.st1{fill:#541849;}
	.st2{fill:#F9EAAC;}
	.st3{fill:#FC9F24;}
	.st4{fill:#401335;}
	.st5{fill:#1C103A;}
	.st6{opacity:0.8;}
	.st7{fill:#772A65;}
	.st8{fill:#6B365B;}
	.st9{opacity:0.3;}
	.st10{fill:#0B0108;}
	.st11{opacity:0.4;}
	.st12{fill:#F26001;}
	.st13{opacity:0.2;}
	.st14{fill:#E63E03;}
	.st15{fill:#390C2D;}
	.st16{fill:#BC0A01;}
	.st17{fill:#491507;}
	.st18{fill:#42210B;}
	.st19{fill:#FFFDBB;}
	.st20{fill:#FFFFFF;}
	.st21{fill:#F1BD51;}
	.st22{opacity:0.5;}
	.st23{opacity:5.000000e-02;}
	.st24{opacity:0.7;}
	.st25{fill:#FCFAE0;}
	.st26{fill:#FCB72B;}
	.st27{fill:#FFEC61;}
	.st28{fill:#1A1E59;}
	.st29{opacity:0.46;}
	.st30{fill:#FCFCFC;}
	.st31{fill:#FCD30D;}
	.st32{opacity:0.79;}
	.st33{fill:#E04601;}
	.st34{fill:#DB440C;}
	.st35{opacity:0.74;}
	.st36{fill:#FCEE9D;}
	.st37{fill:#F9DB26;}
	.st38{opacity:0.6;}
	.st39{fill:#D12424;}
</style>
<g id="Page-1">
	<g id="For-you-and-your-partner-Copy-4">
		<g id="Group-4">
			<circle id="Mask-Copy-2" class="st0" cx="150" cy="150" r="150"/>
		</g>
	</g>
</g>
<g>
	<g>
		<g>
			<path class="st1" d="M111.5,46.9c-7,0-12.7,0.9-12.7,2c0,0.1,0.1,0.2,0.2,0.3c0.9,1,6.2,1.7,12.5,1.7s11.6-0.8,12.5-1.7
				c0.1-0.1,0.2-0.2,0.2-0.3C124.2,47.8,118.5,46.9,111.5,46.9z"/>
		</g>
		<g>
			<path class="st2" d="M152.3,152.9c0.1-7.6-3.2-14.9-9.1-19.8l-11.3-9.3c-3.6-2.6-5.7-6.7-5.7-11.1l2.5-5.9
				c1.5-3.6,1.9-7.5,1-11.3l-6.3-28.7H99.6l-6.3,28.7c-0.9,3.8-0.6,7.7,1,11.3l2.5,5.9c0,4.4-2.1,8.5-5.7,11.1l-11.3,9.3
				c-5.9,4.9-9.3,12.1-9.1,19.8l1.4,90.8h0l0,0c0,0.4,0.2,0.7,0.5,1c2.9,3.2,19.2,8.4,38.9,8.4c19.7,0,35.9-5.2,38.9-8.4
				c0.3-0.3,0.5-0.7,0.5-1h0L152.3,152.9z"/>
		</g>
		<g>
			<path class="st3" d="M149.3,154.4c0.1-7.2-3-14-8.5-18.6l-10.4-8.7H92.7l-10.4,8.7c-5.5,4.6-8.6,11.4-8.5,18.6l1.3,85.3h0v0
				c0,0.3,0.2,0.7,0.5,1c2.7,3,17.8,7.9,36,7.9c18.2,0,33.3-4.9,36-7.9c0.3-0.3,0.5-0.6,0.5-1h0L149.3,154.4z"/>
		</g>
		<g>
			<path class="st4" d="M111.5,51c-6.4,0-11.7-0.9-12.7-2.1v13.7v0.8c1,1.2,6.3,2.1,12.7,2.1c6.4,0,11.7-0.9,12.7-2.1v-0.8V48.9
				C123.3,50.1,118,51,111.5,51z"/>
		</g>
		<g>
			<g>
				<path class="st5" d="M111.5,67.6c2.6,0,10.2-0.5,13.1-2.2c0.2-0.1,0.4-0.4,0.3-0.7l-0.1-2.5c0-0.5-0.5-0.8-0.9-0.7
					c-1.9,0.7-6.8,1.9-12.1,2h-0.7c-5.4,0-10.3-1.2-12.2-1.8c-0.4-0.1-0.8,0.2-0.9,0.7L98,64.7c0,0.3,0.1,0.6,0.3,0.7
					C100.8,67,108.9,67.6,111.5,67.6z"/>
			</g>
		</g>
		<g class="st6">
			<g>
				<path class="st7" d="M121.2,48.3c-3.5-1.1-7.3-0.7-11-0.7c-2.3,0-4.8-0.1-6.9,1.1c-0.2,0.1-0.4,0.3-0.4,0.5
					c0,0.2,0.2,0.4,0.4,0.5c1.1,0.5,2.2,0.4,3.4,0.4c4.2,0,8.5,0.5,12.7-0.3c0.6-0.1,1.2-0.3,1.7-0.7
					C121.9,48.5,121.2,48.3,121.2,48.3z"/>
			</g>
		</g>
		<g>
			<path class="st8" d="M110.3,54.6c0.4-0.5,0.6-1.3,0.2-1.7c-0.2-0.2-0.6-0.2-0.9-0.2c-2.8,0.1-6.1,1.2-8.4-0.7
				c-1.7-1.4-1.1,1.6-1.1,2.9c0,1.3,0.2,2.5,0.1,3.8c-0.1,2.1,0.9,2.5,2,2.9c0.4,0.2,0.9,0.2,1.4,0.2c1.6,0.1,3.1,0,4.7,0
				c0.3,0,0.6-0.1,0.7-0.3c0.1-0.2,0.1-0.4,0.1-0.7c-0.1-0.8-0.3-1.6-0.5-2.5c-0.1-0.8-0.1-1.8,0.4-2.4
				C109.4,55.3,109.9,55,110.3,54.6z"/>
		</g>
		<g class="st9">
			<g>
				<path class="st10" d="M123.3,51.2c-0.9,0.5-1.8,1-2.7,1.2c-0.7,0.2-1.3,0.2-2,0.3c-1.5,0.1-3,0.2-4.5,0.4c-0.2,0-0.5,0-0.7,0.2
					c-0.8,0.4-0.7,1.9-1.4,2.4c-0.2,0.1-0.4,0.2-0.6,0.3c-0.7,0.4-0.8,1.5-0.6,2.4c0.1,0.9,0.4,1.8,0.1,2.6
					c-0.1,0.3-0.2,0.5-0.1,0.8c0.1,0.3,0.5,0.3,0.7,0.3c2.6,0.1,5.5,0,7.6-0.6c1.2-0.3,2.3-0.5,3.5-1c0.1,0,0.2-0.1,0.2-0.2
					c0.1-0.1,0.5-0.2,0.5-0.3c0.1-0.9-0.2-1.9-0.2-2.8C123.3,55.3,123.7,53,123.3,51.2L123.3,51.2z"/>
			</g>
		</g>
		<g class="st11">
			<path class="st12" d="M132.1,124l-0.2-0.2c-3.6-2.6-5.7-6.7-5.7-11.1l0.4-0.9c-4.5,0.6-9.5,1-14.7,1c-5.5,0-10.7-0.4-15.4-1.1
				l0.4,1c0,4.4-2.1,8.5-5.6,11c6.1,1.2,13.3,2,21,2C119.5,125.8,126.3,125.1,132.1,124z"/>
		</g>
		<g>
			<g class="st13">
				<g>
					<path class="st14" d="M93.9,101.1c0.1,0.1,0.2,0.2,0.2,0.3c-0.1-0.4-0.1-0.8-0.2-1.2L93.9,101.1z"/>
				</g>
			</g>
			<g class="st13">
				<g>
					<path class="st14" d="M128.1,95.1c-2-8.8-4-17.6-6-26.3c-0.1-0.5-0.2-1-0.7-1.2c-0.3-0.2-0.7-0.1-1-0.1c-2.7,0.4-5.3,0.8-8,1.1
						c5.4,7.4,8.2,16.8,7.6,25.9c-0.2,2.6-0.6,5.2-1.9,7.4c-2.3,4.2-7.4,6.5-12.2,6.1c-4.7-0.4-8.9-3-11.9-6.6
						c0.6,3.5,1.5,7.2,4.3,9.4c2,1.6,4.6,2.1,7.1,2.4c4,0.5,8.1,0.5,12.2,0c1.9-0.2,3.8-0.6,5.4-1.6c1.8-1.1,3.1-3,4.1-5
						c0.8-1.6,1.4-3.3,1.6-5.1C129.1,99.4,128.6,97.2,128.1,95.1z"/>
				</g>
			</g>
		</g>
		<g>
			<path class="st15" d="M129.5,94.8l-6.1-27.9l0-1c-3.4,1.3-9.6,1.7-11.9,1.7c-2.3,0-8.7-0.5-11.9-1.7l0,0.9l-6.1,27.9
				c5.3,1,11.4,1.6,18,1.6C118.1,96.4,124.2,95.8,129.5,94.8z"/>
		</g>
		<g>
			<g>
				<g>
					<path class="st16" d="M111.7,157.7c-11.4,0-20.7,7.3-20.7,16.3v54c0,2.2,1.8,3.9,3.9,3.9h33.5c2.2,0,3.9-1.8,3.9-3.9v-54
						C132.4,165.1,123.1,157.7,111.7,157.7z"/>
				</g>
				<g>
					<path d="M111.7,154.9c-13,0-23.5,8.6-23.5,19.1v54c0,3.7,3,6.7,6.7,6.7h33.5c3.7,0,6.7-3,6.7-6.7v-54
						C135.2,163.5,124.6,154.9,111.7,154.9z M132.4,228.1c0,2.2-1.8,3.9-3.9,3.9H94.9c-2.2,0-3.9-1.8-3.9-3.9v-54
						c0-9,9.3-16.3,20.7-16.3c11.4,0,20.7,7.3,20.7,16.3V228.1z"/>
				</g>
				<g>
					<g class="st13">
						<path class="st17" d="M91,174.1v54c0,1.8,1.2,3.3,2.9,3.8v-66.1C92,168.2,91,171.1,91,174.1z"/>
					</g>
					<g class="st13">
						<path class="st17" d="M95.8,232h2.9v-70.7c-1,0.7-2,1.4-2.9,2.2V232z"/>
					</g>
					<g class="st13">
						<path class="st17" d="M100.6,232h2.9v-73c-1,0.3-2,0.8-2.9,1.2V232z"/>
					</g>
					<g class="st13">
						<path class="st17" d="M105.4,232h2.9V158c-1,0.1-1.9,0.3-2.9,0.5L105.4,232z"/>
					</g>
					<g class="st13">
						<path class="st17" d="M110.2,157.8V232h2.9v-74.2c-0.5,0-1-0.1-1.4-0.1C111.2,157.7,110.7,157.8,110.2,157.8z"/>
					</g>
					<g class="st13">
						<path class="st17" d="M115,158V232h2.9l0-73.5C117,158.3,116,158.1,115,158z"/>
					</g>
					<g class="st13">
						<path class="st17" d="M119.9,232h2.9v-71.7c-0.9-0.5-1.9-0.9-2.9-1.2V232z"/>
					</g>
					<g class="st13">
						<path class="st17" d="M124.7,232h2.9v-68.4c-0.9-0.8-1.8-1.6-2.9-2.2V232z"/>
					</g>
					<g class="st13">
						<path class="st17" d="M129.5,165.8v66.1c1.7-0.5,2.9-2,2.9-3.8v-54C132.4,171.1,131.3,168.2,129.5,165.8z"/>
					</g>
				</g>
			</g>
			<g>
				<g>
					<polygon class="st18" points="137.8,177.3 85.5,177.3 87.6,182.9 85.5,188.5 137.8,188.5 135.7,182.9 					"/>
				</g>
				<g>
					<path class="st19" d="M140.1,175.7H83.2l2.7,7.2l-2.7,7.2h56.9l-2.7-7.2L140.1,175.7z M85.5,188.5l2.1-5.6l-2.1-5.6h52.3
						l-2.1,5.6l2.1,5.6H85.5z"/>
				</g>
				<g>
					<g>
						<path class="st20" d="M94.8,183.1L94.8,183.1c-0.2,0.4-0.5,0.8-0.7,1.2c-0.3,0.4-0.5,0.7-0.7,0.9c-0.1,0.1-0.2,0.2-0.4,0.3
							c-0.2,0.1-0.3,0.1-0.4,0.1c0,0-0.1,0-0.1,0c0,0-0.1,0-0.1-0.1c-0.1-0.2-0.3-0.6-0.3-1.2c-0.1-0.6-0.1-1.4-0.1-2.3
							c0-0.7,0.1-1.2,0.2-1.5c0-0.1,0.1-0.2,0.2-0.3c0.1-0.1,0.2-0.1,0.4-0.2c0.1-0.1,0.3-0.1,0.5-0.1c0.2,0,0.3-0.1,0.4-0.1
							c0.1,0,0.1,0,0.2,0.1c0,0,0.1,0.1,0.1,0.2c0,0,0,0.1,0,0.1c-0.1,0.3-0.1,0.6-0.2,1.1c0,0.3-0.1,0.6-0.1,0.8c0,0.2,0,0.5,0,0.8
							c0,0.3,0,0.7,0,1l0,0c0.1-0.2,0.3-0.4,0.4-0.6c0.1-0.1,0.1-0.2,0.1-0.2c0-0.1,0.1-0.2,0.2-0.3c0.1-0.2,0.2-0.5,0.3-0.7
							c0.1-0.1,0.1-0.2,0.1-0.3c0.4-0.9,0.7-1.5,0.9-1.6c0.1-0.1,0.2-0.1,0.4-0.2c0.2-0.1,0.4-0.1,0.6-0.1c0.1,0,0.2,0,0.3,0.1
							c0.1,0,0.1,0.1,0.1,0.2c0,0.1,0,0.2-0.1,0.4c-0.1,0.4-0.3,0.9-0.4,1.4c-0.1,0.5-0.1,1-0.1,1.4c0,0.8,0.2,1.2,0.5,1.2
							c0.1,0,0.2-0.1,0.3-0.2c0.1-0.1,0.2-0.3,0.2-0.5c0.1-0.2,0.1-0.5,0.2-0.7c0-0.3,0.1-0.6,0.1-0.9c0-0.2,0-0.4,0-0.6
							c0-0.1,0-0.1,0-0.2c0-0.3,0.2-0.6,0.5-0.9c0.2-0.2,0.3-0.2,0.4-0.2c0.2,0,0.3,0.4,0.3,1.1c0,0.5-0.1,1-0.2,1.5
							c-0.1,0.6-0.3,1.1-0.6,1.5c-0.1,0.2-0.3,0.4-0.5,0.6c-0.2,0.2-0.4,0.4-0.5,0.5c-0.2,0.2-0.5,0.2-0.7,0.2c-0.5,0-0.8-0.2-1-0.5
							c-0.2-0.4-0.3-0.9-0.3-1.7V183.1z"/>
					</g>
					<g>
						<path class="st20" d="M101,183.7l-0.1,0.3c0,0.1,0,0.1-0.1,0.3c-0.2,0.5-0.3,0.9-0.4,1.1c0,0-0.1,0.1-0.1,0.1
							c-0.2,0.2-0.4,0.3-0.7,0.3c-0.2,0-0.4,0-0.5-0.1c-0.1-0.1-0.2-0.2-0.2-0.4c0-0.1,0-0.3,0.1-0.6c0.1-0.3,0.2-0.5,0.2-0.8
							c-0.2,0-0.3-0.1-0.3-0.3c0-0.1,0-0.2,0.1-0.4c0.1-0.1,0.2-0.2,0.3-0.4c0.1-0.1,0.2-0.2,0.3-0.2c0-0.1,0.1-0.4,0.2-0.8
							c0.3-0.8,0.5-1.4,0.7-1.7c0.1-0.1,0.1-0.2,0.2-0.2c0.1-0.1,0.3-0.2,0.6-0.2c0.1,0,0.3,0,0.4,0.1c0.1,0.1,0.2,0.1,0.3,0.2
							c0.1,0.1,0.1,0.2,0.1,0.3c0,0.2-0.2,0.8-0.6,2c0,0,0,0,0,0.1c0,0,0,0.1,0,0.1l0,0l1.6,0l0.1-0.3c0.1-0.3,0.2-0.6,0.3-0.9
							c0.1-0.3,0.2-0.5,0.2-0.7c0.1-0.2,0.1-0.3,0.2-0.5c0.1-0.1,0.1-0.2,0.2-0.3c0.1-0.2,0.4-0.2,0.6-0.2c0.4,0,0.7,0.2,0.7,0.6
							c0,0.4-0.2,1-0.6,2c-0.1,0.1-0.1,0.2-0.1,0.3c0,0,0,0,0,0c0,0,0,0,0,0c0.2,0,0.3,0,0.4,0.1c0.1,0.1,0.1,0.1,0.1,0.2
							c0,0.1,0,0.2-0.1,0.3c-0.1,0.1-0.2,0.2-0.2,0.3c-0.1,0.1-0.2,0.2-0.2,0.2c-0.1,0-0.2,0.1-0.3,0.1l0,0.1c0,0,0,0.1-0.1,0.2
							c-0.1,0.2-0.1,0.3-0.2,0.5c-0.1,0.2-0.1,0.3-0.2,0.4c0,0.1-0.1,0.2-0.1,0.2c0,0.1-0.1,0.1-0.2,0.2c-0.1,0.1-0.3,0.2-0.5,0.3
							c-0.2,0.1-0.3,0.1-0.4,0.1c-0.1,0-0.2,0-0.3-0.1c-0.1-0.1-0.1-0.2-0.1-0.3c0-0.2,0.1-0.6,0.3-1.3c0.1-0.1,0.1-0.2,0.1-0.3
							L101,183.7z"/>
					</g>
					<g>
						<path class="st20" d="M108.3,180.5L108.3,180.5c-0.3,0-0.7,0.1-1.2,0.3c-0.4,0.1-0.7,0.2-0.8,0.2c-0.1,0-0.2,0-0.2-0.1
							c-0.1-0.1-0.1-0.1-0.1-0.2c0-0.1,0.1-0.3,0.2-0.5c0.2-0.2,0.3-0.3,0.5-0.4c0.2-0.1,0.7-0.1,1.4-0.1c0.3,0,0.6,0,0.9,0
							c0.3,0,0.5,0.1,0.7,0.1c0.2,0,0.3,0.1,0.4,0.2c0,0,0,0.1,0,0.2c0,0.1,0,0.2-0.1,0.5c0,0.2-0.1,0.4-0.2,0.6
							c-0.4,1.2-0.9,2.4-1.4,3.4c-0.1,0.2-0.3,0.4-0.4,0.6c-0.1,0.1-0.3,0.2-0.4,0.3c-0.2,0.1-0.3,0.1-0.5,0.1
							c-0.3,0-0.6-0.1-0.8-0.2c-0.3-0.1-0.5-0.3-0.6-0.5c-0.1-0.2-0.2-0.4-0.2-0.6c0-0.2,0-0.3,0.1-0.5c0.1-0.2,0.1-0.3,0.2-0.4
							c0-0.1,0.1-0.1,0.1-0.1c0.1,0,0.2,0,0.3,0.1c0.1,0.1,0.2,0.2,0.3,0.5c0.1,0.3,0.3,0.6,0.5,0.8c0,0,0.1,0.1,0.1,0.1
							c0.1-0.3,0.2-0.5,0.3-0.7c0.1-0.2,0.2-0.4,0.2-0.8c0.1-0.2,0.2-0.6,0.3-1.2C108.1,181.6,108.2,181.1,108.3,180.5z"/>
					</g>
					<g>
						<path class="st20" d="M111.8,182.8c-0.2-0.2-0.4-0.5-0.5-0.7c-0.1-0.2-0.1-0.4-0.1-0.6c0-0.3,0.1-0.6,0.3-0.9
							c0.2-0.3,0.5-0.5,0.8-0.7c0.3-0.2,0.7-0.3,1.1-0.3c0.4,0,0.8,0.1,1,0.3c0.2,0.2,0.4,0.4,0.4,0.8c0,0.2,0,0.3-0.1,0.5
							c-0.1,0.2-0.2,0.3-0.4,0.5c-0.1,0.1-0.2,0.2-0.3,0.2c-0.1,0.1-0.2,0.1-0.2,0.1c-0.1,0-0.1-0.1-0.1-0.2c0,0,0,0,0-0.1
							c0-0.1,0-0.3,0-0.4c0-0.1,0-0.3-0.1-0.4c0-0.1-0.1-0.3-0.2-0.4c-0.1-0.1-0.1-0.2-0.2-0.2c0,0-0.1,0-0.1,0.1
							c-0.1,0.1-0.1,0.2-0.2,0.3c0,0.1-0.1,0.2-0.1,0.3c0,0.1,0,0.2,0.1,0.4c0,0.1,0.1,0.2,0.2,0.3c0.1,0.1,0.2,0.2,0.4,0.4
							c0.2,0.2,0.4,0.4,0.6,0.6c0.1,0.2,0.2,0.3,0.3,0.5c0.1,0.2,0.1,0.3,0.1,0.5c0,0.3-0.1,0.6-0.3,1c-0.2,0.3-0.4,0.6-0.7,0.7
							c-0.3,0.2-0.6,0.3-0.9,0.3c-0.3,0-0.6-0.1-0.8-0.2c-0.3-0.1-0.5-0.3-0.8-0.5c-0.2-0.2-0.4-0.5-0.4-0.7c0-0.1,0.1-0.2,0.2-0.3
							c0.1-0.1,0.3-0.2,0.4-0.3c0.2-0.1,0.3-0.1,0.4-0.1c0.1,0,0.1,0,0.2,0c0,0,0.1,0.1,0.1,0.2c0,0.1,0.1,0.2,0.1,0.3
							c0.1,0.2,0.1,0.3,0.1,0.4c0,0.1,0.1,0.2,0.2,0.3c0.1,0.1,0.2,0.1,0.3,0.1c0.1,0,0.2,0,0.3-0.1c0.1-0.1,0.1-0.2,0.1-0.4
							c0-0.2-0.1-0.5-0.3-0.7c-0.1-0.1-0.1-0.2-0.2-0.2c-0.1-0.1-0.2-0.2-0.4-0.4C112.1,183.1,112,183,111.8,182.8z"/>
					</g>
					<g>
						<path class="st20" d="M117.6,181.9l0.9-0.9c0.2-0.2,0.4-0.4,0.6-0.5c0.1-0.1,0.3-0.2,0.5-0.4c0.3-0.2,0.6-0.3,0.9-0.3
							c0.2,0,0.3,0.1,0.3,0.2c0,0.1,0,0.2-0.1,0.4c-0.1,0.1-0.1,0.2-0.2,0.3c-0.2,0.2-0.5,0.4-1,0.7c-0.4,0.2-0.7,0.4-0.9,0.6
							c0,0.2,0.1,0.4,0.1,0.6c0,0.2,0.1,0.3,0.1,0.4c0.1,0.1,0.1,0.3,0.2,0.5c0.1,0.2,0.2,0.4,0.3,0.6c0.3,0.4,0.6,0.7,0.9,0.8
							c0.1,0,0.1,0.1,0.1,0.1c0,0.1,0,0.1-0.1,0.2c-0.1,0.1-0.3,0.2-0.5,0.3c-0.2,0.1-0.4,0.1-0.6,0.1c-0.3,0-0.7-0.1-0.9-0.3
							c-0.3-0.2-0.5-0.4-0.6-0.8c-0.2-0.4-0.3-0.8-0.3-1.4c0-0.1,0-0.2,0-0.3h0c-0.1,0.2-0.2,0.3-0.3,0.4c-0.1,0.1-0.1,0.3-0.2,0.6
							c-0.1,0.3-0.2,0.6-0.4,0.8c-0.1,0.2-0.2,0.3-0.4,0.5c-0.1,0.1-0.3,0.2-0.4,0.3c-0.2,0.1-0.3,0.1-0.4,0.1c-0.1,0-0.1,0-0.2-0.1
							c-0.1-0.1-0.1-0.1-0.1-0.2c0-0.1,0-0.1,0-0.1c0.1-0.5,0.3-1.1,0.4-1.6c0.2-0.6,0.3-1.1,0.5-1.6c0.2-0.5,0.3-0.9,0.5-1.2
							c0.1-0.3,0.2-0.6,0.3-0.7c0.1-0.1,0.2-0.2,0.4-0.3c0.2-0.1,0.4-0.1,0.6-0.1c0.2,0,0.3,0,0.4,0.1c0.1,0,0.1,0.1,0.1,0.2
							c0,0.1-0.2,0.6-0.5,1.5c0,0.1-0.1,0.2-0.1,0.3c0,0.1-0.1,0.2-0.1,0.3l0,0L117.6,181.9z"/>
					</g>
					<g>
						<path class="st20" d="M124.3,183.6l-1.6,0v0.1c0,0.2,0.1,0.4,0.2,0.6c0.1,0.2,0.3,0.3,0.4,0.3c0.1,0,0.4-0.1,0.6-0.2
							c0.3-0.1,0.6-0.3,1-0.5l0.1-0.1c0.1-0.1,0.2-0.1,0.2-0.1c0.2-0.1,0.3-0.2,0.3-0.2c0.1,0,0.1,0,0.1,0.1c0,0.1,0,0.2-0.1,0.3
							c0,0.1-0.1,0.3-0.1,0.4c-0.1,0.1-0.1,0.2-0.2,0.3c-0.2,0.1-0.4,0.3-0.8,0.5c-0.4,0.2-0.8,0.3-1.2,0.4c-0.1,0-0.3,0-0.4,0
							c-0.4,0-0.7-0.1-1.1-0.2c-0.3-0.2-0.6-0.4-0.7-0.6c-0.2-0.3-0.3-0.6-0.3-0.9c0-0.3,0.1-0.6,0.2-0.9c0.1-0.3,0.3-0.7,0.5-1
							c0.2-0.3,0.4-0.6,0.7-0.9c0.2-0.2,0.5-0.5,0.8-0.6c0.3-0.2,0.6-0.3,0.8-0.4c0.3-0.1,0.5-0.2,0.7-0.2c0.4,0,0.7,0.1,0.9,0.3
							c0.3,0.2,0.4,0.4,0.4,0.7c0,0.1,0,0.3-0.1,0.4c0,0.1-0.1,0.3-0.2,0.4c-0.1,0.1-0.2,0.2-0.4,0.3c-0.2,0.1-0.3,0.2-0.5,0.3
							c-0.2,0.1-0.4,0.1-0.6,0.1c-0.2,0-0.3,0-0.3-0.1c0,0,0-0.1,0.1-0.2c0.1-0.1,0.2-0.2,0.3-0.4c0.1-0.2,0.2-0.4,0.2-0.6
							c0.1-0.2,0.1-0.4,0.1-0.5c0-0.1,0-0.2-0.1-0.2c-0.1,0-0.3,0.1-0.5,0.3c-0.3,0.2-0.5,0.4-0.6,0.6c-0.1,0.2-0.3,0.4-0.3,0.6
							c-0.1,0.2-0.2,0.4-0.2,0.6h2.3c0.2,0,0.4,0.1,0.4,0.2c0,0.1-0.1,0.3-0.4,0.6C124.8,183.5,124.5,183.6,124.3,183.6z"/>
					</g>
					<g>
						<path class="st20" d="M128.1,180.8l0,0.3c0,0.1,0,0.1,0,0.3c0.1,0.8,0.2,1.5,0.3,2.1c0.1,0.3,0.1,0.5,0.2,0.7
							c0.1-0.2,0.2-0.5,0.4-0.8c0-0.1,0.1-0.2,0.1-0.3c0-0.1,0.1-0.2,0.1-0.2c0,0,0-0.1,0.1-0.2c0.1-0.1,0.2-0.4,0.3-0.7
							c0.1-0.2,0.1-0.4,0.2-0.5c0-0.1,0.1-0.2,0.2-0.4c0.1-0.2,0.2-0.4,0.4-0.6c0.1-0.1,0.2-0.2,0.3-0.3c0.1-0.1,0.3-0.2,0.4-0.2
							c0.1-0.1,0.2-0.1,0.3-0.1c0.1,0,0.2,0,0.2,0.1c0,0.1,0,0.2-0.1,0.3c-0.2,0.4-0.4,0.9-0.6,1.4c-0.3,0.6-0.5,1.1-0.8,1.6
							c-0.3,0.5-0.5,1-0.7,1.3c-0.2,0.3-0.3,0.5-0.5,0.7c-0.3,0.4-0.6,0.7-0.8,1c-0.2,0.2-0.5,0.4-0.8,0.5c-0.2,0.1-0.3,0.1-0.5,0.2
							c-0.1,0-0.3,0-0.3,0c-0.1,0-0.3,0-0.3-0.1c-0.1-0.1-0.1-0.1-0.1-0.2c0-0.1,0.1-0.3,0.2-0.5c0.1-0.2,0.2-0.4,0.3-0.5
							c0.1-0.1,0.2-0.1,0.4-0.1c0.2,0,0.4,0,0.5-0.1c0.1,0,0.2-0.1,0.3-0.1c0.1,0,0.2-0.1,0.3-0.2c-0.2-0.4-0.4-0.7-0.6-1
							c-0.2-0.3-0.3-0.6-0.4-1c-0.1-0.4-0.3-0.8-0.4-1.3c-0.1-0.5-0.1-0.9-0.1-1.2c0-0.2,0-0.4,0.1-0.5c0-0.1,0.1-0.2,0.2-0.3
							c0.2-0.1,0.3-0.2,0.6-0.3c0.2-0.1,0.4-0.1,0.5-0.1c0.1,0,0.2,0,0.2,0.1c0,0.1,0.1,0.2,0.1,0.5
							C128.1,180.5,128.1,180.7,128.1,180.8z"/>
					</g>
				</g>
			</g>
			<g>
				<g>
					<path class="st20" d="M111.7,213.1L111.7,213.1c-4.1,0-7.5,3.4-7.5,7.5v11.5h15v-11.5C119.2,216.5,115.8,213.1,111.7,213.1z"/>
				</g>
				<g>
					<path d="M102.8,220.6v12.9h17.8v-12.9c0-4.9-4-8.9-8.9-8.9l0,0C106.8,211.7,102.8,215.7,102.8,220.6z M119.2,232.1h-15v-11.5
						c0-4.1,3.4-7.5,7.5-7.5l0,0c4.1,0,7.5,3.4,7.5,7.5V232.1z"/>
				</g>
				<g>
					<g>
						<path class="st16" d="M110.3,225.9l-0.3,0l0-0.1l-2.2-3l0,0l0,1.6c0,0.4,0,0.7-0.1,0.9c-0.1,0.2-0.2,0.3-0.3,0.4
							c-0.1,0.1-0.3,0.1-0.6,0.1c-0.1,0-0.2,0-0.4-0.1c-0.1-0.1-0.2-0.2-0.2-0.4c0-0.1,0-0.2,0.1-0.3c0.1-0.1,0.2-0.1,0.3-0.1
							c0.1,0,0.1,0,0.2,0c0.1,0,0.1,0.1,0.2,0.2c0.1,0.1,0.2,0.2,0.2,0.2c0.2,0,0.3-0.3,0.3-1l0-0.5l0-1.1c0-0.2,0-0.3-0.1-0.4
							c-0.1-0.1-0.1-0.2-0.2-0.2c-0.1,0-0.3-0.1-0.5-0.1l0-0.2h0.3l0.1,0l0.2,0l0.3,0c0.1,0,0.1,0,0.3,0l0.1,0c0,0,0.1,0,0.1,0
							l2.1,2.9L110,223c0-0.3,0-0.5,0.1-0.6c0-0.2,0.1-0.3,0.3-0.4c0.1-0.1,0.3-0.1,0.5-0.1c0.2,0,0.4,0,0.5,0.1
							c0.1,0.1,0.2,0.2,0.2,0.4c0,0.1,0,0.2-0.1,0.3c-0.1,0.1-0.2,0.1-0.3,0.1c-0.1,0-0.1,0-0.2,0c-0.1,0-0.1-0.1-0.2-0.2
							c-0.1-0.1-0.2-0.2-0.2-0.2c-0.1,0-0.1,0-0.2,0.1c0,0.1-0.1,0.4-0.1,0.8c0,0.2,0,0.3,0,0.4c0,0.5,0,0.8,0,1l0,0.5v0.1l0,0.2
							l0,0.2l0,0.2C110.4,225.8,110.3,225.9,110.3,225.9z M112.1,224.9c-0.3,0-0.6-0.1-0.8-0.3c-0.2-0.2-0.3-0.4-0.3-0.7
							c0-0.3,0.1-0.5,0.3-0.7c0.2-0.2,0.5-0.3,0.8-0.3c0.3,0,0.6,0.1,0.8,0.3c0.2,0.2,0.3,0.4,0.3,0.6c0,0.3-0.1,0.6-0.3,0.8
							C112.7,224.8,112.4,224.9,112.1,224.9z M111.3,225.3c0,0,1.6,0,1.6,0c0,0.1,0,0.4,0,0.4c0,0,0,0.1,0,0.1l-1.6,0l0-0.1
							C111.3,225.7,111.3,225.3,111.3,225.3C111.3,225.3,111.3,225.3,111.3,225.3z M112.1,223.2c-0.1,0-0.2,0-0.3,0.1
							c-0.1,0.1-0.1,0.3-0.1,0.7c0,0.5,0.1,0.7,0.4,0.7c0.3,0,0.4-0.3,0.4-0.8C112.5,223.4,112.4,223.2,112.1,223.2z"/>
					</g>
					<g>
						<path class="st16" d="M116.7,220.5c0,0,0.7,0,0.7,0c0,0.1,0,4.7,0,4.7c0,0.1,0,0.1,0.1,0.2c0,0,0.1,0.1,0.3,0.1
							c0.1,0,0.2,0,0.4,0.1c0,0,0,0.1,0,0.1c0,0,0,0.1,0,0.2c0,0-2.4,0-2.5,0c0-0.1,0-0.1,0-0.1c0,0,0-0.1,0-0.1
							c0.1,0,0.2-0.1,0.4-0.1c0.2,0,0.3-0.1,0.4-0.1c0,0,0.1-0.1,0.1-0.2c0,0,0-3.7,0-3.8c-0.2,0.1-0.4,0.3-0.7,0.4
							c0,0-0.1,0.1-0.4,0.2c-0.1-0.1-0.1-0.2-0.2-0.3c0.3-0.1,0.5-0.3,0.6-0.3c0.2-0.1,0.4-0.3,0.5-0.4
							C116.4,220.8,116.5,220.7,116.7,220.5z"/>
					</g>
				</g>
			</g>
			<g>
				<g>
					<polygon class="st20" points="112.3,204.1 111.7,202.8 111,204.1 109.5,204.3 110.6,205.4 110.3,206.8 111.7,206.1 113,206.8 
						112.7,205.4 113.8,204.3 					"/>
				</g>
				<g>
					<polygon class="st20" points="122,204.3 120.5,204.1 119.8,202.8 119.2,204.1 117.7,204.3 118.8,205.4 118.5,206.8 
						119.8,206.1 121.2,206.8 120.9,205.4 					"/>
				</g>
				<g>
					<polygon class="st20" points="104.1,204.1 103.4,202.8 102.8,204.1 101.3,204.3 102.4,205.4 102.1,206.8 103.4,206.1 
						104.8,206.8 104.5,205.4 105.6,204.3 					"/>
				</g>
			</g>
		</g>
		<g class="st9">
			<g>
				<path class="st21" d="M108.1,99.5c-1.5-8.6-1.7-17.3-0.7-26c0.2-1.4,0.4-3-0.3-4.3c-0.7-1.3-2.6-2-3.6-0.9l-0.6-0.3
					c-2.7,8.1-4.8,16.4-6.3,24.8c-0.5,2.8-0.9,6,0.7,8.4c1.7,2.6,5.3,3.3,8.4,2.7c0.7-0.1,1.5-0.4,1.9-0.9
					C108.5,102.2,108.4,100.7,108.1,99.5z"/>
			</g>
		</g>
		<g class="st9">
			<g>
				<path class="st20" d="M105.9,70.5c-0.3-0.5-0.9-0.7-1.4-0.4c-0.2,0.1-0.3,0.2-0.4,0.4l0-0.2c0,0.1,0,0.1-0.1,0.2
					c-0.1,0.2-0.2,0.4-0.2,0.6c-2.1,6.3-3.8,12.7-5,19.3c-0.2,1.1-0.4,2.3-0.2,3.4c0.2,1.1,0.8,2.2,1.9,2.7c0.5,0.2,1,0.2,1.4-0.1
					c0.4-0.3,0.5-0.8,0.6-1.3c1.2-7.6,2.4-15.3,3.6-22.9C106.1,71.5,106.2,70.9,105.9,70.5z"/>
			</g>
		</g>
		<g class="st22">
			<g>
				<path class="st14" d="M143.3,136.5c-4.2-4.9-9.6-8.6-14.5-12.8c-1.2-1-2.5-2.2-3.3-3.5c-2.6-4.3-0.5-9.8,1.6-14.4
					c-4.1,3.8-9.1,6.7-14.6,7.6c-5.5,0.9-11.4-0.2-15.9-3.5l0.5,0.4c2.8,2.9,1.4,7.9-1.4,10.7c-0.2,0.2-0.5,0.5-0.5,0.9
					c0,0.6,0.6,1,1.2,1.2c4,1.4,8.4,2,12.6,1.7c2.5-0.2,5.1-0.7,7.6-0.6c3.3,0.1,6.5,1.3,9.6,2.6c5.8,2.5,11.5,5.6,15.9,10.3
					c4.4,4.6,7.3,10.9,6.8,17.2C150.3,148.1,147.4,141.5,143.3,136.5z"/>
			</g>
		</g>
		<g class="st9">
			<g>
				<path class="st20" d="M122.9,147.4c-3.9-3.1-8.5-5-12.8-7.5c-4.3-2.5-8.3-5.9-9.9-10.6c-0.7-2.1-1.1-4.7-3.2-5.5
					c-2.3-0.9-4.6,1.2-6.1,3.2c-5.4,3.7-10.3,8.2-14.4,13.2c-1,1.3-2.1,2.8-1.8,4.4c0.4,1.9,2.4,2.9,4.2,3.5c13.4,4.7,28,3.9,42.2,3
					c1.3-0.1,2.9-0.5,3-1.8C124.1,148.5,123.5,147.9,122.9,147.4z"/>
			</g>
		</g>
		<g class="st23">
			<g>
				<path class="st14" d="M99,246.1c-5.1-1-9.1-5.2-11.2-9.9c-2.1-4.8-2.6-10.1-2.9-15.2c-0.8-12.2-1-24.4-0.7-36.6
					c0.4-13.1,1.5-26.7,8.2-37.9c1.4-2.4,3.2-5,2.5-7.7c-0.6-2.5-3.3-4.1-5.9-4.3c-2.6-0.1-5.1,0.9-7.4,2.2
					c-2.7,1.5-3.8,4.2-3.8,4.2c-2.9,3.3-4.1,8-4.6,12.5c-1.3,11.3,0.6,22.6,1.3,33.9c0.8,11.1,0.5,22.3,0,33.5
					c-0.2,4.9-0.5,9.8-0.2,14.7c0.1,1.7,0.3,3.5,1.2,5c1.5,2.6,4.5,3.8,7.3,4.8c6.8,2.5,14.2,5,21.2,3.2
					C103.2,246.6,100.9,246.5,99,246.1z"/>
			</g>
		</g>
		<g class="st24">
			<g>
				<path class="st20" d="M95.7,127.4c-1.1-0.5-2.5,0-3.5,0.7c-1.5,1-2.8,2.2-3.9,3.6c-2.9,2.8-5.1,6.2-6.4,9.9
					c-0.3,0.9-0.6,1.8-0.5,2.7c0.1,0.9,0.5,1.8,1.4,2.2c1,0.5,2.2,0,3.2-0.6c4.7-2.7,7.6-7.7,10.1-12.4c0.5-1,1.1-2.1,1.2-3.2
					C97.2,129.1,96.8,127.8,95.7,127.4z"/>
			</g>
		</g>
		<g>
			<g class="st9">
				<g>
					<path class="st21" d="M76.9,153C76.9,153,76.9,153,76.9,153c0.1-0.3,0.2-0.6,0.3-0.8L76.9,153z"/>
				</g>
			</g>
			<g class="st9">
				<g>
					<path class="st21" d="M83,153c-1.1-2.1-4.4-1.7-6,0c-1.9,5.4-1.3,11.3-0.8,17c1.8,18.2,2.9,36.4,3.4,54.7
						c0.8-0.6,0.9-1.8,1-2.8c1.2-21.6-3.7-43.9,2.3-64.7C83.2,155.8,83.7,154.2,83,153z"/>
				</g>
			</g>
		</g>
		<g class="st22">
			<g class="st22">
				<g>
					<path class="st14" d="M124.8,109.8l1.8-2.6C125.7,107.9,125.2,108.8,124.8,109.8z"/>
				</g>
			</g>
			<g class="st22">
				<g>
					<path class="st14" d="M149.1,154.5c0-2.7,0-5.4-0.6-8.1c-2.3-9.7-12.1-15.3-19-22.5c-2.2-2.3-4.2-4.9-5-7.9
						c-0.5-2-0.5-4.3,0.3-6.2l-0.4,0.6c-1.1,2.3-4,2.9-6.5,3.3c-2.9,0.5-5.9,0.9-8.8,1.4c9.4,2.9,16.1,11.2,21.6,19.4
						c1.4,2.1,2.8,4.3,3.3,6.8c0.4,2.5-0.3,5.4-2.4,6.8c-1.4,1-3.6,1.4-3.9,3.1c3.8,0.6,6.7,3.9,8.1,7.4c1.4,3.6,1.5,7.5,1.6,11.3
						c0.3,12.6,0.6,25.1,0.9,37.7c0.2,7.3,0.3,14.6-0.6,21.8c-0.5,3.9-1.4,7.9-3.9,11c-2.9,3.6-7.6,5.3-12.1,6.3
						c-4.5,0.9-9.2,1.3-13.6,2.9c12.8,1.7,26-0.8,37.4-6.8c1-0.6,2.1-1.2,2.7-2.2c0.6-1,0.6-2.2,0.7-3.4
						C149.2,209.5,149.2,182,149.1,154.5z"/>
				</g>
			</g>
		</g>
		<g>
			<g class="st13">
				<g>
					<path class="st17" d="M137.7,143.2c0.1,2.9-1.4,5.8-3.8,7.5c2.5,0.4,5.1,0.4,7.7-0.1c1-0.2,2.1-0.5,2.8-1.2
						c1.6-1.5,1.1-4.2,0.2-6.3c-3.6-8.2-11.3-13.7-17.6-20c-2.8-2.8-5.5-6.8-3.8-10.4l-0.2-0.2c-1.4-0.1-2.9,0.1-4.3,0.6
						c-0.6,0.2-1.2,0.6-1.1,1.2c0.1,0.4,0.5,0.7,0.8,0.9c5.2,3.4,7.3,9.8,11.1,14.7C132.7,134.2,137.5,137.9,137.7,143.2z"/>
				</g>
			</g>
			<g class="st13">
				<g>
					<path class="st17" d="M145.9,152.4c-2.4,0.4-4.9,0.7-7.3,1.1c-0.4,0.1-0.8,0.1-0.9,0.4c-0.2,0.4,0,0.9,0.3,1.3
						c2.4,4,2.5,8.9,2.5,13.5c0.4,18.7,2.7,37.3,1.8,55.9c-0.3,5-0.8,10.3-3.7,14.5c-2.8,4.1-7.5,6.5-12,8.8
						c4.7-0.2,9.3-1.3,13.6-3.2c1.6-0.7,3.2-1.6,4.1-3.1c0.8-1.2,0.9-2.7,1-4.2c0.3-3.5,0.3-7.1,0.3-10.6
						c0.2-24.9,0.4-49.7,0.7-74.6L145.9,152.4z"/>
				</g>
			</g>
		</g>
		<g>
			<path class="st18" d="M144.2,145.2c0.3,1.1,0.7,2.2,1,3.3C144.9,147.4,144.6,146.3,144.2,145.2z"/>
		</g>
		<g>
			<g class="st22">
				<g>
					<path class="st14" d="M126.2,95.7C126.2,95.7,126.2,95.7,126.2,95.7c0.2,0,0.3,0,0.4,0L126.2,95.7z"/>
				</g>
			</g>
			<g class="st22">
				<g>
					<path class="st14" d="M126.2,95.7c-1.5,0-3,0.2-4.4,0.8c2.7,1.3,4.2,4.7,3.4,7.6C127.7,102.1,128.2,98.2,126.2,95.7z"/>
				</g>
			</g>
		</g>
		<g class="st22">
			<g>
				<path class="st16" d="M144.2,145.2c-0.7-2.1-1.4-4.2-2.4-6.2c-0.8-1.7-1.7-3.3-2.9-4.7c-2-2.4-4.6-4.3-6.9-6.4
					c-4.3-4.1-7.3-9.4-8.6-15.1l-0.3,0.5c-1.5,0.4-2.9,1-4.2,1.6c3.3,4.7,7,9.2,11.1,13.2C135.3,133.3,141.6,138.5,144.2,145.2z"/>
			</g>
			<g>
				<path class="st16" d="M147.8,155.6c1-4.3,0.4-9.1-1.9-13c1,2.2,1.6,4.6,1.6,7c0,1-0.1,2.1-0.6,3c-0.5,0.9-1.5,1.6-2.5,1.3
					c2.1,2.5,2.1,6.1,1.9,9.4c-0.6,9-1.1,18.1-0.8,27.1c0.3,10.9,1.8,21.9-0.5,32.6c-0.2,1-0.5,2.1-0.5,3.1c0,1.6,0.3,3.8-1.2,4.2
					c-0.5,0.1-1.1,0-1.4,0.4c-0.4,0.5,0,1.3,0.5,1.6c0.6,0.3,1.2,0.3,1.8,0.5c1.6,0.7,1.9,3,1,4.5c-0.9,1.5-2.5,2.4-4,3.2
					c-2.8,1.5-5.7,3-8.5,4.5c2.9,0.2,5.8-1,8.5-2.2c1.9-0.8,4-1.8,4.9-3.7c0.5-1,0.5-2.1,0.6-3.2c0.5-9.7,0.9-19.3,1.2-29
					c0.5-17.8,0.8-35.6,1.6-53.3L147.8,155.6z"/>
			</g>
		</g>
		<g class="st13">
			<g>
				<path class="st14" d="M89.8,241.8c-3.6-1.9-6.3-5.2-8.1-8.8c-1.8-3.6-4.4-17.3-5.3-21.2c0.1,5.1,0.2,15.2,0.4,18.6
					c0,0,0.1,1.6,0.2,4.6c0.1,1.3,0.1,2.6,0.8,3.8c0.7,1.2,1.8,2,3,2.7c4.7,2.6,10,3.7,15.3,4.5c2.3,0.3,4.7,0.5,6.8-0.5
					C98.5,244,93.8,243.8,89.8,241.8z"/>
			</g>
		</g>
		<g>
			<g>
				<path class="st20" d="M96,105.3c1,2.6,3,4.8,5.5,5.9c2.6,1.1,5.7,0.8,7.9-0.9c-1.3-0.7-2.9-0.5-4.3-0.8
					c-3.7-0.8-6.1-4.7-6.2-8.5c0-1,0.1-2.1-0.3-3.1c-0.4-1-1.4-1.8-2.4-1.5c-0.5,0.1-0.8,0.5-1,1C94.9,100.1,95,102.8,96,105.3z"/>
			</g>
			<g>
				<path class="st20" d="M95.2,97.5c-0.2,0.4-0.3,1-0.3,1.5L95.2,97.5z"/>
			</g>
			<g>
				<path class="st20" d="M95.3,97.1l-0.1,0.4c0,0,0-0.1,0-0.1C95.3,97.3,95.3,97.2,95.3,97.1z"/>
			</g>
			<g>
				<path class="st20" d="M85.5,142c0.3-0.1,0.4-0.3,0.6-0.5c3.7-5.2,7.3-10.5,11-15.7c0.4-0.6,0.9-1.5,0.3-2.1
					c-0.6-0.6-1.6,0-2.2,0.6c-2.5,2.5-4.8,5.2-6.9,8.1l0.8-0.7c-1.3,1.7-2.4,3.5-3.5,5.3c-0.8,1.3-1.7,3-1,4.4
					C84.8,141.7,85.2,142,85.5,142z"/>
			</g>
			<g>
				<path class="st20" d="M81.7,146.9c-2.5-1.4-4.5-4.3-3.7-7.1c-0.7,0.2-1.1,0.8-1.3,1.4c-0.6,1.3-0.4,2.9,0.3,4.1
					c0.9,1.6,2.6,2.7,4.3,3.4c3.8,1.7,8.1,2,12.3,1.9c3.4,0,6.9-0.3,10.3-0.7c0.6-0.1,1.4-0.2,1.7-0.8c-5.2-0.2-10.4-0.4-15.5-0.6
					C87.3,148.4,84.3,148.3,81.7,146.9z"/>
			</g>
			<g>
				<path class="st20" d="M78.9,204.6c-0.6-10.7-2.3-21.5-1.1-32.2c0.5-4.9,1.7-9.7,2.2-14.6c0.1-0.9,0.2-1.9-0.3-2.7
					c-0.4-0.8-1.5-1.3-2.3-0.8l1.5-0.8c-1.1-0.2-2.2,0.6-2.7,1.6s-0.5,2.2-0.6,3.3c-0.4,19.3,0.5,38.5,2.5,57.7
					C79.2,212.3,79.1,208.4,78.9,204.6z"/>
			</g>
			<g>
				<path class="st20" d="M77.6,230.6c-0.3,1.2-0.3,3-0.3,3c-0.2,2.2,0.6,4.4,2,6.1c1.9,2.2,4.7,3.4,7.5,3.7
					C82.6,240.2,79.3,235.7,77.6,230.6z"/>
			</g>
		</g>
		<g class="st11">
			<g>
				<path class="st16" d="M131.5,241.4c-0.7-0.2-1.5,0-2.3,0.2c-8.7,2.3-18.2,0.4-26.8,3.2l0.9,0.1c9.2,1.3,18.7,1,27.7-1.1
					c0.5-0.1,1-0.3,1.3-0.7C132.8,242.5,132.3,241.6,131.5,241.4z"/>
			</g>
		</g>
	</g>
	<g>
		<g>
			<path class="st2" d="M161.8,170v72.3c0,2.5,3.3,3.5,7.6,3.7c6.5,0.4,6.9,6.7,9.5,6.9c22.2,1.6,22.6-3.9,29.7-4.1
				c3-0.1,8.5,2.3,8.5,2.3c8.7-1.4,12.1-7.4,12.1-8.2c0-0.1,0-0.1,0-0.2V170H161.8z"/>
		</g>
		<g>
			<path class="st25" d="M163.8,170.5l1.3,54.3c0,4.5,13.6,8.2,30.4,8.2c16.8,0,30.4-3.7,30.4-8.2l1.3-54.3H163.8z"/>
		</g>
		<g>
			<path class="st25" d="M195.5,164.2c-20.9,0-31.7,4.4-31.7,6.2c0,1.9,10.8,6.2,31.7,6.2c20.9,0,31.7-4.4,31.7-6.2
				C227.2,168.6,216.4,164.2,195.5,164.2z"/>
		</g>
		<g>
			<path class="st26" d="M165.1,197.5v27.3c0,4.5,13.6,8.2,30.4,8.2c16.8,0,30.4-3.7,30.4-8.2v-27.3L165.1,197.5z"/>
		</g>
		<g>
			<path class="st27" d="M195.5,191.3c-20,0-30.4,4.4-30.4,6.2s10.3,6.2,30.4,6.2c20,0,30.4-4.4,30.4-6.2
				C225.9,195.6,215.5,191.3,195.5,191.3z"/>
		</g>
		<g>
			<path class="st2" d="M195.5,162.2c-18.6,0-33.7,3.7-33.7,8.2c0,4.5,15.1,8.2,33.7,8.2c18.6,0,33.7-3.7,33.7-8.2
				C229.2,165.9,214.1,162.2,195.5,162.2z M195.5,176.7c-20.9,0-31.7-4.4-31.7-6.2c0-1.9,10.8-6.2,31.7-6.2
				c20.9,0,31.7,4.4,31.7,6.2C227.2,172.3,216.4,176.7,195.5,176.7z"/>
		</g>
		<g>
			<g class="st9">
				<g>
					<path class="st28" d="M225.4,228.5c0,0.1,0,0.1,0,0.2c0,0,0.1,0,0.1,0L225.4,228.5z"/>
				</g>
			</g>
		</g>
		<g>
			<g class="st13">
				<path class="st14" d="M185.5,163.3c-7.1,0.2-14.9,1.3-21.2,4.7c-0.5,0.3-0.1,1.1,0.4,0.8c6.1-3.4,13.9-4.4,20.7-4.6
					C186,164.2,186,163.3,185.5,163.3z"/>
			</g>
			<g>
				<path class="st20" d="M188.9,176.9c-7.1-0.6-15.2-1.2-21.8-4.1c-0.5-0.2-1,0.5-0.5,0.8c6.8,3,15,3.7,22.3,4.2
					C189.4,177.9,189.5,177,188.9,176.9z"/>
			</g>
			<g>
				<path class="st20" d="M209,176.1c-3.8,0.4-7.5,0.7-11.3,0.8c-0.6,0-0.6,0.9,0,0.9c3.8-0.2,7.5-0.4,11.3-0.8
					C209.5,177,209.5,176.1,209,176.1z"/>
			</g>
		</g>
		<g>
			<g class="st24">
				<g>
					<path class="st14" d="M216.6,203.5c-0.6-0.3-1.3-0.7-1.4-1.4c0-0.3,0-0.6,0.1-0.9c1.1-4,1.7-7.9,2.8-11.9l-8.7,9.4
						c-0.4,1.7-0.9,4.4-1.3,6.1c-0.1,0.4-0.2,1,0.2,1.3c0.2,0.2,0.5,0.2,0.7,0.3c0.4,0.2,0.5,0.8,0.5,1.2c0.1,1.3,0,2.7-0.2,4
						c0,0.3-0.1,0.6,0,0.8c0.1,0.3-0.1,1.5,0.2,1.4c0.1,0,1-0.9,1.1-1c2.3-2.3,4.3-4.9,6.6-7.2c0.2-0.2,0.4-0.4,0.5-0.7
						C217.9,204.4,217.2,203.8,216.6,203.5z"/>
				</g>
			</g>
			<g class="st29">
				<g>
					<path class="st14" d="M209.7,213.4c-0.2-2,0.2-3.7,0-5.7c0-0.4,0-0.6-0.3-0.9c-0.2-0.2-0.7-0.4-1-0.6c-0.5-0.5-0.5-0.7-0.3-1.4
						c0.3-1.5,0.9-3.6,1.3-5.1c0.1-0.2,0.3-0.7,0.2-0.9c-0.1-0.2-1.1-0.3-1.3-0.3c-4.2-2-8.5-4-12.7-6c-0.2-0.1-0.8-0.5-0.8-0.5
						c-0.8,2-0.1,4.6,0.1,6.7c0.1,1.6,0,3.3-0.3,4.9c-0.2,0.9-0.4,1.8-0.2,2.8c0.3,1.4,1.6,2.4,2.9,2.8c1.3,0.5,2.7,0.6,4.1,1
						c2.6,0.7,4.9,2.3,7.3,3.6c0.4,0.2,0.9,0.3,1.1,0C209.7,213.7,209.7,213.6,209.7,213.4z"/>
				</g>
			</g>
			<g>
				<path class="st2" d="M217,188.5c-3.3-0.5-6-2.5-8.9-4.1c-0.8-0.4-1.8-0.8-2.7-1c0,0-0.6-0.1-1,0c-0.4,0.1-0.7,0.2-1,0.4
					c0,0-0.5,0.8-0.9,1.3c-1.9,2.4-4.3,4.5-6.9,6.1c-0.5,0.3-1,0.8-0.7,1.2c0.1,0.2,0.3,0.3,0.5,0.3c4.4,2.1,8.9,4.1,13.4,5.9
					c0.3,0.1,0.7,0.3,1,0.2c0.4-0.1,0.7-0.4,0.9-0.7c2.4-2.8,4.8-5.6,7.3-8.4c0.1-0.1,0.2-0.3,0.3-0.5
					C218.2,188.9,217.5,188.6,217,188.5z"/>
			</g>
			<g>
				<g>
					<path class="st20" d="M200.2,193.3l-0.3,0.4C200,193.5,200.1,193.4,200.2,193.3C200.2,193.3,200.2,193.3,200.2,193.3z"/>
				</g>
				<g>
					<path class="st20" d="M200.2,193.3l0.2-0.3C200.2,192.9,200.2,193.1,200.2,193.3z"/>
				</g>
				<g>
					<path class="st20" d="M210.8,193.6c-1.2-0.6-2.4-1.1-3.6-1.7c-0.5-0.2-1-0.5-1.6-0.6c-0.9-0.1-1.7,0.1-2.6,0.3
						c-1.1,0.3-2.2,0.8-2.9,1.6c0,0,0,0.1,0,0.1c0.1,0.2,0.3,0.3,0.5,0.4c2,0.9,4.3,1.3,6.1,2.5c0.5,0.4,1.1,0.9,1.7,0.7
						c0.3-0.1,0.6-0.3,0.8-0.5c0.6-0.5,1.3-1,1.9-1.5c0.1-0.1,0.3-0.2,0.3-0.4C211.8,194.3,211.3,193.9,210.8,193.6z"/>
				</g>
			</g>
			<g>
				<g>
					<path class="st30" d="M199.3,189.2C199.3,189.2,199.3,189.2,199.3,189.2c0.2-0.1,0.2-0.1,0.3-0.2L199.3,189.2z"/>
				</g>
				<g>
					<path class="st30" d="M201.6,189.6c-0.1-0.1-0.2-0.2-0.3-0.3c-0.6-0.3-1.3-0.3-1.9-0.1c-0.9,0.6-1.9,1.2-2.8,1.7
						c-0.2,0.1-0.3,0.2-0.4,0.3c-0.1,0.1-0.2,0.3-0.1,0.5c0,0.1,0.1,0.2,0.2,0.3c0.3,0.2,0.6,0.5,1,0.4c0.2,0,0.4-0.1,0.6-0.2
						c1.1-0.7,2.3-1.4,3.4-2C201.4,190.1,201.7,189.9,201.6,189.6z"/>
				</g>
			</g>
			<g>
				<path class="st20" d="M207.6,185.3c-0.2-0.2-0.4-0.3-0.6-0.3c-0.8-0.3-2.2-0.9-2.2-0.9c-0.3-0.1-0.6,0.2-0.8,0.5
					c-0.5,0.8-1.1,1.6-1.6,2.5c-0.1,0.2-0.2,0.4-0.1,0.6c0.1,0.1,0.2,0.1,0.3,0.2c0.5,0.1,1,0.3,1.4,0.2c0.8-0.1,1.3-0.7,2-1.2
					c0.4-0.2,0.8-0.4,1.2-0.5c0.2-0.1,0.5-0.1,0.6-0.3C207.9,185.7,207.8,185.4,207.6,185.3z"/>
			</g>
			<g>
				<path class="st20" d="M216.9,189.4c-2.2-0.7-4.4-1.4-6.6-2.1c0,0-2.1,0.5-3.3,0.9c-0.2,0.1-0.5,0.3-0.3,0.5
					c0,0.1,0.1,0.1,0.2,0.2c2.2,1,4.3,2.2,6.2,3.6c0.4,0.2,0.9,0.5,1.2,0.2c0.2-0.2,0.1-0.6-0.1-0.9c-0.2-0.2-0.5-0.3-0.8-0.4
					c-1.1-0.3-2.2-0.8-2.8-1.7c-0.1-0.1-0.1-0.2-0.1-0.4c0.1-0.2,0.4-0.3,0.6-0.2c0.7,0.1,1.3,0.3,1.9,0.5c0.7,0.3,1.4,0.7,2.1,0.9
					c0.8,0.1,1.7-0.2,1.9-0.9c0,0,0-0.1,0-0.1C217,189.5,216.9,189.5,216.9,189.4z"/>
			</g>
			<g>
				<g class="st11">
					<g>
						<path class="st31" d="M212.1,202.4c0.2-0.3,0.2-0.7,0.3-1c0.4-1.9,0.9-3.7,1.6-5.5c-1,1-2,1.9-3,2.8c-1.3,2-2,4.4-2,6.8
							c0.8-0.7,1.6-1.5,2.4-2.2C211.6,203.1,211.9,202.8,212.1,202.4z"/>
					</g>
				</g>
				<g class="st11">
					<g>
						<path class="st31" d="M216.4,192.2c-0.5,0.6-1,1.2-1.3,2c-0.2,0.5-0.3,1.1-0.3,1.6c-0.3,2.4-0.5,4.7-0.8,7.1
							c0.9-3.6,1.9-7.2,2.8-10.8C216.6,192.2,216.4,192.2,216.4,192.2z"/>
					</g>
				</g>
				<g class="st11">
					<g>
						<path class="st31" d="M215.5,203.9c-1-0.3-3.4,0.3-4.2,1.4c-0.3,0.4-0.7,0.6-0.9,1c0,0.1-0.1,0.1-0.1,0.2
							c0,0.1,0.2,0.2,0.3,0.2c0.1,0,0.3-0.1,0.4-0.2c0.9-0.6,1.8-1.1,2.8-1.6c0.4-0.2,1.1-0.3,1.3,0.1c0.1,0.2,0.1,0.5-0.1,0.8
							c-0.1,0.2-0.4,0.4-0.6,0.5c-0.9,0.6-1.8,1.2-2.6,1.8c-0.2,0.2-0.5,0.3-0.6,0.6c-0.1,0.2-0.2,0.5-0.2,0.7
							c-0.1,0.8-0.2,1.7-0.3,2.5c0,0.2,0,0.5,0.2,0.6c0.2,0.1,0.4-0.1,0.5-0.3c1.1-1.4,2-2.9,3.2-4.2c0.6-0.6,1.2-1.2,1.5-2
							C216.4,205.3,216.2,204.2,215.5,203.9z"/>
					</g>
				</g>
			</g>
			<g class="st9">
				<g>
					<path class="st3" d="M198.6,195.3c-0.7-0.7-1.6-1.2-2.5-1.5c-0.3-0.1-0.7-0.1-1,0c-0.1,0.1-0.2,0.2-0.3,0.3l0,0l0,0.2
						c0,0.4,0.2,0.8,0.4,1.2c0.5,1.1,0.8,2.2,1.1,3.4c0.1,0.3,0.2,0.7,0.5,0.6c0.1,0,0.2-0.1,0.3-0.2c0.3-0.3,0.5-0.7,0.7-1.1
						c0.3-0.6,0.7-1.2,1-1.7c0.1-0.2,0.2-0.4,0.2-0.6C198.9,195.7,198.7,195.4,198.6,195.3z"/>
				</g>
			</g>
			<g>
				<g class="st32">
					<g>
						<path class="st33" d="M199.2,199.6c0.2-1.3,0.4-2.6,0.7-3.9l-1.8,4.7c0.4-0.1,0.8-0.1,1.2,0c0,0-0.1,0-0.1-0.1
							C199.2,200.2,199.2,199.9,199.2,199.6z"/>
					</g>
				</g>
				<g class="st9">
					<g>
						<path class="st34" d="M208.3,200.4c-0.1-0.1-0.2-0.1-0.4-0.1c-1-0.1-2.1-0.2-2.9,0.4c-0.4,0.4-0.7,0.9-1.3,1.1
							c-1,0.3-1.8-0.8-2.8-0.9c-0.3,0-0.6,0-0.9-0.1c0.2,0.1,0.3,0.2,0.4,0.4c0.3,0.5,0.5,1.1,0.7,1.6c0.8,1.7,2.9,2.3,4.7,2.8
							c0.3,0.1,0.6,0.1,0.8,0c0.3-0.1,0.4-0.5,0.5-0.8c0.4-1.3,0.8-2.6,1.1-3.9C208.3,200.7,208.4,200.5,208.3,200.4z"/>
					</g>
				</g>
			</g>
			<g>
				<path class="st20" d="M200.7,203.5c-0.3-0.4-0.7-0.5-1.1-0.7c-0.9-0.4-1.8-0.8-2.6-1.4c-0.2-0.1-0.3-0.2-0.5-0.3
					c-0.4,0-0.7,0.3-0.8,0.7c-0.1,0.4,0.1,0.8,0.2,1.1c0,0-0.2,0,0.4,0.3c0.6,0.4,1.3,0.5,2,0.5c0.7,0.1,1.4,0.1,2.1,0.2
					c0.1,0,0.1,0,0.2,0C200.9,204,200.9,203.7,200.7,203.5z"/>
			</g>
			<g>
				<path class="st20" d="M208.7,207.9c-0.1-0.2-0.4-0.2-0.6-0.2c-3.7,0-7.2-1.5-10.4-3.2c-0.4-0.2-0.9-0.4-1.3-0.3
					c-0.6,0.2-0.8,1-0.9,1.6c0,0,0,1.4,0.8,1.9c0.4,0.2,0.8,0.2,1.3,0.3c0.9,0.1,1.8,0.2,2.7,0.4c0.8,0.2,1.6,0.4,2.3,0.7
					c1.8,0.9,3.1,2.9,5,3.4c0.1,0,0.3,0.1,0.5,0c0.4-0.1,0.5-0.6,0.6-0.9c0.1-1.1,0.2-2.2,0.2-3.4
					C208.8,208.1,208.8,208,208.7,207.9z"/>
			</g>
			<g>
				<path class="st20" d="M207.7,209.6c-0.2-0.6-0.8-0.9-1.4-1.1c-0.6-0.2-1.2-0.2-1.8-0.4c-1.6-0.4-3-1.6-4.7-1.7l0.5,0.7
					c2.1,0.4,3.6,1.9,5.2,3.4c0.5,0.4,1.1,0.9,1.7,0.7C207.7,210.9,207.9,210.1,207.7,209.6z"/>
			</g>
			<g class="st11">
				<g>
					<path class="st31" d="M204.5,189.1c-0.2-0.4,0.2-0.9,0.6-1.2c0.9-0.8,1.9-1.5,2.8-2.3c-1.3,0.8-2.6,1.6-3.9,2.2
						c-0.3,0.1-0.5,0.3-0.8,0.3c-0.3,0-0.6-0.1-0.8-0.3c-0.2-0.3-0.1-0.8,0.1-1.2c0.4-0.9,0.8-1.7,1.1-2.6c-0.7,1.3-1.5,2.5-2.2,3.8
						c-0.1,0.2-0.3,0.5-0.2,0.8c0.1,0.3,0.5,0.4,0.8,0.5c0.3,0.1,0.6,0.4,0.5,0.7c-0.1,0.1-0.2,0.2-0.3,0.3c-1.3,0.8-2.7,1.7-4,2.5
						l0.1,0.3c1.5-0.6,2.9-1.3,4.4-1.9c0.5-0.2,1-0.4,1.5-0.5c0.6-0.1,1.2,0,1.7-0.2c-0.4-0.3-0.7-0.6-1.1-0.9
						C204.7,189.3,204.6,189.2,204.5,189.1z"/>
				</g>
			</g>
			<g>
				<g class="st11">
					<g>
						<path class="st31" d="M196.4,201c-0.5-2-1-4-1.4-6.1c0-0.1-0.1-0.3-0.1-0.4l0,0.1c0.5,2,0.7,4.1,0.6,6.1c0,0.2,0,0.5,0.3,0.6
							c0.1,0,0.2,0,0.3,0c0.6-0.2,1.2-0.2,1.8,0c0.1,0,0.1,0,0.2,0c0,0,0-0.1,0-0.1c0.2-1.5,0.5-2.9,0.7-4.4
							C197.9,198.2,197.1,199.6,196.4,201z"/>
					</g>
				</g>
			</g>
			<g>
				<g class="st35">
					<g>
						<path class="st31" d="M204.3,198c-0.7-0.3-1.3-0.8-2.1-0.9c-0.3,0-0.6-0.1-0.8-0.2c0.4,0.4,0.9,0.8,1.3,1.3
							c0.4,0.4,0.7,0.9,0.8,1.4c0.1,0.4-0.1,0.9,0,1.3c0,0.1,0,0.1,0.1,0.2c0.1,0.1,0.2,0,0.3,0c0.7-0.4,1.2-1.2,1.9-1.5
							c0.6-0.3,1.4-0.3,2.1-0.2l0.3-0.2C206.8,198.8,205.5,198.5,204.3,198z"/>
					</g>
				</g>
			</g>
			<g>
				<g class="st32">
					<g>
						<path class="st33" d="M209.7,199.7c0.3-0.6,0.9-1.1,1.4-1.6c0.6-0.5,1.1-1.2,1.6-1.8c1.4-1.8,2.9-3.5,4.3-5.3
							c-2.2,2.4-4.4,4.7-6.5,7.1c-0.2,0.2-0.4,0.4-0.5,0.7c-0.1,0.2-0.2,0.5-0.2,0.7c-0.2,0.9-0.5,1.9-0.7,2.8
							c-0.2,0.9-0.4,1.7-0.5,2.6c0,0.3,0,0.6,0.2,0.8c0.3,0.3,0.8,0.2,1.1,0.4c0.3,0.2,0.3,0.7,0.3,1.1c-0.1,1.2-0.1,2.3-0.2,3.5
							c0.3-0.8,0.1-1.7,0.4-2.5c0.6-1.3,2.4-1.5,3.2-2.6c-0.9-0.1-1.8,0.3-2.6,0.7c-0.2,0.1-0.6,0.3-0.7,0c-0.1-0.2,0-0.4,0.2-0.5
							c0.4-0.5,0.9-1,1.3-1.5c0.3-0.3,0.6-0.8,0.4-1.2c-0.9,0.7-1.9,1.5-2.8,2.2c-0.1,0.1-0.1,0.1-0.2,0.1c-0.2,0-0.2-0.2-0.2-0.4
							c0.2-1.4,0.4-2.8,0.6-4.2C209.5,200.5,209.6,200.1,209.7,199.7z"/>
					</g>
				</g>
				<g class="st32">
					<g>
						<path class="st33" d="M217,191C217,191.1,217,191.1,217,191C217,191.1,217,191,217,191L217,191z"/>
					</g>
				</g>
			</g>
			<g class="st22">
				<g class="st32">
					<g>
						<path class="st33" d="M213.4,202.9c0.2,0.2,0.4,0.3,0.6,0.5c0.1,0.1,0.2,0.1,0.3,0.1c0.1,0,0.1-0.1,0.1-0.2
							c0.6-2,1.2-4.1,1.6-6.2c0-0.1,0-0.2,0-0.3c-0.1-0.1-0.1-0.1-0.2-0.1c-0.5,0-1,0-1.5,0l-0.1,0.6c0-0.1,0-0.2,0.1-0.4
							c-0.5,1.6-0.9,3.2-1.2,4.8c0,0.2-0.1,0.5,0,0.7C213.1,202.6,213.2,202.8,213.4,202.9z"/>
					</g>
				</g>
				<g class="st32">
					<g>
						<path class="st33" d="M216.4,204.4l-0.3-0.2c-0.9,1.4-2.1,2.7-3.4,3.7c-0.5,0.4-1.1,0.8-1.4,1.3c-0.7,1-0.6,2.4-1.1,3.5
							c1.7-2.5,3.7-4.8,6-6.8c0.2-0.2,0.5-0.4,0.6-0.7C216.8,204.8,216.7,204.4,216.4,204.4z"/>
					</g>
				</g>
			</g>
			<g class="st35">
				<g class="st32">
					<g>
						<path class="st31" d="M207.5,202.7c-0.6,0.7-1.3,1.5-2.3,1.6c-0.6,0.1-1.3,0-1.9-0.3c-1-0.4-1.9-1.1-2.7-1.9
							c0.5,0.7,0.9,1.4,1.1,2.2c0.1,0.3,0.1,0.6,0.3,0.8c0.3,0.4,0.9,0.4,1.4,0.4c1.4,0,2.7,0.1,4,0.4
							C207,204.9,207.1,203.7,207.5,202.7z"/>
					</g>
				</g>
			</g>
			<g>
				<g class="st11">
					<g>
						<path class="st31" d="M208.8,207.8c-0.1-0.2-0.4-0.2-0.6-0.3c-3.5-0.4-7-1.1-10.5-2.1c-1-0.3-2-0.7-2.5-1.5
							c-0.2,0.8-0.3,1.5-0.4,2.3c0,0.2-0.1,0.4,0,0.6c0.1,0.2,0.2,0.3,0.4,0.4c1.4,1,3.3,1.3,5,1.8c1.9,0.5,3.7,1.1,5.4,1.9
							c0.7,0.3,1.4,0.7,1.9,1.2c0.4,0.4,0.7,1,1.3,1c0.1-1.6,0.1-3.2,0.2-4.8C208.9,208.1,208.9,207.9,208.8,207.8z"/>
					</g>
				</g>
			</g>
		</g>
		<g>
			<g class="st24">
				<g>
					<path class="st14" d="M193.4,198.6c-0.5,0.4-1.1,0.9-1.8,0.8c-0.3-0.1-0.5-0.2-0.8-0.4c-3.3-2.5-6.7-4.5-10-7l5.6,11.6
						c1.4,1,3.8,2.5,5.2,3.5c0.4,0.3,0.9,0.5,1.3,0.3c0.2-0.1,0.3-0.4,0.5-0.5c0.4-0.3,0.9-0.2,1.3,0c1.3,0.4,2.5,0.9,3.6,1.6
						c0.2,0.1,0.5,0.3,0.8,0.3c0.3,0,1.3,0.6,1.4,0.3c0-0.1-0.4-1.2-0.5-1.4c-1.3-3-3-5.8-4.3-8.8c-0.1-0.3-0.3-0.6-0.5-0.7
						C194.6,197.8,193.9,198.2,193.4,198.6z"/>
				</g>
			</g>
			<g class="st22">
				<g>
					<path class="st14" d="M200,208.7c-1.9-0.6-3.4-1.6-5.3-2.1c-0.3-0.1-0.6-0.2-0.9-0.1c-0.3,0.1-0.6,0.5-0.9,0.7
						c-0.6,0.3-0.8,0.2-1.4-0.2c-1.2-0.8-3-2.2-4.2-3.1c-0.2-0.1-0.5-0.5-0.7-0.5c-0.2,0-0.7,1-0.8,1.1c-3.4,3.2-6.8,6.4-10.3,9.6
						c-0.2,0.1-0.8,0.6-0.8,0.6c1.6,1.4,4.3,1.8,6.3,2.4c1.6,0.5,3.1,1.2,4.4,2.1c0.8,0.5,1.6,1.1,2.5,1.3c1.4,0.2,2.8-0.6,3.7-1.6
						c0.9-1,1.6-2.3,2.4-3.5c1.6-2.2,3.9-3.7,6-5.4c0.3-0.3,0.7-0.7,0.4-1C200.3,208.8,200.1,208.7,200,208.7z"/>
				</g>
			</g>
			<g class="st24">
				<g>
					<path class="st20" d="M179.6,192.7c-1.7,2.8-4.6,4.7-7.1,6.8c-0.7,0.6-1.4,1.3-1.9,2.1c0,0-0.3,0.6-0.4,0.9
						c-0.1,0.3-0.1,0.7,0,1.1c0,0,0.5,0.8,0.9,1.3c1.6,2.7,2.6,5.6,3.1,8.7c0.1,0.5,0.4,1.2,0.9,1.1c0.2,0,0.3-0.2,0.5-0.3
						c3.6-3.3,7.1-6.7,10.4-10.2c0.2-0.2,0.5-0.5,0.6-0.9c0.1-0.4-0.1-0.8-0.3-1.1c-1.7-3.3-3.4-6.6-5.1-9.8
						c-0.1-0.2-0.2-0.3-0.3-0.4C180.3,191.7,179.8,192.3,179.6,192.7z"/>
				</g>
			</g>
			<g>
				<g>
					<path class="st20" d="M177.7,210.1l0.3,0.4C177.9,210.4,177.9,210.2,177.7,210.1C177.8,210.1,177.8,210.1,177.7,210.1z"/>
				</g>
				<g>
					<path class="st20" d="M177.7,210.1l-0.2-0.4C177.5,209.9,177.6,210,177.7,210.1z"/>
				</g>
				<g class="st24">
					<g>
						<path class="st20" d="M182,200.3c-1,0.9-1.9,1.8-2.9,2.7c-0.4,0.4-0.8,0.8-1.1,1.2c-0.4,0.7-0.6,1.6-0.7,2.5
							c-0.1,1.1-0.1,2.4,0.4,3.3c0,0,0.1,0,0.1,0c0.2,0,0.4-0.2,0.6-0.3c1.6-1.5,2.8-3.5,4.6-4.7c0.5-0.3,1.2-0.7,1.3-1.3
							c0.1-0.3,0-0.6-0.1-0.9c-0.2-0.8-0.5-1.6-0.7-2.4c0-0.2-0.1-0.3-0.2-0.5C183,199.6,182.4,200,182,200.3z"/>
					</g>
				</g>
			</g>
			<g>
				<g>
					<path class="st30" d="M173.7,209.5C173.7,209.4,173.7,209.4,173.7,209.5c0-0.2,0-0.3,0-0.4L173.7,209.5z"/>
				</g>
				<g class="st24">
					<g>
						<path class="st30" d="M174.9,207.4c-0.1,0-0.3,0.1-0.4,0.2c-0.5,0.5-0.7,1.1-0.8,1.8c0.2,1.1,0.4,2.2,0.6,3.3
							c0,0.2,0.1,0.4,0.2,0.5c0.1,0.2,0.3,0.3,0.4,0.3c0.1,0,0.2-0.1,0.4-0.1c0.3-0.2,0.7-0.4,0.8-0.7c0.1-0.2,0-0.4,0-0.6
							c-0.2-1.3-0.4-2.6-0.6-3.9C175.3,207.8,175.2,207.4,174.9,207.4z"/>
					</g>
				</g>
			</g>
			<g>
				<path class="st20" d="M173.1,200.2c-0.2,0.1-0.4,0.3-0.6,0.5c-0.6,0.7-1.7,1.7-1.7,1.7c-0.2,0.3,0,0.6,0.2,0.9
					c0.6,0.8,1.1,1.6,1.7,2.4c0.1,0.2,0.3,0.4,0.5,0.3c0.1,0,0.2-0.1,0.3-0.2c0.3-0.4,0.6-0.8,0.7-1.3c0.2-0.8-0.2-1.5-0.3-2.3
					c-0.1-0.4-0.1-0.9,0-1.3c0-0.2,0.1-0.5-0.1-0.7C173.6,200.2,173.3,200.1,173.1,200.2z"/>
			</g>
			<g>
				<path class="st20" d="M180.4,193.2c-1.5,1.8-2.9,3.6-4.4,5.4c0,0-0.4,2.1-0.3,3.4c0,0.2,0.1,0.5,0.3,0.5c0.1,0,0.2-0.1,0.2-0.1
					c1.8-1.6,3.6-3.1,5.6-4.4c0.4-0.2,0.8-0.6,0.6-1c-0.1-0.3-0.5-0.4-0.8-0.2c-0.3,0.1-0.5,0.4-0.7,0.6c-0.7,0.9-1.5,1.7-2.6,1.9
					c-0.1,0-0.3,0-0.4,0c-0.2-0.1-0.1-0.4,0-0.6c0.3-0.6,0.7-1.1,1.2-1.6c0.5-0.5,1.2-1,1.6-1.7c0.4-0.7,0.5-1.6-0.1-2.1
					c0,0-0.1-0.1-0.1-0.1C180.5,193.1,180.4,193.1,180.4,193.2z"/>
			</g>
			<g>
				<g class="st11">
					<g>
						<path class="st31" d="M190.7,202.4c-0.2-0.3-0.5-0.5-0.8-0.7c-1.6-1-3.1-2.2-4.5-3.5c0.6,1.3,1,2.6,1.5,3.9
							c1.4,1.9,3.3,3.5,5.5,4.4c-0.4-1-0.8-2-1.2-3C191.1,203.1,190.9,202.7,190.7,202.4z"/>
					</g>
				</g>
				<g class="st11">
					<g>
						<path class="st31" d="M182.8,194.6c0.4,0.7,0.8,1.4,1.3,1.9c0.4,0.4,0.9,0.6,1.4,0.9c2.1,1.1,4.2,2.2,6.3,3.3
							c-3-2.2-6-4.4-9-6.6C182.9,194.5,182.8,194.6,182.8,194.6z"/>
					</g>
				</g>
				<g class="st11">
					<g>
						<path class="st31" d="M193.3,199.8c-0.6,0.8-1,3.3-0.3,4.4c0.2,0.4,0.3,0.9,0.6,1.2c0.1,0.1,0.1,0.1,0.2,0.1
							c0.1,0,0.3-0.1,0.3-0.2c0-0.1,0-0.3,0-0.4c-0.2-1-0.4-2.1-0.4-3.2c0-0.5,0.1-1.1,0.6-1.2c0.3,0,0.5,0.1,0.7,0.3
							c0.2,0.2,0.2,0.5,0.3,0.8c0.2,1,0.5,2.1,0.7,3.1c0.1,0.3,0.1,0.6,0.3,0.8c0.2,0.2,0.4,0.4,0.6,0.5c0.7,0.4,1.5,0.8,2.3,1.2
							c0.2,0.1,0.5,0.2,0.6,0c0.1-0.2,0-0.4-0.1-0.6c-0.9-1.5-1.9-2.9-2.7-4.5c-0.4-0.8-0.7-1.6-1.3-2.1
							C194.9,199.5,193.9,199.2,193.3,199.8z"/>
					</g>
				</g>
			</g>
			<g class="st9">
				<g>
					<path class="st3" d="M179,212.3c-0.9,0.4-1.7,1-2.3,1.8c-0.2,0.3-0.4,0.6-0.4,0.9c0,0.1,0.1,0.3,0.1,0.4l0,0l0.2,0.1
						c0.4,0.1,0.8,0.1,1.3,0.1c1.2,0,2.4,0.1,3.5,0.3c0.3,0.1,0.7,0,0.8-0.2c0-0.1,0-0.2-0.1-0.3c-0.2-0.4-0.5-0.7-0.7-1.1
						c-0.4-0.5-0.8-1.1-1.2-1.6c-0.1-0.2-0.3-0.3-0.5-0.4C179.5,212.2,179.2,212.2,179,212.3z"/>
				</g>
			</g>
			<g>
				<g class="st32">
					<g>
						<path class="st33" d="M183.3,213.3c-1.1-0.6-2.3-1.3-3.3-2.1l3.7,3.4c0-0.4,0.2-0.8,0.4-1.1c0,0-0.1,0-0.1,0.1
							C183.8,213.6,183.5,213.5,183.3,213.3z"/>
					</g>
				</g>
				<g class="st9">
					<g>
						<path class="st34" d="M187.4,205.2c-0.1,0-0.2,0.2-0.3,0.3c-0.5,0.9-1,1.9-0.7,2.9c0.2,0.5,0.6,1,0.6,1.6
							c-0.1,1-1.4,1.4-1.9,2.3c-0.1,0.2-0.3,0.5-0.4,0.8c0.2-0.1,0.3-0.2,0.5-0.2c0.6-0.2,1.2-0.1,1.7-0.1c1.9-0.2,3.2-1.8,4.3-3.3
							c0.2-0.2,0.3-0.5,0.3-0.7c0-0.3-0.3-0.5-0.5-0.7c-1.1-0.8-2.1-1.7-3.2-2.5C187.7,205.3,187.5,205.2,187.4,205.2z"/>
					</g>
				</g>
			</g>
			<g>
				<path class="st20" d="M187.5,213.4c-0.4,0.1-0.8,0.5-1.1,0.8c-0.7,0.7-1.4,1.4-2.3,1.9c-0.2,0.1-0.3,0.2-0.4,0.4
					c-0.2,0.3,0,0.8,0.4,1c0.3,0.2,0.7,0.2,1.1,0.2c0,0-0.1,0.1,0.5-0.3c0.6-0.4,0.9-1.1,1.2-1.7c0.3-0.6,0.6-1.3,0.9-1.9
					c0-0.1,0.1-0.1,0.1-0.2C188,213.4,187.7,213.3,187.5,213.4z"/>
			</g>
			<g>
				<path class="st20" d="M194.5,207.6c-0.2,0-0.3,0.3-0.4,0.5c-1.4,3.4-4.1,6.1-6.9,8.5c-0.3,0.3-0.7,0.6-0.8,1.1
					c-0.1,0.7,0.6,1.1,1.1,1.5c0,0,1.4,0.5,2-0.1c0.3-0.3,0.5-0.7,0.7-1.1c0.4-0.8,0.9-1.6,1.4-2.3c0.4-0.7,0.9-1.3,1.5-1.9
					c1.5-1.3,3.8-1.8,5-3.4c0.1-0.1,0.2-0.3,0.2-0.4c0.1-0.4-0.3-0.7-0.7-0.9c-1-0.5-2-1-3.1-1.4
					C194.7,207.6,194.6,207.6,194.5,207.6z"/>
			</g>
			<g>
				<path class="st20" d="M195.7,209.1c-0.6,0-1.1,0.4-1.5,0.9c-0.4,0.5-0.7,1-1,1.5c-1,1.4-2.6,2.2-3.4,3.7l0.9-0.1
					c1.1-1.8,3.2-2.7,5-3.6c0.6-0.3,1.2-0.7,1.2-1.3C196.9,209.6,196.3,209.1,195.7,209.1z"/>
			</g>
			<g class="st22">
				<g>
					<path class="st14" d="M175.4,204.5c-0.5,0-0.7-0.5-0.9-0.9c-0.4-1.2-0.7-2.3-1.1-3.5c0.3,1.5,0.5,3,0.6,4.5
						c0,0.3,0.1,0.6,0,0.9c-0.1,0.3-0.3,0.5-0.6,0.6c-0.4,0.1-0.8-0.2-1.1-0.5c-0.6-0.7-1.3-1.3-1.9-2c0.9,1.1,1.8,2.3,2.7,3.4
						c0.2,0.2,0.4,0.4,0.6,0.4c0.3,0,0.5-0.3,0.7-0.5c0.2-0.2,0.6-0.4,0.8-0.2c0.1,0.1,0.1,0.2,0.1,0.4c0.3,1.5,0.6,3.1,0.8,4.6
						l0.3,0c-0.1-1.6-0.1-3.2-0.2-4.8c0-0.5,0-1,0.1-1.5c0.1-0.6,0.4-1.1,0.5-1.7c-0.4,0.2-0.8,0.5-1.2,0.7
						C175.7,204.4,175.6,204.5,175.4,204.5z"/>
				</g>
			</g>
			<g>
				<g class="st11">
					<g>
						<path class="st31" d="M183.5,216.5c-2.1-0.3-4.1-0.6-6.2-0.9c-0.1,0-0.3,0-0.4-0.1l0.1,0.1c2,0.3,4,0.9,5.9,1.7
							c0.2,0.1,0.5,0.2,0.6,0c0.1-0.1,0.1-0.2,0.1-0.3c0-0.6,0.3-1.2,0.7-1.6c0,0,0.1-0.1,0.1-0.2c0,0,0-0.1-0.1-0.1
							c-1.3-0.8-2.5-1.5-3.8-2.3C181.5,214,182.5,215.2,183.5,216.5z"/>
					</g>
				</g>
			</g>
			<g>
				<g class="st35">
					<g>
						<path class="st31" d="M183.6,208c-0.6,0.5-1.2,0.9-1.6,1.6c-0.1,0.2-0.3,0.5-0.5,0.7c0.5-0.3,1.1-0.5,1.6-0.7
							c0.5-0.2,1.1-0.3,1.6-0.2c0.4,0.1,0.8,0.4,1.3,0.5c0.1,0,0.1,0,0.2,0c0.1-0.1,0.1-0.2,0.1-0.3c-0.1-0.8-0.6-1.5-0.7-2.3
							c0-0.7,0.3-1.4,0.6-2l-0.1-0.4C185.3,206,184.6,207.1,183.6,208z"/>
					</g>
				</g>
			</g>
			<g>
				<g class="st32">
					<g>
						<path class="st33" d="M187.3,203.6c-0.5-0.5-0.7-1.2-1-1.9c-0.3-0.7-0.7-1.4-1.1-2.1c-1.1-2-2.2-4-3.4-5.9
							c1.4,2.9,2.8,5.8,4.2,8.7c0.1,0.3,0.3,0.5,0.5,0.8c0.2,0.2,0.4,0.3,0.6,0.5c0.8,0.6,1.6,1.1,2.4,1.7c0.7,0.5,1.5,1,2.2,1.5
							c0.3,0.1,0.6,0.3,0.8,0.1c0.4-0.2,0.5-0.7,0.8-0.9c0.3-0.2,0.7,0,1.1,0.1c1.1,0.5,2.1,1,3.2,1.5c-0.6-0.6-1.6-0.7-2.2-1.3
							c-1-1-0.5-2.8-1.2-4c-0.4,0.8-0.4,1.8-0.3,2.7c0,0.3,0,0.7-0.3,0.7c-0.2,0-0.3-0.2-0.4-0.4c-0.3-0.6-0.6-1.2-0.9-1.7
							c-0.2-0.4-0.5-0.9-1-0.8c0.3,1.2,0.7,2.3,1,3.5c0,0.1,0,0.2,0,0.3c-0.1,0.1-0.3,0.1-0.4,0c-1.2-0.7-2.5-1.4-3.7-2.1
							C188,204.1,187.6,203.9,187.3,203.6z"/>
					</g>
				</g>
				<g class="st32">
					<g>
						<path class="st33" d="M181.9,193.7C181.9,193.7,181.9,193.7,181.9,193.7C181.9,193.7,181.9,193.6,181.9,193.7L181.9,193.7z"/>
					</g>
				</g>
			</g>
			<g class="st22">
				<g class="st32">
					<g>
						<path class="st33" d="M191.6,201.4c0.2-0.1,0.4-0.2,0.6-0.3c0.1-0.1,0.2-0.1,0.2-0.2c0-0.1-0.1-0.1-0.1-0.1
							c-1.7-1.3-3.4-2.6-5.2-3.8c-0.1-0.1-0.2-0.1-0.3-0.1c-0.1,0-0.1,0.1-0.1,0.2c-0.2,0.4-0.4,0.9-0.6,1.3l0.5,0.3
							c-0.1-0.1-0.2-0.1-0.3-0.2c1.3,1,2.7,2,4.1,2.9c0.2,0.1,0.4,0.3,0.7,0.3C191.2,201.6,191.4,201.5,191.6,201.4z"/>
					</g>
				</g>
				<g class="st32">
					<g>
						<path class="st33" d="M194.1,199.2l-0.3,0.2c1,1.4,1.7,2.9,2.2,4.5c0.2,0.6,0.3,1.3,0.7,1.8c0.7,1,2,1.5,2.8,2.3
							c-1.7-2.5-3.1-5.2-4.1-8.1c-0.1-0.3-0.2-0.6-0.5-0.8C194.7,198.9,194.2,198.9,194.1,199.2z"/>
					</g>
				</g>
			</g>
			<g class="st35">
				<g class="st32">
					<g>
						<path class="st31" d="M189.2,206.8c0.4,0.8,0.9,1.8,0.7,2.7c-0.1,0.6-0.5,1.2-1,1.7c-0.8,0.8-1.8,1.4-2.8,1.8
							c0.8-0.2,1.7-0.3,2.5-0.2c0.3,0,0.6,0.1,0.9,0c0.5-0.2,0.7-0.7,0.9-1.2c0.5-1.3,1.1-2.5,1.9-3.6
							C191.1,208,190,207.6,189.2,206.8z"/>
					</g>
				</g>
			</g>
			<g>
				<g class="st11">
					<g>
						<path class="st31" d="M194.4,207.4c-0.2,0.1-0.4,0.3-0.5,0.5c-1.7,3.1-3.7,6.1-5.8,9c-0.6,0.8-1.4,1.6-2.4,1.8
							c0.7,0.4,1.3,0.9,2,1.2c0.2,0.1,0.4,0.2,0.6,0.2c0.2,0,0.3-0.1,0.5-0.2c1.5-1,2.4-2.5,3.5-4c1.1-1.6,2.4-3,3.8-4.3
							c0.6-0.5,1.1-1,1.9-1.3c0.5-0.2,1.2-0.3,1.4-0.8c-1.5-0.7-2.9-1.3-4.4-2C194.8,207.5,194.6,207.4,194.4,207.4z"/>
					</g>
				</g>
			</g>
		</g>
		<g class="st22">
			<g>
				<path class="st33" d="M220.8,195.4c-0.7-0.5-1.5-0.9-2.4-1.1c-0.4-0.1-1,0-1.1,0.4c0,0.2,0,0.3,0.1,0.5c0.2,1-0.7,1.8-1.5,2.3
					c-3.6,2.1-7.9,2.9-12,2.1c-2.5-0.5-4.8-1.5-7.1-2.3c-2.4-0.8-4.9-1.3-7.4-0.8c-0.1,0.4,0.5,0.7,0.7,1.1c0.2,0.6-0.5,0.9-1.1,1.1
					c-4.8,1.1-9.9,0.9-14.6-0.6c-0.2-0.1-0.4-0.2-0.5-0.4c-0.1-0.2,0.1-0.5,0.2-0.6c0.6-0.8,1.3-1.7,1.9-2.5c-0.1,0-0.2,0-0.2,0
					l1.4-0.6c-2.9,0.4-5.8,1.2-8.6,2.4c-0.5,0.2-1,0.6-0.9,1.1c0.1,0.2,0.3,0.4,0.4,0.5c2.4,1.6,5.3,2.1,8.1,2.5
					c8.6,1.2,17.2,1.8,25.9,1.9c1.9,0,3.9,0,5.8-0.2c4.1-0.4,8.1-1.5,11.8-3.3c1-0.5,2.1-1.3,1.8-2.4
					C221.5,196,221.1,195.7,220.8,195.4z"/>
			</g>
		</g>
		<g>
			<path class="st36" d="M229.2,211.2l-1.2,15.6c0,4.9-14.6,8.9-32.7,8.9c-18.1,0-32.7-4-32.7-8.9l-0.7-9v24.5
				c0,2.5,3.3,3.5,7.6,3.7c6.5,0.4,6.9,6.7,9.5,6.9c22.2,1.6,22.6-3.9,29.7-4.1c3-0.1,8.5,2.3,8.5,2.3c8.7-1.4,12.1-7.4,12.1-8.2
				c0-0.1,0-0.1,0-0.2V211.2z"/>
		</g>
		<g class="st9">
			<polygon class="st3" points="180.8,181.3 180.8,233.8 211.1,233.8 211.1,181.2 			"/>
		</g>
		<g class="st13">
			<polygon class="st14" points="213.3,233.7 227.4,228.2 227.4,176.6 213.3,180.9 			"/>
		</g>
		<g class="st9">
			<polygon class="st37" points="163.7,228.2 177.8,233.4 177.8,180.9 163.7,176.6 			"/>
		</g>
		<g class="st22">
			<g>
				<path class="st26" d="M176.9,240.8c-0.9-2.9-2.8-5.6-5.6-6.9c-0.9-0.4-2.1-0.5-2.5,0.4c-0.1,0.3-0.1,0.6,0,1
					c0.2,1.9,0,5.3-0.5,7.1c-0.2,0.6-0.4,1.3-0.9,1.8c-0.1,0.1-0.3,0.3-0.5,0.4c1.2,0,2.4-1.5,3.5-1.2c3.3,0.7,6.2,3.3,7.3,6.5
					C177.8,246.8,177.8,243.7,176.9,240.8z"/>
			</g>
		</g>
		<g class="st13">
			<g>
				<path class="st14" d="M176,243.2c-0.2-2.8-1.4-5.5-3.3-7.6c-0.4-0.4-0.7-0.8-1.2-1c-0.5-0.2-1.1-0.2-1.5,0.2l0.4,0.1
					c0.5,1.1,0.6,2.4,0.3,3.6c-0.2,1-0.6,2-0.2,2.9c0.2,0.4,0.6,0.7,0.9,1c0.8,0.6,1.7,1.2,2.6,1.7c0.6,0.3,1.5,0.6,1.9,0
					C176,243.8,176,243.5,176,243.2z"/>
			</g>
		</g>
		<g class="st22">
			<g>
				<path class="st20" d="M165.8,231.2c-0.3-0.2-0.7-0.4-1.1-0.3c-0.8,0.2-1.1,5.9-1.3,8.6c-0.1,0.6-0.1,2.7,0.1,3.2
					c0.2,0.5,0.7,1,1.2,1c0.5,0,0.9-0.4,1.2-0.8c0.2-0.4,0.3-0.9,0.4-1.4c0.2-1.5,0.4-4.6,0.6-6.1
					C166.9,233.9,167,232.1,165.8,231.2z"/>
			</g>
		</g>
		<g class="st22">
			<g>
				<path class="st20" d="M166.1,211c0.4-4.1,0.5-8.2,0.2-12.3c-0.2-2.9-0.4-5.9,0.7-8.6c1.7-4,6-6,10-7.7c-2.1-0.7-4.2-1.4-6.3-2.1
					c-2.6-0.9-5.6-2-6.7-4.5l-0.2,0.2c-0.1,14.3-0.3,28.6-0.4,42.9c0,1.5,0,3,0.6,4.4c0.5,1.2,1.5,2.1,2.5,2.8
					c1.5,1.2,3.3,2.2,5.1,3c-2-2.1-4-4.2-5.1-6.9C165.2,218.8,165.8,214.8,166.1,211z"/>
			</g>
		</g>
		<g>
			<path class="st20" d="M165.1,176.1c-0.7-0.6-1.3,0.7-1.3,0.7c0,0-0.1-0.2-0.1-0.2c-0.2,12-0.5,28.7,0,40.7
				c0.6-2.6,0.8-10.5,0.9-13.2c0.5-9.3,0.2-17.5,0.8-26.8C165.4,176.9,165.4,176.4,165.1,176.1z"/>
		</g>
		<g class="st22">
			<g>
				<path class="st20" d="M183.2,182.4l-1,0.2c-0.2,15.9-0.2,31.8,0,47.7c0,0.4,0,0.9,0.3,1.3c0.4,0.5,1,0.6,1.6,0.6
					c4.3,0.2,8.7,0.3,13.1,0c-2.5-1-5.1-2.1-6.9-4.2c-2.4-2.9-2.7-6.9-2.7-10.7c0-4.9,0.4-9.8,1-14.6c0.3-2.6,0.7-5.1,1.8-7.5
					c1.6-3.6,4.6-6.5,8.2-8c3.8-1.5,8.4-1.7,10.8-5C200.8,183.3,191.9,183.4,183.2,182.4z"/>
			</g>
		</g>
		<g class="st38">
			<g>
				<path class="st20" d="M186,185.2c-0.3-0.9-1.1-1.8-2.1-1.8c-1-0.1-2,0.9-1.7,1.9c0,0,0.3,27.1,0.1,41c0,0.5,0,1.1,0.3,1.5
					c0.3,0.5,0.9,0.8,1.3,0.5c0.4-0.2,0.5-0.8,0.5-1.3c0.6-13,1.2-25.9,1.8-38.9C186.3,187.2,186.3,186.2,186,185.2z"/>
			</g>
		</g>
		<g class="st13">
			<g>
				<path class="st14" d="M227.8,173.1c-0.6,0.2-1.1,0.7-1.4,1.2c-6.8,3.7-14.9,4.2-22.7,4.6c-2.7,0.1-5.3,0.2-8,0.4
					c8.7,3,18.2,0.7,27.2-1.6c1.2-0.3,2.5-0.6,3.5-1.4C227.3,175.6,228.1,174.4,227.8,173.1z"/>
			</g>
		</g>
		<g class="st11">
			<g>
				<path class="st14" d="M226.6,222.3c-0.7-14.6-0.9-29.2-0.6-43.8l0.5-1.2c-3.4,1.2-6.9,2.5-10.3,3.7c-0.5,0.2-1.1,0.4-1.5,0.8
					c-0.6,0.7-0.6,1.8-0.6,2.7c0.1,2.4,0.3,4.8,0.4,7.3c0.7-2.3,1.5-4.8,3.6-6c0.3-0.2,0.7-0.4,1.1-0.3c0.9,0.2,1.1,1.2,1.2,2.1
					c0.9,10.4,1.2,20.9,0.8,31.4c-0.1,1.7-0.2,3.5-0.7,5.1c-1.1,3.4-3.8,6-6.4,8.3c3.1-0.9,6.2-2,9.1-3.3c0.7-0.3,1.3-0.6,1.9-1.1
					C226.7,226.7,226.7,224.4,226.6,222.3z"/>
			</g>
		</g>
		<g>
			<g class="st24">
				<g>
					<path class="st14" d="M222.4,183.1c0-0.2,0.1-0.4,0.1-0.5c0-0.4,0-0.7,0-1.1L222.4,183.1z"/>
				</g>
			</g>
			<g class="st24">
				<g>
					<path class="st14" d="M227.3,221.8c-1.9-14.9-1.9-30-0.1-44.9c-2.3,1.1-4,3.2-4.7,5.7c0.6,11.7,0.8,23.4,0.6,35.1
						c0,2.3-0.1,4.7-0.7,6.9s-1.8,4.4-3.7,5.7c1.7,0,3.4-0.3,5-0.9c1-0.4,2.1-0.9,2.7-1.7C227.8,226.1,227.6,223.8,227.3,221.8z"/>
				</g>
			</g>
		</g>
		<g class="st11">
			<g>
				<path class="st14" d="M210.4,223.5c0.1-10.8,0.2-21.7,0.3-32.5c-0.2,5.4-0.5,10.7-0.7,16.1c-0.3,6.9-0.6,13.8-2.1,20.6
					c-0.2,1.1-0.5,2.2-1.2,3.1c-1.1,1.4-2.8,1.9-4.5,2.4c2.2,0.3,4.4,0.1,6.5-0.4c0.5-0.1,1.1-0.3,1.4-0.7c0.4-0.5,0.5-1.2,0.5-1.9
					C210.3,225.7,210.4,223.5,210.4,223.5z"/>
			</g>
		</g>
		<g>
			<g>
				<path class="st26" d="M188.3,251.7c-0.5,0-0.9,0-1.4,0C187.4,251.7,187.9,251.7,188.3,251.7z"/>
			</g>
			<g>
				<path class="st26" d="M216.6,240c-0.4-1.6-1.2-3.2-2.8-3.9c-1.1-0.5-2.2-0.3-3.3,0.1c-2.8,0.6-5.3,2.3-7.3,4.3
					c-2.5,2.3-4.5,5.1-7.1,7.4c-2.2,1.9-4.9,3.5-7.8,3.8c3.2-0.1,6.4-0.6,9.5-1.5c3-0.9,5.9-2.2,9.1-2.7c3.1-0.5,6.6-0.1,8.9,2.1
					C217.1,246.5,217.4,243.1,216.6,240z"/>
			</g>
		</g>
		<g class="st13">
			<g>
				<path class="st14" d="M211.8,238.4c-0.1-0.4-0.2-0.7-0.4-1c-0.3-0.3-0.6-0.8-0.6-0.8c-1.3,0.2-2.6,0.8-3.7,1.5
					c-0.5,0.3-0.9,0.6-1.3,0.9l0.6-0.3c-0.3,0.2-0.5,0.4-0.7,0.6c-1.5,1.4-2.6,3.1-4,4.6c-2.1,2.5-4.7,4.7-7.4,6.4
					c5.1-0.5,9.6-4.5,14.7-4.1c0.6,0,1.2,0.1,1.7-0.1c1-0.4,1.4-1.6,1.5-2.6C212.2,241.9,212.1,240.1,211.8,238.4z"/>
			</g>
		</g>
		<g class="st9">
			<g>
				<path class="st20" d="M215.9,240.7c-0.1-1-0.3-2-1-2.6c-0.2-0.2-0.4-0.3-0.6-0.2c-0.1,0.1-0.1,0.2-0.2,0.3
					c-0.2,0.5-0.3,1.1-0.3,1.6c0,0,0.8,1.8,0.5,3c-0.3,1.3-1,2.7-0.4,3.9c0.2,0.3,0.5,0.6,0.9,0.6c0.5-0.1,0.7-0.6,0.8-1.1
					C216,244.4,216.1,242.5,215.9,240.7z"/>
			</g>
		</g>
		<g class="st11">
			<g>
				<path class="st14" d="M228.1,229.8l-0.7-0.2c-2.7,1.7-5.7,3-8.8,3.8c-1,0.3-2.1,0.6-2.5,1.5c2.6-0.1,4.8,2.5,5,5.2
					c0.3,2.6-0.9,5.2-2,7.6c-0.2,0.4-0.4,0.9-0.2,1.3c0.3,0.5,1.1,0.4,1.6,0.2c1.7-0.6,3.3-1.4,4.8-2.5c1.1-0.8,2.1-1.7,2.6-2.9
					c0.4-1,0.4-2.1,0.3-3.2C228.3,236.9,228.2,233.3,228.1,229.8z"/>
			</g>
		</g>
		<g class="st38">
			<g>
				<path class="st14" d="M227.8,231.9c0-0.5-0.2-1.3-0.7-1.2c-0.3,0-0.5,0.2-0.7,0.4c-0.5,0.5-0.5,0.8-0.5,0.8
					c-0.5,0.6-0.8,1.4-0.9,2.1c-0.3,2-0.1,4,0,6c0,2-0.2,4.1-1.3,5.8c-0.8,1.1-1.9,1.9-3.1,2.6c2.3-0.9,4.6-2.1,5.9-4.1
					c1.3-2.1,1.4-4.8,1.4-7.3C227.8,235.3,227.8,233.6,227.8,231.9z"/>
			</g>
		</g>
		<g>
			<path class="st26" d="M182.1,235.4c-3.3-0.3-7.4-1.1-11.8-2.9c3.9,3.6,13.1,5,18.4,5.3c9.5,0.5,15.5-1.8,20.7-3
				C202.4,235.4,195.9,236.8,182.1,235.4z"/>
		</g>
		<g class="st9">
			<g>
				<path class="st37" d="M197,240.1c-0.6-0.2-1.2-0.1-1.9,0c-4.3,0.6-8.8,0.4-13-0.7c-0.7-0.2-1.4-0.4-2.1,0
					c-1.1,0.6-1,2.2-0.8,3.4c0,0,0.1,2.8,0.3,5.5c0,0.4,0.1,0.9,0.3,1.3c0.2,0.3,0.5,0.5,0.8,0.7c2.1,1.3,4.9,1.2,7.2,0.3
					c2.3-0.9,4.3-2.5,6.2-4.1c1.5-1.2,3-2.5,3.9-4.2c0.2-0.3,0.3-0.6,0.3-0.9C198.2,240.8,197.6,240.3,197,240.1z"/>
			</g>
		</g>
	</g>
</g>
<g>
	
		<image style="overflow:visible;opacity:0.2;" width="176" height="182" xlink:href="53BA305EF9A01475.png"  transform="matrix(1 0 0 1 69 66)">
	</image>
	<g>
		<g>
			<g>
				<path class="st39" d="M219.4,211.3l-58-63.2l55.7-60.6c1.8-1.8,2.5-3.5,2.5-5.4c0-4.3-3.6-7.3-8.6-7.3c-3.1,0-5.8,1.4-8.8,4.7
					l-51.7,58.4L98.4,79.1c-2.8-3.1-5.5-4.3-9.1-4.3c-4.3,0-9,2.4-9,7.6c0,2.1,1,4,3.1,6.2l0.1,0.1l55,60L80,212.8
					c-1.6,1.4-2.3,3-2.3,5.1c0,4.1,3.8,7.3,8.6,7.3c3.1,0,5.8-1.4,8.8-4.7l54.4-61.4l54.8,61.7c2.8,3.1,5.5,4.3,9.1,4.3
					c5.1,0,9-3.3,9-7.6C222.3,215.6,221.4,213.6,219.4,211.3z"/>
			</g>
		</g>
	</g>
</g>
</svg>
