<?xml version="1.0" encoding="utf-8"?>
<!-- Generator: Adobe Illustrator 25.0.0, SVG Export Plug-In . SVG Version: 6.00 Build 0)  -->
<svg version="1.1" id="Layer_1" xmlns="http://www.w3.org/2000/svg" xmlns:xlink="http://www.w3.org/1999/xlink" x="0px" y="0px"
	 viewBox="0 0 300 300" style="enable-background:new 0 0 300 300;" xml:space="preserve">
<style type="text/css">
	.st0{opacity:8.000000e-02;fill:#E13856;enable-background:new    ;}
	.st1{fill:#282828;}
	.st2{fill:#059DD8;}
	.st3{fill:#313236;}
	.st4{fill:#006B69;}
	.st5{fill:#24B6FF;}
	.st6{fill:#F7C9B2;}
	.st7{fill:#464C05;}
	.st8{fill:#007AC3;}
	.st9{fill:#582D11;}
	.st10{fill:#F5B39A;}
	.st11{fill:#AAAAAA;}
	.st12{fill:#C80E00;}
	.st13{fill:#E02424;}
	.st14{fill:#A6E0EA;}
	.st15{fill:#525252;}
	.st16{fill:#737373;}
	.st17{fill:#424242;}
	.st18{fill:#D7D8D9;}
	.st19{opacity:0.5;}
	.st20{fill:#D5F8FF;}
</style>
<g id="Page-1">
	<g id="For-you-and-your-partner-Copy-4">
		<g id="Group-4">
			<circle id="Mask-Copy-2" class="st0" cx="150" cy="150" r="150"/>
		</g>
	</g>
</g>
<g>
	<g>
		<g>
			<path class="st1" d="M198.8,258.8c-7.1,7.8-27.8,14.6-23.5,20.5c1.1,1.5,7.9,4.7,19,2.1c11.1-2.6,9.8-7.7,15.1-7.7
				c5.4-0.1,11.9-1,7.4-14L198.8,258.8z"/>
			<path class="st2" d="M202,135.6c-8.1,36.2-12.2,47.6-11.7,57c0.5,9.5,1.3,22,2.1,36.1c0.8,14.1,0.8,33.6,2.2,33.7
				c1.5,0.1,8.7,2.8,15.5,2.8c6.8,0,9-2.3,9-2.3s1.9-47.2-1.8-74.4c-2.1-15.7,14.5-47.3,14.5-47.3L202,135.6z"/>
		</g>
		<g>
			<path class="st3" d="M216.2,266.5c-6.9,7.9-27.5,15.2-23.1,20.9c1.1,1.4,8,4.6,19,1.7c11.1-2.8,9.6-7.9,15-8
				c5.4-0.2,11.9-1.3,7.1-14.2L216.2,266.5z"/>
			<path class="st4" d="M212.2,150.2c1.3,29.5-9.4,33-8.7,42.4c0.6,9.4,4.4,29.8,5.6,43.9c1.1,14.1,1.6,33.6,3.1,33.6
				c1.5,0,8.8,2.6,15.6,2.4c6.8-0.2,8.9-2.5,8.9-2.5s0.6-47.2-3.6-74.3c-2.5-15.6,13.4-47.6,13.4-47.6L212.2,150.2z"/>
			<path class="st5" d="M212.2,150.2c1.3,29.5-9.4,33-8.7,42.4c0.6,9.4,4.4,29.8,5.6,43.9c1.1,14.1,1.6,33.6,3.1,33.6
				c1.5,0,8.8,2.6,15.6,2.4c6.8-0.2,8.9-2.5,8.9-2.5s0.6-47.2-3.6-74.3c-2.5-15.6,13.4-47.6,13.4-47.6L212.2,150.2z"/>
		</g>
		<path class="st2" d="M203.2,129.7c-1.4,5.7-9.6,45.9-9.4,54.3c0.2,8.4,3.9,30.5,3.9,30.5l5.8-2c0,0,1.8-39.7,2.7-40.6
			c0.9-0.9,11.3-35.1,11.3-35.1L203.2,129.7z"/>
		<path class="st4" d="M216.5,133.9c-4,10.6-11.3,39-12.2,47.5c-0.9,8.5,1.7,36.8,1.7,36.8s27.3,0.1,26.9-1.3
			c-0.4-1.3,0.2-38.6,1.4-41c1.2-2.4,23.5-35.7,18.5-51.6C247.7,108.3,216.5,133.9,216.5,133.9z"/>
		<path class="st5" d="M216.5,133.9c-4,10.6-11.3,39-12.2,47.5c-0.9,8.5,1.7,36.8,1.7,36.8s27.3,0.1,26.9-1.3
			c-0.4-1.3,0.2-38.6,1.4-41c1.2-2.4,23.5-35.7,18.5-51.6C247.7,108.3,216.5,133.9,216.5,133.9z"/>
		<path class="st6" d="M155.7,83.2c-2.5,2.9-11.6,9.4-11.6,9.4s-15.7-2.1-25.8,2.8c-4.3,2.1-7.8,0.2-9.4,0.5c-0.4,2-1,3.9-1.5,5.8
			c-0.2,0.8-2.4,0.9-2.7,1.7c2.3-0.5,44.4,3.3,47.5,2c3-1.3,13-8,13.7-10.1C166.5,93.2,155.7,83.2,155.7,83.2z"/>
		<path class="st7" d="M147.2,132.5l-47.3-1.2c-0.1,0-0.2-0.1-0.2-0.2l0.1-3.2c0-0.1,0.1-0.2,0.2-0.2l47.3,1.2
			c0.1,0,0.2,0.1,0.2,0.2l-0.1,3.2C147.4,132.4,147.3,132.5,147.2,132.5z"/>
		<path class="st8" d="M124,128.8c6.3,0.3,11.7-4.3,12.5-10.4c0.1-0.5-0.3-1-0.9-1l-22.1-1.1c-0.5,0-1,0.4-1,0.9
			C112.8,123.4,117.7,128.5,124,128.8z"/>
		<path class="st8" d="M110,128.1h-4.1c-0.2,0-0.4-0.2-0.5-0.4l-1.2-6.6c-0.1-0.3,0.2-0.7,0.5-0.7h6.4c0.3,0,0.5,0.3,0.5,0.7
			l-1.2,6.6C110.4,127.9,110.2,128.1,110,128.1z"/>
		<path class="st6" d="M123.6,104.4c-8.4-0.8-15.5-0.4-18.9-1c-3.4-0.6-6.8,0.7-10.6-1.2c-3.8-1.9-8.6-3.8-9-4.5
			c-0.4-0.8-0.8-2.1,0.3-3.5c1-1.4,1.2-1.9,2.2-3c1.1-1.1,2.4-1.1,3.5-1.5c1.1-0.4,3.7-1.5,6.1-1.4c2.3,0,8.4,6.1,9.8,6.6
			s11.8-0.4,16.6-1.3C124.9,93.3,124.7,103.3,123.6,104.4z"/>
		<path class="st5" d="M175.7,61.2c-9.2-4.1-30,29.8-30,29.8s5.7,9.8,15,14.6c0,0,35.2-24.4,34.5-34.2
			C194.6,63.5,181.7,63.9,175.7,61.2z"/>
		<path class="st5" d="M166.9,63c-2.2,3.3-11.1,15.8,20.4,41.4c0,0,14,25.1,17.6,30.5c3.6,5.5,4.3,5.9,12.3,2
			c8-3.9,29.1-8.5,35.4-10.6c6.3-2-4.4-35.7-12.6-45.3c-8.2-9.6-15.8-18.4-31.2-23.8c-15.4-5.4-30.6-6.7-31.5-6.1
			c-0.9,0.6,1.1,5,0.9,14.7c-0.2,9.6,2.2,20.6,2.2,20.6s-6.7-7.6-7.2-13.2c-0.6-5.6-1.5-8-1.5-8L166.9,63z"/>
		<path class="st2" d="M210.2,72.6l-16.1,19.2c0,0-1.2,8.7-2.3,18.3c4.4,5.8,10.9,21.3,13.2,24.8c3.6,5.5,4.3,5.9,12.3,2
			c3.9-1.9,11.5-4.2,19-6.2C234.5,127.2,215.5,93.3,210.2,72.6z"/>
		<path class="st6" d="M189.9,108.5c-0.7,3.1-1.8,8.5-1.8,8.5s-11.8,4.9-21.2,10.9c-9.5,6.1-9.1,5.4-12.7,2.2
			c-3.6-3.2-10.7-6.8-12-6.4c-1.4,0.4-1.8,2.4,0,3.4c1.8,0.9,5.1,3.6,5.3,4.2c0.1,0.5-7.2,2.3-9.2,2c-3-0.4-8.4-1.5-10.5-1.5
			s-6.9-0.7-6.6,0.4c0.3,1.1,2.6,1.2,6.1,2.3c3.5,1.1,10.3,6.8,12.8,6.9c2.6,0.1,8.1-0.3,12.7,0c4.6,0.3,5.8-1.8,15.7-3.9
			c9.9-2.2,27.7-7.6,30.5-9.2s5.5-14.3,5.9-16.5C205.3,109.7,189.9,108.5,189.9,108.5z"/>
		<path class="st5" d="M190.1,59.1c-7.8,1.6-10,10.9-7.1,26.6c3,15.7,4.1,25.1,4.1,25.1s10.3,4.7,20.7,3.3c0,0,6.3-41.7,0-49.3
			C202.7,58.5,196.5,57.8,190.1,59.1z"/>
		<g>
			<path class="st6" d="M172.8,70.1C172.8,70.1,172.8,70.1,172.8,70.1L172.8,70.1C172.9,70.1,172.8,70.1,172.8,70.1z"/>
			<path class="st6" d="M178.3,65.8c0.2-9.6-1.9-14.1-0.9-14.7c0,0-2.5,0.4-3.5-0.1c-0.5-0.3-0.9-1.7-1.1-3.8
				c-2.6,1.3-4.8,2.9-6.8,5.2c-2.5,2.9-8.3,5.6-9.1,9.5c0.9-0.8,4.5-0.6,4.6-0.5c0.3,0.3,1.7,2.3,3.9,4.5l0,0
				c2.3,2.2,7.4,3.8,7.6,4.2l0,0l0,0c0.1,0.9,0.3,1.9,0.4,3.1c0.6,5.6,7.2,13.2,7.2,13.2S178.1,75.5,178.3,65.8z"/>
			<g>
				<path class="st6" d="M168.4,67.3c0.8-1.6,1.6-3.2,2.5-4.7c1.2-2.1,2.4-4.3,3.7-6.4c1-1.6,2.1-3.2,2.7-5c-0.6-0.5-1.1-1-1.3-1.5
					c-1.5-2.7-4.4-15.9-10.1-13c-0.3,0.1-12.2-2.9-12.2-2.9l-10.5-0.2c-0.3,1.4-3.9,5.8-2.4,11.4c0.8,3.1,0.8,2.7,1.8,3.4
					c1.6,1.1,1.2,3.6,1,5c-0.3,2.1-1.1,3.8,1.2,3.7c2.6-0.1,2.2,1.1,1.9,2c-0.2,0.7,1.1,1.1,1.5,1.2c0,0-0.4,1.5,0.6,1.7
					c1,0.2,1.7-0.2,2,0.3c0.4,0.6,1.1,3.2,2.6,3.4c1.5,0.2,4-2,5.4-3c0.8-0.5,0.8-0.7,1.4-0.6l0,0.1c0.2,0,0.3,0,0.4,0
					c0.2,0,0.5,0.1,1,0.2c0.1,0,0.1,0,0.2,0.1c1.1,0.6,1.9,1.7,3,2.7C165.3,65.8,166.8,66.4,168.4,67.3z"/>
				<g>
					<path class="st9" d="M170.9,25.7c-4.8-4-15.1-6.8-22.4-3c-7.3,3.8-11,12.2-11,17.1c0,0.4,1.3,0.5,3,0.8c0.1,0.2,3.6-3,5.5-3.9
						c4.2-1.8,10.6,7.5,12.4,8.2c2.4,0.9-1.7-3.6,1-4.9c1.6-0.7,3.5,0.7,4.7,2.6c1,1.5,3.4,3.6,2.5,4.5c-1.4,1.5,3,0.2,4,0.3
						c1.4,0.1,5.3,2.3,5.3,2.3s-2.5-3.3-1.3-8.7C175.5,37.7,176.9,30.6,170.9,25.7z"/>
				</g>
				<path class="st10" d="M159.5,62.2c0.2-0.1,0.3-0.1,0.6-0.1l0,0.1c0.2,0,0.3,0,0.4,0c0.2,0,0.5,0.1,1,0.2c0.1,0,0.1,0,0.2,0.1
					c1.1,0.6,1.9,1.7,3,2.7c0.2,0.2,0.4,0.4,0.6,0.5c2.6-5.1,2.5-15.5,2.5-15.5C167.5,53,163.1,58.3,159.5,62.2z"/>
			</g>
		</g>
		<path class="st2" d="M177.3,51.2c0,0,0,21.4,3.2,35.3c1.1,4.8,14.7-23.7,14.7-23.7L177.3,51.2z"/>
		<g>
			<path class="st11" d="M75.5,100.8c2.2-0.2,3.9-1.7,3.7-3.3l-8.1,0.9C71.3,99.9,73.3,101,75.5,100.8z"/>
			<path class="st11" d="M79.2,97.4c0,0.2-1.8,0.5-4,0.8c-2.2,0.2-4,0.3-4.1,0.1c0-0.2,1.8-0.5,4-0.8C77.4,97.3,79.2,97.2,79.2,97.4
				z"/>
			<path class="st11" d="M79.2,97.4c7.6-0.8,14.4-2.2,14.8-1.2c0.4,1-4.3,2.5-14.9,1.9L79.2,97.4z"/>
		</g>
		<path class="st6" d="M89.2,97.5c-1.7-0.4-4.1-0.3-5.3,0.4c-1.1,0.7-0.8,1.1,1,1.7c1.8,0.6,3.7,1,5.2,1.8c1.5,0.8,6.5,2,8.5,2
			c2,0-1.8-4.2-2.1-4.3C96.2,99,89.2,97.5,89.2,97.5z"/>
	</g>
	<g>
		<g>
			<path d="M47,108.1c0.8,2.1-3.1,7.8,2.7,12c5.8,4.1,9.6-8.1,9.6-8.1l-5.8-9.1l-4.5,0.6L47,108.1z"/>
			<path d="M58.7,95c1,3.5,3.2,6.1,5.1,7.1c2,1,6.4,0,7.2,3.7c0.7,3.7-10.2,9.8-10.2,9.8L58.7,95z"/>
			<g>
				<path d="M62.8,86.9c0,0,0.8-5.3-2.8-8.2c-2.8-2.3-8.5-6.8-13.9-4.1C39.5,77.9,62.8,86.9,62.8,86.9z"/>
				<path class="st12" d="M63.3,88.1c0.9,0.5,1.2,1.6,0.7,2.5l-1,1.8c-0.5,0.9-1.6,1.2-2.5,0.7l0,0c-0.9-0.5-1.2-1.6-0.8-2.5l1-1.8
					C61.3,88,62.4,87.7,63.3,88.1L63.3,88.1z"/>
				<path d="M59,80c-4.1-4.5-9.9-8-16.9-3.4c-7.3,4.8-7.3,13.5-4.8,17.7c2.5,4.1,4.9,6.3,5.7,6.9c0.8,0.6,5.6,0.6,7.9,2.7
					C53.2,105.9,59,80,59,80z"/>
				<path class="st6" d="M47.8,100.3c1.2,1.2,2.1,3.5,3.4,5.7c0.7,0,2.1,0.1,3,0c6.1-0.3,10.1-2.6,10.1-2.6s-1-0.4-2.4-1L47.8,100.3
					C47.9,100.3,47.9,100.3,47.8,100.3z"/>
				<path class="st6" d="M47.7,100.7c1.4,1.1,3,2.9,6.5,3.2c3.6,0.3,8.9,0.3,10.1-0.4c1.2-0.8,2.3-1,2.2-5.3
					c-0.2-4.2,0.2-6.5-1.7-9.7C63,85.3,60,78.2,54.7,78.4c-4,0.1-8.1,4-8.9,8.1c-0.8,4.1-0.2,5.1,1.5,9.7c0,0-3.9-1.4-4.7-1
					c-0.9,0.4-1.3,1.4,0.3,2.8c1.6,1.4,1.8,0.8,2.4,1.7c0.6,0.8,1.3,1.6,1.9,1.7C48,101.3,47.7,100.7,47.7,100.7z"/>
				<path d="M52.9,78.6c0,0,0.9,12.2-5.1,18.2l-8-6.4l3.3-9L52.9,78.6z"/>
				<path d="M51.7,79.8c0,0,6.2,3,10.1,2.6c0,0-3.9-7.4-10.1-8L51.7,79.8z"/>
			</g>
			<path class="st6" d="M79.6,119.4c0.6,3.7,3.4,5.9,3.4,5.9c-3.6-2.1-10.1-2.9-16.6-3.7c-7-0.8-13.6-5.2-13.9-5.4
				c1.9-2.2,1.5-2.2,1.2-2.7c-0.7-1.1-5.1-11.9-5.1-11.9l10.9-3c0.5,4.2,4.3,10.1,6.4,8.4c0.5-0.4,5,2.8,5.7,2.4
				C72.6,110.8,78.9,114.9,79.6,119.4z"/>
			<path d="M39.2,79c-1,1.3-6.4,7.9-2,17.8c1.4,3.1,5,7.2,9.6,11.1l4.3-0.2c0,0-1.5-5-2.4-6.2c0,0-5.4,0.9-8.5-4.6
				c-3-5.5-0.2-11.4-0.2-11.4L39.2,79z"/>
			<path class="st13" d="M105,176.8c1.2-4.5,2.3-9,3.3-13.5c1.5-7.1,0.2-9.8,1.1-17c0.2-1.9-0.1,0,0.2-1.9c-5.5-1.7-10.1-4-11.9-5.9
				c-1.8-1.8-3.9-8-7.9-14.4c-5.8-9.3-9.2-12.9-14.6-14.8c-4.6-1.6-9.2-2.4-9.1-2.4c-3.9,8.8-10.7,5.7-10.7,5.7s-4.8,1.6-7.9,8.5
				c-4,9,6.2,18.2,16.4,25.5c10.2,7.3,10.9,8.8,16.7,14.4C84.6,164.8,88.2,172.6,105,176.8z"/>
			<path d="M48.7,101.5c3.1,2.2,7,8.4,6.7,11.1c-0.3,2.7-6.3,3.3-6.9,3c-0.5-0.3-0.5-9.7-0.5-9.7L48.7,101.5z"/>
			<path class="st14" d="M99.1,172.6c0.3-9.3,1.5-27.1,5.3-30.9c0,0,66.1-3.5,80.3-3.8c14.2-0.3,72.8,13.9,85.3,17.4
				c12.4,3.5,14.6,4.1,13.5,17.4H99.1z"/>
			<path class="st10" d="M62,104.5c0,0-8.5,0.6-12.6-2.5c0,0,2.1,2.1,3.2,3.7c0,0,1.8,1.6,9.8-0.6L62,104.5z"/>
			<path class="st6" d="M53.4,119.5c5.9-2.6,27,26.9,27,26.9s17-0.3,24,2c7,2.3,11.5-0.9,14.9-0.9c3.3-0.1,13.2,1.4,8.9,4.8
				c-4.3,3.4-6,3.9-13.7,2.8c-7.6-1.1-33.4,3.1-37.6,1.6C72.7,155.2,37,126.9,53.4,119.5z"/>
			<path class="st13" d="M60.4,146.1l13.1-13.2c0,0-16.8-18.6-23.2-14.3C47.8,120.4,44.2,133.2,60.4,146.1z"/>
		</g>
		<g>
			
				<rect x="9.7" y="221.1" transform="matrix(0.8538 -0.5206 0.5206 0.8538 -108.9861 57.5555)" class="st11" width="76.6" height="3.4"/>
		</g>
		<g>
			
				<rect x="6.3" y="214.7" transform="matrix(0.8538 -0.5207 0.5207 0.8538 -106.3707 54.0701)" class="st11" width="73.5" height="3.4"/>
		</g>
		<g>
			
				<rect x="245.3" y="184.5" transform="matrix(0.5207 -0.8537 0.8537 0.5207 -71.8467 317.6558)" class="st11" width="3.4" height="76.6"/>
		</g>
		<g>
			
				<rect x="250.2" y="179.7" transform="matrix(0.5207 -0.8538 0.8538 0.5207 -64.0132 318.7756)" class="st11" width="3.4" height="73.5"/>
		</g>
		
			<rect x="277.7" y="228.9" transform="matrix(-1 -1.224647e-16 1.224647e-16 -1 560.2297 497.2566)" class="st15" width="4.9" height="39.5"/>
		
			<rect x="276" y="185.2" transform="matrix(-1 -1.224647e-16 1.224647e-16 -1 560.228 444.6534)" class="st16" width="8.1" height="74.3"/>
		<g>
			<path class="st17" d="M268.5,278.7c0,6.4,5.2,11.6,11.6,11.6c6.4,0,11.6-5.2,11.6-11.6c0-6.4-5.2-11.6-11.6-11.6
				C273.7,267.1,268.5,272.3,268.5,278.7z"/>
			<path class="st1" d="M280.1,267.1c0.1,0,0.2,0,0.2,0c-6,0.1-10.9,5-10.9,11.1c0,6.1,5,11.1,11.1,11.1c6.1,0,11-4.9,11.1-10.9
				c0,0.1,0,0.2,0,0.2c0,6.4-5.2,11.6-11.6,11.6c-6.4,0-11.6-5.2-11.6-11.6C268.5,272.3,273.7,267.1,280.1,267.1z"/>
			<path class="st16" d="M288.8,279.2c0-5-4.1-9.1-9.1-9.1c-4.9,0-8.8,3.8-9,8.6c0-0.2,0-0.3,0-0.5c0-5.5,4.5-10,10-10
				c5.5,0,10,4.5,10,10c0,5.5-4.5,10-10,10c-0.2,0-0.3,0-0.5,0C285,288,288.8,284.1,288.8,279.2z"/>
			<path class="st1" d="M274.7,279.1c0,2.7,2.2,4.9,4.9,4.9c2.7,0,4.9-2.2,4.9-4.9c0-2.7-2.2-4.9-4.9-4.9
				C277,274.2,274.7,276.4,274.7,279.1z"/>
			<path class="st16" d="M275.6,278.7c0,2.5,2,4.5,4.5,4.5c2.5,0,4.5-2,4.5-4.5c0-2.5-2-4.5-4.5-4.5
				C277.6,274.2,275.6,276.2,275.6,278.7z"/>
			<path class="st17" d="M279.2,278.7c0,0.5,0.4,0.9,0.9,0.9c0.5,0,0.9-0.4,0.9-0.9c0-0.5-0.4-0.9-0.9-0.9
				C279.6,277.8,279.2,278.2,279.2,278.7z"/>
			<path class="st11" d="M282.2,266.3l5.8,3.2c1,0.6,1.3,1.4,0.6,2.1l-7.5,6.2c-0.5,0.5-1.3,0.5-1.8,0l-7.5-6.2
				c-0.7-0.7-0.4-1.5,0.6-2.1l5.8-3.2C279.4,265.7,280.6,265.7,282.2,266.3z"/>
		</g>
		<g>
			
				<rect x="21.4" y="104.4" transform="matrix(0.9558 -0.294 0.294 0.9558 -43.3253 13.7348)" class="st16" width="5.2" height="93.2"/>
		</g>
		<g>
			<g>
				<path class="st18" d="M292.3,167.3H88.2c-4.1,0-7.5,3.3-7.5,7.5v5.9c0,4.1,3.3,7.5,7.5,7.5h204.2c4.1,0,7.5-3.3,7.5-7.5v-5.9
					C299.8,170.7,296.5,167.3,292.3,167.3z"/>
			</g>
			<g>
				<path class="st8" d="M292.3,167.3H88.2c-4.1,0-7.5,2.1-7.5,4.8v3.8c0,2.6,3.3,4.8,7.5,4.8h204.2c4.1,0,7.5-2.1,7.5-4.8v-3.8
					C299.8,169.5,296.5,167.3,292.3,167.3z"/>
			</g>
			<g class="st19">
				<path class="st18" d="M292.3,185.2H156.9h-5.8h-63c-4.1,0-7.5-3.3-7.5-7.5v3c0,4.1,3.3,7.5,7.5,7.5h63h5.8h135.4
					c4.1,0,7.5-3.3,7.5-7.5v-3C299.8,181.8,296.5,185.2,292.3,185.2z"/>
			</g>
			<g>
				<g>
					<path class="st20" d="M42.5,113.3L20.8,91.7c-2.9-3-2.9-7.7,0-10.7l0,0c3-3,7.7-2.9,10.7,0c0,0,6.4,11.5,9.5,14.5
						c2.5,2.4,8.6,6.3,11.3,8.5c3.2,2.7,3.7,6.3,0.8,9.3l0,0C50.2,116.3,45.4,116.3,42.5,113.3z"/>
				</g>
				<g class="st19">
					<path class="st20" d="M45.5,113.3L20.9,88.7c-2.1-2.1-2.1-5.5,0-7.7l-1.5,1.5c-2.1,2.1-2.1,5.5,0,7.7L44,114.8
						c2.1,2.1,5.5,2.1,7.7,0l1.5-1.5C51,115.4,47.6,115.4,45.5,113.3z"/>
				</g>
				<g>
					<path class="st18" d="M98.4,170.6L16.9,87.5c-2.9-2.9-7.6-2.9-10.6,0l-4.2,4.2c-2.9,2.9-2.9,7.6,0,10.6l81.5,83.1
						c2.9,2.9,7.6,2.9,10.6,0l4.2-4.2C101.4,178.2,101.4,173.5,98.4,170.6z"/>
				</g>
				<g>
					<path class="st8" d="M98.8,170.2L16.9,87.5c-2.9-2.9-6.5-4.1-8-2.6L6.8,87c-1.5,1.5-0.3,5,2.6,8l81.9,82.7
						c2.9,2.9,6.5,4.1,8,2.6l2.1-2.1C102.9,176.7,101.7,173.1,98.8,170.2z"/>
				</g>
				<g class="st19">
					<path class="st18" d="M85.8,183.2L40.6,138l-4.1-4.1L4.3,100.1c-2.9-2.9-2.9-7.6,0-10.6l-2.1,2.1c-2.9,2.9-2.9,7.6,0,10.6
						L34.4,136l4.1,4.1l45.2,45.2c2.9,2.9,7.6,2.9,10.6,0l2.1-2.1C93.4,186.1,88.7,186.1,85.8,183.2z"/>
				</g>
			</g>
		</g>
		<g>
			<g>
				<g>
					<path class="st11" d="M284.6,188.2h-2.2v-34.8c0-3.7-3-6.7-6.7-6.7h-256c-3.7,0-6.7,3-6.7,6.7v34.8h-2.2v-34.8
						c0-4.9,4-8.9,8.9-8.9h256c4.9,0,8.9,4,8.9,8.9V188.2z"/>
				</g>
			</g>
			<g>
				<g>
					<rect x="12.4" y="155.8" class="st11" width="272.2" height="2.2"/>
				</g>
			</g>
			<g>
				<g>
					<rect x="10.8" y="157.5" class="st11" width="2.2" height="35.1"/>
				</g>
				<g>
					<rect x="35.5" y="157.4" class="st11" width="2.2" height="34.8"/>
				</g>
				<g>
					<rect x="60.2" y="157.3" class="st11" width="2.2" height="34.5"/>
				</g>
				<g>
					<rect x="84.9" y="157.2" class="st11" width="2.2" height="34.2"/>
				</g>
				<g>
					<rect x="109.5" y="157.1" class="st11" width="2.2" height="33.9"/>
				</g>
				<g>
					<rect x="134.2" y="156.9" class="st11" width="2.2" height="33.6"/>
				</g>
				<g>
					<rect x="158.9" y="156.8" class="st11" width="2.2" height="33.3"/>
				</g>
				<g>
					<rect x="183.6" y="156.7" class="st11" width="2.2" height="33"/>
				</g>
				<g>
					<rect x="208.3" y="156.6" class="st11" width="2.2" height="32.7"/>
				</g>
				<g>
					<rect x="233" y="156.4" class="st11" width="2.2" height="32.4"/>
				</g>
				<g>
					<rect x="257.7" y="156.3" class="st11" width="2.2" height="32.1"/>
				</g>
				<g>
					<rect x="282.4" y="156.2" class="st11" width="2.2" height="31.8"/>
				</g>
			</g>
		</g>
		<rect x="12.4" y="228.9" class="st15" width="4.9" height="39.5"/>
		<rect x="10.8" y="189.7" class="st16" width="8.1" height="69.8"/>
		<g>
			<path class="st17" d="M26.4,278.7c0,6.4-5.2,11.6-11.6,11.6c-6.4,0-11.6-5.2-11.6-11.6c0-6.4,5.2-11.6,11.6-11.6
				C21.2,267.1,26.4,272.3,26.4,278.7z"/>
			<path class="st1" d="M14.8,267.1c-0.1,0-0.2,0-0.2,0c6,0.1,10.9,5,10.9,11.1c0,6.1-5,11.1-11.1,11.1c-6.1,0-11-4.9-11.1-10.9
				c0,0.1,0,0.2,0,0.2c0,6.4,5.2,11.6,11.6,11.6c6.4,0,11.6-5.2,11.6-11.6C26.4,272.3,21.2,267.1,14.8,267.1z"/>
			<path class="st16" d="M6.1,279.2c0-5,4.1-9.1,9.1-9.1c4.9,0,8.8,3.8,9,8.6c0-0.2,0-0.3,0-0.5c0-5.5-4.5-10-10-10
				c-5.5,0-10,4.5-10,10c0,5.5,4.5,10,10,10c0.2,0,0.3,0,0.5,0C10,288,6.1,284.1,6.1,279.2z"/>
			<path class="st1" d="M20.2,279.1c0,2.7-2.2,4.9-4.9,4.9c-2.7,0-4.9-2.2-4.9-4.9c0-2.7,2.2-4.9,4.9-4.9
				C18,274.2,20.2,276.4,20.2,279.1z"/>
			<path class="st16" d="M19.4,278.7c0,2.5-2,4.5-4.5,4.5s-4.5-2-4.5-4.5c0-2.5,2-4.5,4.5-4.5S19.4,276.2,19.4,278.7z"/>
			<path class="st17" d="M15.8,278.7c0,0.5-0.4,0.9-0.9,0.9c-0.5,0-0.9-0.4-0.9-0.9c0-0.5,0.4-0.9,0.9-0.9
				C15.4,277.8,15.8,278.2,15.8,278.7z"/>
			<path class="st11" d="M12.8,266.3L7,269.5c-1,0.6-1.3,1.4-0.6,2.1l7.6,6.2c0.5,0.5,1.3,0.5,1.8,0l7.6-6.2
				c0.7-0.7,0.4-1.5-0.6-2.1l-5.8-3.2C15.6,265.7,14.3,265.7,12.8,266.3z"/>
		</g>
		<rect x="10.8" y="188.2" class="st15" width="273.4" height="14.7"/>
		<rect x="10.8" y="202.9" class="st11" width="273.4" height="3.5"/>
	</g>
</g>
</svg>
