<?xml version="1.0" encoding="utf-8"?>
<!-- Generator: Adobe Illustrator 25.0.0, SVG Export Plug-In . SVG Version: 6.00 Build 0)  -->
<svg version="1.1" id="Layer_1" xmlns="http://www.w3.org/2000/svg" xmlns:xlink="http://www.w3.org/1999/xlink" x="0px" y="0px"
	 viewBox="0 0 300 300" style="enable-background:new 0 0 300 300;" xml:space="preserve">
<style type="text/css">
	.st0{opacity:8.000000e-02;fill:#E13856;enable-background:new    ;}
	.st1{fill:#FBA489;}
	.st2{fill:#E5907C;}
	.st3{fill:#853F38;}
	.st4{fill:#CE2450;}
	.st5{fill:#A51941;}
	.st6{fill:#1E87C1;}
	.st7{fill:#2D99E2;}
	.st8{fill:#352836;}
	.st9{fill:#382040;}
	.st10{fill:#C6B6B6;}
	.st11{fill:#A5EEFF;}
	.st12{fill:#93D5E0;}
	.st13{opacity:0.4;}
	.st14{opacity:0.6;fill:#FFFFFF;}
	.st15{fill:#FFFFFF;}
	.st16{fill:#EDDADB;}
	.st17{fill:#FFEDEE;}
	.st18{fill:#58A4A0;}
	.st19{fill:#438584;}
</style>
<g>
	<g id="OBJECTS">
		<g id="Page-1">
			<g id="For-you-and-your-partner-Copy-4">
				<g id="Group-4">
					<circle id="Mask-Copy-2" class="st0" cx="150" cy="150" r="150"/>
				</g>
			</g>
		</g>
	</g>
</g>
<g>
	<g>
		<g>
			<g>
				<path class="st1" d="M86.6,167.4c6.9-18.5,35.9-27.3,43.2-32.7c9.5-6.9,6.5-29.7,6.5-29.7l15.5,0.4l15.5-0.4
					c0,0-3,22.8,6.5,29.7c7.4,5.4,36.8,14.2,43.7,32.7c6.9,18.5,0,87.2,0,87.2h-64.8h-1.7h-62C88.9,254.6,79.7,185.9,86.6,167.4z"/>
				<path class="st2" d="M170.2,130.4c-7.3-0.7-14.5-2.2-20.9-5.7c-4.6-2.6-8.7-5.6-12.6-9c0.2-5.9-0.4-10.7-0.4-10.7l15.5,0.4
					l15.5-0.4C167.3,105,165.1,121.2,170.2,130.4z"/>
				<path class="st3" d="M217.5,167.4c6.9,18.5,0,87.2,0,87.2l-30.7-59.9L217.5,167.4z"/>
			</g>
			<g>
				<path class="st4" d="M201.7,215.9l21.8-1.7c0.3-16.2-2.2-40.7-5.1-48.2c-5.8-15.7-27.5-24.5-39-30.2c-7.3,5.7-17.2,7.7-27.3,7.4
					c-7.1-0.2-15-1.4-21.1-5.3c-1.6-1.1-3.1-2.2-4.5-3.4c-10.3,5.6-34.8,14.6-41.1,31.5c-7,18.8,2.4,88.6,2.4,88.6h128.1
					L201.7,215.9z"/>
				<path class="st5" d="M85.2,229.9c1.3,14,2.7,24.6,2.7,24.6h128.1l-11.1-34.1C164.9,222.7,124.9,225,85.2,229.9z"/>
			</g>
		</g>
		<g>
			<path class="st1" d="M114.1,213.8l-0.1-2.1l-34-1.5c0,0-2.5,44.4,12.4,45.4c3.2,0.2,8.8,0.3,15.6,0.4
				C109.9,241.9,111.9,227.8,114.1,213.8z"/>
			<path class="st2" d="M112.8,222.3c0.4-2.8,0.8-5.7,1.3-8.5l-0.1-2.1l-34-1.5c0,0-0.2,2.8-0.2,7c9.5,2,19.2,3.2,28.7,4.6
				C110,221.9,111.4,222.1,112.8,222.3z"/>
			<path class="st4" d="M126.7,134.5c0,0-40.9,13.7-46.7,39c-3.5,15.3-6.4,37-6.4,37l42.5,7.1l1.8-31.2L126.7,134.5z"/>
		</g>
	</g>
	<g>
		<path class="st6" d="M244.9,268.4c-18.9-6-54.3-10.1-94.9-10.1s-75.9,4.1-94.9,10.1H40.5v10.1c0,11.1,49,20.2,109.5,20.2
			s109.5-9,109.5-20.2v-10.1H244.9z"/>
		<ellipse class="st7" cx="150" cy="268.4" rx="109.5" ry="20.2"/>
	</g>
	<g>
		<g>
			<path class="st2" d="M128.3,71.3c-2.5-7.8-8.4-6-9-5.8c-0.6,0.1-6.7,1-5.6,9.1c1.1,8.1,5.8,12.5,10.2,11.2
				C128.5,85.1,130.8,79.1,128.3,71.3z"/>
			<path class="st2" d="M191.6,74.1c0.6-8.1-5.6-8.7-6.2-8.7c-0.6-0.2-6.6-1.6-8.6,6.3c-2.1,7.9,0.7,13.8,5.3,14.2
				C186.5,87,191,82.3,191.6,74.1z"/>
			<path class="st1" d="M121.4,57.2c3.1-34,29-32.1,31.4-31.9c2.4-0.3,28.3-2.2,31.4,31.9c3.1,34.2-3.2,59.3-27.8,60.6
				C127.8,115.9,118.3,91.4,121.4,57.2z"/>
		</g>
		<g>
			<g>
				<path class="st3" d="M159.7,64.5c1,3.4,1.8,6.8,2.5,10.2c0.7,3.4,1.3,6.9,1.9,10.4l0.1,0.4l-0.4,0.1c-1,0.3-2.1,0.6-3.1,0.8
					c-1,0.2-2.1,0.5-3.1,0.7c1-0.5,2-0.8,2.9-1.3c1-0.4,2-0.8,3-1.1l-0.3,0.5c-0.8-3.4-1.4-6.9-2-10.3C160.5,71.5,160,68,159.7,64.5
					z"/>
			</g>
			<g>
				<path class="st8" d="M179.4,62c-1.5-1-2.9-1.8-4.3-2.5c-1.4-0.7-2.9-1.1-4.4-1.3c-0.7-0.1-1.5,0-2.2,0c-0.4,0.1-0.7,0.2-1.1,0.2
					c-0.4,0.1-0.7,0.3-1.1,0.4c-0.4,0.1-0.7,0.3-1.1,0.5l-1.1,0.6c-0.7,0.4-1.4,0.9-2.2,1.3c0.4-0.8,0.9-1.5,1.5-2.2
					c0.6-0.6,1.2-1.3,2.1-1.8c0.4-0.2,0.8-0.5,1.2-0.7c0.4-0.2,0.9-0.3,1.3-0.5c0.9-0.2,1.9-0.3,2.8-0.2c1.9,0.2,3.7,0.9,5.1,2
					C177.5,59,178.7,60.4,179.4,62z"/>
			</g>
			<g>
				<path class="st8" d="M148.5,60.2c-1.5-1-2.9-1.8-4.3-2.5c-1.4-0.7-2.9-1.1-4.4-1.3c-0.7-0.1-1.5,0-2.2,0
					c-0.4,0.1-0.7,0.2-1.1,0.2c-0.4,0.1-0.7,0.3-1.1,0.4c-0.4,0.1-0.7,0.3-1.1,0.5l-1.1,0.6c-0.7,0.4-1.4,0.9-2.2,1.3
					c0.4-0.8,0.9-1.5,1.5-2.2c0.6-0.6,1.2-1.3,2.1-1.8c0.4-0.2,0.8-0.5,1.2-0.7c0.4-0.2,0.9-0.3,1.3-0.5c0.9-0.2,1.9-0.3,2.8-0.2
					c1.9,0.2,3.7,0.9,5.1,2C146.5,57.2,147.7,58.6,148.5,60.2z"/>
			</g>
			<g>
				<path class="st8" d="M176.3,74.8c-0.5-1.7-1.2-3.3-2.1-4.7c-0.5-0.7-1-1.4-1.6-1.9c-0.6-0.5-1.4-0.8-2.1-0.9
					c-0.7-0.1-1.4,0.2-2,0.7c-0.6,0.5-1.1,1.2-1.5,1.9c-0.8,1.5-1.5,3.1-2,4.8c0.1-1.8,0.5-3.5,1.2-5.2c0.4-0.8,0.9-1.6,1.6-2.3
					c0.7-0.7,1.7-1.1,2.8-1c1,0.1,1.9,0.5,2.7,1.2c0.7,0.6,1.3,1.4,1.7,2.2C175.8,71.3,176.2,73.1,176.3,74.8z"/>
			</g>
			<g>
				<path class="st8" d="M146.5,74.8c-0.5-1.7-1.2-3.3-2.1-4.7c-0.5-0.7-1-1.4-1.6-1.9c-0.6-0.5-1.4-0.8-2.1-0.9
					c-0.7-0.1-1.4,0.2-2,0.7c-0.6,0.5-1.1,1.2-1.5,1.9c-0.8,1.5-1.5,3.1-2,4.8c0.1-1.8,0.5-3.5,1.2-5.2c0.4-0.8,0.9-1.6,1.6-2.3
					c0.7-0.7,1.7-1.1,2.8-1c1,0.1,1.9,0.5,2.7,1.2c0.7,0.6,1.3,1.4,1.7,2.2C146,71.3,146.4,73.1,146.5,74.8z"/>
			</g>
			<g>
				<g>
					<path class="st3" d="M144.3,85.2c1.7,0.8,3.2,1.9,4.6,3.3c1.3,1.3,2.5,2.9,3.2,4.8c0.7,1.8,0.9,3.8,0.4,5.7
						c-0.4,1.9-1.4,3.6-2.6,5c0.9-1.6,1.6-3.4,1.9-5.1c0.2-1.8,0.1-3.6-0.6-5.2c-0.6-1.7-1.6-3.2-2.8-4.6
						C147.1,87.6,145.7,86.3,144.3,85.2z"/>
				</g>
				<g>
					<path class="st3" d="M166.9,94.6c-1.2-0.2-2.4-0.3-3.6-0.4c-1.2,0-2.4,0-3.6,0.1c-2.4,0.2-4.7,0.7-7,1.3l-0.4-1.5
						c1.2-0.3,2.4-0.5,3.7-0.6c1.2-0.1,2.5-0.2,3.7-0.2C162.1,93.4,164.6,93.7,166.9,94.6z"/>
				</g>
			</g>
		</g>
		<g>
			<path class="st9" d="M118.3,66.4c0,0,2.8,3.5,3.2,15.8l3.8-0.6l-0.6-34.3c0,0,23.3,9.8,36.2,5.7l-8.2-4.4c0,0,26.2,9.1,43.8,1.9
				l-11.3-1.9c0,0,18.9-7.2,16.7-25.5c0,0-6.6,7.6-16.1,4.1c0,0,6.9-0.6,11-6.3c0,0-4.4,3.5-26.5-2.5s-36.2-6.3-41,11.3
				c0,0-11.7-3.5-17.3,8.5s2.8,30.9,2.8,30.9L118.3,66.4z"/>
			<path class="st9" d="M129.7,46.6c0,0-0.6,15.1-6.6,18.3c-6,3.2-6.6-16.4-6.6-16.4L129.7,46.6z"/>
			<path class="st9" d="M178.8,51.9c0,0-0.6,7.2,4.7,14.2v14.2l1.9,0.6c0,0,0.3-19.2-1.3-29.3C182.6,41.5,178.8,51.9,178.8,51.9z"/>
		</g>
	</g>
	<g>
		<path class="st10" d="M167.1,118.8c1.1,8,11.3,73,16.1,57.8c0,0-8.3-37.9-13.1-57.8C169.1,118.9,168.1,118.9,167.1,118.8z"/>
		<path class="st10" d="M161.4,103.3c0,0-3.7,20.4,8.5,18.9c12.2-1.5,3-20.7,3-20.7s-0.2,5.1,0.8,13.3c0,0,0.7,3.5-0.8,2.6
			c-1.2-0.7-1.9-12.5-4.2-15.7c0,0-0.1,7.1,1.4,13.6c1.1,5-0.8,2.4-2.3-3.5c-1.2-4.7-2.1-9.4-2.8-9.3c-0.8,0.1,0.5,10.5,0.6,14.8
			c0.1,2.6-0.5,0.7-1.5-2.9C163.5,112.3,162.8,106.7,161.4,103.3z"/>
		<path class="st1" d="M221.5,223.2c-5.4-24.6-28.2-59.8-28.2-59.8l0,0c-3.7-7.3-7.4-14.4-8.8-16.2c-2.9-3.8-15.6-7-16.7-6
			c-1.1,1.1,1.8,4.9,1.8,4.9s-5.3,0.3-0.4,5.2c0,0-4.2,2.9,2.2,7.7c0,0-3.8,1.1,0.3,4.1c3.6,2.5,8.5,5.7,9.8,6.5
			c2.6,19,10.3,72.6,17.3,81.6c1.1,1.5,10.2,8.8,13.9,5.2c0.7,0,1.4-0.2,1.9-0.5C222.1,251.9,226.9,247.8,221.5,223.2z"/>
	</g>
	<g>
		<g>
			<path class="st6" d="M93.1,272.5c0,2.3-8.4,4.2-18.9,4.2s-18.9-1.9-18.9-4.2c0-2.3,8.4-4.2,18.9-4.2S93.1,270.2,93.1,272.5z"/>
			<g>
				<path class="st11" d="M88.3,226.7H60.9l1.5,44.9h0c0,1.9,5.5,3.4,12.2,3.4c6.7,0,12.1-1.5,12.2-3.4h0L88.3,226.7z"/>
				<path class="st12" d="M61,226c0,1.9,6.1,3.4,13.7,3.4c7.5,0,13.7-1.5,13.7-3.4c0-1.9-6.1-3.4-13.7-3.4
					C67.1,222.7,61,224.2,61,226z"/>
				<g class="st13">
					<path class="st14" d="M85.2,234.4H64l1.2,34.7h0c0,1.5,4.2,2.6,9.4,2.6s9.4-1.2,9.4-2.6h0L85.2,234.4z"/>
					<ellipse class="st15" cx="74.7" cy="234.8" rx="10.7" ry="2.6"/>
				</g>
			</g>
		</g>
		<g>
			<ellipse class="st6" cx="158.7" cy="263.9" rx="61" ry="10.4"/>
			<g>
				<path class="st16" d="M95.9,252.6c0,0,12.2,22,57.5,19.3c45.2-2.6,49.9-19.3,49.9-19.3H95.9z"/>
				<g>
					<ellipse class="st17" cx="149.6" cy="251.4" rx="53.7" ry="12.8"/>
					<ellipse class="st16" cx="149.6" cy="250.7" rx="45.4" ry="10.5"/>
				</g>
			</g>
			<g>
				<path class="st18" d="M127.8,260.9c0,0-18.5-1.2-17.3-10.4c1.2-9.3-1.2-14.3,12.2-11.6c13.4,2.7-1.6,10.8,16.9,10.8
					s11.8,11.6,11.8,11.6S135.3,262.4,127.8,260.9z"/>
				<path class="st19" d="M119.4,254.1c0,0,12.2-10.9,26.5-10.5c14.3,0.4,0.4,18.1,0.4,18.1S122.7,259.6,119.4,254.1z"/>
				<path class="st19" d="M142.1,254.1c0,0,17.6-11.3,26.9-8.4c0,0-4.6,10.1,4.6,13.4c0,0-18.5,2.9-27.3,2.5
					C137.4,261.2,142.1,254.1,142.1,254.1z"/>
				<path class="st18" d="M165.6,260.4c0,0,9.7-10.9,16.8-12.2c7.1-1.3,10.9,5.9,10.9,5.9S183.2,260.4,165.6,260.4z"/>
				<path class="st19" d="M156.3,248.2l11.8-8.8l16,10.9l-7.6,6.3C176.5,256.6,161,260.8,156.3,248.2z"/>
				<path class="st4" d="M121.9,251.2c0,0-0.4-15.5,11.8-5.5L121.9,251.2z"/>
				<path class="st4" d="M172,252.9c0,0-3.8,15.1-12.8,2.1L172,252.9z"/>
				<path class="st4" d="M174.8,252.8c0,0,5.5-14.5,13-0.6L174.8,252.8z"/>
				<path class="st4" d="M150.9,251.3c0,0,5.2-14.7,12.9-0.9L150.9,251.3z"/>
				<path class="st4" d="M148.1,246.1c0,0-1.8,15.4-12.4,3.7L148.1,246.1z"/>
				<path class="st4" d="M137.5,257.9c0,0-11.6,8.8-10.6-6L137.5,257.9z"/>
				<polygon class="st18" points="141.2,248.2 148.8,241.1 162.2,254.5 141.2,259.6 				"/>
			</g>
		</g>
	</g>
</g>
</svg>
