<svg id="Layer_1" data-name="Layer 1" xmlns="http://www.w3.org/2000/svg" viewBox="0 0 300 300"><defs><style>.cls-1{fill:#e13856;opacity:0.08;}.cls-1,.cls-10,.cls-2,.cls-4,.cls-6,.cls-8,.cls-9{isolation:isolate;}.cls-2{fill:#103248;}.cls-2,.cls-8{opacity:0.1;}.cls-3{fill:#ea2424;}.cls-13,.cls-4,.cls-8{fill:#000912;}.cls-10,.cls-4{opacity:0.2;}.cls-5,.cls-9{fill:#ffd3b5;}.cls-10,.cls-12,.cls-6{fill:#f7996f;}.cls-6{opacity:0.5;}.cls-7{fill:#ffe385;}.cls-9{opacity:0.9;}.cls-11{fill:#1c3e59;}.cls-14{fill:#fff;}.cls-15{fill:#64e1d3;}.cls-16{fill:#78adf9;}.cls-17{fill:#8bede0;}.cls-18{fill:#4888ef;}</style></defs><g id="Page-1"><g id="For-you-and-your-partner-Copy-4"><g id="Group-4"><circle id="Mask-Copy-2" class="cls-1" cx="150" cy="150" r="150"/></g></g></g><ellipse class="cls-2" cx="138.2" cy="266.3" rx="122.3" ry="11.4"/><path class="cls-3" d="M49.8,98.2S13.9,89.5,10,144.3-27.8,271.4,96.9,269s131.5-44.2,117.4-81.5C203.2,157.8,119.7,112.7,49.8,98.2Z"/><path class="cls-4" d="M124.1,266.6C24.8,268.5,7.5,219.5,6.6,171.9-.7,220.6-7.6,271,96.9,269a380.58,380.58,0,0,0,45.3-3.2C136.5,266.2,130.5,266.5,124.1,266.6Z"/><path class="cls-4" d="M214.4,187.5c-11.2-29.7-94.6-74.7-164.5-89.3,0,0-29.6-7.2-38,32.5,10.7-11.6,18.1-7.2,18.1-7.2,12,2.4,17.7,13.4,28.1,20.9,29.9,21.5,65.3,47.1,86.9,64.1,10.8,8.5,29.6,2.9,39.8,7.3,10,4.3,18,28.1-2.8,41C223.9,241.1,224.1,213.2,214.4,187.5Z"/><path class="cls-5" d="M59.2,143S21.4,90.6,41.1,71,77,113.8,77,113.8,73.2,134.8,59.2,143Z"/><path class="cls-6" d="M77,113.8s-10.7-41-25.2-46.1c-10.9,17.8,10.4,52.8,18,64.4A57.27,57.27,0,0,0,77,113.8Z"/><path class="cls-5" d="M104,85.6s35.5-8.4,49.3-2.2c9.9,4.4,11.3,8.9,7.4,18.3s-19.5,28.6-33.5,36-22.9-19.2-22.9-19.2,23.2-16.5,30.3-19.7c0,0-14.6,2.2-35.3-2.7S104,85.6,104,85.6Z"/><path class="cls-6" d="M115.8,83.3c-6.9,1.1-11.8,2.3-11.8,2.3S78.6,91.1,99.3,96a110.67,110.67,0,0,0,20.3,3A123.7,123.7,0,0,0,115.8,83.3Z"/><path class="cls-6" d="M149.2,116c-7.4-4.9-15.5-10-24.3-11.6-9.7,6.1-23.4,16.1-23.4,16.1s9,27.2,23.3,19.6c9.1-4.8,19-14.8,25.8-23.2C150.2,116.6,149.6,116.3,149.2,116Z"/><path class="cls-7" d="M128.4,138.9s13.3-8.6,18.5-14.3c0,0-5.3-13.3-24.7-20l-21,11.6Z"/><path class="cls-8" d="M142.8,118.3c-6.4,4.8-19.5,10.7-19.5,10.7l-14.9-16.8-7.2,4,27.1,22.7s13.3-8.6,18.5-14.3C146.9,124.6,145.8,121.9,142.8,118.3Z"/><path class="cls-7" d="M120,119.8c-15.7-12.5-40.1-4.8-44-3.5l-4-8.4L50.4,132.7c2.6,4.9,9.6,13.2,10.2,13.8,1,5.6,33.5,48.3,63.1,56.4l37.9-37.7C161.5,165.1,137.1,133.4,120,119.8Z"/><path class="cls-8" d="M114.6,117.3a3,3,0,0,1,.5-.7c-15.5-7.9-35.7-1.6-39.2-.4l-4-8.4L61.4,120C71.1,132.4,99.6,142.6,114.6,117.3Z"/><path class="cls-9" d="M63.1,77.7s19.6-15.4,29.6-7,19.8,38.1,19.8,38.1-15.6,8.6-32.4,11.5C80.1,120.4,65.7,101,63.1,77.7Z"/><path class="cls-10" d="M85.8,109.2a73.05,73.05,0,0,1-7.5-14.4,49.67,49.67,0,0,1-3.9-19,.76.76,0,0,1,.2-.5,39.56,39.56,0,0,0-2.2-3.4,62.12,62.12,0,0,0-9.2,5.7c2.6,23.3,17,42.7,17,42.7A101,101,0,0,0,96,116h-.2C91.4,115.2,88.3,112.8,85.8,109.2Z"/><path class="cls-11" d="M108.1,96.9s3.7,8.1,2.8,9.7-2.1-9.7-8.7-6.6-16.1,2-15.8,9.1,1.7,8.4-1.5,8.2S75.5,113.9,69.5,89c0,0,3.6-1.9,0-11,0,0,15,5.8,24.9-2.9l-8.9-1.5s8.4,1.3,15.5-2.3l-6.5-1.6s7.8-.6,8.7-8.3a52.52,52.52,0,0,1-16.3-2.6,9.29,9.29,0,0,1-1.3-.4h.2a24.87,24.87,0,0,0,3.2.8q1.5.3,2.7.6a8.81,8.81,0,0,0,2.1.3h1.4a1.75,1.75,0,0,1,.5-.1,1.75,1.75,0,0,1-.5-.1h-.3c-.1,0-.2-.1-.3-.1s-.5-.1-.7-.2c-.5-.2-1.2-.5-1.9-.8l-2.5-1.1L88,57.1a9.83,9.83,0,0,0-1.6-.5c-.6-.2-1.2-.3-1.8-.5-.3-.1-.6-.1-.9-.2s-.6-.1-1-.1c-.6-.1-1.3-.1-2-.2a13.33,13.33,0,0,0-2,0h-1c-.4,0-.7.1-1.1.1a.75.75,0,0,0-.5.1l-.5.1-1,.2a19.56,19.56,0,0,0-4.1,1.3A12.11,12.11,0,0,0,67,59.8a14.25,14.25,0,0,0-2.5,3,27.93,27.93,0,0,0-1.5,3,19.61,19.61,0,0,0-1,4.5v.1s-6.1.3-8.7,8.1C49.9,88.8,62.2,100,62.2,100s2.9-3.7,5.7,2.4,5.1,21.4,16.8,23.7,29.4-1.7,30.8-11.3S108.1,96.9,108.1,96.9Z"/><path class="cls-4" d="M105.1,119.8c-4.7,1.1-10.6,2.1-15.1-.4a12.26,12.26,0,0,1-3.3-2.6c-.2.5-.8.6-1.9.6-3.2-.2-9.4-3.4-15.4-28.3,0,0,3.6-1.9,0-11a37.83,37.83,0,0,0,5.4,1.4,17.67,17.67,0,0,1-4.6-8.3c-1-4.7-.3-9.5.8-14.1a1.69,1.69,0,0,1-.5.2A12.11,12.11,0,0,0,67,59.7a14.25,14.25,0,0,0-2.5,3,27.93,27.93,0,0,0-1.5,3,19.61,19.61,0,0,0-1,4.5v.1s-6.1.3-8.7,8.1c-3.4,10.3,8.9,21.5,8.9,21.5s2.9-3.7,5.7,2.4S73,123.7,84.7,126c11.4,2.2,28.7-1.6,30.7-10.8A25.94,25.94,0,0,1,105.1,119.8Z"/><path class="cls-5" d="M68,101.3s-3.2-5.8-5.5-5.7-6,1.8-4.2,6.5,7.7,8.6,11.9,7.1C70.2,109.2,71.1,106,68,101.3Z"/><path class="cls-10" d="M68,101.3s-3.2-5.8-5.5-5.7-6,1.8-4.2,6.5,7.7,8.6,11.9,7.1C70.2,109.2,71.1,106,68,101.3Z"/><path class="cls-12" d="M96.6,101.7c2.1-1.7,4.3-3.3,6.5-4.9l-.1.9c-1-1-1.9-2-2.9-3s-1.8-2.1-2.7-3.1a55.56,55.56,0,0,1-5-6.7,55.76,55.76,0,0,1,6.1,5.8c.9,1,1.9,2,2.8,3.1a40.31,40.31,0,0,1,2.6,3.2l.4.6-.6.3C101.4,99.2,99.1,100.5,96.6,101.7Z"/><path class="cls-13" d="M94.7,84.5A13.56,13.56,0,0,0,96.9,87a3.1,3.1,0,0,0,1.3.6,2.85,2.85,0,0,0,1.3,0c1-.2,1.4-.6,1.4-1.6a10,10,0,0,0-.8-3.2,5.72,5.72,0,0,1,2,3,2.34,2.34,0,0,1-.4,2.1,7.27,7.27,0,0,1-.9.8,3.81,3.81,0,0,1-1,.3,3.76,3.76,0,0,1-2.1-.1,3.09,3.09,0,0,1-1.6-1.1A5.41,5.41,0,0,1,94.7,84.5Z"/><path class="cls-13" d="M78.2,91.2a13.56,13.56,0,0,0,2.2,2.5,3.1,3.1,0,0,0,1.3.6,2.85,2.85,0,0,0,1.3,0c1-.2,1.4-.6,1.4-1.6a10,10,0,0,0-.8-3.2,5.72,5.72,0,0,1,2,3,2.34,2.34,0,0,1-.4,2.1,7.27,7.27,0,0,1-.9.8,3.81,3.81,0,0,1-1,.3,3.76,3.76,0,0,1-2.1-.1,3.09,3.09,0,0,1-1.6-1.1A5.66,5.66,0,0,1,78.2,91.2Z"/><path class="cls-13" d="M74.3,89a4.74,4.74,0,0,1,.6-3.5A6.67,6.67,0,0,1,77.4,83a6.23,6.23,0,0,1,3.5-.8,5.18,5.18,0,0,1,3.3,1.4c-1.1.7-2,1.1-2.7,1.6a19.61,19.61,0,0,0-2.1,1.2l-2.2,1.2A18.8,18.8,0,0,0,74.3,89Z"/><path class="cls-13" d="M91.5,82.7a4.39,4.39,0,0,1,.2-2.8,5,5,0,0,1,1.8-2.3,4.36,4.36,0,0,1,2.9-.9A3.51,3.51,0,0,1,99.1,78l-2.2,1.1c-.5.4-1,.7-1.5,1.1a12.49,12.49,0,0,1-1.7,1.2C93.1,81.8,92.4,82.2,91.5,82.7Z"/><path class="cls-14" d="M89.8,107.9s10.4-2.2,17.1-5.5C106.9,102.4,103.3,112.5,89.8,107.9Z"/><path class="cls-12" d="M68.1,107.4a4.33,4.33,0,0,1-1.6.1,3.18,3.18,0,0,1-.9-.3,1.46,1.46,0,0,1-.6-.9,2.05,2.05,0,0,1,0-1.1,1.93,1.93,0,0,1,.5-.9,3.84,3.84,0,0,1,1.8-.9l-.6,1c-.4-.7-.8-1.4-1.2-2a22.63,22.63,0,0,0-1.3-2,12.17,12.17,0,0,0-1.5-1.7,1.53,1.53,0,0,0-2-.2,1.44,1.44,0,0,1,1.1-.7,2.2,2.2,0,0,1,1.4.2,8.34,8.34,0,0,1,2.1,1.6,9.51,9.51,0,0,1,1.5,2,15.45,15.45,0,0,1,1.2,2.2l.5.9-1,.1a2.1,2.1,0,0,0-1.1.4,1.38,1.38,0,0,0-.3.4.75.75,0,0,0-.1.5.4.4,0,0,0,.2.4,2.18,2.18,0,0,0,.5.4A5.78,5.78,0,0,0,68.1,107.4Z"/><path class="cls-5" d="M209.7,244.8s-3.3,16.2-1.2,18.9,55.2,15.3,11.9-3.7c0,0,6.7-29.9,8.5-38.7S209.7,244.8,209.7,244.8Z"/><path class="cls-6" d="M208.2,254.4a85.48,85.48,0,0,0,13.4.2c2-9,6-27,7.3-33.4,1.8-8.8-19.1,23.6-19.1,23.6A92.07,92.07,0,0,0,208.2,254.4Z"/><path class="cls-14" d="M225.3,260.1l-4.8,5.4-14.6-3.4-.1,2.5s33.2,9.8,32.8,5.1C238.3,265.2,225.3,260.1,225.3,260.1Z"/><path class="cls-15" d="M161.3,169.1s63.8-8.2,73.9,2.9S232,244,225,252.6c0,0-10.9,2.7-17.5-4.4l4.9-53.9s-60.1,28.1-72.7,13S161.3,169.1,161.3,169.1Z"/><path class="cls-16" d="M161.3,169.1s63.8-8.2,73.9,2.9S232,244,225,252.6c0,0-10.9,2.7-17.5-4.4l4.9-53.9s-60.1,28.1-72.7,13S161.3,169.1,161.3,169.1Z"/><path class="cls-17" d="M206.7,244.7l.6,6.3s11.6,5.4,19.9,1.4l.6-2.4C227.7,249.9,213.5,247.3,206.7,244.7Z"/><path class="cls-16" d="M206.7,244.7l.6,6.3s11.6,5.4,19.9,1.4l.6-2.4C227.7,249.9,213.5,247.3,206.7,244.7Z"/><path class="cls-5" d="M258.5,198.1s10.7,12.6,14.1,12.6,46.1-34,4.4-11.6c0,0-19.4-23.8-25.2-30.6S258.5,198.1,258.5,198.1Z"/><path class="cls-6" d="M265.2,205.3a84.86,84.86,0,0,0,8.4-10.4c-5.8-7.1-17.5-21.4-21.8-26.4-5.8-6.8,6.8,29.6,6.8,29.6A96.86,96.86,0,0,0,265.2,205.3Z"/><path class="cls-18" d="M122.6,205.5s27.9,14.2,45.4,4.9S221,165,221,165s28.7,29.3,40.7,38c0,0,11.1-6.7,11.1-12.1s-43.6-60.5-51.8-61.6S168.6,148.1,122.6,205.5Z"/><path class="cls-16" d="M256.5,200.7l5,3.2s10.8-5.5,12.6-14l-1.5-1.8C272.7,188.1,262.5,197.2,256.5,200.7Z"/><path class="cls-14" d="M280.2,195.4l1.3,7.1-11.6,9.4,1.9,1.6s28.1-20.1,24.3-22.6S280.2,195.4,280.2,195.4Z"/><path class="cls-8" d="M134.3,174.6C108.8,152.4,74.2,144,56,140.9c2.2,2.9,4.2,5.2,4.5,5.5,1,5.6,33.5,48.3,63.1,56.4l7.1-7c-2.7,3.1-5.4,6.3-8,9.7,0,0,27.9,14.2,45.4,4.9.3-.2.6-.3.9-.5A305.72,305.72,0,0,0,134.3,174.6Z"/><path class="cls-3" d="M38.2,138.9s67.9,5.3,128.6,84.9C212.8,284.2,38.2,189.4,38.2,138.9Z"/></svg>