<?xml version="1.0" encoding="utf-8"?>
<!-- Generator: Adobe Illustrator 25.0.0, SVG Export Plug-In . SVG Version: 6.00 Build 0)  -->
<svg version="1.1" id="Layer_1" xmlns="http://www.w3.org/2000/svg" xmlns:xlink="http://www.w3.org/1999/xlink" x="0px" y="0px"
	 viewBox="0 0 300 300" style="enable-background:new 0 0 300 300;" xml:space="preserve">
<style type="text/css">
	.st0{opacity:8.000000e-02;fill:#E13856;enable-background:new    ;}
	.st1{fill:#D12424;}
	.st2{fill:#EA8888;}
	.st3{fill:#030231;}
	.st4{fill:#0B0754;}
	.st5{fill:#FC9290;}
	.st6{fill:#ED6966;}
	.st7{fill:#93B3F4;}
	.st8{fill:#6D89CF;}
	.st9{fill:#FFFFFF;}
	.st10{fill:#9E332E;}
	.st11{fill:#E03B3B;}
	.st12{fill:#3662C1;}
	.st13{fill:#010117;}
	.st14{fill:#BED2FA;}
</style>
<g id="Page-1">
	<g id="For-you-and-your-partner-Copy-4">
		<g id="Group-4">
			<circle id="Mask-Copy-2" class="st0" cx="150" cy="150" r="150"/>
		</g>
	</g>
</g>
<g>
	<g>
		<path class="st1" d="M295.8,296.9h-37.6c-2-1.7,1.4-5.6,5-5.9c1.6-0.1,3.5,0.2,5.7,0.7c0.5-6.9,3.5-37.8,14.6-36.6
			c12.5,1.4,0,13.6-3.5,20.9c-2.6,5.4-5.4,13.1-6.7,16.7c1,0.2,2.1,0.4,3.1,0.6c1.7-5.1,7.8-22.3,15.7-21.3c9.2,1.2,5.5,8-1,12.1
			c-4.8,3-10.7,7.3-13.5,9.3c2.4,0.4,4.9,0.6,7.4,0.6C291.4,293.9,294.6,295.9,295.8,296.9z"/>
	</g>
	<g>
		<g>
			<g>
				<path class="st2" d="M97.7,85.4c0,0,9,4.2,11,3.7c2-0.5,9.8-1.9,10.9-1.4c0,0,1.2,2,0.3,3.3c-0.9,1.3-8.5,4.8-11.2,4.9
					c-2.7,0.1-13-1.7-15.2-3.5L97.7,85.4z"/>
			</g>
			<g>
				<path class="st2" d="M119.3,87.8c0,0,3.5-1.4,4.6,0.2c1.1,1.6,1.8,3.2,1.6,4c-0.1,0.8-2.5,1.2-3.4,0.5c-0.9-0.6-3.2-1.5-3.2-1.5
					L119.3,87.8z"/>
			</g>
		</g>
		<g>
			<path class="st3" d="M135.8,288.8c0,0-1.9,3.1-1.9,6.7c0,0.8,0.6,1.4,1.4,1.4h11.9c1.2,0,2-1.1,1.7-2.2c-0.6-2.2-1.7-5.5-4.1-7.5
				C141,284.1,135.8,288.8,135.8,288.8z"/>
		</g>
		<g>
			<path class="st3" d="M117,285.7c0,0-0.7,11-2.8,11.2c-0.3,0-10.8,0-10.8,0l-13.6,0c0,0,0.2-3.3,4.2-4c3.9-0.7,10.5-3.4,12.9-8.6
				C109.3,278.8,117,285.7,117,285.7z"/>
		</g>
		<g>
			<g>
				<path class="st3" d="M122.7,217.6c-0.5,6.1-0.5,11,0.1,13.2c2.8,10.3-5.1,56.5-5.1,56.5c-5.8,2.8-14,0-14,0
					c0.5-6.4-2.5-63.8-5.4-98.8c-1.2-14.7-2.1-25-2.1-25l34.7-4C130.9,159.5,124.3,196.3,122.7,217.6z"/>
			</g>
			<g>
				<path class="st3" d="M130.9,159.5c0,0-6.6,36.8-8.3,58.1l-24.4-29.1c-1.2-14.7-2.1-25-2.1-25L130.9,159.5z"/>
			</g>
		</g>
		<g>
			<path class="st4" d="M113.9,167.3c0,0,17.6,102.3,20.6,122.1c0,0,6.6,1.8,13.3-1c0,0,0.9-47.5-1.4-61.8
				c-2.3-14.3,1.2-58.6-2.5-62.7C140.2,159.8,113.9,167.3,113.9,167.3z"/>
		</g>
		<g>
			<path class="st5" d="M115.7,80.1c0,0-1.3,9.1-0.8,11.8c0.6,2.7,9.6,4.2,13.4,1.9c3.8-2.2,2.6-3.1,2.6-3.1s-0.6-10.4-1.1-11.1
				C129.4,78.9,115.7,80.1,115.7,80.1z"/>
		</g>
		<g>
			<path class="st1" d="M144.8,135.6c1.2-11.4,0.9-20-0.2-26.5c-3.3-19-13.6-19.6-13.6-19.5c0,2.6-5.5,4.9-9.9,4.6
				c-3.7-0.2-6.2-3.1-6.2-4.6c0,0-0.1,0-0.2,0c-1,0-5.4,0.1-9.6,0.8c-3,0.5-5.9,1.4-7.3,2.8c-0.7,0.7-3.2,2.8-6.4,5.6
				c-8.2,7.1-21.1,19-20.5,26.1c0,0,15.9,11.7,26,4.4c-0.5,19-4,39.1-3.1,39.1c0,0,5.6,4.9,22.7,4.9c9.3,0,16.1-0.8,20.7-1.7
				c6.4-1.3,8.9-2.7,8.9-2.7C147.3,168.8,144.4,139.5,144.8,135.6z"/>
		</g>
		<g>
			<path class="st1" d="M145.9,168.8c0,0-2.5,1.5-8.9,2.7c-8.8-3.9-26.3-14-27-30.9c-0.9-22.5,26.6-35.9,26.6-35.9s3.7,2.1,7.9,4.5
				c1.1,6.5,1.4,15.1,0.2,26.5C144.4,139.5,147.3,168.8,145.9,168.8z"/>
		</g>
		<g>
			<path class="st2" d="M115.6,81.2c0,0,3.5,4.9,7.2,5c3.7,0,7.5-4.9,7.5-4.9L115.6,81.2z"/>
		</g>
		<g>
			<path class="st5" d="M115.2,80.9c1,0.8,3.1,1.8,4.9,2.5c1.3,0.5,2.8,0.6,4.2,0.1c2-0.7,5.1-1.8,5.9-2.3c1.9-1.1,1.7-3.4,1.8-6.6
				c0.1-3.7,0.5-6.7,0.1-8.8c-0.5-2.6-2.1-4.1-6.7-4.5c-8.4-0.7-11.9,1.4-12.1,4.2c0,0.8-0.1,1.5-0.1,2.2
				C113,76.5,113.6,79.7,115.2,80.9z"/>
		</g>
		<g>
			<path class="st3" d="M113.3,66.6c0,0,1.4-2,4-1.2c2.6,0.8,2.9,3,7.3,2.7c4.4-0.4,5.5-2.4,6.3-1.4c0.8,1,1.3,7.2,1.3,7.2
				s8.9-20.3-9.1-20.3c0,0-18.6-1.1-9.7,19.5V66.6z"/>
		</g>
		<g>
			<path class="st5" d="M80.6,85.8L80.6,85.8C80.6,85.9,80.6,85.8,80.6,85.8z"/>
		</g>
		<g>
			<path class="st2" d="M122.1,148.2c0,0-2.4,1.9-5.8,1.9c0,0-3.5-3.9-6.5-7.6c-1.9-2.4-3.6-4.8-4-6c-0.9-3.1-17.5-4-19.5-6.2
				c-2-2.2,8.2-7.8,8.2-7.8s16.8,2.6,19.3,5.9c1,1.3,2.5,4.7,3.9,8.4C120,142.2,122.1,148.2,122.1,148.2z"/>
		</g>
		<g>
			<path class="st6" d="M98.5,102.1c0,0,3.2-6.2,4.8-6c1.6,0.2-3.6,12.8-4.1,18.9C98.7,121.2,98.5,102.1,98.5,102.1z"/>
		</g>
		<g>
			<path class="st5" d="M108.5,144.7c-2.2,5.4-5.1,10.2-5.4,10.9c0,0,0,0.1,0,0.1s0,0-0.1,0c-0.5,0-5.2-0.1-5.6-2
				c0,0-0.1-6.4,0.1-11.5c0.1-2.3,0.3-4.3,0.6-5.4c0,0-25-0.2-24.6-7.3c0.4-7.1,13.5-10.8,21.1-7.2c0,0,10,3.6,15.2,8.4
				C112.4,133.2,110.8,139.2,108.5,144.7z"/>
		</g>
		<g>
			<path class="st4" d="M74.3,119.6c0,0-3.3,4.9-2.6,9.5c0.8,4.6,10.3,7,17,7.3c0,0,19-4.4,16.1-12
				C104.1,122.7,74.3,119.6,74.3,119.6z"/>
		</g>
		<g>
			<path class="st4" d="M81.2,59.4c0,0-3-6.2-10.3-2.4c-7.3,3.8-0.2,18-4,21.6c-3.8,3.6,1.4,5.9,0.6,8.5c-0.8,2.6,1.4,5.5,6.6,5.1
				c5.1-0.3,10.5-0.1,12.8-4.5c2.3-4.5,1.8-14.3,0.9-15.7C86.8,70.6,81.2,59.4,81.2,59.4z"/>
		</g>
		<g>
			<path class="st5" d="M93,93.3l-12.4-7.5c0.1,0,0.3-0.4,1.2-3.1c0.4-1.1,0.6-2.1,0.7-2.9c0-0.1,0-0.2,0-0.2c0.1-1.1,0-1.8,0-1.8
				l2.7,1l5,1.8c-0.1,1.3,0.1,2.2,0.4,2.8c0.7,1.5,1.9,1.5,1.9,1.5L93,93.3z"/>
		</g>
		<g>
			<path class="st2" d="M90.8,83.4c-4.9,0.4-7.6-2.8-8.2-3.6c-0.1-0.1-0.1-0.2-0.1-0.2s0.1,0,0.2,0c0.4-0.1,1.5-0.4,2.8-0.8l5,1.8
				C90.3,81.9,90.5,82.8,90.8,83.4z"/>
		</g>
		<g>
			<path class="st5" d="M91,81.6c0,0-10.8,1.2-11-6.1c-0.2-7.3-1.8-10.6,5.7-11.3c7.5-0.7,9.2,2,9.7,4.5C96.7,76.5,94,81.3,91,81.6z
				"/>
		</g>
		<g>
			<path class="st4" d="M86.2,67.9c-3.8-1-2.4,5.8-3.3,5.4c-1.1-0.5-3-0.5-2.7,0.8c0.3,1.3,0.7,1.8,0.9,2.6c0.2,0.8,0,2.4-0.9,2.1
				c-0.9-0.3-9.2-9.8-3.3-17.2c5.9-7.4,23.4-2.8,17.9,4.9C93.8,67.8,88.9,68.5,86.2,67.9z"/>
		</g>
		<g>
			<path class="st7" d="M100.1,122.4c0,0-3.2,1.7-8.4,1.6c-3.3,0-10.2-1.5-14.6-3.1c-2.5-0.9-4.3-1.9-4.1-2.7
				c0.3-1.2,2.5-10.2,4.5-18.6c1.8-7.7,3.5-14.8,3.5-14.8s5.1,3.6,8,2.3c2.9-1.3,2.6-2.7,2.6-2.7s3.5-0.4,4.4-0.3
				c1.5,0.2,6.8,2.1,6.8,2.1s0.7,2-1.2,5c-1.5,2.5-3,3-3,3S103,108.1,100.1,122.4z"/>
		</g>
		<g>
			<path class="st5" d="M83.8,110.2c0,0,3.1-0.6,4.3,0.2c1.2,0.8,1.6,2,0.7,2.6c-2.8,1.6-5.5-0.2-5.5-0.2L83.8,110.2z"/>
		</g>
		<g>
			<path class="st8" d="M77.1,121c-2.5-0.9-4.3-1.9-4.1-2.7c0.3-1.2,2.5-10.2,4.5-18.6c0.6-1.1,1-1.7,1-1.7S82.3,115.3,77.1,121z"/>
		</g>
		<g>
			<path class="st5" d="M81.2,85.9c0,0-9.6,2-13.4,17c-0.4,1.5,0,3,1,4.1c1.7,1.9,5.6,4.8,14.5,5.8c1,0.1,1.1-2.4,1.1-2.4
				c-0.1,0.2-6.1-3.9-8.6-6c-0.5-0.4-0.4-1.2-0.1-1.7c0.9-1.3,2.3-3.6,2.8-4.7C79.2,96.2,83.9,86.6,81.2,85.9z"/>
		</g>
		<g>
			<path class="st7" d="M81.1,84.9c0,0-5.7,0.4-10.3,6.5c0,0,1.6,5.7,8.9,7.2C79.7,98.6,84.2,88.4,81.1,84.9z"/>
		</g>
		<g>
			<path class="st9" d="M108.5,144.7c-2.2,5.4-5.1,10.2-5.4,10.9c0,0-0.1,0-0.1,0.1c-0.5,0-5.2-0.1-5.6-2c0,0-0.1-6.4,0.1-11.5
				C98.2,142.9,101,145,108.5,144.7z"/>
		</g>
		<g>
			<path class="st9" d="M122.1,148.2c0,0-2.4,1.9-5.8,1.9c0,0-3.5-3.9-6.5-7.6c3.3-1.4,6.9-4.6,8.1-5.8
				C120,142.2,122.1,148.2,122.1,148.2z"/>
		</g>
		<g>
			<path class="st10" d="M110.2,162.6c-0.1,0.6-0.7,1-1.3,0.8c-1.4-0.3-3.9-0.8-4.9-1.2c-1.5-0.5-4.3-2.2-5.8-2.7
				c-0.5-0.2-1.7-0.7-2.5-1c-0.4-0.2-0.6-0.6-0.5-1.1c0.3-0.9,0.8-2.4,1.5-3.7c0.1-0.2,0.3-0.4,0.6-0.5c0.8,0.6,2,1.3,3.6,1.3
				c1.3,0,2.4-0.3,3.2-0.7c0.1,0.2,2.1,4.3,3.5,4.8C108.9,159,110.6,160.3,110.2,162.6z"/>
		</g>
		<g>
			<path class="st10" d="M131.2,148.3c0.3,0.5,0.1,1.2-0.5,1.4c-1.3,0.6-3.6,1.8-4.6,2.1c-1.5,0.5-4.7,0.9-6.2,1.4
				c-0.5,0.2-1.8,0.5-2.6,0.8c-0.4,0.1-0.9-0.1-1.1-0.5c-0.4-0.9-0.9-2.4-1.1-3.8c0-0.3,0-0.5,0.1-0.8c1,0,2.3-0.2,3.6-1.2
				c1-0.8,1.7-1.7,2.1-2.5c0.2,0.1,4.3,2,5.7,1.6C128,146.3,130,146.2,131.2,148.3z"/>
		</g>
		<g>
			<path class="st11" d="M110.9,140.2c0,0-0.7,4.2-3.4,6.1c0,0-11-1.5-21.3-4.1c-7.5-1.9-14.7-4.4-16.7-7.3
				c-4.8-6.8,2.5-15.2,2.5-15.2s14.2,6.8,29.5,15.2C104.6,136.6,107.8,138.4,110.9,140.2z"/>
		</g>
		<g>
			<path class="st5" d="M94.3,146.3c0,0-3.3,0.3-4.5,1.5c-1.2,1.2-3.1,4.8-1.8,6.3c1.3,1.4,7.7-1.7,7.9-2.2
				C96.1,151.3,94.3,146.3,94.3,146.3z"/>
		</g>
		<g>
			<path class="st6" d="M110.9,140.2c0,0-0.7,4.2-3.4,6.1c0,0-11-1.5-21.3-4.1c4.8-4.2,11.1-6.3,15.3-7.3
				C104.6,136.6,107.8,138.4,110.9,140.2z"/>
		</g>
		<g>
			<path class="st11" d="M148.3,95.1c-2.2-5.2-16.7-5.4-16.7-5.4c-7.4,19.4-9.1,32.1-11.1,40.2c-0.3,0-0.6,0-0.9,0
				c0,0-10.4,4-25.8,15.2c0,0-1.6,4.4,1.3,8c0,0,26.5-5.9,34-10.2c0,0,0,0,0,0c0.1,0,0.1-0.1,0.2-0.1c0.1-0.1,0.2-0.1,0.3-0.2
				C153.8,127,151.5,102.6,148.3,95.1z"/>
		</g>
	</g>
	<g>
		<path class="st3" d="M89.4,195.6c-0.9,0.1-3,0.4-3,0.4l-1-9.5C85.3,186.5,88.8,193.2,89.4,195.6z"/>
	</g>
	<g>
		<g>
			<path class="st5" d="M86.6,188c0,0,7.4,2.6,6.4,11.1c0,0-0.7,3.5-2.8,1.9c-2.1-1.5-1.1-1.3-4.2-3.4c-3.1-2.1-5.1-5.4-4.7-8.1
				L86.6,188z"/>
		</g>
		<g>
			<path class="st7" d="M87,188.6l-4.4,5.3c-0.2,0.3-0.5,0.4-0.8,0.3c-4.1-0.8-18.4-9.9-23-13.7c-0.5-0.4-0.9-0.7-1.2-1
				c-1.7-1.8-7.7-10.5-12-18.3c-2.4-4.5-4.3-8.6-4.5-11c-0.5-8.3,3.8-20,3.8-20c13,4.5,14.3,14.8,14.3,14.8l7.2,26.7l20.3,15.2
				C87.3,187.5,87.3,188.1,87,188.6z"/>
		</g>
		<g>
			<path class="st8" d="M58.7,180.6c-0.5-0.4-0.9-0.7-1.2-1c-1.7-1.8-7.7-10.5-12-18.3c-0.6-4.7-0.2-9.1,1.8-12.2
				C47.3,149.1,58.4,168.5,58.7,180.6z"/>
		</g>
		<g>
			<path class="st5" d="M51.3,257.6l-2.2,9.2l-1.4,5.7l-4.5,18.9c0,0-3.9,1.2-7.9,0c0,0-1.5-6.3-1.5-14.1c0-4.1,0.4-8.6,1.5-12.8
				c0.5-1.7,1.1-3.4,1.9-5C43.5,246.3,51.3,257.6,51.3,257.6z"/>
		</g>
		<g>
			<path class="st4" d="M55,296.9H33.7c0,0-0.3-3.2,0.6-6.3c0.1-0.5,0.3-0.9,0.5-1.4c0,0,4.8,1.1,8.9,0c0,0,3.9,3.3,6.2,4.3
				C52.2,294.5,54.8,293.9,55,296.9z"/>
		</g>
		<g>
			<path class="st2" d="M49,266.7l-1.4,5.7c-2.3,1.5-7.3,4.2-14,4.8c0-4.1,0.4-8.6,1.5-12.8c2-1,4-1.5,5.7-1.2
				C45.1,263.9,47.6,265.5,49,266.7z"/>
		</g>
		<g>
			<path class="st3" d="M43.9,296.9H33.7c0,0-0.3-3.2,0.6-6.3C36.9,291.4,42.1,293.4,43.9,296.9z"/>
		</g>
		<g>
			<path class="st5" d="M34.3,257.6l-2.2,9.2l-1.4,5.7l-4.5,18.9c0,0-3.9,1.2-7.9,0c0,0-1.5-6.3-1.5-14.1c0-4.1,0.4-8.6,1.5-12.8
				c0.5-1.7,1.1-3.4,1.9-5C26.5,246.3,34.3,257.6,34.3,257.6z"/>
		</g>
		<g>
			<path class="st4" d="M17.8,289.2c0,0,4.8,1.1,8.9,0c0,0,3.9,3.3,6.2,4.3c2.3,1,4.9,0.5,5.2,3.4H16.7
				C16.7,296.9,16.3,292.6,17.8,289.2z"/>
		</g>
		<g>
			<path class="st2" d="M32.1,266.7l-1.4,5.7c-2.3,1.5-7.3,4.2-14,4.8c0-4.1,0.4-8.6,1.5-12.8c2-1,4-1.5,5.7-1.2
				C28.1,263.9,30.6,265.5,32.1,266.7z"/>
		</g>
		<g>
			<path class="st1" d="M55.7,266.1c-0.5,1.9-2.2,3.2-4.2,3.2H17.3c-2.6,0-4.6-2.2-4.4-4.8c0.4-4.7,1.6-12.3,2.2-17.4
				c0.2-2.1,0.3-3.8,0.2-4.7c-3.5-22.8-6.3-49.7-6-54.9c0-0.7,0.1-1.1,0.1-1.1s2.5-0.2,6.3-0.4c11-0.4,33-0.4,36.6,6.8
				c3.7,7.3,6,56,6,56C58.8,253.6,56.9,261.6,55.7,266.1z"/>
		</g>
		<g>
			<path class="st11" d="M15.1,247.2c0.2-2.1,0.3-3.8,0.2-4.7c-3.5-22.8-6.3-49.7-6-54.9c0-0.7,0.1-1.1,0.1-1.1s2.5-0.2,6.3-0.4
				c5.7,3.4,9.4,9.1,9.4,9.1S23.9,237.9,15.1,247.2z"/>
		</g>
		<g>
			<path class="st9" d="M36.3,92.5c-2.7-0.7-4.3,1.5-4.3,4c0,2.5,2.1,4.6,4.6,4.6s4.6-2.9,4.6-5.5C41.2,93.1,38.8,93.1,36.3,92.5z"
				/>
		</g>
		<g>
			<path class="st9" d="M34.9,118.7c0,0-14.2-12.8-1.3-21.9c0,0,3.8-1,5.8-0.7c0,0,7-2,11.1,2.7c4.1,4.8,5.9,8.2,2.4,12.4
				C49.3,115.6,34.9,118.7,34.9,118.7z"/>
		</g>
		<g>
			<path class="st5" d="M18.6,196.1c0,0,3.5,7-3.2,12.4c0,0-2.9,2-3.4-0.6c-0.4-2.6,0.1-1.7-0.6-5.3c-0.7-3.6,0.2-7.4,2.3-9.1
				L18.6,196.1z"/>
		</g>
		<g>
			<path class="st5" d="M46.6,118.6c0,0-0.2,1.9-0.5,4.5c-0.2,1.3-0.4,2.7-0.6,4.1c-0.2,1-0.3,2.1-0.5,3.1l-4.4,14.9l-10.3-16.7
				c0,0,2.4-2,5.7-12.9c0-0.1,0.1-0.2,0.1-0.2L46.6,118.6z"/>
		</g>
		<g>
			<path class="st7" d="M52.6,192c0.1,1.7-0.3,2-0.3,2s-6.4,2.3-22.4,1.5c-1.7-0.1-3.4-0.2-4.9-0.3C14.8,194.6,9.3,194,9.3,194
				s-8.4-19.5,7.4-43.5c1.8-2.7,3.9-5.5,6.4-8.3c2.6-2.9,3.1-6.8,4.1-10.6c0.3-1.1-0.5-1.3-0.1-2.3c0,0,2.9-0.8,3.2-0.8
				c1.6,1.4,3.8,4.3,9.2,4.8c3.6,0.4,5.1-1.7,5.6-2.9c1.4,0.5,2.8,1.4,4,1.9c9.7,4.7,10.6,13.8,10.6,13.8s-9,29.4-9.5,33.1
				C49.9,180.8,51.9,183.4,52.6,192z"/>
		</g>
		<g>
			<path class="st2" d="M46.1,123.1c-0.2,1.3-0.7,4.7-0.9,6.2c-11-4.3-9.5-12.6-9.2-13.7c0-0.1,0.1-0.2,0.1-0.2
				S41.8,119.5,46.1,123.1z"/>
		</g>
		<g>
			<g>
				<path class="st5" d="M48.4,124.6c0,0-12.6,0.4-12.8-7.5c-0.1-7.9-1.9-13.1,6.2-13.7s9.7,2.4,10.4,5
					C52.9,111,51.7,124.3,48.4,124.6z"/>
			</g>
		</g>
		<g>
			<path class="st9" d="M49.5,102.9c0,0-0.7,12.4-15.3,11.1C34.2,114,34.5,96.8,49.5,102.9z"/>
		</g>
		<g>
			<path class="st9" d="M46.6,103.5c0,0,4.3,5.3,6.3,7.1C52.9,110.6,57.7,103.7,46.6,103.5z"/>
		</g>
		<g>
			<path class="st9" d="M46.6,103.5c0,0,3.9,6.6,5.8,8.3C52.4,111.8,57.7,103.7,46.6,103.5L46.6,103.5z"/>
		</g>
		<g>
			<path class="st8" d="M25.1,195.2C14.8,194.6,9.3,194,9.3,194s-8.4-19.5,7.4-43.5C19.9,158,27.5,178,25.1,195.2z"/>
		</g>
		<g>
			<path class="st7" d="M30.2,128.5c0,0-12.2,2.5-17.7,8.8c-4.2,4.8-8.7,28.5-8.7,32.4c0,3.7,4.3,23.6,7,27.4
				c0.2,0.3,0.5,0.4,0.8,0.4l6.9-0.7c0.6-0.1,1-0.6,0.9-1.2l-3.9-25.1l13.6-24.1C29.1,146.4,37.1,136.9,30.2,128.5z"/>
		</g>
		<g>
			<path class="st3" d="M82.7,290.1c0,0,1,2,3.3,2.5c1.4,0.3,2.7,1.1,3.5,2.1c0.7,0.9,0,2.1-1.1,2.1H76.8c-1,0-1.8-0.9-1.7-1.8
				c0.1-0.9,0.2-1.9,0.2-2.6c0.1-1.7,1.8-3,1.8-3L82.7,290.1z"/>
		</g>
		<g>
			<path class="st8" d="M85.4,260.7c0.5,8.9-0.7,29-0.7,29s-0.8,2.2-5.9,2.8c-2.7,0.3-5.2-0.4-5.2-0.4c-1-4.8-2-9.3-2.9-13.7
				c-6.3-31.1-8.8-50.3-8.8-50.3l25-5.8c0,0-1.1,17.5-1.4,29.5C85.3,255.5,85.2,258.7,85.4,260.7z"/>
		</g>
		<g>
			<path class="st12" d="M86.8,222.3c0,0-1.1,17.5-1.4,29.5l-14.8,26.6c-6.3-31.1-8.8-50.3-8.8-50.3L86.8,222.3z"/>
		</g>
		<g>
			<path class="st8" d="M61.6,182.1c0,0-9.7-4.4-17-0.6c-7.3,3.9-2.8,35.7,7.6,38.7l0,0C52.3,220.3,71.9,226.6,61.6,182.1z"/>
		</g>
		<g>
			<path class="st2" d="M89.6,229.7c0,0-0.1-0.1-0.1-0.1c-0.2-0.4-0.6-1.2-0.9-1.9l0,0c1.9-9.5,0.6-15,0.6-15
				c0.2-2.8,1.9-22.2-1.9-31.1c-1.8-4.3-4.9-4.3-4.9-4.3s0.7,6.9,0.2,10.6c-0.4,3.4,2.8,35.4,3.4,40.7c0,0,0,0,0,0l0.2,5.3l1.6-0.4
				c0.1,0,0.1,0,0.2-0.1l0,0l0,0c0.2-0.1,0.4-0.2,0.5-0.4l1.3-2C89.9,230.5,89.9,230.1,89.6,229.7L89.6,229.7z M86.7,228.8
				L86.7,228.8L86.7,228.8C86.7,228.8,86.7,228.8,86.7,228.8z"/>
		</g>
		<g>
			<path class="st3" d="M62.4,290.1c0,0,1,2,3.3,2.5c1.4,0.3,2.7,1.1,3.5,2.1c0.7,0.9,0,2.1-1.1,2.1H56.5c-1,0-1.8-0.9-1.7-1.8
				c0.1-0.9,0.2-1.9,0.2-2.6c0.1-1.7,1.8-3,1.8-3L62.4,290.1z"/>
		</g>
		<g>
			<path class="st3" d="M70.5,141.6c-2.5,0-5.6,1.1-7.3,2.7c-1.8,1.7-3.6,1.8-5,3.9c-1.4,2.1-2.2,4.4-1.5,7.4
				c0.8,3.3,0.6,6.5,2.7,8.9c1,1.2,2.7,1.3,3.8,2.4c2.1,2,4.5,2.6,7.3,2.6c5.2,0,8.4-3.1,11.1-6.9c2.1-3.1,1.7-5.1,2.2-7.8
				C85.4,146.5,78.5,141.6,70.5,141.6z"/>
		</g>
		<g>
			<path class="st5" d="M77.9,175l-9.9,5.1l-2-6.9c0,0,1.3-2.4,1.8-6.3c0.2-1.6,0.4-3.6,0.2-5.7l8.1,4.1c0,0-0.2,0.7-0.3,1.9
				c-0.1,1.2-0.2,2.8,0.1,4.3C76.2,172.9,76.8,174.1,77.9,175z"/>
		</g>
		<g>
			<path class="st8" d="M54.8,225c0,0-1.9,25.1-1.5,65c0,0,2.3,1.2,5,1.5c5.1,0.5,6.4-1.5,6.4-1.5s5.3-19.5,6.6-28.3
				c1.2-8.1,9.2-37.3,9.2-37.3L54.8,225z"/>
		</g>
		<g>
			<path class="st4" d="M84.4,175.7c-0.9-0.4-3.7-1.5-7.8-2.2c0,1.4-0.3,2.8-2.8,3.1c-3.3,0.4-6.3-1.8-7.8-3.4c0,0,0,0,0,0l0,0
				c0,0-2.4,0.3-5.1,0.9c-1.4,0.3-2.8,0.7-4.2,1.2c-1.6,0.6-3,1.3-3.7,2.2c0,0,0,0,0,0l0,0c-2.6,3.2-6.8,12.6-6.8,12.6
				s7,2.6,8.8,4.1l0,0.3l1.1,9.1l-3.3,18.2c0,0.2,0,0.3,0,0.5c0,1.2,0.8,2.3,2.1,2.6c0,0,0.3,0,0.8,0.1c3.5,0.5,17.6,2.2,28.6-0.8
				c2.5-0.7,4.1-3,3.9-5.6L86.4,196c1-0.2,2.1-0.3,3-0.4c0.8-0.1,1.4-0.1,1.6,0C91,195.5,89.7,177.9,84.4,175.7z"/>
		</g>
		<g>
			<path class="st3" d="M63.6,209.3c-0.1,6.4-4.3,13.8-7.9,15.8c-0.5-0.1-0.8-0.1-0.8-0.1c-1.2-0.3-2.1-1.4-2.1-2.6
				c0-0.2,0-0.3,0-0.5l3.3-18.2l-1.1-9.1c0.1-0.2,0.1-0.2,0.1-0.2S63.8,198.1,63.6,209.3z"/>
		</g>
		<g>
			<path class="st8" d="M53.4,218.6l0.9-4.7c14.4-20.9,15.5-24.6,9-34c-1.9-2.7-5.2-4.4-6.6-4.7c1.3-0.5,2.8-0.9,4.2-1.2
				c1.4,0.6,2.6,1.3,3.6,2.1C84.2,193.3,53.4,218.6,53.4,218.6z"/>
		</g>
		<g>
			<path class="st5" d="M70.2,191.9c-5.6,0.4-6.4,6.2-6.4,6.2s-9.5,0.9-10.9,1.5c0,0,0.8-2.1,2.1-5.2c-1.2-1.2-5.3-3-8-3.9
				c-2.1,5.2-2.8,10.4-1.7,15.4c0.1,0.5,0.6,0.9,1.1,0.9c3,0.1,13,0.1,20.3-5.9l0.1,0c1.7-0.1,3.4-1.8,4-4.1
				c0.6-2.3,0.7-1.6,1.2-3.2C72.6,191.9,70.2,191.9,70.2,191.9z"/>
		</g>
		<g>
			<path class="st2" d="M75.9,171.5c-4.6-0.1-8.1-4.7-8.1-4.7l8,0.3C75.6,168.4,75.5,170,75.9,171.5z"/>
		</g>
		<g>
			<path class="st5" d="M76.3,168.8c0,0-10.2,1.2-10.4-5.9c-0.2-7.2,4-11.8,6.9-11.8c5.6,0.1,6.6,2.4,7.2,4.8
				C80.7,158.2,81,168.3,76.3,168.8z"/>
		</g>
		<g>
			<path class="st9" d="M73.6,164.6c0,0,0.2,0.9,2.5,0.7c0,0,1.9-0.1,1.8-1.1C77.9,164.2,76,163.6,73.6,164.6z"/>
		</g>
		<g>
			<path class="st3" d="M75.3,151.1c0,0-8.7,0-6.7,6c1.3,3.8-2.9,4.3-2.9,4.3l-2-6l1.3-4.7L75.3,151.1z"/>
		</g>
	</g>
	<g>
		<g>
			<path class="st5" d="M193.5,147.4c-2.2-3.6-3.5-19.7-5.1-24c-1-2.7-3.6-6-3.4-6.2c-2.8-1.7-10.4-2.5-10.4-2.5c0,0,0,0,0,0
				c-0.3-0.1-0.6-0.1-0.9-0.2c-0.9-0.2-1.8-0.7-1.9-1.6c0,0,0-0.1,0-0.1c-0.1-1.1-0.1-2.3-0.1-3.3c0,0,0,0,0,0
				c0-1.6,0.2-2.9,0.2-2.9l0,0L162,105c-0.1,3.1-0.3,5.4-0.5,7.1c-0.1,1.3-1.2,2.3-2.5,2.4c-0.2,0-0.4,0-0.6,0v0
				c0,0-6.4-0.2-8.8,0.5c-0.2,0.1-0.4,0.1-0.6,0.3c0.1,0.2-23.5,23.8-22.8,26.5c0.6,2.7,11,18.3,14.7,21.2h3.8c0,0-8.3-19-8.4-20.5
				c-0.2-2.3,20.9-14.9,20.9-17.2c0-0.8,5.9-1.1,9.7-1.1c4.1,0,11.7-2.1,11.7-2.1s3.3,25.1,7.5,32.6c3.3,5.9,17.9,20.9,17.9,20.9
				l3.1-2.7C207,172.9,198.7,156.1,193.5,147.4z"/>
		</g>
		<g>
			<path class="st1" d="M163.6,244.1c1.8,17.6-0.4,40.5-0.4,40.5h-6c-9.1-24-9.4-39.1-9.9-44.8c-0.3-3.1-4.4-15.4-8.2-27.3
				c-3.1-9.9-5.9-19.5-6-23.1c0-8.2,8.1-21.4,8.1-21.4s11.8,4.5,19,9c2.4,1.5,4.3,3,4.9,4.2c1.7,3.3,2.9,26.9-1.5,41.3
				c-2.7,8.7-1.3,13.1-1.3,13.1C162.9,238.3,163.3,241.1,163.6,244.1z"/>
		</g>
		<g>
			<path class="st11" d="M163.6,222.6c-2.7,8.7-1.3,13.1-1.3,13.1c0.6,2.5,1,5.4,1.3,8.3L139,212.6c-3.1-9.9-5.9-19.5-6-23.1
				c0-8.2,8.1-21.4,8.1-21.4s11.8,4.5,19,9c2.4,1.5,4.3,3,4.9,4.2C166.8,184.7,168.1,208.3,163.6,222.6z"/>
		</g>
		<g>
			<path class="st4" d="M157.2,284.6c0,0-0.3,3.9-0.8,4.8c-0.5,0.8-2.6,3.6-5.1,4.5c-2.4,0.9-9.4,0.4-9.9,3h24.6
				c0,0,0.3-3.8-0.6-6.3c-0.9-2.5-2-5.9-2-5.9H157.2z"/>
		</g>
		<g>
			<path class="st4" d="M198.2,283.8c0,0,2.7,3.8,3.4,5.2c0.7,1.5,5.1,7.8,4.6,7.8c-0.5,0.1-12.4,0-12.4,0s-1.2-3-1.1-5
				c0.1-2-1.6-5.9-1.3-8.1C191.7,281.6,198.2,283.8,198.2,283.8z"/>
		</g>
		<g>
			<path class="st1" d="M198.2,283.8h-6.8c0,0-26.5-38.3-27.4-48c-1.1-12.2-9.6-60.2-9.6-60.2l27.2-8.5c0,0,2.4,6.1,4.4,12.3
				c0.9,2.7,1.7,5.4,2.2,7.6c1.1,4.9-2,23.2-4.1,36.3c-1,6.4-1.8,11.6-1.8,13.2C182.4,241.2,191.3,241.9,198.2,283.8z"/>
		</g>
		<g>
			<path class="st4" d="M161.8,107.7c0,0.2,0,0.5,0,0.7C161.8,108.1,161.8,107.9,161.8,107.7z"/>
		</g>
		<g>
			<path class="st4" d="M161.9,106.6c0,0.3,0,0.5,0,0.8C161.8,107.2,161.9,106.9,161.9,106.6z"/>
		</g>
		<g>
			<path class="st4" d="M162,105c0,0.2,0,0.4,0,0.6C161.9,105.4,161.9,105.2,162,105L162,105z"/>
		</g>
		<g>
			<path class="st4" d="M185.3,173.4c0.9,2.7-11.9,4.2-26.1,4c-4-0.1-7.7-0.5-10.8-1.3c-6.5-1.7-10.1-4.7-7.2-8
				c0.8-0.9,9.8-13.8,9.8-13.8c0.5-1.2,0-4.9-2.8-13.9c-1.1-3.7,0.3-6,0.9-7.4c0,0,0,0,0,0c0.2-0.5,0.2-0.9,0.1-1.2
				c-1.2-2.1-3-4.2-4.6-5.8c-2.1-2.1-3.9-3.5-3.9-3.5s5.3-5.7,8.2-7.2c3,3.2,9.6,8.9,17.9,8.9c7.1,0.1,14.1-4,18.3-7
				c0.3,0.2,0.6,0.4,0.8,0.6c2.6,3.1,3.4,8.7,3.4,8.7s-8.5,4.7-8.3,6.2c0.4,4.2,0.8,5.4,0.6,6.9l0,0c-0.1,0.5-0.2,1.1-0.4,1.8
				c-1.4,4.5-4.6,11.6-3.8,13.9C177.5,156,184.1,169.6,185.3,173.4z"/>
		</g>
		<g>
			<path class="st5" d="M149.5,115c0.1,0,0.3-0.1,0.4-0.1C149.8,114.9,149.7,115,149.5,115L149.5,115z"/>
		</g>
		<g>
			<path class="st5" d="M140.8,163c0,0-3.8,4.7-3.8,5.6c0,0.9,0.8,4.5,1.7,4.5c0.9,0.1,1.2-2.9,1.9-3.5c0.7-0.6,3.2-1.6,3.6-2.6
				c0.4-1,0.3-4,0.3-4H140.8z"/>
		</g>
		<g>
			<path class="st2" d="M161.5,111.8c4.7-0.6,10.3-5.2,10.3-5.2c-3.3-1.8-6.2-2-8.4-1.4c-0.5,0.1-1,0.3-1.5,0.6L161.5,111.8z"/>
		</g>
		<g>
			<g>
				<path class="st5" d="M159.8,107.3c0,0,11.5,3.9,13.8-3.4c2.3-7.2,5.3-11.6-2-14.4c-7.3-2.8-9.6-0.5-10.9,1.8
					C159.4,93.5,156.8,106.1,159.8,107.3z"/>
			</g>
			<g>
				<path class="st9" d="M163.9,104.1c0,0-0.4,0.8-2.6,0.2c0,0-1.8-0.6-1.5-1.5C159.8,102.7,161.8,102.5,163.9,104.1z"/>
			</g>
		</g>
		<g>
			<path class="st4" d="M190.8,90.3c-1.3-1.7,3-5.1-5.7-9.2c-6.5-3.1-8.6,1.6-9.2,4.1c-3.9-2.2-10.2-8.6-14.3-4.4
				c-4.8,5,0.4,9.4,0.4,9.4c1.8,1.3,2.7,1,5.4,1.6c2.7,0.6,1,3.7,1.2,4.7c0.2,1,2,3.2,4.5,2.1c2.5-1.1,2.2,3-0.2,3.9
				c-0.7,0.2-1.4,4-0.4,4.2c0.8,0.1,3.8,0.2,4.1-2.3c0.2-1.4,2-2.2,3.9-3.7c1.3,1.3,3.2,1.9,4.3,1.8c1.5-0.2,1.5-1.4,4.8-3.6
				C193,96.6,192.1,92,190.8,90.3z"/>
		</g>
		<g>
			<path class="st3" d="M148.4,176.1c-6.5-1.7-10.1-4.7-7.2-8c0.8-0.9,9.8-13.8,9.8-13.8S153.4,168.9,148.4,176.1z"/>
		</g>
	</g>
	<g>
		<g>
			<path class="st5" d="M172.3,113.9c0.2,0.2,0.5,0.4,0.8,0.5C172.8,114.3,172.5,114.1,172.3,113.9z"/>
		</g>
		<g>
			<path class="st5" d="M173.1,114.4c0.1,0,0.2,0.1,0.3,0.1C173.3,114.5,173.2,114.4,173.1,114.4z"/>
		</g>
		<g>
			<path class="st5" d="M207,172.9c0,0,5.2,1.3,5.9,2.1c0.7,0.7,2.7,6.4,2,6.4c-3.7,0.3-5.7-1.7-5.7-1.7c-2.2-2.5-5.6-2.9-5.4-4.7
				C204,173.2,207,172.9,207,172.9z"/>
		</g>
		<g>
			<g>
				<path class="st13" d="M190.5,296.9l-1-104.1c0,0-0.8-7.5-7.4-7.5c-7,0-7.4,7.5-7.4,7.5s0.1,0.6,0.8,0.6c0.8,0,0.9-0.6,0.9-0.6
					s0.3-5.8,5.7-5.8c5,0,5.7,5.8,5.7,5.8v104.1H190.5z"/>
			</g>
			<g>
				<path class="st13" d="M187,296.9h4.3l-0.4-4.5c0,0,0-0.6-0.8-0.7c-0.8,0-2.4-0.1-2.6,0.3C187.4,292.4,187,296.9,187,296.9z"/>
			</g>
		</g>
		<g>
			<path class="st5" d="M182.1,179.7l-0.3,1.5c0,0-7.4,0-9.1,7.9c0,0-0.5,3.3,1.9,2.6c2.4-0.7,2-2.4,5.4-3.3c3.4-0.9,5.5-1.6,6-4.1
				l0.5-2.7L182.1,179.7z"/>
		</g>
		<g>
			<path class="st1" d="M208.2,115.1c0,0-1.9,7.7-3.6,14.7c-0.7,2.8-1.3,5.5-1.8,7.6c-0.5,2.1-0.7,3.6-0.6,3.7
				c1.5,2.4-1.2,16.8-3.3,22.1c-0.2,0.5-0.4,1-0.8,1.6c-3,5.8-10.8,17.1-10.8,17.1s-2.2,0.2-3.7-0.3c-1.2-0.5-2-1.9-2-1.9
				c0.7-1.1,3.5-14.5,7.2-22c1.6-3.2,3.9-32.9,6.9-36.9C198.2,117.4,208.2,115.1,208.2,115.1z"/>
		</g>
		<g>
			<path class="st11" d="M202.2,141.1c1.5,2.4-1.2,16.8-3.3,22.1c-0.2,0.5-0.4,1-0.8,1.6c-2.8-12.5,1.9-30.1,1.9-30.1
				C201.1,135.1,202.1,141,202.2,141.1z"/>
		</g>
		<g>
			<path class="st3" d="M222.6,285.4c0,0,0.8,11.3-1.4,11.4c-0.3,0-10.8,0-10.8,0l-13.6,0c0,0,0.2-3.3,4.2-4
				c3.9-0.7,10.5-3.4,12.9-8.6C216.4,278.7,222.6,285.4,222.6,285.4z"/>
		</g>
		<g>
			<path class="st3" d="M243,285.4c0,0,0.8,11.3-1.4,11.4c-0.3,0-10.8,0-10.8,0l-13.6,0c0,0,0.2-3.3,4.2-4
				c3.9-0.7,10.5-3.4,12.9-8.6C236.8,278.7,243,285.4,243,285.4z"/>
		</g>
		<g>
			<path class="st4" d="M223.2,258.2c0.3,4.8,1,10.9,0.8,16.4c-0.3,7.7-0.6,14.3-0.6,14.3c-5.1,1.7-14.5-0.4-14.5-0.4
				s-3.3-19.6-6.1-35.2c-1.2-7-2.2-13-2.6-15.9c-1.2-9.2,1.3-58.3,1.3-58.3s13.8-8.8,19.5-4.3c5.7,4.6,9.2,9,0,59
				C220.4,237.6,222.5,247.5,223.2,258.2z"/>
		</g>
		<g>
			<path class="st3" d="M223.2,258.2c0.3,4.8,1,12.4,0.7,18c-4.8-5.1-14.3-15.8-21-22.8c-1.2-7-2.2-13-2.6-15.9
				c-1.2-9.2,1.3-58.3,1.3-58.3s13.8-8.8,19.5-4.3c5.7,4.6,9.2,9,0,59C220.4,237.6,222.5,247.5,223.2,258.2z"/>
		</g>
		<g>
			<path class="st4" d="M214.1,180.1c0,0,1.2,49.2,3.2,58.3c1.9,9.1,12,50.8,12,50.8s9.5,0.9,14.4-1.3c0,0-0.3-19.3-2-30.7
				c-1.6-10.6-4.4-20.3-4-24.1c5.3-50.5,1.5-54.7-4.6-58.8C227.2,170.2,214.1,180.1,214.1,180.1z"/>
		</g>
		<g>
			<path class="st5" d="M232.8,184.4c0,0-3.3,6.6,3,11.6c0,0,2.7,1.9,3.2-0.6c0.4-2.4-0.1-1.6,0.6-5c0.7-3.4-0.2-6.9-2.1-8.5
				L232.8,184.4z"/>
		</g>
		<g>
			<path class="st5" d="M205.1,104c0,0,3.8,5.8,3,11.1l5.6,13.5l10.1-15.5c0,0-5.3-5.8-7.3-13.8L205.1,104z"/>
		</g>
		<g>
			<path class="st5" d="M203.5,108.9c0,0,13.8,0.6,14.1-7.7c0.3-8.3,4-13.8-6.3-14.5c-8.5-0.6-11.3,2.9-12.1,5.7
				C198.4,95.1,198.4,108.5,203.5,108.9z"/>
		</g>
		<g>
			<path class="st1" d="M237.3,182.5c-3,0.3-7,0.6-12,0.9c-1,0.1-2,0.1-3.1,0.2c-15,0.8-20.9-1.6-20.9-1.6s-0.4-0.3-0.3-2.1
				c0.6-9,2.6-11.7,2.3-13.4c-0.5-3.9-9.9-35.4-9.9-35.4s-0.2-10,10.9-14.6c1.1-0.5,2.4-0.9,3.8-1.3c0.5,1.3,1.8,3.4,5.2,3
				c5-0.6,8.6-3.5,10.1-5.1c0.3,0,0.4,0,0.4,0c0.4,1.1,0.7,2.2,0.9,3.3c0.9,3.9,1.4,8,3.8,11.1c2.4,3,4.4,6,6.1,9
				c1.4,2.4,2.7,4.8,3.7,7.2C248.3,165.4,240.7,182.1,237.3,182.5z"/>
		</g>
		<g>
			<path class="st11" d="M237.3,182.5c-3,0.3-7,0.6-12,0.9c-1.4-24.3,8.5-47.7,8.5-47.7c0.4,0.3,0.7,0.6,1.1,0.9
				c1.7,1.7,2.9,4.2,3.7,7.2C241.5,154.8,239,172.7,237.3,182.5z"/>
		</g>
		<g>
			<path class="st14" d="M199,101c0,0-2.7,10.7,1.9,12.2c4.6,1.5,16.7,0.3,16.7-12.8c0,0-6.4,3.8-9.4,3.7c-3-0.1-5-1.8-7.8-0.5
				C200.4,103.6,199.3,103.5,199,101z"/>
		</g>
		<g>
			<path class="st1" d="M223.9,113.2c0,0,9.6,0.2,14.7,6.8c3.9,5.1,8,32.4,8,36.5c0,4.1-4.4,26.8-6.9,29.2c0,0-1.6,0.4-3.7,0
				c-2.3-0.4-3.6-1.7-3.6-1.7s1.2-25.2,1.2-27.6c0-3.4-10.7-24.4-10.7-24.4S217.5,122,223.9,113.2z"/>
		</g>
		<g>
			<path class="st14" d="M216.9,89.3c-0.2-0.8-1.3-1.3-1.3-1.3c-7.8-3.4-13.5,0.3-13.5,0.3c4.8-6.4,16.3-5.1,18.7,0.7
				c4,9.4-3.3,11.4-3.3,11.4s-7.2-3-3-6.8c1.4-1.3,2.1-2.4,2.3-3.4l0,0l0,0C216.9,89.9,216.9,89.6,216.9,89.3z"/>
		</g>
		<g>
			<path class="st9" d="M204.6,106.1c0,0-0.3,0.9-2.5,0.7c0,0-1.9-0.2-1.8-1.2C200.2,105.5,202.1,104.9,204.6,106.1z"/>
		</g>
	</g>
</g>
</svg>
