<?xml version="1.0" encoding="utf-8"?>
<!-- Generator: Adobe Illustrator 25.0.0, SVG Export Plug-In . SVG Version: 6.00 Build 0)  -->
<svg version="1.1" id="Layer_1" xmlns="http://www.w3.org/2000/svg" xmlns:xlink="http://www.w3.org/1999/xlink" x="0px" y="0px"
	 viewBox="0 0 300 300" style="enable-background:new 0 0 300 300;" xml:space="preserve">
<style type="text/css">
	.st0{fill:#D61335;}
	.st1{opacity:7.703218e-02;fill-rule:evenodd;clip-rule:evenodd;fill:#E13856;enable-background:new    ;}
	.st2{fill:#E09422;}
	.st3{fill:#683C11;}
	.st4{fill:#F0A12B;}
	.st5{fill:#FFB342;}
	.st6{fill:#FFE08C;}
	.st7{fill:#AD7218;}
	.st8{fill:#E6332A;}
	.st9{fill:#FFE6A3;}
	.st10{fill:#FFA43F;}
	.st11{fill:#80A61B;}
	.st12{fill:#95C11F;}
	.st13{fill:#E94E1B;}
	.st14{fill:#F6F6F6;}
	.st15{fill:#EDEDED;}
	.st16{fill:#FFFFFF;}
	.st17{fill:#F9B233;}
	.st18{fill:#D99B2C;}
	.st19{fill:#FFBC45;}
	.st20{fill:#CC4418;}
	.st21{fill:#D44719;}
	.st22{opacity:0.5;}
	.st23{fill:#D8D8D8;}
	.st24{fill:#DB9327;}
	.st25{fill:#EACD80;}
	.st26{fill:#70421E;}
	.st27{opacity:0.5;fill:#53300E;enable-background:new    ;}
</style>
<path id="Shape" class="st0" d="M148.9,278.4c-71.5-0.1-129.4-58-129.5-129.5c0-71.4,58.1-129.5,129.5-129.5s129.5,58.1,129.5,129.5
	C278.4,220.4,220.4,278.4,148.9,278.4L148.9,278.4z M148.9,37.9c-44.9,0-85.4,27.1-102.6,68.6s-7.7,89.3,24.1,121.1
	s79.6,41.3,121.1,24.1S260,193.9,260,148.9C259.9,87.6,210.3,38,148.9,37.9z"/>
<g id="Page-1_1_">
	<g id="For-you-and-your-partner-Copy-4_1_" transform="translate(-57.000000, -1998.000000)">
		<g id="Group-4_1_" transform="translate(57.000000, 1998.000000)">
			<circle id="Mask-Copy-2_1_" class="st1" cx="150" cy="150" r="150"/>
		</g>
	</g>
</g>
<g>
	<path class="st2" d="M133.7,216.5H10.3c-2.1,0-3.7-1.7-3.7-3.7v-12.1c0-2.1,1.7-3.7,3.7-3.7h123.4c2.1,0,3.7,1.7,3.7,3.7v12.1
		C137.5,214.8,135.8,216.5,133.7,216.5z"/>
	<path class="st3" d="M124.8,171.8H19.1c-3.8,0-6.9-3.1-6.9-6.9v-0.2c0-3.8,3.1-6.9,6.9-6.9h105.8c3.8,0,6.9,3.1,6.9,6.9v0.1
		C131.7,168.7,128.7,171.8,124.8,171.8z"/>
	<path class="st4" d="M137.5,173.2v8.3c0,2.1-1.7,3.7-3.7,3.7H10.3c-2.1,0-3.7-1.7-3.7-3.7v-8.3c0-2.1,1.7-3.7,3.7-3.7h123.4
		C135.8,169.5,137.5,171.2,137.5,173.2z"/>
	<path class="st5" d="M133.8,159H10.2c-3.4,0-6-3.4-4.9-6.6c1.7-4.8,5.4-9.3,10.7-13.1c12.2-8.9,32.7-14.7,56-14.7
		c22.1,0,41.7,5.3,54,13.4c6.3,4.2,10.8,9.1,12.7,14.5C139.8,155.6,137.3,159,133.8,159z"/>
	<path class="st6" d="M126,137.9c-3.9,3.2-8.5,6.1-13.3,5c-4.5-1-8.1-5.5-12.7-4.9c-4.4,0.6-6.8,5.4-10.7,7.5
		c-3.7,2-8.3,1.1-12.4-0.2c-4-1.3-8.1-3.2-12.3-3c-3.7,0.2-7.1,1.8-10.6,3.2c-3.5,1.3-7.3,2.3-10.8,1.1s-6.1-5.5-4.3-8.8
		c-4.6,1.4-9.3,2.7-13.9,4c-2.7,0.8-5.9,1.4-7.9-0.5c-0.6-0.6-1-1.3-1.1-2.1c12.2-8.9,32.7-14.7,56-14.7
		C94.1,124.5,113.7,129.7,126,137.9z"/>
	<g>
		<path class="st7" d="M61.9,128.1c0.5,0.2,0.9,0.3,1.4,0.5c0.1,0.5,0.3,0.9,0.4,1.4c1-0.4,2.2-0.1,3,0.7c0.2-0.3,0.3-0.6,0.5-0.9
			c0.2,0.4,1,0.4,1.2,0c0.3-0.4,0.2-1-0.2-1.4c-0.3-0.4-0.8-0.6-1.2-0.9c-0.4-0.7-0.9-1.4-1.7-1.4c-0.4,0-0.8,0.2-1.2,0.4
			C63.3,126.9,62.5,127.4,61.9,128.1z"/>
	</g>
	<g>
		<path class="st7" d="M73.3,125.6c0.2,0.4,0.4,0.8,0.6,1.2c-0.2,0.4-0.4,0.8-0.6,1.2c0.9,0.4,1.6,1.4,1.6,2.4
			c0.3-0.1,0.6-0.2,0.9-0.3c-0.1,0.4,0.4,0.9,0.8,0.8c0.5-0.1,0.8-0.6,0.8-1c0-0.5-0.1-0.9-0.3-1.4c0.2-0.7,0.3-1.6-0.2-2.1
			c-0.3-0.3-0.7-0.4-1.1-0.5C75,125.7,74.1,125.5,73.3,125.6z"/>
	</g>
	<g>
		<path class="st7" d="M72,122c-0.2,0.3-0.4,0.6-0.7,1c-0.4,0-0.8,0-1.1,0c0.1,0.9-0.4,1.7-1.2,2.1c0.2,0.2,0.4,0.4,0.6,0.6
			c-0.4,0.1-0.5,0.6-0.3,0.9c0.3,0.3,0.7,0.3,1.1,0.2c0.4-0.2,0.6-0.5,0.9-0.7c0.6-0.2,1.3-0.4,1.5-1c0.1-0.3,0-0.7-0.1-1
			C72.6,123.4,72.4,122.6,72,122z"/>
	</g>
	<g>
		<path class="st7" d="M56.1,126.1c-0.5,0-1,0-1.5,0c-0.3-0.4-0.6-0.8-0.9-1.2c-0.9,0.7-2.1,0.8-3.1,0.3c-0.1,0.3-0.1,0.7-0.2,1
			c-0.4-0.4-1.1-0.1-1.2,0.4c-0.1,0.5,0.2,1,0.6,1.3c0.4,0.3,0.9,0.4,1.4,0.4c0.6,0.5,1.4,1.1,2.1,0.8c0.4-0.1,0.7-0.5,1-0.8
			C55.1,127.7,55.7,127,56.1,126.1z"/>
	</g>
	<g>
		<path class="st7" d="M56.9,123.4c0.2,0.3,0.5,0.5,0.7,0.8c-0.1,0.3-0.1,0.7-0.2,1c0.8,0.1,1.5,0.7,1.7,1.4
			c0.2-0.1,0.4-0.3,0.6-0.4c0,0.4,0.5,0.6,0.8,0.4s0.4-0.6,0.4-0.9c-0.1-0.4-0.3-0.7-0.5-0.9c0-0.6-0.1-1.2-0.6-1.5
			c-0.3-0.1-0.6-0.1-0.9-0.1C58.1,123.2,57.5,123.2,56.9,123.4z"/>
	</g>
	<g>
		<path class="st7" d="M55.3,131.8c0.3,0.4,0.6,0.7,0.9,1.1c-0.1,0.4-0.2,0.9-0.3,1.3c1,0.2,1.9,1.1,2.1,2.1
			c0.3-0.2,0.6-0.3,0.9-0.5c-0.1,0.5,0.6,0.8,1,0.6s0.6-0.7,0.6-1.2c-0.1-0.5-0.3-0.9-0.5-1.3c0-0.8,0-1.6-0.7-2.1
			c-0.3-0.2-0.8-0.3-1.2-0.3C57,131.5,56.1,131.5,55.3,131.8z"/>
	</g>
	<g>
		<path class="st7" d="M77.8,133.5c-0.1,0.3-0.2,0.6-0.3,1c-0.3,0.1-0.6,0.2-0.9,0.4c0.3,0.7,0.1,1.5-0.4,2.1
			c0.2,0.1,0.4,0.2,0.6,0.3c-0.3,0.2-0.2,0.7,0,0.8c0.3,0.2,0.7,0.1,0.9-0.2c0.3-0.2,0.4-0.5,0.5-0.9c0.4-0.3,0.9-0.7,0.9-1.2
			c0-0.3-0.2-0.6-0.3-0.8C78.7,134.5,78.3,133.9,77.8,133.5z"/>
	</g>
	<g>
		<path class="st7" d="M69.9,132.3c-0.1,0.4-0.1,0.8-0.2,1.3c-0.4,0.2-0.7,0.4-1.1,0.6c0.5,0.8,0.4,1.9-0.1,2.6
			c0.3,0.1,0.6,0.2,0.8,0.3c-0.3,0.3-0.2,0.9,0.2,1.1c0.4,0.2,0.9,0,1.2-0.4c0.3-0.3,0.4-0.8,0.5-1.2c0.5-0.5,1.1-1,1-1.7
			c-0.1-0.4-0.3-0.7-0.6-1C71.1,133.3,70.6,132.7,69.9,132.3z"/>
	</g>
	<g>
		<path class="st7" d="M84.1,132.3c0.4,0.1,0.7,0.1,1.1,0.2c0.2,0.3,0.3,0.7,0.5,1c0.7-0.4,1.7-0.3,2.3,0.2c0.1-0.2,0.2-0.5,0.3-0.7
			c0.2,0.3,0.8,0.2,0.9-0.2c0.2-0.3,0-0.8-0.3-1c-0.3-0.3-0.7-0.4-1-0.5c-0.4-0.5-0.9-1-1.5-0.9c-0.3,0-0.6,0.3-0.9,0.5
			C85.1,131.3,84.5,131.7,84.1,132.3z"/>
	</g>
	<g>
		<path class="st7" d="M79.5,127.2c0.5,0.1,1,0.2,1.4,0.2c0.2,0.4,0.4,0.8,0.6,1.3c0.9-0.5,2.2-0.4,3,0.2c0.1-0.3,0.2-0.6,0.3-1
			c0.3,0.4,1,0.2,1.2-0.2c0.2-0.4,0-1-0.4-1.3s-0.8-0.5-1.3-0.6c-0.5-0.6-1.1-1.2-1.9-1.1c-0.4,0.1-0.8,0.3-1.1,0.6
			C80.7,125.8,79.9,126.4,79.5,127.2z"/>
	</g>
	<g>
		<path class="st7" d="M90.7,121.7c-0.1,0.5-0.1,1.1-0.2,1.6c-0.5,0.3-0.9,0.5-1.4,0.8c0.6,1,0.6,2.4-0.1,3.4
			c0.4,0.1,0.7,0.2,1.1,0.3c-0.4,0.3-0.2,1.1,0.3,1.3s1.1-0.1,1.5-0.5s0.5-1,0.6-1.5c0.6-0.6,1.3-1.3,1.2-2.2
			c-0.1-0.5-0.4-0.9-0.7-1.2C92.3,122.9,91.6,122.2,90.7,121.7z"/>
	</g>
	<g>
		<path class="st7" d="M95.4,131c0.4,0.3,0.8,0.5,1.2,0.8c0,0.5,0,0.9,0,1.4c1-0.1,2.1,0.5,2.6,1.5c0.2-0.2,0.5-0.5,0.7-0.7
			c0.1,0.5,0.8,0.6,1.1,0.3c0.4-0.3,0.4-0.9,0.2-1.3c-0.2-0.4-0.5-0.8-0.9-1.1c-0.2-0.7-0.5-1.6-1.2-1.8c-0.4-0.1-0.8,0-1.2,0.1
			C97,130.2,96.1,130.5,95.4,131z"/>
	</g>
	<g>
		<path class="st7" d="M103.5,125c-0.2,0.3-0.5,0.7-0.7,1c-0.4,0-0.8,0-1.2,0c0,0.9-0.5,1.8-1.3,2.2c0.2,0.2,0.4,0.4,0.6,0.6
			c-0.4,0.1-0.6,0.7-0.3,1c0.3,0.3,0.8,0.4,1.2,0.2s0.7-0.5,1-0.8c0.7-0.2,1.4-0.4,1.6-1c0.1-0.3,0-0.7,0-1.1
			C104.1,126.4,103.9,125.6,103.5,125z"/>
	</g>
	<g>
		<path class="st7" d="M42.9,128.2c0.1,0.3,0.2,0.5,0.3,0.8c-0.1,0.2-0.3,0.5-0.5,0.7c0.6,0.3,0.9,1,0.8,1.6c0.2,0,0.4-0.1,0.6-0.1
			c-0.1,0.3,0.2,0.6,0.5,0.6s0.5-0.3,0.6-0.6s0-0.6-0.1-0.9c0.2-0.5,0.3-1,0-1.4c-0.2-0.2-0.4-0.3-0.7-0.4
			C44,128.4,43.4,128.2,42.9,128.2z"/>
	</g>
	<g>
		<path class="st7" d="M44.5,125.1c0.2,0.3,0.3,0.5,0.5,0.8c-0.1,0.3-0.2,0.6-0.4,0.8c0.6,0.2,1.1,0.9,1.1,1.6
			c0.2-0.1,0.4-0.2,0.6-0.2c-0.1,0.3,0.3,0.6,0.6,0.5s0.5-0.4,0.5-0.7c0-0.3-0.1-0.6-0.2-0.9c0.1-0.5,0.2-1.1-0.2-1.4
			c-0.2-0.2-0.5-0.3-0.8-0.3C45.7,125.1,45.1,125,44.5,125.1z"/>
	</g>
	<g>
		<path class="st7" d="M53.4,132.6c-0.5,0.1-0.9,0.3-1.4,0.4c-0.4-0.3-0.8-0.6-1.1-0.9c-0.6,0.9-1.8,1.3-2.9,1.1
			c0,0.3,0.1,0.7,0.1,1c-0.4-0.3-1,0.2-1,0.7s0.4,0.9,0.9,1.1c0.5,0.1,1,0.1,1.5,0c0.7,0.3,1.6,0.7,2.3,0.2c0.4-0.2,0.6-0.6,0.8-1
			C52.9,134.4,53.3,133.5,53.4,132.6z"/>
	</g>
	<path class="st8" d="M128.7,196.9H15.2c-1.7,0-3-1.3-3-3v-0.1c0-1.7,1.3-3,3-3h113.6c1.7,0,3,1.3,3,3v0.1
		C131.7,195.6,130.4,196.9,128.7,196.9z"/>
	<path class="st9" d="M127.8,190.9c-18.7,1.7-35.7,7.2-50.4,17.8c-3.3,2.4-7.8,2.3-11.2-0.1c-14.2-9.8-30.8-15.5-49.4-17.8
		c-1.5,0-2.8-1.2-2.8-2.8v-0.1c0-1.5,1.2-2.8,2.8-2.8h111c1.5,0,2.8,1.2,2.8,2.8v0.1C130.5,189.6,129.3,190.9,127.8,190.9z"/>
	<g>
		<path class="st10" d="M68.5,203.2c-1.8,0-3.3-1.5-3.3-3.3s1.5-3.3,3.3-3.3s3.3,1.5,3.3,3.3c0,0.3-0.1,0.6-0.1,0.9
			c0.2-0.5,0.4-1.1,0.4-1.7c0-2.4-1.9-4.3-4.3-4.3s-4.3,1.9-4.3,4.3c0,2.4,1.9,4.3,4.3,4.3c0.5,0,0.9-0.1,1.3-0.2
			C68.8,203.1,68.6,203.2,68.5,203.2z"/>
	</g>
	<g>
		<path class="st10" d="M86.9,187c2.2,0,4,1.8,4,4s-1.8,4-4,4s-4-1.8-4-4c0-0.4,0.1-0.7,0.2-1.1c-0.3,0.6-0.4,1.3-0.4,2.1
			c0,2.8,2.3,5.1,5.1,5.1c2.8,0,5.1-2.3,5.1-5.1s-2.3-5.1-5.1-5.1c-0.5,0-1.1,0.1-1.5,0.3C86.5,187,86.7,187,86.9,187z"/>
	</g>
	<g>
		<path class="st10" d="M46.9,194.8c-1.7,0-3.1-1.4-3.1-3.1s1.4-3.1,3.1-3.1c1.7,0,3.1,1.4,3.1,3.1c0,0.3-0.1,0.6-0.1,0.9
			c0.2-0.5,0.3-1,0.3-1.6c0-2.3-1.8-4.1-4.1-4.1S42,188.7,42,191s1.8,4.1,4.1,4.1c0.4,0,0.8-0.1,1.2-0.2
			C47.2,194.8,47,194.8,46.9,194.8z"/>
	</g>
	<g>
		<path class="st10" d="M112.4,188.3c0,1.2-1,2.2-2.2,2.2s-2.2-1-2.2-2.2s1-2.2,2.2-2.2c0.2,0,0.4,0,0.6,0.1
			c-0.4-0.2-0.7-0.2-1.1-0.2c-1.6,0-2.9,1.3-2.9,2.9c0,1.6,1.3,2.9,2.9,2.9s2.9-1.3,2.9-2.9c0-0.3-0.1-0.6-0.1-0.9
			C112.4,188,112.4,188.1,112.4,188.3z"/>
	</g>
	<g>
		<path class="st11" d="M64,169.5c0,1.7-0.6,3.4-1.6,4.8c-1.1,1.5-2.5,2.7-4,3.8c-0.5,0.4-1,0.7-1.5,1.1c-3.7,2.6-7.4,5.1-11.1,7.7
			c-1.6,1.1-3.2,2.2-4.9,3.3c0.6-1.1,1.2-2.2,1.8-3.3s1.2-2.3,1.8-3.4c-4,1.1-8,2.3-12.1,3.4c-3.3,0.9-6.7,1.9-10,2.8
			c0.9-0.9,1.8-1.9,2.7-2.8c2.6-2.7,5.1-5.5,7.7-8.2c-6.3,0.3-12.5,0.5-18.8,0.8c6.8-3,13.6-6.1,20.4-9.1c-0.6-0.3-1.3-0.5-2-0.8H64
			V169.5z"/>
		<path class="st12" d="M83.6,172.1c1.9,3.5,3.8,6.9,5.7,10.4c-1.2-0.2-2.5-0.4-3.7-0.6c-1.5-0.3-3.1-0.5-4.6-0.8c0,1.9,0,3.9,0,5.8
			c0,4.6,0,9.2,0,13.8c-2.4-4.6-4.9-9.2-7.3-13.8c-0.8-1.4-1.5-2.8-2.2-4.3c-0.6,1.4-1.1,2.8-1.7,4.3c-1,2.5-2,5-3,7.5
			c-0.5-2.5-0.9-5-1.4-7.5c-0.5-2.9-1.1-5.8-1.6-8.6c-2.2,2-4.3,4-6.5,6c0.3-2,0.5-4.1,0.9-6.1c0.5-3,1.3-5.9,2.5-8.6h28.4
			c0.8,0.8,1.6,1.5,2.4,2.3C89,171.9,86.3,172,83.6,172.1z"/>
		<path class="st11" d="M120.3,198.4c-6.3-3.7-12.6-7.3-18.9-11c0.9,3.8,1.8,7.5,2.6,11.3c-3.9-4-7.9-8-11.8-11.9
			c-0.9-0.9-1.8-1.8-2.7-2.7c0,0.9,0,1.8,0,2.7c0,1.7,0,3.4,0,5.1c-0.6-1.7-1.3-3.4-2-5.1c-0.6-1.7-1.3-3.4-1.9-5
			c-0.9-2.4-1.8-4.7-2.8-7.1c-0.6-1.7-1.3-3.5-1.4-5.2h28.1c1.3,0.5,2.5,0.9,3.8,1.4c-2.5,0.3-5,0.6-7.5,1c5.9,4.7,11.8,9.3,17.7,14
			c-4.9-0.6-9.8-1.3-14.8-1.9c0.8,1,1.5,2,2.3,2.9C114.2,190.7,117.3,194.6,120.3,198.4z"/>
	</g>
</g>
<g>
	
		<rect x="184.9" y="13.9" transform="matrix(0.9903 -0.1389 0.1389 0.9903 -7.3185 26.7653)" class="st13" width="6.4" height="103.9"/>
	<polygon class="st13" points="260,100.6 255.7,130.3 254.7,137.4 250.7,165.4 249.7,172.6 243.6,214.8 183.1,214.8 177,172.6 
		176,165.4 171.9,137.4 170.9,130.3 166.6,100.6 	"/>
	<path class="st14" d="M247.9,80.9h-69.1c-4,0-7.5,2.7-8.6,6.6l-3.5,13.1H260l-3.5-13.1C255.5,83.6,251.9,80.9,247.9,80.9z"/>
	<path class="st15" d="M262.1,92h-97.6c-2,0-3.6,1.6-3.6,3.6v5h104.7v-5C265.7,93.6,264.1,92,262.1,92z"/>
	<polygon class="st16" points="255.7,130.3 254.7,137.4 250.7,165.4 249.7,172.6 177,172.6 176,165.4 171.9,137.4 170.9,130.3 	"/>
	<polygon class="st17" points="254.7,137.4 250.7,165.4 176,165.4 171.9,137.4 	"/>
	<circle class="st16" cx="213.3" cy="151.4" r="28.9"/>
	<circle class="st17" cx="213.3" cy="151.4" r="22.1"/>
	<circle class="st13" cx="213.3" cy="151.4" r="13.8"/>
</g>
<g>
	<g>
		<polygon class="st18" points="185.3,138.8 181,140.1 185.1,104.8 189,102.6 		"/>
		<polygon class="st17" points="181,140.1 174.1,137.3 178.7,100.3 185.1,104.8 		"/>
		<polygon class="st19" points="185.1,99.9 178.7,100.3 185.1,104.8 189,102.6 		"/>
	</g>
	<g>
		<polygon class="st18" points="195.4,151 190.9,151.2 203.3,117.9 207.6,116.7 		"/>
		<polygon class="st17" points="190.9,151.2 184.8,146.9 198.2,112.1 203.3,117.9 		"/>
		<polygon class="st19" points="204.5,113.2 198.2,112.1 203.3,117.9 207.6,116.7 		"/>
	</g>
	<g>
		<polygon class="st18" points="187,150.1 182.6,150.5 195.6,113.7 198.2,115.5 		"/>
		<polygon class="st17" points="182.6,150.5 178.5,149 188.7,111.2 195.6,113.7 		"/>
	</g>
	<g>
		<polygon class="st18" points="180.9,153.4 176.7,154.6 181.5,119.5 185.5,117.4 		"/>
		<polygon class="st17" points="176.7,154.6 169.8,151.7 175.3,114.9 181.5,119.5 		"/>
		<polygon class="st19" points="181.7,114.6 175.3,114.9 181.5,119.5 185.5,117.4 		"/>
	</g>
	<g>
		<polygon class="st18" points="173.9,141.4 169.7,142.8 171.9,107.4 175,108.3 		"/>
		<polygon class="st17" points="169.7,142.8 165.4,142.5 164.6,106.8 171.9,107.4 		"/>
	</g>
	<g>
		<polygon class="st18" points="159.7,137.1 155.6,138.9 155.7,103.3 159.3,100.7 		"/>
		<polygon class="st17" points="155.6,138.9 148.4,136.9 148.9,99.6 155.7,103.3 		"/>
		<polygon class="st19" points="155.2,98.5 148.9,99.6 155.7,103.3 159.3,100.7 		"/>
	</g>
	<g>
		<polygon class="st18" points="149.3,139 145.2,140.9 144.7,101.8 147.8,102.6 		"/>
		<polygon class="st17" points="145.2,140.9 140.9,140.9 137.3,101.8 144.7,101.8 		"/>
	</g>
	<g>
		<polygon class="st18" points="164.1,139.7 159.8,140.9 162.2,103.3 167.4,105.5 		"/>
		<polygon class="st17" points="159.8,140.9 155.5,140.2 158.1,104.4 162.2,103.3 		"/>
	</g>
	<g>
		<polygon class="st18" points="172.2,147.8 168.8,150.1 177.8,117 181.9,115.5 		"/>
		<polygon class="st17" points="168.8,150.1 163.6,148.5 172.8,114.6 177.8,117 		"/>
		<polygon class="st19" points="178.5,112.3 172.8,114.6 177.8,117 181.9,115.5 		"/>
	</g>
	<g>
		<polygon class="st18" points="147,144.4 143.4,147 135.8,112.3 138.8,109 		"/>
		<polygon class="st17" points="143.4,147 136,146.7 128.3,110.2 135.8,112.3 		"/>
		<polygon class="st19" points="134.3,107.8 128.3,110.2 135.8,112.3 138.8,109 		"/>
	</g>
	<g>
		<polygon class="st18" points="138.5,151.8 134.8,154.3 128,115.9 131.2,116.2 		"/>
		<polygon class="st17" points="134.8,154.3 130.5,155 120.7,117.1 128,115.9 		"/>
	</g>
	<g>
		<polygon class="st18" points="150,149.2 145.7,150.4 148.1,112.8 153.3,115 		"/>
		<polygon class="st17" points="145.7,150.4 141.4,149.7 144,113.9 148.1,112.8 		"/>
	</g>
	<g>
		<polygon class="st18" points="158.5,155.8 155.9,159 155,124.8 158.5,122.1 		"/>
		<polygon class="st17" points="155.9,159 150.4,159 149.5,123.9 155,124.8 		"/>
		<polygon class="st19" points="154.3,120 149.5,123.9 155,124.8 158.5,122.1 		"/>
	</g>
	<g>
		<polygon class="st18" points="168.8,151.7 166.2,154.9 165.2,120.7 168.8,118 		"/>
		<polygon class="st17" points="166.2,154.9 160.7,154.9 159.8,119.8 165.2,120.7 		"/>
		<polygon class="st19" points="164.6,115.9 159.8,119.8 165.2,120.7 168.8,118 		"/>
	</g>
	<g>
		<polygon class="st18" points="164.3,163.8 160.1,165 162.4,127.4 167.7,129.6 		"/>
		<polygon class="st17" points="160.1,165 155.8,164.3 158.4,128.5 162.4,127.4 		"/>
	</g>
	<polygon class="st20" points="192.2,215.7 150.1,215.7 141.9,143.1 200.4,143.1 	"/>
	<polygon class="st13" points="184.1,143.1 181.9,162 181.4,167 178.8,189.9 178.2,194.8 175.9,215.7 133.8,215.7 131.4,194.8 
		130.9,189.9 128.3,167 127.7,162 125.6,143.1 	"/>
	<polygon class="st16" points="181.9,162 181.4,167 178.8,189.9 178.2,194.8 131.4,194.8 130.9,189.9 128.3,167 127.7,162 	"/>
	<polygon class="st17" points="181.4,167 178.8,189.9 130.9,189.9 128.3,167 	"/>
</g>
<g>
	<circle class="st21" cx="249.3" cy="159.2" r="6.8"/>
	<g class="st22">
		<g>
			<path class="st23" d="M246.1,158c0.5-1.3,1.3-2.4,2.3-3.3c0.5-0.5,0-1.3-0.6-1.1c-1.6,0.6-3,1.8-3.7,3.5s-0.5,3.6,0.3,5.1
				c0.3,0.6,1.3,0.3,1.2-0.3C245.4,160.7,245.6,159.3,246.1,158z"/>
		</g>
		<g>
			<path class="st16" d="M246.1,158c0.5-1.3,1.3-2.4,2.3-3.3c0.5-0.5,0-1.3-0.6-1.1c-1.6,0.6-3,1.8-3.7,3.5s-0.5,3.6,0.3,5.1
				c0.3,0.6,1.3,0.3,1.2-0.3C245.4,160.7,245.6,159.3,246.1,158z"/>
		</g>
	</g>
	<polygon class="st24" points="294,167.1 209.9,167.1 209.9,180.5 294,179.9 	"/>
	<polygon class="st25" points="294,179.9 209.9,180.5 209.9,184.1 294,185 	"/>
	<polygon class="st24" points="294,185 294,196.3 261.5,197.1 252.5,197.3 244.9,197.5 209.9,198.4 209.9,184.1 213.1,184.1 
		244.1,184.4 251.8,184.5 261.5,184.6 286.4,184.9 	"/>
	<polygon class="st25" points="294,196.3 294,201.3 261.5,202.1 209.9,203.4 209.9,198.4 244.9,197.5 252.5,197.3 261.5,197.1 	"/>
	<polygon class="st24" points="294,201.3 294,215.1 209.9,215.1 209.9,203.4 261.5,202.1 	"/>
	<path class="st26" d="M295.3,171.8c0,4.2-0.1,8.4-0.1,12.6c0,1.7-0.2,3.7-1.2,5c-0.2,0.3-0.6,0.6-0.9,0.8c-1.9,1.1-4.6-0.1-5.7-2.1
		c-0.6-1-0.9-2.2-1-3.3s-0.2-2.1-0.2-3.2c0-0.6,0-1.1,0-1.7c-0.1-1.7-0.3-3.4-1.2-4.8c-1.2-1.9-3.9-3-5.7-1.7
		c-1.3,0.9-1.7,2.5-2.1,3.9c-0.3,1-0.8,2-1.6,2.7c-0.4,0.3-0.8,0.5-1.3,0.6c-0.8,0.2-1.6-0.1-2.3-0.6c-1.6-0.9-3.1-2.7-4.9-2.3
		c-1.2,0.2-1.9,1.3-2.6,2.3c-0.2,0.2-0.3,0.5-0.4,0.7c-0.6,1-1.5,2-2.6,2.2c-0.3,0.1-0.6,0.1-0.9,0c-1.2-0.3-1.5-1.5-1.8-2.8
		s-0.5-2.6-1.4-3.4c-1.4-1.3-3.9-0.4-4.8,1.3c-0.4,0.7-0.6,1.4-0.7,2.2c-0.2,1.1-0.1,2.3,0,3.4c0,0.3,0,0.6,0.1,0.9
		c0.2,3.6,0.5,7.2,0.7,10.8c0,0.7,0.1,1.3,0.1,2s-0.1,1.4-0.3,2c-0.4,1.3-1.4,2.5-2.7,2.8c-1.6,0.3-3.2-0.8-3.9-2.2
		c-0.4-0.7-0.6-1.6-0.7-2.4c-0.1-0.8-0.2-1.6-0.2-2.3c-0.2-3.6-0.4-7.2-0.6-10.8c0-0.1,0-0.1,0-0.2c-0.1-1.3-0.2-2.7-0.6-3.9
		c-0.2-0.5-0.3-0.9-0.6-1.3c-1-1.5-3.1-2.5-4.7-1.5c-1,0.6-1.4,1.7-1.8,2.9c-0.1,0.3-0.2,0.6-0.3,0.9c-0.5,1.4-1.3,2.9-2.8,3
		c-1.4,0.1-2.5-1.2-2.9-2.6c-0.1-0.4-0.2-0.8-0.2-1.2c-0.1-1-0.2-2-0.5-2.9c-0.4-1.3-1.5-2.7-2.9-2.6c-1.9,0.2-2.9,2.9-4.9,2.9
		c-2.6,0-3.1-4.6-5.7-5c-1.8-0.3-3.2,1.9-3.2,3.7c0,1.3,0.4,2.6,0.6,3.9c0.1,0.5,0.1,1,0.1,1.6c0,0.7-0.3,1.4-0.7,2
		c-0.7,1-1.7,1.7-2.8,1.3c-0.2-0.1-0.3-0.1-0.4-0.2c-1.2-0.8-1.4-2.6-1.4-4.2c0-2.9,0.1-5.8,0.1-8.8c0-2,0.1-4.2,1.2-5.8
		c1.9-2.7,5.7-3,9-3c14.2,0,28.4-0.1,42.7-0.1c8.1,0,16.3,0,24.4-0.1c2.9,0,6.3,0.2,8.1,2.5C295.3,167.5,295.3,169.7,295.3,171.8z"
		/>
	<path class="st27" d="M295.3,171.8c0,4.2-0.1,8.4-0.1,12.6c0,1.7-0.2,3.7-1.2,5V215h-32.6v-51.7c8.1,0,16.3,0,24.4-0.1
		c2.9,0,6.3,0.2,8.1,2.5C295.3,167.5,295.3,169.7,295.3,171.8z"/>
</g>
<rect id="Rectangle_3_" x="132.2" y="30.4" transform="matrix(0.7071 -0.7071 0.7071 0.7071 -65.9999 147.8191)" class="st0" width="26.4" height="246.4"/>
</svg>
