<svg xmlns="http://www.w3.org/2000/svg" viewBox="0 0 300 300"><defs><style>.cls-1,.cls-2{isolation:isolate;}.cls-2{fill:#c13b56;opacity:0.08;}.cls-3{fill:#d59453;}.cls-4{fill:#cacac9;}.cls-5{fill:#f4f4f4;}.cls-6{fill:none;stroke:#e7c3a4;stroke-miterlimit:10;stroke-width:0.99px;}.cls-7{fill:#dadada;}.cls-8{fill:#e4e4e4;}.cls-12,.cls-9{fill:#92ad4d;}.cls-10{fill:#b5d270;}.cls-11{fill:#869f42;}.cls-12{opacity:0.4;}.cls-12,.cls-20,.cls-24,.cls-32{mix-blend-mode:multiply;}.cls-13{fill:#baa93a;}.cls-14{fill:#ccbd44;}.cls-15{fill:#f6dfaf;}.cls-16{fill:#f1c74c;}.cls-17{fill:#de9841;}.cls-18{fill:#f4d484;}.cls-19{fill:#ecb049;}.cls-20,.cls-32{opacity:0.5;}.cls-21{fill:#e0a243;}.cls-22,.cls-24{fill:#8a3e27;}.cls-23,.cls-32{fill:#7a3423;}.cls-24{opacity:0.3;}.cls-25{fill:#ad5b35;}.cls-26{fill:#93482a;}.cls-27{fill:#a15132;}.cls-28{fill:#e7c3b7;}.cls-29{fill:#524948;}.cls-30{fill:#c46f54;}.cls-31{fill:#d9846c;}.cls-33{fill:#9f4e2e;}.cls-34{fill:#873c26;}</style></defs><g class="cls-1"><g id="OBJECTS"><g id="Page-1"><g id="For-you-and-your-partner-Copy-4"><g id="Group-4"><circle id="Mask-Copy-2" class="cls-2" cx="150" cy="150" r="150"/></g></g></g><ellipse class="cls-3" cx="148.57" cy="184.46" rx="127.02" ry="44.21"/><ellipse class="cls-4" cx="142.69" cy="172.82" rx="125.96" ry="52.8"/><ellipse class="cls-5" cx="142.69" cy="170.65" rx="125.96" ry="50.93"/><ellipse class="cls-6" cx="142.69" cy="169.59" rx="120.01" ry="47.47"/><ellipse class="cls-7" cx="142.69" cy="168.67" rx="83.84" ry="33.07"/><ellipse class="cls-8" cx="142.69" cy="170.15" rx="82.78" ry="31.59"/><path class="cls-9" d="M177.25,165.2c-6,3.63-7.48,6.62-12.55,7.69s-8.39-1.28-10.91,6.73-5.66,8.22-7.26,14-7.51,8.76,2.92,10.89,13.79,1.07,17.06,2.14,2.59,7.69,14,3.2S197.15,203,206,203.64s5.58,5.12,15.72.43,1.78-4.7,12.93-9,13.44-1.88,14.2-6.81-.51-10.06-1.27-13.48-9.13-2.14-15-3-7.35-.28-11.4-3-6.09-3-11.67-2.53-8.63-.86-13.31-1.07-7.48-1.28-10.77,0S177.25,165.2,177.25,165.2Z"/><path class="cls-10" d="M244.37,184.76a2.39,2.39,0,0,0-1.45-.76,9.59,9.59,0,0,0-3.25.08c-2.13.34-4.19,1.07-6.23,1.58-.52.09-1,.21-1.56.29a13.61,13.61,0,0,1-1.56.1,5,5,0,0,1-2.9-.75,2.72,2.72,0,0,1-1.09-2.56,5.67,5.67,0,0,1,1.13-2.81c.3-.44.64-.75,1-1.26a1.46,1.46,0,0,0,.27-.93,1.3,1.3,0,0,0-.46-.86,6.91,6.91,0,0,0-3.08-1.28,37.71,37.71,0,0,0-6.43-.67,74.61,74.61,0,0,0-12.68.77,5.72,5.72,0,0,0-2.28-1.87,16.45,16.45,0,0,0-3.58-1.22c-.64-.15-1.27-.27-1.91-.38a44.65,44.65,0,0,1,4.59-1.48c1-.26,1.91-.48,2.87-.67a16.14,16.14,0,0,1,2.89-.38,7.35,7.35,0,0,1,1.41.17.89.89,0,0,1,.48.24c.05.06,0,.26-.07.47s-.1.21-.15.31a2,2,0,0,0-.18.38.41.41,0,0,0,0,.27.5.5,0,0,0,.07.27,1,1,0,0,0,.34.36,3.92,3.92,0,0,0,1.5.45,22.91,22.91,0,0,0,6-.2,32.2,32.2,0,0,1-5.9-.21,4,4,0,0,1-1.31-.43c-.16-.14-.21-.23-.16-.36a1.32,1.32,0,0,1,.15-.28,4,4,0,0,0,.17-.36,1,1,0,0,0,0-.95,1.33,1.33,0,0,0-.78-.48,7.3,7.3,0,0,0-1.54-.2,25.4,25.4,0,0,0-5.92,1,32.92,32.92,0,0,0-5.42,1.91c-1.51-.22-3-.36-4.53-.46-1.25-.08-2.49-.14-3.73-.18a16.12,16.12,0,0,1-3.6-.34,3.67,3.67,0,0,1-2.55-1.92,4.65,4.65,0,0,1,.09-3.28h0a.49.49,0,0,0-.33-.63.5.5,0,0,0-.64.33,5.6,5.6,0,0,0,0,4,4.56,4.56,0,0,0,3.2,2.39,16.52,16.52,0,0,0,3.8.31h.27c-.72.35-1.44.71-2.14,1.09a11.82,11.82,0,0,0-1.64,1,2.7,2.7,0,0,0-.73.77.75.75,0,0,0-.1.32.6.6,0,0,0,0,.37,1,1,0,0,0,.43.48c.32.21.69.28.83.39s.16.25,0,.5a4.46,4.46,0,0,1-1.18,1.29,19.6,19.6,0,0,1-3.15,2,32.78,32.78,0,0,1-3.42,1.54c-1.16.47-2.36.81-3.55,1.28a7.91,7.91,0,0,0-3.19,2.13,2.4,2.4,0,0,0-.6,1.83,1.84,1.84,0,0,0,1.08,1.49,1.75,1.75,0,0,1-.9-1.51,2.23,2.23,0,0,1,.66-1.61,8,8,0,0,1,3.12-1.89,45.47,45.47,0,0,0,7-2.78,20,20,0,0,0,3.25-2,4.91,4.91,0,0,0,1.35-1.47,1.27,1.27,0,0,0,.14-.6.91.91,0,0,0-.34-.61c-.38-.25-.67-.27-.87-.42s-.25-.21-.15-.4a2,2,0,0,1,.56-.58,13.69,13.69,0,0,1,1.55-1c1-.55,2-1,3-1.55.77,0,1.55,0,2.32.07a46.1,46.1,0,0,1,7.33.85,15.71,15.71,0,0,1,3.46,1.11,3.5,3.5,0,0,1,1.71,5.69,7.89,7.89,0,0,0-1.37,3,44.64,44.64,0,0,0-11.94.28,28.29,28.29,0,0,0-3,.68c-.49.12-1,.3-1.45.46a4.83,4.83,0,0,0-1.43.69,1.34,1.34,0,0,0-.53.76,1.32,1.32,0,0,0,.2.91,5.25,5.25,0,0,0,1.1,1.15c.79.66,1.62,1.23,2.32,1.91s1.28,1.56.7,2.29a5.83,5.83,0,0,1-2.38,1.55c-1.85.77-3.74,1.46-5.63,2.13s-3.81,1.31-5.67,2.13a10.16,10.16,0,0,0-1.35.7,2.17,2.17,0,0,0-1,1.15,1.4,1.4,0,0,0,.71,1.3,8.14,8.14,0,0,0,1.3.78,8.31,8.31,0,0,1-1.26-.83c-.37-.31-.74-.76-.62-1.22s.59-.75,1-1a10.36,10.36,0,0,1,1.34-.65c1.85-.77,3.78-1.35,5.69-2s3.82-1.27,5.7-2a6.27,6.27,0,0,0,2.61-1.72,1.69,1.69,0,0,0,.2-1.68,3.9,3.9,0,0,0-1-1.29c-.75-.73-1.58-1.3-2.34-1.94s-1.63-1.47-.78-2a4.66,4.66,0,0,1,1.27-.6c.48-.15.94-.32,1.43-.44a26.08,26.08,0,0,1,2.91-.66,47.6,47.6,0,0,1,11.75-.34,7.57,7.57,0,0,0,.59,3.68,13.7,13.7,0,0,0,1.95,3.22,30.21,30.21,0,0,0,5.4,5.14A50.93,50.93,0,0,0,218,199.7a.09.09,0,0,0,.12,0,.08.08,0,0,0,0-.12,51.71,51.71,0,0,1-6.16-4.13,29.94,29.94,0,0,1-5.28-5.15c-1.48-1.92-2.69-4.27-2.39-6.69l0-.12s0-.05.05-.09,0,0,0-.06a7.29,7.29,0,0,1,1.38-3,4.72,4.72,0,0,0,.83-3.73,3.12,3.12,0,0,0-.15-.39,80.47,80.47,0,0,1,12.41-.65,38.25,38.25,0,0,1,6.33.63,6.53,6.53,0,0,1,2.81,1.12.76.76,0,0,1,.11,1.09c-.26.35-.7.79-1,1.23a6.44,6.44,0,0,0-1.22,3.09,3.28,3.28,0,0,0,1.33,3,5.44,5.44,0,0,0,3.21.84,12.63,12.63,0,0,0,1.63-.11c.54-.08,1.07-.2,1.61-.3,2.11-.52,4.09-1.3,6.18-1.68a9.81,9.81,0,0,1,3.14-.23,2.29,2.29,0,0,1,1.39.6,1.59,1.59,0,0,1,.29,1.48A1.67,1.67,0,0,0,244.37,184.76Z"/><path class="cls-11" d="M191.45,174.13c4.45.3,12.17-.32,11.34,3s.58,3-2.69,3.86-4.95-.65-6.75,1a7.32,7.32,0,0,1,2.91-3c1.9-.95,5-2.15,2.29-2.34a23.87,23.87,0,0,0-5.39.12c-2,.19-1.52-1.52-3.36-1.27S189.75,174,191.45,174.13Z"/><path class="cls-11" d="M190.7,194.28c-2,.56,3.28-3.1,1.38-4.56s-2.28-4.31,2.79-4.57a69.53,69.53,0,0,0,7.29-.63s2.72,10.4,10,12.23c0,0-2.85,1.27-5.71-2.22s-1.33-3.89-3.55-3.78-1.76-2.24-2.75-3.12-.86-1.84-2.76-.57-.82.12-2.34,3.23S192.49,193.77,190.7,194.28Z"/><path class="cls-11" d="M179.91,166.84s-.08,4.94,4.44,6.17c-1.44.42-3.49,1.69-2.17,2.91s2.95,1.41,0,2.17-4.76,1-5.52,2.25-3,1-3.89,1.71a9.08,9.08,0,0,1,2.45-1.71c.85-.19-.8-1,1.73-2.56s3.09-.51,3.38-1.94.76-2.54-1.18-3.42-2.28-1.61-4.65-1a12.28,12.28,0,0,0-3.84,1.65s-1.18-1,.38-2.05,2.74-.87,4.35-2.47A5.25,5.25,0,0,1,179.91,166.84Z"/><path class="cls-11" d="M149.4,197.51c1.95-2.79-.67-.94,2.2-5s2.62-3.8,4.82-5.23.84-2.11,3.8,0S160,187,166,190.75s12.59,4.06,5.49,4.9-7.52,1.36-6.34,3-2.45,5.83-6.08,3.34-.93-3.17-5-2.32S149.4,197.51,149.4,197.51Z"/><path class="cls-11" d="M210.78,181.73s-2.79.83.57,5.39,2.91,4.78,6.27,5.4,4.06,2.08,4.38,3.73,1.26-.51,0-3.43.57-3.36-1.72-4-2.78-1.33-2.78-2.44-.64-3.77,1.58-1.81,3.68,3.55,5.39,3.17,2.91.76.5-1.36-3.16-.48-2.85-3,2.28-3,.07-3.36-5.9-1.71-8.37-1.08A4.25,4.25,0,0,0,210.78,181.73Z"/><path class="cls-11" d="M232.33,177c1.58,1.71.95,2.47,3.8,2.09s5.2-.82,6.91.51,3.93,4.65,3.17,1.18,1.51-3.53-1.56-5-2.35-1.33-5.31-1.07-1.44-.13-4.79-.16S232.33,177,232.33,177Z"/><path class="cls-12" d="M184.33,195.78c.69-4.94-.45-10.06-1.14-13.48s-8.26-2.13-13.53-3-6.65-.27-10.31-3a17.44,17.44,0,0,0-2.74-1.73c-1.05.87-2,2.39-2.82,5.06-2.53,8-5.66,8.22-7.26,14s-7.51,8.76,2.92,10.89c9.45,1.94,13.1,1.25,16.13,1.89.55-.95,1.66-2,5.92-3.79C181.58,198.32,183.65,200.71,184.33,195.78Z"/><path class="cls-9" d="M73.15,154.55c-5.38,3.63-6.76,6.62-11.34,7.69S54.22,161,51.94,169s-5.12,8.22-6.57,14-6.78,8.75,2.65,10.89,12.47,1.06,15.42,2.13,2.34,7.69,12.62,3.2,15.09-6.83,23.11-6.19,5,5.13,14.22.43,1.6-4.7,11.69-9,12.15-1.87,12.84-6.81-.46-10.06-1.15-13.48-8.25-2.13-13.52-3-6.65-.27-10.32-3-5.5-3-10.55-2.53-7.8-.85-12-1.07-6.75-1.28-9.73,0S73.15,154.55,73.15,154.55Z"/><path class="cls-12" d="M122.9,169.3c-3.3,1.28-8.24,0-8.24,0-6,3.63-7.48,6.62-12.55,7.68s-8.39-1.27-10.91,6.73c-2.16,6.83-4.75,8-6.46,11.78,5.11-2,9.05-2.93,14.43-2.5,8,.64,5,5.13,14.22.43s1.6-4.7,11.69-9,12.15-1.87,12.84-6.81a29.3,29.3,0,0,0-.14-7.9,35.72,35.72,0,0,0-4.11-.44C129,169.08,126.19,168,122.9,169.3Z"/><path class="cls-10" d="M133.85,174.12a2,2,0,0,0-1.31-.76,7.86,7.86,0,0,0-2.94.07c-1.93.35-3.79,1.07-5.63,1.58-.47.1-.94.22-1.41.29a11.3,11.3,0,0,1-1.42.1,4.16,4.16,0,0,1-2.62-.75,2.85,2.85,0,0,1-1-2.56,6.07,6.07,0,0,1,1-2.81c.27-.44.58-.75.92-1.25a1.52,1.52,0,0,0,.24-.94,1.37,1.37,0,0,0-.41-.86,5.91,5.91,0,0,0-2.78-1.28,32,32,0,0,0-5.82-.67,62.08,62.08,0,0,0-11.47.77,5.26,5.26,0,0,0-2.06-1.87A13.82,13.82,0,0,0,93.94,162c-.57-.14-1.15-.27-1.73-.37a36.14,36.14,0,0,1,4.16-1.49c.86-.26,1.73-.48,2.6-.67a13,13,0,0,1,2.61-.37,5.39,5.39,0,0,1,1.27.16c.19.06.39.15.43.24s0,.27-.06.47-.09.21-.14.32a2.15,2.15,0,0,0-.16.38.56.56,0,0,0,0,.27.44.44,0,0,0,.07.26,1,1,0,0,0,.3.36,3.53,3.53,0,0,0,1.37.46,18.78,18.78,0,0,0,5.4-.21,25.68,25.68,0,0,1-5.34-.21,3.19,3.19,0,0,1-1.19-.43c-.14-.13-.19-.23-.14-.36a1.53,1.53,0,0,1,.13-.28c.05-.12.11-.23.16-.35a.92.92,0,0,0-.67-1.43,6.08,6.08,0,0,0-1.39-.21,21,21,0,0,0-5.36,1,28.73,28.73,0,0,0-4.9,1.91c-1.36-.21-2.73-.36-4.1-.46-1.12-.08-2.25-.13-3.37-.17a13.17,13.17,0,0,1-3.25-.35,3.36,3.36,0,0,1-2.31-1.91,5.13,5.13,0,0,1,.08-3.28v0h0a.51.51,0,0,0-.3-.64.46.46,0,0,0-.57.33,6.16,6.16,0,0,0,0,4,4.17,4.17,0,0,0,2.88,2.38,13.62,13.62,0,0,0,3.44.32h.24c-.65.35-1.29.7-1.93,1.09a10.27,10.27,0,0,0-1.48,1,2.46,2.46,0,0,0-.66.78.71.71,0,0,0-.09.31.59.59,0,0,0,0,.37.92.92,0,0,0,.39.48c.28.21.62.28.75.4s.14.24,0,.49a4.06,4.06,0,0,1-1.07,1.29,18.51,18.51,0,0,1-2.84,2,30.57,30.57,0,0,1-3.09,1.53c-1.06.47-2.14.81-3.22,1.29A7.16,7.16,0,0,0,68,174.8a2.59,2.59,0,0,0-.55,1.83,1.84,1.84,0,0,0,1,1.49,1.79,1.79,0,0,1-.81-1.51,2.36,2.36,0,0,1,.59-1.61,7.42,7.42,0,0,1,2.83-1.89,38.75,38.75,0,0,0,6.37-2.77,18.51,18.51,0,0,0,2.94-2,4.75,4.75,0,0,0,1.22-1.48,1.4,1.4,0,0,0,.12-.6.89.89,0,0,0-.3-.6c-.34-.25-.6-.27-.79-.43s-.22-.21-.14-.4a2.29,2.29,0,0,1,.52-.58,11.8,11.8,0,0,1,1.4-1c.87-.55,1.78-1,2.69-1.55.7,0,1.4,0,2.1.07a38.8,38.8,0,0,1,6.63.85A13.41,13.41,0,0,1,97,163.71a4.1,4.1,0,0,1,2.2,2.37,4.61,4.61,0,0,1-.66,3.32,8.4,8.4,0,0,0-1.24,3,36.84,36.84,0,0,0-10.79.28,25,25,0,0,0-2.68.68c-.45.13-.88.3-1.32.46a4,4,0,0,0-1.3.7,1.3,1.3,0,0,0-.47.75,1.45,1.45,0,0,0,.18.92,5.11,5.11,0,0,0,1,1.15c.71.65,1.46,1.22,2.09,1.9s1.16,1.56.63,2.29a5.3,5.3,0,0,1-2.15,1.55c-1.67.78-3.38,1.47-5.09,2.14s-3.45,1.3-5.13,2.12a9.34,9.34,0,0,0-1.22.7,2.09,2.09,0,0,0-.92,1.15,1.47,1.47,0,0,0,.64,1.31,7.86,7.86,0,0,0,1.17.77,7.45,7.45,0,0,1-1.13-.83,1.36,1.36,0,0,1-.56-1.22,1.91,1.91,0,0,1,.9-1,7.87,7.87,0,0,1,1.21-.66c1.68-.76,3.42-1.35,5.15-2s3.45-1.27,5.16-2A5.62,5.62,0,0,0,85,181.86a1.83,1.83,0,0,0,.17-1.67,3.83,3.83,0,0,0-.86-1.3c-.67-.72-1.42-1.3-2.11-1.94s-1.48-1.47-.71-2a4,4,0,0,1,1.15-.61c.43-.15.86-.32,1.29-.44a24.25,24.25,0,0,1,2.64-.66,38.93,38.93,0,0,1,10.62-.33,8.34,8.34,0,0,0,.54,3.68,14,14,0,0,0,1.76,3.21,28.77,28.77,0,0,0,4.88,5.15,46.4,46.4,0,0,0,5.64,4.08.08.08,0,0,0,.11,0,.1.1,0,0,0,0-.12,46,46,0,0,1-5.57-4.12,29,29,0,0,1-4.78-5.16,10.05,10.05,0,0,1-2.16-6.69l0-.11s0-.06,0-.1a.14.14,0,0,0,0-.06,7.87,7.87,0,0,1,1.25-3,5.09,5.09,0,0,0,.76-3.72,3.54,3.54,0,0,0-.14-.39,64.9,64.9,0,0,1,11.22-.66,30.57,30.57,0,0,1,5.73.64,5.54,5.54,0,0,1,2.54,1.12.81.81,0,0,1,.1,1.08c-.24.35-.64.79-.91,1.24A6.73,6.73,0,0,0,117,172a3.45,3.45,0,0,0,1.2,3.05,4.7,4.7,0,0,0,2.9.84,14.52,14.52,0,0,0,1.48-.11c.49-.08,1-.21,1.45-.31,1.91-.52,3.7-1.29,5.6-1.68a8,8,0,0,1,2.83-.23,2,2,0,0,1,1.26.6,1.7,1.7,0,0,1,.26,1.48A1.76,1.76,0,0,0,133.85,174.12Z"/><path class="cls-11" d="M86,163.48c4,.3,11-.32,10.26,3s.53,3-2.43,3.87-4.48-.66-6.11,1a7.15,7.15,0,0,1,2.63-3c1.73-.95,4.48-2.15,2.07-2.34a19.93,19.93,0,0,0-4.87.13c-1.83.19-1.38-1.53-3-1.27S84.46,163.36,86,163.48Z"/><path class="cls-11" d="M85.32,183.63c-1.78.56,3-3.1,1.25-4.56s-2.07-4.31,2.52-4.56a58.09,58.09,0,0,0,6.59-.64s2.46,10.4,9,12.24c0,0-2.58,1.26-5.16-2.22s-1.21-3.9-3.21-3.79-1.6-2.23-2.49-3.12-.78-1.84-2.5-.57-.74.13-2.12,3.23S86.93,183.13,85.32,183.63Z"/><path class="cls-11" d="M75.56,156.19s-.07,4.94,4,6.17c-1.3.42-3.15,1.69-2,2.92s2.67,1.41,0,2.16-4.3,1-5,2.26-2.71,1-3.52,1.7a8.13,8.13,0,0,1,2.22-1.7c.76-.2-.73-1,1.57-2.57s2.79-.5,3-1.94.69-2.53-1.07-3.42-2.06-1.61-4.2-1a10.9,10.9,0,0,0-3.48,1.65s-1.06-1,.35-2,2.48-.87,3.93-2.48A4.53,4.53,0,0,1,75.56,156.19Z"/><path class="cls-11" d="M48,186.87c1.76-2.79-.61-1,2-5s2.37-3.79,4.36-5.23.76-2.11,3.44,0-.23-.26,5.19,3.46,11.39,4.06,5,4.91-6.8,1.35-5.73,3-2.22,5.83-5.5,3.33-.84-3.17-4.51-2.32S48,186.87,48,186.87Z"/><path class="cls-11" d="M103.47,171.09s-2.52.82.52,5.38,2.64,4.78,5.67,5.4,3.67,2.08,4,3.73,1.14-.51,0-3.42.51-3.36-1.55-4.06-2.52-1.33-2.52-2.44-.57-3.77,1.43-1.81,3.33,3.55,4.87,3.17,2.64.76.46-1.36-2.86-.47-2.58-3,2.07-3,.06-3.36-5.33-1.71-7.57-1.07A4.09,4.09,0,0,0,103.47,171.09Z"/><path class="cls-11" d="M123,166.33c1.43,1.71.86,2.47,3.44,2.09s4.7-.82,6.25.51,3.55,4.65,2.86,1.19,1.37-3.53-1.41-5-2.12-1.33-4.8-1.08-1.3-.12-4.33-.16S123,166.33,123,166.33Z"/><path class="cls-13" d="M89.65,112.81c4.81,10,1.83,24-7.89,28.69s-22.48-1.77-27.29-11.77"/><path class="cls-14" d="M89.65,112.81c4.81,10,.83,21.89-8.88,26.56s-21.49.36-26.3-9.64"/><path class="cls-15" d="M88.66,113.29a18.43,18.43,0,1,1-33.2,16"/><path class="cls-14" d="M68.72,122.88a1.57,1.57,0,0,1-.12,1.54l-6.84,7.75a1.49,1.49,0,0,1-.65.59A1.55,1.55,0,0,1,59,132h0l-1.76-3.66"/><path class="cls-14" d="M86.84,114.16l1.76,3.66h0a1.54,1.54,0,0,1-.72,2.07A1.59,1.59,0,0,1,87,120l-10.31.5a1.54,1.54,0,0,1-1.28-.87"/><path class="cls-14" d="M73.44,137.09a1.59,1.59,0,0,1-.14-.88l-.5-10.32a1.53,1.53,0,0,1,.87-1.27,1.56,1.56,0,0,1,1.55.11L83,131.62a1.54,1.54,0,0,1,.68,1.39,1.57,1.57,0,0,1-.88,1.28l-7.32,3.52h0A1.55,1.55,0,0,1,73.44,137.09Z"/><path class="cls-14" d="M70.35,138.43h0l-7.67-2.69a1.55,1.55,0,0,1-.49-2.63l7-7.71a1.56,1.56,0,0,1,1.52-.29,1.52,1.52,0,0,1,1,1.18l.65,10.31a1.55,1.55,0,0,1-2,1.83Z"/><path class="cls-14" d="M84.56,131.6a1.66,1.66,0,0,1-.72-.52l-7.65-6.94a1.54,1.54,0,0,1,.89-2.53L87.47,121a1.55,1.55,0,0,1,1.47.51,1.53,1.53,0,0,1,.28,1.52l-2.68,7.66h0A1.57,1.57,0,0,1,84.56,131.6Z"/><path class="cls-16" d="M166.64,122.69s14.93-7,26.77-18.54L209.32,125s-21.71,17.5-29.2,20.74C180.12,145.76,166.1,136,166.64,122.69Z"/><path class="cls-17" d="M176.26,142.5a37.39,37.39,0,0,0,3.86,3.26c7.49-3.24,29.2-20.74,29.2-20.74l-3-4C202.06,124.42,184,138.69,176.26,142.5Z"/><path class="cls-18" d="M168.85,124.38c.61-.34,3.87-2.36,4.81-3.08s8.6-6.36,9.63-7.15,4.8-3.92,6.05-4.61a23.3,23.3,0,0,0,2.43-1.59l1.13,2,1.41,2.16a30,30,0,0,1-2.27,2c-1.82,1.52-1.45,1.37-4.58,4s-6.12,3.31-8.3,5.2a41.48,41.48,0,0,1-5,4.13,13.05,13.05,0,0,1-4.8,2.39l-.94-3-.34-2.24Z"/><path class="cls-19" d="M203.59,113c4.37,5.73,6.94,11.13,5.73,12s-5.73-3-10.1-8.71-6.94-11.12-5.73-12S199.22,107.24,203.59,113Z"/><g class="cls-20"><path class="cls-19" d="M168.36,126.22q2.22-1.71,4.46-3.38l4.51-3.31,4.56-3.25q2.28-1.61,4.61-3.17a.06.06,0,0,1,.09,0,.06.06,0,0,1,0,.09c-1.47,1.15-3,2.27-4.46,3.39l-4.51,3.3-4.56,3.25c-1.52,1.07-3.06,2.13-4.6,3.17a.08.08,0,0,1-.1,0A.07.07,0,0,1,168.36,126.22Z"/><path class="cls-19" d="M175.08,123.89c1.48-1.14,3-2.27,4.46-3.38l4.51-3.31L188.6,114q2.29-1.61,4.61-3.17a.08.08,0,0,1,.1,0,.07.07,0,0,1,0,.1c-1.48,1.15-3,2.27-4.46,3.38l-4.51,3.31-4.56,3.25q-2.28,1.6-4.61,3.17a.07.07,0,0,1-.09,0S175.05,123.91,175.08,123.89Z"/><path class="cls-19" d="M173,127.45c1.48-1.14,3-2.27,4.46-3.38l4.51-3.31,4.55-3.25c1.53-1.07,3.06-2.13,4.61-3.17a.08.08,0,0,1,.1,0s0,.08,0,.1q-2.2,1.71-4.45,3.38l-4.51,3.31-4.56,3.24q-2.28,1.62-4.61,3.18a.07.07,0,0,1-.1,0A.06.06,0,0,1,173,127.45Z"/><path class="cls-19" d="M170.44,133.49c1.48-1.14,3-2.27,4.46-3.38l4.51-3.31,4.55-3.25c1.53-1.08,3.07-2.13,4.61-3.18a.08.08,0,0,1,.1,0,.07.07,0,0,1,0,.1c-1.48,1.14-3,2.27-4.46,3.38l-4.51,3.31-4.56,3.24c-1.52,1.08-3.06,2.13-4.61,3.18a.06.06,0,0,1-.09,0A.06.06,0,0,1,170.44,133.49Z"/><path class="cls-19" d="M173.58,133.5q2.22-1.71,4.46-3.38l4.51-3.31,4.56-3.25c1.52-1.08,3.06-2.13,4.61-3.18a.07.07,0,0,1,.09,0s0,.08,0,.1q-2.2,1.71-4.46,3.38l-4.51,3.31-4.56,3.24c-1.52,1.08-3.06,2.13-4.6,3.18a.07.07,0,0,1-.1,0A.06.06,0,0,1,173.58,133.5Z"/><path class="cls-19" d="M181.33,131.24q2.21-1.71,4.46-3.38l4.51-3.31,4.55-3.25q2.28-1.6,4.61-3.17a.07.07,0,0,1,.1,0,.06.06,0,0,1,0,.09c-1.47,1.15-3,2.27-4.45,3.39l-4.52,3.3L186,128.19q-2.29,1.6-4.61,3.17a.08.08,0,0,1-.1,0S181.3,131.26,181.33,131.24Z"/><path class="cls-19" d="M174.35,138.9c1.48-1.14,3-2.26,4.46-3.37l4.51-3.31,4.55-3.25q2.3-1.62,4.61-3.18a.08.08,0,0,1,.1,0,.08.08,0,0,1,0,.1c-1.48,1.14-3,2.27-4.46,3.38l-4.51,3.31-4.56,3.24c-1.52,1.08-3.06,2.13-4.61,3.18a.06.06,0,0,1-.09,0A.07.07,0,0,1,174.35,138.9Z"/><path class="cls-19" d="M180.92,136.24c1.48-1.14,3-2.27,4.46-3.38l4.51-3.31,4.55-3.25c1.53-1.07,3.06-2.13,4.61-3.17a.07.07,0,0,1,.1,0,.07.07,0,0,1,0,.09c-1.48,1.15-3,2.27-4.46,3.39l-4.51,3.3-4.56,3.25q-2.28,1.6-4.61,3.17a.08.08,0,0,1-.1,0S180.89,136.26,180.92,136.24Z"/><path class="cls-19" d="M179.25,142.2c1.47-1.13,3-2.26,4.46-3.37l4.51-3.31,4.55-3.25c1.52-1.08,3.06-2.13,4.61-3.18,0,0,.07,0,.1,0s0,.08,0,.1q-2.21,1.71-4.46,3.38l-4.51,3.31L184,139.15c-1.53,1.08-3.07,2.13-4.61,3.18a.07.07,0,0,1-.1,0A.08.08,0,0,1,179.25,142.2Z"/><path class="cls-19" d="M186.53,139.48c1.48-1.14,3-2.27,4.46-3.38l4.51-3.31,4.55-3.25q2.3-1.6,4.61-3.17a.07.07,0,0,1,.1,0,.06.06,0,0,1,0,.09c-1.48,1.15-3,2.28-4.46,3.39l-4.51,3.3-4.56,3.25q-2.28,1.6-4.61,3.18a.07.07,0,0,1-.09,0S186.5,139.5,186.53,139.48Z"/></g><path class="cls-21" d="M195.56,107.42c-.36-1.43.08-1.81,1.26-1a42.65,42.65,0,0,1,4.75,5.22c1.42,1.71,2,3.25,3.05,4.59s2.13,2.37,2.58,3.59,1.49,2.7,1,3.12-.8.6-1.67,0-.91-.67-.12-1a.89.89,0,0,0,.58-1.37c-.23-.52-.31-.56-.95-1.24a13,13,0,0,1-1.8-2.2,29.87,29.87,0,0,0-3.59-5.13c-1.64-1.68-2.89-4.59-3.44-3.88s-.26.35.53,2.34-1.24.77-1.74-.58A6.3,6.3,0,0,1,195.56,107.42Z"/><path class="cls-16" d="M203.75,124.75a145.66,145.66,0,0,0,35.87,1.37v24s-30.75.68-39.48-1.11C200.14,149,194.35,134.16,203.75,124.75Z"/><path class="cls-17" d="M198.93,144.52a27.53,27.53,0,0,0,1.21,4.52c8.73,1.79,39.48,1.11,39.48,1.11v-4.57C233.66,145.69,208.27,146,198.93,144.52Z"/><path class="cls-18" d="M204.55,127.21c.76.1,5,.43,6.29.43s11.79.14,13.22.14,6.83-.19,8.4,0a30.39,30.39,0,0,0,3.19.19l-.35,2.09-.21,2.35s-.74.12-3.35.21-2.18.19-6.69.38-7.58-1-10.77-.82a55.29,55.29,0,0,1-7.15.23,16.77,16.77,0,0,1-5.8-.93l1.2-2.73,1.22-1.82Z"/><path class="cls-19" d="M242.66,138.2c0,6.6-1.36,12-3,12s-3-5.35-3-12,1.35-11.95,3-11.95S242.66,131.6,242.66,138.2Z"/><g class="cls-20"><path class="cls-19" d="M202.89,128.28c2.06,0,4.12,0,6.17,0l6.17.09,6.17.16c2.06.07,4.11.15,6.17.25a.08.08,0,0,1,.07.08s0,.06-.07.06q-3.09,0-6.17,0l-6.17-.1-6.17-.16c-2.06-.07-4.11-.15-6.17-.25a.07.07,0,0,1-.07-.07A.08.08,0,0,1,202.89,128.28Z"/><path class="cls-19" d="M210.34,130.31q3.09,0,6.18,0l6.17.09,6.17.17c2,.06,4.11.14,6.16.25a.07.07,0,0,1,0,.14q-3.09,0-6.17,0l-6.17-.1-6.17-.17c-2.06-.06-4.11-.15-6.17-.24a.08.08,0,0,1,0-.15Z"/><path class="cls-19" d="M206.12,131.74q3.09,0,6.17,0l6.17.1,6.17.16c2.06.07,4.11.15,6.17.25a.08.08,0,0,1,.07.07.08.08,0,0,1-.07.07c-2.06,0-4.12,0-6.18,0l-6.17-.1-6.16-.17q-3.09-.09-6.17-.24a.07.07,0,0,1,0-.14Z"/><path class="cls-19" d="M199.86,134.73q3.07,0,6.17,0l6.17.1,6.17.16c2,.06,4.11.15,6.16.25a.07.07,0,1,1,0,.14q-3.09,0-6.17,0l-6.17-.1-6.17-.17c-2.06-.06-4.11-.15-6.17-.24a.08.08,0,0,1-.07-.08A.09.09,0,0,1,199.86,134.73Z"/><path class="cls-19" d="M202.6,136.48q3.09,0,6.18,0l6.17.1,6.16.16c2.06.06,4.12.15,6.17.25a.07.07,0,1,1,0,.14c-2.06,0-4.12,0-6.17,0l-6.17-.1-6.17-.17c-2.06-.06-4.11-.14-6.17-.24a.08.08,0,0,1-.07-.07A.08.08,0,0,1,202.6,136.48Z"/><path class="cls-19" d="M210.91,139.13c2.05,0,4.11,0,6.17,0l6.17.1,6.17.16c2.05.06,4.11.15,6.16.25a.07.07,0,1,1,0,.14c-2.06,0-4.11,0-6.17,0l-6.17-.1-6.17-.17c-2.06-.06-4.11-.15-6.17-.24a.06.06,0,0,1-.06-.08S210.87,139.14,210.91,139.13Z"/><path class="cls-19" d="M199.66,140.84c2.06,0,4.11,0,6.17,0L212,141l6.17.16c2.06.07,4.11.15,6.17.25,0,0,.07,0,.06.08a.07.07,0,0,1-.07.07c-2.05,0-4.11,0-6.17,0L212,141.4l-6.17-.17c-2-.06-4.11-.15-6.16-.25a.07.07,0,0,1,0-.14Z"/><path class="cls-19" d="M207.21,142.55c2,0,4.11,0,6.17,0l6.17.09,6.17.16c2.05.07,4.11.15,6.16.25a.08.08,0,0,1,.07.08.07.07,0,0,1-.07.06c-2.06,0-4.12,0-6.17,0l-6.17-.1-6.17-.16c-2.06-.07-4.11-.15-6.17-.25a.07.07,0,0,1-.07-.07A.08.08,0,0,1,207.21,142.55Z"/><path class="cls-19" d="M201.75,146q3.08,0,6.17,0l6.17.1,6.17.16c2.05.06,4.11.14,6.16.25a.07.07,0,1,1,0,.14q-3.09,0-6.17,0l-6.17-.1-6.17-.17c-2.06-.06-4.11-.15-6.17-.24a.08.08,0,0,1,0-.15Z"/><path class="cls-19" d="M210,148c2.06,0,4.11,0,6.17,0l6.17.1,6.17.16c2.06.06,4.11.15,6.17.25a.06.06,0,0,1,.06.07.07.07,0,0,1-.07.07q-3.07,0-6.17,0l-6.17-.1-6.17-.17c-2.05-.06-4.11-.15-6.16-.24a.08.08,0,0,1-.07-.08A.07.07,0,0,1,210,148Z"/></g><path class="cls-21" d="M239.33,129.7c.64-1.25,1.28-1.29,1.74,0s.57,4.4.68,6.43-.4,3.5-.4,5.05.29,2.9-.14,4-.5,2.8-1.24,2.81-1.11,0-1.43-1-.35-1,.54-.76,1.28-.17,1.42-.68a2.72,2.72,0,0,0,0-1.44,9.42,9.42,0,0,1-.11-2.6,23.45,23.45,0,0,0,.29-5.73c-.32-2.13.53-4.94-.43-4.73s-.46.11-1.1,2-1.6-.13-1.14-1.38A5.62,5.62,0,0,1,239.33,129.7Z"/><path class="cls-9" d="M116.77,170.88c-5.39,3.63-6.76,6.62-11.35,7.69s-7.59-1.28-9.87,6.73-5.12,8.22-6.56,14-6.79,8.76,2.64,10.9,12.47,1.06,15.42,2.13,2.35,7.69,12.62,3.2,15.1-6.83,23.12-6.19,5,5.13,14.21.43,1.61-4.7,11.69-9,12.15-1.88,12.84-6.81-.46-10.06-1.14-13.48-8.26-2.13-13.53-3-6.65-.27-10.32-3-5.5-3-10.54-2.53-7.81-.85-12-1.07-6.76-1.28-9.74,0S116.77,170.88,116.77,170.88Z"/><path class="cls-10" d="M177.47,190.45a2,2,0,0,0-1.31-.76,7.85,7.85,0,0,0-2.94.07c-1.93.35-3.79,1.07-5.64,1.58-.47.1-.94.21-1.41.29a11.14,11.14,0,0,1-1.41.1,4.14,4.14,0,0,1-2.62-.75,2.85,2.85,0,0,1-1-2.56,6.12,6.12,0,0,1,1-2.81c.27-.44.58-.75.92-1.25a1.59,1.59,0,0,0,.25-.94,1.43,1.43,0,0,0-.41-.86,6,6,0,0,0-2.79-1.28,32,32,0,0,0-5.82-.67,61.92,61.92,0,0,0-11.46.77,5.33,5.33,0,0,0-2.06-1.87,14.16,14.16,0,0,0-3.24-1.22c-.58-.14-1.15-.27-1.73-.37a36,36,0,0,1,4.15-1.49c.86-.26,1.73-.48,2.6-.67a12.53,12.53,0,0,1,2.61-.37,5.54,5.54,0,0,1,1.28.16.85.85,0,0,1,.43.24c0,.06,0,.27-.06.47s-.09.21-.14.31a1.92,1.92,0,0,0-.16.39.44.44,0,0,0,0,.26.45.45,0,0,0,.07.27.91.91,0,0,0,.3.36,3.49,3.49,0,0,0,1.36.46,18.78,18.78,0,0,0,5.4-.21,26.39,26.39,0,0,1-5.34-.21,3.2,3.2,0,0,1-1.18-.43c-.15-.13-.19-.23-.15-.36a1.53,1.53,0,0,1,.13-.28,3.92,3.92,0,0,0,.16-.36,1.09,1.09,0,0,0,0-1,1.13,1.13,0,0,0-.71-.47,6.08,6.08,0,0,0-1.39-.21,21.1,21.1,0,0,0-5.36,1,27.93,27.93,0,0,0-4.9,1.91c-1.36-.21-2.73-.36-4.1-.46-1.12-.08-2.24-.13-3.37-.18a13.23,13.23,0,0,1-3.25-.34,3.33,3.33,0,0,1-2.3-1.92,5,5,0,0,1,.07-3.27v0h0a.53.53,0,0,0-.3-.64.46.46,0,0,0-.58.33,6.13,6.13,0,0,0,0,4,4.15,4.15,0,0,0,2.89,2.39,13.55,13.55,0,0,0,3.43.32h.25c-.65.34-1.3.7-1.94,1.09a11.51,11.51,0,0,0-1.48,1,2.57,2.57,0,0,0-.65.78.71.71,0,0,0-.1.31.67.67,0,0,0,0,.37.92.92,0,0,0,.39.48c.29.21.62.28.75.39s.14.25,0,.5a4.47,4.47,0,0,1-1.07,1.29,18.12,18.12,0,0,1-2.85,2,30.57,30.57,0,0,1-3.09,1.53c-1,.47-2.13.81-3.21,1.29a7.1,7.1,0,0,0-2.89,2.12,2.59,2.59,0,0,0-.54,1.83,1.84,1.84,0,0,0,1,1.49,1.77,1.77,0,0,1-.82-1.51,2.37,2.37,0,0,1,.6-1.61,7.31,7.31,0,0,1,2.82-1.89,39.72,39.72,0,0,0,6.38-2.77,18.63,18.63,0,0,0,2.93-2,4.77,4.77,0,0,0,1.23-1.48,1.4,1.4,0,0,0,.12-.6.88.88,0,0,0-.31-.6c-.34-.26-.6-.27-.78-.43s-.23-.21-.14-.4a1.94,1.94,0,0,1,.51-.58,11.8,11.8,0,0,1,1.4-1c.88-.55,1.79-1.05,2.69-1.55.7,0,1.41,0,2.1.07a38.8,38.8,0,0,1,6.63.85,13.25,13.25,0,0,1,3.13,1.11,4.07,4.07,0,0,1,2.2,2.37,4.57,4.57,0,0,1-.66,3.32,8.49,8.49,0,0,0-1.23,3,36.83,36.83,0,0,0-10.79.28,22.53,22.53,0,0,0-2.69.68c-.45.13-.88.3-1.32.46a4.09,4.09,0,0,0-1.29.7,1.31,1.31,0,0,0-.48.75,1.51,1.51,0,0,0,.18.92,5.66,5.66,0,0,0,1,1.15c.71.65,1.46,1.22,2.09,1.9s1.17,1.56.64,2.29a5.27,5.27,0,0,1-2.16,1.55c-1.66.77-3.38,1.46-5.09,2.14s-3.44,1.3-5.12,2.12a8.73,8.73,0,0,0-1.22.7,2.09,2.09,0,0,0-.92,1.15,1.43,1.43,0,0,0,.64,1.31,7.62,7.62,0,0,0,1.17.77,7.72,7.72,0,0,1-1.14-.83,1.34,1.34,0,0,1-.55-1.22,1.89,1.89,0,0,1,.89-1,8.47,8.47,0,0,1,1.22-.66c1.67-.77,3.42-1.35,5.14-2s3.46-1.27,5.16-2a5.62,5.62,0,0,0,2.36-1.72,1.83,1.83,0,0,0,.18-1.67,4.15,4.15,0,0,0-.86-1.3c-.68-.72-1.43-1.3-2.12-1.94s-1.47-1.47-.7-2a4,4,0,0,1,1.15-.6c.43-.15.85-.32,1.29-.44a24.08,24.08,0,0,1,2.63-.66,38.55,38.55,0,0,1,10.62-.33,8.34,8.34,0,0,0,.54,3.68,14,14,0,0,0,1.76,3.21,29.13,29.13,0,0,0,4.88,5.15,46.32,46.32,0,0,0,5.64,4.07.07.07,0,0,0,.11,0,.11.11,0,0,0,0-.12,45.32,45.32,0,0,1-5.57-4.13,28.61,28.61,0,0,1-4.79-5.15,10,10,0,0,1-2.15-6.69.43.43,0,0,1,0-.11.47.47,0,0,0,.05-.1s0,0,0-.06a7.57,7.57,0,0,1,1.25-3,5.13,5.13,0,0,0,.75-3.72,2.23,2.23,0,0,0-.13-.39,64.72,64.72,0,0,1,11.21-.66,30.47,30.47,0,0,1,5.73.64,5.59,5.59,0,0,1,2.54,1.11.81.81,0,0,1,.1,1.09c-.23.35-.64.79-.91,1.24a6.68,6.68,0,0,0-1.1,3.08,3.47,3.47,0,0,0,1.19,3,4.71,4.71,0,0,0,2.91.84,14.73,14.73,0,0,0,1.48-.11c.48-.09,1-.21,1.45-.31,1.91-.52,3.7-1.29,5.59-1.68a8,8,0,0,1,2.84-.23,2,2,0,0,1,1.25.6,1.74,1.74,0,0,1,.27,1.48A1.83,1.83,0,0,0,177.47,190.45Z"/><path class="cls-11" d="M129.61,179.81c4,.3,11-.32,10.26,3s.52,3-2.44,3.87-4.48-.66-6.1,1a7.07,7.07,0,0,1,2.63-3c1.72-.95,4.47-2.15,2.07-2.34a20.09,20.09,0,0,0-4.88.12c-1.83.19-1.37-1.52-3-1.26S128.07,179.69,129.61,179.81Z"/><path class="cls-11" d="M128.93,200c-1.78.56,3-3.1,1.25-4.56s-2.06-4.31,2.52-4.56a57.69,57.69,0,0,0,6.59-.64s2.47,10.4,9,12.24c0,0-2.58,1.26-5.16-2.22s-1.21-3.9-3.21-3.79-1.59-2.23-2.49-3.12-.77-1.84-2.49-.57-.75.13-2.12,3.23S130.55,199.46,128.93,200Z"/><path class="cls-11" d="M119.18,172.52s-.08,4.94,4,6.17c-1.3.42-3.16,1.69-2,2.91s2.66,1.42,0,2.17-4.31,1-5,2.25-2.71,1-3.51,1.71a8.22,8.22,0,0,1,2.21-1.71c.77-.19-.72-1,1.57-2.56s2.79-.5,3.06-1.94.69-2.53-1.07-3.42-2.07-1.61-4.2-1a10.9,10.9,0,0,0-3.48,1.65s-1.07-1,.34-2,2.49-.87,3.94-2.48A4.49,4.49,0,0,1,119.18,172.52Z"/><path class="cls-11" d="M91.59,203.2c1.76-2.79-.61-.95,2-5S96,194.41,97.93,193s.77-2.11,3.44,0-.23-.26,5.2,3.46,11.38,4.06,5,4.91-6.8,1.35-5.73,2.95-2.21,5.84-5.5,3.34-.84-3.17-4.51-2.32S91.59,203.2,91.59,203.2Z"/><path class="cls-11" d="M147.09,187.41s-2.52.83.51,5.39,2.64,4.78,5.68,5.4,3.67,2.08,3.95,3.73,1.15-.51,0-3.42.52-3.36-1.55-4.06-2.52-1.33-2.52-2.44-.57-3.77,1.44-1.81,3.32,3.55,4.87,3.17,2.63.76.46-1.36-2.87-.48-2.58-2.95,2.06-3,.05-3.36-5.33-1.71-7.56-1.07A4.05,4.05,0,0,0,147.09,187.41Z"/><path class="cls-11" d="M166.57,182.66c1.44,1.71.86,2.47,3.44,2.09s4.7-.82,6.25.51,3.55,4.65,2.87,1.19,1.37-3.54-1.41-5-2.12-1.33-4.8-1.08-1.3-.12-4.34-.16S166.57,182.66,166.57,182.66Z"/><path class="cls-22" d="M101,131s12.26-22.69,33.41-32.34c0,0,57,9,68,35.6,0,0-7.18,6.6-6.13,11.14C196.29,145.43,125.18,125.86,101,131Z"/><path class="cls-23" d="M115.14,123.14c.79-1.06,1.59-2,2.42-3s1.68-1.92,2.55-2.85c1.74-1.87,3.56-3.66,5.47-5.34,1-.84,1.94-1.66,2.94-2.44s2-1.53,3.1-2.23,2.16-1.36,3.28-2a31.93,31.93,0,0,1,3.48-1.57.14.14,0,0,1,.19.09.16.16,0,0,1-.07.2h0a30.7,30.7,0,0,0-3.3,1.77c-1.06.67-2.09,1.39-3.08,2.14s-2,1.56-2.89,2.39-1.83,1.7-2.71,2.59q-2.62,2.67-5,5.58c-.79,1-1.55,2-2.29,3s-1.47,2-2.12,3h0a1.21,1.21,0,0,1-2-1.31Z"/><path class="cls-23" d="M124,125.33c.79-1,1.59-2,2.42-3s1.68-1.93,2.55-2.86q2.61-2.81,5.47-5.34c1-.84,1.94-1.65,2.94-2.44s2-1.52,3.1-2.22,2.16-1.36,3.28-2a31.93,31.93,0,0,1,3.48-1.57.15.15,0,0,1,.19.09.14.14,0,0,1-.08.19h0A30.7,30.7,0,0,0,144,108a36.72,36.72,0,0,0-3.08,2.14c-1,.76-1.95,1.56-2.89,2.39s-1.83,1.7-2.71,2.58c-1.75,1.78-3.41,3.65-5,5.59-.79,1-1.55,2-2.29,3s-1.47,2-2.12,3v0a1.21,1.21,0,0,1-2-1.32Z"/><path class="cls-23" d="M131.92,128.17c.79-1,1.59-2,2.42-3s1.68-1.93,2.55-2.86q2.61-2.81,5.47-5.34c1-.84,1.93-1.65,2.94-2.44s2-1.52,3.1-2.23,2.16-1.35,3.28-2a34.72,34.72,0,0,1,3.47-1.56.16.16,0,0,1,.2.09.15.15,0,0,1-.08.19h0a33.94,33.94,0,0,0-3.31,1.78c-1.06.66-2.08,1.38-3.08,2.13s-1.94,1.57-2.88,2.4-1.83,1.69-2.71,2.58c-1.75,1.78-3.41,3.65-5,5.59-.78,1-1.54,2-2.28,3s-1.47,2-2.12,3l0,0a1.21,1.21,0,1,1-2-1.32Z"/><path class="cls-23" d="M139.55,130.9c.79-1.05,1.59-2,2.42-3s1.68-1.93,2.55-2.86q2.61-2.81,5.47-5.34c1-.84,1.94-1.65,2.94-2.44s2-1.52,3.1-2.22,2.16-1.36,3.28-2a32.66,32.66,0,0,1,3.47-1.57.16.16,0,0,1,.2.09.14.14,0,0,1-.08.19h0a32.66,32.66,0,0,0-3.3,1.78c-1.07.66-2.09,1.38-3.08,2.13s-2,1.57-2.89,2.4-1.83,1.7-2.71,2.58c-1.75,1.78-3.41,3.65-5,5.59-.79,1-1.55,1.95-2.29,3s-1.47,2-2.12,3v0a1.21,1.21,0,0,1-2-1.32Z"/><path class="cls-23" d="M147.57,133.1c.79-1,1.59-2,2.42-3s1.68-1.92,2.55-2.85q2.61-2.8,5.47-5.34c1-.84,1.94-1.66,2.94-2.44s2-1.52,3.1-2.23,2.16-1.35,3.28-2a33.89,33.89,0,0,1,3.48-1.56.15.15,0,0,1,.19.09.14.14,0,0,1-.08.19h0a30.78,30.78,0,0,0-3.3,1.78c-1.07.66-2.09,1.38-3.08,2.13s-1.95,1.57-2.89,2.39-1.83,1.7-2.71,2.59c-1.75,1.78-3.41,3.65-5,5.59-.79,1-1.55,2-2.29,3s-1.47,2-2.12,3v0a1.21,1.21,0,0,1-2-1.32Z"/><path class="cls-23" d="M154.22,136.79c.79-1,1.59-2,2.42-3s1.68-1.92,2.55-2.86c1.74-1.86,3.56-3.65,5.47-5.34q1.44-1.26,2.94-2.43c1-.78,2-1.53,3.1-2.23s2.16-1.36,3.28-2a32.66,32.66,0,0,1,3.47-1.57.16.16,0,0,1,.2.09.14.14,0,0,1-.08.19h0a31.84,31.84,0,0,0-3.31,1.77c-1.06.66-2.08,1.38-3.08,2.14s-1.94,1.56-2.88,2.39-1.83,1.7-2.71,2.58c-1.75,1.78-3.41,3.65-5,5.59-.78,1-1.54,2-2.28,3s-1.47,2-2.12,3v0a1.21,1.21,0,1,1-2-1.32Z"/><path class="cls-23" d="M161,139.72c.79-1.06,1.59-2,2.42-3s1.68-1.92,2.55-2.85c1.74-1.87,3.56-3.66,5.47-5.34,1-.84,1.94-1.66,2.94-2.44s2-1.53,3.1-2.23,2.16-1.35,3.28-1.95a30.06,30.06,0,0,1,3.48-1.56.15.15,0,0,1,.19.08.15.15,0,0,1-.08.2h0a29.1,29.1,0,0,0-3.3,1.78c-1.07.66-2.09,1.38-3.08,2.13s-1.95,1.56-2.89,2.39-1.83,1.7-2.71,2.59q-2.62,2.67-5,5.58c-.79,1-1.55,2-2.29,3s-1.47,2-2.12,3h0a1.21,1.21,0,1,1-2-1.31A.18.18,0,0,1,161,139.72Z"/><path class="cls-23" d="M166.25,144.33c.79-1.05,1.59-2,2.42-3s1.68-1.92,2.55-2.86c1.74-1.86,3.56-3.65,5.47-5.34q1.44-1.26,2.94-2.43c1-.78,2-1.53,3.1-2.23s2.16-1.36,3.28-2a31.93,31.93,0,0,1,3.48-1.57.15.15,0,0,1,.12.28h0a30.7,30.7,0,0,0-3.3,1.77,36.72,36.72,0,0,0-3.08,2.14c-1,.76-1.95,1.56-2.89,2.39s-1.83,1.7-2.71,2.58c-1.75,1.78-3.41,3.65-5,5.59-.79,1-1.55,2-2.29,3s-1.47,2-2.12,3v0a1.21,1.21,0,1,1-2-1.32Z"/><path class="cls-23" d="M171.36,149c.8-1,1.6-2,2.43-3s1.67-1.92,2.54-2.86c1.74-1.86,3.56-3.65,5.47-5.34q1.44-1.26,2.94-2.43c1-.78,2-1.53,3.11-2.23a37.27,37.27,0,0,1,3.28-2,30.94,30.94,0,0,1,3.47-1.57.16.16,0,0,1,.2.09.16.16,0,0,1-.08.19h0a32.73,32.73,0,0,0-3.3,1.77c-1.06.66-2.09,1.38-3.08,2.14s-2,1.56-2.88,2.39-1.83,1.7-2.71,2.58c-1.75,1.78-3.41,3.65-5,5.59-.79,1-1.55,2-2.29,3s-1.46,2-2.12,3v0a1.21,1.21,0,0,1-1.67.36,1.22,1.22,0,0,1-.36-1.68A.18.18,0,0,0,171.36,149Z"/><path class="cls-24" d="M200.75,136c-17.38-8.37-40.39-18.46-72.09-18.46A130.56,130.56,0,0,0,109.3,119,85.44,85.44,0,0,0,101,131c24.22-5.17,95.33,14.4,95.33,14.4C195.57,142.33,198.69,138.27,200.75,136Z"/><path class="cls-25" d="M129.26,121.62c-48.63,0-84.6,29.33-97.27,34.44-2,1-3.53,3.78-2.84,5.31,0,0-3.52,3.83,1.77,10.12s64.62,22.78,108.15,22.78S212.44,167.71,247.59,170c3.47-3.17,7.87-16.15,0-23.3-4.7.51-4.4,2.86-22.07,2.86S180.56,121.62,129.26,121.62Z"/><path class="cls-26" d="M247.57,146.69s12.36-15.31,33.55-13.41l-8.44,21.57,10.59,22.62s-22.19-.55-37.09-8.31C251.81,164.57,252.6,152.49,247.57,146.69Z"/><path class="cls-22" d="M250.9,157.68s12-8.23,23.49-7.21l6.73-17.19c-21.19-1.9-33.55,13.41-33.55,13.41,2.38,2.75,3.45,6.89,3.33,11Z"/><path class="cls-22" d="M273.78,157.2l4.87,17.56a57.76,57.76,0,0,1-29.1-10.41,11.88,11.88,0,0,1-3.37,4.81c14.9,7.76,37.09,8.31,37.09,8.31Z"/><path class="cls-23" d="M246.29,150.78c2-1.3,4-2.5,6.09-3.66s4.14-2.26,6.26-3.3,4.28-2,6.47-2.87a65.63,65.63,0,0,1,6.69-2.24l0,0s0,0,0,0a65.8,65.8,0,0,0-6.53,2.61c-2.12,1-4.2,2.06-6.24,3.21s-4.05,2.36-6,3.62-3.91,2.58-5.77,3.95h0a.83.83,0,0,1-1-1.34Z"/><path class="cls-23" d="M247.18,153.66c2.15-1,4.3-2,6.49-2.88s4.39-1.73,6.62-2.5,4.49-1.45,6.77-2.05a65.22,65.22,0,0,1,6.92-1.4l0,0s0,0,0,0a66,66,0,0,0-6.8,1.78c-2.23.73-4.43,1.53-6.59,2.42s-4.31,1.84-6.41,2.85S250,154,248,155.13h0a.83.83,0,0,1-.82-1.44Z"/><path class="cls-23" d="M247.38,156.82c2-.56,4-1,6-1.47s4-.79,6-1.11,4.05-.54,6.09-.71a56.82,56.82,0,0,1,6.12-.12h0s0,0,0,0a58.6,58.6,0,0,0-6.08.47q-3,.42-6,1.05t-5.91,1.45c-2,.54-3.9,1.12-5.8,1.78h0a.72.72,0,0,1-.47-1.36Z"/><path class="cls-23" d="M247.67,160c2,.46,4.06.83,6.1,1.15s4.12.56,6.19.75,4.15.26,6.23.26a46.5,46.5,0,0,0,6.23-.45h0s0,0,0,0a49.92,49.92,0,0,1-6.22.81c-2.09.11-4.19.14-6.28.08s-4.19-.2-6.28-.41-4.17-.46-6.26-.81a.72.72,0,1,1,.24-1.42h0Z"/><path class="cls-23" d="M248.1,165.42c2.07.72,4.19,1.39,6.31,2s4.27,1.18,6.43,1.69,4.33.93,6.52,1.26A52.35,52.35,0,0,0,274,171l0,0s0,0,0,0a51.29,51.29,0,0,1-6.67-.24c-2.22-.22-4.42-.55-6.62-.92s-4.38-.85-6.55-1.36-4.33-1.05-6.49-1.69a.71.71,0,0,1-.49-.89.72.72,0,0,1,.89-.49h0Z"/><path class="cls-25" d="M129.26,121.62c-48.63,0-84.6,29.33-97.27,34.44-2,1-3.53,3.78-2.84,5.31,0,0-3.52,3.83,1.77,10.12s64.62,22.78,108.15,22.78S212.44,167.71,247.59,170c3.47-3.17,7.87-16.15,0-23.3-4.7.51-4.4,2.86-22.07,2.86S180.56,121.62,129.26,121.62Z"/><path class="cls-27" d="M139.45,185.84c-39.42,0-90.57-11.06-111-18.52a13.05,13.05,0,0,0,2.49,4.17c5.28,6.28,64.62,22.78,108.15,22.78S212.44,167.71,247.59,170c1.52-1.39,3.22-4.66,4-8.5C216,162.79,184.3,185.84,139.45,185.84Z"/><path class="cls-26" d="M247.59,146.66c-4.7.51-4.4,2.86-22.07,2.86s-45-27.9-96.26-27.9c-48.63,0-84.6,29.33-97.27,34.44a6.17,6.17,0,0,0-2.68,3,3.35,3.35,0,0,0-.36,1.38,2,2,0,0,0,.2.93c15.1,3.17,51.58-17.47,64.15-13.48,0,0,37.09-10.12,79.08-2.15,30.24,5.74,61.58,12.37,79.51,13.6C252.33,154.93,251.39,150.12,247.59,146.66Z"/><path class="cls-28" d="M60.79,154.26c0,1.91-2.68,3.45-6,3.45s-6-1.54-6-3.45,2.68-3.45,6-3.45S60.79,152.35,60.79,154.26Z"/><path class="cls-29" d="M58.31,154.26c0,1.12-1.57,2-3.5,2s-3.5-.9-3.5-2,1.57-2,3.5-2S58.31,153.14,58.31,154.26Z"/><path class="cls-30" d="M86,163.43c17.91,3.73,40.15,6.1,61.93,3.84s39.52-8.37,57-9.75,16.45,4.92,6.41,7.29-54.88,18.51-76.46,16.93-39.52-1.59-45.71-4.83S76.21,161.4,86,163.43Z"/><path class="cls-31" d="M98.52,169.59c6.09,1,32,3.9,51.11,1.22s32.71-6.93,38.54-7.07-.45,6.1-7.35,8.28-28.2,6.42-35.71,6.56-33.78-2.12-42.18-3.25S92.94,168.65,98.52,169.59Z"/><path class="cls-32" d="M83.68,162.94a62.26,62.26,0,0,1,8-9.64,85.38,85.38,0,0,1,10.08-8.5,91.44,91.44,0,0,1,11.71-7.2c2.07-1.08,4.21-2.09,6.41-3,1.1-.46,2.22-.9,3.35-1.31l1.71-.59c.59-.19,1.16-.37,1.76-.54a.14.14,0,0,1,.15.06.08.08,0,0,1,0,.11h0c-4.16,2.08-8.12,4.33-12,6.65s-7.59,4.77-11.17,7.33-7,5.24-10.29,8-6.38,5.72-9.44,8.71a.15.15,0,0,1-.17,0A.09.09,0,0,1,83.68,162.94Z"/><path class="cls-32" d="M108.37,168.85a79.25,79.25,0,0,1,10.06-12.17A109.33,109.33,0,0,1,131.14,146a116.65,116.65,0,0,1,14.77-9.08c2.62-1.36,5.31-2.63,8.09-3.79,1.39-.58,2.79-1.14,4.22-1.65l2.16-.75c.73-.23,1.46-.47,2.21-.67a.18.18,0,0,1,.2.07.11.11,0,0,1-.06.14h0c-5.25,2.62-10.25,5.46-15.13,8.38s-9.57,6-14.09,9.24-8.83,6.62-13,10.14-8,7.21-11.9,11a.2.2,0,0,1-.21,0A.11.11,0,0,1,108.37,168.85Z"/><path class="cls-32" d="M143,170.51a63.5,63.5,0,0,1,8.18-9.9,87.29,87.29,0,0,1,10.34-8.71,92.53,92.53,0,0,1,12-7.39q3.19-1.66,6.57-3.09c1.14-.46,2.28-.92,3.44-1.34l1.76-.61c.59-.19,1.19-.38,1.8-.54a.14.14,0,0,1,.16,0,.09.09,0,0,1-.05.11h0c-4.27,2.13-8.34,4.43-12.31,6.82s-7.78,4.89-11.46,7.51-7.18,5.38-10.55,8.24-6.54,5.87-9.68,8.94a.15.15,0,0,1-.17,0C143,170.6,142.93,170.55,143,170.51Z"/><path class="cls-33" d="M83.67,150.81s4.62,23.85-15.82,27.52C67.85,178.33,80.37,172.23,83.67,150.81Z"/><path class="cls-26" d="M29.37,161.07A26.28,26.28,0,0,1,37.84,163c1.35.53,2.67,1.13,4,1.77.65.33,1.29.66,1.92,1s1.27.69,1.89,1.06c1.24.74,2.47,1.49,3.67,2.3.6.39,1.19.8,1.79,1.21.29.21.59.41.88.63l.44.31.21.16.24.18a4,4,0,0,1,.84.89l.16.29a2.24,2.24,0,0,1,.11.34,1.47,1.47,0,0,1,0,.75,2.09,2.09,0,0,1-.82,1,4.2,4.2,0,0,1-1,.5,7.49,7.49,0,0,1-2.19.36,5.61,5.61,0,0,1-2.15-.34,4.3,4.3,0,0,0,1.07.09,6.2,6.2,0,0,0,1.05-.09,7.44,7.44,0,0,0,2-.58,3.92,3.92,0,0,0,.84-.51,1.34,1.34,0,0,0,.47-.66.83.83,0,0,0-.21-.65,2.93,2.93,0,0,0-.68-.62l-.21-.13-.22-.14-.46-.29-.91-.57c-.6-.38-1.21-.75-1.82-1.12-1.22-.74-2.44-1.48-3.68-2.18s-2.48-1.4-3.74-2c-.63-.34-1.27-.64-1.9-1-.32-.16-.64-.3-1-.45l-1-.46a39.06,39.06,0,0,0-8-2.69h0a.15.15,0,0,1-.12-.18A.14.14,0,0,1,29.37,161.07Z"/><path class="cls-34" d="M129.22,124.74c52.83,0,80.92,27.9,99.13,27.9,17,0,17.85-2,21.82-2.74a12.83,12.83,0,0,0-2.58-3.24c-4.7.51-4.4,2.86-22.07,2.86s-45-28.38-96.26-28.38c-48.63,0-84.6,29.81-97.27,34.92a6.19,6.19,0,0,0-2.68,3C42.59,153.68,79.46,124.74,129.22,124.74Z"/><path class="cls-16" d="M198.84,168.57a145.76,145.76,0,0,0,35.88,1.37v24s-30.75.69-39.49-1.11C195.23,192.86,189.45,178,198.84,168.57Z"/><path class="cls-17" d="M194,188.35a28.87,28.87,0,0,0,1.21,4.51c8.74,1.8,39.49,1.11,39.49,1.11V189.4C228.75,189.51,203.37,189.87,194,188.35Z"/><path class="cls-18" d="M199.65,171c.76.1,5,.43,6.28.43s11.8.14,13.22.14,6.84-.19,8.4,0a30.64,30.64,0,0,0,3.2.19l-.35,2.09-.22,2.35a33.23,33.23,0,0,1-3.34.21c-2.61.1-2.18.19-6.69.38s-7.59-1-10.77-.82a55.36,55.36,0,0,1-7.15.23,17,17,0,0,1-5.81-.92l1.21-2.74,1.21-1.82Z"/><path class="cls-19" d="M237.75,182c0,6.6-1.35,11.95-3,11.95s-3-5.35-3-11.95,1.36-12,3-12S237.75,175.42,237.75,182Z"/><g class="cls-20"><path class="cls-19" d="M198,172.1c2.06,0,4.11,0,6.17,0l6.17.09,6.17.17q3.08.09,6.17.24s.07,0,.06.08a.07.07,0,0,1-.07.07c-2.06,0-4.11,0-6.17,0l-6.17-.1-6.17-.17c-2.05-.06-4.11-.15-6.16-.25a.07.07,0,0,1,0-.14Z"/><path class="cls-19" d="M205.44,174.14q3.09,0,6.17,0l6.17.1,6.17.16c2.06.06,4.11.15,6.17.25a.06.06,0,0,1,.06.07.07.07,0,0,1-.07.07q-3.08,0-6.17,0l-6.17-.1-6.17-.17c-2-.06-4.11-.15-6.16-.24a.08.08,0,0,1-.07-.08A.07.07,0,0,1,205.44,174.14Z"/><path class="cls-19" d="M201.22,175.56c2.05,0,4.11,0,6.17,0l6.17.09,6.17.16c2.05.07,4.11.15,6.16.25a.08.08,0,0,1,.07.08.07.07,0,0,1-.07.06c-2.06,0-4.11,0-6.17,0l-6.17-.1-6.17-.16c-2.06-.07-4.11-.15-6.17-.25a.06.06,0,0,1-.06-.07A.07.07,0,0,1,201.22,175.56Z"/><path class="cls-19" d="M195,178.55q3.09,0,6.17,0l6.17.1,6.17.16c2.06.07,4.11.15,6.17.25a.08.08,0,0,1,.07.07.08.08,0,0,1-.08.07c-2.05,0-4.11,0-6.17,0l-6.17-.1-6.17-.17c-2.05-.06-4.11-.14-6.16-.24a.08.08,0,0,1-.07-.07A.07.07,0,0,1,195,178.55Z"/><path class="cls-19" d="M197.7,180.3c2.06,0,4.11,0,6.17,0l6.17.09,6.17.16c2.06.07,4.11.15,6.17.25a.06.06,0,0,1,.06.08.07.07,0,0,1-.07.06c-2.05,0-4.11,0-6.17,0l-6.17-.1-6.17-.16c-2.05-.07-4.11-.15-6.16-.25a.07.07,0,0,1,0-.14Z"/><path class="cls-19" d="M206,183q3.09,0,6.17,0l6.17.1,6.17.16c2.06.06,4.11.15,6.17.25a.07.07,0,0,1,.07.07.08.08,0,0,1-.07.07c-2.06,0-4.12,0-6.18,0l-6.17-.1-6.16-.17q-3.09-.09-6.17-.24a.08.08,0,0,1-.07-.08A.07.07,0,0,1,206,183Z"/><path class="cls-19" d="M194.75,184.66q3.09,0,6.18,0l6.17.1,6.17.16c2,.06,4.11.14,6.16.25a.07.07,0,0,1,0,.14q-3.09,0-6.17,0l-6.17-.1-6.17-.17c-2.06-.06-4.11-.15-6.17-.24a.08.08,0,0,1,0-.15Z"/><path class="cls-19" d="M202.3,186.37c2.06,0,4.12,0,6.17,0l6.17.09,6.17.16c2.06.07,4.11.15,6.17.25,0,0,.07,0,.06.08a.07.07,0,0,1-.07.07c-2.05,0-4.11,0-6.17,0l-6.17-.1-6.17-.16c-2.05-.06-4.11-.15-6.16-.25a.07.07,0,0,1,0-.14Z"/><path class="cls-19" d="M196.84,189.79q3.09,0,6.17,0l6.17.1,6.17.16c2.06.06,4.11.15,6.17.25a.07.07,0,0,1,.07.07.08.08,0,0,1-.08.07c-2,0-4.11,0-6.17,0l-6.17-.1-6.17-.17c-2.05-.06-4.11-.14-6.16-.24a.08.08,0,0,1-.07-.08A.07.07,0,0,1,196.84,189.79Z"/><path class="cls-19" d="M205.05,191.85q3.09,0,6.18,0l6.17.1,6.16.16c2.06.06,4.12.15,6.17.25a.07.07,0,1,1,0,.14c-2.06,0-4.12,0-6.17,0l-6.17-.1-6.17-.17c-2.06-.06-4.11-.14-6.17-.24a.08.08,0,0,1-.07-.07A.08.08,0,0,1,205.05,191.85Z"/></g><path class="cls-21" d="M234.42,173.52c.64-1.25,1.28-1.28,1.75,0s.56,4.4.67,6.43-.39,3.5-.39,5.05.28,2.9-.14,4-.5,2.79-1.25,2.8-1.1,0-1.42-1-.36-1,.53-.76,1.28-.17,1.43-.68a2.8,2.8,0,0,0,0-1.43,9.09,9.09,0,0,1-.11-2.6,23.56,23.56,0,0,0,.28-5.73c-.32-2.14.54-5-.42-4.74s-.47.11-1.11,2-1.6-.13-1.14-1.39A5.77,5.77,0,0,1,234.42,173.52Z"/><path class="cls-16" d="M192,176.51a145.76,145.76,0,0,1-35.88,1.37v24s30.75.68,39.48-1.11C195.61,200.8,201.4,185.92,192,176.51Z"/><path class="cls-17" d="M196.82,196.28a27.53,27.53,0,0,1-1.21,4.52c-8.73,1.79-39.48,1.11-39.48,1.11v-4.57C162.09,197.45,187.48,197.8,196.82,196.28Z"/><path class="cls-18" d="M191.2,179c-.76.1-5,.43-6.28.43s-11.8.14-13.23.14-6.83-.19-8.4,0a30.39,30.39,0,0,1-3.19.19l.35,2.09.21,2.35s.74.12,3.35.21,2.18.19,6.69.38,7.58-1,10.77-.82a55.29,55.29,0,0,0,7.15.23,16.88,16.88,0,0,0,5.81-.93l-1.21-2.73L192,178.69Z"/><path class="cls-19" d="M153.09,190c0,6.6,1.36,11.95,3,11.95s3-5.35,3-11.95-1.36-12-3-12S153.09,183.36,153.09,190Z"/><g class="cls-20"><path class="cls-19" d="M192.86,180c-2.06,0-4.12,0-6.17,0l-6.17.09-6.17.16c-2.06.07-4.11.15-6.17.25a.08.08,0,0,0,0,.15c2.06,0,4.12,0,6.18,0l6.17-.1,6.16-.16q3.09-.1,6.17-.25a.07.07,0,0,0,0-.14Z"/><path class="cls-19" d="M185.41,182.07q-3.09,0-6.18,0l-6.17.1-6.16.16q-3.09.09-6.17.25a.07.07,0,1,0,0,.14q3.09,0,6.17,0l6.17-.1,6.17-.17c2.06-.06,4.11-.15,6.17-.24a.08.08,0,0,0,.07-.08A.08.08,0,0,0,185.41,182.07Z"/><path class="cls-19" d="M189.63,183.5c-2.06,0-4.12,0-6.17,0l-6.17.09-6.17.16c-2.06.07-4.11.15-6.17.25a.06.06,0,0,0-.06.08.07.07,0,0,0,.07.06c2,0,4.11,0,6.17,0l6.17-.1,6.17-.16c2.05-.07,4.11-.15,6.16-.25a.07.07,0,0,0,0-.14Z"/><path class="cls-19" d="M195.9,186.49q-3.09,0-6.18,0l-6.17.1-6.16.16c-2.06.06-4.12.15-6.17.25a.07.07,0,1,0,0,.14c2.06,0,4.12,0,6.17,0l6.17-.1,6.17-.17c2.06-.06,4.11-.14,6.17-.24a.08.08,0,0,0,.07-.08A.09.09,0,0,0,195.9,186.49Z"/><path class="cls-19" d="M193.15,188.24q-3.09,0-6.18,0l-6.17.1-6.16.16q-3.09.11-6.17.25a.07.07,0,1,0,0,.14c2.06,0,4.12,0,6.17,0l6.17-.1,6.17-.17c2.06-.06,4.11-.14,6.17-.24a.07.07,0,0,0,.07-.07A.08.08,0,0,0,193.15,188.24Z"/><path class="cls-19" d="M184.84,190.9q-3.08,0-6.17,0l-6.17.1-6.17.16c-2.05.06-4.11.15-6.16.25a.07.07,0,1,0,0,.14q3.09,0,6.17,0l6.17-.1,6.17-.17c2.06-.06,4.11-.15,6.17-.24a.08.08,0,0,0,.07-.08A.09.09,0,0,0,184.84,190.9Z"/><path class="cls-19" d="M196.09,192.6c-2.06,0-4.11,0-6.17,0l-6.17.09-6.17.17q-3.08.09-6.17.25a.07.07,0,0,0-.06.07.07.07,0,0,0,.07.07c2.06,0,4.11,0,6.17,0l6.17-.1,6.17-.17c2-.06,4.11-.15,6.16-.24a.08.08,0,0,0,.07-.08A.07.07,0,0,0,196.09,192.6Z"/><path class="cls-19" d="M188.55,194.31c-2.06,0-4.12,0-6.18,0l-6.17.09-6.16.16q-3.09.1-6.17.25a.08.08,0,0,0-.07.08.07.07,0,0,0,.07.06q3.09,0,6.17,0l6.17-.1,6.17-.16c2.06-.07,4.11-.15,6.17-.25a.07.07,0,0,0,.07-.07A.08.08,0,0,0,188.55,194.31Z"/><path class="cls-19" d="M194,197.73q-3.09,0-6.18,0l-6.17.1-6.16.16c-2.06.06-4.12.15-6.17.25a.07.07,0,0,0,0,.14q3.09,0,6.17,0l6.17-.1,6.17-.17c2.06-.06,4.11-.15,6.17-.24a.08.08,0,0,0,.07-.08A.09.09,0,0,0,194,197.73Z"/><path class="cls-19" d="M185.79,199.79c-2.06,0-4.11,0-6.17,0l-6.17.1-6.17.16c-2.05.06-4.11.15-6.16.25a.07.07,0,0,0,0,.14c2.06,0,4.11,0,6.17,0l6.17-.1,6.17-.17q3.08-.09,6.17-.24s.06,0,.06-.08A.07.07,0,0,0,185.79,199.79Z"/></g><path class="cls-21" d="M156.43,181.46c-.65-1.25-1.29-1.28-1.75,0s-.57,4.4-.67,6.43.39,3.5.39,5.05-.29,2.9.14,4,.5,2.8,1.24,2.81,1.11,0,1.43-1,.35-1-.54-.76-1.28-.17-1.42-.68a2.72,2.72,0,0,1,0-1.44,9.42,9.42,0,0,0,.11-2.6,23.45,23.45,0,0,1-.29-5.73c.32-2.13-.53-4.94.43-4.73s.46.11,1.1,2,1.6-.13,1.14-1.38A5.67,5.67,0,0,0,156.43,181.46Z"/></g></g></svg>