<?xml version="1.0" encoding="utf-8"?>
<!-- Generator: Adobe Illustrator 25.0.0, SVG Export Plug-In . SVG Version: 6.00 Build 0)  -->
<svg version="1.1" id="Layer_1" xmlns="http://www.w3.org/2000/svg" xmlns:xlink="http://www.w3.org/1999/xlink" x="0px" y="0px"
	 viewBox="0 0 300 300" style="enable-background:new 0 0 300 300;" xml:space="preserve">
<style type="text/css">
	.st0{opacity:8.000000e-02;fill:#E13856;enable-background:new    ;}
	.st1{fill:#FBA489;}
	.st2{fill:#A0B2CF;}
	.st3{fill:#2D99E2;}
	.st4{fill:#E8A383;}
	.st5{fill:#E5907C;}
	.st6{fill:#1E87C1;}
	.st7{fill:#391829;}
	.st8{fill:#382040;}
	.st9{fill:#E4776D;}
	.st10{fill:#DB675C;}
	.st11{fill:#CE2450;}
	.st12{fill:#A51941;}
</style>
<g>
	<g id="OBJECTS">
		<g id="Page-1">
			<g id="For-you-and-your-partner-Copy-4">
				<g id="Group-4">
					<circle id="Mask-Copy-2" class="st0" cx="150" cy="150" r="150"/>
				</g>
			</g>
		</g>
	</g>
</g>
<g>
	<path class="st1" d="M155.9,120.3c0,0-28.7,0.3-29.1,0c-0.4-0.3-2.8-10.3-3-10.9c0,0,0,0,0,0c0,0,5-0.4,7-1.2
		c2-0.9,4.2-5.8,4.2-5.8l16-0.9c0,0-0.9,6.9,8.1,8C168.1,110.4,155.9,120.3,155.9,120.3z"/>
	<g id="OBJECTS_2_">
		<path class="st2" d="M246.2,257.5c-0.1-0.2-0.3-0.3-0.4-0.2c-0.1,0-0.2,0.1-0.2,0.2c-0.6,2.3-0.8,4.6-1.3,6.9
			c-0.5,2.3-1.5,4.4-1.8,6.8c0,0.4,0.4,0.7,0.6,0.4c1.6-1.9,2.6-4.2,3-6.7C246.8,262.5,246.9,259.9,246.2,257.5z"/>
		<path class="st3" d="M266.5,268.4c-0.9,7.5-5.5,15.5-11.7,19.5c-7,4.4-47.2,10.8-113.3-4l0,0c-30.4,12-76,7.4-98.3,2.9
			S23.5,262.1,27,254.3c3.5-7.8,36.8-12.8,66.5-17c2.8-9.8,11.8-19.5,11.8-19.5s51.9-1.3,72.4,0.8c0,0,6.8,6.3,12,21.4
			c0,0,64.3,9.3,71.7,14.6C265.8,257.6,267.2,262.9,266.5,268.4z"/>
		<path class="st4" d="M177.8,218.5c-34.2,13.6-72.4-0.8-72.4-0.8l1.8-7.6l3.8-16.2l32.6-1l26.7-0.8L177.8,218.5z"/>
		<path class="st5" d="M168.2,215.9c-22.8,11.5-49.4,0.4-61.1-5.9l3.8-16.2l32.6-1C153.1,199,161.5,206.8,168.2,215.9z"/>
		<polygon class="st5" points="173.2,151.4 171,135.7 170.1,153.3 		"/>
		<path class="st5" d="M151.7,98.9c-1.6,2.3-6.1,8.4-9.6,8.4c-4.1-0.1-7.9-5.9-9.5-8.5c3.6,2,7.2,3.5,9.5,3.5
			C145.6,102,148.9,100.8,151.7,98.9z"/>
		<path class="st4" d="M99.5,191.2c-5.6,6.7-15.7,12.3-23.9,16c-7.1,3.2-22.1,10.1-22.1,10.1s-2.3,10.4-8.5,12.9
			c-2.5,1-4.6-1.4-4.6-1.4s-1.2,2.6-3.1,2.5c-1.3-0.2-2.6-0.9-3.3-2.1c0,0-1.8,2-3.4,1.6c-1.9-0.5-1.8-2.9-1.8-2.9s-2.9,1.1-3.3-0.6
			c-0.6-2.4,1.8-6.2,1.9-6.4c-0.3,0-6.5,0.9-7.4-0.8c-1.2-2.1,6.2-3.6,10.8-8.1c5.7-5.6,13.8-3.7,13.8-3.7l38.8-30
			c4.5,0,8.4,0,11.6,0.3C104.5,179.2,107.3,181.8,99.5,191.2z"/>
		<path class="st5" d="M27.3,221c0,0,2.9-2.8,2.7,1.6c4.2-5,5.7-2.4,4.2,3.5c4.2-6.8,6.5-5.2,6.2,0.1c3.7-5.4,4.7-1.8,4.7-1.8
			s-0.7-4.6-3.6-1c0-5-4-4.3-6.2-0.3c1-6.2-1.5-5.7-4.4-2.4C31.3,216.5,28.3,218.7,27.3,221z"/>
		<path class="st5" d="M99.5,191.2c-5.6,6.7-15.7,12.3-23.9,16c7.7-8.7,14.2-18.3,19.4-28.6C104.5,179.2,107.3,181.8,99.5,191.2z"/>
		<path class="st4" d="M180.3,194.2c6.2,6.2,16.8,10.7,25.3,13.6c7.4,2.5,26,8.5,26,8.5s3.3,10.2,9.7,12c2.6,0.8,4.4-1.8,4.4-1.8
			s1.5,2.5,3.4,2.2c1.3-0.3,2.5-1.2,3.1-2.4c0,0,1.9,1.9,3.6,1.3c1.9-0.7,1.5-3.1,1.5-3.1s3,0.8,3.2-0.9c0.3-2.5-2.4-6-2.5-6.2
			c0.3,0,6.5,0.3,7.4-1.6c1-2.2-6.5-2.9-11.6-7c-6.2-5-14.1-2.3-14.1-2.3l-44.7-26.7c-4.5,0.4-8.4,0.8-11.5,1.4
			C174.1,182.8,171.7,185.6,180.3,194.2z"/>
		<path class="st5" d="M258.1,217.4c0,0-3.1-2.5-2.5,1.8c-4.6-4.6-5.9-1.8-3.9,3.9c-4.9-6.4-7-4.6-6.2,0.7c-4.2-5-4.8-1.4-4.8-1.4
			s0.3-4.6,3.5-1.3c-0.4-5,3.5-4.6,6.1-0.9c-1.6-6.1,0.9-5.9,4.2-2.8C253.8,213.4,257,215.2,258.1,217.4z"/>
		<path class="st5" d="M180.3,194.2c6.2,6.2,16.8,10.7,25.3,13.6c-8.5-7.9-15.9-16.8-22.1-26.6C174.1,182.8,171.7,185.6,180.3,194.2
			z"/>
		<path class="st5" d="M187.5,277c-8.8-2.9-17.4-1.4-24.3-0.8c-8.8,0.8-22.3,1.8-22.3,1.8v-8.9c5.4,1,18,3.3,24,4
			C171.8,274,181.5,269.8,187.5,277z"/>
		<path class="st6" d="M140.9,266c-31.3,1.3-58.3-21.7-84.7-8.8c0,0,11-13.8,34-8.6c23,5.2,38.9,14.9,50.6,14.1L140.9,266z"/>
		<path class="st6" d="M266.5,268.4c-0.9,7.5-5.5,15.5-11.7,19.5c-7,4.4-47.2,10.8-113.3-4l0,0l-0.6-5.7
			c12.6-17.7,36.6-5.4,66.9,1.9C229.3,285.1,254,274.8,266.5,268.4z"/>
		<path class="st4" d="M194.7,272.7c0.8,0.5,1.1,1.4,0.8,2.3c-0.3,0.7-1,1.1-1.7,1.1c0,0,1.2,2.5-0.2,3.3c-1.8,1.1-2.5-1.2-5.8-2.3
			l-0.3-0.1c-8.8-2.9-17.4-1.4-24.3-0.8c-8.8,0.8-22.3,1.8-22.3,1.8v-15.4c0,0,11.8,0.7,18.7,0.5c3.7-0.1,3.2-2.8,9.3-4.5
			c3.9-1.1,15.4,4.4,18,4.5c5.2,0.4,7.5,0.5,8.1,1.6c0.3,0.6-0.6,1.4-0.6,1.4c0.9,0.1,1.6,0.8,1.7,1.6c0.2,1.2-1.5,1.7-1.5,1.7
			s1.8-0.2,2,1.3C196.8,272,194.7,272.7,194.7,272.7z"/>
		<path class="st6" d="M184.7,238.4c0,0-19.1,0.3-24.9,5.3C172.3,232.2,181.5,233.8,184.7,238.4z"/>
		<path class="st6" d="M98.8,237.4c0,0,18.9-4,32,14.1C120.9,229.4,102,232.9,98.8,237.4z"/>
		<g>
			<path class="st1" d="M128.4,81.4c0,3.9-2.9,7-6.5,7c-3.6,0-6.5-6.3-6.5-10.1c0-3.9,2.8-4.5,6.5-3.9
				C125.5,75,128.4,77.6,128.4,81.4z"/>
			<path class="st1" d="M155.9,81.4c0,3.9,2.9,7,6.5,7c3.6,0,6.5-6.3,6.5-10.1c0-3.9-2.8-4.5-6.5-3.9
				C158.9,75,155.9,77.6,155.9,81.4z"/>
		</g>
		<path class="st1" d="M162.6,61.9c-2.5-7.2-20.5-7.5-20.5-7.5s-18,0.2-20.5,7.5c-2.5,7.2-2.2,22.2,1.5,29.5
			c3.7,7.2,10.7,13.2,19,13.2c8.2,0,15.2-6,19-13.2C164.9,84.2,165.1,69.2,162.6,61.9z"/>
		<g>
			<path class="st7" d="M133.1,78.1c0,1.6-1.1,3-2.3,3c-1.3,0-2.3-1.3-2.3-3c0-1.6,1.1-3,2.3-3C132.1,75.1,133.1,76.4,133.1,78.1z"
				/>
			<path class="st7" d="M155.9,78.1c0,1.6-1.1,3-2.3,3c-1.3,0-2.3-1.3-2.3-3c0-1.6,1.1-3,2.3-3C154.9,75.1,155.9,76.4,155.9,78.1z"
				/>
		</g>
		<path class="st8" d="M127.2,57c1.2-0.1,2.5-0.2,3.6,0.2c1.2,0.4,2.2,1.3,2.5,2.5c0.3,1.6-0.7,3.1-1.7,4.3
			c-1.4,1.8-2.8,3.6-4.2,5.4c-1,1.3-2,2.6-2.6,4.1c-0.5,1.3-0.7,2.6-0.9,4c-0.2,1.8-0.3,3.7-0.2,5.6c0,0.2,0,0.4-0.1,0.6
			c-0.1,0.2-0.3,0.3-0.5,0.4c-0.6,0.3-1.2,0.6-1.8,0.9c-0.8-3.4-1.7-14.3-2.1-15.5c-0.7-2.2-1.1-4.4-1.3-6.6c-0.1-0.5-0.1-1,0-1.5
			c0.3-1.1,1.2-1.9,2.3-2.5C122.3,57.8,124.8,57.3,127.2,57z"/>
		<path class="st8" d="M153,48.9c-0.1,0-0.2,0.1-0.3,0.2c-0.4,0.5,0.2,2.1,0.3,2.6c0.1,0.7,1.5,5.2,0.5,5.5
			c-1.2,0.4-2.2,1.3-2.5,2.5c-0.3,1.6,0.7,3.1,1.7,4.3c1.4,1.8,2.8,3.6,4.2,5.4c1,1.3,2,2.6,2.6,4.1c0.5,1.3,0.7,2.6,0.9,4
			c0.2,1.8,0.3,3.7,0.2,5.6c0,0.2,0,0.4,0.1,0.6c0.1,0.2,0.3,0.3,0.5,0.4c0.6,0.3,1.2,0.6,1.8,0.9c0,0,0-0.2,0-0.1
			c0.9-4.1,1.1-8.4,1.6-12.5c0.2-2.1,0.2-4.1,0.8-6.1c1-3.1,1.9-6.4,1.4-9.7c-0.2-1.2-0.5-2.5-1.2-3.5c-0.9-1.3-2.3-2.2-3.8-2.7
			c-1.5-0.5-3.1-0.7-4.7-0.9C156.5,49.4,153.9,48.7,153,48.9z"/>
		<path class="st8" d="M155.2,46.2c-2.5-2.8-5-5.6-8.5-6.9c-4-1.5-8.5-0.6-12.6,0.4c-2.3,0.6-4.7,1.2-6.6,2.7
			c-2,1.5-3.4,3.8-5.1,5.7c-1.7,1.9-4.3,3.4-6.8,2.7c-0.2,2-0.3,4,0.1,5.9c1,4.3,4.7,7.6,8.9,9.1c4.2,1.5,8.7,1.3,13.1,0.6
			c4.3-0.7,8.6-2,12-4.7c2.9-2.4,5-5.7,6.4-9.1c0.5-1.2,1-2.6,0.6-3.9C156.5,47.7,155.8,47,155.2,46.2z"/>
		<path class="st9" d="M142.2,85.8c-1.3,0-2.3-0.6-2.7-1.3c-0.1,0.2-0.2,0.3-0.2,0.5c0,1,1.3,1.9,2.9,1.9c1.6,0,2.9-0.8,2.9-1.9
			c0-0.2-0.1-0.4-0.2-0.5C144.5,85.3,143.4,85.8,142.2,85.8z"/>
		<g>
			<path class="st8" d="M127.5,74.7c-0.2,0-0.3,0-0.5-0.1c-0.3-0.2-0.4-0.6-0.2-0.8c0,0,2.6-4.1,7.7-2.7c0.3,0.1,0.5,0.4,0.4,0.8
				c-0.1,0.3-0.4,0.5-0.8,0.4c-4.2-1.2-6.3,2.2-6.3,2.2C127.8,74.6,127.7,74.7,127.5,74.7z"/>
		</g>
		<g>
			<path class="st8" d="M156.6,75c-0.1-0.1-0.3-0.2-0.3-0.3c-0.1-0.1-1.8-3.6-6.1-2.8c-0.3,0.1-0.6-0.2-0.7-0.5
				c-0.1-0.3,0.2-0.6,0.5-0.7c5.2-0.9,7.4,3.4,7.4,3.5c0.1,0.3,0,0.7-0.3,0.8C156.9,75.1,156.7,75.1,156.6,75z"/>
		</g>
		<path class="st10" d="M137,93.7c0,0,3.8,2.6,10.7,0"/>
	</g>
	<path class="st11" d="M155.9,120.3c0,0-28.7,0.3-29.1,0c-0.4-0.3-2.8-10.3-3-10.9c1.6,3.6,8.9,6.3,17.6,6.3
		c8.8,0,16.1-2.7,17.6-6.3C168.1,110.4,155.9,120.3,155.9,120.3z"/>
	<path class="st11" d="M174.5,189.7c-0.5,8.4,2.9,21.3,3.3,28.9c-24.7,8.4-48.8,7.1-72.4-0.8c0.3-7.5,3.5-19.7,3.1-28
		c-0.1-2.5-0.6-5.8-1.2-9.5c-1.1,0.5-2.3,0.9-3.7,1c-22.4,2-22.9-5.9-22.9-5.9l9.1-45.7c1.4-7.2,6.6-13.2,13.5-15.7
		c8.1-2.9,14.2-4.1,20.5-4.5c0,0,0,0,0,0c0.1,0.5,2.5,10.5,3,10.9c0.4,0.3,29.1,0,29.1,0s12.2-9.8,3.2-10.9
		c5.8,0.4,11.1,1.1,18.2,3.4c7.6,2.5,13.2,9.1,14.3,17l6.8,46.8l-3.2,3.2c0,0-14.3,6.7-20.2,4.8
		C174.7,186.6,174.5,188.3,174.5,189.7z"/>
	<polygon class="st12" points="175,184.4 172.2,152 172.3,185 	"/>
	<polygon class="st12" points="107.1,179.8 107.1,154.8 109.8,182.6 	"/>
</g>
</svg>
