<svg xmlns="http://www.w3.org/2000/svg" viewBox="0 0 300 300"><defs><style>.cls-1,.cls-2{isolation:isolate;}.cls-2{fill:#c13b56;opacity:0.08;}.cls-3{fill:#c4c4c4;}.cls-4{fill:#cecece;}.cls-5{fill:#6e963e;}.cls-6{fill:#fff;}.cls-20,.cls-6{mix-blend-mode:soft-light;}.cls-7{fill:#d2d697;}.cls-10,.cls-11,.cls-15,.cls-17,.cls-21,.cls-7{mix-blend-mode:multiply;}.cls-8{fill:#a8c242;}.cls-9{fill:#c3343e;}.cls-10{fill:#d8c3d1;}.cls-11{fill:#dadcad;}.cls-12{fill:#5e3e1d;}.cls-13{fill:#ead6b0;mix-blend-mode:color-burn;}.cls-14{fill:#553d64;}.cls-15{fill:#c9b1c0;}.cls-16{fill:#d78244;}.cls-17{fill:#eecb9b;}.cls-18{fill:#cc591c;}.cls-19,.cls-20{fill:#e2e2e2;}.cls-21{fill:#f5f5f5;}</style></defs><g class="cls-1"><g id="OBJECTS"><g id="Page-1"><g id="For-you-and-your-partner-Copy-4"><g id="Group-4"><circle id="Mask-Copy-2" class="cls-2" cx="150" cy="150" r="150"/></g></g></g><path class="cls-3" d="M253.46,144.46c0,8-46.32,14.5-103.46,14.5s-103.46-6.49-103.46-14.5S92.86,130,150,130,253.46,136.44,253.46,144.46Z"/><path class="cls-4" d="M244.72,144.46c0,5.72-42.41,10.36-94.72,10.36s-94.72-4.64-94.72-10.36S97.69,134.09,150,134.09,244.72,138.73,244.72,144.46Z"/><path class="cls-5" d="M93.86,148.37a21.84,21.84,0,0,0-9.75-5.29c-7.82-1.63-9.16-12.61-5.42-17.39,3.14-4-.31-8.35-.18-12.59s.34-9.94,6.1-12,4.11-4.12,6.72-8.22c3.63-5.72,13.4-4.35,16.46.06s.65,8.22,6.25,9.41,4.46,6.8,4,10.25,1.38,7.87,3.44,11.35c2.63,4.47,1.19,10.88-5.33,16.12-5.85,4.69-11.25,5.22-12.71,8.14Z"/><path class="cls-6" d="M84,112.54c1.37,1.7,3.86.25,5.19-.79A8.13,8.13,0,0,0,91,110c.51-.77.91-1.6,1.45-2.36a39.85,39.85,0,0,1,3.86-4.36,6.26,6.26,0,0,0,2.2-3.74,10.44,10.44,0,0,0-.29-4,9.43,9.43,0,0,0-1.45-3.12,6.24,6.24,0,0,0-3.06,2.46c-2.1,3.3-.78,5-5.4,6.62s-4.8,6.21-4.9,9.62a5.76,5.76,0,0,0,0,.59A5.86,5.86,0,0,0,84,112.54Z"/><path class="cls-7" d="M114,102.36c-5.6-1.19-3.2-5-6.25-9.41a10.18,10.18,0,0,0-6.77-3.7,10.61,10.61,0,0,1,1.56,2.81c.79,2.18,1.13,4.48,1.74,6.71a13.44,13.44,0,0,0,1.81,4.63c2.07,2.75,5.87,3.84,7.63,6.88,1.15,2,.7,4.17.64,6.35-.08,2.77,1.42,5.17,1.88,7.86a12.37,12.37,0,0,1-3.67,11.32,24.5,24.5,0,0,1-6.1,3.7,59.46,59.46,0,0,1-8.2,3.34,14.85,14.85,0,0,1-7.07.81,43.29,43.29,0,0,0-6.25-1.1.17.17,0,0,1-.09.26l-.74.28a21.81,21.81,0,0,1,9.7,5.27l9.62-.15c1.46-2.92,6.86-3.45,12.71-8.14,6.52-5.24,8-11.65,5.33-16.12-2.06-3.48-3.86-7.89-3.44-11.35S119.64,103.56,114,102.36Z"/><path class="cls-5" d="M100.48,145.56a21.91,21.91,0,0,1,3-10.69c4.26-6.75-2.69-15.35-8.74-16-5.06-.53-5.79-6-8.92-8.89s-7.38-6.67-12.85-4-5.82.09-10.59-.89C55.74,103.8,49.93,111.78,51,117s5.46,6.18,2.42,11,1.78,7.92,4.56,10,4.7,6.47,5.77,10.36c1.38,5,7,8.43,15.28,7.38,7.44-.93,11.84-4.56,15-3.58Z"/><path class="cls-6" d="M83.66,114c.27,2.16-2.5,3-4.18,3.18a8,8,0,0,1-2.54.06c-.91-.16-1.79-.46-2.71-.59a38.91,38.91,0,0,0-5.81-.26,6.23,6.23,0,0,1-4.23-1,10.26,10.26,0,0,1-2.71-3,9.74,9.74,0,0,1-1.23-3.22,6.18,6.18,0,0,1,3.9-.48c3.83.78,4.11,2.9,8.51.71s7.8.88,10.32,3.17a4.16,4.16,0,0,1,.42.42A6.2,6.2,0,0,1,83.66,114Z"/><path class="cls-7" d="M89.41,145.22c-3.35.81-6.38,2.56-9.46,4.06a32.37,32.37,0,0,1-4.5,1.92,7.1,7.1,0,0,1-4.19.39c-3-.91-4.64-4.14-5.73-6.84-.88-2.18-1.36-4.54-2.35-6.67a9,9,0,0,0-2.81-3.4,10.16,10.16,0,0,1-2.28-2.06c-2.3-3.38.74-7.14,1.08-10.59.23-2.27-1-4.28-1.31-6.5a17,17,0,0,1,.39-6.47,24.52,24.52,0,0,1,1.38-3.94c-5.39.88-9.56,7.4-8.66,11.92,1,5.25,5.46,6.18,2.42,11s1.78,7.92,4.56,10,4.7,6.47,5.77,10.36c1.38,5,7,8.43,15.28,7.38,7.44-.93,11.84-4.56,15-3.58l4.65-4.76A9.7,9.7,0,0,0,89.41,145.22Z"/><path class="cls-8" d="M110.25,119.83c-3.16-2.51-6.43-6-7.29-9.35s-1.81-9-7.46-8.11-4.79-3.52-9.22-6.53-14-.76-15.38,5.88c-1,4.77,1.33,6.12-3.3,10.1s-2.79,9.37-1.37,13.37,6.19,6.82,4.71,11.68c-1.77,5.82,3.43,15.57,11.32,14.27,4.95-.81,10.35.26,11.41,1,6.1,4.46,7.24,15.45,7.24,15.45l8.82-3.73s-6.37-8.79-5.79-16.73c.18-2.37,3.84-4.67,7.16-10.38C115.3,129.54,114.33,123.05,110.25,119.83Z"/><path class="cls-7" d="M110.25,119.83c-3.16-2.51-6.43-6-7.29-9.35s-1.81-9-7.46-8.11-4.79-3.52-9.22-6.53c-3.63-2.45-10.7-1.41-13.9,2.68a8.36,8.36,0,0,1,.91-.43A4.27,4.27,0,0,1,76,97.78a9,9,0,0,1,2.48,1.27,34.12,34.12,0,0,1,3,2,28,28,0,0,0,3.11,2.33c2,1.16,4.29,1.53,6.46,2.2,1.77.55,4,1.35,5.16,3a8.2,8.2,0,0,1,.88,3c.42,1.68,1.82,2.16,3.07,3.1a17.81,17.81,0,0,1,4.6,5.32,31.81,31.81,0,0,1,3,7.14,13.65,13.65,0,0,1,.62,6.52,17.14,17.14,0,0,1-2.78,6.1,15.13,15.13,0,0,0-2.1,3.87,19.21,19.21,0,0,0-.63,3.53c-.21,2-.72,9.36-4.39,7.48-1.31-.67-2.14-2-3.22-2.92a14.11,14.11,0,0,0-6.86-2.87c-4.53-.81-9.5-1.92-13.88-.32a8.78,8.78,0,0,0,7.73,2.62c4.95-.81,10.35.26,11.41,1,6.1,4.46,7.24,15.45,7.24,15.45l8.82-3.73s-6.37-8.79-5.79-16.73c.18-2.37,3.84-4.67,7.16-10.38C115.3,129.54,114.33,123.05,110.25,119.83Z"/><path class="cls-5" d="M96.21,146c-1.82-.41-3.48-.93-5.12-1.45s-3.25-1.07-4.85-1.6-3.19-1.07-4.81-1.59-3.26-1-5-1.64a13.5,13.5,0,0,1,5.45-.72A20.24,20.24,0,0,1,87.21,140a22.48,22.48,0,0,1,4.9,2.33A20.29,20.29,0,0,1,94.3,144,12.87,12.87,0,0,1,96.21,146Z"/><path class="cls-5" d="M96.21,146a11.61,11.61,0,0,1-.1-2.76,18.85,18.85,0,0,1,.37-2.7,23,23,0,0,1,1.74-5.15,20.53,20.53,0,0,1,3-4.59,13.55,13.55,0,0,1,4.31-3.41c-.78,1.69-1.57,3.21-2.32,4.75s-1.48,3-2.22,4.57-1.46,3.06-2.23,4.6S97.18,144.37,96.21,146Z"/><path class="cls-5" d="M92.45,135.41a47,47,0,0,1-4.76-1.29c-1.52-.48-3-1-4.48-1.47l-4.42-1.51c-1.49-.51-3-1-4.62-1.62a12.13,12.13,0,0,1,5-.74,17.75,17.75,0,0,1,5,1A20,20,0,0,1,88.72,132a16.38,16.38,0,0,1,2,1.54A11.2,11.2,0,0,1,92.45,135.41Z"/><path class="cls-5" d="M92.45,135.41a10.58,10.58,0,0,1-.17-2.56,17.68,17.68,0,0,1,.29-2.52,20.39,20.39,0,0,1,1.55-4.78,18.51,18.51,0,0,1,2.76-4.26,12.17,12.17,0,0,1,4.05-3.11c-.68,1.6-1.39,3-2.05,4.44l-2,4.23c-.66,1.41-1.33,2.82-2,4.24A48,48,0,0,1,92.45,135.41Z"/><path class="cls-5" d="M88.17,125.32a42.45,42.45,0,0,1-4.42-1.42c-1.39-.51-2.75-1-4.1-1.57l-4.06-1.57c-1.37-.53-2.76-1-4.28-1.65a10.58,10.58,0,0,1,4.78-.7,15.5,15.5,0,0,1,4.67,1.08,17.59,17.59,0,0,1,4.15,2.32,15.78,15.78,0,0,1,1.79,1.59A10.38,10.38,0,0,1,88.17,125.32Z"/><path class="cls-5" d="M88.17,125.32a11.07,11.07,0,0,1-.17-2.49,18.18,18.18,0,0,1,.27-2.45,19.58,19.58,0,0,1,1.47-4.66,17.86,17.86,0,0,1,2.65-4.17,11.29,11.29,0,0,1,4-3c-.65,1.57-1.31,3-1.94,4.35L92.51,117c-.63,1.38-1.28,2.75-2,4.14A40.6,40.6,0,0,1,88.17,125.32Z"/><path class="cls-6" d="M74.57,136.61l.38,0a7.66,7.66,0,0,0,3.72-1.71A5.15,5.15,0,0,0,80.9,130c-.31-2.15-1.45-4-2.35-6-.71-1.52-1.5-3.29-1.2-5s1.43-3.46,1.71-5.34a12.41,12.41,0,0,0-1-6.6,11.79,11.79,0,0,0-2.32-3.72,6.19,6.19,0,0,0-.91,2.21c-.79,3.94,1.1,5.06-2.73,8.34S69.79,121.67,71,125s5.12,5.64,3.89,9.66A6.65,6.65,0,0,0,74.57,136.61Z"/><path class="cls-9" d="M148.09,139.91c0,16.53-10.62,26.11-26.44,26.11s-26.57-9.5-26.57-26c0-11.12,3.5-18.7,12.14-23.33,10.32-5.54,20.12-4.65,27.88-.5S148.09,127.13,148.09,139.91Z"/><path class="cls-6" d="M104.18,141.36c3.21-.88,4.66-3.13,4.64-6.44,0-3.54-.74-6.87.88-10.19.84-1.72,2.17-3.32,2.78-5.13a.56.56,0,0,0,0-.12,25.18,25.18,0,0,0-5.13,2.09c-6.44,3.45-9,9.1-9,17.38a25.54,25.54,0,0,0,.15,2.82A18,18,0,0,0,104.18,141.36Z"/><path class="cls-10" d="M135.1,116.17a27.94,27.94,0,0,0-11.95-3.35c.24.11.49.22.74.35,4.14,2,8.71,4.53,11.75,8.08a21.15,21.15,0,0,1,4.78,10.5c.68,4.17,1,8.74-.21,12.85A20.63,20.63,0,0,1,133.49,155c-3.47,2.84-10.29,4.11-14.66,4.23-13.82.39-18.11-6.08-22.29-9.57C100,160.18,109.25,166,121.65,166c15.82,0,26.44-9.58,26.44-26.11C148.09,127.13,142.72,120.24,135.1,116.17Z"/><path class="cls-8" d="M123.58,113.4s-.43-7.61,2.59-12.4c0,0-3.26-1.66-7.34,1.18,0,0,2.66,8.64,2.19,11.16Z"/><path class="cls-11" d="M126.17,101a6,6,0,0,0-2.47-.48s-.5,5.18-.78,7c-.16,1.08-1.19,5-1.9,5.74v.07l2.56.06S123.15,105.79,126.17,101Z"/><path class="cls-8" d="M130.28,114.12c4.65,1.56,6.07,7.88,6.07,7.88-1-1.45-6.32-4.41-6.32-4.41.57,3.08-1.3,6.36-1.3,6.36a22.64,22.64,0,0,0-6.18-6.64c-3.81,1.38-8.11,6.27-8.11,6.27a32.57,32.57,0,0,1,.79-6.12c-5.88.54-8.4,3.21-8.4,3.21a11.43,11.43,0,0,1,4.71-6A27,27,0,0,1,130.28,114.12Z"/><path class="cls-11" d="M136.35,122s-1.42-6.32-6.07-7.88L130,114a7,7,0,0,1,1.81,3.19c0,.17-2.42-1.07-3.07-1-.42,0-.1,4.53-.53,4.43a6.88,6.88,0,0,1-2.64-2.06c-.94-1-2.89-2.91-3.78-2.57-1.38.53-4.79,3.25-4.86,2.93-.14-.57-.48-2.75-.48-2.75s-5.24,1-5.19.9a8.85,8.85,0,0,0,.46-2.41l-.13.06a11.43,11.43,0,0,0-4.71,6s2.52-2.67,8.4-3.21a32.57,32.57,0,0,0-.79,6.12s4.3-4.89,8.11-6.27a22.64,22.64,0,0,1,6.18,6.64s1.87-3.28,1.3-6.36C130,117.59,135.3,120.55,136.35,122Z"/><path class="cls-5" d="M175.61,127.92c-2.63-5.3-4.93-7.2-6.14-14.77-1.28-8.07-3.75-13.21-12.75-13.21-8.6,0-11.42,4.09-13.45,12.85-1.51,6.55-1.89,8.9-4.44,13.35-2.92,5.09-5.25,10.28-5.25,20.89,0,12.86,9.6,18.85,22.75,18.85s23.53-5.4,23.53-18.25C179.86,139.22,179.47,135.73,175.61,127.92Z"/><path class="cls-8" d="M172.56,128.48c-2.2-4.71-4.13-6.39-5.14-13.11-1.08-7.17-3.15-11.74-10.7-11.74-7.21,0-9.57,3.64-11.27,11.42-1.28,5.81-1.6,7.9-3.74,11.85-2.44,4.52-4.4,9.12-4.4,18.55,0,11.41,8.05,16.74,19.08,16.74s19.74-4.8,19.74-16.21C176.13,138.51,175.8,135.41,172.56,128.48Z"/><path class="cls-12" d="M169.35,141.55c0,8.7-5.65,15.76-12.63,15.76s-12.63-7.06-12.63-15.76,5.65-15.75,12.63-15.75S169.35,132.85,169.35,141.55Z"/><path class="cls-6" d="M149,141.49c1.78-.2,3.66-.6,4.54-2.36a11.56,11.56,0,0,0,1-3.26c.33-2,.22-4.94,1.94-6.33a4.5,4.5,0,0,1,1.22-.72c-.33,0-.66-.06-1-.06-5.65,0-10.27,5.51-10.59,12.45A7.31,7.31,0,0,0,149,141.49Z"/><path class="cls-13" d="M160.8,126.64a16.88,16.88,0,0,1,5,7.59A17.81,17.81,0,0,1,163.39,150a10,10,0,0,1-12.62,3.13c-3.09-1.51-4.5-4.39-6.16-7.09,1.55,6.51,6.38,11.27,12.11,11.27,7,0,12.63-7.06,12.63-15.76C169.35,134.63,165.78,128.76,160.8,126.64Z"/><path class="cls-11" d="M175.61,127.92c-2.63-5.3-4.93-7.2-6.14-14.77-1.28-8.07-3.75-13.21-12.75-13.21a17.5,17.5,0,0,0-4.81.58l.5.16a13.74,13.74,0,0,1,5.68,3.5c3.76,4.15,3.33,9.54,4.59,14.65,1.53,6.18,10.33,14.08,10.63,28a12.15,12.15,0,0,1-3.63,8.78c-4.64,5.11-10.88,6-17.74,4.55a22,22,0,0,1-11.14-5.93c-3.69-3.45-7.22-7.22-7.22-7.22,0,12.86,9.6,18.85,22.75,18.85s23.53-5.4,23.53-18.25C179.86,139.22,179.47,135.73,175.61,127.92Z"/><path class="cls-6" d="M139.93,129.17a3.74,3.74,0,0,0,3.25,0,8.34,8.34,0,0,0,4.23-3.6c2.07-3.5,2.47-7.36,2.74-11.33.22-3,1-7.25,2.94-10-4.58.54-6.89,3.2-8.14,8.6-1,4.52-.68,6.31-2.44,9.38a24.55,24.55,0,0,0-2.83,6.79A2.07,2.07,0,0,0,139.93,129.17Z"/><path class="cls-14" d="M234.67,101.07a16.47,16.47,0,0,0-11.36-6.56c-5-.6-9.53,1.36-11.72,5.1-3.13,5.32-5.58,19-11.06,29.73-4.59,9-12.79,13.44-12.89,22.63-.13,10.84,6.28,15.34,16.58,16.29,12.88,1.2,19.61-7.15,24-17.06C233.29,139.78,243.72,112.55,234.67,101.07Z"/><path class="cls-6" d="M205.42,130.11a4.55,4.55,0,0,0,4.35-1.16c2.12-2.22,2-5.69,2.71-8.5a27.58,27.58,0,0,1,1.66-5.27,18.38,18.38,0,0,1,2.76-4.11,14,14,0,0,0,2.79-4.38q.21-.64.39-1.32a6.29,6.29,0,0,0-.74-.11c-3.3-.39-6.24.89-7.68,3.34-2,3.49-3.66,12.46-7.25,19.49-.22.42-.44.82-.68,1.21A5.17,5.17,0,0,0,205.42,130.11Z"/><path class="cls-15" d="M234.67,101.07l-.15-.19c-.33,2.71-.81,5.4-1.28,8.08-1.6,9-3.69,18.21-8.35,26.16-2.58,4.39-4.94,8.94-8,13-2.87,3.81-6.68,7.88-11.3,9.51a16.14,16.14,0,0,1-13.41-1.53c-1.63-1-3.55-2.19-4.54-3.93,0,10.68,6.36,15.12,16.58,16.06,12.88,1.2,19.61-7.15,24-17.06C233.29,139.78,243.72,112.55,234.67,101.07Z"/><path class="cls-8" d="M224.24,95.08S223.31,89,226,85.49c0,0-2.38-1.52-5.74.36,0,0,1,6.81.48,8.71Z"/><path class="cls-11" d="M226,85.49a4.41,4.41,0,0,0-1.86-.56s-.86,3.93-1.12,5.33a9.4,9.4,0,0,1-2.26,4.25s0,0,0,0l3.51.52S223.31,89,226,85.49Z"/><path class="cls-8" d="M214.22,96.59s-3.37,6-2.09,9.4c0,0,3.09-4.65,6.14-5.85,0,0-.94,4,.75,6.38,0,0,2.58-4.8,5.62-5.6a6.67,6.67,0,0,1,2.55,5,4.45,4.45,0,0,0,1-6.58s5.12,3.12,4.55,8.57c0,0,2.78-4,.92-8C233.67,99.89,225.17,89.6,214.22,96.59Z"/><path class="cls-11" d="M233.67,99.89a18.44,18.44,0,0,0-5.41-4.17,6,6,0,0,1,1.3,3.21c0,.15-1.5-.3-2.17-.27a3.46,3.46,0,0,1-.39,2.66c-.08.1-.92-1.07-1.22-1.61-.2-.37-.61-1.35-1.26-1.08a4.68,4.68,0,0,0-1.05.58c-1,.75-2.8,2.63-2.85,2.53a4.57,4.57,0,0,1-.43-2.31q0-.65.06-1.29c0-.29.22-.85-.43-.58l-.52.23a14,14,0,0,0-3.38,1.83,11.86,11.86,0,0,1-2.1,1.32,10.87,10.87,0,0,1,1.62-5.06c-.4.21-.81.45-1.22.71,0,0-3.37,6-2.09,9.4,0,0,3.09-4.65,6.14-5.85,0,0-.94,4,.75,6.38,0,0,2.58-4.8,5.62-5.6a6.67,6.67,0,0,1,2.55,5,4.45,4.45,0,0,0,1-6.58s5.12,3.12,4.55,8.57C232.75,107.91,235.53,104,233.67,99.89Z"/><path class="cls-5" d="M194.18,85.56s8.89,11.28-2.65,25.57C191.53,111.13,182.79,94.31,194.18,85.56Z"/><path class="cls-8" d="M191.56,111.1c11.5-14.28,2.62-25.54,2.62-25.54l-.1.08Z"/><path class="cls-5" d="M208.64,91.92s.63,14.35-17.08,19.21C191.56,111.13,194.29,92.36,208.64,91.92Z"/><path class="cls-8" d="M191.6,111.12c17.67-4.87,17-19.2,17-19.2h-.13Z"/><path class="cls-5" d="M178.46,88.93s-3.43,13.95,13,22.19C191.45,111.12,192.44,92.18,178.46,88.93Z"/><path class="cls-8" d="M191.41,111.1c-16.38-8.24-12.95-22.17-12.95-22.17l.12,0Z"/><path class="cls-16" d="M202,127.16c-1.27,12.8-11.37,41-15.93,40.56s-9.12-30.25-7.85-43,7.66-20.23,13.69-19.63C199.87,105.82,203.29,114.37,202,127.16Z"/><path class="cls-17" d="M191.93,105a6.87,6.87,0,0,0-2.07.11,12.31,12.31,0,0,1,7,7.63c.8,2.2,4.19,16.51-5.49,42.55-1,2.74-4.48,4.69-7.4,2.71a9.13,9.13,0,0,1-3-3.94l-.64-1.38c1.53,8.24,3.65,14.79,5.77,15,4.56.45,14.66-27.76,15.93-40.56S199.87,105.82,191.93,105Z"/><path class="cls-18" d="M180.51,114.9a7.86,7.86,0,0,1,1.94-.32c.64,0,1.27,0,1.9,0s1.25.17,1.87.34a8,8,0,0,1,1.84.7v.08c-2.52-.21-5-.45-7.54-.75Z"/><path class="cls-18" d="M184.47,121.06a8.2,8.2,0,0,1,2-.33c.65,0,1.3,0,1.95,0s1.28.17,1.92.35a8.27,8.27,0,0,1,1.88.7v.08c-2.58-.21-5.16-.47-7.74-.76Z"/><path class="cls-18" d="M195.23,117.35A6.81,6.81,0,0,1,197,117a17,17,0,0,1,1.75,0c.57.11,1.14.16,1.71.32a6.63,6.63,0,0,1,1.67.69v.08q-3.46-.28-6.91-.69Z"/><path class="cls-18" d="M193.36,124.92a10.38,10.38,0,0,1,2.25-.3c.75,0,1.48,0,2.21.06s1.47.2,2.19.38a10.21,10.21,0,0,1,2.14.73v.08q-4.41-.37-8.79-.87Z"/><path class="cls-18" d="M178.27,124.35a8.23,8.23,0,0,1,1.92-.33c.63,0,1.25,0,1.88,0s1.24.17,1.85.34a7.6,7.6,0,0,1,1.81.7v.08c-2.49-.21-5-.45-7.45-.74Z"/><path class="cls-18" d="M188.64,131.2a11.31,11.31,0,0,1,2.29-.29c.76,0,1.51.05,2.27.07s1.49.19,2.23.38a10.63,10.63,0,0,1,2.19.73v.08c-3-.25-6-.55-9-.89Z"/><path class="cls-18" d="M178.18,134.8a9.37,9.37,0,0,1,2.14-.31c.71,0,1.41,0,2.11.06s1.39.18,2.07.36a9.19,9.19,0,0,1,2,.72v.08c-2.8-.23-5.58-.51-8.37-.83Z"/><path class="cls-18" d="M186.93,139.08a8.39,8.39,0,0,1,1.94-.33c.64,0,1.26,0,1.9,0s1.25.17,1.87.34a7.74,7.74,0,0,1,1.83.7v.08c-2.51-.21-5-.46-7.54-.75Z"/><path class="cls-18" d="M188.77,143.74a10.39,10.39,0,0,1,2.33-.29c.77,0,1.53.05,2.3.07s1.52.2,2.27.38a11,11,0,0,1,2.23.74v.08q-4.57-.39-9.13-.91Z"/><path class="cls-18" d="M187.63,147.63a9,9,0,0,1-2.09.31c-.69,0-1.38,0-2.07-.05s-1.35-.18-2-.36a9,9,0,0,1-2-.71v-.08q4.11.34,8.19.81Z"/><path class="cls-18" d="M184.62,151.67a7.09,7.09,0,0,1,1.84-.34c.61,0,1.2,0,1.8,0s1.19.16,1.78.33a7,7,0,0,1,1.73.69v.08q-3.59-.28-7.16-.71Z"/><path class="cls-18" d="M187.92,156.58a6.54,6.54,0,0,1-1.76.35,16.42,16.42,0,0,1-1.72,0c-.57-.11-1.14-.16-1.7-.32a6.85,6.85,0,0,1-1.65-.68v-.08c2.29.18,4.56.4,6.84.67Z"/><path class="cls-18" d="M185.82,161.86a3.55,3.55,0,0,1,1.28-.39,4.85,4.85,0,0,1,2.46.24,3.8,3.8,0,0,1,1.18.64v.07c-1.64-.11-3.28-.28-4.92-.48Z"/><path class="cls-6" d="M183.19,133.53c2.22-2.83,1.72-6.51,2-9.87.28-3,0-6.78,1.8-9.45,1.08-1.62,2.84-3.27,4.86-3.39a6.55,6.55,0,0,0-2.76-.88c-4.09-.41-8.42,4.63-9.27,13.29A62.86,62.86,0,0,0,180.2,135,4.55,4.55,0,0,0,183.19,133.53Z"/><path class="cls-19" d="M46.54,144.46c1.35,45.2,38.64,85.3,103.46,85.3,62.29,0,102.1-40.1,103.46-85.3,0,0-1.18,10.7-103.46,10.7C79.63,155.16,46.54,144.46,46.54,144.46Z"/><path class="cls-4" d="M185.92,233.48c-10.62,6.56-68.7,3.27-71.75-.26-2.67-3.09-.09-8.35-.09-8.35h71.85S189.4,231.33,185.92,233.48Z"/><path class="cls-20" d="M89.82,181.93c3.76,3.67,9.74,5.56,14.82,7a53.26,53.26,0,0,0,7.84,1.43c2.7.36,5.43.65,8.16.75,6.36.23,12.83-.48,18.59-3.36a25.54,25.54,0,0,0,10.67-10,52.74,52.74,0,0,0,4.9-12.24c-7.83.23-17.39.3-29.07.1a318.65,318.65,0,0,1-48.09-4.1C78,164.54,77.54,169.94,89.82,181.93Z"/><path class="cls-21" d="M221.47,152.47c-2.74,5.62-5.68,11.15-8.52,16.64a70.71,70.71,0,0,1-15.06,20.33,80.25,80.25,0,0,1-21.81,14.13c-18.59,8-39.11,8.29-58.81,5-8.36-1.41-16.36-3.65-23.73-7.93a66.86,66.86,0,0,1-17.62-14.9c-9.23-11.05-15.21-24.48-18.26-38.49-7.47-1.58-11.12-2.76-11.12-2.76,1.35,45.2,38.64,85.3,103.46,85.3,62.29,0,102.1-40.1,103.46-85.3C253.46,144.46,252.93,149.3,221.47,152.47Z"/></g></g></svg>