<?xml version="1.0" encoding="utf-8"?>
<!-- Generator: Adobe Illustrator 25.0.0, SVG Export Plug-In . SVG Version: 6.00 Build 0)  -->
<svg version="1.1" id="Layer_1" xmlns="http://www.w3.org/2000/svg" xmlns:xlink="http://www.w3.org/1999/xlink" x="0px" y="0px"
	 viewBox="0 0 600 600" style="enable-background:new 0 0 600 600;" xml:space="preserve">
<style type="text/css">
	.st0{opacity:9.000000e-02;fill:#FF3556;enable-background:new    ;}
	.st1{fill:#FFFFFF;}
	.st2{fill:#DBDBDB;}
	.st3{fill:#E8E8E8;}
	.st4{fill:#FF9A6C;}
	.st5{fill:#BFBFBF;}
	.st6{fill:#B0D2F5;}
	.st7{fill:#D61335;}
	.st8{fill:#FFBF9D;}
	.st9{fill:#00A2FF;}
	.st10{opacity:0.2;enable-background:new    ;}
	.st11{fill:#1A2E35;}
	.st12{fill:#375A64;}
	.st13{fill:#0086C3;}
	.st14{fill:#006783;}
	.st15{fill:#2E353A;}
</style>
<circle class="st0" cx="301.5" cy="302.1" r="285.9"/>
<g>
	<path class="st1" d="M426.6,210.8c-0.8,0-1.4-0.9-1.4-1.9V201c0-1.1,0.6-2,1.4-2s1.4,0.9,1.4,2v7.8
		C428.1,209.9,427.4,210.8,426.6,210.8z"/>
	<path class="st1" d="M455.4,210.8c-0.8,0-1.4-0.9-1.4-1.9V201c0-1.1,0.6-2,1.4-2s1.4,0.9,1.4,2v7.8
		C456.8,209.9,456.2,210.8,455.4,210.8z"/>
	<path class="st1" d="M440.3,263.1c-0.8,0-1.4-1-1.4-2.2v-6.6h2.9v6.6C441.8,262.1,441.1,263.1,440.3,263.1z"/>
	<path class="st2" d="M443.7,274.2c0.1,1.1-0.6,2.1-1.7,2.2h-3.4c-1.1-0.2-1.8-1.1-1.7-2.2v-6.7l6.8-0.1L443.7,274.2L443.7,274.2z"
		/>
	<path class="st3" d="M442,260.9h-3.4c-1.1,0.2-1.8,1.1-1.7,2.2v4.4h6.8v-4.4C443.8,262,443.1,261,442,260.9z"/>
	<path class="st3" d="M458.8,209v37.9c0,2.7-1.1,5.2-3,7.1l0,0c-1.9,1.8-4.4,2.9-7,2.9h-17c-2.6,0-5.2-1-7-2.9l0,0
		c-1.9-1.9-2.9-4.4-2.9-7v-38H458.8z"/>
	<path class="st2" d="M456.8,233.1V245c0,2.4-0.9,4.6-2.6,6.3l0,0c-1.7,1.6-3.9,2.6-6.2,2.6h-15.1c-2.4,0-4.6-0.9-6.3-2.6l0,0
		c-1.7-1.7-2.6-3.9-2.6-6.3v-11.9H456.8z"/>
	<path class="st1" d="M492.4,488.5l-4.3-2.3c-0.8-0.4-1.7-0.7-2.6-0.7h-12.4V201.3c0-1.2-1-2.2-2.2-2.3h-57.5
		c-1.2,0-1.7,0.6-1.7,1.4s0.5,1.4,1.7,1.4h56.9v283.7h-13.4c-0.9,0-1.8,0.2-2.6,0.7l-4.3,2.3c-0.7,0.4-0.9,1.3-0.6,2
		c0.3,0.5,0.7,0.7,1.2,0.7c0.2,0,0.5-0.1,0.7-0.2l4.2-2.2c0.4-0.2,0.9-0.3,1.4-0.3H485c0.8,0,1.6,0.2,2.3,0.6l3.7,2
		c0.2,0.1,0.4,0.2,0.7,0.2l0,0c0.8,0,1.4-0.6,1.4-1.4C493.1,489.3,492.9,488.8,492.4,488.5z"/>
	<path class="st3" d="M458.3,270.3c-4.9-1.5-9.3-4.5-12.5-8.4c0,0,1,8.8,11.7,11.1L458.3,270.3z"/>
	<path class="st4" d="M451.4,240.3c-0.1,0-0.2-0.1-0.2-0.2c0-0.1,0.1-0.2,0.2-0.2l0,0c0.1,0,0.2,0.1,0.2,0.2l0,0
		C451.6,240.3,451.5,240.3,451.4,240.3L451.4,240.3z"/>
	<path class="st4" d="M456.8,241.2c-0.1,0-0.2-0.2-0.1-0.3s0.1-0.3,0.2-0.3s0.2,0.2,0.1,0.3C457,241.1,456.9,241.2,456.8,241.2z"/>
	<path class="st4" d="M452.3,242.8c-0.1,0-0.2-0.1-0.1-0.2c0-0.1,0.1-0.1,0.2-0.1s0.2,0.1,0.1,0.2S452.4,242.8,452.3,242.8z"/>
	<path class="st4" d="M455.3,243c-0.1,0-0.2-0.1-0.1-0.2c0-0.1,0.1-0.2,0.2-0.2s0.2,0.1,0.1,0.3C455.6,242.9,455.5,243,455.3,243
		C455.4,243,455.3,243,455.3,243z"/>
	<path class="st4" d="M470.6,245.7c-0.1,0-0.2-0.1-0.2-0.2c0-0.1,0.1-0.2,0.2-0.2s0.2,0.1,0.2,0.2
		C470.8,245.7,470.7,245.7,470.6,245.7z"/>
	<path class="st4" d="M472.7,246.2c-0.1,0-0.2-0.2-0.1-0.3c0-0.1,0.1-0.2,0.2-0.2s0.2,0.2,0.1,0.3
		C472.9,246.1,472.8,246.2,472.7,246.2z"/>
	<path class="st4" d="M468.7,245.2c-0.1,0-0.2-0.1-0.2-0.2c0-0.1,0.1-0.2,0.2-0.2s0.2,0.1,0.2,0.2l0,0
		C468.9,245.2,468.8,245.2,468.7,245.2L468.7,245.2z"/>
	<path class="st4" d="M469.6,247.9c-0.1,0-0.2-0.1-0.2-0.3c0-0.1,0.1-0.2,0.1-0.2c0.1,0,0.2,0.1,0.2,0.2l0,0
		C469.8,247.7,469.7,247.8,469.6,247.9z"/>
	<path class="st4" d="M471.5,248.1c-0.1,0-0.1-0.2-0.1-0.2c0.1-0.1,0.2-0.1,0.2,0l0,0c0.1,0,0.1,0.2,0.1,0.2
		S471.6,248.1,471.5,248.1z"/>
</g>
<g>
	<path class="st5" d="M594.7,494.1H2.2c-0.4,0-0.8-0.4-0.8-0.8l0,0c0-0.4,0.4-0.8,0.8-0.8h592.5c0.4,0,0.8,0.4,0.8,0.8l0,0
		C595.5,493.7,595.1,494.1,594.7,494.1z"/>
	<g>
		<path class="st2" d="M193.3,231.1h-61.9c-4.8,0-8.7-3.9-8.7-8.7v-59.6c0-4.8,3.9-8.7,8.7-8.7h61.9c4.8,0,8.7,3.9,8.7,8.7v59.6
			C202,227.2,198.1,231.1,193.3,231.1z"/>
		<path class="st3" d="M190.6,227.7H134c-4.4,0-7.9-3.6-7.9-7.9v-54.4c0-4.4,3.6-7.9,7.9-7.9h56.6c4.4,0,7.9,3.6,7.9,7.9v54.4
			C198.6,224.2,195,227.7,190.6,227.7z"/>
		<g>
			<g>
				<path class="st6" d="M160.7,164.5c0-0.9,0.7-1.6,1.6-1.6s1.6,0.7,1.6,1.6s-0.7,1.6-1.6,1.6S160.7,165.4,160.7,164.5z"/>
				<path class="st6" d="M174,166.8c0.4-0.8,1.4-1.1,2.2-0.6c0.8,0.4,1.1,1.4,0.6,2.2c-0.4,0.8-1.4,1.1-2.2,0.6
					C173.8,168.6,173.5,167.6,174,166.8z"/>
				<path class="st6" d="M185.3,175.8c0.8-0.5,1.8-0.3,2.3,0.5s0.3,1.8-0.5,2.3s-1.8,0.3-2.3-0.5S184.6,176.3,185.3,175.8z"/>
				<path class="st6" d="M191,189.8c0.9,0,1.6,0.7,1.6,1.6c0,0.9-0.7,1.6-1.6,1.6c-0.9,0-1.6-0.7-1.6-1.6
					C189.3,190.5,190.1,189.8,191,189.8z"/>
				<path class="st6" d="M188.1,206c0.6,0.6,0.6,1.7,0,2.3s-1.7,0.6-2.3,0s-0.6-1.7,0-2.3C186.4,205.4,187.4,205.4,188.1,206z"/>
				<path class="st6" d="M177.8,216.4c0.6,0.6,0.6,1.7,0,2.3s-1.7,0.6-2.3,0s-0.6-1.7,0-2.3C176.1,215.7,177.1,215.7,177.8,216.4z"
					/>
				<path class="st6" d="M160.7,221.7c0-0.9,0.7-1.6,1.6-1.6s1.6,0.7,1.6,1.6c0,0.9-0.7,1.6-1.6,1.6S160.7,222.6,160.7,221.7z"/>
			</g>
			<g>
				<path class="st6" d="M150.7,166.8c-0.4-0.8-1.4-1.1-2.2-0.6c-0.8,0.4-1.1,1.4-0.6,2.2c0.4,0.8,1.4,1.1,2.2,0.6
					C150.8,168.6,151.1,167.6,150.7,166.8z"/>
				<path class="st6" d="M139.3,175.8c-0.8-0.5-1.8-0.3-2.3,0.5s-0.3,1.8,0.5,2.3s1.8,0.3,2.3-0.5S140.1,176.3,139.3,175.8z"/>
				<path class="st6" d="M133.7,189.8c-0.9,0-1.6,0.7-1.6,1.6c0,0.9,0.7,1.6,1.6,1.6s1.6-0.7,1.6-1.6S134.6,189.8,133.7,189.8z"/>
				<path class="st6" d="M136.6,206c-0.6,0.6-0.6,1.7,0,2.3s1.7,0.6,2.3,0s0.6-1.7,0-2.3S137.2,205.4,136.6,206z"/>
				<path class="st6" d="M146.9,216.4c-0.6,0.6-0.6,1.7,0,2.3s1.7,0.6,2.3,0s0.6-1.7,0-2.3C148.6,215.7,147.5,215.7,146.9,216.4z"/>
			</g>
		</g>
		<g>
			<path class="st6" d="M161.9,191.4c0-0.9,0.7-1.6,1.6-1.6c0.9,0,1.6,0.7,1.6,1.6c0,0.9-0.7,1.6-1.6,1.6
				C162.6,193.1,161.9,192.3,161.9,191.4z"/>
			<g>
				<rect x="163.3" y="170.9" class="st6" width="0.4" height="20.5"/>
			</g>
			<g>
				
					<rect x="161.9" y="186.5" transform="matrix(0.7867 -0.6173 0.6173 0.7867 -79.5277 144.1134)" class="st6" width="13.8" height="1.3"/>
			</g>
		</g>
	</g>
	<g>
		<path class="st2" d="M331.8,398.5H179.6l-66.7-66c-4.3-4.2-3.8-11.3,1-14.9l3.4-2.5l134.9,2L331.8,398.5z"/>
		<path class="st3" d="M180.7,400.2l-12.6,9.3l-57.5-77.4c-3.2-4.3-2.3-10.3,2-13.5l4.8-3.6L180.7,400.2z"/>
		<path class="st2" d="M113.1,409.6h374.1c4.6,0,8.3-3.7,8.3-8.3l0,0c0-4.6-3.7-8.3-8.3-8.3H113.1c-4.6,0-8.3,3.7-8.3,8.3l0,0
			C104.8,405.9,108.5,409.6,113.1,409.6z"/>
		<rect x="168.1" y="409.6" class="st2" width="6" height="75.7"/>
		<rect x="565.2" y="409.6" class="st2" width="6" height="75.7"/>
		<rect x="474.5" y="409.6" class="st2" width="6" height="75.7"/>
		<rect x="273.5" y="409.6" class="st2" width="6" height="75.7"/>
		<rect x="168.1" y="457.9" class="st2" width="276.5" height="6.3"/>
		<rect x="438.6" y="457.9" class="st2" width="132.5" height="6.3"/>
		<g>
			
				<ellipse transform="matrix(0.9216 -0.3882 0.3882 0.9216 -174.9782 104.4836)" class="st3" cx="171.1" cy="485.3" rx="6.8" ry="6.8"/>
			
				<ellipse transform="matrix(2.626760e-02 -0.9997 0.9997 2.626760e-02 -318.4261 643.7057)" class="st2" cx="171.2" cy="485.3" rx="3.8" ry="3.8"/>
		</g>
		<g>
			<path class="st2" d="M269.7,485.3c0-3.7,3-6.8,6.8-6.8c3.7,0,6.8,3,6.8,6.8c0,3.7-3,6.8-6.8,6.8C272.8,492,269.7,489,269.7,485.3
				z"/>
			<ellipse class="st2" cx="276.6" cy="485.3" rx="3.8" ry="3.8"/>
		</g>
		<g>
			<ellipse class="st3" cx="477.4" cy="485.3" rx="6.8" ry="6.8"/>
			<path class="st2" d="M473.7,485.3c0-2.1,1.7-3.8,3.8-3.8s3.8,1.7,3.8,3.8c0,2.1-1.7,3.8-3.8,3.8S473.7,487.4,473.7,485.3z"/>
		</g>
		<g>
			<ellipse class="st3" cx="568.1" cy="485.3" rx="6.8" ry="6.8"/>
			<path class="st2" d="M564.4,485.3c0-2.1,1.7-3.8,3.8-3.8s3.8,1.7,3.8,3.8c0,2.1-1.7,3.8-3.8,3.8
				C566.1,489.1,564.4,487.4,564.4,485.3z"/>
		</g>
		<polygon class="st3" points="118.5,328.1 118.5,396.6 126.9,396.6 126.9,337.5 		"/>
		<path class="st3" d="M563.9,409.6H436.8c-6,0-10.9-4.9-10.9-10.9V354c0-6,4.9-10.9,10.9-10.9h127.1c6,0,10.9,4.9,10.9,10.9v44.7
			C574.8,404.7,569.9,409.6,563.9,409.6z"/>
	</g>
	<g>
		<g>
			<rect x="8.2" y="425.4" class="st2" width="3.6" height="57.1"/>
			<rect x="8.2" y="466" class="st3" width="78.8" height="3.6"/>
			<rect x="83.5" y="425.4" class="st2" width="3.6" height="57.1"/>
			<rect x="57.2" y="425.4" class="st2" width="3.6" height="57.1"/>
			<g>
				<path class="st3" d="M3.9,486c0-3.4,2.7-6.1,6.1-6.1s6.1,2.7,6.1,6.1s-2.7,6.1-6.1,6.1S3.9,489.4,3.9,486z"/>
				<path class="st2" d="M6.6,486c0-1.9,1.5-3.4,3.4-3.4s3.4,1.5,3.4,3.4s-1.5,3.4-3.4,3.4S6.6,487.9,6.6,486z"/>
			</g>
			<g>
				<path class="st3" d="M52.8,486c0-3.4,2.7-6.1,6.1-6.1c3.4,0,6.1,2.7,6.1,6.1s-2.7,6.1-6.1,6.1C55.6,492.1,52.8,489.4,52.8,486z"
					/>
				<path class="st2" d="M55.5,486c0-1.9,1.5-3.4,3.4-3.4s3.4,1.5,3.4,3.4s-1.5,3.4-3.4,3.4C57.1,489.4,55.5,487.9,55.5,486z"/>
			</g>
			<g>
				<path class="st3" d="M79.1,486c0-3.4,2.7-6.1,6.1-6.1s6.1,2.7,6.1,6.1s-2.7,6.1-6.1,6.1C81.9,492.1,79.1,489.4,79.1,486z"/>
				<path class="st2" d="M81.8,486c0-1.9,1.5-3.4,3.4-3.4s3.4,1.5,3.4,3.4s-1.5,3.4-3.4,3.4C83.4,489.4,81.8,487.9,81.8,486z"/>
			</g>
			<rect x="34.5" y="395" class="st3" width="52.5" height="38.7"/>
			<rect x="8.2" y="395" class="st2" width="52.5" height="38.7"/>
		</g>
		<g>
			<path class="st7" d="M32,380.3V395H17.1v-14.8c0-0.1,0-0.3,0-0.4c0.2-1.7,1.2-3.1,2.7-3.7c1.1-0.5,1.8-1.4,1.9-2.6l0.1-2.1h5.4
				v2.1c0,1.2,0.8,2.1,1.8,2.6c1.5,0.6,2.6,2.1,2.8,3.7C31.9,380,32,380.1,32,380.3z"/>
			<polygon class="st2" points="27.7,372.3 21.3,372.3 21.5,370.6 27.5,370.6 			"/>
			<path class="st1" d="M32,380.3v9.5H17.1v-9.5c0-0.1,0-0.3,0-0.4h14.8C31.9,380,32,380.1,32,380.3z"/>
		</g>
		<g>
			<path class="st7" d="M44.1,386.8v8.2h-8.3v-8.3c0-0.1,0-0.2,0-0.2c0.1-0.9,0.7-1.7,1.5-2.1c0.6-0.3,1-0.8,1-1.4l0.1-1.2h3v1.2
				c0,0.6,0.4,1.2,1,1.5c0.8,0.4,1.5,1.1,1.5,2.1C44.1,386.6,44.1,386.7,44.1,386.8z"/>
			<polygon class="st2" points="41.8,382.3 38.2,382.3 38.3,381.4 41.7,381.4 			"/>
			<path class="st1" d="M44.1,386.8v5.3h-8.3v-5.3c0-0.1,0-0.2,0-0.2h8.3C44.1,386.6,44.1,386.7,44.1,386.8z"/>
		</g>
	</g>
	<polygon class="st1" points="317.4,266.3 318.1,271.2 319.6,271.2 320.1,266.3 	"/>
	<path class="st2" d="M264.4,368.6L264.4,368.6c-0.4-0.7-0.2-1.6,0.5-1.9l2.5-1.5c0.7-0.4,1.6-0.2,1.9,0.5l0,0
		c0.4,0.7,0.2,1.6-0.5,1.9l-2.5,1.5C265.6,369.5,264.7,369.3,264.4,368.6z"/>
</g>
<g>
	<path class="st8" d="M295.2,474.1l1.8,15.3c0,0,16.2,3.1,16.9,5.9l-29.7,5l-3.9-23.8L295.2,474.1z"/>
	<path class="st8" d="M300.8,490c0.1,0.1-0.5,0.5-0.9,1.2s-0.4,1.4-0.6,1.4c-0.1,0-0.4-0.8,0.1-1.6
		C299.9,490.1,300.7,489.8,300.8,490z"/>
	<path class="st8" d="M340.9,467l4.4,14.8c0,0,16.5,0.1,17.6,2.8l-28.4,10.2l-7.8-22.7L340.9,467z"/>
	<path class="st8" d="M323.5,297.2c-2.6-5.4-8.8-7.9-13.7-5.5c-3.7,1.9-5.9,5.9-5.4,10c0.1,1.4,0.5,2.8,1.1,4.1l19.8,40.7
		c2.6,5.4,8.8,7.9,13.7,5.5c5-2.4,6.9-8.8,4.3-14.2L323.5,297.2z"/>
	<polygon class="st9" points="250.4,384.2 328.6,422.4 343.6,397.1 272.2,347.4 	"/>
	<path class="st9" d="M335,396.2L335,396.2c-7.5,2.5-13.3,11.9-12.2,20.1c2,25.3,4.2,66.6,5.8,69.3l17.5-5.8
		c2.4-3.1,1.5-46.2,1.9-72.8C348,398.7,342.1,393.8,335,396.2z"/>
	<polygon class="st10" points="275,390.9 283.1,374 268.9,382.1 	"/>
	<path class="st9" d="M218.8,374l1.2,4.3c2.4,8.8,7.6,16.6,14.7,22.3l37.8,34.2l22.1-14.6l-43.8-65.5L218.8,374z"/>
	<path class="st9" d="M279.7,414.5L279.7,414.5c-6.1,2.1-9.8,8.4-8.6,14.8c3.8,24.4,7.9,60.1,11.2,64.3l15.1-5.2
		c2.2-3-0.1-37.5-0.9-61.5C296.3,418,287.9,411.8,279.7,414.5z"/>
	<path class="st10" d="M219.7,377.2c0,0,6.6,8,20.9,11.5c14.3,3.5,30.7-5.4,30.7-5.4l-52.5-9.1L219.7,377.2z"/>
	<path class="st9" d="M296.8,270.6l-40.6,16.7c0,0-10.7,2.4-25.6,39.5c-13.4,33.4-11.9,47.4-11.9,47.4s18.8,18.3,46.4,11.3
		c23.6-6,22.6-26.2,22.6-26.2l31.5-59.7c0.9-3.6-0.1-7.4-2.8-10L296.8,270.6z"/>
	<polygon class="st10" points="254,362.6 257.9,331.1 245.3,343 	"/>
	<path class="st9" d="M263.7,286.6c-5.1-1.9-11,1.3-13.1,7l-13.2,36.2l-5.2,13.9c-2.1,5.7,0.3,11.9,5.4,13.7s11-1.3,13.1-7l5.2-13.9
		l13.2-36.2c0.5-1.4,0.8-2.8,0.8-4.3C269.9,291.8,267.6,288,263.7,286.6z"/>
	<path class="st8" d="M236.5,350.1c-4.9-2.7-11-0.9-13.7,3.9c-0.2,0.4-0.4,0.8-0.5,1.2L209.8,402l8.5,4.9l21.5-43.2
		C242.7,359.1,241.2,353,236.5,350.1C236.5,350.2,236.5,350.1,236.5,350.1z"/>
	<g>
		<path class="st8" d="M327.6,255.2c2.1-10.3-3.8-20.5-13.5-23.6l-1-0.3c-10.6-2.6-18.7,5.3-20.9,16.3l-9.4,40.1
			c-1.1,4.6,1.1,9.4,5.3,11.6l8,3.9c3.6,1.7,7.9,0.1,9.5-3.5c0.2-0.4,0.4-0.9,0.5-1.4c0.4-1.4,1.6-7.3,2.1-9.2l0,0
			c0,0,10.5,1.5,13.6-8.8C323.4,275.3,325.7,264.8,327.6,255.2z"/>
	</g>
	<path class="st4" d="M308.3,289.1c-4.7-1.5-8.9-4.3-12-8.1c0,0,0.9,8.4,11.2,10.6L308.3,289.1z"/>
	<path class="st11" d="M321.9,262.8c-0.2,0.8-1,1.3-1.8,1.1c-0.8-0.2-1.3-1-1.1-1.8c0.2-0.8,1-1.3,1.8-1.1l0,0
		C321.6,261.2,322.1,262,321.9,262.8z"/>
	<path class="st11" d="M324,259.6c-0.2,0.1-1.1-1-2.6-1.5s-2.9,0-3-0.3c-0.1-0.1,0.2-0.4,0.8-0.6c0.8-0.3,1.7-0.3,2.4,0
		c0.8,0.3,1.5,0.8,2,1.4C324,259.2,324.1,259.6,324,259.6z"/>
	<path class="st11" d="M306.6,258.6c-0.2,0.8-1,1.3-1.8,1.1s-1.3-1-1.1-1.8c0.2-0.8,1-1.3,1.8-1.1l0,0
		C306.3,257,306.8,257.8,306.6,258.6L306.6,258.6z"/>
	<path class="st11" d="M308.7,255.2c-0.2,0.1-1.1-1-2.6-1.5s-2.9,0-3-0.3c-0.1-0.1,0.2-0.4,0.8-0.6c1.6-0.5,3.5,0,4.5,1.4
		C308.8,254.7,308.8,255.1,308.7,255.2z"/>
	<path class="st11" d="M310.9,268.8c0.9,0,1.8,0.1,2.6,0.3c0.4,0.1,0.8,0.1,1-0.1c0.2-0.4,0.2-0.9,0.1-1.3c-0.1-1.1-0.2-2.3-0.3-3.5
		c-0.3-4.9-0.5-8.9-0.3-8.9s0.6,4,1,8.9c0.1,1.2,0.1,2.4,0.2,3.5c0.1,0.6,0,1.1-0.3,1.6c-0.2,0.2-0.5,0.4-0.8,0.4
		c-0.2,0-0.5,0-0.7-0.1C312.6,269.4,311.7,269.1,310.9,268.8z"/>
	<path class="st11" d="M310.9,249.1c-0.3,0.4-1.8-0.3-3.6-0.6s-3.5-0.3-3.6-0.7c-0.1-0.2,0.3-0.5,1-0.8c0.9-0.3,1.9-0.3,2.9-0.1
		s1.9,0.6,2.7,1.2C310.8,248.4,311.1,248.9,310.9,249.1z"/>
	<path class="st11" d="M324.8,254.8c-0.4,0.3-1.3-0.4-2.6-0.8c-1.3-0.4-2.4-0.5-2.6-0.9c-0.1-0.2,0.2-0.5,0.8-0.7
		c0.8-0.2,1.6-0.2,2.3,0.1c0.8,0.2,1.4,0.7,1.9,1.4C324.9,254.3,324.9,254.7,324.8,254.8z"/>
	<path class="st8" d="M291.5,255.8c-0.1-0.1-6.3-4.2-8.2,2.9c-1.9,7.2,5.5,7.6,5.6,7.4S291.5,255.8,291.5,255.8z"/>
	<path class="st4" d="M288.1,263c0,0-0.1,0.1-0.4,0.1s-0.6,0-0.9-0.2c-0.7-0.5-1-1.8-0.7-3.1c0.1-0.6,0.4-1.2,0.8-1.7
		c0.2-0.4,0.7-0.7,1.2-0.7c0.3,0,0.6,0.2,0.6,0.5c0,0.2,0,0.4,0,0.4s0.2-0.1,0.2-0.4c0-0.2,0-0.4-0.2-0.5c-0.1-0.2-0.4-0.3-0.6-0.4
		c-0.6,0-1.2,0.2-1.5,0.8c-0.5,0.5-0.8,1.2-0.9,1.9c-0.3,1.5,0,3,1,3.6c0.3,0.2,0.8,0.3,1.2,0.1C288.1,263.1,288.1,263,288.1,263z"
		/>
	<path class="st11" d="M302.1,236.1l28.5,9.5c-0.4-2.3-1.3-4.5-2.8-6.3c-2.8-4.1-6.9-7.2-11.6-8.8c-4.7-1.5-15.9,1.4-20.2,3.7
		c-3.5,1.8-4.1,4.1-4.1,4.1c-1.5,3.7-0.7,8.7-1,12.7c-0.1,2.1-1,8.2-1,8.2l0,0c1.6,0.5,2.5-0.6,2.8-2.3l1.4-6.4c0,0,6.5-2.3,6-10.3
		C300,239.5,299.9,236.6,302.1,236.1z"/>
	<path class="st11" d="M295.7,234.5c0.1-2.8,1.5-5.5,3.8-7.1s5.2-2.1,7.8-1.2c1.3,0.5,2.5,1.3,3.9,1.5c2.6,0.5,5.1-1,7.7-1.3
		c4.2-0.3,8.1,2.3,9.4,6.4c0.5,1.6,0.6,3.5,1.7,4.7c0.9,1.1,2.4,1.5,3.6,2.3c2.4,1.8,3.4,5,2.4,7.8s-3.5,4.8-6.5,5.1
		c-2.9,0.2-5.8-0.9-7.8-3c-1.8-1.9-3.1-4.6-5.6-5.3s-5.5,1.1-7.9-0.2c-1.2-0.7-2-2-2.6-3.3s-1.5-2.6-2.8-3.1s-2.6,1.2-2.4,2.6
		L295.7,234.5"/>
	<path class="st12" d="M331.1,241.6C331,241.7,331,241.7,331.1,241.6c-0.2,0.2-0.2,0.3-0.3,0.3c-0.3,0.3-0.7,0.5-1.2,0.8
		c-0.5,0.2-1.2,0.4-1.9,0.4c-0.9,0-1.8-0.2-2.7-0.6c-1-0.6-1.8-1.4-2.3-2.4c-0.4-1.2-0.8-2.5-1.1-3.7c-0.2-0.6-0.6-1.2-1-1.7
		c-0.5-0.5-1.1-0.8-1.8-1c-0.7-0.2-1.4-0.2-2.1-0.1c-0.7,0.2-1.4,0.5-1.9,1.1c-0.5,0.5-1,1.2-1.6,1.7s-1.4,0.8-2.2,0.6
		c-0.7-0.2-1.4-0.6-1.8-1.2c-0.5-0.5-0.8-1.1-1.1-1.8c-0.6-1.2-1.2-2.4-2.3-3c-0.9-0.5-2.1-0.6-3.1-0.2c-0.8,0.3-1.6,0.8-2.2,1.5
		c-0.4,0.5-0.8,1.1-1.1,1.7c-0.3,0.5-0.4,0.9-0.5,1.2c-0.1,0.1-0.1,0.3-0.2,0.4c0,0,0,0,0-0.1s0.1-0.2,0.1-0.3
		c0.1-0.4,0.3-0.8,0.5-1.2c0.3-0.6,0.7-1.2,1.1-1.8c0.6-0.7,1.3-1.3,2.2-1.6c1.1-0.4,2.3-0.4,3.3,0.2c1.1,0.6,1.7,1.9,2.4,3.1
		c0.3,0.6,0.7,1.2,1.1,1.7s1,0.9,1.7,1.1c0.7,0.1,1.4,0,1.9-0.5c0.6-0.5,1-1.1,1.6-1.7c0.5-0.6,1.2-1,2-1.2c2.3-0.6,4.6,0.8,5.2,3
		c0.4,1.3,0.6,2.6,1.1,3.7c0.5,1,1.2,1.8,2.2,2.4c0.8,0.5,1.7,0.7,2.5,0.7c0.7,0,1.3-0.2,2-0.4C330.1,242.3,330.6,242,331.1,241.6z"
		/>
	<path class="st12" d="M336.2,243.4c0,0.2,0,0.4,0,0.6c-0.1,0.5-0.3,1.1-0.6,1.5c-0.4,0.7-1,1.3-1.6,1.8c-0.8,0.5-1.8,0.9-2.8,1
		c-1.8,0.2-3.6-0.2-5.2-1c-0.5-0.2-1-0.5-1.4-0.8c-0.2-0.1-0.3-0.2-0.5-0.3c0,0,0.7,0.4,2,0.9c1.6,0.7,3.3,1,5.1,0.9
		c0.9-0.1,1.8-0.4,2.6-0.9c0.6-0.4,1.2-1,1.6-1.6C335.8,244.7,336.1,244.1,336.2,243.4z"/>
	<path class="st11" d="M306.2,272.3c0.3-0.1,0.8,1.6,2.5,2.4c1.7,0.8,3.5,0,3.6,0.2c0.1,0.3-0.3,0.4-1,0.7c-0.9,0.3-2.1,0.3-3-0.1
		c-0.9-0.4-1.6-1.1-2-2C306,272.8,306,272.3,306.2,272.3z"/>
	<path class="st8" d="M331.7,339.9c-4.3,2.3-5.9,7.6-3.6,11.9c0.1,0.1,0.1,0.2,0.2,0.3l18.5,40.3l7.9-4.1l-10-43.1
		C342.6,340,336.5,337.4,331.7,339.9z"/>
	<path class="st9" d="M309,314.9c0,0,9.4,24.5,12.1,24.7s18.7-12.2,18.7-12.2s-17.1-40.5-22.8-36C314.7,293.1,309,314.9,309,314.9z"
		/>
	<path class="st13" d="M333,495.3c-1.9-0.4-2.3-1.5-1-3.3l33.3-9.6c1.2-0.4,3.4,0.2,2.1,1.8L333,495.3z"/>
	<path class="st14" d="M365.3,482.5c-2.8-1.5-6-2.2-9.1-1.8c-5.4,0.6-2,6.8-2,6.8L365.3,482.5z"/>
	<path class="st13" d="M281.9,502.1c-1.8-0.6-2.2-1.7-0.6-3.4l34.1-6c1.2-0.3,3.3,0.5,1.9,2L281.9,502.1z"/>
	<path class="st14" d="M315.4,492.8c-2.6-1.8-5.7-2.8-8.9-2.8c-5.4,0-2.7,6.5-2.7,6.5L315.4,492.8z"/>
	<path class="st8" d="M213.5,397.3c0,0-5.2-2.3-5.8,4.9c-0.6,7.2,0,13.5,2.9,13.8s8.1,0.2,6.3-3.8c-1.7-4,4.3-4.4,3-8.5
		C218.6,399.6,213.5,397.3,213.5,397.3z"/>
	<path class="st8" d="M348.1,387.7c0.1,1-4.4,5.2,2,10.1c6.4,4.9,10.3,8.4,12.1,6c1.8-2.4,4.3-11.7-0.4-14.8
		C356.9,385.8,348.1,387.7,348.1,387.7z"/>
</g>
<g id="freepik--Plant--inject-2" transform="translate(7.200000, 0.000000)">
	<path id="Path_90_" class="st15" d="M504.8,477.9v-18h48v18c0,11.6-9.4,20.9-20.9,20.9h-6.1C514.2,498.9,504.8,489.5,504.8,477.9
		L504.8,477.9z"/>
	<path id="Path_91_" class="st15" d="M504.8,460c0.2,0.2,0.4,0.5,0.5,0.8l1.5,2.2l5.3,8.3l17.2,27.3l0.1,0.2H529l16.7-27.5l5.1-8.3
		l1.4-2.2c0.2-0.3,0.3-0.5,0.5-0.8c-0.1,0.3-0.3,0.6-0.4,0.8c-0.3,0.6-0.8,1.3-1.3,2.3l-5,8.4L529.5,499l-0.3,0.4L529,499l-0.1-0.2
		l-17.1-27.4l-5.1-8.3l-1.4-2.3C505.1,460.5,505,460.2,504.8,460L504.8,460z"/>
	<path id="Path_96_" class="st7" d="M507.9,460c0,0-21.5-24.8-19.1-25.7c2.4-0.9,21.5,12.9,21.5,12.9s-16.5-36.8-13.2-39.5
		c3.3-2.7,20.7,32.6,20.7,32.6s-2.7-51.5,0-52.1c2.7-0.6,12.5,51.5,12.5,51.5S545,392,549.2,392c4.2,0-4.5,45.8-4.5,45.8
		s17.3-29.3,20-25.4c2.7,3.9-12.3,35.6-12.3,35.6s21.8-18.3,22.7-15.9S551.5,460,551.5,460H507.9z"/>
	<path id="Path_97_" class="st15" d="M504.9,422.5c0.1-0.1,4,8.1,8.5,18.3c4.6,10.2,8.1,18.5,8,18.5c-0.2,0.1-4-8.1-8.5-18.3
		C508.3,430.9,504.7,422.6,504.9,422.5z"/>
	<path id="Path_98_" class="st15" d="M522.3,427.1c0.2,0,0.8,7.2,1.4,16.1c0.6,8.9,1,16.1,0.8,16.2c-0.2,0.1-0.8-7.2-1.4-16.1
		C522.5,434.3,522.1,427.1,522.3,427.1z"/>
	<path id="Path_99_" class="st15" d="M546.3,404.1c0,0.2-0.1,0.4-0.1,0.6c-0.1,0.4-0.3,1-0.5,1.6c-0.5,1.5-1.1,3.5-1.8,6
		c-1.5,5.1-3.6,12.1-5.7,19.9c-2.1,7.8-3.8,14.9-5,20.1l-1.4,6.1l-0.4,1.7c0,0.2-0.1,0.4-0.2,0.6c0-0.2,0-0.4,0.1-0.6
		c0.1-0.4,0.2-1,0.3-1.7c0.3-1.5,0.7-3.6,1.2-6.1c1.1-5.2,2.8-12.3,4.8-20.1c2.1-7.8,4.2-14.8,5.8-19.8c0.8-2.5,1.5-4.5,2-5.9
		c0.2-0.6,0.4-1.2,0.6-1.6C546.1,404.4,546.2,404.2,546.3,404.1z"/>
	<path id="Path_100_" class="st15" d="M556.6,430.6c0.1,0.1-4.1,6.4-9.4,14c-5.3,7.6-9.7,13.8-9.9,13.7c-0.1-0.1,4.1-6.4,9.4-14
		C552.1,436.6,556.5,430.5,556.6,430.6z"/>
	<path id="Path_101_" class="st15" d="M515.1,459.4c-0.7-0.4-1.3-0.8-1.9-1.3c-1.4-1.2-2.8-2.5-4.1-3.8c-1.3-1.3-2.5-2.7-3.7-4.2
		c-0.5-0.6-1-1.2-1.3-1.9c0.1-0.1,2.4,2.6,5.4,5.7C512.6,457,515.2,459.3,515.1,459.4z"/>
	<path id="Path_102_" class="st15" d="M528.2,449.6c0.2,0,0.5,2.3,0.8,5.1s0.3,5.2,0.2,5.2c-0.2,0-0.5-2.3-0.8-5.1
		C528.1,451.9,528.1,449.6,528.2,449.6z"/>
	<path id="Path_103_" class="st1" d="M552.8,471.2c-0.6,0.2-1.2,0.3-1.9,0.4c-1.2,0.2-2.9,0.5-5.1,0.8c-5.6,0.8-11.3,1.3-17,1.5
		c-5.7,0.2-11.4,0-17-0.7c-2.2-0.3-3.9-0.6-5.1-0.8c-0.6-0.1-1.2-0.2-1.8-0.4c0.6,0,1.3,0.1,1.9,0.2c1.2,0.2,2.9,0.4,5.1,0.6
		c5.6,0.6,11.3,0.7,16.9,0.5c6.6-0.2,12.6-0.8,16.9-1.3l5.1-0.6C551.5,471.2,552.2,471.2,552.8,471.2z"/>
	<path id="Path_104_" class="st1" d="M552.8,476.5c-0.6,0.2-1.2,0.3-1.9,0.4c-1.2,0.2-2.9,0.5-5.1,0.8c-5.6,0.8-11.3,1.3-17,1.5
		c-5.7,0.2-11.4,0-17-0.7c-2.2-0.3-3.9-0.6-5.1-0.8c-0.6-0.1-1.2-0.2-1.8-0.4c0.6,0,1.3,0.1,1.9,0.2c1.2,0.2,2.9,0.4,5.1,0.6
		c5.6,0.6,11.3,0.7,16.9,0.5c6.6-0.2,12.6-0.8,16.9-1.3l5.1-0.6C551.5,476.6,552.2,476.5,552.8,476.5L552.8,476.5z"/>
</g>
</svg>
