<?xml version="1.0" encoding="utf-8"?>
<!-- Generator: Adobe Illustrator 25.0.0, SVG Export Plug-In . SVG Version: 6.00 Build 0)  -->
<svg version="1.1" id="Layer_1" xmlns="http://www.w3.org/2000/svg" xmlns:xlink="http://www.w3.org/1999/xlink" x="0px" y="0px"
	 viewBox="0 0 300 300" style="enable-background:new 0 0 300 300;" xml:space="preserve">
<style type="text/css">
	.st0{opacity:8.000000e-02;fill:#E13856;enable-background:new    ;}
	.st1{fill:#6984A9;}
	.st2{fill:#A2CED9;}
	.st3{fill:#F0C8D9;}
	.st4{fill:#E393B4;}
	.st5{fill:#FFFFFF;}
	.st6{fill:#76A4AC;}
	.st7{fill:#814B22;}
	.st8{fill:#794620;}
	.st9{fill:#613515;}
	.st10{fill:#F6DF37;}
	.st11{fill:#E8A126;}
	.st12{fill:#A16637;}
	.st13{fill:#BB2141;}
	.st14{fill:#770B28;}
	.st15{fill:#233254;}
	.st16{fill:#DFBB88;}
	.st17{fill:#DC4460;}
	.st18{fill:#DBDBDB;}
	.st19{fill:#B4B4B4;}
	.st20{fill:#A2A1A0;}
	.st21{fill:#D4CFC9;}
	.st22{fill:#EDECEB;}
	.st23{opacity:0.2;fill:#5368E8;enable-background:new    ;}
	.st24{fill:#D8D5D0;}
	.st25{fill:#FBF377;}
	.st26{fill:#F1CC30;}
	.st27{fill:#F6DFEB;}
	.st28{fill:#ABA7A6;}
	.st29{fill:#7AD67B;}
	.st30{opacity:0.5;fill:#FFFFFF;enable-background:new    ;}
	.st31{fill:#DAD8D5;}
	.st32{fill:#A19E99;}
	.st33{fill:#EBEDF0;}
	.st34{fill:#807A76;}
	.st35{fill:#28366F;}
	.st36{fill:#C7D5FC;}
	.st37{fill:#90B2D7;}
</style>
<g>
	<g id="OBJECTS">
		<g id="Page-1">
			<g id="For-you-and-your-partner-Copy-4">
				<g id="Group-4">
					<circle id="Mask-Copy-2" class="st0" cx="150" cy="150" r="150"/>
				</g>
			</g>
		</g>
		<path class="st1" d="M263.8,174.6c0-2.6,0-5.2-0.1-7.9l-0.1-15.6c0-2.5,0-4.9-0.1-7.4c-0.1-2.3,0.3-5.9-2.8-8.6
			s-2.6-10.5-2.6-10.5h-16.2c0,0,0.4,8.9-1.9,10.5c-3.2,2.2-3.5,5.6-3.9,8.1c-0.3,2.8-0.4,5.6-0.3,8.4c0,5.9,0,11.9,0.2,17.8
			c0.1,2.9,0.1,5.9,0.3,8.8c0.1,2,0.4,4.4,1.7,5.7c0.9,0.8,2.1,1.2,3.3,1.1h4c2.8,0,12.2,0.2,13.9-0.3c1.8-0.6,3.3-1.9,3.9-3.7
			C263.7,178.9,264,176.7,263.8,174.6z"/>
		<path class="st2" d="M258.2,123.5h-16.6c-1,0-0.8,2.3,0.1,2.3h16.6C258.9,125.7,258.9,123.5,258.2,123.5z"/>
		<path class="st3" d="M259.6,113.2c0-1-0.6-2-1.5-2.4c-1.2-0.4-2.4-0.6-3.6-0.5c-2.7-0.1-5.4,0.1-8.1,0c-2-0.1-5.4,0-6,2.1
			c-0.4,1.5-0.3,8.6-0.3,10.6c0,0.4,0.3,0.6,0.7,0.6c0,0,0,0,0.1,0H259c0.5,0,0.8-0.2,0.8-0.7C260,119.7,260,116.5,259.6,113.2z"/>
		<path class="st4" d="M243.3,116.4c0-0.6,0.1-1.2-0.3-1.6c-0.2-0.2-0.6,0-0.8,0.6c-0.3,1.4-0.4,2.9-0.4,4.4c0,0.5-0.2,3.2,0.9,2.7
			c0.5-0.2,0.4-0.9,0.4-1.4c0.1-0.8,0.1-1.6,0.1-2.3C243.3,118,243.3,117.2,243.3,116.4z"/>
		<path class="st4" d="M246.1,116.4c0-0.6,0.1-1.2-0.4-1.6c-0.2-0.2-0.6,0-0.7,0.6c-0.2,1.4-0.3,2.9-0.2,4.4c0,0.5-0.1,3.2,0.9,2.7
			c0.5-0.2,0.4-0.9,0.4-1.3c0-0.8,0-1.6,0-2.3C246.2,118,246.2,117.2,246.1,116.4z"/>
		<path class="st4" d="M247.9,116.4c0-0.6,0-1.2,0.4-1.6c0.2-0.2,0.6,0,0.7,0.6c0.2,1.4,0.3,2.9,0.2,4.4c0,0.5,0.1,3.2-1,2.7
			c-0.5-0.2-0.4-0.9-0.4-1.3c0-0.8,0-1.6,0-2.3C247.8,118,247.8,117.2,247.9,116.4z"/>
		<path class="st4" d="M253.8,116.4c0-0.6-0.1-1.2,0.4-1.6c0.2-0.2,0.6,0,0.7,0.6c0.2,1.4,0.3,2.9,0.2,4.4c0,0.5,0.1,3.2-0.9,2.7
			c-0.5-0.2-0.4-0.9-0.4-1.3c0-0.8,0-1.6,0-2.3S253.7,117.2,253.8,116.4z"/>
		<path class="st4" d="M252,116.4c0-0.6,0.1-1.2-0.4-1.6c-0.2-0.2-0.6,0-0.7,0.6c-0.2,1.4-0.3,2.9-0.2,4.4c0,0.5-0.1,3.2,0.9,2.7
			c0.5-0.2,0.4-0.9,0.4-1.3c0-0.8,0-1.6,0-2.3C252.1,118,252.1,117.2,252,116.4z"/>
		<path class="st4" d="M256.7,120.8c0,0.6,0,1.2,0.4,1.6c0.2,0.2,0.6,0,0.7-0.6c0.2-1.4,0.3-2.9,0.2-4.4c0-0.5,0.1-3.2-1-2.7
			c-0.5,0.2-0.4,0.9-0.4,1.3c0,0.8,0,1.6,0,2.3S256.7,120,256.7,120.8z"/>
		<path class="st5" d="M262.1,149.6c-0.2-1.3-1.4-2.3-2.8-2.2c-1.5-0.1-3.1,0-4.7,0h-12.3c-0.8-0.1-1.6-0.1-2.4,0
			c-0.8,0-1.5,0.4-2,1.1c-0.3,0.6-0.5,1.4-0.4,2.1c0,0.1,0,0.1,0,0.2c-0.2,2.6-0.2,5.2-0.1,7.9c0.1,0.8,0.1,1.6,0.2,2.3
			c0,0.8,0.2,1.5,0.4,2.2c0.5,1.2,1.5,2.1,2.8,2.2c1.4,0.2,2.8,0.2,4.2,0.2h9.6c1.5,0.1,2.9,0.1,4.4,0c1.3-0.1,2.4-1.1,2.7-2.4
			c0.2-1.5,0.2-2.9,0.1-4.4c0-1.6,0-3.2,0.1-4.7c0-0.8,0-1.5,0-2.3C262.1,151,262.2,150.3,262.1,149.6z"/>
		<path class="st6" d="M261,180.1c0.1-1,0.1-1.9,0-2.9c-0.1-0.4-0.6-0.3-0.7,0c-0.1,0.1-0.2,0.2-0.2,0.3c-0.2,1.1-0.4,2.2-0.5,3.4
			c0,0.5,0.1,1.2,0.7,1S260.9,180.6,261,180.1z"/>
		<path class="st6" d="M262,169.1c0-1-0.3-2-0.6-2.9c-0.2-0.5-0.8-0.2-0.8,0.3s0,0.7,0,1l0,1.5c-0.1,0.6-0.1,1.2-0.1,1.7
			c0.1,0.6,0.6,1,1.1,0.6S262.1,169.8,262,169.1z"/>
		<path class="st6" d="M257.7,172.3v-0.1c0.1-0.2,0-0.5-0.2-0.6c-0.2-0.1-0.5,0-0.6,0.2c0,0,0,0.1,0,0.1c-0.5,1.8-0.6,3.7-0.2,5.5
			c0,0.2,0.3,0.4,0.5,0.4c0.2,0,0.3-0.2,0.4-0.4C257.9,175.7,258,174,257.7,172.3z"/>
		<path class="st6" d="M259.4,137.4c-0.2-0.3-0.5-0.4-0.9-0.3c-0.1,0.1-0.2,0.1-0.3,0.3c-0.2,0.1-0.3,0.4-0.3,0.7l1.6,7
			c0.2,0.8,1.2,0.5,1.3-0.2C261.2,142.3,260.7,139.7,259.4,137.4z"/>
		<path class="st6" d="M257,134.4c-0.4-1.3-0.9-2.6-1.3-3.9c-0.1-0.3-0.4-0.5-0.8-0.5c-0.3,0.1-0.5,0.3-0.5,0.6
			c0,1.5,0.4,2.9,1.2,4.2c0.1,0.2,0.4,0.4,0.6,0.3C256.7,135.3,257.2,135,257,134.4z"/>
		<path class="st7" d="M99.6,230.6c0-3.2-0.1-6.3-0.1-9.5c-0.1-6.3-0.1-12.5-0.2-18.8c0-3,0-5.9-0.2-8.9c-0.1-2.5-0.9-4.9-2.2-7
			c-1.5-2.5-3.7-4.4-5.5-6.7c-3.6-4.1-2.2-10.3-2.6-10.3c-5.3-0.1-11.6,0.1-17,0c-0.8,0,0.8,4.8-2,9.1c-1.6,2.4-3.8,4.3-5.7,6.4
			c-2,2.2-3.4,4.9-4,7.8c-0.4,3.3-0.6,6.7-0.5,10.1c-0.1,7.2,0,14.4,0.2,21.5c0.1,3.5,0.2,7.1,0.4,10.6c0.2,2.4,0.5,5.2,2.5,6.9
			c1.4,1,3,1.5,4.7,1.3c1.9,0,3.8,0,5.7,0c4,0,17.4,0.3,19.8-0.4c2.4-0.6,4.5-2.2,5.6-4.4C99.7,236,99.6,233.2,99.6,230.6z"/>
		<path class="st8" d="M93,242.8c2.4-0.6,4.5-2.2,5.6-4.4c1.1-2.4,1.1-5.1,1-7.8c0-3.2-0.1-6.3-0.1-9.5c-0.1-6.3-0.1-12.5-0.2-18.8
			c0-3,0-5.9-0.2-8.9c-0.1-2.5-0.9-4.9-2.2-7c-1.5-2.5-3.7-4.4-5.5-6.7c-3.6-4.1-2.2-10.3-2.6-10.3c-5.3-0.1-11.6,0.1-17,0
			c-0.8,0,0.6,4.4-1.6,8.4c5.2-2.8,11.6-1.9,15.9,2.2c2.8,2.7,4.1,6.4,4.9,10.1c0.9,4.3,1.5,8.6,1.8,13c0.4,4.6,0.6,9.2,0.5,13.8
			c0,4,0.1,8.5-1.4,12.3c-2.9,7-12.8,8.3-19.3,7c-4.8-1-9.2-3.5-12.5-7.2c0.1,2,0.2,4,0.3,6.1c0.2,2.4,0.5,5.2,2.5,6.9
			c1.4,1,3,1.5,4.7,1.3c1.9,0,3.8,0,5.7,0C77.1,243.1,90.5,243.4,93,242.8z"/>
		<path class="st9" d="M88.8,169.1H71.5c-1,0-0.9,2.2,0.1,2.2h17.3C89.6,171.3,89.7,169.1,88.8,169.1z"/>
		<path class="st10" d="M90.4,160.4c0-0.9-0.7-1.7-1.6-2c-1.2-0.3-2.5-0.5-3.8-0.4c-2.8-0.1-5.6,0.1-8.5,0c-2.1-0.1-5.6,0-6.3,1.8
			c-0.5,1.2-0.3,7.3-0.4,8.9c0,0.2,0.2,0.5,0.8,0.5h19c0.6,0,0.8-0.2,0.9-0.6C90.8,165.9,90.7,163.1,90.4,160.4z"/>
		<path class="st11" d="M73.3,162.1c0-0.5,0.1-1.2-0.3-1.6c-0.2-0.2-0.7,0-0.8,0.5c-0.3,1.4-0.4,2.9-0.4,4.3c0,0.5-0.3,3.1,0.9,2.7
			c0.5-0.2,0.4-0.9,0.5-1.3c0.1-0.8,0.1-1.5,0.1-2.3S73.3,162.9,73.3,162.1z"/>
		<path class="st11" d="M76.3,162.1c0-0.5,0-1.2-0.4-1.6c-0.2-0.2-0.7,0.1-0.8,0.6c-0.2,1.4-0.3,2.9-0.2,4.3c0,0.5-0.1,3.1,1,2.7
			c0.5-0.2,0.4-0.9,0.4-1.3c0-0.8,0-1.5,0-2.3S76.3,162.9,76.3,162.1z"/>
		<path class="st11" d="M78.1,162.1c0-0.5-0.1-1.2,0.4-1.6c0.2-0.2,0.7,0.1,0.8,0.6c0.2,1.4,0.3,2.9,0.2,4.3c0,0.5,0.1,3.1-1,2.7
			c-0.5-0.2-0.4-0.9-0.4-1.3c0-0.8-0.1-1.5,0-2.3S78,162.9,78.1,162.1z"/>
		<path class="st11" d="M84.2,162.1c0-0.5,0-1.2,0.4-1.6c0.2-0.2,0.7,0.1,0.8,0.6c0.2,1.4,0.3,2.9,0.2,4.3c0,0.5,0.1,3.1-1,2.7
			c-0.5-0.2-0.4-0.9-0.4-1.3c0-0.8,0-1.5,0-2.3S84.2,162.9,84.2,162.1z"/>
		<path class="st11" d="M82.4,162.1c0-0.5,0.1-1.2-0.4-1.6c-0.2-0.2-0.7,0.1-0.8,0.6c-0.2,1.4-0.3,2.9-0.2,4.3c0,0.5-0.1,3.1,1,2.7
			c0.5-0.2,0.4-0.9,0.4-1.3c0-0.8,0.1-1.5,0-2.3S82.5,162.9,82.4,162.1z"/>
		<path class="st11" d="M87.3,166.4c0,0.5,0,1.2,0.4,1.6c0.2,0.2,0.7,0,0.8-0.5c0.2-1.4,0.3-2.9,0.2-4.3c0-0.5,0.2-3.1-1-2.7
			c-0.5,0.2-0.4,0.9-0.4,1.3c0,0.8,0,1.5,0,2.3S87.3,165.7,87.3,166.4z"/>
		<path class="st5" d="M96.3,200.2c-0.3-2-1.8-2.9-3.8-3c-2.1-0.1-4.2,0-6.4,0H69.5c-1.1,0-2.2,0-3.3,0.1c-1.1,0.1-2.1,0.6-2.7,1.5
			c-0.5,0.9-0.6,1.9-0.5,2.9c0,0.1,0,0.2,0,0.3c-0.3,3.6-0.3,7.1-0.1,10.7c0.1,1.1,0.2,2.1,0.3,3.2c0.1,1,0.2,2,0.5,3
			c0.6,1.6,2.1,2.8,3.8,3.1c1.9,0.2,3.8,0.3,5.7,0.2h6.6h6.6c2,0.1,4,0.1,6-0.1c1.8-0.1,3.3-1.4,3.6-3.2c0.2-2,0.3-4,0.2-6l0.1-6.4
			c0-1,0-2.1,0-3.1C96.4,202.3,96.4,201.3,96.3,200.2z"/>
		<path class="st12" d="M88.7,181.8c-0.3-1.3-0.8-2.6-1.4-3.8c-0.1-0.2-0.2-0.2-0.4-0.2c-0.3-0.3-0.7,0-0.6,0.4l0.8,4.4
			c0.2,0.8,0.4,2.5,1.5,2S88.9,182.5,88.7,181.8z"/>
		<path class="st12" d="M94.1,191.8c-0.2-1.1-0.5-2.2-0.9-3.2c0-0.2-0.2-0.3-0.4-0.2c0,0,0,0-0.1,0c-0.2,0-0.3,0.1-0.3,0.4
			c0,0.8-0.2,6,1.4,5.1C94.5,193.6,94.2,192.4,94.1,191.8z"/>
		<path class="st12" d="M86.2,188.8c-0.1-0.9-0.3-1.8-0.7-2.7c-0.2-0.4-0.6-0.2-0.7,0.2c-0.1,0.1-0.2,0.2-0.1,0.3
			c0.1,1.1,0.2,2.2,0.3,3.3c0.1,0.5,0.3,1.1,0.9,0.8S86.2,189.4,86.2,188.8z"/>
		<path class="st12" d="M95.5,236.6c0.1-0.9,0.1-1.9,0-2.8c-0.1-0.4-0.6-0.3-0.7,0c-0.1,0.1-0.2,0.2-0.2,0.3
			c-0.2,1.1-0.3,2.2-0.4,3.3c0,0.5,0.1,1.2,0.7,1S95.4,237.1,95.5,236.6z"/>
		<path class="st12" d="M96.5,225.8c0-1-0.3-1.9-0.6-2.8c-0.2-0.5-0.8-0.2-0.8,0.2s0,0.7,0,1l-0.1,1.5c-0.1,0.6-0.1,1.1-0.1,1.7
			c0.1,0.6,0.6,1,1.1,0.6S96.5,226.5,96.5,225.8z"/>
		<path class="st12" d="M92.3,228.9v-0.1c0.1-0.2,0-0.5-0.3-0.6c-0.2-0.1-0.5,0-0.6,0.3c0,0,0,0,0,0c-0.5,1.8-0.6,3.6-0.2,5.4
			c0,0.2,0.3,0.4,0.5,0.4c0.2,0,0.3-0.2,0.4-0.4C92.4,232.3,92.5,230.6,92.3,228.9z"/>
		<path class="st13" d="M135,115c-2.8-0.4-6.4,0.4-6,2.7c0.8,5.8-1.4,11.2-4.1,16c-3,5.2-4.1,21.1-2,26.8
			c5.2,14.2,34.5-7.5,37.2-14.1c0.3-0.8-9.4-9.7-13.8-13.4c-3.8-3.1-8.8-7.5-5-14C142.4,117,137.6,115.3,135,115z"/>
		<path class="st14" d="M130.3,116.7c-0.7,1.5,9.6,2.4,9.2,1c-0.2-0.7-2.7-1.6-4.9-1.8S130.5,116.4,130.3,116.7z"/>
		<path class="st1" d="M181.1,104.3c1.3-1-1.2-7.6-4.2-6.6c-2.6,0.9-4.9,3.6-6.8,5.5c-3.8,4.1-6.7,8.9-8.6,14.1h-1
			c0-4.7,0.1-14.8,0.1-19.5c0-3.6-8.7-3.5-9.1-1.9c-0.5,2.3,2.1,18.2,1.9,23.2c-3.5-7.3-12.4-16.8-15.8-18.3c-5.4-2.3-7.9,8-4.9,8.7
			c6.7,1.5,11.8,6.8,13.2,13.4c-4.3,3.5-7.6,8.1-9.6,13.2c-2.8,7-3.3,14.7-2.5,22.1c0.1,1.1,1,2,2.1,1.9c0.1,0,0.2,0,0.3,0
			c6.6-1,13.1-2.6,19.4-4.6c1-0.4,1.6-1.5,1.2-2.5c0.3-0.4,0.4-1,0.3-1.5c-1.3-6.2-2.8-14,2.1-19.1c2.9-3.1,7.8-3.2,10.9-0.3
			c1.4,1.3,2.2,3.1,2.4,5c0.1,1.1,1,2,2.1,1.9c0.1,0,0.2,0,0.3,0l6.1-1.1c0.8-0.2,1.4-1,1.4-1.8c-0.3-8.3-5.9-14.9-13.2-17.6
			C172,112.3,175.7,108.5,181.1,104.3z"/>
		<path class="st13" d="M203.5,130.6c-0.7-2.1-2.6-4.4-4.1-3.3c-3.8,2.6-8.4,3-12.9,2.7c-4.8-0.3-9.6-0.7-14.1,0.9
			c-0.4,0.1-0.8,0.5-0.9,0.9c-0.2,0.3-0.3,0.6-0.3,1c0.3,6.6,0.9,13.8,4.8,19.4c3.1,4.6,8.3,7.8,13.9,7.4c0.6,0,3.6-10.1,4.6-14.6
			c0.9-3.8,2.3-8.9,8.3-8.5C204.7,136.7,204.2,132.6,203.5,130.6z"/>
		<path class="st15" d="M152.9,96.4c0,1.2,6.8,1.3,6.3,0.2S152.8,95.4,152.9,96.4z"/>
		<path class="st15" d="M132.5,107.7c1,0.8,4.3-6,3-6c-0.6,0-1.8,1-2.4,2.6S132.3,107.5,132.5,107.7z"/>
		<path class="st15" d="M178,98.5c-0.9,0.4,2.3,5.6,2.8,4.6S178.4,98.3,178,98.5z"/>
		<path class="st14" d="M200.6,127.9c-1.3,0,1.6,7.7,2.5,6.9c0.4-0.4,0.2-2.5-0.5-4.1S200.9,127.9,200.6,127.9z"/>
		<path class="st16" d="M152.8,132.5c-6.3-4.1-15.4-1.6-21.6,2.6c-6.3,4.3-10,11.4-10.1,19.1c-0.1,6.3,2.8,17.7,11.1,16.4
			c3.9-0.6,7.4-3.5,10.4-6c3-2.6,5.8-5.5,8.1-8.8c2.7-3.7,4.8-7.9,6.3-12.3C158.2,139.4,156.5,134.8,152.8,132.5z"/>
		<path class="st17" d="M199,120.4c-0.9-2.8-5.2-7.2-7.7-8.4c-0.8-0.4-1.6-0.6-3.3,1.1c-11.2,11.9-27,15.4-40.7,21.3
			c-13.3,5.7-24.1,18.1-24.4,33.1c-0.1,7.9,3,15.3,7.1,21.9c4.6,7.3,10,14,15.2,20.9c4.2,5.6,8.5,12.8,16.3,13.2s13.7-5.2,17.6-11.2
			c2.4-3.8,4.4-7.9,6.7-11.7c2.5-3.9,4.7-8,6.4-12.3c2.2-5.9,2-12.4,2.2-17s-0.4-9.5-0.9-13.9c-0.3-2.9-1.1-5.6-2.5-8.1
			c-1.5-2.9-4-5.4-4.9-8.6s0.2-6.4,2-8.9c2-2.6,4.4-4.8,7.2-6.7C197.6,123.5,199.9,123.2,199,120.4z"/>
		<path class="st14" d="M191.1,113.5c-1.7,0.8,5.6,9.1,6.3,7.5S191.9,113.1,191.1,113.5z"/>
		<path class="st18" d="M178.8,251.5c0.1,3.1,19.3,20.6,21.8,20.9s54.9-54.3,55.3-57.5s-17.2-21.4-21.8-20.9
			S178.6,248.3,178.8,251.5z"/>
		<path class="st19" d="M192.4,259.4l52.1-54.2c0.7-0.7,0.1-1.4-0.6-0.6c-6.4,6.6-45.8,47.6-52.1,54.2
			C191,259.5,191.7,260.1,192.4,259.4z"/>
		<path class="st20" d="M198.1,261.2c0.4-0.4,0.9-0.7,1.4-1c0.2-0.2,0-1.1,0.4-1.7c0.8-1,2.2-0.5,2.9,0.2c1.5,1.5,1.6,4.8,1,5.4
			s-3.9,0.8-5.7-0.6C197.2,262.8,197.3,262,198.1,261.2z"/>
		<path class="st5" d="M197.5,260.9c0.6-0.6,1.1-0.7,1.4-1s0.5-0.9,0.9-1.5c0.6-0.8,1.6-0.6,2.4,0c1.8,1.3,1.6,4.8,1,5.4
			s-3.4,1-5.2-0.5c-0.8-0.4-1.1-1.4-0.7-2.2C197.4,261.1,197.4,261,197.5,260.9z"/>
		<g>
			<path class="st21" d="M200.6,263.7c0-0.1,0-0.1,0-0.2c0,0,0,0,0,0l1.4-0.2c0.1,0,0.6,0,0.4,0.2s-0.6,0.3-0.8,0.3
				C201.4,263.9,201,263.8,200.6,263.7C200.7,263.7,200.6,263.7,200.6,263.7z"/>
			<path class="st21" d="M198.9,262.9L198.9,262.9c0.3,0.1,0.6,0.2,0.9,0.4s0.2,0.2,0.2,0.3c0,0-0.1,0.1-0.1,0.1c0,0,0,0,0,0
				c-0.4-0.1-0.8-0.3-1.1-0.6C198.7,263,198.8,262.8,198.9,262.9z"/>
			<path class="st21" d="M200.1,262.4c0.4,0,0.8,0.1,1.1,0.2c0.1,0,0,0.2,0,0.2c-0.3,0-0.7,0-1-0.2l0,0c-0.1,0-0.1,0-0.2-0.1
				C200,262.5,200,262.4,200.1,262.4L200.1,262.4z"/>
		</g>
		<path class="st20" d="M207.1,251.9c0.4-0.4,0.9-0.7,1.4-1c0.2-0.2,0-1.1,0.4-1.7c0.8-1,2.2-0.5,2.9,0.2c1.6,1.6,1.6,4.9,1,5.4
			s-3.9,0.8-5.7-0.6C206.1,253.5,206.3,252.7,207.1,251.9z"/>
		<path class="st5" d="M206.5,251.6c0.4-0.4,0.9-0.7,1.4-1c0.2-0.2,0.5-0.9,0.9-1.5c0.6-0.8,1.6-0.6,2.4,0c1.8,1.3,1.6,4.9,1,5.4
			s-3.4,1-5.2-0.5c-0.8-0.4-1.1-1.4-0.6-2.2C206.3,251.8,206.4,251.7,206.5,251.6z"/>
		<g>
			<path class="st21" d="M209.6,254.3c0-0.1,0-0.1,0-0.1c0,0,0,0,0,0l1.4-0.2c0.1,0,0.6-0.1,0.4,0.2s-0.6,0.3-0.8,0.3
				C210.3,254.6,210,254.5,209.6,254.3C209.6,254.4,209.6,254.4,209.6,254.3z"/>
			<path class="st21" d="M207.8,253.5L207.8,253.5c0.3,0.1,0.6,0.2,0.9,0.4s0.2,0.2,0.2,0.3c0,0.1-0.1,0.1-0.1,0.1c0,0,0,0,0,0
				c-0.4-0.1-0.8-0.3-1.1-0.6c0,0,0-0.1,0-0.2S207.8,253.5,207.8,253.5z"/>
			<path class="st21" d="M209.1,253.1c0.4,0,0.8,0.1,1.1,0.2c0,0,0.1,0,0.1,0.1c0,0,0,0.1-0.1,0.1c-0.3,0-0.7,0-1-0.2l0,0
				C208.9,253.2,209,253.1,209.1,253.1z"/>
		</g>
		<path class="st20" d="M216,242.5c0.6-0.6,1.1-0.7,1.4-1s0-1.1,0.4-1.7c0.8-1,2.1-0.5,2.9,0.2c1.5,1.6,1.6,4.8,1,5.4
			s-3.9,0.8-5.7-0.6C215.1,244.2,215.2,243.4,216,242.5z"/>
		<path class="st5" d="M215.4,242.3c0.4-0.4,0.9-0.7,1.4-1c0.2-0.2,0.5-0.9,0.9-1.5c0.6-0.8,1.6-0.6,2.4,0c1.8,1.3,1.6,4.8,1,5.4
			s-3.4,1-5.2-0.5c-0.8-0.4-1.1-1.4-0.6-2.2C215.3,242.5,215.4,242.4,215.4,242.3z"/>
		<g>
			<path class="st21" d="M218.6,245c0-0.1,0-0.1,0.1-0.2c0,0,0,0,0,0l1.4-0.2c0.1,0,0.6,0,0.4,0.2s-0.6,0.3-0.8,0.3
				C219.3,245.2,218.9,245.2,218.6,245C218.6,245,218.6,245.1,218.6,245z"/>
			<path class="st21" d="M216.8,244.2L216.8,244.2c0.3,0.1,0.6,0.2,0.9,0.4c0.1,0,0.2,0.2,0.2,0.3c0,0-0.1,0.1-0.1,0.1
				c-0.4-0.1-0.8-0.3-1.1-0.6C216.6,244.3,216.7,244.2,216.8,244.2z"/>
			<path class="st21" d="M218,243.7c0.4,0,0.7,0.1,1.1,0.2c0.1,0,0.1,0.1,0.1,0.1c0,0,0,0.1-0.1,0.1c-0.3,0-0.7,0-1-0.2l0,0
				c-0.1,0-0.1,0-0.2-0.1C217.9,243.8,217.9,243.8,218,243.7z"/>
		</g>
		<path class="st20" d="M225,233.2c0.6-0.6,1.1-0.7,1.4-1s0-1.1,0.4-1.7c0.8-1,2.2-0.5,2.9,0.2c1.5,1.6,1.6,4.9,1,5.4
			s-3.9,0.8-5.8-0.6C224.1,234.9,224.2,234.1,225,233.2z"/>
		<path class="st5" d="M224.4,233c0.6-0.6,1.1-0.7,1.4-1s0.5-0.9,0.9-1.5c0.6-0.8,1.6-0.6,2.4,0c1.8,1.3,1.6,4.8,1,5.4
			s-3.4,1-5.2-0.5c-0.8-0.4-1.1-1.4-0.6-2.2C224.3,233.2,224.3,233.1,224.4,233z"/>
		<g>
			<path class="st21" d="M227.5,235.7c0-0.1,0-0.1,0-0.1c0,0,0,0,0,0l1.4-0.2c0.1,0,0.6-0.1,0.4,0.2s-0.6,0.3-0.8,0.3
				C228.2,235.9,227.9,235.9,227.5,235.7C227.5,235.8,227.5,235.7,227.5,235.7z"/>
			<path class="st21" d="M225.8,234.9L225.8,234.9c0.3,0.1,0.6,0.2,0.9,0.4c0.1,0,0.2,0.2,0.2,0.3c0,0.1-0.1,0.1-0.1,0.1
				c-0.4-0.1-0.8-0.3-1.1-0.6C225.6,235,225.6,235,225.8,234.9C225.7,234.9,225.7,234.9,225.8,234.9z"/>
			<path class="st21" d="M227,234.4c0.4,0,0.8,0.1,1.1,0.2c0.1,0,0.1,0.1,0.1,0.1c0,0,0,0.1-0.1,0.1c-0.3,0-0.7,0-1-0.2l0,0
				c-0.1,0-0.1,0-0.2-0.1C226.9,234.5,226.9,234.4,227,234.4z"/>
		</g>
		<path class="st20" d="M233.9,223.9c0.6-0.6,1.1-0.7,1.4-1s0-1.1,0.4-1.7c0.8-1,2.2-0.5,2.9,0.2c1.5,1.6,1.6,4.8,1,5.4
			s-3.9,0.8-5.7-0.6C233,225.6,233.2,224.8,233.9,223.9z"/>
		<path class="st5" d="M233.4,223.7c0.4-0.4,0.9-0.7,1.4-1c0.2-0.2,0.5-0.9,0.9-1.5c0.6-0.8,1.6-0.6,2.4,0c1.8,1.3,1.6,4.9,1,5.4
			s-3.4,1-5.2-0.5c-0.8-0.4-1.1-1.4-0.7-2.2C233.2,223.9,233.3,223.8,233.4,223.7z"/>
		<g>
			<path class="st21" d="M236.5,226.4c0-0.1,0-0.1,0-0.2c0,0,0,0,0,0l1.4-0.2c0.1,0,0.6-0.1,0.4,0.2s-0.6,0.3-0.8,0.3
				C237.2,226.6,236.8,226.6,236.5,226.4C236.5,226.4,236.5,226.4,236.5,226.4z"/>
			<path class="st21" d="M234.7,225.6L234.7,225.6c0.3,0.1,0.6,0.2,0.9,0.4c0.1,0,0.2,0.2,0.2,0.3c0,0.1-0.1,0.1-0.1,0.1
				c-0.4-0.1-0.8-0.3-1.1-0.6c0,0,0-0.1,0-0.2S234.7,225.5,234.7,225.6z"/>
			<path class="st21" d="M235.9,225.1c0.4,0,0.8,0.1,1.1,0.2c0,0,0.1,0.1,0,0.1c0,0,0,0-0.1,0c-0.3,0-0.7,0-1-0.2l0,0
				c-0.1,0-0.1,0-0.1-0.1S235.9,225.1,235.9,225.1z"/>
		</g>
		<path class="st20" d="M242.9,214.6c0.4-0.4,0.9-0.7,1.4-1c0.2-0.2,0-1.1,0.4-1.7c0.8-1,2.2-0.5,2.9,0.2c1.6,1.6,1.6,4.8,1,5.4
			s-3.9,0.8-5.7-0.6C242,216.2,242.1,215.4,242.9,214.6z"/>
		<path class="st5" d="M242.3,214.4c0.6-0.6,1.1-0.7,1.4-1s0.5-0.9,0.9-1.5c0.6-0.8,1.6-0.6,2.4,0c1.8,1.3,1.6,4.8,1,5.4
			s-3.4,1-5.2-0.5c-0.8-0.4-1.1-1.4-0.6-2.2C242.2,214.5,242.2,214.4,242.3,214.4z"/>
		<g>
			<path class="st21" d="M245.4,217.1c0-0.1,0-0.1,0.1-0.2c0,0,0,0,0,0l1.4-0.2c0.1,0,0.6-0.1,0.4,0.2s-0.6,0.3-0.8,0.3
				C246.1,217.3,245.8,217.3,245.4,217.1C245.5,217.1,245.4,217.1,245.4,217.1z"/>
			<path class="st21" d="M243.7,216.3L243.7,216.3c0.3,0.1,0.6,0.2,0.9,0.4s0.2,0.2,0.2,0.3c0,0-0.1,0.1-0.1,0.1c0,0,0,0,0,0
				c-0.4-0.1-0.8-0.3-1.1-0.6C243.5,216.4,243.6,216.2,243.7,216.3z"/>
			<path class="st21" d="M244.9,215.8c0.4,0,0.8,0,1.1,0.2c0.1,0,0.1,0.1,0.1,0.1c0,0,0,0.1-0.1,0.1c-0.3,0-0.7,0-1-0.2l0,0
				c-0.1,0-0.1,0-0.2-0.1C244.8,215.9,244.8,215.8,244.9,215.8z"/>
		</g>
		<path class="st20" d="M185.8,249.3c0.6-0.6,1.1-0.7,1.4-1s0-1.1,0.4-1.7c0.8-1,2.1-0.5,2.9,0.2c1.5,1.6,1.6,4.8,1,5.4
			s-3.9,0.8-5.8-0.6C184.9,251,185,250.2,185.8,249.3z"/>
		<path class="st5" d="M185.2,249.1c0.4-0.4,0.9-0.7,1.4-1c0.2-0.2,0.5-0.9,0.9-1.5c0.6-0.8,1.6-0.6,2.4,0c1.8,1.3,1.6,4.8,1,5.4
			s-3.4,1-5.2-0.5c-0.8-0.4-1.1-1.4-0.6-2.2C185,249.3,185.1,249.2,185.2,249.1z"/>
		<g>
			<path class="st21" d="M188.3,251.8c0-0.1,0-0.1,0-0.2c0,0,0,0,0,0l1.4-0.2c0.1,0,0.6-0.1,0.4,0.2s-0.6,0.3-0.8,0.3
				C189,252,188.7,252,188.3,251.8C188.3,251.8,188.3,251.8,188.3,251.8z"/>
			<path class="st21" d="M186.6,251L186.6,251c0.3,0.1,0.6,0.2,0.9,0.4c0.1,0,0.2,0.2,0.2,0.3c0,0.1-0.1,0.1-0.1,0.1
				c-0.4-0.1-0.8-0.3-1.1-0.6C186.4,251.1,186.5,251,186.6,251z"/>
			<path class="st21" d="M187.8,250.5c0.4,0,0.8,0.1,1.1,0.2c0.1,0.1,0,0.2-0.1,0.2c-0.3,0-0.7,0-1-0.2l0,0c-0.1,0-0.1,0-0.1-0.1
				C187.7,250.6,187.7,250.5,187.8,250.5z"/>
		</g>
		<path class="st20" d="M194.7,240c0.4-0.4,0.9-0.7,1.4-1c0.2-0.2,0-1.1,0.4-1.7c0.8-1,2.2-0.5,2.9,0.2c1.5,1.6,1.6,4.9,1,5.4
			s-3.9,0.8-5.7-0.6C193.8,241.7,194,240.9,194.7,240z"/>
		<path class="st5" d="M194.1,239.8c0.6-0.6,1.1-0.7,1.4-1s0.5-0.9,0.9-1.5c0.6-0.8,1.6-0.6,2.4,0c1.8,1.3,1.6,4.8,1,5.4
			s-3.4,1-5.2-0.5c-0.8-0.4-1.1-1.4-0.6-2.2C194,239.9,194.1,239.8,194.1,239.8z"/>
		<g>
			<path class="st21" d="M197.3,242.5c0,0,0-0.1,0-0.1c0,0,0,0,0.1,0l1.4-0.2c0.1,0,0.6-0.1,0.4,0.2s-0.6,0.3-0.8,0.3
				C198,242.7,197.6,242.7,197.3,242.5C197.3,242.5,197.3,242.5,197.3,242.5z"/>
			<path class="st21" d="M195.5,241.7L195.5,241.7c0.3,0.1,0.6,0.2,0.9,0.4c0.1,0.1,0.2,0.2,0.2,0.3s-0.1,0.1-0.1,0.1
				c-0.4-0.1-0.8-0.3-1.1-0.6C195.4,241.8,195.4,241.7,195.5,241.7C195.4,241.7,195.5,241.7,195.5,241.7z"/>
			<path class="st21" d="M196.7,241.2c0.4,0,0.8,0.1,1.1,0.2c0.1,0.1,0,0.2-0.1,0.2c-0.3,0-0.7,0-1-0.2l0,0c-0.1,0-0.1,0-0.1-0.1
				S196.7,241.2,196.7,241.2z"/>
		</g>
		<path class="st20" d="M203.7,230.7c0.4-0.4,0.9-0.7,1.4-1c0.2-0.2,0-1.1,0.4-1.7c0.8-1,2.2-0.5,2.9,0.2c1.6,1.6,1.6,4.8,1,5.4
			s-3.9,0.8-5.7-0.6C202.8,232.4,202.9,231.5,203.7,230.7z"/>
		<path class="st5" d="M203.1,230.4c0.4-0.4,0.9-0.7,1.4-1c0.2-0.2,0.5-0.9,0.9-1.5c0.6-0.8,1.6-0.6,2.4,0c1.8,1.3,1.6,4.9,1,5.4
			s-3.4,1-5.2-0.5c-0.8-0.4-1.1-1.4-0.7-2.2C203,230.6,203,230.5,203.1,230.4z"/>
		<g>
			<path class="st21" d="M206.2,233.2c0-0.1,0-0.1,0-0.2c0,0,0,0,0,0l1.4-0.2c0.1,0,0.6-0.1,0.4,0.2s-0.6,0.3-0.8,0.3
				C206.9,233.4,206.6,233.4,206.2,233.2C206.3,233.2,206.2,233.2,206.2,233.2z"/>
			<path class="st21" d="M204.5,232.4L204.5,232.4c0.3,0.1,0.6,0.2,0.9,0.4c0.1,0,0.2,0.2,0.2,0.3c0,0.1-0.1,0.1-0.1,0.1
				c-0.4-0.1-0.8-0.3-1.1-0.6C204.3,232.5,204.3,232.4,204.5,232.4C204.4,232.4,204.4,232.4,204.5,232.4z"/>
			<path class="st21" d="M205.7,231.9c0.4,0,0.8,0.1,1.1,0.2c0,0,0.1,0,0.1,0.1c0,0,0,0.1-0.1,0.1c-0.3,0-0.7,0-1-0.2l0,0
				C205.6,232.1,205.6,231.9,205.7,231.9z"/>
		</g>
		<path class="st20" d="M212.6,221.4c0.4-0.4,0.9-0.7,1.4-1c0.2-0.2,0-1.1,0.4-1.7c0.8-1,2.2-0.5,2.9,0.2c1.5,1.6,1.6,4.8,1,5.4
			s-3.9,0.8-5.7-0.6C211.7,223,211.9,222.2,212.6,221.4z"/>
		<path class="st5" d="M212.1,221.1c0.6-0.6,1.1-0.7,1.4-1s0.5-0.9,0.9-1.5c0.6-0.8,1.6-0.6,2.4,0c1.8,1.3,1.6,4.8,1,5.4
			s-3.4,1-5.2-0.5c-0.8-0.4-1.1-1.4-0.6-2.2C211.9,221.3,212,221.2,212.1,221.1z"/>
		<g>
			<path class="st21" d="M215.2,223.9c0-0.1,0-0.1,0.1-0.2c0,0,0,0,0,0l1.4-0.2c0.1,0,0.6-0.1,0.4,0.2s-0.6,0.3-0.8,0.3
				C215.9,224.1,215.6,224,215.2,223.9C215.2,223.9,215.2,223.9,215.2,223.9z"/>
			<path class="st21" d="M213.4,223.1L213.4,223.1c0.3,0.1,0.6,0.2,0.9,0.4s0.2,0.2,0.2,0.3c0,0.1-0.1,0.1-0.1,0.1
				c-0.4-0.1-0.8-0.3-1.1-0.6C213.2,223.1,213.3,223,213.4,223.1z"/>
			<path class="st21" d="M214.7,222.6c0.4,0,0.7,0.1,1.1,0.2c0.1,0,0.1,0.1,0.1,0.1c0,0,0,0.1-0.1,0.1c-0.3,0-0.7,0-1-0.2l0,0
				c-0.1,0-0.1,0-0.2-0.1S214.6,222.6,214.7,222.6L214.7,222.6z"/>
		</g>
		<path class="st20" d="M221.6,212.1c0.4-0.4,0.9-0.7,1.4-1c0.2-0.2,0-1.1,0.4-1.7c0.8-1,2.2-0.5,2.9,0.2c1.5,1.6,1.6,4.9,1,5.4
			s-3.9,0.8-5.8-0.6C220.7,213.7,220.8,212.9,221.6,212.1z"/>
		<path class="st5" d="M221,211.8c0.4-0.4,0.9-0.7,1.4-1c0.2-0.2,0.5-0.9,0.9-1.5c0.6-0.8,1.6-0.6,2.4,0c1.8,1.3,1.6,4.8,1,5.4
			s-3.4,1-5.2-0.5c-0.8-0.4-1.1-1.4-0.6-2.2C220.9,212,220.9,211.9,221,211.8z"/>
		<g>
			<path class="st21" d="M224.1,214.5c0-0.1,0-0.1,0-0.1c0,0,0,0,0,0l1.4-0.2c0.1,0,0.6,0,0.4,0.2s-0.6,0.3-0.8,0.3
				C224.9,214.8,224.5,214.7,224.1,214.5C224.2,214.6,224.2,214.6,224.1,214.5z"/>
			<path class="st21" d="M222.4,213.7L222.4,213.7c0.3,0.1,0.6,0.2,0.9,0.4c0.1,0,0.2,0.2,0.2,0.3c0,0.1-0.1,0.1-0.1,0.1
				c-0.4-0.1-0.8-0.3-1.1-0.6C222.2,213.9,222.3,213.8,222.4,213.7C222.3,213.7,222.4,213.7,222.4,213.7z"/>
			<path class="st21" d="M223.6,213.2c0.4,0,0.8,0.1,1.1,0.2c0.1,0,0.1,0.1,0.1,0.1c0,0,0,0.1-0.1,0.1c-0.3,0-0.7,0-1-0.2l0,0
				c-0.1,0-0.1,0-0.2-0.1C223.5,213.3,223.5,213.3,223.6,213.2z"/>
		</g>
		<path class="st20" d="M230.6,202.7c0.6-0.6,1.1-0.7,1.4-1s0-1.1,0.4-1.7c0.8-1,2.2-0.5,2.9,0.2c1.5,1.6,1.6,4.8,1,5.4
			s-3.9,0.8-5.7-0.6C229.6,204.4,229.8,203.6,230.6,202.7z"/>
		<path class="st5" d="M230,202.5c0.4-0.4,0.9-0.7,1.4-1c0.2-0.2,0.5-0.9,0.9-1.5c0.6-0.8,1.6-0.6,2.4,0c1.8,1.3,1.6,4.8,1,5.4
			s-3.4,1-5.2-0.5c-0.8-0.4-1.1-1.4-0.6-2.2C229.9,202.7,229.9,202.6,230,202.5z"/>
		<g>
			<path class="st21" d="M233.1,205.2c0-0.1,0-0.1,0-0.2c0,0,0,0,0,0l1.4-0.2c0.1,0,0.6-0.1,0.4,0.2s-0.6,0.3-0.8,0.3
				C233.8,205.5,233.5,205.4,233.1,205.2L233.1,205.2z"/>
			<path class="st21" d="M231.3,204.4L231.3,204.4c0.3,0.1,0.6,0.2,0.9,0.4c0.1,0,0.2,0.2,0.2,0.3c0,0-0.1,0.1-0.1,0.1
				c-0.4-0.1-0.8-0.3-1.1-0.6C231.2,204.5,231.2,204.4,231.3,204.4z"/>
			<path class="st21" d="M232.6,203.9c0.4,0,0.8,0.1,1.1,0.2c0.1,0,0,0.2,0,0.2c-0.3,0-0.7,0-1-0.2l0,0c-0.1,0-0.1,0-0.2-0.1
				S232.5,204,232.6,203.9L232.6,203.9z"/>
		</g>
		<path class="st22" d="M50.5,108.4c1.9,3.9,35.8,28.2,39.3,29.1s43.2-53.1,42.8-58.9s-34.6-28.8-39.7-30S48.6,104.6,50.5,108.4z"/>
		<path class="st20" d="M103.9,65.2c-0.3-0.5-0.8-1-1.2-1.5c-0.6-0.5-1.2-1.1-1.8-1.6c-0.9-0.7-5.4-3.9-6.1-4.3
			c-0.6-0.4-1.2-0.8-1.9-1c-1.2-0.3-2.4,0-3.2,0.8c-0.9,0.8-1.2,2-0.9,3.2c0.5,1.2,1.3,2.3,2.4,3c0.5,0.4,5.7,4.1,6.2,4.4
			c0.7,0.5,1.5,0.8,2.2,1.1c1.2,0.5,2.7,0.2,3.6-0.8C104,67.7,104.4,66.4,103.9,65.2z"/>
		<path class="st5" d="M103.5,64.8c-0.3-0.5-0.7-1-1.2-1.3c-0.5-0.5-1.1-1-1.6-1.5c-0.8-0.7-5-3.6-5.6-4c-0.5-0.4-1.1-0.7-1.8-0.9
			c-1.1-0.3-2.2,0-3,0.8c-0.8,0.7-1.1,1.9-0.8,2.9c0.4,1.1,1.2,2.1,2.2,2.7c0.4,0.3,5.3,3.8,5.7,4c0.7,0.4,1.3,0.7,2.1,1
			c1.1,0.5,2.5,0.2,3.3-0.7C103.6,67.1,103.9,65.9,103.5,64.8z"/>
		<path class="st6" d="M98.4,60.4c-1.4-1-3-2.1-3.4-2.3c-0.5-0.4-1.1-0.7-1.8-0.9c-1.1-0.3-2.2,0-3,0.8c-0.8,0.7-1.1,1.9-0.8,2.9
			c0.4,1.1,1.2,2.1,2.2,2.7c0.2,0.2,1.5,1.1,2.9,2.1C95.6,63.7,96.9,61.9,98.4,60.4z"/>
		<path class="st23" d="M100.6,67.2c-0.8-0.3-1.5-0.7-2.2-1.1c-0.5-0.3-5.5-3.9-6-4.2c-1-0.7-1.9-1.7-2.3-2.9
			c-0.1-0.3-0.1-0.5-0.1-0.8c-0.6,0.7-0.8,1.7-0.5,2.6c0.4,1.1,1.2,2.1,2.2,2.7c0.4,0.3,5.3,3.8,5.7,4c0.7,0.4,1.3,0.7,2.1,1
			c1.1,0.5,2.5,0.2,3.3-0.7c0.3-0.3,0.5-0.6,0.6-0.9C102.6,67.5,101.5,67.6,100.6,67.2z"/>
		<path class="st20" d="M96.1,76c-0.3-0.5-0.8-1-1.2-1.4c-0.6-0.6-1.2-1.1-1.8-1.6c-0.9-0.7-5.4-3.9-6.1-4.3c-0.6-0.4-1.2-0.8-1.9-1
			c-1.2-0.3-2.4,0-3.2,0.8c-0.8,0.8-1.2,2-0.8,3.2c0.5,1.2,1.3,2.3,2.4,3c0.5,0.4,5.7,4.1,6.2,4.4c0.7,0.5,1.5,0.8,2.2,1.1
			c1.7,0.6,3.6-0.2,4.2-1.9C96.4,77.5,96.4,76.7,96.1,76z"/>
		<path class="st5" d="M95.7,75.6c-0.3-0.5-0.7-0.9-1.2-1.3c-0.5-0.5-1.1-1-1.6-1.4c-0.8-0.7-5-3.6-5.6-4c-0.5-0.4-1.1-0.7-1.8-0.9
			c-1.1-0.3-2.2,0-3,0.8c-0.8,0.7-1.1,1.9-0.8,2.9c0.4,1.1,1.2,2.1,2.2,2.8c0.4,0.3,5.3,3.8,5.7,4c0.7,0.4,1.3,0.7,2.1,1
			c1.1,0.5,2.5,0.2,3.3-0.7C95.8,77.9,96.1,76.7,95.7,75.6z"/>
		<path class="st6" d="M90.6,71.2c-1.4-1-3-2.1-3.4-2.3c-0.5-0.4-1.1-0.7-1.8-0.9c-1.1-0.3-2.2,0-3,0.8c-0.8,0.7-1.1,1.9-0.8,2.9
			c0.4,1.1,1.2,2.1,2.2,2.8c0.2,0.2,1.6,1.1,2.9,2.1C87.8,74.5,89.1,72.7,90.6,71.2z"/>
		<path class="st23" d="M92.8,78c-0.8-0.3-1.5-0.7-2.2-1.1c-0.5-0.3-5.5-3.9-6-4.2c-1-0.7-1.9-1.7-2.3-2.8c-0.1-0.3-0.1-0.5-0.1-0.8
			c-0.6,0.7-0.8,1.7-0.5,2.6c0.4,1.1,1.2,2.1,2.2,2.8c0.4,0.3,5.3,3.8,5.7,4c0.7,0.4,1.3,0.7,2.1,1c1.5,0.6,3.3-0.1,3.9-1.6
			C94.8,78.3,93.7,78.4,92.8,78z"/>
		<path class="st20" d="M88.3,86.8c-0.3-0.5-0.8-1-1.2-1.4c-0.6-0.5-1.1-1.1-1.8-1.6c-0.9-0.7-5.4-3.9-6.1-4.3
			c-0.6-0.4-1.2-0.8-1.9-1c-1.2-0.3-2.4,0-3.2,0.8c-0.9,0.8-1.2,2-0.9,3.2c0.5,1.2,1.3,2.3,2.4,3c0.5,0.4,5.7,4.1,6.2,4.4
			c0.7,0.5,1.4,0.8,2.2,1.1c1.2,0.5,2.7,0.2,3.6-0.8C88.5,89.3,88.8,88,88.3,86.8z"/>
		<path class="st5" d="M87.9,86.4c-0.3-0.5-0.7-1-1.2-1.3c-0.5-0.5-1.1-1-1.6-1.4c-0.8-0.7-5-3.6-5.6-4c-0.5-0.4-1.1-0.7-1.8-0.9
			c-1.1-0.3-2.2,0-3,0.8c-0.8,0.7-1.1,1.9-0.8,2.9c0.4,1.1,1.2,2.1,2.2,2.7c0.4,0.3,5.3,3.8,5.7,4c0.7,0.4,1.3,0.7,2.1,1
			c1.5,0.7,3.3,0,3.9-1.6C88.2,87.9,88.2,87.1,87.9,86.4L87.9,86.4z"/>
		<path class="st6" d="M82.9,82c-1.4-1-3-2.1-3.4-2.3c-0.5-0.4-1.1-0.7-1.8-0.9c-1.1-0.3-2.2,0-3,0.8c-0.8,0.7-1.1,1.9-0.8,2.9
			c0.4,1.1,1.2,2.1,2.2,2.7c0.2,0.2,1.6,1.1,2.9,2.1C80.1,85.3,81.4,83.6,82.9,82z"/>
		<path class="st23" d="M85.1,88.8c-0.8-0.3-1.5-0.7-2.2-1.1c-0.4-0.3-5.5-3.9-6-4.2c-1-0.7-1.9-1.7-2.3-2.8
			c-0.1-0.3-0.1-0.5-0.1-0.8c-0.6,0.7-0.8,1.7-0.5,2.6c0.4,1.1,1.2,2.1,2.2,2.7c0.4,0.3,5.3,3.8,5.7,4c0.7,0.4,1.3,0.7,2.1,1
			c1.1,0.5,2.5,0.2,3.3-0.7c0.3-0.3,0.5-0.6,0.6-0.9C87,89.1,86,89.2,85.1,88.8z"/>
		<path class="st20" d="M80.6,97.6c-0.3-0.5-0.8-1-1.2-1.4c-0.6-0.6-1.2-1.1-1.8-1.6c-0.9-0.7-5.4-3.9-6.1-4.3
			c-0.6-0.4-1.2-0.8-1.9-1c-1.2-0.3-2.4,0-3.2,0.8c-0.9,0.8-1.2,2-0.9,3.2c0.5,1.2,1.3,2.3,2.4,3c0.5,0.4,5.7,4.1,6.2,4.4
			c0.7,0.5,1.5,0.8,2.2,1.1c1.2,0.5,2.7,0.2,3.6-0.7C80.7,100.1,81,98.8,80.6,97.6z"/>
		<path class="st5" d="M80.1,97.2c-0.3-0.5-0.7-1-1.1-1.3c-0.5-0.5-1.1-1-1.6-1.4c-0.8-0.7-5-3.6-5.6-4c-0.5-0.4-1.1-0.7-1.8-0.9
			c-1.1-0.3-2.2,0-3,0.8c-0.8,0.7-1.1,1.9-0.8,2.9c0.4,1.1,1.2,2.1,2.2,2.8c0.4,0.3,5.3,3.8,5.7,4c0.7,0.4,1.3,0.7,2.1,1
			c1.5,0.7,3.3,0,3.9-1.6C80.4,98.7,80.4,97.9,80.1,97.2L80.1,97.2z"/>
		<path class="st6" d="M75.1,92.8c-1.4-1-3-2.1-3.4-2.3c-0.5-0.4-1.1-0.7-1.8-0.9c-1.1-0.3-2.2,0-3,0.8c-0.8,0.7-1.1,1.9-0.8,2.9
			c0.4,1.1,1.2,2.1,2.2,2.8c0.2,0.2,1.5,1.1,2.9,2.1C72.3,96.1,73.6,94.4,75.1,92.8z"/>
		<path class="st23" d="M77.3,99.6c-0.8-0.3-1.5-0.7-2.2-1.1c-0.5-0.3-5.5-3.9-6-4.2c-1-0.7-1.9-1.7-2.3-2.8
			c-0.1-0.3-0.1-0.5-0.1-0.8c-0.6,0.7-0.8,1.7-0.5,2.6c0.4,1.1,1.2,2.1,2.2,2.8c0.4,0.3,5.3,3.8,5.7,4c0.7,0.4,1.3,0.7,2.1,1
			c1.5,0.6,3.3-0.1,3.9-1.6C79.2,99.9,78.2,100,77.3,99.6z"/>
		<path class="st20" d="M72.8,108.4c-0.3-0.5-0.8-1-1.2-1.4c-0.6-0.5-1.2-1.1-1.8-1.6c-0.9-0.7-5.4-3.9-6.1-4.3
			c-0.6-0.4-1.2-0.8-1.9-1c-1.2-0.3-2.4,0-3.2,0.8c-0.9,0.8-1.2,2-0.9,3.2c0.5,1.2,1.3,2.3,2.4,3c0.5,0.4,5.7,4.1,6.2,4.4
			c0.7,0.5,1.5,0.8,2.2,1.1c1.2,0.5,2.7,0.2,3.6-0.8C73,111,73.3,109.6,72.8,108.4z"/>
		<path class="st5" d="M72.4,108c-0.3-0.5-0.7-1-1.2-1.3c-0.5-0.5-1.1-1-1.6-1.4c-0.8-0.7-5-3.6-5.6-4c-0.5-0.4-1.1-0.7-1.8-0.9
			c-1.1-0.3-2.2,0-3,0.8c-0.8,0.7-1.1,1.9-0.8,2.9c0.4,1.1,1.2,2.1,2.2,2.7c0.4,0.3,5.3,3.8,5.7,4c0.7,0.4,1.3,0.7,2.1,1
			c1.1,0.5,2.5,0.2,3.3-0.7C72.5,110.3,72.7,109.1,72.4,108z"/>
		<path class="st6" d="M67.3,103.6c-1.4-1-3-2.1-3.4-2.3c-0.5-0.4-1.1-0.7-1.8-0.9c-1.1-0.3-2.2,0-3,0.8c-0.8,0.7-1.1,1.9-0.8,2.9
			c0.4,1.1,1.2,2.1,2.2,2.7c0.2,0.2,1.5,1.1,2.9,2.1C64.5,106.9,65.8,105.2,67.3,103.6z"/>
		<path class="st23" d="M69.5,110.4c-0.8-0.3-1.5-0.7-2.2-1.1c-0.5-0.3-5.5-3.9-6-4.2c-1.1-0.7-1.9-1.7-2.3-2.8
			c-0.1-0.3-0.1-0.5-0.1-0.8c-0.6,0.7-0.8,1.7-0.5,2.6c0.4,1.1,1.2,2.1,2.2,2.7c0.4,0.3,5.3,3.8,5.7,4c0.7,0.4,1.3,0.7,2.1,1
			c1.1,0.5,2.5,0.2,3.3-0.7c0.3-0.3,0.5-0.6,0.6-0.9C71.5,110.7,70.4,110.8,69.5,110.4z"/>
		<path class="st20" d="M125.5,80.7c-0.3-0.5-0.8-1-1.3-1.4c-0.6-0.5-1.2-1.1-1.8-1.6c-0.9-0.7-5.4-3.9-6.1-4.3
			c-0.6-0.4-1.2-0.8-1.9-1c-1.2-0.3-2.4,0-3.2,0.8c-0.9,0.8-1.2,2-0.9,3.2c0.5,1.2,1.3,2.3,2.4,3c0.5,0.4,5.7,4.1,6.2,4.4
			c0.7,0.5,1.5,0.8,2.2,1.1c1.2,0.5,2.7,0.2,3.6-0.8C125.6,83.2,125.9,81.9,125.5,80.7z"/>
		<path class="st5" d="M125.1,80.3c-0.3-0.5-0.7-1-1.2-1.3c-0.5-0.5-1.1-1-1.6-1.4c-0.8-0.7-5-3.6-5.6-4c-0.5-0.4-1.1-0.7-1.8-0.9
			c-1.1-0.3-2.2,0-3,0.8c-0.8,0.7-1.1,1.9-0.8,2.9c0.4,1.1,1.2,2.1,2.2,2.7c0.4,0.3,5.3,3.8,5.7,4.1c0.7,0.4,1.3,0.7,2.1,1
			c1.5,0.7,3.3,0,3.9-1.6C125.3,81.9,125.3,81,125.1,80.3L125.1,80.3z"/>
		<path class="st6" d="M120,75.9c-1.4-1-3-2.1-3.4-2.3c-0.5-0.4-1.1-0.7-1.8-0.9c-1.1-0.3-2.2,0-3,0.8c-0.8,0.7-1.1,1.9-0.8,2.9
			c0.4,1.1,1.2,2.1,2.2,2.7c0.2,0.2,1.6,1.1,2.9,2.1C117.2,79.2,118.5,77.5,120,75.9z"/>
		<path class="st23" d="M122.2,82.7c-0.8-0.3-1.5-0.7-2.2-1.1c-0.4-0.3-5.5-3.9-6-4.2c-1-0.7-1.9-1.7-2.3-2.8
			c-0.1-0.3-0.1-0.5-0.1-0.8c-0.6,0.7-0.8,1.7-0.5,2.6c0.4,1.1,1.2,2.1,2.2,2.7c0.4,0.3,5.3,3.8,5.7,4.1c0.7,0.4,1.3,0.7,2.1,1
			c1.1,0.5,2.5,0.2,3.3-0.7c0.3-0.3,0.5-0.6,0.6-0.9C124.1,83,123.1,83.1,122.2,82.7z"/>
		<path class="st20" d="M117.7,91.5c-0.3-0.5-0.8-1-1.2-1.4c-0.6-0.6-1.2-1.1-1.8-1.6c-0.9-0.7-5.4-3.9-6.1-4.3
			c-0.6-0.4-1.2-0.8-1.9-1c-1.2-0.3-2.4,0-3.2,0.8c-0.9,0.8-1.2,2-0.9,3.2c0.5,1.2,1.3,2.3,2.4,3c0.5,0.4,5.7,4.1,6.2,4.4
			c0.7,0.5,1.5,0.8,2.2,1.1c1.2,0.5,2.7,0.2,3.6-0.8C117.8,94,118.1,92.7,117.7,91.5z"/>
		<path class="st5" d="M117.3,91.2c-0.3-0.5-0.7-1-1.2-1.3c-0.5-0.5-1.1-1-1.6-1.4c-0.8-0.7-5-3.6-5.6-4c-0.5-0.4-1.1-0.7-1.8-0.9
			c-1.1-0.3-2.2,0-3,0.8c-0.8,0.7-1.1,1.9-0.8,2.9c0.4,1.1,1.2,2.1,2.2,2.8c0.4,0.3,5.3,3.8,5.7,4c0.7,0.4,1.3,0.7,2.1,1
			c1.5,0.7,3.3,0,3.9-1.6C117.6,92.6,117.6,91.8,117.3,91.2L117.3,91.2z"/>
		<path class="st6" d="M112.2,86.7c-1.4-1-3-2.1-3.4-2.3c-0.5-0.4-1.1-0.7-1.8-0.9c-1.1-0.3-2.2,0-3,0.8c-0.8,0.7-1.1,1.9-0.8,2.9
			c0.4,1.1,1.2,2.1,2.2,2.8c0.2,0.2,1.5,1.1,2.9,2.1C109.4,90,110.7,88.3,112.2,86.7z"/>
		<path class="st23" d="M114.4,93.5c-0.8-0.3-1.5-0.7-2.2-1.1c-0.5-0.3-5.5-3.9-6-4.2c-1-0.7-1.9-1.7-2.3-2.8
			c-0.1-0.3-0.1-0.5-0.1-0.8c-0.6,0.7-0.8,1.7-0.5,2.6c0.4,1.1,1.2,2.1,2.2,2.8c0.4,0.3,5.3,3.8,5.7,4c0.7,0.4,1.3,0.7,2.1,1
			c1.5,0.6,3.3-0.1,3.9-1.6C116.4,93.8,115.3,93.9,114.4,93.5z"/>
		<path class="st20" d="M109.9,102.3c-0.3-0.5-0.8-1-1.2-1.4c-0.6-0.5-1.2-1.1-1.8-1.6c-0.9-0.7-5.4-3.9-6.1-4.3
			c-0.6-0.4-1.2-0.8-1.9-1c-1.2-0.3-2.4,0-3.2,0.8c-0.9,0.8-1.2,2.1-0.9,3.2c0.5,1.2,1.3,2.3,2.4,3c0.5,0.4,5.7,4.1,6.2,4.4
			c0.7,0.5,1.5,0.8,2.2,1.1c1.7,0.7,3.6-0.2,4.3-1.8C110.2,103.9,110.2,103.1,109.9,102.3L109.9,102.3z"/>
		<path class="st5" d="M109.5,102c-0.3-0.5-0.7-1-1.2-1.3c-0.5-0.5-1.1-1-1.6-1.4c-0.8-0.7-5-3.6-5.6-4c-0.5-0.4-1.1-0.7-1.8-0.9
			c-1.1-0.3-2.2,0-3,0.8c-0.8,0.7-1.1,1.9-0.8,2.9c0.4,1.1,1.2,2.1,2.2,2.7c0.4,0.3,5.3,3.8,5.7,4c0.7,0.4,1.3,0.7,2.1,1
			c1.1,0.5,2.5,0.2,3.3-0.7C109.6,104.3,109.9,103.1,109.5,102z"/>
		<path class="st6" d="M104.4,97.5c-1.4-1-3-2.1-3.4-2.3c-0.5-0.4-1.1-0.7-1.8-0.9c-1.1-0.3-2.2,0-3,0.8c-0.8,0.7-1.1,1.9-0.8,2.9
			c0.4,1.1,1.2,2.1,2.2,2.7c0.2,0.2,1.6,1.1,2.9,2.1C101.6,100.8,102.9,99.1,104.4,97.5z"/>
		<path class="st23" d="M106.6,104.3c-0.8-0.3-1.5-0.7-2.2-1.1c-0.5-0.2-5.5-3.9-6-4.2c-1-0.7-1.9-1.7-2.3-2.8
			c-0.1-0.3-0.1-0.5-0.1-0.8c-0.6,0.7-0.8,1.7-0.5,2.6c0.4,1.1,1.2,2.1,2.2,2.7c0.4,0.3,5.3,3.8,5.7,4c0.7,0.4,1.3,0.7,2.1,1
			c1.1,0.5,2.5,0.2,3.3-0.7c0.3-0.3,0.5-0.6,0.6-0.9C108.6,104.6,107.5,104.7,106.6,104.3z"/>
		<path class="st20" d="M102.1,113.1c-0.3-0.5-0.8-1-1.2-1.4c-0.6-0.6-1.2-1.1-1.8-1.6c-0.9-0.7-5.4-3.9-6.1-4.3
			c-0.6-0.4-1.2-0.8-1.9-1c-1.2-0.3-2.4,0-3.2,0.8c-0.9,0.8-1.2,2-0.9,3.2c0.5,1.2,1.3,2.3,2.4,3c0.5,0.4,5.7,4.1,6.2,4.4
			c0.7,0.5,1.4,0.8,2.2,1.1c1.7,0.7,3.6-0.2,4.3-1.8C102.4,114.7,102.4,113.9,102.1,113.1z"/>
		<path class="st5" d="M101.7,112.8c-0.3-0.5-0.7-1-1.2-1.3c-0.5-0.5-1.1-1-1.6-1.4c-0.8-0.7-5-3.6-5.6-4c-0.5-0.4-1.1-0.7-1.8-0.9
			c-1.1-0.3-2.2,0-3,0.8c-0.8,0.7-1.1,1.9-0.8,2.9c0.4,1.1,1.2,2.1,2.2,2.8c0.4,0.3,5.3,3.8,5.7,4c0.6,0.4,1.3,0.7,2.1,1
			c1.5,0.7,3.3,0,3.9-1.6C102,114.2,102,113.4,101.7,112.8L101.7,112.8z"/>
		<path class="st6" d="M96.7,108.3c-1.4-1-3-2.1-3.4-2.3c-0.5-0.4-1.1-0.7-1.8-0.9c-1.1-0.3-2.2,0-3,0.8c-0.8,0.7-1.1,1.9-0.8,2.9
			c0.4,1.1,1.2,2.1,2.2,2.8c0.2,0.2,1.6,1.1,2.9,2.1C93.9,111.6,95.2,109.9,96.7,108.3z"/>
		<path class="st23" d="M98.8,115.1c-0.8-0.3-1.5-0.7-2.2-1.1c-0.4-0.3-5.5-3.9-6-4.2c-1-0.7-1.8-1.6-2.3-2.8
			c-0.1-0.3-0.1-0.5-0.1-0.8c-0.6,0.7-0.8,1.7-0.5,2.6c0.4,1.1,1.2,2.1,2.2,2.8c0.4,0.3,5.3,3.8,5.7,4c0.6,0.4,1.3,0.7,2.1,1
			c1.5,0.6,3.3-0.1,3.9-1.6C100.8,115.5,99.8,115.5,98.8,115.1z"/>
		<path class="st20" d="M94.4,123.9c-0.3-0.5-0.8-1-1.3-1.4c-0.6-0.5-1.2-1.1-1.8-1.6c-0.9-0.7-5.4-3.9-6.1-4.3
			c-0.6-0.4-1.2-0.8-1.9-1c-1.2-0.3-2.4,0-3.2,0.8c-0.9,0.8-1.2,2-0.9,3.2c0.5,1.2,1.3,2.3,2.4,3c0.5,0.4,5.7,4.1,6.2,4.4
			c0.7,0.5,1.5,0.8,2.2,1.1c1.2,0.5,2.7,0.2,3.6-0.8C94.5,126.4,94.8,125.1,94.4,123.9z"/>
		<path class="st5" d="M93.9,123.6c-0.3-0.5-0.7-1-1.2-1.3c-0.5-0.5-1.1-1-1.6-1.4c-0.8-0.7-5-3.6-5.6-4c-0.5-0.4-1.1-0.7-1.8-0.9
			c-1.1-0.3-2.2,0-3,0.8c-0.8,0.7-1.1,1.9-0.8,2.9c0.4,1.1,1.2,2.1,2.2,2.7c0.4,0.3,5.3,3.8,5.7,4c0.7,0.4,1.3,0.7,2.1,1
			c1.5,0.7,3.3,0,3.9-1.6C94.2,125,94.2,124.2,93.9,123.6L93.9,123.6z"/>
		<path class="st6" d="M88.9,119.1c-1.4-1-3-2.1-3.4-2.3c-0.5-0.4-1.1-0.7-1.8-0.9c-1.1-0.3-2.2,0-3,0.8c-0.8,0.7-1.1,1.9-0.8,2.9
			c0.4,1.1,1.2,2.1,2.2,2.7c0.2,0.2,1.5,1.1,2.9,2.1C86.1,122.4,87.4,120.7,88.9,119.1z"/>
		<path class="st23" d="M91.1,125.9c-0.8-0.3-1.5-0.7-2.2-1.1c-0.4-0.3-5.5-3.9-6-4.2c-1-0.7-1.9-1.7-2.3-2.8
			c-0.1-0.3-0.1-0.5-0.1-0.8c-0.6,0.7-0.8,1.7-0.5,2.6c0.4,1.1,1.2,2.1,2.2,2.7c0.4,0.3,5.3,3.8,5.7,4c0.7,0.4,1.3,0.7,2.1,1
			c1.1,0.5,2.5,0.2,3.3-0.7c0.3-0.3,0.5-0.6,0.6-0.9C93,126.2,92,126.3,91.1,125.9z"/>
		<path class="st24" d="M72.9,119.8c4.5-6.2,32.1-44.6,36.6-50.8c0.5-0.7-0.8-1.6-1.3-0.9c-4.5,6.2-32.2,44.6-36.6,50.8
			C71.1,119.6,72.4,120.5,72.9,119.8z"/>
		<path class="st25" d="M117.6,247.5c1.6-0.4,3.1-0.7,4.7-0.9c3.4-0.5,6.8-0.4,10.2,0.2c0.7,0.1,1.5,0.3,2.2,0.6s3.1,1,3,2
			c0,1.4-2.1,2.1-3,2.4c-3.2,0.8-6.6,1.1-9.9,0.9c-1.9,0-3.9,0-5.8-0.2c-1-0.1-2-0.3-3-0.5c-1-0.2-2.5-1-2.3-1.8
			S116.1,247.9,117.6,247.5z"/>
		<path class="st10" d="M137.7,257.5c-0.3,1.4-1.8,1.7-3,2c-1.4,0.3-2.8,0.5-4.2,0.6c-2.6,0.2-5.2,0.1-7.9,0c-1.3,0-2.7-0.1-4-0.3
			c-1.2-0.1-2.4-0.5-3.4-1.1c-1.3-1-1.2-2.7-1.3-4.3l-0.2-3.6c0.8,0.7,1.8,1.1,2.9,1.2c2,0.3,4.1,0.5,6.1,0.5
			c3.9,0.1,8,0.2,11.8-0.8c1.2-0.2,2.2-0.7,3.1-1.4v5.2C137.8,256.1,137.8,256.8,137.7,257.5z"/>
		<path class="st26" d="M138,254.8c0-1.7,0-3.3,0-5c0.2-1.4-1.3-2.1-2.4-2.5c-3.7-1.1-7.6-1.5-11.4-1.2c-2.1,0.2-4.3,0.5-6.3,1
			c-1.6,0.4-3.9,1.6-4.2,2.5c-0.2,1.7-0.2,3.3,0,5c0.1,1.2,0,2.6,0.7,3.6c0.7,0.8,1.6,1.3,2.6,1.5c1.4,0.3,2.8,0.5,4.2,0.6
			c2.9,0.2,5.9,0.2,8.8,0.1c1.4-0.1,2.8-0.2,4.2-0.5c1.1-0.1,2.2-0.5,3.1-1.2C138.3,257.7,138,256,138,254.8z M117.7,247.6
			c1.5-0.4,3.1-0.7,4.6-0.8c3.3-0.4,6.7-0.4,10,0.2c0.7,0.1,1.4,0.3,2.2,0.5s3,0.9,3,1.8c0,1.3-2.1,1.9-2.9,2.2
			c-3.2,0.7-6.5,1-9.7,0.8c-1.9,0-3.8,0-5.7-0.2c-1-0.1-2-0.2-3-0.4c-0.9-0.2-2.4-0.9-2.2-1.7S116.2,248,117.7,247.6L117.7,247.6z
			 M137.4,257.4c-0.3,1.3-1.8,1.6-2.9,1.8c-1.3,0.3-2.7,0.5-4.1,0.5c-2.6,0.2-5.2,0.1-7.7,0c-1.3,0-2.7-0.1-4-0.3
			c-1.2-0.1-2.3-0.4-3.3-1c-1.3-0.9-1.2-2.5-1.3-3.9c-0.1-1.1-0.1-2.2-0.2-3.4c0.8,0.6,1.8,1,2.8,1.1c2,0.3,4,0.5,6,0.5
			c3.8,0.1,7.9,0.2,11.6-0.8c1.1-0.2,2.2-0.6,3.1-1.3v2.8v2C137.5,256.1,137.5,256.8,137.4,257.4L137.4,257.4z"/>
		<path class="st26" d="M135.4,253.1h-0.3c-0.1,0-0.2,0.1-0.2,0.2l-1.7,0.7c-0.4,0.1-1,0.2-1.1,0.6c-0.1,0.1-0.1,0.2,0,0.3
			c0.4,0.4,1.4,0.1,1.8-0.1c0.7-0.3,1.3-0.7,1.8-1.3C135.6,253.3,135.6,253.1,135.4,253.1C135.4,253.1,135.4,253.1,135.4,253.1z"/>
		<path class="st26" d="M132.6,256.6L132.6,256.6l-2.2,0.5c-0.5,0.1-1,0.1-1.3,0.5c-0.1,0.1-0.1,0.3,0,0.4c0.4,0.5,1.1,0.4,1.7,0.2
			c0.8-0.2,1.6-0.5,2.2-1C133.4,257,133,256.3,132.6,256.6z"/>
		<path class="st26" d="M126.4,255.3l-0.3-0.1c-0.1-0.1-0.2-0.1-0.3,0l0,0l-1.8,0.1c-0.4,0-0.8-0.1-1.2,0.3
			c-0.1,0.1-0.1,0.2-0.1,0.4c0.2,0.6,1,0.7,1.6,0.7c0.8,0,1.5-0.2,2.2-0.6c0.2-0.1,0.2-0.4,0.1-0.5
			C126.5,255.4,126.5,255.3,126.4,255.3z"/>
		<path class="st4" d="M132.8,249.1c0.8,1.3,1.9,2.5,3.2,3.4c2.7,2.1,5.8,3.8,9.1,4.9c1.7,0.6,3.4,1,5.1,1.2c1.4,0.3,2.9,0,4-0.9
			c1-1,1.7-2.3,1.9-3.7c0.1-1.9-21.5-11.3-22.3-10S132.2,247.8,132.8,249.1z"/>
		<path class="st3" d="M155.9,252.1c-0.8-1.4-1.9-2.5-3.2-3.4c-2.7-2.1-5.8-3.8-9.1-4.9c-1.7-0.6-3.4-1-5.1-1.2
			c-1.4-0.3-2.9,0-4,0.9c-3,2.9,1.7,5.7,3.7,7l1.5,0.9c1.8,1.1,3.8,2,5.7,2.9c1.7,0.7,3.4,1.4,5.2,1.9c1.4,0.4,3,0.7,4.4-0.2
			C156.3,255,156.6,253.4,155.9,252.1z"/>
		<path class="st4" d="M155.3,252.3c-5.6-4.7-12.5-7.6-19.8-8.3c-0.2,0-0.3,0.1-0.3,0.3c-0.1,0.2-0.1,0.4,0.1,0.5c0,0,0.1,0,0.2,0.1
			c3.5,0.2,6.6,1.8,9.7,3.3l9.9,4.8c0.1,0.1,0.3,0,0.4-0.1S155.4,252.4,155.3,252.3L155.3,252.3z"/>
		<path class="st27" d="M150.2,252c-1-0.6-2.1-1.1-3.1-1.6c-2.2-1-4.4-1.8-6.6-2.6c-0.5-0.1-0.7,0.4-0.5,0.7c-0.1,0.2,0,0.4,0.1,0.5
			c2.7,2.1,5.7,3.7,9,4.5c0.6,0.2,1.9,0.7,2.3-0.2S150.7,252.3,150.2,252z"/>
		<path class="st21" d="M147,255.9l-19,0.1c-0.3,1.7-0.4,4.3,0.9,6.1c0.8,1.1,5.1,4.5,12.8,2.5C146.1,263.6,147.1,260,147,255.9z"/>
		<path class="st5" d="M146.4,253.9c-3-5.8-12.4-6.7-16.7-1.9c-1.9,2-2.3,5-1,7.5c0.7,1.1,5.3,4.9,13,3
			C146.1,261.4,148,257.1,146.4,253.9z"/>
		<path class="st21" d="M141.2,250.9c-3.6,2.6-6.8,5.6-9.8,8.9c-0.7,0.8,0.4,2,1.2,1.2c2.8-3.2,6-6.1,9.4-8.6
			C142.9,251.7,142.1,250.2,141.2,250.9z"/>
		<path class="st19" d="M131.3,194.6c-10.4,1.7-20.3,5.7-29,11.7c-0.7,0.5,0,1.6,0.7,1.1c8.6-6,18.4-10,28.7-11.6
			C132.5,195.8,132.1,194.5,131.3,194.6z"/>
		<path class="st19" d="M144.4,219.2c-6.2,6.2-10.8,13.8-13.3,22.1c-0.1,0.3,0.1,0.7,0.5,0.8c0.3,0.1,0.7-0.1,0.8-0.4
			c2.5-8.1,6.9-15.6,12.9-21.6c0.3-0.3,0.3-0.7,0-0.9C145,218.9,144.6,218.9,144.4,219.2z"/>
		<path class="st19" d="M195.8,227.1l-15.6-13.2c-0.6-0.5-1.6,0.4-0.9,0.9l15.6,13.2C195.5,228.6,196.4,227.6,195.8,227.1z"/>
		<path class="st19" d="M232.2,152.8c-10.9-0.8-21.8-0.4-32.6,1.2c-0.8,0.1-0.5,1.4,0.3,1.2c10.7-1.6,21.5-2,32.3-1.2
			C233.1,154.2,233,152.9,232.2,152.8z"/>
		<path class="st19" d="M124.9,128.4c-5.7-2.1-10.6-6-14.1-11c-0.5-0.7-1.6,0-1.1,0.7c3.6,5.3,8.8,9.3,14.8,11.5
			C125.3,130,125.7,128.7,124.9,128.4z"/>
		<path class="st19" d="M194.1,95.3c-3,6.2-7.4,11.7-12.7,16.1c-0.6,0.5,0.3,1.4,0.9,0.9c5.4-4.5,9.8-10.1,12.9-16.4
			C195.6,95.2,194.5,94.5,194.1,95.3z"/>
		<path class="st22" d="M153.6,69.3l12.2-16c1.1-1.4,3.1-1.7,4.5-0.6l29.2,22.2c1.4,1.1,1.7,3.1,0.6,4.5l-12.2,16
			c-1.1,1.4-3.1,1.7-4.5,0.6l-29.2-22.2C152.8,72.8,152.5,70.7,153.6,69.3z"/>
		<path class="st28" d="M165.5,68.7c-0.8-0.4-2.1-1.2-3.4-2c-1-0.6-2.2-0.3-2.8,0.6l-1.6,2.1c-0.7,0.9-0.5,2.1,0.3,2.8
			c0,0,0,0,0.1,0.1l14.3,11l0,0c1,0.8,2.1,1.6,3.1,2.3c2.4,1.8,4.7,3.6,7.1,5.3c0.9,0.7,2,1.4,3.3,1c1.1-0.3,3.7-3.8,3.7-4.9
			c0.1-1.3-1-2.2-1.8-2.9c-2.3-1.8-4.7-3.6-7.1-5.4c-0.8-0.7-1.7-1.4-2.7-2.1s0.4-2.2,1.2-1.7s1.9,1.4,2.7,2
			c2.4,1.8,4.7,3.6,7.1,5.3c0.9,0.7,2,1.4,3.3,1c1.1-0.3,3.7-3.8,3.7-4.9c0.1-1.3-1-2.2-1.8-2.9c-2.3-1.8-4.7-3.6-7.1-5.4
			c-0.9-0.7-2-1.6-3.1-2.4l0,0l-14.3-10.9c-0.9-0.7-2.1-0.5-2.8,0.3c0,0,0,0,0,0.1l-1.6,2.2c-0.7,0.9-0.6,2.1,0.2,2.9
			c1.1,1,2.2,2.1,2.8,2.7c0.8,0.8,1.8,2.3,0.8,3.6S166.5,69.3,165.5,68.7z"/>
		<path class="st7" d="M173.4,74.5c-1.2-0.3-1.8-0.1-2.6-0.7c-0.6-0.8-1.3-1.5-2.1-2.2c-1.3-0.9-4.5-2.7-5.8-3.5
			c-1-0.6-2.5-1-3.2-0.1s0.1,2.2,1,3c1.1,1,3.6,3.6,4.9,4.7c0.8,0.6,1.7,1.1,2.7,1.4c0.8,0.6,0.7,1.2,1.3,2.4c1,1.8,4.1,4,6.3,5.5
			s4.5,3.4,6.8,5.1c0.9,0.6,1.9,1.3,3.1,1c0.9-0.3,3.2-3.3,3.2-4.3c0-1.2-1-2-1.8-2.7c-2.2-1.8-4.5-3.4-6.7-5.2S175.4,75,173.4,74.5
			z"/>
		<path class="st29" d="M171.1,74.1c-0.1-0.1-0.3-0.1-0.4-0.2c-0.1,0-0.1-0.1-0.2-0.2l-2.6,3.4l0.2,0.1c0.1,0.1,0.2,0.2,0.3,0.3
			L171.1,74.1z"/>
		<path class="st7" d="M179.9,65.9c-1.3-0.3-1.9-0.1-2.6-0.7c-0.6-0.8-1.3-1.6-2.1-2.2c-1.4-0.9-4.5-2.7-5.8-3.5
			c-1-0.6-2.5-1-3.2-0.1s0.1,2.2,1,3c1.1,1,3.6,3.6,4.9,4.6c0.8,0.6,1.7,1.1,2.7,1.4c0.8,0.6,0.7,1.2,1.3,2.4c1,1.8,4.1,4,6.3,5.5
			s4.5,3.4,6.8,5.1c0.9,0.6,1.9,1.3,3.1,1c1-0.3,3.2-3.3,3.2-4.3c0-1.2-1-2-1.8-2.7c-2.2-1.7-4.5-3.4-6.7-5.2S181.9,66.4,179.9,65.9
			z"/>
		<path class="st29" d="M174.6,68.5l0.2,0.1c0.1,0.1,0.2,0.2,0.3,0.3l2.6-3.4c-0.1-0.1-0.3-0.1-0.4-0.2c-0.1,0-0.1-0.1-0.2-0.2
			L174.6,68.5z"/>
		<path class="st12" d="M168.4,75.3c0.7-0.5,0.9-1.6,0.4-2.3c0,0,0,0,0,0c-0.6-0.9-1.5-1.5-2.6-1.8c-0.7-0.2-1.5,0-1.9,0.6
			c-0.6,1,0.6,2.5,1.5,3.1C166.5,75.5,167.5,75.7,168.4,75.3z"/>
		<path class="st12" d="M171.2,77.1c-0.7,1.2,0.7,3.1,1.8,3.8c0.9,0.6,2.3,1.1,3.3,0.5c0.9-0.7,1.1-2,0.4-2.9c0,0,0,0,0,0
			c-0.8-1.1-1.9-1.8-3.2-2.2C172.7,76,171.7,76.3,171.2,77.1z"/>
		<path class="st12" d="M175,66.7c0.8-0.6,0.9-1.6,0.3-2.4c-0.6-0.9-1.5-1.5-2.6-1.8c-0.7-0.2-1.5,0-1.9,0.6c-0.6,1,0.6,2.5,1.5,3.1
			C173.1,66.9,174.1,67.1,175,66.7z"/>
		<path class="st12" d="M177.7,68.5c-0.7,1.2,0.7,3.1,1.8,3.8c0.9,0.6,2.3,1.1,3.3,0.5c0.9-0.7,1.1-2,0.4-2.9c0,0,0,0,0,0
			c-0.8-1.1-1.9-1.8-3.2-2.2C179.2,67.4,178.2,67.7,177.7,68.5z"/>
		<path class="st5" d="M173.8,83.1c1.8,1.4,6.2,4.7,6.5,4.9c0.5,0.4,4.8-4.8,4.1-5.4c-1.3-1-4.7-3.6-6.6-4.8
			C177.3,77.5,173.5,82.9,173.8,83.1z"/>
		<path class="st5" d="M180.4,74.5c1.8,1.4,6.2,4.7,6.5,4.9c0.5,0.4,4.9-4.8,4.1-5.4c-1.3-1-4.7-3.6-6.6-4.8
			C183.8,68.9,180.1,74.2,180.4,74.5z"/>
		<path class="st10" d="M179,80.8l-1.9,2.4c-0.1,0.1-0.1,0.4,0.1,0.5c0.1,0.1,0.4,0.1,0.5-0.1l1.9-2.4c0.1-0.1,0.1-0.4-0.1-0.5
			C179.3,80.6,179.1,80.7,179,80.8L179,80.8z"/>
		<path class="st10" d="M178.5,79.5l-2.8,3.7c-0.1,0.1-0.1,0.4,0.1,0.5c0.1,0.1,0.4,0.1,0.5-0.1l2.8-3.7c0.1-0.2,0-0.4-0.1-0.5
			C178.8,79.3,178.6,79.4,178.5,79.5z"/>
		<path class="st10" d="M185.5,72.2l-1.9,2.4c-0.1,0.2,0,0.4,0.1,0.5c0.1,0.1,0.3,0.1,0.4-0.1l1.9-2.4c0.1-0.2,0-0.4-0.2-0.4
			C185.7,72.1,185.6,72.1,185.5,72.2z"/>
		<path class="st10" d="M185,70.9l-2.8,3.7c-0.1,0.2,0,0.4,0.1,0.5c0.1,0.1,0.3,0.1,0.4-0.1c0.9-1.2,1.9-2.5,2.8-3.7
			c0.1-0.1,0.1-0.4-0.1-0.5C185.3,70.7,185.1,70.7,185,70.9L185,70.9z"/>
		<path class="st30" d="M225.3,78.9l-6.8-3.9c0.8-1.4,2-3.5,2.9-5l22.1,13c2.3,1.3,16,9.3,19.4,11.3c-0.9,1.6-1.9,3.2-2.8,4.7
			C251.6,94.1,233.7,83.7,225.3,78.9z"/>
		<path class="st31" d="M259.4,102.7c2.1-3.6,4.2-7.2,6.3-10.8c0.2-0.4-0.7-0.9-0.9-0.5l-1.5,2.5c-8.7-5.1-26.5-15.5-34.7-20.3
			l-6.8-4l0.7-1.2c-0.7-0.7-1.6-1.2-2.5-1.5l-4.9,8.4c-0.1,0.2,2.4,1.7,2.5,1.4l0.7-1.1l22.2,12.8c2.3,1.3,16.1,9.4,19.4,11.3
			l-1.5,2.5C258.2,102.5,259.2,103.1,259.4,102.7z M225.3,78.9l-6.8-3.9c0.8-1.4,2-3.5,2.9-5l22.1,13c2.3,1.3,16,9.3,19.4,11.3
			c-0.9,1.6-1.9,3.2-2.8,4.7C251.6,94.1,233.7,83.7,225.3,78.9z"/>
		<path class="st32" d="M197.3,59.6l0.3-0.5c0,0-13.4-7.8-20.2-11.7c-0.6-0.3,0.9,1.2,1.5,1.5C185.6,52.7,197.3,59.6,197.3,59.6z"/>
		<path class="st33" d="M200.7,67.8c-0.1,0.3,0,0.5,0.2,0.7l32.8,18.8c3,1.8,3.4,1.9,6.4,3.7l-1.5,2.6c-0.3,0.5,1.1,1.3,1.4,0.8
			c3-5,6-10.1,9-15.1c0.3-0.5-1.1-1.3-1.4-0.8l-1.6,2.5l-29.6-17.5l-9.3-5.5c-0.3-0.1-0.6-0.1-0.7,0.2
			C204.6,60.8,202.5,65,200.7,67.8z M207,59.1L239.1,78c3,1.8,3.4,2.1,6.4,3.8l-4.9,8.2c-10.9-6.2-19-10.9-29.9-17.1l-8.8-5
			C203.5,65.2,205.4,61.6,207,59.1z"/>
		<path class="st2" d="M203.7,60.9l-4.1-2.1c-0.8-0.4-2-0.9-2.6,0.2s0.3,2,1,2.5c1.3,0.9,2.6,1.7,3.9,2.5L203.7,60.9z"/>
		<path class="st6" d="M202.5,64.7c0.7-1.2,1.4-2.4,2.1-3.6c0.3-0.5-0.6-1.1-0.9-0.5c-0.7,1.2-1.4,2.4-2.1,3.6
			C201.3,64.7,202.2,65.2,202.5,64.7z"/>
		<path class="st30" d="M207,59.1L239.1,78c3,1.8,3.4,2.1,6.4,3.8l-4.9,8.2c-10.9-6.2-19-10.9-29.9-17.1l-8.8-5
			C203.5,65.2,205.4,61.6,207,59.1z"/>
		
			<rect x="205.4" y="59.2" transform="matrix(0.5032 -0.8642 0.8642 0.5032 46.679 215.5952)" class="st26" width="10.9" height="16"/>
		<path class="st34" d="M235.7,78.9c0.1,0.4,0.2,0.8,0.6,0.9c0.5,0,0.7-0.8,0.6-1.2c-0.1-0.2-0.4-0.1-0.3,0.1s0,0.9-0.3,0.7
			s-0.3-0.7-0.2-0.9c0-0.1,0-0.2-0.1-0.2c-0.1,0-0.1,0-0.2,0.1c-0.2,0.3-0.6,0.6-0.9,0.2c-0.2-0.2-0.2-0.5,0-0.7
			c0.1-0.1,0.3-0.2,0.5-0.1c0.2,0.1,0.3-0.2,0.1-0.3c-0.4-0.1-0.9,0.1-1,0.5c-0.1,0.2-0.1,0.4,0,0.6c0.1,0.3,0.4,0.5,0.8,0.5
			C235.4,79.1,235.6,79.1,235.7,78.9z"/>
		<path class="st34" d="M218.4,68.8c-0.3-0.4-0.5-0.9-0.6-1.3c-0.1-0.2-0.4-0.1-0.3,0.1c0.1,0.3,0.2,0.6,0.3,0.8l-1.5-1
			c-0.2-0.1-0.3,0.2-0.2,0.3l2.1,1.4C218.3,69.2,218.5,69,218.4,68.8z"/>
		<path class="st34" d="M225.5,73.6c0.1-0.1,0.4-0.2,0.6-0.2c0.2,0.4,0.6,0.8,1,1c0.7,0.2,0.9-0.8,0.7-1.2c-0.1-0.2-0.4-0.1-0.3,0.1
			c0.1,0.2,0.1,0.4,0.1,0.6c-0.2,0.5-0.4,0.2-0.6,0c-0.2-0.2-0.3-0.4-0.4-0.6c0.3-0.1,0.4-0.4,0.3-0.7c0,0,0,0,0-0.1
			c-0.1-0.2-0.3-0.4-0.6-0.4s-0.3,0.4-0.2,0.6c0,0.1,0,0.2,0.1,0.3l0,0c-0.2,0.1-0.4,0.1-0.6,0.2c-0.1,0-0.1,0.1-0.1,0.2
			C225.3,73.5,225.4,73.6,225.5,73.6z"/>
		<path class="st34" d="M235.6,80.9c0-0.1,0.1-0.1,0.2,0c0,0,0.1,0.1,0,0.1c-0.8,1.3-1.5,2.7-2.3,4c-0.1,0.2-0.3,0-0.2-0.1
			C234.1,83.6,234.8,82.3,235.6,80.9z"/>
		<path class="st34" d="M226.6,75.7c0.1-0.2,0.3,0,0.2,0.1c-0.7,1.4-1.4,2.7-2.2,4.1c0,0.1-0.1,0.1-0.2,0.1c-0.1,0-0.1-0.1-0.1-0.2
			C225.1,78.4,225.9,77.1,226.6,75.7z"/>
		<path class="st34" d="M230.8,79.3c-0.5,1.1-1.1,2.1-1.7,3.2c-0.1,0.2-0.3,0-0.2-0.1c0.6-1.1,1.1-2.1,1.7-3.2
			C230.6,79,230.8,79.2,230.8,79.3z"/>
		<path class="st34" d="M229.3,79.3c0-0.1,0.1-0.1,0.2,0c0,0,0.1,0.1,0,0.1c-0.5,0.8-1,1.7-1.4,2.6c0,0.1-0.1,0.1-0.2,0.1
			c-0.1,0-0.1-0.1-0.1-0.2L229.3,79.3z"/>
		<path class="st34" d="M228.5,78.7c0-0.1,0.1-0.1,0.2,0c0,0,0.1,0.1,0,0.1l-1.5,2.6c0,0.1-0.1,0.1-0.2,0c0,0-0.1-0.1,0-0.1
			L228.5,78.7z"/>
		<path class="st34" d="M227.6,78.1c0-0.1,0.1-0.1,0.2,0c0,0,0.1,0.1,0,0.1c-0.5,0.9-1,1.8-1.5,2.7c0,0.1-0.1,0.1-0.2,0
			c0,0-0.1-0.1,0-0.1C226.6,79.9,227.1,79,227.6,78.1z"/>
		<path class="st34" d="M226.6,77.7c0.1-0.2,0.3,0,0.2,0.1c-0.5,0.8-1,1.7-1.5,2.5c-0.1,0.1-0.3,0-0.2-0.1
			C225.7,79.4,226.2,78.6,226.6,77.7z"/>
		<path class="st34" d="M231.4,80.3L230,83c-0.1,0.2-0.3,0-0.2-0.1c0.5-0.9,1-1.8,1.5-2.7C231.3,80.1,231.4,80.2,231.4,80.3
			C231.4,80.3,231.4,80.3,231.4,80.3z"/>
		<path class="st34" d="M232.1,80.8c0.1-0.1,0.3,0,0.2,0.1c-0.6,0.8-1.1,1.7-1.6,2.6c0,0.1-0.1,0.1-0.2,0c0,0,0-0.1,0-0.1
			C231.1,82.5,231.6,81.6,232.1,80.8z"/>
		<path class="st34" d="M233,81.3c0.1-0.1,0.3,0,0.2,0.1c-0.4,0.9-0.9,1.8-1.5,2.6c-0.1,0.1-0.3,0-0.2-0.1
			C232,83.1,232.5,82.2,233,81.3z"/>
		<path class="st34" d="M233.9,81.9c0.1-0.1,0.3,0,0.2,0.1c-0.6,0.8-1.1,1.6-1.6,2.5c0,0.1-0.1,0.1-0.2,0c-0.1,0-0.1-0.1-0.1-0.2
			C232.8,83.6,233.4,82.7,233.9,81.9z"/>
		<path class="st34" d="M224.8,76.7c0-0.1,0.1-0.1,0.2,0c0,0,0.1,0.1,0,0.1c-0.4,0.8-0.9,1.7-1.4,2.4c-0.1,0.1-0.3,0-0.2-0.1
			C223.9,78.4,224.4,77.6,224.8,76.7z"/>
		<path class="st34" d="M223.9,76.2c0.1-0.1,0.3,0,0.2,0.1c-0.5,0.8-1,1.6-1.4,2.4c-0.1,0.2-0.3,0-0.2-0.1
			C222.9,77.8,223.4,77,223.9,76.2z"/>
		<path class="st34" d="M223,75.7c0.1-0.2,0.3,0,0.2,0.1l-1.4,2.5c0,0.1-0.1,0.1-0.2,0.1c-0.1,0-0.1-0.1-0.1-0.2l0,0L223,75.7z"/>
		<path class="st34" d="M222.1,75.2c0.1-0.1,0.3,0,0.2,0.1l-1.4,2.4c0,0.1-0.1,0.1-0.2,0.1c-0.1,0-0.1-0.1-0.1-0.2L222.1,75.2z"/>
		<path class="st34" d="M221.4,74.4c0.1-0.1,0.3,0,0.2,0.1c-0.6,0.9-1.1,1.8-1.6,2.7c0,0.1-0.1,0.1-0.2,0.1c-0.1,0-0.1-0.1-0.1-0.2
			C220.3,76.2,220.8,75.3,221.4,74.4z"/>
		<path class="st34" d="M220.3,74.1c0-0.1,0.1-0.1,0.2,0c0,0,0.1,0.1,0,0.1l-1.4,2.4c-0.1,0.2-0.3,0-0.2-0.1L220.3,74.1z"/>
		<path class="st34" d="M219.6,73.7c-0.5,0.8-0.9,1.7-1.4,2.5c0,0.1-0.1,0.1-0.2,0.1c-0.1,0-0.1-0.1-0.1-0.2l0,0l1.4-2.5
			C219.5,73.4,219.7,73.5,219.6,73.7z"/>
		<path class="st34" d="M218.5,73c0-0.1,0.1-0.1,0.2-0.1c0.1,0,0.1,0.1,0.1,0.2l0,0l-1.4,2.5c-0.1,0.1-0.3,0-0.2-0.1L218.5,73z"/>
		<path class="st34" d="M217.7,72.4c0.1-0.2,0.3,0,0.2,0.1l-1.5,2.6c0,0.1-0.1,0.1-0.2,0c0,0-0.1-0.1,0-0.1L217.7,72.4z"/>
		<path class="st34" d="M217.6,70.5c0.1-0.2,0.3,0,0.2,0.1c-0.8,1.3-1.5,2.7-2.3,4c0,0.1-0.1,0.1-0.2,0.1c-0.1,0-0.1-0.1-0.1-0.2
			c0,0,0,0,0-0.1C216.1,73.1,216.8,71.8,217.6,70.5z"/>
		<path class="st34" d="M212.7,68.8c-0.5,1.1-1.1,2.1-1.7,3.2c0,0.1-0.1,0.1-0.2,0.1c-0.1,0-0.1-0.1-0.1-0.2c0.6-1,1.1-2.1,1.7-3.2
			C212.6,68.6,212.8,68.7,212.7,68.8z"/>
		<path class="st34" d="M211.3,68.8c0.1-0.2,0.3,0,0.2,0.1l-1.4,2.6c0,0.1-0.1,0.1-0.2,0c-0.1,0-0.1-0.1-0.1-0.2L211.3,68.8z"/>
		<path class="st34" d="M210.5,68.2c0-0.1,0.1-0.1,0.2,0c0,0,0,0.1,0,0.1c-0.5,0.9-1,1.8-1.5,2.6c0,0.1-0.1,0.1-0.2,0
			c-0.1,0-0.1-0.1-0.1-0.2L210.5,68.2z"/>
		<path class="st34" d="M209.6,67.6c0.1-0.2,0.3,0,0.2,0.1c-0.5,0.9-1,1.8-1.5,2.7c0,0.1-0.1,0.1-0.2,0c0,0,0-0.1,0-0.1
			C208.6,69.4,209.1,68.5,209.6,67.6z"/>
		<path class="st34" d="M208.6,67.2c0-0.1,0.1-0.1,0.2-0.1c0.1,0,0.1,0.1,0.1,0.2c-0.5,0.8-1,1.7-1.5,2.5c-0.1,0.1-0.3,0-0.2-0.1
			C207.7,68.9,208.2,68.1,208.6,67.2z"/>
		<path class="st34" d="M213.4,69.8c-0.5,0.9-1,1.8-1.5,2.7c0,0.1-0.1,0.1-0.2,0.1c-0.1,0-0.1-0.1-0.1-0.2l1.5-2.7
			C213.3,69.5,213.5,69.7,213.4,69.8z"/>
		<path class="st34" d="M214.1,70.3c0.1-0.1,0.3,0,0.2,0.1c-0.6,0.8-1.1,1.7-1.6,2.6c0,0.1-0.1,0.1-0.2,0c0,0-0.1-0.1,0-0.1
			C213.1,72,213.6,71.1,214.1,70.3z"/>
		<path class="st34" d="M215,70.8c0.1-0.2,0.3,0,0.2,0.1c-0.4,0.9-0.9,1.8-1.5,2.6c-0.1,0.1-0.3,0-0.2-0.1
			C214,72.6,214.5,71.7,215,70.8z"/>
		<path class="st34" d="M215.9,71.4c0.1-0.1,0.3,0,0.2,0.1c-0.6,0.8-1.1,1.6-1.6,2.5c0,0.1-0.1,0.1-0.2,0.1c-0.1,0-0.1-0.1-0.1-0.2
			C214.8,73.1,215.3,72.2,215.9,71.4z"/>
		<path class="st35" d="M130.6,187.8l-5.3-12.2c-0.6-1.3-2-0.9-2.7,0c-5.3,2-10,5-14,9c-0.6,0.7-0.6,1.7,0.1,2.3
			c0.3,0.3,0.7,0.4,1.1,0.4l9.6,0.2l-4.3,6.9c-0.4,0.8-0.2,1.8,0.6,2.2c0.5,0.3,1.1,0.3,1.6,0l12.8-6.6
			C130.7,189.6,131,188.6,130.6,187.8z"/>
		<path class="st36" d="M141.3,190.3c-3.9-6.8-5.8-25-7.5-24.9c-2.2,0.2-4.3,0.7-6.4,1.4c-1.9,0.5-3.7,1.4-5.3,2.6
			c-3.4,2.8-0.2,7.8,1.2,10.9c1.6,4.2,3.6,8.3,5.9,12.2c0.8,1.5,2.6,2.2,4.2,1.7c2.3-0.4,4.6-1,7-1.6c0.9-0.3,1.3-1.2,1.1-2
			C141.4,190.5,141.3,190.4,141.3,190.3z"/>
		<path class="st35" d="M192.1,192.7c4.3,2.2,8.5,4.4,12.8,6.6c0.8,0.4,1.8,0.1,2.2-0.6c0.3-0.5,0.3-1.1,0-1.6l-4.3-6.9l9.6-0.2
			c0.9,0,1.6-0.8,1.6-1.7c0-0.4-0.2-0.8-0.4-1.1c-4-4-8.7-7-14-9c-0.6-0.9-2.1-1.3-2.6,0l-5.4,12.2
			C191,191.2,191.3,192.2,192.1,192.7z"/>
		<path class="st36" d="M181.7,195.3c2.3,0.5,4.6,1.1,7,1.6c1.6,0.5,3.4-0.2,4.2-1.7c2.3-3.9,4.3-8,5.9-12.2
			c1.4-3.2,4.6-8.1,1.1-10.9c-1.6-1.2-3.4-2-5.3-2.6c-2.1-0.7-4.2-1.1-6.4-1.4c-1.6-0.2-3.6,18.1-7.5,24.9c-0.4,0.8-0.2,1.8,0.6,2.2
			C181.5,195.2,181.6,195.2,181.7,195.3z"/>
		<path class="st37" d="M186.9,164.2l-27.9-2.2c-8.8-0.7-17.7-1.4-26.4,0.6c-0.9,0.2-1.4,1.1-1.1,2c0.1,0.3,4.9,23.2,4.9,23.2
			c0.6,2.7,0.7,6.9,3.4,8.4c1.1,0.5,2.2,0.7,3.4,0.6c1.9,0,3.8,0,5.8,0h22.1c1.8,0,3.6,0,5.4,0c1.4,0.1,2.8-0.2,4.1-0.9
			c2.3-1.5,2.9-4.8,3.7-7.2c2.3-7.4,3.7-15.1,4.2-22.8C188.6,165,187.8,164.2,186.9,164.2C186.9,164.2,186.9,164.2,186.9,164.2z"/>
		<path class="st15" d="M162.1,176.7h-0.8h-0.1c-0.1-3-0.5-6-1.2-8.9c-0.1-0.4-0.5-0.6-0.9-0.5c0,0,0,0,0,0
			c-0.3-0.2-0.7-0.1-0.9,0.3c-0.1,0.1-0.1,0.2-0.1,0.4l0.6,9.6l0,0c-0.1,0.4,0.1,0.7,0.5,0.8c0.1,0,0.1,0,0.2,0h0.6
			c0.2,0,0.4,0,0.7,0h1.6C163,178.1,163.1,176.6,162.1,176.7z"/>
		<path class="st15" d="M150.1,177.4l-2.1,0.1v-3.9c0.6,0,1.3,0,1.9-0.1c0.6,0,0.7-1.1,0-1c-0.7,0.1-1.3,0.1-2,0.1
			c0-1.4,0-2.8,0-4.1h1.9c0.6,0,0.7-1,0-1l-3.5,0.1c-0.2,0-0.4,0.2-0.5,0.4c0,0.1,0,0.1,0,0.2c0,3.3,0,6.6,0,9.9
			c0,0.3,0.2,0.5,0.5,0.5c0,0,0,0,0,0l3.8-0.1C150.7,178.4,150.7,177.4,150.1,177.4z"/>
		<path class="st15" d="M179.4,167.6c-0.1-0.3-0.4-0.4-0.7-0.3c-0.1,0.1-0.2,0.1-0.3,0.3c-0.6,1.5-1,3.1-1.5,4.7
			c-1.1-1.3-1.8-2.9-2.1-4.6c-0.1-0.6-1.1-0.4-1,0.2c0.3,2.1,1.3,4,2.7,5.5c-0.4,1.4-0.7,2.8-1,4.3c-0.1,0.3,0,0.5,0.3,0.6
			c0.2,0.1,0.5,0,0.6-0.2c2.2-3,2.6-6.7,2.8-10.3C179.4,167.7,179.4,167.7,179.4,167.6z"/>
		<path class="st15" d="M166.4,167.3h-3.6c-0.5,0-0.5,0.7,0,0.7h1c0,3.3,0,6.6,0,9.9c0,0.2,0.2,0.4,0.3,0.4c0,0,0,0,0,0h0.6
			c0.2,0,0.4-0.2,0.4-0.4V168h1.2c0.2,0,0.4-0.2,0.4-0.4S166.6,167.3,166.4,167.3z"/>
		<path class="st15" d="M156,170.6c-0.3-0.9-0.6-3.3-1.9-3.4c-1.4-0.1-2,2.6-2.3,3.6c-0.5,2.4-0.7,4.8-0.6,7.2
			c0,0.2,0.2,0.3,0.4,0.2c0.1,0,0.2-0.1,0.2-0.2c0-1.3,0-2.6,0.1-3.9l3.3,0.1c0.1,0.6,0.2,1.2,0.2,1.8c0.1,1.2,0,2.5,1.5,2.2
			c0.1,0,0.2-0.2,0.2-0.3C157.2,175.4,156.8,173,156,170.6z M152,173.5c0.1-0.8,0.2-1.7,0.4-2.5c0.4-2,1.5-2.9,1.6-2.6
			s0.9,3.4,1.2,5.2L152,173.5z"/>
		<path class="st15" d="M144.6,175.7c0-2.6-0.1-5.2-0.2-7.9c0-0.2-0.1-0.3-0.3-0.3h-0.4c-0.2,0-0.3,0.2-0.4,0.3l0.1,5.1
			c-0.7,0-1.5,0.1-2.2,0v-0.7c0-1.1-0.1-4.2-0.4-4.4s-1.1-0.2-1.2,0.3c0,0.1,0,0.1,0,0.2l0,0c0,3.1-0.2,10,0,10.1
			c0.5,0.1,1,0.1,1.5,0c0.1-0.8,0.2-1.6,0.1-2.3c0-0.8,0-1.7,0-2.5c0.8,0,1.5,0,2.3-0.1c0,1.6,0.1,3.1,0.1,4.7
			c0,0.1,0.1,0.3,0.2,0.3C145.2,178.8,144.6,176.3,144.6,175.7z"/>
		<path class="st15" d="M172.8,175.7c-0.1-2.6-0.1-5.2-0.2-7.9c0-0.2-0.1-0.3-0.3-0.3c0,0,0,0,0,0h-0.4c-0.1,0-0.2,0-0.2,0.1
			c-0.1,0-0.2,0.1-0.1,0.2l0.1,5.1c-0.8,0-1.5,0.1-2.2,0c0-0.2,0-0.5,0-0.7c0-1.1-0.1-4.2-0.4-4.4s-1.1-0.2-1.2,0.3
			c0,0.1,0,0.1,0,0.2l0,0c0,3.1-0.2,10,0,10.1c0.5,0.1,1,0.1,1.5,0c0.1-0.8,0.2-1.6,0.1-2.3c0-0.8,0-1.7,0.1-2.5
			c0.8,0,1.5,0,2.3-0.1l0.1,4.7c0,0.1,0.1,0.3,0.2,0.3C173.3,178.8,172.8,176.3,172.8,175.7z"/>
		<path class="st15" d="M169,191.1c-1.1-1.7-2.4-3.4-3.6-5c1.5,0,2.6-1.2,2.6-2.7c0,0,0-0.1,0-0.1c-0.1-1.5-1.4-2.7-2.9-2.5
			c-0.3,0-0.5,0.1-0.8,0.2c-0.1,0-0.2,0.2-0.2,0.3c-0.2,3.4-0.2,6.9,0,10.3c0,0.2,0.2,0.3,0.4,0.3c0.1,0,0.1,0,0.2-0.1
			c0.2,0.1,0.3,0,0.4-0.2c0,0,0-0.1,0-0.1c0-1.3,0.1-2.6,0.1-3.9c1,1.4,2.1,2.7,3.4,3.9C168.8,191.7,169.2,191.4,169,191.1z
			 M165.1,181.4h0.1c2.2-0.6,3.2,4.4-0.1,4.1l0.1-4C165.2,181.5,165.2,181.5,165.1,181.4L165.1,181.4z"/>
		<path class="st15" d="M156.2,190.9l-2.1,0.1c0-1.3,0-2.6,0-3.9c0.6,0,1.3,0,1.9-0.1c0.6,0,0.7-1.1,0-1c-0.7,0-1.3,0-2,0
			c0-1.4,0-2.7,0-4.1h1.9c0.6,0,0.7-1,0-1l-3.5,0.1c-0.2,0-0.4,0.2-0.5,0.4c0,0.1,0,0.1,0,0.2c0,3.3,0,6.6,0,9.9
			c0,0.3,0.2,0.5,0.5,0.5l3.8-0.1C156.9,191.9,156.9,190.9,156.2,190.9z"/>
		<path class="st15" d="M172.5,180.8H169c-0.5,0-0.5,0.7,0,0.7h1c0,3.3,0,6.6,0,9.9c0,0.2,0.2,0.4,0.3,0.4c0,0,0,0,0,0h0.6
			c0.2,0,0.4-0.2,0.4-0.4v-9.9h1.2C173,181.5,173,180.8,172.5,180.8z"/>
		<path class="st15" d="M162.2,184.2c-0.3-0.9-0.6-3.3-1.9-3.4c-1.4-0.1-2,2.6-2.3,3.6c-0.5,2.4-0.7,4.8-0.6,7.2
			c0,0.2,0.2,0.3,0.4,0.2c0.1,0,0.2-0.1,0.2-0.2c0-1.3,0-2.6,0.1-3.9l3.3,0.1c0.1,0.6,0.2,1.2,0.2,1.8c0.1,1.2,0,2.6,1.5,2.2
			c0.1,0,0.2-0.2,0.2-0.3C163.4,189,163,186.5,162.2,184.2z M158.2,187c0.1-0.8,0.2-1.7,0.4-2.5c0.4-2,1.5-2.9,1.6-2.6
			s0.9,3.4,1.2,5.2L158.2,187z"/>
		<path class="st15" d="M150.8,189.2l-0.2-7.9c0-0.2-0.1-0.3-0.3-0.3c0,0,0,0,0,0h-0.4c-0.1,0-0.2,0-0.2,0.1c-0.1,0-0.2,0.1-0.2,0.3
			l0.1,5.1c-0.8,0-1.5,0.1-2.2,0v-0.7c0-1.1-0.1-4.2-0.4-4.4s-1.1-0.2-1.2,0.3c0,0.1,0,0.1,0,0.2l0,0c0,3.1-0.2,10,0,10.1
			c0.5,0.1,1,0.1,1.5,0c0.1-0.8,0.2-1.6,0.1-2.3c0-0.8,0-1.7,0-2.5c0.8,0,1.5,0,2.3-0.1c0,1.6,0.1,3.1,0.1,4.7
			c0,0.1,0.1,0.3,0.2,0.3C151.3,192.4,150.8,189.8,150.8,189.2z"/>
	</g>
</g>
</svg>
