<?xml version="1.0" encoding="utf-8"?>
<!-- Generator: Adobe Illustrator 25.0.0, SVG Export Plug-In . SVG Version: 6.00 Build 0)  -->
<svg version="1.1" id="Layer_1" xmlns="http://www.w3.org/2000/svg" xmlns:xlink="http://www.w3.org/1999/xlink" x="0px" y="0px"
	 viewBox="0 0 300 300" style="enable-background:new 0 0 300 300;" xml:space="preserve">
<style type="text/css">
	.st0{opacity:8.000000e-02;fill:#E13856;enable-background:new    ;}
	.st1{fill:#F22020;}
	.st2{opacity:0.39;}
	.st3{fill:#A31111;}
	.st4{opacity:0.23;}
	.st5{opacity:0.12;}
	.st6{fill:#7F7F7F;}
	.st7{opacity:0.4;}
	.st8{fill:#C61818;}
	.st9{opacity:0.51;}
	.st10{fill:#E51F1F;}
	.st11{opacity:0.5;}
	.st12{fill:#FF5A5A;}
	.st13{opacity:0.32;}
	.st14{opacity:0.61;}
	.st15{fill:#A50A0A;}
	.st16{opacity:0.72;}
	.st17{fill:#D32424;}
	.st18{opacity:0.19;}
</style>
<g>
	<g id="OBJECTS">
		<g id="Page-1">
			<g id="For-you-and-your-partner-Copy-4">
				<g id="Group-4">
					<circle id="Mask-Copy-2" class="st0" cx="150" cy="150" r="150"/>
				</g>
			</g>
		</g>
	</g>
</g>
<g>
	<g>
		<path class="st1" d="M205.5,154.3c-0.6,1.2-0.8,2.9-0.4,4.3c0.1,0.3,0.2,0.5,0.4,0.8c0.4,0.5,0.9,0.9,1.4,1.2
			c0.2,0.1,0.4,0.2,0.6,0.3c0.8,0.3,1.7,0.5,2.6,0.6c0.3,0,0.6,0,0.9,0c1.3,0,2.7-0.5,3.9-0.6c0.3,0,0.6,0,0.9,0.1
			c2.9,1.9,6.5,3,9.9,2c0.3-0.1,0.7-0.2,1-0.4c0.6-0.2,1.1-0.6,1.5-0.9c0.2-0.1,0.3-0.2,0.5-0.4s0.3-0.3,0.5-0.4
			c0.2-0.1,0.4-0.2,0.6-0.3c3.6-1.6,1.3-6.2,0.6-9c-0.1-0.3-0.2-0.6-0.3-0.8c-0.1-0.3-0.2-0.6-0.3-0.8c-0.2-0.6-0.5-1.2-0.7-1.8
			c-0.1-0.2-0.2-0.4-0.3-0.6c-0.2-0.5-0.4-0.9-0.6-1.4c-0.1-0.2-0.2-0.4-0.3-0.6c-1.2-2.1-2.2-4.7-3.9-6.5c-0.2-0.3-0.5-0.5-0.7-0.7
			c-1.6-1.3-3.9-1.6-5.6-0.7c-1.6,0.9-1.8,3-1.8,4.7c0,0.3,0,0.6,0.1,0.9c0.1,0.3,0.2,0.5,0.4,0.8c0.3,0.4,0.8,0.5,1.3,0.5
			c0.1,0,0.2,0,0.3,0s0.3,0,0.4-0.1c0.5-0.1,1-0.9,1.6-0.5c0.3,0.2-0.4,0.8,0.1,1.2c0.3,0.2,0.8,0.4,1.2,0.3
			c1.2-0.3,2.6-0.9,2.7,0.8c0,0.9,0,1.9,0,2.8c0,0.3,0,0.6,0,0.9c0.1,1.8,0.4,3.7,1.4,5.2c-0.2-0.2-0.4-0.3-0.7-0.5
			c-1-0.7-2.2-1.3-3.4-1.6c-0.3-0.1-0.6-0.1-0.9-0.2c-0.2,0-0.5-0.1-0.7-0.1s-0.5,0-0.7,0c-0.9,0.2-2,0.5-2.6,1.3
			c-0.4-1.3-1.3-2.2-2.3-2.8c-0.3-0.1-0.5-0.3-0.8-0.4c-0.6-0.2-1.1-0.3-1.7-0.3c-0.3,0-0.6,0-0.9,0.1c-1.8,0.4-4.2,1-4.9,3.1
			C205.7,154,205.6,154.1,205.5,154.3z"/>
	</g>
	<g class="st2">
		<g>
			<path class="st3" d="M205.8,159.4c0.8,0.3,1.7,0.5,2.6,0.6c0.3,0,0.6,0,0.9,0c1.3,0,2.7-0.5,3.9-0.6c0.3,0,0.6,0,0.9,0.1
				c2.9,1.9,6.5,3,9.9,2c0.3-0.1,0.7-0.2,1-0.4c0.6-0.2,1.1-0.6,1.5-0.9c0.2-0.1,0.3-0.2,0.5-0.4s0.3-0.3,0.5-0.4
				c0.2-0.1,0.4-0.2,0.6-0.3c3.6-1.6,1.3-6.2,0.6-9c-0.1-0.3-0.2-0.6-0.3-0.8c-0.1-0.3-0.2-0.6-0.3-0.8c-0.2-0.6-0.5-1.2-0.7-1.8
				c-0.1-0.2-0.2-0.4-0.3-0.6c-0.2-0.5-0.4-0.9-0.6-1.4c-0.1-0.2-0.2-0.4-0.3-0.6c-1.1-1.9-2.1-4.3-3.6-6.1c0.2,0.1,0.4,0.3,0.6,0.4
				c0.3,0.2,0.5,0.4,0.7,0.7c1.6,1.8,2.7,4.4,3.9,6.5c0.1,0.2,0.2,0.4,0.3,0.6c0.3,0.5,0.4,0.9,0.6,1.4c0.1,0.2,0.2,0.4,0.3,0.6
				c0.3,0.6,0.5,1.2,0.7,1.8c0.1,0.3,0.2,0.6,0.3,0.8c0.1,0.3,0.2,0.6,0.3,0.8c0.7,2.9,3,7.5-0.6,9c-0.2,0.1-0.4,0.2-0.6,0.3
				c-0.2,0.1-0.4,0.2-0.5,0.4c-0.2,0.1-0.3,0.3-0.5,0.4c-0.5,0.4-1,0.7-1.5,0.9c-0.3,0.1-0.7,0.3-1,0.4c-3.3,1-7-0.1-9.9-2
				c-0.3-0.1-0.6-0.1-0.9-0.1c-1.3,0.1-2.6,0.6-3.9,0.6c-0.3,0-0.6,0-0.9,0c-0.9-0.1-1.8-0.3-2.6-0.6c-0.2-0.1-0.4-0.2-0.6-0.3
				c-0.5-0.3-1-0.7-1.4-1.2c0-0.1-0.1-0.1-0.1-0.2C205.5,159.3,205.7,159.3,205.8,159.4z"/>
		</g>
	</g>
	<g class="st4">
		<g>
			<path class="st3" d="M215,152.1c-0.3-0.3-0.7-0.5-1-0.7c-0.3-0.1-0.5-0.3-0.8-0.4c-0.6-0.2-1.1-0.3-1.7-0.3c-0.3,0-0.6,0-0.9,0.1
				c-1.8,0.4-4.2,1-4.9,3.1c-0.1,0.1-0.1,0.2-0.2,0.4c-0.6,1.2-0.8,2.9-0.4,4.3c0.1,0.3,0.2,0.5,0.4,0.8c0.4,0.5,0.9,0.9,1.4,1.2
				c0.2,0.1,0.4,0.2,0.6,0.3c0.8,0.3,1.7,0.5,2.6,0.6c0.3,0,0.6,0,0.9,0c0.2,0,0.5,0,0.7,0c0.5-3,1.3-5.8,2.8-8.5
				C214.6,152.7,214.8,152.4,215,152.1z"/>
		</g>
	</g>
	<g>
		<path class="st1" d="M230.4,151.6c-0.1-0.3-0.2-0.6-0.3-0.8c-0.1-0.3-0.2-0.6-0.3-0.8c-0.2-0.6-0.5-1.2-0.7-1.8
			c-0.1-0.2-0.2-0.4-0.3-0.6c-0.2-0.5-0.4-0.9-0.6-1.4c-0.1-0.2-0.2-0.4-0.3-0.6c-1.2-2.1-2.2-4.7-3.9-6.5c-0.2-0.3-0.5-0.5-0.7-0.7
			c-1.6-1.3-3.9-1.6-5.6-0.7c-1.6,0.9-1.8,3-1.8,4.7c0,0.3,0,0.6,0.1,0.9c0.1,0.3,0.2,0.5,0.4,0.8c0.3,0.4,0.8,0.5,1.3,0.5
			c0.1,0,0.2,0,0.3,0s0.3,0,0.4-0.1c0.5-0.1,1-0.9,1.6-0.5c0.3,0.2-0.4,0.8,0.1,1.2c0.3,0.2,0.8,0.4,1.2,0.3
			c1.2-0.3,2.6-0.9,2.7,0.8c0,0.9,0,1.9,0,2.8c0,0.3,0,0.6,0,0.9c0.1,1.8,0.4,3.7,1.4,5.2c-0.2-0.2-0.4-0.3-0.7-0.5
			c-1-0.7-2.2-1.3-3.4-1.6c-0.3-0.1-0.6-0.1-0.9-0.2c-0.2,0-0.5-0.1-0.7-0.1s-0.5,0-0.7,0c-0.9,0.2-2,0.5-2.6,1.3
			c-0.3-0.8-0.7-1.5-1.3-2c-0.2,0.3-0.4,0.6-0.5,0.8c-1.5,2.7-2.4,5.6-2.8,8.5c1.1-0.1,2.2-0.5,3.2-0.6c0.3,0,0.6,0,0.9,0.1
			c2.9,1.9,6.5,3,9.9,2c0.3-0.1,0.7-0.2,1-0.4c0.6-0.2,1.1-0.6,1.5-0.9c0.2-0.1,0.3-0.2,0.5-0.4s0.3-0.3,0.5-0.4
			c0.2-0.1,0.4-0.2,0.6-0.3C233.5,159.1,231.1,154.5,230.4,151.6z"/>
	</g>
	<g class="st2">
		<g>
			<g>
				<path class="st3" d="M209.3,160c-0.3,0-0.6,0-0.9,0c-0.9-0.1-1.8-0.3-2.6-0.6c-0.1-0.1-0.3-0.1-0.4-0.2c0,0.1,0.1,0.1,0.1,0.2
					c0.4,0.5,0.9,0.9,1.4,1.2c0.2,0.1,0.4,0.2,0.6,0.3c0.8,0.3,1.7,0.5,2.6,0.6c0.3,0,0.6,0,0.9,0c0.2,0,0.5,0,0.7,0
					c0.1-0.6,0.2-1.3,0.3-1.9C211.1,159.8,210.2,160,209.3,160z"/>
			</g>
		</g>
		<g>
			<g>
				<path class="st3" d="M230.4,151.6c-0.1-0.3-0.2-0.6-0.3-0.8c-0.1-0.3-0.2-0.6-0.3-0.8c-0.2-0.6-0.5-1.2-0.7-1.8
					c-0.1-0.2-0.2-0.4-0.3-0.6c-0.2-0.5-0.4-0.9-0.6-1.4c-0.1-0.2-0.2-0.4-0.3-0.6c-1.2-2.1-2.2-4.7-3.9-6.5
					c-0.2-0.3-0.5-0.5-0.7-0.7s-0.4-0.3-0.6-0.4c1.5,1.7,2.4,4.1,3.6,6.1c0.1,0.2,0.2,0.4,0.3,0.6c0.3,0.5,0.4,0.9,0.6,1.4
					c0.1,0.2,0.2,0.4,0.3,0.6c0.3,0.6,0.5,1.2,0.7,1.8c0.1,0.3,0.2,0.6,0.3,0.8c0.1,0.3,0.2,0.6,0.3,0.8c0.7,2.9,3,7.5-0.6,9
					c-0.2,0.1-0.4,0.2-0.6,0.3c-0.2,0.1-0.4,0.2-0.5,0.4c-0.2,0.1-0.3,0.3-0.5,0.4c-0.5,0.4-1,0.7-1.5,0.9c-0.3,0.1-0.7,0.3-1,0.4
					c-3.3,1-7-0.1-9.9-2c-0.3-0.1-0.6-0.1-0.9-0.1c-0.4,0-0.8,0.1-1.2,0.2c-0.1,0.6-0.3,1.3-0.3,1.9c1.1-0.1,2.2-0.5,3.2-0.6
					c0.3,0,0.6,0,0.9,0.1c2.9,1.9,6.5,3,9.9,2c0.3-0.1,0.7-0.2,1-0.4c0.6-0.2,1.1-0.6,1.5-0.9c0.2-0.1,0.3-0.2,0.5-0.4
					s0.3-0.3,0.5-0.4c0.2-0.1,0.4-0.2,0.6-0.3C233.5,159.1,231.1,154.5,230.4,151.6z"/>
			</g>
		</g>
	</g>
	<g class="st5">
		<ellipse class="st6" cx="146.8" cy="243" rx="37.3" ry="3.9"/>
	</g>
	<g>
		<path class="st1" d="M119.6,223.8c0.4,0.8,0.7,1.7,0.9,2.5c0.1,0.4,0.2,0.9,0.3,1.3c0.4,2.2,0.4,4.4,0.2,6.6
			c-0.2,1.8-0.6,3.6-1.1,5.4c-0.2,1-0.4,2.2,0.2,3.1c0.1,0.2,0.3,0.3,0.5,0.5c0.8,0.6,1.9,0.5,2.8,0.5c1.4,0,2.8,0,4.1-0.4
			c0.9-0.3,1.6-0.9,1.9-1.9c0.3-1.2-0.6-2.3-1.7-2.8c-1.7-0.8-3.6-0.3-4.8,1.1c0.2-0.9,0.7-1.7,0.9-2.6c0.3-0.9,0.5-1.9,0.6-2.9
			c0.3-1.9,0.4-3.8,0.3-5.7c0-0.5,0-0.9-0.1-1.4c0-1.8-1.2-5.1-3.6-3.8C120.7,223.3,120.2,223.5,119.6,223.8z"/>
	</g>
	<g class="st7">
		<g>
			<path class="st3" d="M120,239.6c-0.2,1-0.4,2.2,0.2,3.1c0,0.1,0.1,0.1,0.1,0.2c1-3.9,2.3-7.5,2.4-11.4c0.1-1.1,0.1-2.3,0-3.5
				c0.4,0,0.8,0.1,1.1,0.2c0.4,0.5,0.8,1,1,1.5c0-0.4,0-0.8,0-1.2c0-0.5,0-0.9-0.1-1.4c0-1.8-1.2-5.1-3.6-3.8
				c-0.4,0.1-0.9,0.3-1.5,0.6c0.4,0.8,0.7,1.7,0.9,2.5c0.1,0.4,0.2,0.9,0.3,1.3c0.4,2.2,0.4,4.4,0.2,6.6
				C120.9,236.1,120.4,237.8,120,239.6z"/>
		</g>
	</g>
	<g>
		<path class="st1" d="M165.2,223.8c0.4,0.8,0.7,1.7,0.9,2.5c0.1,0.4,0.2,0.9,0.3,1.3c0.4,2.2,0.4,4.4,0.2,6.6
			c-0.2,1.8-0.6,3.6-1.1,5.4c-0.2,1-0.4,2.2,0.2,3.1c0.1,0.2,0.3,0.3,0.5,0.5c0.8,0.6,1.9,0.5,2.8,0.5c1.4,0,2.8,0,4.1-0.4
			c0.9-0.3,1.6-0.9,1.9-1.9c0.3-1.2-0.6-2.3-1.7-2.8c-1.7-0.8-3.6-0.3-4.8,1.1c0.2-0.9,0.7-1.7,0.9-2.6c0.3-0.9,0.5-1.9,0.6-2.9
			c0.3-1.9,0.4-3.8,0.3-5.7c0-0.5,0-0.9-0.1-1.4c0-1.8-1.2-5.1-3.6-3.8C166.3,223.3,165.8,223.5,165.2,223.8z"/>
	</g>
	<g class="st7">
		<g>
			<path class="st3" d="M165.5,239.6c-0.2,1-0.4,2.2,0.2,3.1c0,0.1,0.1,0.1,0.1,0.2c1-3.9,2.3-7.5,2.4-11.4c0.1-1.1,0.1-2.3,0-3.5
				c0.4,0,0.8,0.1,1.1,0.2c0.4,0.5,0.8,1,1,1.5c0-0.4,0-0.8,0-1.2c0-0.5,0-0.9-0.1-1.4c0-1.8-1.2-5.1-3.6-3.8
				c-0.4,0.1-0.9,0.3-1.5,0.6c0.4,0.8,0.7,1.7,0.9,2.5c0.1,0.4,0.2,0.9,0.3,1.3c0.4,2.2,0.4,4.4,0.2,6.6
				C166.4,236.1,166,237.8,165.5,239.6z"/>
		</g>
	</g>
	<g>
		<path class="st8" d="M122.3,75c1.6-4.7,5.6-8,10.2-9.7c0.9-0.3,1.9-0.6,2.8-0.8c0.3-0.1,0.6-0.1,0.9-0.2c0.1-1.7,1.5-3.4,3-4.2
			c1.4-0.8,3.3-0.6,4.4,0.6c1,1,1.6,2.3,1.7,3.6c0.4,0.1,0.7,0.1,1.1,0.2c0.8-1,2-1.8,3.2-2.1c1.6-0.5,3.3,0.2,4.2,1.5
			c0.7,1.1,1,2.3,0.9,3.6c0.5,0.3,1.1,0.6,1.6,0.9c0.9-0.6,2-1.1,2.9-1.2c1.6-0.3,3.2,0.7,3.9,2.2c0.7,1.6,0.7,3.3-0.1,4.8
			c1.7,2,3.1,4.3,4.1,6.8c0.5,1.2,0.8,2.3,1.1,3.5c0.8,3.6,0.6,7.3-1,10.9c-0.4,1.1-1.3,2-2.6,2.4c-1.4,0.5-3,0.7-4.6,0.5
			c-1.5-0.2-3-0.7-4.2-1.6c-0.4-0.4-0.8-0.6-1.1-1c-2.2-3.9-2.2-8.5-5-12c-0.3-0.4-0.6-0.7-1-1.1c-5.2-5.7-14.5-6.1-20.5-1.7
			c-0.9,0.6-1.8,1.4-2.5,2.2c-0.5-0.6-1-1.2-1.5-1.8c-0.5-0.6-1-1.2-1.4-1.9C122.2,77.9,121.8,76.5,122.3,75z"/>
	</g>
	<g>
		<path class="st8" d="M122.3,75c1.6-4.7,5.6-8,10.2-9.7c0.9-0.3,1.9-0.6,2.8-0.8c0.3-0.1,0.6-0.1,0.9-0.2c0.1-1.7,1.5-3.4,3-4.2
			c1.4-0.8,3.3-0.6,4.4,0.6c1,1,1.6,2.3,1.7,3.6c0.4,0.1,0.7,0.1,1.1,0.2c0.8-1,2-1.8,3.2-2.1c1.6-0.5,3.3,0.2,4.2,1.5
			c0.7,1.1,1,2.3,0.9,3.6c0.5,0.3,1.1,0.6,1.6,0.9c0.9-0.6,2-1.1,2.9-1.2c1.6-0.3,3.2,0.7,3.9,2.2c0.7,1.6,0.7,3.3-0.1,4.8
			c1.7,2,3.1,4.3,4.1,6.8c0.5,1.2,0.8,2.3,1.1,3.5c0.8,3.6,0.6,7.3-1,10.9c-0.4,1.1-1.3,2-2.6,2.4c-1.4,0.5-3,0.7-4.6,0.5
			c-1.5-0.2-3-0.7-4.2-1.6c-0.4-0.4-0.8-0.6-1.1-1c-2.2-3.9-2.2-8.5-5-12c-0.3-0.4-0.6-0.7-1-1.1c-5.2-5.7-14.5-6.1-20.5-1.7
			c-0.9,0.6-1.8,1.4-2.5,2.2c-0.5-0.6-1-1.2-1.5-1.8c-0.5-0.6-1-1.2-1.4-1.9C122.2,77.9,121.8,76.5,122.3,75z"/>
	</g>
	<g>
		<path class="st1" d="M202.9,107.1c0.8-2.9,1.8-6,2.5-9.1s1.3-6.2,1.3-9.3c0-0.9,0-1.9-0.1-2.8c0-1,0-1.9-0.2-2.7
			c-0.2-0.9-0.4-1.7-0.8-2.4c-0.3-0.4-0.6-0.9-0.9-1.3c-2.3-2.9-6.2-4-9.8-5.1c-0.4-0.1-0.9-0.2-1.3-0.3c-3.1-0.7-6.2-1.1-9.4-0.4
			c-0.3,0.1-0.6,0.2-1,0.2c-0.7,0.3-1.3,0.6-2,1c-2.6,1.5-4.7,3.8-6.2,6.9c-0.7,1.1-1.4,2.3-2,3.5c-0.4,0.8-0.8,1.6-1.1,2.4
			c-3.2-1-6.4-1.8-9.7-2.4c-11.3-2.1-23.1-2-34.2,0.8c-0.6-3-1.5-5.9-2.8-8.8c-0.5-1.1-1.1-2.2-1.8-3.2c-1.9-2.8-4.2-5.4-7-7.2
			c-0.6-0.4-1.1-0.7-1.8-1c-6.6-3.5-14.1,1.1-18,6.5c-0.3,0.4-0.5,0.9-0.6,1.4c-0.4,1.4,0.1,2.8,0.8,4c0.3,0.5,0.6,1,1,1.6
			c2.4,3.6,5.6,7.2,7.2,11.1c0.5,1,1.1,2,1.6,3.1c0.3,0.5,0.5,1.1,0.8,1.7c-11.8,7.8-17.4,20-21.1,33.2c-7.7,27-1.6,57.1,16.2,78.9
			c15.1,18.6,43.6,41.4,65.5,19.1c4.6-4.7,8.2-10.3,12.2-15.5c1.3-1.8,2.7-3.5,4.1-5.1c2.6-2.9,5.1-5.9,7.3-9.1
			c1.1-1.6,2.2-3.2,3.3-4.8c15.7-22.8,28.4-54.3,11.3-79.8C205.3,110.2,204.2,108.6,202.9,107.1z"/>
	</g>
	<g>
		<path class="st1" d="M206.4,111.9c-1.1-1.7-2.2-3.3-3.5-4.8c0.8-2.9,1.8-6,2.5-9.1s1.3-6.2,1.3-9.3c0-0.9,0-1.9-0.1-2.8
			c0-1,0-1.9-0.2-2.7c-0.2-0.9-0.4-1.7-0.8-2.4c-0.3-0.4-0.6-0.9-0.9-1.3c-2.3-2.9-6.2-4-9.8-5.1c-0.4-0.1-0.9-0.2-1.3-0.3
			c-3.1-0.7-6.2-1.1-9.4-0.4c-0.3,0.1-0.6,0.2-1,0.2c-0.7,0.3-1.3,0.6-2,1c-2.6,1.5-4.7,3.8-6.2,6.9c-0.7,1.1-1.4,2.3-2,3.5
			c-0.4,0.8-0.8,1.6-1.1,2.4c-3.2-1-6.4-1.8-9.7-2.4c-7.1-1.3-14.4-1.8-21.6-1.2c-10.1,7.4-17.9,17.7-24.6,28.1
			c-1.9,2.8-3.6,5.8-5.2,8.8s-3.1,6-4.2,9.2c-1.1,3.1-1.9,6.3-2.3,9.5c-0.4,3.7-0.3,7.4-0.3,11.1c0.1,7.4,0.6,14.9,2.1,22.1
			c0.8,3.6,2,7.1,3.3,10.6c1.2,3.2,2.6,6.2,4.4,9.1c3.5,5.9,8.1,11.2,13.4,15.5c2.5,2.1,5.2,4.1,8.1,5.6c2.8,1.5,5.8,2.5,8.9,3.2
			c10.4,2.3,21.2,0.9,31.7-0.5c1.4-1.9,2.7-3.8,4.1-5.6c1.3-1.8,2.7-3.5,4.1-5.1c2.6-2.9,5.1-5.9,7.3-9.1c1.1-1.6,2.2-3.2,3.3-4.8
			C210.8,168.9,223.4,137.4,206.4,111.9z"/>
	</g>
	<g class="st9">
		<g>
			<path class="st10" d="M206.4,111.9c-1.1-1.7-2.2-3.3-3.5-4.8c0.4-1.5,0.8-3,1.3-4.5c0.4-1.5,0.8-3.1,1.2-4.6
				c0.7-3.1,1.3-6.2,1.3-9.3c0-0.9,0-1.9-0.1-2.8c0-1,0-1.9-0.2-2.7c-0.2-0.9-0.4-1.7-0.8-2.4c-0.3-0.4-0.6-0.9-0.9-1.3
				c-2.3-2.9-6.2-4-9.8-5.1c-0.4-0.1-0.9-0.2-1.3-0.3c-3.1-0.7-6.2-1.1-9.4-0.4c-0.3,0.1-0.6,0.2-1,0.2c-0.7,0.3-1.3,0.6-2,1
				c-2.6,1.5-4.7,3.8-6.2,6.9c-0.7,1.1-1.4,2.3-2,3.5c-0.4,0.8-0.8,1.6-1.1,2.4c-2.4-0.8-4.8-1.4-7.2-1.9c-0.8-0.2-1.6-0.3-2.5-0.5
				c-1.3-0.2-2.6-0.3-3.9-0.3c-1.3-0.1-2.6,0.2-3.9-0.1c-5-1.3-9.9-0.8-14.9-0.1c-1.3,0.2-2.5,0.5-3.8,0.7c-3.5,0.7-7.7-0.1-8.6-3.9
				c-0.5-1.4-1.1-2.9-1.8-4.2c-0.5-1.1-1.1-2.2-1.8-3.2c-1.9-2.8-4.2-5.4-7-7.2c-0.6-0.4-1.1-0.7-1.8-1c-6.6-3.5-14.1,1.1-18,6.5
				c-0.3,0.4-0.5,0.9-0.6,1.4c-0.4,1.4,0.1,2.8,0.8,4c0.3,0.5,0.6,1,1,1.6c2.4,3.6,5.6,7.2,7.2,11.1c0.5,1,1.1,2,1.6,3.1
				c0.3,0.5,0.5,1.1,0.8,1.7c-1.5,1-2.9,2-4.1,3.1c-1.3,1.1-2.5,2.3-3.7,3.6c-1.2,1.3-2.2,2.6-3.2,4c-4.9,6.7-7.8,14.6-10.1,22.6
				c-0.5,1.7-0.9,3.3-1.2,5c-0.4,1.7-0.7,3.4-0.9,5.1c-0.3,1.7-0.5,3.5-0.6,5.2c-1.5,15.8,1.4,31.9,8.2,46.2c1,2,2,4.1,3.1,6
				c1.1,2,2.3,3.9,3.6,5.8c6,8.5,13.3,16.1,21.5,22.6c1.7,1.3,3.4,2.5,5.1,3.6c8.8,5.6,18.4,8.9,27.7,7.1c1.2-0.2,2.3-0.6,3.5-1
				c1.6-0.5,3.1-1.2,4.4-2.2c0.4-0.3,0.9-0.7,1.3-1.1c1.4-1.7,2.6-3.7,3.6-5.8c0.3-0.7,0.6-1.4,0.9-2.2c0.2-0.5,0.3-1,0.5-1.5
				c0.5-2.4,1.2-5.8-0.6-6.8c-2.6-1.5-5.6,1.6-8.5,2.8c-0.4,0.2-0.8,0.4-1.2,0.5c-0.5,0.1-1,0.3-1.5,0.3c-0.5,0.1-1,0.1-1.5,0.1
				c-24.2-0.3-40.1-24.6-45-46c-0.4-2.2-0.8-4.4-1-6.6c-0.5-4.4-0.7-8.8-0.6-13.1c0-1.8,0.1-3.5,0.3-5.3c0.6-5.3,2-10.4,4-15.4
				c0.8-2,1.7-4,2.6-6s1.9-3.9,3-5.9c5.7-10.3,16.8-15.9,28.1-16.5c2-0.1,3.9-0.1,5.9-0.1c9.9,0.1,19.8,1.3,28.9,5.6
				c1.6,0.7,3.1,1.6,4.6,2.5c14,9,19.2,27.5,15.5,43.7c-0.4,1.8-0.9,3.5-1.6,5.1c-5.8,14.2-14.2,27-26.1,37.3c-2,1.7-3.8,5-1.5,7.3
				c0.4,0.3,0.9,0.1,1.4-0.1c0.9-0.5,1.7-1.1,2.8-1.5c11.4-3.7,19.1-12.9,25.9-22.1c1.3-1.8,2.5-3.7,3.6-5.7
				c6.3-11.8,10.4-25.2,9.9-38.7c-0.1-1.5-0.2-2.9-0.4-4.4s-0.4-2.9-0.7-4.3c-0.3-1.4-0.7-2.9-1.1-4.3c-0.4-1.4-1-2.8-1.5-4.1
				c-0.6-1.3-1.2-2.7-1.9-4C208,114.4,207.2,113.2,206.4,111.9z"/>
		</g>
	</g>
	<g class="st11">
		<g>
			<g>
				<path class="st12" d="M157.9,85.3c3.3,0.6,6.5,1.4,9.7,2.4c0.2-0.4,0.3-0.8,0.5-1.2c-1.8-0.5-3.7-0.9-5.6-1.3
					c-5.9-1.1-11.9-1.6-17.8-1.4C149.1,84,153.5,84.4,157.9,85.3z"/>
			</g>
		</g>
		<g>
			<g>
				<path class="st12" d="M110.3,65.8c0.6,0.3,1.2,0.6,1.8,1c2.8,1.8,5.2,4.4,7,7.2c0.7,1.1,1.3,2.1,1.8,3.2
					c1.4,2.8,2.2,5.8,2.8,8.8c1.4-0.4,2.9-0.7,4.4-0.9c-0.6-2.7-1.4-5.3-2.6-7.8c-0.5-1.1-1.1-2.2-1.8-3.2c-1.9-2.8-4.2-5.4-7-7.2
					c-0.6-0.4-1.1-0.7-1.8-1c-2.4-1.2-4.8-1.5-7.2-1C108.5,65,109.4,65.3,110.3,65.8z"/>
			</g>
		</g>
		<g>
			<g>
				<path class="st12" d="M202.9,107.1c0.8-2.9,1.8-6,2.5-9.1s1.3-6.2,1.3-9.3c0-0.9,0-1.9-0.1-2.8c0-1,0-1.9-0.2-2.7
					c-0.2-0.9-0.4-1.7-0.8-2.4c-0.3-0.4-0.6-0.9-0.9-1.3c-2.3-2.9-6.2-4-9.8-5.1c-0.4-0.1-0.9-0.2-1.3-0.3c-2.7-0.6-5.3-1-8-0.6
					c1.2,0.1,2.3,0.4,3.4,0.6c0.4,0.1,0.9,0.2,1.3,0.3c3.5,1.1,7.4,2.2,9.8,5.1c0.3,0.4,0.6,0.8,0.9,1.3c0.4,0.8,0.6,1.6,0.8,2.4
					c0.2,0.9,0.3,1.8,0.2,2.7c0.1,0.9,0.1,1.9,0.1,2.8c-0.1,3-0.6,6.2-1.3,9.2c-0.6,3-2.9,6.6-1.8,8.7c7.1,12.8,13.2,26.8,10.6,42.1
					c-2.6,15.3-9.6,28.5-17.5,41.1c-1.2,1.8-2.5,3.7-3.8,5.4c-1.3,1.8-2.7,3.5-4.2,5.2s-3,3.3-4.5,5c-5.8,6.6-10.2,14.4-16.3,20.6
					c-5.8,5.9-12,8.6-18.3,9.2c7.9,0.6,15.7-1.8,22.9-9.2c4.6-4.7,8.2-10.3,12.2-15.5c1.3-1.8,2.7-3.5,4.1-5.1
					c2.6-2.9,5.1-5.9,7.3-9.1c1.1-1.6,2.2-3.2,3.3-4.8c15.7-22.8,28.4-54.3,11.3-79.8C205.3,110.2,204.2,108.6,202.9,107.1z"/>
			</g>
		</g>
	</g>
	<g class="st13">
		<g>
			<path class="st3" d="M108.2,207.1c-17.7-21.8-23.8-51.9-16.2-78.9c3.2-11.1,7.6-21.5,16-29.2c0.3-0.3,0.6-0.6,0.9-0.8
				c2.4-1.4,4.4-4.6,2.1-7.1c-0.1-0.3-0.3-0.5-0.4-0.8c-1.5-3.9-4.8-7.4-7.2-11.1c-0.3-0.5-0.7-1-1-1.6c-0.8-1.2-1.2-2.6-0.8-4
				c0.1-0.5,0.3-0.9,0.6-1.4c2.4-3.3,6.2-6.3,10.3-7.3c-6-1.6-12.4,2.5-15.9,7.3c-0.3,0.4-0.5,0.9-0.6,1.4c-0.4,1.4,0.1,2.8,0.8,4
				c0.3,0.5,0.6,1,1,1.6c2.4,3.6,5.6,7.2,7.2,11.1c0.5,1,1.1,2,1.6,3.1c0.3,0.5,0.5,1.1,0.8,1.7c-11.8,7.8-17.4,20-21.1,33.2
				c-7.7,27-1.6,57.1,16.2,78.9c11.2,13.8,29.8,30,47.7,28.2C134.3,233.7,118.2,219.4,108.2,207.1z"/>
		</g>
	</g>
	<g>
		<path class="st8" d="M198.9,84.7c0.5,0.1,1.1,0.2,1.7,0.3c0.4,0.1,0.8,0.1,1.2,0c2.2-0.8-1.2-4.8-2.2-5.3c-3.5-2-8.5-2.5-12.5-2.9
			c-1.6-0.1-3.2,1.6-2.2,3.2c0.7,1.1,2.6,1.4,3.7,1.8C192,82.8,195.4,84,198.9,84.7z"/>
	</g>
	<g class="st14">
		<g>
			<path class="st15" d="M201.3,83.1c-0.6-0.1-1.1-0.2-1.7-0.3c-3.5-0.7-6.9-1.9-10.3-3.1c-1.1-0.4-3.1-0.7-3.7-1.8
				c-0.2-0.3-0.3-0.5-0.3-0.8c-0.7,0.6-1.1,1.6-0.5,2.6c0.7,1.1,2.6,1.4,3.7,1.8c3.4,1.2,6.7,2.4,10.3,3.1c0.5,0.1,1.1,0.2,1.7,0.3
				c0.4,0.1,0.8,0.1,1.2,0c0.8-0.3,0.9-1,0.6-1.8C202,83.2,201.6,83.1,201.3,83.1z"/>
		</g>
	</g>
	<g>
		<path class="st8" d="M168.3,84.5c-0.3-1.2-0.6-2.4-1.1-3.5c-1-2.5-2.4-4.8-4.1-6.8c0.7-1.5,0.8-3.2,0.1-4.8
			c-0.7-1.5-2.3-2.4-3.9-2.2c-1,0.1-2.1,0.5-2.9,1.2c-0.5-0.3-1.1-0.6-1.6-0.9c0.1-1.2-0.2-2.5-0.9-3.6c-0.9-1.4-2.6-2-4.2-1.5
			c-1.1,0.3-2.4,1.1-3.2,2.1c-0.4-0.1-0.7-0.1-1.1-0.2c-0.1-1.3-0.7-2.6-1.7-3.6c-1.2-1.1-3-1.4-4.4-0.6c-1.4,0.8-2.9,2.5-3,4.2
			c-0.3,0.1-0.6,0.1-0.9,0.2c-1,0.2-1.9,0.5-2.8,0.8c-4,1.4-7.5,4.1-9.4,7.9c1.7,2.6,3,5.6,4,8.6c0.4-0.3,0.8-0.7,1.3-1
			c6.1-4.4,15.4-4,20.5,1.7c0.4,0.4,0.7,0.7,1,1.1c2.9,3.6,2.9,8.1,5,12c0.3,0.4,0.7,0.7,1.1,1c1.2,0.9,2.6,1.5,4.2,1.6
			c1.5,0.2,3.1,0,4.6-0.5c1.2-0.4,2.2-1.3,2.6-2.4C168.9,91.8,169.1,88.1,168.3,84.5z"/>
	</g>
	<g>
		<path class="st3" d="M123.3,73.4c0.3-0.8,0.7-1.6,1.1-2.3c-0.5,0.6-0.9,1.3-1.3,2C123.2,73.2,123.2,73.3,123.3,73.4z"/>
	</g>
	<g>
		<path class="st3" d="M165.6,96.5c-1.4,0.5-3,0.7-4.6,0.5c-1.5-0.2-3-0.7-4.2-1.6c-0.4-0.4-0.8-0.6-1.1-1c-2.2-3.9-2.2-8.5-5-12
			c-0.3-0.4-0.6-0.7-1-1.1c-5.2-5.7-14.5-6.1-20.5-1.7c-0.8,0.5-1.5,1.2-2.2,1.9c0,0.1,0.1,0.2,0.1,0.4c0.4-0.3,0.8-0.7,1.3-1
			c6.1-4.4,15.4-4,20.5,1.7c0.4,0.4,0.7,0.7,1,1.1c2.9,3.6,2.9,8.1,5,12c0.3,0.4,0.7,0.7,1.1,1c1.2,0.9,2.6,1.5,4.2,1.6
			c1.5,0.2,3.1,0,4.6-0.5c1.2-0.4,2.1-1.3,2.5-2.3C166.8,95.9,166.2,96.3,165.6,96.5z"/>
	</g>
	<g class="st16">
		<g>
			<path class="st17" d="M144.9,64.5c-0.4-0.1-0.7-0.1-1.1-0.2c-0.1-1.3-0.7-2.6-1.7-3.6c-0.5-0.5-1.1-0.8-1.8-1
				c1.2-0.3,2.5,0.1,3.4,1s1.5,2.1,1.7,3.3C145.2,64.1,145,64.3,144.9,64.5z"/>
		</g>
		<g>
			<path class="st17" d="M155.6,67.9c-0.3,0.1-0.5,0.3-0.8,0.5c-0.5-0.3-1.1-0.6-1.6-0.9c0.1-1.2-0.2-2.5-0.9-3.6
				c-0.5-0.8-1.4-1.4-2.3-1.6c1.5-0.4,3.1,0.3,3.9,1.6c0.7,1.1,1,2.3,0.9,3.6C155.1,67.6,155.3,67.7,155.6,67.9z"/>
		</g>
		<g>
			<path class="st17" d="M163.2,97.7c1.2-0.4,2.2-1.3,2.6-2.4c1.5-3.5,1.8-7.2,1-10.9c-0.3-1.2-0.6-2.4-1.1-3.5
				c-1-2.5-2.4-4.8-4.1-6.8c0.7-1.5,0.8-3.2,0.1-4.8c-0.5-1.1-1.5-1.9-2.6-2.1c0.1,0,0.2,0,0.3,0c1.6-0.3,3.2,0.7,3.9,2.2
				c0.7,1.6,0.7,3.3-0.1,4.8c1.7,2,3.1,4.3,4.1,6.8c0.5,1.2,0.8,2.3,1.1,3.5c0.8,3.6,0.6,7.3-1,10.9c-0.4,1.1-1.3,2-2.6,2.4
				c-1.3,0.5-2.8,0.7-4.2,0.5C161.4,98.2,162.3,98,163.2,97.7z"/>
		</g>
		<g>
			<path class="st17" d="M127.1,81.7c0.4-0.3,0.8-0.7,1.3-1c2.5-1.8,5.6-2.8,8.7-3c-3.6-0.2-7.3,0.8-10.3,3
				C126.9,81.1,127,81.4,127.1,81.7z"/>
		</g>
	</g>
	<g>
		<path class="st8" d="M100.7,71.5c1.7-1.2,3.5-2.3,5.5-3.1c0.3-0.1,0.6-0.3,1-0.4c1.4-0.7,3.2-0.9,4.3,0.3c1.8,1.7-0.5,4.1-2.2,4.9
			c-0.3,0.2-0.6,0.3-0.9,0.5c-2.2,1.1-4.6,1.7-7.1,1.9c-0.3,0-0.6-0.1-0.8-0.2c-0.5-0.2-0.9-0.5-1.1-1.1c-0.1-0.4,0-0.8,0.1-1.2
			c0.2-0.4,0.4-0.7,0.6-1C100.3,71.9,100.5,71.7,100.7,71.5z"/>
	</g>
	<g class="st14">
		<g>
			<path class="st15" d="M111.5,68.3c-0.3-0.3-0.7-0.6-1.1-0.7c0.4,1.5-1.4,3.3-2.8,3.9c-0.3,0.2-0.6,0.3-0.9,0.5
				c-2.2,1.1-4.6,1.7-7.1,1.9c-0.1,0-0.2,0-0.3,0c0,0.1,0,0.3,0,0.4c0.1,0.6,0.6,0.9,1.1,1.1c0.3,0.1,0.5,0.2,0.8,0.2
				c2.4-0.2,4.9-0.9,7.1-1.9c0.3-0.2,0.6-0.3,0.9-0.5C111,72.3,113.2,69.9,111.5,68.3z"/>
		</g>
	</g>
	<g class="st11">
		<g>
			<path class="st12" d="M90.9,148.1c0.1-0.1,0.1-0.2,0.2-0.2c0.3-0.4,0.4-1,0.5-1.5c0.4-2.5,0.6-5.1,0.9-7.7
				c0.5-3.8,1.3-7.5,2.3-11.2c0-0.3-0.3-0.6-0.4-0.9c-1.1-1.2-3.1,0.4-3.7,1.4c-1.2,3.8-2.1,7.7-2.7,11.6c-0.2,1-0.3,1.9-0.4,2.9
				c0,0.3-0.1,0.7-0.1,1c-0.1,1.1-0.5,2.2-0.5,3.3C87.1,148.7,89.6,149.4,90.9,148.1z"/>
		</g>
	</g>
	<g class="st11">
		<g>
			<path class="st12" d="M131.6,220.6c-12.9-9-24.4-20.6-31.4-34.7c-1.2-2.4-2.2-4.8-3.1-7.3s-1.7-5-2.3-7.6c-1.3-3.6-3-6.7-4.9-5.8
				c-0.9,0.4-1.5,1.4-1.6,2.4c-0.2,1.5,0.4,3.1,0.7,4.6c1.1,5.2,2.8,10.2,4.9,15c1.1,2.4,2.2,4.8,3.5,7.1
				c9.6,16.8,24.6,30.6,42.8,37.5c6.1,2.4,13.5,0.9,18.4-3.6c-8.3,2-16.7-1.3-23.7-5.5C133.8,222.1,132.7,221.4,131.6,220.6z"/>
		</g>
	</g>
	<g class="st11">
		<g>
			<path class="st12" d="M200.1,115.2c1.8-0.6,2.7-2.6,2.1-4.3c-0.6-1.6-2.1-3.5-4-2.9c-1.4,0.5-2.2,1.9-2,3.4
				c0.2,1.8,1.9,2.8,3.3,3.4C199.8,115,199.9,115.1,200.1,115.2z"/>
		</g>
	</g>
	<g class="st11">
		<g>
			<path class="st12" d="M209.4,124.7c-0.9-2.5-0.6-5.5-2.8-7.4c-1.6-1.4-4.4-1.3-5.3,0.4c-1.9,3.9-0.3,9.1,3.4,11.6
				c0.5,0.3,1.1,0.6,1.7,0.8c1.2,0.4,1.9-0.2,2.4-1.1c0.4-0.9,0.7-1.9,0.7-2.9C209.6,125.6,209.5,125.2,209.4,124.7z"/>
		</g>
	</g>
	<g class="st11">
		<g>
			<path class="st12" d="M117.3,76.3c1.3-0.4,2.6-0.8,3.8-1.3c-0.7-1.2-1.6-2.3-2.5-3.3c-0.4-0.3-0.7-0.1-1.1,0.2
				c-0.4,0.3-0.8,0.6-1.2,0.8c-0.3,0.2-0.7,0.4-1.1,0.6c0.7,0.9,1.4,1.8,1.9,2.7C117.2,76.1,117.2,76.2,117.3,76.3z"/>
		</g>
	</g>
	<g class="st11">
		<g>
			<path class="st12" d="M118.9,79.5c0.5,1.2,1,2.5,1.3,3.9c0.1,0.3,0.2,0.7,0.2,1c0.1,0.4,0.2,0.8,0.3,1.2c0.1,0.4,0.1,0.8,0.2,1.2
				c0.4-0.1,0.8-0.2,1.1-0.3c0.3-0.1,0.7-0.3,0.9-0.5c0.5-0.3,0.9-0.7,1.1-1.2c0-2.2-0.5-4.5-1.4-6.7
				C121.4,78.6,120.1,79.1,118.9,79.5z"/>
		</g>
	</g>
	<g class="st11">
		<g>
			<path class="st12" d="M199.9,92.2c0.1,0.6,0.4,1.4,1.1,1.5c0.7,0.1,1.7-0.3,1.9-1.1c0.1-0.2,0.2-0.4,0.3-0.7
				c0.4-1.2,0.4-2.6,0-3.5c-0.3-0.8-1.4-1.3-2.3-0.9c-1.1,0.4-1.4,1.6-1.3,2.8c0,0.2,0,0.5,0.1,0.7c0,0.3,0.1,0.5,0.1,0.7
				C199.9,91.9,199.9,92.1,199.9,92.2z"/>
		</g>
	</g>
	<g class="st11">
		<g>
			<path class="st12" d="M199.3,95.8c-0.5,0.5-0.7,1.1-0.9,1.8c-0.1,0.3-0.2,0.5-0.3,0.7c-0.1,0.3-0.2,0.5-0.2,0.8
				c-0.3,1.3-0.4,2.7,0.9,3.3c1.3,0.6,1.9-1.2,2.6-2.1c0.1-0.2,0.2-0.4,0.3-0.7c0.1-0.1,0.1-0.2,0.2-0.3c0.2-0.4,0.3-0.7,0.4-1.1
				c0-0.1,0-0.3,0-0.4c0-0.3,0-0.7-0.1-1s-0.2-0.6-0.3-0.8c-0.1-0.1-0.2-0.2-0.3-0.3c-0.6-0.5-1.4-0.4-2,0
				C199.4,95.7,199.3,95.8,199.3,95.8z"/>
		</g>
	</g>
	<g class="st11">
		<g>
			<path class="st12" d="M95.9,122.3c-2.1-0.7-1.7-3.5-1.4-5.1c0.9-4.8,3.1-9.3,6.7-12.8c0.8-0.8,3-1,3,0.4
				c-0.1,5.7-4.1,10.6-6.5,15.8C97.4,120.8,97.2,121.2,95.9,122.3z"/>
		</g>
	</g>
	<g class="st18">
		<g>
			<path class="st12" d="M133.4,72.2c0.1,0.2,0.4,0.3,0.6,0.3c6.4-0.1,13.3,0.6,18.2,5c0.7,0.6,1.8,1.8,2.7,1
				c1.9-1.5,1.2-4.3-0.4-5.8c-0.7-0.7-1.5-1.2-2.2-1.8c-0.8-0.5-1.6-1-2.5-1.3c-5.2-2.4-11.4-2.1-16.4,0.7c-0.4,0.2-0.6,1-0.2,1.4
				C133.2,71.9,133.3,72,133.4,72.2z"/>
		</g>
	</g>
	<g class="st5">
		<g>
			<path class="st3" d="M94,143.7c-2.3-0.4-4.7,1-5.3,3.2c-3.4,13.2-0.9,26.8,4.4,38.8c8.5,19.1,23.2,36.3,43.8,42.4
				c2.7,0.9,5.4,1.3,8.2,1.2c8.1-0.3,15.9-4.9,20.5-11.7c1.4-2,3.3-4.2,4.6-6.3c1.3-2.2,2-4.4,1-6.5c-1-2.2-4.6,0-6.1,1.9
				c-2.4,3.5-5.3,7-8.8,9.6c-3.5,2.5-7.6,4-12.2,3.4c-14.5-2.7-24.8-14.1-34-25.2c-10.2-12.4-12-28.1-11.4-43.3
				c0.1-1.3-0.3-2.6-0.7-3.9C97.3,145.3,96.1,143.8,94,143.7z"/>
		</g>
	</g>
	<g>
		<path class="st1" d="M90.9,153.2c0.3,1,0.6,2.2,0.7,3.3c0.1,0.6,0.1,1.1,0,1.7c-0.1,2.1-1.3,4-3.2,4.8c-2.3,0.9-4.6-0.1-6.7-1
			c-0.5-0.3-1-0.5-1.5-0.7c-0.6-0.2-1.1-0.4-1.8-0.5c-0.4-0.1-0.8-0.1-1.2,0c-3.8,2.2-8.5,3.2-12.7,1.7c-0.4-0.1-0.8-0.3-1.2-0.5
			c-0.7-0.4-1.3-0.8-1.9-1.3c-0.2-0.2-0.4-0.3-0.6-0.5c-0.2-0.2-0.4-0.4-0.6-0.5c-0.2-0.2-0.5-0.3-0.7-0.4c-4.5-2.3-1.1-7.9,0-11.5
			c0.1-0.3,0.3-0.7,0.4-1c0.1-0.3,0.3-0.7,0.5-1c0.3-0.8,0.7-1.5,1.1-2.3c0.1-0.2,0.3-0.5,0.4-0.8c0.3-0.6,0.6-1.2,0.9-1.7
			c0.1-0.2,0.3-0.5,0.4-0.7c1.7-2.5,3.2-5.8,5.5-7.9c0.3-0.3,0.7-0.6,1-0.8c2.1-1.5,5.1-1.7,7.2-0.4c2,1.3,2.1,3.9,1.9,6.1
			c0,0.4-0.1,0.7-0.2,1.1c-0.1,0.3-0.3,0.7-0.6,1c-0.4,0.4-1.1,0.5-1.7,0.5c-0.1,0-0.2,0-0.4,0c-0.2,0-0.3-0.1-0.5-0.1
			c-0.7-0.2-1.2-1.3-1.9-0.8c-0.4,0.2,0.5,1-0.2,1.5c-0.4,0.3-1.1,0.4-1.5,0.3c-1.5-0.5-3.2-1.4-3.4,0.8c-0.1,1.2-0.2,2.4-0.3,3.5
			c0,0.4-0.1,0.8-0.1,1.2c-0.3,2.3-0.9,4.6-2.2,6.5c0.3-0.2,0.6-0.4,0.9-0.6c1.3-0.8,2.8-1.4,4.4-1.7c0.4-0.1,0.8-0.1,1.2-0.1
			c0.3,0,0.6,0,0.9,0s0.6,0.1,0.9,0.1c1.2,0.4,2.4,0.8,3.1,1.9c0.6-1.6,1.8-2.7,3.2-3.3c0.3-0.2,0.7-0.3,1.1-0.4
			c0.7-0.2,1.5-0.3,2.2-0.2c0.4,0,0.7,0.1,1.1,0.2c1.5,0.4,3.4,1,4.6,2.1c0.3,0.3,0.6,0.6,0.8,1c0.2,0.4,0.4,0.8,0.5,1.2
			C90.7,152.8,90.8,153,90.9,153.2z"/>
	</g>
	<g class="st5">
		<g>
			<path class="st3" d="M90.9,153.2c-0.3-0.5-0.4-1.2-0.8-1.7c-0.2-0.4-0.5-0.7-0.8-1c-1.2-1.1-3.1-1.7-4.6-2.1
				c-0.3-0.1-0.5-0.1-0.8-0.2c0.9,0.6,1.7,1.5,2.2,2.4c0.3,0.6,0.6,1.2,0.9,1.8c0.8,1.9,0.4,4.2-0.9,5.7c-1.2,1.3-3,1.5-4.6,1.9
				c-0.6,0.1-1.3,0.2-1.9,0.3s-1.3,0.2-1.9,0.3c-0.4,0.1-0.9,0.2-1.3,0.4c-0.4,0.1-0.8,0.3-1.3,0.5c-0.7,0.3-1.4,0.7-2.1,1.1
				c1.5-0.4,3-1.1,4.3-1.8c0.4-0.1,0.8-0.1,1.2,0c0.3,0.1,0.7,0.1,1,0.2c2.6,0.9,5,3.1,7.9,2.7c4.2-0.5,4.7-5.7,3.9-9.1
				C91.2,154.1,91,153.6,90.9,153.2z"/>
		</g>
	</g>
	<g class="st2">
		<g>
			<path class="st3" d="M90.6,160.7c-3.2,2.5-6.7-0.9-10-1.7c-0.5-0.1-1,0-1.4,0.1c-0.4,0.2-0.8,0.4-1.3,0.6c-0.5,0.2-1,0.4-1.5,0.6
				c-3.1,1.1-6.6,1.5-9.7,0.4c-0.4-0.1-0.8-0.3-1.2-0.5c-0.7-0.4-1.3-0.8-1.9-1.3c-0.2-0.2-0.4-0.3-0.6-0.5
				c-0.2-0.2-0.4-0.4-0.6-0.5c-0.2-0.2-0.5-0.3-0.7-0.4c-4.5-2.3-1.1-7.9,0-11.5c0.1-0.3,0.3-0.7,0.4-1c0.1-0.3,0.3-0.7,0.5-1
				c0.3-0.8,0.7-1.5,1.1-2.3c0.1-0.2,0.3-0.5,0.4-0.8c0.3-0.6,0.6-1.2,0.9-1.7c0.1-0.2,0.3-0.5,0.4-0.7c1.6-2.4,3-5.3,5-7.4
				c-0.3,0.1-0.5,0.3-0.8,0.5s-0.7,0.5-1,0.8c-2.2,2.1-3.8,5.3-5.5,7.9c-0.1,0.2-0.3,0.5-0.4,0.7c-0.4,0.6-0.6,1.1-0.9,1.7
				c-0.1,0.3-0.2,0.5-0.4,0.8c-0.4,0.7-0.8,1.5-1.1,2.3c-0.2,0.3-0.3,0.7-0.5,1c-0.1,0.3-0.3,0.7-0.4,1c-1.1,3.6-4.5,9.2,0,11.5
				c0.2,0.1,0.5,0.3,0.7,0.4c0.2,0.2,0.5,0.3,0.6,0.5c0.2,0.2,0.4,0.3,0.6,0.5c0.6,0.5,1.2,1,1.9,1.3c0.4,0.2,0.8,0.4,1.2,0.5
				c4.1,1.5,8.9,0.4,12.7-1.7c0.4-0.1,0.8-0.1,1.2,0c0.3,0.1,0.7,0.1,1,0.2c2.6,1.3,5.3,2.8,8.3,2.6c1.7-0.1,3.1-1.5,3.4-3.2
				C90.9,160.5,90.8,160.6,90.6,160.7z"/>
		</g>
	</g>
	<g class="st11">
		<g>
			<path class="st12" d="M67.6,134.8c-1.1,0.3-1.6,1.3-1.8,2.4c0,0.5,0.2,1,0.7,0.9c1.3-0.2,2.4-2.2,1.4-3.3
				C67.8,134.9,67.7,134.9,67.6,134.8z"/>
		</g>
	</g>
	<g class="st11">
		<g>
			<path class="st12" d="M66,139c-0.2-0.1-0.4-0.2-0.6-0.2s-0.3,0-0.5,0.1c-1.4,1.2-3,3.7-1.9,4.7c1.1,1.1,2.6-2.3,3.2-3.9
				C66.2,139.5,66.1,139.3,66,139z"/>
		</g>
	</g>
	<g class="st11">
		<g>
			<path class="st12" d="M67,153.7c0-0.1-0.2-0.3-0.2-0.4c0.9-1.1,2.3-1.5,3.6-1.8c0.5-0.1,1.1-0.1,1.6,0.3c0.5,0.5,0.5,1.3-0.1,1.5
				c-1.5,0.4-3.7,1.7-4.8,0.6C67.1,153.8,67.1,153.8,67,153.7z"/>
		</g>
	</g>
</g>
</svg>
