<?xml version="1.0" encoding="utf-8"?>
<!-- Generator: Adobe Illustrator 25.0.0, SVG Export Plug-In . SVG Version: 6.00 Build 0)  -->
<svg version="1.1" id="Layer_1" xmlns="http://www.w3.org/2000/svg" xmlns:xlink="http://www.w3.org/1999/xlink" x="0px" y="0px"
	 viewBox="0 0 690 603" style="enable-background:new 0 0 690 603;" xml:space="preserve">
<style type="text/css">
	.st0{opacity:7.703220e-02;fill:#E13856;enable-background:new    ;}
	.st1{fill:#ABE5FF;}
	.st2{fill:#FF7373;}
	.st3{fill:#D95757;}
	.st4{fill:#FF9999;}
	.st5{opacity:0.35;fill:#BABABA;enable-background:new    ;}
	.st6{fill:#66EDFF;}
</style>
<g>
	<circle class="st0" cx="345" cy="302.8" r="300.2"/>
	<g>
		<g id="Capa_2">
			<g>
				<path class="st1" d="M76.6,339.4h-0.2c-1.3-0.1-2.4-1.1-2.6-2.5l-12.6-96.1l-8.8,76.5c-0.2,1.5-1.6,2.7-3.1,2.5
					c-0.7-0.1-1.4-0.4-1.8-1l-8.1-9.4H2.8c-1.6,0-2.8-1.3-2.8-2.8s1.3-2.8,2.8-2.8h37.8c0.8,0,1.6,0.4,2.2,1l4.7,5.5l10.7-93
					c0.2-1.4,1.4-2.5,2.8-2.5l0,0c1.4,0,2.6,1,2.8,2.5l13.8,105.9l12.4-40.7c0.4-1.5,2-2.4,3.5-1.9c0.7,0.2,1.3,0.7,1.7,1.4l14.6,26
					h16.9l5.9-25c0.3-1.3,1.4-2.2,2.8-2.2l0,0c1.3,0,2.5,0.9,2.8,2.2l8.6,35.3l5-12.6c0.4-1.1,1.5-1.8,2.6-1.8h37.8
					c0.8,0,1.6,0.4,2.2,1l4.7,5.5l10.7-93c0.2-1.4,1.4-2.5,2.8-2.5l0,0c1.4,0,2.6,1,2.8,2.5l13.9,105.9l12.4-40.7
					c0.4-1.5,2-2.4,3.5-1.9c0.7,0.2,1.3,0.7,1.7,1.4l14.6,26h16.9l5.9-25c0.3-1.5,1.8-2.5,3.3-2.2c1.1,0.2,1.9,1.1,2.2,2.2l8.5,35.3
					l5-12.6c0.4-1.1,1.5-1.8,2.6-1.8h56.5l5.8-21c0.3-1.2,1.5-2.1,2.7-2.1h0.1c1.3,0,2.4,0.9,2.7,2.2l8.6,35.3l5-12.6
					c0.4-1.1,1.5-1.8,2.6-1.8h37.8c1.6,0,2.8,1.3,2.8,2.8s-1.3,2.8-2.8,2.8H392l-7.6,19.1c-0.5,1.5-2.2,2.2-3.6,1.6
					c-0.9-0.3-1.6-1.1-1.8-2l-8.1-33.3l-3.5,12.5c-0.3,1.2-1.5,2.1-2.7,2.1H308l-7.6,19.1c-0.5,1.5-2.2,2.2-3.6,1.6
					c-0.9-0.3-1.6-1.1-1.8-2l-7.8-32.4l-3.7,15.6c-0.3,1.3-1.4,2.2-2.8,2.2h-20.8c-1,0-2-0.5-2.5-1.4l-12.2-21.7l-14.3,46.9
					c-0.4,1.5-2,2.4-3.5,2c-1.1-0.3-1.9-1.3-2.1-2.4l-12.5-96.1l-8.9,76.5c-0.2,1.6-1.5,2.7-3.1,2.5c-0.7-0.1-1.4-0.4-1.9-1l-8-9.4
					h-34.6l-7.6,19.1c-0.5,1.5-2.2,2.2-3.6,1.6c-0.9-0.3-1.6-1.1-1.8-2l-7.8-32.4l-3.7,15.6c-0.3,1.3-1.4,2.2-2.8,2.2h-20.8
					c-1,0-2-0.5-2.5-1.4l-12.2-21.7l-14.3,46.9C79,338.6,77.9,339.4,76.6,339.4z"/>
				<path class="st1" d="M690,311.4c-0.3,1.3-1.4,2.2-2.8,2.2h-20.8c-1,0-2-0.6-2.5-1.4l-12.2-21.7l-14.3,46.9c-0.4,1.5-2,2.4-3.5,2
					c-1.1-0.3-1.9-1.3-2.1-2.4l-12.5-96.1l-8.8,76.5c-0.2,1.6-1.5,2.7-3.1,2.5c-0.7-0.1-1.4-0.4-1.9-1l-8-9.4h-34.6l-7.6,19.1
					c-0.5,1.5-2.2,2.2-3.6,1.6c-0.9-0.3-1.6-1.1-1.8-2l-7.8-32.4l-3.7,15.6c-0.3,1.3-1.4,2.2-2.8,2.2h-20.8c-1,0-2-0.6-2.5-1.4
					l-12.2-21.7l-14.3,46.9c-0.4,1.2-1.5,2-2.7,2h-0.2c-1.3-0.1-2.4-1.1-2.6-2.5l-12.6-96.1l-8.8,76.5c-0.2,1.6-1.5,2.7-3.1,2.5
					c-0.7-0.1-1.4-0.4-1.9-1l-8-9.4h-36.5c-1.6,0-2.8-1.3-2.8-2.8s1.3-2.8,2.8-2.8h37.8c0.8,0,1.6,0.4,2.2,1l4.7,5.5l10.7-93
					c0.2-1.4,1.4-2.5,2.8-2.5l0,0c1.4,0,2.6,1,2.8,2.5l13.9,105.9l12.4-40.7c0.4-1.5,2-2.4,3.5-1.9c0.7,0.2,1.3,0.7,1.7,1.4l14.6,26
					h16.9l5.9-25c0.3-1.3,1.4-2.2,2.8-2.2l0,0c1.3,0,2.5,0.9,2.8,2.2l8.5,35.3l5-12.6c0.4-1.1,1.5-1.8,2.6-1.8h37.8
					c0.8,0,1.6,0.4,2.2,1l4.7,5.5l10.7-93c0.2-1.4,1.4-2.5,2.8-2.5l0,0c1.4,0,2.6,1,2.8,2.5l13.9,105.9l12.4-40.7
					c0.4-1.5,2-2.4,3.5-1.9c0.7,0.2,1.3,0.7,1.7,1.4l14.6,26H685C685,307.9,690.3,307.5,690,311.4z"/>
			</g>
			<path class="st2" d="M437.1,304c25.7,21.4,38.4-10.7,38.4-10.7c-30.1-19,5.8-57.6,29.1-34.8c23.3,22.7,1.1,50.5-21.1,39.3
				c0,0-15.6,39.2-49.8,15.7"/>
			<path class="st3" d="M437.1,304c0.9,0.4,1.8,0.9,2.7,1.4c0.9,0.5,1.8,0.9,2.7,1.3c0.5,0.2,0.9,0.4,1.4,0.6l0.7,0.3l0.7,0.2
				c0.5,0.2,0.9,0.3,1.4,0.5c0.5,0.2,0.9,0.2,1.4,0.4l0.7,0.2l0.7,0.1c0.5,0.1,0.9,0.2,1.4,0.3c0.5,0.1,0.9,0.1,1.4,0.1
				c0.5,0.1,0.9,0,1.4,0c0.4,0,0.9,0,1.3-0.1l0.7-0.1c0.2,0,0.4-0.1,0.7-0.1c0.9-0.1,1.8-0.4,2.6-0.6c0.4-0.2,0.8-0.3,1.3-0.5
				s0.8-0.4,1.2-0.6l1.2-0.7l1.1-0.8l1.1-0.8l1.1-0.9c0.4-0.3,0.7-0.6,1-1s0.7-0.7,1-1l1-1.1l0.9-1.1c0.6-0.8,1.2-1.5,1.8-2.3
				c0.6-0.8,1.1-1.6,1.7-2.4c0.5-0.8,1.1-1.7,1.5-2.5l0.4,1.1l0,0c-1.3-0.8-2.6-1.7-3.8-2.7c-1.2-1-2.4-2.1-3.4-3.3
				c-2.1-2.4-3.7-5.3-4.5-8.4c-0.8-3.1-0.8-6.4-0.1-9.6c0.7-3.1,2.1-6.1,4-8.7c1.8-2.6,4.1-4.9,6.7-6.8c2.6-1.9,5.6-3.2,8.7-4.1
				c3.2-0.8,6.5-1,9.7-0.5c3.2,0.5,6.3,1.7,9,3.5c1.4,0.9,2.6,1.9,3.8,2.9l0.4,0.4l0.2,0.2l0.2,0.2l0.8,0.8c0.5,0.6,1.1,1.1,1.6,1.7
				c0.5,0.6,1,1.2,1.5,1.9l1.4,1.9c0.4,0.7,0.8,1.4,1.2,2c0.1,0.2,0.2,0.3,0.3,0.5l0.3,0.6l0.6,1.1c1.4,2.9,2.3,6.1,2.5,9.3
				c0,0.4,0.1,0.8,0.1,1.2v1.2c0,0.8-0.1,1.6-0.2,2.5l-0.2,1.2c-0.1,0.4-0.1,0.8-0.2,1.2c-0.2,0.8-0.4,1.6-0.7,2.4l-0.4,1.1
				c-0.2,0.4-0.4,0.7-0.5,1.1c-0.3,0.7-0.7,1.5-1.2,2.2c-0.2,0.4-0.4,0.7-0.7,1l-0.7,1c-0.3,0.3-0.5,0.6-0.8,0.9
				c-0.3,0.3-0.5,0.6-0.8,0.9c-2.3,2.3-5.1,4.2-8.1,5.3c-3.1,1.1-6.3,1.5-9.6,1.2c-0.4,0-0.8-0.1-1.2-0.2l-1.2-0.2
				c-0.8-0.2-1.6-0.4-2.3-0.6c-0.8-0.2-1.5-0.6-2.3-0.8l-2.2-1l0,0l1.9-0.7c-0.5,1.3-1,2.5-1.6,3.7c-0.6,1.2-1.2,2.3-1.9,3.5
				c-0.3,0.6-0.7,1.1-1.1,1.7c-0.4,0.6-0.8,1.1-1.1,1.6c-0.8,1.1-1.6,2.1-2.5,3.1c-0.9,1-1.8,2-2.8,2.9c-1,0.9-2,1.8-3.1,2.5
				c-0.6,0.4-1.1,0.8-1.7,1.1c-0.6,0.4-1.2,0.7-1.8,1l-1.9,0.8c-0.6,0.3-1.3,0.5-1.9,0.7c-1.3,0.4-2.6,0.8-4,1
				c-0.3,0.1-0.7,0.1-1,0.2l-1,0.1c-0.7,0.1-1.4,0.1-2,0.1c-0.7,0-1.4,0-2-0.1l-2-0.2c-0.3,0-0.7-0.1-1-0.2l-1-0.2l-1-0.2
				c-0.3-0.1-0.6-0.2-1-0.3l-1.9-0.6c-0.6-0.2-1.2-0.5-1.8-0.8c-1.2-0.5-2.4-1.1-3.5-1.8c-1.1-0.6-2.2-1.4-3.3-2.1
				c-1.1-0.7-2-1.6-3-2.4c1.2,0.6,2.3,1.2,3.4,1.7l1.8,0.8l0.9,0.4l0.4,0.2l0.4,0.2l1.8,0.7c0.3,0.1,0.6,0.2,0.9,0.3l0.9,0.3
				l1.8,0.6l1.8,0.4c0.3,0.1,0.6,0.2,0.9,0.2l0.9,0.1l0.9,0.1c0.3,0.1,0.6,0.1,0.9,0.1l1.8,0.1c0.6,0,1.2,0,1.8-0.1
				c0.6,0,1.2-0.1,1.8-0.2l0.9-0.1c0.3,0,0.6-0.1,0.9-0.2c1.2-0.2,2.3-0.6,3.5-1l1.7-0.7l1.6-0.8c0.5-0.3,1-0.6,1.6-0.9
				c0.5-0.3,1-0.7,1.5-1c1-0.7,1.9-1.5,2.8-2.3c0.9-0.8,1.8-1.7,2.6-2.6c0.8-0.9,1.6-1.9,2.4-2.9c0.4-0.5,0.7-1,1.1-1.5
				c0.4-0.5,0.7-1,1.1-1.5c0.7-1,1.3-2.1,2-3.2c0.6-1.1,1.2-2.2,1.7-3.3l0.6-1.3l1.3,0.6l0,0c2.5,1.2,5.3,2,8.1,2.2
				c2.8,0.2,5.6-0.3,8.2-1.3c2.6-1,4.9-2.6,6.9-4.6c0.2-0.2,0.5-0.5,0.7-0.8c0.2-0.3,0.5-0.5,0.7-0.8l0.6-0.9
				c0.2-0.3,0.4-0.6,0.6-0.9c0.4-0.6,0.7-1.2,1-1.8c0.1-0.3,0.3-0.6,0.4-0.9l0.3-1c0.2-0.7,0.4-1.3,0.6-2c0.1-0.3,0.2-0.7,0.2-1
				l0.2-1c0.1-0.7,0.1-1.4,0.1-2.1v-1c0-0.3,0-0.7,0-1c-0.3-2.8-1-5.5-2.2-8.1l-0.5-1l-0.2-0.5c-0.1-0.2-0.2-0.3-0.3-0.5
				c-0.4-0.6-0.7-1.2-1.1-1.8l-1.2-1.7c-0.4-0.6-0.9-1.1-1.3-1.6c-0.4-0.6-1-1.1-1.5-1.6l-0.8-0.8l-0.1-0.1l0-0.1l0,0
				c0,0-0.1-0.1,0,0l-0.2-0.2l-0.4-0.4c-1-1-2.1-1.8-3.3-2.6c-4.7-3.2-10.5-4.2-16-2.8c-2.8,0.7-5.4,1.8-7.7,3.4
				c-2.4,1.6-4.4,3.6-6.2,5.9c-1.7,2.3-3,4.9-3.7,7.6c-0.7,2.7-0.8,5.6-0.2,8.4c0.6,2.8,1.9,5.4,3.7,7.6c0.9,1.1,1.9,2.2,3,3.1
				c1.1,1,2.3,1.9,3.5,2.7l0,0l0.6,0.3l-0.2,0.8c-0.3,1-0.6,2-1.1,3c-0.4,1-0.9,1.9-1.4,2.8c-0.2,0.5-0.5,0.9-0.8,1.4
				s-0.6,0.9-0.8,1.3l-0.9,1.3c-0.3,0.4-0.6,0.8-1,1.3c-0.3,0.4-0.7,0.8-1,1.2s-0.7,0.8-1.1,1.2s-0.8,0.7-1.2,1.1l-1.2,1
				c-0.5,0.3-0.9,0.6-1.4,0.9l-1.4,0.8c-0.5,0.3-1,0.5-1.5,0.7s-1,0.4-1.6,0.6c-0.5,0.2-1.1,0.3-1.6,0.4c-0.5,0.1-1.1,0.2-1.7,0.3
				c-0.3,0-0.6,0.1-0.8,0.1l-0.8,0c-0.6,0-1.1,0-1.7,0c-0.6-0.1-1.1-0.1-1.7-0.2s-1.1-0.2-1.6-0.3c-0.5-0.1-1.1-0.3-1.6-0.5
				c-0.3-0.1-0.5-0.2-0.8-0.3l-0.7-0.3c-0.5-0.2-1-0.4-1.5-0.7c-0.5-0.2-0.9-0.5-1.4-0.8l-0.7-0.4l-0.6-0.5
				c-0.4-0.3-0.9-0.6-1.3-0.9c-0.4-0.3-0.8-0.7-1.2-1c-0.4-0.3-0.8-0.7-1.1-1.1C438.5,305.5,437.8,304.7,437.1,304z"/>
			<path class="st3" d="M466.4,262.3l1-0.2c0.3-0.1,0.7-0.2,1.2-0.3c0.5-0.1,1.1-0.2,1.7-0.3c0.6-0.1,1.3-0.2,2.1-0.3
				c0.8-0.1,1.6-0.1,2.5-0.2c2-0.1,4,0,5.9,0.2c2.3,0.2,4.7,0.7,6.9,1.4c2.6,0.7,5,1.9,7.3,3.3c1.2,0.8,2.4,1.7,3.4,2.8
				c1.1,1.2,1.9,2.6,2.5,4.1l0.2,0.6c0.1,0.2,0.1,0.4,0.1,0.6c0.1,0.4,0.1,0.8,0.2,1.3v0.3v0.3l0,0.6c0,0.2,0,0.4-0.1,0.6l-0.1,0.3
				v0.2v0.1v0l-0.1,0.2l-0.1,0.3l0,0.1v0.1l-0.1,0.1c-0.1,0.2-0.1,0.3-0.2,0.5l-0.1,0.2l-0.1,0.2c-0.2,0.2-0.3,0.5-0.5,0.6l-0.3,0.3
				l-0.3,0.2c-0.8,0.6-1.6,1-2.5,1.3c-0.8,0.2-1.6,0.4-2.4,0.4c-0.8,0.1-1.5,0.1-2.3,0.1c-1.5,0-2.9-0.1-4.4-0.4
				c-2.8-0.4-5.5-1-8.2-1.8c-2.5-0.7-5-1.6-7.3-2.7c-2.2-0.9-4.2-2-6.2-3.3c-0.9-0.6-1.7-1.3-2.5-2c-0.8-0.7-1.4-1.6-1.8-2.5
				c-0.2-0.5-0.4-1-0.4-1.5c0-0.5,0-1,0.2-1.5c0.3-0.8,0.7-1.5,1.3-2.1c0.8-0.7,1.6-1.3,2.6-1.8L466.4,262.3L466.4,262.3z
				 M466.9,264l-0.8,0.4c-0.8,0.4-1.5,0.9-2.1,1.5c-0.7,0.8-1.3,1.8-0.6,3c0.4,0.7,0.9,1.3,1.5,1.9c0.7,0.6,1.5,1.2,2.3,1.7
				c1.9,1.2,3.9,2.1,6,2.9c4.8,1.8,9.9,2.9,15,3.4c1.3,0.1,2.6,0.2,4,0.1c1.2,0,2.5-0.2,3.7-0.6c0.5-0.1,0.9-0.3,1.3-0.6l0.1-0.1
				l0.1-0.1c0.1,0,0.1-0.1,0.2-0.2l0,0l0,0h0c0,0,0,0,0-0.1l0-0.1l0.1-0.2c0,0-0.1,0.2,0,0.1l0,0V277v-0.1l0-0.2
				c0-0.1,0.1-0.3,0.1-0.4l0-0.4v-0.2v-0.2c0-0.3,0-0.5-0.1-0.8l-0.1-0.4l-0.1-0.4c-0.3-1.1-0.9-2.1-1.6-3c-0.8-0.9-1.7-1.8-2.6-2.5
				c-1-0.7-2-1.4-3.1-1.9c-1.1-0.6-2.2-1-3.3-1.4c-1.1-0.4-2.2-0.7-3.3-1c-1.1-0.2-2.1-0.5-3.2-0.6c-1.9-0.3-3.7-0.4-5.6-0.4
				c-1.4,0-2.9,0.1-4.3,0.4c-0.6,0.1-1.1,0.2-1.6,0.3c-0.4,0.1-0.9,0.2-1.2,0.2L466.9,264z"/>
			<path class="st2" d="M466.9,264l-0.8,0.4c-0.8,0.4-1.5,0.9-2.1,1.5c-0.7,0.8-1.3,1.8-0.6,3c0.4,0.7,0.9,1.3,1.5,1.9
				c0.7,0.6,1.5,1.2,2.3,1.7c1.9,1.2,3.9,2.1,6,2.9c4.8,1.8,9.9,2.9,15,3.4c1.3,0.1,2.6,0.2,4,0.1c1.2,0,2.5-0.2,3.7-0.6
				c0.5-0.1,0.9-0.3,1.3-0.6l0.1-0.1l0.1-0.1c0.1,0,0.1-0.1,0.2-0.2l0,0l0,0h0c0,0,0,0,0-0.1l0-0.1l0.1-0.2c0,0-0.1,0.2,0,0.1l0,0
				V277v-0.1l0-0.2c0-0.1,0.1-0.3,0.1-0.4l0-0.4v-0.2v-0.2c0-0.3,0-0.5-0.1-0.8l-0.1-0.4l-0.1-0.4c-0.3-1.1-0.9-2.1-1.6-3
				c-0.8-0.9-1.7-1.8-2.6-2.5c-1-0.7-2-1.4-3.1-1.9c-1.1-0.6-2.2-1-3.3-1.4c-1.1-0.4-2.2-0.7-3.3-1c-1.1-0.2-2.1-0.5-3.2-0.6
				c-1.9-0.3-3.7-0.4-5.6-0.4c-1.4,0-2.9,0.1-4.3,0.4c-0.6,0.1-1.1,0.2-1.6,0.3c-0.4,0.1-0.9,0.2-1.2,0.2L466.9,264z"/>
			<path class="st3" d="M484.6,279.2c0.2,0,0.5,0.1,0.7,0.1c1.5,0.4,2.7,1.4,3.5,2.7c0.3,0.4,0.5,0.9,0.6,1.5
				c0.1,0.5,0.2,1.1,0.2,1.6c0,0.5-0.1,1.1-0.2,1.6c-0.1,0.2-0.1,0.5-0.2,0.7c-0.1,0.2-0.2,0.5-0.3,0.7c-0.1,0.2-0.2,0.4-0.4,0.6
				c-0.1,0.2-0.2,0.4-0.4,0.6l-0.4,0.5l-0.4,0.4c-0.2,0.2-0.5,0.5-0.8,0.7c-0.2,0.2-0.4,0.3-0.6,0.4c-0.2,0.1-0.4,0.2-0.6,0.3
				c0,0,0.1-0.2,0.2-0.6c0.1-0.2,0.2-0.4,0.3-0.7s0.3-0.6,0.4-0.9c0.1-0.3,0.3-0.6,0.4-1c0.1-0.2,0.1-0.4,0.2-0.6
				c0.1-0.2,0.1-0.4,0.2-0.6c0.1-0.4,0.2-0.7,0.3-1.1c0.1-0.4,0.1-0.8,0.1-1.1c0-0.4,0-0.7-0.1-1.1c0-0.2-0.1-0.4-0.1-0.5
				s-0.1-0.4-0.2-0.5c-0.2-0.7-0.6-1.3-1-1.9c-0.4-0.6-0.7-1-1-1.3L484.6,279.2z"/>
			<path class="st3" d="M340.4,390.2c-18.3,65.8-44,21.7-43.9,9.2c0,0-32.9,25-35,13.1c-2.1-11.9,37.7-34.6,39.4-25.8
				c1.7,8.8,0.8,7.9,0.8,7.9c20.6,38.1,26.2-5.2,26.2-5.2L340.4,390.2z"/>
			<path class="st2" d="M354.1,226.9c-143.7-121.6-196.4,122.5,0,174.4C537,306.6,446.5,115.2,354.1,226.9z"/>
			<path class="st4" d="M396.3,195.2c58.9-3.8,90.3,114-22.9,195.1C504.8,308.6,465,173.7,396.3,195.2z"/>
			<path class="st3" d="M270.5,194.3c-70.7,14.1-67.1,165.3,80.9,206.1C220.5,352.5,216,223,270.5,194.3z"/>
			<path class="st2" d="M263.6,304.4c-28.4-23.4-63.1,4.7-64.2,19.4c-23.4-9.4-39.8,36.8-1.3,31.1c38.5-5.7,19.1-29.2,13.7-29.5
				c0,0,13.4-32.7,49.2-13"/>
			<path class="st3" d="M263.6,304.4l-2.1-1.3c-0.7-0.4-1.4-0.9-2.1-1.2c-1.4-0.8-2.9-1.5-4.4-2.1c-0.8-0.3-1.5-0.6-2.3-0.8
				c-0.4-0.1-0.7-0.3-1.1-0.4l-1.1-0.3c-0.8-0.2-1.6-0.4-2.3-0.6l-1.2-0.3l-1.2-0.1c-0.8-0.1-1.6-0.2-2.4-0.2l-1.2-0.1l-0.6,0h-0.6
				c-0.8,0-1.6,0-2.4,0c-0.8,0-1.6,0.1-2.4,0.2c-0.8,0.1-1.6,0.2-2.3,0.4l-2.3,0.5c-0.8,0.2-1.5,0.4-2.3,0.6s-1.5,0.5-2.3,0.7
				c-1.5,0.5-2.9,1.1-4.4,1.8c-0.7,0.3-1.4,0.7-2.1,1c-0.7,0.4-1.4,0.8-2.1,1.1c-0.3,0.2-0.7,0.4-1,0.6l-1,0.6
				c-0.3,0.2-0.7,0.4-1,0.6l-1,0.7c-0.3,0.2-0.7,0.4-1,0.7l-0.9,0.7c-0.3,0.2-0.6,0.5-0.9,0.7l-0.9,0.8c-1.2,1-2.4,2.1-3.5,3.2
				c-0.6,0.6-1.1,1.2-1.6,1.7s-1,1.2-1.5,1.8c-0.5,0.6-0.9,1.3-1.3,1.9c-0.2,0.3-0.4,0.7-0.6,1c-0.2,0.3-0.4,0.7-0.6,1
				c-0.2,0.3-0.4,0.7-0.5,1c-0.2,0.3-0.3,0.7-0.4,1.1c-0.1,0.4-0.3,0.7-0.4,1.1c-0.1,0.4-0.2,0.7-0.2,1.1L200,325l-0.9-0.4l0,0
				c-1.1-0.3-2.2-0.6-3.3-0.8c-1.1-0.1-2.2-0.2-3.3-0.1c-2.2,0.2-4.3,0.9-6.2,2c-1.9,1.1-3.6,2.6-5,4.3c-1.4,1.7-2.5,3.6-3.4,5.7
				c-0.4,1-0.7,2.1-1,3.2c-0.3,1.1-0.4,2.2-0.4,3.2c-0.1,2.2,0.4,4.3,1.5,6.2c1.1,1.9,2.8,3.3,4.9,4.2c1,0.5,2.1,0.8,3.2,1
				c1.1,0.2,2.2,0.4,3.4,0.4c2.3,0.1,4.6,0,6.8-0.4l1.7-0.3l1.8-0.3c0.6-0.1,1.2-0.2,1.8-0.3l1.7-0.4c1.1-0.2,2.2-0.6,3.3-0.9
				c0.6-0.1,1.1-0.3,1.6-0.5l0.8-0.3c0.3-0.1,0.5-0.2,0.8-0.3l1.6-0.6c0.5-0.2,1-0.5,1.5-0.7c0.5-0.2,1-0.5,1.4-0.8
				c0.2-0.1,0.5-0.3,0.7-0.4l0.7-0.5c1.7-1.2,3.1-2.9,3.8-4.8l0.2-0.7c0.1-0.2,0.1-0.5,0.2-0.7l0.1-0.4l0-0.4c0-0.3,0.1-0.5,0.1-0.8
				c0-1.1-0.1-2.1-0.4-3.2c-0.6-2.1-1.6-4.1-3-5.9c-0.7-0.9-1.4-1.7-2.3-2.5c-0.4-0.4-0.8-0.7-1.3-1c-0.2-0.1-0.4-0.3-0.7-0.4
				c-0.1,0-0.2-0.1-0.3-0.1l-0.3-0.1l0,0l-1.1-0.1l0.4-1.1c0.4-1.2,0.9-2.4,1.5-3.5c0.6-1.1,1.2-2.2,1.9-3.2c0.7-1.1,1.5-2,2.3-3
				c0.4-0.5,0.8-0.9,1.3-1.4c0.4-0.5,0.9-0.9,1.3-1.3c0.5-0.4,0.9-0.9,1.4-1.3c0.5-0.4,1-0.8,1.5-1.2c0.5-0.4,1-0.7,1.6-1.1
				c0.5-0.3,1.1-0.7,1.6-1l1.7-0.9l1.8-0.7c0.6-0.2,1.2-0.4,1.8-0.6c0.3-0.1,0.6-0.2,0.9-0.3l0.9-0.2c1.3-0.3,2.5-0.5,3.8-0.6
				c0.6,0,1.3-0.1,1.9-0.1s1.3,0,1.9,0c0.3,0,0.6,0,0.9,0.1l0.9,0.1l0.9,0.1c0.3,0,0.6,0.1,0.9,0.2c0.6,0.1,1.2,0.2,1.9,0.4
				c0.6,0.1,1.2,0.3,1.8,0.5c1.2,0.3,2.4,0.7,3.5,1.2c0.6,0.2,1.1,0.5,1.7,0.7l1.7,0.8c1.1,0.6,2.2,1.1,3.2,1.8
				c1.1,0.6,2.1,1.3,3.1,2c-1.1-0.4-2.3-0.9-3.4-1.3l-3.4-1.2l-1.7-0.5c-0.6-0.2-1.1-0.4-1.7-0.5c-1.2-0.2-2.3-0.6-3.5-0.8
				c-0.6-0.1-1.2-0.2-1.7-0.3c-0.6-0.1-1.2-0.1-1.8-0.2c-0.3,0-0.6-0.1-0.9-0.1l-0.9,0l-0.9,0c-0.3,0-0.6,0-0.9,0
				c-0.6,0-1.2,0.1-1.7,0.1c-0.6,0-1.1,0.1-1.7,0.2c-0.6,0.1-1.1,0.1-1.7,0.3c-0.6,0.1-1.1,0.2-1.7,0.4l-0.8,0.2
				c-0.3,0.1-0.6,0.1-0.8,0.2c-0.5,0.2-1.1,0.4-1.6,0.6l-1.6,0.7l-1.5,0.8c-0.5,0.3-1,0.6-1.5,0.9s-1,0.6-1.4,1
				c-0.5,0.3-0.9,0.7-1.4,1s-0.9,0.7-1.3,1.1s-0.9,0.8-1.3,1.2l-1.2,1.2c-0.8,0.8-1.6,1.7-2.3,2.7c-0.7,0.9-1.4,1.9-2.1,2.8
				c-0.3,0.5-0.7,1-1,1.5s-0.6,1-0.9,1.5l-0.7-1.1l0,0c0.2,0,0.4,0,0.6,0.1c0.2,0,0.4,0.1,0.5,0.1c0.3,0.1,0.7,0.2,1,0.4
				c0.3,0.1,0.6,0.3,0.9,0.5c0.3,0.2,0.5,0.4,0.8,0.6c1,0.8,1.9,1.6,2.8,2.6c0.8,0.9,1.6,2,2.3,3.1c0.7,1.1,1.2,2.3,1.6,3.5
				c0.4,1.3,0.6,2.6,0.7,3.9c0,0.3,0,0.7,0,1v0.5l-0.1,0.5c-0.1,0.3-0.1,0.7-0.2,1l-0.3,1c-0.1,0.3-0.2,0.7-0.4,1
				c-0.1,0.3-0.3,0.6-0.4,0.9l-0.5,0.9l-0.3,0.4c-0.1,0.1-0.2,0.3-0.3,0.4l-0.6,0.8c-0.2,0.3-0.4,0.5-0.7,0.7l-0.7,0.7
				c-0.2,0.2-0.5,0.4-0.8,0.6c-2,1.6-4.3,2.8-6.6,3.7c-2.3,0.9-4.7,1.6-7.1,2.1L202,356c-0.6,0.1-1.2,0.2-1.8,0.3l-1.8,0.3h-0.2
				h-0.1H198l-0.5,0l-0.9,0.1c-2.5,0.2-5,0.2-7.4-0.1c-0.6-0.1-1.2-0.2-1.9-0.3c-0.3-0.1-0.6-0.1-0.9-0.2c-0.3-0.1-0.6-0.1-0.9-0.2
				c-1.2-0.3-2.4-0.8-3.6-1.3c-1.2-0.6-2.3-1.3-3.3-2.1c-1-0.8-1.9-1.8-2.6-2.9c-0.7-1.1-1.3-2.3-1.7-3.6c-0.4-1.3-0.6-2.5-0.6-3.9
				c-0.1-1.3,0-2.6,0.2-3.9c0.2-1.3,0.6-2.5,1-3.7c0.9-2.4,2.3-4.6,4-6.5c1.7-2,3.7-3.6,6-4.8c1.2-0.6,2.4-1,3.6-1.4
				c1.3-0.3,2.5-0.5,3.8-0.5c2.5,0,5.1,0.6,7.4,1.6l0,0l-1.1,0.7c0-1.8,0.4-3.5,1-5.1c0.2-0.4,0.3-0.8,0.5-1.2
				c0.2-0.4,0.4-0.8,0.6-1.2c0.4-0.8,0.8-1.5,1.3-2.3c0.4-0.8,1-1.4,1.5-2.1c0.5-0.7,1-1.4,1.6-2c0.6-0.6,1.1-1.3,1.7-1.9
				s1.2-1.2,1.8-1.8c0.6-0.6,1.2-1.2,1.9-1.7l1-0.8c0.3-0.3,0.7-0.5,1-0.8l1-0.8c0.3-0.2,0.7-0.5,1.1-0.7c0.7-0.5,1.4-0.9,2.2-1.4
				s1.5-0.9,2.3-1.2c0.8-0.4,1.5-0.8,2.3-1.1c1.6-0.7,3.1-1.3,4.8-1.8c0.8-0.2,1.6-0.5,2.5-0.7c0.8-0.2,1.7-0.4,2.5-0.6l2.5-0.4
				l2.6-0.2c0.9,0,1.7,0,2.6-0.1s1.7,0.1,2.6,0.1l0.6,0l0.6,0.1l1.3,0.2c0.8,0.1,1.7,0.3,2.5,0.5l1.2,0.3l1.2,0.4
				c0.8,0.2,1.6,0.5,2.4,0.8l1.2,0.5c0.4,0.1,0.8,0.3,1.2,0.5c0.8,0.4,1.5,0.8,2.3,1.1c1.4,0.8,2.8,1.8,4.2,2.8
				C261.2,302.2,262.4,303.3,263.6,304.4z"/>
			<path class="st2" d="M220.2,344.3c-2.4,4.6-8.8,8.7-22.1,10.6c-1.4,0.2-2.8,0.3-4.1,0.4c0.6,3.4,2.9,7.5,10.2,8.5
				C215.2,365.3,231.5,352.3,220.2,344.3z"/>
			<path class="st3" d="M220.2,344.3l-0.4,0.8c-0.2,0.3-0.3,0.5-0.5,0.8c-0.4,0.5-0.8,1-1.2,1.4c-0.4,0.4-0.9,0.9-1.4,1.3
				c-0.5,0.4-1,0.8-1.5,1.1s-1,0.7-1.6,1c-0.5,0.3-1.1,0.6-1.6,0.9s-1.1,0.5-1.7,0.8c-0.6,0.2-1.1,0.5-1.7,0.7
				c-0.6,0.2-1.2,0.4-1.8,0.6l-1.8,0.5l-1.8,0.5c-0.6,0.2-1.2,0.3-1.8,0.4c-0.6,0.1-1.2,0.3-1.8,0.4s-1.2,0.2-1.8,0.3
				c-1.2,0.2-2.5,0.4-3.7,0.4l0.6-0.8c0.3,1.8,1.3,3.5,2.6,4.8c0.7,0.6,1.4,1.1,2.3,1.5c0.4,0.2,0.8,0.4,1.3,0.5
				c0.2,0.1,0.5,0.1,0.7,0.2c0.2,0.1,0.4,0.1,0.7,0.2c0.5,0.1,0.9,0.2,1.4,0.3l0.7,0.1l0.8,0.1c0.2,0,0.5,0,0.7,0c0.2,0,0.4,0,0.7,0
				c0.5,0,0.9-0.1,1.4-0.2c0.9-0.1,1.8-0.4,2.7-0.7c0.9-0.3,1.8-0.6,2.6-1c0.4-0.2,0.8-0.4,1.3-0.6c0.4-0.2,0.8-0.5,1.2-0.7
				c0.8-0.5,1.6-1,2.3-1.6c0.7-0.6,1.4-1.2,2-1.9c0.6-0.6,1.2-1.4,1.6-2.1c0.4-0.7,0.8-1.5,1-2.3c0.2-0.8,0.3-1.6,0.2-2.5
				c-0.1-0.9-0.4-1.7-0.9-2.5C221.4,345.9,220.8,345.1,220.2,344.3z M220.2,344.3c1,0.4,1.9,0.9,2.7,1.6c0.9,0.8,1.5,1.7,1.9,2.8
				c0.4,1.1,0.5,2.3,0.3,3.5l-0.2,0.9l-0.3,0.8c-0.1,0.3-0.2,0.5-0.3,0.8c-0.1,0.3-0.2,0.5-0.4,0.8c-0.5,1-1.2,1.9-1.9,2.7
				c-0.7,0.8-1.5,1.5-2.4,2.2c-0.4,0.3-0.8,0.6-1.3,0.9c-0.5,0.3-0.9,0.6-1.4,0.8c-0.9,0.5-1.9,1-2.9,1.4l-0.7,0.3
				c-0.2,0.1-0.5,0.2-0.8,0.2c-0.5,0.2-1,0.3-1.5,0.4c-1,0.3-2.1,0.5-3.1,0.6c-0.5,0.1-1.1,0.1-1.6,0.1c-0.3,0-0.6,0-0.8,0
				c-0.3,0-0.6,0-0.8-0.1l-0.7-0.1H204h-0.1h-0.1l-0.2,0l-0.4-0.1c-0.5-0.1-1-0.2-1.5-0.4c-0.3-0.1-0.5-0.1-0.8-0.2
				c-0.2-0.1-0.5-0.2-0.8-0.3c-0.5-0.2-1-0.4-1.5-0.7c-1-0.5-1.8-1.2-2.6-1.9c-0.8-0.8-1.4-1.7-1.9-2.7c-0.5-1-0.8-2.1-0.9-3.2
				l-0.1-0.8l0.8,0c1.2,0,2.4-0.1,3.6-0.3c0.6-0.1,1.2-0.2,1.8-0.2s1.2-0.2,1.8-0.3c0.6-0.1,1.2-0.2,1.8-0.3l1.8-0.4l1.8-0.4
				c0.6-0.2,1.2-0.3,1.8-0.5s1.1-0.4,1.7-0.6c0.6-0.2,1.1-0.4,1.7-0.7c0.6-0.2,1.1-0.5,1.7-0.8c0.5-0.3,1.1-0.6,1.6-0.9
				c0.5-0.3,1-0.7,1.5-1c0.5-0.4,1-0.8,1.4-1.2c0.4-0.4,0.9-0.9,1.2-1.3c0.2-0.2,0.4-0.5,0.6-0.7L220.2,344.3z"/>
			<path class="st2" d="M334.6,364c39.8-33.9,58.5-10.4,46.7,33.3c0.2-0.8,7-2.3,8.1-2.6c2.5-0.8,5-1.5,7.4-2.1c4-1,7.9-2,11.9-2.6
				c2.7-0.4,9.7-2.1,12.1,0.4c4.5,4.7-20.3,14.8-23.3,16.1c-6.1,2.6-12.4,5-18.7,7c-3.2,1-6.5,2-9.7,2.9c-2.8,0.8-5.8,2.1-8.4-0.1
				c-1-0.8-1.8-2-2-3.2c-0.2-1.5,0.5-3,1.4-4.3c2.7-3.3,6.4-5.7,10.1-7.7c0,0,15.3-63.2-35.6-29"/>
			<path class="st3" d="M380,398.2c0.6-0.2,4.7-1.1,5.3-1.3c1.3-0.3,2.6-0.6,4-0.9l7.9-2.1c2.6-0.7,5.3-1.3,7.9-1.8
				c1.3-0.3,2.6-0.5,4-0.7s2.7-0.5,4-0.6c1.3-0.2,2.6-0.3,3.8-0.2c0.6,0,1.1,0.1,1.7,0.3c0.2,0.1,0.5,0.2,0.7,0.3
				c0.1,0.1,0.2,0.1,0.3,0.2c0,0,0.1,0.1,0.1,0.1l0.1,0v0l0.1,0.1l0,0.1l0,0l0,0c0,0,0,0.1,0,0.1c0,0.1,0,0.2-0.1,0.3
				c-0.2,0.5-0.5,0.9-0.8,1.2c-0.9,0.9-1.9,1.7-2.9,2.4c-2.2,1.5-4.5,2.8-6.9,4c-2.4,1.2-4.9,2.4-7.3,3.5c-1.2,0.6-2.5,1.1-3.7,1.6
				l-3.8,1.6c-2.5,1-5,2-7.6,3c-2.6,0.9-5.1,1.8-7.7,2.7l-0.5,0.2l-0.2,0.1l-0.2,0.1l-1,0.3l-2,0.6l-4,1.2l-4,1.2
				c-1.2,0.4-2.4,0.7-3.6,0.7c-0.5,0-1-0.1-1.5-0.3c-0.2-0.1-0.5-0.2-0.7-0.4c-0.1-0.1-0.2-0.2-0.3-0.3c-0.1-0.1-0.2-0.2-0.3-0.3
				c-0.4-0.4-0.7-0.8-0.9-1.3c-0.1-0.2-0.2-0.5-0.2-0.7v0l0,0l0,0v-0.1c0,0,0-0.1,0-0.1v-0.1c0-0.1,0-0.2,0-0.3c0-0.5,0.2-1,0.4-1.5
				c0.1-0.3,0.3-0.5,0.4-0.7c0.1-0.1,0.2-0.2,0.3-0.4l0.1-0.1l0.1-0.1l0.2-0.2c0.8-1,1.8-1.9,2.8-2.7c2.1-1.7,4.3-3.2,6.7-4.4l0,0
				l0.4-0.2l0.1-0.5c0.4-1.5,0.7-3,1-4.5c0.3-1.5,0.5-3,0.7-4.6c0.2-1.5,0.4-3.1,0.5-4.6c0.1-1.5,0.2-3.1,0.2-4.6
				c0-3.1-0.3-6.3-0.9-9.3c-0.3-1.6-0.8-3.1-1.4-4.6c-0.7-1.5-1.5-2.9-2.6-4.1c-1.1-1.3-2.5-2.2-4-2.9c-1.5-0.6-3.1-1-4.7-1
				c-1.6,0-3.2,0.1-4.8,0.4c-1.5,0.3-3,0.8-4.5,1.3c-1.5,0.5-2.9,1.1-4.3,1.8l-1,0.5c-0.3,0.2-0.7,0.4-1,0.6l-1,0.6l-1,0.6
				c-0.7,0.4-1.3,0.8-1.9,1.2s-1.3,0.9-1.9,1.3c-1.3,0.9-2.5,1.8-3.6,2.8c1.4-0.7,2.7-1.4,4.1-2.1c0.7-0.4,1.3-0.7,2-1.1
				c0.7-0.4,1.3-0.7,2-1l1-0.5l1-0.5c0.7-0.3,1.4-0.6,2.1-0.9c1.4-0.6,2.8-1.1,4.2-1.6c1.4-0.5,2.8-0.9,4.3-1.1
				c1.4-0.3,2.9-0.4,4.3-0.3c1.4,0.1,2.8,0.4,4.1,0.9c1.3,0.6,2.4,1.4,3.3,2.5c0.9,1.1,1.7,2.3,2.2,3.6c0.6,1.3,1,2.7,1.3,4.1
				c0.6,2.9,0.8,5.9,0.8,8.9c0,1.5-0.1,3-0.2,4.5c-0.1,1.5-0.2,3-0.4,4.5c-0.2,1.5-0.4,3-0.6,4.5c-0.2,1.3-0.5,2.7-0.7,4
				c-2.4,1.2-4.6,2.6-6.7,4.3c-1.1,0.9-2.2,1.9-3.1,3c-1.1,1.2-1.8,2.7-2,4.3c0,0.2,0,0.5,0,0.7v0.2v0.1v0.1v0.1v0.1
				c0.1,0.4,0.2,0.9,0.4,1.3c0.3,0.8,0.8,1.4,1.4,2l0.4,0.4c0.1,0.1,0.3,0.2,0.5,0.4c1,0.8,2.3,1.2,3.5,1.3c1.5,0,3-0.3,4.4-0.8
				l4-1.1l4-1.1l2-0.6l1-0.3l0.3-0.1l0.2-0.1l0.5-0.2c2.6-0.8,5.2-1.7,7.8-2.7c2.6-1,5.1-2,7.7-3l3.8-1.6c1.3-0.5,2.5-1.1,3.8-1.6
				c2.5-1.1,5-2.3,7.5-3.6c2.5-1.3,4.9-2.7,7.3-4.3c1.2-0.8,2.4-1.8,3.4-2.8c0.6-0.6,1.1-1.4,1.4-2.2c0.2-0.5,0.2-1.1,0.1-1.7
				c-0.1-0.3-0.2-0.6-0.3-0.9c-0.1-0.1-0.2-0.3-0.3-0.4l-0.1-0.1l0-0.1l-0.1-0.1c-0.6-0.7-1.5-1.2-2.4-1.4c-0.8-0.2-1.5-0.3-2.3-0.4
				c-1.5-0.1-2.9,0-4.3,0.2c-1.4,0.2-2.8,0.5-4.1,0.7c-1.3,0.2-2.7,0.5-4.1,0.8c-2.7,0.6-5.4,1.2-8,1.9l-4,1.2l-3.9,1.1
				c-1.3,0.3-2.6,0.7-4,1c-0.6,0.2-1.3,0.4-1.9,0.6c0.3-1.2,0.6-2.4,0.9-3.7c0.4-2,0.8-4,1.2-6c0.3-2,0.6-4,0.8-6
				c0.2-2,0.3-4.1,0.3-6.1c0.1-4.1-0.5-8.3-1.5-12.2c-0.6-2-1.4-4-2.4-5.8c-0.5-0.9-1.1-1.8-1.8-2.7c-0.7-0.8-1.4-1.6-2.3-2.3
				c-0.8-0.7-1.7-1.3-2.7-1.9c-1-0.5-2-1-3-1.3c-2.1-0.6-4.2-0.9-6.4-0.8c-2.1,0.1-4.2,0.4-6.2,1c-2,0.6-3.9,1.3-5.8,2.1
				c-1.9,0.8-3.7,1.8-5.4,2.8c-1.7,1-3.4,2.2-5.1,3.4c-0.8,0.6-1.6,1.2-2.4,1.9c-0.8,0.6-1.6,1.3-2.3,2c-1.5,1.3-3,2.8-4.3,4.2
				c1.7-1.1,3.3-2.3,5-3.3s3.3-2.2,5-3.2c1.7-1,3.4-2,5.1-3c0.9-0.5,1.7-0.9,2.6-1.4l1.3-0.6l1.3-0.6c1.8-0.8,3.6-1.4,5.5-1.9
				c1.8-0.5,3.7-0.8,5.6-0.8c1.9-0.1,3.7,0.2,5.5,0.7c0.9,0.3,1.7,0.7,2.5,1.1c0.8,0.5,1.5,1,2.2,1.6c0.7,0.6,1.3,1.3,1.9,2
				c0.6,0.7,1.1,1.5,1.5,2.3c0.9,1.7,1.6,3.4,2.2,5.3c0.5,1.8,0.9,3.7,1.1,5.6c0.2,1.9,0.4,3.9,0.4,5.8c0,2-0.1,3.9-0.2,5.9
				c-0.1,2-0.4,4-0.6,5.9s-0.6,3.9-1,5.8s-0.8,3.9-1.3,5.8L380,398.2z"/>
			<ellipse class="st5" cx="343.7" cy="455.2" rx="90.1" ry="6.4"/>
		</g>
	</g>
</g>
<path class="st6" d="M272.2,214.8c-23.8,24.4-1,41.3,2.1,23.1C275.6,230.4,272.2,214.8,272.2,214.8z"/>
<path class="st6" d="M292.8,234.4c-23.8,24.4-1,41.3,2.1,23.1C296.1,250,292.8,234.4,292.8,234.4z"/>
<path class="st6" d="M272.2,257.9c-23.8,24.4-1,41.3,2.1,23.1C275.6,273.6,272.2,257.9,272.2,257.9z"/>
</svg>
