<svg xmlns="http://www.w3.org/2000/svg" xmlns:xlink="http://www.w3.org/1999/xlink" viewBox="0 0 2500 2500"><defs><style>.cls-1,.cls-2{isolation:isolate;}.cls-2{fill:#e13856;opacity:0.08;}.cls-3{fill:#95f0fc;}.cls-4{fill:#ffb0b0;}.cls-5{fill:#e08080;}.cls-16,.cls-6,.cls-7,.cls-9{opacity:0.3;}.cls-6,.cls-7,.cls-9{mix-blend-mode:multiply;}.cls-6{fill:url(#linear-gradient);}.cls-7{fill:url(#linear-gradient-2);}.cls-8{fill:#d32424;}.cls-9{fill:url(#linear-gradient-3);}.cls-10,.cls-14,.cls-18{fill:#fff;}.cls-10,.cls-14,.cls-15,.cls-16{mix-blend-mode:soft-light;}.cls-11{fill:url(#linear-gradient-4);}.cls-12{fill:#090963;}.cls-13{fill:url(#linear-gradient-5);}.cls-14{opacity:0.4;}.cls-15,.cls-16{fill:#f4f7fa;}.cls-15{opacity:0.5;}.cls-17{fill:#284ba3;}.cls-19{fill:url(#linear-gradient-6);}</style><linearGradient id="linear-gradient" x1="1936.68" y1="194.62" x2="1449.45" y2="761.66" gradientUnits="userSpaceOnUse"><stop offset="0" stop-color="#ef9f8e"/><stop offset="1" stop-color="#e68273"/></linearGradient><linearGradient id="linear-gradient-2" x1="1647.39" y1="407.44" x2="1323.97" y2="1596.11" gradientUnits="userSpaceOnUse"><stop offset="0" stop-color="#f6af9a"/><stop offset="1" stop-color="#f89f8a"/></linearGradient><linearGradient id="linear-gradient-3" x1="1206.76" y1="859.49" x2="1273.96" y2="2493.38" xlink:href="#linear-gradient-2"/><linearGradient id="linear-gradient-4" x1="1997.31" y1="2063.11" x2="2515.85" y2="1943.31" gradientTransform="matrix(-1, 0, 0, 1, 2771.32, 0)" gradientUnits="userSpaceOnUse"><stop offset="0" stop-color="#5d535a"/><stop offset="1" stop-color="#464143"/></linearGradient><linearGradient id="linear-gradient-5" x1="412.72" y1="1732.25" x2="583.08" y2="2190.7" gradientUnits="userSpaceOnUse"><stop offset="0" stop-color="#d3c5cb"/><stop offset="1" stop-color="#ada0a6"/></linearGradient><linearGradient id="linear-gradient-6" x1="370.4" y1="1285.93" x2="404.26" y2="1285.93" gradientTransform="matrix(-0.98, -0.2, -0.2, 0.98, 1764.74, -307.05)" gradientUnits="userSpaceOnUse"><stop offset="0" stop-color="#3b3138"/><stop offset="1" stop-color="#241f21"/></linearGradient></defs><g class="cls-1"><g id="Background"><g id="OBJECTS"><g id="Page-1"><g id="For-you-and-your-partner-Copy-4"><g id="Group-4"><circle id="Mask-Copy-2" class="cls-2" cx="1250" cy="1250" r="1250"/></g></g></g></g><path class="cls-3" d="M536.86,1656.39a16.66,16.66,0,0,1-1.72-.09,17.34,17.34,0,0,1-15-15L424.59,990.69l-98.73,470.24a17.38,17.38,0,0,1-15.69,14,17.94,17.94,0,0,1-17.93-11.55L205.31,1242.8l-50.87,101.59a17.57,17.57,0,0,1-16.27,9.72l-104.88-2.9a19.26,19.26,0,0,1-18.61-19.15A18,18,0,0,1,33.29,1314l93.6,2.9,64-127.29a17.15,17.15,0,0,1,16.81-9.39,19,19,0,0,1,15.95,12.08l79.76,203.07L410.5,886.94A15.9,15.9,0,0,1,427.92,874c8.32.87,15.28,7.76,16.54,16.4l99.18,677.83L655,1253.39a15.81,15.81,0,0,1,15.49-10.85c6.9.27,13.05,5.08,15.45,12l51.22,149.22,61.74-152.59a15.33,15.33,0,0,1,14.3-9.91,16.75,16.75,0,0,1,14.8,10.13l40.23,88.42L1066.5,1346l44.62-109.57c2.45-6,8.1-9.74,13.94-9.37,6,.32,11.4,4.56,13.74,10.8l65.14,173.6,84.58-448c1.42-7.55,7.39-12.57,14.26-12.07h.25c7,.63,12.86,6.76,14.07,14.61l93.64,608,84-287.66c1.83-6.25,6.83-10.43,12.58-10.52s11.08,3.92,13.41,10.08L1574.52,1428l53.17-138c2-5.18,6.26-8.6,11.15-9s9.62,2.43,12.41,7.27l44.49,77.14,154,4.77,42.86-95.7c2.31-5.15,7-8,11.82-7.72s9.29,4.2,11.26,9.71L1971,1431.37l72.17-414.57c1.23-7.08,6.37-12,12.42-11.2,6,.59,11,6.28,12,13.55l75,558,47.72-185.88c1.59-6.17,6.22-10.26,11.46-10.1l270.08,8.37c6.23.19,11.27,6.83,11.27,14.83s-5,14.35-11.27,14.18l-261.3-7.21-60.06,234.59c-1.7,6.62-6.9,11-12.45,10.46s-10.24-5.69-11.17-12.57l-73-541-66.34,382.13c-1.13,6.51-5.59,11.31-11,11.9s-10.66-3.2-12.87-9.35l-60.77-169.69L1869,1393.61c-2.24,5-6.64,8.08-11.43,8l-168.84-4.66c-4.41-.13-8.54-2.79-11.06-7.13l-35-60.41-55.63,144.8c-2.2,5.73-7.12,9.37-12.55,9.27s-10.38-3.92-12.6-9.75l-52.05-137.15L1420,1645.26c-2,7.06-8,11.65-14.54,11.08s-11.87-6.08-13-13.44l-90.9-588.4-78.3,416c-1.34,7.08-6.62,12.29-13.07,12.88s-12.57-3.59-15.11-10.34l-70.44-187.14-34.3,84.49c-2.43,6-7.88,9.78-13.9,9.61l-218-6a16.39,16.39,0,0,1-14.25-9.92l-29.37-64.33-63.77,158.18a15.81,15.81,0,0,1-15.36,10.27,16.83,16.83,0,0,1-14.89-11.66l-50.28-146L552.69,1644.81A16.94,16.94,0,0,1,536.86,1656.39Z"/><path class="cls-4" d="M663.06,1010.91S757.57,903.8,763.87,620.29,719.77,299,801.67,273.77s151.21-25.21,170.11,37.8,6.3,378,88.21,522.93S663.06,1010.91,663.06,1010.91Z"/><path class="cls-5" d="M1324.6,1061.31S1123,966.81,1028.48,847.1s-126-560.73,201.62-642.64S1620.72,443.88,1627,532.08s-138.61,126-138.61,126l151.21,75.6S1872.73,821.9,1816,1187.32,1324.6,1061.31,1324.6,1061.31Z"/><path class="cls-6" d="M1690,872.3c-41-21.4-61.06-4.25-126-31.5-111-46.56-132.15-130-252-283.52-132.27-169.35-192.53-177.87-189-239.41,2.1-36.68,25.63-69.52,60.52-98.42-277.67,110.39-244.79,514-155,627.65,94.51,119.71,296.12,214.21,296.12,214.21s389.38,440.1,479.14,177.38C1807,993.94,1750.82,904,1690,872.3Z"/><path class="cls-4" d="M1085.19,954.21s63-422.13,428.42-497.73S1866.43,431.28,1879,488s-44.11,88.2-176.42,113.41-340.22,195.31-157.5,554.43Z"/><path class="cls-7" d="M1842.05,426.75a362.66,362.66,0,0,1-63.82,73.83c-125.18,109.83-257.63,67.33-371.72,138.61-72.17,45.08-149.68,143.64-170.85,381l309.46,135.65c-182.72-359.12,25.2-529.23,157.5-554.43S1891.64,544.68,1879,488C1873.45,462.86,1872.79,439,1842.05,426.75Z"/><path class="cls-8" d="M852.07,790.4C669.1,859,578.72,1078.56,568.56,1244c-17.81,289.74,205,500.25,302.41,592.24,128.07,121,269.92,189.74,321.32,214.21,106.8,50.85,118.9,38.79,321.32,119.71,200.07,80,222.69,105.52,277.22,94.5,140.3-28.35,206.59-241.15,239.41-346.52,68.44-219.69,115.61-622.89-100.8-793.84-53.2-42-112.36-62.15-189-88.21-194.09-66-236.15-11.06-371.73-69.3-151.51-65.1-150.3-155.75-296.11-189C1048.59,772.32,952.26,752.81,852.07,790.4Z"/><path class="cls-9" d="M1519.91,1893c-112.1-136.9-104.88-217-239.41-321.32-228.42-177.09-434.51-89.76-529.23-252-60.39-103.43-49.48-263.7,25.2-340.22,61.18-62.69,137.76-41.07,176.41-100.81,19.65-30.36,21.27-69,12.47-110.41-34.29,1.37-73.47,7.27-113.28,22.21C669.1,859,578.72,1078.56,568.56,1244c-17.81,289.74,205,500.25,302.41,592.24,128.07,121,269.92,189.74,321.32,214.21,106.8,50.85,118.9,38.79,321.32,119.71,200.07,80,222.69,105.52,277.22,94.5,51.61-10.43,93.18-45.86,126.78-91.68C1718.12,2092.62,1597.14,1987.27,1519.91,1893Z"/><path class="cls-10" d="M1900.78,1898c39.52-106,49.89-224.41,26-337.12-12.06-56-30-110.88-55.5-162.55l-9.64-19.32c-3.2-6.46-7-12.58-10.55-18.89s-7.1-12.57-10.82-18.75l-11.91-18.13c-4.08-6-7.75-12.23-12.3-17.88l-13.26-17.22c-8.49-11.77-18.64-22.22-28.23-33.12-9.31-11.17-20.44-20.63-30.82-30.81-10.17-10.45-22.09-18.92-33.31-28.2a336.57,336.57,0,0,0-35.48-25.45c-12.2-8-24.89-15.14-37.69-22a572.83,572.83,0,0,0-79.52-34.54c-27.11-9.46-54.5-17.3-81.42-24.87s-53.59-14.56-78.08-24.59-46.67-23-62.1-42.69c-15.44-19.5-25-44.61-27.75-70.69-.65-5.53-1-11.14-1.12-16.77-6.51-4.18-12.66-8.41-18.51-12.66a195.29,195.29,0,0,0-1.8,30.86c.9,29.64,8.79,60.17,26.8,85.82a147.46,147.46,0,0,0,32.37,33.25,209.11,209.11,0,0,0,39,22.83c26.9,12.34,54.17,21,80.86,29.48l1.28.4h-.84c1.78,57.38,14.16,115.15,39.36,167a364.34,364.34,0,0,0,46.46,72.39c18.11,22.2,38.89,41.31,58.35,60.15s37.33,38.06,48.89,61.2a171.31,171.31,0,0,1,18.94,75.26,241.52,241.52,0,0,1-2.41,39.76,305.25,305.25,0,0,1-8.76,39.35c-7.46,26-18,51.17-30.35,75.52l5.54,3c13.84-23.87,26.07-48.84,35.31-75.17a316.32,316.32,0,0,0,11.44-40.38,256.78,256.78,0,0,0,5-42.1,189.49,189.49,0,0,0-16.22-84.08c-11.58-26.91-30.6-49.52-49.28-69.9s-37.45-39.72-52.87-61a332,332,0,0,1-38.43-68.15c-18.3-44-26.58-91.42-26.91-139,37.61,12.68,73.9,27,108.06,45.44,23.6,12.92,46.36,27.35,67.25,44.26,10.38,8.52,21.49,16.18,30.93,25.82,9.64,9.38,20,18,28.74,28.34,8.95,10.08,18.47,19.65,26.44,30.6l12.47,16c4.32,5.2,7.69,11.12,11.66,16.6l11.51,16.73c3.61,5.73,7,11.61,10.52,17.42s7.16,11.53,10.29,17.56l9.48,18.07,4.74,9,4.28,9.27,8.56,18.57c2.76,6.23,5.17,12.62,7.77,18.92s5.29,12.58,7.51,19.05a693.63,693.63,0,0,1,24.33,78.28c26.76,105.77,23,219-6.16,326Z"/><path class="cls-10" d="M1221.36,960.1A142.65,142.65,0,0,0,1234.13,913a178,178,0,0,0-.4-38.15c-6.77-6.42-13.36-12.76-20-19-.11,3.66-.16,7.38-.33,11-.87,14.51-2.18,28.73-4.91,42.39-5.34,27.2-16.15,52.56-35.73,70-19.22,17.58-46.44,25-74.91,28.58-28.6,3.84-58.76,4.63-89.3,8.95s-61.89,12.63-89.11,29.78a170.4,170.4,0,0,0-36.55,30.69,191.72,191.72,0,0,0-26.7,38.9,229,229,0,0,0-17.41,43c-4.59,14.7-7.56,29.72-10.17,44.71-4.61,30.11-5.79,60.4-4.92,90.46l6.3.1c2-29.74,5.52-59.29,12-88,3.42-14.29,7.16-28.48,12.36-42.06a231.21,231.21,0,0,1,18.28-39.13c14.4-24.67,34.35-45.43,58.52-59.33,24.13-14.1,52.06-20.5,80.73-24,5.72-.69,11.51-1.18,17.31-1.66,8,21.45,11.53,44.57,9.14,67.42a157.64,157.64,0,0,1-9.49,39.42c-4.81,13.05-11.2,25.91-17.31,39.71-6,13.6-11.92,29.28-11.37,46.31.22,17,8.35,32.82,18.92,44.34,10.64,11.7,23.45,20.32,36.62,27.45a291.26,291.26,0,0,0,41,17.63l2.3-5.86a284.47,284.47,0,0,1-38.24-20.26c-12-7.74-23.1-16.81-31.35-27.56s-13.15-23.24-12.24-35.78c.61-12.5,6-24.81,12.87-37.3s14.53-25.35,21-39.34a183.48,183.48,0,0,0,14.65-44.79c4.58-24.37,3.41-49.63-2.31-73.75,12.49-.77,25.1-1.6,37.92-3.05,15.38-1.95,31.09-4.65,46.6-10s30.73-13.32,43.38-24.69A125.65,125.65,0,0,0,1221.36,960.1Z"/><path class="cls-3" d="M1440.06,2403.3c-97.64,0-212.79-16-323-48.37-150.69-44.27-253.67-124.6-344.52-195.48-88.56-69.08-165-128.74-262.79-136.59l2.41-30c106.73,8.57,186.5,70.8,278.87,142.85,88.74,69.22,189.31,147.68,334.51,190.33,233.11,68.49,467,56.41,520.38-.15,9.26-9.8,11.6-19.89,7.36-31.75-20.64-57.74-144.47-56.75-264.25-55.82-58.46.46-118.94.94-172.47-4.83-51-5.5-86.6-25.33-105.7-58.93-37.16-65.35,4.22-157.41,6-161.3l27.33,12.51-13.67-6.25,13.67,6.24c-.36.81-36.76,82.1-7.17,134,14.07,24.68,41.91,39.43,82.75,43.83,51.81,5.59,111.39,5.12,169,4.66,136.29-1.08,265-2.09,292.79,75.77,8.12,22.72,3.35,44.33-13.81,62.5C1632.25,2384.24,1546.57,2403.3,1440.06,2403.3Z"/><path class="cls-11" d="M238,1978c-28.26,152.44,72.85,290.49,229,308.72,159.69,18.65,315.71-94.65,345.16-253.44s-79.84-297.64-240.72-309.86C414.13,1711.45,266.27,1825.54,238,1978Z"/><path class="cls-12" d="M235.5,1981c-27.63,151.17,71.23,288.07,223.88,306.15,156.13,18.5,308.68-93.86,337.47-251.34s-78.06-295.16-235.36-307.27C407.7,1716.68,263.13,1829.82,235.5,1981Z"/><path class="cls-13" d="M259.74,1983.35c-25.19,137.83,65.1,262.48,204.22,278.7,142,16.55,280.52-85.75,306.67-228.82s-70.75-268.35-213.72-279.62C416.84,1742.56,284.94,1845.51,259.74,1983.35Z"/><path class="cls-14" d="M320.74,1989.3c-19.07,104.3,49.54,198.26,154.69,210,106.79,12,210.49-65.19,230.1-172.45s-52.75-201.59-160.09-210.55C439.75,1807.5,339.8,1885,320.74,1989.3Z"/><path class="cls-15" d="M423.63,1999.35c-8.73,47.73,22.88,90.45,70.9,95.45,48.37,5,95-30.05,103.82-78.39s-23.54-91.13-72-95.55C478.2,1916.47,432.35,1951.62,423.63,1999.35Z"/><path class="cls-16" d="M369.27,2192.05c62.05-71.19,19.52-140,78.69-208.7,75.28-87.41,197.71-38.24,249.76-118a111.12,111.12,0,0,0,15.46-37.85c48.43,52,72,126.14,57.45,205.77C744.48,2176.3,606,2278.6,464,2262.05c-45.51-5.31-85.78-22.22-118.51-47.39A175.83,175.83,0,0,0,369.27,2192.05Z"/><path class="cls-17" d="M1535,911.75l18.12-1.19c25.53-.45,49.18-20.1,52.71-43.88l1.26-8.49c3.53-23.79-14.43-42.51-40-41.83l-30.38,1.8c-25.11.67-85.39,20.2-88.86,43.62l-1.24,8.36C1443.11,893.56,1509.89,912.19,1535,911.75Z"/><path class="cls-18" d="M1189.89,1954.62l249.45-140.07c62.44-35.07,117.39-83.94,158.56-141.31,41.43-57.73,68.67-123.73,78.58-190.6l69.17-466.48c13.5-91.1-52.58-164.14-147.53-168.29a14.78,14.78,0,0,0-15.2,12.64l-.86,5.8a14.85,14.85,0,0,0,13.55,16.94c72.2,6,121.55,62.91,111.13,133.19l-68.91,464.77c-18.39,124-100,237.88-216.29,303.62L1173,1925.26Z"/><path class="cls-17" d="M1177.05,1969.67a33.14,33.14,0,0,0,19.1-4.17l249.78-139.93c64.47-36.12,121.21-86.51,163.74-145.69,42.8-59.57,70.94-127.69,81.17-196.71,2.54-17.14-10.53-31.56-29.13-32.19s-35.57,12.67-38.1,29.7c-17.74,119.65-96.4,229.64-208.63,293.19l-248.2,140.57c-15.11,8.55-20.81,26.86-12.76,40.93A29.13,29.13,0,0,0,1177.05,1969.67Z"/><path class="cls-18" d="M1086.5,1945.73l24.69-25.61L921,1751.07c-83.53-74.24-122.52-186.08-105.58-300.32l63.49-428.25c10.3-69.44,75.94-127.09,147.25-128.53l4.91-33.16c-89.72,2.11-172,74.74-185,161.93l-63.28,426.8c-9.07,61.18-3.59,123.09,15.94,179.27a354.61,354.61,0,0,0,98.46,147.68Z"/><path class="cls-17" d="M1094.44,1962.44a32.82,32.82,0,0,0,26.33-9.94c11.92-12.33,11.72-31.1-.43-41.88l-190.53-169c-80.89-71.73-118.68-179.91-102.29-290.45,2.33-15.74-8.53-28.93-24.21-29.47s-30.15,11.72-32.47,27.37c-9.34,63-3.71,126.72,16.36,184.58a365.46,365.46,0,0,0,101.27,152.17l188.94,169.32A29.18,29.18,0,0,0,1094.44,1962.44Z"/><path class="cls-17" d="M1074.8,918.47l-32.26,1.09c-23,.41-38.82-17.44-35.5-39.86l1.19-8c3.32-22.43,24.59-41.1,47.59-41.71l27.53-1.65c23.4-.62,74.06,17.31,70.69,40.07l-1.2,8.12C1151.78,911.33,1098.17,918.06,1074.8,918.47Z"/><path class="cls-12" d="M1133.19,1984a176.13,176.13,0,0,0,110.42-27.58l48.35-31c20.93-13.42,27.35-39.82,14.29-58.88s-40.41-23.39-61.14-9.92l-47.89,31.1c-31.76,20.64-72.78,17.42-97.55-7.43l-37.61-37.71c-15.75-15.79-42.5-15.31-59.74,1s-18.54,42.15-3,58l37.13,37.75C1062.34,1965.58,1096.76,1980.7,1133.19,1984Z"/><path class="cls-12" d="M1115.48,2101.56c23.65,2.4,45.67-14.3,49.09-37.3l17.51-118.13c3.41-23-13.14-43.22-36.86-45.14s-45.41,15-48.8,37.84L1079.06,2056C1075.68,2078.76,1091.94,2099.18,1115.48,2101.56Z"/><path class="cls-19" d="M1111.11,871.81c-2.64,12.88,2.66,24.83,11.82,26.71s18.72-7,21.35-19.93-2.66-24.83-11.82-26.7S1113.74,858.93,1111.11,871.81Z"/></g></g></svg>