<?xml version="1.0" encoding="utf-8"?>
<!-- Generator: Adobe Illustrator 25.0.0, SVG Export Plug-In . SVG Version: 6.00 Build 0)  -->
<svg version="1.1" id="Layer_1" xmlns="http://www.w3.org/2000/svg" xmlns:xlink="http://www.w3.org/1999/xlink" x="0px" y="0px"
	 viewBox="0 0 300 300" style="enable-background:new 0 0 300 300;" xml:space="preserve">
<style type="text/css">
	.st0{opacity:8.000000e-02;fill:#E13856;enable-background:new    ;}
	.st1{fill:#EB6A6D;}
	.st2{fill:#5E2F3F;}
	.st3{fill:#C91F1F;}
	.st4{fill:#AA0909;}
	.st5{fill:#F1968D;}
	.st6{fill:#4A2532;}
	.st7{fill:#804055;}
	.st8{fill:#8FDBFF;}
</style>
<g>
	<g id="OBJECTS">
		<g id="Page-1">
			<g id="For-you-and-your-partner-Copy-4">
				<g id="Group-4">
					<circle id="Mask-Copy-2" class="st0" cx="150" cy="150" r="150"/>
				</g>
			</g>
		</g>
	</g>
</g>
<g>
	<path class="st1" d="M138.3,133.4c0.1,0.5-0.2,1-0.7,1.2c-1.7,0.5-3.5,0.7-5.3,0.7c-3.4,0-6.9-0.9-9.9-2.6
		c-0.5-0.3-0.6-0.8-0.4-1.3c0.3-0.5,0.8-0.6,1.3-0.4c4.2,2.3,9.2,2.9,13.8,1.7C137.6,132.6,138.2,132.9,138.3,133.4z"/>
	<path class="st2" d="M138.8,101.7c-0.2,0-0.4,0-0.6-0.1c-2.7-0.3-5.5,0.7-7.3,2.7c-0.4,0.4-0.7,0.8-1.2,1c-0.5,0.2-1.3-0.1-1-0.6
		c1-2,2.7-3.6,4.8-4.4c1.2-0.5,2.5-0.7,3.8-0.6c0.1,0,0.2,0,0.4,0C138,100.4,138.4,101,138.8,101.7z"/>
	<path class="st1" d="M149.4,141c0.7,0.1,1.4,0.4,1.9,0.8c-0.4,0.5-0.8,0.9-1.2,1.3c-0.5-0.3-1.1-0.5-1.7-0.5
		c-1.1-0.1-2.3,0.4-3.3,0.8c-2.5,0.9-5,1.9-7.5,2.8c-0.3-0.1-0.3-0.5-0.2-0.8c0.2-0.3,0.5-0.5,0.8-0.7c2.6-1.3,5.2-2.5,8-3.3
		C147.3,141.1,148.3,140.8,149.4,141z"/>
	<path class="st3" d="M87.8,268.4c-1-1.3-2-2.5-3-3.8c-3.4-4.5-6.4-9.3-9.1-14.2c-4.4-8.1-8.1-16.6-11.2-25.3
		c-1.8-5-3.5-10.1-3.9-15.4c-0.4-5.3,0.5-10.9,3.4-15.3c3.4-5,9-8.1,14.6-10.6c5.5-2.5,11.4-4.8,15.7-9c0.2-0.2,0.5-0.4,0.7-0.7
		c4.6,4.6,10.8,7.5,17.2,8.1c-0.3,3.1-0.6,6.2-1,9.3c-1.1,8.5-2.5,17-3.9,25.4c-0.8,4.9-1.7,9.8-2.5,14.7
		c-4.2-10-9.2-19.7-15.1-28.8c-1.3-2-2.8-4.2-5-5.2c-0.4-0.2-1-0.4-1.4-0.1c-0.4,0.3-0.7,1.1-0.2,0.9c3.4,4.9,6.6,10.1,9.5,15.3
		c-7.9-7-18.3-11.3-28.8-11.8c-0.1,0.7,0,1.2,0.6,1.6c0.6,0.4,1.3,0.6,2,0.8c10.6,3,20.6,8.1,29.2,14.8c3.1,6.1,5.8,12.3,8.2,18.7
		c-1,5.9-2,11.7-3,17.6c-0.5,0.2-0.5,1.5,0,1.7c0.5,0.3,1.1,0,1.5-0.4c0.4-0.4,0.5-1,0.6-1.5c5.1-20.9,7.6-42.4,10.1-63.7
		c7.3,0.2,14.5,2.9,20.3,7.3c-0.3,2.4-0.5,4.8-0.7,7.2c-0.9,8.3-1.7,16.6-2.6,24.8c-0.4,4.1-0.9,8.3-1.3,12.4
		c-0.2,2.1-0.4,4.1-0.6,6.2c-0.2,2-0.6,4.1-0.6,6.1c-0.5,5.1-1.1,10.3-3,15c-1.2,3-3,5.8-5.4,7.9c0,0,0,0,0,0
		c-0.5,0.4-1,0.8-1.5,1.1c-1.1,0.7-2.2,1.3-3.4,1.7c-4.4,1.5-9.3,0.6-13.5-1.5c-0.4-0.2-0.9-0.5-1.3-0.7c-1.7-1-3.3-2.2-4.8-3.6
		c-0.2-0.2-0.4-0.4-0.7-0.6c-1.4-1.3-2.6-2.6-3.9-4c-0.6-0.6-1.1-1.3-1.6-1.9C88.3,269,88.1,268.7,87.8,268.4z"/>
	<path class="st4" d="M132.2,258c-0.9,0.1-1.8,0.2-2.7,0.4c0.2-0.8,0.4-1.6,0.6-2.4c12.9-1.7,26.1-3.4,39.1-5.1
		c0.1,0.8,0.2,1.6,0.3,2.3C157.1,254.8,144.5,256.4,132.2,258z"/>
	<path class="st4" d="M92.7,213.8c1,1.8,2,3.7,2.9,5.5c-8.7-6.7-18.7-11.8-29.2-14.8c-0.7-0.2-1.4-0.4-2-0.8
		c-0.6-0.4-0.7-0.9-0.6-1.6C74.4,202.5,84.8,206.7,92.7,213.8z"/>
	<path class="st4" d="M92.7,213.8c-2.9-5.3-6.1-10.4-9.5-15.3c-0.5,0.1-0.2-0.6,0.2-0.9c0.4-0.3,1-0.1,1.4,0.1
		c2.2,1.1,3.6,3.2,5,5.2c5.9,9.1,11,18.8,15.1,28.8c-0.4,2.1-0.7,4.2-1.1,6.3c-2.4-6.4-5.1-12.7-8.2-18.7
		C94.6,217.4,93.7,215.6,92.7,213.8z"/>
	<path class="st3" d="M84.8,264.6c-1.9,0.4-3.7,0.8-5.5,1.4c-0.5,0.2-1,0.3-1.5,0.6c-0.7-5.4-1.3-10.8-2-16.2
		C78.5,255.3,81.5,260.1,84.8,264.6z"/>
	<path class="st5" d="M77.8,266.6c0.5-0.2,1-0.4,1.5-0.6c1.8-0.6,3.7-1.1,5.5-1.4c1,1.3,2,2.6,3,3.8c-2.6,0.2-5.1,0.8-7.5,1.8
		c-0.6,0.3-1.3,0.6-2,0.7c0,0,0,0-0.1,0c-0.7,0.1-1.5-0.1-2-0.6c-0.7-0.8-0.5-2.1,0.3-2.9C76.9,267.1,77.3,266.8,77.8,266.6z"/>
	<path class="st4" d="M80.3,270.2c2.4-1,4.9-1.6,7.5-1.8c0.2,0.3,0.5,0.6,0.7,0.8c-3,0.3-6,1-9,1.9c-0.4,0.1-0.8,0.3-1.2,0.4
		c0-0.2-0.1-0.4-0.1-0.7C79,270.8,79.7,270.5,80.3,270.2z"/>
	<path class="st4" d="M170.6,243.5c0.3,2.3,0.6,4.7,0.9,7c-0.8,0.1-1.6,0.2-2.4,0.3c-0.8-6.4-1.6-12.9-2.5-19.3
		c-1-7.3-2.1-14.5-3.3-21.7c-0.2-1.3-0.4-2.6-0.6-3.9c-0.1-0.6-0.2-1.3-0.3-1.9c-0.1-0.4-0.3-0.9-0.3-1.3c0-0.3,0.2-0.6,0.5-0.8
		c0.3-0.1,0.6-0.2,0.9-0.1c1.5,0.4,1.4,2.4,1.6,3.6c0.3,1.8,0.6,3.6,0.9,5.4c0.6,3.6,1.1,7.2,1.7,10.8
		C168.7,229,169.7,236.2,170.6,243.5z"/>
	<path class="st4" d="M177,251c0,0,0,0.1,0,0.1c0,0.6-0.4,1.1-1,1.2c-1.4,0.2-2.8,0.4-4.2,0.5c-0.1-0.8-0.2-1.6-0.3-2.3
		c1.4-0.2,2.8-0.4,4.1-0.5C176.3,249.9,176.9,250.4,177,251z"/>
	<path class="st4" d="M104.9,231.7c0.8-4.9,1.7-9.8,2.5-14.7c1.4-8.4,2.9-16.9,3.9-25.4c0.6,0,1.2,0,1.8,0
		c-2.5,21.4-5,42.8-10.1,63.7c-0.1,0.5-0.3,1.1-0.6,1.5c-0.4,0.4-1,0.7-1.5,0.4c-0.5-0.3-0.5-1.5,0-1.7c1-5.9,2-11.7,3-17.6
		C104.1,235.9,104.5,233.8,104.9,231.7z"/>
	<path class="st5" d="M99.5,279.3c-4.2,0.9-8.4,1.7-12.6,2.6c-0.7,0.1-1.6,0.2-2-0.3c-0.3-0.4-0.3-1.1,0-1.5
		c0.3-0.5,0.8-0.8,1.2-1.1c2.6-1.6,5.5-2.7,8.5-3.3C96.2,277.1,97.8,278.3,99.5,279.3z"/>
	<path class="st5" d="M78.6,276.1c-0.7,0.1-1.5-0.1-2-0.6c-0.7-0.8-0.5-2.1,0.3-2.9c0.4-0.5,1-0.8,1.6-1.1c0.4-0.2,0.8-0.3,1.2-0.4
		c2.9-0.9,5.9-1.6,9-1.9c0.5,0.6,1.1,1.3,1.6,1.9c1.2,1.4,2.5,2.7,3.9,4c-3.5,0.5-7.2,1.1-10,2.3c-0.7,0.3-1.3,0.6-2,0.7
		c-0.7,0.1-1.5-0.1-2-0.6c-0.4-0.5-0.5-1.2-0.3-1.8c-0.2,0.1-0.4,0.2-0.7,0.2C78.8,276,78.7,276.1,78.6,276.1z"/>
	<path class="st3" d="M80,277.6c0.5,0.5,1.3,0.7,2,0.6c0.7-0.1,1.4-0.4,2-0.7c2.8-1.2,6.5-1.8,10-2.3c0.2,0.2,0.4,0.4,0.7,0.6
		c-3,0.6-5.9,1.7-8.5,3.3c-0.5,0.3-0.9,0.6-1.2,1.1c-0.3,0.5-0.4,1.1,0,1.5c0.5,0.5,1.3,0.5,2,0.3c4.2-0.9,8.4-1.7,12.6-2.6
		c0.4,0.3,0.9,0.5,1.3,0.7c4.1,2.1,9.1,3,13.5,1.5c1.2-0.4,2.4-1,3.4-1.7c3.7-0.1,7.3-0.1,10.9,0.7c2,0.4,4,0.8,6,1.1
		c12.5,2.1,25.2,2.7,37.9,1.6c0.5,5.4,0.9,10.8,1.2,16.2H81.9c-1-7.8-2-15.6-2.9-23.4c0.2-0.1,0.4-0.1,0.7-0.2
		C79.5,276.4,79.5,277.1,80,277.6z"/>
	<path class="st4" d="M171.5,250.5c0.1,0.8,0.2,1.6,0.3,2.3c-0.8,0.1-1.6,0.2-2.4,0.3c-0.1-0.8-0.2-1.6-0.3-2.3
		C169.9,250.7,170.7,250.6,171.5,250.5z"/>
	<path class="st3" d="M172.4,283.2c-12.6,1.1-25.4,0.5-37.9-1.6c1.6-7.9,0.8-16.2-2.4-23.6c12.3-1.6,24.9-3.2,37.2-4.8
		c0.8-0.1,1.6-0.2,2.4-0.3c1.4-0.2,2.8-0.4,4.2-0.5c0.6-0.1,1-0.6,1-1.2c0,0,0-0.1,0-0.1c-0.1-0.7-0.7-1.1-1.3-1
		c-1.4,0.2-2.8,0.4-4.1,0.5c-0.3-2.3-0.6-4.7-0.9-7c-0.9-7.3-1.9-14.5-3-21.8c-0.5-3.6-1.1-7.2-1.7-10.8c-0.3-1.8-0.6-3.6-0.9-5.4
		c-0.2-1.2-0.1-3.2-1.6-3.6c-0.3-0.1-0.6-0.1-0.9,0.1c-0.3,0.1-0.5,0.4-0.5,0.8c0,0.4,0.3,0.9,0.3,1.3c0.1,0.6,0.2,1.3,0.3,1.9
		c0.2,1.3,0.4,2.6,0.6,3.9c1.2,7.2,2.3,14.5,3.3,21.7c0.9,6.4,1.7,12.9,2.5,19.3c-13,1.7-26.2,3.4-39.1,5.1
		c4.4-20,4.6-46.1,6.6-54.1c-1-1-2.1-1.9-3.2-2.8c0.2-1.7,0.4-3.5,0.5-5.2c0.2-2.1,0.4-4.1,0.6-6.2c0.1-1,0.2-2.1,0.3-3.1
		c0.1-0.9,0.1-1.8,0.5-2.6c0.7-1.5,2.4-2.5,3.6-3.5c1.4-1.2,2.9-2.5,4.3-3.8c0,0,0.1-0.1,0.1-0.1c0.4,0.1,0.9,0.2,1.3,0.3
		c6.3,1.3,12.9,1.8,18.3,5.1c6.1,3.7,9.6,10.4,12.5,17c8.6,19.5,13.4,40.3,17.8,61.1c1,4.9,2,10.3,0,14.9c-1.6,3.7-5,6.4-8.7,7.9
		c-3.7,1.5-7.8,2.1-11.8,2.4C172.6,283.2,172.5,283.2,172.4,283.2z"/>
	<path class="st5" d="M119.8,155.1c2.5-2.8,4.9-5.8,7.2-8.8c2-2.7,4-5.6,6.9-7.3c3.2-1.8,7-1.9,10.6-2.7c1.4-0.3,2.9-0.7,4.3-0.7
		c0.4,0,0.8,0.1,1.2,0.2c1,0.3,1.9,1,2.3,2c0.4,1,0.1,2-0.3,3c-0.2,0.3-0.4,0.7-0.6,1c-0.5-0.5-1.2-0.7-1.9-0.8
		c-1.1-0.1-2.1,0.1-3.1,0.4c-2.8,0.8-5.4,1.9-8,3.3c-0.3,0.2-0.6,0.3-0.8,0.7c-0.2,0.3-0.2,0.8,0.2,0.8c2.5-0.9,5-1.9,7.5-2.8
		c1.1-0.4,2.2-0.8,3.3-0.8c1.5,0.1,3,1.3,3.6,2.6c0.4,0.9,0.5,1.9,0.6,2.9c0.1,1.5,1.2,2.3,1.7,3.6c0.4,1,0.3,2,0.4,3.1
		c0.9,0.1,1.8,0.7,2.2,1.5c0.4,0.8,0.4,1.8,0.2,2.7c-0.2,0.7-0.7,1.3-1.2,1.9c-0.4,0.5-0.8,1.1-1.2,1.7c-1.1,1.4-2.2,2.7-3.4,4
		c-2.5,2.8-5.2,5.3-7.9,7.8c0,0-0.1,0.1-0.1,0.1c-1.4,1.3-2.8,2.5-4.3,3.8c-1.2,1-2.9,2-3.6,3.5c-0.4,0.8-0.4,1.7-0.5,2.6
		c-0.1,1-0.2,2.1-0.3,3.1c-0.2,2.1-0.4,4.1-0.6,6.2c-0.2,1.7-0.4,3.5-0.5,5.2c-5.8-4.5-13-7.1-20.3-7.3c-0.6,0-1.2,0-1.8,0
		c0.4-3.1,0.7-6.2,1-9.3c0-0.1,0-0.2,0-0.3c0.5-5.7,1.2-11.7,0.7-17.4c-0.4-4.2-1.4-8.3-3.6-12.1c-0.3-0.5-0.6-1-1-1.5
		c-1.3-1.9-2.9-3.5-4.3-5.2c-0.6-0.7-1.2-1.6-0.8-2.5c0.2-0.5,0.7-0.9,1.2-1c3.4-0.9,6.8,1.4,9,3.7
		C116.2,148.5,118.1,151.8,119.8,155.1z"/>
	<path class="st2" d="M117.4,110.2c0.2,0.2,0.2,0.5,0.1,0.7c-0.1,0.3-0.4,0.5-0.6,0.6c-0.4,0.1-0.8,0.2-1.2,0.2
		c-2.7,0.2-5.2,1.8-6.6,4.2c-0.3,0.4-0.5,0.9-1,1.2c-0.5,0.3-1.3,0.1-1.1-0.4c0.6-2.1,1.9-4.1,3.8-5.3c1.1-0.7,2.3-1.2,3.6-1.4
		c0.5-0.1,1-0.1,1.6-0.1c0.3,0,0.5,0,0.8,0.1c0.1,0,0.3,0,0.4,0C117.2,110.1,117.3,110.1,117.4,110.2z"/>
	<path class="st1" d="M109.4,152.4c2.2,3.8,3.2,7.9,3.6,12.1c-4.9-4.5-9.5-9.4-13.6-14.6c-0.4-0.5-1-1.3-0.6-2
		c1.9,0.4,3.8,1.7,5.6,2.5C105.9,151.1,107.6,151.8,109.4,152.4z"/>
	<path class="st2" d="M118.6,116.9c1.2,0.1,2,1.1,1.9,2.3c-0.1,1.2-1.1,2-2.3,1.9c-1.2-0.1-2-1.1-1.9-2.3
		C116.5,117.7,117.5,116.8,118.6,116.9z"/>
	<path class="st1" d="M93.6,146.2c-0.1,0-0.1,0.1-0.2,0.1c-0.7,0.2-1.5,0.2-2.2,0c-1.3-0.2-2.6-0.8-3.5-1.7c-0.9-0.9-1-1.8-1-3.2
		c0-1.3,0.8-2.5,1.9-3c1.1-0.5,2.6-0.4,3.6,0.4c-1.1,0.6-1.6,2.1-1,3.2c0.6,1.1,2.2,1.5,3.3,0.8c0.7,0.3,0.7,1.3,0.5,2
		C94.8,145.5,94.2,145.9,93.6,146.2z"/>
	<path class="st1" d="M138.9,118.7c1.3,1.5,1.2,3.7,0.4,5.2c-0.8,1.5-2.1,2.6-3.2,3.5c-0.2,0.1-0.4,0.2-0.6,0.2
		c-0.3,0-0.5-0.1-0.7-0.3c-0.3-0.4-0.3-1,0.1-1.3c1-0.9,2.1-1.8,2.7-2.9c0.5-0.9,0.6-2.2-0.1-3c-0.5-0.5-1.3-0.8-2.1-1.1l-0.3-0.1
		c-1.1-0.4-2.2-0.8-3.2-1.4c-0.5-0.2-0.6-0.8-0.4-1.3s0.8-0.7,1.3-0.4c0.9,0.5,1.9,0.9,2.9,1.2l0.3,0.1
		C136.9,117.4,138.1,117.7,138.9,118.7z"/>
	<path class="st2" d="M137.5,106.7c1.2,0.1,2,1.1,1.9,2.3c-0.1,1.2-1.1,2-2.3,1.9c-1.2-0.1-2-1.1-1.9-2.3
		C135.3,107.4,136.4,106.6,137.5,106.7z"/>
	<path class="st5" d="M93.6,146.2c0.6-0.2,1.2-0.7,1.4-1.3c0.2-0.7,0.2-1.6-0.5-2c-1.1,0.7-2.7,0.3-3.3-0.8c-0.6-1.1-0.1-2.7,1-3.2
		c-1-0.8-2.4-1-3.6-0.4c-1.1,0.5-1.9,1.8-1.9,3c0,1.3,0.1,2.2,1,3.2c0.9,0.9,2.2,1.5,3.5,1.7c0.7,0.1,1.5,0.2,2.2,0
		C93.4,146.2,93.5,146.2,93.6,146.2z M83.5,136.5c0.2-0.3,0.4-0.6,0.7-0.9c2.4-2.8,6.1-3.2,9.3-1.9l0.6,0c-1.6-2.1-2.1-4.9-2-7.5
		c0.1-2.6,0.7-5.2,1-7.9c0.4-4.1,0-8.4-2.4-11.7c11-7.5,22.3-14.3,34-20.6l0,0.1c2.4,1.5,4.7,3.9,6.6,5.9c0.4,0.5,0.8,0.9,1.2,1.4
		c1.8,2,3.5,4.2,5,6.4c-0.1,0-0.2,0-0.4,0c-1.3-0.1-2.6,0.1-3.8,0.6c-2.1,0.8-3.8,2.4-4.8,4.4c-0.2,0.5,0.5,0.8,1,0.6
		c0.5-0.2,0.8-0.6,1.2-1c1.8-2,4.6-3.1,7.3-2.7c0.2,0,0.4,0.1,0.6,0.1c0.4,0.7,0.8,1.4,1.2,2.1c4.3,7.7,7.1,16.2,8.9,24.8
		c0.5,2.4,0.9,4.8,1,7.3c-0.4-0.1-0.8-0.2-1.2-0.2c-1.5-0.1-2.9,0.3-4.3,0.7c-3.6,0.8-7.4,0.9-10.6,2.7c-2.9,1.7-4.9,4.6-6.9,7.3
		c-2.2,3.1-4.6,6-7.2,8.8c-1.8-3.3-3.6-6.6-6.3-9.3c-2.3-2.3-5.6-4.6-9-3.7c-0.5,0.1-1,0.5-1.2,1c-0.3,0.9,0.3,1.8,0.8,2.5
		c1.4,1.8,3,3.4,4.3,5.2c0.3,0.5,0.7,1,1,1.5c-1.7-0.6-3.4-1.3-5.1-2.1c-1.8-0.8-3.7-2.1-5.6-2.5c-0.3,0.7,0.2,1.4,0.6,2
		c4.2,5.2,8.8,10.1,13.6,14.6c0.5,5.7-0.2,11.7-0.7,17.4c0,0.1,0,0.2,0,0.3c-6.4-0.7-12.6-3.6-17.2-8.1c6.9-7.3,5.1-17.2,0.3-25.2
		c-1.7,0.8-3.6,1.1-5.4,0.8c-3.1-0.4-5.9-2.5-7.1-5.4C81.8,141.9,82,138.8,83.5,136.5z M139.5,109c0.1-1.2-0.8-2.2-1.9-2.3
		c-1.2-0.1-2.2,0.8-2.3,1.9c-0.1,1.2,0.8,2.2,1.9,2.3C138.3,111,139.4,110.1,139.5,109z M139.3,123.8c0.8-1.5,1-3.7-0.4-5.2
		c-0.8-0.9-2-1.3-3-1.6l-0.3-0.1c-1-0.3-2-0.7-2.9-1.2c-0.5-0.2-1-0.1-1.3,0.4s-0.1,1,0.4,1.3c1,0.5,2.1,1,3.2,1.4l0.3,0.1
		c0.9,0.3,1.7,0.5,2.1,1.1c0.7,0.8,0.6,2.1,0.1,3c-0.6,1.1-1.7,2-2.7,2.9c-0.4,0.3-0.5,0.9-0.1,1.3c0.2,0.2,0.5,0.3,0.7,0.3
		c0.2,0,0.4-0.1,0.6-0.2C137.2,126.4,138.5,125.3,139.3,123.8z M137.6,134.6c0.5-0.1,0.8-0.7,0.7-1.2c-0.1-0.5-0.7-0.8-1.2-0.7
		c-4.6,1.3-9.6,0.7-13.8-1.7c-0.5-0.3-1-0.1-1.3,0.4c-0.3,0.5-0.1,1,0.4,1.3c3,1.7,6.4,2.6,9.9,2.6
		C134.1,135.3,135.9,135.1,137.6,134.6z M120.6,119.2c0.1-1.2-0.8-2.2-1.9-2.3c-1.2-0.1-2.2,0.8-2.3,1.9c-0.1,1.2,0.8,2.2,1.9,2.3
		C119.5,121.2,120.5,120.4,120.6,119.2z M117.5,111c0.1-0.2,0.2-0.5-0.1-0.7c-0.1-0.1-0.2-0.1-0.3-0.1c-0.1,0-0.3,0-0.4,0
		c-0.3,0-0.5-0.1-0.8-0.1c-0.5,0-1.1,0-1.6,0.1c-1.3,0.2-2.5,0.6-3.6,1.4c-1.9,1.2-3.2,3.1-3.8,5.3c-0.1,0.5,0.7,0.6,1.1,0.4
		c0.4-0.3,0.7-0.8,1-1.2c1.4-2.3,3.9-3.9,6.6-4.2c0.4,0,0.8,0,1.2-0.2C117.1,111.4,117.3,111.2,117.5,111z"/>
	<path class="st4" d="M130,255.9c4.4-20,4.6-46.1,6.6-54.1c-1-1-2.1-1.9-3.2-2.8c-0.3,2.4-0.5,4.8-0.7,7.2
		c-0.9,8.3-1.7,16.6-2.6,24.8c-0.4,4.1-0.9,8.3-1.3,12.4c-0.2,2.1-0.4,4.1-0.6,6.2c-0.2,2-0.6,4.1-0.6,6.1c-0.1,1-0.2,1.9-0.3,2.9
		c0.6-0.1,1.2-0.2,1.8-0.2c0.1,0,0.2,0,0.3,0c0,0,0,0,0-0.1C129.7,257.5,129.9,256.7,130,255.9z"/>
	<path class="st4" d="M129.5,258.3C129.5,258.3,129.5,258.3,129.5,258.3C129.5,258.4,129.5,258.4,129.5,258.3
		c-0.1,0.1-0.2,0.1-0.4,0.1c-0.6,0.1-1.2,0.2-1.8,0.2c-0.5,4.1-1.1,8.3-2.7,12.1c-1.2,2.9-3,5.7-5.4,7.8
		C124,275.1,127.2,267.5,129.5,258.3z M129.3,259.1c-0.1,0.3-0.2,0.7-0.3,1C129.1,259.8,129.2,259.4,129.3,259.1z"/>
	<path class="st5" d="M129.5,258.3c-2.2,9.2-5.5,16.7-10.3,20.3c0,0,0,0,0,0c0,0,0,0,0,0c-0.5,0.4-1,0.8-1.5,1.1
		c3.7-0.1,7.3-0.1,10.9,0.7c2,0.4,4,0.8,6,1.1c1.6-7.9,0.8-16.2-2.4-23.6C131.3,258.1,130.4,258.2,129.5,258.3z"/>
	<path class="st4" d="M134.6,281.6c9.4,4.7,22.7,7.2,38.4,8.3l-0.5-6.7C159.5,283.8,146.9,283.3,134.6,281.6z"/>
	<path class="st6" d="M90.6,107.4c0.1,0.4,0.1,0.8,0,1.2c-0.1,0.8-0.5,1.6-1,2.2c-0.9,1.2-2.1,2-3.3,2.9c-1.2,0.9-2.3,1.9-2.9,3.3
		c-1.1,2.4-0.1,5.4-1.3,7.8c-0.9,1.7-2.7,2.7-4.4,3.7c0,0,0,0,0,0.1c1.6,2.8,3.6,5.4,5.7,7.9c0.2-0.3,0.4-0.6,0.7-0.9
		c2.4-2.8,6.1-3.2,9.3-1.9l0.6,0c-1.6-2.1-2.1-4.9-2-7.5c0.1-2.6,0.7-5.2,1-7.9c0.4-4,0-8.4-2.4-11.7
		C90.2,106.7,90.6,107.1,90.6,107.4z"/>
	<path class="st6" d="M130.1,87c-2.1-1.3-4.6-1.9-6.7-3.3c-0.8-0.6-1.6-1.2-2.5-1.6c-2.1-0.8-4.4,0.4-6.2,1.8
		c-1.8,1.4-3.6,3-5.8,3.3c-1.2,0.1-2.5-0.2-3.7,0.1c-1.7,0.5-2.8,2-3.8,3.5c-3.2,5-6.5,10-9.7,15c10.6-7.2,21.6-13.8,32.9-19.8
		l0,0.1c2.4,1.5,4.7,3.9,6.6,5.9c0.4-1.1,0.7-2.3,0.7-3.4C131.5,88,130.8,87.4,130.1,87z"/>
	<path class="st7" d="M91.9,86.5c0.6-1.2,1.4-2.5,2.7-2.6c0.6-0.1,1.2,0.2,1.9,0.3c2.4,0.3,4.4-1.8,6.2-3.5
		c5.4-5.1,13.1-7.6,20.4-6.8c-0.4-0.4-0.9-0.7-1.4-1c-1.9-1-4.1-1.1-6.2-1c-5.6,0.4-11.1,2.7-15.4,6.4c-0.1-1.2-1.3-2.1-2.5-2.2
		c-1.2-0.1-2.4,0.3-3.4,0.9c-5.1,2.8-8.1,8.2-10.1,13.5c-2,5.4-3.4,11.1-6.5,15.9l0,0c-0.3,0.3-0.5,0.6-0.7,0.9
		c1.7-1.3,3.7-2.5,5.3-3.9C87.2,99.1,88.9,92.4,91.9,86.5z"/>
	<path class="st2" d="M131.4,84.1c-0.9-2.4-2.9-5.1-5.4-6c-1.5-0.5-1-1.1-1.6-2.5c-0.3-0.6-0.7-1.2-1.2-1.7
		c-7.4-0.8-15,1.7-20.4,6.8c-1.8,1.7-3.7,3.8-6.2,3.5c-0.6-0.1-1.2-0.3-1.9-0.3c-1.3,0.1-2.2,1.4-2.7,2.6c-2.9,5.9-4.7,12.7-9.7,17
		c-1.6,1.4-3.6,2.6-5.3,3.9c-1.8,2.5-2.7,5.7-2.8,8.8c-0.1,4.3,1.4,8.6,3.6,12.3c1.7-1,3.5-1.9,4.4-3.7c1.2-2.4,0.3-5.4,1.3-7.8
		c0.6-1.4,1.8-2.4,2.9-3.3c1.2-0.9,2.4-1.7,3.3-2.9c0.5-0.7,0.8-1.4,1-2.2c0.1-0.4,0.1-0.8,0-1.2c-0.1-0.3-0.4-0.7,0-0.9
		c0,0,0,0,0,0c0.4-0.2,0.7-0.5,1.1-0.7c3.2-5,6.5-10,9.7-15c1-1.5,2.1-3.1,3.8-3.5c1.2-0.3,2.4,0,3.7-0.1c2.2-0.2,4-1.9,5.8-3.3
		c1.8-1.4,4.1-2.6,6.2-1.8c0.9,0.3,1.7,1,2.5,1.6c2,1.4,4.5,2.1,6.7,3.3c0.7,0.4,1.4,1,2,1.6C132.1,87.1,131.9,85.5,131.4,84.1z"/>
	<g>
		<path class="st1" d="M144,152.7c-0.2,0-0.5-0.1-0.6-0.4c-0.1-0.3,0-0.7,0.3-0.8l7-3.2c0.3-0.1,0.7,0,0.8,0.3
			c0.1,0.3,0,0.7-0.3,0.8l-7,3.2C144.2,152.7,144.1,152.7,144,152.7z"/>
	</g>
	<g>
		<path class="st1" d="M147.4,160.5c-0.2,0-0.4-0.1-0.5-0.3c-0.2-0.3-0.1-0.7,0.2-0.9c2.2-1.4,4.4-2.9,6.5-4.4
			c0.3-0.2,0.7-0.1,0.9,0.1c0.2,0.3,0.1,0.7-0.1,0.9c-2.1,1.5-4.3,3-6.6,4.5C147.7,160.4,147.5,160.5,147.4,160.5z"/>
	</g>
	<g>
		<path class="st1" d="M111.9,191.7l-1.3-0.2c0.3-2.8,0.8-6.7,1-9.7c0.1-0.7,0.1-1.5,0.2-2.2c0.9-9.9,1.8-20.1-4-28.4
			c-0.8-1.2-1.8-2.3-2.7-3.4c-0.5-0.6-1-1.2-1.5-1.8c-0.6-0.8-1.4-1.9-0.9-3.1c0.3-0.6,0.9-1.2,1.7-1.4c2.1-0.6,5.4-0.4,9.6,3.8
			c1.3,1.3,2.6,2.9,3.8,4.9c0.5,0.8,1,1.6,1.5,2.6c0.2,0.4,0.4,0.8,0.6,1.2c0.1-0.1,0.1-0.2,0.2-0.2l0.1-0.1
			c0.7-0.8,1.4-1.7,2.1-2.5c1.4-1.7,2.8-3.4,4.1-5.2l0.5-0.6c1.9-2.6,3.8-5.2,6.6-6.8c2.4-1.4,5.1-1.8,7.7-2.2c1-0.2,2-0.3,3-0.6
			c0.3-0.1,0.5-0.1,0.8-0.2c1.2-0.3,2.4-0.6,3.7-0.5c0.3,0,0.5,0.1,0.8,0.1c0.2,0,0.2,0,0.3,0.2c0,0.1,0,0.3,0.1,0.4
			c0,0.1,0,0.1,0,0.2c0,0.1-0.1,0.1-0.2,0.1c-0.6,0-1.1,0.1-1.6,0.2c-1,0.1-2,0.4-3,0.6c-1.9,0.5-3.8,0.7-5.8,1.1
			c-1.8,0.3-3.5,0.8-5.1,1.7c-2.6,1.5-4.4,4-6.2,6.5l-0.5,0.6c-1.3,1.8-2.7,3.6-4.1,5.3c-0.7,0.9-1.4,1.7-2.2,2.5l-0.1,0.1
			c-0.1,0.1-0.2,0.3-0.3,0.4c0,0,0,0,0,0c-0.1,0.2-0.2,0.5-0.5,0.6c-0.4,0.1-0.9,0.1-1.3-0.8c0,0,0-0.1,0-0.1
			c-0.2-0.4-0.5-0.9-0.7-1.3c-0.5-1-1-1.8-1.5-2.5c-1.2-1.9-2.4-3.4-3.6-4.6c-1.7-1.7-5.1-4.4-8.4-3.5c-0.4,0.1-0.7,0.4-0.8,0.6
			c-0.2,0.4,0.1,1,0.7,1.9c0.5,0.6,1,1.2,1.5,1.8c1,1.1,2,2.3,2.8,3.5c6.1,8.7,5.1,19.1,4.2,29.2c-0.1,0.7-0.1,1.5-0.2,2.2
			C112.7,185,112.2,188.9,111.9,191.7z"/>
	</g>
	<g>
		<path class="st4" d="M100.8,256.2c0,0-0.1,0-0.1,0c-0.3-0.1-0.6-0.4-0.5-0.7l6.5-38.6c1.4-8.3,2.9-16.9,3.9-25.4
			c0-0.3,0.4-0.6,0.7-0.6c0.3,0,0.6,0.4,0.6,0.7c-1.1,8.5-2.5,17.1-3.9,25.4l-6.5,38.6C101.4,256,101.1,256.2,100.8,256.2z"/>
	</g>
	<g>
		<path class="st4" d="M103.9,238.9c-0.3,0-0.5-0.2-0.6-0.4c-5.2-14-12.1-27.4-20.7-39.7c-0.2-0.3-0.1-0.7,0.2-0.9
			c0.3-0.2,0.7-0.1,0.9,0.2c8.6,12.4,15.6,25.8,20.9,40c0.1,0.3,0,0.7-0.4,0.8C104,238.9,104,238.9,103.9,238.9z"/>
	</g>
	<g>
		<path class="st4" d="M132.1,258.6c-0.3,0-0.6-0.2-0.6-0.6c0-0.3,0.2-0.7,0.5-0.7c6.9-0.9,14-1.8,20.9-2.7c7.6-1,15.4-2,23-3
			c0.3,0,0.7,0.2,0.7,0.5c0,0.3-0.2,0.7-0.5,0.7c-7.6,1-15.4,2-23,3C146.2,256.8,139.1,257.7,132.1,258.6
			C132.1,258.6,132.1,258.6,132.1,258.6z"/>
	</g>
	<g>
		<path class="st4" d="M171.8,253.5c-0.3,0-0.6-0.2-0.6-0.6c-0.4-3.1-0.7-6.2-1.1-9.3c-0.9-7.2-1.9-14.5-3-21.7
			c-0.5-3.6-1.1-7.2-1.7-10.8c-0.3-1.8-0.6-3.6-0.9-5.4c-0.1-0.3,0.2-0.7,0.5-0.7c0.3-0.1,0.7,0.2,0.7,0.5c0.3,1.8,0.6,3.6,0.9,5.4
			c0.6,3.6,1.1,7.3,1.7,10.9c1.1,7.2,2.1,14.5,3,21.8c0.4,3.1,0.8,6.2,1.1,9.4C172.4,253.1,172.2,253.4,171.8,253.5
			C171.8,253.5,171.8,253.5,171.8,253.5z"/>
	</g>
	<g>
		<path class="st4" d="M85.4,212c0,0-0.1,0-0.1,0c-5.3-1.1-10.7-1.5-16.1-1.4c-0.4,0-0.6-0.3-0.7-0.6c0-0.4,0.3-0.6,0.6-0.7
			c5.5-0.1,11,0.3,16.4,1.4c0.3,0.1,0.6,0.4,0.5,0.7C86,211.8,85.7,212,85.4,212z"/>
	</g>
	<path class="st4" d="M134.9,281.6c-0.3-0.1-0.7,0.2-0.7,0.5c-0.1,0.3,0.2,0.7,0.5,0.7c8.4,1.4,16.8,2.1,25.3,2.1
		c4.2,0,8.4-0.2,12.6-0.5c0-0.4-0.1-0.8-0.1-1.3C159.9,284.2,147.3,283.7,134.9,281.6z"/>
	<path class="st4" d="M136.7,201.7c-1.1-1.1-2.3-2.1-3.5-3.1c-0.3-0.2-0.7-0.2-0.9,0.1c-0.2,0.3-0.2,0.7,0.1,0.9
		c1.1,0.8,2.1,1.7,3.1,2.7c-0.1,0.5-0.2,1.1-0.3,1.9c-0.1,0.8-0.2,1.7-0.4,2.8c-0.1,1-0.2,2-0.3,3.3c-0.1,1.2-0.2,2.5-0.3,3.7
		c-0.1,1.4-0.2,2.7-0.3,4.1l-0.1,0.8c-0.1,1.2-0.2,2.4-0.3,3.6c-0.1,1.5-0.3,3.1-0.4,4.6c-0.2,1.7-0.3,3.3-0.4,4.8
		c-0.2,1.7-0.3,3.4-0.5,4.9c-0.2,1.7-0.4,3.4-0.6,5c-0.2,1.7-0.5,3.4-0.7,4.9c-0.3,1.7-0.5,3.3-0.8,4.9c-0.3,1.7-0.6,3.2-0.9,4.7
		c-0.4,1.6-0.7,3-1.1,4.5c-0.4,1.5-0.8,2.9-1.3,4.2c-0.5,1.4-0.9,2.6-1.4,3.8c-0.5,1.2-1.1,2.3-1.6,3.4c-0.6,1.1-1.2,2-1.8,2.9
		c-0.8,1.1-1.6,2-2.4,2.6c-0.2,0.1-0.3,0.3-0.5,0.4c-0.8,0.6-1.5,1.2-2.2,1.7c-0.9,0.6-1.9,1.1-2.9,1.4c-3.9,1.3-8.6,0.8-13-1.5
		c-4.3-2.2-7.9-5.9-10.4-8.8c-5.3-5.9-9.9-12.6-14.2-20.5c-0.1-0.1-0.2-0.2-0.3-0.3c0.1,0.9,0.2,1.9,0.3,2.8
		c4,7.1,8.4,13.3,13.3,18.8c2.6,3,6.3,6.7,10.8,9c3,1.5,6.1,2.3,9.1,2.3c1.7,0,3.4-0.3,4.9-0.8c1.1-0.4,2.2-0.9,3.2-1.6
		c0.9-0.6,1.6-1.2,2.4-1.8c0.2-0.1,0.3-0.3,0.5-0.4c0.9-0.7,1.7-1.7,2.6-2.9c0.7-0.9,1.3-1.9,1.9-3c0.6-1.1,1.1-2.2,1.7-3.5
		c0.5-1.2,1-2.5,1.5-3.9c0.5-1.3,0.9-2.7,1.3-4.3c0.4-1.4,0.8-2.9,1.1-4.5c0.3-1.5,0.7-3.1,1-4.7c0.3-1.6,0.6-3.2,0.8-4.9
		c0.2-1.6,0.5-3.3,0.7-5c0.2-1.6,0.4-3.3,0.6-5c0.2-1.6,0.3-3.2,0.5-4.9c0.1-1.5,0.3-3.1,0.4-4.8c0.1-1.5,0.3-3.1,0.4-4.6
		c0.1-1.2,0.2-2.4,0.3-3.6l0.1-0.8c0.1-1.4,0.2-2.7,0.3-4.1c0.1-1.2,0.2-2.5,0.3-3.7c0.1-1.3,0.2-2.3,0.3-3.2
		c0.1-1.1,0.2-1.9,0.4-2.7c0.1-0.9,0.3-1.5,0.4-2.1C137,202.1,136.9,201.9,136.7,201.7z"/>
	<path class="st8" d="M228,52.3c3.8-6.1,3.3-14.6-1.2-20.2c-4.5-5.6-12.7-7.9-19.4-5.5c-1.7-2-3.8-3.6-6.2-4.7
		c-2.5-1.6-5.3-2.6-8.3-2.9c-6-0.6-12.3,1.9-16.3,6.5c-1.3,1.5-2.4,3.4-2.8,5.3c-2.5-0.3-5,0-7.3,1.2c-3.4,1.7-5.9,5-6.6,8.7
		c-0.3,1.7-0.3,3.5,0.1,5.1c0.2,0.8,0.5,1.6,0.8,2.4c0.3,0.7,1.1,1.5,1.2,2.1c0,0,0,0,0,0c0,0-0.1,0-0.1,0.1
		c-3.2,2.6-5.2,6.6-6.2,10.5c-1.1,4.2-0.9,8.8,1,12.8c3.7,7.7,13.3,12,21.5,9.6c3.2,7.3,11.1,12.3,19,12.2c8-0.1,15.7-5.4,18.7-12.8
		c4.9-0.8,9.7-2.7,13.4-5.9c3.7-3.2,6.3-8,6.2-12.9S232.6,54.1,228,52.3z M162.5,50.9L162.5,50.9C162.5,50.8,162.5,50.8,162.5,50.9
		C162.5,50.9,162.5,50.9,162.5,50.9z"/>
	<circle class="st8" cx="177.4" cy="103.3" r="7"/>
	<ellipse transform="matrix(0.1602 -0.9871 0.9871 0.1602 22.5572 256.4561)" class="st8" cx="162" cy="115" rx="4.4" ry="4.4"/>
</g>
</svg>
