<?xml version="1.0" encoding="utf-8"?>
<!-- Generator: Adobe Illustrator 25.0.0, SVG Export Plug-In . SVG Version: 6.00 Build 0)  -->
<svg version="1.1" id="Layer_1" xmlns="http://www.w3.org/2000/svg" xmlns:xlink="http://www.w3.org/1999/xlink" x="0px" y="0px"
	 viewBox="0 0 300 300" style="enable-background:new 0 0 300 300;" xml:space="preserve">
<style type="text/css">
	.st0{opacity:8.000000e-02;fill:#E13856;enable-background:new    ;}
	.st1{fill:#0063AD;}
	.st2{fill:none;stroke:#28363B;stroke-width:0.7557;stroke-linecap:round;stroke-linejoin:round;stroke-miterlimit:10;}
	.st3{fill:#FBA489;}
	.st4{fill:#152023;}
	.st5{fill:#28363B;}
	.st6{fill:none;stroke:#BC4D33;stroke-width:0.9617;stroke-linecap:round;stroke-linejoin:round;stroke-miterlimit:10;}
	.st7{fill:#F1856A;}
	.st8{fill:#D32424;}
	.st9{fill:#BC4D33;}
</style>
<g>
	<g id="OBJECTS">
		<g id="Page-1">
			<g id="For-you-and-your-partner-Copy-4">
				<g id="Group-4">
					<circle id="Mask-Copy-2" class="st0" cx="150" cy="150" r="150"/>
				</g>
			</g>
		</g>
	</g>
</g>
<g>
	<g>
		<g>
			<path class="st1" d="M116.7,210.9c-2.9,5.7-6.7,10-12,13.6c-17.2,0.4-34.3,4.3-50,11.3c-10.5,4.7-20.1,11.7-24.1,22.6
				c-3.8,10.4,3.9,22.2,13.9,26.8c10.1,4.6,21.7,4,32.7,3.3c25-1.6,76-4.9,77.2-5.4c4.6-1.8,9.8,0.7,14.7,1.5
				c22,3.7,40.8,4.6,58.7,7.1c36.8,5.1,43.3-23.2,41.2-30.2c-3.9-13.4-17.6-21.3-30.6-26.6c-15.5-6.4-33.7-10-50.1-13
				c-3.4-3.6-7.5-7.3-10.9-10.8"/>
			<path class="st2" d="M124.5,263.4c-16.3-2.7-32.6-5.4-49-8.1"/>
			<g>
				<path class="st3" d="M100,278.5c-0.5,5.3,19.2,1.1,28.7,2.3c7.3,0.9,14.6,2.6,21.9,3.5c9.4,1.1,14.9,0.7,22.2,1.2
					c-0.1-0.3-2.3-14.5-2.1-20.7c0,0-7.9,1-15.5,1.6c-3.9,0.3-7.8-0.6-11-2.8c-1.6-1.1-3.2-2-4.6-2.6c-2.8-1.2-6-1.5-8.8-0.2
					c-1.3,0.6-2.3,1.4-3.5,2.1c-7.3,4.6-17.2,3.9-24.1,9.1C101.5,273.3,99.6,276.4,100,278.5z"/>
				<path class="st2" d="M172,263.4c16.3-2.7,32.6-5.4,49-8.1"/>
				<path class="st2" d="M170.5,263.4c0.6,7.2,1.4,14.4,2.2,21.6"/>
				<path class="st2" d="M175.1,263.1c0.7,7.4,1.3,14.9,2,22.3"/>
			</g>
			<path class="st4" d="M109.3,220.9c24-1,63.5-2.6,63.5-2.6l-61-0.2"/>
		</g>
		<path class="st5" d="M161.9,68.1c-1.8,2.5-4.7,3.6-7.5,4.4c-9.4,2.6-20.1,0.2-23-4.6c4.2-5.1,10.4-6.7,16.2-6.6
			C153.4,61.4,158,63.5,161.9,68.1z"/>
		<path class="st5" d="M124,90c2.5-0.6,4.3-4.2,5.8-6.3c3-4.1,5.4-8.6,7.3-13.3c-1.4-1.2-3.4-2.5-4.8-3.5c-2.3,1.8-4.2,5.2-5.2,7
			C124.1,79.3,123.1,83.6,124,90z"/>
		<g>
			<path class="st3" d="M221.2,199.6c-5.7-12.7-11.4-25.5-14.9-39c-1.3-4.8-5-12.1-6.9-16.7c-3.5-8.7-9.2-12.8-18.3-15.9
				c-1.1,7.4-0.9,33-0.5,42.5c6.5,16.9,12.7,30,21.4,46c11.7,6.6,55,31.5,57.5,32c2.5,0.5,9.5-12,9-15.4
				C256,225.5,240.7,209,221.2,199.6z"/>
			<g>
				<path class="st3" d="M251.4,240.2c2.2,4.1,4.4,8.2,6.6,12.3c1,1.9,2.1,6,3.6,7.3c1.2,1,2.6,1.4,4,1.6c2.8,0.5,5.9,0.1,7.8-2.2
					c2.1-2.5,2.3-6.4,2.1-10.1c-0.1-2.1-0.3-6.4-0.9-8.3c-1.5-4.3-5.4-7.5-9.2-9.5"/>
				<path class="st3" d="M248.7,238c0,2.4,0.1,4.8,0.1,7.2c0,1.8,0.3,4,1.9,4.7c1.7,0.8,3.6-0.6,4.4-2.3c0.7-1.7,0.7-3.6,1.1-5.4"/>
				<path class="st6" d="M262.7,244.7c1.5,5.4,3,10.8,4.4,16.2"/>
				<path class="st6" d="M269.8,243.3c0.7,5.5,1.3,11,2,16.6"/>
			</g>
			<path class="st7" d="M187.7,187.9c7.2-5.5,15.3-10.3,22-16.5c0,0-16,7.7-23.8,12.3C185.8,184.1,186.8,186.2,187.7,187.9z"/>
		</g>
		<g>
			<g>
				<path class="st3" d="M42.6,240.2c-2.2,4.1-4.4,8.2-6.6,12.3c-1,1.9-2.1,6-3.6,7.3c-1.2,1-2.6,1.4-4,1.6
					c-2.8,0.5-5.9,0.1-7.8-2.2c-2.1-2.5-2.3-6.4-2.1-10.1c0.1-2.1,0.3-6.4,0.9-8.3c1.5-4.3,5.4-7.5,9.2-9.5"/>
				<path class="st3" d="M45.3,238c0,2.4-0.1,4.8-0.1,7.2c0,1.8-0.3,4-1.9,4.7c-1.7,0.8-3.6-0.6-4.4-2.3c-0.7-1.7-0.7-3.6-1.1-5.4"
					/>
				<path class="st6" d="M31.2,244.7c-1.5,5.4-3,10.8-4.4,16.2"/>
				<path class="st6" d="M24.1,243.3c-0.7,5.5-1.3,11-2,16.6"/>
			</g>
			<g>
				<path class="st3" d="M72.8,199.6c5.7-12.7,11.4-25.5,14.9-39c1.3-4.8,5-12.1,6.9-16.7c3.5-8.7,9.2-12.8,18.3-15.9
					c1.1,7.4,0.9,33,0.5,42.5c-6.5,16.9-12.7,30-21.4,46c-11.7,6.6-55,31.5-57.5,32c-2.5,0.5-9.5-12-9-15.4
					C38,225.5,53.3,209,72.8,199.6z"/>
				<path class="st7" d="M105,190.9c-7.2-5.5-14.3-12.4-20.9-18.6c0,0,15.7,7.9,23.6,12.5C107.7,185.2,105.9,189.2,105,190.9z"/>
			</g>
		</g>
		<g>
			<g>
				<path class="st7" d="M156.7,109.3c-0.1,1.5-0.2,2.9-0.2,4.4c-0.1,3.1,1.9,5.8,4.7,6.9c6.6,2.6,15.2,5.5,21.6,8.1
					c0.5,4.3-1.3,22.7-1.6,30.7c-0.4,8-2.2,17.3-3.6,26.2c-0.1,8.5-0.6,18.5-0.3,26.5l-35.1,0.5c-8.2-0.4-17.3-0.2-25.5-1
					c-0.6-10.3-2.6-27.3-2.6-27.3c-1.7-4.3-5.2-12.7-4.5-17.3c1.7-11.9,2.4-26.4,2.6-38.3c5.7-3.4,13.8-4.6,20.5-8.4
					c5-2.8,4.9-10.4,4.9-10.4C144.8,109,149.5,108.6,156.7,109.3z"/>
				<path class="st7" d="M139,105.3c-1.2,4.5-1.6,7.1-3.1,11.3c2.7-0.1,12.1-1.7,12.1-1.7"/>
			</g>
			<g>
				<path class="st8" d="M216,168.2c-3.6-9.1-8.7-19-13.9-27.3c-2.1-3.3-4.5-6.6-7.7-8.9c-3.3-2.4-7.2-3.7-11.1-5
					c-7.3-2.3-14.6-4.3-22-6.1c-2.6,2.5-6.1,4.2-9.8,5.3c-3.2,1-6.7,1-10,0.2c-4.4-1-8.5-2.8-11.5-5.7c-7.4,1.8-14.7,3.9-22,6.3
					c-3.9,1.2-7.8,2.6-11,5c-3.2,2.4-5.5,5.6-7.6,9c-5.1,8.4-10.2,17.9-13.7,27.1c6.9,3.3,29.5,15.4,32.4,16.9l-3.7,33l84.8,0.2
					l-5.2-33.7C187,183.1,209.2,171.5,216,168.2z"/>
			</g>
		</g>
		<g>
			<g>
				<path class="st7" d="M167.4,98.7c3-0.4,5.6-2.6,6.7-5.4c1-2.7,0.3-6.2-2.3-7.5c-1.8-1-4-0.6-6-0.3"/>
				<g>
					<path class="st5" d="M168.7,88.2c0.3-0.3,0.7-0.5,1.1-0.6c0.4-0.1,0.9,0,1.3,0.2c0.4,0.2,0.7,0.5,1,0.8
						c0.2,0.4,0.4,0.8,0.3,1.2c-0.3-0.3-0.6-0.5-0.8-0.7c-0.3-0.2-0.5-0.3-0.8-0.5c-0.3-0.1-0.6-0.2-0.9-0.3
						C169.4,88.3,169.1,88.2,168.7,88.2z"/>
				</g>
			</g>
			<g>
				<path class="st7" d="M126.7,85.9c-2-0.3-4.2-0.6-6,0.3c-2.5,1.3-3.3,4.9-2.3,7.5c1,2.8,3.7,5,6.7,5.4c0.4,0.1,0.6,0.3,1.1,0.4"
					/>
				<g>
					<path class="st5" d="M124.1,88.2c-0.4,0-0.8,0.1-1.1,0.2c-0.3,0.1-0.6,0.2-0.9,0.3c-0.3,0.1-0.6,0.3-0.8,0.5
						c-0.3,0.2-0.5,0.4-0.8,0.7c-0.1-0.4,0-0.9,0.3-1.2c0.2-0.4,0.6-0.6,1-0.8c0.4-0.2,0.8-0.3,1.3-0.2
						C123.4,87.6,123.8,87.8,124.1,88.2z"/>
				</g>
			</g>
			<g>
				<g>
					<ellipse class="st3" cx="146.5" cy="89" rx="22.8" ry="26"/>
					<g>
						<g>
							<g>
								<g>
									<path class="st5" d="M149.9,84.4c0.8-1.1,2.2-1.7,3.6-1.7c1.4,0,2.8,0.4,3.7,1.5c-1.3-0.2-2.5-0.4-3.7-0.3
										C152.3,83.8,151.2,84,149.9,84.4z"/>
								</g>
								<g>
									<path class="st5" d="M141.7,85c-1.3-0.3-2.5-0.4-3.7-0.4c-1.2,0-2.3,0.2-3.7,0.6c0.8-1.1,2.3-1.7,3.6-1.7
										C139.3,83.5,140.8,83.9,141.7,85z"/>
								</g>
							</g>
							<g>
								<g>
									<path class="st9" d="M145.6,87.8c0.2,0.8,0.2,1.6,0.1,2.4c0,0.8-0.1,1.6-0.1,2.3c0,0.7,0,1.5,0.3,2.1
										c0.3,0.7,0.7,1.3,1.3,1.8c-0.8-0.2-1.5-0.7-2-1.5c-0.5-0.8-0.6-1.7-0.6-2.5C144.7,90.8,145.2,89.3,145.6,87.8z"/>
								</g>
								<g>
									<path class="st9" d="M142.9,100.3c1.5,0.4,2.8,0.6,4.2,0.5c1.4,0,2.8-0.3,4.2-0.7c-1.1,1.1-2.6,1.7-4.2,1.7
										C145.7,101.8,144.1,101.3,142.9,100.3z"/>
								</g>
							</g>
						</g>
						<circle cx="138.4" cy="89.7" r="1.9"/>
						<circle cx="154.6" cy="89.7" r="1.9"/>
					</g>
				</g>
				<g>
					<path class="st5" d="M168.9,90c-2.5-0.6-4.3-4.2-5.8-6.3c-3-4.1-5.4-8.6-7.3-13.3c1.4-1.2,3.4-2.5,4.8-3.5
						c2.3,1.8,4.2,5.2,5.2,7C168.8,79.3,169.9,83.6,168.9,90z"/>
					<path class="st5" d="M157.7,62.6c-3.4-2.2-8.4-3.3-12.4-2.7c-2.8,0.4-5.6,1.2-7.6,3c-2.1,1.9-3.8,5.9-1.9,7.8
						c2.3,2.3,5.2,4.1,8.3,5.3c1.8,0.7,4.2,0.9,5.3-0.6c1.5,0.8,3.1,1.6,4.9,1.8c1.7,0.2,3.6-0.2,4.8-1.4c0.8,0.1,1.9-0.3,2.8-0.1
						c1.1,0.1,2.3,0.2,3.2-0.5c0.6-0.5,0.8-1.3,0.8-2.1C165.7,72.2,164.6,67,157.7,62.6z"/>
					<path class="st5" d="M137.1,70.4c-0.2,2.9-0.5,6.1-2.7,8.1c-0.5,0.4-1.1,0.8-1.5,1.3c-0.9,1-1.3,2.3-1.8,3.5
						c-0.6,1.7-1.5,3.4-2.7,4.7c-1.3,1.3-3,2.3-4.8,2.4c1.1-8.3,4.5-16.7,10.1-22.9"/>
					<path class="st5" d="M123.7,90.4c-0.9-5.3-0.5-10.9,1.2-16c1.1-3.2,2.6-6.3,5.2-8.4c2.5-2.2,6.1-3.3,9.3-2.3
						c-5.8,6.3-10.5,14-13.3,22.1"/>
				</g>
			</g>
		</g>
	</g>
</g>
</svg>
