<?xml version="1.0" encoding="utf-8"?>
<!-- Generator: Adobe Illustrator 25.0.0, SVG Export Plug-In . SVG Version: 6.00 Build 0)  -->
<svg version="1.1" id="Layer_1" xmlns="http://www.w3.org/2000/svg" xmlns:xlink="http://www.w3.org/1999/xlink" x="0px" y="0px"
	 viewBox="0 0 300 300" style="enable-background:new 0 0 300 300;" xml:space="preserve">
<style type="text/css">
	.st0{opacity:8.000000e-02;fill:#E13856;enable-background:new    ;}
	.st1{fill:#F7C9B2;}
	.st2{fill:#232426;}
	.st3{fill:#006B69;}
	.st4{fill:#24B6FF;}
	.st5{fill:#059DD8;}
	.st6{fill:#313236;}
	.st7{fill:url(#SVGID_1_);}
	.st8{fill:#F5B39A;}
	.st9{fill:#737373;}
	.st10{opacity:0.7;}
	.st11{fill:#525252;}
	.st12{opacity:0.5;fill:#525252;}
	.st13{fill:#AAAAAA;}
	.st14{opacity:0.5;fill:#AAAAAA;}
	.st15{opacity:0.3;fill:#AAAAAA;}
	.st16{fill:#06285E;}
	.st17{fill:#DB8E29;}
	.st18{fill:#434344;}
	.st19{fill:#5E452B;}
	.st20{fill:#A56817;}
	.st21{fill:#E02424;}
</style>
<g id="Page-1">
	<g id="For-you-and-your-partner-Copy-4">
		<g id="Group-4">
			<circle id="Mask-Copy-2" class="st0" cx="150" cy="150" r="150"/>
		</g>
	</g>
</g>
<g>
	<path d="M104,14.5c2,8.8,2.4,23.5,2.4,23.5s-5.8,4.8-9.7,4.4c-3.9-0.5,1.5-26.2,1.5-26.2L104,14.5z"/>
	<path class="st1" d="M170,92.4l3-2.1c0,0-2.7-2.4-8.3-3.3c-5.6-0.8-14.1-2.6-22.7-7.2c-12.5-6.6-21.2-8.5-21.9-8.7
		c-0.2-0.1-6-7.3-8.1-12.5c-0.5,0.3,3.3,4,2.8,4.3c-2.3,1.6-4.7,3.3-7.2,4.8c-0.7,0.4-1.4,0.8-2.2,1.1c1.1,5.5,2.3,9.7,3.5,11
		c3.4,3.7,28,8.6,33.7,9.7c7.3,1.4,10.4,4.4,11.9,6c1.4,1.6,4.3,4.7,9.6,5.4c5.3,0.7,11.6-5.8,11.2-7.2
		C174.9,92.2,170,92.4,170,92.4z"/>
	<g>
		<g>
			<path class="st2" d="M113.6,264.9c0.7,3.6,14.2,8.5,16.5,10.9c2.3,2.3,0.5,5.5-2.7,6c-3.3,0.6-13.2,1.3-16.7-1.3
				c-3.6-2.5-4.3-3.5-7.1-2.9c-2.8,0.5-6.2-2.2-4.5-12.3C100.6,255.1,113.6,264.9,113.6,264.9z"/>
			<path class="st3" d="M117.8,140.7c0.4,17.6-1,33.6-1.5,53.8c-0.4,20.2,0.7,67.1,0.5,70.5c-0.1,3.4-16,3.8-17.8,3.3
				c-1.8-0.5-3.3-55.2-3-71.2c0.3-16,0.3-55.9,0.3-55.9L117.8,140.7z"/>
			<path class="st4" d="M117.8,140.7c0.4,17.6-1,33.6-1.5,53.8c-0.4,20.2,0.7,67.1,0.5,70.5c-0.1,3.4-16,3.8-17.8,3.3
				c-1.8-0.5-3.3-55.2-3-71.2c0.3-16,0.3-55.9,0.3-55.9L117.8,140.7z"/>
			<path class="st5" d="M96.3,141.2l9.4-0.2c-0.4,20.5,1.8,63.1,1.8,73.3c0,8.8,0.5,41.8,1.5,53.8c-4.3,0.5-9,0.5-10,0.2
				c-1.8-0.5-3.3-55.2-3-71.2C96.3,181.1,96.3,141.2,96.3,141.2z"/>
			<path class="st6" d="M89.6,268.8c5.3,6.1,21.1,11.7,17.7,16.1c-0.9,1.1-6.1,3.5-14.6,1.3c-8.5-2.2-7.4-6-11.5-6.2
				c-4.1-0.1-9.1-1-5.4-10.9L89.6,268.8z"/>
			<path class="st3" d="M100.5,139.2c-1.1,22.6-0.5,56.7-1,63.9c-0.5,7.2-4.5,28.7-5.4,39.5c-0.9,10.8-0.2,28.9-1.4,28.9
				c-1.1,0-6.7,2-12,1.8c-5.2-0.1-6.8-1.9-6.8-1.9s-1.4-48.2,4.3-66.5c3.6-11.6-4.4-63.3-4.4-63.3L100.5,139.2z"/>
			<path class="st4" d="M100.5,139.2c-1.1,22.6-0.5,56.7-1,63.9c-0.5,7.2-4.5,28.7-5.4,39.5c-0.9,10.8-0.2,28.9-1.4,28.9
				c-1.1,0-6.7,2-12,1.8c-5.2-0.1-6.8-1.9-6.8-1.9s-1.4-48.2,4.3-66.5c3.6-11.6-4.4-63.3-4.4-63.3L100.5,139.2z"/>
			<path class="st5" d="M73.9,141.7l11-1c1.5,21.2,3.9,58.2,2.4,64.1c-1.4,5.4-5.4,52.9-3.6,68.5c-1,0.1-1.9,0.2-2.9,0.1
				c-5.2-0.1-6.8-1.9-6.8-1.9s-1.4-48.2,4.3-66.5C81.9,193.4,73.9,141.7,73.9,141.7z"/>
		</g>
		<path d="M84.1,23.4c4.5,0.2,18.9-9.5,19.5-12.2c0,0,2.2,1.6,2.4,3.7c0,0,1.8-2.2-0.5-5.8c-2.2-3.6-8.5-9.5-14.2-8.6
			c-4.9,0.7-12.9,3.1-16.8,10.8c-4,7.7,0.5,19.9,8.1,22.9C90.4,37.2,84.1,23.4,84.1,23.4z"/>
		<path class="st1" d="M84.9,23.5c-0.1,1.3-2.2,13-5.8,16.9c-3.6,3.9-3.1,3-3.1,3s23.2,18.5,23.5,18.5c0.2,0.1,1.5-9.4,1.5-9.4
			l-2.9-13c0,0-2.1,1.1-2.2-0.5C95.7,37.5,84.9,23.5,84.9,23.5z"/>
		
			<linearGradient id="SVGID_1_" gradientUnits="userSpaceOnUse" x1="997.7074" y1="57.5916" x2="997.7074" y2="24.4819" gradientTransform="matrix(0.9992 3.890000e-02 -3.890000e-02 0.9992 -917.752 -0.2312)">
			<stop  offset="0" style="stop-color:#006B69"/>
			<stop  offset="1" style="stop-color:#02969A"/>
		</linearGradient>
		<path class="st7" d="M71.6,62.8c4.7,4.1,6.4,18.2,6.3,31.9c0,0-0.1,3.1,5.7,0.5C83.6,95.2,80.5,70.9,71.6,62.8z"/>
		<path class="st8" d="M82.7,34.2L82.7,34.2c0,0,2.8,6.8,15.2,6.3l-0.4-0.8c-0.8-0.7-0.9-1.3-1.3-2.2c-0.5-1.3-14.2-10.6-14.2-10.6
			C82.1,27.5,82.5,30.7,82.7,34.2z"/>
		<path class="st1" d="M84.1,23.4c-1.2-2.4-2.6-4.2-4.3-2.8c-1.6,1.4-0.5,3.3,0.2,4.9c0.7,1.6,0.7,4.4,3.3,3.7c0,0-0.7,3.5,3.2,6.2
			c3.9,2.7,10.2,5.3,12.5,3.8c2.3-1.4,1.7-2.5,2.9-4c1.2-1.5,3.7-4.6,3.5-7.2c-0.2-2.7-0.9-3.5,0.2-4.7c1.1-1.2,1-1.9,0.9-3.6
			c-0.1-1.8-0.2-5.7-1.4-7.4c-1.1-1.6-6.2-2.7-9.7,0.8C92,16.5,84.1,23.4,84.1,23.4z"/>
		<g>
			<path d="M103.6,11.2c0,0,1.9,1.4,2.3,3.3c-0.2-0.9,0.3-2.4-0.1-3C105.6,11.1,104.3,11.5,103.6,11.2z"/>
			<path d="M103.6,11.2c-0.9-2-7-1.3-9.6,1.2c-3.5,3.4-9.9,11-9.9,11C88.6,23.6,102.6,15.9,103.6,11.2z"/>
			<path d="M106.1,15C106,14.9,106,14.9,106.1,15C106,14.9,106,14.9,106.1,15z"/>
		</g>
		<path class="st4" d="M119.1,88.4c0-0.1,0-0.1,0-0.2c0.2-7.2,2.1-21,0.2-25.6c-2.9-7.4-3.7-15.6-7.1-19.8c-0.6-0.3-1.2-0.6-1.8-1
			c-2.5-1.4-6.9-2.3-9.1-2.7c-0.9,1-2.8,20.5-2.8,20.5c-4.4-5.1-20-18.8-20-18.8s-14.4,8.3-14.3,10.4c0.1,2,7.5,33,7.9,39.9
			c0.4,6.9-1.6,38.3-1.7,44.6c-0.2,6.3-1.8,18.9-1.8,18.9c17.9,11.3,56.4-9.9,56.4-9.9s0.4,1-0.6-4.3
			C123.5,135.1,118.6,92.4,119.1,88.4z"/>
		<path class="st5" d="M88.5,105.4c5.4-2.7,7.8-5.3,17.9-5.3c10.1,0.1,13.6-2.4,13.6-2.4v0c-0.4-2.9-0.7-5.4-0.9-7.2l-26,4.9
			l-20.8,0.7c-0.3,7.8-1.7,35.3-1.8,39.5c-0.2,6.3-1.8,18.9-1.8,18.9c2.9,1.8,6.4,2.8,10.1,3.2c0-0.2-0.4-43.6-0.3-44.9
			C78.7,111.7,83.1,108.1,88.5,105.4z"/>
		<path d="M104.2,11.4c0,0,0,0.3-0.4,1.1c-0.3,0.7-0.8,1.5-1.6,2.5c-1.4,1.9-3.7,4.1-6.3,5.7c-1.3,0.8-2.7,1.5-4.1,2
			c-0.7,0.2-1.4,0.4-2,0.6c-0.7,0.1-1.3,0.3-1.9,0.3c-1.2,0.1-2.1,0.1-2.8,0c-0.7-0.1-1.1-0.1-1.1-0.1s0.4,0,1.1,0
			c0.7,0.1,1.6,0,2.8-0.1c0.6-0.1,1.2-0.2,1.8-0.4c0.6-0.1,1.3-0.4,2-0.6c1.3-0.6,2.7-1.2,3.9-2.1c2.5-1.7,4.6-4,5.9-5.8
			c0.6-0.9,1.1-1.8,1.3-2.3c0.2-0.5,0.2-1,0.3-0.9L104.2,11.4z"/>
		<path class="st5" d="M80.6,57.8c7.8,10.9,13.1,39.8,13.1,39.8l-13,8.5L80.6,57.8z"/>
		<path class="st5" d="M102.4,39.4c-0.4-0.1-0.7-0.1-1-0.2c-1.8-0.1-2.8,0.5-3.5,0.3c0.6,3,0.7,20.1,0.7,20.1
			c-4.4-5.1-20-18.8-20-18.8s-1.3,0.9-3.1,2.2c0.2,0.2,0.3,0.3,0.3,0.3L102,67.1L102.4,39.4z"/>
		<path class="st1" d="M69,52.4c-4.9,0-10.8,3.9-7.8,15.4c3.3,12.6,14.9,36.2,19.5,38.3c4.6,2.1,29.6-3.2,35.4-4.5
			c7.4-1.6,12.6-0.3,14.7,0.3c3.3,0.9,5.7,0.9,11-0.6c5.3-1.5,10.2-9.7,9.4-10.8c-0.9-1.1-9.7-2.1-12.5-1.2c-1.7,0.5,0,0-5.6,1.5
			c-5.6,1.5-11.5,2.9-21.3,2.1c-14.3-1.2-23.3,0.6-24,0.7C87,93.6,83.8,52.4,69,52.4z"/>
		<path class="st5" d="M65.6,49.5c-5.1,5-8.6,16.3-4.2,27.5C66.3,89.4,70,98.9,70,99.5c0,0.6,9.1-1.9,17.7-9.3c0,0-1.7-9-2.9-16
			c-1.6-9.1-3.4-16.7-7.2-21C71.6,46.3,65.6,49.5,65.6,49.5z"/>
	</g>
	<g>
		<path class="st1" d="M176.3,66c-5,10.6-13.3,38.2-11.8,43c1.5,4.8,21.8,19.5,26.6,22.8c6,4.3,7.6,8.4,8.3,10.4
			c0.6,2,1.9,6,6.5,8.9c4.6,2.9,13-0.5,13.2-1.9c0.3-1.4-4.2-3.3-4.2-3.3l3.6-0.7c0,0-1.4-3.3-6.2-6.4c-4.8-3.1-11.7-8.3-17.6-16
			c-8.6-11.2-15.8-16.6-16.3-17.1C177.7,105.3,181.2,55.4,176.3,66z"/>
		<g>
			<g>
				<rect x="50" y="213.6" class="st9" width="205.6" height="3.6"/>
			</g>
			<g class="st10">
				<rect x="50" y="213.6" class="st11" width="205.6" height="3.6"/>
			</g>
			
				<rect x="251.7" y="146.9" transform="matrix(-1 -1.224647e-16 1.224647e-16 -1 510.0317 430.7773)" class="st9" width="6.7" height="136.9"/>
			<rect x="46.1" y="146.9" class="st9" width="6.7" height="136.9"/>
			<rect x="50.1" y="146.9" class="st12" width="2.6" height="136.9"/>
			<rect x="255.8" y="146.9" class="st12" width="2.6" height="136.9"/>
			<path class="st13" d="M277.5,148.9H28.2c-2.1,0-3.9-1.7-3.9-3.9l0,0c0-2.1,1.7-3.9,3.9-3.9h249.3c2.1,0,3.9,1.7,3.9,3.9l0,0
				C281.3,147.2,279.6,148.9,277.5,148.9z"/>
			<path class="st14" d="M277.5,146.9H28.2c-1.8,0-3.2-1.2-3.7-2.9c-0.1,0.3-0.2,0.7-0.2,1c0,2.1,1.7,3.9,3.9,3.9h249.3
				c2.1,0,3.9-1.7,3.9-3.9c0-0.4-0.1-0.7-0.2-1C280.7,145.7,279.2,146.9,277.5,146.9z"/>
		</g>
		<path class="st15" d="M281.3,145.1c0-0.3-0.1-0.6-0.2-0.9c-0.4-1.7-1.9-3-3.7-3H28.2c-1.8,0-3.2,1.2-3.7,2.9l0,0
			c-0.1,0.3-0.2,0.7-0.2,1l0,0l0,0c0,2.1,1.7,3.9,3.9,3.9l0,0h17.9v134.9h4.1h2.6v-66.7h199v66.7h4.1h2.6V148.9h19.1l0,0
			c0.5,0,1-0.1,1.5-0.3c0.9-0.4,1.7-1.1,2.1-2.1C281.2,146.1,281.3,145.6,281.3,145.1L281.3,145.1L281.3,145.1z M52.7,213.6v-64.6
			h199v64.6H52.7z"/>
		<path class="st1" d="M203.7,141c2.7,1,7.8,6,9.6,5.5c1.8-0.5-1.1-2.2-1.8-3.6c-0.7-1.3-2.4-4.2-6.1-5.3
			C201.4,136.4,203.7,141,203.7,141z"/>
		<path class="st16" d="M133,278.1c-1.9,5.8-2.2,11.8-1,12.4c1.2,0.6,12.7,1.1,19.8,1.3c7.1,0.2,14.7,1.1,15-2.1
			c0.4-3.8-5-6.5-11-7.9c-6-1.4-5.3-5.6-5.3-5.6L133,278.1z"/>
		<path class="st17" d="M174,153.6c-3.1,11.8-7.1,40.1-9.1,52.6c-2,12.5-4,18.7-6.8,29.6c-2.8,10.8-4.5,43.2-4.5,43.2
			c-1.3,1.3-22.4,1-22.4,0c0-1,0.3-26.4,3.5-38.2c3.3-11.8,22.1-92.7,22.1-92.7L174,153.6z"/>
		<path class="st18" d="M174,153.6c-3.1,11.8-7.1,40.1-9.1,52.6c-2,12.5-4,18.7-6.8,29.6c-2.8,10.8-4.5,43.2-4.5,43.2
			c-1.3,1.3-22.4,1-22.4,0c0-1,0.3-26.4,3.5-38.2c3.3-11.8,22.1-92.7,22.1-92.7L174,153.6z"/>
		<path class="st16" d="M105.3,270.4c-4.5,4-7.8,8.2-7,9.4c0.8,1.2,10.3,8.2,16.3,12c6,3.8,11.6,8.2,13.8,5.2
			c2.3-3-0.8-7.5-5.3-11.7c-4.5-4.2-1.8-7.5-1.8-7.5L105.3,270.4z"/>
		<path class="st6" d="M142.2,125.5c-5.1,6.4-9.2,21.2-8.7,36.8c0.5,15.7,0.9,35.6-5,50.5c-7,17.5-28.8,56.4-27.2,58
			c4.3,4,15.5,11,20.2,11c2.4,0,18-41.4,26.3-52.5c8.3-11,11.5-26.6,17-47.7c5.5-21.2,9.2-47.9,9.2-47.9L142.2,125.5z"/>
		<g>
			<rect x="44.8" y="219" class="st9" width="209.3" height="3.7"/>
		</g>
		<g class="st10">
			<rect x="44.8" y="219" class="st11" width="209.3" height="3.7"/>
		</g>
		
			<rect x="250.1" y="151.1" transform="matrix(-1 -1.224647e-16 1.224647e-16 -1 507.0069 441.6148)" class="st9" width="6.8" height="139.4"/>
		<rect x="40.8" y="151.1" class="st9" width="6.8" height="139.4"/>
		<rect x="45" y="151.1" class="st12" width="2.6" height="139.4"/>
		<rect x="254.3" y="151.1" class="st12" width="2.6" height="139.4"/>
		<g>
			<path class="st19" d="M161.7,46.2c-1.3,2.2-9.4,2.7-9.1,10.9c0.3,8.3,14.2,3.1,14.2,3.1l4.4-11.8l-3.7-3.8L161.7,46.2z"/>
			<path class="st19" d="M182,47.8c-2.6,3.4-3.4,7.3-3,9.8c0.4,2.5,4.5,5.9,1.6,9.2c-2.9,3.3-16.2-2.5-16.2-2.5L182,47.8z"/>
			<path class="st1" d="M177,62.8c-1.3-2.5,0.8-7.6,2.4-11.6l-11-8.2c0,0-3.7,12.6-4.2,14c-0.3,0.7-2.9,0.3-6.6,0.1
				c0.1,1.4,0.1,2.8,0,4.3C164,63.6,170.4,65.1,177,62.8z"/>
			<g>
				<path class="st19" d="M191.7,40.5c0,0,4.8-3.9,4-9.3c-0.7-4.2-2-12.5-8.8-14.3C178.7,14.7,191.7,40.5,191.7,40.5z"/>
				<path class="st20" d="M191.2,42c0.4,1.1-0.2,2.3-1.3,2.7l-2.3,0.8c-1.1,0.4-2.3-0.2-2.7-1.3l0,0c-0.4-1.1,0.2-2.3,1.3-2.7
					l2.3-0.8C189.6,40.3,190.8,40.9,191.2,42L191.2,42z"/>
				<path class="st19" d="M193.9,31.6c0-7-2.3-14.6-11.9-16.1c-10-1.6-16.8,6-17.9,11.5c-1.1,5.5-0.7,9.2-0.5,10.3
					c0.2,1.2,4.4,4.9,4.7,8.5C168.7,49.4,193.9,31.6,193.9,31.6z"/>
				<path class="st8" d="M168.4,40.4c0.1,2-0.9,4.7-1.5,7.6c0.6,0.6,1.7,1.7,2.6,2.4c5.5,4.4,10.8,5.6,10.8,5.6s-0.5-1.1-1.3-2.7
					L168.4,40.4C168.5,40.4,168.5,40.4,168.4,40.4z"/>
				<path class="st1" d="M168,40.6c0.4,2.1,0.3,4.8,3.1,7.9c2.8,3.1,7.4,7.2,9.1,7.5c1.6,0.3,2.8,0.9,6-2.9c3.1-3.8,5.3-5.4,6.1-9.6
					c0.8-4.2,3.8-12.6-0.9-16.7c-3.5-3-10.1-2.9-14,0.1c-3.9,2.9-4.2,4.2-6.2,9.5c0,0-2.2-4.2-3.3-4.5c-1.1-0.4-2.2,0.2-1.9,2.7
					c0.3,2.4,0.9,2.1,0.8,3.3c-0.1,1.2-0.2,2.4,0.4,2.9C167.8,41.4,168,40.6,168,40.6z"/>
				<path class="st19" d="M189.7,25.7c0,0-8.7,11.2-18.6,11.7l-2-11.7l9.8-5.2L189.7,25.7z"/>
				<path class="st19" d="M187.7,25.8c0,0,3,7.4,6.6,10.1c0,0,2.3-9.4-2.4-14.7L187.7,25.8z"/>
			</g>
			<path class="st19" d="M177.6,15.4c-1.9,0.3-11.6,1.9-15.5,13.8c-1.2,3.8-1.3,10-0.4,17.1l5.2,1.8c0,0,1.2-4.1,1.3-5.9
				c0,0-5.4-3.5-3.8-10.5c1.7-7.1,8.7-10,8.7-10L177.6,15.4z"/>
			<path class="st21" d="M184.8,78.8c0-8.4-8.2-17.8-8.2-17.8s0.1,6.5-6.6,4.2c-8.5-3-11.7-8.2-11.7-8.2s-8.8-0.8-14.6,6.2
				c-4.2,5.1-6.3,18.7-6.3,25.1c0,15.2-0.7,7.7-0.3,24.2c0.2,8.8-1.6,18.1-1.6,18.4c-2.5,9.8-4.7,17.1-4.7,17.1
				c17.9,8.8,49,7.1,49,7.1c-0.4-13.9-5.2-27.6-2.2-38.7C181.8,100.4,184.8,91.6,184.8,78.8z"/>
		</g>
		<path class="st13" d="M276.4,153.2H22.6c-2.2,0-3.9-1.8-3.9-3.9l0,0c0-2.2,1.8-3.9,3.9-3.9h253.8c2.2,0,3.9,1.8,3.9,3.9l0,0
			C280.3,151.4,278.5,153.2,276.4,153.2z"/>
		<path class="st14" d="M276.4,151.1H22.6c-1.8,0-3.3-1.2-3.7-2.9c-0.1,0.3-0.2,0.7-0.2,1c0,2.2,1.8,3.9,3.9,3.9h253.8
			c2.2,0,3.9-1.8,3.9-3.9c0-0.4-0.1-0.7-0.2-1C279.6,149.9,278.2,151.1,276.4,151.1z"/>
		<path class="st1" d="M160.9,62.3c-3.8-3.1-11.8-6-16.5,4.9c-4.8,10.9-12.6,39.3-11,44.1c1.6,4.8,22.7,19.3,27.6,22.6
			c6.3,4.2,8,8.3,8.7,10.4c0.7,2,1,8.7,5.7,11.4c4.7,2.8,14.1,0.8,14.3-0.7c0.2-1.4-6.5-9.8-6.5-9.8l3.4-0.1c0,0-1-3.5-6-6.5
			c-4.9-3.1-10-6.3-16.2-14c-9-11.2-16.5-16.5-17-17C146.8,107.2,170.1,70,160.9,62.3z"/>
		<path class="st20" d="M147.4,107.7c-0.5-0.5,22.7-37.8,13.5-45.4c-3.8-3.1-11.8-6-16.5,4.9c-4.8,10.9-12.6,39.3-11,44.1
			C134.7,108.7,139.5,103.8,147.4,107.7z"/>
		<path class="st21" d="M164.2,57c2.6,3.3,12.3,4.1,12.3,4.1s6.6,11.7,6.8,19.6c0.2,8-7.6,35.7-7.6,35.7s-6.7-28.1-6.6-28.7
			c0-0.6-2.6-20.8-3.2-21.2c-0.6-0.4-8.6-7.4-9.7-7.8c-1.1-0.4,1.8-1.6,1.8-1.6S163.5,57.4,164.2,57z"/>
	</g>
	<path class="st21" d="M147.4,107.7c-0.5-0.5,22.7-37.8,13.5-45.4c-3.8-3.1-11.8-6-16.5,4.9c-4.8,10.9-12.6,39.3-11,44.1
		C134.7,108.7,139.5,103.8,147.4,107.7z"/>
	<path d="M84.1,23.4c1.7,6,0,18.6,0,18.6s-5.9,2-11.9-3.8c0,0-2.5-25.3,5.6-31.3C83.7,2.5,89.9,12,89.9,12L84.1,23.4z"/>
</g>
</svg>
