<svg xmlns="http://www.w3.org/2000/svg" viewBox="0 0 300 300"><defs><style>.cls-1,.cls-2{isolation:isolate;}.cls-2{fill:#c13b56;opacity:0.08;}.cls-3{fill:#d59453;}.cls-4{fill:#cacac9;}.cls-5{fill:#f4f4f4;}.cls-6{fill:none;stroke:#e7c3a4;stroke-miterlimit:10;stroke-width:0.99px;}.cls-7{fill:#d8d8d8;}.cls-8{fill:#6e963e;}.cls-9{fill:#a8c242;}.cls-10{fill:#5e3e1d;}.cls-11{fill:#fff;}.cls-11,.cls-23{mix-blend-mode:soft-light;}.cls-12{fill:#ead6b0;mix-blend-mode:color-burn;}.cls-13{fill:#dadcad;}.cls-13,.cls-15,.cls-18,.cls-21,.cls-24{mix-blend-mode:multiply;}.cls-14{fill:#d78244;}.cls-15{fill:#eecb9b;}.cls-16{fill:#cc591c;}.cls-17{fill:#c3343e;}.cls-18{fill:#d8c3d1;}.cls-19{fill:#f7e2b1;}.cls-20{fill:#608c3c;}.cls-21{fill:#d2d697;}.cls-22{fill:#a0bf38;}.cls-23{fill:#e2e2e2;}.cls-24{fill:#e2e0aa;}</style></defs><g class="cls-1"><g id="OBJECTS"><g id="Page-1"><g id="For-you-and-your-partner-Copy-4"><g id="Group-4"><circle id="Mask-Copy-2" class="cls-2" cx="150" cy="150" r="150"/></g></g></g><ellipse class="cls-3" cx="151.08" cy="189.03" rx="127.02" ry="44.21"/><ellipse class="cls-4" cx="145.2" cy="177.39" rx="125.96" ry="52.8"/><ellipse class="cls-5" cx="145.2" cy="175.21" rx="125.96" ry="50.93"/><ellipse class="cls-6" cx="145.2" cy="174.16" rx="120.01" ry="47.47"/><path class="cls-7" d="M246.11,192.43c0,8.71-46.72,15.77-104.35,15.77S37.42,201.14,37.42,192.43s46.71-15.77,104.34-15.77S246.11,183.72,246.11,192.43Z"/><path class="cls-8" d="M152.09,118.19c-9.58-4-14.82-3.89-25.13-12.56-11-9.26-20.21-13.24-32.17-2.88-11.43,9.9-10.46,18.58-3.07,32.56,5.52,10.45,7.72,14,9.45,22.85,2,10.13,4.87,19.7,17.09,33.81,14.79,17.08,34.45,14,51.92-1.13s25-34.27,10.26-51.35C170.76,128.32,166.22,124.12,152.09,118.19Z"/><path class="cls-9" d="M148.7,122.44c-8.34-3.73-12.85-3.74-21.93-11.51-9.69-8.28-17.7-12-27.73-3.27-9.59,8.3-8.54,15.85-1.85,28.14,5,9.2,7,12.34,8.69,20,2,8.83,4.66,17.19,15.51,29.72,13.14,15.17,30,13,44.63.28s20.7-29.09,7.56-44.26C165,131.67,161,127.92,148.7,122.44Z"/><path class="cls-10" d="M159.49,143.51c10,11.56,10.62,27.44,1.35,35.48s-24.92,5.17-34.93-6.39-10.62-27.45-1.35-35.49S149.47,131.94,159.49,143.51Z"/><path class="cls-11" d="M132.29,166.91c2.14-2.3,4.19-5,3.33-8.35a20.49,20.49,0,0,0-2.4-5.51c-1.81-3-5.39-6.84-4.72-10.65a7.94,7.94,0,0,1,.81-2.36,15.92,15.92,0,0,0-1.39,1.06c-7.51,6.51-7.3,19.13.25,28.73A12.61,12.61,0,0,0,132.29,166.91Z"/><path class="cls-12" d="M131,133.54a29.51,29.51,0,0,1,15.44,4.28c8.33,5.32,14.09,13.8,14.89,23.78a17.55,17.55,0,0,1-13.17,18.68c-5.85,1.55-11-.65-16.35-2.32,9.56,6.87,21.45,7.62,29.07,1,9.27-8,8.67-23.92-1.35-35.48C151.52,134.31,140,130.62,131,133.54Z"/><path class="cls-13" d="M152.09,118.19c-9.58-4-14.82-3.89-25.13-12.56-11-9.26-20.21-13.24-32.17-2.88a30.76,30.76,0,0,0-5.73,6.31l.85-.36a24.1,24.1,0,0,1,11.58-1.89c9.78,1.18,15.42,8.85,23,14.18,9.14,6.47,29.92,6.83,46.38,25,4.14,4.57,5.42,9.8,5.28,15.84-.28,12.14-7.55,20.5-18.33,26.46-7.28,4-13.74,5.23-21.64,4.94-8.86-.32-17.89-1.27-17.89-1.27,14.79,17.08,34.45,14,51.92-1.13s25-34.27,10.26-51.35C170.76,128.32,166.22,124.12,152.09,118.19Z"/><path class="cls-11" d="M106.13,160.93a6.66,6.66,0,0,0,4.3-3.77,14.65,14.65,0,0,0,1.47-9.66c-1.28-7-5.19-12.63-9.4-18.22-3.17-4.23-7.07-10.72-7.58-16.63-5.45,6-5.45,12.19-.9,20.8,3.82,7.22,6.35,9.17,7.55,15.28A43,43,0,0,0,105.62,161Z"/><path class="cls-8" d="M42.2,104.55s22.54,1.57,27,30.12C69.17,134.67,40.33,127.05,42.2,104.55Z"/><path class="cls-9" d="M69.16,134.61c-4.45-28.49-27-30.06-27-30.06a1.21,1.21,0,0,0,0,.19Z"/><path class="cls-8" d="M64.9,94.43s17.37,14.45,4.29,40.21C69.19,134.64,50.24,111.6,64.9,94.43Z"/><path class="cls-9" d="M69.21,134.59c13-25.73-4.31-40.16-4.31-40.16l-.12.15Z"/><path class="cls-8" d="M29.5,126.41s12.61,18.75,39.56,8.35C69.06,134.76,48.07,113.56,29.5,126.41Z"/><path class="cls-9" d="M69,134.78c-26.91,10.35-39.5-8.37-39.5-8.37l.16-.11Z"/><path class="cls-14" d="M98.92,139.43c13.56,15,35.71,56.61,30.36,61.44s-44.85-21.39-58.41-36.4-15.45-30.31-8.37-36.71C71.81,119.35,85.37,124.42,98.92,139.43Z"/><path class="cls-15" d="M62.5,127.76a11.28,11.28,0,0,0-2.07,2.53c5.12-2.6,10.91-2.24,16.27,0,3.41,1.39,23.66,12.59,43.72,51.4,2.11,4.09.73,10.17-4.67,11.48a14.35,14.35,0,0,1-7.75-.68l-2.29-.71c11.22,6.93,21.08,11.39,23.57,9.14,5.35-4.83-16.8-46.43-30.36-61.44S71.81,119.35,62.5,127.76Z"/><path class="cls-16" d="M61.9,151.49a12.31,12.31,0,0,1,1.67-2.6c.62-.79,1.37-1.45,2.05-2.18s1.52-1.28,2.38-1.81a12.26,12.26,0,0,1,2.75-1.4l.09.09q-4.36,4.08-8.85,8Z"/><path class="cls-16" d="M73.25,153.39A13.31,13.31,0,0,1,75,150.74c.64-.81,1.41-1.49,2.11-2.23s1.55-1.32,2.43-1.87a12.85,12.85,0,0,1,2.81-1.45l.08.09q-4.45,4.18-9.07,8.2Z"/><path class="cls-16" d="M80.33,136.94a10.31,10.31,0,0,1,1.48-2.43,27.31,27.31,0,0,1,1.86-2,27.25,27.25,0,0,1,2.19-1.65,10.91,10.91,0,0,1,2.57-1.23l.08.09c-2.65,2.5-5.35,4.93-8.1,7.32Z"/><path class="cls-16" d="M87.15,147.12a17.13,17.13,0,0,1,2-2.93c.75-.9,1.62-1.67,2.42-2.51s1.77-1.49,2.74-2.14a16.78,16.78,0,0,1,3.12-1.73l.08.1q-5.08,4.72-10.3,9.31Z"/><path class="cls-16" d="M70.53,164.09a12.32,12.32,0,0,1,1.64-2.58c.62-.78,1.35-1.43,2-2.15s1.51-1.26,2.35-1.79a12.27,12.27,0,0,1,2.73-1.38l.09.1q-4.31,4-8.75,7.89Z"/><path class="cls-16" d="M89.47,159.28a16.89,16.89,0,0,1,2.09-3c.76-.92,1.65-1.71,2.47-2.56s1.81-1.54,2.8-2.2a16.92,16.92,0,0,1,3.18-1.78l.08.09q-5.2,4.85-10.54,9.52Z"/><path class="cls-16" d="M82.6,175.26a14.5,14.5,0,0,1,1.9-2.82c.71-.86,1.53-1.6,2.29-2.4s1.69-1.42,2.62-2a15.1,15.1,0,0,1,3-1.61l.08.09q-4.83,4.51-9.81,8.86Z"/><path class="cls-16" d="M96.83,169.6A12.72,12.72,0,0,1,98.5,167c.63-.79,1.37-1.45,2-2.18s1.52-1.27,2.38-1.81a12.26,12.26,0,0,1,2.75-1.4l.08.09q-4.35,4.08-8.84,8Z"/><path class="cls-16" d="M104.19,172.39a18,18,0,0,1,2.13-3c.78-.94,1.68-1.74,2.52-2.6s1.84-1.56,2.84-2.24a17.74,17.74,0,0,1,3.22-1.82l.09.09q-5.3,4.92-10.72,9.68Z"/><path class="cls-16" d="M107.53,177.82a14.27,14.27,0,0,1-1.86,2.77c-.69.85-1.49,1.57-2.24,2.35s-1.65,1.39-2.56,2a14.56,14.56,0,0,1-3,1.57l-.08-.1q4.72-4.41,9.61-8.67Z"/><path class="cls-16" d="M109.05,185.6a11.17,11.17,0,0,1,1.56-2.49c.58-.76,1.29-1.38,1.93-2.08s1.45-1.2,2.26-1.71a11.57,11.57,0,0,1,2.64-1.29l.08.09q-4.11,3.87-8.38,7.58Z"/><path class="cls-16" d="M118.26,187a10.67,10.67,0,0,1-1.46,2.41,26.88,26.88,0,0,1-1.85,2,26.7,26.7,0,0,1-2.17,1.63,10.17,10.17,0,0,1-2.55,1.21l-.08-.09q3.94-3.71,8-7.24Z"/><path class="cls-16" d="M122.17,195a6,6,0,0,1,.9-1.91,15.28,15.28,0,0,1,1.28-1.48,15.45,15.45,0,0,1,1.61-1.13,6.16,6.16,0,0,1,2-.7l.08.09c-1.88,1.79-3.8,3.54-5.78,5.22Z"/><path class="cls-11" d="M86.42,168.07c-1-5.56-5.77-8.88-9.35-12.79-3.25-3.55-7.87-7.2-9.09-12.09-.75-3-.8-6.77,1.19-9.26a10.34,10.34,0,0,0-4,2.29c-4.8,4.33-3.51,14.69,5.67,24.85a98.6,98.6,0,0,0,14,12A7.2,7.2,0,0,0,86.42,168.07Z"/><path class="cls-17" d="M244.42,166.79c0,21.72-13.95,34.31-34.75,34.31s-34.92-12.49-34.92-34.21c0-14.61,4.6-24.57,15.95-30.66,13.57-7.28,26.45-6.11,36.66-.66C237.36,140.93,244.42,150,244.42,166.79Z"/><path class="cls-11" d="M186.7,168.69c4.23-1.16,6.13-4.12,6.11-8.46,0-4.66-1-9,1.15-13.4,1.1-2.26,2.85-4.36,3.66-6.74,0-.05,0-.11,0-.16a33.4,33.4,0,0,0-6.74,2.74c-8.46,4.54-11.89,12-11.89,22.85a34.19,34.19,0,0,0,.2,3.71A23.56,23.56,0,0,0,186.7,168.69Z"/><path class="cls-18" d="M227.36,135.57a37,37,0,0,0-15.72-4.4c.32.14.65.3,1,.46,5.45,2.65,11.44,6,15.44,10.62a27.89,27.89,0,0,1,6.29,13.81c.89,5.48,1.28,11.48-.27,16.88a27.21,27.21,0,0,1-8.85,13.71c-4.56,3.74-13.52,5.4-19.27,5.57-18.16.51-23.8-8-29.3-12.58,4.51,13.78,16.7,21.46,33,21.46,20.8,0,34.75-12.59,34.75-34.31C244.42,150,237.36,140.93,227.36,135.57Z"/><path class="cls-9" d="M212.22,131.93s-.58-10,3.39-16.3c0,0-4.28-2.17-9.65,1.56,0,0,3.5,11.35,2.88,14.66Z"/><path class="cls-13" d="M215.61,115.63a7.81,7.81,0,0,0-3.25-.63s-.64,6.81-1,9.21c-.22,1.42-1.56,6.63-2.49,7.55,0,0,0,.07,0,.09l3.38.08S211.64,121.94,215.61,115.63Z"/><path class="cls-9" d="M221,132.88c6.11,2.05,8,10.36,8,10.36-1.39-1.9-8.32-5.8-8.32-5.8.76,4.05-1.71,8.36-1.71,8.36-4-6.2-8.12-8.73-8.12-8.73-5,1.82-10.66,8.25-10.66,8.25a43.68,43.68,0,0,1,1-8.06c-7.73.72-11,4.23-11,4.23a15.09,15.09,0,0,1,6.19-7.84A35.58,35.58,0,0,1,221,132.88Z"/><path class="cls-13" d="M229,143.24s-1.87-8.31-8-10.36l-.44-.14c1,1.23,2.16,2.62,2.39,4.19,0,.22-3.19-1.41-4-1.36-.56,0-.13,6-.69,5.83-1.25-.29-2.67-1.83-3.48-2.71-1.24-1.35-3.8-3.83-5-3.38-1.8.71-6.29,4.27-6.39,3.86-.19-.76-.63-3.61-.63-3.61s-6.89,1.37-6.83,1.17a10.93,10.93,0,0,0,.62-3.17l-.19.09a15.09,15.09,0,0,0-6.19,7.84s3.32-3.51,11-4.23a43.68,43.68,0,0,0-1,8.06s5.66-6.43,10.66-8.25c0,0,4.1,2.53,8.12,8.73,0,0,2.47-4.31,1.71-8.36C220.68,137.44,227.61,141.34,229,143.24Z"/><path class="cls-8" d="M89.05,172.13a20.1,20.1,0,1,1-21.4-18.7A20.1,20.1,0,0,1,89.05,172.13Z"/><path class="cls-9" d="M85,172.41a16,16,0,1,1-17.08-14.92A16,16,0,0,1,85,172.41Z"/><path class="cls-19" d="M68.5,165.25c.82-.05,2.84,5.05.28,5.2S67.39,165.31,68.5,165.25Z"/><path class="cls-19" d="M69.47,182c.83,0,2.24-5.35-.32-5.2S68.36,182.06,69.47,182Z"/><path class="cls-19" d="M62.7,168c.54-.62,5.57,1.56,3.87,3.48S62,168.85,62.7,168Z"/><path class="cls-19" d="M75.23,179.17c.54-.62-2.2-5.37-3.91-3.45S74.48,180,75.23,179.17Z"/><path class="cls-19" d="M60.55,174.08c0-.83,5-2.84,5.2-.28S60.61,175.19,60.55,174.08Z"/><path class="cls-19" d="M77.29,173.1c0-.82-5.34-2.23-5.2.33S77.36,174.22,77.29,173.1Z"/><path class="cls-19" d="M63.32,179.88c-.62-.55,1.56-5.58,3.48-3.88S64.15,180.62,63.32,179.88Z"/><path class="cls-19" d="M74.47,167.35c-.62-.55-5.37,2.2-3.45,3.91S75.3,168.09,74.47,167.35Z"/><path class="cls-19" d="M72.64,162.35c.79.22,1,5.71-1.46,5S71.57,162,72.64,162.35Z"/><path class="cls-19" d="M65.27,184.64c.8.23,3.89-4.3,1.42-5S64.2,184.33,65.27,184.64Z"/><path class="cls-19" d="M63.86,163.58c.73-.4,4.75,3.33,2.5,4.57S62.89,164.12,63.86,163.58Z"/><path class="cls-19" d="M74.15,183.68c.72-.4-.3-5.79-2.54-4.55S73.17,184.22,74.15,183.68Z"/><path class="cls-19" d="M57.78,169.17c.34-.75,5.8-.16,4.74,2.17S57.32,170.18,57.78,169.17Z"/><path class="cls-19" d="M80.21,177.17c.23-.79-4.3-3.89-5-1.42S79.9,178.24,80.21,177.17Z"/><path class="cls-19" d="M58.4,178.71C58,178,61.73,174,63,176.21S58.94,179.69,58.4,178.71Z"/><path class="cls-19" d="M79.43,168.47c-.4-.72-5.79.3-4.56,2.54S80,169.45,79.43,168.47Z"/><path class="cls-13" d="M75.47,154.46A23.3,23.3,0,0,1,81,167.38c.35,4.93,0,10.21-3.05,14.32a17.16,17.16,0,0,1-11.06,6.62c-4.2.68-9.1.3-12.51-2.5a16.59,16.59,0,0,1-3.58-4.58c-.3-.49-.62-1.05-1-1.6a20.1,20.1,0,1,0,25.6-25.18Z"/><path class="cls-11" d="M54.49,175.19a14.32,14.32,0,0,0,4-.08c1.41-.24,3.06-.74,3.64-2.19s.05-3.27.14-4.92A8.16,8.16,0,0,1,64,163.94c1.07-1.61,2.65-4.93,1.42-6.84l-.4,0a14,14,0,0,0-12.56,17.66A11.45,11.45,0,0,0,54.49,175.19Z"/><path class="cls-8" d="M253.85,172.67A20.1,20.1,0,1,1,232.44,154,20.09,20.09,0,0,1,253.85,172.67Z"/><path class="cls-9" d="M249.79,172.94A16,16,0,1,1,232.72,158,16,16,0,0,1,249.79,172.94Z"/><path class="cls-19" d="M233.29,165.78c.83,0,2.85,5.05.29,5.2S232.18,165.85,233.29,165.78Z"/><path class="cls-19" d="M234.27,182.53c.83-.05,2.24-5.35-.32-5.2S233.16,182.59,234.27,182.53Z"/><path class="cls-19" d="M227.49,168.55c.55-.62,5.59,1.56,3.88,3.48S226.75,169.38,227.49,168.55Z"/><path class="cls-19" d="M240,179.7c.55-.62-2.2-5.36-3.9-3.45S239.28,180.53,240,179.7Z"/><path class="cls-19" d="M225.34,174.61c0-.82,5.06-2.84,5.21-.28S225.41,175.72,225.34,174.61Z"/><path class="cls-19" d="M242.09,173.64c-.05-.83-5.35-2.24-5.2.32S242.16,174.75,242.09,173.64Z"/><path class="cls-19" d="M228.11,180.42c-.61-.55,1.57-5.59,3.48-3.88S229,181.16,228.11,180.42Z"/><path class="cls-19" d="M239.27,167.89c-.62-.55-5.37,2.2-3.45,3.9S240.1,168.63,239.27,167.89Z"/><path class="cls-19" d="M237.44,162.88c.79.23,1,5.71-1.47,5S236.37,162.57,237.44,162.88Z"/><path class="cls-19" d="M230.07,185.18c.79.22,3.88-4.31,1.42-5S229,184.87,230.07,185.18Z"/><path class="cls-19" d="M228.66,164.11c.72-.4,4.74,3.33,2.5,4.57S227.69,164.65,228.66,164.11Z"/><path class="cls-19" d="M239,184.21c.72-.39-.3-5.79-2.54-4.55S238,184.75,239,184.21Z"/><path class="cls-19" d="M222.59,169.7c.33-.75,5.79-.16,4.73,2.18S222.12,170.72,222.59,169.7Z"/><path class="cls-19" d="M245,177.7c.23-.79-4.3-3.88-5-1.42S244.7,178.78,245,177.7Z"/><path class="cls-19" d="M223.2,179.24c-.4-.72,3.33-4.74,4.57-2.49S223.74,180.22,223.2,179.24Z"/><path class="cls-19" d="M244.22,169c-.39-.72-5.79.29-4.54,2.54S244.76,170,244.22,169Z"/><path class="cls-13" d="M240.27,155a23.22,23.22,0,0,1,5.56,12.92c.36,4.93,0,10.22-3,14.32a17.17,17.17,0,0,1-11.07,6.63c-4.19.67-9.1.29-12.51-2.51a16.74,16.74,0,0,1-3.58-4.57c-.29-.5-.61-1.05-1-1.6A20.1,20.1,0,1,0,240.27,155Z"/><path class="cls-11" d="M219.29,175.73a14.7,14.7,0,0,0,4-.09c1.4-.24,3.06-.73,3.63-2.19s.06-3.27.15-4.92a8.19,8.19,0,0,1,1.68-4.06c1.07-1.6,2.66-4.92,1.42-6.83h-.4a14,14,0,0,0-12.56,17.66A11.31,11.31,0,0,0,219.29,175.73Z"/><rect class="cls-20" x="109.74" y="186.56" width="4.18" height="16.27" transform="translate(-112.43 183.85) rotate(-57.36)"/><path class="cls-8" d="M101.81,200.75s14.43,0,22.13,4.36l2.88-5.12s-10.16-6-13.91-17.35c0,0-2.54,1-2.55,1.93-.06,6.09,7.87,14,7.87,14s-10.81-3.45-15.34-1C102,198.09,101.81,200.75,101.81,200.75Z"/><path class="cls-21" d="M113,187.87c.67,1.07,1.42,2.08,2.18,3.08s1.6,2.16,2.5,3.17a55.32,55.32,0,0,1,4.84,5.54,4.75,4.75,0,0,1,1,2.84,2.91,2.91,0,0,1-.44,1.47c-.13.18-.26.34-.4.5.43.2.85.41,1.25.64l2.88-5.12s-10.16-6-13.91-17.35a9.09,9.09,0,0,0-1.92,1A23.06,23.06,0,0,0,113,187.87Z"/><path class="cls-22" d="M106.32,170.22a6.83,6.83,0,0,0-9,2.17A7.26,7.26,0,0,0,91.94,176s0,0,0,0a6.83,6.83,0,0,0-6.8,10.68,7,7,0,0,0,.37,6.62,6.83,6.83,0,0,0,9.15,8.95,7.09,7.09,0,0,0,2.24,2,7,7,0,0,0,9.8-8.79,6.91,6.91,0,0,0,3.6-6.41,6.95,6.95,0,0,0,2.44-12.93,7,7,0,0,0-3-.88A6.82,6.82,0,0,0,106.32,170.22Z"/><path class="cls-11" d="M93,199.23a7.8,7.8,0,0,0,1.6-2.41,6.35,6.35,0,0,0-.56-5.35c-.44-.86-1-1.63-1.5-2.46a6.72,6.72,0,0,1-.89-2.64,5.71,5.71,0,0,0-.83-3,6.78,6.78,0,0,0-2.45-2A3.74,3.74,0,0,0,87,181a5.86,5.86,0,0,0,.81,5.22,6,6,0,0,0,.31,5.68,5.86,5.86,0,0,0,2.49,7.48,5.93,5.93,0,0,0,1.54.6A4.83,4.83,0,0,0,93,199.23Z"/><path class="cls-21" d="M106.32,170.22a6.83,6.83,0,0,0-9,2.17,7.29,7.29,0,0,0-2.24.69l1.07.13c1.27.13,2.52.14,3.79.18a4.19,4.19,0,0,1,2.77.93,13.93,13.93,0,0,1,2.13,2.76,4.57,4.57,0,0,0,1.51,1.58c.51.3,1.05.54,1.54.87a2.65,2.65,0,0,1,1.25,1.43,2.5,2.5,0,0,1-.31,1.58,11.75,11.75,0,0,0-1.17,2.58c-.21,1-.11,2-.25,3A4.16,4.16,0,0,1,106,190.8,9.9,9.9,0,0,0,103.7,193c-1,1.72-.9,3.8-1.28,5.7s-1.35,3.56-3.29,4.09a5.27,5.27,0,0,1-1.62.21c-.51,0-1-.14-1.51-.16a4.34,4.34,0,0,0-.89.07,7,7,0,0,0,1.77,1.42,7,7,0,0,0,9.8-8.79,6.91,6.91,0,0,0,3.6-6.41,6.95,6.95,0,0,0,2.44-12.93,7,7,0,0,0-3-.88A6.82,6.82,0,0,0,106.32,170.22Z"/><polygon class="cls-8" points="157.88 196.07 158.21 198.49 167.08 197.28 174.94 200.23 175.38 198.94 169.41 195.9 174.16 192.27 173.1 190.72 166.7 194.84 157.88 196.07"/><path class="cls-9" d="M172.32,195.54c-.46,1.58-.87,6.8,6.39,7.49,3.42.33,5,2.71,6.12,4.95,1.45,3,14.85,5.36,15.71.53.89-5-3.6-8-9-11.4-2.72-1.71-3.85-5.38-7.81-5C178.3,192.61,174.48,188.37,172.32,195.54Z"/><path class="cls-23" d="M185.74,196.47c.59,2.75,1.49,5.46,4.13,6.94,1.47.82,2.85.7,4.19,1s3.91.85,4.33.21c.33-.48-3.67-4-6.86-6-2.16-1.36-3.06-4.26-6.2-4C185.44,195.26,185.61,195.88,185.74,196.47Z"/><path class="cls-24" d="M186,204a32.71,32.71,0,0,0,4.05,1.48,39.44,39.44,0,0,0,4.4,1.26,10.81,10.81,0,0,0,6.15-.1,7.16,7.16,0,0,1-.09,1.83c-.86,4.83-14.26,2.51-15.71-.53-1.07-2.24-2.7-4.62-6.12-4.95-7.26-.69-6.85-5.91-6.39-7.49.83-2.73,1.89-3.81,3.2-4.12A20.29,20.29,0,0,0,186,204Z"/><path class="cls-9" d="M171.39,191.22c-.23-1.77.27-7.4,8.14-6.86,3.7.26,5.86-2,7.39-4.2,2.09-3,16.79-3.11,16.86,2.2.06,5.53-5.26,7.95-11.58,10.59-3.21,1.34-5.06,5.06-9.22,4C177.24,195.41,172.42,199.26,171.39,191.22Z"/><path class="cls-23" d="M198.05,185a11.1,11.1,0,0,0-3.59.12,8.59,8.59,0,0,0-3.33,1.32,3.07,3.07,0,0,0-1.24,1.26c-.21.45-.34.93-.54,1.39-.87,2-4,3.5-3.41,5.37.36,1.08,3.45-1.64,5.5-2.46,4.09-1.65,10-3.79,9.29-5.84C200.4,185.25,199.13,185.2,198.05,185Z"/><path class="cls-24" d="M187.51,184.57a37.33,37.33,0,0,1,4.58-.86,42.93,42.93,0,0,1,4.91-.57c2.2-.09,4.66,0,6.55,1.19a7.71,7.71,0,0,0,.23-2c-.07-5.31-14.77-5.19-16.86-2.2-1.53,2.2-3.69,4.46-7.39,4.2-7.87-.54-8.37,5.09-8.14,6.86.39,3.07,1.34,4.4,2.67,5A22,22,0,0,1,187.51,184.57Z"/></g></g></svg>