<?xml version="1.0" encoding="utf-8"?>
<!-- Generator: Adobe Illustrator 25.0.0, SVG Export Plug-In . SVG Version: 6.00 Build 0)  -->
<svg version="1.1" id="Layer_1" xmlns="http://www.w3.org/2000/svg" xmlns:xlink="http://www.w3.org/1999/xlink" x="0px" y="0px"
	 viewBox="0 0 300 300" style="enable-background:new 0 0 300 300;" xml:space="preserve">
<style type="text/css">
	.st0{opacity:8.000000e-02;fill:#E13856;enable-background:new    ;}
	.st1{fill:#D81E1E;}
	.st2{fill:#FFFFFF;}
	.st3{fill:#46A9F2;}
	.st4{fill:#D5E1ED;}
	.st5{fill:#B8DDFF;}
	.st6{opacity:0.5;}
	.st7{fill:#8FA7D7;}
	.st8{fill:#38A595;}
	.st9{opacity:0.5;fill:#8FA7D7;enable-background:new    ;}
	.st10{fill:#FFCCA9;}
	.st11{opacity:0.1;fill:#8FA7D7;enable-background:new    ;}
	.st12{fill:#A1B5BF;}
	.st13{fill:#F0BA92;}
	.st14{opacity:0.6;}
	.st15{fill:#D88D64;}
	.st16{fill:#D3976E;}
	.st17{opacity:0.1;}
	.st18{fill:#0E3368;}
	.st19{fill:#383F47;}
	.st20{fill:#1A2026;}
	.st21{fill:#BCBCBC;}
	.st22{fill:#444444;}
	.st23{opacity:0.3;}
	.st24{fill:#635B53;}
	.st25{opacity:0.4;}
	.st26{fill:#D3D3D3;}
	.st27{fill:#A8A6A0;}
	.st28{fill:#BABABA;}
	.st29{fill:#AAA9A2;}
	.st30{fill:#2A445D;}
	.st31{fill:#1F384C;}
	.st32{clip-path:url(#SVGID_2_);fill:#FFFFFF;}
	.st33{clip-path:url(#SVGID_4_);fill:#FFFFFF;}
	.st34{clip-path:url(#SVGID_6_);fill:#FFFFFF;}
	.st35{clip-path:url(#SVGID_8_);fill:#FFFFFF;}
	.st36{clip-path:url(#SVGID_10_);fill:#FFFFFF;}
	.st37{clip-path:url(#SVGID_12_);fill:#FFFFFF;}
	.st38{fill:#210601;}
	.st39{fill:#302420;}
</style>
<g>
	<g id="OBJECTS">
		<g id="Page-1">
			<g id="For-you-and-your-partner-Copy-4">
				<g id="Group-4">
					<circle id="Mask-Copy-2" class="st0" cx="150" cy="150" r="150"/>
				</g>
			</g>
		</g>
	</g>
</g>
<g>
	<path class="st1" d="M276.8,48.7c-2.3-22.1-42.2-28.2-80.5-23.7s-39.7,13.2-38.8,39.3c0.3,8.6,2.7,15.4,6.5,20.7
		c-2.3,8-11.8,9.7-10.5,10.9c6.7,6.5,18.6,0.5,21.5-1.1c18.5,10.8,47.7,9.3,68.8,6.3C272,97.2,279.3,72.9,276.8,48.7z"/>
	<path class="st2" d="M200.5,62.7c0,2.2-1.8,4.1-4.1,4.1c-2.2,0-4.1-1.8-4.1-4.1c0-2.2,1.8-4.1,4.1-4.1
		C198.6,58.6,200.5,60.5,200.5,62.7z"/>
	<path class="st2" d="M220.5,62.7c0,2.2-1.8,4.1-4.1,4.1s-4.1-1.8-4.1-4.1c0-2.2,1.8-4.1,4.1-4.1S220.5,60.5,220.5,62.7z"/>
	<path class="st2" d="M239.8,62.7c0,2.2-1.8,4.1-4.1,4.1c-2.2,0-4.1-1.8-4.1-4.1c0-2.2,1.8-4.1,4.1-4.1
		C238,58.6,239.8,60.5,239.8,62.7z"/>
	<path class="st3" d="M92.6,123.2c0.4-0.6,15.9,7.2,33.4-3s7.3,97.2,7.3,97.2l-1.4,55.7l-2,26.9H86.3l-8.9-84.7
		C77.4,215.3,86.5,132.8,92.6,123.2z"/>
	<path class="st2" d="M171.1,139c-7.1-6.1-39.8-18.5-39.8-18.5L126,130c0,0,1.7,118.3,0.8,142.7V300h39.9l0.2-61.6
		c11.5-2.9,20.4-7.8,25.3-13.1c5.5-6.1,6.9-9.5,6.9-17.5C199.1,199.7,178.2,145.1,171.1,139z"/>
	<path class="st2" d="M89,227.3c0.4-0.6,0.6-0.9,0.6-0.9V121.6c0,0-32.7,12.4-39.8,18.5s-27.8,62.6-28,70.7c-0.8,32,27,72.3,27,72.3
		s0.9-0.4,2.6-1.6c-0.5,7.4-1.5,18.6-1.5,18.6h43.4c0,0,0.1-33.1,0-34.6C93.2,264.5,90.9,243.9,89,227.3z"/>
	<g>
		<g>
			<path class="st4" d="M158.6,198.8l-7.3,4.3c-0.2,0.1-0.4,0.1-0.5,0l-7.7-4.3c-0.2-0.1-0.3-0.3-0.3-0.5v-16.2
				c0-0.3,0.2-0.5,0.5-0.5h15c0.3,0,0.5,0.2,0.5,0.5v16.2C158.8,198.5,158.7,198.7,158.6,198.8z"/>
		</g>
	</g>
	<g>
		<g>
			<path class="st5" d="M158.6,198.8l-7.3,4.3c-0.2,0.1-0.4,0.1-0.5,0l-7.7-4.3c-0.2-0.1-0.3-0.3-0.3-0.5v-12.9
				c0-0.3,0.2-0.5,0.5-0.5h15c0.3,0,0.5,0.2,0.5,0.5v12.9C158.8,198.5,158.7,198.7,158.6,198.8z"/>
		</g>
	</g>
	<g class="st6">
		<g>
			<path class="st7" d="M126.8,273.8v-51.2V111.4c0,0,1.4,2.5,6.4,7.6c6.3,6.4,11.7,16,11.7,16l-11.3-2.2l14.7,14.8l-11.1,65.2
				l-7.8,1.2l5,15.8L126.8,273.8z"/>
		</g>
	</g>
	<g class="st6">
		<path class="st7" d="M84.6,118.9c-6.3,6.4-11.7,16-11.7,16l11.3-2.2l-14.7,14.8l23.8,122.9L91,111.3
			C91,111.3,89.6,113.8,84.6,118.9z"/>
	</g>
	<g>
		<g>
			<path class="st2" d="M126.8,267L126.8,267l-2.5-156.8c0,0,2.6,1.1,7.6,6.2c6.3,6.4,10.5,17.4,10.5,17.4l-11.3-2.2l14.7,14.8
				l-10.6,67.1l-5.4,1.2l4,8L126.8,267z"/>
		</g>
	</g>
	<g>
		<g>
			<path class="st2" d="M93.3,265.4V110.2c0,0-2.6,1.1-7.6,6.2c-6.3,6.4-10.5,17.4-10.5,17.4l11.3-2.2l-14.7,14.8L93.3,265.4z"/>
		</g>
	</g>
	<path class="st8" d="M110.9,278.1c-9.9,0-17.5-1.5-17.6-1.5v-0.9c0.2,0,17.4,3.4,33.5,0v0.9C121.4,277.7,115.9,278.1,110.9,278.1z"
		/>
	<g>
		<path class="st8" d="M108.7,137.6c-8.9,0-15.4-3.1-15.5-3.2v-1.1c0.2,0.1,16,7.6,31.4-0.7v1.1
			C119.1,136.7,113.7,137.6,108.7,137.6z"/>
	</g>
	<path class="st9" d="M36.2,210.8c0,0,11.8,2.3,17.9,8.4C54.1,219.2,38.8,211.6,36.2,210.8z"/>
	<path class="st10" d="M67.5,263.4l2.5,3c0,0-5,12.2-10.5,18.6l-4.5-6.2C55,278.8,61.9,273.6,67.5,263.4z"/>
	<path class="st9" d="M50.2,210.8c0.3,0.5,4.3,4.3,5.6,7.9l-6.2-7.1L50.2,210.8z"/>
	<path class="st9" d="M62.7,169.8c0-0.6-3.6,47-5.2,53.2l11.9,36.5c0,0-6.3,14.3-18.1,21.9c0,0,7.6-1.1,19.5-17.6
		c0,0-6,17-14.4,24.2c0,0,13.2-7.8,17.1-31.6L61.1,223C61.1,223,63.3,180.4,62.7,169.8z"/>
	<polygon class="st9" points="166.9,238.4 161.2,240.1 162.1,245.2 166.9,243.3 	"/>
	<path class="st9" d="M165.5,202.7L165.5,202.7l-4.4-35.8l1.4,36.9C147.8,209.4,132,216,132,216s8.4-2.2,18.7-4.9
		s29.5-13.5,29.5-13.5C176.3,198.8,171.1,200.7,165.5,202.7z"/>
	<path class="st11" d="M185.8,167.8c0,0,9.2,24.9,9.3,41c0,6-3.4,11-5.9,12.8c-24,17.5-53.7,18.1-53.7,18.1s-0.2,4-0.8,4.8
		c0,0,52.5-3.5,62.5-26.2c0,0,2.3-3.6,1.8-9.3C198.1,198.2,192.1,183.1,185.8,167.8z"/>
	<path class="st11" d="M39.7,158.7c0.4-1-15,38.1-14.8,52.1c0.3,29.5,22.1,66.7,26.5,70.7l-2.6,1.6c0,0-28.9-42.9-27-72.3
		C22.2,205,22.9,202.4,39.7,158.7z"/>
	<path class="st1" d="M134.9,244.2c1.7-17.3-3.3-27.9-2.7-28.2c5.6-2.5,19.6-8,30.8-12.4l0.5-25.5l-57.4-2.3l-1.3,84.8l57.2-2.3
		l0.3-18.5C148.2,243.1,134.9,244.2,134.9,244.2z"/>
	<polygon class="st12" points="144.2,177.4 144.3,176.4 128.7,175.5 128.7,176.8 	"/>
	<path class="st12" d="M130.7,178.5c0,0.2-0.1,0.3-0.3,0.3s-0.3-0.1-0.3-0.3s0.1-0.3,0.3-0.3C130.5,178.1,130.7,178.3,130.7,178.5z"
		/>
	<path class="st12" d="M143,179c0,0.1-0.1,0.2-0.2,0.2c-0.1,0-0.2-0.1-0.2-0.2c0-0.1,0.1-0.2,0.2-0.2S143,178.9,143,179z"/>
	<g>
		<g>
			<path class="st13" d="M133.9,89.7c-1.6,5.9-4.5,10.4-5.8,10.1c0,0,0.9-3.8,2.1-9.8c1.4-7,1.6-11.9,4.4-11.6
				C135.9,78.5,135.5,83.8,133.9,89.7z"/>
		</g>
	</g>
	<g class="st14">
		<g>
			<path class="st15" d="M131.7,87.3c-1.5,5.9-2.3,12.8-3.6,12.5c0,0,1.2-5.4,2.4-11.4c1.4-7,1.2-9.4,4.1-9.1
				C134.6,79.3,133.5,80.1,131.7,87.3z"/>
		</g>
	</g>
	<g>
		<g>
			<path class="st13" d="M83.9,89.7c1.6,5.9,4.3,10.4,5.6,10.1c0,0-1.3-4.9-2.1-10c-1.1-7-1.3-11.7-4.2-11.4
				C81.9,78.5,82.3,83.8,83.9,89.7z"/>
		</g>
	</g>
	<g class="st14">
		<g>
			<path class="st15" d="M85.2,86.6c1.5,5.9,3,13.5,4.3,13.2c0,0-1.3-6.1-2.5-12.1c-1.4-7-1.1-8.6-4-8.3
				C83,79.4,83.4,79.4,85.2,86.6z"/>
		</g>
	</g>
	<g>
		<g>
			<path class="st13" d="M124.6,124c0,0-2.2,5.7-15.8,5.7s-15.5-5.3-15.5-5.3V107h31.1L124.6,124z"/>
		</g>
	</g>
	<g class="st14">
		<g>
			<path class="st15" d="M124.4,111.4c-2.8,5.9-13.8,10.5-15.6,10.5c-1.8,0-11.1-3.5-15.5-10.4v-9h31.1V111.4z"/>
		</g>
	</g>
	<g>
		<g>
			<path class="st10" d="M128.1,99.8c-5.2,17-19.3,17.3-19.3,17.3s-14.9,0-19.4-17.7c-2.9-11.7-10-29.5-1.5-42.7
				c4.8-7.5,39.8-10.5,43.9,0C135.9,67.1,131.2,89.8,128.1,99.8z"/>
		</g>
	</g>
	<g>
		<path class="st2" d="M116.4,99.2c0.6,0.5-1.2,6.6-7.6,6.7c-5.4,0.1-8.1-5.5-7.7-6.4c0.6-1,2.8-0.3,7.4-0.3
			C113.3,99.2,115.8,98.6,116.4,99.2z"/>
		<path class="st16" d="M108.7,106.2c-3.5,0-6-2.3-7.2-4.4c-0.5-0.8-0.9-1.9-0.6-2.4c0.5-0.8,1.7-0.8,3.8-0.6c1,0.1,2.4,0.1,3.9,0.1
			c1.9,0,3.4-0.1,4.7-0.2c1.9-0.1,2.9-0.2,3.4,0.2l0,0c0.4,0.4,0.1,1.5-0.1,1.9C116.2,101.7,114.4,106.1,108.7,106.2
			C108.8,106.2,108.8,106.2,108.7,106.2z M102.9,99.3c-0.8,0-1.2,0.1-1.4,0.4c-0.1,0.1,0.1,1,0.8,2.1c0.6,0.9,2.7,3.7,6.5,3.7h0.1
			c3.7,0,5.6-2.2,6.4-3.5s1-2.4,0.9-2.7c-0.3-0.2-1.5-0.1-2.9-0.1c-1.2,0.1-2.8,0.2-4.7,0.2c-1.6,0-2.9-0.1-4-0.1
			C103.9,99.3,103.3,99.3,102.9,99.3z"/>
	</g>
	<g>
		<path class="st15" d="M108.8,94c-0.8-0.5-1.9-1.7-1.2-3.7c0.6-1.7,0.7-5,0.7-5.1h0.6c0,0.1-0.1,3.4-0.7,5.3c-0.5,1.5,0.3,2.5,1,3
			L108.8,94z"/>
	</g>
	<path class="st10" d="M133.4,220.8l-5.9,0.9c-7.5,0.7-10.2-5.1-16.9-4.3c-6.6,0.9-5.8,3.5-5.8,3.5c-4.4,0.1-3.2,6.2-3.2,6.2
		c-2.1,3.1,0.1,6.6,0.1,6.6c-1.5,2.1,0.5,5.4,0.5,5.4c0.6,3.5,4.8,6.4,9.4,6.9c0.2,0,0.3,0,0.5,0s0.3,0,0.5,0s0.3,0,0.5,0
		s0.5,0,0.7,0l0,0l0,0l0,0c0.2,0,0.4,0,0.6-0.1c5.5-0.8,20.8-6.9,20.8-6.9C135.5,227.2,133.4,220.8,133.4,220.8z"/>
	<path class="st15" d="M104.8,220.9c0,0,3.8,0.7,5.8,0.9c2.1,0.1,6.8,0.9,7.9,1.2c0,0-6.2-0.5-8-0.6
		C109.3,222.3,104.3,221,104.8,220.9z"/>
	<path class="st15" d="M106,228.8c0,0-2.8-1.1-3.6-2.2c-0.8-1.1-0.8-2.4-0.9-2.3c-0.2,1.1,0.1,2.9,0.1,2.9L106,228.8z"/>
	<path class="st15" d="M106.1,235.4c0,0-2.6-1.2-3.7-2c-1.2-1-1.6-2.5-1.6-2.4c0.1,1.5,0.9,2.7,0.9,2.7L106.1,235.4z"/>
	<path class="st15" d="M106.6,240.8c0,0-2.6-1.2-3.7-2c-1.2-1-1.8-2.6-1.7-2.5c0.1,1.5,1.1,2.9,1.1,2.9L106.6,240.8z"/>
	<path class="st15" d="M105.4,219.4c0,0-0.7,1.5,0.5,1.8l0.2,0.3l-1.3-0.5C104.8,220.9,104.7,220,105.4,219.4z"/>
	<g class="st17">
		<g>
			<g>
				<path class="st18" d="M84.4,148.9l0.3-17l-1.4,0.3L83,149c-7.7,1.3-9.2,15-9.5,32.4l0,0v1c0,3.6,1.9,4.4,4.3,4.8
					c0.9,0.1,1.8,0.2,2.7,0.2c0.2,0.5,0.7,0.9,1.3,0.9c0.8,0,1.5-0.6,1.5-1.5v-1.2c0-0.8-0.6-1.5-1.5-1.5c-0.7,0-1.3,0.5-1.4,1.3
					c-1.9-0.1-4.3-0.5-5.1-1.9c-0.8-1.4-0.3-4.3-0.2-6.3c0.5-15.2,2.2-26.8,9.2-26.8c7.1,0,10.4,11.5,10.9,26.7
					c0.1,1.9,0.4,4.7-0.3,6.1c-0.6,1.3-2.4,1.9-4.1,2.1c-0.2-0.7-0.8-1.1-1.6-1.1c-0.8,0.1-1.4,0.8-1.3,1.6L88,187
					c0.1,0.8,0.8,1.4,1.6,1.3c0.6-0.1,1.1-0.5,1.2-1.1c2.8-0.4,5.9-1.6,5.8-5.2v-1.4c0,0,0,0,0-0.1
					C96.3,162.7,92.8,149.1,84.4,148.9z"/>
			</g>
		</g>
		<g>
			<g>
				<path class="st18" d="M153.3,162.6c-1.4-33.6-17-41.3-17.7-41.6c0,0,0.9,0.7,4.8,6.1c4.1,5.6,10.4,15.8,11.3,35.5
					c-3.4,0.5-6,3.4-6,6.9c0,3.8,3.1,6.9,6.9,6.9c3.8,0,6.9-3.1,6.9-6.9C159.5,165.9,156.8,163,153.3,162.6z"/>
			</g>
		</g>
		<polygon class="st18" points="162.3,239.8 162,258.4 110.2,260.4 110.2,260.4 110.1,266.9 165.5,264.6 165.5,239 		"/>
	</g>
	<g>
		<g>
			<path class="st19" d="M94.7,178.8c-0.3-17.9-3-31.5-11.6-31.5c-8.7,0-11.3,14-11.6,32.4l0,0v1c0,3.6,1.9,4.4,4.3,4.8
				c0.9,0.1,1.8,0.2,2.7,0.2c0.2,0.5,0.7,0.9,1.3,0.9c0.8,0,1.5-0.6,1.5-1.5v-1.2c0-0.8-0.6-1.5-1.5-1.5c-0.7,0-1.3,0.5-1.4,1.3
				c-1.9-0.1-4.3-0.5-5.1-1.9c-0.8-1.4-0.3-4.3-0.2-6.3c0.5-15.2,3-26.7,10.1-26.7s9.5,11.4,10,26.6c0.1,1.9,0.4,4.7-0.3,6.1
				c-0.6,1.3-2.4,1.9-4.1,2.1c-0.2-0.7-0.8-1.1-1.6-1.1c-0.8,0.1-1.4,0.8-1.3,1.6l0.1,1.2c0.1,0.8,0.8,1.4,1.6,1.3
				c0.6-0.1,1.1-0.5,1.2-1.1c2.8-0.4,5.9-1.6,5.8-5.2L94.7,178.8C94.7,178.8,94.7,178.8,94.7,178.8z"/>
		</g>
	</g>
	<g>
		<g>
			<polygon class="st19" points="83.3,148 81.8,148 81.8,132.5 83.3,132.2 			"/>
		</g>
	</g>
	<g>
		<g>
			<path class="st19" d="M148.1,158.7c-0.7-20.1-7.2-30.5-11.3-36.2c-3.9-5.4-4.8-6.1-4.8-6.1c0.7,0.3,16.5,8,17.7,42.3H148.1z"/>
		</g>
	</g>
	<g>
		<g>
			<path class="st20" d="M149,159.1c-1.1-20.9-6.1-30.1-10.2-35.8c-3.9-5.4-6.8-6.9-6.8-6.9c0.7,0.3,16.5,8.7,17.8,42.9L149,159.1z"
				/>
		</g>
	</g>
	<g>
		<g>
			<path class="st21" d="M155.9,164.9c0,3.8-3.1,6.9-6.9,6.9c-3.8,0-6.9-3.1-6.9-6.9s3.1-6.9,6.9-6.9
				C152.8,157.9,155.9,161,155.9,164.9z"/>
		</g>
		<g>
			<path class="st22" d="M149,172c-3.9,0-7.1-3.2-7.1-7.1c0-3.9,3.2-7.1,7.1-7.1c3.9,0,7.1,3.2,7.1,7.1S152.9,172,149,172z
				 M149,158.1c-3.7,0-6.7,3-6.7,6.7s3,6.7,6.7,6.7s6.7-3,6.7-6.7S152.7,158.1,149,158.1z"/>
		</g>
	</g>
	<g class="st23">
		<g>
			<path class="st2" d="M152.4,171.1l-1.8-3.7l1.2-3.4l3.8-1.6C155.7,162.4,158,167.3,152.4,171.1L152.4,171.1z"/>
		</g>
	</g>
	<g>
		<g>
			<path class="st24" d="M152.1,165.4c0,1.8-1.4,3.3-3.1,3.3c-1.7,0-3.1-1.5-3.1-3.3s1.4-3.3,3.1-3.3
				C150.7,162.1,152.1,163.5,152.1,165.4z"/>
		</g>
	</g>
	<g class="st25">
		<g>
			<path class="st2" d="M147.9,157.7l0.4,4.2l-2.3,2.8l-4.2,0.2C141.8,164.9,141.4,159.3,147.9,157.7L147.9,157.7z"/>
		</g>
	</g>
	<g>
		<g>
			<path class="st26" d="M151.8,164.9c0,1.5-1.2,2.8-2.8,2.8s-2.8-1.2-2.8-2.8s1.2-2.8,2.8-2.8S151.8,163.3,151.8,164.9z"/>
		</g>
		<g>
			<path class="st27" d="M149,167.8c-1.6,0-3-1.3-3-3c0-1.6,1.3-3,3-3c1.6,0,3,1.3,3,3S150.6,167.8,149,167.8z M149,162.3
				c-1.4,0-2.6,1.2-2.6,2.6c0,1.4,1.2,2.6,2.6,2.6c1.4,0,2.6-1.2,2.6-2.6C151.6,163.4,150.4,162.3,149,162.3z"/>
		</g>
	</g>
	<g>
		<g>
			<path class="st28" d="M150.1,165.2c0,0.6-0.5,1.1-1.1,1.1s-1.1-0.5-1.1-1.1s0.5-1.1,1.1-1.1C149.6,164.1,150.1,164.6,150.1,165.2
				z"/>
		</g>
	</g>
	<g>
		<g>
			<circle class="st2" cx="149" cy="164.9" r="1.1"/>
		</g>
	</g>
	<g>
		<g>
			<path class="st29" d="M79.6,185.8h-0.3c-0.2,0-0.4-0.2-0.4-0.4v-1.9c0-0.2,0.2-0.4,0.4-0.4h0.3c0.2,0,0.4,0.2,0.4,0.4v1.9
				C80.1,185.6,79.9,185.8,79.6,185.8z"/>
		</g>
	</g>
	<g>
		<g>
			<path class="st29" d="M87.8,185.8h-0.3c-0.2,0-0.5-0.2-0.5-0.4l-0.2-1.9c0-0.2,0.2-0.5,0.4-0.5h0.3c0.2,0,0.5,0.2,0.5,0.4
				l0.2,1.9C88.2,185.6,88,185.8,87.8,185.8z"/>
		</g>
	</g>
	<g class="st25">
		<g>
			<path class="st2" d="M148.3,162.5c-1.6,0.5-1.7,2-1.7,2l1.6,0.1l0.4-0.4L148.3,162.5z"/>
		</g>
	</g>
	<g class="st25">
		<g>
			<path class="st2" d="M150.5,166.9c1.3-1.1,0.9-2.5,0.9-2.5l-1.5,0.4l-0.2,0.5L150.5,166.9z"/>
		</g>
	</g>
	<g>
		<g>
			<path class="st30" d="M86.3,88c0,0-3-11.8-3.5-17.8s-1.2-14,5.6-16.7C95.1,50.7,93,59,93,59s-5.3,3.6-6.4,12.6
				C86,76.4,86.3,88,86.3,88z"/>
		</g>
	</g>
	<g>
		<g>
			<path class="st30" d="M131.1,87.8c0,0,3.3-11.7,3.8-17.6c0.5-6,1.2-14-5.6-16.7c-6.7-2.7-4.7,5.6-4.7,5.6s5.3,3.6,6.4,12.6
				C131.7,76.4,131.1,87.8,131.1,87.8z"/>
		</g>
	</g>
	<g>
		<g>
			<path class="st30" d="M125.6,61.9c0,0-8.2,1.3-13.7-1.3c-1.6-0.8-9.4,2.6-13,1.9c-6.9-1.3-9.9-6.9-10-7.5c-0.4-1.7-2-4.1,2.9-7.8
				c6.9-5.2,15.4-3.9,16.8-5.4s2.8-2.4,5.6-2.2c7.4,0.7,7.7,5.1,11.9,5.7c5.4,0.8,7.2,3,7.6,7.5C134.2,61.5,125.6,61.9,125.6,61.9z"
				/>
		</g>
	</g>
	<g>
		<g>
			<path class="st31" d="M109.9,40.6c0,0-2.3,1.7-8.1,8.4c-5.8,6.8-8.8,6.3-9.5,6.5c0,0,5,0.9,10.3-6.1
				C108,42.4,109.9,40.6,109.9,40.6z"/>
		</g>
	</g>
	<g>
		<g>
			<path class="st31" d="M119,61.7c0,0,9.7,1.1,13.9-3.9c0,0-0.9,5.3-13.7,4L119,61.7z"/>
		</g>
	</g>
	<g>
		<g>
			<path class="st31" d="M103.1,61.8c-11.4,1.6-14.7-7.8-14.6-7.6c1.8,5.7,6.3,7.9,9.7,8.8c1,0.3,2,0.4,3,0.5c0.5,0,0.9,0,0.9,0l0,0
				c10.9,0.1,19.7-11.4,19.7-11.4C114.4,58.4,107.8,60.9,103.1,61.8z"/>
		</g>
	</g>
	<g>
		<g>
			<g>
				<defs>
					<circle id="SVGID_1_" cx="100.4" cy="82.8" r="4.8"/>
				</defs>
				<clipPath id="SVGID_2_">
					<use xlink:href="#SVGID_1_"  style="overflow:visible;"/>
				</clipPath>
				<polygon class="st32" points="101.9,88.1 105.7,84.3 105.7,88.1 				"/>
			</g>
			<g>
				<defs>
					<circle id="SVGID_3_" cx="100.4" cy="82.8" r="4.8"/>
				</defs>
				<clipPath id="SVGID_4_">
					<use xlink:href="#SVGID_3_"  style="overflow:visible;"/>
				</clipPath>
				<polygon class="st33" points="97.1,88.1 95.1,86.1 95.1,81.3 98.9,77.5 103.7,77.5 105.7,79.5 105.7,84.3 101.9,88.1 				"/>
			</g>
			<g>
				<defs>
					<circle id="SVGID_5_" cx="100.4" cy="82.8" r="4.8"/>
				</defs>
				<clipPath id="SVGID_6_">
					<use xlink:href="#SVGID_5_"  style="overflow:visible;"/>
				</clipPath>
				<polygon class="st34" points="98.9,77.5 95.1,81.3 95.1,77.5 				"/>
			</g>
		</g>
	</g>
	<g>
		<g>
			<g>
				<defs>
					<circle id="SVGID_7_" cx="117.6" cy="83.1" r="4.8"/>
				</defs>
				<clipPath id="SVGID_8_">
					<use xlink:href="#SVGID_7_"  style="overflow:visible;"/>
				</clipPath>
				<polygon class="st35" points="119.2,88.4 122.9,84.7 122.9,88.4 				"/>
			</g>
			<g>
				<defs>
					<circle id="SVGID_9_" cx="117.6" cy="83.1" r="4.8"/>
				</defs>
				<clipPath id="SVGID_10_">
					<use xlink:href="#SVGID_9_"  style="overflow:visible;"/>
				</clipPath>
				<polygon class="st36" points="114.3,88.4 112.3,86.5 112.3,81.6 116.1,77.8 120.9,77.8 122.9,79.8 122.9,84.7 119.2,88.4 				
					"/>
			</g>
			<g>
				<defs>
					<circle id="SVGID_11_" cx="117.6" cy="83.1" r="4.8"/>
				</defs>
				<clipPath id="SVGID_12_">
					<use xlink:href="#SVGID_11_"  style="overflow:visible;"/>
				</clipPath>
				<polygon class="st37" points="116.1,77.8 112.3,81.6 112.3,77.8 				"/>
			</g>
		</g>
	</g>
	<g>
		<g>
			<path class="st30" d="M122.6,76.1c-1.4-1-3-1.4-4.7-1.1c-0.7,0.1-1.3-0.6-1.1-1.3l0,0c0.1-0.4,0.3-0.6,0.7-0.8
				c2.4-0.7,4.7-0.3,6.5,1.5c0.2,0.2,0.3,0.6,0.2,0.9v0.1C124,76.1,123.2,76.5,122.6,76.1z"/>
		</g>
	</g>
	<g>
		<g>
			<g>
				<ellipse class="st38" cx="117.6" cy="83.1" rx="1.2" ry="1.6"/>
			</g>
		</g>
		<g>
			<g>
				<path class="st38" d="M100.4,81.4c-0.7,0-1.2,0.7-1.2,1.6s0.5,1.6,1.2,1.6s1.2-0.7,1.2-1.6S101.1,81.4,100.4,81.4z"/>
			</g>
		</g>
	</g>
	<g>
		<g>
			<path class="st39" d="M122.5,81.5c-0.7-2.1-2.6-3.6-4.9-3.6c-2.6,0-4.7,1.9-5.1,4.4l0,0c-0.9-1-2.2-1.7-3.7-1.7
				c-1.3,0-2.5,0.5-3.4,1.4c-0.4-2.4-2.5-4.2-5.1-4.2c-2.3,0-4.2,1.5-4.9,3.6c-8.6-3-10.7-3.4-11.2-3.3c-0.2,0-0.3,0.3-0.3,0.4
				l0.4,0.2l0.1-0.1c0.7-0.1,6.1,1.6,10.9,3.4c-0.1,0.3-0.1,0.7-0.1,1.1c0,2.8,2.3,5.2,5.2,5.2c1.9,0,3.6-1.1,4.5-2.6
				c0.2,0,0.3-0.1,0.4-0.1c0.1-0.1,0.3-0.2,0.4-0.3c0.2-0.2,0.4-0.6,0.4-0.9c0.1-0.8-0.1-1.4-0.3-1.7c0.8-0.8,1.9-1.3,3.1-1.3
				c1.3,0,2.5,0.6,3.3,1.5c-0.2,0.3-0.3,0.9-0.2,1.6c0,0.3,0.2,0.6,0.4,0.9c0.1,0.1,0.3,0.2,0.4,0.3c0.1,0.1,0.3,0.1,0.4,0.1
				c0.9,1.5,2.5,2.6,4.5,2.6c2.8,0,5.2-2.3,5.2-5.2c0-0.4,0-0.7-0.1-1.1c4.9-1.7,10.2-3.5,10.8-3.4l0.5-0.2
				C133.9,78.1,133.7,77.6,122.5,81.5z M100.4,87.6c-2.5,0-4.6-2.1-4.6-4.6s2.1-4.6,4.6-4.6s4.6,2.1,4.6,4.6S103,87.6,100.4,87.6z
				 M105.6,84.5c-0.1,0.1-0.1,0.2-0.2,0.3l-0.1,0.1c0.2-0.5,0.3-1.1,0.4-1.7c0,0.1,0.1,0.2,0.1,0.3
				C105.7,83.8,105.7,84.1,105.6,84.5z M112.7,84.9c-0.1-0.1-0.2-0.2-0.2-0.3c-0.1-0.3-0.2-0.7-0.1-1c0-0.1,0.1-0.2,0.1-0.3
				c0,0.6,0.1,1.2,0.4,1.7C112.8,84.9,112.8,84.9,112.7,84.9z M117.6,87.7c-2.5,0-4.6-2.1-4.6-4.6s2.1-4.6,4.6-4.6s4.6,2.1,4.6,4.6
				S120.2,87.7,117.6,87.7z"/>
		</g>
	</g>
	<g>
		<g>
			<path class="st30" d="M95.5,75.9c1.4-1,3-1.4,4.7-1.1c0.7,0.1,1.3-0.6,1.1-1.3l0,0c-0.1-0.4-0.3-0.6-0.7-0.8
				c-2.4-0.7-4.7-0.3-6.5,1.5c-0.2,0.2-0.3,0.6-0.2,0.9v0.1C94,76,94.9,76.4,95.5,75.9z"/>
		</g>
	</g>
	<g>
		<g>
			<path class="st20" d="M72.9,179.4c0,0-1.3-27.4,7.9-30.9c2.1-0.8,4.1-0.3,5.5,0.4c4.9,2.6,6.1,11.9,6.5,16.2
				c0.5,5.5,1.2,13.5,0.3,15.8c0,0,0.3-12.7-1.8-22c-2.1-9.3-6.2-10.3-8.7-10.2c-2.6,0.1-5.6,3-7.2,8.6
				C73.7,163,72.9,179.4,72.9,179.4z"/>
		</g>
	</g>
	<g>
		<g>
			<path class="st20" d="M71.6,181.5c0-0.1,0.6,2.4,3.1,3s3.7-0.8,3.7-0.8s-0.2,1.6,0.1,2C78.5,185.7,71.8,186.4,71.6,181.5z"/>
		</g>
	</g>
	<g>
		<g>
			<path class="st20" d="M94.7,179.6c0-0.1,0.1,1.1-0.4,2.1c-0.9,1.7-1.6,1.8-2.5,2.3c-2.2,1.2-3-0.4-3-0.4s0.3,1.5,0.1,1.9
				C88.9,185.5,95.2,185.3,94.7,179.6z"/>
		</g>
	</g>
	<g>
		<g>
			<polygon class="st20" points="81.8,132.5 83.3,132.2 83.2,132.9 81.8,133.2 			"/>
		</g>
	</g>
</g>
</svg>
