<?xml version="1.0" encoding="utf-8"?>
<!-- Generator: Adobe Illustrator 25.0.0, SVG Export Plug-In . SVG Version: 6.00 Build 0)  -->
<svg version="1.1" id="Layer_1" xmlns="http://www.w3.org/2000/svg" xmlns:xlink="http://www.w3.org/1999/xlink" x="0px" y="0px"
	 viewBox="0 0 300 300" style="enable-background:new 0 0 300 300;" xml:space="preserve">
<style type="text/css">
	.st0{opacity:8.000000e-02;fill:#E13856;enable-background:new    ;}
	.st1{fill:#1D71B8;}
	.st2{fill:#DADADA;}
	.st3{fill:#EDEDED;}
	.st4{fill:#0593A1;}
	.st5{fill:#F9C484;}
	.st6{fill:#E94E1B;}
	.st7{fill:#CC4418;}
	.st8{fill:#EBB677;}
	.st9{opacity:0.1;fill:#1D1D1B;}
	.st10{fill:#3C3C3B;}
	.st11{fill:#D44719;}
	.st12{opacity:0.5;}
	.st13{fill:#D8D8D8;}
	.st14{fill:#FFFFFF;}
	.st15{fill:#DB9327;}
	.st16{fill:#EACD80;}
	.st17{fill:#70421E;}
	.st18{opacity:0.5;fill:#53300E;}
	.st19{fill:#E09422;}
	.st20{fill:#683C11;}
	.st21{fill:#F0A12B;}
	.st22{fill:#FFB342;}
	.st23{fill:#FFE08C;}
	.st24{fill:#AD7218;}
	.st25{fill:#E6332A;}
	.st26{fill:#FFE6A3;}
	.st27{fill:#FFA43F;}
	.st28{fill:#80A61B;}
	.st29{fill:#95C11F;}
	.st30{fill:#D99B2C;}
	.st31{fill:#F9B233;}
	.st32{fill:#FFBC45;}
	.st33{fill:#CE7C89;}
	.st34{opacity:0.1;fill:#1A1A18;}
	.st35{fill:#F392A2;}
	.st36{fill:#E3E3E3;}
	.st37{fill:#EBEBEB;}
	.st38{fill:#C7C7C7;}
	.st39{opacity:0.8;fill:#FFFFFF;}
</style>
<g id="Page-1">
	<g id="For-you-and-your-partner-Copy-4">
		<g id="Group-4">
			<circle id="Mask-Copy-2" class="st0" cx="150" cy="150" r="150"/>
		</g>
	</g>
</g>
<g>
	<path class="st1" d="M113.2,140.6c1.2,20.6,17.1,36.9,36.5,36.9s35.2-16.3,36.5-36.9H113.2z"/>
	<g>
		<path class="st2" d="M148.4,260.8c0.1,0.2,0,0.4-0.1,0.5c-0.1,0.2-0.2,0.3-0.4,0.3l-2.2,0.6c-0.6,0.2-1.3,0.3-2,0.3l-5.4,0.2
			c-0.1,0-0.3,0-0.4,0l-12.3,0.9c-1.5,0.1-3.1,0.1-4.6-0.2c-2.7-0.4-5.2-1-7.3-2c-0.3-0.1-0.5-0.5-0.4-0.8l0.3-1.4l34-1.2
			L148.4,260.8z"/>
		<g>
			<path class="st3" d="M122.6,253.6c3.4-1.1,8-0.2,11.3-4.1c1.3-1.3,3.8-7.5-0.9-7.2c-0.5,0,0,1.4-0.9,3c-2.9,5.1-7.7,6.7-11.4,7.9
				l0,0c0,0,0,0,0,0C121.2,253.7,121.9,253.8,122.6,253.6z"/>
			<path class="st4" d="M145.8,248.3c-5.7,4.2-9.3,0.6-11.6-0.9c-0.5-0.3-1.2-0.3-1.6,0.2c-3.2,3.4-6.8,4.9-10,5.9
				c-0.7,0.2-1.4,0.1-1.9-0.4c0,0,0,0,0,0c-2.7,0.9-5,1.5-6.2,2.7c-1,0.8-1.4,3.3-0.7,3.5c3.8,1.3,5.4,1.4,8.4,1.7
				c2.5,0.3,5,0.2,7.5-0.3l5.4-1.3c0.7-0.1,1.5-0.2,2.2-0.3l10.4-0.8C148.2,255.7,147.6,251.5,145.8,248.3z"/>
		</g>
		<path class="st3" d="M147,250.9c-1.8,0.7-1.8-0.8-4.4-0.9c0.3-0.5,1-0.6,1.3-1.9c0.3-1,0.5-2,1-2.3l0.2-0.1c0.2-0.1,0.4-0.1,0.6,0
			c0.2,0.1,0.3,0.3,0.3,0.5C146.1,247.4,146.5,249.4,147,250.9z"/>
		<path class="st2" d="M123.9,255L123.9,255c-0.3,0.2-0.7,0-0.9-0.3l-0.9-1.8c-0.2-0.3-0.1-0.7,0.2-0.9l0,0c0.3-0.1,0.7,0,0.8,0.3
			l0.9,1.8C124.4,254.5,124.2,254.8,123.9,255z"/>
		<path class="st2" d="M125.7,254.3L125.7,254.3c-0.3,0.2-0.7,0-0.9-0.3l-0.9-1.8c-0.2-0.3-0.1-0.7,0.2-0.9l0,0
			c0.3-0.2,0.7,0,0.8,0.3l0.9,1.8C126.1,253.7,126,254.1,125.7,254.3z"/>
		<path class="st2" d="M127.4,253.5L127.4,253.5c-0.3,0.2-0.7,0-0.9-0.3l-0.9-1.8c-0.2-0.3-0.1-0.7,0.2-0.9l0,0
			c0.3-0.1,0.7,0,0.8,0.3l0.9,1.8C127.8,253,127.7,253.4,127.4,253.5z"/>
		<path class="st2" d="M129.2,252.5L129.2,252.5c-0.3,0.2-0.7,0.1-0.9-0.3l-1.1-1.8c-0.2-0.3-0.1-0.7,0.1-0.9l0,0
			c0.3-0.2,0.7-0.1,0.9,0.3l1.1,1.8C129.5,251.9,129.5,252.3,129.2,252.5z"/>
		<path class="st2" d="M131,251.4L131,251.4c-0.3,0.2-0.7,0.2-0.9-0.2l-1.4-1.7c-0.3-0.3-0.2-0.7,0-0.9l0,0c0.3-0.2,0.7-0.1,0.9,0.2
			l1.4,1.7C131.2,250.7,131.2,251.1,131,251.4z"/>
		<path class="st2" d="M132.6,249.8L132.6,249.8c-0.3,0.2-0.7,0.2-0.9-0.1l-1.5-1.6c-0.3-0.3-0.3-0.7-0.1-0.9l0,0
			c0.2-0.2,0.7-0.2,0.9,0.1l1.5,1.6C132.8,249.1,132.9,249.6,132.6,249.8z"/>
	</g>
	<g>
		<path class="st2" d="M151.2,260.8c-0.1,0.2,0,0.4,0.1,0.5c0.1,0.2,0.2,0.3,0.4,0.3l2.2,0.6c0.6,0.2,1.3,0.3,2,0.3l5.4,0.2
			c0.1,0,0.3,0,0.4,0l12.3,0.9c1.5,0.1,3.1,0.1,4.6-0.2c2.7-0.4,5.2-1,7.3-2c0.3-0.1,0.5-0.5,0.4-0.8l-0.3-1.4l-34-1.2L151.2,260.8z
			"/>
		<g>
			<path class="st3" d="M177.1,253.6c-3.4-1.1-8-0.2-11.3-4.1c-1.3-1.3-3.8-7.5,0.9-7.2c0.5,0,0,1.4,0.9,3c2.9,5.1,7.7,6.7,11.4,7.9
				l0,0c0,0,0,0,0,0C178.5,253.7,177.7,253.8,177.1,253.6z"/>
			<path class="st4" d="M153.9,248.3c5.7,4.2,9.3,0.6,11.6-0.9c0.5-0.3,1.2-0.3,1.6,0.2c3.2,3.4,6.8,4.9,10,5.9
				c0.7,0.2,1.4,0.1,1.9-0.4c0,0,0,0,0,0c2.7,0.9,5,1.5,6.2,2.7c1,0.8,1.4,3.3,0.7,3.5c-3.8,1.3-5.4,1.4-8.4,1.7
				c-2.5,0.3-5,0.2-7.5-0.3l-5.4-1.3c-0.7-0.1-1.5-0.2-2.2-0.3l-10.4-0.8C151.5,255.7,152,251.5,153.9,248.3z"/>
		</g>
		<path class="st3" d="M152.7,250.9c1.8,0.7,1.8-0.8,4.4-0.9c-0.3-0.5-1-0.6-1.3-1.9c-0.3-1-0.5-2-1-2.3l-0.2-0.1
			c-0.2-0.1-0.4-0.1-0.6,0c-0.2,0.1-0.3,0.3-0.3,0.5C153.6,247.4,153.2,249.4,152.7,250.9z"/>
		<path class="st2" d="M175.7,255L175.7,255c0.3,0.2,0.7,0,0.9-0.3l0.9-1.8c0.2-0.3,0.1-0.7-0.2-0.9l0,0c-0.3-0.1-0.7,0-0.8,0.3
			l-0.9,1.8C175.3,254.5,175.4,254.8,175.7,255z"/>
		<path class="st2" d="M174,254.3L174,254.3c0.3,0.2,0.7,0,0.9-0.3l0.9-1.8c0.2-0.3,0.1-0.7-0.2-0.9l0,0c-0.3-0.2-0.7,0-0.8,0.3
			l-0.9,1.8C173.6,253.7,173.7,254.1,174,254.3z"/>
		<path class="st2" d="M172.3,253.5L172.3,253.5c0.3,0.2,0.7,0,0.9-0.3l0.9-1.8c0.2-0.3,0.1-0.7-0.2-0.9l0,0c-0.3-0.1-0.7,0-0.8,0.3
			l-0.9,1.8C171.9,253,172,253.4,172.3,253.5z"/>
		<path class="st2" d="M170.5,252.5L170.5,252.5c0.3,0.2,0.7,0.1,0.9-0.3l1.1-1.8c0.2-0.3,0.1-0.7-0.1-0.9l0,0
			c-0.3-0.2-0.7-0.1-0.9,0.3l-1.1,1.8C170.2,251.9,170.2,252.3,170.5,252.5z"/>
		<path class="st2" d="M168.7,251.4L168.7,251.4c0.3,0.2,0.7,0.2,0.9-0.2l1.4-1.7c0.3-0.3,0.3-0.7,0-0.9l0,0
			c-0.3-0.2-0.7-0.1-0.9,0.2l-1.4,1.7C168.4,250.7,168.4,251.1,168.7,251.4z"/>
		<path class="st2" d="M167.1,249.8L167.1,249.8c0.3,0.2,0.7,0.2,0.9-0.1l1.5-1.6c0.3-0.3,0.3-0.7,0.1-0.9l0,0
			c-0.2-0.2-0.7-0.2-0.9,0.1l-1.5,1.6C166.9,249.1,166.8,249.6,167.1,249.8z"/>
	</g>
	<path class="st1" d="M147.7,198.2c-1.9,13.5-22.8,12.4-21.7-2.4l-7.4-48l35.7,2.8L147.7,198.2z"/>
	<path class="st1" d="M147.9,255.6c-5.8-5.7-11.1-2-18.6-6.8l-2.9-52.3c-0.3-12.4,20-12.5,21.2,0.7L147.9,255.6z"/>
	<path class="st1" d="M151.5,198.2c1.9,13.5,22.8,12.4,21.7-2.4l7.4-48l-35.7,2.8L151.5,198.2z"/>
	<path class="st1" d="M151.8,255.6c6.7-3.8,9.7-4.3,18.9-4.9l2.5-53.5c-0.2-13.1-20.6-13.2-21.8,0L151.8,255.6z"/>
	<g>
		<path class="st5" d="M119.8,81l-8.4,15.9l-7.2,16.6l12.5,9L136,91.7c1.9-3.1,1.9-8.6-3.5-11.5C132.5,80.2,123.4,74.8,119.8,81z"/>
		<path class="st6" d="M136.7,91.5l-9.5,14.2l-15.8-8.7l7.9-16.6C126.9,67.5,145,78.4,136.7,91.5z"/>
		<polygon class="st7" points="113.1,93.8 111.3,96.9 127.2,105.7 129,102.6 		"/>
	</g>
	<g>
		<path class="st5" d="M179.4,81l8.4,15.9l7.2,16.6l-12.5,9l-19.3-30.9c-1.9-3.1-1.9-8.6,3.5-11.5C166.8,80.2,175.9,74.8,179.4,81z"
			/>
		<path class="st6" d="M162.5,91.5l9.5,14.2l15.8-8.7l-7.9-16.6C172.3,67.5,154.3,78.4,162.5,91.5z"/>
		<polygon class="st7" points="186.2,93.8 187.9,96.9 172,105.7 170.3,102.6 		"/>
	</g>
	<path class="st6" d="M142.1,68.2l-15.5,6.6c-3.8,1.3-0.2,15.5-0.2,19.7c-2.6,9.7-2.3,12.7-8.2,23.6c-3.3,6.1-5.7,15.5-5.1,19.9
		c0.1,0.9,0,1.7,0.1,2.6c6.2,8.3,21.3,12.3,36.4,12.2c15.1,0.1,30.2-3.9,36.4-12.2c0.1-0.9,0-1.7,0.1-2.6c0.6-4.4-1.8-13.8-5.1-19.9
		c-5.9-10.9-5.6-13.9-8.2-23.6c0-4.2,3.6-18.4-0.2-19.7l-15.5-6.6H142.1z"/>
	<path class="st8" d="M149.6,85.9l-1.6-9.6c-3.7-0.6-6.9-3.4-9.6-6.6l0.6-6.9l10.5,0.3l10.5-0.3l0.6,6.9c-2.7,3.2-5.9,5.9-9.6,6.6
		L149.6,85.9z"/>
	<path class="st5" d="M112,107.4l30.6,8.1l-0.6,9.5l-32.1-1.3c-3.7-0.9-6.3-5.2-5.7-9.7l0-0.2C104.8,109.3,108.3,106.5,112,107.4z"
		/>
	<g>
		<path class="st8" d="M141.6,117.6c0.1-0.6,0.1-1.1,0.2-1.7c2.2-1.4,4.9-3.8,6-5.2c0.5-0.6,1.4-1.4,2.3-0.7c0,0,0,0,0,0
			c1.2,0.7,0.2,2.4-0.3,3.1c-1,1.5-5.5,5.6-8.3,7.5C141.5,119.6,141.5,118.6,141.6,117.6z"/>
		<path class="st8" d="M149.7,116.2L149.7,116.2c0-0.8,0.7-1.5,1.5-1.6l8.6-0.3c0.8,0,1.4,0.6,1.4,1.4l0,0c0,0.8-0.7,1.5-1.5,1.5
			l-8.6,0.3C150.3,117.7,149.6,117,149.7,116.2z"/>
		<path class="st8" d="M148.9,118.8L148.9,118.8c0.1-0.8,0.9-1.4,1.7-1.3l10,1.3c0.8,0.1,1.3,0.8,1.2,1.6l0,0
			c-0.1,0.8-0.9,1.4-1.7,1.3l-10-1.3C149.3,120.3,148.8,119.6,148.9,118.8z"/>
		<path class="st8" d="M148.6,121.4L148.6,121.4c0.2-0.8,1-1.3,1.8-1.1l8.9,2c0.8,0.2,1.2,1,1,1.8l0,0c-0.2,0.8-1,1.3-1.8,1.1
			l-8.9-2C148.8,123,148.3,122.2,148.6,121.4z"/>
		<path class="st8" d="M148.2,124L148.2,124c0.3-0.7,1-1.1,1.7-0.8l6.9,2.4c0.6,0.2,1,1,0.7,1.7l0,0c-0.3,0.7-1,1.1-1.7,0.8
			l-6.9-2.4C148.3,125.4,148,124.6,148.2,124z"/>
		<path class="st5" d="M151.9,114.6l-2.9,0.1l0,0l-3.4,0.1c-2.3,0.1-5.3,1.2-5.4,3.5l-0.4,2c-0.5,9.3,11,5.8,11,5.8
			c0.7,0,1.3-0.6,1.3-1.4l0,0c0-0.7-0.5-1.3-1.2-1.3l0.5,0c0.8,0,1.5-0.7,1.5-1.5l0,0c0-0.8-0.6-1.5-1.4-1.4l0.4,0
			c0.8,0,1.5-0.7,1.5-1.5l0,0c0-0.8-0.6-1.5-1.4-1.4c0.8,0,1.5-0.7,1.5-1.5l0,0C153.4,115.2,152.7,114.6,151.9,114.6z"/>
	</g>
	<path class="st5" d="M184.3,109.3l-23.8,20.9l4.8,8.2l28.1-15.6c2.9-2.5,3.3-7.5,0.8-11.2l-0.1-0.1
		C191.6,107.9,187.2,106.9,184.3,109.3z"/>
	<g>
		<path class="st8" d="M162.4,131.7c-0.3-0.5-0.6-0.9-0.9-1.4c-2.6-0.2-6.1-1.2-7.7-2c-0.7-0.4-1.9-0.6-2.3,0.4c0,0,0,0,0,0
			c-0.8,1.2,0.9,2.2,1.6,2.7c1.5,0.9,7.4,2.6,10.8,3C163.4,133.5,162.9,132.6,162.4,131.7z"/>
		<path class="st8" d="M154.6,134.1L154.6,134.1c-0.4-0.7-1.3-1.1-2-0.7l-7.8,3.5c-0.7,0.3-1,1.2-0.6,1.9l0,0c0.4,0.7,1.3,1,2,0.7
			l7.8-3.5C154.7,135.6,155,134.8,154.6,134.1z"/>
		<path class="st8" d="M156.4,136L156.4,136c-0.5-0.7-1.4-0.9-2.1-0.4l-8.4,5.6c-0.7,0.4-0.8,1.3-0.3,2l0,0c0.5,0.7,1.4,0.8,2.1,0.4
			l8.4-5.6C156.7,137.6,156.9,136.7,156.4,136z"/>
		<path class="st8" d="M157.9,138.2L157.9,138.2c-0.6-0.6-1.5-0.7-2.1-0.2l-7.1,5.8c-0.6,0.5-0.6,1.4-0.1,2l0,0
			c0.6,0.6,1.5,0.7,2.1,0.2l7.1-5.8C158.4,139.7,158.4,138.8,157.9,138.2z"/>
		<path class="st8" d="M159.3,140.4L159.3,140.4c-0.6-0.5-1.4-0.5-1.9,0l-5.1,5.2c-0.5,0.5-0.4,1.3,0.1,1.8l0,0
			c0.5,0.5,1.4,0.5,1.9,0l5.1-5.2C159.9,141.7,159.9,140.9,159.3,140.4z"/>
		<path class="st5" d="M151.8,133.7l2.7-1.2l0,0l3.1-1.4c2.1-1,5.3-1.3,6.4,0.8l1.3,1.6c4.6,8.1-7.2,10.1-7.2,10.1
			c-0.6,0.3-1.4,0-1.8-0.6l0,0c-0.3-0.6-0.1-1.4,0.5-1.7l-0.4,0.2c-0.7,0.3-1.6,0-2-0.7l0,0c-0.4-0.7-0.1-1.6,0.6-1.9l-0.4,0.2
			c-0.7,0.3-1.6,0-2-0.7l0,0c-0.4-0.7-0.1-1.6,0.6-1.9c-0.7,0.3-1.6,0-2-0.7l0,0C150.8,134.9,151.1,134,151.8,133.7z"/>
	</g>
	<path class="st9" d="M132,164.7l15.9,10.4l1.7,9.3l2.4-9.1l16.4-10.8C156.2,170.8,144,171.2,132,164.7z"/>
	<path class="st3" d="M144.7,80.5c-4.2-2.2-7.4-5.3-8.9-9.6l2.8-2.9c2,3.7,5.3,6.4,9.4,8.4L144.7,80.5z"/>
	<path class="st3" d="M154.5,80.5c4.2-2.2,7.3-5.3,8.9-9.6l-2.8-2.9c-2,3.7-5.3,6.4-9.4,8.4L154.5,80.5z"/>
	<g>
		<path class="st5" d="M163.8,49c-0.3,0-0.5,0-0.8,0.1V43c0-5-4-9-9-9h-8.6c-5,0-9,4-9,9v6.1c-0.3-0.1-0.5-0.1-0.8-0.1
			c-1.3,0.2-1.6,2.4-1.2,4.8c0.6,3.6,2.7,3.9,2.8,3.9c-2.6,14,12.5,13.2,12.5,13.2c0,0,0,0,0,0c0,0,0,0,0,0
			c14.5,0.3,13.5-10.9,12.3-14.3c0.5,0.6,2.6,0.4,2.9-2.7C165.3,51.3,165.2,49.2,163.8,49z"/>
		<path class="st10" d="M149.7,31.5C149.7,31.5,149.7,31.5,149.7,31.5c-5.8,0-8.7,1-11.6,4.1c-2,2.1-3.1,4.9-3,7.8l0.4,5.6
			c0.7-0.1,1.5,0.4,2.1,1.2v-6.5c0-2.8,2.3-5.1,5.1-5.1h13.8c2.8,0,5.1,2.3,5.1,5.1v6.5c0.6-0.9,1.3-1.3,2.1-1.2l0.4-5.6
			c0.1-2.9-1-5.7-3-7.8C158.4,32.5,155.5,31.5,149.7,31.5C149.7,31.5,149.7,31.5,149.7,31.5z"/>
	</g>
</g>
<g>
	<g>
		<path class="st11" d="M88.3,191.4c0,1.7-1.4,3.1-3.1,3.1s-3.1-1.4-3.1-3.1s1.4-3.1,3.1-3.1S88.3,189.7,88.3,191.4z"/>
		<g class="st12">
			<g>
				<path class="st13" d="M83.7,190.8c0.2-0.6,0.6-1.1,1-1.5c0.2-0.2,0-0.6-0.3-0.5c-0.7,0.3-1.3,0.8-1.7,1.6
					c-0.3,0.8-0.2,1.6,0.1,2.3c0.1,0.3,0.6,0.2,0.5-0.2C83.4,192.1,83.5,191.4,83.7,190.8z"/>
			</g>
			<g>
				<path class="st14" d="M83.7,190.8c0.2-0.6,0.6-1.1,1-1.5c0.2-0.2,0-0.6-0.3-0.5c-0.7,0.3-1.3,0.8-1.7,1.6
					c-0.3,0.8-0.2,1.6,0.1,2.3c0.1,0.3,0.6,0.2,0.5-0.2C83.4,192.1,83.5,191.4,83.7,190.8z"/>
			</g>
		</g>
		<polygon class="st15" points="105.4,195 67.3,195 67.3,201 105.4,200.8 		"/>
		<polygon class="st16" points="105.4,200.8 67.3,201 67.3,202.6 105.4,203 		"/>
		<polygon class="st15" points="105.4,203 105.4,208.2 90.7,208.5 86.6,208.6 83.2,208.7 67.3,209.1 67.3,202.6 68.8,202.6 
			82.8,202.8 86.3,202.8 90.7,202.9 102,203 		"/>
		<polygon class="st16" points="105.4,208.2 105.4,210.4 90.7,210.8 67.3,211.4 67.3,209.1 83.2,208.7 86.6,208.6 90.7,208.5 		"/>
		<polygon class="st15" points="105.4,210.4 105.4,216.6 67.3,216.6 67.3,211.4 90.7,210.8 		"/>
		<path class="st17" d="M106,197.1c0,1.9,0,3.8,0,5.7c0,0.8-0.1,1.7-0.5,2.3c-0.1,0.1-0.2,0.3-0.4,0.4c-0.9,0.5-2.1,0-2.6-0.9
			c-0.3-0.5-0.4-1-0.5-1.5c-0.1-0.5-0.1-1-0.1-1.4c0-0.3,0-0.5,0-0.8c0-0.8-0.2-1.5-0.6-2.2c-0.5-0.9-1.8-1.4-2.6-0.8
			c-0.6,0.4-0.8,1.1-1,1.8c-0.1,0.4-0.4,0.9-0.7,1.2c-0.2,0.1-0.3,0.2-0.6,0.3c-0.4,0.1-0.7-0.1-1.1-0.3c-0.7-0.4-1.4-1.2-2.2-1
			c-0.5,0.1-0.9,0.6-1.2,1.1c-0.1,0.1-0.1,0.2-0.2,0.3c-0.3,0.4-0.7,0.9-1.2,1c-0.1,0-0.3,0-0.4,0c-0.5-0.2-0.7-0.7-0.8-1.2
			c-0.1-0.6-0.2-1.2-0.6-1.5c-0.6-0.6-1.7-0.2-2.2,0.6c-0.2,0.3-0.3,0.6-0.3,1c-0.1,0.5,0,1,0,1.5c0,0.1,0,0.3,0,0.4
			c0.1,1.6,0.2,3.3,0.3,4.9c0,0.3,0,0.6,0,0.9c0,0.3,0,0.6-0.1,0.9c-0.2,0.6-0.6,1.1-1.2,1.3c-0.7,0.1-1.4-0.4-1.8-1
			c-0.2-0.3-0.3-0.7-0.3-1.1c-0.1-0.3-0.1-0.7-0.1-1.1c-0.1-1.6-0.2-3.2-0.3-4.9c0,0,0-0.1,0-0.1c0-0.6-0.1-1.2-0.3-1.8
			c-0.1-0.2-0.2-0.4-0.3-0.6c-0.4-0.7-1.4-1.1-2.1-0.7c-0.4,0.3-0.7,0.8-0.8,1.3c0,0.1-0.1,0.3-0.1,0.4c-0.2,0.6-0.6,1.3-1.3,1.4
			c-0.6,0-1.2-0.6-1.3-1.2c0-0.2-0.1-0.4-0.1-0.6c-0.1-0.4-0.1-0.9-0.2-1.3c-0.2-0.6-0.7-1.2-1.3-1.2c-0.9,0.1-1.3,1.3-2.2,1.3
			c-1.2,0-1.4-2.1-2.6-2.2c-0.8-0.1-1.4,0.9-1.4,1.7c0,0.6,0.2,1.2,0.3,1.8c0,0.2,0,0.5,0,0.7c0,0.3-0.1,0.6-0.3,0.9
			c-0.3,0.5-0.8,0.7-1.3,0.6c-0.1,0-0.1-0.1-0.2-0.1c-0.6-0.3-0.6-1.2-0.6-1.9c0-1.3,0-2.6,0-4c0-0.9,0-1.9,0.6-2.6
			c0.8-1.2,2.6-1.4,4.1-1.4c6.4,0,12.9,0,19.3,0c3.7,0,7.4,0,11.1,0c1.3,0,2.9,0.1,3.7,1.2C106,195.1,106,196.2,106,197.1z"/>
		<path class="st18" d="M106,197.1c0,1.9,0,3.8,0,5.7c0,0.8-0.1,1.7-0.5,2.3v11.6H90.7v-23.4c3.7,0,7.4,0,11.1,0
			c1.3,0,2.9,0.1,3.7,1.2C106,195.1,106,196.2,106,197.1z"/>
	</g>
	<g>
		<path class="st19" d="M75.8,226.8H44.1c-0.5,0-1-0.4-1-1v-3.1c0-0.5,0.4-1,1-1h31.7c0.5,0,1,0.4,1,1v3.1
			C76.7,226.4,76.3,226.8,75.8,226.8z"/>
		<path class="st20" d="M73.5,215.3H46.4c-1,0-1.8-0.8-1.8-1.8v0c0-1,0.8-1.8,1.8-1.8h27.2c1,0,1.8,0.8,1.8,1.8v0
			C75.3,214.5,74.5,215.3,73.5,215.3z"/>
		<path class="st21" d="M76.7,215.7v2.1c0,0.5-0.4,1-1,1H44.1c-0.5,0-1-0.4-1-1v-2.1c0-0.5,0.4-1,1-1h31.7
			C76.3,214.8,76.7,215.2,76.7,215.7z"/>
		<path class="st22" d="M75.8,212.1H44.1c-0.9,0-1.5-0.9-1.2-1.7c0.4-1.2,1.4-2.4,2.8-3.4c3.1-2.3,8.4-3.8,14.4-3.8
			c5.7,0,10.7,1.3,13.9,3.4c1.6,1.1,2.8,2.3,3.3,3.7C77.3,211.2,76.7,212.1,75.8,212.1z"/>
		<path class="st23" d="M73.8,206.6c-1,0.8-2.2,1.6-3.4,1.3c-1.1-0.3-2.1-1.4-3.3-1.3c-1.1,0.1-1.7,1.4-2.7,1.9
			c-1,0.5-2.1,0.3-3.2-0.1c-1-0.3-2.1-0.8-3.1-0.8c-1,0-1.8,0.5-2.7,0.8c-0.9,0.3-1.9,0.6-2.8,0.3c-0.9-0.3-1.6-1.4-1.1-2.2
			c-1.2,0.3-2.4,0.7-3.6,1c-0.7,0.2-1.5,0.4-2-0.1c-0.2-0.2-0.2-0.3-0.3-0.5c3.1-2.3,8.4-3.8,14.4-3.8
			C65.6,203.2,70.6,204.5,73.8,206.6z"/>
		<g>
			<path class="st24" d="M57.3,204.1c0.1,0,0.2,0.1,0.4,0.1c0,0.1,0.1,0.2,0.1,0.3c0.3-0.1,0.6,0,0.8,0.2c0-0.1,0.1-0.2,0.1-0.2
				c0.1,0.1,0.2,0.1,0.3,0c0.1-0.1,0-0.3,0-0.4c-0.1-0.1-0.2-0.2-0.3-0.2c-0.1-0.2-0.2-0.4-0.4-0.4c-0.1,0-0.2,0.1-0.3,0.1
				C57.7,203.8,57.5,204,57.3,204.1z"/>
		</g>
		<g>
			<path class="st24" d="M60.3,203.5c0.1,0.1,0.1,0.2,0.2,0.3c0,0.1-0.1,0.2-0.1,0.3c0.2,0.1,0.4,0.4,0.4,0.6c0.1,0,0.2-0.1,0.2-0.1
				c0,0.1,0.1,0.2,0.2,0.2c0.1,0,0.2-0.1,0.2-0.3c0-0.1,0-0.2-0.1-0.4c0-0.2,0.1-0.4-0.1-0.5c-0.1-0.1-0.2-0.1-0.3-0.1
				C60.7,203.5,60.5,203.5,60.3,203.5z"/>
		</g>
		<g>
			<path class="st24" d="M59.9,202.6c-0.1,0.1-0.1,0.2-0.2,0.2c-0.1,0-0.2,0-0.3,0c0,0.2-0.1,0.4-0.3,0.5c0,0,0.1,0.1,0.1,0.1
				c-0.1,0-0.1,0.2-0.1,0.2c0.1,0.1,0.2,0.1,0.3,0c0.1,0,0.2-0.1,0.2-0.2c0.2,0,0.3-0.1,0.4-0.3c0-0.1,0-0.2,0-0.3
				C60.1,202.9,60,202.7,59.9,202.6z"/>
		</g>
		<g>
			<path class="st24" d="M55.9,203.6c-0.1,0-0.3,0-0.4,0c-0.1-0.1-0.1-0.2-0.2-0.3c-0.2,0.2-0.5,0.2-0.8,0.1c0,0.1,0,0.2,0,0.3
				c-0.1-0.1-0.3,0-0.3,0.1c0,0.1,0,0.3,0.2,0.3s0.2,0.1,0.4,0.1c0.2,0.1,0.4,0.3,0.5,0.2c0.1,0,0.2-0.1,0.3-0.2
				C55.6,204,55.8,203.8,55.9,203.6z"/>
		</g>
		<g>
			<path class="st24" d="M56.1,202.9c0.1,0.1,0.1,0.1,0.2,0.2c0,0.1,0,0.2,0,0.3c0.2,0,0.4,0.2,0.4,0.4c0.1,0,0.1-0.1,0.2-0.1
				c0,0.1,0.1,0.1,0.2,0.1c0.1,0,0.1-0.2,0.1-0.2c0-0.1-0.1-0.2-0.1-0.2c0-0.1,0-0.3-0.2-0.4c-0.1,0-0.2,0-0.2,0
				C56.4,202.9,56.2,202.9,56.1,202.9z"/>
		</g>
		<g>
			<path class="st24" d="M55.7,205.1c0.1,0.1,0.2,0.2,0.2,0.3c0,0.1-0.1,0.2-0.1,0.3c0.3,0.1,0.5,0.3,0.5,0.5c0.1,0,0.1-0.1,0.2-0.1
				c0,0.1,0.1,0.2,0.3,0.2c0.1,0,0.2-0.2,0.2-0.3c0-0.1-0.1-0.2-0.1-0.3c0-0.2,0-0.4-0.2-0.5c-0.1-0.1-0.2-0.1-0.3-0.1
				C56.1,205,55.9,205,55.7,205.1z"/>
		</g>
		<g>
			<path class="st24" d="M61.4,205.5c0,0.1,0,0.2-0.1,0.2c-0.1,0-0.2,0.1-0.2,0.1c0.1,0.2,0,0.4-0.1,0.5c0.1,0,0.1,0.1,0.2,0.1
				c-0.1,0-0.1,0.2,0,0.2c0.1,0,0.2,0,0.2,0c0.1-0.1,0.1-0.1,0.1-0.2c0.1-0.1,0.2-0.2,0.2-0.3c0-0.1,0-0.1-0.1-0.2
				C61.6,205.8,61.6,205.6,61.4,205.5z"/>
		</g>
		<g>
			<path class="st24" d="M59.4,205.2c0,0.1,0,0.2,0,0.3c-0.1,0.1-0.2,0.1-0.3,0.2c0.1,0.2,0.1,0.5,0,0.7c0.1,0,0.1,0,0.2,0.1
				c-0.1,0.1,0,0.2,0.1,0.3c0.1,0,0.2,0,0.3-0.1c0.1-0.1,0.1-0.2,0.1-0.3c0.1-0.1,0.3-0.3,0.2-0.4c0-0.1-0.1-0.2-0.1-0.2
				C59.7,205.5,59.6,205.3,59.4,205.2z"/>
		</g>
		<g>
			<path class="st24" d="M63.1,205.2c0.1,0,0.2,0,0.3,0c0,0.1,0.1,0.2,0.1,0.3c0.2-0.1,0.4-0.1,0.6,0c0-0.1,0-0.1,0.1-0.2
				c0.1,0.1,0.2,0.1,0.2,0c0-0.1,0-0.2-0.1-0.3c-0.1-0.1-0.2-0.1-0.3-0.1c-0.1-0.1-0.2-0.3-0.4-0.2c-0.1,0-0.2,0.1-0.2,0.1
				C63.3,204.9,63.2,205.1,63.1,205.2z"/>
		</g>
		<g>
			<path class="st24" d="M61.9,203.9c0.1,0,0.2,0,0.4,0.1c0.1,0.1,0.1,0.2,0.2,0.3c0.2-0.1,0.6-0.1,0.8,0.1c0-0.1,0.1-0.2,0.1-0.2
				c0.1,0.1,0.3,0.1,0.3-0.1c0.1-0.1,0-0.3-0.1-0.3c-0.1-0.1-0.2-0.1-0.3-0.2c-0.1-0.2-0.3-0.3-0.5-0.3c-0.1,0-0.2,0.1-0.3,0.2
				C62.2,203.6,62,203.7,61.9,203.9z"/>
		</g>
		<g>
			<path class="st24" d="M64.7,202.5c0,0.1,0,0.3,0,0.4c-0.1,0.1-0.2,0.1-0.4,0.2c0.2,0.3,0.2,0.6,0,0.9c0.1,0,0.2,0.1,0.3,0.1
				c-0.1,0.1-0.1,0.3,0.1,0.3c0.1,0.1,0.3,0,0.4-0.1c0.1-0.1,0.1-0.3,0.2-0.4c0.2-0.2,0.3-0.3,0.3-0.6c0-0.1-0.1-0.2-0.2-0.3
				C65.2,202.8,65,202.6,64.7,202.5z"/>
		</g>
		<g>
			<path class="st24" d="M65.9,204.9c0.1,0.1,0.2,0.1,0.3,0.2c0,0.1,0,0.2,0,0.4c0.3,0,0.5,0.1,0.7,0.4c0.1-0.1,0.1-0.1,0.2-0.2
				c0,0.1,0.2,0.2,0.3,0.1c0.1-0.1,0.1-0.2,0.1-0.3c0-0.1-0.1-0.2-0.2-0.3c0-0.2-0.1-0.4-0.3-0.5c-0.1,0-0.2,0-0.3,0
				C66.4,204.7,66.1,204.7,65.9,204.9z"/>
		</g>
		<g>
			<path class="st24" d="M68,203.3c-0.1,0.1-0.1,0.2-0.2,0.3c-0.1,0-0.2,0-0.3,0c0,0.2-0.1,0.5-0.3,0.6c0.1,0.1,0.1,0.1,0.2,0.2
				c-0.1,0-0.1,0.2-0.1,0.3c0.1,0.1,0.2,0.1,0.3,0.1c0.1,0,0.2-0.1,0.3-0.2c0.2,0,0.4-0.1,0.4-0.3c0-0.1,0-0.2,0-0.3
				C68.2,203.7,68.1,203.5,68,203.3z"/>
		</g>
		<g>
			<path class="st24" d="M52.5,204.2c0,0.1,0.1,0.1,0.1,0.2c0,0.1-0.1,0.1-0.1,0.2c0.1,0.1,0.2,0.3,0.2,0.4c0.1,0,0.1,0,0.2,0
				c0,0.1,0,0.2,0.1,0.1c0.1,0,0.1-0.1,0.1-0.2c0-0.1,0-0.2,0-0.2c0-0.1,0.1-0.3,0-0.3c0-0.1-0.1-0.1-0.2-0.1
				C52.7,204.2,52.6,204.2,52.5,204.2z"/>
		</g>
		<g>
			<path class="st24" d="M52.9,203.4c0,0.1,0.1,0.1,0.1,0.2c0,0.1-0.1,0.1-0.1,0.2c0.2,0.1,0.3,0.2,0.3,0.4c0.1,0,0.1,0,0.2-0.1
				c0,0.1,0.1,0.2,0.2,0.1c0.1,0,0.1-0.1,0.1-0.2c0-0.1,0-0.2-0.1-0.2c0-0.1,0-0.3-0.1-0.4c-0.1,0-0.1-0.1-0.2-0.1
				C53.2,203.4,53,203.3,52.9,203.4z"/>
		</g>
		<g>
			<path class="st24" d="M55.2,205.3c-0.1,0-0.2,0.1-0.4,0.1c-0.1-0.1-0.2-0.2-0.3-0.2c-0.2,0.2-0.5,0.3-0.7,0.3c0,0.1,0,0.2,0,0.3
				c-0.1-0.1-0.3,0.1-0.3,0.2c0,0.1,0.1,0.2,0.2,0.3c0.1,0,0.3,0,0.4,0c0.2,0.1,0.4,0.2,0.6,0.1c0.1-0.1,0.1-0.2,0.2-0.3
				C55,205.7,55.1,205.5,55.2,205.3z"/>
		</g>
		<path class="st25" d="M74.5,221.8H45.4c-0.4,0-0.8-0.3-0.8-0.8v0c0-0.4,0.3-0.8,0.8-0.8h29.1c0.4,0,0.8,0.3,0.8,0.8v0
			C75.3,221.5,74.9,221.8,74.5,221.8z"/>
		<path class="st26" d="M74.3,220.2c-4.8,0.4-9.2,1.8-12.9,4.6c-0.9,0.6-2,0.6-2.9,0c-3.7-2.5-7.9-4-12.7-4.6
			c-0.4,0-0.7-0.3-0.7-0.7v0c0-0.4,0.3-0.7,0.7-0.7h28.5c0.4,0,0.7,0.3,0.7,0.7v0C75,219.9,74.6,220.2,74.3,220.2z"/>
		<g>
			<path class="st27" d="M59,223.4c-0.5,0-0.8-0.4-0.8-0.8s0.4-0.8,0.8-0.8c0.5,0,0.8,0.4,0.8,0.8c0,0.1,0,0.2,0,0.2
				c0.1-0.1,0.1-0.3,0.1-0.4c0-0.6-0.5-1.1-1.1-1.1c-0.6,0-1.1,0.5-1.1,1.1c0,0.6,0.5,1.1,1.1,1.1c0.1,0,0.2,0,0.3-0.1
				C59.1,223.4,59.1,223.4,59,223.4z"/>
		</g>
		<g>
			<path class="st27" d="M63.8,219.2c0.6,0,1,0.5,1,1c0,0.6-0.5,1-1,1c-0.6,0-1-0.5-1-1c0-0.1,0-0.2,0-0.3c-0.1,0.2-0.1,0.3-0.1,0.5
				c0,0.7,0.6,1.3,1.3,1.3c0.7,0,1.3-0.6,1.3-1.3c0-0.7-0.6-1.3-1.3-1.3c-0.1,0-0.3,0-0.4,0.1C63.7,219.3,63.7,219.2,63.8,219.2z"/>
		</g>
		<g>
			<path class="st27" d="M53.5,221.2c-0.4,0-0.8-0.4-0.8-0.8c0-0.4,0.4-0.8,0.8-0.8c0.4,0,0.8,0.4,0.8,0.8c0,0.1,0,0.1,0,0.2
				c0.1-0.1,0.1-0.3,0.1-0.4c0-0.6-0.5-1-1-1s-1,0.5-1,1c0,0.6,0.5,1,1,1c0.1,0,0.2,0,0.3-0.1C53.6,221.2,53.5,221.2,53.5,221.2z"/>
		</g>
		<g>
			<path class="st27" d="M70.3,219.6c0,0.3-0.3,0.6-0.6,0.6c-0.3,0-0.6-0.3-0.6-0.6c0-0.3,0.3-0.6,0.6-0.6c0.1,0,0.1,0,0.2,0
				c-0.1,0-0.2-0.1-0.3-0.1c-0.4,0-0.7,0.3-0.7,0.7c0,0.4,0.3,0.7,0.7,0.7c0.4,0,0.7-0.3,0.7-0.7C70.3,219.6,70.3,219.6,70.3,219.6
				C70.3,219.5,70.3,219.5,70.3,219.6z"/>
		</g>
		<g>
			<path class="st28" d="M57.9,214.8c0,0.4-0.1,0.9-0.4,1.2c-0.3,0.4-0.6,0.7-1,1c-0.1,0.1-0.3,0.2-0.4,0.3c-1,0.7-1.9,1.3-2.9,2
				c-0.4,0.3-0.8,0.6-1.2,0.9c0.2-0.3,0.3-0.6,0.5-0.9c0.2-0.3,0.3-0.6,0.5-0.9c-1,0.3-2.1,0.6-3.1,0.9c-0.9,0.2-1.7,0.5-2.6,0.7
				c0.2-0.2,0.5-0.5,0.7-0.7c0.7-0.7,1.3-1.4,2-2.1c-1.6,0.1-3.2,0.1-4.8,0.2c1.7-0.8,3.5-1.6,5.2-2.3c-0.2-0.1-0.3-0.1-0.5-0.2
				H57.9z"/>
			<path class="st29" d="M62.9,215.4c0.5,0.9,1,1.8,1.5,2.7c-0.3,0-0.6-0.1-0.9-0.2c-0.4-0.1-0.8-0.1-1.2-0.2c0,0.5,0,1,0,1.5
				c0,1.2,0,2.4,0,3.5c-0.6-1.2-1.2-2.4-1.9-3.5c-0.2-0.4-0.4-0.7-0.6-1.1c-0.1,0.4-0.3,0.7-0.4,1.1c-0.3,0.6-0.5,1.3-0.8,1.9
				c-0.1-0.6-0.2-1.3-0.3-1.9c-0.1-0.7-0.3-1.5-0.4-2.2c-0.6,0.5-1.1,1-1.7,1.5c0.1-0.5,0.1-1,0.2-1.6c0.1-0.8,0.3-1.5,0.6-2.2h7.3
				c0.2,0.2,0.4,0.4,0.6,0.6C64.3,215.4,63.6,215.4,62.9,215.4z"/>
			<path class="st28" d="M72.3,222.2c-1.6-0.9-3.2-1.9-4.9-2.8c0.2,1,0.5,1.9,0.7,2.9c-1-1-2-2-3-3.1c-0.2-0.2-0.5-0.5-0.7-0.7
				c0,0.2,0,0.5,0,0.7c0,0.4,0,0.9,0,1.3c-0.2-0.4-0.3-0.9-0.5-1.3c-0.2-0.4-0.3-0.9-0.5-1.3c-0.2-0.6-0.5-1.2-0.7-1.8
				c-0.2-0.4-0.3-0.9-0.4-1.3h7.2c0.3,0.1,0.6,0.2,1,0.3c-0.6,0.1-1.3,0.2-1.9,0.2c1.5,1.2,3,2.4,4.5,3.6c-1.3-0.2-2.5-0.3-3.8-0.5
				c0.2,0.3,0.4,0.5,0.6,0.8C70.8,220.2,71.6,221.2,72.3,222.2z"/>
		</g>
	</g>
</g>
<g>
	<g>
		<polygon class="st30" points="237.8,63.8 235.9,64.4 237.7,48.5 239.5,47.5 		"/>
		<polygon class="st31" points="235.9,64.4 232.7,63.1 234.8,46.5 237.7,48.5 		"/>
		<polygon class="st32" points="237.7,46.3 234.8,46.5 237.7,48.5 239.5,47.5 		"/>
	</g>
	<g>
		<polygon class="st30" points="242.3,69.3 240.3,69.4 245.9,54.4 247.9,53.9 		"/>
		<polygon class="st31" points="240.3,69.4 237.6,67.5 243.6,51.8 245.9,54.4 		"/>
		<polygon class="st32" points="246.5,52.3 243.6,51.8 245.9,54.4 247.9,53.9 		"/>
	</g>
	<g>
		<polygon class="st30" points="238.5,68.9 236.6,69.1 242.4,52.5 243.6,53.3 		"/>
		<polygon class="st31" points="236.6,69.1 234.7,68.4 239.3,51.4 242.4,52.5 		"/>
	</g>
	<g>
		<polygon class="st30" points="235.8,70.4 233.9,71 236.1,55.1 237.9,54.1 		"/>
		<polygon class="st31" points="233.9,71 230.8,69.6 233.3,53 236.1,55.1 		"/>
		<polygon class="st32" points="236.2,52.9 233.3,53 236.1,55.1 237.9,54.1 		"/>
	</g>
	<g>
		<polygon class="st30" points="232.6,65 230.8,65.6 231.8,49.6 233.1,50.1 		"/>
		<polygon class="st31" points="230.8,65.6 228.8,65.5 228.4,49.4 231.8,49.6 		"/>
	</g>
	<g>
		<polygon class="st30" points="226.2,63 224.4,63.8 224.4,47.8 226.1,46.6 		"/>
		<polygon class="st31" points="224.4,63.8 221.1,63 221.3,46.1 224.4,47.8 		"/>
		<polygon class="st32" points="224.2,45.6 221.3,46.1 224.4,47.8 226.1,46.6 		"/>
	</g>
	<g>
		<polygon class="st30" points="221.5,63.9 219.7,64.7 219.5,47.1 220.9,47.5 		"/>
		<polygon class="st31" points="219.7,64.7 217.8,64.7 216.1,47.1 219.5,47.1 		"/>
	</g>
	<g>
		<polygon class="st30" points="228.2,64.2 226.3,64.8 227.4,47.8 229.7,48.8 		"/>
		<polygon class="st31" points="226.3,64.8 224.3,64.4 225.5,48.3 227.4,47.8 		"/>
	</g>
	<g>
		<polygon class="st30" points="231.9,67.9 230.4,68.9 234.4,54 236.3,53.3 		"/>
		<polygon class="st31" points="230.4,68.9 228,68.2 232.2,52.9 234.4,54 		"/>
		<polygon class="st32" points="234.7,51.8 232.2,52.9 234.4,54 236.3,53.3 		"/>
	</g>
	<g>
		<polygon class="st30" points="220.5,66.4 218.9,67.5 215.5,51.9 216.8,50.4 		"/>
		<polygon class="st31" points="218.9,67.5 215.5,67.4 212.1,50.9 215.5,51.9 		"/>
		<polygon class="st32" points="214.8,49.8 212.1,50.9 215.5,51.9 216.8,50.4 		"/>
	</g>
	<g>
		<polygon class="st30" points="216.7,69.7 215,70.8 212,53.5 213.4,53.6 		"/>
		<polygon class="st31" points="215,70.8 213.1,71.1 208.7,54 212,53.5 		"/>
	</g>
	<g>
		<polygon class="st30" points="221.9,68.5 219.9,69 221,52.1 223.4,53.1 		"/>
		<polygon class="st31" points="219.9,69 218,68.7 219.2,52.6 221,52.1 		"/>
	</g>
	<g>
		<polygon class="st30" points="225.7,71.5 224.5,72.9 224.1,57.5 225.7,56.3 		"/>
		<polygon class="st31" points="224.5,72.9 222.1,72.9 221.7,57.1 224.1,57.5 		"/>
		<polygon class="st32" points="223.8,55.3 221.7,57.1 224.1,57.5 225.7,56.3 		"/>
	</g>
	<g>
		<polygon class="st30" points="230.3,69.6 229.2,71.1 228.7,55.6 230.3,54.4 		"/>
		<polygon class="st31" points="229.2,71.1 226.7,71.1 226.3,55.2 228.7,55.6 		"/>
		<polygon class="st32" points="228.4,53.5 226.3,55.2 228.7,55.6 230.3,54.4 		"/>
	</g>
	<g>
		<polygon class="st30" points="228.3,75.1 226.4,75.7 227.5,58.7 229.9,59.7 		"/>
		<polygon class="st31" points="226.4,75.7 224.5,75.3 225.7,59.2 227.5,58.7 		"/>
	</g>
	<polygon class="st7" points="240.9,98.5 221.9,98.5 218.2,65.8 244.6,65.8 	"/>
	<polygon class="st6" points="237.2,65.8 236.3,74.3 236,76.5 234.9,86.9 234.6,89.1 233.5,98.5 214.6,98.5 213.5,89.1 213.2,86.9 
		212.1,76.5 211.8,74.3 210.8,65.8 	"/>
	<polygon class="st14" points="236.3,74.3 236,76.5 234.9,86.9 234.6,89.1 213.5,89.1 213.2,86.9 212.1,76.5 211.8,74.3 	"/>
	<polygon class="st31" points="236,76.5 234.9,86.9 213.2,86.9 212.1,76.5 	"/>
</g>
<g>
	<g>
		<path class="st33" d="M91.6,70.6c-13.6,7.9-29.5,9-44.1,3.1c-2.5-1-4.2-3.3-2.9-6.7c1.1-2.8,3.6-3.6,6.6-2.5
			c11.7,4.7,25,3.8,35.9-2.6c2.7-1.6,5.6-1.3,7.1,1.7C95.3,65.7,95,68.5,91.6,70.6z"/>
		<path class="st34" d="M91.7,69c-13.6,7.9-29.5,9-44.1,3.1c-1.8-0.7-3.1-2.1-3.3-4c-0.5,2.8,1.1,4.7,3.2,5.5
			c14.6,5.9,30.5,4.8,44.1-3.1c2.6-1.6,3.4-3.5,3.2-5.4C94.5,66.5,93.5,67.9,91.7,69z"/>
		<polygon class="st33" points="45.4,67.8 42.1,68.4 43.4,64.2 		"/>
		<polygon class="st33" points="92.9,62.9 93.7,59.7 97,62.6 		"/>
	</g>
	<g>
		<path class="st35" d="M96.4,68.4C86,80.2,71.3,86.3,55.6,85.4c-2.7-0.2-5-1.8-4.9-5.4c0.1-3,2.3-4.6,5.5-4.5
			c12.6,0.7,24.9-4.5,33.2-14c2-2.3,4.9-3,7.2-0.7C98.3,62.6,98.9,65.3,96.4,68.4z"/>
		<path class="st34" d="M95.9,66.9C85.6,78.8,70.9,84.9,55.2,84c-1.9-0.1-3.6-1-4.4-2.7c0.4,2.8,2.5,4.1,4.8,4.2
			c15.7,0.9,30.4-5.2,40.8-17.1c1.9-2.3,2.1-4.4,1.3-6.1C97.8,63.6,97.3,65.2,95.9,66.9z"/>
		<polygon class="st35" points="51.7,80.5 48.8,82.2 48.7,77.8 		"/>
		<polygon class="st35" points="95.1,60.7 94.9,57.4 98.9,59.1 		"/>
	</g>
</g>
<g>
	<path class="st31" d="M239,225.2c-0.5,1.2-1.9,1.8-3.1,1.4c-4.3-1.5-8.4-1.6-12.4-0.1c-1.3,0.5-2.7-0.1-3.2-1.4
		c-3.8-8.9-5-18.2-3.5-26.6c0.2-1.1,1-3.9,1.5-5.6H241c0.6,2,1.4,4.6,1.6,5.6C244.1,206.9,242.8,216.3,239,225.2z"/>
	<g>
		<path class="st36" d="M242.7,192.9c-8.8,0-17.5,0-26.3,0c-0.6,1.7-1,3.5-1.3,5.3c9.6,0,19.3,0,28.9,0
			C243.8,196.4,243.3,194.6,242.7,192.9z"/>
		<path class="st37" d="M238.9,229c-6.2,0-12.4,0-18.6,0c-4.9-9.8-7-20.7-5.1-30.8c9.6,0,19.3,0,28.9,0
			C245.9,208.3,243.9,219.2,238.9,229z"/>
		<g>
			<path class="st38" d="M223.1,223.6c0.2,0.9-0.4,1.6-1.2,1.6l0,0c-0.9,0-1.8-0.7-2.1-1.6c-2.9-9.1-3.8-18.7-1.9-27.7
				c0.2-0.9,1.2-1.6,2.3-1.6l0,0c1.1,0,1.8,0.7,1.7,1.6C220.6,204.9,221.1,214.5,223.1,223.6z"/>
			<path class="st38" d="M228.6,223.6c0,0.9-0.7,1.6-1.5,1.6l0,0c-0.9,0-1.7-0.7-1.8-1.6c-1.3-9.1-1.7-18.7-0.9-27.7
				c0.1-0.9,1-1.6,2.1-1.6l0,0c1.1,0,1.9,0.7,1.9,1.6C228.1,204.9,228.2,214.5,228.6,223.6z"/>
			<path class="st38" d="M234,223.6c-0.1,0.9-1,1.6-1.8,1.6l0,0c-0.9,0-1.6-0.7-1.5-1.6c0.3-9.1,0.4-18.7,0.2-27.7
				c0-0.9,0.8-1.6,1.9-1.6l0,0c1.1,0,2,0.7,2.1,1.6C235.7,204.9,235.4,214.5,234,223.6z"/>
			<path class="st38" d="M239.5,223.6c-0.3,0.9-1.3,1.6-2.1,1.6l0,0c-0.9,0-1.4-0.7-1.2-1.6c1.9-9.1,2.5-18.7,1.3-27.7
				c-0.1-0.9,0.6-1.6,1.7-1.6l0,0c1.1,0,2.1,0.7,2.3,1.6C243.3,204.9,242.5,214.5,239.5,223.6z"/>
		</g>
	</g>
	<path class="st39" d="M223.3,224.3c-3-9.2-3.5-18.8-1.4-27.1c0.2-0.7,0.7-2.2,1.2-3.6h-3.7c-0.5,1.6-1.3,4.1-1.5,5.2
		c-1.5,7.8-0.2,16.4,3.4,24.7c0.4,0.9,1.3,1.4,2.2,1.4C223.5,224.6,223.4,224.5,223.3,224.3z"/>
	<path class="st3" d="M218.8,192.4c0,1.1-0.9,2-2,2c-1.1,0-2-0.9-2-2s0.9-2,2-2C217.9,190.4,218.8,191.3,218.8,192.4z"/>
	<path class="st3" d="M223.2,191.4c0,1.6-1.3,2.9-2.9,2.9c-1.6,0-2.9-1.3-2.9-2.9c0-1.6,1.3-2.9,2.9-2.9
		C221.9,188.5,223.2,189.8,223.2,191.4z"/>
	<path class="st3" d="M229.2,190.5c0,2.2-1.8,3.9-3.9,3.9c-2.2,0-3.9-1.8-3.9-3.9c0-2.2,1.8-3.9,3.9-3.9
		C227.4,186.6,229.2,188.3,229.2,190.5z"/>
	<path class="st3" d="M221,189.3c0,1.4-1.1,2.5-2.5,2.5c-1.4,0-2.5-1.1-2.5-2.5c0-1.4,1.1-2.5,2.5-2.5
		C219.9,186.8,221,187.9,221,189.3z"/>
	<path class="st3" d="M223.8,188c0,1.1-0.9,1.9-1.9,1.9c-1.1,0-1.9-0.9-1.9-1.9c0-1.1,0.9-1.9,1.9-1.9
		C222.9,186,223.8,186.9,223.8,188z"/>
	<path class="st3" d="M224.3,192.9c0,0.8-0.7,1.5-1.5,1.5c-0.8,0-1.5-0.7-1.5-1.5c0-0.8,0.7-1.5,1.5-1.5
		C223.6,191.4,224.3,192.1,224.3,192.9z"/>
	<path class="st3" d="M233.6,192.1c0,1.5-1.2,2.7-2.7,2.7c-1.5,0-2.7-1.2-2.7-2.7s1.2-2.7,2.7-2.7
		C232.4,189.3,233.6,190.5,233.6,192.1z"/>
	<circle class="st3" cx="229.6" cy="188.6" r="2.9"/>
	<circle class="st3" cx="234.2" cy="188.9" r="3.5"/>
	<circle class="st3" cx="233.5" cy="192.6" r="2.7"/>
	<path class="st3" d="M239.7,192c0,1.5-1.2,2.7-2.7,2.7s-2.7-1.2-2.7-2.7c0-1.5,1.2-2.7,2.7-2.7S239.7,190.5,239.7,192z"/>
	<circle class="st3" cx="238.9" cy="188.5" r="2.3"/>
	<circle class="st3" cx="241.1" cy="192.3" r="3"/>
	<path class="st3" d="M229.2,187.2c0,1.6-1.3,2.8-2.8,2.8c-1.6,0-2.8-1.3-2.8-2.8c0-1.6,1.3-2.8,2.8-2.8
		C227.9,184.4,229.2,185.7,229.2,187.2z"/>
	<path class="st3" d="M224.7,194.1c0,1-0.8,1.8-1.8,1.8c-1,0-1.8-0.8-1.8-1.8c0-1,0.8-1.8,1.8-1.8
		C223.9,192.3,224.7,193.1,224.7,194.1z"/>
	<path class="st3" d="M227.7,195.8c0,1.3-1,2.3-2.3,2.3c-1.3,0-2.3-1-2.3-2.3c0-1.3,1-2.3,2.3-2.3
		C226.7,193.5,227.7,194.5,227.7,195.8z"/>
	<circle class="st3" cx="227.5" cy="193" r="2.1"/>
	<path class="st3" d="M247.2,222c-0.9,0-1.8-0.2-2.6-0.7c-1.2-0.7-2.1-1.9-2.3-3.3c-0.2-1,0.5-2,1.5-2.1c1-0.2,2,0.5,2.1,1.5
		c0.1,0.5,0.4,0.7,0.6,0.8c0.4,0.2,0.8,0.3,1.2,0.1c1.1-0.3,2-1.3,2.9-3c1.5-2.8,2.1-6.2,1.7-9.4c-0.2-1.5-0.6-2.6-1.2-3.4
		c-0.6-0.8-1.6-1.2-2.3-1.1c-0.3,0.1-0.6,0.3-0.8,0.6c-0.1,0.1-0.2,0.3-0.1,0.5c0.3,1-0.3,2-1.2,2.3c-1,0.3-2-0.3-2.3-1.2
		c-0.3-1.1-0.2-2.4,0.5-3.5c0.7-1.2,1.9-2,3.2-2.3c2.1-0.4,4.4,0.5,5.9,2.4c1,1.3,1.7,3,2,5.2c0.5,3.9-0.2,8-2.1,11.5
		c-1.3,2.5-3,4.1-5.1,4.8C248.3,221.9,247.7,222,247.2,222z"/>
</g>
</svg>
