<?xml version="1.0" encoding="utf-8"?>
<!-- Generator: Adobe Illustrator 25.0.0, SVG Export Plug-In . SVG Version: 6.00 Build 0)  -->
<svg version="1.1" id="Layer_1" xmlns="http://www.w3.org/2000/svg" xmlns:xlink="http://www.w3.org/1999/xlink" x="0px" y="0px"
	 viewBox="0 0 300 300" style="enable-background:new 0 0 300 300;" xml:space="preserve">
<style type="text/css">
	.st0{opacity:8.000000e-02;fill:#E13856;enable-background:new    ;}
	.st1{fill:#ECECEC;}
	.st2{fill:#F0F0F0;}
	.st3{fill:#FAFAFA;}
	.st4{fill:#E1E1E1;}
	.st5{fill:#E7E7E7;}
	.st6{fill:#FFFFFF;}
	.st7{fill:#F5F5F5;}
	.st8{fill:#1A2E35;}
	.st9{fill:#D12424;}
	.st10{opacity:0.1;fill:#FFFFFF;}
	.st11{opacity:0.4;fill:#1A2E35;}
	.st12{fill:#007CFF;}
	.st13{opacity:0.3;}
	.st14{opacity:0.8;fill:#1A2E35;}
	.st15{fill:#FFC3BD;}
	.st16{fill:#FF847F;}
	.st17{opacity:0.2;fill:#FAFAFA;}
	.st18{opacity:0.2;}
</style>
<g id="Page-1">
	<g id="For-you-and-your-partner-Copy-4">
		<g id="Group-4">
			<circle id="Mask-Copy-2" class="st0" cx="150" cy="150" r="150"/>
		</g>
	</g>
</g>
<g>
	<rect y="246.7" class="st1" width="299.5" height="0.1"/>
	<rect x="31.4" y="252.4" class="st1" width="46.7" height="0.1"/>
	<rect x="246.8" y="257" class="st1" width="22.7" height="0.1"/>
	<rect x="78.7" y="258" class="st1" width="11.5" height="0.1"/>
	<rect x="121.1" y="250.8" class="st1" width="25.9" height="0.1"/>
	<rect x="152.3" y="250.8" class="st1" width="3.8" height="0.1"/>
	<rect x="196.2" y="254.5" class="st1" width="25.9" height="0.1"/>
	<path class="st1" d="M142,220H26.3c-1.9,0-3.4-1.5-3.4-3.4V54c0-1.9,1.5-3.4,3.4-3.4H142c1.9,0,3.4,1.5,3.4,3.4v162.6
		C145.4,218.5,143.8,220,142,220z M26.3,50.8c-1.8,0-3.3,1.5-3.3,3.3v162.6c0,1.8,1.5,3.3,3.3,3.3H142c1.8,0,3.3-1.5,3.3-3.3V54
		c0-1.8-1.5-3.3-3.3-3.3H26.3z"/>
	<path class="st1" d="M271.5,220H155.8c-1.9,0-3.4-1.5-3.4-3.4V54c0-1.9,1.5-3.4,3.4-3.4h115.7c1.9,0,3.4,1.5,3.4,3.4v162.6
		C274.9,218.5,273.4,220,271.5,220z M155.8,50.8c-1.8,0-3.3,1.5-3.3,3.3v162.6c0,1.8,1.5,3.3,3.3,3.3h115.7c1.8,0,3.3-1.5,3.3-3.3
		V54c0-1.8-1.5-3.3-3.3-3.3H155.8z"/>
</g>
<g>
	<g>
		<path class="st2" d="M79.6,233H50.2c-1.3,0-2.4-1-2.6-2.3l-7.4-50.4c-0.2-1.6,1-3,2.6-3h29.4c1.3,0,2.4,1,2.6,2.3l7.4,50.4
			C82.4,231.6,81.2,233,79.6,233z"/>
		<path class="st3" d="M53.7,233H39.8c-1.3,0-2.4-1-2.6-2.3l-7.4-50.4c-0.2-1.6,1-3,2.6-3h13.9c1.3,0,2.4,1,2.6,2.3l7.4,50.4
			C56.5,231.6,55.3,233,53.7,233z"/>
		<path class="st4" d="M229.3,164.6h-143c-3.6,0-6.8,2.7-7.1,6.1l-3.6,38.9c-0.3,3.4,2.4,6.1,6,6.1h143c3.6,0,6.8-2.7,7.1-6.1
			l3.6-38.9C235.6,167.4,232.9,164.6,229.3,164.6z"/>
		<path class="st5" d="M219.6,164.6h-143c-3.6,0-6.8,2.7-7.1,6.1l-3.6,38.9c-0.3,3.4,2.4,6.1,6,6.1h143c3.6,0,6.8-2.7,7.1-6.1
			l3.6-38.9C225.9,167.4,223.2,164.6,219.6,164.6z"/>
		<path class="st1" d="M58.5,225.8v-8.1c0-4,3.2-7.2,7.2-7.2h48.1c4,0,7.2,3.2,7.2,7.2v8.1c0,4-3.2,7.2-7.2,7.2H65.7
			C61.7,233,58.5,229.8,58.5,225.8z"/>
		<path class="st4" d="M136.4,226.5v-9.3c0-3.6,2.9-6.6,6.6-6.6h57.6c3.6,0,6.6,2.9,6.6,6.6v9.3c0,3.6-2.9,6.6-6.6,6.6H143
			C139.3,233,136.4,230.1,136.4,226.5z"/>
		<path class="st1" d="M121,226.5v-9.3c0-3.6,2.9-6.6,6.6-6.6h57.6c3.6,0,6.6,2.9,6.6,6.6v9.3c0,3.6-2.9,6.6-6.6,6.6h-57.6
			C123.9,233,121,230.1,121,226.5z"/>
		<path class="st2" d="M228.9,233H207c-1.6,0-2.7-1.4-2.2-3l13.8-50.4c0.4-1.3,1.6-2.3,2.9-2.3h21.9c1.6,0,2.7,1.4,2.2,3l-13.8,50.4
			C231.4,232.1,230.2,233,228.9,233z"/>
		<path class="st3" d="M210.5,233h-13.9c-1.6,0-2.7-1.4-2.2-3l13.8-50.4c0.4-1.3,1.6-2.3,2.9-2.3H225c1.6,0,2.7,1.4,2.2,3
			l-13.8,50.4C213,232.1,211.8,233,210.5,233z"/>
		<polygon class="st4" points="198.9,246.7 196.8,246.7 191.7,233 197,233 		"/>
		<polygon class="st4" points="225.6,246.7 223.5,246.7 218.5,233 223.7,233 		"/>
		<polygon class="st4" points="73.7,246.7 75.8,246.7 80.9,233 75.6,233 		"/>
		<polygon class="st4" points="47,246.7 49.1,246.7 54.1,233 48.9,233 		"/>
	</g>
	<g>
		<rect x="69.9" y="76.2" class="st4" width="159.7" height="57"/>
		<rect x="68.4" y="76.2" class="st2" width="159.7" height="57"/>
		
			<rect x="124.6" y="29.6" transform="matrix(-1.836970e-16 1 -1 -1.836970e-16 252.9497 -43.5808)" class="st3" width="47.4" height="150.1"/>
		<circle class="st2" cx="148.3" cy="104.7" r="14.2"/>
		<polygon class="st6" points="97.6,128.4 107.5,81 129.5,81 119.5,128.4 		"/>
		<polygon class="st6" points="128.8,128.4 138.7,81 149.7,81 139.8,128.4 		"/>
		<polygon class="st6" points="195.8,128.4 205.8,81 216.8,81 206.8,128.4 		"/>
	</g>
	<g>
		<path class="st2" d="M264.9,168.5c-3.7,16.1,5.4,32.8,1.7,49c-1.2-0.1-2.5-0.1-3.7-0.2c-1.2-0.1-2.5-0.1-3.7-0.2
			C265.4,201.1,258.7,184.5,264.9,168.5z"/>
		<path class="st2" d="M255.3,175.5c3.1,15.4-6.7,30.9-3.7,46.3c1.2,0,2.5,0,3.7,0c1.2,0,2.5,0,3.7,0
			C253.5,206.4,260.9,190.9,255.3,175.5z"/>
		<path class="st5" d="M262.2,162.7c-4.9,16.5,4.2,34.2-0.7,50.7c-1.3-0.1-2.7-0.2-4-0.4c-1.3-0.1-2.7-0.2-4-0.4
			C261,196.4,254.6,178.9,262.2,162.7z"/>
		<path class="st5" d="M269.4,186.4c1.6,8.9-7.2,15.9-5.6,24.8c1,0.2,2,0.4,3,0.5c1,0.2,2,0.4,3,0.5
			C266.1,203,272.9,195.6,269.4,186.4z"/>
		<ellipse class="st4" cx="260.5" cy="228.7" rx="20.2" ry="22.6"/>
	</g>
</g>
<ellipse id="_x3C_Path_x3E__124_" class="st7" cx="149.7" cy="267" rx="116.1" ry="6.8"/>
<g>
	<g>
		<path class="st8" d="M229.9,182.2H100.4c-1.4,0-2.5-1.1-2.4-2.5l4.4-79.3c0.1-1.4,1.3-2.5,2.7-2.5h129.4c1.4,0,2.5,1.1,2.4,2.5
			l-4.4,79.3C232.5,181,231.3,182.2,229.9,182.2z"/>
		<path class="st8" d="M175.4,111.2h-12.5c-4.2,0-7.4-3.4-7.2-7.6l0.1-2.3c0.2-4,3.7-7.3,7.8-7.3h12.5c4.2,0,7.4,3.4,7.2,7.6
			l-0.1,2.3C183,107.9,179.5,111.2,175.4,111.2z"/>
		<polygon class="st8" points="186.8,264.5 182.8,264.5 171.8,95.8 175.8,95.8 		"/>
		<polygon class="st8" points="156.7,264.5 160.7,264.5 171.8,95.8 167.8,95.8 		"/>
		<path class="st9" d="M229.2,182.2H99.7c-1.4,0-2.5-1.1-2.4-2.5l4.4-79.3c0.1-1.4,1.3-2.5,2.7-2.5h129.4c1.4,0,2.5,1.1,2.4,2.5
			l-4.4,79.3C231.8,181,230.6,182.2,229.2,182.2z"/>
		<path class="st10" d="M228.2,139.7h-37.8c-1,0-1.7-0.8-1.6-1.7l1.9-34.4c0-0.1-0.1-0.2-0.2-0.2s-0.2,0.1-0.3,0.2l-1.9,34.4
			c-0.1,1-0.9,1.7-1.8,1.7h-39.3c-1,0-1.7-0.8-1.6-1.7l1.9-34.4c0-0.1-0.1-0.2-0.2-0.2s-0.2,0.1-0.3,0.2L145,138
			c-0.1,1-0.9,1.7-1.8,1.7h-37.8c-0.1,0-0.2,0.1-0.3,0.2c0,0.1,0.1,0.2,0.2,0.2h37.8c1,0,1.7,0.8,1.6,1.7l-1.9,34.4
			c0,0.1,0.1,0.2,0.2,0.2c0.1,0,0.2-0.1,0.3-0.2l1.9-34.4c0.1-1,0.9-1.7,1.8-1.7h39.3c1,0,1.7,0.8,1.6,1.7l-1.9,34.4
			c0,0.1,0.1,0.2,0.2,0.2s0.2-0.1,0.3-0.2l1.9-34.4c0.1-1,0.9-1.7,1.8-1.7h37.8c0.1,0,0.2-0.1,0.3-0.2
			C228.4,139.8,228.3,139.7,228.2,139.7z"/>
	</g>
	<g>
		<polygon class="st11" points="166.5,109.6 151.3,109.6 150.5,125.1 165.7,125.5 		"/>
		<path class="st6" d="M164.9,124.8c-5.1-0.2-10.2-0.5-15.2-0.7c0.8-5.2,1.4-10.5,1.6-15.8c5.1,0.2,10.2,0.5,15.3,0.7
			C166.3,114.3,165.8,119.5,164.9,124.8z"/>
	</g>
	<g>
		<polygon class="st11" points="184.8,119.9 169.6,121.1 170,136.5 185.2,135.7 		"/>
		<path class="st12" d="M184.4,135.1c-5.1,0.1-10.2,0.3-15.3,0.4c0.4-5.3,0.6-10.5,0.4-15.8c5.1-0.1,10.3-0.3,15.4-0.4
			C185,124.6,184.8,129.9,184.4,135.1z"/>
	</g>
	<g>
		<polygon class="st11" points="140.4,148 112.4,146.9 109.9,171.9 137.9,173.6 		"/>
		<path class="st6" d="M136.5,172.5c-9.4-0.8-18.7-1.5-28.1-2.3c1.9-8.4,3.2-16.9,3.9-25.4c9.4,0.8,18.8,1.5,28.3,2.3
			C139.7,155.6,138.4,164,136.5,172.5z"/>
	</g>
	<g class="st13">
		<path class="st8" d="M111.6,113.1L111.6,113.1c-0.9,0-1.5-0.7-1.5-1.6l0,0c0-0.9,0.8-1.6,1.7-1.6l0,0c0.9,0,1.5,0.7,1.5,1.6l0,0
			C113.2,112.4,112.5,113.1,111.6,113.1z"/>
		<path class="st14" d="M136.4,113.1h-19.4c-0.9,0-1.5-0.7-1.5-1.6l0,0c0-0.9,0.8-1.6,1.7-1.6h19.4c0.9,0,1.5,0.7,1.5,1.6l0,0
			C138,112.4,137.2,113.1,136.4,113.1z"/>
		<path class="st8" d="M111.2,120L111.2,120c-0.9,0-1.5-0.7-1.5-1.6l0,0c0-0.9,0.8-1.6,1.7-1.6l0,0c0.9,0,1.5,0.7,1.5,1.6l0,0
			C112.8,119.3,112.1,120,111.2,120z"/>
		<path class="st14" d="M139.4,120h-22.9c-0.9,0-1.5-0.7-1.5-1.6l0,0c0-0.9,0.8-1.6,1.7-1.6h22.9c0.9,0,1.5,0.7,1.5,1.6l0,0
			C141,119.3,140.3,120,139.4,120z"/>
		<path class="st8" d="M110.8,126.9L110.8,126.9c-0.9,0-1.5-0.7-1.5-1.6l0,0c0-0.9,0.8-1.6,1.7-1.6l0,0c0.9,0,1.5,0.7,1.5,1.6l0,0
			C112.4,126.2,111.7,126.9,110.8,126.9z"/>
		<path class="st14" d="M127.3,126.9h-11.1c-0.9,0-1.5-0.7-1.5-1.6l0,0c0-0.9,0.8-1.6,1.7-1.6h11.1c0.9,0,1.5,0.7,1.5,1.6l0,0
			C128.9,126.2,128.2,126.9,127.3,126.9z"/>
		<path class="st14" d="M137.6,133.8h-11.1c-0.9,0-1.5-0.7-1.5-1.6l0,0c0-0.9,0.8-1.6,1.7-1.6h11.1c0.9,0,1.5,0.7,1.5,1.6l0,0
			C139.2,133.1,138.5,133.8,137.6,133.8z"/>
		<path class="st8" d="M110.4,133.8L110.4,133.8c-0.9,0-1.5-0.7-1.5-1.6l0,0c0-0.9,0.8-1.6,1.7-1.6l0,0c0.9,0,1.5,0.7,1.5,1.6l0,0
			C112.1,133.1,111.3,133.8,110.4,133.8z"/>
		<path class="st14" d="M120.9,133.8h-5.1c-0.9,0-1.5-0.7-1.5-1.6l0,0c0-0.9,0.8-1.6,1.7-1.6h5.1c0.9,0,1.5,0.7,1.5,1.6l0,0
			C122.5,133.1,121.8,133.8,120.9,133.8z"/>
	</g>
	<g>
		<polygon class="st12" points="158.8,154.3 151.3,154.3 150.2,173.2 157.8,173.2 		"/>
		<polygon class="st12" points="170.2,158.2 162.7,158.2 161.9,173.2 169.4,173.2 		"/>
		<polygon class="st12" points="182.4,148.1 174.9,148.1 173.5,173.2 181.1,173.2 		"/>
		<g>
			<path class="st6" d="M152.9,164.9c-0.7,0-1.5,0-2.3-0.1c-1.3-0.1-3-0.2-4.6-0.9c-0.2-0.1-0.4-0.4-0.2-0.6
				c0.1-0.2,0.4-0.4,0.6-0.2c1.4,0.6,3,0.8,4.2,0.8c9,0.5,17-1.9,24.9-7.4c1.9-1.3,4.7-3.8,6.5-6.3c0.2-0.2,0.5-0.3,0.7-0.1
				c0.2,0.2,0.3,0.5,0.1,0.7c-1.8,2.6-4.7,5.1-6.7,6.5C168.7,162.5,161.3,164.9,152.9,164.9z"/>
			<path class="st6" d="M184.1,153.9c-0.1,0-0.1,0-0.2,0c-0.2-0.1-0.4-0.4-0.3-0.6c0.7-1.7,0.8-3.5,0.4-5.2c-1.9,1.3-3.9,2.3-6,3.2
				c-0.2,0.1-0.5,0-0.6-0.3c-0.1-0.2,0-0.5,0.3-0.6c2.2-0.9,4.4-2.1,6.4-3.5c0.1-0.1,0.3-0.1,0.4-0.1c0.1,0,0.3,0.2,0.3,0.3
				c0.7,2.1,0.6,4.5-0.3,6.5C184.5,153.8,184.3,153.9,184.1,153.9z"/>
		</g>
	</g>
	<g>
		<path class="st6" d="M223.8,135.3h-28.1c-0.5,0-0.9-0.2-1.2-0.5c-0.3-0.3-0.5-0.8-0.5-1.3l1.3-23.7c0.1-1,0.9-1.8,1.9-1.8h28.1
			c0.5,0,0.9,0.2,1.2,0.5c0.3,0.3,0.5,0.8,0.5,1.3l-1.3,23.7C225.6,134.5,224.8,135.3,223.8,135.3z M197.2,108.5
			c-0.7,0-1.3,0.6-1.4,1.3l-1.3,23.7c0,0.3,0.1,0.7,0.3,0.9c0.2,0.2,0.5,0.4,0.9,0.4h28.1c0.7,0,1.3-0.6,1.4-1.3l1.3-23.7
			c0-0.3-0.1-0.7-0.3-0.9c-0.2-0.2-0.5-0.4-0.9-0.4H197.2z"/>
		<path class="st6" d="M226.5,114.9h-31.1c-0.1,0-0.2-0.1-0.2-0.2s0.1-0.2,0.2-0.2h31.1c0.1,0,0.2,0.1,0.2,0.2
			S226.6,114.9,226.5,114.9z"/>
		<path class="st6" d="M201.6,135.3C201.6,135.3,201.5,135.3,201.6,135.3c-0.1,0-0.3-0.1-0.2-0.3l1.1-20.5c0-0.1,0.1-0.2,0.3-0.2
			c0.1,0,0.2,0.1,0.2,0.3l-1.1,20.5C201.8,135.2,201.7,135.3,201.6,135.3z"/>
		<g>
			<path class="st6" d="M222.9,117.3H206c-0.1,0-0.2-0.1-0.2-0.2c0-0.1,0.1-0.2,0.2-0.2h16.9c0.1,0,0.2,0.1,0.2,0.2
				C223.1,117.2,223,117.3,222.9,117.3z"/>
			<path class="st6" d="M220.3,120.3h-14.5c-0.1,0-0.2-0.1-0.2-0.2c0-0.1,0.1-0.2,0.2-0.2h14.5c0.1,0,0.2,0.1,0.2,0.2
				C220.6,120.2,220.5,120.3,220.3,120.3z"/>
			<path class="st6" d="M214.1,123.3h-8.4c-0.1,0-0.2-0.1-0.2-0.2s0.1-0.2,0.2-0.2h8.4c0.1,0,0.2,0.1,0.2,0.2
				S214.2,123.3,214.1,123.3z"/>
			<path class="st6" d="M215.6,129.4h-10.3c-0.1,0-0.2-0.1-0.2-0.2c0-0.1,0.1-0.2,0.2-0.2h10.3c0.1,0,0.2,0.1,0.2,0.2
				C215.9,129.2,215.8,129.4,215.6,129.4z"/>
			<path class="st6" d="M213.6,132.4h-8.4c-0.1,0-0.2-0.1-0.2-0.2c0-0.1,0.1-0.2,0.2-0.2h8.4c0.1,0,0.2,0.1,0.2,0.2
				C213.9,132.3,213.7,132.4,213.6,132.4z"/>
			<path class="st6" d="M218.6,132.4h-2.7c-0.1,0-0.2-0.1-0.2-0.2c0-0.1,0.1-0.2,0.2-0.2h2.7c0.1,0,0.2,0.1,0.2,0.2
				C218.8,132.3,218.7,132.4,218.6,132.4z"/>
			<path class="st6" d="M221.3,126.3h-15.8c-0.1,0-0.2-0.1-0.2-0.2s0.1-0.2,0.2-0.2h15.8c0.1,0,0.2,0.1,0.2,0.2
				S221.5,126.3,221.3,126.3z"/>
		</g>
	</g>
	<path class="st6" d="M206.6,169.8c-3.7,0-6.7-1.1-8.5-3.1c-2-2.2-2.8-5.5-2.3-9.3c0.3-2.3,1.1-4.2,2.2-5.7c1.1-1.5,2.8-2.8,4.9-3.7
		c4.7-2.1,10.1-2,14.5,0.2c2,1,3.2,2.2,3.7,3.7c0.1,0.3-0.1,0.5-0.3,0.6c-0.3,0.1-0.5-0.1-0.6-0.3c-0.4-1.2-1.5-2.3-3.2-3.1
		c-4.1-2.1-9.3-2.1-13.7-0.2c-2,0.9-3.5,2-4.5,3.4c-1,1.4-1.7,3.1-2,5.3c-0.5,3.5,0.2,6.5,2,8.5c2.5,2.7,6.6,2.9,8.8,2.8
		c4.2-0.2,7.7-1.7,10.1-4.1c2.7-2.8,3.5-7,1.8-9.8c-0.3-0.5-1-1.5-2.1-1.6c-0.3,0-0.5-0.3-0.4-0.5c0-0.3,0.3-0.5,0.5-0.4
		c1.1,0.1,2.1,0.8,2.8,2c1.9,3.1,1.1,7.9-1.9,11c-2.5,2.6-6.3,4.1-10.7,4.4C207.3,169.8,206.9,169.8,206.6,169.8z"/>
</g>
<g>
	<path class="st15" d="M82.2,119.1l-1.7,3l-1.7,3.1c-1.1,2.1-2.2,4.1-3.2,6.2c-0.5,1-0.9,2.1-1.4,3.1l-0.1,0.2c0,0,0,0,0,0
		c0,0,0,0.1-0.1,0.1c0,0.1-0.1,0.1-0.1,0.2c0,0.1,0,0.4,0.1,0.7c0.2,0.6,0.8,1.4,1.4,2.2c0.7,0.8,1.6,1.5,2.3,2.2l-1.4,3
		c-0.7-0.2-1.3-0.4-1.9-0.7c-0.6-0.3-1.2-0.6-1.8-0.9c-1.2-0.7-2.4-1.6-3.4-3.1c-0.5-0.7-0.9-1.7-1.1-2.7c-0.1-0.5-0.1-1.1,0-1.6
		c0-0.3,0.1-0.5,0.1-0.8l0.1-0.4l0.1-0.2c0.4-1.2,0.8-2.4,1.3-3.6c0.9-2.4,1.9-4.6,3.1-6.8c0.6-1.1,1.1-2.2,1.7-3.3
		c0.6-1.1,1.2-2.1,1.9-3.2L82.2,119.1z"/>
	<path class="st15" d="M76.4,139.8l3.1-0.8l0.2,5.1c0,0-2.5,0.4-4-1.1L76.4,139.8z"/>
	<polygon class="st15" points="84,138.1 83.3,142.6 79.7,144 79.6,138.9 	"/>
	<path class="st8" d="M97,95.2c0.1,0.3,0.3,0.6,0.5,0.5c0.2,0,0.4-0.4,0.3-0.7c-0.1-0.3-0.3-0.6-0.5-0.5C97.1,94.5,97,94.8,97,95.2z
		"/>
	<path class="st16" d="M97.3,95.8c0,0,1.2,1.8,2.3,2.6c-0.5,0.7-1.6,0.6-1.6,0.6L97.3,95.8z"/>
	<path class="st8" d="M95.4,93.5c-0.1,0-0.1,0-0.1-0.1c-0.1-0.1-0.1-0.2,0-0.3c0.8-0.8,1.7-0.7,1.8-0.7c0.1,0,0.2,0.1,0.2,0.2
		c0,0.1-0.1,0.2-0.2,0.2l0,0c0,0-0.8-0.1-1.4,0.6C95.5,93.5,95.4,93.5,95.4,93.5z"/>
	<path class="st15" d="M87.1,100.1c0.6,3.2,1.3,9.1-1,11.3c0,0,0.9,3.3,6.9,3.3c6.6,0,3.1-3.3,3.1-3.3c-3.6-0.9-3.5-3.5-2.9-6
		L87.1,100.1z"/>
	<path class="st8" d="M84.8,111.9c-0.5-0.9-1-1.9,0.1-2.2c1.2-0.4,8.9-1,11.2-0.3c-0.7,1.2,0.5,2.8,0.5,2.8L84.8,111.9z"/>
	<path class="st12" d="M65.4,262c0.4,0.1,0.9,0.1,1.1-0.1c0.1-0.1,0.2-0.2,0.1-0.5c0-0.1-0.1-0.2-0.3-0.3c-0.6-0.3-2,0.3-2,0.3
		c0,0-0.1,0.1-0.1,0.1c0,0,0,0.1,0.1,0.1C64.5,261.7,64.9,261.9,65.4,262z M66.1,261.3c0,0,0.1,0,0.1,0c0.1,0,0.1,0.1,0.2,0.2
		c0.1,0.2,0,0.2,0,0.3c-0.2,0.2-1.1,0-1.7-0.2C65,261.4,65.7,261.2,66.1,261.3z"/>
	<path class="st12" d="M64.3,261.6C64.3,261.6,64.3,261.6,64.3,261.6c0.5-0.1,1.6-0.9,1.6-1.4c0-0.1,0-0.3-0.3-0.3
		c-0.2-0.1-0.3,0-0.5,0c-0.6,0.3-1,1.5-1,1.6C64.2,261.5,64.2,261.6,64.3,261.6C64.3,261.6,64.3,261.6,64.3,261.6z M65.5,260.1
		C65.6,260.1,65.6,260.1,65.5,260.1c0.2,0.1,0.2,0.1,0.2,0.1c0,0.3-0.7,0.9-1.2,1.1c0.1-0.4,0.4-1,0.8-1.2
		C65.4,260.1,65.5,260.1,65.5,260.1z"/>
	<path class="st12" d="M97.8,262.7c0.6,0,1.1-0.1,1.3-0.3c0.1-0.1,0.1-0.2,0-0.5c-0.1-0.1-0.2-0.2-0.3-0.2c-0.7-0.2-2.3,0.7-2.3,0.7
		c0,0-0.1,0.1-0.1,0.1c0,0,0,0.1,0.1,0.1C96.8,262.7,97.3,262.7,97.8,262.7z M98.5,261.9c0.1,0,0.1,0,0.2,0c0.1,0,0.2,0.1,0.2,0.1
		c0.1,0.1,0,0.2,0,0.2c-0.2,0.3-1.3,0.3-2.1,0.2C97.2,262.2,98,261.9,98.5,261.9z"/>
	<path class="st12" d="M96.5,262.6C96.5,262.6,96.5,262.6,96.5,262.6c0.6-0.2,1.6-1.2,1.5-1.7c0-0.1-0.1-0.3-0.4-0.3
		c-0.2,0-0.4,0-0.6,0.2c-0.6,0.5-0.7,1.6-0.7,1.7C96.4,262.5,96.4,262.6,96.5,262.6C96.5,262.6,96.5,262.6,96.5,262.6z M97.6,260.8
		C97.6,260.8,97.6,260.8,97.6,260.8c0.3,0,0.3,0.1,0.3,0.1c0,0.3-0.7,1-1.2,1.4c0.1-0.3,0.2-1.1,0.6-1.4
		C97.3,260.9,97.5,260.8,97.6,260.8z"/>
	<polygon class="st15" points="91.7,262.5 96.1,262.5 96.5,252.3 92.1,252.3 	"/>
	<polygon class="st15" points="59.4,260.5 63.7,261.4 68,251.9 63.7,251 	"/>
	<path class="st8" d="M64.1,261l-4.8-1c-0.2,0-0.4,0.1-0.4,0.2l-1.7,3.6c-0.2,0.4,0.1,0.8,0.5,0.9c1.7,0.3,2.5,0.4,4.7,0.9
		c1.3,0.3,4.3,1,6.1,1.4c1.8,0.4,2.4-1.3,1.7-1.7c-3.2-1.4-4.5-2.7-5.3-3.9C64.6,261.2,64.4,261,64.1,261z"/>
	<path class="st8" d="M96.1,262h-4.8c-0.2,0-0.3,0.1-0.4,0.3l-0.9,3.9c-0.1,0.4,0.2,0.8,0.6,0.8c1.7,0,4.2-0.1,6.4-0.1
		c2.5,0,4.7,0.1,7.7,0.1c1.8,0,2.3-1.8,1.6-2c-3.4-0.8-6.3-0.8-9.2-2.7C96.8,262.1,96.4,262,96.1,262z"/>
	<g>
		<path class="st12" d="M78.3,112.3c-4.1,0.9-7.5,11.5-7.5,11.5l8.3,6.3c0,0,3-2.9,4.4-8.1C84.8,116.5,82.5,111.4,78.3,112.3z"/>
		<path class="st17" d="M78.3,112.3c-4.1,0.9-7.5,11.5-7.5,11.5l8.3,6.3c0,0,3-2.9,4.4-8.1C84.8,116.5,82.5,111.4,78.3,112.3z"/>
	</g>
	<path class="st18" d="M81.8,120.1c-2.2,2.2-3,6.3-3.1,9.8l0.4,0.3c0,0,3-2.9,4.4-8.1c0.1-0.3,0.2-0.7,0.2-1L81.8,120.1z"/>
	<g>
		<path class="st12" d="M102.9,112.6c0,0,4.7,5.3,0.3,38c-7.1,0-20.1,0-23.5,0c-0.2-3.6,2.1-21.2-1.4-38.3c0,0,4-0.8,7.9-1
			c3-0.1,7.4-0.2,10,0C99.6,111.7,102.9,112.6,102.9,112.6z"/>
		<path class="st17" d="M102.9,112.6c0,0,4.7,5.3,0.3,38c-7.1,0-20.1,0-23.5,0c-0.2-3.6,2.1-21.2-1.4-38.3c0,0,4-0.8,7.9-1
			c3-0.1,7.4-0.2,10,0C99.6,111.7,102.9,112.6,102.9,112.6z"/>
	</g>
	<path class="st18" d="M105,122.6L105,122.6l-5.4,1.2c-0.3,3.6,3.4,7.9,5.3,9.9C105.1,129.1,105.1,125.4,105,122.6z"/>
	<g>
		<polygon class="st18" points="96.5,252.3 96.3,257.6 91.9,257.6 92.1,252.3 		"/>
		<polygon class="st18" points="63.7,251 68,251.9 65.8,256.8 61.5,255.9 		"/>
	</g>
	<path class="st15" d="M85.3,96.8c1.1,4.2,1.6,6.7,4.2,8.5c3.9,2.6,8.8-0.4,8.9-4.9c0.1-4-1.7-10.2-6.3-11.1
		C87.7,88.5,84.2,92.6,85.3,96.8z"/>
	<path class="st8" d="M87.2,103.7c1.8,1,8.3-2.4,7-7.6c0,0,2.5-3,2.2-6.3c-0.3-3.3-2.6-4.6-5-3.9c-2.1,0.6-2.1,1.8-2.1,1.8
		s-10.1,1.2-7.9,5.3C77.4,97.4,85,102.4,87.2,103.7z"/>
	<path class="st8" d="M81.8,93.3c0,0-1.2-2.1-2.9-0.9C79.7,92.4,81,92.6,81.8,93.3z"/>
	<path class="st8" d="M96.1,92c0,0,2.2-4.9-1.2-6.5C96,87,96.7,89.6,96.1,92z"/>
	<path class="st15" d="M92.5,97c0.3,1.1,1,2.1,1.8,2.6c1.1,0.9,2,0,1.9-1.3c-0.1-1.2-0.8-3-2-3.4C92.9,94.6,92.1,95.7,92.5,97z"/>
	<path class="st8" d="M94.8,150.6c0,0-5,33.6-7.7,46.2c-3,13.8-19.1,59.4-19.1,59.4l-7.9-1.7c0,0,11.3-37.2,13.8-56.5
		c1.9-14.8,5.7-47.5,5.7-47.5H94.8z"/>
	<path class="st12" d="M69.9,253.6c0,0-1.5,2.8-1.5,2.8l-8.9-1.9l0.7-2.7L69.9,253.6z"/>
	<path class="st13" d="M91.7,162.6c-5.8,1.1-5.2,22.7-4.5,33.7c1.7-7.8,4.1-22.9,5.8-33.6C92.6,162.5,92.2,162.5,91.7,162.6z"/>
	<path class="st8" d="M103.2,150.6c0,0,0.6,32.9,0.1,46.3c-0.5,14-5.4,59.7-5.4,59.7h-7.5c0,0-0.3-44.9-0.6-58.6
		c-0.4-14.9-2.2-47.4-2.2-47.4H103.2z"/>
	<polygon class="st11" points="144.6,127.4 129.4,127.4 128.5,142.8 143.7,143.2 	"/>
	<path class="st12" d="M136.6,137.3c-5.1-0.6-10.1-1.3-15.2-1.9c1.2-5.1,2.1-10.3,2.7-15.5c5.1,0.6,10.2,1.3,15.3,1.9
		C138.8,127,137.8,132.2,136.6,137.3z"/>
	<path class="st12" d="M99.4,253.6c0,0-0.4,3.1-0.4,3.1h-9.1l-0.2-2.8L99.4,253.6z"/>
	<path class="st15" d="M105.1,116.6c0.7,1.1,1.4,2.2,2.2,3.3c0.8,1.1,1.6,2.2,2.4,3.3c1.6,2.1,3.4,4.2,5.2,5.9
		c0.5,0.4,0.9,0.8,1.4,1.2l0.4,0.3c0,0-0.1-0.1-0.2-0.1c-0.2,0-0.2,0-0.2,0c0.1,0,0.5,0,1-0.2c0.5-0.2,1-0.5,1.5-0.8
		c2.1-1.3,4.3-3.1,6.3-4.9l2.6,2.1c-1.6,2.6-3.3,4.9-5.8,7c-0.6,0.5-1.3,1-2.1,1.5c-0.8,0.5-1.7,0.9-3,1.1c-0.7,0.1-1.5,0.1-2.3-0.2
		c-0.4-0.1-0.8-0.3-1.2-0.5l-0.5-0.3c-0.7-0.4-1.3-0.9-2-1.4c-2.5-2-4.5-4.2-6.5-6.5c-0.9-1.2-1.8-2.3-2.7-3.6
		c-0.9-1.2-1.7-2.4-2.4-3.8L105.1,116.6z"/>
	<g>
		<path class="st12" d="M96.4,119.2c-1.4,5.9,9.3,11.7,9.3,11.7l6.9-8.1c0,0-3.2-4.8-7.1-8.6C100.7,109.6,97.5,114.7,96.4,119.2z"/>
		<path class="st17" d="M96.4,119.2c-1.4,5.9,9.3,11.7,9.3,11.7l6.9-8.1c0,0-3.2-4.8-7.1-8.6C100.7,109.6,97.5,114.7,96.4,119.2z"/>
	</g>
	<path class="st15" d="M124.4,125.7l1.6-5.3l4.3,2.1c0,0-0.6,3.8-3.8,4.5L124.4,125.7z"/>
	<polygon class="st15" points="127.8,119 131.7,120.1 130.4,122.6 126.1,120.5 	"/>
</g>
</svg>
