<?xml version="1.0" encoding="utf-8"?>
<!-- Generator: Adobe Illustrator 25.0.0, SVG Export Plug-In . SVG Version: 6.00 Build 0)  -->
<svg version="1.1" xmlns="http://www.w3.org/2000/svg" xmlns:xlink="http://www.w3.org/1999/xlink" x="0px" y="0px"
	 viewBox="0 0 800 800" style="enable-background:new 0 0 800 800;" xml:space="preserve">
<style type="text/css">
	.st0{opacity:8.000000e-02;fill:#E13856;enable-background:new    ;}
	.st1{fill:#FCA786;}
	.st2{fill:#FB9A75;}
	.st3{fill:#4798D9;}
	.st4{fill:#226FB2;}
	.st5{fill:#307FC3;}
	.st6{fill:#1E77BE;}
	.st7{fill:#237CC3;}
	.st8{fill:#4796DA;}
	.st9{fill:#2A83CA;}
	.st10{fill:#3F8ED2;}
</style>
<g id="Layer_1">
</g>
<g id="Layer_2">
	<g id="Page-1">
		<g id="For-you-and-your-partner-Copy-4">
			<g id="Group-4">
				<circle id="Mask-Copy-2" class="st0" cx="400.1" cy="402.8" r="399.9"/>
			</g>
		</g>
	</g>
	<g>
		<g>
			<path class="st1" d="M455.3,512.1c25.8,17.2,167.4,169.8,208.1,189.5c8.4,4,18.6,8.3,29.6,12.5c0.6,0.2,1.2,0.3,1.8,0.3h0
				c2.8,0,5-2.2,5-5c50.2-19.3,65.1-61.5,59.7-116.8c-33.3-30.1-88.2-80.6-123.9-101.6c-51.3-30.2-152.4-102.6-152.4-102.6
				S429.4,494.9,455.3,512.1z"/>
			<path class="st1" d="M317.1,776.9c49.2,18.7,98,14.6,146.5-13.2c-14.2-37.1-22-67.6-37.3-116.4C394.5,546.7,250,515.4,250,515.4
				s28.9,90,56,212.2C310,745.5,313.7,761.9,317.1,776.9z"/>
		</g>
		<g>
			<path class="st2" d="M413.8,720.3c10.4,12.8,11.6,20,19.2,43.4h30.6c-14.2-37.1-22-67.6-37.3-116.4c-3.7-11.9-9.1-22.8-15.6-32.8
				c-34.9,8.1-86,22.1-103.3,37.9C307.4,652.4,373,670.5,413.8,720.3z"/>
			<path class="st2" d="M455.3,512.1c25.8,17.2,167.4,169.8,208.1,189.5c8.4,4,18.6,8.3,29.6,12.5c0.6,0.2,1.2,0.3,1.8,0.3l0,0
				c2.8,0,26.1-13,26.1-15.7l-21.1-17c0-2-1.2-3.8-3.1-4.6c-60.1-25.6-34.2-4.1-125.5-86.2c-90.2-81-49.2-147.7-49.2-147.7
				s-44.4,32.9-72.5,60.2C450.5,507.2,452.4,510.2,455.3,512.1z"/>
		</g>
		<path class="st3" d="M284.2,656c-5.2,3.1-10.5,12.5,3.1,13.7c13.6,1.1-1.4-12.7,60.8-20.7s68.7-0.6,77.8,2.5
			c6.9,2.4,12.5-13.5-12.4-19.1C388.7,626.8,315.1,637.7,284.2,656z"/>
		<path class="st4" d="M281.7,490.2c-5.3,0.8-88.3-43-94.3-55.8c-6-12.8,10.6-33.2,18.1-52.8c7.5-19.6,7.5-51.3,11.3-61.9
			c3.8-10.6,51.3,0,51.3,0L281.7,490.2z"/>
		<path class="st4" d="M364.5,561.9c0,0,37.9-17,23.2-69.6c-14.7-52.6-15.8-72.4-15.3-74.1c0.6-1.7-54.3-1.1-54.3-1.1L364.5,561.9z"
			/>
		<g>
			<g>
				<path class="st3" d="M491.2,505.2c-25.7,19.3-12.2,20-23.8,13.5c1.6,1.6-6.8,15.1,6.4,20.7c7.5,3.2,15.5-0.6,31.9-15.5
					c12.4-11.3,25-27.6,36.4-39.8c21.7-23.2,39.2-43.1,27.6-50.7c-2-1.3-4.4-1.7-6.7-1.3c-4.5,0.7-13.4,3.4-25.2,13.7
					C550.5,464.9,524.3,480.3,491.2,505.2z"/>
			</g>
			<path class="st5" d="M506.6,514.9c10.6-9.4,37-41.6,52-59.4c2.6-3,10.6-16-0.8-22.8c0,0-19.8-16.5-36.7-26.7
				c-16.9-10.2-31.1-24.2-34.9-28.3c-5.9-6.3-8.4-4.8-11.6-8.9c-3.2-4.1-4-8.8-11.8-13.1c-3.7-2-17.1-12.4-13.7-27.7
				c3.4-15.4-4.7-47.6-7.5-61.4c-2.8-13.9-5.6-27.2-14.2-43.2c-8.6-16-8.9-40.5-13.1-51.4c-4.2-11-16.3-17.7-23.1-34.8
				c-6.8-17.1-13.3-26.4-22.6-22.4s-20.2,16.3-8.9,50.1c11.3,33.8,25.3,61.8,7.7,66.1c-17.6,4.3-45.9-22.2-59.4-39.6
				c-13.5-17.5-65.9-85.6-87.5-101.1c-21.6-15.5-27.7-6.8-31.3-2.3c-3.7,4.6-11.4,10.4,19.8,46.3c31.2,35.9,41.1,52.9,46.3,60.2
				c5.2,7.2,5.8,10.8,2.2,13.4c-3.6,2.6-7.2,5.2-22.7-9.9c-15.5-15.1-73.3-63.5-85.3-69.7c-12-6.2-21.2-11.1-30-0.2
				c-8.9,10.9,1,19.9,11,31.1c10.1,11.2,63.5,60,75.5,71.3c12,11.2,25.4,22.1,18.3,23.9c-7,1.8-14.2-3-54.4-29
				c-40.2-26.1-60.4-43.4-73-31c-12.6,12.4,15.2,31.5,22.4,39.3c7.2,7.9,55.5,42,69.8,51.1c14.3,9.1,26,17.6,23,21.2
				c-3,3.6-16.7,8.1-54.9-17.9c-38.3-26-48.3-23.6-50.1-11.4c-1.8,12.1,29.4,31.4,53.1,48.6c23.7,17.2,44.2,21.2,56.7,29.4
				c12.5,8.1,56.9,42.7,90.5,60.8c33.6,18.2,51,23.3,63.6,32c8.2,5.7,35.1,25,36.8,26.3c2.4,1.9,4.4,4.4,5.9,7.3
				c0.2,0.4,0.5,0.9,0.8,1.3c2.7,4.1,6.8,6.4,11.5,8.5c0.4,0.3,0.7,0.7,1.1,1.1c1.8,1.9,3.3,4.1,4.4,6.7c0.3,0.5,0.6,0.9,1,1.3
				c2.7,3.4,6.1,6.1,9.7,8.2c0.5,0.4,0.9,0.9,1.4,1.3c9.3,8.5,17.9,15.8,25.1,21.7c0,0,0.1,0,0.1,0.1c5,4.1,12.2,4.2,17.3,0.3
				C492.6,526.2,500.3,520.5,506.6,514.9z"/>
			<path class="st6" d="M506.6,514.9c10.3-9.2,35.5-39.8,50.7-57.9c3.1-3.7,10.4-15.1,3.8-21.1c-3.5-3.2-7.2-7.4-12.9-11
				c0,0-10.1-8.7-27-18.9c-16.9-10.2-31.1-24.2-34.9-28.3c-5.9-6.3-8.4-4.8-11.6-8.9c-3.2-4.1-4-8.8-11.8-13.1
				c-3.7-2-17.1-12.4-13.7-27.7c3.4-15.4-4.7-47.6-7.5-61.4c-2.8-13.9-5.6-27.2-14.2-43.2c-8.6-16-8.9-40.5-13.1-51.4
				c-4.2-11-16.3-17.7-23.1-34.8c-6.8-17.1-13.3-26.4-22.6-22.4s-20.2,16.3-8.9,50.1c11.3,33.8,25.3,61.8,7.7,66.1
				c-17.6,4.3-45.9-22.2-59.4-39.6c-13.5-17.5-65.9-85.6-87.5-101.1c-21.6-15.5-27.7-6.8-31.3-2.3c-3.7,4.6-11.4,10.4,19.8,46.3
				c31.2,35.9,41.1,52.9,46.3,60.2c5.2,7.2,5.8,10.8,2.2,13.4c-3.6,2.6-7.2,5.2-22.7-9.9c-15.5-15.1-73.3-63.5-85.3-69.7
				c-12-6.2-21.2-11.1-30-0.2c-8.9,10.9,1,19.9,11,31.1c10.1,11.2,63.5,60,75.5,71.3c12,11.2,25.4,22.1,18.3,23.9
				c-7,1.8-14.2-3-54.4-29c-40.2-26.1-60.4-43.4-73-31c-12.6,12.4,15.2,31.5,22.4,39.3c7.2,7.9,55.5,42,69.8,51.1
				c14.3,9.1,26,17.6,23,21.2c-3,3.6-16.7,8.1-54.9-17.9c-38.3-26-48.3-23.6-50.1-11.4c-1.8,12.1,29.4,31.4,53.1,48.6
				c23.7,17.2,44.2,21.2,56.7,29.4c12.5,8.1,56.9,42.7,90.5,60.8c33.6,18.2,51,23.3,63.6,32c8.2,5.7,35.1,25,36.8,26.3
				c2.4,1.9,4.4,4.4,5.9,7.3c0.2,0.4,0.5,0.9,0.8,1.3c2.7,4.1,6.8,6.4,11.5,8.5c0.4,0.3,0.7,0.7,1.1,1.1c1.8,1.9,3.3,4.1,4.4,6.7
				c0.3,0.5,0.6,0.9,1,1.3c2.7,3.4,6.1,6.1,9.7,8.2c0.5,0.4,0.9,0.9,1.4,1.3c9.3,8.5,17.9,15.8,25.1,21.7c0,0,0.1,0.1,0.1,0.1
				c5,4.1,12.2,4.2,17.3,0.3C492.6,526.2,500.3,520.5,506.6,514.9z M474.2,530.5c-0.8-1.1-2-1.7-3.1-2.6c-8.5-6.9-16.9-14.1-25-21.5
				l-1.7-1.5l-0.3-0.2c-3.7-2.3-6.6-4.6-8.6-7.3c-0.2-0.3-0.4-0.6-0.6-0.9c-1.3-2.8-3-5.3-5-7.4c-0.4-0.4-0.9-0.9-1.3-1.3l-0.5-0.4
				l-0.6-0.3c-4.4-1.9-7.7-3.9-9.9-7.1c-0.2-0.3-0.4-0.6-0.6-0.9c-1.6-3.3-3.9-6.2-6.9-8.6c-1.8-1.5-28.6-20.7-37-26.5
				c-6.6-4.6-14.3-8.1-24.9-12.9c-10.1-4.6-22.6-10.4-39.1-19.3c-24-13-53.5-34.4-73.1-48.5c-7.6-5.5-13.6-9.8-17.2-12.2
				c-5.1-3.3-11.3-5.9-18.4-8.9c-10.7-4.5-23.9-10-38.1-20.3c-4-2.9-8.3-5.9-12.4-8.8c-10.2-7.2-20.8-14.7-28.5-21.4
				c-9.9-8.8-11-13-10.7-14.7c0.3-1.9,0.8-3.3,1.5-4.2c1.7-2.1,9.2-4.4,42.5,18.3c44.3,30.1,57.2,20.7,60.1,17.1
				c1.1-1.3,1.5-3.1,1.2-4.8c-0.8-5-7.7-11-25.2-22.1c-15.4-9.8-62.4-43.2-69-50.4c-1.6-1.7-3.8-3.7-6.5-6.1
				c-8.4-7.5-22.5-20.1-16.8-27.1c0.2-0.2,0.4-0.5,0.7-0.7c8-7.9,16.8,0.5,46,19.9c5.3,3.5,12.5,7.6,22.1,11.6l2.9,1.9
				c45.7,26,45.4,41,54,38.7c1.5-0.4,3.5-12.2,4.3-13.2c4.5-5.6-2.8-12.3-15-23.5c-1.7-1.6-3.5-3.2-5.2-4.8c-2.6-2.5-7.2-6.7-13-12
				c-20.4-18.9-54.6-50.4-62.3-59c-0.8-0.9-1.6-1.8-2.4-2.7c-10.5-11.5-14-16.5-8.5-23.3c6.5-8,12.3-5.5,24.8,1l0.3,0.2
				c45.9,46.9,68.7,53.8,84.4,69c15.1,14.7,11,28.1,17.6,23.3c0.8-0.6,11.6-14.3,12.2-15c4.6-5.7-0.6-13-3.4-16.9
				c-0.9-1.3-2-2.8-3.3-4.8c-6.1-9.1-17.4-26-43.2-55.6c-12.1-13.9-19.4-24.6-21.7-31.7c-1.7-5.1-0.2-6.9,0.9-8.3
				c0.2-0.2,0.3-0.4,0.5-0.6c0.2-0.2,0.4-0.4,0.6-0.7l0.6-0.8c2.9-3.6,7.4-9.1,25.4,3.8c13.8,9.9,42.7,43.3,85.9,99.3l0.8,1.1
				c10.2,13.2,41.5,46.4,63.4,41c3.4-0.8,6.1-2.4,8-4.8c7.4-9.2,1.4-26.1-7.1-49.6c-1.9-5.4-3.9-11-5.9-16.8
				c-6.2-18.6-6.1-32.5,0.2-40.3c1.8-2.2,4-3.8,6.6-5c2.2-1,3.6-0.6,4.5-0.2c5.8,2.4,11.2,16,13,20.4c4,10,9.6,16.6,14.5,22.4
				c3.7,4.3,6.9,8.1,8.5,12.4c1.5,3.9,2.5,10.1,3.6,16.7c1.9,11.6,4.1,24.7,9.7,35.1c8.4,15.7,11.1,28.6,13.8,42.2
				c0.4,1.9,0.9,4.2,1.5,6.8c3.3,15.2,8.8,40.6,6.1,53c-3.8,17.1,10,28.9,15.6,32c3,1.6,7.3,4.8,8,8.3c5.5,25.4-23.9,60.2-23.4,59.8
				c34.1-27.7,29.9-52.4,31.7-51.5c1.7,0.9,3.4,1.8,6.2,4.7c1.6,1.8,16.6,17.5,35.7,29c16.4,9.9,36,26.2,36.2,26.4l0.1,0.1
				c3.8,3,10.6,8.9,6.6,12.4C548.1,460.2,484.5,545.2,474.2,530.5z"/>
			<path class="st6" d="M373.3,192.6c-2.5-4.4-5.5-8.9-8.6-13.2c9.7,27,17.7,47.9,2.7,51.6c-17.6,4.3-45.9-22.2-59.4-39.6
				c-10.8-14-46.5-60.5-71.5-86.4l-6.1-2.2c0,0,0.5,0.7,1.5,2c10.5,13.7,72.4,94.5,79.5,109c7.8,15.9,51.6,47.4,66.2,48.7
				C392.1,263.7,389.6,220.9,373.3,192.6z"/>
			<path class="st7" d="M495.3,524.1c-3.8-0.5-7.6-1.6-11.1-3.7c-20.1-11.8-35.6-32.4-28.9-51.1c6.7-18.7,4.3-38.2-3.2-22.7
				c-7.5,15.5-23.4,28.3-29,33.9c-5.5,5.6-36.9-40.1-47.7-56.4c-10.9-16.4-20.6-13.7-49-14.1c-28.4-0.4-84.9-62.8-102.4-63.5
				c-10-0.4-37.4-10-59.2-18.2c2.7,1.8,5.3,3.4,7.9,4.9c0.1,0,0.1,0.1,0.2,0.1c1.2,0.7,2.4,1.4,3.7,2.1c0.1,0.1,0.2,0.1,0.3,0.2
				c1.2,0.6,2.4,1.3,3.5,1.8c0.1,0.1,0.2,0.1,0.3,0.2c1.2,0.6,2.3,1.2,3.4,1.7c0.1,0,0.2,0.1,0.3,0.1c1.1,0.5,2.3,1.1,3.4,1.6
				c0.1,0,0.1,0.1,0.2,0.1c4.8,2.2,9.2,4,13.4,5.8c0.8,0.3,1.6,0.7,2.4,1c0.2,0.1,0.4,0.2,0.6,0.3c0.8,0.4,1.6,0.7,2.4,1.1
				c0.2,0.1,0.3,0.1,0.5,0.2c0.8,0.4,1.6,0.7,2.3,1.1c0.1,0.1,0.3,0.1,0.4,0.2c0.8,0.4,1.5,0.7,2.3,1.1c0.1,0.1,0.2,0.1,0.3,0.2
				c0.8,0.4,1.5,0.8,2.2,1.2c0.1,0,0.1,0.1,0.2,0.1c0.7,0.4,1.5,0.9,2.2,1.3c12.5,8.1,56.9,42.7,90.5,60.8
				c33.6,18.2,51,23.3,63.6,32c1.8,1.2,4.5,3.1,7.6,5.4c0.9,0.6,1.8,1.3,2.8,2c1,0.7,1.9,1.4,2.9,2.1c1,0.7,2,1.4,3,2.1
				c2.5,1.8,5.1,3.6,7.5,5.3c4.3,3.1,8.1,5.9,10.5,7.6c1.3,1,2.2,1.6,2.5,1.8c2.4,1.9,4.4,4.4,5.9,7.3c0.2,0.4,0.5,0.9,0.8,1.3
				c0.7,1,1.5,1.9,2.3,2.8c2.1,2.1,4.7,3.6,7.5,4.9c0.6,0.3,1.1,0.5,1.7,0.8c0.4,0.3,0.7,0.7,1.1,1.1c0.9,0.9,1.7,2,2.4,3.1
				c0.7,1.1,1.4,2.3,2,3.6c0.3,0.5,0.6,0.9,1,1.3c0.3,0.4,0.7,0.8,1,1.2c2.5,2.8,5.5,5.1,8.6,7c0.5,0.4,0.9,0.9,1.4,1.3
				c2.9,2.7,5.8,5.3,8.6,7.7c1.6,1.4,3.2,2.8,4.8,4.1c4.2,3.6,8.2,6.9,11.8,9.8c0.7,0.6,1.4,1.1,2.1,1.7
				C473,534.6,481.9,537.5,495.3,524.1z"/>
			<path class="st6" d="M216,305.9c0,0-1.3-0.6-3.5-1.6c0,0.5-0.1,1-0.4,1.4c-3,3.6-16.7,8.1-54.9-17.9
				c-37.3-25.3-47.7-23.7-49.9-12.4c1.3,0.7,2.7,0.5,4.3-1.5c6.6-8.2,36.1,15.7,56.1,31.9c20,16.2,54.5,30.1,50.1,17
				C213.3,309.8,216,305.9,216,305.9z"/>
			<path class="st6" d="M437,321.7c-5.1,18.7-0.4,27.8-8.8,43.1c-8.4,15.3-45.5,39.6-55.4,40.2c-9.9,0.7,13.2,2,24.8,7.4
				c11.7,5.4,28.3,1.5,41.5-10.6c13.2-12.1,23.4-34.7,29.3-27.9c3.1,3.6,5.1-0.5,6.3-5.1c0,0,0,0-0.1-0.1c-3.2-4.1-4-8.8-11.8-13.1
				c-3.7-2-17.1-12.4-13.7-27.7c3.1-14-3.4-42.1-6.7-57.4l-8.8-23.3C433.6,247.2,442.1,303,437,321.7z"/>
		</g>
		<path class="st8" d="M227.4,431.3c0,0-37-6.8-28.7-12.1c8.3-5.3,24.1-8.3,29.4-17.4c2.2-3.7-9.8-5.9-11.3-14.3
			c-2.2-12.1-5-30-5.7-29.8c-1.3,8.5-3,16.9-5.7,23.8c-7.5,19.5-23.9,39.7-18.2,52.6C201.6,438.7,227.4,431.3,227.4,431.3z"/>
		<path class="st4" d="M299.1,272.9c0,0,14.3,0,22.6,19.6c8.3,19.6,5.3,43,1.5,63.4c-3.8,20.4,0.8,24.1,16.6,43.8
			s14.3,30.9,26.4,43.8c12.1,12.8-34.7,0.8-34.7,0.8s-45.3-49-44.5-54.3C287.8,384.6,299.1,272.9,299.1,272.9z"/>
		<path class="st8" d="M429,643.9c0,0-5.5-15.7-30.4-57.9c-14.6-24.7-0.8-31.7-0.8-59.6c0-8.5-1.8-16.8-4.4-24.1
			c-4.4-12.7-13-23.5-23.7-31.5c-5.6-4.2-13.5-14.3-21.7-37.9c-15.8-45.3-32.4-37.7-35.5-45.3c-3-7.5-1.5-14.3,6-48.3
			c7.5-34-4.5-66.4-19.6-66.4c-15.1,0-23.4,11.3-35.5,55.8c-12.1,44.5-9.1,56.6-24.9,72.4s-24.3,24.8-34,19.6
			c-15.1-8-4.2-26.8-6.3-23.9c-9.1,13-15.3,26.6-11,37.4c6.3,16.2,46.8,56.6,60.4,103.4c13.6,46.8,34.7,119.2,34,126
			C281,670.5,313.6,624.3,429,643.9z"/>
		<path class="st9" d="M282.9,658.8c37-23,100.5-26.1,122-23.8c8.6,0.9,21.7,2.8,21.7,2.8s-14.5-31.7-26-50.4
			c-15-24.4-2.6-33.2-2.6-61.1c0-8.5-1.8-16.8-4.4-24.1c-4.4-12.7-13-23.5-23.7-31.5c-5.6-4.2-13.5-14.3-21.7-37.9
			c-15.8-45.3-32.4-37.7-35.5-45.3c-3-7.5-1.5-14.3,6-48.3c7-31.7-3-62-16.6-65.9c6.2,8.9,11.7,23.7,7.6,46.3
			c-7.9,43-27.2,70.2-12.4,74.7c14.7,4.5,30.6,40.7,26,77c-1.1,9.1-0.3,26.7,10.8,34.3c8.4,5.8,18.8,15.3,28.8,31.3
			c2.6,4.1-49.8-39.9-56.3-22.6c-4.3,11.5-4.8,20.4,12.2,29.4c34,18.1,77,81.1,77,81.1S311.9,631.7,282.9,658.8z"/>
		<path class="st10" d="M290.4,630.9c-13.6-2.3-7.9-14.7,10.2-17c18.1-2.3,31.7-9.1,31.7-9.1s-39.6,4.5-48.7-2.3
			c-9.1-6.8,3.4-23.8,4.5-56.6c1.1-32.8-17-24.9-56.6-71.3c-17.7-20.7-33.4-35.1-45.3-44.7c0.2,1.5,0.6,2.9,1.1,4.4
			c6.3,16.2,46.8,56.6,60.4,103.4c11.9,40.9,29.5,101.3,33.3,120.5c1.2,0.4,1.8,0.6,1.8,0.6S304,633.2,290.4,630.9z"/>
	</g>
</g>
</svg>
