<?xml version="1.0" encoding="utf-8"?>
<!-- Generator: Adobe Illustrator 25.0.0, SVG Export Plug-In . SVG Version: 6.00 Build 0)  -->
<svg version="1.1" id="Layer_1" xmlns="http://www.w3.org/2000/svg" xmlns:xlink="http://www.w3.org/1999/xlink" x="0px" y="0px"
	 viewBox="0 0 300 300" style="enable-background:new 0 0 300 300;" xml:space="preserve">
<style type="text/css">
	.st0{opacity:8.000000e-02;fill:#E13856;enable-background:new    ;}
	.st1{clip-path:url(#SVGID_2_);}
	.st2{fill:#BAD7FD;}
	.st3{fill:#DCEAFF;}
	.st4{fill:#B0D2F5;}
	.st5{fill:#CEDFFF;}
	.st6{fill:#A9C2FF;}
	.st7{fill:#25468F;}
	.st8{fill:#8EAFF1;}
	.st9{fill:#E02424;}
	.st10{fill:#FFFFFF;}
	.st11{fill:#F5A784;}
	.st12{fill:#E0855C;}
	.st13{fill:#3B2645;}
	.st14{fill:#059DD8;}
	.st15{fill:#24B6FF;}
	.st16{fill:#028DB7;}
</style>
<g id="Page-1">
	<g id="For-you-and-your-partner-Copy-4">
		<g id="Group-4">
			<circle id="Mask-Copy-2" class="st0" cx="150" cy="150" r="150"/>
		</g>
	</g>
</g>
<g>
	<defs>
		<rect id="SVGID_1_" x="1.6" y="2.4" width="296.8" height="296.8"/>
	</defs>
	<clipPath id="SVGID_2_">
		<use xlink:href="#SVGID_1_"  style="overflow:visible;"/>
	</clipPath>
	<g class="st1">
		<g>
			<path class="st2" d="M254.2,105.6h-22.3c-3.8,0-6.9-3.1-6.9-6.9V77.5c0-3.8,3.1-6.9,6.9-6.9h22.3c3.8,0,6.9,3.1,6.9,6.9v21.3
				C261.1,102.6,258,105.6,254.2,105.6z"/>
			<path class="st3" d="M253.2,104.1h-20.4c-3.5,0-6.3-2.8-6.3-6.3V78.4c0-3.5,2.8-6.3,6.3-6.3h20.4c3.5,0,6.3,2.8,6.3,6.3v19.4
				C259.5,101.3,256.7,104.1,253.2,104.1z"/>
			<g>
				<g>
					<path class="st4" d="M242.3,75.4c0-0.4,0.3-0.7,0.7-0.7s0.7,0.3,0.7,0.7c0,0.4-0.3,0.7-0.7,0.7S242.3,75.8,242.3,75.4z"/>
					<path class="st4" d="M248.3,76.4c0.2-0.4,0.7-0.5,1-0.3c0.4,0.2,0.5,0.7,0.3,1c-0.2,0.4-0.7,0.5-1,0.3
						C248.2,77.2,248.1,76.8,248.3,76.4z"/>
					<path class="st4" d="M253.5,80.5c0.3-0.2,0.8-0.1,1,0.2c0.2,0.3,0.1,0.8-0.2,1c-0.3,0.2-0.8,0.1-1-0.2
						C253,81.2,253.1,80.7,253.5,80.5z"/>
					<path class="st4" d="M256,86.9c0.4,0,0.7,0.3,0.7,0.7c0,0.4-0.3,0.7-0.7,0.7c-0.4,0-0.7-0.3-0.7-0.7
						C255.3,87.2,255.6,86.9,256,86.9z"/>
					<path class="st4" d="M254.7,94.2c0.3,0.3,0.3,0.8,0,1.1c-0.3,0.3-0.8,0.3-1.1,0c-0.3-0.3-0.3-0.8,0-1.1
						C254,94,254.4,94,254.7,94.2z"/>
					<path class="st4" d="M250,99c0.3,0.3,0.3,0.8,0,1.1c-0.3,0.3-0.8,0.3-1.1,0c-0.3-0.3-0.3-0.8,0-1.1
						C249.3,98.7,249.7,98.7,250,99z"/>
					<path class="st4" d="M242.3,101.4c0-0.4,0.3-0.7,0.7-0.7s0.7,0.3,0.7,0.7c0,0.4-0.3,0.7-0.7,0.7S242.3,101.8,242.3,101.4z"/>
				</g>
				<g>
					<path class="st4" d="M237.7,76.4c-0.2-0.4-0.7-0.5-1-0.3c-0.4,0.2-0.5,0.7-0.3,1c0.2,0.4,0.7,0.5,1,0.3
						C237.8,77.2,237.9,76.8,237.7,76.4z"/>
					<path class="st4" d="M232.6,80.5c-0.3-0.2-0.8-0.1-1,0.2c-0.2,0.3-0.1,0.8,0.2,1c0.3,0.2,0.8,0.1,1-0.2
						C233,81.2,232.9,80.7,232.6,80.5z"/>
					<path class="st4" d="M230,86.9c-0.4,0-0.7,0.3-0.7,0.7c0,0.4,0.3,0.7,0.7,0.7s0.7-0.3,0.7-0.7C230.7,87.2,230.4,86.9,230,86.9z
						"/>
					<path class="st4" d="M231.3,94.2c-0.3,0.3-0.3,0.8,0,1.1c0.3,0.3,0.8,0.3,1.1,0c0.3-0.3,0.3-0.8,0-1.1
						C232.1,94,231.6,94,231.3,94.2z"/>
					<path class="st4" d="M236,99c-0.3,0.3-0.3,0.8,0,1.1c0.3,0.3,0.8,0.3,1.1,0c0.3-0.3,0.3-0.8,0-1.1
						C236.8,98.7,236.3,98.7,236,99z"/>
				</g>
			</g>
			<g>
				<path class="st4" d="M242.8,87.6c0-0.4,0.3-0.7,0.7-0.7c0.4,0,0.7,0.3,0.7,0.7c0,0.4-0.3,0.7-0.7,0.7
					C243.2,88.4,242.8,88,242.8,87.6z"/>
				<g>
					<rect x="243.5" y="78.3" class="st4" width="0.2" height="9.3"/>
				</g>
				<g>
					
						<rect x="242.8" y="85.4" transform="matrix(0.7867 -0.6173 0.6173 0.7867 -0.4209 170.1117)" class="st4" width="6.3" height="0.6"/>
				</g>
			</g>
		</g>
		<g>
			<path class="st5" d="M199.1,185.7h-92.4l-40.5-40.1c-2.6-2.6-2.3-6.9,0.6-9l2.1-1.5l81.9,1.2L199.1,185.7z"/>
			<path class="st6" d="M107.3,186.8l-7.6,5.7l-34.9-47c-1.9-2.6-1.4-6.3,1.2-8.2l2.9-2.2L107.3,186.8z"/>
			<path class="st6" d="M66.3,192.5h227.1c2.8,0,5-2.3,5-5l0,0c0-2.8-2.3-5-5-5H66.3c-2.8,0-5,2.3-5,5l0,0
				C61.3,190.2,63.5,192.5,66.3,192.5z"/>
			<rect x="99.7" y="192.5" class="st6" width="3.6" height="46"/>
			<rect x="340.7" y="192.5" class="st6" width="3.6" height="46"/>
			<rect x="285.6" y="192.5" class="st6" width="3.6" height="46"/>
			<rect x="163.7" y="192.5" class="st6" width="3.6" height="46"/>
			<rect x="99.7" y="221.8" class="st6" width="167.8" height="3.8"/>
			<rect x="263.9" y="221.8" class="st6" width="80.4" height="3.8"/>
			<g>
				<circle class="st7" cx="101.5" cy="238.4" r="4.1"/>
				
					<ellipse transform="matrix(2.626996e-02 -0.9997 0.9997 2.626996e-02 -139.4913 333.6067)" class="st6" cx="101.5" cy="238.4" rx="2.3" ry="2.3"/>
			</g>
			<g>
				<path class="st7" d="M161.4,238.4c0-2.3,1.8-4.1,4.1-4.1c2.3,0,4.1,1.8,4.1,4.1c0,2.3-1.8,4.1-4.1,4.1
					C163.2,242.5,161.4,240.7,161.4,238.4z"/>
				
					<ellipse transform="matrix(2.628803e-02 -0.9997 0.9997 2.628803e-02 -77.1926 397.5625)" class="st6" cx="165.5" cy="238.4" rx="2.3" ry="2.3"/>
			</g>
			<g>
				<circle class="st7" cx="287.5" cy="238.4" r="4.1"/>
				<path class="st6" d="M285.2,238.4c0-1.3,1-2.3,2.3-2.3c1.3,0,2.3,1,2.3,2.3c0,1.3-1,2.3-2.3,2.3
					C286.2,240.7,285.2,239.7,285.2,238.4z"/>
			</g>
			<polygon class="st6" points="69.6,143 69.6,184.6 74.7,184.6 74.7,148.7 			"/>
			<path class="st6" d="M335.7,192.5h-68.6c-6,0-10.9-4.9-10.9-10.9V163c0-6,4.9-10.9,10.9-10.9h68.6c6,0,10.9,4.9,10.9,10.9v18.6
				C346.6,187.6,341.7,192.5,335.7,192.5z"/>
		</g>
		<g>
			<g>
				<rect x="2.6" y="202.1" class="st6" width="2.2" height="34.7"/>
				
					<rect x="25.5" y="203.9" transform="matrix(-1.836970e-16 1 -1 -1.836970e-16 254.3588 201.2719)" class="st6" width="2.2" height="47.8"/>
				<rect x="48.3" y="202.1" class="st6" width="2.2" height="34.7"/>
				<rect x="32.3" y="202.1" class="st6" width="2.2" height="34.7"/>
				<g>
					<path class="st7" d="M0,238.9c0-2,1.7-3.7,3.7-3.7c2,0,3.7,1.7,3.7,3.7s-1.7,3.7-3.7,3.7C1.7,242.6,0,240.9,0,238.9z"/>
					<path class="st6" d="M1.6,238.9c0-1.1,0.9-2.1,2.1-2.1c1.1,0,2.1,0.9,2.1,2.1c0,1.1-0.9,2.1-2.1,2.1
						C2.6,240.9,1.6,240,1.6,238.9z"/>
				</g>
				<g>
					<path class="st7" d="M29.7,238.9c0-2,1.7-3.7,3.7-3.7c2,0,3.7,1.7,3.7,3.7s-1.7,3.7-3.7,3.7C31.4,242.6,29.7,240.9,29.7,238.9z
						"/>
					<path class="st6" d="M31.4,238.9c0-1.1,0.9-2.1,2.1-2.1c1.1,0,2.1,0.9,2.1,2.1c0,1.1-0.9,2.1-2.1,2.1
						C32.3,240.9,31.4,240,31.4,238.9z"/>
				</g>
				<g>
					<path class="st7" d="M45.7,238.9c0-2,1.7-3.7,3.7-3.7c2,0,3.7,1.7,3.7,3.7s-1.7,3.7-3.7,3.7C47.3,242.6,45.7,240.9,45.7,238.9z
						"/>
					<path class="st6" d="M47.3,238.9c0-1.1,0.9-2.1,2.1-2.1c1.1,0,2.1,0.9,2.1,2.1c0,1.1-0.9,2.1-2.1,2.1
						C48.2,240.9,47.3,240,47.3,238.9z"/>
				</g>
				<rect x="18.6" y="183.6" class="st8" width="31.9" height="23.5"/>
				<rect x="2.6" y="183.6" class="st6" width="31.9" height="23.5"/>
			</g>
			<g>
				<path class="st9" d="M17,174.7v8.9H8v-9c0-0.1,0-0.2,0-0.3c0.1-1,0.8-1.9,1.7-2.3c0.6-0.3,1.1-0.9,1.1-1.6l0.1-1.3h3.3l0,1.3
					c0,0.7,0.5,1.3,1.1,1.6c0.9,0.4,1.6,1.2,1.7,2.3C17,174.5,17,174.6,17,174.7z"/>
				<polygon class="st4" points="14.5,169.8 10.6,169.8 10.7,168.8 14.4,168.8 				"/>
				<path class="st10" d="M17,174.7v5.8H8v-5.8c0-0.1,0-0.2,0-0.3h9C17,174.5,17,174.6,17,174.7z"/>
			</g>
			<g>
				<path class="st9" d="M24.4,178.6v5h-5v-5c0,0,0-0.1,0-0.1c0.1-0.6,0.4-1.1,0.9-1.3c0.4-0.2,0.6-0.5,0.6-0.9l0-0.7h1.8l0,0.7
					c0,0.4,0.3,0.7,0.6,0.9c0.5,0.2,0.9,0.7,0.9,1.3C24.4,178.5,24.4,178.6,24.4,178.6z"/>
				<polygon class="st4" points="23,175.9 20.8,175.9 20.9,175.3 22.9,175.3 				"/>
				<path class="st10" d="M24.4,178.6v3.2h-5v-3.2c0,0,0-0.1,0-0.1h5C24.4,178.5,24.4,178.6,24.4,178.6z"/>
			</g>
		</g>
	</g>
</g>
<g>
	<g>
		<path class="st11" d="M115.9,101.5c-0.1,0.6-0.2,1.3-0.5,1.8c-0.5,0.7-1.3,1.1-2.1,1.4c-3.6,1.5-7.6-0.1-10.4-2.4
			c-2.3-1.9-4.1-4.3-5.7-6.9c-0.1-0.2-0.3-0.5-0.4-0.7c-0.8-1.4-1.6-3-1.1-4.5c0.1-0.2,0.1-0.4,0.2-0.6c0.1-0.2,0.2-0.4,0.3-0.5
			c0.1-0.2,0.2-0.4,0.3-0.7c1.1-2.8-0.4-7.5-1.1-10.3c-0.9-3.6-1.9-7.1-2.9-10.7c-1-3.6-1.9-7.4-3.1-11.1c-0.4-1.4-0.9-2.7-1.5-4
			c-2.1-5-18.7-30.5-18.7-30.5c-0.4-5.2,5.2-7,5.2-7s0.6,0.7,1.7,1.8c4.7,4.9,17.6,18.9,23.1,28.7c0.7,1.2,1.6,3.2,2.6,5.8
			c2.6,6.4,6.1,16.3,8.9,25.2c0.3,1,0.6,2,0.9,2.9c1.1,3.5,2.4,7.5,3.3,11.4C115.8,94.4,116.3,98.1,115.9,101.5z"/>
		<path class="st11" d="M76.2,16.6c0,0-1.6-2-3.4-4.6c-1.8-2.7-5.6-8.5-7.7-9.5c0,0-0.4-0.1-1.1-0.1c-0.1,0-0.2,0-0.3,0
			c-0.6,0-1.4,0.2-2.1,0.5c-0.1,0-0.1,0.1-0.2,0.1c-0.6,0.3-1.1,0.7-1.7,1.2c0,0-0.1,0.1-0.1,0.1c-0.4,0.4-0.8,0.9-1.1,1.6
			c0,0,4,5.9,4.6,8.2c0,0-3.3-2.9-4.6-2.4l-0.6,0.7c0,0,3.2,3.5,4.5,5.2c3.2,4.1,8.6,4.5,8.6,4.5S76.5,20.3,76.2,16.6z"/>
		<path class="st12" d="M59.7,4.2c0,0-0.1,0.1-0.1,0.1c2,2.5,3.6,5.2,5.3,8c0,0.1,0.1,0,0.1,0C63.8,9.2,61.9,6.6,59.7,4.2z"/>
		<path class="st12" d="M61.5,2.9c-0.1,0-0.1,0.1-0.2,0.1c2,2.5,3.6,5.2,5.3,8c0,0.1,0.1,0,0.1,0C65.6,7.8,63.7,5.2,61.5,2.9z"/>
		<path class="st12" d="M63.9,2.4c-0.1,0-0.2,0-0.3,0c1.9,2.4,3.4,5,5,7.5c0,0.1,0.1,0,0.1,0C67.8,7,66,4.6,63.9,2.4z"/>
	</g>
	<path class="st13" d="M71.1,83.4c-0.5-0.4-1-0.9-1.6-1.3c-2.5-1.7-4.3-5.3-3.9-8.4c0.3-2.1,1.5-4,2.8-5.6c1.8-2.3,4.2-4.4,7.1-4.6
		c0.3,0,0.5,0,0.7-0.1c0.3-0.1,0.5-0.4,0.8-0.6c3.7-3.4,8.7,0.7,10.6,4.1c1.2,2.2,1.6,4.8,0.7,7.1c-0.8,2.1-2.4,3.6-3.8,5.3
		c-1.4,1.6-2,2.5-2.6,4.5c-0.4,1.2-1.7,1.8-2.9,2c-1.8,0.4-3.8,0.1-5.5-0.6C72.6,84.8,71.8,84.1,71.1,83.4z"/>
	<path class="st11" d="M137.1,153c0,0.9-0.1,1.9-0.5,2.7c-0.8,1.7-2.6,2.7-4.3,3.4c-5.3,2.3-11.3,3.2-17,1.9
		c-6.8-1.6-10.3-7-12.8-12.8c-0.7-1.5-1.3-3.1-1.9-4.6c-3.3-8.6-8.7-14.5-15.7-20.3c-0.2-0.2-0.5-0.4-0.7-0.6
		c-5.1-4.3-9.2-9.2-14.1-13.9c-0.3-0.3-0.4-0.8-0.1-1.2c0.4-0.6,1.1-1.5,2.1-2.7c1.5-1.6,3.6-3.7,6.4-5.7c1.3-0.9,2.8-1.9,4.5-2.7
		c0,0,0.1,0,0.1-0.1c0.3-0.2,0.5-0.3,0.8-0.4c0.1,0,0.2-0.1,0.3-0.1c0.4-0.2-4.1-7.4-4.6-8c-0.6-0.7-1.2-1.4-1.2-2.2
		c0-0.1,0-0.2,0.1-0.3c0,0,0-0.1,0.1-0.1c0.1,0,0.1-0.1,0.2-0.1c0.1,0,0.2,0,0.3,0c0.1,0,0.3,0.1,0.4,0.1c0.1,0,0.3,0,0.4,0.1
		c0.3,0,0.5,0.1,0.8,0.1c0.2,0,0.5,0.1,0.8,0.1c0.5,0,1,0,1.6,0c0.1,0,0.1,0,0.2,0c0.1,0,0.3,0,0.5,0c0,0,0.1,0,0.2,0
		c0.2,0,0.4,0,0.6-0.1c0.3,0,0.7-0.1,1-0.1c0.3-0.1,0.7-0.1,1-0.2c0.4-0.1,0.8-0.2,1.2-0.3c0.6-0.2,1.4-0.7,2.1-0.8
		c0.2,0,0.3,0,0.5,0c0.9,0.2,1.7,1.3,2.2,1.9c0.4,0.5,1.4,1.9,1.6,2.1c0.4,0.5,0.8,1,1.3,1.4c0.3,0.2,0.6,0.3,0.8,0.4
		c0.1,0,0.2,0,0.4,0c0.4,0,0.7-0.2,1.2-0.3c1.6-0.7,5.2-2.2,8.6-3.2c2.4-0.7,5.7-2.4,6.4-1c0.9,1.9,1.8,3.8,2.6,5.7
		c3.5,8,6.5,16.2,10.3,24.1c5.4,11.2,9.4,23.1,11.5,35.4C137,151.2,137.1,152.1,137.1,153z"/>
	<path class="st12" d="M93.3,87.3c-3,2.2-9.8,4.4-14.9-2.1c0,0-0.1-0.1-0.1-0.1c0,0,0.2,0,0.3,0.1c0.2,0,0.4,0.1,0.7,0.1
		c0.1,0,0.3,0,0.4,0.1c0.4,0.1,1,0.1,1.5,0.2c0.5,0,1,0,1.6,0c0.8,0,1.5-0.1,2.4-0.2c0.7-0.1,1.5-0.3,2.2-0.5
		c0.7-0.2,1.4-0.5,2.1-0.8c0.2,0,0.3,0,0.5,0c0.9,0.2,1.7,1.3,2.2,1.9C92.6,86.3,93,86.8,93.3,87.3z"/>
	<path class="st11" d="M84.4,65.8c1.7,0.4,3.4,2.8,5.2,5.4c5.4,7.9,4.6,12,0.8,15.1c-3.8,3.1-9.2,4.3-14.9-2.7
		c-2.8-3.5-5.5-6.6-5.2-9.1C70.8,70.8,79.1,64.5,84.4,65.8z"/>
	<path class="st11" d="M75.4,82.2c0,0-3.4-2.5-4.3,0.5c-0.9,3.1,5.1,6.3,8,4C79.1,86.7,77.1,82.7,75.4,82.2z"/>
	<path class="st12" d="M73,83.6c0.5-0.2,1.2-0.1,1.7,0c0.5,0.1,1.2,0.2,1.6,0.6c0.1,0.1,0,0.3-0.1,0.3c-0.4-0.1-0.8-0.2-1.2-0.3
		c-0.1,0.3-0.1,0.6-0.3,0.8c-0.1,0.2-0.4,0-0.4-0.2c0-0.3,0.1-0.5,0.2-0.8c-0.5,0-1,0-1.4-0.1C72.9,83.9,72.9,83.7,73,83.6z"/>
	<path class="st13" d="M85.9,73.3c0,0,0.9-0.2,0-1.4c-0.8-1.1-1.2-0.6-1.2-0.6s-0.5,0.3,0.2,1.2C85.6,73.5,85.9,73.3,85.9,73.3z"/>
	<path class="st13" d="M78.8,77.8c0,0,0.9-0.2,0-1.4c-0.8-1.1-1.2-0.6-1.2-0.6s-0.5,0.3,0.2,1.2C78.5,78,78.8,77.8,78.8,77.8z"/>
	<path class="st12" d="M84.9,78.6c0.3-0.3,1.3-0.6,1.2-1.1c-0.1-0.4-1.8-1.9-2.1-2.2c-1-1-1.8-1.6-3-2.8c0-0.1,0-0.2,0.1-0.1
		c2,1.3,3.8,3.4,5.5,5.1c0.1,0.1,0.1,0.3,0,0.3c-0.5,0.3-1,0.8-1.5,1.1C84.9,79,84.7,78.7,84.9,78.6z"/>
	<path class="st13" d="M82.7,70c0.3-0.6,1.2-1.2,1.9-1c0.1,0.1,0.1,0.3,0,0.3c-0.3,0.1-0.6,0.2-0.8,0.3c-0.3,0.2-0.5,0.4-0.7,0.6
		C83,70.5,82.6,70.3,82.7,70z"/>
	<path class="st13" d="M75.8,75.3c-0.2-0.9,1-1.8,1.8-1.7c0.2,0,0.2,0.3,0.1,0.4c-0.2,0.3-0.6,0.4-1,0.6c-0.3,0.2-0.4,0.5-0.6,0.7
		C76.1,75.6,75.8,75.5,75.8,75.3z"/>
	<path class="st10" d="M88.2,80c0,0-2.3,2-4.9,2.1c0,0,1.7,1.2,3.5,0.7C88.7,82.1,88.2,80,88.2,80z"/>
	<path class="st11" d="M31.3,297.2c4.2,1,9.8,0.1,14.1,0.1c3.3,0,6.5,0,9.8,0c3.1,0,6.7,1.5,7.4-2.7c0.3-2.3-0.1-4.6-0.3-6.8
		c0-0.1,0-0.1,0-0.2c-0.2-3.4,1.5-7,3.7-10.2c1.8-2.7,3.9-5.2,5.4-7.3c5.8-8.1,10.8-16.3,14.6-25.5c3.9-9.5,7.1-19.4,12.3-28.4
		c5-8.6,12-18.2,17.2-28.2c0.2-0.5,0.5-0.9,0.7-1.4c5.2-10.3,8.3-21.2,5.5-32.1c-0.5-2.1-1.5-4-2.9-5.4c-0.5-0.5-1-1-1.5-1.6
		c-0.8-0.9-1.6-2-2.4-3.1c-3.7-5.1-7.3-10.5-11-6.7c-1,1-2.1,3-3.2,5.4c-2.9,6.3-5.8,15.7-7,19.2C84.1,189.4,76.1,217,66.2,244
		c-0.4,1.1-1,2.8-1.7,4.7c-2.3,6.5-5.8,16.6-8.9,24.5c-2,4.9-3.8,8.9-5,10.6c-0.2,0.2-0.3,0.4-0.5,0.6c-2,2.4-4.9,4.2-7.9,5.5
		c-3.2,1.4-6.5,2.5-9.7,4C31.8,294.2,29.1,296.6,31.3,297.2z"/>
	<path class="st11" d="M116.1,186.4c2.3,9.5,5.6,18.9,7.6,27.2c2.6,10.4,2.9,21.2,4,31.9c1.1,10.3,3.8,19.9,7.1,29.6
		c0.4,1.1,0.7,2.1,1,3.2c1,3.2,1.7,6.2,2.2,9.4c0.2,1.3,0.3,2.7,0.4,4.1c0.1,0.9,0.1,1.9,0.7,2.7c0.9,1.3,2.7,1.6,4.3,1.8
		c7.7,0,15.4,0.3,23.1,0c0.5,0,1-0.1,1.3-0.4c0.5-0.5,0.4-1.4-0.1-1.9c-0.5-0.5-1.2-0.7-1.9-0.9c-3.5-0.9-6.6-2.4-10.1-3.3
		c-1.6-0.4-3.2-0.9-4.4-1.8c-1.2-0.9-2-2.2-2.5-3.6c-0.8-2.3-1-4.9-1-7.3c0-0.6-1.2-40.4-1.7-51.4c-0.5-12.8-0.6-25.4-1.7-38.2
		c-0.8-8.5-1.1-17.7-2.8-26.3c-0.7-3.6-1.6-7.2-2.8-10.6c-1.2-3.3-2.9-6.7-5.8-8.7c-0.4-0.3-0.8-0.5-1.2-0.7
		c-5-2.5-9.6-1.4-12.7,2.8c-0.3,0.4-0.5,0.8-0.8,1.2c-0.4,0.7-0.8,1.4-1.1,2C111.3,159.1,112.8,173,116.1,186.4z"/>
	<path class="st14" d="M147.7,277.1c-0.3,0.2-0.7,0.4-1.1,0.6c-0.7,0.3-1.5,0.5-2.4,0.6c-0.7,0.1-1.3,0.1-2,0.1
		c-3.2-0.1-6.3,0-6.3,0c-0.3-1-0.7-2.1-1-3.2c-3.4-9.7-6-19.3-7.1-29.6c-0.5-4.8-0.9-9.7-1.4-14.6c-0.6-5.8-1.3-11.6-2.7-17.3
		c-2-8.3-5.2-17.6-7.6-27.2l-0.7,1.4c-5.2,10.1-12.2,19.6-17.2,28.2c-5.2,9-8.4,18.8-12.3,28.4c-3.8,9.2-8.9,17.4-14.6,25.5
		c-1.5,2.1-3.6,4.6-5.4,7.3c-4,0.2-10.4-4.1-10.4-4.1c3.1-7.9,6.7-18,8.9-24.5c0.7-2,1.3-3.6,1.7-4.7c10-26.9,17.9-54.6,27.4-81.8
		c1.2-3.5,4.1-12.9,7-19.2c5.1,0.9,10,1.3,14.3,1.3c1.5,0,2.9-0.1,4.2-0.1c2-0.1,3.9-0.3,5.6-0.5c0.2,0,0.4-0.1,0.7-0.1
		c1.2-0.2,2.2-0.3,3.2-0.5c0.4-0.1,0.7-0.1,1.1-0.2c1.3-0.3,2.5-0.5,3.3-0.8c2.8,2,4.6,5.3,5.8,8.7c1.2,3.4,2.1,7,2.8,10.6
		c1.6,8.7,2,17.8,2.8,26.3c1.1,12.7,1.2,25.4,1.7,38.2C146.5,236.7,147.7,276.5,147.7,277.1z"/>
	<path class="st13" d="M62.6,294.5c-0.7,4.2-4.2,2.7-7.4,2.7c-3.3,0-6.5,0-9.8,0c-4.3,0-9.9,1-14.1-0.1c-2.2-0.5,0.5-3,1.2-3.3
		c3.2-1.5,6.5-2.5,9.7-4c3-1.3,5.8-3,7.9-5.5c0.1,0,0.3-0.1,0.5-0.1c2.2-0.3,4.5,1.3,4.8,3.5c1.8,1.5,4.6-0.3,6.9-0.2
		C62.4,289.9,62.9,292.2,62.6,294.5z"/>
	<path class="st13" d="M167.9,296c-0.3,0.3-0.9,0.3-1.3,0.4c-7.8,0.3-15.4,0-23.1,0c-1.6-0.1-3.4-0.4-4.3-1.8
		c-0.5-0.8-0.6-1.8-0.7-2.7c-0.1-1.4-0.2-2.8-0.4-4.1c2.3-0.5,5.4,1.8,7.4,0.1c0.3-1.7,1.7-3.1,3.3-3.5c0.5,1.4,1.3,2.7,2.5,3.6
		c1.3,1,2.9,1.4,4.4,1.8c3.5,0.9,6.6,2.4,10.1,3.3c0.7,0.2,1.4,0.4,1.9,0.9C168.3,294.6,168.4,295.5,167.9,296z"/>
	<path class="st11" d="M114.5,166.9c-0.5-1.7-2.4-2.6-4.1-2.6c-1.1,0-2.1,0.2-3.1,0.4c-0.7,0.2-1.3,0.4-2,0.6
		c-1.6,0.4-3,0.5-4.5,0.3c-5.8-0.9-10.9-4.4-15.6-7.8c-2.4-1.8-4.6-3.8-7.1-5.5c-2.6-1.8-3.3-2.3-2.2-5.7c0-0.1,0.1-0.2,0.1-0.3
		c2.7-7.9,8.3-24.2,8.4-24.6c0.7-2,1.4-4.1,1.5-6.3c0.3-6.7-8-15.2-13.9-10.5c-0.6,0.5-1.2,1.1-1.7,1.9c-1.1,1.6-1.7,3.5-2.2,5.3
		c-2.1,7.2-3.9,14.4-5.5,21.7c-0.6,2.7-1.2,5.4-1.6,8.1c-0.2,1.2-0.3,2.5-0.5,3.7c-0.3,3.2-0.8,7.9,0.6,10.9
		c2.4,4.9,9.3,7.9,14.1,9.7c5.3,1.9,10.7,3.5,16.1,5.1c3.5,1,7.2,2,10.8,2.8c1.3,0.3,2.8,0.5,4.1,0.7c0.9,0.1,1.7,0.2,2.5,0.3
		C112.5,175.3,115.6,170.4,114.5,166.9z M102.1,167.1c0,0,0.1,0,0.1,0C102.2,167.1,102.2,167.1,102.1,167.1z"/>
	<path class="st15" d="M135.8,143.7c-0.1,0.2-0.2,0.4-0.3,0.6c-0.8,1.3-2.5,1.9-4,2.2c-4.6,1-9.3,1-14,0.9
		c-5.1-0.1-10.3-0.2-15.2-1.5c-0.9-0.2-1.7-0.5-2.4-1.1c-0.6-0.5-1-1.2-1.3-1.9c-0.2-0.5-0.4-1-0.6-1.5c-2.7-7.6-6.9-13.3-13.1-18.3
		c-0.2-0.2-0.5-0.4-0.7-0.6c-2.7,7.8-5.4,15.7-8.1,23.6c-4.4-0.5-8.7-1.6-12.8-3.3c-0.8-0.3-1.5-0.6-2.2-1c0.4-2.7,1-5.4,1.6-8.1
		c1.6-7.3,3.4-14.5,5.5-21.7c0.5-1.9,1.1-3.7,2.2-5.3c0.5-0.8,1.1-1.4,1.7-1.9c1.5-1.6,3.6-3.7,6.4-5.7c1.3-0.9,2.8-1.9,4.5-2.7
		c0,0,0.1,0,0.1-0.1c0.3-0.2,0.5-0.3,0.8-0.4c2.6,1.1,4.5,2.9,7.5,3.4c2,0.3,4.5,0,5.5-1.8c0.3-0.6,0.4-1.3,0.4-2
		c0-0.6-0.1-1.3-0.2-1.9c-0.2-1.3-0.8-4.2-0.8-4.4c0.1-0.2,0.2-0.4,0.3-0.7c1.1-2.8-0.4-7.5-1.1-10.3c-0.9-3.6-1.9-7.1-2.9-10.7
		c-1-3.6-1.9-7.4-3.1-11.1c1.2-2.2,4-3.6,6.5-4.3c1.9-0.6,4-0.9,6-0.8c2.6,6.4,6.1,16.3,8.9,25.2c0.3,1,0.6,2,0.9,2.9
		c3.4,11.3,8.3,22.1,13.4,32.8c4.3,9,7.7,18.2,10.5,27.7C135.9,141.1,136.3,142.5,135.8,143.7z"/>
	<path class="st14" d="M98.5,143c-0.2-0.5-0.4-1-0.6-1.5c-2.7-7.6-6.9-13.3-13.1-18.3c-0.2-0.2-0.5-0.4-0.7-0.6l1.8-7.3
		C86,115.3,96.7,123.4,98.5,143z"/>
	<path class="st16" d="M126.4,230.8c-0.5-5.8-1.3-11.6-2.7-17.2c-2-8.3-5.2-17.6-7.6-27.2l1.9-9.4c0,0,8.2,17.6,9.1,33.1
		C127.5,216.5,127.1,224.1,126.4,230.8z"/>
</g>
</svg>
