<?xml version="1.0" encoding="utf-8"?>
<!-- Generator: Adobe Illustrator 25.0.0, SVG Export Plug-In . SVG Version: 6.00 Build 0)  -->
<svg version="1.1" id="Layer_1" xmlns="http://www.w3.org/2000/svg" xmlns:xlink="http://www.w3.org/1999/xlink" x="0px" y="0px"
	 viewBox="0 0 300 300" style="enable-background:new 0 0 300 300;" xml:space="preserve">
<style type="text/css">
	.st0{opacity:8.000000e-02;fill:#E13856;enable-background:new    ;}
	.st1{opacity:0.1;fill:#103248;}
	.st2{fill:#EA2424;}
	.st3{opacity:0.2;fill:#000912;}
	.st4{fill:#FFD3B5;}
	.st5{opacity:0.5;fill:#F7996F;}
	.st6{fill:#FFE385;}
	.st7{opacity:0.1;fill:#000912;}
	.st8{opacity:0.9;fill:#FFD3B5;}
	.st9{opacity:0.2;fill:#F7996F;}
	.st10{fill:#1C3E59;}
	.st11{fill:#F7996F;}
	.st12{fill:#000912;}
	.st13{fill:#FFFFFF;}
	.st14{fill:#64E1D3;}
	.st15{fill:#78ADF9;}
	.st16{fill:#8BEDE0;}
	.st17{fill:#4888EF;}
</style>
<g id="Page-1">
	<g id="For-you-and-your-partner-Copy-4">
		<g id="Group-4">
			<circle id="Mask-Copy-2" class="st0" cx="150" cy="150" r="150"/>
		</g>
	</g>
</g>
<g>
	<g>
		<ellipse class="st1" cx="138.2" cy="266.3" rx="122.3" ry="11.4"/>
		<path class="st2" d="M49.8,98.2c0,0-35.9-8.7-39.8,46.1C6.2,199.1-27.8,271.4,96.9,269c124.7-2.4,131.5-44.2,117.4-81.5
			C203.2,157.8,119.7,112.7,49.8,98.2z"/>
		<path class="st3" d="M124.1,266.6C24.8,268.5,7.5,219.5,6.6,171.9C-0.7,220.6-7.6,271,96.9,269c17.3-0.3,32.3-1.4,45.3-3.2
			C136.5,266.2,130.5,266.5,124.1,266.6z"/>
		<g>
			<path class="st3" d="M214.4,187.5c-11.2-29.7-94.6-74.7-164.5-89.3c0,0-29.6-7.2-38,32.5c10.7-11.6,18.1-7.2,18.1-7.2
				c12,2.4,17.7,13.4,28.1,20.9c29.9,21.5,65.3,47.1,86.9,64.1c10.8,8.5,29.6,2.9,39.8,7.3c10,4.3,18,28.1-2.8,41
				C223.9,241.1,224.1,213.2,214.4,187.5z"/>
		</g>
	</g>
	<g>
		<g>
			<g>
				<path class="st4" d="M59.2,143c0,0-37.8-52.4-18.1-72S77,113.8,77,113.8S73.2,134.8,59.2,143z"/>
				<path class="st5" d="M77,113.8c0,0-10.7-41-25.2-46.1c-10.9,17.8,10.4,52.8,18,64.4C75.3,123.4,77,113.8,77,113.8z"/>
			</g>
			<g>
				<g>
					<path class="st4" d="M104,85.6c0,0,35.5-8.4,49.3-2.2c9.9,4.4,11.3,8.9,7.4,18.3c-3.9,9.4-19.5,28.6-33.5,36
						c-14.1,7.4-22.9-19.2-22.9-19.2s23.2-16.5,30.3-19.7c0,0-14.6,2.2-35.3-2.7C78.6,91.1,104,85.6,104,85.6z"/>
					<path class="st5" d="M115.8,83.3c-6.9,1.1-11.8,2.3-11.8,2.3S78.6,91.1,99.3,96c7.8,1.9,14.7,2.7,20.3,3
						C118.7,93.7,117.4,88.5,115.8,83.3z"/>
					<path class="st5" d="M149.2,116c-7.4-4.9-15.5-10-24.3-11.6c-9.7,6.1-23.4,16.1-23.4,16.1s9,27.2,23.3,19.6
						c9.1-4.8,19-14.8,25.8-23.2C150.2,116.6,149.6,116.3,149.2,116z"/>
				</g>
				<g>
					<path class="st6" d="M128.4,138.9c0,0,13.3-8.6,18.5-14.3c0,0-5.3-13.3-24.7-20l-21,11.6L128.4,138.9z"/>
					<path class="st7" d="M142.8,118.3c-6.4,4.8-19.5,10.7-19.5,10.7l-14.9-16.8l-7.2,4l27.1,22.7c0,0,13.3-8.6,18.5-14.3
						C146.9,124.6,145.8,121.9,142.8,118.3z"/>
				</g>
			</g>
			<g>
				<path class="st6" d="M120,119.8c-15.7-12.5-40.1-4.8-44-3.5l-4-8.4l-21.6,24.8c2.6,4.9,9.6,13.2,10.2,13.8
					c1,5.6,33.5,48.3,63.1,56.4l37.9-37.7C161.5,165.1,137.1,133.4,120,119.8z"/>
				<path class="st7" d="M114.6,117.3c0.1-0.2,0.3-0.5,0.5-0.7c-15.5-7.9-35.7-1.6-39.2-0.4l-4-8.4L61.4,120
					C71.1,132.4,99.6,142.6,114.6,117.3z"/>
			</g>
		</g>
		<g>
			<g>
				<path class="st8" d="M63.1,77.7c0,0,19.6-15.4,29.6-7c10,8.4,19.8,38.1,19.8,38.1s-15.6,8.6-32.4,11.5
					C80.1,120.4,65.7,101,63.1,77.7z"/>
				<path class="st9" d="M85.8,109.2c-3.1-4.4-5.5-9.5-7.5-14.4c-2.4-6.1-4-12.4-3.9-19c0-0.2,0.1-0.4,0.2-0.5
					c-0.7-1.2-1.4-2.3-2.2-3.4c-5.2,2.6-9.2,5.7-9.2,5.7c2.6,23.3,17,42.7,17,42.7c5.6-1,11-2.6,15.8-4.3c-0.1,0-0.1,0-0.2,0
					C91.4,115.2,88.3,112.8,85.8,109.2z"/>
				<path class="st10" d="M108.1,96.9c0,0,3.7,8.1,2.8,9.7c-1,1.6-2.1-9.7-8.7-6.6c-6.6,3.1-16.1,2-15.8,9.1
					c0.3,7.1,1.7,8.4-1.5,8.2c-3.2-0.2-9.4-3.4-15.4-28.3c0,0,3.6-1.9,0-11c0,0,15,5.8,24.9-2.9l-8.9-1.5c0,0,8.4,1.3,15.5-2.3
					l-6.5-1.6c0,0,7.8-0.6,8.7-8.3c0,0-7.1,0.3-16.3-2.6c-0.4-0.1-0.8-0.2-1.3-0.4c0.1,0,0.2,0,0.2,0C87,58.8,88,59,89,59.2
					c1,0.2,1.9,0.4,2.7,0.6c0.8,0.2,1.5,0.3,2.1,0.3c0.3,0,0.6,0,0.8,0c0.1,0,0.2,0,0.3,0c0.1,0,0.2,0,0.3,0
					c0.3-0.1,0.5-0.1,0.5-0.1s-0.2,0-0.5-0.1c-0.1,0-0.2,0-0.3,0c-0.1,0-0.2-0.1-0.3-0.1c-0.2-0.1-0.5-0.1-0.7-0.2
					c-0.5-0.2-1.2-0.5-1.9-0.8c-0.7-0.3-1.6-0.7-2.5-1.1c-0.5-0.2-1-0.4-1.5-0.6c-0.5-0.2-1.1-0.4-1.6-0.5c-0.6-0.2-1.2-0.3-1.8-0.5
					c-0.3-0.1-0.6-0.1-0.9-0.2c-0.3,0-0.6-0.1-1-0.1c-0.6-0.1-1.3-0.1-2-0.2c-0.7-0.1-1.4,0-2,0l-0.5,0l-0.5,0
					c-0.4,0-0.7,0.1-1.1,0.1c-0.2,0-0.4,0-0.5,0.1l-0.5,0.1l-1,0.2c-1.4,0.3-2.8,0.7-4.1,1.3c-1.3,0.6-2.5,1.4-3.5,2.4
					c-1,0.9-1.8,1.9-2.5,3c-0.6,1-1.1,2.1-1.5,3c-0.6,1.8-0.9,3.3-1,4.5c0,0,0,0.1,0,0.1c0,0-6.1,0.3-8.7,8.1
					c-3.4,10.3,8.9,21.5,8.9,21.5s2.9-3.7,5.7,2.4c2.8,6.1,5.1,21.4,16.8,23.7c11.6,2.3,29.4-1.7,30.8-11.3
					C116.9,105.2,108.1,96.9,108.1,96.9z"/>
				<path class="st3" d="M105.1,119.8c-4.7,1.1-10.6,2.1-15.1-0.4c-1.3-0.7-2.4-1.6-3.3-2.6c-0.2,0.5-0.8,0.6-1.9,0.6
					c-3.2-0.2-9.4-3.4-15.4-28.3c0,0,3.6-1.9,0-11c0,0,2.2,0.8,5.4,1.4c-2.3-2.4-4-5.4-4.6-8.3c-1-4.7-0.3-9.5,0.8-14.1
					c-0.2,0.1-0.4,0.2-0.5,0.2c-1.3,0.6-2.5,1.4-3.5,2.4c-1,0.9-1.8,1.9-2.5,3c-0.6,1-1.1,2.1-1.5,3c-0.6,1.8-0.9,3.3-1,4.5
					c0,0,0,0.1,0,0.1c0,0-6.1,0.3-8.7,8.1c-3.4,10.3,8.9,21.5,8.9,21.5s2.9-3.7,5.7,2.4c2.8,6.1,5.1,21.4,16.8,23.7
					c11.4,2.2,28.7-1.6,30.7-10.8C112.4,117.5,108.8,119,105.1,119.8z"/>
				<path class="st4" d="M68,101.3c0,0-3.2-5.8-5.5-5.7c-2.3,0.2-6,1.8-4.2,6.5c1.8,4.7,7.7,8.6,11.9,7.1
					C70.2,109.2,71.1,106,68,101.3z"/>
				<path class="st9" d="M68,101.3c0,0-3.2-5.8-5.5-5.7c-2.3,0.2-6,1.8-4.2,6.5c1.8,4.7,7.7,8.6,11.9,7.1
					C70.2,109.2,71.1,106,68,101.3z"/>
			</g>
			<g>
				<g>
					<path class="st11" d="M96.6,101.7c2.1-1.7,4.3-3.3,6.5-4.9l-0.1,0.9c-1-1-1.9-2-2.9-3c-0.9-1-1.8-2.1-2.7-3.1
						c-1.8-2.1-3.5-4.3-5-6.7c2.2,1.8,4.2,3.7,6.1,5.8c0.9,1,1.9,2,2.8,3.1c0.9,1,1.8,2.1,2.6,3.2l0.4,0.6l-0.6,0.3
						C101.4,99.2,99.1,100.5,96.6,101.7z"/>
				</g>
				<g>
					<path class="st12" d="M94.7,84.5c0.7,1,1.4,1.8,2.2,2.5c0.4,0.3,0.8,0.5,1.3,0.6c0.4,0.1,0.9,0.1,1.3,0c1-0.2,1.4-0.6,1.4-1.6
						c0-1-0.4-2.1-0.8-3.2c0.9,0.8,1.7,1.7,2,3c0.2,0.6,0.1,1.5-0.4,2.1c-0.2,0.3-0.6,0.5-0.9,0.8c-0.3,0.1-0.7,0.3-1,0.3
						c-0.7,0.2-1.4,0.1-2.1-0.1c-0.7-0.2-1.2-0.6-1.6-1.1C95.2,86.8,94.8,85.7,94.7,84.5z"/>
				</g>
				<g>
					<path class="st12" d="M78.2,91.2c0.7,1,1.4,1.8,2.2,2.5c0.4,0.3,0.8,0.5,1.3,0.6c0.4,0.1,0.9,0.1,1.3,0c1-0.2,1.4-0.6,1.4-1.6
						c0-1-0.4-2.1-0.8-3.2c0.9,0.8,1.7,1.7,2,3c0.2,0.6,0.1,1.5-0.4,2.1c-0.2,0.3-0.6,0.5-0.9,0.8c-0.3,0.1-0.7,0.3-1,0.3
						c-0.7,0.2-1.4,0.1-2.1-0.1c-0.7-0.2-1.2-0.6-1.6-1.1C78.7,93.5,78.3,92.3,78.2,91.2z"/>
				</g>
				<g>
					<path class="st12" d="M74.3,89c-0.3-1.3,0-2.4,0.6-3.5c0.6-1,1.4-1.9,2.5-2.5c1.1-0.6,2.3-0.9,3.5-0.8c1.2,0.1,2.4,0.5,3.3,1.4
						c-1.1,0.7-2,1.1-2.7,1.6c-0.8,0.4-1.5,0.8-2.1,1.2l-2.2,1.2C76.3,87.9,75.4,88.4,74.3,89z"/>
				</g>
				<g>
					<path class="st12" d="M91.5,82.7c-0.3-1-0.1-2,0.2-2.8c0.4-0.9,0.9-1.7,1.8-2.3c0.8-0.6,1.9-1,2.9-0.9c1.1,0,2,0.5,2.7,1.3
						c-1,0.5-1.6,0.8-2.2,1.1c-0.5,0.4-1,0.7-1.5,1.1c-0.5,0.4-1,0.8-1.7,1.2C93.1,81.8,92.4,82.2,91.5,82.7z"/>
				</g>
				<path class="st13" d="M89.8,107.9c0,0,10.4-2.2,17.1-5.5C106.9,102.4,103.3,112.5,89.8,107.9z"/>
				<g>
					<path class="st11" d="M68.1,107.4c-0.5,0.1-1.1,0.2-1.6,0.1c-0.3-0.1-0.6-0.1-0.9-0.3c-0.3-0.2-0.5-0.5-0.6-0.9
						c-0.1-0.4-0.1-0.7,0-1.1c0.1-0.4,0.3-0.7,0.5-0.9c0.5-0.5,1.1-0.7,1.8-0.9l-0.6,1c-0.4-0.7-0.8-1.4-1.2-2
						c-0.4-0.7-0.8-1.3-1.3-2c-0.5-0.6-0.9-1.2-1.5-1.7c-0.6-0.5-1.3-0.7-2-0.2c0.2-0.3,0.6-0.7,1.1-0.7c0.5-0.1,1,0,1.4,0.2
						c0.8,0.4,1.5,1,2.1,1.6c0.6,0.6,1.1,1.3,1.5,2c0.5,0.7,0.8,1.4,1.2,2.2l0.5,0.9l-1,0.1c-0.4,0-0.8,0.2-1.1,0.4
						c-0.1,0.1-0.2,0.2-0.3,0.4c-0.1,0.1-0.1,0.3-0.1,0.5c0,0.1,0,0.3,0.2,0.4c0.1,0.1,0.3,0.3,0.5,0.4
						C67.1,107.1,67.6,107.3,68.1,107.4z"/>
				</g>
			</g>
		</g>
		<g>
			<g>
				<path class="st4" d="M209.7,244.8c0,0-3.3,16.2-1.2,18.9c2.1,2.7,55.2,15.3,11.9-3.7c0,0,6.7-29.9,8.5-38.7
					C230.6,212.4,209.7,244.8,209.7,244.8z"/>
				<path class="st5" d="M208.2,254.4c4.4,0.4,8.9,0.5,13.4,0.2c2-9,6-27,7.3-33.4c1.8-8.8-19.1,23.6-19.1,23.6
					S208.7,249.6,208.2,254.4z"/>
				<path class="st13" d="M225.3,260.1l-4.8,5.4l-14.6-3.4l-0.1,2.5c0,0,33.2,9.8,32.8,5.1C238.3,265.2,225.3,260.1,225.3,260.1z"/>
				<g>
					<path class="st14" d="M161.3,169.1c0,0,63.8-8.2,73.9,2.9c10.1,11.1-3.2,72-10.2,80.6c0,0-10.9,2.7-17.5-4.4l4.9-53.9
						c0,0-60.1,28.1-72.7,13C127.2,192.2,161.3,169.1,161.3,169.1z"/>
					<path class="st15" d="M161.3,169.1c0,0,63.8-8.2,73.9,2.9c10.1,11.1-3.2,72-10.2,80.6c0,0-10.9,2.7-17.5-4.4l4.9-53.9
						c0,0-60.1,28.1-72.7,13C127.2,192.2,161.3,169.1,161.3,169.1z"/>
				</g>
				<path class="st16" d="M206.7,244.7l0.6,6.3c0,0,11.6,5.4,19.9,1.4l0.6-2.4C227.7,249.9,213.5,247.3,206.7,244.7z"/>
				<path class="st15" d="M206.7,244.7l0.6,6.3c0,0,11.6,5.4,19.9,1.4l0.6-2.4C227.7,249.9,213.5,247.3,206.7,244.7z"/>
			</g>
			<g>
				<path class="st4" d="M258.5,198.1c0,0,10.7,12.6,14.1,12.6c3.4,0,46.1-34,4.4-11.6c0,0-19.4-23.8-25.2-30.6
					S258.5,198.1,258.5,198.1z"/>
				<path class="st5" d="M265.2,205.3c3-3.2,5.9-6.7,8.4-10.4c-5.8-7.1-17.5-21.4-21.8-26.4c-5.8-6.8,6.8,29.6,6.8,29.6
					S261.7,201.9,265.2,205.3z"/>
				<path class="st17" d="M122.6,205.5c0,0,27.9,14.2,45.4,4.9c17.5-9.3,53-45.4,53-45.4s28.7,29.3,40.7,38c0,0,11.1-6.7,11.1-12.1
					s-43.6-60.5-51.8-61.6C212.8,128.2,168.6,148.1,122.6,205.5z"/>
				<path class="st15" d="M256.5,200.7l5,3.2c0,0,10.8-5.5,12.6-14l-1.5-1.8C272.7,188.1,262.5,197.2,256.5,200.7z"/>
				<path class="st13" d="M280.2,195.4l1.3,7.1l-11.6,9.4l1.9,1.6c0,0,28.1-20.1,24.3-22.6C292.2,188.3,280.2,195.4,280.2,195.4z"/>
			</g>
		</g>
	</g>
	<g>
		<path class="st7" d="M134.3,174.6C108.8,152.4,74.2,144,56,140.9c2.2,2.9,4.2,5.2,4.5,5.5c1,5.6,33.5,48.3,63.1,56.4l7.1-7
			c-2.7,3.1-5.4,6.3-8,9.7c0,0,27.9,14.2,45.4,4.9c0.3-0.2,0.6-0.3,0.9-0.5C161.4,200.7,150.2,188.5,134.3,174.6z"/>
		<path class="st2" d="M38.2,138.9c0,0,67.9,5.3,128.6,84.9C212.8,284.2,38.2,189.4,38.2,138.9z"/>
	</g>
</g>
</svg>
