<?xml version="1.0" encoding="utf-8"?>
<!-- Generator: Adobe Illustrator 25.0.0, SVG Export Plug-In . SVG Version: 6.00 Build 0)  -->
<svg version="1.1" id="Layer_1" xmlns="http://www.w3.org/2000/svg" xmlns:xlink="http://www.w3.org/1999/xlink" x="0px" y="0px"
	 viewBox="0 0 300 300" style="enable-background:new 0 0 300 300;" xml:space="preserve">
<style type="text/css">
	.st0{opacity:0.6;}
	.st1{opacity:8.000000e-02;fill:#E13856;enable-background:new    ;}
	.st2{fill:#ECECEC;}
	.st3{fill:#F0F0F0;}
	.st4{fill:#F5F5F5;}
	.st5{fill:#E7E7E7;}
	.st6{fill:#FFFFFF;}
	.st7{fill:#FAFAFA;}
	.st8{opacity:0.4;fill:#E7E7E7;}
	.st9{fill:#E1E1E1;}
	.st10{fill:#F5A784;}
	.st11{fill:#E0855C;}
	.st12{fill:#3B2645;}
	.st13{fill:#059DD8;}
	.st14{fill:#24B6FF;}
	.st15{fill:#028DB7;}
	.st16{fill:#E02D2D;}
	.st17{fill:#005FD1;}
	.st18{fill:#1675D3;}
	.st19{fill:none;stroke:#469FF7;stroke-width:2;stroke-miterlimit:10;}
	.st20{fill:#469FF7;}
</style>
<g id="Page-1" class="st0">
	<g id="For-you-and-your-partner-Copy-4">
		<g id="Group-4">
			<circle id="Mask-Copy-2" class="st1" cx="150" cy="150" r="150"/>
		</g>
	</g>
</g>
<g>
	<g>
		<rect x="0.6" y="234.2" class="st2" width="299.4" height="0.1"/>
		<rect x="79.3" y="243.4" class="st2" width="19.8" height="0.1"/>
		<rect x="150.4" y="241.8" class="st2" width="5.2" height="0.1"/>
		<rect x="32" y="239.3" class="st2" width="11.5" height="0.1"/>
		<rect x="234" y="238.3" class="st2" width="15.6" height="0.1"/>
		<rect x="214.6" y="238.3" class="st2" width="14" height="0.1"/>
		<rect x="213.9" y="245.5" class="st2" width="56.1" height="0.1"/>
		<path class="st2" d="M142.5,207.5H26.9c-1.9,0-3.4-1.5-3.4-3.4V41.6c0-1.9,1.5-3.4,3.4-3.4h115.6c1.9,0,3.4,1.5,3.4,3.4v162.5
			C146,206,144.4,207.5,142.5,207.5z M26.9,38.3c-1.8,0-3.3,1.5-3.3,3.3v162.5c0,1.8,1.5,3.3,3.3,3.3h115.6c1.8,0,3.3-1.5,3.3-3.3
			V41.6c0-1.8-1.5-3.3-3.3-3.3H26.9z"/>
		<path class="st2" d="M272,207.5H156.4c-1.9,0-3.4-1.5-3.4-3.4V41.6c0-1.9,1.5-3.4,3.4-3.4H272c1.9,0,3.4,1.5,3.4,3.4v162.5
			C275.5,206,273.9,207.5,272,207.5z M156.4,38.3c-1.8,0-3.3,1.5-3.3,3.3v162.5c0,1.8,1.5,3.3,3.3,3.3H272c1.8,0,3.3-1.5,3.3-3.3
			V41.6c0-1.8-1.5-3.3-3.3-3.3H156.4z"/>
	</g>
	<g>
		<g>
			<g>
				
					<rect x="191.4" y="170.7" transform="matrix(-1 -1.224647e-16 1.224647e-16 -1 396.8822 403.1418)" class="st3" width="14.1" height="61.7"/>
				
					<rect x="140.7" y="232.4" transform="matrix(-1 -1.224647e-16 1.224647e-16 -1 343.4836 466.6187)" class="st3" width="62.1" height="1.8"/>
				<rect x="138" y="170.7" class="st4" width="53.4" height="61.7"/>
				<rect x="143.5" y="174.2" class="st3" width="42.3" height="26"/>
				<rect x="143.5" y="202.9" class="st3" width="42.3" height="26"/>
				<path class="st4" d="M175.7,178.7h-21.9c-2.9,0-5.2-2.3-5.2-5.2l0,0h32.3l0,0C180.9,176.4,178.5,178.7,175.7,178.7z"/>
				<path class="st4" d="M175.7,207.5h-21.9c-2.9,0-5.2-2.3-5.2-5.2l0,0h32.3l0,0C180.9,205.1,178.5,207.5,175.7,207.5z"/>
			</g>
		</g>
		<g>
			<g>
				
					<rect x="249" y="170.7" transform="matrix(-1 -1.224647e-16 1.224647e-16 -1 512.0518 403.1418)" class="st3" width="14.1" height="61.7"/>
				
					<rect x="198.3" y="232.4" transform="matrix(-1 -1.224647e-16 1.224647e-16 -1 458.6533 466.6187)" class="st3" width="62.1" height="1.8"/>
				<rect x="195.6" y="170.7" class="st4" width="53.4" height="61.7"/>
				<rect x="201.1" y="174.2" class="st3" width="42.3" height="26"/>
				<rect x="201.1" y="202.9" class="st3" width="42.3" height="26"/>
				<path class="st4" d="M233.2,178.7h-21.9c-2.9,0-5.2-2.3-5.2-5.2l0,0h32.3l0,0C238.4,176.4,236.1,178.7,233.2,178.7z"/>
				<path class="st4" d="M233.2,207.5h-21.9c-2.9,0-5.2-2.3-5.2-5.2l0,0h32.3l0,0C238.4,205.1,236.1,207.5,233.2,207.5z"/>
			</g>
		</g>
	</g>
	<g>
		
			<rect x="67.3" y="59.9" transform="matrix(-1 -1.224647e-16 1.224647e-16 -1 158.8264 147.7501)" class="st5" width="24.2" height="27.9"/>
		
			<rect x="64.6" y="59.9" transform="matrix(-1 -1.224647e-16 1.224647e-16 -1 155.4292 147.7501)" class="st4" width="26.3" height="27.9"/>
		
			<rect x="66" y="62.9" transform="matrix(-1.836970e-16 1 -1 -1.836970e-16 151.5896 -3.8396)" class="st6" width="23.5" height="21.9"/>
		<path class="st4" d="M83.3,79.9v-0.9c0-6.2-5-11.3-11.3-11.3l0,0v0.9C72.1,74.9,77.1,79.9,83.3,79.9L83.3,79.9z"/>
	</g>
	<g>
		
			<rect x="172.2" y="55.6" transform="matrix(-1 -1.224647e-16 1.224647e-16 -1 435.324 196.099)" class="st5" width="90.8" height="85"/>
		
			<rect x="169.4" y="55.6" transform="matrix(-1 -1.224647e-16 1.224647e-16 -1 431.1929 196.099)" class="st3" width="92.3" height="85"/>
		
			<rect x="172.2" y="140.5" transform="matrix(-1 -1.224647e-16 1.224647e-16 -1 435.324 284.0865)" class="st5" width="90.8" height="3"/>
		
			<rect x="164.7" y="140.5" transform="matrix(-1 -1.224647e-16 1.224647e-16 -1 421.8121 284.0865)" class="st3" width="92.3" height="3"/>
		
			<rect x="177.7" y="55.8" transform="matrix(-1.836970e-16 1 -1 -1.836970e-16 313.646 -117.547)" class="st7" width="75.8" height="84.4"/>
		<polygon class="st6" points="233.9,136 219.8,60.1 196.6,60.1 210.7,136 		"/>
		<path class="st3" d="M256,110.2c0.2,0,0.3-0.1,0.3-0.3V63.1c0-0.2-0.1-0.3-0.3-0.3c-0.2,0-0.3,0.1-0.3,0.3v46.8
			C255.7,110.1,255.8,110.2,256,110.2z"/>
		<polygon class="st6" points="205.7,136 191.7,60.1 182.6,60.1 196.7,136 		"/>
		
			<rect x="135.7" y="97.8" transform="matrix(-1.836970e-16 1 -1 -1.836970e-16 271.6729 -75.5739)" class="st5" width="75.8" height="0.5"/>
		<polygon class="st8" points="168.5,66 259.3,66 259.7,61.9 168.9,61.9 		"/>
		<polygon class="st8" points="168.5,70.6 259.3,70.6 259.7,66.6 168.9,66.6 		"/>
		<polygon class="st8" points="168.5,75.3 259.3,75.3 259.7,71.2 168.9,71.2 		"/>
		<polygon class="st8" points="168.5,80 259.3,80 259.7,75.9 168.9,75.9 		"/>
		<polygon class="st8" points="168.5,84.7 259.3,84.7 259.7,80.6 168.9,80.6 		"/>
		<polygon class="st8" points="168.5,89.3 259.3,89.3 259.7,85.3 168.9,85.3 		"/>
		<polygon class="st8" points="168.5,94 259.3,94 259.7,89.9 168.9,89.9 		"/>
		<polygon class="st8" points="168.5,98.7 259.3,98.7 259.7,94.6 168.9,94.6 		"/>
		<polygon class="st8" points="168.5,103.4 259.3,103.4 259.7,99.3 168.9,99.3 		"/>
	</g>
	<g>
		
			<rect x="50.2" y="111.8" transform="matrix(-1 -1.224647e-16 1.224647e-16 -1 119.2706 245.133)" class="st5" width="18.8" height="21.6"/>
		
			<rect x="48.1" y="111.8" transform="matrix(-1 -1.224647e-16 1.224647e-16 -1 116.502 245.133)" class="st4" width="20.3" height="21.6"/>
		
			<rect x="49.1" y="114.1" transform="matrix(-1.836970e-16 1 -1 -1.836970e-16 180.8175 64.3155)" class="st6" width="18.2" height="16.9"/>
		<path class="st4" d="M62.6,122.9v-0.7c0-2.4-2-4.4-4.4-4.4l0,0c-2.4,0-4.4,2-4.4,4.4v0.7c0,2.4,2,4.4,4.4,4.4l0,0
			C60.7,127.3,62.6,125.3,62.6,122.9z"/>
	</g>
	<g>
		
			<rect x="97.2" y="95.8" transform="matrix(-1 -1.224647e-16 1.224647e-16 -1 220.2993 221.4629)" class="st5" width="25.9" height="29.8"/>
		
			<rect x="94.3" y="95.8" transform="matrix(-1 -1.224647e-16 1.224647e-16 -1 216.5865 221.4629)" class="st4" width="28" height="29.8"/>
		
			<rect x="95.7" y="99.1" transform="matrix(-1.836970e-16 1 -1 -1.836970e-16 219.0247 2.4383)" class="st6" width="25.1" height="23.3"/>
		<path class="st4" d="M109.9,107.2l3.1,5.4c0.7,1.3-0.2,2.8-1.6,2.8h-6.2c-1.4,0-2.4-1.6-1.6-2.8l3.1-5.4
			C107.4,106,109.2,106,109.9,107.2z"/>
	</g>
	<g>
		<g>
			
				<rect x="54.5" y="189.4" transform="matrix(-1 -1.224647e-16 1.224647e-16 -1 123.2705 423.5657)" class="st5" width="14.2" height="44.8"/>
			<polygon class="st3" points="57.2,234.2 54.5,234.2 54.5,226.5 60.1,226.5 			"/>
			
				<rect x="107.7" y="189.4" transform="matrix(-1 -1.224647e-16 1.224647e-16 -1 229.5457 423.5657)" class="st5" width="14.2" height="44.8"/>
			
				<rect x="54.5" y="189.4" transform="matrix(-1 -1.224647e-16 1.224647e-16 -1 164.5472 418.8522)" class="st3" width="55.5" height="40.1"/>
			
				<rect x="55" y="193.5" transform="matrix(6.123234e-17 -1 1 6.123234e-17 -136.8879 274.8765)" class="st5" width="28" height="24.7"/>
			
				<rect x="81.6" y="193.5" transform="matrix(6.123234e-17 -1 1 6.123234e-17 -110.3293 301.4351)" class="st5" width="28" height="24.7"/>
			<path class="st3" d="M93.1,194H98c2.1,0,4.2-0.9,5.6-2.4l0,0H87.5h0C88.9,193.2,91,194,93.1,194z"/>
			<path class="st3" d="M66.3,194h4.9c2.1,0,4.2-0.9,5.6-2.4l0,0H60.7l0,0C62.1,193.2,64.2,194,66.3,194z"/>
			<polygon class="st3" points="107.3,234.2 110,234.2 110,226.5 104.5,226.5 			"/>
		</g>
		<g>
			<path class="st9" d="M92.7,183.4c0,1.7,1.4,3.1,3.1,3.1c1.7,0,3.1-1.4,3.1-3.1s-1.4-3.1-3.1-3.1
				C94.1,180.3,92.7,181.7,92.7,183.4z"/>
			<circle class="st9" cx="97.2" cy="181.4" r="3.1"/>
			<path class="st9" d="M77.2,183.9c0,1.7,1.4,3.1,3.1,3.1c1.7,0,3.1-1.4,3.1-3.1c0-1.7-1.4-3.1-3.1-3.1
				C78.6,180.8,77.2,182.2,77.2,183.9z"/>
			<circle class="st9" cx="101.3" cy="181.9" r="3.8"/>
			<path class="st9" d="M90,178.4c0,2.1,1.7,3.8,3.8,3.8c2.1,0,3.8-1.7,3.8-3.8c0-2.1-1.7-3.8-3.8-3.8C91.7,174.6,90,176.3,90,178.4
				z"/>
			<path class="st9" d="M84,179.3c0,2.1,1.7,3.8,3.8,3.8c2.1,0,3.8-1.7,3.8-3.8c0-2.1-1.7-3.8-3.8-3.8C85.7,175.6,84,177.3,84,179.3
				z"/>
			<path class="st9" d="M86.6,182.4c0,2,1.6,3.6,3.6,3.6s3.6-1.6,3.6-3.6c0-2-1.6-3.6-3.6-3.6S86.6,180.4,86.6,182.4z"/>
			<path class="st9" d="M80.3,182.2c0,2.1,1.7,3.9,3.9,3.9c2.1,0,3.9-1.7,3.9-3.9c0-2.1-1.7-3.9-3.9-3.9
				C82,178.3,80.3,180,80.3,182.2z"/>
			<path class="st3" d="M107.3,183.4c0,0-0.4,6-16.6,6c-16.2,0-16.6-6-16.6-6H107.3z"/>
		</g>
	</g>
	<ellipse id="_x3C_Path_x3E__64_" class="st4" cx="150.3" cy="254.5" rx="116.1" ry="6.8"/>
</g>
<g>
	<g>
		<path class="st10" d="M152.6,101.5c-0.1,0.6-0.2,1.3-0.5,1.8c-0.5,0.7-1.3,1.1-2.1,1.4c-3.6,1.5-7.6-0.1-10.4-2.4
			c-2.3-1.9-4.1-4.3-5.7-6.9c-0.1-0.2-0.3-0.5-0.4-0.7c-0.8-1.4-1.6-3-1.1-4.5c0.1-0.2,0.1-0.4,0.2-0.6c0.1-0.2,0.2-0.4,0.3-0.5
			c0.1-0.2,0.2-0.4,0.3-0.7c1.1-2.8-0.4-7.5-1.1-10.3c-0.9-3.6-1.9-7.1-2.9-10.7s-1.9-7.4-3.1-11.1c-0.4-1.4-0.9-2.7-1.5-4
			c-2.1-5-18.7-30.5-18.7-30.5c-0.4-5.2,5.2-7,5.2-7s0.6,0.7,1.7,1.8c4.7,4.9,17.6,18.9,23.1,28.7c0.7,1.2,1.6,3.2,2.6,5.8
			c2.6,6.4,6.1,16.3,8.9,25.2c0.3,1,0.6,2,0.9,2.9c1.1,3.5,2.4,7.5,3.3,11.4C152.5,94.4,153,98.1,152.6,101.5z"/>
		<path class="st10" d="M112.9,16.6c0,0-1.6-2-3.4-4.6c-1.8-2.7-5.6-8.5-7.7-9.5c0,0-0.4-0.1-1.1-0.1c-0.1,0-0.2,0-0.3,0
			c-0.6,0-1.4,0.2-2.1,0.5c-0.1,0-0.1,0.1-0.2,0.1c-0.6,0.3-1.1,0.7-1.7,1.2l-0.1,0.1c-0.4,0.4-0.8,0.9-1.1,1.6c0,0,4,5.9,4.6,8.2
			c0,0-3.3-2.9-4.6-2.4l-0.6,0.7c0,0,3.2,3.5,4.5,5.2c3.2,4.1,8.6,4.5,8.6,4.5S113.2,20.3,112.9,16.6z"/>
		<path class="st11" d="M96.4,4.2L96.4,4.2c1.9,2.6,3.5,5.3,5.2,8.1c0,0.1,0.1,0,0.1,0C100.5,9.2,98.6,6.6,96.4,4.2z"/>
		<path class="st11" d="M98.2,2.9C98.1,2.9,98.1,3,98,3c2,2.5,3.6,5.2,5.3,8c0,0.1,0.1,0,0.1,0C102.3,7.8,100.4,5.2,98.2,2.9z"/>
		<path class="st11" d="M100.6,2.4c-0.1,0-0.2,0-0.3,0c1.9,2.4,3.4,5,5,7.5c0,0.1,0.1,0,0.1,0C104.5,7,102.7,4.6,100.6,2.4z"/>
	</g>
	<path class="st12" d="M107.8,83.4c-0.5-0.4-1-0.9-1.6-1.3c-2.5-1.7-4.3-5.3-3.9-8.4c0.3-2.1,1.5-4,2.8-5.6c1.8-2.3,4.2-4.4,7.1-4.6
		c0.3,0,0.5,0,0.7-0.1c0.3-0.1,0.5-0.4,0.8-0.6c3.7-3.4,8.7,0.7,10.6,4.1c1.2,2.2,1.6,4.8,0.7,7.1c-0.8,2.1-2.4,3.6-3.8,5.3
		c-1.4,1.6-2,2.5-2.6,4.5c-0.4,1.2-1.7,1.8-2.9,2c-1.8,0.4-3.8,0.1-5.5-0.6C109.3,84.8,108.5,84.1,107.8,83.4z"/>
	<path class="st10" d="M173.8,153c0,0.9-0.1,1.9-0.5,2.7c-0.8,1.7-2.6,2.7-4.3,3.4c-5.3,2.3-11.3,3.2-17,1.9
		c-6.8-1.6-10.3-7-12.8-12.8c-0.7-1.5-1.3-3.1-1.9-4.6c-3.3-8.6-8.7-14.5-15.7-20.3c-0.2-0.2-0.5-0.4-0.7-0.6
		c-5.1-4.3-9.2-9.2-14.1-13.9c-0.3-0.3-0.4-0.8-0.1-1.2c0.4-0.6,1.1-1.5,2.1-2.7c1.5-1.6,3.6-3.7,6.4-5.7c1.3-0.9,2.8-1.9,4.5-2.7
		c0,0,0.1,0,0.1-0.1c0.3-0.2,0.5-0.3,0.8-0.4c0.1,0,0.2-0.1,0.3-0.1c0.4-0.2-4.1-7.4-4.6-8c-0.6-0.7-1.2-1.4-1.2-2.2
		c0-0.1,0-0.2,0.1-0.3c0,0,0-0.1,0.1-0.1s0.1-0.1,0.2-0.1s0.2,0,0.3,0c0.1,0,0.3,0.1,0.4,0.1s0.3,0,0.4,0.1c0.3,0,0.5,0.1,0.8,0.1
		c0.2,0,0.5,0.1,0.8,0.1c0.5,0,1,0,1.6,0c0.1,0,0.1,0,0.2,0s0.3,0,0.5,0c0,0,0.1,0,0.2,0c0.2,0,0.4,0,0.6-0.1c0.3,0,0.7-0.1,1-0.1
		c0.3-0.1,0.7-0.1,1-0.2c0.4-0.1,0.8-0.2,1.2-0.3c0.6-0.2,1.4-0.7,2.1-0.8c0.2,0,0.3,0,0.5,0c0.9,0.2,1.7,1.3,2.2,1.9
		c0.4,0.5,1.4,1.9,1.6,2.1c0.4,0.5,0.8,1,1.3,1.4c0.3,0.2,0.6,0.3,0.8,0.4c0.1,0,0.2,0,0.4,0c0.4,0,0.7-0.2,1.2-0.3
		c1.6-0.7,5.2-2.2,8.6-3.2c2.4-0.7,5.7-2.4,6.4-1c0.9,1.9,1.8,3.8,2.6,5.7c3.5,8,6.5,16.2,10.3,24.1c5.4,11.2,9.4,23.1,11.5,35.4
		C173.7,151.2,173.8,152.1,173.8,153z"/>
	<path class="st11" d="M130,87.3c-3,2.2-9.8,4.4-14.9-2.1l-0.1-0.1c0,0,0.2,0,0.3,0.1c0.2,0,0.4,0.1,0.7,0.1c0.1,0,0.3,0,0.4,0.1
		c0.4,0.1,1,0.1,1.5,0.2c0.5,0,1,0,1.6,0c0.8,0,1.5-0.1,2.4-0.2c0.7-0.1,1.5-0.3,2.2-0.5s1.4-0.5,2.1-0.8c0.2,0,0.3,0,0.5,0
		c0.9,0.2,1.7,1.3,2.2,1.9C129.3,86.3,129.7,86.8,130,87.3z"/>
	<path class="st10" d="M121.1,65.8c1.7,0.4,3.4,2.8,5.2,5.4c5.4,7.9,4.6,12,0.8,15.1c-3.8,3.1-9.2,4.3-14.9-2.7
		c-2.8-3.5-5.5-6.6-5.2-9.1C107.5,70.8,115.8,64.5,121.1,65.8z"/>
	<path class="st10" d="M112.1,82.2c0,0-3.4-2.5-4.3,0.5c-0.9,3.1,5.1,6.3,8,4C115.8,86.7,113.8,82.7,112.1,82.2z"/>
	<path class="st11" d="M109.7,83.6c0.5-0.2,1.2-0.1,1.7,0s1.2,0.2,1.6,0.6c0.1,0.1,0,0.3-0.1,0.3c-0.4-0.1-0.8-0.2-1.2-0.3
		c-0.1,0.3-0.1,0.6-0.3,0.8c-0.1,0.2-0.4,0-0.4-0.2c0-0.3,0.1-0.5,0.2-0.8c-0.5,0-1,0-1.4-0.1C109.6,83.9,109.6,83.7,109.7,83.6z"/>
	<path class="st12" d="M122.6,73.3c0,0,0.9-0.2,0-1.4c-0.8-1.1-1.2-0.6-1.2-0.6s-0.5,0.3,0.2,1.2C122.3,73.5,122.6,73.3,122.6,73.3z
		"/>
	<path class="st12" d="M115.5,77.8c0,0,0.9-0.2,0-1.4c-0.8-1.1-1.2-0.6-1.2-0.6s-0.5,0.3,0.2,1.2C115.2,78,115.5,77.8,115.5,77.8z"
		/>
	<path class="st11" d="M121.6,78.6c0.3-0.3,1.3-0.6,1.2-1.1c-0.1-0.4-1.8-1.9-2.1-2.2c-1-1-1.8-1.6-3-2.8c0-0.1,0-0.2,0.1-0.1
		c2,1.3,3.8,3.4,5.5,5.1c0.1,0.1,0.1,0.3,0,0.3c-0.5,0.3-1,0.8-1.5,1.1C121.6,79,121.4,78.7,121.6,78.6z"/>
	<path class="st12" d="M119.4,70c0.3-0.6,1.2-1.2,1.9-1c0.1,0.1,0.1,0.3,0,0.3c-0.3,0.1-0.6,0.2-0.8,0.3c-0.3,0.2-0.5,0.4-0.7,0.6
		C119.7,70.5,119.3,70.3,119.4,70z"/>
	<path class="st12" d="M112.5,75.3c-0.2-0.9,1-1.8,1.8-1.7c0.2,0,0.2,0.3,0.1,0.4c-0.2,0.3-0.6,0.4-1,0.6c-0.3,0.2-0.4,0.5-0.6,0.7
		C112.8,75.6,112.5,75.5,112.5,75.3z"/>
	<path class="st6" d="M124.9,80c0,0-2.3,2-4.9,2.1c0,0,1.7,1.2,3.5,0.7C125.4,82.1,124.9,80,124.9,80z"/>
	<path class="st10" d="M68,297.2c4.2,1,9.8,0.1,14.1,0.1c3.3,0,6.5,0,9.8,0c3.1,0,6.7,1.5,7.4-2.7c0.3-2.3-0.1-4.6-0.3-6.8
		c0-0.1,0-0.1,0-0.2c-0.2-3.4,1.5-7,3.7-10.2c1.8-2.7,3.9-5.2,5.4-7.3c5.8-8.1,10.8-16.3,14.6-25.5c3.9-9.5,7.1-19.4,12.3-28.4
		c5-8.6,12-18.2,17.2-28.2c0.2-0.5,0.5-0.9,0.7-1.4c5.2-10.3,8.3-21.2,5.5-32.1c-0.5-2.1-1.5-4-2.9-5.4c-0.5-0.5-1-1-1.5-1.6
		c-0.8-0.9-1.6-2-2.4-3.1c-3.7-5.1-7.3-10.5-11-6.7c-1,1-2.1,3-3.2,5.4c-2.9,6.3-5.8,15.7-7,19.2c-9.6,27.1-17.6,54.7-27.5,81.7
		c-0.4,1.1-1,2.8-1.7,4.7c-2.3,6.5-5.8,16.6-8.9,24.5c-2,4.9-3.8,8.9-5,10.6c-0.2,0.2-0.3,0.4-0.5,0.6c-2,2.4-4.9,4.2-7.9,5.5
		c-3.2,1.4-6.5,2.5-9.7,4C68.5,294.2,65.8,296.6,68,297.2z"/>
	<path class="st10" d="M152.8,186.4c2.3,9.5,5.6,18.9,7.6,27.2c2.6,10.4,2.9,21.2,4,31.9c1.1,10.3,3.8,19.9,7.1,29.6
		c0.4,1.1,0.7,2.1,1,3.2c1,3.2,1.7,6.2,2.2,9.4c0.2,1.3,0.3,2.7,0.4,4.1c0.1,0.9,0.1,1.9,0.7,2.7c0.9,1.3,2.7,1.6,4.3,1.8
		c7.7,0,15.4,0.3,23.1,0c0.5,0,1-0.1,1.3-0.4c0.5-0.5,0.4-1.4-0.1-1.9s-1.2-0.7-1.9-0.9c-3.5-0.9-6.6-2.4-10.1-3.3
		c-1.6-0.4-3.2-0.9-4.4-1.8s-2-2.2-2.5-3.6c-0.8-2.3-1-4.9-1-7.3c0-0.6-1.2-40.4-1.7-51.4c-0.5-12.8-0.6-25.4-1.7-38.2
		c-0.8-8.5-1.1-17.7-2.8-26.3c-0.7-3.6-1.6-7.2-2.8-10.6c-1.2-3.3-2.9-6.7-5.8-8.7c-0.4-0.3-0.8-0.5-1.2-0.7
		c-5-2.5-9.6-1.4-12.7,2.8c-0.3,0.4-0.5,0.8-0.8,1.2c-0.4,0.7-0.8,1.4-1.1,2C148,159.1,149.5,173,152.8,186.4z"/>
	<path class="st13" d="M184.4,277.1c-0.3,0.2-0.7,0.4-1.1,0.6c-0.7,0.3-1.5,0.5-2.4,0.6c-0.7,0.1-1.3,0.1-2,0.1
		c-3.2-0.1-6.3,0-6.3,0c-0.3-1-0.7-2.1-1-3.2c-3.4-9.7-6-19.3-7.1-29.6c-0.5-4.8-0.9-9.7-1.4-14.6c-0.6-5.8-1.3-11.6-2.7-17.3
		c-2-8.3-5.2-17.6-7.6-27.2l-0.7,1.4c-5.2,10.1-12.2,19.6-17.2,28.2c-5.2,9-8.4,18.8-12.3,28.4c-3.8,9.2-8.9,17.4-14.6,25.5
		c-1.5,2.1-3.6,4.6-5.4,7.3c-4,0.2-10.4-4.1-10.4-4.1c3.1-7.9,6.7-18,8.9-24.5c0.7-2,1.3-3.6,1.7-4.7c10-26.9,17.9-54.6,27.4-81.8
		c1.2-3.5,4.1-12.9,7-19.2c5.1,0.9,10,1.3,14.3,1.3c1.5,0,2.9-0.1,4.2-0.1c2-0.1,3.9-0.3,5.6-0.5c0.2,0,0.4-0.1,0.7-0.1
		c1.2-0.2,2.2-0.3,3.2-0.5c0.4-0.1,0.7-0.1,1.1-0.2c1.3-0.3,2.5-0.5,3.3-0.8c2.8,2,4.6,5.3,5.8,8.7s2.1,7,2.8,10.6
		c1.6,8.7,2,17.8,2.8,26.3c1.1,12.7,1.2,25.4,1.7,38.2C183.2,236.7,184.4,276.5,184.4,277.1z"/>
	<path class="st12" d="M99.3,294.5c-0.7,4.2-4.2,2.7-7.4,2.7c-3.3,0-6.5,0-9.8,0c-4.3,0-9.9,1-14.1-0.1c-2.2-0.5,0.5-3,1.2-3.3
		c3.2-1.5,6.5-2.5,9.7-4c3-1.3,5.8-3,7.9-5.5c0.1,0,0.3-0.1,0.5-0.1c2.2-0.3,4.5,1.3,4.8,3.5c1.8,1.5,4.6-0.3,6.9-0.2
		C99.1,289.9,99.6,292.2,99.3,294.5z"/>
	<path class="st12" d="M204.6,296c-0.3,0.3-0.9,0.3-1.3,0.4c-7.8,0.3-15.4,0-23.1,0c-1.6-0.1-3.4-0.4-4.3-1.8
		c-0.5-0.8-0.6-1.8-0.7-2.7c-0.1-1.4-0.2-2.8-0.4-4.1c2.3-0.5,5.4,1.8,7.4,0.1c0.3-1.7,1.7-3.1,3.3-3.5c0.5,1.4,1.3,2.7,2.5,3.6
		c1.3,1,2.9,1.4,4.4,1.8c3.5,0.9,6.6,2.4,10.1,3.3c0.7,0.2,1.4,0.4,1.9,0.9C205,294.6,205.1,295.5,204.6,296z"/>
	<path class="st10" d="M151.2,166.9c-0.5-1.7-2.4-2.6-4.1-2.6c-1.1,0-2.1,0.2-3.1,0.4c-0.7,0.2-1.3,0.4-2,0.6
		c-1.6,0.4-3,0.5-4.5,0.3c-5.8-0.9-10.9-4.4-15.6-7.8c-2.4-1.8-4.6-3.8-7.1-5.5c-2.6-1.8-3.3-2.3-2.2-5.7c0-0.1,0.1-0.2,0.1-0.3
		c2.7-7.9,8.3-24.2,8.4-24.6c0.7-2,1.4-4.1,1.5-6.3c0.3-6.7-8-15.2-13.9-10.5c-0.6,0.5-1.2,1.1-1.7,1.9c-1.1,1.6-1.7,3.5-2.2,5.3
		c-2.1,7.2-3.9,14.4-5.5,21.7c-0.6,2.7-1.2,5.4-1.6,8.1c-0.2,1.2-0.3,2.5-0.5,3.7c-0.3,3.2-0.8,7.9,0.6,10.9
		c2.4,4.9,9.3,7.9,14.1,9.7c5.3,1.9,10.7,3.5,16.1,5.1c3.5,1,7.2,2,10.8,2.8c1.3,0.3,2.8,0.5,4.1,0.7c0.9,0.1,1.7,0.2,2.5,0.3
		C149.2,175.3,152.3,170.4,151.2,166.9z M138.8,167.1L138.8,167.1C138.9,167.1,138.9,167.1,138.8,167.1z"/>
	<path class="st14" d="M172.5,143.7c-0.1,0.2-0.2,0.4-0.3,0.6c-0.8,1.3-2.5,1.9-4,2.2c-4.6,1-9.3,1-14,0.9
		c-5.1-0.1-10.3-0.2-15.2-1.5c-0.9-0.2-1.7-0.5-2.4-1.1c-0.6-0.5-1-1.2-1.3-1.9c-0.2-0.5-0.4-1-0.6-1.5c-2.7-7.6-6.9-13.3-13.1-18.3
		c-0.2-0.2-0.5-0.4-0.7-0.6c-2.7,7.8-5.4,15.7-8.1,23.6c-4.4-0.5-8.7-1.6-12.8-3.3c-0.8-0.3-1.5-0.6-2.2-1c0.4-2.7,1-5.4,1.6-8.1
		c1.6-7.3,3.4-14.5,5.5-21.7c0.5-1.9,1.1-3.7,2.2-5.3c0.5-0.8,1.1-1.4,1.7-1.9c1.5-1.6,3.6-3.7,6.4-5.7c1.3-0.9,2.8-1.9,4.5-2.7
		c0,0,0.1,0,0.1-0.1c0.3-0.2,0.5-0.3,0.8-0.4c2.6,1.1,4.5,2.9,7.5,3.4c2,0.3,4.5,0,5.5-1.8c0.3-0.6,0.4-1.3,0.4-2
		c0-0.6-0.1-1.3-0.2-1.9c-0.2-1.3-0.8-4.2-0.8-4.4c0.1-0.2,0.2-0.4,0.3-0.7c1.1-2.8-0.4-7.5-1.1-10.3c-0.9-3.6-1.9-7.1-2.9-10.7
		s-1.9-7.4-3.1-11.1c1.2-2.2,4-3.6,6.5-4.3c1.9-0.6,4-0.9,6-0.8c2.6,6.4,6.1,16.3,8.9,25.2c0.3,1,0.6,2,0.9,2.9
		c3.4,11.3,8.3,22.1,13.4,32.8c4.3,9,7.7,18.2,10.5,27.7C172.6,141.1,173,142.5,172.5,143.7z"/>
	<path class="st13" d="M135.2,143c-0.2-0.5-0.4-1-0.6-1.5c-2.7-7.6-6.9-13.3-13.1-18.3c-0.2-0.2-0.5-0.4-0.7-0.6l1.8-7.3
		C122.7,115.3,133.4,123.4,135.2,143z"/>
	<path class="st15" d="M163.1,230.8c-0.5-5.8-1.3-11.6-2.7-17.2c-2-8.3-5.2-17.6-7.6-27.2l1.9-9.4c0,0,8.2,17.6,9.1,33.1
		C164.2,216.5,163.8,224.1,163.1,230.8z"/>
</g>
<g>
	<path class="st16" d="M264.1,278.6h-25.9c-1.1,0-1.9-0.9-1.9-1.9v-30.8c0-1.1,0.9-1.9,1.9-1.9h25.9c1.1,0,1.9,0.9,1.9,1.9v30.8
		C266.1,277.8,265.2,278.6,264.1,278.6z"/>
	<path class="st17" d="M271.9,238.2c-1.5-2.4-4.9-2.4-4.4-2.9c2.5-2.5,4.1,0,4.1,0s-1-6.3-6.6-4.6c-3,0.9-2.9,3.2-2.9,3.2
		s-7.8-2.5-6.8,6.3c0.5,4.4,5.6,5.1,5.6,5.1s-3.7-3.2-0.2-3.7c3.5-0.5-1,2.2,3.4,4.1c4.4,2,9.3,2.2,9.3,2.2S273.4,240.6,271.9,238.2
		z M258.7,239.6c-3.2,0-0.2-3.7,1.2-4.1C259.9,235.5,261.9,239.6,258.7,239.6z M265.8,245.5c-4.4-1-2.4-6.1-2.4-6.1
		S270.2,246.4,265.8,245.5z M271.4,240.1c-1,1.7-5.4-2.7-5.4-2.7S272.4,238.4,271.4,240.1z"/>
	<path class="st18" d="M238.5,238.4c0,0-6.3-3.9-9,1.2s1,8,1,8l1.7,3.7c0,0,5.6-3.9,5.6-4.6s-2.4-4.4-0.7-4.1c1.7,0.2,1,3.9,2.7,3.7
		C241.4,246,243.6,238.9,238.5,238.4z M234.6,240.1c-1,2.2-5.6,3.9-4.4,1.7C230.2,241.8,235.6,237.9,234.6,240.1z"/>
	<path class="st19" d="M246,223c0,0,5.4,16.6,3.9,21.5"/>
	<path class="st19" d="M253.8,244c0,0-2-22.9,2-27.8"/>
	<path class="st19" d="M236.8,239.6c0,0,11.2-1,12.7,4.9"/>
	<path class="st20" d="M272.7,211.9c3,1.8-1.6-4.5-1.6-4.5s-4.7-2.9-9.2-2.1c-4.5,0.9-0.9-3.1,4.6-2.2c5.5,0.9-10.4-7.6-13.3,5
		c0,0-10.8,2-8.7,10c2.1,8,0.3,0.4,4.6-2.2c4.2-2.6-2.8,2,0,8.6c2.9,6.7,7.4,4.4,7.4,4.4s-0.5-14.2,1.7-9.6
		c2.2,4.6-0.2,14.1,5.5,10.2c5.7-3.9,10.5-4.4,10.5-4.4s0.7-9.3-2.4-10.4c-3.1-1.2-7.9-1.3-7.9-1.3 M252.3,223.5
		c-4.9,1.9,1.3-7.2,1.3-7.2C255.7,215.7,257.2,221.7,252.3,223.5z M265.3,225.4c-1.5,3.3-4-2-2.9-6.4c-0.9-0.8-1.6-1.4-1.6-1.4
		l1.7,1.1c0,0.1,0,0.2-0.1,0.3C264.1,220.6,266.3,223.2,265.3,225.4z M270.4,219.4c-2.2,2.7-6.1-3-6.1-3S272.5,216.7,270.4,219.4z
		 M265.5,209.9c-3.2,1.6-7.2-0.6-7.2-0.6S268.7,208.3,265.5,209.9z"/>
	<path class="st17" d="M243.1,214.7c0,0-9.3-5.9-13.2,1.5c-3.9,7.3,0,0.5,4.9,1.5c4.9,1-3.4-0.5-5.9,6.3c-2.4,6.8,2.4,8.3,2.4,8.3
		s9.3-10.7,7.8-5.9c-1.5,4.9-9.8,10.2-2.9,11.2c6.8,1,10.7,3.9,10.7,3.9s6.8-6.3,5.4-9.3s-4.9-6.3-4.9-6.3s6.3,1.5,7.3,4.9
		c1,3.4,2-4.4,2-4.4s-3.4-3.9-7.3-6.3c-3.9-2.4,3.4-4.4,6.8,0C259.7,224.5,253.8,207.4,243.1,214.7z M231.9,225.5
		c-4.9-2,5.9-4.4,5.9-4.4C239.7,222.1,236.8,227.4,231.9,225.5z M240.2,235.7c-3.3,1.4-1.5-4.2,2.2-6.7c-0.1-1.2-0.3-2.1-0.3-2.1
		l0.5,2c-0.1,0-0.1,0.1-0.2,0.1C242.6,231.3,242.4,234.8,240.2,235.7z M248,234.7c-3.4,0.5-2.4-6.3-2.4-6.3S251.4,234.3,248,234.7z
		 M250.9,224.5c-3.4-1-4.9-5.4-4.9-5.4S254.3,225.5,250.9,224.5z"/>
</g>
</svg>
