<?xml version="1.0" encoding="utf-8"?>
<!-- Generator: Adobe Illustrator 25.0.0, SVG Export Plug-In . SVG Version: 6.00 Build 0)  -->
<svg version="1.1" id="Layer_1" xmlns="http://www.w3.org/2000/svg" xmlns:xlink="http://www.w3.org/1999/xlink" x="0px" y="0px"
	 viewBox="0 0 300 300" style="enable-background:new 0 0 300 300;" xml:space="preserve">
<style type="text/css">
	.st0{opacity:8.000000e-02;fill:#E13856;enable-background:new    ;}
	.st1{fill:#007CFF;}
	.st2{opacity:0.45;fill:url(#SVGID_1_);}
	.st3{fill:url(#SVGID_2_);}
	.st4{fill:url(#SVGID_3_);}
	.st5{opacity:0.45;fill:url(#SVGID_4_);}
	.st6{opacity:0.45;fill:url(#SVGID_5_);}
	.st7{fill:#D12424;}
	.st8{clip-path:url(#SVGID_7_);}
	.st9{opacity:0.25;}
	.st10{fill:#FFFFFF;}
	.st11{opacity:0.45;fill:url(#SVGID_8_);}
	.st12{fill:url(#SVGID_9_);}
	.st13{opacity:0.45;fill:url(#SVGID_10_);}
	.st14{fill:url(#SVGID_11_);}
	.st15{opacity:0.45;fill:url(#SVGID_12_);}
	.st16{fill:#3D1616;}
	.st17{opacity:0.45;fill:url(#SVGID_13_);}
	.st18{opacity:0.45;fill:url(#SVGID_14_);}
	.st19{fill:url(#SVGID_15_);}
	.st20{fill:url(#SVGID_16_);}
	.st21{fill:url(#SVGID_17_);}
	.st22{fill:url(#SVGID_18_);}
	.st23{fill:url(#SVGID_19_);}
	.st24{opacity:0.45;fill:url(#SVGID_20_);}
	.st25{fill:url(#SVGID_21_);}
	.st26{opacity:0.45;fill:url(#SVGID_22_);}
	.st27{opacity:0.45;fill:url(#SVGID_23_);}
	.st28{opacity:0.45;fill:url(#SVGID_24_);}
	.st29{opacity:0.45;fill:url(#SVGID_25_);}
	.st30{fill:none;stroke:#3D1616;stroke-width:0.5123;stroke-miterlimit:10;}
	.st31{opacity:0.45;fill:url(#SVGID_26_);}
	.st32{opacity:0.45;fill:url(#SVGID_27_);}
	.st33{opacity:0.45;fill:url(#SVGID_28_);}
	.st34{opacity:0.45;fill:url(#SVGID_29_);}
	.st35{opacity:0.45;fill:url(#SVGID_30_);}
	.st36{opacity:0.45;fill:url(#SVGID_31_);}
	.st37{opacity:0.54;fill:none;stroke:#FFFFFF;stroke-width:0.5123;stroke-miterlimit:10;}
	.st38{opacity:0.45;fill:url(#SVGID_32_);}
	.st39{opacity:0.45;fill:url(#SVGID_33_);}
	.st40{opacity:0.45;fill:url(#SVGID_34_);}
	.st41{opacity:0.45;fill:url(#SVGID_35_);}
	.st42{opacity:0.45;fill:url(#SVGID_36_);}
	.st43{opacity:0.45;fill:url(#SVGID_37_);}
	.st44{opacity:0.45;fill:url(#SVGID_38_);}
	.st45{fill:url(#SVGID_39_);}
	.st46{fill:none;stroke:#FFFFFF;stroke-width:1.5368;stroke-miterlimit:10;}
	.st47{fill:url(#SVGID_40_);}
	.st48{fill:none;stroke:#FFFFFF;stroke-width:0.8141;stroke-miterlimit:10;}
</style>
<g id="Page-1">
	<g id="For-you-and-your-partner-Copy-4">
		<g id="Group-4">
			<circle id="Mask-Copy-2" class="st0" cx="150" cy="150" r="150"/>
		</g>
	</g>
</g>
<g>
	<g>
		<path class="st1" d="M257.1,230.9c-2.7,7.7-9.4,13.2-17.4,17.3c-18.4,9.3-43.7,10.4-43.7,10.4l-50-9l-71-12.7L64.5,235
			c0,0-20.1-56.4-3.2-76.5c16.9-20.1,35.8-17.6,60.7-8.1c24.8,9.5,36.6,27.1,60.7,29.2c24.2,2.1,30.5-12.8,52.9-6.9
			C258,178.5,266.1,205.6,257.1,230.9z"/>
		<linearGradient id="SVGID_1_" gradientUnits="userSpaceOnUse" x1="157.0507" y1="167.6552" x2="158.8105" y2="313.0179">
			<stop  offset="0" style="stop-color:#000000"/>
			<stop  offset="1" style="stop-color:#000000;stop-opacity:0"/>
		</linearGradient>
		<path class="st2" d="M242.7,242.8c-0.7,2-1.7,3.7-2.9,5.4c-18.4,9.3-43.7,10.4-43.7,10.4l-50-9l-71-12.7
			c-4.2-14.9-10.3-43.6,0.2-56c14.4-17.2,30.6-15.1,51.9-7c21.2,8.1,31.3,23.2,51.9,25c20.6,1.8,26.1-10.9,45.2-5.9
			C243.4,198,250.3,221.1,242.7,242.8z"/>
		<linearGradient id="SVGID_2_" gradientUnits="userSpaceOnUse" x1="74.1773" y1="273.7712" x2="74.1773" y2="303.3444">
			<stop  offset="0" style="stop-color:#0C0C28"/>
			<stop  offset="1" style="stop-color:#1C1C51"/>
		</linearGradient>
		<rect x="71.4" y="288.3" class="st3" width="5.5" height="9.7"/>
		<linearGradient id="SVGID_3_" gradientUnits="userSpaceOnUse" x1="238.3127" y1="273.7712" x2="238.3127" y2="303.3444">
			<stop  offset="0" style="stop-color:#0C0C28"/>
			<stop  offset="1" style="stop-color:#1C1C51"/>
		</linearGradient>
		<rect x="235.6" y="288.3" class="st4" width="5.5" height="9.7"/>
		<rect x="58.1" y="234.1" class="st1" width="194.6" height="49"/>
		<linearGradient id="SVGID_4_" gradientUnits="userSpaceOnUse" x1="169.7966" y1="188.5025" x2="171.3783" y2="305.0167">
			<stop  offset="0" style="stop-color:#000000"/>
			<stop  offset="1" style="stop-color:#000000;stop-opacity:0"/>
		</linearGradient>
		<path class="st5" d="M252.7,234.1v11.3c-1.5,2.1-3.1,4.3-4.8,6.4c-8.9,11.2-18.4,1.6-28.6-3.1c-10.2-4.8-13.6-0.9-27.1,2.3
			c-13.5,3.2-28.8-3.5-48.1-8.5s-28.3,1.8-40.9-0.7c-8.5-1.7-13-5.5-15-7.8H252.7z"/>
		<linearGradient id="SVGID_5_" gradientUnits="userSpaceOnUse" x1="55.974" y1="273.0257" x2="160.6383" y2="231.8501">
			<stop  offset="0" style="stop-color:#000000"/>
			<stop  offset="1" style="stop-color:#000000;stop-opacity:0"/>
		</linearGradient>
		<path class="st6" d="M127.4,283H58.1v-49h16.3c4.8,3.6,11,9.4,13.3,17.4c4.1,13.8,20.3,10.3,26.7,19.9
			C117.1,275.4,122.2,279.5,127.4,283z"/>
		<path class="st1" d="M81.3,283.7c-1.1,3.1-3.2,5.7-6.2,7.5c-6.2,3.6-14.1,1.8-18.3-4.1l-38.7-55.4c-4.8-6.9-2.7-16.5,4.5-20.6
			l11.7-6.8c2.7-1.6,5.7-2.1,8.6-1.8c4.7,0.6,9,3.6,11.1,8.4L81,273.1C82.5,276.5,82.5,280.4,81.3,283.7z"/>
		<path class="st1" d="M294,230.9c-0.2,0.3-0.3,0.5-0.5,0.8l-38.7,55.4c-4.2,5.9-12.1,7.7-18.3,4.1c-6.2-3.6-8.8-11.5-5.9-18.1
			l1.2-2.9l25.7-59.3c3.3-7.7,12.5-10.8,19.7-6.6l11.7,6.8C296,215.1,298.1,224.1,294,230.9z"/>
		<g>
			<path class="st7" d="M245,223.1c-2.6,5.5-6,10.2-8.3,10.7c-1.2,0.3-5.1,0.5-10.6,0.7c-20.4,0.7-62,0.8-62.2-0.7
				c0.1-3.7,0.7-7,1.5-9.9c3-10.2,9.5-15,11.2-15.6c1.4-0.5,8.1,0.5,15.9,1.2c-2.4,2.8-4,6.7-4.6,9.5c-0.9,4.8,1.8,4.2,2.6,5.1
				c0.7,0.9,1.4,3.1,2.5,2.3c1.2-0.8,4-9.9,4.8-10.1c0.8-0.2-0.5,3.5,0.7,4.2c1,0.6,2-2.9,2.2-5.4c0-0.6,0.1-1.1,0-1.6
				c-0.2-2.2,2.7-3.5,2.7-3.5c0.5,0,1.1,0,1.6,0c1.5,0,2.9-0.2,4.3-0.5c0.7-0.1,1.3-0.3,2-0.5c8.5-2.4,15-8.4,23.1-8.4
				c2.1,0,3.9,0.1,5.4,0.3c5.7,0.8,7.6,2.6,7.6,2.6C251,206,248.6,215.4,245,223.1z"/>
			<g>
				<defs>
					<path id="SVGID_6_" d="M245,223.1c-2.6,5.5-6,10.2-8.3,10.7c-1.2,0.3-5.1,0.5-10.6,0.7c-20.4,0.7-62,0.8-62.2-0.7
						c0.1-3.7,0.7-7,1.5-9.9c3-10.2,9.5-15,11.2-15.6c1.4-0.5,8.1,0.5,15.9,1.2c-2.4,2.8-4,6.7-4.6,9.5c-0.9,4.8,1.8,4.2,2.6,5.1
						c0.7,0.9,1.4,3.1,2.5,2.3c1.2-0.8,4-9.9,4.8-10.1c0.8-0.2-0.5,3.5,0.7,4.2c1,0.6,2-2.9,2.2-5.4c0-0.6,0.1-1.1,0-1.6
						c-0.2-2.2,2.7-3.5,2.7-3.5c0.5,0,1.1,0,1.6,0c1.5,0,2.9-0.2,4.3-0.5c0.7-0.1,1.3-0.3,2-0.5c8.5-2.4,15-8.4,23.1-8.4
						c2.1,0,3.9,0.1,5.4,0.3c5.7,0.8,7.6,2.6,7.6,2.6C251,206,248.6,215.4,245,223.1z"/>
				</defs>
				<clipPath id="SVGID_7_">
					<use xlink:href="#SVGID_6_"  style="overflow:visible;"/>
				</clipPath>
				<g class="st8">
					<g class="st9">
						<g>
							<path class="st10" d="M177.8,199.6c0,0.4-0.3,0.7-0.7,0.7c-0.4,0-0.7-0.3-0.7-0.7c0-0.4,0.3-0.7,0.7-0.7
								C177.5,198.9,177.8,199.2,177.8,199.6z"/>
							<path class="st10" d="M183.9,199.6c0,0.4-0.3,0.7-0.7,0.7s-0.7-0.3-0.7-0.7c0-0.4,0.3-0.7,0.7-0.7S183.9,199.2,183.9,199.6z"
								/>
							<path class="st10" d="M189.9,199.6c0,0.4-0.3,0.7-0.7,0.7c-0.4,0-0.7-0.3-0.7-0.7c0-0.4,0.3-0.7,0.7-0.7
								C189.6,198.9,189.9,199.2,189.9,199.6z"/>
							<path class="st10" d="M196,199.6c0,0.4-0.3,0.7-0.7,0.7s-0.7-0.3-0.7-0.7c0-0.4,0.3-0.7,0.7-0.7S196,199.2,196,199.6z"/>
							<path class="st10" d="M202.1,199.6c0,0.4-0.3,0.7-0.7,0.7c-0.4,0-0.7-0.3-0.7-0.7c0-0.4,0.3-0.7,0.7-0.7
								C201.8,198.9,202.1,199.2,202.1,199.6z"/>
						</g>
						<g>
							<path class="st10" d="M177.8,204.2c0,0.4-0.3,0.7-0.7,0.7c-0.4,0-0.7-0.3-0.7-0.7c0-0.4,0.3-0.7,0.7-0.7
								C177.5,203.5,177.8,203.8,177.8,204.2z"/>
							<path class="st10" d="M183.9,204.2c0,0.4-0.3,0.7-0.7,0.7s-0.7-0.3-0.7-0.7c0-0.4,0.3-0.7,0.7-0.7S183.9,203.8,183.9,204.2z"
								/>
							<path class="st10" d="M189.9,204.2c0,0.4-0.3,0.7-0.7,0.7c-0.4,0-0.7-0.3-0.7-0.7c0-0.4,0.3-0.7,0.7-0.7
								C189.6,203.5,189.9,203.8,189.9,204.2z"/>
							<path class="st10" d="M196,204.2c0,0.4-0.3,0.7-0.7,0.7s-0.7-0.3-0.7-0.7c0-0.4,0.3-0.7,0.7-0.7S196,203.8,196,204.2z"/>
							<path class="st10" d="M202.1,204.2c0,0.4-0.3,0.7-0.7,0.7c-0.4,0-0.7-0.3-0.7-0.7c0-0.4,0.3-0.7,0.7-0.7
								C201.8,203.5,202.1,203.8,202.1,204.2z"/>
						</g>
						<g>
							<path class="st10" d="M177.8,208.8c0,0.4-0.3,0.7-0.7,0.7c-0.4,0-0.7-0.3-0.7-0.7c0-0.4,0.3-0.7,0.7-0.7
								C177.5,208.1,177.8,208.4,177.8,208.8z"/>
							<ellipse class="st10" cx="183.2" cy="208.8" rx="0.7" ry="0.7"/>
							<path class="st10" d="M189.9,208.8c0,0.4-0.3,0.7-0.7,0.7c-0.4,0-0.7-0.3-0.7-0.7c0-0.4,0.3-0.7,0.7-0.7
								C189.6,208.1,189.9,208.4,189.9,208.8z"/>
							<ellipse class="st10" cx="195.3" cy="208.8" rx="0.7" ry="0.7"/>
							<ellipse class="st10" cx="201.4" cy="208.8" rx="0.7" ry="0.7"/>
						</g>
						<g>
							<path class="st10" d="M177.8,213.3c0,0.4-0.3,0.7-0.7,0.7c-0.4,0-0.7-0.3-0.7-0.7c0-0.4,0.3-0.7,0.7-0.7
								C177.5,212.6,177.8,212.9,177.8,213.3z"/>
							<ellipse class="st10" cx="183.2" cy="213.3" rx="0.7" ry="0.7"/>
							<path class="st10" d="M189.9,213.3c0,0.4-0.3,0.7-0.7,0.7c-0.4,0-0.7-0.3-0.7-0.7c0-0.4,0.3-0.7,0.7-0.7
								C189.6,212.6,189.9,212.9,189.9,213.3z"/>
							<ellipse class="st10" cx="195.3" cy="213.3" rx="0.7" ry="0.7"/>
							<ellipse class="st10" cx="201.4" cy="213.3" rx="0.7" ry="0.7"/>
						</g>
						<g>
							<path class="st10" d="M177.8,217.9c0,0.4-0.3,0.7-0.7,0.7c-0.4,0-0.7-0.3-0.7-0.7c0-0.4,0.3-0.7,0.7-0.7
								C177.5,217.2,177.8,217.5,177.8,217.9z"/>
							<ellipse class="st10" cx="183.2" cy="217.9" rx="0.7" ry="0.7"/>
							<path class="st10" d="M189.9,217.9c0,0.4-0.3,0.7-0.7,0.7c-0.4,0-0.7-0.3-0.7-0.7c0-0.4,0.3-0.7,0.7-0.7
								C189.6,217.2,189.9,217.5,189.9,217.9z"/>
							<ellipse class="st10" cx="195.3" cy="217.9" rx="0.7" ry="0.7"/>
							<ellipse class="st10" cx="201.4" cy="217.9" rx="0.7" ry="0.7"/>
						</g>
						<g>
							<path class="st10" d="M177.8,222.5c0,0.4-0.3,0.7-0.7,0.7c-0.4,0-0.7-0.3-0.7-0.7c0-0.4,0.3-0.7,0.7-0.7
								C177.5,221.8,177.8,222.1,177.8,222.5z"/>
							<ellipse class="st10" cx="183.2" cy="222.5" rx="0.7" ry="0.7"/>
							<path class="st10" d="M189.9,222.5c0,0.4-0.3,0.7-0.7,0.7c-0.4,0-0.7-0.3-0.7-0.7c0-0.4,0.3-0.7,0.7-0.7
								C189.6,221.8,189.9,222.1,189.9,222.5z"/>
							<ellipse class="st10" cx="195.3" cy="222.5" rx="0.7" ry="0.7"/>
							<ellipse class="st10" cx="201.4" cy="222.5" rx="0.7" ry="0.7"/>
						</g>
					</g>
					<g class="st9">
						<g>
							<ellipse class="st10" cx="209.3" cy="217.1" rx="0.7" ry="0.7"/>
							<ellipse class="st10" cx="215.4" cy="217.1" rx="0.7" ry="0.7"/>
							<ellipse class="st10" cx="221.5" cy="217.1" rx="0.7" ry="0.7"/>
							<path class="st10" d="M228.3,217.1c0,0.4-0.3,0.7-0.7,0.7c-0.4,0-0.7-0.3-0.7-0.7c0-0.4,0.3-0.7,0.7-0.7
								C228,216.4,228.3,216.7,228.3,217.1z"/>
							<ellipse class="st10" cx="233.7" cy="217.1" rx="0.7" ry="0.7"/>
						</g>
						<g>
							<ellipse class="st10" cx="209.3" cy="221.7" rx="0.7" ry="0.7"/>
							<ellipse class="st10" cx="215.4" cy="221.7" rx="0.7" ry="0.7"/>
							<ellipse class="st10" cx="221.5" cy="221.7" rx="0.7" ry="0.7"/>
							<path class="st10" d="M228.3,221.7c0,0.4-0.3,0.7-0.7,0.7c-0.4,0-0.7-0.3-0.7-0.7c0-0.4,0.3-0.7,0.7-0.7
								C228,221,228.3,221.3,228.3,221.7z"/>
							<ellipse class="st10" cx="233.7" cy="221.7" rx="0.7" ry="0.7"/>
						</g>
						<g>
							<path class="st10" d="M210,226.2c0,0.4-0.3,0.7-0.7,0.7c-0.4,0-0.7-0.3-0.7-0.7c0-0.4,0.3-0.7,0.7-0.7
								C209.7,225.5,210,225.9,210,226.2z"/>
							<path class="st10" d="M216.1,226.2c0,0.4-0.3,0.7-0.7,0.7s-0.7-0.3-0.7-0.7c0-0.4,0.3-0.7,0.7-0.7S216.1,225.9,216.1,226.2z"
								/>
							<path class="st10" d="M222.2,226.2c0,0.4-0.3,0.7-0.7,0.7s-0.7-0.3-0.7-0.7c0-0.4,0.3-0.7,0.7-0.7S222.2,225.9,222.2,226.2z"
								/>
							<path class="st10" d="M228.3,226.2c0,0.4-0.3,0.7-0.7,0.7c-0.4,0-0.7-0.3-0.7-0.7c0-0.4,0.3-0.7,0.7-0.7
								C228,225.5,228.3,225.9,228.3,226.2z"/>
							<path class="st10" d="M234.3,226.2c0,0.4-0.3,0.7-0.7,0.7s-0.7-0.3-0.7-0.7c0-0.4,0.3-0.7,0.7-0.7S234.3,225.9,234.3,226.2z"
								/>
						</g>
						<g>
							<path class="st10" d="M210,230.8c0,0.4-0.3,0.7-0.7,0.7c-0.4,0-0.7-0.3-0.7-0.7c0-0.4,0.3-0.7,0.7-0.7
								C209.7,230.1,210,230.4,210,230.8z"/>
							<path class="st10" d="M216.1,230.8c0,0.4-0.3,0.7-0.7,0.7s-0.7-0.3-0.7-0.7c0-0.4,0.3-0.7,0.7-0.7S216.1,230.4,216.1,230.8z"
								/>
							<path class="st10" d="M222.2,230.8c0,0.4-0.3,0.7-0.7,0.7s-0.7-0.3-0.7-0.7c0-0.4,0.3-0.7,0.7-0.7S222.2,230.4,222.2,230.8z"
								/>
							<path class="st10" d="M228.3,230.8c0,0.4-0.3,0.7-0.7,0.7c-0.4,0-0.7-0.3-0.7-0.7c0-0.4,0.3-0.7,0.7-0.7
								C228,230.1,228.3,230.4,228.3,230.8z"/>
							<path class="st10" d="M234.3,230.8c0,0.4-0.3,0.7-0.7,0.7s-0.7-0.3-0.7-0.7c0-0.4,0.3-0.7,0.7-0.7S234.3,230.4,234.3,230.8z"
								/>
						</g>
						<g>
							<ellipse class="st10" cx="209.3" cy="235.4" rx="0.7" ry="0.7"/>
							<ellipse class="st10" cx="215.4" cy="235.4" rx="0.7" ry="0.7"/>
							<ellipse class="st10" cx="221.5" cy="235.4" rx="0.7" ry="0.7"/>
							<path class="st10" d="M228.3,235.4c0,0.4-0.3,0.7-0.7,0.7c-0.4,0-0.7-0.3-0.7-0.7c0-0.4,0.3-0.7,0.7-0.7
								C228,234.7,228.3,235,228.3,235.4z"/>
							<ellipse class="st10" cx="233.7" cy="235.4" rx="0.7" ry="0.7"/>
						</g>
						<g>
							<ellipse class="st10" cx="209.3" cy="239.9" rx="0.7" ry="0.7"/>
							<ellipse class="st10" cx="215.4" cy="239.9" rx="0.7" ry="0.7"/>
							<ellipse class="st10" cx="221.5" cy="239.9" rx="0.7" ry="0.7"/>
							<path class="st10" d="M228.3,239.9c0,0.4-0.3,0.7-0.7,0.7c-0.4,0-0.7-0.3-0.7-0.7c0-0.4,0.3-0.7,0.7-0.7
								C228,239.2,228.3,239.6,228.3,239.9z"/>
							<ellipse class="st10" cx="233.7" cy="239.9" rx="0.7" ry="0.7"/>
						</g>
					</g>
					<g class="st9">
						<g>
							<ellipse class="st10" cx="225.2" cy="187.5" rx="0.7" ry="0.7"/>
							<path class="st10" d="M231.9,187.5c0,0.4-0.3,0.7-0.7,0.7c-0.4,0-0.7-0.3-0.7-0.7c0-0.4,0.3-0.7,0.7-0.7
								C231.6,186.8,231.9,187.1,231.9,187.5z"/>
							<ellipse class="st10" cx="237.3" cy="187.5" rx="0.7" ry="0.7"/>
							<path class="st10" d="M244.1,187.5c0,0.4-0.3,0.7-0.7,0.7c-0.4,0-0.7-0.3-0.7-0.7c0-0.4,0.3-0.7,0.7-0.7
								C243.8,186.8,244.1,187.1,244.1,187.5z"/>
							<ellipse class="st10" cx="249.5" cy="187.5" rx="0.7" ry="0.7"/>
						</g>
						<g>
							<path class="st10" d="M225.9,192.1c0,0.4-0.3,0.7-0.7,0.7c-0.4,0-0.7-0.3-0.7-0.7c0-0.4,0.3-0.7,0.7-0.7
								C225.5,191.4,225.9,191.7,225.9,192.1z"/>
							<path class="st10" d="M231.9,192.1c0,0.4-0.3,0.7-0.7,0.7c-0.4,0-0.7-0.3-0.7-0.7c0-0.4,0.3-0.7,0.7-0.7
								C231.6,191.4,231.9,191.7,231.9,192.1z"/>
							<path class="st10" d="M238,192.1c0,0.4-0.3,0.7-0.7,0.7c-0.4,0-0.7-0.3-0.7-0.7c0-0.4,0.3-0.7,0.7-0.7
								C237.7,191.4,238,191.7,238,192.1z"/>
							<path class="st10" d="M244.1,192.1c0,0.4-0.3,0.7-0.7,0.7c-0.4,0-0.7-0.3-0.7-0.7c0-0.4,0.3-0.7,0.7-0.7
								C243.8,191.4,244.1,191.7,244.1,192.1z"/>
							<path class="st10" d="M250.2,192.1c0,0.4-0.3,0.7-0.7,0.7c-0.4,0-0.7-0.3-0.7-0.7c0-0.4,0.3-0.7,0.7-0.7
								C249.9,191.4,250.2,191.7,250.2,192.1z"/>
						</g>
						<g>
							<ellipse class="st10" cx="225.2" cy="196.6" rx="0.7" ry="0.7"/>
							<path class="st10" d="M231.9,196.6c0,0.4-0.3,0.7-0.7,0.7c-0.4,0-0.7-0.3-0.7-0.7c0-0.4,0.3-0.7,0.7-0.7
								C231.6,195.9,231.9,196.3,231.9,196.6z"/>
							<ellipse class="st10" cx="237.3" cy="196.6" rx="0.7" ry="0.7"/>
							<path class="st10" d="M244.1,196.6c0,0.4-0.3,0.7-0.7,0.7c-0.4,0-0.7-0.3-0.7-0.7c0-0.4,0.3-0.7,0.7-0.7
								C243.8,195.9,244.1,196.3,244.1,196.6z"/>
							<ellipse class="st10" cx="249.5" cy="196.6" rx="0.7" ry="0.7"/>
						</g>
						<g>
							<ellipse class="st10" cx="225.2" cy="201.2" rx="0.7" ry="0.7"/>
							<path class="st10" d="M231.9,201.2c0,0.4-0.3,0.7-0.7,0.7c-0.4,0-0.7-0.3-0.7-0.7c0-0.4,0.3-0.7,0.7-0.7
								C231.6,200.5,231.9,200.8,231.9,201.2z"/>
							<ellipse class="st10" cx="237.3" cy="201.2" rx="0.7" ry="0.7"/>
							<path class="st10" d="M244.1,201.2c0,0.4-0.3,0.7-0.7,0.7c-0.4,0-0.7-0.3-0.7-0.7c0-0.4,0.3-0.7,0.7-0.7
								C243.8,200.5,244.1,200.8,244.1,201.2z"/>
							<ellipse class="st10" cx="249.5" cy="201.2" rx="0.7" ry="0.7"/>
						</g>
						<g>
							<ellipse class="st10" cx="225.2" cy="205.8" rx="0.7" ry="0.7"/>
							<path class="st10" d="M231.9,205.8c0,0.4-0.3,0.7-0.7,0.7c-0.4,0-0.7-0.3-0.7-0.7c0-0.4,0.3-0.7,0.7-0.7
								C231.6,205.1,231.9,205.4,231.9,205.8z"/>
							<ellipse class="st10" cx="237.3" cy="205.8" rx="0.7" ry="0.7"/>
							<path class="st10" d="M244.1,205.8c0,0.4-0.3,0.7-0.7,0.7c-0.4,0-0.7-0.3-0.7-0.7c0-0.4,0.3-0.7,0.7-0.7
								C243.8,205.1,244.1,205.4,244.1,205.8z"/>
							<ellipse class="st10" cx="249.5" cy="205.8" rx="0.7" ry="0.7"/>
						</g>
						<g>
							<ellipse class="st10" cx="225.2" cy="210.3" rx="0.7" ry="0.7"/>
							<path class="st10" d="M231.9,210.3c0,0.4-0.3,0.7-0.7,0.7c-0.4,0-0.7-0.3-0.7-0.7c0-0.4,0.3-0.7,0.7-0.7
								C231.6,209.6,231.9,210,231.9,210.3z"/>
							<ellipse class="st10" cx="237.3" cy="210.3" rx="0.7" ry="0.7"/>
							<path class="st10" d="M244.1,210.3c0,0.4-0.3,0.7-0.7,0.7c-0.4,0-0.7-0.3-0.7-0.7c0-0.4,0.3-0.7,0.7-0.7
								C243.8,209.6,244.1,210,244.1,210.3z"/>
							<ellipse class="st10" cx="249.5" cy="210.3" rx="0.7" ry="0.7"/>
						</g>
					</g>
				</g>
			</g>
			<linearGradient id="SVGID_8_" gradientUnits="userSpaceOnUse" x1="205.1186" y1="293.2423" x2="195.0214" y2="200.2542">
				<stop  offset="0" style="stop-color:#000000"/>
				<stop  offset="1" style="stop-color:#000000;stop-opacity:0"/>
			</linearGradient>
			<path class="st11" d="M231,211c0,0-3.1,13.5-4.9,23.4c-20.4,0.7-62,0.8-62.2-0.7c0.1-3.7,0.7-7,1.5-9.9c2.6,1.4,12,6.3,20.8,7
				c10.4,0.8,19-5.1,25.8-2.9C218.8,230.1,220.8,213.9,231,211z"/>
			<linearGradient id="SVGID_9_" gradientUnits="userSpaceOnUse" x1="262.2542" y1="191.3596" x2="244.6678" y2="188.2561">
				<stop  offset="0" style="stop-color:#FF7E64"/>
				<stop  offset="1" style="stop-color:#FFC8B3"/>
			</linearGradient>
			<path class="st12" d="M255.7,193.7c0.1,0.6,0,1.3-0.3,2.1c-0.5,1.3-1.6,2.6-3.5,3.1c-0.6,0.2-1.2,0.3-1.9,0.3
				c-2,0.1-3.9-0.6-5.5-2c-0.7-0.7-1.4-1.5-1.8-2.4c0,0,0,0,0,0c-1-1.9-1.4-4.3-0.8-7c0.9-3.6,4.2-5.7,7.1-6.9
				c0.9-0.4,1.7-0.7,2.4-0.9c1.2-0.4,2-0.5,2.1-0.5c0.3,2.7,4.6,4.1,4.4,6c-0.2,1.9-2.9,6.4-2.2,7.8
				C255.7,193.5,255.7,193.6,255.7,193.7z"/>
			<linearGradient id="SVGID_10_" gradientUnits="userSpaceOnUse" x1="266.6241" y1="185.5212" x2="243.1136" y2="187.7602">
				<stop  offset="0" style="stop-color:#000000"/>
				<stop  offset="1" style="stop-color:#000000;stop-opacity:0"/>
			</linearGradient>
			<path class="st13" d="M255.6,193.4c0,0.1,0.1,0.2,0.1,0.4l-1.1,0.2c0,0,1-2.6,1.3-4.5c0.3-1.8-1-4.9-2.9-6.8
				c-1.1-1.1-1.5-2-1.6-2.6c1.2-0.4,2-0.5,2.1-0.5c0.3,2.7,4.6,4.1,4.4,6C257.6,187.5,255,191.9,255.6,193.4z"/>
			<linearGradient id="SVGID_11_" gradientUnits="userSpaceOnUse" x1="267.0317" y1="196.174" x2="239.6268" y2="203.198">
				<stop  offset="0" style="stop-color:#FF7E64"/>
				<stop  offset="1" style="stop-color:#FFC8B3"/>
			</linearGradient>
			<path class="st14" d="M251.9,199l-0.4,2.2l-2.5,3.4c0,0-0.1,0.4-0.4,0.7c0,0,0,0,0,0c-0.4,0.5-1,0.9-1.7-0.1
				c-0.4-0.5-1-0.9-1.6-1.2c-1.5-0.7-3.5-1.2-4.5-2.4c0.2-0.1,0.5-0.2,0.7-0.3c1-0.6,1.7-1.5,2.2-2.3c0.6-0.9,0.8-1.7,0.8-1.7
				c1.5,1.4,3.5,2.2,5.5,2C250.7,199.2,251.4,199.1,251.9,199z"/>
			<linearGradient id="SVGID_12_" gradientUnits="userSpaceOnUse" x1="255.478" y1="199.5927" x2="239.6059" y2="202.8707">
				<stop  offset="0" style="stop-color:#000000"/>
				<stop  offset="1" style="stop-color:#000000;stop-opacity:0"/>
			</linearGradient>
			<path class="st15" d="M251.9,199l-0.4,2.2l-2.5,3.4c0,0-0.1,0.4-0.4,0.7c0,0,0,0,0,0c-0.4,0.5-1,0.9-1.7-0.1
				c-0.4-0.5-1-0.9-1.6-1.2c0.2-1,0.3-2,0-2.8c-0.3-1-1-1.7-1.7-2.3c0.6-0.9,0.8-1.7,0.8-1.7c1.5,1.4,3.5,2.2,5.5,2
				C250.7,199.2,251.4,199.1,251.9,199z"/>
			<path class="st16" d="M267.4,180.7c-0.3,2.9,1.5,5.1,0.9,7.7c-0.6,2.3-9.1,6.8-12.9,7.4c0.4-1,0.4-1.9,0.2-2.5
				c-0.6-1.5,2-5.9,2.2-7.8c0.2-1.9-4-3.3-4.4-6c-1-1.1-1.7-2.6-2.1-4.2c-0.7-2.8-0.2-5.9,2.1-7.6c3.7-2.7,7.9-1.4,9.4,0.4
				c1.5,1.7,1,2.4,1.5,3c0.5,0.6,3.3-1.8,5.3,0.9c1,1.4,0.4,3-0.4,4.6C268.5,178,267.6,179.4,267.4,180.7z"/>
			<linearGradient id="SVGID_13_" gradientUnits="userSpaceOnUse" x1="262.9823" y1="206.8647" x2="258.935" y2="160.4091">
				<stop  offset="0" style="stop-color:#000000"/>
				<stop  offset="1" style="stop-color:#000000;stop-opacity:0"/>
			</linearGradient>
			<path class="st17" d="M268.3,188.4c-0.6,2.3-9.1,6.8-12.9,7.4c0.4-1,0.4-1.9,0.2-2.5c-0.6-1.5,2-5.9,2.2-7.8c0.2-1.9-4-3.3-4.4-6
				c-1-1.1-1.7-2.6-2.1-4.2c0.8,0.6,2.1,1.2,3.9,2c4.5,1.8,5.6,2.2,7.2,4.8c1.4,2.4,1.8-5.5,6.8-5.5c-0.7,1.4-1.6,2.8-1.8,4.1
				C267.1,183.6,268.9,185.8,268.3,188.4z"/>
			<path class="st7" d="M242.3,213.1c-9.2,5.8-17.8,11.4-17.8,11.4c-1.3,0.8-2.1,2.3-2.2,4l0,0c0.7-17.7,13-23.8,19.2-22.7
				C244,206.2,243.2,210.4,242.3,213.1z"/>
			<linearGradient id="SVGID_14_" gradientUnits="userSpaceOnUse" x1="261.6903" y1="213.8429" x2="230.1556" y2="211.6889">
				<stop  offset="0" style="stop-color:#000000"/>
				<stop  offset="1" style="stop-color:#000000;stop-opacity:0"/>
			</linearGradient>
			<path class="st18" d="M245,223.1c-3.5,0.3-16.4,1.2-10.5-1.7c6.7-3.4,6.9-14.2,5.3-16.7c-1.2-1.8-0.4-3.1,0.1-3.6
				c0.6,0.1,1.2,0.2,1.7,0.3c-0.2,0.1-0.4,0.2-0.7,0.3c1.5,1.8,4.9,2,6.2,3.6c0.7,1,1.3,0.6,1.7,0.1C250.2,209,248,216.7,245,223.1z
				"/>
			<linearGradient id="SVGID_15_" gradientUnits="userSpaceOnUse" x1="205.6796" y1="199.517" x2="193.7846" y2="223.0737">
				<stop  offset="0" style="stop-color:#FF7E64"/>
				<stop  offset="1" style="stop-color:#FFC8B3"/>
			</linearGradient>
			<path class="st19" d="M209.3,209.5c-1.4,0.3-2.8,0.4-4.3,0.5c-0.5,0-1.1,0-1.6,0c0,0-2.9,1.3-2.7,3.5c0.2,2.1-0.8,6.9-1.9,7
				c-0.1,0-0.2,0-0.3-0.1c-1.2-0.7,0-4.4-0.7-4.2c-0.3,0.1-1,1.7-1.8,3.6c0,0,0,0,0,0c-1.1,2.7-2.3,5.9-3,6.4
				c-0.4,0.3-0.8,0.2-1.1-0.2c-0.2-0.2-0.4-0.5-0.6-0.8c-0.3-0.5-0.5-1-0.8-1.3c0,0,0-0.1-0.1-0.1c-0.2-0.2-0.4-0.3-0.7-0.4
				c-0.3-0.1-0.6-0.2-0.9-0.4c-0.3-0.2-0.7-0.5-0.9-1c-0.3-0.6-0.4-1.6-0.1-3.3c0.4-2.2,1.5-5.1,3.2-7.6c0.4-0.7,0.9-1.3,1.4-1.9
				c1.7-2,3.7-3.4,5.8-3.4c3,0,6.2,1.1,8.3,2.1C208.3,208.9,209.3,209.5,209.3,209.5z"/>
			<linearGradient id="SVGID_16_" gradientUnits="userSpaceOnUse" x1="116.8323" y1="230.9422" x2="123.4392" y2="175.885">
				<stop  offset="0" style="stop-color:#0C0C28"/>
				<stop  offset="1" style="stop-color:#1C1C51"/>
			</linearGradient>
			<path class="st20" d="M176.6,208.2c-1.7,0.6-8,5.3-11.1,15.2c-0.9,3-1.5,6.4-1.7,10.3c-35.4,3.3-41.5-19.6-52.6-19.2
				c-10.3,0.3-34.1,10.5-39.8,10.9c-0.5,0-0.8,0-1-0.1c-0.7-0.4-1.5-1.4-2.4-2.7c-1.9-2.9-4.1-7.4-5.1-10.1
				c-0.4-1.1-0.7-1.9-0.7-2.3c0-1.4,3-4.2,22.6-12.1c0,0,0,0,0,0c4.1-1.7,9-3.6,14.8-5.8c-0.8-0.2-4.3-0.5-8.6-1
				c-7.8-0.9-18.3-2.3-19.3-4.1c-0.2-0.3-0.3-0.7-0.4-1.2c-0.1-0.4-0.1-0.8-0.1-1.2c-0.2-3.5,0.6-9.3,1.5-12.2
				c0.3-1,0.6-1.6,0.8-1.7c1.3-0.6,17.8,0.2,48,6.2C151.8,183.1,176.6,208.2,176.6,208.2z"/>
			<linearGradient id="SVGID_17_" gradientUnits="userSpaceOnUse" x1="88.6068" y1="179.8812" x2="55.8988" y2="168.5146">
				<stop  offset="0" style="stop-color:#FF7E64"/>
				<stop  offset="1" style="stop-color:#FFC8B3"/>
			</linearGradient>
			<path class="st21" d="M72.8,172.6c-0.9,2.9-1.7,8.6-1.5,12.1c-4-1-7.7-0.5-10.4-0.1c-2.3,0.4-3.9,0.8-4.6,0.4
				c-1.5-0.9-1.2-3.3-0.4-6.6c0.8-3.3,0-12,0.3-16.2c0.3-4.2,0.1-8.9,2.4-9c1-0.1,1.5,0.3,1.8,0.8l0,0c0.4,0.6,0.6,1.4,1.2,1.5
				c0,0,0.1,0,0.1,0c1.2,0.1,2.4,1,2.5,3.4c0.1,2.4,2.7,11.6,4.2,12.5C69.5,172.1,71.8,172.5,72.8,172.6
				C72.8,172.6,72.8,172.6,72.8,172.6z"/>
			<linearGradient id="SVGID_18_" gradientUnits="userSpaceOnUse" x1="84.5638" y1="201.3611" x2="47.7147" y2="217.8402">
				<stop  offset="0" style="stop-color:#FF7E64"/>
				<stop  offset="1" style="stop-color:#FFC8B3"/>
			</linearGradient>
			<path class="st22" d="M68.1,222.6c-2.3,1-4.2,2.9-5.7,4.5c-1,1.1-1.8,2-2.6,2.5c-0.7,0.5-1.3,0.6-1.9,0.1
				c-2.4-2.1-14.4-15.9-14.9-19.5c-0.3-2.1-0.1-4.4,0.5-6.1c0.4-1.1,0.9-1.9,1.6-2.2c0.4-0.1,0.6-0.3,0.8-0.4
				c0.1-0.1,0.2-0.1,0.3-0.2c0.6-0.4,0.9-0.8,2.3-0.6c2.1,0.2,4.9,7.8,6.2,9.1c1,1,3.5,3,6.4,2.9c0.6,0,1.2-0.1,1.8-0.4
				C64,215.2,66.2,219.7,68.1,222.6z"/>
			<linearGradient id="SVGID_19_" gradientUnits="userSpaceOnUse" x1="256.2515" y1="221.5382" x2="258.3628" y2="172.6277">
				<stop  offset="0" style="stop-color:#FF8431"/>
				<stop  offset="1" style="stop-color:#FFA669"/>
			</linearGradient>
			<path class="st23" d="M269.4,191.9c-1.3,4.1-12.3,21.5-20.3,22.6c-1.7,0.3-3.3-0.3-4.7-1.9c-2.2-2.7,14.1-27.9,19.5-27.8
				c4,0.1,5.8,0.9,6.1,2.7C270.3,188.6,270,190,269.4,191.9z"/>
			<linearGradient id="SVGID_20_" gradientUnits="userSpaceOnUse" x1="259.9381" y1="182.6513" x2="252.9108" y2="225.2836">
				<stop  offset="0" style="stop-color:#000000"/>
				<stop  offset="1" style="stop-color:#000000;stop-opacity:0"/>
			</linearGradient>
			<path class="st24" d="M270.1,187.6c-0.4,0-0.8,0-1.3,0c-5-0.1-19.6,21.8-19.7,27c-1.7,0.3-3.3-0.3-4.7-1.9
				c-2.2-2.7,14.1-27.9,19.5-27.8C268,184.9,269.7,185.7,270.1,187.6z"/>
			<linearGradient id="SVGID_21_" gradientUnits="userSpaceOnUse" x1="194.4096" y1="242.2572" x2="260.6172" y2="214.8729">
				<stop  offset="0" style="stop-color:#FF7E64"/>
				<stop  offset="1" style="stop-color:#FFC8B3"/>
			</linearGradient>
			<path class="st25" d="M233.5,238c-8.5,0.3-11.7-5.3-11.2-9.5c0-0.3,0.1-0.5,0.1-0.8c0.3-1.4,1-2.5,2.1-3.2c0,0,8.6-5.6,17.8-11.4
				c9.2-5.8,20.7-11.8,22.8-12.4c0,0,0,0,0,0C269.3,199.6,245.3,237.6,233.5,238z"/>
			<linearGradient id="SVGID_22_" gradientUnits="userSpaceOnUse" x1="105.3168" y1="221.2973" x2="122.3136" y2="161.7509">
				<stop  offset="0" style="stop-color:#000000"/>
				<stop  offset="1" style="stop-color:#000000;stop-opacity:0"/>
			</linearGradient>
			<path class="st26" d="M153.2,207.5c-4.3-0.6-13-5.6-20.3-10.1c-4.9-3-9.2-5.8-11-6.8c-4.5-2.6-10.3-2.3-22.3,1.6c0,0-0.1,0-0.1,0
				c0,0-0.1,0-0.1,0c-0.1,0-0.2,0-0.2,0c-0.4-0.1-1-0.1-1.7-0.2c-0.2,0-0.5-0.1-0.7-0.1c-0.3,0-0.7-0.1-1-0.1c-0.3,0-0.6-0.1-1-0.1
				c-0.1,0-0.3,0-0.4,0c-0.4,0-0.9-0.1-1.3-0.1c0,0,0,0,0,0c-0.3,0-0.7-0.1-1-0.1c-0.3,0-0.6-0.1-0.9-0.1
				c-7.8-0.9-18.3-2.3-19.3-4.1c-0.2-0.3-0.3-0.7-0.4-1.2c2.9,0,7.1,0.2,10.6-0.7c5.8-1.6,7,2.3,14.5-0.4c0.2-0.1,0.4-0.2,0.7-0.2
				c7-2.3,9.4,1.1,15.4-0.5c6.2-1.6,10,3.8,15.4,3.9c0.3,0,0.6,0,0.8,0.1c4.7,0.7,5.9,6.4,10.9,7.7
				C145.1,197,146.1,202.7,153.2,207.5z"/>
			<linearGradient id="SVGID_23_" gradientUnits="userSpaceOnUse" x1="115.8953" y1="239.5047" x2="125.3429" y2="186.3185">
				<stop  offset="0" style="stop-color:#000000"/>
				<stop  offset="1" style="stop-color:#000000;stop-opacity:0"/>
			</linearGradient>
			<path class="st27" d="M165.5,223.4c-0.9,3-1.5,6.4-1.7,10.3c-35.4,3.3-41.5-19.6-52.6-19.2c-10.3,0.3-34.1,10.5-39.8,10.9
				c4-4.6,13.6-6,17.4-9.1c3.8-3.1,5.6-1,13-2.4c7.4-1.4,2.8-4.3,8.3-5.2c5.5-0.8,3.8,4,9.3,4.2c5.6,0.2,6,8.1,12.9,8.8
				c6.9,0.7,9.3,7,15.6,6.7c6.3-0.3,11.5,3.8,15.5-2C164.2,225.4,164.9,224.4,165.5,223.4z"/>
			<linearGradient id="SVGID_24_" gradientUnits="userSpaceOnUse" x1="208.3675" y1="200.3179" x2="202.9412" y2="225.1154">
				<stop  offset="0" style="stop-color:#000000"/>
				<stop  offset="1" style="stop-color:#000000;stop-opacity:0"/>
			</linearGradient>
			<path class="st28" d="M211.3,209c-1.2,1.5-2.5,2.9-4.8,2.9c-3,0-4.8,1.7-5.8,3.1c0-0.6,0.1-1.1,0-1.6c-0.2-2.2,2.7-3.5,2.7-3.5
				c0.5,0,1.1,0,1.6,0c1.5,0,2.9-0.2,4.3-0.5C210,209.4,210.7,209.2,211.3,209z"/>
			<linearGradient id="SVGID_25_" gradientUnits="userSpaceOnUse" x1="270.6379" y1="246.9152" x2="233.038" y2="204.2038">
				<stop  offset="0" style="stop-color:#000000"/>
				<stop  offset="1" style="stop-color:#000000;stop-opacity:0"/>
			</linearGradient>
			<path class="st29" d="M233.5,238c-8.5,0.3-11.7-5.3-11.2-9.5c0-0.3,0.1-0.5,0.1-0.8c0.4,2.6,2.1,6.3,8.8,6.4
				c9.2,0,28.8-23.1,33.9-33.4C269.3,199.6,245.3,237.6,233.5,238z"/>
			<path class="st30" d="M250.9,182.8c0,0,2,0.4,1.8,2.8"/>
			<linearGradient id="SVGID_26_" gradientUnits="userSpaceOnUse" x1="240.764" y1="185.9595" x2="251.6098" y2="190.0587">
				<stop  offset="0" style="stop-color:#FFFFFF"/>
				<stop  offset="1" style="stop-color:#FFFFFF;stop-opacity:0"/>
			</linearGradient>
			<path class="st31" d="M249,180.9c0,0-0.9,0.8-2.3,2.4c-1.4,1.6-1.8,0.8-2.4,2.8c-0.6,2-1.5,1.7-1.8,3.1c-0.3,1.4,0.4,2.5,0,3.5
				c-0.2,0.5,0,1.3,0.2,2.2c-1-1.9-1.4-4.3-0.8-7C242.8,184.3,246.1,182.2,249,180.9z"/>
			<linearGradient id="SVGID_27_" gradientUnits="userSpaceOnUse" x1="186.4354" y1="228.7957" x2="192.9393" y2="209.1081">
				<stop  offset="0" style="stop-color:#000000"/>
				<stop  offset="1" style="stop-color:#000000;stop-opacity:0"/>
			</linearGradient>
			<path class="st32" d="M189,220.4c-0.3,1-0.2,2-0.1,2.8c-0.3-0.2-0.7-0.5-0.9-1c0.5-2.6,2.2-5.7,2.3-5.5
				C190.6,216.9,189.7,218.1,189,220.4z"/>
			<linearGradient id="SVGID_28_" gradientUnits="userSpaceOnUse" x1="188.214" y1="229.3923" x2="194.7161" y2="209.7103">
				<stop  offset="0" style="stop-color:#000000"/>
				<stop  offset="1" style="stop-color:#000000;stop-opacity:0"/>
			</linearGradient>
			<path class="st33" d="M190.5,224c-0.2-0.2-0.4-0.3-0.7-0.4c0.3-1.6,1.1-3.8,1.4-4.3c0.4-0.6,0.9-1.5,0.9-0.9
				C190.6,220.6,190.3,222.6,190.5,224z"/>
			<linearGradient id="SVGID_29_" gradientUnits="userSpaceOnUse" x1="190.0747" y1="230.0207" x2="196.5783" y2="210.3343">
				<stop  offset="0" style="stop-color:#000000"/>
				<stop  offset="1" style="stop-color:#000000;stop-opacity:0"/>
			</linearGradient>
			<path class="st34" d="M192.3,223.1c-0.4,1.7-0.4,2.6-0.3,3.1c-0.2-0.2-0.4-0.5-0.6-0.8c0.3-0.7,0.6-2.5,0.8-3.5
				c0.3-1.3,1.3-3.1,1.5-3C193.9,219.1,192.9,220.6,192.3,223.1z"/>
			<linearGradient id="SVGID_30_" gradientUnits="userSpaceOnUse" x1="197.2271" y1="221.9898" x2="198.6798" y2="211.4465">
				<stop  offset="0" style="stop-color:#000000"/>
				<stop  offset="1" style="stop-color:#000000;stop-opacity:0"/>
			</linearGradient>
			<path class="st35" d="M198.8,220.6c-0.1,0-0.2,0-0.3-0.1c-1.2-0.7,0-4.4-0.7-4.2c-0.3,0.1-1,1.7-1.8,3.6c0-0.3,0.8-4.3,1.9-4.5
				C199,215.3,198.1,219.2,198.8,220.6z"/>
			<linearGradient id="SVGID_31_" gradientUnits="userSpaceOnUse" x1="195.7849" y1="193.4424" x2="201.4525" y2="222.9614">
				<stop  offset="0" style="stop-color:#FFFFFF"/>
				<stop  offset="1" style="stop-color:#FFFFFF;stop-opacity:0"/>
			</linearGradient>
			<path class="st36" d="M206.7,208.2c-2,1-6.1-1.2-7.9-1.3c-1.9-0.1-4.3,1.3-5.5,2.5c-0.7,0.7-1.6,1.5-2.2,2
				c0.4-0.7,0.9-1.3,1.4-1.9c1.7-2,3.7-3.4,5.8-3.4C201.4,206,204.6,207.2,206.7,208.2z"/>
			<path class="st37" d="M66,217.1c0,0,38.1-16.6,48.8-17.4c10.7-0.8,28.5,19.8,42.3,21.4"/>
			<path class="st37" d="M73.5,180.1c0,0,40.4,1.5,49.7,5.1c9.3,3.6,26.9,19.5,32.3,20.8"/>
			<linearGradient id="SVGID_32_" gradientUnits="userSpaceOnUse" x1="107.2555" y1="175.8368" x2="109.7124" y2="208.3625">
				<stop  offset="0" style="stop-color:#FFFFFF"/>
				<stop  offset="1" style="stop-color:#FFFFFF;stop-opacity:0"/>
			</linearGradient>
			<path class="st38" d="M133,197.4c-6.5,0.2-10-5.2-12.4-4.9c-2.7,0.3-3.6-0.9-9.7-0.8c-6.1,0.1-9.1,2.3-15.2,3.9
				c-5.9,1.6-10.5,2.3-10.8,2.4c4.1-1.7,9-3.6,14.8-5.8c12-4,17.8-4.2,22.3-1.6C123.8,191.6,128,194.4,133,197.4z"/>
			<linearGradient id="SVGID_33_" gradientUnits="userSpaceOnUse" x1="82.9931" y1="192.9309" x2="61.598" y2="174.0376">
				<stop  offset="0" style="stop-color:#000000"/>
				<stop  offset="1" style="stop-color:#000000;stop-opacity:0"/>
			</linearGradient>
			<path class="st39" d="M71.3,184.7c-4-1-7.7-0.5-10.4-0.1c1.5-1.7,3.5-1.7,4.7-4.2c1.5-3,2.6-0.9,4.4-4.2c1.1-2,2.2-3.1,2.9-3.6
				C71.9,175.5,71.1,181.2,71.3,184.7z"/>
			<linearGradient id="SVGID_34_" gradientUnits="userSpaceOnUse" x1="82.4548" y1="218.2457" x2="41.2499" y2="221.4352">
				<stop  offset="0" style="stop-color:#000000"/>
				<stop  offset="1" style="stop-color:#000000;stop-opacity:0"/>
			</linearGradient>
			<path class="st40" d="M68.1,222.6c-2.3,1-4.2,2.9-5.7,4.5c0.6-4.7-3-5.9-1.9-9.5c0.6-1.9,0.7-3.6,0.7-4.8c0.6,0,1.2-0.1,1.8-0.4
				C64,215.2,66.2,219.7,68.1,222.6z"/>
			<linearGradient id="SVGID_35_" gradientUnits="userSpaceOnUse" x1="53.8089" y1="194.9531" x2="34.3063" y2="220.2826">
				<stop  offset="0" style="stop-color:#000000"/>
				<stop  offset="1" style="stop-color:#000000;stop-opacity:0"/>
			</linearGradient>
			<path class="st41" d="M45.9,201.6c0.1-0.1,0.2-0.1,0.3-0.2c0,0,2,0.5,2.7,3.5C48.5,205.3,47.2,202.4,45.9,201.6z"/>
			<linearGradient id="SVGID_36_" gradientUnits="userSpaceOnUse" x1="63.1262" y1="201.9563" x2="43.5739" y2="227.3504">
				<stop  offset="0" style="stop-color:#000000"/>
				<stop  offset="1" style="stop-color:#000000;stop-opacity:0"/>
			</linearGradient>
			<path class="st42" d="M59.8,229.6c-0.7,0.5-1.3,0.6-1.9,0.1c-2.4-2.1-14.4-15.9-14.9-19.5c-0.3-2.1-0.1-4.4,0.5-6.1
				c0,0.4,0.1,0.8,0.2,1.2c0.7,1.7,1.8,3.7,2.1,6.4c0.3,2.7,13.8,13.6,13.9,17.1C59.7,229.1,59.7,229.4,59.8,229.6z"/>
			<linearGradient id="SVGID_37_" gradientUnits="userSpaceOnUse" x1="60.6236" y1="151.8146" x2="62.559" y2="168.2214">
				<stop  offset="0" style="stop-color:#000000"/>
				<stop  offset="1" style="stop-color:#000000;stop-opacity:0"/>
			</linearGradient>
			<path class="st43" d="M61.3,158.5c0-1.9-0.9-4.3-0.9-4.5c0.4,0.6,0.6,1.4,1.2,1.5C62.2,158.2,61.2,160.2,61.3,158.5z"/>
		</g>
		<linearGradient id="SVGID_38_" gradientUnits="userSpaceOnUse" x1="298.4973" y1="218.7822" x2="219.0123" y2="305.2397">
			<stop  offset="0" style="stop-color:#000000"/>
			<stop  offset="1" style="stop-color:#000000;stop-opacity:0"/>
		</linearGradient>
		<path class="st44" d="M294,230.9c-0.2,0.3-0.3,0.5-0.5,0.8l-38.7,55.4c-4.2,5.9-12.1,7.7-18.3,4.1c-6.2-3.6-8.8-11.5-5.9-18.1
			l1.2-2.9c5.3-1.2,11-1.3,15.4-8.1c8-12.1,16.9-4.4,25.2-16.9C278.4,236.4,288.6,232.5,294,230.9z"/>
	</g>
	<g>
		<rect x="167.8" y="65.9" class="st10" width="61.6" height="87.3"/>
		<linearGradient id="SVGID_39_" gradientUnits="userSpaceOnUse" x1="180.6642" y1="70.2112" x2="247.4017" y2="216.8234">
			<stop  offset="0" style="stop-color:#EBF5FF"/>
			<stop  offset="1" style="stop-color:#F7FBFF"/>
		</linearGradient>
		<rect x="176.1" y="77.7" class="st45" width="44.9" height="63.7"/>
		<path class="st46" d="M186.5,65.9l11.2-28.5c0.3-0.9,1.6-0.9,1.9,0l11.7,28.5"/>
	</g>
	<g>
		<rect x="116.7" y="66.2" class="st10" width="32.6" height="46.3"/>
		<linearGradient id="SVGID_40_" gradientUnits="userSpaceOnUse" x1="123.485" y1="68.5357" x2="158.8357" y2="146.1959">
			<stop  offset="0" style="stop-color:#EBF5FF"/>
			<stop  offset="1" style="stop-color:#F7FBFF"/>
		</linearGradient>
		<rect x="121.1" y="72.5" class="st47" width="23.8" height="33.7"/>
		<path class="st48" d="M126.6,66.2l5.9-15.1c0.2-0.5,0.8-0.5,1,0l6.2,15.1"/>
	</g>
	<g>
		<rect x="18.8" y="81.1" class="st10" width="20.7" height="8.2"/>
		<rect x="41" y="91.7" class="st10" width="20.7" height="8.2"/>
		<rect x="41" y="71" class="st10" width="20.7" height="8.2"/>
	</g>
	<g>
		
			<rect x="279.3" y="91.4" transform="matrix(-1 -1.224647e-16 1.224647e-16 -1 579.2972 191.1406)" class="st10" width="20.7" height="8.2"/>
		
			<rect x="257.1" y="102" transform="matrix(-1 -1.224647e-16 1.224647e-16 -1 534.9963 212.2641)" class="st10" width="20.7" height="8.2"/>
		
			<rect x="257.1" y="81.4" transform="matrix(-1 -1.224647e-16 1.224647e-16 -1 534.9963 170.9559)" class="st10" width="20.7" height="8.2"/>
	</g>
	<g>
		<rect y="175" class="st10" width="15.1" height="6"/>
		<rect x="16.1" y="182.7" class="st10" width="15.1" height="6"/>
		<rect x="16.1" y="167.7" class="st10" width="15.1" height="6"/>
	</g>
</g>
</svg>
