<?xml version="1.0" encoding="utf-8"?>
<!-- Generator: Adobe Illustrator 25.0.0, SVG Export Plug-In . SVG Version: 6.00 Build 0)  -->
<svg version="1.1" id="Layer_1" xmlns="http://www.w3.org/2000/svg" xmlns:xlink="http://www.w3.org/1999/xlink" x="0px" y="0px"
	 viewBox="0 0 300 300" style="enable-background:new 0 0 300 300;" xml:space="preserve">
<style type="text/css">
	.st0{opacity:8.000000e-02;fill:#C13B56;enable-background:new    ;}
	.st1{opacity:0.8;fill:#C7DFE9;}
	.st2{fill:#F7F7F7;}
	.st3{fill:#EDF4F4;}
	.st4{opacity:0.4;fill:#D3E6ED;}
	.st5{opacity:0.4;fill:#BED5DF;}
	.st6{opacity:0.4;fill:#ABC9D3;}
	.st7{opacity:0.4;fill:#BFD8DE;}
	.st8{opacity:0.2;fill:#E2EAED;}
	.st9{opacity:0.4;fill:#C7DFE9;}
	.st10{fill:#5C6263;}
	.st11{fill:#717575;}
	.st12{fill:#464F4F;}
	.st13{opacity:0.1;fill:#DDF4FF;}
	.st14{opacity:0.1;fill:#CBE9F4;}
</style>
<g id="OBJECTS">
	<g id="Page-1">
		<g id="For-you-and-your-partner-Copy-4">
			<g id="Group-4">
				<circle id="Mask-Copy-2" class="st0" cx="150" cy="150" r="150"/>
			</g>
		</g>
	</g>
</g>
<g>
	<g>
		<path class="st1" d="M110.6,115.3c0,4.5,10.7,8.4,25.6,9.9c4.3,0.4,8.9,0.7,13.7,0.7c4.8,0,9.5-0.2,13.7-0.7
			c15-1.5,25.6-5.3,25.6-9.9L201,250.6l-25.4,15.5h-51.1L99,250.6L110.6,115.3z"/>
		<path class="st2" d="M193.2,159.8c0.5,6.2-13.7,7.6-24.3,7.6s-16.2,5.4-28.3,5.4c-12,0-20.4-5.9-26-5.9s-8.2-2-8-4.7
			c0.3-3.1,5-2.7,12.2-3.7c5.6-0.8,6.5-6.8,16.2-8.3c10-1.5,13.1,1.9,23.1,2.6c9.9,0.7,19.5-1.7,25.4,0.9
			C187.4,155.4,192.8,155.6,193.2,159.8z"/>
		<path class="st3" d="M193.2,159.8c0.5,6.2-13.7,7.6-24.3,7.6s-16.2,5.4-28.3,5.4c-12,0-20.4-5.9-26-5.9s-8.2-2-8-4.7L99,250.6
			l25.4,15.5h51.1l25.4-15.5L193.2,159.8z"/>
		<g>
			<g>
				<path class="st4" d="M108.7,163.5c0.1,0.2,0.4,0.3,0.7,0.3c0.3,0,0.4-0.2,0.3-0.4c-0.1-0.2-0.4-0.3-0.7-0.3
					C108.7,163.1,108.6,163.3,108.7,163.5z"/>
				<path class="st4" d="M129.6,165.4c0.2,0.1,0.5,0.1,0.7-0.1c0.2-0.2,0.2-0.4,0-0.5c-0.2-0.1-0.5-0.1-0.7,0.1
					C129.4,165,129.4,165.3,129.6,165.4z"/>
				<path class="st4" d="M117.4,160.7c0.2,0.1,0.5,0.1,0.7-0.1c0.2-0.2,0.2-0.4,0-0.5c-0.2-0.1-0.5-0.1-0.7,0.1
					C117.2,160.3,117.2,160.6,117.4,160.7z"/>
				<path class="st4" d="M129.9,169.4c0.2,0.1,0.5,0.1,0.7-0.1c0.2-0.2,0.2-0.4,0-0.5c-0.2-0.1-0.5-0.1-0.7,0.1
					C129.7,169.1,129.7,169.3,129.9,169.4z"/>
				<path class="st4" d="M130.1,161.5c0.2,0.1,0.5,0.1,0.7-0.1c0.2-0.2,0.2-0.4,0-0.5c-0.2-0.1-0.5-0.1-0.7,0.1
					C129.9,161.2,129.9,161.4,130.1,161.5z"/>
				<path class="st4" d="M116.9,166.1c0.2,0.1,0.5,0.1,0.7-0.1c0.2-0.2,0.2-0.4,0-0.5c-0.2-0.1-0.5-0.1-0.7,0.1
					C116.7,165.8,116.7,166,116.9,166.1z"/>
				<path class="st4" d="M113.7,163.7c0.2,0.1,0.5,0.1,0.7-0.1c0.2-0.2,0.2-0.4,0-0.5c-0.2-0.1-0.5-0.1-0.7,0.1
					C113.5,163.4,113.5,163.6,113.7,163.7z"/>
				<path class="st5" d="M113.1,187.4c0.2,0.2,0.6,0.2,0.9-0.2c0.3-0.3,0.4-0.8,0.2-1.1c-0.2-0.2-0.6-0.2-0.9,0.2
					C113,186.7,112.9,187.2,113.1,187.4z"/>
				<path class="st5" d="M118,191.6c0.2,0,0.4-0.3,0.5-0.5c0-0.3-0.1-0.4-0.3-0.4c-0.2,0-0.4,0.3-0.5,0.5
					C117.6,191.4,117.8,191.6,118,191.6z"/>
				<path class="st5" d="M119.2,186.5c0.2,0,0.4-0.3,0.5-0.5c0-0.3-0.1-0.4-0.3-0.4c-0.2,0-0.4,0.3-0.5,0.5
					C118.8,186.3,118.9,186.5,119.2,186.5z"/>
				<path class="st5" d="M111.8,247.8c0.1,0.2,0.4,0.1,0.6-0.1c0.2-0.2,0.2-0.5,0.1-0.7c-0.1-0.2-0.4-0.1-0.6,0.1
					C111.6,247.3,111.6,247.7,111.8,247.8z"/>
				<path class="st5" d="M117.3,246.2c0.1,0.1,0.3,0.1,0.5-0.1c0.2-0.2,0.2-0.4,0.1-0.6c-0.1-0.1-0.3-0.1-0.5,0.1
					C117.2,245.8,117.1,246,117.3,246.2z"/>
				<path class="st5" d="M115.3,241.8c0.1,0.1,0.3,0.1,0.5-0.1c0.2-0.2,0.2-0.4,0.1-0.6c-0.1-0.1-0.3-0.1-0.5,0.1
					C115.2,241.5,115.2,241.7,115.3,241.8z"/>
				<path class="st5" d="M119.7,203.1c0.2,0.2,0.6,0.1,0.9-0.2c0.3-0.4,0.3-0.8,0.1-1c-0.2-0.2-0.6-0.1-0.9,0.2
					C119.5,202.4,119.5,202.8,119.7,203.1z"/>
				<path class="st4" d="M122.4,159c0,0.3,0.4,0.5,0.9,0.4c0.4-0.1,0.8-0.4,0.8-0.7c0-0.3-0.4-0.5-0.9-0.4
					C122.7,158.3,122.4,158.7,122.4,159z"/>
				<path class="st4" d="M123.9,163.4c0,0.3,0.4,0.5,0.9,0.4c0.4-0.1,0.8-0.4,0.8-0.7c0-0.3-0.4-0.5-0.9-0.4
					C124.3,162.8,123.9,163.1,123.9,163.4z"/>
				<path class="st5" d="M125.2,207.6c0.1,0.1,0.3,0.1,0.5-0.1c0.2-0.2,0.2-0.4,0.1-0.6c-0.1-0.1-0.3-0.1-0.5,0.1
					C125.1,207.2,125.1,207.5,125.2,207.6z"/>
				<path class="st5" d="M121.1,213c0.1,0.1,0.3,0.1,0.5-0.1c0.2-0.2,0.2-0.4,0.1-0.6c-0.1-0.1-0.3-0.1-0.5,0.1
					C121,212.6,121,212.9,121.1,213z"/>
				<path class="st5" d="M110.9,182.3c0.2-0.3,0.3-0.7,0.1-0.8c-0.2-0.2-0.5-0.1-0.8,0.2c-0.2,0.3-0.3,0.7-0.1,0.8
					C110.4,182.7,110.7,182.6,110.9,182.3z"/>
				<path class="st5" d="M108,184.3c0.2-0.2,0.2-0.4,0-0.5c-0.1-0.1-0.3-0.1-0.5,0.1c-0.2,0.2-0.2,0.4,0,0.5
					C107.7,184.6,107.9,184.5,108,184.3z"/>
				<path class="st4" d="M119.3,163.3c0.2-0.1,0.4-0.2,0.4-0.4c0-0.2-0.2-0.3-0.5-0.2c-0.2,0.1-0.4,0.2-0.4,0.4
					C118.8,163.3,119.1,163.4,119.3,163.3z"/>
				<path class="st4" d="M126.9,155.8c0.2-0.1,0.4-0.2,0.4-0.4c0-0.2-0.2-0.3-0.5-0.2c-0.2,0.1-0.4,0.2-0.4,0.4
					C126.4,155.8,126.6,155.9,126.9,155.8z"/>
				<path class="st5" d="M107.2,188.3c0.2-0.2,0.2-0.4,0-0.5c-0.1-0.1-0.3-0.1-0.5,0.1c-0.1,0.2-0.2,0.4,0,0.5
					C106.9,188.5,107.1,188.5,107.2,188.3z"/>
				<path class="st5" d="M111.4,228.9c0.2,0.2,0.6,0.2,0.9-0.2c0.3-0.3,0.4-0.8,0.2-1.1c-0.2-0.2-0.6-0.2-0.9,0.2
					C111.3,228.2,111.2,228.7,111.4,228.9z"/>
				<path class="st5" d="M108,222.7c0.2-0.3,0.3-0.7,0.1-0.8c-0.2-0.2-0.5-0.1-0.8,0.2c-0.2,0.3-0.3,0.7-0.1,0.8
					C107.5,223.1,107.8,223,108,222.7z"/>
				<path class="st5" d="M105.1,224.8c0.2-0.2,0.2-0.4,0-0.5c-0.1-0.1-0.3-0.1-0.5,0.1c-0.2,0.2-0.2,0.4,0,0.5
					C104.8,225,105,225,105.1,224.8z"/>
				<path class="st5" d="M104,229.2c0.2-0.2,0.2-0.4,0-0.5c-0.1-0.1-0.3-0.1-0.5,0.1c-0.1,0.2-0.2,0.4,0,0.5
					C103.6,229.5,103.8,229.4,104,229.2z"/>
				<path class="st5" d="M119.3,239.2c-0.1-0.2-0.3-0.1-0.5,0c-0.2,0.2-0.2,0.4-0.2,0.6c0.1,0.2,0.3,0.1,0.5,0
					C119.3,239.6,119.4,239.3,119.3,239.2z"/>
				<path class="st5" d="M120.8,231.5c0.1,0.1,0.3,0.1,0.5-0.1c0.2-0.2,0.2-0.4,0.1-0.6c-0.1-0.1-0.3-0.1-0.5,0.1
					C120.7,231.1,120.7,231.3,120.8,231.5z"/>
				<path class="st5" d="M123,236.3c0.1,0.1,0.3,0.1,0.5-0.1c0.2-0.2,0.2-0.4,0.1-0.6c-0.1-0.1-0.3-0.1-0.5,0.1
					C122.9,235.9,122.9,236.2,123,236.3z"/>
				<path class="st5" d="M124.1,196c0.1,0.1,0.3,0.1,0.5-0.1c0.2-0.2,0.2-0.4,0.1-0.6c-0.1-0.1-0.3-0.1-0.5,0.1
					C124,195.7,124,195.9,124.1,196z"/>
				<path class="st5" d="M117.6,196.1c0.2,0.2,0.6,0.2,0.9-0.2c0.3-0.3,0.4-0.8,0.2-1.1c-0.2-0.2-0.6-0.2-0.9,0.2
					C117.5,195.3,117.4,195.8,117.6,196.1z"/>
				<path class="st5" d="M125.3,178.9c0.1,0.1,0.3,0.1,0.5-0.1c0.2-0.2,0.2-0.4,0.1-0.6c-0.1-0.1-0.3-0.1-0.5,0.1
					C125.2,178.5,125.2,178.8,125.3,178.9z"/>
				<path class="st5" d="M106.1,212.8c0.1,0.1,0.3,0.1,0.5-0.1c0.2-0.2,0.2-0.4,0.1-0.6c-0.1-0.1-0.3-0.1-0.5,0.1
					C106,212.4,106,212.6,106.1,212.8z"/>
				<path class="st5" d="M106.6,207.4c0.2,0.2,0.6,0.2,0.9-0.2s0.4-0.8,0.2-1.1c-0.2-0.2-0.6-0.2-0.9,0.2
					C106.5,206.6,106.4,207.1,106.6,207.4z"/>
				<path class="st5" d="M104.5,219.3c0.1,0.1,0.3,0.1,0.5-0.1c0.2-0.2,0.2-0.4,0.1-0.6c-0.1-0.1-0.3-0.1-0.5,0.1
					C104.5,218.9,104.4,219.1,104.5,219.3z"/>
				<path class="st5" d="M126.5,200.9c0.1,0.1,0.3,0.1,0.5-0.1c0.2-0.2,0.2-0.4,0.1-0.6c-0.1-0.1-0.3-0.1-0.5,0.1
					C126.5,200.5,126.4,200.8,126.5,200.9z"/>
				<path class="st5" d="M101.2,245.1c-0.1-0.2-0.3-0.1-0.5,0c-0.2,0.2-0.2,0.4-0.2,0.6c0.1,0.2,0.3,0.1,0.5,0
					C101.2,245.5,101.2,245.2,101.2,245.1z"/>
				<path class="st5" d="M101.4,249.5c-0.1-0.2-0.3-0.1-0.5,0c-0.2,0.2-0.2,0.4-0.2,0.6c0.1,0.2,0.3,0.1,0.5,0
					C101.4,249.9,101.5,249.6,101.4,249.5z"/>
				<path class="st5" d="M111.4,235.6c-0.1-0.2-0.3-0.1-0.5,0c-0.2,0.2-0.2,0.4-0.2,0.6c0.1,0.2,0.3,0.1,0.5,0
					C111.4,236,111.5,235.7,111.4,235.6z"/>
				<path class="st5" d="M122.8,241.8c-0.1-0.2-0.3-0.1-0.5,0c-0.2,0.2-0.2,0.4-0.2,0.6c0.1,0.2,0.3,0.1,0.5,0
					C122.8,242.2,122.9,242,122.8,241.8z"/>
				<path class="st5" d="M105.8,238.7c-0.1-0.2-0.3-0.2-0.6,0c-0.2,0.2-0.3,0.5-0.2,0.7c0.1,0.2,0.3,0.2,0.6,0
					C105.8,239.2,105.9,238.9,105.8,238.7z"/>
				<path class="st5" d="M117.3,250.2c-0.1-0.2-0.3-0.2-0.6,0c-0.2,0.2-0.3,0.5-0.2,0.7c0.1,0.2,0.3,0.2,0.6,0
					C117.3,250.7,117.4,250.4,117.3,250.2z"/>
				<path class="st5" d="M107,249.2c-0.1-0.3-0.5-0.3-0.9,0c-0.3,0.3-0.5,0.8-0.4,1.1c0.1,0.3,0.5,0.3,0.9,0
					C107,249.9,107.2,249.5,107,249.2z"/>
				<path class="st5" d="M112.6,252.2c-0.1-0.3-0.5-0.3-0.9,0c-0.3,0.3-0.5,0.8-0.4,1.1c0.1,0.3,0.5,0.3,0.9,0
					C112.6,253,112.7,252.5,112.6,252.2z"/>
				<path class="st5" d="M109.5,243.9c0.1,0.1,0.3,0.1,0.5-0.1c0.2-0.2,0.2-0.4,0.1-0.6c-0.1-0.1-0.3-0.1-0.5,0.1
					C109.4,243.5,109.4,243.8,109.5,243.9z"/>
				<path class="st5" d="M118.6,256.2c0.1,0.1,0.3,0.1,0.5-0.1c0.2-0.2,0.2-0.4,0.1-0.6c-0.1-0.1-0.3-0.1-0.5,0.1
					C118.6,255.8,118.5,256,118.6,256.2z"/>
				<path class="st5" d="M115.4,235.4c0.2,0.2,0.6,0.2,0.9-0.2c0.3-0.3,0.4-0.8,0.2-1.1c-0.2-0.2-0.6-0.2-0.9,0.2
					C115.3,234.7,115.2,235.2,115.4,235.4z"/>
				<path class="st4" d="M112,161.1c0,0.3,0.4,0.5,0.8,0.5c0.4-0.1,0.8-0.4,0.8-0.7c0-0.3-0.4-0.5-0.8-0.5
					C112.3,160.5,112,160.8,112,161.1z"/>
				<path class="st5" d="M115.4,169.5c-0.2-0.1-0.4,0-0.5,0.3c-0.1,0.3,0,0.6,0.2,0.7c0.2,0.1,0.4,0,0.5-0.3
					C115.7,169.9,115.6,169.6,115.4,169.5z"/>
				<path class="st5" d="M120.5,173.5c0.2,0.2,0.6,0.2,0.9-0.2c0.3-0.3,0.4-0.8,0.2-1.1c-0.2-0.2-0.6-0.2-0.9,0.2
					C120.4,172.8,120.3,173.2,120.5,173.5z"/>
				<path class="st5" d="M107.3,178c0.1,0.1,0.3,0.1,0.5-0.1c0.2-0.2,0.2-0.4,0.1-0.6c-0.1-0.1-0.3-0.1-0.5,0.1
					C107.2,177.6,107.2,177.9,107.3,178z"/>
				<path class="st5" d="M118,179.5c0.1,0.2,0.4,0.1,0.6-0.1c0.2-0.2,0.2-0.5,0.1-0.7c-0.1-0.2-0.4-0.1-0.6,0.1
					C118,179,117.9,179.3,118,179.5z"/>
				<path class="st4" d="M124.2,167.6c0,0.2,0.2,0.3,0.5,0.3c0.3,0,0.5-0.3,0.5-0.5c0-0.2-0.2-0.3-0.5-0.3
					C124.5,167.2,124.2,167.4,124.2,167.6z"/>
				<path class="st4" d="M130.7,152.6c0,0.2,0.2,0.3,0.5,0.3c0.3,0,0.5-0.3,0.5-0.5c0-0.2-0.2-0.3-0.5-0.3
					C131,152.2,130.7,152.4,130.7,152.6z"/>
				<path class="st4" d="M130.6,156.1c0.1,0.2,0.4,0.1,0.6-0.1c0.2-0.2,0.3-0.5,0.2-0.7c-0.1-0.2-0.4-0.1-0.6,0.1
					C130.6,155.7,130.5,156,130.6,156.1z"/>
				<path class="st4" d="M127.5,158.7c0,0.2,0.2,0.3,0.5,0.3c0.3,0,0.5-0.3,0.5-0.5c0-0.2-0.2-0.3-0.5-0.3
					C127.7,158.3,127.5,158.5,127.5,158.7z"/>
				<path class="st5" d="M109,172c0.3,0.1,0.6-0.1,0.7-0.6c0.1-0.4,0-0.9-0.3-1c-0.3-0.1-0.6,0.1-0.7,0.6
					C108.5,171.4,108.7,171.9,109,172z"/>
				<path class="st5" d="M112.5,176.5c0.1,0.1,0.3,0.1,0.5-0.1c0.2-0.2,0.2-0.4,0.1-0.6c-0.1-0.1-0.3-0.1-0.5,0.1
					C112.4,176.2,112.4,176.4,112.5,176.5z"/>
				<path class="st5" d="M127.4,183.1c0.2,0.2,0.6,0.2,0.9-0.2c0.3-0.3,0.4-0.8,0.2-1.1c-0.2-0.2-0.6-0.2-0.9,0.2
					C127.2,182.4,127.2,182.9,127.4,183.1z"/>
				<path class="st5" d="M123,226.2c0.2,0.2,0.6,0.2,0.9-0.2c0.3-0.3,0.4-0.8,0.2-1.1c-0.2-0.2-0.6-0.2-0.9,0.2
					C122.9,225.4,122.8,225.9,123,226.2z"/>
				<path class="st5" d="M101.1,235.8c0.1,0.1,0.3,0.1,0.5-0.1c0.2-0.2,0.2-0.4,0.1-0.6c-0.1-0.1-0.3-0.1-0.5,0.1
					C101,235.4,101,235.6,101.1,235.8z"/>
				<path class="st5" d="M104.6,244.3c0.1,0.1,0.3,0.1,0.5-0.1c0.2-0.2,0.2-0.4,0.1-0.6c-0.1-0.1-0.3-0.1-0.5,0.1
					C104.5,243.9,104.5,244.1,104.6,244.3z"/>
				<path class="st5" d="M121.7,250.6c0.1,0.1,0.3,0.1,0.5-0.1c0.2-0.2,0.2-0.4,0.1-0.6c-0.1-0.1-0.3-0.1-0.5,0.1
					C121.6,250.2,121.5,250.5,121.7,250.6z"/>
				<path class="st5" d="M106.6,233c0.1,0.1,0.3,0.1,0.5-0.1c0.2-0.2,0.2-0.4,0.1-0.6c-0.1-0.1-0.3-0.1-0.5,0.1
					C106.5,232.6,106.5,232.9,106.6,233z"/>
				<path class="st5" d="M106.6,202.4c0.2,0,0.4-0.3,0.5-0.5c0-0.3-0.1-0.4-0.3-0.4c-0.2,0-0.4,0.3-0.5,0.5
					C106.2,202.3,106.4,202.5,106.6,202.4z"/>
				<path class="st5" d="M118,208.4c0.2,0,0.4-0.3,0.5-0.5c0-0.3-0.1-0.4-0.3-0.4c-0.2,0-0.4,0.3-0.5,0.5
					C117.6,208.2,117.8,208.4,118,208.4z"/>
				<path class="st5" d="M106,195.7c0.2,0,0.4-0.3,0.5-0.5c0-0.3-0.1-0.4-0.3-0.4c-0.2,0-0.4,0.3-0.5,0.5
					C105.6,195.5,105.7,195.7,106,195.7z"/>
				<path class="st5" d="M111.2,192.9c0.2,0,0.4-0.3,0.5-0.5c0-0.3-0.1-0.4-0.3-0.4c-0.2,0-0.4,0.3-0.5,0.5
					C110.8,192.8,111,193,111.2,192.9z"/>
				<path class="st5" d="M114.5,200.4c0.2,0,0.4-0.3,0.5-0.5c0-0.3-0.1-0.4-0.3-0.4c-0.2,0-0.4,0.3-0.5,0.5
					C114.1,200.2,114.2,200.4,114.5,200.4z"/>
				<path class="st5" d="M110.1,199c0.2,0,0.4-0.3,0.5-0.5c0-0.3-0.1-0.4-0.3-0.4c-0.2,0-0.4,0.3-0.5,0.5
					C109.7,198.9,109.9,199,110.1,199z"/>
				<path class="st5" d="M111.8,211.8c0.1,0.2,0.4,0.1,0.6-0.1c0.2-0.2,0.2-0.5,0.1-0.7c-0.1-0.2-0.4-0.1-0.6,0.1
					C111.7,211.4,111.7,211.7,111.8,211.8z"/>
				<path class="st5" d="M125.3,189.5c0.1,0.2,0.4,0.1,0.6-0.1c0.2-0.2,0.2-0.5,0.1-0.7c-0.1-0.2-0.4-0.1-0.6,0.1
					C125.2,189,125.2,189.3,125.3,189.5z"/>
				<path class="st5" d="M109.1,214.6c0.1,0.1,0.3,0.1,0.5-0.1c0.2-0.2,0.2-0.4,0.1-0.6c-0.1-0.1-0.3-0.1-0.5,0.1
					C109,214.2,109,214.5,109.1,214.6z"/>
				<path class="st5" d="M128.9,173.2c0.1,0.1,0.3,0.1,0.5-0.1c0.2-0.2,0.2-0.4,0.1-0.6c-0.1-0.1-0.3-0.1-0.5,0.1
					C128.8,172.8,128.8,173.1,128.9,173.2z"/>
				<path class="st5" d="M112.4,206.5c0.1,0.2,0.4,0.1,0.6-0.1c0.2-0.2,0.2-0.5,0.1-0.7c-0.1-0.2-0.4-0.1-0.6,0.1
					C112.4,206,112.3,206.3,112.4,206.5z"/>
				<path class="st5" d="M115.9,214.3c0.2,0.2,0.6,0.2,0.9-0.2c0.3-0.3,0.4-0.8,0.2-1.1c-0.2-0.2-0.6-0.2-0.9,0.2
					C115.8,213.6,115.7,214.1,115.9,214.3z"/>
				<path class="st5" d="M112.6,220.3c0.1,0.1,0.3,0.1,0.5-0.1c0.2-0.2,0.2-0.4,0.1-0.6c-0.1-0.1-0.3-0.1-0.5,0.1
					C112.5,219.9,112.5,220.2,112.6,220.3z"/>
				<path class="st5" d="M118.9,227.5c0.1,0.1,0.4,0.1,0.6-0.1c0.2-0.2,0.2-0.5,0.1-0.6c-0.1-0.1-0.4-0.1-0.6,0.1
					C118.8,227,118.8,227.3,118.9,227.5z"/>
				<path class="st5" d="M124.4,215.8c0.1,0.1,0.3,0.1,0.5-0.1c0.2-0.2,0.2-0.4,0.1-0.6c-0.1-0.1-0.3-0.1-0.5,0.1
					C124.3,215.4,124.3,215.7,124.4,215.8z"/>
				<path class="st5" d="M117.8,221.4c0.2,0.2,0.6,0.2,0.9-0.2c0.3-0.3,0.4-0.8,0.2-1.1c-0.2-0.2-0.6-0.2-0.9,0.2
					C117.6,220.7,117.6,221.1,117.8,221.4z"/>
			</g>
			<g>
				<path class="st4" d="M191.2,160.6c-0.1,0.2-0.4,0.3-0.7,0.3c-0.3,0-0.4-0.2-0.3-0.4c0.1-0.2,0.4-0.3,0.7-0.3
					C191.2,160.2,191.3,160.4,191.2,160.6z"/>
				<path class="st4" d="M169.9,164.4c-0.2,0.1-0.5,0.1-0.7-0.1c-0.2-0.2-0.2-0.4,0-0.5c0.2-0.1,0.5-0.1,0.7,0.1
					C170.1,164.1,170.1,164.3,169.9,164.4z"/>
				<path class="st4" d="M172.5,166.1c-0.2,0.1-0.5,0.1-0.7-0.1c-0.2-0.2-0.2-0.4,0-0.5c0.2-0.1,0.5-0.1,0.7,0.1
					C172.6,165.8,172.6,166,172.5,166.1z"/>
				<path class="st4" d="M171.6,160.5c-0.2,0.1-0.5,0.1-0.7-0.1c-0.2-0.2-0.2-0.4,0-0.5c0.2-0.1,0.5-0.1,0.7,0.1
					C171.8,160.2,171.8,160.4,171.6,160.5z"/>
				<path class="st4" d="M186.4,160.5c-0.2,0.1-0.5,0.1-0.7-0.1c-0.2-0.2-0.2-0.4,0-0.5c0.2-0.1,0.5-0.1,0.7,0.1
					C186.6,160.2,186.6,160.4,186.4,160.5z"/>
				<path class="st4" d="M187.8,157.3c-0.2,0.1-0.5,0.1-0.7-0.1c-0.2-0.2-0.2-0.4,0-0.5c0.2-0.1,0.5-0.1,0.7,0.1
					C188,156.9,188,157.2,187.8,157.3z"/>
				<path class="st5" d="M188.2,187.4c-0.2,0.3-0.6,0.2-0.9-0.1c-0.3-0.3-0.4-0.8-0.2-1.1c0.2-0.3,0.6-0.2,0.9,0.1
					C188.3,186.6,188.4,187.1,188.2,187.4z"/>
				<path class="st5" d="M182.2,191.6c-0.2,0-0.4-0.3-0.5-0.5c-0.1-0.3,0.1-0.4,0.3-0.4c0.2,0,0.4,0.3,0.5,0.5
					C182.6,191.4,182.5,191.6,182.2,191.6z"/>
				<path class="st5" d="M181,186.1c-0.2,0-0.4-0.3-0.5-0.5c-0.1-0.3,0.1-0.4,0.3-0.4c0.2,0,0.4,0.3,0.5,0.5
					C181.4,185.9,181.2,186.1,181,186.1z"/>
				<path class="st5" d="M189.3,247.7c-0.1,0.2-0.4,0.1-0.6-0.1c-0.2-0.2-0.2-0.5-0.1-0.7c0.1-0.2,0.4-0.1,0.6,0.1
					C189.4,247.3,189.4,247.6,189.3,247.7z"/>
				<path class="st5" d="M192.7,254.5c-0.1,0.2-0.4,0.1-0.6-0.1c-0.2-0.2-0.2-0.5-0.1-0.7c0.1-0.2,0.4-0.1,0.6,0.1
					C192.8,254,192.8,254.4,192.7,254.5z"/>
				<path class="st5" d="M183.7,246.2c-0.1,0.1-0.3,0.1-0.5-0.1c-0.2-0.2-0.2-0.4-0.1-0.6c0.1-0.1,0.3-0.1,0.5,0.1
					C183.8,245.8,183.9,246,183.7,246.2z"/>
				<path class="st5" d="M186.9,258.1c-0.1,0.1-0.3,0.1-0.5-0.1c-0.2-0.2-0.2-0.4-0.1-0.6c0.1-0.1,0.3-0.1,0.5,0.1
					C186.9,257.8,187,258,186.9,258.1z"/>
				<path class="st5" d="M185.6,241.8c-0.1,0.1-0.3,0.1-0.5-0.1c-0.2-0.2-0.2-0.4-0.1-0.6c0.1-0.1,0.3-0.1,0.5,0.1
					C185.7,241.4,185.7,241.7,185.6,241.8z"/>
				<path class="st5" d="M177.5,246.6c-0.1,0.1-0.3,0.1-0.5-0.1c-0.2-0.2-0.2-0.4-0.1-0.6c0.1-0.1,0.3-0.1,0.5,0.1
					C177.6,246.2,177.6,246.4,177.5,246.6z"/>
				<path class="st5" d="M180.7,203.1c-0.2,0.2-0.6,0.1-0.9-0.2c-0.3-0.3-0.4-0.8-0.1-1c0.2-0.2,0.6-0.1,0.9,0.2
					C180.9,202.4,180.9,202.9,180.7,203.1z"/>
				<path class="st4" d="M178.5,154.6c0,0.3-0.4,0.5-0.9,0.4c-0.4-0.1-0.8-0.4-0.8-0.7c0-0.3,0.4-0.5,0.9-0.4
					C178.2,154,178.5,154.3,178.5,154.6z"/>
				<path class="st4" d="M178.4,161.2c0,0.3-0.4,0.5-0.9,0.4c-0.4-0.1-0.8-0.4-0.8-0.7c0-0.3,0.4-0.5,0.9-0.4
					C178.1,160.5,178.4,160.9,178.4,161.2z"/>
				<path class="st5" d="M175.3,207.7c-0.1,0.1-0.3,0.1-0.5-0.1c-0.2-0.2-0.2-0.4-0.1-0.6c0.1-0.1,0.3-0.1,0.5,0.1
					C175.3,207.3,175.4,207.6,175.3,207.7z"/>
				<path class="st5" d="M178.3,206.3c-0.1,0.1-0.3,0.1-0.5-0.1c-0.2-0.2-0.2-0.4-0.1-0.6c0.1-0.1,0.3-0.1,0.5,0.1
					C178.3,206,178.4,206.2,178.3,206.3z"/>
				<path class="st5" d="M179.4,213.1c-0.1,0.1-0.3,0.1-0.5-0.1c-0.2-0.2-0.2-0.4-0.1-0.6c0.1-0.1,0.3-0.1,0.5,0.1
					C179.5,212.7,179.5,213,179.4,213.1z"/>
				<path class="st5" d="M183.7,213c-0.1,0.1-0.3,0.1-0.5-0.1c-0.2-0.2-0.2-0.4-0.1-0.6c0.1-0.1,0.3-0.1,0.5,0.1
					C183.8,212.7,183.8,212.9,183.7,213z"/>
				<path class="st5" d="M174.9,220.6c-0.1,0.1-0.3,0.1-0.5-0.1c-0.2-0.2-0.2-0.4-0.1-0.6c0.1-0.1,0.3-0.1,0.5,0.1
					C175,220.2,175,220.5,174.9,220.6z"/>
				<path class="st5" d="M187.3,181.5c-0.2-0.3-0.3-0.7-0.1-0.8c0.2-0.2,0.5-0.1,0.8,0.2c0.2,0.3,0.3,0.7,0.1,0.8
					C187.8,181.9,187.5,181.8,187.3,181.5z"/>
				<path class="st5" d="M192.2,183.4c-0.2-0.2-0.2-0.4-0.1-0.5c0.1-0.1,0.3-0.1,0.5,0.1c0.2,0.2,0.2,0.4,0.1,0.5
					C192.6,183.7,192.4,183.6,192.2,183.4z"/>
				<path class="st4" d="M181.9,158.7c-0.2-0.1-0.4-0.2-0.4-0.4c0-0.2,0.2-0.3,0.5-0.2c0.2,0.1,0.4,0.2,0.4,0.4
					C182.3,158.6,182.1,158.7,181.9,158.7z"/>
				<path class="st4" d="M172.9,155.1c-0.2-0.1-0.4-0.2-0.4-0.4c0-0.2,0.2-0.3,0.5-0.2c0.2,0.1,0.4,0.2,0.4,0.4
					C173.4,155,173.2,155.1,172.9,155.1z"/>
				<path class="st5" d="M192.9,188.2c-0.2-0.2-0.2-0.4-0.1-0.5c0.1-0.1,0.3-0.1,0.5,0.1c0.2,0.2,0.2,0.4,0.1,0.5
					C193.3,188.4,193.1,188.3,192.9,188.2z"/>
				<path class="st5" d="M189.4,228.8c-0.2,0.3-0.6,0.2-0.9-0.1c-0.3-0.3-0.4-0.8-0.2-1.1c0.2-0.3,0.6-0.2,0.9,0.1
					C189.5,228.1,189.6,228.6,189.4,228.8z"/>
				<path class="st5" d="M192.1,221c-0.2-0.3-0.3-0.7-0.1-0.8c0.2-0.2,0.5-0.1,0.8,0.2c0.2,0.3,0.3,0.7,0.1,0.8
					C192.7,221.4,192.3,221.3,192.1,221z"/>
				<path class="st5" d="M195.6,224.6c-0.2-0.2-0.2-0.4-0.1-0.5c0.1-0.1,0.3-0.1,0.5,0.1c0.2,0.2,0.2,0.4,0.1,0.5
					C195.9,224.9,195.7,224.8,195.6,224.6z"/>
				<path class="st5" d="M196.8,229.1c-0.2-0.2-0.2-0.4-0.1-0.5c0.1-0.1,0.3-0.1,0.5,0.1c0.2,0.2,0.2,0.4,0.1,0.5
					C197.2,229.3,197,229.3,196.8,229.1z"/>
				<path class="st5" d="M181.6,239.2c0.1-0.2,0.3-0.2,0.5,0c0.2,0.2,0.3,0.4,0.2,0.6c-0.1,0.2-0.3,0.2-0.5,0
					C181.6,239.6,181.5,239.4,181.6,239.2z"/>
				<path class="st5" d="M180,231.5c-0.1,0.1-0.3,0.1-0.5-0.1c-0.2-0.2-0.2-0.4-0.1-0.6c0.1-0.1,0.3-0.1,0.5,0.1
					C180.1,231.1,180.1,231.4,180,231.5z"/>
				<path class="st5" d="M177.9,236.4c-0.1,0.1-0.3,0.1-0.5-0.1c-0.2-0.2-0.2-0.4-0.1-0.6c0.1-0.1,0.3-0.1,0.5,0.1
					C177.9,236,178,236.3,177.9,236.4z"/>
				<path class="st5" d="M177.9,196.6c-0.1,0.1-0.3,0.1-0.5-0.1c-0.2-0.2-0.2-0.4-0.1-0.6c0.1-0.1,0.3-0.1,0.5,0.1
					C178,196.2,178,196.4,177.9,196.6z"/>
				<path class="st5" d="M177,181.7c-0.1,0.1-0.3,0.1-0.5-0.1c-0.2-0.2-0.2-0.4-0.1-0.6c0.1-0.1,0.3-0.1,0.5,0.1
					C177.1,181.4,177.2,181.6,177,181.7z"/>
				<path class="st5" d="M182.7,196.1c-0.2,0.3-0.6,0.2-0.9-0.1c-0.3-0.3-0.4-0.8-0.2-1.1c0.2-0.3,0.6-0.2,0.9,0.1
					C182.8,195.3,182.9,195.8,182.7,196.1z"/>
				<path class="st5" d="M172.5,178.6c-0.1,0.1-0.3,0.1-0.5-0.1c-0.2-0.2-0.2-0.4-0.1-0.6c0.1-0.1,0.3-0.1,0.5,0.1
					C172.6,178.2,172.6,178.5,172.5,178.6z"/>
				<path class="st5" d="M175.3,170.2c-0.1,0.1-0.3,0.1-0.5-0.1c-0.2-0.2-0.2-0.4-0.1-0.6c0.1-0.1,0.3-0.1,0.5,0.1
					C175.3,169.8,175.4,170,175.3,170.2z"/>
				<path class="st5" d="M194.4,212.6c-0.1,0.1-0.3,0.1-0.5-0.1c-0.2-0.2-0.2-0.4-0.1-0.6c0.1-0.1,0.3-0.1,0.5,0.1
					C194.5,212.2,194.5,212.5,194.4,212.6z"/>
				<path class="st5" d="M193.8,207.2c-0.2,0.3-0.6,0.2-0.9-0.1c-0.3-0.3-0.4-0.8-0.2-1.1c0.2-0.3,0.6-0.2,0.9,0.1
					C193.9,206.5,194,207,193.8,207.2z"/>
				<path class="st5" d="M196.1,219.1c-0.1,0.1-0.3,0.1-0.5-0.1c-0.2-0.2-0.2-0.4-0.1-0.6c0.1-0.1,0.3-0.1,0.5,0.1
					C196.2,218.7,196.2,219,196.1,219.1z"/>
				<path class="st5" d="M173.8,201.1c-0.1,0.1-0.3,0.1-0.5-0.1c-0.2-0.2-0.2-0.4-0.1-0.6c0.1-0.1,0.3-0.1,0.5,0.1
					C173.9,200.7,173.9,200.9,173.8,201.1z"/>
				<path class="st5" d="M199.1,245.9c0.1-0.2,0.3-0.2,0.5,0c0.2,0.2,0.3,0.4,0.2,0.6c-0.1,0.2-0.3,0.2-0.5,0
					C199.1,246.4,199,246.1,199.1,245.9z"/>
				<path class="st5" d="M197.9,250.5c0.1-0.2,0.3-0.2,0.5,0c0.2,0.2,0.3,0.4,0.2,0.6c-0.1,0.2-0.3,0.2-0.5,0
					C197.9,250.9,197.9,250.6,197.9,250.5z"/>
				<path class="st5" d="M189.5,235.5c0.1-0.2,0.3-0.2,0.5,0c0.2,0.2,0.3,0.4,0.2,0.6c-0.1,0.2-0.3,0.2-0.5,0
					C189.4,235.9,189.4,235.6,189.5,235.5z"/>
				<path class="st5" d="M178.1,241.9c0.1-0.2,0.3-0.2,0.5,0c0.2,0.2,0.3,0.4,0.2,0.6c-0.1,0.2-0.3,0.2-0.5,0
					C178.1,242.3,178.1,242.1,178.1,241.9z"/>
				<path class="st5" d="M195.1,238.6c0.1-0.2,0.3-0.2,0.6,0c0.2,0.2,0.3,0.5,0.2,0.7c-0.1,0.2-0.3,0.2-0.6,0
					C195.1,239.1,195,238.8,195.1,238.6z"/>
				<path class="st5" d="M183.7,250.2c0.1-0.2,0.3-0.2,0.6,0c0.2,0.2,0.3,0.5,0.2,0.7c-0.1,0.2-0.3,0.2-0.6,0
					C183.7,250.7,183.6,250.4,183.7,250.2z"/>
				<path class="st5" d="M194.4,248.8c0.3-0.2,0.6,0,0.7,0.5c0.1,0.4,0,0.9-0.3,1.1c-0.3,0.2-0.6,0-0.7-0.5
					C194,249.4,194.1,248.9,194.4,248.8z"/>
				<path class="st5" d="M188.8,251.9c0.3-0.2,0.6-0.1,0.8,0.3c0.2,0.4,0.1,0.9-0.1,1.1c-0.3,0.2-0.6,0.1-0.8-0.3
					C188.5,252.6,188.5,252.1,188.8,251.9z"/>
				<path class="st5" d="M177.8,260.3c0.3-0.2,0.6-0.1,0.8,0.3c0.2,0.4,0.1,0.9-0.1,1.1c-0.3,0.2-0.6,0.1-0.8-0.3
					C177.4,261,177.5,260.5,177.8,260.3z"/>
				<path class="st5" d="M191.5,243.8c-0.1,0.1-0.3,0.1-0.5-0.1c-0.2-0.2-0.2-0.4-0.1-0.6c0.1-0.1,0.3-0.1,0.5,0.1
					C191.6,243.4,191.6,243.7,191.5,243.8z"/>
				<path class="st5" d="M177.2,255.5c-0.1,0.1-0.3,0.1-0.5-0.1c-0.2-0.2-0.2-0.4-0.1-0.6c0.1-0.1,0.3-0.1,0.5,0.1
					C177.2,255.1,177.3,255.3,177.2,255.5z"/>
				<path class="st5" d="M182.5,256.2c-0.1,0.1-0.3,0.1-0.5-0.1c-0.2-0.2-0.2-0.4-0.1-0.6c0.1-0.1,0.3-0.1,0.5,0.1
					C182.6,255.8,182.6,256.1,182.5,256.2z"/>
				<path class="st5" d="M185.5,235.4c-0.2,0.3-0.6,0.2-0.9-0.1c-0.3-0.3-0.4-0.8-0.2-1.1c0.2-0.3,0.6-0.2,0.9,0.1
					C185.6,234.7,185.7,235.2,185.5,235.4z"/>
				<path class="st4" d="M187.4,163.5c0.1,0.3-0.1,0.6-0.5,0.8c-0.4,0.1-0.9,0-1-0.3c-0.1-0.3,0.1-0.6,0.5-0.8
					C186.8,163.1,187.3,163.2,187.4,163.5z"/>
				<path class="st5" d="M184.5,169.5c0.2-0.1,0.4,0,0.5,0.3c0.1,0.3,0,0.6-0.2,0.7c-0.2,0.1-0.4,0-0.5-0.3
					C184.2,169.9,184.3,169.6,184.5,169.5z"/>
				<path class="st5" d="M179.2,173.9c-0.2,0.3-0.6,0.2-0.9-0.1c-0.3-0.3-0.4-0.8-0.2-1.1c0.2-0.3,0.6-0.2,0.9,0.1
					C179.3,173.2,179.4,173.7,179.2,173.9z"/>
				<path class="st5" d="M192.8,177.9c-0.1,0.1-0.3,0.1-0.5-0.1c-0.2-0.2-0.2-0.4-0.1-0.6c0.1-0.1,0.3-0.1,0.5,0.1
					C192.8,177.5,192.9,177.8,192.8,177.9z"/>
				<path class="st5" d="M182,179.5c-0.1,0.2-0.4,0.1-0.6-0.1c-0.2-0.2-0.3-0.5-0.1-0.7c0.1-0.2,0.4-0.1,0.6,0.1
					C182.1,179,182.2,179.3,182,179.5z"/>
				<path class="st4" d="M179.2,164.9c0,0.2-0.2,0.3-0.5,0.3c-0.3,0-0.5-0.2-0.5-0.5c0-0.2,0.2-0.3,0.5-0.3
					C178.9,164.5,179.2,164.7,179.2,164.9z"/>
				<path class="st4" d="M176.3,157.9c0,0.2-0.2,0.3-0.5,0.3c-0.3-0.1-0.5-0.3-0.5-0.5c0-0.2,0.2-0.3,0.5-0.3
					C176.1,157.5,176.3,157.7,176.3,157.9z"/>
				<path class="st4" d="M169.4,155.7c0,0.2-0.2,0.3-0.5,0.3c-0.3,0-0.5-0.2-0.5-0.5c0-0.2,0.2-0.3,0.5-0.3
					C169.2,155.3,169.4,155.5,169.4,155.7z"/>
				<path class="st4" d="M183.1,162c0.1,0.2,0,0.4-0.3,0.5c-0.3,0.1-0.6,0-0.7-0.1c-0.1-0.2,0-0.4,0.3-0.5
					C182.7,161.8,183,161.9,183.1,162z"/>
				<path class="st5" d="M190.5,173.2c-0.2,0.2-0.6,0.1-0.9-0.3c-0.2-0.4-0.3-0.9,0-1.1c0.2-0.2,0.6-0.1,0.9,0.3
					C190.7,172.5,190.7,173,190.5,173.2z"/>
				<path class="st5" d="M187.5,176.5c-0.1,0.1-0.3,0.1-0.5-0.1c-0.2-0.2-0.2-0.4-0.1-0.6c0.1-0.1,0.3-0.1,0.5,0.1
					C187.6,176.1,187.6,176.4,187.5,176.5z"/>
				<path class="st5" d="M172.1,185c-0.2,0.3-0.6,0.2-0.9-0.1s-0.4-0.8-0.2-1.1c0.2-0.3,0.6-0.2,0.9,0.1
					C172.2,184.2,172.3,184.7,172.1,185z"/>
				<path class="st5" d="M192.2,168c-0.2,0.3-0.6,0.2-0.9-0.1c-0.3-0.3-0.4-0.8-0.2-1.1c0.2-0.3,0.6-0.2,0.9,0.1
					C192.3,167.3,192.4,167.8,192.2,168z"/>
				<path class="st5" d="M176.1,227.3c-0.2,0.3-0.6,0.2-0.9-0.1c-0.3-0.3-0.4-0.8-0.2-1.1c0.2-0.3,0.6-0.2,0.9,0.1
					C176.2,226.6,176.3,227,176.1,227.3z"/>
				<path class="st5" d="M198.6,235.6c-0.1,0.1-0.3,0.1-0.5-0.1c-0.2-0.2-0.2-0.4-0.1-0.6c0.1-0.1,0.3-0.1,0.5,0.1
					C198.6,235.2,198.7,235.5,198.6,235.6z"/>
				<path class="st5" d="M196.4,244.1c-0.1,0.1-0.3,0.1-0.5-0.1c-0.2-0.2-0.2-0.4-0.1-0.6c0.1-0.1,0.3-0.1,0.5,0.1
					C196.5,243.7,196.5,244,196.4,244.1z"/>
				<path class="st5" d="M179.4,250.7c-0.1,0.1-0.3,0.1-0.5-0.1c-0.2-0.2-0.2-0.4-0.1-0.6c0.1-0.1,0.3-0.1,0.5,0.1
					C179.5,250.3,179.5,250.6,179.4,250.7z"/>
				<path class="st5" d="M194.2,232.9c-0.1,0.1-0.3,0.1-0.5-0.1c-0.2-0.2-0.2-0.4-0.1-0.6c0.1-0.1,0.3-0.1,0.5,0.1
					C194.3,232.5,194.3,232.8,194.2,232.9z"/>
				<path class="st5" d="M193.8,202.3c-0.2,0-0.4-0.3-0.5-0.5c-0.1-0.3,0.1-0.4,0.3-0.4c0.2,0,0.4,0.3,0.5,0.5
					C194.2,202.2,194,202.3,193.8,202.3z"/>
				<path class="st5" d="M182.5,208.4c-0.2,0-0.4-0.3-0.5-0.5c-0.1-0.3,0.1-0.4,0.3-0.4c0.2,0,0.4,0.3,0.5,0.5
					C182.8,208.2,182.7,208.4,182.5,208.4z"/>
				<path class="st5" d="M194.3,195.5c-0.2,0-0.4-0.3-0.5-0.5c-0.1-0.3,0.1-0.4,0.3-0.4c0.2,0,0.4,0.3,0.5,0.5
					C194.7,195.4,194.6,195.6,194.3,195.5z"/>
				<path class="st5" d="M189.1,192.9c-0.2,0-0.4-0.3-0.5-0.5c-0.1-0.3,0.1-0.4,0.3-0.4c0.2,0,0.4,0.3,0.5,0.5
					C189.4,192.7,189.3,192.9,189.1,192.9z"/>
				<path class="st5" d="M185.9,200.4c-0.2,0-0.4-0.3-0.5-0.5c-0.1-0.3,0.1-0.4,0.3-0.4c0.2,0,0.4,0.3,0.5,0.5
					C186.3,200.2,186.1,200.4,185.9,200.4z"/>
				<path class="st5" d="M172.3,193.4c-0.2,0-0.4-0.3-0.5-0.5c-0.1-0.3,0.1-0.4,0.3-0.4c0.2,0,0.4,0.3,0.5,0.5
					C172.7,193.3,172.5,193.5,172.3,193.4z"/>
				<path class="st5" d="M190.2,198.9c-0.2,0-0.4-0.3-0.5-0.5c-0.1-0.3,0.1-0.4,0.3-0.4c0.2,0,0.4,0.3,0.5,0.5
					C190.6,198.8,190.5,199,190.2,198.9z"/>
				<path class="st5" d="M188.7,211.8c-0.1,0.2-0.4,0.1-0.6-0.1c-0.2-0.2-0.2-0.5-0.1-0.7c0.1-0.2,0.4-0.1,0.6,0.1
					C188.8,211.3,188.8,211.6,188.7,211.8z"/>
				<path class="st5" d="M176.7,190.1c-0.1,0.2-0.4,0.1-0.6-0.1c-0.2-0.2-0.2-0.5-0.1-0.7c0.1-0.2,0.4-0.1,0.6,0.1
					C176.8,189.6,176.8,189.9,176.7,190.1z"/>
				<path class="st5" d="M191.5,214.5c-0.1,0.1-0.3,0.1-0.5-0.1c-0.2-0.2-0.2-0.4-0.1-0.6c0.1-0.1,0.3-0.1,0.5,0.1
					C191.5,214.1,191.6,214.4,191.5,214.5z"/>
				<path class="st5" d="M171.1,173.4c-0.1,0.1-0.3,0.1-0.5-0.1c-0.2-0.2-0.2-0.4-0.1-0.6c0.1-0.1,0.3-0.1,0.5,0.1
					C171.2,173,171.2,173.2,171.1,173.4z"/>
				<path class="st5" d="M188,206.4c-0.1,0.2-0.4,0.1-0.6-0.1c-0.2-0.2-0.3-0.5-0.1-0.7c0.1-0.2,0.4-0.1,0.6,0.1
					C188.1,205.9,188.1,206.2,188,206.4z"/>
				<path class="st5" d="M187.6,216.6c-0.1,0.2-0.4,0.1-0.6-0.1c-0.2-0.2-0.3-0.5-0.1-0.7c0.1-0.2,0.4-0.1,0.6,0.1
					C187.7,216.1,187.7,216.4,187.6,216.6z"/>
				<path class="st5" d="M173.5,211.8c-0.1,0.2-0.4,0.1-0.6-0.1c-0.2-0.2-0.3-0.5-0.1-0.7c0.1-0.2,0.4-0.1,0.6,0.1
					C173.6,211.3,173.6,211.6,173.5,211.8z"/>
				<path class="st5" d="M188.3,222.3c-0.1,0.1-0.3,0.1-0.5-0.1c-0.2-0.2-0.2-0.4-0.1-0.6c0.1-0.1,0.3-0.1,0.5,0.1
					C188.3,221.9,188.4,222.1,188.3,222.3z"/>
				<path class="st5" d="M182.6,227c-0.1,0.2-0.4,0.1-0.6-0.1c-0.2-0.2-0.2-0.5-0.1-0.6c0.1-0.2,0.4-0.1,0.6,0.1
					C182.7,226.6,182.8,226.9,182.6,227z"/>
				<path class="st5" d="M176.2,215.9c-0.1,0.1-0.3,0.1-0.5-0.1c-0.2-0.2-0.2-0.4-0.1-0.6c0.1-0.1,0.3-0.1,0.5,0.1
					C176.3,215.5,176.3,215.8,176.2,215.9z"/>
				<path class="st5" d="M179.4,221.9c-0.1,0.1-0.3,0.1-0.5-0.1c-0.2-0.2-0.2-0.4-0.1-0.6c0.1-0.1,0.3-0.1,0.5,0.1
					C179.5,221.5,179.5,221.8,179.4,221.9z"/>
				<path class="st5" d="M183.4,219c-0.2,0.3-0.6,0.2-0.9-0.1c-0.3-0.3-0.4-0.8-0.2-1.1c0.2-0.3,0.6-0.2,0.9,0.1
					C183.5,218.3,183.6,218.7,183.4,219z"/>
			</g>
			<g>
				<path class="st6" d="M134.8,180.4c0.2,0,0.4-0.1,0.5-0.3c0-0.2-0.1-0.4-0.3-0.5c-0.2,0-0.4,0.1-0.5,0.3
					C134.4,180.1,134.6,180.3,134.8,180.4z"/>
				<path class="st6" d="M165.6,168.9c0.1,0.2,0.4,0.2,0.6,0.1c0.2-0.1,0.2-0.4,0.1-0.6c-0.1-0.2-0.4-0.2-0.6-0.1
					C165.5,168.4,165.4,168.7,165.6,168.9z"/>
				<path class="st6" d="M132.1,192.7c0.1,0.2,0.4,0.2,0.6,0.1c0.2-0.1,0.2-0.4,0.1-0.6c-0.1-0.2-0.4-0.2-0.6-0.1
					C132,192.3,132,192.5,132.1,192.7z"/>
				<path class="st6" d="M133.5,213.4c0.2,0,0.4-0.1,0.5-0.3c0-0.2-0.1-0.4-0.3-0.5c-0.2,0-0.4,0.1-0.5,0.3
					C133.1,213.1,133.2,213.3,133.5,213.4z"/>
				<path class="st6" d="M136.6,209.1c0.2,0,0.4-0.1,0.5-0.3c0-0.2-0.1-0.4-0.3-0.5c-0.2,0-0.4,0.1-0.5,0.3
					C136.2,208.9,136.4,209.1,136.6,209.1z"/>
				<path class="st6" d="M160.3,202.7c0.2,0,0.4-0.1,0.5-0.3c0-0.2-0.1-0.4-0.3-0.5c-0.2,0-0.4,0.1-0.5,0.3
					C160,202.4,160.1,202.7,160.3,202.7z"/>
				<path class="st6" d="M139.8,212.5c0.2,0,0.4-0.1,0.5-0.3c0-0.2-0.1-0.4-0.3-0.5c-0.2,0-0.4,0.1-0.5,0.3
					C139.4,212.3,139.6,212.5,139.8,212.5z"/>
				<path class="st6" d="M144.2,207.7c0.2,0,0.4-0.1,0.5-0.3c0-0.2-0.1-0.4-0.3-0.5c-0.2,0-0.4,0.1-0.5,0.3
					C143.8,207.4,144,207.7,144.2,207.7z"/>
				<path class="st6" d="M141.4,223.1c0.1,0.2,0.4,0.2,0.6,0.1c0.2-0.1,0.2-0.4,0.1-0.6c-0.1-0.2-0.4-0.2-0.6-0.1
					C141.4,222.6,141.3,222.9,141.4,223.1z"/>
				<path class="st6" d="M151.4,190.5c0.2,0.3,0.6,0.4,0.9,0.2c0.3-0.2,0.4-0.6,0.2-0.9c-0.2-0.3-0.6-0.4-0.9-0.2
					C151.3,189.8,151.2,190.2,151.4,190.5z"/>
				<path class="st6" d="M155.2,238.8c0.1,0.2,0.3,0.2,0.5,0.1c0.2-0.1,0.2-0.3,0.1-0.5c-0.1-0.2-0.3-0.2-0.5-0.1
					C155.1,238.4,155.1,238.6,155.2,238.8z"/>
				<path class="st6" d="M141.9,234.7c0.1,0.2,0.3,0.2,0.5,0.1c0.2-0.1,0.2-0.3,0.1-0.5c-0.1-0.2-0.3-0.2-0.5-0.1
					C141.8,234.3,141.8,234.5,141.9,234.7z"/>
				<path class="st6" d="M160.6,235.4c0.1,0.2,0.3,0.2,0.5,0.1c0.2-0.1,0.2-0.3,0.1-0.5c-0.1-0.2-0.3-0.2-0.5-0.1
					C160.5,235,160.4,235.2,160.6,235.4z"/>
				<path class="st6" d="M153.3,243.2c0.1,0.2,0.3,0.2,0.5,0.1c0.2-0.1,0.2-0.3,0.1-0.5c-0.1-0.2-0.3-0.2-0.5-0.1
					C153.2,242.8,153.2,243,153.3,243.2z"/>
				<path class="st6" d="M159.8,188.3c0.1,0.2,0.3,0.2,0.5,0.1c0.2-0.1,0.2-0.3,0.1-0.5c-0.1-0.2-0.3-0.2-0.5-0.1
					C159.7,187.9,159.7,188.1,159.8,188.3z"/>
				<path class="st6" d="M145.3,186.1c0.1,0.2,0.3,0.2,0.5,0.1c0.2-0.1,0.2-0.3,0.1-0.5c-0.1-0.2-0.3-0.2-0.5-0.1
					C145.3,185.7,145.2,185.9,145.3,186.1z"/>
				<path class="st6" d="M157.7,179.4c0.1,0.2,0.4,0.2,0.6,0.1c0.2-0.1,0.2-0.4,0.1-0.6c-0.1-0.2-0.4-0.2-0.6-0.1
					C157.6,178.9,157.5,179.2,157.7,179.4z"/>
				<path class="st6" d="M148.5,179.6c0.1,0.2,0.4,0.2,0.6,0.1c0.2-0.1,0.2-0.4,0.1-0.6c-0.1-0.2-0.4-0.2-0.6-0.1
					C148.4,179.1,148.4,179.4,148.5,179.6z"/>
				<path class="st6" d="M161.5,240.6c0.1,0.2,0.4,0.2,0.6,0.1c0.2-0.1,0.2-0.4,0.1-0.6c-0.1-0.2-0.4-0.2-0.6-0.1
					C161.4,240.1,161.4,240.4,161.5,240.6z"/>
				<path class="st6" d="M147.2,236.9c0.2,0.3,0.6,0.4,0.9,0.2c0.3-0.2,0.4-0.6,0.2-0.9c-0.2-0.3-0.6-0.4-0.9-0.2
					C147.1,236.1,147,236.6,147.2,236.9z"/>
				<path class="st6" d="M134.3,218.8c0.2,0.3,0.6,0.4,0.9,0.2c0.3-0.2,0.4-0.6,0.2-0.9c-0.2-0.3-0.6-0.4-0.9-0.2
					C134.2,218.1,134.1,218.5,134.3,218.8z"/>
				<path class="st6" d="M146.3,212.6c0.2,0.3,0.6,0.4,0.9,0.2c0.3-0.2,0.4-0.6,0.2-0.9c-0.2-0.3-0.6-0.4-0.9-0.2
					C146.2,211.9,146.1,212.3,146.3,212.6z"/>
				<path class="st6" d="M151.2,198.9c0.2,0.3,0.6,0.4,0.9,0.2c0.3-0.2,0.4-0.6,0.2-0.9c-0.2-0.3-0.6-0.4-0.9-0.2
					C151,198.2,151,198.6,151.2,198.9z"/>
				<path class="st6" d="M164.1,263.4c0.1,0.2,0.3,0.2,0.5,0.1c0.2-0.1,0.2-0.3,0.1-0.5c-0.1-0.2-0.3-0.2-0.5-0.1
					C164,263,164,263.2,164.1,263.4z"/>
				<path class="st6" d="M162,259.2c0.1,0.2,0.3,0.2,0.5,0.1c0.2-0.1,0.2-0.3,0.1-0.5c-0.1-0.2-0.3-0.2-0.5-0.1
					C161.9,258.8,161.9,259,162,259.2z"/>
				<path class="st6" d="M169.5,263.1c0.1,0.2,0.4,0.2,0.6,0.1c0.2-0.1,0.2-0.4,0.1-0.6c-0.1-0.2-0.4-0.2-0.6-0.1
					C169.4,262.6,169.4,262.9,169.5,263.1z"/>
				<path class="st6" d="M156.2,258.7c0.2,0.3,0.6,0.4,0.9,0.2c0.3-0.2,0.4-0.6,0.2-0.9c-0.2-0.3-0.6-0.4-0.9-0.2
					C156,257.9,155.9,258.4,156.2,258.7z"/>
				<path class="st6" d="M147.4,262.2c0.2,0.3,0.6,0.4,0.9,0.2c0.3-0.2,0.4-0.6,0.2-0.9c-0.2-0.3-0.6-0.4-0.9-0.2
					C147.2,261.5,147.2,261.9,147.4,262.2z"/>
				<path class="st6" d="M167.2,255.1c0.2,0.3,0.6,0.4,0.9,0.2c0.3-0.2,0.4-0.6,0.2-0.9c-0.2-0.3-0.6-0.4-0.9-0.2
					C167.1,254.4,167,254.8,167.2,255.1z"/>
				<path class="st6" d="M131.2,255.8c-0.1-0.2-0.3-0.2-0.5-0.1c-0.2,0.1-0.2,0.3-0.1,0.5c0.1,0.2,0.3,0.2,0.5,0.1
					C131.2,256.2,131.3,256,131.2,255.8z"/>
				<path class="st6" d="M132.5,260.3c-0.1-0.2-0.3-0.2-0.5-0.1c-0.2,0.1-0.2,0.3-0.1,0.5c0.1,0.2,0.3,0.2,0.5,0.1
					C132.5,260.7,132.6,260.5,132.5,260.3z"/>
				<path class="st6" d="M136.7,251.7c-0.1-0.2-0.4-0.3-0.6-0.2c-0.2,0.1-0.3,0.4-0.2,0.6c0.1,0.2,0.4,0.3,0.6,0.2
					C136.7,252.2,136.8,251.9,136.7,251.7z"/>
				<path class="st6" d="M142.7,239.7c-0.1-0.2-0.4-0.3-0.6-0.2c-0.2,0.1-0.3,0.4-0.2,0.6c0.1,0.2,0.4,0.3,0.6,0.2
					C142.7,240.2,142.8,240,142.7,239.7z"/>
				<path class="st6" d="M138.1,261.9c-0.2-0.3-0.5-0.5-0.9-0.3c-0.3,0.2-0.5,0.5-0.3,0.9c0.2,0.3,0.5,0.5,0.9,0.3
					C138.2,262.6,138.3,262.2,138.1,261.9z"/>
				<path class="st6" d="M127.5,262.4c-0.2-0.3-0.5-0.5-0.9-0.3c-0.3,0.2-0.5,0.5-0.3,0.9c0.2,0.3,0.5,0.5,0.9,0.3
					C127.5,263.2,127.6,262.8,127.5,262.4z"/>
				<path class="st6" d="M151.9,261.2c0.1,0.2,0.3,0.2,0.5,0.1c0.2-0.1,0.2-0.3,0.1-0.5c-0.1-0.2-0.3-0.2-0.5-0.1
					C151.8,260.8,151.8,261,151.9,261.2z"/>
				<path class="st6" d="M168.2,246.6c0.2,0.3,0.6,0.4,0.9,0.2c0.3-0.2,0.4-0.6,0.2-0.9c-0.2-0.3-0.6-0.4-0.9-0.2
					C168.1,245.9,168,246.3,168.2,246.6z"/>
				<path class="st6" d="M153.3,248.8c0.2,0.3,0.6,0.4,0.9,0.2c0.3-0.2,0.4-0.6,0.2-0.9c-0.2-0.3-0.6-0.4-0.9-0.2
					C153.2,248.1,153.1,248.5,153.3,248.8z"/>
				<path class="st6" d="M139.4,230.8c0.2,0.3,0.6,0.4,0.9,0.2c0.3-0.2,0.4-0.6,0.2-0.9c-0.2-0.3-0.6-0.4-0.9-0.2
					C139.2,230.1,139.2,230.5,139.4,230.8z"/>
				<path class="st6" d="M153.7,226c0.2,0.3,0.6,0.4,0.9,0.2c0.3-0.2,0.4-0.6,0.2-0.9c-0.2-0.3-0.6-0.4-0.9-0.2
					C153.6,225.3,153.5,225.7,153.7,226z"/>
				<path class="st6" d="M154,212.5c0.2,0.3,0.6,0.4,0.9,0.2c0.3-0.2,0.4-0.6,0.2-0.9c-0.2-0.3-0.6-0.4-0.9-0.2
					C153.9,211.8,153.8,212.2,154,212.5z"/>
				<path class="st6" d="M147.2,245.1c0.2,0.3,0.6,0.4,0.9,0.2s0.4-0.6,0.2-0.9c-0.2-0.3-0.6-0.4-0.9-0.2
					C147.1,244.3,147,244.8,147.2,245.1z"/>
				<path class="st6" d="M161.7,249.4c0.1,0.2,0.3,0.2,0.5,0.1c0.2-0.1,0.2-0.3,0.1-0.5c-0.1-0.2-0.3-0.2-0.5-0.1
					C161.6,249,161.6,249.3,161.7,249.4z"/>
				<path class="st6" d="M172,252c0.1,0.2,0.3,0.2,0.5,0.1c0.2-0.1,0.2-0.3,0.1-0.5c-0.1-0.2-0.3-0.2-0.5-0.1
					C171.9,251.7,171.9,251.9,172,252z"/>
				<path class="st6" d="M141.3,257.8c0.1,0.2,0.3,0.2,0.5,0.1c0.2-0.1,0.2-0.3,0.1-0.5c-0.1-0.2-0.3-0.2-0.5-0.1
					C141.2,257.4,141.2,257.7,141.3,257.8z"/>
				<path class="st6" d="M156.5,263.6c0.1,0.2,0.3,0.2,0.5,0.1c0.2-0.1,0.2-0.3,0.1-0.5c-0.1-0.2-0.3-0.2-0.5-0.1
					C156.4,263.2,156.3,263.4,156.5,263.6z"/>
				<path class="st6" d="M128.5,250.6c0.2,0.3,0.6,0.4,0.9,0.2c0.3-0.2,0.4-0.6,0.2-0.9c-0.2-0.3-0.6-0.4-0.9-0.2
					C128.4,249.9,128.3,250.3,128.5,250.6z"/>
				<path class="st6" d="M133.6,246.3c0.1,0.2,0.3,0.2,0.5,0.1c0.2-0.1,0.2-0.3,0.1-0.5c-0.1-0.2-0.3-0.2-0.5-0.1
					C133.5,246,133.4,246.2,133.6,246.3z"/>
				<path class="st6" d="M130.6,242.3c0.1,0.2,0.3,0.2,0.5,0.1c0.2-0.1,0.2-0.3,0.1-0.5c-0.1-0.2-0.3-0.2-0.5-0.1
					C130.5,241.9,130.5,242.1,130.6,242.3z"/>
				<path class="st6" d="M149.7,254.6c0.1,0.2,0.4,0.2,0.6,0.1c0.2-0.1,0.2-0.4,0.1-0.6c-0.1-0.2-0.4-0.2-0.6-0.1
					C149.6,254.2,149.5,254.4,149.7,254.6z"/>
				<path class="st6" d="M158.6,245.4c0.1,0.2,0.4,0.2,0.6,0.1c0.2-0.1,0.2-0.4,0.1-0.6c-0.1-0.2-0.4-0.2-0.6-0.1
					C158.5,244.9,158.5,245.2,158.6,245.4z"/>
				<path class="st6" d="M133.9,230.3c0.1,0.2,0.4,0.2,0.6,0.1c0.2-0.1,0.2-0.4,0.1-0.6c-0.1-0.2-0.4-0.2-0.6-0.1
					C133.8,229.9,133.7,230.1,133.9,230.3z"/>
				<path class="st6" d="M146.5,223.8c0.1,0.2,0.4,0.2,0.6,0.1c0.2-0.1,0.2-0.4,0.1-0.6c-0.1-0.2-0.4-0.2-0.6-0.1
					C146.4,223.4,146.4,223.6,146.5,223.8z"/>
				<path class="st6" d="M159,254.3c0.1,0.2,0.4,0.2,0.6,0.1c0.2-0.1,0.2-0.4,0.1-0.6c-0.1-0.2-0.4-0.2-0.6-0.1
					C158.9,253.8,158.9,254.1,159,254.3z"/>
				<path class="st6" d="M144.5,251.3c0.1,0.2,0.4,0.2,0.6,0.1c0.2-0.1,0.2-0.4,0.1-0.6c-0.1-0.2-0.4-0.2-0.6-0.1
					C144.4,250.8,144.3,251.1,144.5,251.3z"/>
				<path class="st6" d="M166.2,235c0.2,0.3,0.6,0.4,0.9,0.2c0.3-0.2,0.4-0.6,0.2-0.9c-0.2-0.3-0.6-0.4-0.9-0.2
					C166.1,234.3,166,234.7,166.2,235z"/>
				<path class="st6" d="M153.2,233.8c0.1,0.2,0.3,0.2,0.5,0.1c0.2-0.1,0.2-0.3,0.1-0.5c-0.1-0.2-0.3-0.2-0.5-0.1
					C153.2,233.4,153.1,233.7,153.2,233.8z"/>
				<path class="st6" d="M169.9,228.4c0.1,0.2,0.3,0.2,0.5,0.1c0.2-0.1,0.2-0.3,0.1-0.5c-0.1-0.2-0.3-0.2-0.5-0.1
					C169.8,228,169.7,228.3,169.9,228.4z"/>
				<path class="st6" d="M168.6,241c0.1,0.2,0.3,0.2,0.5,0.1c0.2-0.1,0.2-0.3,0.1-0.5c-0.1-0.2-0.3-0.2-0.5-0.1
					C168.5,240.6,168.4,240.8,168.6,241z"/>
				<path class="st6" d="M142,176.7c0.2,0.3,0.6,0.4,0.9,0.2c0.3-0.2,0.4-0.6,0.2-0.9c-0.2-0.3-0.6-0.4-0.9-0.2
					C141.9,175.9,141.8,176.4,142,176.7z"/>
				<path class="st6" d="M156.8,172.3c0.2,0.3,0.6,0.4,0.9,0.2c0.3-0.2,0.4-0.6,0.2-0.9c-0.2-0.3-0.6-0.4-0.9-0.2
					C156.6,171.6,156.6,172,156.8,172.3z"/>
				<path class="st6" d="M163.7,227.4c0.1,0.2,0.4,0.2,0.6,0.1c0.2-0.1,0.2-0.4,0.1-0.6c-0.1-0.2-0.4-0.2-0.6-0.1
					C163.6,227,163.5,227.3,163.7,227.4z"/>
				<path class="st6" d="M159,229.7c0.1,0.2,0.4,0.2,0.6,0.1c0.2-0.1,0.2-0.4,0.1-0.6c-0.1-0.2-0.4-0.2-0.6-0.1
					C158.9,229.2,158.9,229.5,159,229.7z"/>
				<path class="st6" d="M151.1,209.1c0.1,0.2,0.3,0.2,0.5,0.1c0.2-0.1,0.2-0.3,0.1-0.5c-0.1-0.2-0.3-0.2-0.5-0.1
					C151,208.7,151,209,151.1,209.1z"/>
				<path class="st6" d="M166.5,208.3c0.1,0.2,0.3,0.2,0.5,0.1c0.2-0.1,0.2-0.3,0.1-0.5c-0.1-0.2-0.3-0.2-0.5-0.1
					C166.4,207.9,166.4,208.1,166.5,208.3z"/>
				<path class="st6" d="M152.2,205.3c0.1,0.2,0.3,0.2,0.5,0.1c0.2-0.1,0.2-0.3,0.1-0.5c-0.1-0.2-0.3-0.2-0.5-0.1
					C152.1,204.9,152.1,205.2,152.2,205.3z"/>
				<path class="st6" d="M157.9,206.7c0.1,0.2,0.4,0.2,0.6,0.1c0.2-0.1,0.2-0.4,0.1-0.6c-0.1-0.2-0.4-0.2-0.6-0.1
					C157.8,206.2,157.7,206.5,157.9,206.7z"/>
				<path class="st6" d="M145.6,203.1c0.2,0.3,0.6,0.4,0.9,0.2c0.3-0.2,0.4-0.6,0.2-0.9c-0.2-0.3-0.6-0.4-0.9-0.2
					C145.5,202.4,145.4,202.8,145.6,203.1z"/>
				<path class="st6" d="M136.1,238.2c0.2,0.3,0.6,0.4,0.9,0.2c0.3-0.2,0.4-0.6,0.2-0.9c-0.2-0.3-0.6-0.4-0.9-0.2
					C136,237.5,135.9,237.9,136.1,238.2z"/>
				<path class="st6" d="M164.1,223.1c0.2,0.3,0.6,0.4,0.9,0.2c0.3-0.2,0.4-0.6,0.2-0.9c-0.2-0.3-0.6-0.4-0.9-0.2
					C163.9,222.4,163.8,222.8,164.1,223.1z"/>
				<path class="st6" d="M147.1,228.4c0.1,0.2,0.3,0.2,0.5,0.1c0.2-0.1,0.2-0.3,0.1-0.5c-0.1-0.2-0.3-0.2-0.5-0.1
					C147,228,147,228.3,147.1,228.4z"/>
				<path class="st6" d="M138.8,246.7c0.1,0.2,0.3,0.2,0.5,0.1c0.2-0.1,0.2-0.3,0.1-0.5c-0.1-0.2-0.3-0.2-0.5-0.1
					C138.7,246.3,138.7,246.5,138.8,246.7z"/>
				<path class="st6" d="M130.9,223.8c0.1,0.2,0.3,0.2,0.5,0.1c0.2-0.1,0.2-0.3,0.1-0.5c-0.1-0.2-0.3-0.2-0.5-0.1
					C130.9,223.4,130.8,223.6,130.9,223.8z"/>
				<path class="st6" d="M130.7,235.5c0.2,0.3,0.6,0.4,0.9,0.2c0.3-0.2,0.4-0.6,0.2-0.9c-0.2-0.3-0.6-0.4-0.9-0.2
					C130.6,234.8,130.5,235.2,130.7,235.5z"/>
				<path class="st6" d="M162.3,192.7c0.2,0.3,0.6,0.4,0.9,0.2c0.3-0.2,0.4-0.6,0.2-0.9c-0.2-0.3-0.6-0.4-0.9-0.2
					C162.2,192,162.1,192.4,162.3,192.7z"/>
				<path class="st6" d="M154,184.9c0.1,0.2,0.3,0.2,0.5,0.1c0.2-0.1,0.2-0.3,0.1-0.5c-0.1-0.2-0.3-0.2-0.5-0.1
					C153.9,184.5,153.8,184.8,154,184.9z"/>
				<path class="st6" d="M161.2,183.5c0.1,0.2,0.4,0.2,0.6,0.1c0.2-0.1,0.2-0.4,0.1-0.6c-0.1-0.2-0.4-0.2-0.6-0.1
					C161.1,183.1,161,183.3,161.2,183.5z"/>
				<path class="st6" d="M156.4,193.5c0.1,0.2,0.3,0.2,0.5,0.1c0.2-0.1,0.2-0.3,0.1-0.5c-0.1-0.2-0.3-0.2-0.5-0.1
					C156.3,193.1,156.3,193.4,156.4,193.5z"/>
				<path class="st6" d="M165,187.8c0.2,0.3,0.6,0.4,0.9,0.2c0.3-0.2,0.4-0.6,0.2-0.9c-0.2-0.3-0.6-0.4-0.9-0.2
					C164.9,187.1,164.8,187.5,165,187.8z"/>
				<path class="st6" d="M164,217.6c0-0.2-0.1-0.4-0.3-0.4c-0.2,0-0.4,0.1-0.4,0.3c0,0.2,0.1,0.4,0.3,0.4
					C163.8,217.9,164,217.8,164,217.6z"/>
				<path class="st6" d="M158.6,220.7c0-0.2-0.1-0.4-0.3-0.4c-0.2,0-0.4,0.1-0.4,0.3c0,0.2,0.1,0.4,0.3,0.4
					C158.4,221,158.6,220.8,158.6,220.7z"/>
				<path class="st6" d="M159.3,214.6c0-0.2-0.1-0.5-0.4-0.5c-0.2,0-0.5,0.1-0.5,0.4c0,0.2,0.1,0.5,0.4,0.5
					C159,214.9,159.2,214.8,159.3,214.6z"/>
				<path class="st6" d="M165,201.9c0-0.2-0.1-0.5-0.4-0.5c-0.2,0-0.5,0.1-0.5,0.4c0,0.2,0.1,0.5,0.4,0.5
					C164.8,202.3,165,202.2,165,201.9z"/>
				<path class="st6" d="M163,210c0.1-0.4-0.2-0.7-0.6-0.8c-0.4-0.1-0.7,0.2-0.8,0.6c-0.1,0.4,0.2,0.7,0.6,0.8
					C162.6,210.6,162.9,210.4,163,210z"/>
				<path class="st6" d="M155.4,216.6c0-0.2-0.1-0.4-0.3-0.4c-0.2,0-0.4,0.1-0.4,0.3c0,0.2,0.1,0.4,0.3,0.4
					C155.2,216.9,155.4,216.8,155.4,216.6z"/>
				<path class="st6" d="M139.8,199.5c0.2,0.3,0.6,0.4,0.9,0.2c0.3-0.2,0.4-0.6,0.2-0.9c-0.2-0.3-0.6-0.4-0.9-0.2
					C139.6,198.8,139.5,199.2,139.8,199.5z"/>
				<path class="st6" d="M132,199.1c0.1,0.2,0.3,0.2,0.5,0.1c0.2-0.1,0.2-0.3,0.1-0.5c-0.1-0.2-0.3-0.2-0.5-0.1
					C131.9,198.7,131.9,198.9,132,199.1z"/>
				<path class="st6" d="M139.6,204.6c0.1,0.2,0.3,0.2,0.5,0.1c0.2-0.1,0.2-0.3,0.1-0.5c-0.1-0.2-0.3-0.2-0.5-0.1
					C139.5,204.2,139.5,204.4,139.6,204.6z"/>
				<path class="st6" d="M135,186.2c0.1,0.2,0.3,0.2,0.5,0.1c0.2-0.1,0.2-0.3,0.1-0.5c-0.1-0.2-0.3-0.2-0.5-0.1
					C134.9,185.8,134.9,186,135,186.2z"/>
				<path class="st6" d="M150.5,175c0.1,0.2,0.3,0.2,0.5,0.1c0.2-0.1,0.2-0.3,0.1-0.5c-0.1-0.2-0.3-0.2-0.5-0.1
					C150.4,174.6,150.4,174.8,150.5,175z"/>
				<path class="st6" d="M137.4,190.8c0.1,0.2,0.4,0.2,0.6,0.1c0.2-0.1,0.2-0.4,0.1-0.6c-0.1-0.2-0.4-0.2-0.6-0.1
					C137.4,190.4,137.3,190.6,137.4,190.8z"/>
				<path class="st6" d="M163.2,175c0.1,0.2,0.4,0.2,0.6,0.1c0.2-0.1,0.2-0.4,0.1-0.6c-0.1-0.2-0.4-0.2-0.6-0.1
					C163.1,174.6,163.1,174.8,163.2,175z"/>
				<path class="st6" d="M135.8,197.2c0.1,0.2,0.3,0.2,0.5,0.1c0.2-0.1,0.2-0.3,0.1-0.5c-0.1-0.2-0.3-0.2-0.5-0.1
					C135.7,196.8,135.7,197,135.8,197.2z"/>
				<path class="st6" d="M131.8,206.2c0.1,0.2,0.3,0.2,0.5,0.1c0.2-0.1,0.2-0.3,0.1-0.5c-0.1-0.2-0.3-0.2-0.5-0.1
					C131.7,205.8,131.6,206,131.8,206.2z"/>
				<path class="st6" d="M142.5,194.7c0.2,0.3,0.6,0.4,0.9,0.2c0.3-0.2,0.4-0.6,0.2-0.9c-0.2-0.3-0.6-0.4-0.9-0.2
					C142.3,194,142.2,194.4,142.5,194.7z"/>
				<path class="st6" d="M165,179.7c0.2,0.3,0.6,0.4,0.9,0.2c0.3-0.2,0.4-0.6,0.2-0.9c-0.2-0.3-0.6-0.4-0.9-0.2
					C164.8,179,164.7,179.4,165,179.7z"/>
				<path class="st6" d="M140.1,182.9c0.1,0.2,0.3,0.2,0.5,0.1c0.2-0.1,0.2-0.3,0.1-0.5c-0.1-0.2-0.3-0.2-0.5-0.1
					C140,182.5,140,182.7,140.1,182.9z"/>
				<path class="st6" d="M136.4,175.8c0.1,0.2,0.3,0.2,0.5,0.1c0.2-0.1,0.2-0.3,0.1-0.5c-0.1-0.2-0.3-0.2-0.5-0.1
					C136.3,175.4,136.3,175.6,136.4,175.8z"/>
				<path class="st6" d="M137.1,225.8c0.1,0.2,0.3,0.2,0.5,0.1c0.2-0.1,0.2-0.3,0.1-0.5c-0.1-0.2-0.3-0.2-0.5-0.1
					C137,225.5,137,225.7,137.1,225.8z"/>
				<path class="st6" d="M150.3,218.9c0.1,0.2,0.4,0.2,0.6,0.1c0.2-0.1,0.2-0.4,0.1-0.6c-0.1-0.2-0.4-0.2-0.6-0.1
					C150.2,218.4,150.2,218.7,150.3,218.9z"/>
				<path class="st6" d="M166.4,196.4c0.1,0.2,0.4,0.2,0.6,0.1c0.2-0.1,0.2-0.4,0.1-0.6c-0.1-0.2-0.4-0.2-0.6-0.1
					C166.4,196,166.3,196.3,166.4,196.4z"/>
				<path class="st6" d="M142,218.2c0.1,0.2,0.4,0.2,0.6,0.1c0.2-0.1,0.2-0.4,0.1-0.6c-0.1-0.2-0.4-0.2-0.6-0.1
					C141.9,217.8,141.8,218.1,142,218.2z"/>
				<path class="st6" d="M168.6,216.4c0.1,0.2,0.3,0.2,0.5,0.1c0.2-0.1,0.2-0.3,0.1-0.5c-0.1-0.2-0.3-0.2-0.5-0.1
					C168.5,216,168.4,216.2,168.6,216.4z"/>
				<path class="st6" d="M159.1,198c0.1,0.2,0.3,0.2,0.5,0.1c0.2-0.1,0.2-0.3,0.1-0.5c-0.1-0.2-0.3-0.2-0.5-0.1
					C159,197.6,158.9,197.8,159.1,198z"/>
			</g>
			<g>
				<path class="st7" d="M135.5,169.9c0.2,0.3,0.6,0.4,0.9,0.2c0.3-0.2,0.4-0.7,0.2-1.1c-0.2-0.3-0.6-0.4-0.9-0.2
					C135.4,169.1,135.3,169.6,135.5,169.9z"/>
				<path class="st7" d="M150.7,165.1c0.1,0.2,0.3,0.2,0.5,0.1c0.1-0.1,0.2-0.4,0.1-0.6c-0.1-0.2-0.3-0.2-0.5-0.1
					C150.6,164.7,150.5,164.9,150.7,165.1z"/>
				<path class="st7" d="M146.3,162.9c0.1,0.2,0.3,0.2,0.5,0.1c0.1-0.1,0.2-0.4,0.1-0.6c-0.1-0.2-0.3-0.2-0.5-0.1
					C146.2,162.5,146.2,162.7,146.3,162.9z"/>
				<path class="st7" d="M135.8,152.8c0.1,0.2,0.3,0.2,0.5,0.1c0.1-0.1,0.2-0.4,0.1-0.6c-0.1-0.2-0.3-0.2-0.5-0.1
					C135.7,152.4,135.7,152.6,135.8,152.8z"/>
				<path class="st7" d="M141.8,171c0.2,0.3,0.6,0.4,0.9,0.2c0.3-0.2,0.4-0.7,0.2-1.1c-0.2-0.3-0.6-0.4-0.9-0.2
					C141.7,170.1,141.6,170.6,141.8,171z"/>
				<path class="st7" d="M142.1,160.6c0.1,0.2,0.3,0.2,0.5,0.1c0.2-0.1,0.2-0.4,0.1-0.6c-0.1-0.2-0.3-0.2-0.5-0.1
					C142,160.2,141.9,160.4,142.1,160.6z"/>
				<path class="st7" d="M135.1,158.4c0.1,0.2,0.3,0.2,0.5,0.1c0.2-0.1,0.2-0.4,0.1-0.6c-0.1-0.2-0.3-0.2-0.5-0.1
					C135,158,135,158.3,135.1,158.4z"/>
				<path class="st7" d="M159.4,156.9c0.1,0.2,0.3,0.2,0.5,0.1c0.1-0.1,0.2-0.4,0.1-0.6c-0.1-0.2-0.3-0.2-0.5-0.1
					C159.3,156.5,159.3,156.7,159.4,156.9z"/>
				<path class="st7" d="M162.9,154.4c0.1,0.2,0.3,0.2,0.5,0.1c0.1-0.1,0.2-0.4,0.1-0.6c-0.1-0.2-0.3-0.2-0.5-0.1
					C162.8,154,162.8,154.3,162.9,154.4z"/>
				<path class="st7" d="M155.3,159.7c0.1,0.2,0.3,0.2,0.5,0.1c0.1-0.1,0.2-0.4,0.1-0.6c-0.1-0.2-0.3-0.2-0.5-0.1
					C155.2,159.2,155.2,159.5,155.3,159.7z"/>
				<path class="st7" d="M154.1,154.4c0.1,0.2,0.3,0.2,0.5,0.1c0.1-0.1,0.2-0.4,0.1-0.6c-0.1-0.2-0.3-0.2-0.5-0.1
					C154,154,154,154.3,154.1,154.4z"/>
				<path class="st7" d="M152.6,169.4c0.1,0.2,0.3,0.2,0.5,0.1c0.1-0.1,0.2-0.4,0.1-0.6c-0.1-0.2-0.3-0.2-0.5-0.1
					C152.5,169,152.5,169.2,152.6,169.4z"/>
				<path class="st7" d="M164,158.1c0.1,0.2,0.4,0.3,0.6,0.1c0.2-0.2,0.2-0.5,0.1-0.7c-0.1-0.2-0.4-0.3-0.6-0.1
					C163.9,157.6,163.8,157.9,164,158.1z"/>
				<path class="st7" d="M146.6,170.6c0.1,0.2,0.4,0.3,0.6,0.1c0.2-0.2,0.2-0.5,0.1-0.7c-0.1-0.2-0.4-0.3-0.6-0.1
					C146.6,170,146.5,170.3,146.6,170.6z"/>
				<path class="st7" d="M147.8,153.3c0.3,0,0.5-0.1,0.5-0.4c0-0.3-0.2-0.5-0.5-0.5c-0.3,0-0.5,0.1-0.5,0.4
					C147.4,153,147.6,153.3,147.8,153.3z"/>
				<path class="st7" d="M142.6,152.5c0.2-0.1,0.3-0.4,0.2-0.6c-0.1-0.2-0.4-0.3-0.7-0.2c-0.2,0.1-0.3,0.4-0.2,0.6
					C142,152.5,142.3,152.6,142.6,152.5z"/>
				<path class="st7" d="M144.9,155.5c-0.2-0.1-0.5,0-0.6,0.2c-0.1,0.2,0,0.5,0.3,0.6c0.2,0.1,0.5,0,0.6-0.2
					C145.3,155.9,145.2,155.6,144.9,155.5z"/>
				<path class="st7" d="M160.8,166.2c-0.1-0.2-0.3-0.4-0.5-0.2c-0.2,0.1-0.3,0.4-0.2,0.7c0.1,0.2,0.3,0.4,0.5,0.2
					C160.8,166.7,160.9,166.4,160.8,166.2z"/>
				<path class="st7" d="M155,164.6c0.2,0.3,0.6,0.4,0.9,0.2c0.3-0.2,0.4-0.7,0.2-1.1c-0.2-0.3-0.6-0.4-0.9-0.2
					C154.9,163.7,154.8,164.2,155,164.6z"/>
				<path class="st7" d="M150,158.5c0.4,0.1,0.7-0.1,0.7-0.5c0-0.4-0.3-0.8-0.7-0.8c-0.4-0.1-0.7,0.1-0.7,0.5
					C149.3,158,149.6,158.4,150,158.5z"/>
				<path class="st7" d="M164,165.1c0.1,0.2,0.3,0.2,0.5,0.1c0.2-0.1,0.2-0.4,0.1-0.6c-0.1-0.2-0.3-0.2-0.5-0.1
					C163.9,164.7,163.9,164.9,164,165.1z"/>
				<path class="st7" d="M138.2,163.2c0.1,0.2,0.3,0.2,0.5,0.1c0.2-0.1,0.2-0.4,0.1-0.6c-0.1-0.2-0.3-0.2-0.5-0.1
					C138.1,162.7,138.1,163,138.2,163.2z"/>
				<path class="st7" d="M160.2,161.8c0.1,0.2,0.4,0.3,0.5,0.1c0.2-0.1,0.2-0.4,0.1-0.6c-0.1-0.2-0.4-0.3-0.5-0.1
					C160.1,161.3,160,161.6,160.2,161.8z"/>
				<path class="st7" d="M140,156.5c0.4-0.1,0.5-0.5,0.3-0.8s-0.6-0.5-1-0.3c-0.4,0.1-0.5,0.5-0.3,0.8
					C139.1,156.5,139.6,156.6,140,156.5z"/>
				<path class="st7" d="M142.2,165.9c0.1,0.2,0.3,0.2,0.5,0.1c0.2-0.1,0.2-0.4,0.1-0.6c-0.1-0.2-0.3-0.2-0.5-0.1
					C142.2,165.5,142.1,165.8,142.2,165.9z"/>
			</g>
		</g>
		<path class="st8" d="M124.4,266.1h51.1l-11.8-140.9h0c-4.3,0.4-8.9,0.7-13.7,0.7c-4.8,0-9.5-0.2-13.7-0.7L124.4,266.1z"/>
		<path class="st9" d="M163.7,125.2l11.8,140.9l25.4-15.5l-11.6-135.3C189.4,119.8,178.7,123.7,163.7,125.2z"/>
		<path class="st9" d="M99,250.6l25.4,15.5l11.8-140.9c-15-1.5-25.6-5.3-25.6-9.9L99,250.6z"/>
		<g>
			<path class="st10" d="M110.4,102.1c0,6.3,17.7,11.3,39.6,11.3s39.6-5.1,39.6-11.3v14.1c0,6.3-17.7,11.3-39.6,11.3
				s-39.6-5.1-39.6-11.3V102.1z"/>
			<ellipse class="st11" cx="150" cy="102.1" rx="39.6" ry="11.3"/>
			<ellipse class="st11" cx="150" cy="77.1" rx="35.1" ry="10.9"/>
			<path class="st10" d="M114.9,101.7c0,6,15.7,9.3,35.1,9.3s35.1-3.3,35.1-9.3V77.1c0,6-15.7,10.9-35.1,10.9s-35.1-4.9-35.1-10.9
				V101.7z"/>
			<g>
				<ellipse class="st12" cx="150" cy="82.9" rx="3.1" ry="1.3"/>
				<ellipse class="st12" cx="150" cy="76.5" rx="2.2" ry="0.9"/>
				<ellipse class="st12" cx="150" cy="70.2" rx="3.1" ry="1.3"/>
				<g>
					<ellipse class="st12" cx="160.8" cy="76.5" rx="3.1" ry="1.3"/>
					<ellipse class="st12" cx="139.2" cy="76.5" rx="3.1" ry="1.3"/>
				</g>
				<g>
					<ellipse class="st12" cx="175.2" cy="76.5" rx="3.1" ry="1.3"/>
					<ellipse class="st12" cx="124.8" cy="76.5" rx="3.1" ry="1.3"/>
				</g>
			</g>
			<g>
				<g>
					<path class="st10" d="M153.1,82.9c0,0.1,0,0.3-0.1,0.4c-0.4-0.6-1.6-1-3-1c-1.4,0-2.6,0.4-3,1c-0.1-0.1-0.1-0.2-0.1-0.4
						c0-0.7,1.4-1.3,3.1-1.3C151.7,81.5,153.1,82.1,153.1,82.9z"/>
					<path class="st10" d="M152.2,76.5c0,0.1-0.1,0.3-0.2,0.4c-0.3-0.3-1.1-0.6-2-0.6c-0.9,0-1.7,0.2-2,0.6c0,0,0,0,0,0
						c-0.1-0.1-0.2-0.2-0.2-0.4c0-0.5,1-0.9,2.2-0.9C151.2,75.6,152.2,76,152.2,76.5z"/>
					<path class="st10" d="M153.1,70.2c0,0.1,0,0.3-0.1,0.4c-0.4-0.6-1.6-1-3-1c-1.4,0-2.6,0.4-3,1c-0.1-0.1-0.1-0.2-0.1-0.4
						c0-0.7,1.4-1.3,3.1-1.3C151.7,68.8,153.1,69.5,153.1,70.2z"/>
					<g>
						<path class="st10" d="M164,76.5c0,0.1,0,0.3-0.1,0.4c-0.4-0.6-1.6-1-3-1c-1.4,0-2.6,0.4-3,1c-0.1-0.1-0.1-0.2-0.1-0.4
							c0-0.7,1.4-1.3,3.1-1.3C162.6,75.2,164,75.8,164,76.5z"/>
						<path class="st10" d="M142.3,76.5c0,0.1,0,0.3-0.1,0.4c-0.4-0.6-1.6-1-3-1c-1.4,0-2.6,0.4-3,1c-0.1-0.1-0.1-0.2-0.1-0.4
							c0-0.7,1.4-1.3,3.1-1.3C140.9,75.2,142.3,75.8,142.3,76.5z"/>
					</g>
					<g>
						<path class="st10" d="M178.3,76.5c0,0.1,0,0.3-0.1,0.4c-0.4-0.6-1.6-1-3-1c-1.4,0-2.6,0.4-3,1c-0.1-0.1-0.1-0.2-0.1-0.4
							c0-0.7,1.4-1.3,3.1-1.3C176.9,75.2,178.3,75.8,178.3,76.5z"/>
						<path class="st10" d="M127.9,76.5c0,0.1,0,0.3-0.1,0.4c-0.4-0.6-1.6-1-3-1c-1.4,0-2.6,0.4-3,1c-0.1-0.1-0.1-0.2-0.1-0.4
							c0-0.7,1.4-1.3,3.1-1.3C126.5,75.2,127.9,75.8,127.9,76.5z"/>
					</g>
				</g>
			</g>
			<path class="st13" d="M162.1,73.7c-0.7,1.9-4,2.2-6.1,2.5c-6.2,1-10.9,2.5-14.8,5.6c-2.6,2.2-2.7,4.3-2.7,5.6
				c-13.8-1.5-23.8-5.5-23.8-10.3c0-1.9,1.6-3.7,4.4-5.3c0.1,0,0.1-0.1,0.2-0.1c0.1,0,0.1-0.1,0.2-0.1c0,0,0,0,0.1,0
				c3.2-1.6,10.7-2.7,18.1-3.3c8.4-0.6,16.7-0.2,20.2,1.1C161.2,70.6,162.6,72.4,162.1,73.7z"/>
			<path class="st14" d="M138.5,100.1c0,5.4,0,8.9-0.1,10.5c-13.5-1-23.2-4-23.6-8.6c0,0,0,0,0,0c0,0,0-0.1,0-0.1c0-0.1,0-0.1,0-0.2
				V77.1c0,0,0,0.1,0,0.1c0,0,0,0.1,0,0.1c0,0.1,0,0.1,0,0.2c0,0.1,0,0.2,0,0.3c0,0,0,0.1,0,0.1c0,0,0,0.1,0,0.1
				c0.1,0.3,0.2,0.6,0.4,0.9c0,0,0,0.1,0.1,0.1c0,0,0,0.1,0.1,0.1c0.1,0.1,0.1,0.2,0.2,0.3c0,0,0.1,0.1,0.1,0.1
				c0.1,0.1,0.1,0.2,0.2,0.3c0,0,0.1,0.1,0.1,0.1c0,0,0.1,0.1,0.1,0.1c0.4,0.5,1,0.9,1.6,1.4c0.2,0.1,0.3,0.2,0.5,0.3
				c0.6,0.4,1.2,0.7,1.9,1.1c0.1,0,0.1,0.1,0.2,0.1c0.3,0.2,0.6,0.3,1,0.4c0.1,0,0.1,0.1,0.2,0.1c0.1,0,0.2,0.1,0.3,0.1
				c0.1,0,0.2,0.1,0.3,0.1c0.1,0,0.2,0.1,0.3,0.1c0.1,0.1,0.3,0.1,0.4,0.2c0.3,0.1,0.6,0.2,0.9,0.3c0.1,0,0.3,0.1,0.4,0.1
				c0.2,0.1,0.3,0.1,0.5,0.2c0,0,0,0,0,0c0.2,0,0.3,0.1,0.5,0.1c1.2,0.4,2.5,0.7,3.9,1.1c0.1,0,0.2,0.1,0.3,0.1
				c0.3,0.1,0.6,0.1,0.9,0.2c0.2,0,0.3,0.1,0.5,0.1c0.4,0.1,0.8,0.2,1.2,0.2c0.2,0,0.4,0.1,0.5,0.1c0.1,0,0.3,0,0.4,0.1
				c0.5,0.1,1,0.2,1.5,0.2c0.2,0,0.3,0,0.5,0.1c0.2,0,0.4,0.1,0.6,0.1c0,0,0.1,0,0.1,0c0.2,0,0.4,0.1,0.5,0.1c0.7,0.1,1.3,0.2,2,0.2
				c0.2,0,0.4,0,0.5,0.1C138.6,87.4,138.5,92.1,138.5,100.1z"/>
			<path class="st14" d="M138.5,110.6c0,0-0.6,1.1-1.1,2.2c-11.6-1.1-20.9-3.7-24.9-7c0.6-1.1,2.4-3.8,2.4-3.8c0,0,0,0,0,0
				C115.3,106.6,125,109.6,138.5,110.6z"/>
			<path class="st14" d="M137.4,112.8l-1.3,14c0,0,0,0,0,0c-12.5-1.3-22-4.4-24.9-8.2l1.3-12.8c0.1,0.1,0.1,0.1,0.2,0.2
				c0.1,0,0.1,0.1,0.2,0.1c1.5,1.2,3.8,2.2,6.5,3.2c0.1,0,0.2,0.1,0.3,0.1c0.1,0,0.2,0.1,0.3,0.1c0.1,0,0.2,0.1,0.3,0.1
				c1.4,0.5,3,0.9,4.7,1.3c0.1,0,0.3,0.1,0.4,0.1c1.1,0.2,2.1,0.5,3.3,0.7c0.1,0,0.3,0.1,0.4,0.1c0.5,0.1,1,0.2,1.5,0.2
				c0.2,0,0.3,0.1,0.5,0.1c0.6,0.1,1.1,0.2,1.7,0.2c0.2,0,0.5,0.1,0.7,0.1c0.5,0.1,1,0.1,1.5,0.2c0.1,0,0.3,0,0.4,0.1
				c0.1,0,0.2,0,0.3,0c0.2,0,0.3,0,0.5,0.1C136.6,112.8,137,112.8,137.4,112.8z"/>
		</g>
	</g>
</g>
</svg>
