<?xml version="1.0" encoding="utf-8"?>
<!-- Generator: Adobe Illustrator 25.0.0, SVG Export Plug-In . SVG Version: 6.00 Build 0)  -->
<svg version="1.1" id="Layer_1" xmlns="http://www.w3.org/2000/svg" xmlns:xlink="http://www.w3.org/1999/xlink" x="0px" y="0px"
	 viewBox="0 0 300 300" style="enable-background:new 0 0 300 300;" xml:space="preserve">
<style type="text/css">
	.st0{opacity:8.000000e-02;fill:#E13856;enable-background:new    ;}
	.st1{fill-rule:evenodd;clip-rule:evenodd;fill:#151528;}
	.st2{fill-rule:evenodd;clip-rule:evenodd;fill:#F8906B;}
	.st3{fill-rule:evenodd;clip-rule:evenodd;fill:#FC744F;}
	.st4{fill-rule:evenodd;clip-rule:evenodd;fill:#5E1212;}
	.st5{fill-rule:evenodd;clip-rule:evenodd;fill:#FBB49D;}
	.st6{fill-rule:evenodd;clip-rule:evenodd;fill:#DD2626;}
	.st7{fill-rule:evenodd;clip-rule:evenodd;fill:#B70808;}
	.st8{fill-rule:evenodd;clip-rule:evenodd;fill:#237AA5;}
	.st9{fill-rule:evenodd;clip-rule:evenodd;fill:#254961;}
	.st10{fill-rule:evenodd;clip-rule:evenodd;fill:#082E42;}
	.st11{fill-rule:evenodd;clip-rule:evenodd;fill:#0A3D56;}
	.st12{fill-rule:evenodd;clip-rule:evenodd;fill:#062230;}
	.st13{fill-rule:evenodd;clip-rule:evenodd;fill:#041118;}
	.st14{fill-rule:evenodd;clip-rule:evenodd;fill:#07070B;}
	.st15{fill-rule:evenodd;clip-rule:evenodd;fill:#FFBA55;}
	.st16{fill-rule:evenodd;clip-rule:evenodd;fill:#E8922B;}
	.st17{fill-rule:evenodd;clip-rule:evenodd;fill:#FFFFFD;}
	.st18{fill-rule:evenodd;clip-rule:evenodd;fill:#E6E6E6;}
	.st19{fill:#FFFFFF;}
	.st20{fill:#FFFF00;}
	.st21{fill:#FFFFFD;}
	.st22{fill:#B70808;}
	.st23{fill:#FC744F;}
	.st24{fill:#062230;}
</style>
<g>
	<g id="OBJECTS">
		<g id="Page-1">
			<g id="For-you-and-your-partner-Copy-4">
				<g id="Group-4">
					<circle id="Mask-Copy-2" class="st0" cx="150" cy="150" r="150"/>
				</g>
			</g>
		</g>
	</g>
</g>
<g>
	<g>
		<path class="st1" d="M132.1,261.2c1.1-0.4,13.3-1.4,13.3-1.4s6.7,0.1,6.3,2.3c-0.4,2.2-1.1,4-4.8,4.3
			C143.2,266.7,132.1,261.2,132.1,261.2L132.1,261.2z"/>
	</g>
	<g>
		<path class="st2" d="M143.8,75.7l1.6,5.3c0,0-1.4,5.6,2.6,11.6c4,6,12.8,17.5,12.8,17.5s9.6,1.9,17.2-7.5
			c7.6-9.4,7.9-14.6,7.9-14.6l0.2-8.9l-2.7,0.5l-4.8-9.7c-9.6,4.5-23.3,3.1-33.1-0.2C145.8,72.1,145.5,73.9,143.8,75.7L143.8,75.7z"
			/>
	</g>
	<g>
		<path class="st3" d="M184.2,93.1c1.6-3.3,1.7-5.1,1.7-5.1l0.2-8.9l-2.7,0.5l-3.2-6.4c-0.3,0.4-0.6,0.8-0.7,1.2
			c-0.2,0.8-0.2,1.3-0.2,1.3s-2,0.2-2.4,0.8c-0.4,0.7-0.3,3-0.3,3l0.7,2.8c0,0-1.2,1.7-1.2,2c0,0.3,4.6,4.5,4.6,4.5
			S183.3,91.8,184.2,93.1L184.2,93.1z"/>
	</g>
	<g>
		<path class="st3" d="M143.8,75.7l1.6,5.3c0,0-1.4,5.6,2.6,11.6c1.6,2.4,4,5.7,6.3,8.8c-0.2-0.3-6.3-8.9-7.3-13.5
			c-1-4.7-0.3-9.2-0.3-9.2l-1,1.5l-0.9-4c0,0,0.7-0.5,1.3-1.5c0.6-1,0.9-3,0.9-3s7.2,5.1,16.9,5.6c9.7,0.5,14-3.5,14-3.5
			s-11.1,2.7-16.6,0.6l0,0c1,0,2.1,0.1,3.3,0.1c8.8,0.2,13.2-1.4,15-2.5l-1-2.1c-6.6,3.1-15.1,3.4-23,2.2c-3.9-1.5-7.3-2.7-7.3-2.7
			s-0.7,0.4-1.4,0.7c-0.5-0.1-1-0.3-1.5-0.5C145.8,72.1,145.5,73.9,143.8,75.7L143.8,75.7z"/>
	</g>
	<g>
		<path class="st4" d="M145.4,81l-4.6-7.8c0,0-4.7-5.1-5.2-11.4c-0.4-5.1,4.1-10.8,4.1-10.8s6.2-15.9,21.8-16.5
			c15.7-0.6,25.3,3.9,29.5,12.2c4.2,8.3,1.8,12.7,1.8,12.7s0.5,6.3,0.3,11.6c-0.8-0.3-2.4-0.5-2.4-0.5L175.6,60c0,0-0.5,0.4-0.9,1
			c-0.3,0.6-0.3,1.9,1,3.2c1.3,1.3,9.6,8.7,9.6,8.7s-4,0.5-4.7,1c0,0-0.1,0.1-0.1,0.1l-2-4c-4,1.9-8.9,2.8-13.8,2.9
			c4.9,1.3,9.8,1.6,13.9,0.4c-7.2,5.8-25.7,1-33.3-3.4c0.2,2.4-0.1,4.1-1.8,5.9L145.4,81z"/>
	</g>
	<g>
		<path class="st2" d="M178.4,82l-1-2.4c0,0,0.1-2.7,0.6-3c0.5-0.3,2.2-0.4,2.2-0.4s-0.2-1.9,0.5-2.4c0.6-0.5,4.7-1,4.7-1
			s-8.3-7.4-9.6-8.7c-1.3-1.3-1.4-2.6-1-3.2c0.3-0.6,0.9-1,0.9-1l15.1,10.4c0,0,1.6,0.2,2.4,0.5c0.8,0.3,1.3,1.1,1.3,1.1
			s-2.4,3.2-6.7,5.4C183.4,79.5,178.4,82,178.4,82L178.4,82z"/>
	</g>
	<g>
		<path class="st3" d="M178.4,82l-0.4-1c1.4-0.5,3.1-1.2,5.1-2.1c6.5-2.8,10.8-7.5,10.8-7.5c0.3,0.3,0.5,0.6,0.5,0.6
			s-2.4,3.2-6.7,5.4C183.4,79.5,178.4,82,178.4,82L178.4,82z"/>
	</g>
	<g>
		<path class="st5" d="M175.2,60.3c0.2-0.2,0.4-0.3,0.4-0.3l3.6,2.5c-0.4,0.6-0.9,1.1-0.9,1.1s-2.1-1-2.8-2.1
			C175,60.9,175.1,60.6,175.2,60.3L175.2,60.3z"/>
	</g>
	<g>
		<path class="st3" d="M185.4,72.8c0,0-8.3-7.4-9.6-8.7l10.4,8l3.8,0.5L185.4,72.8z"/>
	</g>
	<g>
		<path class="st2" d="M187.2,67.9c1.1-5.5,7.3-3.9,7.3,1.2c0,0.9-0.2,1.8-0.4,2.4c-0.2-0.2-0.5-0.4-0.8-0.5
			c-0.8-0.3-2.4-0.5-2.4-0.5L187.2,67.9z"/>
	</g>
	<g>
		<path class="st3" d="M187.2,67.9c0.1-0.3,0.2-0.6,0.3-0.9l6.8,3.8c-0.1,0.3-0.1,0.5-0.2,0.7c-0.2-0.2-0.5-0.4-0.8-0.5
			c-0.8-0.3-2.4-0.5-2.4-0.5L187.2,67.9z"/>
	</g>
	<g>
		<path class="st2" d="M166.7,109.8c2.3,3.8,5.8,10.1,5.8,10.1s6.4,0.3,11-3.8c2.5-2.2,3.9-5.6,4.8-8.3l-4.7-13.7
			c-1.2,2.3-3,5.1-5.7,8.5C174.2,107.2,170,109.1,166.7,109.8L166.7,109.8z"/>
	</g>
	<g>
		<path class="st3" d="M166.7,109.8c0.9,1.5,2,3.3,3,5c9.3-3.7,13.9-9.8,16.2-14.3l-2.2-6.5c-1.2,2.3-3,5.1-5.7,8.5
			C174.2,107.2,170,109.1,166.7,109.8L166.7,109.8z"/>
	</g>
	<g>
		<path class="st6" d="M181.5,87.6l-4-3.7l0.9-1.9c0,0,5-2.5,9.4-4.6c4.3-2.2,6.7-5.4,6.7-5.4l2.1-1.2c0,0,1.6,0.5,1.9,1.9
			c0.4,1.4-0.1,3.8-0.1,3.8s1.9,0.2,2.3,0.5c0.4,0.4,5.9,13.8,5.9,13.8s28.9,9.5,33.9,11.8c5,2.3,4.4,36.9,3.2,42.8
			c-1.2,5.9-3.6,10.5-3.6,10.5l0,4c0,0,0.9,0.7,1,2.8c0.1,2-1.4,3.5-1.4,3.5s1.9,2.3,1.5,4.1c-0.4,1.8-2,3.5-2,3.5s0,10,0.8,12.8
			c0.8,2.8,6.7,16,5.8,20.8c-0.8,4.8-2.6,5.5-2.6,5.5s3.7,2.7,3.7,6.6c0,4-4,6.4-4,6.4s-16.8-7.6-36.5-3.4
			c-19.6,4.2-26.5,15.8-26.5,15.8l-11.4-29.3c0,0,3.1-17.3,13.3-30.1c10.2-12.7,12-21.9,10.5-27.2s0.7-30.1,0.7-30.1L181.5,87.6z"/>
	</g>
	<g>
		<polygon class="st7" points="182.2,89.4 181.5,87.6 187.6,84.5 		"/>
	</g>
	<g>
		<path class="st7" d="M198.4,76.5c0,0,1.9,0.2,2.3,0.5c-3,3.3-7.7,4.8-11.8,6C192.8,81.4,195.2,79.1,198.4,76.5L198.4,76.5z"/>
	</g>
	<g>
		<path class="st7" d="M206.6,90.8c0,0,10.4,3.4,19.9,6.7l-15.9-3.6l12.6,30.9L206.6,90.8z"/>
	</g>
	<g>
		<path class="st7" d="M240.1,155.9l0,4c0,0,0.9,0.7,1,2.8c0.1,2-1.4,3.5-1.4,3.5s1.9,2.3,1.5,4.1c-0.4,1.8-2,3.5-2,3.5
			s0,10,0.8,12.8c0.8,2.8,6.7,16,5.8,20.8c-0.8,4.8-2.6,5.5-2.6,5.5s3.7,2.7,3.7,6.6c0,4-4,6.4-4,6.4s-16.8-7.6-36.5-3.4
			c-0.3,0.1-0.6,0.1-0.9,0.2h0c-0.3,0.1-0.6,0.1-0.9,0.2l0,0c-0.3,0.1-0.6,0.1-0.8,0.2l0,0l0,0c-0.3,0.1-0.6,0.2-0.8,0.2h0l0,0
			c-0.3,0.1-0.5,0.1-0.8,0.2l-0.1,0c-0.2,0.1-0.5,0.1-0.7,0.2l-0.1,0c-0.2,0.1-0.5,0.1-0.7,0.2l-0.1,0c-0.2,0.1-0.4,0.1-0.6,0.2
			l-0.2,0.1c-0.2,0.1-0.4,0.1-0.6,0.2l-0.2,0.1c-0.2,0.1-0.4,0.1-0.6,0.2l-0.2,0.1c-0.2,0.1-0.4,0.1-0.5,0.2l-0.2,0.1
			c-0.2,0.1-0.3,0.1-0.5,0.2l-0.2,0.1c-0.2,0.1-0.3,0.1-0.5,0.2v0c-3.5,0.8-13.3,7.8-17,10.5l-10.6-27.3c0,0,3.1-17.3,13.3-30.1
			c10.2-12.7,12-21.9,10.5-27.2s0.7-30.1,0.7-30.1l14.3,46.2c0,0,10.1,6.5,18.4,6.8C234,174.6,240.1,155.9,240.1,155.9L240.1,155.9z
			 M206.4,222.4c-0.3,0.1-0.6,0.1-0.9,0.2"/>
	</g>
	<g>
		<path class="st7" d="M243.2,212.7c0,0,3.7,2.7,3.7,6.6c0,3-2.3,5.1-3.4,5.9c-0.7-0.8-1-1.6-1-1.6s2-0.9,2.8-3.5
			c0.8-2.6-1.2-4.7-1.2-4.7l-17.7-6.8L243.2,212.7z"/>
	</g>
	<g>
		<path class="st7" d="M245.1,223.8c-1,1.2-2.2,1.9-2.2,1.9s-16.8-7.6-36.5-3.4c-0.3,0.1-0.6,0.1-0.9,0.2h0
			c-0.3,0.1-0.6,0.1-0.9,0.2l0,0c-0.3,0.1-0.6,0.1-0.8,0.2l0,0l0,0c-0.3,0.1-0.6,0.2-0.8,0.2h0l0,0c-0.3,0.1-0.5,0.1-0.8,0.2l-0.1,0
			c-0.2,0.1-0.5,0.1-0.7,0.2l-0.1,0c-0.2,0.1-0.5,0.1-0.7,0.2l-0.1,0c-0.2,0.1-0.4,0.1-0.6,0.2l-0.2,0.1c-0.2,0.1-0.4,0.1-0.6,0.2
			l-0.2,0.1c-0.2,0.1-0.4,0.1-0.6,0.2l-0.2,0.1c-0.2,0.1-0.4,0.1-0.5,0.2l-0.2,0.1c-0.2,0.1-0.3,0.1-0.5,0.2l-0.2,0.1
			c-0.2,0.1-0.3,0.1-0.5,0.2v0c-3.5,0.8-13.3,7.8-17,10.5l-1.5-3.9c9.4-7,22.3-13.5,37.8-13.7C228.8,218.4,238.4,220.8,245.1,223.8
			L245.1,223.8z M206.4,222.4c-0.3,0.1-0.6,0.1-0.9,0.2"/>
	</g>
	<g>
		<path class="st6" d="M172.6,119.9c0,0-1.2,27.2-5.9,38.4c-4.8,11.2-8,11.1-9,26.9c-1,15.8-11.9,23-8.6,27.8
			c3.2,4.8,10.2,2.6,12.9,8.5c2.7,5.9,2.4,8.3,2.4,8.3l-28.8-3.8c0,0,0-1.9,0.6-2.3s1.1-0.3,0.6-1.1c-0.4-0.8-0.3-4.3-0.2-4.8
			c0.1-0.5,1.3-51.3,1.3-51.3s-30.6,12-38.5,10.8c-8-1.2-12.2-7.5-11.7-12.3c0.5-4.9,0.8-17.3,6.4-29.3c5.6-12,9.9-17.3,12.8-25
			c2.9-7.7,9.4-23.2,9.4-23.2s-1-7.1,2.3-10.6c3.3-3.5,15-3,18.5,0.6c3.4,3.6-1.2,9.8-1.2,9.8l-6.4,22c0,0,5.5-10.6,8.2-11.2
			c1.6-0.4,8.4-0.7,13.7-0.9c4.3,5.9,9.5,12.9,9.5,12.9s2.5,0.5,5.9-0.3C169.1,113.7,172.6,119.9,172.6,119.9L172.6,119.9z
			 M167.5,109.7c0.1,0,0.2-0.1,0.3-0.1C167.7,109.6,167.6,109.6,167.5,109.7L167.5,109.7z"/>
	</g>
	<g>
		<path class="st7" d="M172.6,119.9c0,0-1.2,27.2-5.9,38.4c-4.8,11.2-8,11.1-9,26.9c-1,15.8-11.9,23-8.6,27.8
			c3.2,4.8,10.2,2.6,12.9,8.5c2.7,5.9,2.4,8.3,2.4,8.3l-1.4-0.2c-0.5-2.5-1.7-7.9-3.4-9.9c-2.2-2.7-10.2-2-11.5-6
			c-1.3-4-1.3-4.2,3.8-13.3c5.1-9.1,4.8-16,5.1-21.3c0.2-5.3,2.9-11.3,4.6-13.7c1.7-2.4,4.3-8.2,6-14.4c1.7-6.2,3.9-31.2,3.9-31.2
			l-5.7-9.8l0,0c0.3,0,0.7-0.1,1-0.2C169.1,113.7,172.6,119.9,172.6,119.9L172.6,119.9z M167.5,109.7c0.1,0,0.2-0.1,0.3-0.1
			C167.7,109.6,167.6,109.6,167.5,109.7L167.5,109.7z"/>
	</g>
	<g>
		<path class="st7" d="M114.8,90.8c0.8-2,1.4-3.3,1.4-3.3l8.9,4.8L114.8,90.8z"/>
	</g>
	<g>
		<path class="st7" d="M164.1,227.7c0.3,1.4,0.2,2.1,0.2,2.1l-28.8-3.8c0,0,0-1.9,0.6-2.3c0.4-0.3,0.8-0.3,0.8-0.6
			c0,0.1-0.2,2.2,11.7,3.3C157,227.2,161.8,227.6,164.1,227.7L164.1,227.7z M136.9,223.1c0-0.1,0-0.3-0.2-0.5
			c-0.4-0.8-0.3-4.3-0.2-4.8c3.9,2.3,11.4,6.4,11.4,6.4L136.9,223.1z"/>
	</g>
	<g>
		<path class="st7" d="M130.9,106.5c0.6-1.1,1.4-2.4,2.3-3.7l-11.2,31.8l7.3-25.2C129.4,109.3,130.2,108,130.9,106.5L130.9,106.5z"
			/>
	</g>
	<g>
		<path class="st1" d="M137.7,78.6c0.8,1.6,0.5,3.5-0.1,5.1c-2.4,0.7-10.2-0.6-11.9-1c-1.7-0.3-4.6-0.4-4.6-0.4s-2-0.1-1.7-1.7
			c0.3-1.5,2.3-4.8,4.8-5.1C126.7,75.2,136,76.1,137.7,78.6L137.7,78.6z"/>
	</g>
	<g>
		<path class="st7" d="M137.8,166.5c0,0-15.1,5.9-26.8,9c7.2-9.2,9.2-24.4,9.2-24.4l20.8-25.6L137.8,166.5z"/>
	</g>
	<g>
		<path class="st7" d="M137.8,166.5c0,0-1.7,0.7-4.4,1.7l7.5-42.6L137.8,166.5z"/>
	</g>
	<g>
		<path class="st8" d="M242.9,225.7c0,0,8,11.9,3.5,27.5c-4.5,15.6-18.2,23.3-18.2,23.3s-8.7,2.7-18.1,5.1c-0.1-1-0.2-2.1-0.3-3.3
			c-1.1-8.5-4.5-13.2-4.5-13.2l-7.6,0c0,0-2.3,0.3-4.7,1.4c-2.4,1-6.5,5-6.5,5l-7.3,0.7c0,0-2.7-0.7-3.2-0.7c-0.6,0-1,0.9-1,0.9
			s-9.3-2.4-19.2-6.5c-3.4-1.4-6.5-2.7-8.9-3.7l-1.4-2.7l32.3-22.6c0,0,14.1-10.6,18.5-11.6v0c3-1.3,6.4-2.4,10.3-3.3
			C226,218.1,242.9,225.7,242.9,225.7L242.9,225.7z"/>
	</g>
	<g>
		<path class="st9" d="M244.3,258.7c-5.6,11.9-16.1,17.8-16.1,17.8s-8.7,2.7-18.1,5.1c-0.1-1-0.2-2.1-0.3-3.3
			c-0.3-2-0.7-3.8-1.1-5.4C215.4,273.2,233,272.4,244.3,258.7L244.3,258.7z"/>
	</g>
	<g>
		<path class="st10" d="M234.7,271.6c-3.6,3.3-6.5,5-6.5,5s-8.7,2.7-18.1,5.1c-0.1-1-0.2-2.1-0.3-3.3c-0.2-1.2-0.4-2.4-0.6-3.4
			l2.2,2.5c0,0,1.3,0.3,9.4-1.1C225.4,275.6,230.9,273.4,234.7,271.6L234.7,271.6z"/>
	</g>
	<g>
		<path class="st9" d="M188.5,269.8c-1.1,1-2,1.8-2,1.8l-7.3,0.7c0,0-2.7-0.7-3.2-0.7c-0.6,0-1,0.9-1,0.9s-9.3-2.4-19.2-6.5
			c-3.4-1.4-6.5-2.7-8.9-3.7l-1.4-2.7l9.9-6.9c0.7,2.9,1.9,6.7,3.3,9.5c2.9,5.4,23.1,7.7,23.1,7.7L188.5,269.8z"/>
	</g>
	<g>
		<path class="st10" d="M187.3,270.8c-0.5,0.5-0.8,0.8-0.8,0.8l-7.3,0.7c0,0-2.7-0.7-3.2-0.7c-0.6,0-1,0.9-1,0.9s-9.3-2.4-19.2-6.5
			c-3.4-1.4-6.5-2.7-8.9-3.7l-1.4-2.7l3-2.1l0.8,4.1c0,0,13.2,6.4,17.9,7.7c4.7,1.3,7.4,2.1,7.4,2.1s2-0.5,3.3-0.2
			c1.2,0.3,1.8,0.6,1.8,0.6l6.6-0.6L187.3,270.8z"/>
	</g>
	<g>
		<path class="st11" d="M135.5,226l-26.3-0.7c0,0-23.8-2.8-26.2-2.7c-2.4,0.1-22.5-3.8-30.9,3.7c-8.4,7.4-15.4,21,8.6,36.1
			c23.9,15.1,58.6,31.4,58.6,31.4s3.4-11.8,10.6-21.2c7.1-9.4,15.5-12.8,15.5-12.8l33.7-23.6l-2.5-6.4c0,0-5.1,2.2-8.1,1.3
			c-3-0.8-4.3-1.3-4.3-1.3L135.5,226z"/>
	</g>
	<g>
		<path class="st12" d="M179.1,236.1l-2.5-6.3c0,0-5.1,2.2-8.1,1.3c-3-0.8-4.3-1.3-4.3-1.3l-64,0.2c0,0,9.4,7.7,9,9.6
			c-0.4,1.9,2.9,1.4,5.6,2.3c2.7,0.9,30.5,17.8,30.5,17.8l32.3-22.6C177.7,237.2,178.2,236.8,179.1,236.1L179.1,236.1z"/>
	</g>
	<g>
		<path class="st13" d="M179.1,236.1l-2.5-6.3c0,0-5.1,2.2-8.1,1.3c-3-0.8-4.3-1.3-4.3-1.3l-15.1,0c4.3,2.2,10.2,6,10.4,9.2
			c0.4,5-0.4,8.8-0.4,8.8l-3.9,5.1l22.4-15.7C177.7,237.2,178.2,236.8,179.1,236.1L179.1,236.1z"/>
	</g>
	<g>
		<path class="st13" d="M100.9,230.4c2,1.6,8.9,7.6,8.5,9.1c-0.4,1.9,2.9,1.4,5.6,2.3c2.7,0.9,30.5,17.8,30.5,17.8l2-1.4
			c0,0-28.8-17.8-31.1-17.9c-2.3-0.1-5.1-0.1-5.1-1.1C111.2,238.4,100.9,230.4,100.9,230.4L100.9,230.4z"/>
	</g>
	<g>
		<path class="st1" d="M179.1,236.1l-2.5-6.3c0,0-0.7,0.3-1.6,0.6l2.6,6.8C177.7,237.2,178.2,236.8,179.1,236.1L179.1,236.1z"/>
	</g>
	<g>
		<path class="st1" d="M143.1,260.9c2.8,1.2,7.1,3,12.6,5.2c9.9,4,19.2,6.5,19.2,6.5s0.5,1.6,0.1,2c-0.4,0.5-5.3-0.1-6.3,3.1
			c-1,3.2,0,12.2,0,12.2l-44.1-8.8c1.5-2.8,3.2-5.8,5.3-8.5C134.7,266.2,140.2,262.5,143.1,260.9L143.1,260.9z"/>
	</g>
	<g>
		<path class="st14" d="M174.1,272.3c0.5,0.1,0.8,0.2,0.8,0.2s0.5,1.6,0.1,2c-0.4,0.5-5.3-0.1-6.3,3.1c1.1-3.4,5.4-3.6,5.4-3.6
			L174.1,272.3z M168.6,277.9c-0.9,3.4,0,12,0,12l-4.1-0.8l2.4-1.2C166.9,287.8,167.6,281.3,168.6,277.9L168.6,277.9z"/>
	</g>
	<g>
		<path class="st3" d="M143.1,260.9c0.5,0.2,1.1,0.5,1.8,0.8c0,0-6.7,1.1-8.8,11.2c-1,4.7-0.6,8.2-0.1,10.5l-11.6-2.3
			c1.5-2.8,3.2-5.8,5.3-8.5C134.7,266.2,140.2,262.5,143.1,260.9L143.1,260.9z"/>
	</g>
	<g>
		<path class="st15" d="M174.9,272.6c0,0,0.4-0.9,1-0.9c0.6,0,3.2,0.7,3.2,0.7l7.3-0.7c0,0,4.2-4,6.5-5c2.4-1,4.7-1.4,4.7-1.4l7.6,0
			c0,0,3.4,4.7,4.5,13.2c1.1,8.5-0.2,15.3-0.2,15.3s-3.1,1.6-5.1,1.7c-1.9,0.1-3.8-0.8-3.8-0.8s-8.3,0.3-15.6-0.4
			c-7.3-0.7-16.4-1-16.9-1.9c-0.5-0.9-1.2-2.7-1.2-2.7l1.4,0.3c0,0-1-9,0-12.2c1-3.2,6-2.6,6.3-3.1
			C175.4,274.1,174.9,272.6,174.9,272.6L174.9,272.6z"/>
	</g>
	<g>
		<path class="st16" d="M203.4,295.4c-1.4-0.2-2.5-0.7-2.5-0.7s-8.3,0.3-15.6-0.4c-7.3-0.7-16.4-1-16.9-1.9
			c-0.5-0.9-1.2-2.7-1.2-2.7l1.4,0.3c0,0-0.1-0.8-0.2-2.1c0.2,0,0.4-0.1,0.6-0.1c2.5-0.3,5.3-2.8,5.3-2.8s1.4,4.6,5.2,6.6
			c3.8,2,10.2,0.6,10.2,0.6l0-3.3c0,0,0.1,2.7,2.3,3.6c2.2,0.9,5.6-0.3,5.6-0.3s-0.5-1.7-1.2-4.6c-0.6-2.9-1.2-6.2-1.2-6.2l1.4,1.2
			c0,0,7,7.9,6.8,12.7C203.4,295.1,203.4,295.2,203.4,295.4L203.4,295.4z"/>
	</g>
	<g>
		<path class="st16" d="M174.9,272.6c0,0,0.4-0.9,1-0.9c0.6,0,3.2,0.7,3.2,0.7l7.3-0.7c0,0,4.2-4,6.5-5c2.4-1,4.7-1.4,4.7-1.4
			c-5.5,2.2-7.9,2.6-9.4,9l-1.6-1.6l-7.4,0.6l-0.6,1.6l-0.6-2c0,0-2.1-0.8-2.5-0.6c-0.4,0.2,0.5,2.4-0.1,3.1c-0.2,0.3-1.1,0.1-2-0.4
			c0.6-0.1,1.1-0.1,1.2-0.3C175.4,274.1,174.9,272.6,174.9,272.6L174.9,272.6z"/>
	</g>
	<g>
		<path class="st17" d="M168.6,289.9c0,0-1-9,0-12.2c1-3.2,6-2.6,6.3-3.1c0,0,3.8-0.4,2.9,0.8c-0.9,1.3-3.1,0.6-3.6,6.6
			c-0.5,6,2.2,8.5,0.6,9.3C173.2,292.2,168.6,289.9,168.6,289.9L168.6,289.9z"/>
	</g>
	<g>
		<path class="st18" d="M176,274.5c1,0,2.5,0.1,1.9,0.9c-0.9,1.3-3.1,0.6-3.6,6.6c-0.2,2.2,0.1,3.9,0.4,5.2l0,0c0,0,0.5,2.1-0.2,3.2
			c-0.7,1.1-4.3,0-5-1.4c-0.7-1.3-0.5-11,0.7-12.5c1.3-1.5,4.7-1.5,5.2-1.5C175.9,275,176,274.5,176,274.5L176,274.5z"/>
	</g>
	<g>
		<path class="st18" d="M197.7,265.2l7.6,0c0,0,3.4,4.7,4.5,13.2c1.1,8.5-0.2,15.3-0.2,15.3s-3.1,1.6-5.1,1.7
			c-1.9,0.1-3.8-0.8-3.8-0.8s-6.1-9.8-6.3-18C194.4,268.5,197.7,265.2,197.7,265.2L197.7,265.2z"/>
	</g>
	<g>
		<path class="st1" d="M119.3,293.8c0,0,8.5-1.9,13.9-5.9c1.7-1.2,3-2.7,4-4.3l-12.6-2.5C121,287.9,119.3,293.8,119.3,293.8
			L119.3,293.8z"/>
	</g>
	<g>
		<path class="st2" d="M127.3,76.9c0,0-1.9-0.5-2.6-0.2c-0.7,0.3-2.3,3.2-2.3,3.2s-1,0.8-1.2,1.4c-0.2,0.6-0.2,1.2-0.2,1.2l9.9,8.3
			l-1.1,1.5c0,0-2.5-0.1-3.2,0.3c-0.7,0.4-0.9,1.9-0.9,1.9l7.1,0.7l1.8-2.5c0,0,1.4-1.1,1.6-1.3c0.2-0.2,0.8-1.9,0.8-1.9
			s0.9-0.7,1.4-1.5c0.5-0.7,0.5-1.3,0.5-1.3s0.8-1.1,1.2-1.9c0.4-0.8,0.2-1.8,0.2-1.8l-6.6-3.4l7.1-6.6c-0.4-0.4-1.3-1.6-2.4-3.3
			L127.3,76.9z"/>
	</g>
	<g>
		<polygon class="st3" points="130.1,91.9 129.8,92.2 131.9,93.1 		"/>
	</g>
	<g>
		<path class="st3" d="M122.4,79.9c0,0-1,0.8-1.2,1.4c-0.2,0.6-0.2,1.2-0.2,1.2l9.9,8.3l0.5-1.1l-9.9-7.5c0,0,0-0.2,0.1-0.7
			C121.8,80.9,122.4,79.9,122.4,79.9L122.4,79.9z"/>
	</g>
	<g>
		<path class="st3" d="M133.6,79.6l1.2-1.1c-1.7-0.6-3.2-2.1-4.4-3.6l-3,2L133.6,79.6z"/>
	</g>
	<g>
		<path class="st1" d="M179,282.3c0.2,0,0.4,0.2,0.4,0.5c0,0.3-0.2,0.4-0.5,0.4c-0.2,0-0.4-0.2-0.4-0.5
			C178.5,282.5,178.7,282.3,179,282.3L179,282.3z"/>
	</g>
	<g>
		<path class="st1" d="M182,282.5c0.2,0,0.4,0.2,0.4,0.5c0,0.3-0.2,0.4-0.5,0.4c-0.2,0-0.4-0.2-0.4-0.5
			C181.5,282.7,181.7,282.5,182,282.5L182,282.5z"/>
	</g>
	<g>
		<path class="st1" d="M185.7,282.5c0.2,0,0.4,0.2,0.4,0.5c0,0.2-0.2,0.4-0.5,0.4c-0.2,0-0.4-0.2-0.4-0.5
			C185.2,282.7,185.5,282.5,185.7,282.5L185.7,282.5z"/>
	</g>
	<g>
		<path class="st1" d="M190,282.8c0.2,0,0.4,0.2,0.4,0.5c0,0.2-0.2,0.4-0.5,0.4c-0.2,0-0.4-0.2-0.4-0.5
			C189.5,283,189.7,282.8,190,282.8L190,282.8z"/>
	</g>
	<g>
		<path class="st1" d="M179.2,277.1c0.3,0,0.4,0.2,0.4,0.5c0,0.2-0.2,0.4-0.5,0.4c-0.3,0-0.5-0.2-0.4-0.5
			C178.8,277.3,179,277.1,179.2,277.1L179.2,277.1z"/>
	</g>
	<g>
		<path class="st1" d="M182.6,276.6c0.2,0,0.4,0.2,0.4,0.5c0,0.3-0.2,0.4-0.5,0.4c-0.2,0-0.4-0.2-0.4-0.5
			C182.1,276.7,182.3,276.6,182.6,276.6L182.6,276.6z"/>
	</g>
	<g>
		<path class="st1" d="M186.3,276c0.3,0,0.5,0.2,0.4,0.5c0,0.3-0.2,0.4-0.5,0.4c-0.3,0-0.4-0.2-0.4-0.5
			C185.8,276.2,186.1,276,186.3,276L186.3,276z"/>
	</g>
	<g>
		<path class="st1" d="M189.8,275c0.2,0,0.4,0.2,0.4,0.5c0,0.3-0.2,0.4-0.5,0.4c-0.2,0-0.4-0.2-0.4-0.5
			C189.3,275.2,189.6,275,189.8,275L189.8,275z"/>
	</g>
	<g>
		<polygon class="st19" points="179,282.7 178.9,282.7 179.2,277.5 179.3,277.5 		"/>
	</g>
	<g>
		
			<rect x="179.3" y="279.9" transform="matrix(9.548498e-02 -0.9954 0.9954 9.548498e-02 -113.869 434.6523)" class="st19" width="5.9" height="0.1"/>
	</g>
	<g>
		<polygon class="st19" points="185.7,283 185.6,283 186.2,276.5 186.3,276.5 		"/>
	</g>
	<g>
		<polygon class="st19" points="189.9,283.3 189.7,275.5 189.8,275.5 190,283.3 		"/>
	</g>
	<g>
		<path class="st19" d="M181.8,287L181.8,287c-0.1,0-0.2,0-0.2,0c-3.6-0.4-3.5-7.3-3.5-7.4l0-0.1l0.1,0.1c0.2,0.2,5.1,5.6,4.4,7
			C182.5,286.9,182.2,287,181.8,287z M178.2,279.7c0,0.9,0.2,6.7,3.4,7.1c0.5,0.1,0.8,0,0.9-0.3C183,285.3,178.8,280.5,178.2,279.7z
			"/>
	</g>
	<g>
		<path class="st19" d="M190.3,288c-3.4,0-11.9-8-12.2-8.3l-0.2-0.1l0.2,0.1c0.5,0.1,12,3.6,13.4,6.6c0.2,0.4,0.2,0.8,0,1.1
			C191.3,287.8,190.9,288,190.3,288z M178.3,279.7c1.2,1.1,8.9,8.1,12,8.2c0.5,0,0.9-0.2,1.1-0.6c0.2-0.3,0.2-0.7,0-1
			C190.2,283.4,179.9,280.2,178.3,279.7z"/>
	</g>
	<g>
		<path class="st19" d="M192.6,291c-0.1,0-6.5-2.7-7.9-7.2c-1.2-3.9-5.4-4.1-6.4-4.2c0,0,0,0-0.1,0c0.5,0.4,2.6,2.2,2.9,4.5
			c0.3,2.6,2.5,5,2.5,5l-0.1,0.1c0,0-2.2-2.4-2.6-5.1c-0.3-2.6-3-4.5-3-4.5l-0.1-0.1l0.1,0c0.1,0,5.4-0.2,6.7,4.2
			C186.2,288.2,192.6,290.9,192.6,291L192.6,291z"/>
	</g>
	<g>
		<path class="st15" d="M109.6,289.1l-15.5,0.1c0,0-26.5,5.1-30.8-0.5c-4.2-5.4-2.8-18,6.2-21C83.8,276.1,99.7,284.2,109.6,289.1
			L109.6,289.1z"/>
	</g>
	<g>
		<path class="st16" d="M109.6,289.1l-15.5,0.1c0,0-6.6,1.3-13.7,1.8c4.4-1,12.7-2.9,12.3-2.9c-0.4,0,5.2-2.9,5.2-2.9l-2.5,2.4
			l7.9-0.2l-1.2-2.1l0,0C104.9,286.8,107.4,288,109.6,289.1L109.6,289.1z"/>
	</g>
	<g>
		<path class="st16" d="M75,291.3c-5.3,0.1-10-0.5-11.7-2.6c-4.2-5.4-2.8-18,6.2-21c1.1,0.7,2.3,1.3,3.4,2c-1.7,0.8-4.6,2.4-5.5,4.2
			c-1.4,2.8,3.2,11,2.7,12.8c-0.5,1.8-1.4,2.9-0.2,3.6C71.1,291,74.9,291.3,75,291.3L75,291.3z"/>
	</g>
	<g>
		<path class="st18" d="M67.1,290.7c-1.7-0.4-3-1-3.8-2c-4.2-5.4-2.8-18,6.2-21c0.9,0.5,1.7,1,2.6,1.5c-10.7,3.3-3.9,13.5-3.7,17.6
			C68.4,288.2,67.6,289.5,67.1,290.7L67.1,290.7z"/>
	</g>
	<g>
		<path class="st1" d="M80.5,283.9c0.2,0,0.4,0.2,0.4,0.5c0,0.3-0.2,0.4-0.5,0.4c-0.2,0-0.4-0.2-0.4-0.5
			C80,284,80.3,283.9,80.5,283.9L80.5,283.9z"/>
	</g>
	<g>
		<path class="st1" d="M86,283.5c0.3,0,0.4,0.2,0.4,0.5c0,0.2-0.2,0.4-0.5,0.4c-0.3,0-0.4-0.2-0.4-0.5
			C85.6,283.7,85.8,283.5,86,283.5L86,283.5z"/>
	</g>
	<g>
		<path class="st1" d="M92.9,282.9c0.2,0,0.4,0.2,0.4,0.5c0,0.2-0.2,0.4-0.5,0.4c-0.2,0-0.4-0.2-0.4-0.5
			C92.4,283.1,92.7,282.9,92.9,282.9L92.9,282.9z"/>
	</g>
	<g>
		<path class="st1" d="M80,277.9c0.3,0,0.4,0.2,0.4,0.5c0,0.3-0.2,0.4-0.5,0.4c-0.3,0-0.5-0.2-0.4-0.5
			C79.6,278.1,79.8,277.9,80,277.9L80,277.9z"/>
	</g>
	<g>
		<path class="st1" d="M85.9,277.9c0.2,0,0.4,0.2,0.4,0.5c0,0.2-0.2,0.4-0.5,0.4c-0.2,0-0.4-0.2-0.4-0.5
			C85.5,278.1,85.7,277.9,85.9,277.9L85.9,277.9z"/>
	</g>
	<g>
		
			<rect x="80.2" y="278.3" transform="matrix(0.9967 -8.160435e-02 8.160435e-02 0.9967 -22.6912 7.4871)" class="st19" width="0.1" height="6"/>
	</g>
	<g>
		<polygon class="st19" points="86,284 85.8,278.3 85.9,278.3 86.1,284 		"/>
	</g>
	<g>
		
			<rect x="92.8" y="280.6" transform="matrix(0.9999 -1.443497e-02 1.443497e-02 0.9999 -4.0607 1.37)" class="st20" width="0.1" height="2.8"/>
	</g>
	<g>
		<path class="st19" d="M81.4,289.9L81.4,289.9c-0.5,0-0.8-0.2-1-0.6c-0.2-0.3-0.2-0.7-0.1-1.1c1.1-3.2,12.3-7.6,12.8-7.7l0.2-0.1
			l-0.1,0.2C92.7,281,84.6,290,81.4,289.9z M92.8,280.7c-1.5,0.6-11.5,4.7-12.5,7.6c-0.1,0.4-0.1,0.7,0.1,1c0.2,0.3,0.5,0.5,0.9,0.5
			C84.3,289.9,91.7,281.9,92.8,280.7z"/>
	</g>
	<g>
		<path class="st19" d="M89.2,288.1L89.2,288.1c-0.3,0-0.5-0.2-0.7-0.7c-1.5-3.3,4.4-6.8,4.4-6.8l0.1-0.1l0,0.1
			C92.8,280.9,90.8,288.1,89.2,288.1z M92.8,280.7c-0.8,0.5-5.6,3.7-4.3,6.6c0.2,0.4,0.4,0.6,0.7,0.6
			C90.6,288,92.5,281.7,92.8,280.7z"/>
	</g>
	<g>
		<path class="st19" d="M80.7,294.5L80.7,294.5c-0.1-0.1,3.1-6.4,7.6-7.4c4-0.9,4.6-5.3,4.6-6.2c-0.4,0.5-2.3,2.4-4.7,2.6
			c-2.6,0.1-5.2,2.1-5.2,2.2l-0.1-0.1c0,0,2.6-2,5.3-2.2c2.6-0.1,4.7-2.6,4.7-2.6l0.1-0.1l0,0.1c0,0.1-0.2,5.4-4.7,6.4
			C83.9,288.2,80.7,294.4,80.7,294.5z"/>
	</g>
	<g>
		<path class="st21" d="M204,295.6c-4.2-2.5-8.4-15.3-7.7-23.5c0.3-3.7,1.5-6.2,3.6-7l0.1,0.3c-2.5,1-3.2,4.2-3.4,6.7
			c-0.6,8.1,3.5,20.7,7.5,23.2L204,295.6z"/>
	</g>
	<g>
		<path class="st21" d="M66.1,290.5c-2.3-2.6-3.1-11.7-0.6-17.5c1.2-2.9,3.1-4.6,5.5-4.7l0,0.3c-2.8,0.1-4.4,2.5-5.2,4.5
			c-2.3,5.5-1.6,14.6,0.6,17.1L66.1,290.5z"/>
	</g>
	<g>
		<path class="st1" d="M188.4,107.8l4.6,13.6c0,0-2.2,24.7-0.7,30.1s-0.2,14.5-10.5,27.2c-10.2,12.7-13.3,30.1-13.3,30.1l8.2,21
			c0,0-5.1,2.2-8.1,1.3c-3-0.8-4.3-1.3-4.3-1.3s0.4-2.4-2.4-8.3c-2.7-5.9-9.7-3.7-12.9-8.5c-3.2-4.8,7.6-12,8.6-27.8
			c1-15.8,4.2-15.7,9-26.9c4.8-11.2,5.9-38.4,5.9-38.4s6.4,0.3,11-3.8C186,113.9,187.5,110.5,188.4,107.8L188.4,107.8z"/>
	</g>
	<g>
		<path class="st14" d="M192.4,119.6l0.6,1.7c0,0-2.2,24.7-0.7,30.1s-0.2,14.5-10.5,27.2c-10.2,12.7-13.3,30.1-13.3,30.1l8.2,21
			c0,0-0.7,0.3-1.6,0.6l-8.6-22.4c0,0-0.7-4.7,2.8-12.8c3.5-8.2,19.9-32,21.1-35.4c1.2-3.3-0.2-6.3-0.9-13.5
			C188.6,139.1,192.4,119.6,192.4,119.6L192.4,119.6z"/>
	</g>
	<g>
		<path class="st14" d="M166.7,230.6c-1.7-0.5-2.4-0.8-2.4-0.8s0.4-2.4-2.4-8.3c-2.7-5.9-9.7-3.7-12.9-8.5c-3.2-4.8,7.6-12,8.6-27.8
			c1-15.8,4.2-15.7,9-26.9c4.8-11.2,5.9-38.4,5.9-38.4s0.4,0,1.2,0c0.1,3.3,0.2,9.2-0.7,15.4c-1.3,9.3-2.2,19.4-3.5,22.5
			c-1.3,3.1-7.2,13.9-8,19.5c-0.8,5.7-0.8,9.7-1.8,13.6c-1,3.9-9.3,17.6-7,20.4c2.4,2.8,9.8,4.1,11.7,9
			C165.4,223.1,166.2,227.4,166.7,230.6L166.7,230.6z"/>
	</g>
	<g>
		<path class="st22" d="M141.8,123.8l-0.3-0.1c0-0.1,1-5.6,0.6-11.6c-0.4-6-5.1-13.7-5.1-13.8l0.3-0.2c0,0.1,4.8,7.8,5.2,13.9
			C142.8,118.2,141.8,123.8,141.8,123.8z"/>
	</g>
	<g>
		
			<rect x="136.9" y="83.6" transform="matrix(0.5283 -0.849 0.849 0.5283 -7.9955 156.7852)" class="st23" width="0.3" height="4.1"/>
	</g>
	<g>
		
			<rect x="135.2" y="86.3" transform="matrix(0.5581 -0.8298 0.8298 0.5581 -13.4803 151.3304)" class="st23" width="0.3" height="4"/>
	</g>
	<g>
		<path class="st5" d="M128.8,94.7l0.1-1.1c0,0-1.2-0.2-2-0.1c-0.9,0-1.1,1-1.1,1L128.8,94.7z"/>
	</g>
	<g>
		<path class="st22" d="M172.4,123.6v-0.3c6.6,0,15-3.1,17.8-10l0.3,0.1C187.6,120.4,179.1,123.6,172.4,123.6z"/>
	</g>
	<g>
		<path class="st24" d="M102,230.8c-0.1-0.1-12.9-5.1-16.4-5.7c-3.6-0.5-9.1-1-9.2-1l0-0.3c0.1,0,5.6,0.5,9.2,1
			c3.6,0.5,16,5.5,16.5,5.7L102,230.8z"/>
	</g>
	<g>
		<polygon class="st22" points="121,138.9 120.7,138.8 124.4,126.8 124.8,126.9 		"/>
	</g>
	<g>
		<path class="st22" d="M122.8,157.4l-2.8-6.2c-0.7-1.5-0.2-4.3,0.3-6.8c0.3-1.5,0.5-2.9,0.5-3.9l0.3,0c0,1-0.2,2.4-0.5,4
			c-0.5,2.4-1,5.2-0.3,6.6l2.8,6.2L122.8,157.4z"/>
	</g>
	<g>
		<path class="st22" d="M225,124.4l-0.3,0c0.1-0.5,1.7-11.2,4.7-14.6c3-3.3,11.4-6.7,11.7-6.9l0.1,0.3c-0.1,0-8.7,3.5-11.6,6.8
			C226.7,113.3,225,124.3,225,124.4z"/>
	</g>
	<g>
		<path class="st22" d="M172.2,124.5c-4.8-4.8-8.3-9.3-11-14.2l0.3-0.2c2.6,4.9,6.1,9.4,10.9,14.1L172.2,124.5z"/>
	</g>
	<g>
		<path class="st17" d="M203.6,265.2c-0.7,0.8-1.4,1.9-1.7,3.1c-0.5,2.2-1.4,8.6-0.2,14.1c0.9,4,4.3,9.5,6,12.1
			c1.1-0.4,1.9-0.9,1.9-0.9s1.3-6.7,0.2-15.3c-1.1-8.5-4.5-13.2-4.5-13.2L203.6,265.2z"/>
	</g>
	<g>
		<path class="st2" d="M205.3,265.2c0,0,3.4,4.7,4.5,13.2c1.1,8.5-0.2,15.3-0.2,15.3c-8.2-8.6-7.5-16.4-7.4-20.9
			C202.5,268.4,205.3,265.2,205.3,265.2L205.3,265.2z"/>
	</g>
	<g>
		<path class="st3" d="M205.8,265.9c1,1.6,3.2,5.9,4,12.5c0.8,5.8,0.4,10.7,0.1,13.3c-1.6-2.2-5.8-7.7-6.2-14.2
			C203.4,271.1,205.8,265.9,205.8,265.9L205.8,265.9z"/>
	</g>
	<g>
		<path class="st16" d="M75.2,273.2c0,0,3,4.2,3.2,8c0.2,3.8-1.7,6.6-1.7,6.6s1.4-3.3,1.1-6.8C77.5,277.4,75.2,273.2,75.2,273.2
			L75.2,273.2z"/>
	</g>
</g>
</svg>
