<?xml version="1.0" encoding="utf-8"?>
<!-- Generator: Adobe Illustrator 25.0.0, SVG Export Plug-In . SVG Version: 6.00 Build 0)  -->
<svg version="1.1" id="Layer_1" xmlns="http://www.w3.org/2000/svg" xmlns:xlink="http://www.w3.org/1999/xlink" x="0px" y="0px"
	 viewBox="0 0 300 300" style="enable-background:new 0 0 300 300;" xml:space="preserve">
<style type="text/css">
	.st0{opacity:8.000000e-02;fill:#E13856;enable-background:new    ;}
	.st1{fill:#FBA489;}
	.st2{fill:#F1856A;}
	.st3{fill:#382040;}
	.st4{fill:#FFFFFF;}
	.st5{fill:#007CB2;}
	.st6{fill:#3D3A55;}
	.st7{fill:#FEE4CB;}
	.st8{fill:#E2C2A8;}
	.st9{fill:#CE2450;}
	.st10{fill:#2D99E2;}
	.st11{fill:#C0EFFF;}
	.st12{fill:#333333;}
	.st13{fill:#A51941;}
	.st14{fill:#F7A17C;}
	.st15{fill:#F28657;}
	.st16{fill:#391829;}
</style>
<g id="Page-1">
	<g id="For-you-and-your-partner-Copy-4">
		<g id="Group-4">
			<circle id="Mask-Copy-2" class="st0" cx="150" cy="150" r="150"/>
		</g>
	</g>
</g>
<g>
	<g>
		<path class="st1" d="M166.6,73.9c-2.2-0.4-4.3-0.6-6.1-0.7c-2.1-0.1-3.7-1.8-3.7-3.9v-8.9h-13.3v8.9c0,2-1.6,3.7-3.6,3.8
			c-1.6,0.1-3.4,0.3-5.3,0.6l-0.2,18.1h32.4L166.6,73.9z"/>
		<path class="st2" d="M143.5,68.2c2.1,1,4.3,1.7,6.7,1.7c2.4,0,4.6-0.6,6.7-1.7V57.7h-13.3V68.2z"/>
		<g>
			<path class="st1" d="M138.9,46.9c0,3.2-2.4,5.8-5.4,5.8c-3,0-5.3-5.2-5.3-8.3s2.3-3.7,5.3-3.2C136.4,41.6,138.9,43.7,138.9,46.9z
				"/>
			<path class="st1" d="M161.5,46.9c0,3.2,2.4,5.8,5.4,5.8s5.3-5.2,5.3-8.3s-2.3-3.7-5.3-3.2C164,41.6,161.5,43.7,161.5,46.9z"/>
		</g>
		<path class="st1" d="M167.1,30.9c-2.1-6-16.9-6.2-16.9-6.2s-14.8,0.2-16.9,6.2c-2.1,6-1.9,18.3,1.2,24.3c3.1,6,8.8,10.9,15.6,10.9
			c6.8,0,12.5-4.9,15.6-10.9C168.9,49.2,169.1,36.8,167.1,30.9z"/>
		<path class="st3" d="M137.9,26.8c1-0.1,2-0.1,3,0.2c1,0.3,1.8,1.1,2,2.1c0.3,1.3-0.6,2.5-1.4,3.6c-1.2,1.5-2.3,3-3.5,4.5
			c-0.8,1.1-1.7,2.1-2.2,3.4c-0.4,1-0.6,2.2-0.7,3.3c-0.2,1.5-0.2,3.1-0.2,4.6c0,0.2,0,0.3-0.1,0.5c-0.1,0.2-0.3,0.3-0.4,0.3
			c-0.5,0.2-1,0.5-1.5,0.7c-0.6-2.8-1.4-11.8-1.7-12.8c-0.5-1.8-0.9-3.6-1.1-5.5c0-0.4-0.1-0.8,0-1.2c0.2-0.9,1-1.6,1.9-2
			C133.8,27.4,135.9,27,137.9,26.8z"/>
		<path class="st3" d="M159.1,20.1c-0.1,0-0.2,0.1-0.2,0.1c-0.3,0.4,0.1,1.7,0.2,2.2c0.1,0.6,1.2,4.3,0.4,4.6c-1,0.3-1.8,1.1-2,2.1
			c-0.3,1.3,0.6,2.5,1.4,3.6c1.2,1.5,2.3,3,3.5,4.5c0.8,1.1,1.7,2.1,2.2,3.4c0.4,1,0.6,2.2,0.7,3.3c0.2,1.5,0.2,3.1,0.2,4.6
			c0,0.2,0,0.3,0.1,0.5c0.1,0.2,0.3,0.3,0.4,0.3c0.5,0.2,1,0.5,1.5,0.7c0,0,0-0.1,0-0.1c0.7-3.4,0.9-6.9,1.3-10.3
			c0.2-1.7,0.1-3.4,0.7-5c0.8-2.6,1.5-5.3,1.2-8c-0.1-1-0.4-2-1-2.9c-0.8-1.1-1.9-1.8-3.2-2.2c-1.2-0.4-2.6-0.6-3.9-0.8
			C162,20.5,159.9,19.9,159.1,20.1z"/>
		<path class="st3" d="M160.9,17.9c-2-2.3-4.2-4.6-7-5.7c-3.3-1.2-7-0.5-10.4,0.3c-1.9,0.5-3.9,1-5.4,2.2c-1.7,1.3-2.8,3.2-4.2,4.7
			c-1.4,1.5-3.6,2.8-5.6,2.2c-0.2,1.6-0.3,3.3,0.1,4.9c0.8,3.6,3.9,6.3,7.3,7.5c3.4,1.2,7.2,1.1,10.8,0.5c3.5-0.6,7.1-1.7,9.9-3.9
			c2.4-1.9,4.1-4.7,5.3-7.5c0.4-1,0.8-2.1,0.5-3.2C162,19.2,161.5,18.5,160.9,17.9z"/>
		<rect x="134.3" y="275.2" class="st4" width="9.4" height="11.1"/>
		<rect x="163" y="275.2" class="st4" width="10.7" height="11.1"/>
		<path class="st5" d="M127.5,146.7c0,0-12.5,30.6,0,34.5c12.5,3.9,24.4,6,24.4,6s20.3-0.5,20.7-0.9c0.3-0.5,9.4-3.1,9.8-10.8
			c0.7-13.4-4.5-27.3-13.9-34c-9.4-6.7-22.1-5.4-22.9-5.4C144.6,136.1,127.5,146.7,127.5,146.7z"/>
		<rect x="119" y="265.9" class="st6" width="67.5" height="2.2"/>
		<rect x="119" y="241.3" class="st6" width="67.5" height="2.2"/>
		<rect x="115.1" y="190.8" class="st6" width="4.6" height="102.6"/>
		<rect x="184.1" y="190.8" class="st6" width="4.6" height="102.6"/>
		<path class="st7" d="M188.2,192.8h-72.8c-2.3,0-4.1-1.8-4.1-4.1v0c0-2.3,1.8-4.1,4.1-4.1h72.8c2.3,0,4.1,1.8,4.1,4.1v0
			C192.3,191,190.4,192.8,188.2,192.8z"/>
		<path class="st8" d="M172.9,119.5h-46c-11.6,0-20.9-9.4-20.9-20.9v0c0-11.6,9.4-20.9,20.9-20.9h46c11.6,0,20.9,9.4,20.9,20.9v0
			C193.8,110.1,184.5,119.5,172.9,119.5z"/>
		<polygon class="st9" points="150.3,112.7 150.3,112.7 150.3,112.7 150.3,112.7 150.3,112.7 124.6,115.2 126.8,149 150.3,149 
			150.3,149 173.8,149 175.3,116.8 		"/>
		<path class="st9" d="M198.9,123.6c-1-6-9.9-37.1-16.4-44.5c-5.5-6.2-21.8-8.6-25.4-8.9c-1.3,2.3-3.9,3.9-7,3.9
			c-3.1,0-5.7-1.6-7-3.9c-3.3,0.2-19.5,2.5-25.2,8.9c-6.5,7.3-15.9,38.6-16.8,44.7c-1,6,19.7,29.5,28.6,32.7l7.4-9.1
			c0,0-19.1-19.4-19.6-22.2c-0.5-2.9,7.2-20.2,7.2-20.2h25.9h25.9c0,0,6.4,16.8,5.9,19.7c-0.5,2.9-22.4,21.8-22.4,21.8l7.4,10
			C176.3,153.2,199.8,129.7,198.9,123.6z"/>
		<path class="st10" d="M135.7,159c0,0-18.7-8.1-14.3,34.6c4.3,42.7,7.7,84,7.7,84l19.5-0.5C148.5,277.1,152.7,162.4,135.7,159z"/>
		<path class="st10" d="M168.9,159c0,0,18.7-8.1,14.3,34.6c-4.3,42.7-7.7,84-7.7,84l-19.5-0.5C156.1,277.1,152,162.4,168.9,159z"/>
		<path class="st1" d="M169.1,153.4c-0.5-0.9-0.5-2-1-2.9c-0.9-1.8-1.8-3.6-2.7-5.5c-4.6-0.3-10.5-0.5-10.7-0.2
			c-0.4,0.5-0.1,1,4.9,3.3c0.3,0.2,0.4,0.6,0.1,0.8c-2.4,1.5-9.8,6.2-9.5,6.9c0.3,0.8,7-3.2,7.6-2.7c0.6,0.5-6,4.3-5.6,5.1
			c0.4,0.8,6.4-2.8,6.7-2.5c0.3,0.3-5,4.4-5,5c0,0.6,6.2-3,6.7-2.8c0.5,0.2-3,4.2-2.7,4.5c0.3,0.3,0.5,0.6,10.8-6.1l1.4-1
			C169.7,154.6,169.4,154,169.1,153.4z"/>
		<path class="st1" d="M141.6,149c-0.3-0.2-0.3-0.6,0-0.8c4.8-2.7,5-3.2,4.6-3.7c-0.3-0.3-7,0.6-11.7,1.3c-0.7,1.9-1.5,3.9-2.3,5.8
			c-0.4,1-0.8,1.9-1.2,2.9c-0.2,0.4-0.3,0.8-0.5,1.1l2.8,1.5c10.8,5.8,11,5.5,11.2,5.2c0.3-0.4-3.5-4-3-4.3c0.4-0.3,7,2.9,6.9,2.2
			c-0.1-0.6-5.7-4.3-5.5-4.6c0.3-0.3,6.5,2.8,6.9,2c0.4-0.9-6.6-4.1-6-4.6c0.6-0.6,7.6,2.9,7.8,2.1C151.8,154.4,144,150.3,141.6,149
			z"/>
		<path class="st11" d="M161.7,70.8c-0.7-0.1-1.3-0.2-1.8-0.3c-0.8,2.4-3.2,6.9-9.9,6.9c0,0,0,0,0,0c-5.7,0-8.8-4.5-10-6.9
			c-0.6,0.1-1.2,0.2-1.9,0.3c1.2,2.6,4.8,8.3,11.9,8.3c0,0,0,0,0,0C157.9,79.2,160.8,73.6,161.7,70.8z"/>
		<g>
			<path class="st4" d="M123.8,293.6l21.5-1.2c0.4,0,0.7-0.4,0.7-0.9l0-0.9c0-0.5-0.4-0.8-0.8-0.8l-21.5,1.2c-0.4,0-0.7,0.4-0.7,0.9
				l0,0.9C123.1,293.3,123.4,293.7,123.8,293.6z"/>
			<path class="st12" d="M144.5,281.9l1.1,7.2c0.1,0.9-0.3,1.7-0.9,1.8l-20.2,1.2c-0.5,0-1.1-0.3-1.4-1c-0.3-0.7-0.4-1.8,0.4-3.3
				c1.6-2.9,7.3-4,10.2-6.5c0.2-0.1,0.4-0.2,0.6-0.2l9.1-0.5C143.9,280.5,144.4,281,144.5,281.9z"/>
		</g>
		<g>
			<path class="st4" d="M181.6,293.6l-21.5-1.2c-0.4,0-0.7-0.4-0.7-0.9l0-0.9c0-0.5,0.4-0.8,0.8-0.8l21.5,1.2c0.4,0,0.7,0.4,0.7,0.9
				l0,0.9C182.3,293.3,182,293.7,181.6,293.6z"/>
			<path class="st12" d="M160.9,281.9l-1.1,7.2c-0.1,0.9,0.3,1.7,0.9,1.8l20.2,1.2c0.5,0,1.1-0.3,1.4-1c0.3-0.7,0.4-1.8-0.4-3.3
				c-1.6-2.9-7.3-4-10.2-6.5c-0.2-0.1-0.4-0.2-0.6-0.2l-9.1-0.5C161.5,280.5,161,281,160.9,281.9z"/>
		</g>
		<path class="st13" d="M164.3,141.6c0.8-0.7,1.7-1.3,2.5-2c0.8-0.6,1.7-1.3,2.5-1.9c0.8-0.6,1.7-1.2,2.6-1.9c0.9-0.7,3-2.2,3-2.2
			c-0.8,0.7-0.8,0.8-2.8,2.6c-0.8,0.7-1.6,1.4-2.5,2.1c-0.8,0.7-1.7,1.4-2.5,2c-0.7,0.6-1.5,1.2-2.2,1.8c0.9,2.1,1.8,4.3,2.7,6.5
			c0.5,1.1,0.9,2.3,1.3,3.4c0.4,1.2,0.9,2.3,1.3,3.5c-0.5-1.1-1-2.2-1.6-3.3c-0.5-1.1-1-2.2-1.5-3.3c-1-2.2-2-4.5-2.9-6.7l-0.1-0.3
			L164.3,141.6z"/>
		<path class="st13" d="M135.5,142.9c-0.8-0.6-1.7-1.2-2.5-1.8c-0.9-0.6-1.7-1.2-2.6-1.8c-0.9-0.6-1.7-1.2-2.6-1.7
			c-0.9-0.6-1.7-1.1-2.6-1.7c0.8,0.7,1.6,1.3,2.5,2c0.8,0.6,1.7,1.3,2.5,1.9c0.8,0.6,1.7,1.2,2.5,1.9c0.8,0.6,1.5,1.1,2.3,1.6
			c-0.9,2.1-1.7,4.1-2.6,6.2c-0.4,1.1-0.9,2.2-1.3,3.3c-0.4,1.1-0.8,2.2-1.2,3.3c0.5-1,1-2.1,1.5-3.2c0.5-1.1,1-2.1,1.5-3.2
			c1-2.1,1.9-4.3,2.8-6.5l0.1-0.3L135.5,142.9z"/>
		<path class="st13" d="M124.9,116.8c-0.1-1.8-0.2-3.5-0.4-5.3c-0.2-1.8-0.3-3.5-0.6-5.3c0,1.8,0,3.6,0.1,5.3
			c0.1,1.8,0.2,3.6,0.3,5.3c0.1,1.8,0.2,3.5,0.4,5.3c0.1,1.8,0.3,3.5,0.6,5.3c0-1.8,0-3.6-0.1-5.3
			C125.1,120.3,125,118.6,124.9,116.8z"/>
		<path class="st9" d="M176.7,79.2c-0.2-0.4-0.5-0.7-0.7-1c-5-6.2-16.2-7.6-19.5-7.9c-1.2,2.3-3.6,3.9-6.3,3.9
			c-2.8,0-5.2-1.6-6.4-3.9c-3,0.2-14.7,1.6-19.8,7.9c-0.4,0.5-0.8,1.1-1.2,1.8c0,0,0.5,25,2.6,41c0.5-1.4,1.1-2.9,1.1-2.9h23.6
			l25.1,4C177.2,102.4,176.7,79.2,176.7,79.2z"/>
		<path class="st13" d="M175,114.3c0.1-1.8,0.3-3.5,0.5-5.3c0.2-1.8,0.4-3.5,0.6-5.3c0,1.8-0.1,3.6-0.2,5.3
			c-0.1,1.8-0.2,3.6-0.3,5.3c-0.1,1.8-0.3,3.5-0.5,5.3c-0.2,1.8-0.4,3.5-0.6,5.3c0-1.8,0.1-3.6,0.2-5.3
			C174.8,117.9,174.9,116.1,175,114.3z"/>
		<path class="st13" d="M144.4,69.9c0,0,1,1.9,5.8,4.3c0,0-1.1,5-2.9,5.4c-1.8,0.4-12.1-5.2-9.1-8.7
			C138.2,70.8,139.4,69.1,144.4,69.9z"/>
		<path class="st13" d="M155.9,69.9c0,0-1,1.9-5.8,4.3c0,0,1.1,5,2.9,5.4c1.8,0.4,12.1-5.2,9.1-8.7C162.2,70.8,161,69.1,155.9,69.9z
			"/>
		<path class="st3" d="M161.2,39.3c0,0.3-0.1,0.7-0.4,0.8c-0.5,0.2-1.1-0.3-1.6-0.5c-0.6-0.2-1.1-0.4-1.7-0.5
			c-0.8,0-1.6-0.2-2.3-0.5c-0.3-0.2-0.5-0.5-0.4-0.9c0.1-0.3,0.4-0.5,0.7-0.6c0.8-0.1,1.7,0,2.5,0.3c0.5,0.1,1,0.3,1.5,0.5
			c0.4,0.1,0.8,0.3,1.2,0.5C161,38.7,161.1,39,161.2,39.3z"/>
		<path class="st3" d="M143.9,37.8c0.1,0.3,0,0.7-0.4,0.9c-0.7,0.3-1.5,0.4-2.3,0.5c-0.6,0.1-1.2,0.3-1.7,0.5
			c-0.5,0.2-1,0.7-1.5,0.5c-0.3-0.1-0.5-0.5-0.4-0.8c0.1-0.3,0.3-0.6,0.5-0.8c0.4-0.2,0.8-0.4,1.2-0.5c0.5-0.2,1-0.4,1.5-0.5
			c0.8-0.3,1.7-0.4,2.5-0.3C143.5,37.3,143.8,37.5,143.9,37.8z"/>
		<path class="st14" d="M149.4,48.2c-0.2,0.2-0.3,0.5-0.3,0.8c0.1,0.2,0.3,0.4,0.5,0.5c0.6,0.3,1.4,0.3,2-0.1
			c0.6-0.4,0.9-1.1,0.8-1.8c-0.2-0.7-1.4-0.5-1.9-0.3C150.1,47.6,149.7,47.9,149.4,48.2z"/>
		<path class="st15" d="M150.7,51c-0.1,0-0.2-0.1-0.3-0.2c0-0.1,0.1-0.3,0.2-0.3c0.7-0.1,1.3-0.5,1.5-1.2c0.2-0.7,0.1-1.4-0.4-1.9
			c-0.1-0.1-0.3-0.3-0.5-0.4c-0.1-0.1-0.3-0.2-0.4-0.3c-0.8-0.8-1.1-1.9-0.8-3c0.1-0.1,0.2-0.2,0.3-0.2c0.1,0.1,0.2,0.2,0.2,0.3
			c-0.3,0.9,0,1.8,0.6,2.5c0.1,0.1,0.3,0.2,0.4,0.3c0.2,0.1,0.4,0.3,0.5,0.4c0.6,0.6,0.8,1.6,0.6,2.5
			C152.4,50.3,151.6,50.9,150.7,51L150.7,51z"/>
		<path class="st15" d="M154.8,55.7L154.8,55.7c-0.7-0.1-1.4-0.3-2.1-0.5c-0.2-0.1-0.4-0.2-0.6-0.3c-0.3-0.2-0.6-0.3-0.9-0.4
			c-1.1-0.2-2.3-0.1-3.2,0.5h-0.1c-0.7,0.4-1.5,0.7-2.3,0.7l0,0c-0.1,0-0.3-0.1-0.3-0.2c0-0.1,0.1-0.3,0.2-0.3c0,0,0.1,0,0.1,0l0,0
			c0.7-0.1,1.4-0.3,2-0.7h0.1c1.1-0.6,2.4-0.8,3.6-0.5c0.4,0.1,0.7,0.3,1,0.5c0.2,0.1,0.4,0.2,0.6,0.3c0.6,0.3,1.2,0.4,1.9,0.5
			c0.1,0,0.2,0.1,0.2,0.3c0,0,0,0,0,0C155,55.7,154.9,55.8,154.8,55.7z"/>
	</g>
</g>
<g>
	<g>
		<path class="st16" d="M143.2,44.5c0,1.1-0.8,1.9-1.7,1.9c-0.9,0-1.7-0.9-1.7-1.9s0.8-1.9,1.7-1.9
			C142.4,42.6,143.2,43.4,143.2,44.5z"/>
	</g>
	<g>
		<path class="st16" d="M159.4,44.5c0,1.1-0.8,1.9-1.7,1.9c-0.9,0-1.7-0.9-1.7-1.9s0.8-1.9,1.7-1.9
			C158.7,42.6,159.4,43.4,159.4,44.5z"/>
	</g>
</g>
</svg>
