<?xml version="1.0" encoding="utf-8"?>
<!-- Generator: Adobe Illustrator 25.0.0, SVG Export Plug-In . SVG Version: 6.00 Build 0)  -->
<svg version="1.1" id="Layer_1" xmlns="http://www.w3.org/2000/svg" xmlns:xlink="http://www.w3.org/1999/xlink" x="0px" y="0px"
	 viewBox="0 0 637 742" style="enable-background:new 0 0 637 742;" xml:space="preserve">
<style type="text/css">
	.st0{opacity:7.703220e-02;fill:#E13856;enable-background:new    ;}
	.st1{fill-rule:evenodd;clip-rule:evenodd;fill:#005E5E;}
	.st2{fill-rule:evenodd;clip-rule:evenodd;fill:#FFFFFF;filter:url(#Adobe_OpacityMaskFilter);}
	.st3{mask:url(#mask1_1_);}
	.st4{fill-rule:evenodd;clip-rule:evenodd;fill:#575757;}
	.st5{fill-rule:evenodd;clip-rule:evenodd;fill:#231F20;}
	.st6{fill-rule:evenodd;clip-rule:evenodd;fill:#004545;}
	.st7{fill-rule:evenodd;clip-rule:evenodd;fill:#1185EE;}
	.st8{fill-rule:evenodd;clip-rule:evenodd;fill:#4063B7;}
	.st9{fill-rule:evenodd;clip-rule:evenodd;fill:#266DC8;}
	.st10{fill-rule:evenodd;clip-rule:evenodd;fill:#008DFB;}
	.st11{fill-rule:evenodd;clip-rule:evenodd;fill:#1772D2;}
	.st12{fill-rule:evenodd;clip-rule:evenodd;fill:#FFFFFF;filter:url(#Adobe_OpacityMaskFilter_1_);}
	.st13{mask:url(#mask2_1_);}
	.st14{fill-rule:evenodd;clip-rule:evenodd;fill:#0778DD;}
	.st15{fill-rule:evenodd;clip-rule:evenodd;fill:#E7B386;}
	.st16{fill-rule:evenodd;clip-rule:evenodd;fill:#4E2511;}
	.st17{fill-rule:evenodd;clip-rule:evenodd;fill:#E13856;}
	.st18{fill-rule:evenodd;clip-rule:evenodd;fill:#DBDBDB;}
	.st19{fill-rule:evenodd;clip-rule:evenodd;fill:#04000E;}
	.st20{fill-rule:evenodd;clip-rule:evenodd;fill:#434494;}
	.st21{fill-rule:evenodd;clip-rule:evenodd;fill:#2E2B63;}
	.st22{fill-rule:evenodd;clip-rule:evenodd;fill:#2A275A;}
	.st23{fill-rule:evenodd;clip-rule:evenodd;fill:#004DF9;}
	.st24{fill-rule:evenodd;clip-rule:evenodd;fill:#FFFFFF;}
	.st25{fill-rule:evenodd;clip-rule:evenodd;fill:#1D1D1B;}
	.st26{fill-rule:evenodd;clip-rule:evenodd;fill:#C6C6C5;}
	.st27{fill-rule:evenodd;clip-rule:evenodd;fill:#D9D9D9;}
	.st28{fill-rule:evenodd;clip-rule:evenodd;fill:#562B17;}
</style>
<g>
	<circle class="st0" cx="318.5" cy="318.8" r="318.5"/>
	<g>
		<path class="st1" d="M391.2,152.3H243.7c-6.5,0-11.8,5.3-11.8,11.7v220.3h171V164C403,157.5,397.7,152.3,391.2,152.3z"/>
		<defs>
			<filter id="Adobe_OpacityMaskFilter" filterUnits="userSpaceOnUse" x="424.9" y="329.5" width="29.1" height="96.5">
				<feColorMatrix  type="matrix" values="1 0 0 0 0  0 1 0 0 0  0 0 1 0 0  0 0 0 1 0"/>
			</filter>
		</defs>
		<mask maskUnits="userSpaceOnUse" x="424.9" y="329.5" width="29.1" height="96.5" id="mask1_1_">
			<path class="st2" d="M424.9,329.5H454V426h-29.1V329.5z"/>
		</mask>
		<g class="st3">
			<path class="st4" d="M442.5,329.5l9.7,0c0,0,3.2,3.7,1,12.5c-1.5,6-23,84-23,84l-5.4-7.1L442.5,329.5z"/>
		</g>
		<path class="st5" d="M419.7,350l3.8,56.2l14.2-59L419.7,350z M421.6,431.2c-0.6-0.4-1-2.3-1.2-4.9l-4.5-78.4
			c-0.1-2,0.1-4.6,0.5-6.9c0.4-2.3,1-3.8,1.5-4l25-7.7c0.9-0.3,1.6,1.3,1.8,4.1c0.2,2.8,0,6.4-0.7,9.2l-20.8,85.7
			C422.9,430.6,422.2,431.6,421.6,431.2z"/>
		<path class="st4" d="M419,350.7l3.9,55.5l2.1-8.8l-3-47.2L419,350.7z"/>
		<path class="st4" d="M194.4,329.3l-9.6,0c0,0-3.2,3.7-1,12.6c1.5,6,22.9,84.4,22.9,84.4l5.4-7.2L194.4,329.3z"/>
		<path class="st5" d="M199.2,347.2l14.2,59l3.8-56.2L199.2,347.2z M213.5,428.3l-20.8-85.7c-0.7-2.8-0.9-6.4-0.7-9.2
			c0.2-2.8,1-4.4,1.8-4.1l25,7.7c0.5,0.2,1.1,1.7,1.5,4c0.4,2.3,0.6,5,0.5,6.9l-4.5,78.4c-0.1,2.6-0.6,4.5-1.2,4.9
			C214.7,431.6,214.1,430.5,213.5,428.3z"/>
		<path class="st6" d="M406.9,393.3H231l-36,48h248L406.9,393.3z"/>
		<path class="st5" d="M319,574.3c-5.4,0-9.9-4.4-9.9-9.9l-1.1-97.9c-0.1-5.5,4.3-10.1,9.8-10.2h0.1c5.4,0,9.9,4.4,9.9,9.9l1.1,97.9
			c0.1,5.6-4.3,10.1-9.8,10.2H319z"/>
		<path class="st5" d="M414.9,649.3c-2,0-4.1-0.6-5.8-1.9l-90.6-76.5L227.9,647c-4.5,3.2-10.8,2.2-14-2.3c-3.2-4.5-2.2-10.7,2.3-14
			l102.3-84.5l102.3,84.9c4.5,3.2,5.5,9.5,2.3,14C421.1,647.8,418,649.3,414.9,649.3z"/>
		<path class="st5" d="M335.9,645.3c-4.6,0-8.7-3.1-9.8-7.7l-17.9-77c-1.2-5.4,2.1-10.7,7.5-12c5.4-1.2,10.8,2.1,12.1,7.5l17.9,77
			c1.3,5.4-2.1,10.7-7.5,12C337.4,645.2,336.7,645.3,335.9,645.3z"/>
		<path class="st5" d="M243,645.8c0,11.9-9.6,21.5-21.5,21.5c-11.9,0-21.5-9.6-21.5-21.5s9.6-21.5,21.5-21.5
			C233.3,624.3,243,633.9,243,645.8z"/>
		<path class="st5" d="M436,645.8c0,11.9-9.6,21.5-21.5,21.5c-11.9,0-21.5-9.6-21.5-21.5s9.6-21.5,21.5-21.5
			C426.3,624.3,436,633.9,436,645.8z"/>
		<path class="st5" d="M357,648.8c0,11.9-9.6,21.5-21.5,21.5s-21.5-9.6-21.5-21.5c0-11.9,9.6-21.5,21.5-21.5S357,636.9,357,648.8z"
			/>
		<path class="st4" d="M218,350.7l-3.9,55.5l-2.1-8.8l3-47.2L218,350.7z"/>
		<path class="st1" d="M434.2,469.3H203.7c-6.5,0-11.8-5.3-11.8-11.8V452c0-6.5,5.3-11.8,11.8-11.8h230.5c6.5,0,11.8,5.3,11.8,11.8
			v5.4C446,464,440.7,469.3,434.2,469.3z"/>
		<path class="st7" d="M419,444.5l-34.5-49.4l-6.7-23.8c0,0-14.3,11.8-49.9,9.3v42c0,0,4.5-14.5,16-18.5l24.4,45.2L419,444.5z"/>
		<path class="st8" d="M329,422.6l33.3,57.6l6.7-31.2l-24.1-44.8C344.8,404.3,331.9,408.2,329,422.6z"/>
		<path class="st9" d="M328,423.3c0,0-1.7-21.1,22.7-24.5C375,395.4,331,409.9,328,423.3z"/>
		<path class="st10" d="M215,444.5l34.5-49.3l5-22c0,0,16,10,51.5,7.5v41.9c0,0-4.5-14.5-16-18.5l-24.4,45.1L215,444.5z"/>
		<path class="st11" d="M306,422.6l-33.3,57.6l-6.7-31.2l24.1-44.8C290.1,404.3,303,408.2,306,422.6z"/>
		<path class="st11" d="M305.9,423.3c0,0,1.7-21.1-22.7-24.5C258.9,395.4,302.9,409.9,305.9,423.3z"/>
		<defs>
			<filter id="Adobe_OpacityMaskFilter_1_" filterUnits="userSpaceOnUse" x="199.2" y="108.3" width="232.3" height="631">
				<feColorMatrix  type="matrix" values="1 0 0 0 0  0 1 0 0 0  0 0 1 0 0  0 0 0 1 0"/>
			</filter>
		</defs>
		<mask maskUnits="userSpaceOnUse" x="199.2" y="108.3" width="232.3" height="631" id="mask2_1_">
			<path class="st12" d="M183,738.3h271V8.3H183V738.3z"/>
		</mask>
		<g class="st13">
			<path class="st14" d="M306,422.3h23v-42h-23V422.3z"/>
			<path class="st15" d="M254.9,277.6c-8.8-57.4-8.9-118-6.8-118.4c0,0,0.7-0.1,1.1-0.2c2.9-0.6,11.1-2.5,20.9-7.1
				c12.2-5.8,31.3-3,31.3-3h30.4c0,0,18.6-2.8,30.6,3c9.6,4.6,17.6,6.5,20.4,7.1c0.4,0.1,0.7,0.1,1.1,0.2c0,0,0,0,0,0
				s1.9,59.4-6.6,116.8c-8.5,56.8,4,9.8-0.5,37.9c-1.6,9.7-47.9-4.8-51.4,7.2c0,0-6.7,0.3-8.5,0.1c-1.8,0.2-8.7-0.1-8.7-0.1
				c-3.6-12-51.4,2.5-53-7.2C250.5,285.8,263.6,334.5,254.9,277.6z"/>
			<path class="st16" d="M311.3,260.7c-1,0.1-1.9,0.3-2.9,0.6c-1.9,0.5-3.7,1.3-5.5,2.2c-3.5,1.8-6.7,4-9.7,6.5
				c-2.9,2.4-5.9,4.7-8.9,7c-1.5,1.1-3,2.3-4.6,3.3c-1.6,1.1-3.1,2.1-4.9,3c1.9-0.2,3.8-0.9,5.6-1.6c1.8-0.8,3.5-1.6,5.2-2.6
				c3.4-1.9,6.5-4.2,9.5-6.6c2.9-2.4,5.9-4.7,9-6.8c1.5-1,3.1-2,4.8-2.9c0.8-0.4,1.7-0.8,2.6-1.2c0.9-0.3,1.8-0.6,2.7-0.7
				C313.3,260.6,312.3,260.6,311.3,260.7z"/>
			<path class="st16" d="M283.1,265.6c2.2-0.7,4.2-2,5.7-3.7c-2.2,0.6-4.2,1.1-6.3,1.2c-2,0.2-4,0.1-6-0.1c-2-0.3-3.9-0.8-5.9-1.5
				c-2-0.7-3.9-1.5-6-2.4c1.2,1.9,3,3.5,4.9,4.7c2,1.2,4.2,2.1,6.5,2.4C278.4,266.5,280.8,266.3,283.1,265.6z"/>
			<path class="st16" d="M313.7,296.5c-2.1,0.7-4.1,1.3-6,1.5c-1.9,0.3-3.8,0.2-5.7-0.1c-1.9-0.3-3.7-1-5.6-1.8
				c-1.9-0.8-3.7-1.8-5.6-2.8c1,2,2.6,3.6,4.4,5c1.8,1.3,4,2.3,6.3,2.7c2.3,0.4,4.7,0.2,6.9-0.6
				C310.5,299.7,312.4,298.3,313.7,296.5z"/>
			<path class="st16" d="M312.5,308.8c-1.9,0.6-3.7,1.1-5.4,1.3c-1.7,0.2-3.4,0.1-5.1-0.2c-1.7-0.3-3.3-0.8-5-1.5
				c-1.7-0.7-3.3-1.5-5.1-2.4c0.9,1.8,2.3,3.3,3.9,4.6c1.6,1.2,3.6,2.1,5.7,2.5c2.1,0.4,4.3,0.2,6.3-0.5
				C309.7,311.7,311.4,310.4,312.5,308.8z"/>
			<path class="st16" d="M302.2,323.2c-1.1-0.2-2.3-0.5-3.5-1c-1.2-0.4-2.4-0.9-3.9-1.4c0.5,1.5,1.5,2.6,2.6,3.6
				c1.2,0.9,2.6,1.6,4.2,1.9c1.6,0.3,3.2,0.1,4.7-0.5c1.4-0.6,2.6-1.7,3.4-3c-1.5,0.3-2.8,0.5-4,0.6
				C304.4,323.5,303.3,323.4,302.2,323.2z"/>
			<path class="st16" d="M340.8,296.2c-1.9,0.8-3.7,1.4-5.6,1.8c-1.9,0.3-3.8,0.4-5.7,0.1c-1.9-0.2-3.9-0.8-6-1.5
				c1.3,1.8,3.2,3.2,5.4,4c2.2,0.8,4.6,1,6.9,0.6c2.3-0.4,4.4-1.4,6.3-2.7c1.8-1.3,3.4-3,4.4-5C344.5,294.4,342.7,295.4,340.8,296.2
				z"/>
			<path class="st16" d="M345.2,305.9c-1.8,0.9-3.5,1.7-5.1,2.4c-1.7,0.7-3.3,1.2-5,1.5c-1.7,0.3-3.3,0.4-5.1,0.2
				c-1.7-0.2-3.5-0.7-5.4-1.3c1.1,1.7,2.8,2.9,4.8,3.7c2,0.8,4.2,0.9,6.3,0.5c2.1-0.4,4-1.3,5.6-2.5
				C343,309.3,344.4,307.8,345.2,305.9z"/>
			<path class="st16" d="M335,323.2c-1.1,0.2-2.3,0.3-3.5,0.2c-1.2-0.1-2.5-0.3-4-0.6c0.7,1.3,1.9,2.4,3.4,3
				c1.4,0.6,3.1,0.8,4.7,0.5c1.6-0.3,3-1,4.2-1.9c1.2-1,2.1-2.1,2.6-3.6c-1.4,0.5-2.7,1-3.9,1.4C337.3,322.6,336.2,323,335,323.2z"
				/>
			<path class="st16" d="M356.1,281.6c1.8,0.7,3.7,1.4,5.6,1.6c-1.7-0.8-3.3-1.9-4.9-3c-1.6-1.1-3.1-2.2-4.6-3.3c-3-2.3-6-4.6-8.9-7
				c-3-2.4-6.2-4.7-9.7-6.5c-1.8-0.9-3.6-1.6-5.5-2.2c-1-0.2-1.9-0.5-2.9-0.6c-1-0.1-2-0.1-2.9,0.2c1,0.1,1.9,0.4,2.7,0.7
				c0.9,0.3,1.7,0.7,2.5,1.2c1.7,0.8,3.2,1.8,4.8,2.9c3.1,2.1,6,4.4,9,6.8c3,2.4,6.2,4.7,9.5,6.6
				C352.6,279.9,354.3,280.8,356.1,281.6z"/>
			<path class="st16" d="M354,263.1c-2-0.2-4.1-0.7-6.3-1.2c1.5,1.7,3.5,3,5.7,3.7c2.2,0.7,4.7,0.9,7,0.6c2.3-0.3,4.5-1.2,6.5-2.4
				c1.9-1.2,3.7-2.7,4.9-4.7c-2.1,0.9-4,1.8-6,2.4c-2,0.7-3.9,1.2-5.9,1.5C358,263.3,356,263.3,354,263.1z"/>
			<path class="st16" d="M320,308.2c0-4-0.1-7.9-0.3-11.8c-0.3-3.9-0.6-7.9-1.3-11.8c-0.7,3.9-1,7.9-1.3,11.8
				c-0.2,3.9-0.3,7.9-0.3,11.8c0,3.9,0.1,7.9,0.3,11.8c0.2,3.9,0.6,7.9,1.3,11.8c0.7-3.9,1-7.9,1.3-11.8
				C319.8,316.1,320,312.2,320,308.2z"/>
			<g>
				<path class="st15" d="M401.3,394.2c0,0,0.4,10-2,17.3c-2.1,6.1-2.4,8.4-5.2,18.5c-3,11-4.1,11.4-6.1,14.7
					c-2,3.3,4.1,9.7,9.4,0.6c5.4-9.1,5.5-12.2,5.5-12.2s-2.4,15.8-3,24c-0.6,8.2-1.3,13.4,2.8,13.1c2.1-0.1,3-1.1,4.3-12.1
					c1.3-10.9,3-23.2,3-23.2s-4,40.3,0.9,40.7c3.1,0.3,4.4-1.5,5.2-14.6c0.8-13.1,1-25.6,1-25.6s1.1,33.9,2.2,36.5
					c0.7,1.5,5.6,7.4,5.1-6.2c-0.5-13.6-1.2-31.4-1.2-31.4s2.2,28.7,6.1,28.2c4.1-0.5,1.9-12.9,0-30.4c-1.9-17.5-3.4-17-5.5-21.5
					c-2.1-4.5-2.8-18.5-2.8-18.5L401.3,394.2z"/>
				<path class="st15" d="M399.2,308.1c-0.9,1.4-1.5,3.5-1.9,5.1c-2.9,9.8-1.6,42.9,1.7,62c3.3,19.1,1.7,33.7,1.7,33.7l22.6-1.1
					c0,0-1.6-14.2,2.9-40.7c4.5-26.6,2.3-47.1-2.3-61.5C421.8,300.7,400.9,304.4,399.2,308.1z"/>
				<path class="st15" d="M410.2,317.3c0.3-2.1-11.6,0.5-11.6,0.5s-17-51-13.3-64.9c0,0-10.2-29.8-9-43.7
					c-14.9-37.1-23.7-57.6,11.2-51.4c18.5,2.6,32.2,14.1,30.4,38.5c-2.1,29.1,3.1,38.1,6,50.2c3.9,16.3,3,57.5,2,64.5
					C415.7,312.5,419.6,321.3,410.2,317.3z"/>
				<path class="st16" d="M416.7,213.8c-1.4,5-2.6,10-3.8,15.1c-0.6,2.5-1.2,5-1.8,7.5c-0.6,2.5-1.3,5-2.1,7.4
					c1.4-2.2,2.5-4.6,3.4-7.1c0.9-2.5,1.6-5,2.2-7.5c0.6-2.5,1.1-5.1,1.5-7.7C416.3,219,416.6,216.4,416.7,213.8z"/>
				<path class="st16" d="M423.3,292.6c-1.5,1.1-2.6,2.3-3.8,3.5l-1.7,1.8c-0.6,0.6-1.1,1.2-1.8,1.8c0.9,0,1.8-0.3,2.6-0.8
					c0.8-0.5,1.5-1,2.1-1.7c0.6-0.7,1.1-1.4,1.6-2.1C422.7,294.3,423.1,293.5,423.3,292.6z"/>
			</g>
			<g>
				<path class="st15" d="M209.8,392.2c0,0-0.8,14-2.8,18.5c-2.1,4.5-3.6,4-5.5,21.5c-1.9,17.5-4.1,29.9,0,30.4
					c3.9,0.5,6.1-28.2,6.1-28.2s-0.7,17.8-1.2,31.4c-0.5,13.6,4.4,7.7,5.1,6.2c1.1-2.6,2.2-36.5,2.2-36.5s0.2,12.5,1,25.6
					c0.8,13.1,2.1,14.8,5.2,14.6c4.8-0.4,0.9-40.7,0.9-40.7s1.7,12.3,3,23.2c1.3,10.9,2.3,11.9,4.3,12.1c4.1,0.2,3.4-4.9,2.8-13.1
					c-0.6-8.2-3-24-3-24s0.1,3.1,5.5,12.2c5.3,9.1,11.4,2.7,9.4-0.6c-2-3.3-3.1-3.6-6.1-14.7c-2.7-10.2-3.1-12.4-5.2-18.5
					c-2.4-7.2-2-17.3-2-17.3L209.8,392.2z"/>
				<path class="st15" d="M207,305.7c-4.6,14.4-6.8,34.9-2.3,61.5c4.5,26.6,2.9,40.7,2.9,40.7l22.6,1.1c0,0-1.6-14.6,1.7-33.7
					c3.3-19.1,4.6-52.2,1.7-62c-0.5-1.6-1-3.8-1.9-5.1C229.9,304.4,209,300.7,207,305.7z"/>
				<path class="st15" d="M204.9,311.1c-1-7-1.9-48.2,2-64.5c2.9-12.1,8.1-21,6-50.2c-1.8-24.3,11.9-35.9,30.4-38.5
					c34.9-6.2,26.2,14.2,11.2,51.4c1.2,13.9-9,43.7-9,43.7c3.7,13.9-13.3,64.9-13.3,64.9s-11.9-2.6-11.6-0.5
					C211.2,321.3,215,312.5,204.9,311.1z"/>
				<path class="st16" d="M214.8,221.6c0.4,2.6,0.9,5.1,1.5,7.7c0.6,2.5,1.3,5,2.2,7.5c0.9,2.4,1.9,4.9,3.4,7.1
					c-0.8-2.5-1.5-5-2.1-7.4c-0.6-2.5-1.3-5-1.8-7.5c-1.2-5-2.3-10-3.8-15.1C214.2,216.4,214.4,219,214.8,221.6z"/>
				<path class="st16" d="M208.5,295.1c0.4,0.8,1,1.5,1.6,2.1c0.6,0.6,1.3,1.2,2.1,1.7c0.8,0.5,1.7,0.8,2.6,0.8
					c-0.7-0.6-1.3-1.2-1.8-1.8l-1.7-1.8c-1.2-1.2-2.3-2.4-3.8-3.5C207.7,293.5,208.1,294.3,208.5,295.1z"/>
			</g>
			<path class="st17" d="M377.2,157.7c0,0-11.6,54.5,3.6,96.6c0,0-3.9,38.3-1.8,59.8c2.1,21.5,1.9,45.9,1.9,45.9s-66.4,27.3-128.8,0
				c0,0,3.8-23.5,3.2-18.5c-0.6,4.9-3.3-58-2.6-72.2c0.3-6.4-0.8-15-0.8-15s20.3-53.7,4.3-96.6l9.5-3.4c0,0,17.5,65.6,49.2,65.6
				c31.7,0,48.4-36,53.9-65.6L377.2,157.7z"/>
			<path class="st11" d="M254,373.5c0,0,44.3,30.9,126,0v-13.3c0,0-52.6,25-126,0V373.5z"/>
			<path class="st15" d="M370.5,461.5c-1.7,5.6-3.2,24.4-7.4,31.3c-9.3,15.1-8,61.6-10.5,95c-2.5,33.4-11.6,90.6-11.6,90.6l30.7,4.9
				c0,0,16.2-74.3,32-119.2c17.7-50.6,14-61.2,19.3-85.2C421.7,469.5,375.1,456.1,370.5,461.5z"/>
			<path class="st15" d="M423,480.5l-9.8-36.7c0,0-58.9-20.2-52.7,36.3c6.1,56.6,3.8,19.1,3.8,26.1v11.7c0,2.3,16.5,2.3,16.5,2.3
				s9.4-14.1,11.8-18.7C394.8,496.8,423,480.5,423,480.5z"/>
			<path class="st18" d="M382.2,706.3c0,0,1.6,10.5,0.2,15.8c-1.3,5.2-4.8,15.1-26.1,14.2l-0.3-4.6
				C356,731.6,382.3,707.1,382.2,706.3z"/>
			<path class="st18" d="M331.7,706.3c0,0-1.6,10.5-0.2,15.8c1.3,5.2,4.8,15.1,26.1,14.2l0.3-4.6C358,731.6,331.6,707.1,331.7,706.3
				z"/>
			<path class="st19" d="M373,677.4c0,0-15.1-4.6-31-0.1c0,0,2.3,9.5,4.8,11.5c2.4,2,17.7,3.7,18.2,3.5
				C365.4,692.1,373,677.4,373,677.4z"/>
			<path class="st20" d="M338,681.9c-0.2-18,7.4-3.9,8-2.3c1,2.7,21,2.7,22,0c0.6-1.6,7.1-17.3,8.4,2.9c0,0,6.8,27.2,5.4,35.7
				c-3.2,12.6-5.4,14-24.8,14c-19.4,0-23.1-2.3-24.8-14C330.7,709.8,338,681.9,338,681.9z"/>
			<path class="st18" d="M349,732.5c0,1.8,2.7,1.8,6,1.8c3.3,0,6-0.1,6-1.8c0-1.8-2.7-3.2-6-3.2C351.6,729.3,349,730.7,349,732.5z"
				/>
			<path class="st21" d="M332.2,718.5c-0.4-2.5-0.1-6.7,0.6-11.4c1.1-0.6,2.3-1.1,3.3-1.5c6.1-2.5,17.1-9.6,13,2.2
				c0,0-15,7.9-10.2,22.4C334.6,728.4,333.1,724.8,332.2,718.5z"/>
			<path class="st21" d="M381,705.3c-4.4-9.6-14-11.6-14-11.6l0.2-4.1c5.2,0.7,9.4,4.5,12.3,8.2c-3.8-9.3-12.2-10.7-12.2-10.7
				l0.2-4.8c4.7,1.7,8.2,4.7,10.5,7.2C379,693.9,380.2,699.8,381,705.3z"/>
			<path class="st21" d="M346.6,687.9c0,0-8.4,1.3-12.3,10.3c2.9-3.5,7.1-7.2,12.4-7.9l0.3,4c0,0-9.5,1.9-14,11
				c0.9-5.3,2.1-11,3.1-15.3c2.3-2.4,5.8-5.1,10.3-6.7L346.6,687.9z"/>
			<path class="st21" d="M364.6,707.6c-6.4-13.5,6.9-4.8,13.1-2.3c1.1,0.4,2.3,1,3.5,1.6c0.7,4.7,1,8.9,0.5,11.5
				c-1.7,6.5-3.1,10-6.8,11.9C382,714.9,364.6,707.6,364.6,707.6z"/>
			<path class="st22" d="M366.6,678.1c0,0-2.6,32.2-6.4,35.9c-3.8,3.6-7.1-0.4-9.5-12.3c-2.5-11.9-4.6-24.1-4.6-24.1
				s-1.3-4.2,5.4-5.8C358.9,670.1,369.1,672.6,366.6,678.1z"/>
			<path class="st23" d="M360.9,681.8c0,0,0.9-2,6.1-1.4c0,0-0.2,19.9-2.6,27.4c-2.4,7.5-3.7,11.1-10,10.4
				c-6.3-0.7-7.8-10.9-9.5-19.2c-1.7-8.3-1.9-18.3-1.9-18.3s4.2-1.3,6.7,1c0,0,1.1,33.6,5.6,34.4
				C359.9,716.9,361.9,689.4,360.9,681.8z"/>
			<path class="st24" d="M351,686.1c-1,0.3-2.2,0.1-2.7-0.3c-0.5-0.4-0.2-1,0.7-1.2c1-0.3,2.2-0.1,2.7,0.3
				C352.2,685.2,351.9,685.8,351,686.1z"/>
			<path class="st25" d="M350.2,685.9c-0.7,0.2-1.6,0.1-2-0.3c-0.4-0.3-0.2-0.8,0.5-1c0.7-0.2,1.6-0.1,2.1,0.3
				C351.2,685.2,350.9,685.7,350.2,685.9z"/>
			<path class="st24" d="M351.2,693c-0.9,0.3-2.1,0.2-2.8-0.2c-0.7-0.4-0.5-1,0.4-1.3c0.9-0.3,2.1-0.2,2.8,0.2
				C352.2,692.1,352,692.7,351.2,693z"/>
			<path class="st25" d="M351.4,692.8c-0.7,0.2-1.6,0.2-2.1-0.2c-0.5-0.3-0.3-0.8,0.3-1c0.7-0.2,1.6-0.2,2.1,0.2
				C352.2,692.2,352,692.6,351.4,692.8z"/>
			<path class="st24" d="M353.3,699.9c-0.8,0.3-2.1,0.3-2.8,0c-0.8-0.4-0.7-0.9,0.1-1.3c0.8-0.3,2.1-0.3,2.8,0
				C354.2,699,354.1,699.6,353.3,699.9z"/>
			<path class="st25" d="M352.5,699.8c-0.6,0.3-1.6,0.3-2.1,0c-0.6-0.3-0.5-0.7,0.1-1c0.6-0.3,1.6-0.3,2.1,0
				C353.1,699.1,353.1,699.5,352.5,699.8z"/>
			<path class="st24" d="M353.6,707.8c-0.7,0.4-1.9,0.5-2.8,0.2c-0.9-0.3-1.1-0.9-0.4-1.3c0.7-0.4,1.9-0.5,2.8-0.2
				C354,706.8,354.2,707.4,353.6,707.8z"/>
			<path class="st25" d="M353.7,707.7c-0.5,0.3-1.4,0.4-2.1,0.1c-0.7-0.2-0.8-0.7-0.3-1c0.5-0.3,1.4-0.4,2.1-0.1
				C354,706.9,354.2,707.4,353.7,707.7z"/>
			<path class="st24" d="M351,689.1c-1,0.2-2.2,0.1-2.7-0.3c-0.6-0.4-0.2-1,0.7-1.2c1-0.3,2.2-0.1,2.7,0.3
				C352.3,688.2,351.9,688.8,351,689.1z"/>
			<path class="st25" d="M350.2,688.9c-0.7,0.2-1.6,0.1-2-0.3c-0.4-0.3-0.2-0.8,0.5-1c0.7-0.2,1.6-0.1,2.1,0.3
				C351.2,688.2,350.9,688.7,350.2,688.9z"/>
			<path class="st24" d="M352.2,697c-0.9,0.3-2.1,0.2-2.8-0.2c-0.7-0.4-0.5-1,0.4-1.3c0.9-0.3,2.1-0.2,2.8,0.2
				C353.2,696.1,353,696.7,352.2,697z"/>
			<path class="st25" d="M351.4,696.8c-0.7,0.2-1.6,0.2-2.1-0.1c-0.5-0.3-0.4-0.8,0.3-1c0.7-0.2,1.6-0.2,2.1,0.2
				C352.2,696.2,352,696.6,351.4,696.8z"/>
			<path class="st24" d="M353.3,703.9c-0.8,0.3-2.1,0.3-2.8,0c-0.8-0.4-0.7-0.9,0.1-1.3c0.8-0.3,2.1-0.3,2.8,0
				C354.2,703,354.1,703.6,353.3,703.9z"/>
			<path class="st25" d="M352.5,703.8c-0.6,0.3-1.5,0.3-2.1,0c-0.6-0.3-0.5-0.8,0.1-1c0.6-0.3,1.5-0.3,2.1,0
				C353.1,703.1,353.1,703.5,352.5,703.8z"/>
			<path class="st24" d="M354.6,710.8c-0.7,0.4-1.9,0.5-2.8,0.2c-0.9-0.3-1.1-0.9-0.4-1.3c0.7-0.4,1.9-0.5,2.8-0.2
				C355,709.8,355.2,710.4,354.6,710.8z"/>
			<path class="st25" d="M354.7,710.7c-0.5,0.3-1.4,0.4-2.1,0.1c-0.7-0.2-0.8-0.7-0.3-1c0.5-0.3,1.4-0.4,2.1-0.1
				C355,709.9,355.2,710.4,354.7,710.7z"/>
			<path class="st24" d="M363,686.1c1,0.3,2.2,0.1,2.7-0.3c0.6-0.4,0.2-1-0.7-1.2c-1-0.3-2.2-0.1-2.7,0.3
				C361.7,685.2,362,685.8,363,686.1z"/>
			<path class="st25" d="M362.7,685.9c0.7,0.2,1.6,0.1,2.1-0.3c0.4-0.3,0.2-0.8-0.5-1c-0.7-0.2-1.6-0.1-2,0.3
				C361.8,685.2,362,685.7,362.7,685.9z"/>
			<path class="st26" d="M350.1,687.8c0.4-0.4,0.4-0.6,2.9-0.1c5.1,1.1,7.8-1.8,9.6-3.4c0,0,3.1-0.2,2.1,1.2c0,0-4.2,4-7.9,3.7
				c0,0,0,0-0.1,0c-0.7,0.1-1.6,0.1-2.8-0.1C349.8,688.7,349.7,688.1,350.1,687.8z"/>
			<path class="st24" d="M361.8,693c0.9,0.3,2.1,0.2,2.8-0.2c0.7-0.4,0.5-1-0.4-1.3c-0.9-0.3-2.1-0.2-2.8,0.2
				C360.7,692.1,360.9,692.7,361.8,693z"/>
			<path class="st25" d="M361.6,692.8c0.7,0.2,1.6,0.2,2.1-0.2c0.5-0.3,0.4-0.8-0.3-1c-0.7-0.2-1.6-0.2-2.1,0.2
				C360.8,692.2,360.9,692.6,361.6,692.8z"/>
			<path class="st26" d="M351.1,696c0.3-0.4,0.2-0.8,2.8-0.3c0.5,0.1,1,0.2,1.4,0.2c3.7-0.6,3.6-1.5,6.5-3.7c0,0,3.1,0,1.8,1.4
				c0,0-1.7,1.3-3.8,2.3c-0.3,0.7-1.4,1.4-4.8,1.2C350.9,697,350.8,696.4,351.1,696z"/>
			<path class="st24" d="M360.6,699.9c0.8,0.3,2.1,0.3,2.8,0c0.8-0.4,0.7-0.9-0.1-1.3c-0.8-0.3-2.1-0.3-2.8,0
				C359.8,699,359.8,699.6,360.6,699.9z"/>
			<path class="st25" d="M360.4,699.8c0.6,0.3,1.6,0.3,2.1,0c0.6-0.3,0.5-0.7-0.1-1c-0.6-0.3-1.5-0.3-2.1,0
				C359.8,699.1,359.8,699.5,360.4,699.8z"/>
			<path class="st26" d="M352,703.5c0.2-0.3,0.2-0.5,0.7-0.6c0.1-0.1,0.3-0.1,0.6-0.1c4.3-0.4,4.1-1.3,7.7-3.5c0,0,3.2,0.2,1.6,1.7
				c0,0-0.7,0.5-1.8,1.1C354.3,705.6,351.8,703.9,352,703.5z"/>
			<path class="st24" d="M359.4,707.8c0.7,0.4,1.9,0.5,2.8,0.2c0.9-0.3,1.1-0.9,0.4-1.3c-0.7-0.4-1.9-0.5-2.8-0.2
				C358.9,706.8,358.7,707.4,359.4,707.8z"/>
			<path class="st25" d="M360.3,707.7c0.5,0.3,1.4,0.4,2.1,0.1c0.7-0.2,0.8-0.7,0.3-1c-0.5-0.3-1.4-0.4-2.1-0.1
				C359.9,706.9,359.8,707.4,360.3,707.7z"/>
			<path class="st26" d="M352.3,711c0.3,0.1,0.7,0.2,1,0.2c3.6-0.1,7.9-3.1,7.9-3.1c2.1-1.3-1.1-1.9-1.1-1.9c-4.2,2-3.7,2.9-7.3,3.6
				C351.3,710.1,352.3,711,352.3,711z"/>
			<path class="st24" d="M362,689.1c1,0.2,2.2,0.1,2.7-0.3c0.6-0.4,0.2-1-0.7-1.2c-1-0.3-2.2-0.1-2.7,0.3
				C360.7,688.2,361,688.8,362,689.1z"/>
			<path class="st25" d="M362.7,688.9c0.7,0.2,1.6,0.1,2-0.3c0.4-0.3,0.2-0.8-0.5-1c-0.7-0.2-1.6-0.1-2,0.3
				C361.8,688.2,362,688.7,362.7,688.9z"/>
			<path class="st24" d="M351.3,684.3c1.9,2,2.2,3,3.7,3.8c1.4,0.8,2.9,1.2,5.9,0.2c2.5-0.8,2.5-0.4,2.9,0.1c0.4,0.4,0.3,1-3.8,1.7
				c-7,1.2-10.8-4.3-10.8-4.3C348.2,684,351.3,684.3,351.3,684.3z"/>
			<path class="st24" d="M360.8,697c0.9,0.3,2.1,0.2,2.8-0.2c0.7-0.4,0.5-1-0.4-1.3c-0.9-0.3-2.1-0.2-2.8,0.2
				C359.7,696.1,359.9,696.7,360.8,697z"/>
			<path class="st25" d="M361.6,696.8c0.7,0.2,1.6,0.2,2.1-0.1c0.5-0.3,0.4-0.8-0.3-1c-0.7-0.2-1.6-0.2-2.1,0.2
				C360.8,696.2,360.9,696.6,361.6,696.8z"/>
			<path class="st24" d="M350.3,693.7c-1.2-1.4,1.8-1.4,1.8-1.4c2.9,2.2,2.1,3,6.3,3.6c0.7,0.1,1.2,0,1.7-0.1
				c2.6-0.5,2.5-0.2,2.8,0.3c0.3,0.4,0.2,1-4,1.2C353.3,697.5,350.3,693.7,350.3,693.7z"/>
			<path class="st24" d="M352,695.2c0,0,0,0.1,0,0.2C351.9,695.3,351.9,695.2,352,695.2z"/>
			<path class="st24" d="M359.6,703.9c0.8,0.3,2.1,0.3,2.8,0c0.8-0.4,0.7-0.9-0.1-1.3c-0.8-0.3-2.1-0.3-2.8,0
				C358.8,703,358.8,703.6,359.6,703.9z"/>
			<path class="st25" d="M360.4,703.8c0.6,0.3,1.5,0.3,2.1,0c0.6-0.3,0.5-0.8-0.1-1c-0.6-0.3-1.6-0.3-2.1,0
				C359.8,703.1,359.8,703.5,360.4,703.8z"/>
			<path class="st24" d="M353,699.3c3.6,1.9,3.4,2.6,7.7,3c0.3,0,0.4,0.1,0.6,0.1c0.5,0.1,0.5,0.3,0.7,0.5c0.2,0.4-1.7,1-8.7-1.3
				c-1.1-0.5-1.8-0.9-1.8-0.9C349.8,699.5,353,699.3,353,699.3z"/>
			<path class="st24" d="M358.4,710.8c0.7,0.4,1.9,0.5,2.8,0.2c0.9-0.3,1.1-0.9,0.4-1.3c-0.7-0.4-1.9-0.5-2.8-0.2
				C357.9,709.8,357.7,710.4,358.4,710.8z"/>
			<path class="st25" d="M358.3,710.7c0.5,0.3,1.4,0.4,2.1,0.1c0.7-0.2,0.8-0.7,0.3-1c-0.5-0.3-1.4-0.4-2.1-0.1
				C357.9,709.9,357.8,710.4,358.3,710.7z"/>
			<path class="st24" d="M351.7,708.2c0,0,0.1,0.1,0.3,0.1c7.7,4.1,8.1,2.9,8,2.4c0-0.1,0-0.3-0.1-0.4c0.4,0-3.7-1.2-7.1-4.1
				C352.7,706.3,349.6,706.8,351.7,708.2z"/>
			<path class="st26" d="M355.9,684.3c0,0-19.1-0.8-16.7-10.7c2.4-9.9,14.5,5.4,16.8,9.7l-1.1,0.2c0,0-7.1-10.2-11.2-10.5
				c-4.1-0.3-3.1,3-1.8,4.2c1.2,1,4.8,4.4,11.1,6.4c0.4,0.1,1.8-0.4,2.3-0.3C355.8,683.4,355.3,684.1,355.9,684.3z"/>
			<path class="st26" d="M354.9,682.2c0,0,5.5-11.6,12.8-10.9c7.3,0.8,7.6,6.4-2.8,10.2l-10.4,3.8l-0.1-1.7c0,0,7.6-2.3,11.1-4.4
				c3.5-2.1,6.9-4.6,3.8-5.3c-3.2-0.7-5.6-0.7-9.7,4c-2,2.3-3.2,4.8-4.1,5.7c-0.9,1-1.5,0.4-1.5,0.4L354.9,682.2z"/>
			<path class="st27" d="M355.5,685.3c0,0,0.6,1.9,3.8,5.5c3.2,3.6,2.9,9.9,2.6,10.1c-0.3,0.3,0.5,1.3,0.5,1.3s1.2,0.1,1.9-1.9
				c0.7-2,1.9-5.9-3.5-10.5c-5.4-4.5-6-6.6-6-6.6S352.5,682.9,355.5,685.3z"/>
			<path class="st27" d="M355,682.3c0,0-1.9,6.8-2.3,10.7c-0.4,3.9-3.4,9.2-3.1,11.3c0.3,2.1-1.4,2-1.4,2s-1.1-1,1.8-8.2
				c2.9-7.2,2.1-9.9,2.9-12.2C353.7,683.4,353.6,682.5,355,682.3z"/>
			<path class="st15" d="M263.4,463.5c1.7,5.6,3.2,24.4,7.4,31.3c9.3,15.1,8,61.6,10.5,95c2.5,33.4,11.6,90.6,11.6,90.6l-30.7,4.9
				c0,0-16.2-74.3-32-119.2c-17.7-50.6-14-61.2-19.3-85.2C212.2,471.5,258.8,458.1,263.4,463.5z"/>
			<path class="st15" d="M211,482.5l9.8-36.7c0,0,58.9-20.2,52.7,36.3c-6.1,56.6-3.8,19.1-3.8,26.1v11.7c0,2.3-16.5,2.3-16.5,2.3
				s-9.4-14.1-11.8-18.7C239.2,498.8,211,482.5,211,482.5z"/>
			<path class="st18" d="M251.7,709.3c0,0-1.6,10.5-0.2,15.8c1.3,5.2,4.8,15.1,26.1,14.2l0.3-4.6C278,734.6,251.6,710.1,251.7,709.3
				z"/>
			<path class="st18" d="M302.2,709.3c0,0,1.6,10.5,0.2,15.8c-1.3,5.2-4.8,15.1-26.1,14.2l-0.3-4.6
				C276,734.6,302.3,710.1,302.2,709.3z"/>
			<path class="st19" d="M261,679.4c0,0,15.1-4.6,31-0.1c0,0-2.3,9.5-4.8,11.5c-2.4,2-17.7,3.7-18.2,3.5
				C268.6,694.1,261,679.4,261,679.4z"/>
			<path class="st20" d="M295.9,684.9c0.2-18-7.4-3.9-8-2.3c-1,2.7-21,2.7-22,0c-0.6-1.6-7.1-17.3-8.4,2.9c0,0-6.8,27.2-5.4,35.7
				c3.2,12.6,5.4,14,24.8,14c19.4,0,23.1-2.3,24.8-14C303.2,712.8,295.9,684.9,295.9,684.9z"/>
			<path class="st18" d="M285,734.5c0,1.8-2.7,1.8-6,1.8c-3.3,0-6-0.1-6-1.8c0-1.8,2.7-3.2,6-3.2C282.3,731.3,285,732.7,285,734.5z"
				/>
			<path class="st21" d="M301.8,720.5c0.4-2.5,0.1-6.7-0.6-11.4c-1.1-0.6-2.3-1.1-3.3-1.5c-6.1-2.5-17.1-9.6-13,2.2
				c0,0,15,7.9,10.2,22.4C299.4,730.4,300.9,726.8,301.8,720.5z"/>
			<path class="st21" d="M253,708.3c4.4-9.6,14-11.6,14-11.6l-0.2-4.1c-5.2,0.7-9.4,4.5-12.3,8.2c3.8-9.3,12.2-10.7,12.2-10.7
				l-0.2-4.8c-4.7,1.7-8.2,4.7-10.5,7.2C254.9,696.9,253.8,702.8,253,708.3z"/>
			<path class="st21" d="M287.3,689.9c0,0,8.4,1.3,12.3,10.3c-2.9-3.5-7.1-7.2-12.4-7.9l-0.3,4c0,0,9.5,1.9,14,11
				c-0.9-5.3-2.1-11-3.1-15.3c-2.3-2.4-5.8-5.1-10.3-6.7L287.3,689.9z"/>
			<path class="st21" d="M269.3,709.6c6.4-13.5-6.9-4.8-13.1-2.3c-1.1,0.4-2.3,1-3.5,1.6c-0.7,4.7-1,8.9-0.5,11.5
				c1.7,6.5,3.1,10,6.8,11.9C252,716.9,269.3,709.6,269.3,709.6z"/>
			<path class="st22" d="M267.3,680.1c0,0,2.6,32.2,6.4,35.9c3.8,3.6,7.1-0.4,9.5-12.3c2.5-11.9,4.6-24.1,4.6-24.1s1.3-4.2-5.4-5.8
				C275,672.1,264.9,674.6,267.3,680.1z"/>
			<path class="st23" d="M272.1,683.8c0,0-0.9-2-6.1-1.4c0,0,0.2,19.9,2.6,27.4c2.4,7.5,3.7,11.1,10,10.4c6.3-0.7,7.8-10.9,9.5-19.2
				c1.7-8.3,1.9-18.3,1.9-18.3s-4.2-1.3-6.7,1c0,0-1.1,33.6-5.6,34.4C273,718.9,271,691.4,272.1,683.8z"/>
			<path class="st24" d="M283,688.1c1,0.3,2.2,0.1,2.7-0.3c0.5-0.4,0.2-1-0.7-1.2c-1-0.3-2.2-0.1-2.7,0.3
				C281.7,687.2,282,687.8,283,688.1z"/>
			<path class="st25" d="M283.7,687.9c0.7,0.2,1.6,0.1,2-0.3c0.4-0.3,0.2-0.8-0.5-1c-0.7-0.2-1.6-0.1-2.1,0.3
				C282.8,687.2,283,687.7,283.7,687.9z"/>
			<path class="st24" d="M282.8,695c0.9,0.3,2.1,0.2,2.8-0.2c0.7-0.4,0.5-1-0.4-1.3c-0.9-0.3-2.1-0.2-2.8,0.2
				C281.7,694.1,281.9,694.7,282.8,695z"/>
			<path class="st25" d="M282.6,694.8c0.7,0.2,1.6,0.2,2.1-0.2c0.5-0.3,0.3-0.8-0.3-1c-0.7-0.2-1.6-0.2-2.1,0.2
				C281.8,694.2,281.9,694.6,282.6,694.8z"/>
			<path class="st24" d="M280.6,702.9c0.8,0.3,2.1,0.3,2.8,0c0.8-0.4,0.7-0.9-0.1-1.3c-0.8-0.3-2.1-0.3-2.8,0
				C279.8,702,279.8,702.6,280.6,702.9z"/>
			<path class="st25" d="M281.4,702.8c0.6,0.3,1.6,0.3,2.1,0c0.6-0.3,0.5-0.7-0.1-1c-0.6-0.3-1.6-0.3-2.1,0
				C280.8,702.1,280.8,702.5,281.4,702.8z"/>
			<path class="st24" d="M280.4,709.8c0.7,0.4,1.9,0.5,2.8,0.2c0.9-0.3,1.1-0.9,0.4-1.3c-0.7-0.4-1.9-0.5-2.8-0.2
				C279.9,708.8,279.7,709.4,280.4,709.8z"/>
			<path class="st25" d="M280.3,709.7c0.5,0.3,1.4,0.4,2.1,0.1c0.7-0.2,0.8-0.7,0.3-1c-0.5-0.3-1.4-0.4-2.1-0.1
				C279.9,708.9,279.8,709.4,280.3,709.7z"/>
			<path class="st24" d="M283,691.1c1,0.2,2.2,0.1,2.7-0.3c0.6-0.4,0.2-1-0.7-1.2c-1-0.3-2.2-0.1-2.7,0.3
				C281.7,690.2,282,690.8,283,691.1z"/>
			<path class="st25" d="M283.7,690.9c0.7,0.2,1.6,0.1,2-0.3c0.4-0.3,0.2-0.8-0.5-1c-0.7-0.2-1.6-0.1-2.1,0.3
				C282.8,690.2,283,690.7,283.7,690.9z"/>
			<path class="st24" d="M281.8,699c0.9,0.3,2.1,0.2,2.8-0.2c0.7-0.4,0.5-1-0.4-1.3c-0.9-0.3-2.1-0.2-2.8,0.2
				C280.7,698.1,280.9,698.7,281.8,699z"/>
			<path class="st25" d="M282.6,698.8c0.7,0.2,1.6,0.2,2.1-0.1c0.5-0.3,0.4-0.8-0.3-1c-0.7-0.2-1.6-0.2-2.1,0.2
				C281.8,698.2,281.9,698.6,282.6,698.8z"/>
			<path class="st24" d="M280.6,705.9c0.8,0.3,2.1,0.3,2.8,0c0.8-0.4,0.7-0.9-0.1-1.3c-0.8-0.3-2.1-0.3-2.8,0
				C279.8,705,279.8,705.6,280.6,705.9z"/>
			<path class="st25" d="M281.4,705.8c0.6,0.3,1.5,0.3,2.1,0c0.6-0.3,0.5-0.8-0.1-1c-0.6-0.3-1.5-0.3-2.1,0
				C280.8,705.1,280.8,705.5,281.4,705.8z"/>
			<path class="st24" d="M279.4,712.8c0.7,0.4,1.9,0.5,2.8,0.2c0.9-0.3,1.1-0.9,0.4-1.3c-0.7-0.4-1.9-0.5-2.8-0.2
				C278.9,711.8,278.7,712.4,279.4,712.8z"/>
			<path class="st25" d="M279.3,712.7c0.5,0.3,1.4,0.4,2.1,0.1c0.7-0.2,0.8-0.7,0.3-1c-0.5-0.3-1.4-0.4-2.1-0.1
				C278.9,711.9,278.8,712.4,279.3,712.7z"/>
			<path class="st24" d="M271,688.1c-1,0.3-2.2,0.1-2.7-0.3c-0.6-0.4-0.2-1,0.7-1.2c1-0.3,2.2-0.1,2.7,0.3
				C272.3,687.2,271.9,687.8,271,688.1z"/>
			<path class="st25" d="M271.2,687.9c-0.7,0.2-1.6,0.1-2.1-0.3c-0.4-0.3-0.2-0.8,0.5-1c0.7-0.2,1.6-0.1,2,0.3
				C272.2,687.2,271.9,687.7,271.2,687.9z"/>
			<path class="st26" d="M283.8,690.8c-0.4-0.4-0.4-0.6-2.9-0.1c-5.1,1.1-7.8-1.8-9.6-3.4c0,0-3.1-0.2-2.1,1.2c0,0,4.2,4,7.9,3.7
				c0,0,0,0,0.1,0c0.7,0.1,1.6,0.1,2.8-0.1C284.2,691.7,284.2,691.1,283.8,690.8z"/>
			<path class="st24" d="M272.2,695c-0.9,0.3-2.1,0.2-2.8-0.2c-0.7-0.4-0.5-1,0.4-1.3c0.9-0.3,2.1-0.2,2.8,0.2
				C273.2,694.1,273,694.7,272.2,695z"/>
			<path class="st25" d="M272.4,694.8c-0.7,0.2-1.6,0.2-2.1-0.2c-0.5-0.3-0.4-0.8,0.3-1c0.7-0.2,1.6-0.2,2.1,0.2
				C273.2,694.2,273,694.6,272.4,694.8z"/>
			<path class="st26" d="M282.9,698c-0.3-0.4-0.2-0.8-2.8-0.3c-0.5,0.1-1,0.2-1.4,0.2c-3.7-0.6-3.6-1.5-6.5-3.7c0,0-3.1,0-1.8,1.4
				c0,0,1.7,1.3,3.8,2.3c0.3,0.7,1.4,1.4,4.8,1.2C283,699,283.2,698.4,282.9,698z"/>
			<path class="st24" d="M273.3,702.9c-0.8,0.3-2.1,0.3-2.8,0c-0.8-0.4-0.7-0.9,0.1-1.3c0.8-0.3,2.1-0.3,2.8,0
				C274.2,702,274.1,702.6,273.3,702.9z"/>
			<path class="st25" d="M273.5,702.8c-0.6,0.3-1.6,0.3-2.1,0c-0.6-0.3-0.5-0.7,0.1-1c0.6-0.3,1.5-0.3,2.1,0
				C274.1,702.1,274.1,702.5,273.5,702.8z"/>
			<path class="st26" d="M282,705.5c-0.2-0.3-0.2-0.5-0.7-0.6c-0.1-0.1-0.3-0.1-0.6-0.1c-4.3-0.4-4.1-1.3-7.7-3.5
				c0,0-3.2,0.2-1.6,1.7c0,0,0.7,0.5,1.8,1.1C279.7,707.6,282.2,705.9,282,705.5z"/>
			<path class="st24" d="M274.6,709.8c-0.7,0.4-1.9,0.5-2.8,0.2c-0.9-0.3-1.1-0.9-0.4-1.3c0.7-0.4,1.9-0.5,2.8-0.2
				C275,708.8,275.2,709.4,274.6,709.8z"/>
			<path class="st25" d="M273.7,709.7c-0.5,0.3-1.4,0.4-2.1,0.1c-0.7-0.2-0.8-0.7-0.3-1c0.5-0.3,1.4-0.4,2.1-0.1
				C274,708.9,274.2,709.4,273.7,709.7z"/>
			<path class="st26" d="M281.1,711.8c-3.7-0.7-3.1-1.6-7.3-3.6c0,0-3.2,0.5-1.1,1.9c0,0,4.4,3,7.9,3.1c0.4,0,0.7-0.1,1-0.2
				C281.6,713,282.7,712.1,281.1,711.8z"/>
			<path class="st24" d="M271,691.1c-1,0.2-2.2,0.1-2.7-0.3c-0.6-0.4-0.2-1,0.7-1.2c1-0.3,2.2-0.1,2.7,0.3
				C272.2,690.2,271.9,690.8,271,691.1z"/>
			<path class="st25" d="M271.2,690.9c-0.7,0.2-1.6,0.1-2.1-0.3c-0.4-0.3-0.2-0.8,0.5-1c0.7-0.2,1.6-0.1,2.1,0.3
				C272.2,690.2,271.9,690.7,271.2,690.9z"/>
			<path class="st24" d="M282.6,686.3c-1.9,2-2.2,3-3.7,3.8c-1.4,0.8-2.9,1.2-5.9,0.2c-2.5-0.8-2.5-0.4-2.9,0.1
				c-0.4,0.4-0.3,1,3.8,1.7c7,1.2,10.8-4.3,10.8-4.3C285.7,686,282.6,686.3,282.6,686.3z"/>
			<path class="st24" d="M272.2,699c-0.9,0.3-2.1,0.2-2.8-0.2c-0.7-0.4-0.5-1,0.4-1.3c0.9-0.3,2.1-0.2,2.8,0.2
				C273.2,698.1,273,698.7,272.2,699z"/>
			<path class="st25" d="M272.4,698.8c-0.7,0.2-1.6,0.2-2.1-0.1c-0.5-0.3-0.4-0.8,0.3-1c0.7-0.2,1.6-0.2,2.1,0.2
				C273.2,698.2,273,698.6,272.4,698.8z"/>
			<path class="st24" d="M283.7,695.7c1.2-1.4-1.8-1.4-1.8-1.4c-2.9,2.2-2.1,3-6.3,3.6c-0.7,0.1-1.2,0-1.7-0.1
				c-2.6-0.5-2.5-0.2-2.8,0.3c-0.3,0.4-0.2,1,4,1.2C280.6,699.5,283.7,695.7,283.7,695.7z"/>
			<path class="st24" d="M281.9,697.2c0,0,0,0.1,0,0.2C282,697.3,282,697.2,281.9,697.2z"/>
			<path class="st24" d="M274.3,705.9c-0.8,0.3-2.1,0.3-2.8,0c-0.8-0.4-0.7-0.9,0.1-1.3c0.8-0.3,2.1-0.3,2.8,0
				C275.2,705,275.1,705.6,274.3,705.9z"/>
			<path class="st25" d="M273.5,705.8c-0.6,0.3-1.5,0.3-2.1,0c-0.6-0.3-0.5-0.8,0.1-1c0.6-0.3,1.6-0.3,2.1,0
				C274.1,705.1,274.1,705.5,273.5,705.8z"/>
			<path class="st24" d="M280.9,701.3c-3.6,1.9-3.4,2.6-7.7,3c-0.3,0-0.4,0.1-0.6,0.1c-0.5,0.1-0.5,0.3-0.7,0.5
				c-0.2,0.4,1.7,1,8.7-1.3c1.1-0.5,1.8-0.9,1.8-0.9C284.1,701.5,280.9,701.3,280.9,701.3z"/>
			<path class="st24" d="M275.6,712.8c-0.7,0.4-1.9,0.5-2.8,0.2c-0.9-0.3-1.1-0.9-0.4-1.3c0.7-0.4,1.9-0.5,2.8-0.2
				C276,711.8,276.2,712.4,275.6,712.8z"/>
			<path class="st25" d="M275.7,712.7c-0.5,0.3-1.4,0.4-2.1,0.1c-0.7-0.2-0.8-0.7-0.3-1c0.5-0.3,1.4-0.4,2.1-0.1
				C276,711.9,276.2,712.4,275.7,712.7z"/>
			<path class="st24" d="M281.2,708.3c-3.5,2.8-7.5,4-7.1,4.1c0,0.1,0,0.3-0.1,0.4c-0.1,0.5,0.4,1.7,8-2.4c0.2-0.1,0.3-0.1,0.3-0.1
				C284.3,708.8,281.2,708.3,281.2,708.3z"/>
			<path class="st26" d="M278,686.3c0,0,19.1-0.8,16.7-10.7c-2.4-9.9-14.5,5.4-16.8,9.7l1.1,0.2c0,0,7.1-10.2,11.2-10.5
				c4.1-0.3,3.1,3,1.8,4.2c-1.2,1-4.8,4.4-11.1,6.4c-0.4,0.1-1.8-0.4-2.3-0.3C278.2,685.4,278.6,686.1,278,686.3z"/>
			<path class="st26" d="M279.1,684.2c0,0-5.5-11.6-12.8-10.9c-7.3,0.8-7.6,6.4,2.8,10.2l10.4,3.8l0.1-1.7c0,0-7.6-2.3-11.1-4.4
				c-3.5-2.1-6.9-4.6-3.8-5.3c3.2-0.7,5.6-0.7,9.7,4c2,2.3,3.2,4.8,4.1,5.7c0.9,1,1.5,0.4,1.5,0.4L279.1,684.2z"/>
			<path class="st27" d="M278.4,687.3c0,0-0.6,1.9-3.8,5.5c-3.2,3.6-2.9,9.9-2.6,10.1c0.3,0.3-0.5,1.3-0.5,1.3s-1.2,0.1-1.9-1.9
				c-0.7-2-1.9-5.9,3.5-10.5c5.4-4.5,6-6.6,6-6.6S281.4,684.9,278.4,687.3z"/>
			<path class="st27" d="M279,684.3c0,0,1.9,6.8,2.3,10.7c0.4,3.9,3.4,9.2,3.1,11.3c-0.3,2.1,1.4,2,1.4,2s1.1-1-1.8-8.2
				c-2.9-7.2-2.1-9.9-2.9-12.2C280.3,685.4,280.3,684.5,279,684.3z"/>
			<path class="st28" d="M306,114.3c0,0,1.4-2,2.6-4.8c0.2-0.7,0.4-1.2,0.4-1.2C307.1,112.4,306,114.3,306,114.3z"/>
		</g>
		<path class="st15" d="M293.7,129.3c0,0,6.8,16.4-2.7,24.9c-9.5,8.5,51,4.9,51,0c0-4.9-6.3-17.2-2.4-24.9
			C339.6,129.3,316.1,129.8,293.7,129.3z"/>
		<path class="st15" d="M358,87.8c0,25.7-18.1,46.5-40.5,46.5c-22.4,0-40.5-20.8-40.5-46.5c0-25.7,18.1-46.5,40.5-46.5
			C339.8,41.3,358,62.1,358,87.8z"/>
		<path class="st28" d="M351.8,105.3c0,0-6.4,14.5-17.1,20.6c-1.4,0.8-2.9-1.2-4.1,0c-9.1,9.7-11.8,0.4-11.8,0.4l-2,0.1l-2.8-0.1
			c0,0-2.2,8-10.9,0.3c-0.8-0.7-1.5,0.7-2.4,0.3C288.5,121.3,282,106,282,106c-2-11.5-11.2-23.7-6.8-5.2
			c3.8,14.9,13.1,36.5,41.2,36.5c33.6,0,39.3-30.4,41-34.3C360,96.6,353.8,93.8,351.8,105.3z"/>
		<path class="st28" d="M326.4,111.3c-6.1,0.3-9,0.4-9.8,3.4c-0.8-2.6-3.9-2.8-10.5-2.8c-9.7,0-6.6,15.6-6.6,15.6l5.4,6.8
			c0,0,5.9-3,2.2-4.4c-3.7-1.4-4.5-1.1-4.5-7c0-5.9,1.9-7,7.6-5c4.5,1.6,7.5,1.6,12,0c5.7-2.1,8.2-0.9,8.2,5c0,5.9-0.8,5.6-4.5,7
			c-3.7,1.4,1.4,2.9,1.4,2.9l6.2-5.3C333.8,127.5,335.9,110.7,326.4,111.3z"/>
		<path class="st28" d="M367.5,60.7c-0.3-3.4-1.1-6.5-2-9.3c-1.2-3.7-6.8-9.2-9.7-13.1c-0.3-0.5-0.6-1-1-1.5c0,0,0,0,0,0
			c-0.4-0.7-0.9-1.2-1.5-1.8c-2.2-2.4-5.3-4.4-10-5.8c-0.4-0.1-0.8-0.2-1.2-0.4c-0.6-0.3-1.1-0.6-1.7-0.9c-2.3-1.3-4.7-1.9-7.5-2.4
			c-8.7-3.5-15-6.6-22.7-4.6c-0.1,0-0.4,0.1-0.9,0.2c-0.6-0.1-1.2-0.1-1.7-0.1c-3.8,0-6.4,1.9-12.6,3.7c-6.2,1.8-8.5,3.9-14.3,8.8
			c-2.7,2.3-4.1,3.9-5.2,5.7c-1.6,2-2.9,4.2-4,6.7c-8.5,19.9,0.2,44.1,2.3,52.9c0.8,3.2,8.6,18.7,9.1,19.6c-1-3.2-1.7-7.8-1.6-14.1
			c0-0.7,0-1.9-0.1-3.4c-5.2-41.8,10-43.2,23.9-38.7c0,0,0.2,0.1,0.5,0.1c0.9,0.4,1.9,0.8,3.2,1.3c4.7,1.7,6.3,0.4,9.5-1.7
			c1.2-0.4,2.5-0.9,3.8-1.5c2-1,4-1.9,6.1-2.6c27-3.8,24.1,29.6,23.3,34.7c-0.8,5.1-1.3,19.4,0.2,12.8c0.1-0.4,1.5,1.1,1.8-2
			c0.1,0.3-0.1-0.2,0,0c2.4,5.3-3.5,13.7-3.5,13.7s1.1-1.8,2.9-5.8l-1.7,5.8c0,0,4.7-7.4,7.9-14.6c2.5-5.7,6.6-24.1,7.6-31.7
			C368.1,65.8,368.3,63.2,367.5,60.7z"/>
	</g>
</g>
</svg>
