<svg xmlns="http://www.w3.org/2000/svg" viewBox="0 0 300 300"><defs><style>.cls-1{fill:#e13856;opacity:0.08;isolation:isolate;}.cls-2{fill:#303030;}.cls-3{fill:#fff;}.cls-4{fill:#f88b26;}.cls-5{fill:#fda541;}.cls-6{fill:#b0621a;}.cls-7{fill:#542600;opacity:0.1;}.cls-8{fill:none;stroke:#111d36;stroke-miterlimit:10;}.cls-9{fill:#c64c51;}.cls-10{fill:#d7feff;opacity:0.5;}</style></defs><g id="OBJECTS"><circle id="Mask-Copy-2" class="cls-1" cx="150" cy="150" r="150"/><path class="cls-2" d="M54.29,250.15a7.82,7.82,0,0,0-3.17,1.16c-1.73,1.13-3.71,2.9-1.22,4.43a5,5,0,0,0,2.15.54l6.46.63a2.56,2.56,0,0,1,1.84.68,1.66,1.66,0,0,1,.26,1.09c-.24,4.68-7.3,2.42-7.13,6.5.15,3.58,7.16,3.65,9.82,4,2.18.29,4.59,1.35,3.91,2.57-3.44.24-6.53,1.72-7.54,3.63,2.84,1.54,7.87,1.47,10.56-.17s2.56-4.52-.28-6.07c3.69-.75,8-.87,11.32.35s4.81,4.07,2.41,5.84c-1.92,1.42-5.62,1.82-7.17,3.38-2.32,2.34,2.25,5.19,6.89,5.62,9,.83,18.76-.08,27.7-1.16,2.77-.33,5.8-.61,8.15.75s3.25,3.69,4.84,5.58a14.07,14.07,0,0,0,14.11,4.12c5.78-1.63,10.12-6.86,16.16-7.18,4.27-.23,8.12,2.09,12.06,3.62,2.87,1.11,7.12,2.79,10.3,2.78,4.37,0,8.5-3.06,13-3.32,7.29-.43,14,3.42,21.29,3.6s14.47,2.65,21.77,2.69a2.81,2.81,0,0,0,1.39-.25c1-.59.71-2,.06-3-2.48-3.49-7.64-4.36-12.2-4.34s-9.36.56-13.45-1.26a1.59,1.59,0,0,1-.73-.53c-.41-.67.45-1.41,1.22-1.73,2.13-.91,4.78-.35,4.36-2.73-.31-1.7-3.9-2.61-4.54-4.43-.57-1.66.84-3.45,2.6-4.11a12.58,12.58,0,0,1,5.64-.29,22.79,22.79,0,0,1,4.05.64c2.69.77,5.58,2.5,8.06,1.27,1.27-.62,2-1.92,3.25-2.51,1.08-.5,3.39-.07,4.07-1.14,1.5-2.35-1.88-3.15-3.22-4-3-2-2.76-2-2.37-5.27.26-2.17,1.18-3.55-1.16-5.18-3.54-2.47-10-2-14.15-2a203.76,203.76,0,0,1-37-3.15c-11.17-2-22-5-33.74-5.36-9-.28-18.23,1.24-27.18.55-3.62-.27-7-1.37-10.63-1.73s-6.82.93-10.4.83c-5.55-.15-10.53-3.69-16.19-4.15-2.32-.2-4.83-.08-6.71,1.16-1.56,1-2.46,2.67-3.56,4.11-2.21,2.89-5.4,3.27-9,3.12C58.87,250.23,56.5,249.82,54.29,250.15Z"/><path class="cls-2" d="M111,251a6.82,6.82,0,0,1-3.43,1.6c.39,1.12,1.89,1.27,3.08,1.22l7.42-.32a8.31,8.31,0,0,1,3.3.29c1.23.46,2.17,1.45,3.33,2.05,3.46,1.76,7.56-.41,11.44-.52s7.57,1.91,11.45,1.89,7.29-1.93,11-2c3.43-.11,7,1.29,10.24.3.82-.25,1.73-.91,1.54-1.74l-2.85-.43a4.88,4.88,0,0,0-3.2-3.55,14.33,14.33,0,0,0-4.93-.7l-10.86-.26a44.09,44.09,0,0,1-7.08-.56c-2.38-.44-4.73-1.29-7.14-1.17a33.72,33.72,0,0,0-5.67,1.22,19.88,19.88,0,0,1-10.07-.46c-2.85-.87-4.68-1.73-7.5-.21A2.47,2.47,0,0,1,111,251Z"/><path class="cls-3" d="M177.48,34.68c-1.33,5.56-5,52.59-8.06,92.06-2.23,28.62-4.15,53.26-4.67,55.2-1.23,4.6-15.64,50.62-14.11,52.15s5.75,3.07,6.9,5.76,8.82,11.12,6.9,12.27-9.2,1.91-12.27,2.3-12.27-4.22-14.57-5-5,2.3-10.8,2.3-12.59-.38-12.59-2.68-1.15-22.63,0-26.46,11.12-43.34,13-49.85c.73-2.49,2.74-23.48,4.95-48.5,3.59-40.62,7.7-91.86,7.7-91.86s5.69-2.32,19.56-2.3C171,30.1,177.48,34.68,177.48,34.68Z"/><path class="cls-4" d="M177.48,34.68c-1.33,5.56-5,52.59-8.06,92.06a140.53,140.53,0,0,1-37.22-2.5h0c3.59-40.62,7.7-91.86,7.7-91.86s5.69-2.32,19.56-2.3C171,30.1,177.48,34.68,177.48,34.68Z"/><path class="cls-5" d="M158.07,61c0-.07-.07-.15-.11-.24a5.53,5.53,0,0,1-.24-1.86,12.89,12.89,0,0,0-.55-2.52,1.84,1.84,0,0,0-.61-1.19c-.48-.33-3.61,0-3.94.57-.52.88.16,1.47.52,2.32.76,1.75,2.86,3.11,3.06,5.12a7.84,7.84,0,0,0,.19,1.81,1.23,1.23,0,0,0,1.39.9,1.68,1.68,0,0,0,.65-.51c.8-.86,2-2.62.63-3.55C158.6,61.58,158.3,61.49,158.07,61Z"/><path class="cls-5" d="M157.59,53c-.31.13-.63.4-.61.74a1,1,0,0,0,.51.68c.65.48,1.21,1.22,2,.61l.45-.34c.24-.19.5-.41.5-.71s-.25-.54-.48-.72A2.12,2.12,0,0,0,157.59,53Z"/><path class="cls-5" d="M150.59,66.88A4.71,4.71,0,0,0,149,68.44a1,1,0,0,0,.23,1.23,1.47,1.47,0,0,0,.75.19l1.4.09a2.39,2.39,0,0,0,1.1-.09A.87.87,0,0,0,153,69c-.08-.58-.81-.76-1.21-1.18a6.8,6.8,0,0,0-.57-.73c-.24-.2-.69-.21-.78.09C150.52,67,150.43,66.92,150.59,66.88Z"/><path class="cls-5" d="M159.75,66a1.28,1.28,0,0,0,.36,1.1c.26.31.58.56.81.89a3.86,3.86,0,0,1,.48,2c0,1,0,2,0,2.94,0,1.34,2.5-.59,2.94-1a1.7,1.7,0,0,0,.52-.61.66.66,0,0,0-.11-.75c-.39-.35-1.17,0-1.46-.44a.88.88,0,0,1-.09-.48c0-1.27.15-2.71-1.07-3.51C161.67,65.88,160,65.08,159.75,66Z"/><path class="cls-5" d="M151.19,82.4a1.87,1.87,0,0,0-1,.13.72.72,0,0,0-.41.82c.09.29.4.44.68.56a2.59,2.59,0,0,1,1.44,1c.17.3.23.71.53.88a.7.7,0,0,0,.79-.16,1.54,1.54,0,0,0,.39-.76,4.37,4.37,0,0,0,.12-1.44.81.81,0,0,0-.15-.48,1,1,0,0,0-.57-.29l-1.95-.51"/><path class="cls-5" d="M137.85,87a6.78,6.78,0,0,1-.65,2.42,12,12,0,0,0-.83,1,.87.87,0,0,0,.22,1.18.93.93,0,0,0,1-.37c.61-.77.57-1.91,1.21-2.65.22-.26.52-.45.73-.71a3.23,3.23,0,0,0,.44-2.17C139.91,83,138.11,85.89,137.85,87Z"/><path class="cls-5" d="M147.76,97.88a.82.82,0,0,0,.05.49,1.36,1.36,0,0,0,.45.37c.57.39.56,2.73,1.46,2.57a2.31,2.31,0,0,0,1.71-2.84c.48.2,1-.42.85-.92a1.75,1.75,0,0,0-1.09-1C149.75,95.9,148.05,96,147.76,97.88Z"/><path class="cls-5" d="M158.1,88.86a3.4,3.4,0,0,0-.12,1.46,2.06,2.06,0,0,1-.33,1.4c-.09.12-.21.22-.22.37a.55.55,0,0,0,.15.36l1,1.37c.11.14.23.3.4.31a.6.6,0,0,0,.34-.11,2.44,2.44,0,0,0,.89-1.8c.08-.69,0-1.38.07-2.07a3.24,3.24,0,0,0,0-1.42C160,87.76,158.43,88.06,158.1,88.86Z"/><path class="cls-5" d="M144.71,114.86c-.06.88.42,1.73.35,2.61a6.47,6.47,0,0,1-.38,1.35,6.15,6.15,0,0,0,.49,4.84.47.47,0,0,0,.26.26.42.42,0,0,0,.34-.08,2.88,2.88,0,0,0,.95-2.15,14.75,14.75,0,0,1,.92-3.84,8.45,8.45,0,0,0,.82-2.14C148.84,112.9,144.91,111.41,144.71,114.86Z"/><path class="cls-5" d="M134.86,115.76a3.15,3.15,0,0,1,.3,1.27,11.91,11.91,0,0,0-.25,1.3c0,.44.57.88.89.57a2.8,2.8,0,0,0,.18-2.39,7.31,7.31,0,0,1-.5-2.42,7,7,0,0,0,.13-1.44c-.24-1.52-1.21-.45-1.29.49A6.61,6.61,0,0,0,134.86,115.76Z"/><path class="cls-5" d="M136.47,105.43c-.59.31-1.17,1.42-.55,2.06a.78.78,0,0,0,1.07-.06,1.44,1.44,0,0,0,.35-1.1C137.29,105.38,136.87,105.22,136.47,105.43Z"/><path class="cls-5" d="M137.67,101a2.69,2.69,0,0,0-.79,2.44.92.92,0,0,0,.2.45c.31.35.9.19,1.27-.09a1.88,1.88,0,0,0,.81-1.61,1.21,1.21,0,0,0-1.25-1.12"/><path class="cls-5" d="M141.85,99.59a1.4,1.4,0,0,0-1,1.3,1.34,1.34,0,1,0,2.24-.85,1.69,1.69,0,0,0-1.34-.48"/><path class="cls-5" d="M138,86.23a13.84,13.84,0,0,1-.33,1.58c-.27.71-.85,1.26-1.18,1.94-.24.49-.27,1.21.22,1.46a.93.93,0,0,0,1.05-.28,4.31,4.31,0,0,0,.59-1,4.39,4.39,0,0,1,1-1.27,4.1,4.1,0,0,0,.52-.5C141.29,86.32,138.83,82.89,138,86.23Z"/><path class="cls-5" d="M169.3,84.21a1.61,1.61,0,0,0-1.38.34,1.2,1.2,0,0,0-.41,1.38,3.72,3.72,0,0,0,.42.56c.43.56.67,1.47,1.38,1.51a1.2,1.2,0,0,0,1-.6,2.32,2.32,0,0,0,.38-1.92A1.77,1.77,0,0,0,169.3,84.21Z"/><path class="cls-5" d="M166.13,75c.71.08,1.35.52,1.21,1.15s-1.12,1-.91,1.62a1.63,1.63,0,0,1-1.85-1.33C164.43,75.28,165.32,74.88,166.13,75Z"/><path class="cls-5" d="M144.28,35.07c.76-.09,1.4.69,1.45,1.45a4.11,4.11,0,0,1-.68,2.17,2.09,2.09,0,0,1-.9,1c-.42.19-1,0-1.05-.5a1.75,1.75,0,0,1,.3-.77,4,4,0,0,0,.09-1.83c0-.61.19-1.35.78-1.53C144.64,35,143.89,35.05,144.28,35.07Z"/><path class="cls-6" d="M132.62,119.54s20.66,4.15,37.17,2.47l.27-3.49s-18.72,1.3-37.11-2.8Z"/><path class="cls-3" d="M177.48,34.68s-2.94,3.33-17,2.7-20.56-5-20.56-5,5.69-2.32,19.56-2.3C171,30.1,177.48,34.68,177.48,34.68Z"/><path class="cls-7" d="M158.71,101.82c-.87,4.55-1.92,9.09-2,13.72-.07,3.41.39,6.81.54,10.22.29,6.56-.57,13.12-1.43,19.63-3,22.64-6,45.46-13.29,67.1-2.34,7-5.17,14.12-4.35,21.43,2.31-.32,3.47-2.87,4.57-4.93,1.58-3,3.83-5.51,5.54-8.4,2.46-4.13,3.78-8.81,5.06-13.44q3.76-13.47,7.51-27a6,6,0,0,0,.18-4,20,20,0,0,0-1.58-2.23,8.28,8.28,0,0,1-.75-4.91c1.11-17.42,7.16-34.38,6.89-51.83-.08-4.82-.64-9.66-.13-14.46.39-3.76,1.43-7.41,2.12-11.12a119.51,119.51,0,0,0,1.48-18c.32-10.42,1.6-21.37.86-31.74-5.63,1.36-6.57.86-6.74,7.18-.17,5.89-.31,11.79-.61,17.69A251.93,251.93,0,0,1,158.71,101.82Z"/><path class="cls-8" d="M130.29,168.37a77.21,77.21,0,0,0,31.28-3.09"/><path class="cls-8" d="M137.44,230.68l10.32,3.7c1.35.49,2.84,1,4.18.46"/><path class="cls-8" d="M123.71,247.23c4.57-2.37,10.65,1.31,15.13-1.22"/><path class="cls-8" d="M121.63,240.7a28.83,28.83,0,0,0,8.19-.36"/><path class="cls-8" d="M143.24,184.15a35.84,35.84,0,0,0,13.66,2.76"/><path class="cls-8" d="M144.63,164.61a59.78,59.78,0,0,0,14.82-2.11"/><path class="cls-8" d="M148.21,152.76l7.66.62"/><path class="cls-8" d="M140.57,133.46a21.88,21.88,0,0,0,5.58-2.67"/><path class="cls-8" d="M149.63,58.64a8.21,8.21,0,0,1-4.69-3.85c-1.49,4.4,1.93,8.88,5.42,11.95S158,73,158.5,77.63"/><path class="cls-8" d="M162.28,102.93a19.08,19.08,0,0,0,9,5.23"/><path class="cls-8" d="M148.17,40.94a35,35,0,0,0,20,1.12"/><path class="cls-9" d="M175.92,47.58c-.35,3.58-.73,7.75-1.13,12.37a80.38,80.38,0,1,1-36.73-5c.38-4.63.72-8.73,1-12.13a92.38,92.38,0,1,0,36.87,4.71Z"/><rect class="cls-9" x="59.66" y="128.98" width="172.69" height="12" transform="translate(-52.68 142.77) rotate(-45)"/><path class="cls-10" d="M113.26,251.49s-.82-8.74-9.84-16.89,33.94-9,29.64-29.13-50-33.2-50.82-42.81,35.53-9,28.31-25.63-37.1-14.56-29-35.24c0,0-15.25,19.22,2.67,30.58s-32,1.22-27.57,22.13C63,185.09,124.44,190.91,119,203.14s-30.53,9.33-30.64,24.76C88.23,241.3,101.17,233.14,113.26,251.49Z"/><path class="cls-10" d="M163.69,253.55c6.83-4.55,13.84-9.28,18.43-16.08s6.21-16.29,1.74-23.17c-3-4.68-8.28-7.39-13.39-9.63S160,200.38,156,196.44,150,186,152.83,181.25a15.1,15.1,0,0,1,5.34-4.88c9.89-6,21.83-7.35,32.82-11,5-1.66,10.08-3.94,13.53-8s4.92-10.14,2.27-14.73c5.06,3.62,10.78,8.76,10.42,15-.19,3.23-2.06,6.14-4.3,8.47-10.1,10.46-27.43,11.28-37.32,21.94a8,8,0,0,0-2.07,3.34c-.92,3.67,2.62,6.81,5.74,9l15.08,10.34c5.28,3.61,11.1,8.18,11.32,14.57.26,7.36-7,12.53-13.46,16C182.4,246.44,174.08,249.7,163.69,253.55Z"/><path class="cls-10" d="M99.47,86a26.87,26.87,0,0,0-3.17,8.25c-.42,2.94.29,6.2,2.53,8.13,3.63,3.12,9.62,1.7,13.39,4.63a7.23,7.23,0,0,1,1.54,9.35c-.22.32.74.26,1.07.06,2.66-1.58,3.83-4.84,4.25-7.91.23-1.75.25-3.67-.77-5.12s-2.81-2.06-4.49-2.59l-6.41-2.06c-2.41-.77-4.92-1.61-6.63-3.46S97.66,87.78,99.47,86Z"/></g></svg>