<?xml version="1.0" encoding="utf-8"?>
<!-- Generator: Adobe Illustrator 25.0.0, SVG Export Plug-In . SVG Version: 6.00 Build 0)  -->
<svg version="1.1" id="Layer_1" xmlns="http://www.w3.org/2000/svg" xmlns:xlink="http://www.w3.org/1999/xlink" x="0px" y="0px"
	 viewBox="0 0 300 300" style="enable-background:new 0 0 300 300;" xml:space="preserve">
<style type="text/css">
	.st0{opacity:7.703218e-02;fill-rule:evenodd;clip-rule:evenodd;fill:#E13856;enable-background:new    ;}
	.st1{opacity:7.703218e-02;enable-background:new    ;}
	.st2{opacity:8.000000e-02;fill:#E13856;enable-background:new    ;}
	.st3{fill:#B61A37;}
	.st4{fill:#F4EEE9;}
	.st5{fill:#FFFBF8;}
	.st6{fill:#E5D9D1;}
	.st7{fill:#FFAB33;}
	.st8{fill:#FFC145;}
	.st9{fill:#E89A10;}
	.st10{fill:#474747;}
	.st11{fill:#282828;}
	.st12{fill:#D6D6D6;}
	.st13{fill:#C1C1C1;}
</style>
<circle id="Mask-Copy-2_1_" class="st0" cx="150" cy="150.5" r="149.5"/>
<g id="Page-1" class="st1">
	<g id="For-you-and-your-partner-Copy-4">
		<g id="Group-4">
			<circle id="Mask-Copy-2" class="st2" cx="-478.6" cy="51.8" r="150"/>
		</g>
	</g>
</g>
<path id="Shape" class="st3" d="M150,253.4c-57.1,0-103.4-46.3-103.4-103.4S92.9,46.6,150,46.6S253.4,92.9,253.4,150l0,0
	C253.3,207.1,207.1,253.3,150,253.4z M150,61.3c-49,0-88.7,39.7-88.7,88.7s39.7,88.7,88.7,88.7s88.7-39.7,88.7-88.7c0,0,0,0,0,0
	C238.7,101,199,61.3,150,61.3C150,61.3,150,61.3,150,61.3z"/>
<path class="st4" d="M234.9,175L56,184.5c-1.8,0.1-3.6-5.3-3.9-12s0.8-12.2,2.7-12.3l178.9-9.5L234.9,175z"/>
<path class="st5" d="M136.5,165.5c-7.8,0.8-15.7,0.9-23.6,0.2c-1.3-0.1-2.6-0.3-3.9-0.7c-1.2-0.3-2.1-1-2.7-2.1
	c-0.3-1,0.5-1.9,1.7-2.3c1.3-0.4,2.6-0.6,4-0.6l9.5-0.4c3.2-0.1,6.3-0.2,9.5-0.4c1.9-0.1,4-0.6,6.1-0.2s4.5,2.2,4.6,3.6
	c0.1,1.7-2.4,2.4-4.5,2.7L136.5,165.5z"/>
<path class="st5" d="M101,165.6c-4.7,0.6-9.5,0.6-14.3,0.2c-0.8,0-1.6-0.2-2.4-0.4c-0.7-0.2-1.3-0.7-1.6-1.4
	c-0.2-0.6,0.3-1.2,1.1-1.5c0.8-0.3,1.6-0.4,2.5-0.4l5.8-0.3c1.9-0.1,3.8-0.2,5.7-0.3c1.2-0.2,2.5-0.3,3.7-0.1
	c1.3,0.3,2.7,1.4,2.8,2.3c0.1,1.1-1.5,1.6-2.8,1.8L101,165.6z"/>
<path class="st6" d="M234.1,159.7l0.8,15.2L56,184.5c-1.8,0.1-3.6-5.3-4-12c0-0.8-0.1-1.5-0.1-2.2
	C112.8,178.3,174.6,174.7,234.1,159.7z"/>
<path class="st7" d="M107.8,181.7c-1.8,0.1-3.6-5.3-3.9-12s0.8-12.2,2.7-12.3l3.9-0.2c-1.8,0.1-3,5.6-2.7,12.3s2.1,12.1,3.9,12
	L107.8,181.7z"/>
<path class="st8" d="M108,160.6l0.3-0.1c-0.3,1.3-0.5,2.6-0.5,3.9c-0.6-0.3-1.1-0.9-1.4-1.5C106,162,106.9,161.1,108,160.6z"/>
<path class="st9" d="M108.2,174.4c0.7,4.2,2.1,7.2,3.4,7.1l-3.9,0.2c-1.4,0.1-2.7-3-3.4-7.4L108.2,174.4z"/>
<path class="st7" d="M223.6,175.6c-1.8,0.1-3.6-5.3-3.9-12s0.8-12.2,2.6-12.3l3.9-0.2c-1.8,0.1-3,5.6-2.6,12.3s2.1,12.1,3.9,12
	L223.6,175.6z"/>
<path class="st9" d="M219.6,163.6c0-0.1,0-0.3,0-0.4c1.3-0.3,2.6-0.6,3.9-0.9c0,0.4,0,0.7,0,1.1c0.4,6.7,2.1,12.1,3.9,12l-3.9,0.2
	C221.8,175.6,220,170.3,219.6,163.6z"/>
<path class="st7" d="M96.3,170.1c0.4,6.7,2.1,12.1,3.9,12L56,184.5c-1.8,0.1-3.6-5.3-3.9-12s0.8-12.2,2.7-12.3l44.2-2.4
	C97.1,157.9,95.9,163.4,96.3,170.1z"/>
<path class="st8" d="M86.3,162.2l5.8-0.3c1.6-0.1,3.1-0.1,4.7-0.2c-0.3,1.4-0.4,2.9-0.5,4.4c-3.2,0.2-6.4,0.1-9.5-0.2
	c-0.8,0-1.6-0.2-2.4-0.4c-0.7-0.2-1.3-0.7-1.6-1.4c-0.2-0.6,0.3-1.2,1.1-1.5C84.6,162.3,85.5,162.2,86.3,162.2z"/>
<path class="st9" d="M96.7,174.1c0.7,4.7,2.1,8.1,3.6,8L56,184.5c-1.8,0.1-3.6-5.3-4-12c0-0.8-0.1-1.5-0.1-2.2
	C66.8,172.2,81.7,173.5,96.7,174.1z"/>
<path class="st10" d="M237.5,159.4c0.2,2.6,2.8,3.3,2,6.6s-1.6,2.3-1.1,4.7c0.4,1.9-0.9,3.8-2.8,4.2c-0.2,0-0.4,0.1-0.6,0.1
	c-1.8,0.1-3.6-5.3-3.9-12s0.8-12.2,2.6-12.3C238,150.4,237.3,156.8,237.5,159.4z"/>
<path class="st11" d="M237.5,159.4c0.2,2.6,2.8,3.3,2,6.6s-1.6,2.3-1.1,4.7c0.4,1.9-0.9,3.8-2.8,4.2c-0.2,0-0.4,0.1-0.6,0.1
	c-1.8,0.1-3.6-5.3-3.9-12c0-0.8-0.1-1.7-0.1-2.4c2.2-0.5,4.4-1.1,6.6-1.7C237.5,159.1,237.5,159.2,237.5,159.4z"/>
<path class="st4" d="M97.1,221.3l37.4-82l9.8-3.2c0.5-0.2,1,0.1,1.1,0.6c0,0,0,0,0,0.1l0.9,4c0.1,0.5,0.6,0.8,1.1,0.7
	c0.2,0,0.3-0.1,0.4-0.2l5.2-5.1c0.4-0.4,0.9-0.3,1.3,0c0.1,0.1,0.2,0.2,0.2,0.4l3.3,10l-38.7,84.9c-0.8,1.7-6.3,0.7-12.4-2.1
	S96.3,223,97.1,221.3z"/>
<path class="st5" d="M139.7,151.4c-2.9,7.3-6.5,14.4-10.7,21c-0.7,1.1-1.5,2.2-2.4,3.1c-0.8,0.9-1.9,1.4-3.1,1.4
	c-1-0.2-1.4-1.3-1.2-2.6c0.3-1.3,0.7-2.6,1.4-3.9c1.3-2.9,2.7-5.8,4-8.6c1.3-2.9,2.7-5.7,4-8.6c0.8-1.7,1.3-3.9,2.7-5.4s4-3,5.4-2.4
	c1.6,0.7,1,3.2,0.4,5.2C139.9,150.8,139.8,151.1,139.7,151.4z"/>
<path class="st5" d="M123.4,182.8c-1.7,4.5-3.9,8.7-6.4,12.8c-0.4,0.7-0.9,1.3-1.5,1.9c-0.5,0.5-1.2,0.8-1.9,0.8
	c-0.7-0.1-0.9-0.9-0.8-1.6c0.1-0.8,0.4-1.6,0.8-2.4l2.4-5.3c0.8-1.7,1.6-3.5,2.4-5.2c0.4-1.2,0.9-2.3,1.6-3.3c0.9-1,2.5-1.8,3.3-1.4
	c1,0.5,0.7,2,0.3,3.3C123.5,182.5,123.4,182.7,123.4,182.8z"/>
<path class="st6" d="M158,146.6l-38.7,84.9c-0.8,1.7-6.3,0.7-12.4-2.1c-0.7-0.3-1.4-0.6-2-1c19.9-28.3,36.8-58.7,50.2-90.7
	L158,146.6z"/>
<path class="st7" d="M140.8,184.3c-0.8,1.7-6.3,0.7-12.4-2.1s-10.5-6.4-9.7-8.1l1.6-3.6c-0.8,1.7,3.6,5.3,9.7,8.1
	c6.1,2.8,11.7,3.7,12.4,2.1L140.8,184.3z"/>
<path class="st8" d="M122.2,174.3c0-0.1,0-0.2,0.1-0.3c1,0.8,2.1,1.6,3.2,2.3c-0.6,0.4-1.3,0.6-2,0.6
	C122.5,176.7,122.1,175.6,122.2,174.3z"/>
<path class="st9" d="M134.5,180.5c4.1,1.3,7.3,1.5,7.9,0.3l-1.6,3.6c-0.6,1.2-3.9,1-8.1-0.4C133.3,182.8,133.9,181.6,134.5,180.5z"
	/>
<path class="st7" d="M125.2,189.1c6.1,2.8,11.7,3.7,12.4,2l-18.4,40.3c-0.8,1.7-6.3,0.7-12.4-2.1s-10.5-6.4-9.7-8.1l18.4-40.3
	C114.7,182.7,119.1,186.3,125.2,189.1z"/>
<path class="st8" d="M113.5,194.3l2.4-5.3c0.7-1.4,1.3-2.8,2-4.2c1.1,0.9,2.4,1.7,3.6,2.5c-1.3,2.9-2.9,5.7-4.6,8.4
	c-0.4,0.7-0.9,1.3-1.5,1.9c-0.5,0.5-1.2,0.8-1.9,0.8c-0.7-0.1-0.9-0.9-0.8-1.6C112.9,195.8,113.1,195,113.5,194.3z"/>
<path class="st9" d="M128.9,190.6c4.5,1.6,8.1,1.9,8.8,0.6l-18.4,40.3c-0.8,1.7-6.3,0.7-12.4-2.1c-0.7-0.3-1.4-0.6-2-1
	C113.4,216.2,121.4,203.6,128.9,190.6z"/>
<path class="st4" d="M155.2,123.7l-9.7-3.5l78.7-41.7l11.4,21.5l-75.9,40.2l3.4-10c0.2-0.5-0.1-1-0.5-1.2c-0.1-0.1-0.3-0.1-0.5,0
	l-7.3,0.9c-0.5,0.1-0.9-0.3-1-0.8c0-0.2,0-0.3,0.1-0.5l1.8-3.8C155.9,124.4,155.7,123.9,155.2,123.7z"/>
<path class="st6" d="M228.4,86.6l7.1,13.4l-75.9,40.2l3.1-8.8C185.9,118.3,207.8,103.3,228.4,86.6z"/>
<path class="st7" d="M225.6,105.3c-1.6,0.8-5.5-3.3-8.6-9.2s-4.4-11.4-2.8-12.3l3.4-1.8c-1.6,0.9-0.4,6.4,2.8,12.3s7,10.1,8.6,9.2
	L225.6,105.3z"/>
<path class="st9" d="M216.9,96.1l-0.2-0.4l3.1-2.4l0.5,1c3.1,5.9,7,10.1,8.6,9.2l-3.4,1.8C223.9,106.2,220.1,102.1,216.9,96.1z"/>
<path class="st10" d="M231.4,84.8c1.3,2.3,3.9,1.8,4.6,5.1s-0.5,2.7,0.9,4.8c1.2,1.6,0.8,3.9-0.8,5c-0.2,0.1-0.3,0.2-0.5,0.3
	c-1.6,0.8-5.5-3.3-8.6-9.2s-4.4-11.4-2.8-12.3C228.1,76.5,230.1,82.5,231.4,84.8z"/>
<path class="st11" d="M231.4,84.8c1.3,2.3,3.9,1.8,4.6,5.1s-0.5,2.7,0.9,4.8c1.2,1.6,0.8,3.9-0.8,5c-0.2,0.1-0.3,0.2-0.5,0.3
	c-1.6,0.8-5.5-3.3-8.6-9.2c-0.4-0.7-0.8-1.5-1.1-2.2c1.8-1.4,3.5-2.8,5.2-4.3C231.2,84.5,231.3,84.7,231.4,84.8z"/>
<path class="st12" d="M254,131.5c1.3-2.3,3-4.4,5-6.1c3.9-3.3,8.9-5,13.9-4.7l0,0c-4.5,1-8.2,4.5-10.7,7.8c-1.2,1.6-2.1,3.4-2.7,5.4
	c-0.6,1.9-0.8,3.8-0.6,5.8c0.1,2.1,0.6,4.3,0.9,6.8c0.4,2.7,0.1,5.5-0.8,8.1c-0.3,0.7-0.6,1.4-0.9,2.1c-0.4,0.7-0.8,1.4-1.3,2
	c-1,1.3-2.2,2.3-3.7,3.1c-1.4,0.7-2.9,1.1-4.5,1.1c-1.5,0-3-0.5-4.1-1.4c2.1-0.6,4.1-3.8,4.6-4.7c0.4-0.7,0.6-1.4,0.8-2.2
	c0.2-0.8,0.3-1.6,0.4-2.4c0.2-1.7,0.3-3.6,0.6-5.7l0.8-7.2C251.9,136.6,252.7,133.9,254,131.5z"/>
<path class="st13" d="M249.3,161.1c1.5-0.8,2.7-1.8,3.7-3.1c0.5-0.6,0.9-1.3,1.3-2c0.4-0.7,0.7-1.4,0.9-2.1c0.9-2.6,1.2-5.4,0.8-8.1
	c-0.3-2.5-0.8-4.7-0.9-6.8c-0.1-1.9,0.1-3.9,0.6-5.8c0.6-1.9,1.5-3.8,2.7-5.4c1.8-2.4,4-4.5,6.6-6.1c2.5-1,5.2-1.4,7.9-1.2
	c-4.5,1-8.2,4.5-10.7,7.8c-1.2,1.6-2.1,3.4-2.7,5.4c-0.6,1.9-0.8,3.8-0.6,5.8c0.1,2.1,0.6,4.3,0.9,6.8c0.4,2.7,0.1,5.5-0.8,8.1
	c-0.3,0.7-0.6,1.4-0.9,2.1c-0.4,0.7-0.8,1.4-1.3,2c-1,1.3-2.2,2.3-3.7,3.1c-1.4,0.7-2.9,1.1-4.5,1.1c-1,0-1.9-0.2-2.8-0.6
	C247,162,248.2,161.7,249.3,161.1z"/>
<path class="st12" d="M251.2,51.4c1.3-2.3,3-4.4,5-6.1c3.9-3.3,8.9-5,14-4.6l0,0c-4.5,1-8.2,4.5-10.7,7.8c-1.2,1.6-2.2,3.4-2.7,5.4
	c-0.6,1.9-0.8,3.8-0.6,5.8c0.1,2.1,0.6,4.3,0.9,6.8c0.4,2.7,0.1,5.5-0.8,8.1c-0.3,0.7-0.6,1.4-0.9,2.1c-0.4,0.7-0.8,1.4-1.3,2
	c-1,1.3-2.3,2.3-3.7,3.1c-1.4,0.7-2.9,1.1-4.5,1.2c-1.5,0-3-0.5-4.1-1.4c2.1-0.6,4.1-3.8,4.6-4.7c0.4-0.7,0.7-1.4,0.8-2.2
	c0.2-0.8,0.3-1.6,0.4-2.4c0.2-1.7,0.3-3.6,0.6-5.7l0.8-7.2C249.2,56.5,249.9,53.8,251.2,51.4z"/>
<path class="st13" d="M246.4,81c1.4-0.8,2.7-1.8,3.7-3.1c0.5-0.6,0.9-1.3,1.3-2c0.4-0.7,0.7-1.4,0.9-2.1c0.9-2.6,1.2-5.4,0.8-8.1
	c-0.3-2.5-0.8-4.7-0.9-6.8c-0.1-1.9,0.1-3.9,0.6-5.8c0.6-1.9,1.5-3.8,2.7-5.4c1.8-2.4,4-4.5,6.6-6.1c2.5-1,5.2-1.4,7.9-1.1
	c-4.5,1-8.2,4.5-10.7,7.8c-1.2,1.6-2.2,3.4-2.7,5.4c-0.6,1.9-0.8,3.8-0.6,5.8c0.1,2.1,0.6,4.3,0.9,6.8c0.4,2.7,0.1,5.5-0.8,8.1
	c-0.3,0.7-0.6,1.4-0.9,2.1c-0.4,0.7-0.8,1.4-1.3,2c-1,1.3-2.3,2.3-3.7,3.1c-1.4,0.7-2.9,1.1-4.5,1.2c-1,0-1.9-0.2-2.8-0.6
	C244.2,81.9,245.3,81.6,246.4,81z"/>
<rect id="Rectangle" x="139.5" y="55.8" transform="matrix(0.7071 -0.7071 0.7071 0.7071 -65.0469 151.2094)" class="st3" width="21.1" height="196.7"/>
</svg>
