<?xml version="1.0" encoding="utf-8"?>
<!-- Generator: Adobe Illustrator 25.0.0, SVG Export Plug-In . SVG Version: 6.00 Build 0)  -->
<svg version="1.1" id="Layer_1" xmlns="http://www.w3.org/2000/svg" xmlns:xlink="http://www.w3.org/1999/xlink" x="0px" y="0px"
	 viewBox="0 0 600 600" style="enable-background:new 0 0 600 600;" xml:space="preserve">
<style type="text/css">
	.st0{opacity:9.000000e-02;fill:#FF3556;enable-background:new    ;}
	.st1{fill:#FFFFFF;}
	.st2{fill:#DBDBDB;}
	.st3{fill:#E8E8E8;}
	.st4{fill:#FF9A6C;}
	.st5{fill:#BFBFBF;}
	.st6{fill:#B0D2F5;}
	.st7{fill:#FFBF9D;}
	.st8{fill:#00A2FF;}
	.st9{opacity:0.2;enable-background:new    ;}
	.st10{fill:#1A2E35;}
	.st11{fill:#375A64;}
	.st12{fill:#0086C3;}
	.st13{fill:#006783;}
	.st14{enable-background:new    ;}
	.st15{fill:#592516;}
	.st16{fill:#6B341E;}
	.st17{clip-path:url(#SVGID_2_);enable-background:new    ;}
	.st18{fill:#4B2415;}
	.st19{fill:#4D2516;}
	.st20{fill:#4F2616;}
	.st21{fill:#512817;}
	.st22{fill:#532917;}
	.st23{fill:#562A18;}
	.st24{fill:#582B19;}
	.st25{fill:#602C19;}
	.st26{fill:#7F442A;}
	.st27{fill:#EA1B1B;}
	.st28{fill:#F93A3A;}
	.st29{clip-path:url(#SVGID_4_);enable-background:new    ;}
</style>
<circle class="st0" cx="301.5" cy="302.1" r="285.9"/>
<g>
	<path class="st1" d="M426.6,210.8c-0.8,0-1.4-0.9-1.4-1.9V201c0-1.1,0.6-2,1.4-2s1.4,0.9,1.4,2v7.8
		C428.1,209.9,427.4,210.8,426.6,210.8z"/>
	<path class="st1" d="M455.4,210.8c-0.8,0-1.4-0.9-1.4-1.9V201c0-1.1,0.6-2,1.4-2s1.4,0.9,1.4,2v7.8
		C456.8,209.9,456.2,210.8,455.4,210.8z"/>
	<path class="st1" d="M440.3,263.1c-0.8,0-1.4-1-1.4-2.2v-6.6h2.9v6.6C441.8,262.1,441.1,263.1,440.3,263.1z"/>
	<path class="st2" d="M443.7,274.2c0.1,1.1-0.6,2.1-1.7,2.2h-3.4c-1.1-0.2-1.8-1.1-1.7-2.2v-6.7l6.8-0.1L443.7,274.2L443.7,274.2z"
		/>
	<path class="st3" d="M442,260.9h-3.4c-1.1,0.2-1.8,1.1-1.7,2.2v4.4h6.8v-4.4C443.8,262,443.1,261,442,260.9z"/>
	<path class="st3" d="M458.8,209v37.9c0,2.7-1.1,5.2-3,7.1l0,0c-1.9,1.8-4.4,2.9-7,2.9h-17c-2.6,0-5.2-1-7-2.9l0,0
		c-1.9-1.9-2.9-4.4-2.9-7v-38H458.8z"/>
	<path class="st2" d="M456.8,233.1V245c0,2.4-0.9,4.6-2.6,6.3l0,0c-1.7,1.6-3.9,2.6-6.2,2.6h-15.1c-2.4,0-4.6-0.9-6.3-2.6l0,0
		c-1.7-1.7-2.6-3.9-2.6-6.3v-11.9H456.8z"/>
	<path class="st1" d="M492.4,488.5l-4.3-2.3c-0.8-0.4-1.7-0.7-2.6-0.7h-12.4V201.3c0-1.2-1-2.2-2.2-2.3h-57.5
		c-1.2,0-1.7,0.6-1.7,1.4s0.5,1.4,1.7,1.4h56.9v283.7h-13.4c-0.9,0-1.8,0.2-2.6,0.7l-4.3,2.3c-0.7,0.4-0.9,1.3-0.6,2
		c0.3,0.5,0.7,0.7,1.2,0.7c0.2,0,0.5-0.1,0.7-0.2l4.2-2.2c0.4-0.2,0.9-0.3,1.4-0.3H485c0.8,0,1.6,0.2,2.3,0.6l3.7,2
		c0.2,0.1,0.4,0.2,0.7,0.2l0,0c0.8,0,1.4-0.6,1.4-1.4C493.1,489.3,492.9,488.8,492.4,488.5z"/>
	<path class="st3" d="M458.3,270.3c-4.9-1.5-9.3-4.5-12.5-8.4c0,0,1,8.8,11.7,11.1L458.3,270.3z"/>
	<path class="st4" d="M451.4,240.3c-0.1,0-0.2-0.1-0.2-0.2c0-0.1,0.1-0.2,0.2-0.2l0,0c0.1,0,0.2,0.1,0.2,0.2l0,0
		C451.6,240.3,451.5,240.3,451.4,240.3L451.4,240.3z"/>
	<path class="st4" d="M456.8,241.2c-0.1,0-0.2-0.2-0.1-0.3s0.1-0.3,0.2-0.3s0.2,0.2,0.1,0.3C457,241.1,456.9,241.2,456.8,241.2z"/>
	<path class="st4" d="M452.3,242.8c-0.1,0-0.2-0.1-0.1-0.2c0-0.1,0.1-0.1,0.2-0.1s0.2,0.1,0.1,0.2S452.4,242.8,452.3,242.8z"/>
	<path class="st4" d="M455.3,243c-0.1,0-0.2-0.1-0.1-0.2c0-0.1,0.1-0.2,0.2-0.2s0.2,0.1,0.1,0.3C455.6,242.9,455.5,243,455.3,243
		C455.4,243,455.3,243,455.3,243z"/>
	<path class="st4" d="M470.6,245.7c-0.1,0-0.2-0.1-0.2-0.2c0-0.1,0.1-0.2,0.2-0.2s0.2,0.1,0.2,0.2
		C470.8,245.7,470.7,245.7,470.6,245.7z"/>
	<path class="st4" d="M472.7,246.2c-0.1,0-0.2-0.2-0.1-0.3c0-0.1,0.1-0.2,0.2-0.2s0.2,0.2,0.1,0.3
		C472.9,246.1,472.8,246.2,472.7,246.2z"/>
	<path class="st4" d="M468.7,245.2c-0.1,0-0.2-0.1-0.2-0.2c0-0.1,0.1-0.2,0.2-0.2s0.2,0.1,0.2,0.2l0,0
		C468.9,245.2,468.8,245.2,468.7,245.2L468.7,245.2z"/>
	<path class="st4" d="M469.6,247.9c-0.1,0-0.2-0.1-0.2-0.3c0-0.1,0.1-0.2,0.1-0.2c0.1,0,0.2,0.1,0.2,0.2l0,0
		C469.8,247.7,469.7,247.8,469.6,247.9z"/>
	<path class="st4" d="M471.5,248.1c-0.1,0-0.1-0.2-0.1-0.2c0.1-0.1,0.2-0.1,0.2,0l0,0c0.1,0,0.1,0.2,0.1,0.2
		S471.6,248.1,471.5,248.1z"/>
</g>
<g>
	<path class="st5" d="M594.7,494.1H2.2c-0.4,0-0.8-0.4-0.8-0.8l0,0c0-0.4,0.4-0.8,0.8-0.8h592.5c0.4,0,0.8,0.4,0.8,0.8l0,0
		C595.5,493.7,595.1,494.1,594.7,494.1z"/>
	<g>
		<path class="st2" d="M193.3,231.1h-61.9c-4.8,0-8.7-3.9-8.7-8.7v-59.6c0-4.8,3.9-8.7,8.7-8.7h61.9c4.8,0,8.7,3.9,8.7,8.7v59.6
			C202,227.2,198.1,231.1,193.3,231.1z"/>
		<path class="st3" d="M190.6,227.7H134c-4.4,0-7.9-3.6-7.9-7.9v-54.4c0-4.4,3.6-7.9,7.9-7.9h56.6c4.4,0,7.9,3.6,7.9,7.9v54.4
			C198.6,224.2,195,227.7,190.6,227.7z"/>
		<g>
			<g>
				<path class="st6" d="M160.7,164.5c0-0.9,0.7-1.6,1.6-1.6s1.6,0.7,1.6,1.6s-0.7,1.6-1.6,1.6S160.7,165.4,160.7,164.5z"/>
				<path class="st6" d="M174,166.8c0.4-0.8,1.4-1.1,2.2-0.6c0.8,0.4,1.1,1.4,0.6,2.2c-0.4,0.8-1.4,1.1-2.2,0.6
					C173.8,168.6,173.5,167.6,174,166.8z"/>
				<path class="st6" d="M185.3,175.8c0.8-0.5,1.8-0.3,2.3,0.5s0.3,1.8-0.5,2.3s-1.8,0.3-2.3-0.5S184.6,176.3,185.3,175.8z"/>
				<path class="st6" d="M191,189.8c0.9,0,1.6,0.7,1.6,1.6c0,0.9-0.7,1.6-1.6,1.6c-0.9,0-1.6-0.7-1.6-1.6
					C189.3,190.5,190.1,189.8,191,189.8z"/>
				<path class="st6" d="M188.1,206c0.6,0.6,0.6,1.7,0,2.3s-1.7,0.6-2.3,0s-0.6-1.7,0-2.3C186.4,205.4,187.4,205.4,188.1,206z"/>
				<path class="st6" d="M177.8,216.4c0.6,0.6,0.6,1.7,0,2.3s-1.7,0.6-2.3,0s-0.6-1.7,0-2.3C176.1,215.7,177.1,215.7,177.8,216.4z"
					/>
				<path class="st6" d="M160.7,221.7c0-0.9,0.7-1.6,1.6-1.6s1.6,0.7,1.6,1.6c0,0.9-0.7,1.6-1.6,1.6S160.7,222.6,160.7,221.7z"/>
			</g>
			<g>
				<path class="st6" d="M150.7,166.8c-0.4-0.8-1.4-1.1-2.2-0.6c-0.8,0.4-1.1,1.4-0.6,2.2c0.4,0.8,1.4,1.1,2.2,0.6
					C150.8,168.6,151.1,167.6,150.7,166.8z"/>
				<path class="st6" d="M139.3,175.8c-0.8-0.5-1.8-0.3-2.3,0.5s-0.3,1.8,0.5,2.3s1.8,0.3,2.3-0.5S140.1,176.3,139.3,175.8z"/>
				<path class="st6" d="M133.7,189.8c-0.9,0-1.6,0.7-1.6,1.6c0,0.9,0.7,1.6,1.6,1.6s1.6-0.7,1.6-1.6S134.6,189.8,133.7,189.8z"/>
				<path class="st6" d="M136.6,206c-0.6,0.6-0.6,1.7,0,2.3s1.7,0.6,2.3,0s0.6-1.7,0-2.3S137.2,205.4,136.6,206z"/>
				<path class="st6" d="M146.9,216.4c-0.6,0.6-0.6,1.7,0,2.3s1.7,0.6,2.3,0s0.6-1.7,0-2.3C148.6,215.7,147.5,215.7,146.9,216.4z"/>
			</g>
		</g>
		<g>
			<path class="st6" d="M161.9,191.4c0-0.9,0.7-1.6,1.6-1.6c0.9,0,1.6,0.7,1.6,1.6c0,0.9-0.7,1.6-1.6,1.6
				C162.6,193.1,161.9,192.3,161.9,191.4z"/>
			<g>
				<rect x="163.3" y="170.9" class="st6" width="0.4" height="20.5"/>
			</g>
			<g>
				
					<rect x="161.9" y="186.5" transform="matrix(0.7867 -0.6173 0.6173 0.7867 -79.5296 144.1163)" class="st6" width="13.8" height="1.3"/>
			</g>
		</g>
	</g>
	<g>
		<path class="st2" d="M331.8,398.5H179.6l-66.7-66c-4.3-4.2-3.8-11.3,1-14.9l3.4-2.5l134.9,2L331.8,398.5z"/>
		<path class="st3" d="M180.7,400.2l-12.6,9.3l-57.5-77.4c-3.2-4.3-2.3-10.3,2-13.5l4.8-3.6L180.7,400.2z"/>
		<path class="st2" d="M113.1,409.6h374.1c4.6,0,8.3-3.7,8.3-8.3l0,0c0-4.6-3.7-8.3-8.3-8.3H113.1c-4.6,0-8.3,3.7-8.3,8.3l0,0
			C104.8,405.9,108.5,409.6,113.1,409.6z"/>
		<rect x="168.1" y="409.6" class="st2" width="6" height="75.7"/>
		<rect x="565.2" y="409.6" class="st2" width="6" height="75.7"/>
		<rect x="474.5" y="409.6" class="st2" width="6" height="75.7"/>
		<rect x="273.5" y="409.6" class="st2" width="6" height="75.7"/>
		<rect x="168.1" y="457.9" class="st2" width="276.5" height="6.3"/>
		<rect x="438.6" y="457.9" class="st2" width="132.5" height="6.3"/>
		<g>
			
				<ellipse transform="matrix(0.9216 -0.3882 0.3882 0.9216 -174.967 104.4888)" class="st3" cx="171.1" cy="485.3" rx="6.8" ry="6.8"/>
			
				<ellipse transform="matrix(2.626879e-02 -0.9997 0.9997 2.626879e-02 -318.4409 643.6049)" class="st2" cx="171.1" cy="485.3" rx="3.8" ry="3.8"/>
		</g>
		<g>
			<path class="st2" d="M269.7,485.3c0-3.7,3-6.8,6.8-6.8c3.7,0,6.8,3,6.8,6.8c0,3.7-3,6.8-6.8,6.8C272.8,492,269.7,489,269.7,485.3
				z"/>
			<ellipse class="st2" cx="276.6" cy="485.3" rx="3.8" ry="3.8"/>
		</g>
		<g>
			<ellipse class="st3" cx="477.4" cy="485.3" rx="6.8" ry="6.8"/>
			<path class="st2" d="M473.7,485.3c0-2.1,1.7-3.8,3.8-3.8s3.8,1.7,3.8,3.8c0,2.1-1.7,3.8-3.8,3.8S473.7,487.4,473.7,485.3z"/>
		</g>
		<g>
			<ellipse class="st3" cx="568.1" cy="485.3" rx="6.8" ry="6.8"/>
			<path class="st2" d="M564.4,485.3c0-2.1,1.7-3.8,3.8-3.8s3.8,1.7,3.8,3.8c0,2.1-1.7,3.8-3.8,3.8
				C566.1,489.1,564.4,487.4,564.4,485.3z"/>
		</g>
		<polygon class="st3" points="118.5,328.1 118.5,396.6 126.9,396.6 126.9,337.5 		"/>
		<path class="st3" d="M563.9,409.6H436.8c-6,0-10.9-4.9-10.9-10.9V354c0-6,4.9-10.9,10.9-10.9h127.1c6,0,10.9,4.9,10.9,10.9v44.7
			C574.8,404.7,569.9,409.6,563.9,409.6z"/>
	</g>
	<g>
		<g>
			<rect x="8.2" y="425.4" class="st2" width="3.6" height="57.1"/>
			<rect x="8.2" y="466" class="st3" width="78.8" height="3.6"/>
			<rect x="83.5" y="425.4" class="st2" width="3.6" height="57.1"/>
			<rect x="57.2" y="425.4" class="st2" width="3.6" height="57.1"/>
			<g>
				<path class="st3" d="M3.9,486c0-3.4,2.7-6.1,6.1-6.1s6.1,2.7,6.1,6.1s-2.7,6.1-6.1,6.1S3.9,489.4,3.9,486z"/>
				<path class="st2" d="M6.6,486c0-1.9,1.5-3.4,3.4-3.4s3.4,1.5,3.4,3.4s-1.5,3.4-3.4,3.4S6.6,487.9,6.6,486z"/>
			</g>
			<g>
				<path class="st3" d="M52.8,486c0-3.4,2.7-6.1,6.1-6.1c3.4,0,6.1,2.7,6.1,6.1s-2.7,6.1-6.1,6.1C55.6,492.1,52.8,489.4,52.8,486z"
					/>
				<path class="st2" d="M55.5,486c0-1.9,1.5-3.4,3.4-3.4s3.4,1.5,3.4,3.4s-1.5,3.4-3.4,3.4C57.1,489.4,55.5,487.9,55.5,486z"/>
			</g>
			<g>
				<path class="st3" d="M79.1,486c0-3.4,2.7-6.1,6.1-6.1s6.1,2.7,6.1,6.1s-2.7,6.1-6.1,6.1C81.9,492.1,79.1,489.4,79.1,486z"/>
				<path class="st2" d="M81.8,486c0-1.9,1.5-3.4,3.4-3.4s3.4,1.5,3.4,3.4s-1.5,3.4-3.4,3.4C83.4,489.4,81.8,487.9,81.8,486z"/>
			</g>
			<rect x="34.5" y="395" class="st3" width="52.5" height="38.7"/>
			<rect x="8.2" y="395" class="st2" width="52.5" height="38.7"/>
		</g>
		<g>
			<path class="st2" d="M32,380.3V395H17.1v-14.8c0-0.1,0-0.3,0-0.4c0.2-1.7,1.2-3.1,2.7-3.7c1.1-0.5,1.8-1.4,1.9-2.6l0.1-2.1h5.4
				v2.1c0,1.2,0.8,2.1,1.8,2.6c1.5,0.6,2.6,2.1,2.8,3.7C31.9,380,32,380.1,32,380.3z"/>
			<polygon class="st2" points="27.7,372.3 21.3,372.3 21.5,370.6 27.5,370.6 			"/>
			<path class="st1" d="M32,380.3v9.5H17.1v-9.5c0-0.1,0-0.3,0-0.4h14.8C31.9,380,32,380.1,32,380.3z"/>
		</g>
		<g>
			<path class="st2" d="M44.1,386.8v8.2h-8.3v-8.3c0-0.1,0-0.2,0-0.2c0.1-0.9,0.7-1.7,1.5-2.1c0.6-0.3,1-0.8,1-1.4l0.1-1.2h3v1.2
				c0,0.6,0.4,1.2,1,1.5c0.8,0.4,1.5,1.1,1.5,2.1C44.1,386.6,44.1,386.7,44.1,386.8z"/>
			<polygon class="st2" points="41.8,382.3 38.2,382.3 38.3,381.4 41.7,381.4 			"/>
			<path class="st1" d="M44.1,386.8v5.3h-8.3v-5.3c0-0.1,0-0.2,0-0.2h8.3C44.1,386.6,44.1,386.7,44.1,386.8z"/>
		</g>
	</g>
	<polygon class="st1" points="317.4,266.3 318.1,271.2 319.6,271.2 320.1,266.3 	"/>
	<path class="st2" d="M264.4,368.6L264.4,368.6c-0.4-0.7-0.2-1.6,0.5-1.9l2.5-1.5c0.7-0.4,1.6-0.2,1.9,0.5l0,0
		c0.4,0.7,0.2,1.6-0.5,1.9l-2.5,1.5C265.6,369.5,264.7,369.3,264.4,368.6z"/>
</g>
<g>
	<path class="st7" d="M295,476.5l-3.9,23.8l-29.7-5c0.7-2.8,16.9-5.9,16.9-5.9l1.8-15.3L295,476.5z"/>
	<path class="st7" d="M275.9,491c0.5,0.8,0.2,1.6,0.1,1.6c-0.2,0-0.2-0.7-0.6-1.4s-1-1.1-0.9-1.2C274.6,489.8,275.4,490.1,275.9,491
		z"/>
	<path class="st7" d="M248.6,472.1l-7.8,22.7l-28.4-10.2c1.1-2.7,17.6-2.8,17.6-2.8l4.4-14.8L248.6,472.1z"/>
	<path class="st7" d="M232,337.8c-2.6,5.4-0.7,11.8,4.3,14.2c4.9,2.4,11.1-0.1,13.7-5.5l19.8-40.7c0.6-1.3,1-2.7,1.1-4.1
		c0.5-4.1-1.7-8.1-5.4-10c-4.9-2.4-11.1,0.1-13.7,5.5L232,337.8z"/>
	<polygon class="st8" points="303.1,347.4 231.7,397.1 246.7,422.4 324.9,384.2 	"/>
	<path class="st8" d="M227.3,407c0.4,26.6-0.5,69.7,1.9,72.8l17.5,5.8c1.6-2.7,3.8-44,5.8-69.3c1.1-8.2-4.7-17.6-12.2-20.1l0,0
		C233.2,393.8,227.3,398.7,227.3,407z"/>
	<polygon class="st9" points="306.4,382.1 292.2,374 300.3,390.9 	"/>
	<path class="st8" d="M324.5,354.7l-43.8,65.5l22.1,14.6l37.8-34.2c7.1-5.7,12.3-13.5,14.7-22.3l1.2-4.3L324.5,354.7z"/>
	<path class="st8" d="M278.8,426.9c-0.8,24-3.1,58.5-0.9,61.5l15.1,5.2c3.3-4.2,7.4-39.9,11.2-64.3c1.2-6.4-2.5-12.7-8.6-14.8l0,0
		C287.4,411.8,279,418,278.8,426.9z"/>
	<path class="st9" d="M356.5,374.2l-52.5,9.1c0,0,16.4,8.9,30.7,5.4c14.3-3.5,20.9-11.5,20.9-11.5L356.5,374.2z"/>
	<path class="st8" d="M258.9,289.6c-2.7,2.6-3.7,6.4-2.8,10l31.5,59.7c0,0-1,20.2,22.6,26.2c27.6,7,46.4-11.3,46.4-11.3
		s1.5-14-11.9-47.4c-14.9-37.1-25.6-39.5-25.6-39.5l-40.6-16.7L258.9,289.6z"/>
	<polygon class="st9" points="330,343 317.4,331.1 321.3,362.6 	"/>
	<path class="st8" d="M305.4,296c0,1.5,0.3,2.9,0.8,4.3l13.2,36.2l5.2,13.9c2.1,5.7,8,8.8,13.1,7s7.5-8,5.4-13.7l-5.2-13.9
		l-13.2-36.2c-2.1-5.7-8-8.9-13.1-7C307.7,288,305.4,291.8,305.4,296z"/>
	<path class="st7" d="M338.8,350.1c-4.7,2.9-6.2,9-3.3,13.6l21.5,43.2l8.5-4.9L353,355.2c-0.1-0.4-0.3-0.8-0.5-1.2
		C349.8,349.2,343.7,347.4,338.8,350.1C338.8,350.1,338.8,350.2,338.8,350.1z"/>
	<g>
		<path class="st7" d="M253.5,280.3c3.1,10.3,13.6,8.8,13.6,8.8l0,0c0.5,1.9,1.7,7.8,2.1,9.2c0.1,0.5,0.3,1,0.5,1.4
			c1.6,3.6,5.9,5.2,9.5,3.5l8-3.9c4.2-2.2,6.4-7,5.3-11.6l-9.4-40.1c-2.2-11-10.3-18.9-20.9-16.3l-1,0.3
			c-9.7,3.1-15.6,13.3-13.5,23.6C249.6,264.8,251.9,275.3,253.5,280.3z"/>
	</g>
	<path class="st4" d="M267.8,291.6C278.1,289.4,279,281,279,281c-3.1,3.8-7.3,6.6-12,8.1L267.8,291.6z"/>
	<path class="st10" d="M254.5,261L254.5,261c0.8-0.2,1.6,0.3,1.8,1.1c0.2,0.8-0.3,1.6-1.1,1.8c-0.8,0.2-1.6-0.3-1.8-1.1
		S253.7,261.2,254.5,261z"/>
	<path class="st10" d="M251.7,258.6c0.5-0.6,1.2-1.1,2-1.4c0.7-0.3,1.6-0.3,2.4,0c0.6,0.2,0.9,0.5,0.8,0.6c-0.1,0.3-1.5-0.2-3,0.3
		s-2.4,1.6-2.6,1.5C251.2,259.6,251.3,259.2,251.7,258.6z"/>
	<path class="st10" d="M268.7,258.6c-0.2-0.8,0.3-1.6,1.1-1.8l0,0c0.8-0.2,1.6,0.3,1.8,1.1c0.2,0.8-0.3,1.6-1.1,1.8
		S268.9,259.4,268.7,258.6L268.7,258.6z"/>
	<path class="st10" d="M266.9,254.2c1-1.4,2.9-1.9,4.5-1.4c0.6,0.2,0.9,0.5,0.8,0.6c-0.1,0.3-1.5-0.2-3,0.3s-2.4,1.6-2.6,1.5
		C266.5,255.1,266.5,254.7,266.9,254.2z"/>
	<path class="st10" d="M261.9,269.6c-0.2,0.1-0.5,0.1-0.7,0.1c-0.3,0-0.6-0.2-0.8-0.4c-0.3-0.5-0.4-1-0.3-1.6
		c0.1-1.1,0.1-2.3,0.2-3.5c0.4-4.9,0.8-8.9,1-8.9s0,4-0.3,8.9c-0.1,1.2-0.2,2.4-0.3,3.5c-0.1,0.4-0.1,0.9,0.1,1.3
		c0.2,0.2,0.6,0.2,1,0.1c0.8-0.2,1.7-0.3,2.6-0.3C263.6,269.1,262.7,269.4,261.9,269.6z"/>
	<path class="st10" d="M265,248.1c0.8-0.6,1.7-1,2.7-1.2s2-0.2,2.9,0.1c0.7,0.3,1.1,0.6,1,0.8c-0.1,0.4-1.8,0.4-3.6,0.7
		s-3.3,1-3.6,0.6C264.2,248.9,264.5,248.4,265,248.1z"/>
	<path class="st10" d="M250.7,253.9c0.5-0.7,1.1-1.2,1.9-1.4c0.7-0.3,1.5-0.3,2.3-0.1c0.6,0.2,0.9,0.5,0.8,0.7
		c-0.2,0.4-1.3,0.5-2.6,0.9s-2.2,1.1-2.6,0.8C250.4,254.7,250.4,254.3,250.7,253.9z"/>
	<path class="st7" d="M286.4,266.1c0.1,0.2,7.5-0.2,5.6-7.4c-1.9-7.1-8.1-3-8.2-2.9C283.8,255.8,286.3,265.9,286.4,266.1z"/>
	<path class="st4" d="M287.4,263.4c0.4,0.2,0.9,0.1,1.2-0.1c1-0.6,1.3-2.1,1-3.6c-0.1-0.7-0.4-1.4-0.9-1.9c-0.3-0.6-0.9-0.8-1.5-0.8
		c-0.2,0.1-0.5,0.2-0.6,0.4c-0.2,0.1-0.2,0.3-0.2,0.5c0,0.3,0.2,0.4,0.2,0.4s0-0.2,0-0.4c0-0.3,0.3-0.5,0.6-0.5c0.5,0,1,0.3,1.2,0.7
		c0.4,0.5,0.7,1.1,0.8,1.7c0.3,1.3,0,2.6-0.7,3.1c-0.3,0.2-0.6,0.2-0.9,0.2s-0.4-0.1-0.4-0.1S287.2,263.1,287.4,263.4z"/>
	<path class="st10" d="M275.2,240.2c-0.5,8,6,10.3,6,10.3l1.4,6.4c0.3,1.7,1.2,2.8,2.8,2.3l0,0c0,0-0.9-6.1-1-8.2
		c-0.3-4,0.5-9-1-12.7c0,0-0.6-2.3-4.1-4.1c-4.3-2.3-15.5-5.2-20.2-3.7c-4.7,1.6-8.8,4.7-11.6,8.8c-1.5,1.8-2.4,4-2.8,6.3l28.5-9.5
		C275.4,236.6,275.3,239.5,275.2,240.2z"/>
	<path class="st10" d="M279.6,234.5l-4.7,5.9c0.2-1.4-1.1-3.1-2.4-2.6s-2.2,1.8-2.8,3.1s-1.4,2.6-2.6,3.3c-2.4,1.3-5.4-0.5-7.9,0.2
		s-3.8,3.4-5.6,5.3c-2,2.1-4.9,3.2-7.8,3c-3-0.3-5.5-2.3-6.5-5.1s0-6,2.4-7.8c1.2-0.8,2.7-1.2,3.6-2.3c1.1-1.2,1.2-3.1,1.7-4.7
		c1.3-4.1,5.2-6.7,9.4-6.4c2.6,0.3,5.1,1.8,7.7,1.3c1.4-0.2,2.6-1,3.9-1.5c2.6-0.9,5.5-0.4,7.8,1.2S279.5,231.7,279.6,234.5"/>
	<path class="st11" d="M245.7,242.7c0.7,0.2,1.3,0.4,2,0.4c0.8,0,1.7-0.2,2.5-0.7c1-0.6,1.7-1.4,2.2-2.4c0.5-1.1,0.7-2.4,1.1-3.7
		c0.6-2.2,2.9-3.6,5.2-3c0.8,0.2,1.5,0.6,2,1.2c0.6,0.6,1,1.2,1.6,1.7c0.5,0.5,1.2,0.6,1.9,0.5c0.7-0.2,1.3-0.6,1.7-1.1
		s0.8-1.1,1.1-1.7c0.7-1.2,1.3-2.5,2.4-3.1c1-0.6,2.2-0.6,3.3-0.2c0.9,0.3,1.6,0.9,2.2,1.6c0.4,0.6,0.8,1.2,1.1,1.8
		c0.2,0.4,0.4,0.8,0.5,1.2c0,0.1,0.1,0.2,0.1,0.3s0,0.1,0,0.1c-0.1-0.1-0.1-0.3-0.2-0.4c-0.1-0.3-0.2-0.7-0.5-1.2
		c-0.3-0.6-0.7-1.2-1.1-1.7c-0.6-0.7-1.4-1.2-2.2-1.5c-1-0.4-2.2-0.3-3.1,0.2c-1.1,0.6-1.7,1.8-2.3,3c-0.3,0.7-0.6,1.3-1.1,1.8
		c-0.4,0.6-1.1,1-1.8,1.2c-0.8,0.2-1.6-0.1-2.2-0.6s-1.1-1.2-1.6-1.7c-0.5-0.6-1.2-0.9-1.9-1.1c-0.7-0.1-1.4-0.1-2.1,0.1
		c-0.7,0.2-1.3,0.5-1.8,1c-0.4,0.5-0.8,1.1-1,1.7c-0.3,1.2-0.7,2.5-1.1,3.7c-0.5,1-1.3,1.8-2.3,2.4c-0.9,0.4-1.8,0.6-2.7,0.6
		C246.9,243.1,246.2,242.9,245.7,242.7c-0.5-0.3-0.9-0.5-1.2-0.8c-0.1,0-0.1-0.1-0.3-0.3c0.1,0.1,0.1,0.1,0,0
		C244.7,242,245.2,242.3,245.7,242.7z"/>
	<path class="st11" d="M239.9,245.5c0.4,0.6,1,1.2,1.6,1.6c0.8,0.5,1.7,0.8,2.6,0.9c1.8,0.1,3.5-0.2,5.1-0.9c1.3-0.5,2-0.9,2-0.9
		c-0.2,0.1-0.3,0.2-0.5,0.3c-0.4,0.3-0.9,0.6-1.4,0.8c-1.6,0.8-3.4,1.2-5.2,1c-1-0.1-2-0.5-2.8-1c-0.6-0.5-1.2-1.1-1.6-1.8
		c-0.3-0.4-0.5-1-0.6-1.5c0-0.2,0-0.4,0-0.6C239.2,244.1,239.5,244.7,239.9,245.5z"/>
	<path class="st10" d="M263.8,274.2c0.8-0.6,1.7-1,2.7-0.9c1,0,2,0.5,2.7,1.2c0.5,0.6,0.8,0.9,0.6,1.1c-0.2,0.2-1.4-1.3-3.3-1.4
		s-3.1,1.2-3.3,1C263.1,275.1,263.3,274.7,263.8,274.2z"/>
	<path class="st7" d="M230.6,345.2l-10,43.1l7.9,4.1l18.5-40.3c0.1-0.1,0.1-0.2,0.2-0.3c2.3-4.3,0.7-9.6-3.6-11.9
		C238.8,337.4,232.7,340,230.6,345.2z"/>
	<path class="st8" d="M258.3,291.4c-5.7-4.5-22.8,36-22.8,36s16,12.4,18.7,12.2s12.1-24.7,12.1-24.7S260.6,293.1,258.3,291.4z"/>
	<path class="st12" d="M207.9,484.2c-1.3-1.6,0.9-2.2,2.1-1.8l33.3,9.6c1.3,1.8,0.9,2.9-1,3.3L207.9,484.2z"/>
	<path class="st13" d="M221.1,487.5c0,0,3.4-6.2-2-6.8c-3.1-0.4-6.3,0.3-9.1,1.8L221.1,487.5z"/>
	<path class="st12" d="M258,494.7c-1.4-1.5,0.7-2.3,1.9-2l34.1,6c1.6,1.7,1.2,2.8-0.6,3.4L258,494.7z"/>
	<path class="st13" d="M271.5,496.5c0,0,2.7-6.5-2.7-6.5c-3.2,0-6.3,1-8.9,2.8L271.5,496.5z"/>
	<path class="st7" d="M355.4,403.7c-1.3,4.1,4.7,4.5,3,8.5c-1.8,4,3.4,4.1,6.3,3.8s3.5-6.6,2.9-13.8c-0.6-7.2-5.8-4.9-5.8-4.9
		S356.7,399.6,355.4,403.7z"/>
	<path class="st7" d="M213.5,389c-4.7,3.1-2.2,12.4-0.4,14.8s5.7-1.1,12.1-6s1.9-9.1,2-10.1C227.2,387.7,218.4,385.8,213.5,389z"/>
</g>
<g>
	<g>
		<g class="st14">
			<g>
				<polygon class="st15" points="111.6,369.4 114.1,367.8 159.6,378.2 157.1,379.7 				"/>
			</g>
			<g>
				<polygon class="st15" points="162.5,386.2 165,384.6 166.1,435.7 163.6,435.3 				"/>
			</g>
			<g>
				<path class="st16" d="M111.6,369.4l45.5,10.4c3,0.7,5.2,3.4,5.4,6.5l1.1,49.1l-6.3-1.8l-1.4-47.3L112.3,376L111.6,369.4z"/>
			</g>
			<g class="st14">
				<defs>
					<path id="SVGID_1_" class="st14" d="M157.1,379.7l2.5-1.6c3,0.7,5.2,3.4,5.4,6.5l-2.5,1.6C162.3,383.2,160.1,380.4,157.1,379.7
						z"/>
				</defs>
				<clipPath id="SVGID_2_">
					<use xlink:href="#SVGID_1_"  style="overflow:visible;"/>
				</clipPath>
				<g class="st17">
					<path class="st18" d="M157.1,379.7l2.5-1.6c0.1,0,0.2,0.1,0.4,0.1l-2.5,1.6C157.3,379.8,157.2,379.8,157.1,379.7"/>
					<path class="st19" d="M157.4,379.8l2.5-1.6c0.1,0,0.3,0.1,0.4,0.1l-2.5,1.6C157.7,379.9,157.6,379.9,157.4,379.8"/>
					<path class="st20" d="M157.8,380l2.5-1.6c0.1,0.1,0.3,0.1,0.4,0.2l-2.5,1.6C158.1,380.1,158,380,157.8,380"/>
					<path class="st21" d="M158.3,380.1l2.5-1.6c0.2,0.1,0.3,0.1,0.4,0.2l-2.5,1.6C158.6,380.3,158.4,380.2,158.3,380.1"/>
					<path class="st22" d="M158.7,380.4l2.5-1.6c0.2,0.1,0.3,0.2,0.5,0.3l-2.5,1.6C159,380.5,158.9,380.4,158.7,380.4"/>
					<path class="st23" d="M159.2,380.7l2.5-1.6c0.2,0.1,0.4,0.3,0.6,0.4l-2.5,1.6C159.6,380.9,159.4,380.8,159.2,380.7"/>
					<path class="st24" d="M159.8,381.1l2.5-1.6c0.9,0.7,1.6,1.6,2.1,2.6l-2.5,1.6C161.4,382.7,160.7,381.8,159.8,381.1"/>
					<path class="st23" d="M161.9,383.7l2.5-1.6c0.1,0.2,0.2,0.5,0.3,0.7l-2.5,1.6C162.1,384.2,162,383.9,161.9,383.7"/>
					<path class="st22" d="M162.1,384.4l2.5-1.6c0.1,0.2,0.1,0.4,0.2,0.6l-2.5,1.6C162.3,384.8,162.2,384.6,162.1,384.4"/>
					<path class="st21" d="M162.3,385l2.5-1.6c0,0.2,0.1,0.3,0.1,0.5l-2.5,1.6C162.4,385.3,162.4,385.1,162.3,385"/>
					<path class="st20" d="M162.4,385.5l2.5-1.6c0,0.2,0,0.3,0.1,0.5l-2.5,1.6C162.5,385.8,162.4,385.6,162.4,385.5"/>
					<path class="st19" d="M162.5,385.9l2.5-1.6c0,0.1,0,0.2,0,0.3l-2.5,1.6C162.5,386.1,162.5,386,162.5,385.9"/>
				</g>
			</g>
		</g>
	</g>
	<g>
		<path class="st16" d="M67.6,426.7l2.5,0.5l42.5,8.4v7.1l-5.5-1.3l-29.3-6.8l-5.3-1.2h0c0,1.3-0.1,2.5-0.1,3.8c0,0,0,0,0,0.1
			c0,0.3,0,0.7,0,1c0,0.1,0,0.1,0,0.2c0,0.3,0,0.6,0,0.9c0,0.1,0,0.1,0,0.2c0,0.3,0,0.6,0,0.9c0,0.1,0,0.1,0,0.2c0,0.3,0,0.6,0,0.9
			c0,0.1,0,0.1,0,0.2c0,0.3,0,0.6,0,0.9c0,0.1,0,0.1,0,0.2c0,0.3,0,0.6,0,1c0,0,0,0.1,0,0.1c0,0.3,0,0.7,0,1c0,0,0,0.1,0,0.1
			c-0.1,1.9-0.1,3.7-0.2,5.5c0,0,0,0,0,0c0,0.4,0,0.7,0,1c0,0,0,0.1,0,0.1c0,0.3,0,0.6,0,1c0,0.1,0,0.1,0,0.2c0,0.3,0,0.6,0,0.9
			c0,0.1,0,0.2,0,0.2c0,0.3,0,0.5,0,0.8c0,0.1,0,0.2,0,0.2c0,0.3,0,0.5,0,0.8c0,0.1,0,0.2,0,0.2c0,0.3,0,0.5,0,0.8
			c0,0.1,0,0.1,0,0.2c0,0.3,0,0.6,0,0.9c0,0.1,0,0.1,0,0.2c0,0.3,0,0.6,0,0.9c0,0,0,0.1,0,0.1c-0.1,1.3-0.1,2.6-0.2,3.9
			c0,0.4,0,0.8-0.1,1.3c0,0,0,0,0,0c0,0.3,0,0.6,0,0.9c0,0.1,0,0.1,0,0.2c0,0.3,0,0.5,0,0.8c0,0.1,0,0.1,0,0.2c0,0.3,0,0.5,0,0.8
			c0,0.1,0,0.1,0,0.2c0,0.3,0,0.5,0,0.8c0,0.1,0,0.1,0,0.2c0,0.3,0,0.5,0,0.8c0,0.1,0,0.1,0,0.2c0,0.3,0,0.5,0,0.8
			c0,0.1,0,0.1,0,0.2c0,0.3,0,0.5,0,0.8c0,0.1,0,0.1,0,0.2c0,0.3,0,0.5,0,0.8c0,0.1,0,0.1,0,0.2c0,0.3,0,0.6,0,0.9c0,0,0,0,0,0
			c-0.1,1.3-0.1,2.5-0.2,3.7c0,0,0,0,0,0.1c0,0.3,0,0.5,0,0.8c0,0.1,0,0.1,0,0.2c0,0.2,0,0.5,0,0.7c0,0.1,0,0.1,0,0.2
			c0,0.2,0,0.5,0,0.7c0,0.1,0,0.1,0,0.2c0,0.2,0,0.5,0,0.7c0,0.1,0,0.1,0,0.2c0,0.2,0,0.4,0,0.7c0,0.1,0,0.1,0,0.2
			c0,0.2,0,0.4,0,0.6c0,0.1,0,0.1,0,0.2c0,0.2,0,0.4,0,0.7c0,0.1,0,0.1,0,0.2c0,0.2,0,0.5,0,0.7c0,0,0,0.1,0,0.1
			c0,0.3,0,0.6-0.1,0.8c0,0,0,0,0,0c-0.1,1.1-0.1,2.2-0.2,3.3c0,0,0,0.1,0,0.1c0,0.2,0,0.5,0,0.7c0,0.1,0,0.1,0,0.2
			c0,0.2,0,0.4,0,0.6c0,0,0,0.1,0,0.1c0,0.2,0,0.4,0,0.6c0,0.1,0,0.1,0,0.2c0,0.2,0,0.4,0,0.6c0,0.1,0,0.1,0,0.2c0,0.2,0,0.4,0,0.6
			c0,0.1,0,0.1,0,0.2c0,0.2,0,0.4,0,0.6c0,0.1,0,0.1,0,0.2c0,0.2,0,0.4,0,0.6c0,0,0,0.1,0,0.1c0,0.2,0,0.4,0,0.6c0,0,0,0.1,0,0.1
			c0,0.6-0.1,1.1-0.1,1.7c0,0.6-0.1,1.2-0.1,1.8c0,0,0,0.1,0,0.1c0,0.2,0,0.4,0,0.6c0,0,0,0.1,0,0.1c0,0.2,0,0.3,0,0.5
			c0,0,0,0.1,0,0.1c0,0.2,0,0.3,0,0.5c0,0,0,0.1,0,0.1c0,0.2,0,0.3,0,0.5c0,0,0,0.1,0,0.1c0,0.2,0,0.3,0,0.5c0,0,0,0.1,0,0.1
			c0,0.2,0,0.3,0,0.5c0,0,0,0.1,0,0.1c0,0.2,0,0.3,0,0.5c0,0,0,0.1,0,0.1c0,0.2,0,0.4,0,0.6c0,0,0,0,0,0c-0.1,1.4-0.2,2.6-0.3,3.8
			c0,0,0,0,0,0c0,0.2,0,0.3,0,0.5c0,0,0,0,0,0c0,0.2,0,0.3,0,0.4c0,0,0,0,0,0c0,0.1,0,0.3,0,0.4c0,0,0,0,0,0c0,0.1,0,0.3,0,0.4
			c0,0,0,0,0,0c0,0.3,0,0.5-0.1,0.8c0,0,0,0.1,0,0.1c-0.1,0.6-0.1,1.2-0.2,1.7c-0.1,1.3-0.2,2.4-0.3,3.2c0,0.1,0,0.2,0,0.4
			c0,0.1,0,0.3,0,0.4c0,0.5-0.1,0.7-0.1,0.7l0,0v0l-3.3-1.8c0,0,1.9-42.3,1.8-87.9c0.4,0.2,0.8,0.3,1.2,0.3L67.6,426.7z"/>
		<polygon class="st16" points="119.7,441.7 112.6,530.6 110.7,530.6 112.6,442.7 		"/>
		<polygon class="st15" points="112.6,442.7 110.7,530.6 108.5,528.8 107.1,441.4 112.5,442.7 		"/>
		<polygon class="st16" points="165.4,435.5 166.9,517.1 163.8,517.2 159.1,436.4 		"/>
		<polygon class="st25" points="163.8,517.2 161.9,517.2 155.2,436.9 159.1,436.4 		"/>
		<path class="st15" d="M67.7,515.2c0-0.1,0-0.2,0-0.4c0-0.1,0-0.2,0-0.4c0.1-0.8,0.2-1.8,0.3-3.2c0-0.5,0.1-1.1,0.2-1.7
			c0,0,0-0.1,0-0.1c0-0.3,0-0.5,0.1-0.8c0,0,0,0,0,0c0-0.1,0-0.3,0-0.4c0,0,0,0,0,0c0-0.1,0-0.3,0-0.4c0,0,0,0,0,0
			c0-0.1,0-0.3,0-0.4c0,0,0,0,0,0c0-0.2,0-0.3,0-0.5c0,0,0,0,0,0c0.1-1.2,0.2-2.4,0.3-3.8c0,0,0,0,0,0c0-0.2,0-0.4,0-0.6
			c0,0,0-0.1,0-0.1c0-0.2,0-0.3,0-0.5c0,0,0-0.1,0-0.1c0-0.2,0-0.3,0-0.5c0,0,0-0.1,0-0.1c0-0.2,0-0.3,0-0.5c0,0,0-0.1,0-0.1
			c0-0.2,0-0.3,0-0.5c0,0,0-0.1,0-0.1c0-0.2,0-0.3,0-0.5c0,0,0-0.1,0-0.1c0-0.2,0-0.3,0-0.5c0,0,0-0.1,0-0.1c0-0.2,0-0.4,0-0.6
			c0,0,0-0.1,0-0.1c0-0.6,0.1-1.2,0.1-1.8c0-0.6,0.1-1.1,0.1-1.7c0,0,0-0.1,0-0.1c0-0.2,0-0.4,0-0.6c0,0,0-0.1,0-0.1
			c0-0.2,0-0.4,0-0.6c0-0.1,0-0.1,0-0.2c0-0.2,0-0.4,0-0.6c0-0.1,0-0.1,0-0.2c0-0.2,0-0.4,0-0.6c0-0.1,0-0.1,0-0.2
			c0-0.2,0-0.4,0-0.6c0-0.1,0-0.1,0-0.2c0-0.2,0-0.4,0-0.6c0,0,0-0.1,0-0.1c0-0.2,0-0.4,0-0.6c0-0.1,0-0.1,0-0.2c0-0.2,0-0.5,0-0.7
			c0,0,0-0.1,0-0.1c0.1-1.1,0.1-2.2,0.2-3.3c0,0,0,0,0,0c0-0.3,0-0.5,0.1-0.8c0,0,0-0.1,0-0.1c0-0.2,0-0.5,0-0.7c0-0.1,0-0.1,0-0.2
			c0-0.2,0-0.4,0-0.7c0-0.1,0-0.1,0-0.2c0-0.2,0-0.4,0-0.6c0-0.1,0-0.1,0-0.2c0-0.2,0-0.4,0-0.7c0-0.1,0-0.1,0-0.2
			c0-0.2,0-0.5,0-0.7c0-0.1,0-0.1,0-0.2c0-0.2,0-0.5,0-0.7c0-0.1,0-0.1,0-0.2c0-0.2,0-0.5,0-0.7c0-0.1,0-0.1,0-0.2
			c0-0.3,0-0.5,0-0.8c0,0,0,0,0-0.1c0.1-1.2,0.1-2.5,0.2-3.7c0,0,0,0,0,0c0-0.3,0-0.6,0-0.9c0-0.1,0-0.1,0-0.2c0-0.3,0-0.5,0-0.8
			c0-0.1,0-0.1,0-0.2c0-0.3,0-0.5,0-0.8c0-0.1,0-0.1,0-0.2c0-0.2,0-0.5,0-0.8c0-0.1,0-0.1,0-0.2c0-0.3,0-0.5,0-0.8
			c0-0.1,0-0.1,0-0.2c0-0.3,0-0.5,0-0.8c0-0.1,0-0.1,0-0.2c0-0.3,0-0.5,0-0.8c0-0.1,0-0.1,0-0.2c0-0.3,0-0.5,0-0.8
			c0-0.1,0-0.1,0-0.2c0-0.3,0-0.6,0-0.9c0,0,0,0,0,0c0-0.4,0-0.8,0.1-1.3c0.1-1.3,0.1-2.6,0.2-3.9c0,0,0-0.1,0-0.1
			c0-0.3,0-0.6,0-0.9c0-0.1,0-0.1,0-0.2c0-0.3,0-0.6,0-0.9c0-0.1,0-0.1,0-0.2c0-0.3,0-0.5,0-0.8c0-0.1,0-0.2,0-0.2
			c0-0.3,0-0.5,0-0.8c0-0.1,0-0.2,0-0.2c0-0.3,0-0.5,0-0.8c0-0.1,0-0.2,0-0.2c0-0.3,0-0.6,0-0.9c0-0.1,0-0.1,0-0.2c0-0.3,0-0.6,0-1
			c0,0,0-0.1,0-0.1c0-0.3,0-0.7,0-1c0,0,0,0,0,0c0.1-1.8,0.1-3.7,0.2-5.5c0,0,0-0.1,0-0.1c0-0.3,0-0.7,0-1c0,0,0-0.1,0-0.1
			c0-0.3,0-0.6,0-1c0-0.1,0-0.1,0-0.2c0-0.3,0-0.6,0-0.9c0-0.1,0-0.1,0-0.2c0-0.3,0-0.6,0-0.9c0-0.1,0-0.1,0-0.2c0-0.3,0-0.6,0-0.9
			c0-0.1,0-0.1,0-0.2c0-0.3,0-0.6,0-0.9c0-0.1,0-0.1,0-0.2c0-0.3,0-0.7,0-1c0,0,0,0,0-0.1c0-1.2,0.1-2.5,0.1-3.8l5.3,1.2
			c0.3,56.7-6.3,81.3-6.3,81.3h-3.8l0,0C67.7,516,67.7,515.7,67.7,515.2z"/>
		<path class="st16" d="M131.5,440.1c-0.9,42.2-5.2,60.9-5.2,60.9H123c0,0,2.3-25.5,3.5-60.2L131.5,440.1z"/>
		<path class="st15" d="M123,501l-2.8-1.8c0,0,1.8-25.1,2.5-57.9l3.9-0.5C125.3,475.6,123,501,123,501z"/>
		<polygon class="st26" points="112.5,442.7 112.5,435.6 113,435.7 115.1,435.5 166.1,428.9 166.1,435.5 165.4,435.5 159.1,436.4 
			155.2,436.9 131.5,440.1 126.5,440.8 122.6,441.3 119.7,441.7 112.6,442.7 		"/>
		<path class="st27" d="M115.1,432.6c0-2.3,1-4.4,2.8-6c1.6-1.5,3.9-2.6,6.5-2.9l30.4-3.5c0.2,0,0.3,0,0.5,0c0,0,0.1,0,0.1,0
			c0.1,0,0.3,0,0.4,0c0,0,0,0,0.1,0c0,0,0,0,0,0c0.1,0,0.3,0,0.4,0l0,0c0.2,0,0.3,0,0.5,0c0,0,0,0,0,0c2-0.1,3.9,0.3,5.5,1
			c0.1,0,0.2,0.1,0.3,0.1c3.1,1.5,5.3,4.2,5.5,7.5l-1.2,0.1l-0.8,0.1l-51,6.6V432.6z"/>
		<path class="st27" d="M51.1,314.7c-0.1-1.1,0.8-2,1.9-1.7c2.7,0.6,7.1,1.7,8,3.6c0,0,0,0,0,0.1c0.1,0.3,0.3,1.5,0.5,3.3
			c1.9,17.4,10.4,80.8,11.2,93.5c0,0.3,0,0.6,0,0.8l33.2,6.7c2.2,0.3,4.1,1.3,5.5,2.8c0.1,0.1,0.2,0.2,0.3,0.3c0,0,0,0.1,0.1,0.1
			c0.1,0.1,0.2,0.2,0.3,0.3c0,0,0,0,0,0c0.1,0.1,0.2,0.2,0.2,0.4c0,0,0,0,0,0.1c0.1,0.1,0.1,0.3,0.2,0.4c0,0,0,0,0,0
			c0.1,0.1,0.1,0.3,0.2,0.4c0,0,0,0,0,0c0.1,0.3,0.2,0.6,0.3,0.8c0,0,0,0,0,0c0,0.1,0.1,0.3,0.1,0.4c0,0.2,0.1,0.4,0.1,0.6
			c0,0,0,0,0,0c0,0.1,0,0.2,0,0.2c0,0.1,0,0.2,0,0.3v7.6l-0.5-0.1L70,427.2l-2.5-0.5l-0.2,0c-0.3-0.1-0.7-0.2-1.2-0.3
			c-1.3-0.5-2.8-1.4-2.7-2.4l0.1-1.9C63.5,421.1,52.9,329.8,51.1,314.7z"/>
		<path class="st28" d="M119.5,407.3C119.5,407.3,119.5,407.3,119.5,407.3C119.5,407.3,119.4,407.3,119.5,407.3
			C119.4,407.3,119.4,407.3,119.5,407.3c-0.1,0-0.2,0-0.2,0c0,0,0,0,0,0c0,0-0.1,0-0.1,0c0,0,0,0,0,0c0,0-0.1,0-0.1,0c0,0,0,0,0,0
			c-0.1,0-0.1,0-0.2,0c0,0,0,0-0.1,0c0,0-0.1,0-0.1,0c0,0,0,0-0.1,0c-0.1,0-0.1,0-0.2,0c0,0-0.1,0-0.1,0c-0.1,0-0.1,0-0.2,0
			c0,0-0.1,0-0.1,0c-0.1,0-0.1,0-0.2,0c0,0-0.1,0-0.1,0c-0.1,0-0.1,0-0.2,0c0,0-0.1,0-0.1,0c-0.1,0-0.2,0-0.3,0c0,0-0.1,0-0.1,0
			c-0.1,0-0.1,0-0.2,0c-0.1,0-0.2,0-0.3,0c0,0-0.1,0-0.1,0c-0.1,0-0.1,0-0.2,0c-0.1,0-0.1,0-0.2,0c-0.1,0-0.2,0-0.2,0
			c-0.1,0-0.1,0-0.2,0c-0.1,0-0.1,0-0.2,0c0,0-0.1,0-0.2,0c-0.1,0-0.3,0-0.4,0c-0.1,0-0.1,0-0.2,0c-0.3,0-0.6,0.1-0.9,0.1
			c0,0,0,0,0,0c-0.4,0.1-0.9,0.1-1.4,0.2c0,0,0,0,0,0c-0.6,0.1-1.2,0.1-1.8,0.2c0,0-0.1,0-0.1,0c-0.7,0.1-1.5,0.2-2.3,0.3
			c-0.1,0-0.1,0-0.2,0c-0.9,0.1-1.8,0.2-2.7,0.3c-0.2,0-0.3,0-0.5,0.1c-0.3,0-0.7,0.1-1,0.1c-0.2,0-0.5,0.1-0.7,0.1
			c-0.1,0-0.2,0-0.3,0c0,0-0.1,0-0.1,0c-0.4,0.1-0.8,0.1-1.2,0.2c-0.3,0-0.7,0.1-1,0.1c-0.2,0-0.4,0-0.5,0.1c-0.2,0-0.4,0-0.5,0.1
			c0,0-0.1,0-0.1,0c-0.1,0-0.3,0-0.4,0c-0.2,0-0.4,0.1-0.6,0.1c-0.8,0.1-1.7,0.2-2.5,0.3c-0.1,0-0.2,0-0.3,0
			c-0.9,0.1-1.8,0.2-2.7,0.3c-0.4,0.1-0.8,0.1-1.2,0.2c-0.8,0.1-1.6,0.2-2.3,0.3c-0.1,0-0.1,0-0.2,0c-1.9,0.2-3.8,0.5-5.6,0.7
			c-0.1,0-0.2,0-0.3,0c-1.1,0.1-2.2,0.3-3.2,0.4c-0.4,0.1-0.8,0.1-1.2,0.2c-0.6,0.1-1.1,0.1-1.6,0.2c0,0,0,0,0,0c0,0,0,0-0.1,0
			c-1.8,0.2-3.3,0.4-4.4,0.6c-0.8-12.7-9.3-76.1-11.2-93.5l0,0c0.2,1.8,19.4,61.7,59.3,74.2c0.5,7.2,0.8,9.5,1.1,13
			C121.1,407.2,120.3,407.2,119.5,407.3C119.5,407.3,119.5,407.3,119.5,407.3z"/>
		<path class="st27" d="M83.5,412.1c0-0.1,0-0.1,0-0.1c1.8-0.2,3.6-0.5,5.6-0.7c0.1,0,0.1,0,0.2,0c0.8-0.1,1.5-0.2,2.3-0.3
			c0.4-0.1,0.8-0.1,1.2-0.2c0.9-0.1,1.8-0.2,2.7-0.3c0.1,0,0.2,0,0.3,0c0.8-0.1,1.7-0.2,2.5-0.3c0.2,0,0.4-0.1,0.6-0.1
			c0.1,0,0.3,0,0.4,0c0,0,0.1,0,0.1,0c0.2,0,0.4,0,0.5-0.1c0.2,0,0.4,0,0.5-0.1c0.3,0,0.7-0.1,1-0.1c0.4-0.1,0.8-0.1,1.2-0.2
			c0,0,0.1,0,0.1,0c0.1,0,0.2,0,0.3,0c0.3,0,0.5-0.1,0.7-0.1c0.3,0,0.7-0.1,1-0.1c0.2,0,0.3,0,0.5-0.1c0.9-0.1,1.8-0.2,2.7-0.3
			c0.1,0,0.1,0,0.2,0c0.8-0.1,1.6-0.2,2.3-0.3c0,0,0.1,0,0.1,0c0.6-0.1,1.2-0.2,1.8-0.2c0,0,0,0,0,0c0.5-0.1,0.9-0.1,1.4-0.2
			c0,0,0,0,0,0c0.3,0,0.6-0.1,0.9-0.1c0.1,0,0.1,0,0.2,0c0.1,0,0.3,0,0.4,0c0.1,0,0.1,0,0.2,0c0.1,0,0.1,0,0.2,0c0.1,0,0.2,0,0.2,0
			c0.1,0,0.2,0,0.2,0c0.1,0,0.1,0,0.2,0c0.1,0,0.1,0,0.2,0c0,0,0.1,0,0.1,0c0.1,0,0.2,0,0.3,0c0.1,0,0.1,0,0.2,0c0,0,0.1,0,0.1,0
			c0.1,0,0.2,0,0.3,0c0,0,0.1,0,0.1,0c0.1,0,0.1,0,0.2,0c0,0,0.1,0,0.1,0c0.1,0,0.2,0,0.2,0c0,0,0.1,0,0.1,0c0.1,0,0.1,0,0.2,0
			c0,0,0.1,0,0.1,0c0.1,0,0.1,0,0.2,0c0,0,0,0,0.1,0c0,0,0.1,0,0.1,0c0,0,0,0,0.1,0c0.1,0,0.1,0,0.2,0c0,0,0,0,0,0c0,0,0.1,0,0.1,0
			c0,0,0,0,0,0c0,0,0.1,0,0.1,0c0,0,0,0,0,0c0,0,0.1,0,0.1,0c0,0,0,0,0,0c0,0,0.1,0,0.1,0c0,0,0,0,0,0c0,0,0,0,0.1,0
			c0.8-0.1,1.5-0.1,2.2-0.2c4.1-0.3,7.6-0.1,12.5,0.9l27.6,5.6c0.5,0.1,1,0.2,1.5,0.3C124.9,421.3,95.4,415.3,83.5,412.1z"/>
		<path class="st28" d="M162.6,421.1c-0.1,0-0.2-0.1-0.3-0.1c-1.6-0.7-3.5-1.1-5.5-1c0,0,0,0,0,0c-0.2,0-0.3,0-0.5,0l0,0l0,0
			c-0.1,0-0.3,0-0.4,0c0,0,0,0,0,0c0,0,0,0,0,0c0,0,0,0-0.1,0c-0.1,0-0.3,0-0.4,0c0,0-0.1,0-0.1,0c-0.2,0-0.3,0-0.5,0l-30.4,3.5
			c-2.6,0.3-4.9,1.4-6.5,2.9c-1.7,1.6-2.8,3.7-2.8,6v2.9l-2.1,0.3v-7.6c0-0.1,0-0.2,0-0.3c0-0.1,0-0.2,0-0.2c0,0,0,0,0,0
			c0-0.2,0-0.4-0.1-0.6c0-0.1-0.1-0.3-0.1-0.4c0,0,0,0,0,0c-0.1-0.3-0.2-0.6-0.3-0.8c0,0,0,0,0,0c-0.1-0.1-0.1-0.3-0.2-0.4
			c0,0,0,0,0,0c-0.1-0.1-0.1-0.3-0.2-0.4c0,0,0,0,0-0.1c-0.1-0.1-0.1-0.2-0.2-0.4c0,0,0,0,0,0c-0.1-0.1-0.2-0.2-0.3-0.3
			c0,0,0-0.1-0.1-0.1c-0.1-0.1-0.2-0.2-0.3-0.3c-1.3-1.5-3.3-2.5-5.5-2.8l-33.2-6.7c0-0.2,0-0.5,0-0.8c1.2-0.2,2.7-0.3,4.4-0.6
			c0,0,0,0,0.1,0c0,0,0,0,0,0c0.5-0.1,1.1-0.1,1.6-0.2c0.4-0.1,0.8-0.1,1.2-0.2c1-0.1,2.1-0.3,3.2-0.4c11.7,3.2,41.4,9.4,80.2,1.9
			c1.6,0.5,3,1.4,4,2.5c1,1.1,1.6,2.4,1.7,3.8c0,0.2,0,0.4,0,0.6v6.8c0,0.5-0.4,0.9-1,1C167.9,425.4,165.7,422.6,162.6,421.1z"/>
		<path class="st27" d="M61.4,319.8L61.4,319.8c-0.2-1.8-0.3-2.9-0.5-3.3c0,0,0,0,0-0.1l53-0.2c0,0,0,0,0,0
			c0.9,1.9,4.7,46.2,6.7,77.7C80.9,381.6,61.6,321.6,61.4,319.8z"/>
		<path class="st28" d="M52.6,312.8l51.6-0.3c0,0,8.4,1.2,9.7,3.8l-53,0.2C60,314.6,55.3,313.4,52.6,312.8
			C52.5,312.8,52.5,312.8,52.6,312.8z"/>
	</g>
	<g>
		<g class="st14">
			<g>
				<polygon class="st15" points="58.3,376.4 60.8,374.8 106.3,385.2 103.8,386.7 				"/>
			</g>
			<g>
				<polygon class="st15" points="109.2,393.2 111.8,391.6 112.8,442.7 110.3,442.3 				"/>
			</g>
			<g>
				<path class="st16" d="M58.3,376.4l45.5,10.4c3,0.7,5.2,3.4,5.4,6.5l1.1,49.1l-6.3-1.8l-1.4-47.3L59,383L58.3,376.4z"/>
			</g>
			<g class="st14">
				<defs>
					<path id="SVGID_3_" class="st14" d="M103.8,386.7l2.5-1.6c3,0.7,5.2,3.4,5.4,6.5l-2.5,1.6C109,390.2,106.8,387.4,103.8,386.7z"
						/>
				</defs>
				<clipPath id="SVGID_4_">
					<use xlink:href="#SVGID_3_"  style="overflow:visible;"/>
				</clipPath>
				<g class="st29">
					<path class="st18" d="M103.8,386.7l2.5-1.6c0.1,0,0.2,0.1,0.4,0.1l-2.5,1.6C104,386.8,103.9,386.8,103.8,386.7"/>
					<path class="st19" d="M104.2,386.8l2.5-1.6c0.1,0,0.3,0.1,0.4,0.1l-2.5,1.6C104.4,386.9,104.3,386.9,104.2,386.8"/>
					<path class="st20" d="M104.6,387l2.5-1.6c0.1,0.1,0.3,0.1,0.4,0.2l-2.5,1.6C104.8,387.1,104.7,387,104.6,387"/>
					<path class="st21" d="M105,387.1l2.5-1.6c0.2,0.1,0.3,0.1,0.4,0.2l-2.5,1.6C105.3,387.3,105.1,387.2,105,387.1"/>
					<path class="st22" d="M105.4,387.4l2.5-1.6c0.2,0.1,0.3,0.2,0.5,0.3l-2.5,1.6C105.8,387.5,105.6,387.4,105.4,387.4"/>
					<path class="st23" d="M105.9,387.7l2.5-1.6c0.2,0.1,0.4,0.3,0.6,0.4l-2.5,1.6C106.3,387.9,106.1,387.8,105.9,387.7"/>
					<path class="st24" d="M106.5,388.1l2.5-1.6c0.9,0.7,1.6,1.6,2.1,2.6l-2.5,1.6C108.1,389.7,107.4,388.8,106.5,388.1"/>
					<path class="st23" d="M108.6,390.7l2.5-1.6c0.1,0.2,0.2,0.5,0.3,0.7l-2.5,1.6C108.8,391.2,108.7,390.9,108.6,390.7"/>
					<path class="st22" d="M108.9,391.4l2.5-1.6c0.1,0.2,0.1,0.4,0.2,0.6L109,392C109,391.8,108.9,391.6,108.9,391.4"/>
					<path class="st21" d="M109,392l2.5-1.6c0,0.2,0.1,0.3,0.1,0.5l-2.5,1.6C109.1,392.3,109.1,392.1,109,392"/>
					<path class="st20" d="M109.1,392.5l2.5-1.6c0,0.2,0,0.3,0.1,0.5l-2.5,1.6C109.2,392.8,109.1,392.6,109.1,392.5"/>
					<path class="st19" d="M109.2,392.9l2.5-1.6c0,0.1,0,0.2,0,0.3l-2.5,1.6C109.2,393.1,109.2,393,109.2,392.9"/>
				</g>
			</g>
		</g>
	</g>
</g>
</svg>
