<?xml version="1.0" encoding="utf-8"?>
<!-- Generator: Adobe Illustrator 25.0.0, SVG Export Plug-In . SVG Version: 6.00 Build 0)  -->
<svg version="1.1" id="Layer_1" xmlns="http://www.w3.org/2000/svg" xmlns:xlink="http://www.w3.org/1999/xlink" x="0px" y="0px"
	 viewBox="0 0 300 300" style="enable-background:new 0 0 300 300;" xml:space="preserve">
<style type="text/css">
	.st0{opacity:8.000000e-02;fill:#E13856;enable-background:new    ;}
	.st1{fill:#C4E0FB;}
	.st2{fill:#929292;}
	.st3{fill:#ACACAC;}
	.st4{fill:#BEBEBE;}
	.st5{fill:#F5F5F5;}
	.st6{fill:#E02020;}
	.st7{fill:#70A0CC;}
	.st8{fill:#8BBCE8;}
	.st9{fill:#FFFFFF;}
	.st10{fill:#2F89CC;}
	.st11{fill:#848484;}
	.st12{fill:#C9C9C9;}
	.st13{fill:#E8E8E8;}
	.st14{fill:#75C5F2;}
	.st15{fill:#F4CEBB;}
	.st16{fill:#F2B49F;}
	.st17{fill:#52B7EF;}
	.st18{fill:#B3E9FF;}
	.st19{fill:#734939;}
	.st20{fill:#523533;}
	.st21{fill:#8C5D49;}
	.st22{fill:#B1D5EF;}
	.st23{fill:none;stroke:#75C5F2;stroke-width:2;stroke-linecap:round;stroke-linejoin:round;stroke-miterlimit:10;}
	.st24{opacity:0.4;fill:#FFFFFF;}
</style>
<g id="Page-1">
	<g id="For-you-and-your-partner-Copy-4">
		<g id="Group-4">
			<circle id="Mask-Copy-2" class="st0" cx="150" cy="150" r="150"/>
		</g>
	</g>
</g>
<ellipse class="st1" cx="150" cy="244.5" rx="135.5" ry="7.8"/>
<polygon class="st2" points="92.2,110.4 91.1,110.4 91.1,99 102.5,64.2 149.1,73.9 169.7,98.9 168.8,99.6 148.5,75 103.3,65.5 
	92.2,99.2 "/>
<rect x="89.3" y="108.4" class="st2" width="4.7" height="2.7"/>
<rect x="90.4" y="107.6" class="st3" width="2.4" height="4.3"/>
<path class="st3" d="M93.3,99.1c0,0.9-0.7,1.6-1.6,1.6S90,100,90,99.1s0.7-1.6,1.6-1.6l0,0C92.5,97.5,93.3,98.2,93.3,99.1z"/>
<path class="st3" d="M150.4,74.4c0,0.9-0.7,1.6-1.6,1.6s-1.6-0.7-1.6-1.6c0-0.9,0.7-1.6,1.6-1.6C149.7,72.8,150.4,73.5,150.4,74.4
	L150.4,74.4z"/>
<path class="st3" d="M104.5,64.8c0,0.9-0.7,1.6-1.6,1.6s-1.6-0.7-1.6-1.6c0-0.9,0.7-1.6,1.6-1.6l0,0
	C103.8,63.2,104.5,63.9,104.5,64.8z"/>
<polygon class="st4" points="106,228.6 133.6,228.6 128.5,112 106.8,112 "/>
<rect x="94.8" y="225" class="st3" width="48.4" height="18.1"/>
<path class="st5" d="M98.8,81.7h38.8c2.7,0,4.8,2.2,4.8,4.8V112l0,0H94l0,0V86.5C94,83.8,96.2,81.7,98.8,81.7L98.8,81.7z"/>
<rect x="94" y="112" class="st3" width="48.4" height="3.6"/>
<rect x="97.3" y="115.6" class="st3" width="41.7" height="5.9"/>
<path class="st3" d="M136.9,124.2H99.6c-1.2,0-2.2-1-2.2-2.2v-0.8h0.8v0.8c0,0.7,0.6,1.3,1.3,1.3H137c0.7,0,1.3-0.6,1.3-1.3v0v-0.8
	h0.8v0.8C139.1,123.2,138.1,124.2,136.9,124.2C136.9,124.2,136.9,124.2,136.9,124.2z"/>
<path class="st3" d="M139.5,104.7c0,1-0.8,1.9-1.9,1.9c-1,0-1.9-0.8-1.9-1.9c0-1,0.8-1.9,1.9-1.9c0,0,0,0,0,0
	C138.6,102.8,139.5,103.7,139.5,104.7z"/>
<path class="st3" d="M139.5,99.6c0,1-0.8,1.9-1.9,1.9c-1,0-1.9-0.8-1.9-1.9c0-1,0.8-1.9,1.9-1.9C138.6,97.7,139.5,98.5,139.5,99.6
	C139.5,99.6,139.5,99.6,139.5,99.6z"/>
<rect x="100.3" y="85.4" class="st6" width="33" height="23.4"/>
<rect x="100.3" y="105" class="st7" width="33" height="3.8"/>
<rect x="101.7" y="105.8" class="st8" width="2.4" height="2.2"/>
<rect x="105" y="105.8" class="st8" width="2.4" height="2.2"/>
<rect x="108.2" y="105.8" class="st8" width="2.4" height="2.2"/>
<rect x="100.3" y="85.4" class="st7" width="33" height="3.3"/>
<path class="st9" d="M117.5,93.4L117.5,93.4l-0.7,0.1l0,0l-0.1-0.6l-0.3,1.2l0,0l0,0l-0.2-0.9l-0.4,2.8l0,0l0,0l-0.3-5.1l-0.4,3.2
	l0,0l0,0l-0.3-1.1l-0.2,0.5l0,0h-2.1l0,0l-0.1-0.6l-0.3,1.2l0,0l0,0l-0.2-0.9l-0.4,2.8l0,0l0,0l-0.3-5.1l-0.4,3.2l0,0l0,0l-0.3-1.1
	l-0.2,0.5l0,0h-2.1l0,0l-0.1-0.6l-0.3,1.2l0,0l0,0l-0.2-0.9l-0.4,2.8l0,0l0,0l-0.3-5.1l-0.4,3.2l0,0l0,0l-0.3-1.1l-0.2,0.5l0,0h-0.9
	l0,0l0,0h0.9l0.2-0.6l0,0l0,0l0.3,1.1l0.5-3.4l0,0l0,0l0.3,5.2l0.4-2.6l0,0l0,0l0.3,0.9l0.3-1.3 M107.9,92.7l0.1,0.8h2l0.2-0.6l0,0
	l0,0l0.3,1.1l0.5-3.4l0,0l0,0l0.3,5.2l0.4-2.6l0,0l0,0L112,94l0.3-1.3l0,0l0,0l0.1,0.8h2l0.2-0.6l0,0l0,0l0.3,1.1l0.5-3.4l0,0l0,0
	l0.1,5.1L116,93l0,0l0,0l0.3,0.9l0.3-1.3l0,0l0,0l0.1,0.8L107.9,92.7z"/>
<path class="st9" d="M116.8,100.6l-0.1-0.8l0,0l0,0l-0.3,1.3l-0.3-0.9l0,0l0,0l-0.4,2.6l-0.3-5.2l0,0l0,0l-0.5,3.4l-0.3-1.1l0,0l0,0
	l-0.2,0.6h-6.8l-0.1-0.8l0,0l0,0l-0.3,1.3l-0.3-0.9l0,0l0,0l-0.4,2.6l-0.8-5.2l0,0l0,0l-0.5,3.4L105,100l0,0l0,0l-0.2,0.6h-0.9l0,0
	l0,0h0.9l0,0l0.2-0.5l0.3,1.1l0,0l0,0l0.4-3.2l0.3,5.1l0,0l0,0l0.4-2.8l0.2,0.9l0,0l0,0l0.3-1.2l0.1,0.6l0,0h6.8l0,0l0.2-0.5
	l0.3,1.1l0,0l0,0l0.4-3.2l0.3,5.1l0,0l0,0l0.4-2.8l0.2,0.9l0,0l0,0l0.3-1.2l0.1,0.6l0,0h0.8v-0.1L116.8,100.6z"/>
<rect x="121.2" y="89.8" class="st9" width="2.7" height="1.9"/>
<rect x="124.4" y="89.8" class="st9" width="6.2" height="0.3"/>
<rect x="124.4" y="90.4" class="st9" width="6.2" height="0.3"/>
<rect x="124.4" y="91" class="st9" width="6.2" height="0.3"/>
<rect x="121.2" y="93.5" class="st9" width="2.7" height="1.9"/>
<rect x="124.4" y="93.5" class="st9" width="6.2" height="0.3"/>
<rect x="124.4" y="94.1" class="st9" width="6.2" height="0.3"/>
<rect x="124.4" y="94.7" class="st9" width="6.2" height="0.3"/>
<rect x="121.2" y="97.2" class="st9" width="2.7" height="1.9"/>
<rect x="124.4" y="97.2" class="st9" width="6.2" height="0.3"/>
<rect x="124.4" y="97.8" class="st9" width="6.2" height="0.3"/>
<rect x="124.4" y="98.5" class="st9" width="6.2" height="0.3"/>
<rect x="121.2" y="100.9" class="st9" width="2.7" height="1.9"/>
<rect x="124.4" y="100.9" class="st9" width="6.2" height="0.3"/>
<rect x="124.4" y="101.5" class="st9" width="6.2" height="0.3"/>
<rect x="124.4" y="102.2" class="st9" width="6.2" height="0.3"/>
<rect x="96.1" y="83.4" class="st8" width="2.5" height="1"/>
<path class="st10" d="M140.5,133.4c-2.3,0-5.4-0.1-9.7-0.2c-3-0.1-5.3-2.6-5.3-5.5v-12.3h1.9v12.3c0,1.9,1.5,3.5,3.5,3.6
	c12,0.5,14.8,0.1,15.3-0.1c2.1-0.9,3.7-4.9,5.3-9.2c3-8,6.8-17.9,17.5-18.1h1v1.9h-1c-9.4,0.1-12.8,9-15.8,16.8
	c-1.8,4.9-3.4,9.1-6.3,10.3C146.3,133.2,145,133.4,140.5,133.4z"/>
<path class="st10" d="M125,143.5h-1.9v-4.8c0-1.8,1.5-3.3,3.3-3.3c0,0,0,0,0,0c12.3,0.2,21.1-0.2,22.9-1.1c3.3-1.6,4.7-6.8,6.2-12.3
	c2.1-7.8,4.5-16.7,13.4-17.1h1l0.1,1.9h-1c-7.5,0.3-9.6,8.1-11.6,15.6c-1.6,6-3.1,11.6-7.3,13.5c-2.9,1.3-16.2,1.3-23.8,1.2
	c-0.4,0-0.7,0.1-1,0.4c-0.3,0.3-0.4,0.6-0.4,1V143.5z"/>
<path class="st10" d="M114.8,141.6h-1.9V137c0-0.1-0.1-0.1-0.1-0.1h-2c-1.4,0-2.5-1.1-2.5-2.5v-20.2h1.9v20.2c0,0.3,0.2,0.5,0.5,0.5
	h2c1.1,0,2.1,0.9,2.1,2.1L114.8,141.6z"/>
<rect x="94" y="112" class="st7" width="48.4" height="1.3"/>
<path class="st4" d="M106.7,113.2h5.1l0,0l0,0c0,1.3-1,2.3-2.3,2.3H109C107.8,115.6,106.7,114.5,106.7,113.2L106.7,113.2
	L106.7,113.2z"/>
<path class="st4" d="M108.1,113.2h2.5l0,0v2.9c0,0.7-0.6,1.2-1.2,1.2l0,0c-0.7,0-1.2-0.6-1.2-1.2V113.2L108.1,113.2z"/>
<path class="st4" d="M123.9,113.2h5.2l0,0l0,0c0,1.3-1,2.3-2.3,2.3h-0.5C124.9,115.6,123.9,114.5,123.9,113.2L123.9,113.2
	L123.9,113.2z"/>
<path class="st4" d="M125.2,113.2h2.5l0,0v2.9c0,0.7-0.6,1.2-1.2,1.2l0,0c-0.7,0-1.2-0.6-1.2-1.2V113.2L125.2,113.2z"/>
<polygon class="st3" points="129.5,184 108.3,184 108.4,166.6 129.4,166.6 "/>
<polygon class="st3" points="133.2,161.2 104.6,161.2 104.7,166.6 133.1,166.6 "/>
<polygon class="st3" points="129.9,161.2 107.9,161.2 108,143.7 129.8,143.7 "/>
<polygon class="st11" points="129.9,151.2 107.9,151.2 108,150.4 129.8,150.4 "/>
<polygon class="st4" points="128.7,183.4 109.1,183.4 109.9,167.2 127.9,167.2 "/>
<circle class="st3" cx="118.5" cy="175.1" r="4.6"/>
<circle class="st4" cx="118.5" cy="175.1" r="4"/>
<rect x="117.8" y="170.8" class="st12" width="1.4" height="8.7"/>
<rect x="124" y="175.1" class="st11" width="1.7" height="0.5"/>
<rect x="111.2" y="175.1" class="st11" width="1.7" height="0.5"/>
<rect x="118.2" y="180.9" class="st11" width="0.5" height="1.7"/>
<rect x="118.2" y="168.1" class="st11" width="0.5" height="1.7"/>
<rect x="113.1" y="179.7" transform="matrix(0.7071 -0.7071 0.7071 0.7071 -93.8519 133.2858)" class="st11" width="1.7" height="0.5"/>
<rect x="122.1" y="170.6" transform="matrix(0.7071 -0.7071 0.7071 0.7071 -84.8075 137.0281)" class="st11" width="1.7" height="0.5"/>
<rect x="113.7" y="170" transform="matrix(0.7071 -0.7071 0.7071 0.7071 -87.4463 130.6332)" class="st11" width="0.5" height="1.7"/>
<rect x="122.8" y="179.1" transform="matrix(0.7071 -0.7071 0.7071 0.7071 -91.1954 139.6748)" class="st11" width="0.5" height="1.7"/>
<path class="st3" d="M116.4,143.7h-5.2l0,0l0,0c0-1.3,1-2.3,2.3-2.3h0.5C115.4,141.3,116.4,142.4,116.4,143.7L116.4,143.7
	L116.4,143.7z"/>
<path class="st3" d="M115.1,143.7h-2.5l0,0v-2.9c0-0.7,0.6-1.2,1.2-1.2l0,0c0.7,0,1.2,0.6,1.2,1.2V143.7L115.1,143.7z"/>
<path class="st3" d="M126.6,143.7h-5.2l0,0l0,0c0-1.3,1-2.3,2.3-2.3h0.5C125.5,141.3,126.6,142.4,126.6,143.7L126.6,143.7
	L126.6,143.7L126.6,143.7z"/>
<path class="st3" d="M125.3,143.7h-2.5l0,0v-2.9c0-0.7,0.6-1.2,1.2-1.2l0,0c0.7,0,1.2,0.6,1.2,1.2L125.3,143.7
	C125.3,143.7,125.3,143.7,125.3,143.7z"/>
<rect x="97.3" y="219.6" class="st3" width="43.3" height="5.4"/>
<path class="st3" d="M107.9,200.5H130c4.8,0,8.6,3.9,8.6,8.6v10.4l0,0H99.3l0,0v-10.4C99.3,204.4,103.1,200.5,107.9,200.5
	C107.9,200.5,107.9,200.5,107.9,200.5z"/>
<path class="st3" d="M107.5,195.1h23c3,0,5.4,2.4,5.4,5.4l0,0l0,0H102l0,0l0,0C102,197.5,104.5,195.1,107.5,195.1z"/>
<rect x="99.3" y="205.7" class="st11" width="39.4" height="0.8"/>
<rect x="99.3" y="218.8" class="st11" width="39.4" height="0.8"/>
<rect x="193.4" y="233.6" class="st13" width="33.5" height="3.1"/>
<rect x="208.4" y="51.9" class="st13" width="3.7" height="184.8"/>
<rect x="193.3" y="236.7" class="st4" width="3.6" height="2.9"/>
<circle class="st2" cx="195" cy="241.5" r="3.4"/>
<path class="st4" d="M196.4,241.5c0,0.8-0.6,1.4-1.4,1.4c-0.8,0-1.4-0.6-1.4-1.4c0-0.8,0.6-1.4,1.4-1.4S196.4,240.7,196.4,241.5
	C196.4,241.5,196.4,241.5,196.4,241.5z"/>
<rect x="223.4" y="236.7" class="st4" width="3.6" height="2.9"/>
<circle class="st2" cx="225.1" cy="241.5" r="3.4"/>
<path class="st4" d="M226.5,241.5c0,0.8-0.6,1.4-1.4,1.4c-0.8,0-1.4-0.6-1.4-1.4c0-0.8,0.6-1.4,1.4-1.4S226.5,240.7,226.5,241.5
	C226.5,241.5,226.5,241.5,226.5,241.5z"/>
<rect x="199.8" y="51.9" class="st13" width="20.3" height="1.8"/>
<path class="st13" d="M197.5,55.9c-1.7,0.1-3.2-1.1-3.3-2.8c0,0,0,0,0-0.1v-0.4h0.8v0.4c0.1,1.2,1.1,2.2,2.4,2.1c0.1,0,0.1,0,0.2,0
	c2.1,0,2.3-1.4,2.3-1.4v-0.4l0.8,0.1v0.4C200.5,53.8,200.3,55.9,197.5,55.9z"/>
<path class="st13" d="M222.4,55.9c-2.9,0-3.1-2.1-3.1-2.1v-0.4l0.8-0.1v0.4c0,0,0.2,1.4,2.3,1.4c1.2,0.2,2.4-0.6,2.6-1.8
	c0-0.1,0-0.2,0-0.2v-0.4h0.8v0.4c-0.1,1.7-1.5,3-3.2,2.9C222.5,55.9,222.5,55.9,222.4,55.9z"/>
<path class="st9" d="M195.6,56.6h3.8c2.3,0,5.3,1.9,5.3,4.2v10.7c0.1,2.4-1.8,4.3-4.2,4.4c0,0,0,0-0.1,0h-6.1c-2.4,0-4.2-2-4.2-4.4
	c0,0,0,0,0,0V60.6C190.2,58.4,193.5,56.6,195.6,56.6z"/>
<path class="st5" d="M204.3,61.1c0-2.2-2.8-4-4.9-4h-3.6c-2,0-5.1,1.7-5.1,3.8v4h13.6L204.3,61.1z"/>
<path class="st14" d="M190.7,65v6.2c0,2.2,1.7,4,3.9,4.1h5.7c2.2,0,4-1.9,4-4.1c0,0,0,0,0,0V65H190.7z"/>
<rect x="196.4" y="77.4" class="st5" width="2.2" height="0.9"/>
<rect x="196.8" y="75.3" class="st14" width="1.3" height="2.1"/>
<rect x="197.2" y="79.8" class="st14" width="0.5" height="0.5"/>
<rect x="197.1" y="80.3" class="st5" width="0.8" height="0.5"/>
<rect x="196.8" y="80.8" class="st5" width="1.3" height="0.7"/>
<path class="st14" d="M198,81.5v2.7c0,0.3-0.2,0.5-0.5,0.5c-0.2,0-0.4-0.2-0.5-0.5v-2.7H198z"/>
<path class="st5" d="M196.6,78.3h1.7l0,0V79c0,0.5-0.4,0.8-0.8,0.8l0,0l0,0c-0.5,0-0.8-0.4-0.8-0.8c0,0,0,0,0,0L196.6,78.3
	L196.6,78.3z"/>
<rect x="197" y="81.5" class="st9" width="0.9" height="1"/>
<path class="st14" d="M203.1,61.5c0-0.3-0.2-0.5-0.5-0.5h-10.1c-0.3,0-0.5,0.2-0.5,0.5V63h11.2V61.5z"/>
<path class="st9" d="M191.9,63v7.5c0,0.3,0.2,0.5,0.5,0.5h10.1c0.3,0,0.5-0.2,0.5-0.5V63H191.9z"/>
<rect x="192.8" y="69.7" class="st5" width="6.4" height="0.4"/>
<rect x="192.8" y="68.9" class="st5" width="6.4" height="0.4"/>
<rect x="192.8" y="68.2" class="st5" width="6.4" height="0.4"/>
<rect x="192.8" y="67.5" class="st5" width="6.4" height="0.4"/>
<polygon class="st6" points="201.5,64.5 201.5,63.5 200.7,63.5 200.7,64.5 199.7,64.5 199.7,65.4 200.7,65.4 200.7,66.4 201.5,66.4 
	201.5,65.4 202.5,65.4 202.5,64.5 "/>
<path class="st9" d="M197.5,55L197.5,55c0.3,0,0.6,0.3,0.6,0.6v1l0,0h-1.2l0,0v-1C196.9,55.3,197.1,55,197.5,55L197.5,55z"/>
<rect x="197.3" y="83.6" class="st14" width="0.4" height="58"/>
<path class="st15" d="M212.9,150.8c-0.7-4.7-6.1-8.3-6.1-8.3c0.9-0.4,1.8-0.8,2.5-1.4c2-1.3,4.3-3,4.3-3l8.9,5.1
	c-0.2,0.1-0.7,0.5-1.5,1.1C218.3,146.4,212.9,150.8,212.9,150.8z"/>
<path class="st16" d="M221.1,144.3c-4.2,0.9-8.6-0.3-11.7-3.2c2-1.3,4.3-3,4.3-3l8.9,5.1C222.4,143.4,221.8,143.8,221.1,144.3z"/>
<path class="st17" d="M194,165.3c-6.6,3.2-16.2,10.9-16.2,10.9c-5.5-4.5-9.7-10.5-12-17.2c8.6-4.1,14.4-10,22.6-13.8
	s13.4-3.8,18.1-2.9c2.6,0.5,7.1,5.5,6.3,8.6c-0.5,2.2-3.4,5.2-6.9,7.9c-3,2.4-6.4,4.3-10,5.8C195.2,164.7,194.6,165,194,165.3z"/>
<path class="st18" d="M202.4,140.4c0,0,9.4,12.8,15.2,16c4.2,2.3-6.1,10.2-11.9,13.7c-3,1.9-16.5,10.4-18.6,10.7
	c-2.2,0.2-103.1-1-103.7-1.2s-27.5,3.7-27.9,1.3c-0.4-2.4,18.4-8.7,20.2-12.9c1.8-4.2,3.8-16.6,11.7-17.1s18.1,3.7,26.4,3.1
	c8.3-0.5,22.9-0.9,30.3-2.5c7.4-1.5,17.2-1.9,24-4.3C174.9,145,194.8,139.4,202.4,140.4z"/>
<path class="st3" d="M201.7,131.7l-1.4-0.6c1.8-3.6,4.5-6.5,7.9-8.6l0.8,1.3C205.9,125.7,203.4,128.4,201.7,131.7z"/>
<path class="st15" d="M226,120.7c-2.4,0.4-4.6,1.3-6.5,2.7c-2.7,2.2-4.1,3.2-5.3,3.5c-1.2,0.3-2.3,0.3-2.5,0.7
	c-0.2,0.5-0.3,1.1-0.1,1.6c0,0-4.9,4.6-3.3,7.6c1.6,2.4,3.9,4.3,6.5,5.4c1.6,0.7,3.3,1.1,5,1.4c5.1,0.9,15-4.9,16.5-9
	C237.3,132,232.8,121,226,120.7z"/>
<path class="st19" d="M224.2,128.2c0.1-0.4,0.2-0.8,0.2-1.1c-0.2-1-0.6-1.9-1.2-2.6c-0.7-0.9-2-1.2-2.3-0.1
	c-0.1,0.6,0.8,1.3,1.2,1.6c0.6,0.6,1.2,1.4,1.6,2.2C223.9,128.6,224.1,128.5,224.2,128.2z"/>
<path class="st20" d="M219.6,131.2L219.6,131.2c-1.6-0.1-2.7-1.5-2.6-3.1c0-0.1,0-0.2,0-0.3c0-0.2,0.1-0.3,0.3-0.3
	c0.2,0,0.3,0.2,0.3,0.3c-0.1,0.7,0.1,1.4,0.5,1.9c0.4,0.5,1,0.7,1.6,0.8c0.2,0,0.3,0.2,0.2,0.3C219.9,131.1,219.8,131.1,219.6,131.2
	L219.6,131.2z"/>
<path class="st21" d="M239.9,134.1c1.5,1.9,0,4.2-0.1,3.5s-0.4-1.7-0.4-1.8c0,0.2-1.5,3.9-7,6.8c-0.2,0.1-0.5,0.3-0.7,0.4
	c-7.3,3.6-11.7,0.6-11.7,0.6c0-1.7-0.5-3.3-1.5-4.7l4-4.2c1.8-0.9,3.5-2.2,4.9-3.7c0.6-0.7,1.2-1.5,1.5-2.3l0,0
	c0.5-1.2,0.5-2.6,0-3.9c-2-4.9-6.1-4.4-6.7-5.3c-0.6-0.9,2.8-1.5,2.8-1.5s-4.2-1.9,0.7-2.5c3-0.2,5.9,0.9,8.1,3
	c-0.1-0.2-1.9-4.5,1.1-1.7c3,2.8,4.3,8.2,4.4,8.5c0-0.2-0.3-2.8,0.4-1.6c0.8,1.3,0.9,5.2,0.9,5.3c0-0.1,0.7-1.6,1.1-0.1
	C242.2,131.7,239.9,134.1,239.9,134.1z"/>
<path class="st19" d="M231.6,142.9L231.6,142.9c-7.3,3.6-11.7,0.7-11.7,0.7c0-1.7-0.5-3.3-1.5-4.7l4-4.2c1.8-0.9,3.5-2.2,4.9-3.7
	C227.3,132.5,227.1,139.4,231.6,142.9z"/>
<path class="st15" d="M222.3,134.7c1.1-0.4,3.7,0,3.2,2.3c-0.6,2.6-6.1,4.7-7.2,1.8C218,138.2,221.2,135.1,222.3,134.7z"/>
<path class="st10" d="M189.6,143.5c-1.2,0-2.5-0.3-3.5-0.7c-1-0.5-1.9-1.1-2.6-1.9c-1.3-0.4-2.4-1.1-3.2-2
	c-2.7-3.1-3.6-9.4-4.5-16.1c-1.1-7.6-2.4-16.3-6.5-16.7l-1-0.1l0.1-0.7l0,0l0.1-1.5h1c8,0.2,9.9,12.2,11.5,22.8
	c0.4,2.3,0.7,4.5,1.1,6.5c0.3,2.3,1.2,4.5,2.7,6.5l0.6,0.1c2.2,0.1,4.4-0.4,6.1-1.5c2.2-1.8,3.9-3.8,5.2-6.1
	c0.8-1.4,2.4-2.2,3.9-1.9c1.2,0.2,2,1.1,1.9,2.1c0,1.6-2.9,8.9-9.1,10.8C192.1,143.3,190.8,143.5,189.6,143.5z M186.6,141.3l0.4,0.2
	c1.7,0.7,3.7,0.7,5.4,0.1c5.1-1.6,7.9-8.2,7.9-9.3c0-0.1,0-0.6-0.3-0.6c-0.3-0.1-1.1,0.2-1.7,1.1c-0.3,0.5-2.7,4.6-5.7,6.6
	C190.9,140.4,188.8,141.1,186.6,141.3L186.6,141.3z M175.6,111.7c0.9,3.6,1.6,7.3,2.1,11c0.8,5.3,1.6,10.8,3.3,14
	c-0.4-1.1-0.7-2.2-0.9-3.3c-0.4-2-0.7-4.2-1.1-6.6C178.2,121.7,177.3,116,175.6,111.7L175.6,111.7z"/>
<rect x="168.5" y="96.4" class="st3" width="1.7" height="5.5"/>
<rect x="168.5" y="101.9" class="st2" width="1.7" height="5.9"/>
<path class="st8" d="M200.5,130.2c0.7-1.1,1.3-2.2,1.9-3.4l0.4-0.9l1.7,0.9l-0.4,0.9c-0.6,1.3-1.3,2.6-2.2,3.8l-0.6,0.7l-1.5-1.2
	L200.5,130.2z"/>
<ellipse transform="matrix(0.7856 -0.6187 0.6187 0.7856 -39.532 172.534)" class="st22" cx="229.2" cy="143.3" rx="23.4" ry="6.1"/>
<rect x="26.2" y="189.7" class="st13" width="252" height="8.7"/>
<rect x="26.2" y="220.7" class="st13" width="252" height="5.5"/>
<rect x="271" y="134.5" class="st13" width="7.2" height="63.8"/>
<rect x="26.2" y="134.5" class="st13" width="7.2" height="63.8"/>
<rect x="43.7" y="195" class="st13" width="7.2" height="41.7"/>
<path class="st10" d="M260.2,136.5l-4.7-6.1c-0.9-1.2-2.6-1.4-3.7-0.5c0,0,0,0-0.1,0l-57.8,47H43.5c-1.4,0-2.5,1.1-2.5,2.5l0,0v10.2
	h153c3,0,65.8-49.4,65.8-49.4C260.9,139.4,261.1,137.7,260.2,136.5C260.2,136.5,260.2,136.5,260.2,136.5z"/>
<path class="st13" d="M203.4,190.6H43.6v-29.9c0-2.9,2.4-5.3,5.3-5.3h149.1c3,0,5.3,2.4,5.3,5.3v0L203.4,190.6z M45.5,188.7h155.9
	v-27.9c0-1.9-1.5-3.4-3.4-3.4c0,0,0,0,0,0H48.9c-1.9,0-3.4,1.5-3.4,3.4V188.7z"/>
<rect x="71.6" y="156.4" class="st13" width="1.9" height="33.2"/>
<rect x="106" y="156.4" class="st13" width="1.9" height="33.2"/>
<rect x="140.5" y="156.4" class="st13" width="1.9" height="33.2"/>
<rect x="174.9" y="156.4" class="st13" width="1.9" height="33.2"/>
<circle class="st2" cx="47.3" cy="240.3" r="6.7"/>
<circle class="st4" cx="47.3" cy="240.3" r="2.8"/>
<rect x="253.1" y="195" class="st13" width="7.2" height="41.7"/>
<circle class="st2" cx="256.7" cy="240.3" r="6.7"/>
<circle class="st4" cx="256.7" cy="240.3" r="2.8"/>
<path class="st23" d="M208,128l0.4,0.8c0.3,0.6,0.7,1.2,1.3,1.7l0.9,1"/>
<g>
	<g>
		<g>
			<path class="st10" d="M208.3,128.1c0.6-0.5,1-0.9,0.9-1l-1.1-1.8l-2.2,1.8l-0.2,0.1l1.4,1.5C207.2,128.8,207.7,128.5,208.3,128.1
				z"/>
			<path class="st8" d="M205.6,127.3C205.6,127.2,205.6,127.2,205.6,127.3l0.2-0.2l2.2-1.8c0,0,0,0,0.1,0c0,0,0.1,0,0.1,0l1.1,1.8
				c0,0,0,0,0,0.1c0,0.2-0.5,0.7-0.9,1c-0.3,0.2-1.1,0.9-1.3,0.7L205.6,127.3C205.6,127.3,205.6,127.3,205.6,127.3
				C205.6,127.3,205.6,127.3,205.6,127.3z M208.1,125.4l-2.3,1.8l1.3,1.4c0.1,0,0.5-0.2,1.1-0.7c0.5-0.4,0.9-0.8,0.9-0.9
				L208.1,125.4z"/>
		</g>
		<g>
			<g>
				<path class="st10" d="M206.9,126.6c1.5-1.1,2.6-2,2.6-2.1l-0.8-2.2l-5.8,4.1l-0.5,0.3l1.7,1.5
					C204.1,128.4,205.4,127.6,206.9,126.6z"/>
				<path class="st8" d="M202.2,126.8C202.2,126.8,202.2,126.7,202.2,126.8l0.6-0.4l5.8-4.1c0,0,0.1,0,0.1,0c0,0,0.1,0,0.1,0.1
					l0.8,2.1c0,0,0,0,0,0.1c0,0.3-2.5,2.1-2.6,2.2c-0.7,0.5-1.4,1-2,1.3c-0.9,0.5-1,0.5-1,0.4L202.2,126.8
					C202.2,126.8,202.2,126.8,202.2,126.8C202.2,126.8,202.2,126.8,202.2,126.8z M208.6,122.5l-5.7,4l-0.4,0.3l1.6,1.4
					c0.2,0,1.2-0.6,2.8-1.7c1.5-1.1,2.4-1.8,2.5-2L208.6,122.5z"/>
			</g>
			<path class="st10" d="M206.9,126.6c0.2-0.1,0.3-0.2,0.5-0.3c-0.2-0.5-0.5-0.9-0.8-1.3c-0.2-0.2-0.4-0.5-0.6-0.7l-3.2,2.2
				l-0.5,0.3l1.7,1.5C204.1,128.4,205.4,127.6,206.9,126.6z"/>
			<g>
				<path class="st10" d="M205.6,124.8c-1.8,1.2-3.2,2.1-3.3,2c-0.1-0.1,1.1-1.7,2.8-2.9c1.8-1.2,3.4-1.7,3.5-1.6
					C208.7,122.4,207.4,123.5,205.6,124.8z"/>
				<path class="st8" d="M202.2,126.8c0-0.3,1.2-1.8,2.9-2.9c1.6-1.1,3.5-1.8,3.7-1.6c0,0,0,0.1,0,0.1c0,0.4-2.9,2.4-3.1,2.5
					c-0.8,0.6-1.7,1.1-2.3,1.5C202.3,127,202.3,126.9,202.2,126.8C202.2,126.8,202.2,126.8,202.2,126.8z M208.5,122.4
					c-0.4,0.1-1.8,0.5-3.3,1.6c-1.5,1-2.5,2.3-2.7,2.7c0.4-0.2,1.5-0.8,3.1-2C207.2,123.5,208.2,122.7,208.5,122.4z"/>
			</g>
			<g>
				<g>
					<path class="st8" d="M208,126.7c-0.3,0.7-1.1,1.1-1.9,0.8c-0.7-0.3-1.1-1.1-0.8-1.9c0.3-0.7,1.1-1.1,1.9-0.8
						C207.9,125.1,208.3,125.9,208,126.7z"/>
					<path class="st3" d="M205.1,126c0-0.1,0-0.3,0.1-0.4c0.1-0.4,0.4-0.7,0.8-0.9c0.4-0.2,0.8-0.2,1.2,0c0.6,0.3,1,0.9,1,1.6
						c0,0.1,0,0.3-0.1,0.4c-0.3,0.8-1.2,1.2-2,0.9C205.4,127.3,205,126.7,205.1,126z M208,126.3c0.1-0.6-0.3-1.2-0.9-1.4
						c-0.3-0.1-0.7-0.1-1,0c-0.3,0.1-0.6,0.4-0.7,0.7c0,0.1-0.1,0.2-0.1,0.3c-0.1,0.6,0.3,1.2,0.9,1.4c0.7,0.3,1.5-0.1,1.7-0.8
						C207.9,126.5,208,126.4,208,126.3z"/>
				</g>
				<g>
					<path class="st10" d="M207.9,127.2c-0.3,0.6-1,0.9-1.6,0.7c-0.6-0.3-0.9-1-0.7-1.6c0.3-0.6,1-0.9,1.6-0.7
						C207.9,125.9,208.2,126.6,207.9,127.2z"/>
					<path class="st3" d="M205.5,126.6c0-0.1,0-0.3,0.1-0.4c0.3-0.7,1.1-1,1.7-0.7c0.5,0.2,0.9,0.8,0.8,1.4c0,0.1,0,0.3-0.1,0.4
						c-0.3,0.7-1.1,1-1.7,0.7C205.7,127.7,205.4,127.2,205.5,126.6z M207.9,126.9c0.1-0.5-0.2-1-0.7-1.2c-0.6-0.2-1.2,0-1.5,0.6
						c0,0.1-0.1,0.2-0.1,0.3c-0.1,0.5,0.2,1,0.7,1.2c0.6,0.2,1.2,0,1.5-0.6C207.9,127.1,207.9,127,207.9,126.9z"/>
				</g>
			</g>
			<polygon class="st24" points="208.5,122.7 209.3,124.5 208.5,125.3 207.7,123.4 			"/>
		</g>
	</g>
</g>
<path class="st3" d="M204.1,127L204.1,127c0.7,0.6,0.8,1.7,0.1,2.5l-0.7,0.8c-0.6,0.7-1.7,0.8-2.5,0.1l0,0c-0.7-0.6-0.8-1.7-0.1-2.5
	l0.7-0.8C202.3,126.4,203.4,126.4,204.1,127z"/>
</svg>
