<?xml version="1.0" encoding="UTF-8"?>
<svg width="300px" height="300px" viewBox="0 0 300 300" version="1.1" xmlns="http://www.w3.org/2000/svg" xmlns:xlink="http://www.w3.org/1999/xlink">
    <title>Group 2</title>
    <g id="Page-1" stroke="none" stroke-width="1" fill="none" fill-rule="evenodd">
        <g id="Resumig-home-activities" transform="translate(-57.000000, -193.000000)">
            <g id="Group-2" transform="translate(57.000000, 193.000000)">
                <circle id="Mask-Copy-3" fill="#E13856" opacity="0.0770321801" cx="150" cy="150" r="150"></circle>
                <g id="Asset-2" transform="translate(6.000000, 5.000000)" fill-rule="nonzero">
                    <g id="freepik--background-complete--inject-2" transform="translate(0.000000, 7.200000)" fill="#DEDEDE">
                        <path d="M41.094,194.298 C41.0880041,194.232136 41.0880041,194.165864 41.094,194.1 L41.094,191.4 C41.094,189.528 41.058,186.84 41.028,183.456 L41.154,183.582 L0.234,183.66 L0.444,183.456 L0.444,183.456 L0.444,194.256 L0.24,194.052 L29.4,194.142 L38.004,194.202 L40.332,194.232 L40.332,194.232 L38.046,194.262 L29.49,194.316 L0.186,194.412 L0,194.412 L0,183.408 L0,183.408 L0.21,183.198 L41.13,183.282 L41.256,183.282 L41.256,183.408 C41.256,186.828 41.202,189.54 41.184,191.424 L41.184,194.058 C41.1828672,194.14604 41.151036,194.230923 41.094,194.298 L41.094,194.298 Z" id="Path"></path>
                        <path d="M46.638,183.474 L46.638,182.664 C46.638,182.13 46.638,181.404 46.602,180.492 C46.602,178.596 46.554,175.914 46.518,172.62 L46.668,172.764 L22.068,172.824 C21.882,173.01 22.32,172.572 22.278,172.62 L22.278,172.62 L22.278,183.42 L22.08,183.222 L39.666,183.312 L44.79,183.372 L46.2,183.372 C46.3637804,183.359998 46.5282196,183.359998 46.692,183.372 C46.542,183.372 46.398,183.372 46.248,183.372 L44.88,183.372 L39.798,183.426 L22.08,183.522 L21.882,183.522 L21.882,172.524 L21.882,172.524 L22.092,172.314 L46.692,172.374 L46.8,172.374 L46.8,172.524 C46.8,175.854 46.74,178.566 46.722,180.486 C46.722,181.386 46.722,182.1 46.686,182.622 C46.6909569,182.906794 46.6749135,183.191565 46.638,183.474 L46.638,183.474 Z" id="Path"></path>
                        <path d="M100.89,31.068 C100.884004,31.0021362 100.884004,30.9358638 100.89,30.87 L100.89,30.312 C100.89,29.808 100.89,29.112 100.86,28.182 C100.86,26.316 100.818,23.628 100.788,20.244 L100.914,20.37 L60,20.448 L60.204,20.244 L60.204,20.244 L60.204,31.044 L60,30.846 L89.16,30.936 L97.77,30.996 L100.914,30.996 C100.852144,31.0019828 100.789856,31.0019828 100.728,30.996 L97.848,30.996 L89.286,31.05 L60,31.272 L59.796,31.272 L59.796,20.25 L59.796,20.25 C60.216,19.83 59.916,20.13 60.012,20.04 L100.926,20.118 L101.052,20.118 L101.052,20.25 C101.052,23.67 100.998,26.382 100.986,28.266 C100.986,29.166 100.986,29.868 100.95,30.366 L100.95,30.9 C100.939039,30.9588284 100.918786,31.0155376 100.89,31.068 L100.89,31.068 Z" id="Path"></path>
                        <path d="M106.44,20.244 C106.433863,20.1741345 106.433863,20.1038655 106.44,20.034 L106.44,19.434 C106.44,18.9 106.44,18.174 106.398,17.262 C106.398,15.366 106.356,12.684 106.32,9.384 L106.47,9.534 L81.87,9.594 C81.684,9.78 82.122,9.342 82.08,9.39 L82.08,9.39 L82.08,20.19 L81.882,19.986 L99.468,20.082 L104.592,20.136 L105.978,20.136 C106.14178,20.1239982 106.30622,20.1239982 106.47,20.136 L104.67,20.136 L99.594,20.19 L81.87,20.286 L81.672,20.286 L81.672,9.426 L81.672,9.426 L81.882,9.216 L106.482,9.27 L106.632,9.27 L106.632,9.42 C106.596,12.756 106.572,15.468 106.548,17.388 C106.548,18.288 106.548,19.002 106.512,19.524 C106.502789,19.7652495 106.478743,20.0057037 106.44,20.244 Z" id="Path"></path>
                        <rect id="Rectangle" x="236.784" y="58.944" width="39.222" height="10.374"></rect>
                        <path d="M260.1,79.914 L260.1,77.148 C260.1,75.348 260.064,72.786 260.034,69.534 L260.154,69.66 L220.938,69.738 C221.022,69.648 220.734,69.936 221.13,69.534 L221.13,69.534 L221.13,79.896 L220.932,79.698 L248.886,79.788 L257.136,79.842 L259.368,79.872 L257.244,79.872 L249,80.004 L220.908,80.088 L220.716,80.088 L220.716,69.534 L220.716,69.534 C221.112,69.138 220.83,69.426 220.92,69.336 L260.136,69.414 L260.262,69.414 L260.262,69.534 C260.262,72.816 260.208,75.414 260.19,77.22 L260.19,79.746 C260.172168,79.8077142 260.141499,79.8649645 260.1,79.914 L260.1,79.914 Z" id="Path"></path>
                        <path d="M112.296,256.8 C112.289999,256.736141 112.289999,256.671859 112.296,256.608 L112.296,256.08 C112.296,255.588 112.296,254.91 112.296,254.034 C112.296,252.234 112.254,249.672 112.224,246.42 L112.35,246.546 L73.128,246.624 L73.326,246.426 L73.326,246.426 L73.326,256.8 L73.128,256.602 L101.082,256.692 L109.332,256.746 L111.564,256.776 L112.164,256.776 C112.233866,256.769863 112.304134,256.769863 112.374,256.776 L109.44,256.776 L101.238,256.836 L73.146,256.92 L72.954,256.92 L72.954,246.324 L72.954,246.324 L73.158,246.12 L112.38,246.198 L112.5,246.198 L112.5,246.318 C112.5,249.6 112.446,252.198 112.434,254.004 C112.434,254.868 112.434,255.54 112.404,256.02 L112.404,256.53 C112.398001,256.629279 112.360124,256.723971 112.296,256.8 L112.296,256.8 Z" id="Path"></path>
                        <path d="M218.154,11.124 C218.148017,11.0621443 218.148017,10.9998557 218.154,10.938 L218.154,10.404 C218.154,9.918 218.154,9.204 218.154,8.364 C218.154,6.564 218.112,3.996 218.082,0.75 L218.208,0.87 L178.986,0.948 L179.184,0.75 L179.184,0.75 L179.184,11.124 L178.986,10.932 L206.91,11.004 L215.16,11.058 L218.202,11.058 C218.140144,11.0639828 218.077856,11.0639828 218.016,11.058 L215.268,11.058 L207,11.232 L178.908,11.322 L178.716,11.322 L178.716,0.756 L178.716,0.756 C179.118,0.354 178.83,0.648 178.92,0.558 L218.142,0.636 L218.262,0.636 L218.262,0.756 C218.262,4.032 218.208,6.636 218.196,8.442 C218.196,9.306 218.196,9.972 218.166,10.458 L218.166,10.968 C218.171395,11.0202988 218.16733,11.0731417 218.154,11.124 L218.154,11.124 Z" id="Path"></path>
                        <path d="M269.682,147 C269.675999,146.936141 269.675999,146.871859 269.682,146.808 L269.682,146.274 C269.682,145.788 269.682,145.11 269.652,144.234 C269.652,142.434 269.61,139.866 269.58,136.62 L269.706,136.74 L230.484,136.824 C230.574,136.734 230.28,137.022 230.682,136.62 L230.682,136.62 L230.682,147 L230.484,146.802 L258.438,146.892 L266.688,146.946 L266.796,146.946 L258.6,147 L230.508,147.09 L230.316,147.09 L230.316,136.506 L230.316,136.506 L230.52,136.308 L269.742,136.386 L269.862,136.386 L269.862,136.506 C269.832,139.788 269.808,142.386 269.796,144.192 C269.796,145.056 269.796,145.728 269.796,146.208 L269.796,146.718 C269.781138,146.819775 269.742041,146.916489 269.682,147 Z" id="Path"></path>
                    </g>
                    <g id="freepik--Window--inject-2" transform="translate(36.600000, 39.000000)">
                        <rect id="Rectangle" fill="#00A2FE" x="0.432" y="0.048" width="184.986" height="207.774"></rect>
                        <path d="M0.732,0 C1.21293028,0.312165925 1.66119299,0.671982183 2.07,1.074 C2.862,1.776 3.936,2.772 5.07,3.912 C6.204,5.052 7.224,6.126 7.926,6.912 C8.32667202,7.31113996 8.68645919,7.74931652 9,8.22 C8.55233243,7.8542956 8.13497215,7.45298764 7.752,7.02 L4.842,4.086 L1.92,1.2 C1.49103785,0.834034957 1.09363549,0.432618432 0.732,0 L0.732,0 Z" id="Path" fill="#2E353A"></path>
                        <path d="M185.4,0.048 C184.164448,1.4834983 182.852552,2.85147571 181.47,4.146 C180.167571,5.50852955 178.789386,6.79657198 177.342,8.004 C178.575922,6.56512299 179.887896,5.19506207 181.272,3.9 C182.576031,2.54097792 183.95413,1.25501934 185.4,0.048 L185.4,0.048 Z" id="Path" fill="#2E353A"></path>
                        <path d="M9.072,198.714 C9.138,198.774 7.206,201 4.758,203.682 C2.31,206.364 0.27,208.482 0.21,208.44 C0.15,208.398 2.076,206.16 4.524,203.472 C6.972,200.784 9,198.654 9.072,198.714 Z" id="Path" fill="#2E353A"></path>
                        <rect id="Rectangle" fill="#E9E9E9" x="8.514" y="8.028" width="168.828" height="191.808"></rect>
                        <path d="M177.642,200.136 L8.214,200.136 L8.214,7.728 L177.642,7.728 L177.642,200.136 Z M8.814,199.536 L177.042,199.536 L177.042,8.328 L8.814,8.328 L8.814,199.536 Z" id="Shape" fill="#2E353A"></path>
                        <g id="Group" opacity="0.6" transform="translate(126.000000, 49.200000)" fill="#FFFFFF">
                            <path d="M49.122,20.166 C48.816,16.302 48.522,12.366 47.166,8.766 C45.81,5.166 43.32,1.86 39.882,0.642 C37.368,-0.246 34.638,0.042 32.01,0.402 C26.79,1.11 21.516,2.076 16.752,4.476 C7.8,9 3.822,19.8 1.584,30.09 C-0.654,40.38 1.902,50.658 5.97,60.276 C10.038,69.894 13.17,77.496 20.466,84.612 C16.2737103,91.34827 15.3161826,99.6072218 17.856,107.124 C18.504,108.996 19.386,110.904 19.152,112.89 C18.744,116.406 15.174,118.398 13.59,121.506 C12.186,124.254 12.462,127.578 12.462,130.704 C12.462,133.83 11.952,137.34 9.6,139.2 C8.064,140.4 6.06,140.67 4.2,141.234 C2.34,141.798 0.414,142.974 0,144.978 L1.38,150 L28.98,149.256 L43.464,131.016 L51.978,88.92 L49.122,20.166 Z" id="Path"></path>
                        </g>
                        <path d="M81.552,162.906 C81.492,162.846 84.912,159.594 89.184,155.652 C93.456,151.71 96.984,148.56 97.032,148.626 C97.08,148.692 93.672,151.938 89.4,155.88 C85.128,159.822 81.6,162.972 81.552,162.906 Z" id="Path" fill="#DEDEDE"></path>
                        <path d="M126.246,148.578 C126.186,148.518 129.606,145.266 133.878,141.324 C138.15,137.382 141.678,134.232 141.726,134.298 C141.774,134.364 138.366,137.61 134.088,141.552 C129.81,145.494 126.3,148.644 126.246,148.578 Z" id="Path" fill="#DEDEDE"></path>
                        <path d="M131.886,173.544 C131.826,173.484 135.246,170.232 139.518,166.29 C143.79,162.348 147.318,159.198 147.366,159.264 C147.414,159.33 144,162.6 139.728,166.518 C135.456,170.436 131.94,173.604 131.886,173.544 Z" id="Path" fill="#DEDEDE"></path>
                        <path d="M110.754,122.868 C110.694,122.808 114.114,119.556 118.392,115.614 C122.67,111.672 126.192,108.522 126.234,108.582 C126.276,108.642 122.874,111.9 118.602,115.842 C114.33,119.784 110.814,122.934 110.754,122.868 Z" id="Path" fill="#DEDEDE"></path>
                        <path d="M154.308,148.896 C154.248,148.83 157.668,145.584 161.94,141.636 C166.212,137.688 169.74,134.544 169.8,134.604 C169.86,134.664 166.44,137.916 162.162,141.864 C157.884,145.812 154.368,148.956 154.308,148.896 Z" id="Path" fill="#DEDEDE"></path>
                        <path d="M20.268,118.404 C20.214,118.338 23.628,115.092 27.906,111.144 C32.184,107.196 35.706,104.058 35.748,104.118 C35.79,104.178 32.394,107.43 28.116,111.378 C23.838,115.326 20.328,118.476 20.268,118.404 Z" id="Path" fill="#DEDEDE"></path>
                        <path d="M24.6,32.4 C24.54,32.34 27.96,29.088 32.232,25.146 C36.504,21.204 40.032,18.054 40.08,18.12 C40.128,18.186 36.72,21.432 32.448,25.374 C28.176,29.316 24.654,32.46 24.6,32.4 Z" id="Path" fill="#DEDEDE"></path>
                        <path d="M59.4,129.204 C59.34,129.144 62.76,125.892 67.032,121.95 C71.304,118.008 74.832,114.858 74.88,114.924 C74.928,114.99 71.52,118.236 67.242,122.178 C62.964,126.12 59.442,129.258 59.4,129.204 Z" id="Path" fill="#DEDEDE"></path>
                        <path d="M48.306,189.384 C48.246,189.318 51.666,186.072 55.938,182.124 C60.21,178.176 63.738,175.038 63.786,175.098 C63.834,175.158 60.426,178.41 56.148,182.358 C51.87,186.306 48.36,189.444 48.306,189.384 Z" id="Path" fill="#DEDEDE"></path>
                        <path d="M100.698,187.404 C100.638,187.344 104.058,184.092 108.33,180.15 C112.602,176.208 116.13,173.058 116.178,173.118 C116.226,173.178 112.818,176.43 108.54,180.378 C104.262,184.326 100.752,187.488 100.698,187.404 Z" id="Path" fill="#DEDEDE"></path>
                        <path d="M107.034,60.084 C106.974,60.024 110.394,56.772 114.666,52.83 C118.938,48.888 122.466,45.738 122.514,45.798 C122.562,45.858 119.154,49.11 114.882,53.058 C110.61,57.006 107.094,60.15 107.034,60.084 Z" id="Path" fill="#DEDEDE"></path>
                        <path d="M138.858,35.658 C138.798,35.598 142.218,32.346 146.49,28.404 C150.762,24.462 154.29,21.312 154.338,21.378 C154.386,21.444 150.978,24.69 146.7,28.632 C142.422,32.574 138.912,35.724 138.858,35.658 Z" id="Path" fill="#FFFFFF"></path>
                        <path d="M32.334,75.51 C32.274,75.45 35.694,72.198 39.966,68.256 C44.238,64.314 47.766,61.164 47.814,61.23 C47.862,61.296 44.454,64.542 40.182,68.484 C35.91,72.426 32.4,75.6 32.334,75.51 Z" id="Path" fill="#FFFFFF"></path>
                        <path d="M21.972,149.4 C21.912,149.334 25.332,146.088 29.604,142.14 C33.876,138.192 37.404,135.048 37.452,135.114 C37.5,135.18 34.092,138.426 29.82,142.368 C25.548,146.31 22.032,149.43 21.972,149.4 Z" id="Path" fill="#FFFFFF"></path>
                        <path d="M60.99,165.93 C60.93,165.87 64.35,162.618 68.622,158.676 C72.894,154.734 76.422,151.584 76.47,151.65 C76.518,151.716 73.11,154.962 68.838,158.904 C64.566,162.846 61.05,165.996 60.99,165.93 Z" id="Path" fill="#FFFFFF"></path>
                        <path d="M129.372,64.644 C129.312,64.578 132.732,61.332 137.004,57.384 C141.276,53.436 144.804,50.298 144.852,50.358 C144.9,50.418 141.492,53.67 137.214,57.618 C132.936,61.566 129.426,64.704 129.372,64.644 Z" id="Path" fill="#FFFFFF"></path>
                        <path d="M99.294,103.698 C99.234,103.632 102.654,100.38 106.926,96.438 C111.198,92.496 114.726,89.346 114.774,89.412 C114.822,89.478 111.414,92.724 107.142,96.666 C102.87,100.608 99.354,103.758 99.294,103.698 Z" id="Path" fill="#FFFFFF"></path>
                        <path d="M138.858,120.6 C138.798,120.54 142.218,117.288 146.49,113.346 C150.762,109.404 154.29,106.254 154.338,106.314 C154.386,106.374 150.978,109.626 146.7,113.574 C142.422,117.522 138.912,120.684 138.858,120.6 Z" id="Path" fill="#FFFFFF"></path>
                        <path d="M73.62,190.2 C73.566,190.14 76.98,186.888 81.258,182.946 C85.536,179.004 89.058,175.854 89.1,175.914 C89.142,175.974 85.746,179.226 81.468,183.174 C77.19,187.122 73.68,190.272 73.62,190.2 Z" id="Path" fill="#FFFFFF"></path>
                        <path d="M132.996,87.534 C132.942,87.474 136.356,84.222 140.634,80.28 C144.912,76.338 148.434,73.188 148.476,73.248 C148.518,73.308 145.122,76.56 140.844,80.508 C136.566,84.456 133.056,87.6 132.996,87.534 Z" id="Path" fill="#DEDEDE"></path>
                        <path d="M62.094,35.658 C62.034,35.598 65.454,32.346 69.726,28.404 C73.998,24.462 77.526,21.312 77.574,21.378 C77.622,21.444 74.214,24.69 69.936,28.632 C65.658,32.574 62.154,35.724 62.094,35.658 Z" id="Path" fill="#DEDEDE"></path>
                        <path d="M118.494,28.518 C118.434,28.452 121.854,25.206 126.132,21.258 C130.41,17.31 133.932,14.172 133.974,14.232 C134.016,14.292 130.614,17.544 126.342,21.492 C122.07,25.44 118.554,28.578 118.494,28.518 Z" id="Path" fill="#DEDEDE"></path>
                        <path d="M76.11,57.498 C76.05,57.438 79.47,54.186 83.742,50.244 C88.014,46.302 91.542,43.152 91.59,43.218 C91.638,43.284 88.23,46.53 83.952,50.472 C79.674,54.414 76.2,57.564 76.11,57.498 Z" id="Path" fill="#DEDEDE"></path>
                        <path d="M87.354,30.306 C87.294,30.246 90.714,26.994 94.986,23.052 C99.258,19.11 102.786,15.96 102.834,16.026 C102.882,16.092 99.474,19.338 95.196,23.28 C90.918,27.222 87.408,30.372 87.354,30.306 Z" id="Path" fill="#DEDEDE"></path>
                        <path d="M24.6,175.098 C24.54,175.038 27.96,171.786 32.232,167.844 C36.504,163.902 40.032,160.752 40.08,160.812 C40.128,160.872 36.72,164.124 32.448,168.072 C28.176,172.02 24.654,175.164 24.6,175.098 Z" id="Path" fill="#DEDEDE"></path>
                        <path d="M35.502,43.8 C35.556,43.866 32.25,46.848 28.116,50.466 C23.982,54.084 20.574,57 20.52,56.904 C20.466,56.808 23.772,53.856 27.906,50.238 C32.04,46.62 35.448,43.746 35.502,43.8 Z" id="Path" fill="#DEDEDE"></path>
                        <path d="M11.928,196.404 L174,195.66 L173.868,195.792 L173.868,11.4 L174.024,11.556 L12,11.556 L12.138,11.418 C12,121.8 12,195.192 12,196.392 C12,195.192 11.94,121.788 11.862,11.412 L11.862,11.274 L174.18,11.274 L174.18,195.96 L174,195.96 L11.928,196.404 Z" id="Path" fill="#FFFFFF"></path>
                        <path d="M93.12,199.2 C93.03,199.2 92.964,156.414 92.964,103.65 C92.964,50.886 93.03,8.088 93.12,8.088 C93.21,8.088 93.276,50.862 93.276,103.65 C93.276,156.438 93.204,199.2 93.12,199.2 Z" id="Path" fill="#2E353A"></path>
                        <path d="M179.346,96.552 C179.346,96.642 141.012,96.708 93.738,96.708 C46.464,96.708 8.118,96.642 8.118,96.552 C8.118,96.462 46.446,96.396 93.738,96.396 C141.03,96.396 179.346,96.468 179.346,96.552 Z" id="Path" fill="#2E353A"></path>
                        <path d="M12,11.4 C11.3612832,10.9842077 10.7802621,10.4859014 10.272,9.918 C9.69418409,9.41953084 9.18746261,8.84416979 8.766,8.208 C9.40471681,8.62379229 9.9857379,9.12209857 10.494,9.69 C11.0701988,10.1901005 11.5767148,10.7652282 12,11.4 Z" id="Path" fill="#FFFFFF"></path>
                        <g id="Group" opacity="0.6" transform="translate(12.600000, 163.800000)" fill="#FFFFFF">
                            <path d="M67.59,31.458 C67.53,27.858 62.712,26.4 59.148,25.848 C55.584,25.296 51.768,25.686 48.552,24.048 C46.548,23.04 44.988,21.348 43.104,20.13 C40.370741,18.3776236 37.0875167,17.6940635 33.882,18.21 C32.04,18.51 30.09,19.2 28.362,18.468 C26.298,17.592 25.536,15.132 24.678,13.068 C20.646,3.348 10.434,-2.01 0.36,1.068 L0.768,31.482 L67.59,31.458 Z" id="Path"></path>
                        </g>
                        <g id="Group" opacity="0.6" transform="translate(13.200000, 13.200000)" fill="#FFFFFF">
                            <path d="M98.778,0.108 L98.778,0.108 C99.462,2.466 96.378,4.542 94.17,5.592 C91.962,6.642 89.37,6.54 86.97,6.252 C84.57,5.964 82.062,5.52 79.644,5.946 C76.494,6.504 73.77,8.49 70.68,9.348 C65.88,10.668 60.834,9.138 56.016,7.932 C51.198,6.726 45.78,5.91 41.496,8.43 C37.626,10.704 35.274,15.396 30.942,16.584 C28.542,17.232 25.914,16.692 23.67,17.706 C20.67,19.062 19.47,22.662 18.81,25.908 C18.15,29.154 17.64,32.736 15.174,34.908 C13.284,36.594 10.596,37.122 8.646,38.73 C5.646,41.208 5.046,45.546 5.046,49.434 C5.046,55.968 5.904,62.484 5.772,69.018 C5.64,75.552 4.38,82.296 0.552,87.6 L0.552,87.6 L1.152,0 L98.778,0.108 Z" id="Path"></path>
                        </g>
                    </g>
                    <path d="M100.764,198.186 C101.544,197.436 102.408,196.65 103.488,196.524 C102.242281,201.19639 102.594988,206.151183 104.49,210.6 C105.732,209.694 105.732,207.894 105.78,206.358 C105.849382,204.01264 106.29297,201.69342 107.094,199.488 C108.006,200.316 108.294,201.612 108.474,202.83 C109.038604,206.56067 109.157438,210.345257 108.828,214.104 C108.468,218.196 107.628,222.504 109.242,226.278 C111.718009,221.51491 112.700757,216.116069 112.062,210.786 C111.66,207.51 110.646,204.24 111.072,200.964 C111.390917,198.534998 112.480236,196.272244 114.18,194.508 C115.842,192.792 117.996,191.652 119.898,190.2 C121.8,188.748 123.54,186.798 123.792,184.422 C123.935121,183.442488 123.67537,182.446775 123.072,181.662 C121.962,180.372 119.976,180.42 118.272,180.636 C116.407708,180.835063 114.570783,181.237456 112.794,181.836 C108.504,183.396 105.156,186.756 101.958,190.014 C101.196,190.794 97.866,193.464 98.394,194.49 C98.628,194.946 99.984,195.054 100.392,195.45 C101.158819,196.15335 101.315192,197.303447 100.764,198.186 L100.764,198.186 Z" id="Path" fill="#FFFFFF"></path>
                    <path d="M94.2,199.134 C92.874,200.028 91.284,200.964 89.772,200.436 C87.972,199.836 87.444,197.388 88.122,195.636 C88.8,193.884 90.294,192.57 91.614,191.202 C92.934,189.834 94.17,188.166 94.116,186.27 C94.0429783,185.682704 94.0029155,185.091778 93.996,184.5 C94.104,183.024 95.334,181.92 96.474,180.972 C94.47,180.666 92.394,180.33 90.714,179.172 C89.034,178.014 87.864,175.872 88.536,173.958 C89.136,172.296 90.828,171.348 92.436,170.628 C94.404,169.752 96.42,168.99 98.436,168.228 L111.474,163.332 C114.474,162.21 117.474,161.076 120.672,160.74 C122.598742,160.534537 124.545653,160.627632 126.444,161.016 C126.983737,161.082688 127.493476,161.301147 127.914,161.646 C128.802,162.51 128.328,164.046 127.5,164.988 C126.672,165.93 125.544,166.614 125.016,167.736 C124.344,169.2 124.914,171 126,172.2 C127.158355,173.315107 128.546889,174.162973 130.068,174.684 C130.623365,174.84537 131.109009,175.187432 131.448,175.656 C131.862,176.418 131.394,177.36 130.848,178.056 C127.014,182.856 119.862,183.396 115.074,187.236 C114.223529,188.012746 113.325814,188.736128 112.386,189.402 C109.554,191.16 106.026,191.406 103.134,193.068 C100.05,194.796 97.164,197.148 94.2,199.134 Z" id="Path" fill="#D61335"></path>
                    <g id="freepik--Character--inject-2" transform="translate(99.600000, 96.600000)">
                        <path d="M145.896,58.266 C145.206,54.72 143.742,51.378 142.71,47.916 C141.678,44.454 141.774,40.716 141.168,36.93 L129.978,68.73 C130.118,73.05 130.254,77.372 130.386,81.696 C130.386,82.62 130.506,83.67 131.244,84.222 C132.15,84.894 133.434,84.402 134.406,83.826 C142.974,78.75 147.792,68.034 145.896,58.266 Z" id="Path" fill="#2E353A"></path>
                        <path d="M116.106,14.91 L94.86,10.242 L89.748,11.7 C78.03,13.662 72.06,27.9 73.548,37.428 C75.192,47.994 77.61,60.828 80.562,68.328 C86.49,83.418 98.916,82.764 98.916,82.764 C98.916,82.764 99.516,87.06 100.248,92.328 C100.891814,96.7378033 103.261393,100.71111 106.835258,103.373505 C110.409124,106.035899 114.894399,107.169201 119.304,106.524 L120,106.404 L120,106.404 C128.936624,104.695979 134.889529,96.1842292 133.428,87.204 L122.256,19.404 C121.687693,16.533922 119.013075,14.5794936 116.106,14.91 L116.106,14.91 Z" id="Path" fill="#FFBE9D"></path>
                        <path d="M79.878,48.066 C80.1068544,49.1648587 81.1761391,49.8759331 82.278,49.662 C82.7952427,49.5905435 83.2628858,49.3164603 83.5779765,48.9000903 C83.8930673,48.4837204 84.0297738,47.9591988 83.958,47.442 C83.958,47.442 83.958,47.442 83.958,47.4 C83.7262632,46.3030937 82.6591752,45.5934802 81.558,45.804 C81.0430213,45.8712059 80.5759108,46.1404555 80.2596412,46.5523939 C79.9433715,46.9643323 79.8039099,47.4851375 79.872,48 C79.872,48 79.872,48.042 79.878,48.066 Z" id="Path" fill="#2E353A"></path>
                        <path d="M77.568,42.9 C77.874,43.104 79.146,41.646 81.306,41.172 C83.466,40.698 85.284,41.436 85.458,41.118 C85.548,40.974 85.188,40.56 84.39,40.212 C83.3143413,39.7693177 82.1279422,39.6708005 80.994,39.93 C79.8711167,40.1754894 78.8546437,40.7698321 78.09,41.628 C77.544,42.288 77.4,42.804 77.568,42.9 Z" id="Path" fill="#2E353A"></path>
                        <path d="M94.758,56.904 C94.758,56.778 93.354,56.844 91.116,57.042 C90.552,57.108 90.006,57.114 89.832,56.76 C89.6580125,56.2012306 89.6580125,55.6027694 89.832,55.044 C90.06,53.596 90.296,52.078 90.54,50.49 C91.482,44.016 92.04,38.742 91.776,38.7058149 C91.512,38.67 90.54,43.89 89.592,50.364 C89.376,51.954 89.16,53.472 88.962,54.924 C88.89,55.596 88.692,56.388 89.154,57.15 C89.4062643,57.5043587 89.8057358,57.7250611 90.24,57.75 C90.5620335,57.7660542 90.8847822,57.7398309 91.2,57.672 C93.42,57.318 94.8,57 94.758,56.904 Z" id="Path" fill="#2E353A"></path>
                        <path d="M98.904,82.764 C106.28876,81.251239 113.109432,77.7204405 118.608,72.564 C118.608,72.564 115.422,84.624 99.45,86.604 L98.904,82.764 Z" id="Path" fill="#6D4944"></path>
                        <path d="M102.54,59.268 C101.725341,58.5790544 100.627863,58.326478 99.594,58.59 C98.5621011,58.8772687 97.7700919,59.7061157 97.53,60.75 C97.284,61.92 97.824,63.096 98.34,64.17 L98.25,64.278 C99.4818482,64.6565173 100.794599,64.6855972 102.042,64.362 C102.460514,64.278151 102.852,64.0927103 103.182,63.822 C103.644433,63.3419562 103.878271,62.6863348 103.824,62.022 C103.804508,60.9637774 103.338028,59.9632449 102.54,59.268 Z" id="Path" fill="#6D4944"></path>
                        <path d="M97.248,65.352 C97.596,65.424 97.932,63.048 100.2,61.644 C102.468,60.24 104.964,60.852 105,60.528 C105.054,60.378 104.502,59.988 103.44,59.808 C102.051782,59.596805 100.633461,59.8791952 99.432,60.606 C98.2794028,61.3088194 97.4447452,62.4317351 97.104,63.738 C96.9,64.716 97.08,65.346 97.248,65.352 Z" id="Path" fill="#2E353A"></path>
                        <path d="M82.302,33.456 C81.702,33.252 80.724,34.53 79.212,35.562 C77.7,36.594 76.212,37.158 76.212,37.788 C76.212,38.088 76.704,38.388 77.532,38.388 C79.7277524,38.3317232 81.6706338,36.9510676 82.446,34.896 C82.692,34.11 82.578,33.564 82.302,33.456 Z" id="Path" fill="#2E353A"></path>
                        <path d="M104.13,42.858 C104.344902,43.9541513 103.643553,45.0208425 102.552,45.258 C101.501708,45.5319234 100.427934,44.9037657 100.152,43.854 L100.152,43.8 C99.9438102,42.7051774 100.642328,41.6427933 101.73,41.4 C102.236063,41.2688433 102.773515,41.3444295 103.223772,41.610081 C103.674029,41.8757325 104.000086,42.3096166 104.13,42.816 L104.13,42.858 Z" id="Path" fill="#2E353A"></path>
                        <path d="M106.416,36.96 C106.212,37.272 104.478,36.414 102.306,36.816 C100.134,37.218 98.736,38.616 98.454,38.37 C98.316,38.274 98.484,37.77 99.084,37.122 C99.9080789,36.2985599 100.966249,35.7495686 102.114,35.55 C103.242974,35.3401741 104.409442,35.4957032 105.444,35.994 C106.2,36.384 106.518,36.804 106.416,36.96 Z" id="Path" fill="#2E353A"></path>
                        <path d="M97.896,28.716 C98.34,28.218 100.062,28.716 102.144,28.776 C104.226,28.836 105.984,28.458 106.386,28.986 C106.56,29.238 106.284,29.742 105.51,30.216 C104.45399,30.7970668 103.258051,31.0752889 102.054,31.02 C100.851996,31.0028069 99.6791679,30.6472155 98.67,29.994 C97.938,29.478 97.698,28.962 97.896,28.716 Z" id="Path" fill="#2E353A"></path>
                        <path d="M92.214,4.056 C63.924,4.818 72.498,39.714 72.498,39.714 L72.498,39.714 C83.094,29.076 92.4,10.59 92.4,10.59 L96.63,9.12 L92.214,4.056 Z" id="Path" fill="#2E353A"></path>
                        <path d="M123.6,46.572 C123.342,45.372 124.086,42.372 125.196,41.928 C128.16,40.776 133.746,39.798 135.522,47.586 C137.922,58.23 126.756,58.464 126.666,58.164 C126.576,57.864 124.482,50.604 123.6,46.572 Z" id="Path" fill="#FFBE9D"></path>
                        <path d="M129,53.4 C129.042,53.352 129.216,53.484 129.564,53.556 C130.047006,53.6452663 130.545819,53.5442136 130.956,53.274 C131.988,52.602 132.528,50.604 132.156,48.672 C131.976233,47.7517523 131.590608,46.8840965 131.028,46.134 C130.674421,45.5042498 130.031663,45.0907275 129.312,45.03 C128.845542,45.0106708 128.432807,45.3297178 128.334,45.786 C128.256,46.116 128.376,46.314 128.334,46.344 C128.292,46.374 128.064,46.218 128.052,45.744 C128.048068,45.4650979 128.141417,45.1935375 128.316,44.976 C128.560768,44.6894753 128.906967,44.5088495 129.282,44.472 C130.207512,44.446464 131.080745,44.9000917 131.592,45.672 C132.256314,46.4897074 132.709595,47.4580798 132.912,48.492 C133.332,50.652 132.69,52.908 131.25,53.706 C130.709852,54.0050527 130.063109,54.042577 129.492,53.808 C129.084,53.646 129,53.4 129,53.4 Z" id="Path" fill="#6D4944"></path>
                        <path d="M142.2,45.804 C141.6,28.488 131.646,7.458 122.238,4.062 C112.83,0.666 92.238,-4.41 90.636,8.49 C89.616,16.728 100.662,21.996 108.162,25.566 C110.634,26.766 113.346,27.726 115.116,29.814 C117.708,32.862 112.524,45.834 123.558,51.504 C123.558,51.504 123.588,43.338 123.984,42.792 C125.052,41.328 128.358,40.29 131.748,41.718 C135.582,43.338 139.602,54.51 128.64,58.11 L130.98,72.312 C130.98,72.312 142.8,63.114 142.2,45.804 Z" id="Path" fill="#2E353A"></path>
                        <path d="M107.244,45.96 C107.244,46.056 105.966,46.128 104.436,46.488 C102.906,46.848 101.718,47.34 101.682,47.25 C103.362261,46.2658551 105.302076,45.8159518 107.244,45.96 L107.244,45.96 Z" id="Path" fill="#6D4944"></path>
                        <path d="M84.558,51.75 C84.558,51.84 83.286,51.606 81.75,51.75 C80.214,51.894 79.026,52.35 78.996,52.272 C80.6994438,51.3416822 82.7099314,51.1508269 84.558,51.744 L84.558,51.75 Z" id="Path" fill="#6D4944"></path>
                        <path d="M107.454,61.482 C107.37,61.452 107.568,60.822 107.454,60.054 C107.34,59.286 106.98,58.74 107.052,58.686 C107.478861,58.9967736 107.741516,59.4845618 107.766,60.012 C107.89257,60.5239246 107.777598,61.0656212 107.454,61.482 Z" id="Path" fill="#6D4944"></path>
                        <path d="M140.298,34.968 C140.072153,34.2643542 139.772484,33.5865809 139.404,32.946 C138.263273,31.2788301 136.738418,29.910371 134.958,28.956 C133.86,28.308 132.606,27.69 131.238,27.054 L126.882,25.008 L116.91,20.298 L106.944,15.564 L102.6,13.494 C101.244,12.846 99.972,12.246 98.838,11.634 C97.013557,10.7378874 95.3668781,9.51812523 93.978,8.034 C93.4727271,7.48196635 93.0503174,6.85946775 92.724,6.186 C93.1304141,6.80455269 93.5795053,7.39398492 94.068,7.95 C95.4750419,9.39920924 97.126246,10.589376 98.946,11.466 C100.074,12.066 101.346,12.666 102.714,13.266 L107.07,15.312 L117.042,20.034 L127.002,24.762 L131.346,26.838 C132.621963,27.4209312 133.865749,28.0718657 135.072,28.788 C136.073906,29.3749327 137.007615,30.07119 137.856,30.864 C138.498171,31.4655569 139.055304,32.1518807 139.512,32.904 C139.78611,33.3839366 140.005483,33.8931242 140.166,34.422 L140.274,34.842 C140.286109,34.8831121 140.294148,34.9253151 140.298,34.968 Z" id="Path" fill="#4D5A64"></path>
                        <path d="M136.548,21.408 C136.401239,21.3335259 136.260776,21.2472416 136.128,21.15 C135.858,20.982 135.48,20.7 134.958,20.388 C133.507132,19.484662 131.995525,18.6827487 130.434,17.988 C128.112822,16.9563956 125.725544,16.0804589 123.288,15.366 C120.546,14.538 117.486,13.77 114.288,12.966 C111.256913,12.2228929 108.265132,11.3277615 105.324,10.284 C102.92768,9.43037435 100.610811,8.36830848 98.4,7.11 C96.9138359,6.25468133 95.5081057,5.26665379 94.2,4.158 C93.726,3.78 93.402,3.432 93.162,3.216 C93.0405663,3.10754728 92.9263246,2.99130128 92.82,2.868 C92.9569553,2.95597562 93.0855002,3.05640137 93.204,3.168 C93.456,3.366 93.804,3.702 94.278,4.068 C95.613886,5.13518046 97.0368666,6.08851727 98.532,6.918 C100.751635,8.14559753 103.072069,9.18136214 105.468,10.014 C108.168,10.98 111.204,11.814 114.414,12.66 C117.624,13.506 120.684,14.262 123.414,15.108 C125.857052,15.8406494 128.246713,16.7407816 130.566,17.802 C132.127254,18.5230203 133.631569,19.3614252 135.066,20.31 C135.582,20.64 135.948,20.94 136.206,21.126 C136.328455,21.2092485 136.442943,21.3036511 136.548,21.408 Z" id="Path" fill="#4D5A64"></path>
                        <path d="M149.13,75.378 C155.317086,75.4547905 161.070139,78.5714012 164.514,83.712 C168.03,89.064 168.522,95.766 169.692,102.06 C170.862,108.354 173.292,115.116 178.902,118.182 C179.562,118.548 180.33,118.932 180.522,119.664 C180.744,120.54 179.922,121.41 179.022,121.572 C178.112684,121.644557 177.200635,121.470438 176.382,121.068 C180.072694,126.044738 179.944818,132.883951 176.070664,137.719245 C172.196509,142.554539 165.549758,144.170672 159.888,141.654 L141.372,87.15 L149.13,75.378 Z" id="Path" fill="#2E353A"></path>
                        <path d="M147.744,70.494 C145.914,69.486 143.64,70.764 142.236,72.294 C140.226,74.49 138.948,77.244 137.706,79.944 C138.306,81.588 137.076,83.58 138.18,84.936 C139.284,86.292 140.982,87.3 142.722,87.114 C145.044,86.868 146.652,84.684 147.612,82.554 C148.586527,80.3931277 149.218115,78.0934993 149.484,75.738 C149.706,73.8 149.46,71.442 147.744,70.494 Z" id="Path" fill="#4D5A64"></path>
                        <path d="M27.816,97.068 C27.816,97.068 43.23,117.756 49.206,125.268 C55.668,133.398 66.198,146.22 66.198,146.22 L63.516,175.74 C63.516,175.74 46.878,167.652 42.252,158.706 C37.626,149.76 15.996,109.404 15.996,109.404 L27.816,97.068 Z" id="Path" fill="#FFBE9D"></path>
                        <path d="M132,72.558 C132,72.558 120.48,79.758 116.4,82.68 C114.426,84.09 99.972,96.48 99.972,96.48 L100.974,100.338 C100.974,100.338 95.016,120.42 93.882,125.268 C92.976,129.126 90.12,170.352 89.61,177.18 L164.676484,177.18 C164.676484,177.18 164.79,125.694 161.52,116.094 C156.792,102.234 139.656,81.006 139.656,81.006 L133.962,79.644 L132,72.558 Z" id="Path" fill="#00A2FE"></path>
                        <path d="M106.2,111.546 C105.174,112.146 82.692,134.946 82.692,134.946 C82.692,134.946 77.166,136.224 76.428,140.346 L70.002,142.374 C69.498,140.976 64.296,140.178 63.33,143.496 C62.892,145.008 56.814,168.138 56.514,171.696 C56.238,174.876 66.198,177.162 66.198,177.162 L75.126,174.762 C75.126,174.762 90.588,173.658 92.802,173.106 C95.016,172.554 124.122,162.972 132.594,153.948 C141.066,144.924 150.468,135.156 150.468,135.156 C150.468,135.156 122.574,102.336 106.2,111.546 Z" id="Path" fill="#00A2FE"></path>
                        <path d="M63.33,143.550132 C63.3340562,143.500951 63.3441319,143.452588 63.36,143.406 C63.3973866,143.267626 63.4476043,143.133042 63.51,143.004 C63.7666756,142.502731 64.1914532,142.107687 64.71,141.888 C66.048,141.288 68.244,141.378 70.71,142.11 L70.638,142.11 L75.96,140.4 L75.888,140.454 L76.554,139.368 L76.554,139.368 C77.0399874,138.181193 77.8562831,137.158741 78.906,136.422 C80.0246696,135.624716 81.2980558,135.070804 82.644,134.796 L82.566,134.838 L86.874,130.434 L101.274,115.77 C103.116,113.916 104.616,112.416 105.672,111.348 L106.872,110.148 C107.004,110.028 107.106,109.926 107.19,109.842 C107.22572,109.804989 107.26605,109.772724 107.31,109.746 C107.27428,109.783011 107.23395,109.815276 107.19,109.842 C107.112,109.932 107.016,110.04 106.896,110.166 L105.726,111.402 L101.4,115.89 L87.042,130.614 L82.722,135.018 L82.638,135.018 C79.98,135.558 77.604,137.196 76.746,139.392 L76.746,139.392 L76.074,140.472 L76.074,140.514 L76.026,140.514 L70.686,142.182 L70.62,142.182 C68.22,141.432 66.036,141.294 64.734,141.858 C64.2278893,142.05795 63.8047543,142.423962 63.534,142.896 C63.384,143.358 63.354,143.556 63.33,143.550132 Z" id="Path" fill="#2E353A"></path>
                        <g id="Group" opacity="0.3" transform="translate(91.800000, 136.200000)" fill="#000000">
                            <path d="M0.234,37.128 C12.084,36.24 24.066,33.858 34.338,27.888 C44.61,21.918 52.998,11.928 54.9,0.204 C42.09,18.924 23.658,30.978 0.234,37.128 Z" id="Path"></path>
                        </g>
                        <path d="M146.118,136.656 C146.085726,136.721333 146.047569,136.78359 146.004,136.842 L145.644,137.382 L144.228,139.422 L143.202,140.898 C142.812,141.426 142.35,141.972 141.876,142.572 C140.898,143.772 139.86,145.164 138.51,146.55 L136.458,148.8 C135.738,149.568 134.91,150.294 134.1,151.086 L132.846,152.286 C132.421606,152.709455 131.974974,153.110021 131.508,153.486 L128.652,155.886 C119.971038,162.828835 110.031079,168.030048 99.378,171.204 L95.778,172.188 L94.908,172.422 C94.62,172.494 94.308,172.548 94.044,172.608 L92.346,172.956 C91.23,173.172 90.162,173.436 89.124,173.592 L86.124,174.006 C84.222,174.324 82.47,174.378 80.94,174.504 C80.178,174.552 79.464,174.624 78.81,174.642 L73.884,174.642 C73.8101211,174.647988 73.7358789,174.647988 73.662,174.642 L74.526,174.642 L77.01,174.588 L78.81,174.552 C79.464,174.522 80.172,174.444 80.934,174.39 C82.458,174.246 84.204,174.18 86.1,173.85 L89.1,173.412 C90.138,173.256 91.2,172.986 92.31,172.764 L94.002,172.41 C94.284,172.344 94.602,172.296 94.866,172.218 L95.73,171.978 L99.33,170.988 C109.931348,167.765259 119.821663,162.552328 128.472,155.628 L131.328,153.228 C131.797584,152.855103 132.244386,152.454384 132.666,152.028 L133.92,150.828 C134.736,150.042 135.564,149.322 136.284,148.56 L138.348,146.352 C139.704,144.978 140.748,143.586 141.738,142.41 C142.218,141.81 142.686,141.282 143.082,140.76 L144.132,139.302 L145.59,137.298 L145.98,136.776 C146.028352,136.738787 146.074434,136.698716 146.118,136.656 L146.118,136.656 Z" id="Path" fill="#2E353A"></path>
                        <path d="M148.74,124.08 C148.697939,123.930631 148.667844,123.778149 148.65,123.624 C148.59,123.33 148.542,122.892 148.422,122.334 C148.085861,120.76263 147.576759,119.233311 146.904,117.774 C145.902364,115.612366 144.56368,113.62358 142.938,111.882 C140.933145,109.763253 138.520886,108.071407 135.846,106.908 C133.141031,105.81456 130.255431,105.236626 127.338,105.204 C124.954242,105.155732 122.570482,105.300202 120.21,105.636 C118.182,105.9 116.556,106.188 115.41,106.38 L114.108,106.596 C113.958687,106.632063 113.805606,106.650191 113.652,106.65 C113.795831,106.597297 113.94457,106.559107 114.096,106.536 L115.386,106.26 C116.502,106.032 118.128,105.708 120.15,105.414 C122.53188,105.04721 124.940304,104.880628 127.35,104.916 C130.306873,104.933699 133.232481,105.522488 135.966,106.65 C138.690335,107.819271 141.142115,109.541647 143.166,111.708 C144.798962,113.482898 146.136016,115.508737 147.126,117.708 C147.785411,119.187807 148.266781,120.740678 148.56,122.334 C148.662,122.898 148.686,123.342 148.728,123.642 C148.746962,123.787206 148.750983,123.933974 148.74,124.08 Z" id="Path" fill="#2E353A"></path>
                        <path d="M133.884,81 C133.775347,81.1137705 133.659078,81.2200159 133.536,81.318 L132.498,82.2 L128.64,85.326 L115.836,95.526 L104.646,104.364 L104.526,104.46 L104.46,104.328 C103.218,101.928 102.198,99.96 101.46,98.556 C101.118,97.89 100.86,97.356 100.656,96.966 L100.452,96.546 C100.425877,96.4986719 100.405724,96.4482876 100.392,96.396 C100.427379,96.436081 100.457613,96.4804243 100.482,96.528 C100.548,96.636 100.626,96.768 100.716,96.93 C100.932,97.32 101.22,97.836 101.58,98.496 C102.33,99.882 103.38,101.832 104.658,104.214 L104.478,104.172 L115.626,95.286 L128.484,85.152 L132.402,82.104 L133.476,81.288 C133.602572,81.1792947 133.739186,81.0828614 133.884,81 L133.884,81 Z" id="Path" fill="#2E353A"></path>
                        <path d="M128.91,87.204 C128.982,87.252 126.798,91.038 124.026,95.664 C121.254,100.29 118.95,104.004 118.878,104.004 C118.806,104.004 120.99,100.176 123.762,95.544 C126.534,90.912 128.838,87.204 128.91,87.204 Z" id="Path" fill="#2E353A"></path>
                        <path d="M136.548,177.312004 C136.458,177.312004 137.022,170.52 137.796,162.162 C138.57,153.804 139.278,147.036 139.362,147.041996 C139.446,147.048 138.888,153.804 138.108,162.204 C137.328,170.604 136.632,177.318 136.548,177.312004 Z" id="Path" fill="#2E353A"></path>
                        <g id="Group" opacity="0.3" transform="translate(100.200000, 84.600000)" fill="#000000">
                            <polyline id="Path" points="0.45 12.24 0.51 12.468 3.738 23.724 28.71 0.366 5.436 19.044"></polyline>
                        </g>
                        <path d="M66.246,177.312 C66.2508329,177.191925 66.2709963,177.072961 66.306,176.958 C66.372,176.7 66.45,176.358 66.546,175.974 C66.768,175.116 67.062,173.874 67.404,172.332 C69.1922634,164.301686 70.0379751,156.090228 69.924,147.864 C69.924,146.286 69.87,145.008 69.828,144.126 C69.8354198,143.787709 69.8254066,143.449261 69.798,143.112 C69.7859698,142.992302 69.7859698,142.871698 69.798,142.752 C69.8336041,142.866635 69.8518067,142.985963 69.852,143.106 C69.852,143.37 69.906,143.706 69.942,144.12 C70.02,145.002 70.092,146.28 70.14,147.858 C70.380713,156.115131 69.5334349,164.368023 67.62,172.404 C67.254,173.946 66.924,175.182 66.666,176.004 C66.546,176.4 66.444,176.724 66.366,176.976 C66.3403887,177.092629 66.300066,177.205533 66.246,177.312 L66.246,177.312 Z" id="Path" fill="#2E353A"></path>
                        <path d="M73.026,161.34 C72.9900685,161.093738 72.9780125,160.844581 72.99,160.596 L72.99,158.574 C72.9342296,156.350755 72.7458951,154.132817 72.426,151.932 C72.091624,149.728903 71.6207172,147.548705 71.016,145.404 C70.794,144.582 70.596,143.916 70.458,143.46 C70.3721791,143.224736 70.3098749,142.981548 70.272,142.734 C70.3987218,142.949322 70.4994268,143.178929 70.572,143.418 C70.746,143.868 70.974,144.522 71.232,145.338 C71.8871743,147.478319 72.3825358,149.664327 72.714,151.878 C73.0397745,154.090919 73.1982236,156.325253 73.188,158.562 C73.188,159.42 73.152,160.116 73.116,160.596 C73.1160604,160.846719 73.0858416,161.096527 73.026,161.34 Z" id="Path" fill="#2E353A"></path>
                        <path d="M80.604,162 C80.5611274,161.70808 80.5450604,161.412849 80.556,161.118 C80.556,160.554 80.526,159.732 80.484,158.718 C80.2596436,153.456798 79.3520327,148.247112 77.784,143.22 C77.484,142.26 77.232,141.48 77.046,140.946 C76.9384529,140.671556 76.8541563,140.38856 76.794,140.1 C76.9366149,140.358128 77.0589823,140.626936 77.16,140.904 C77.382,141.426 77.664,142.194 77.994,143.154 C79.6856847,148.171262 80.5982828,153.418195 80.7,158.712 L80.7,161.112 C80.6980523,161.410481 80.6658883,161.707999 80.604,162 Z" id="Path" fill="#2E353A"></path>
                        <path d="M6.186,86.52 C6.186,86.52 3.708,84.336 2.262,84.516 C0.462,84.738 0.558,87.48 0.558,87.48 C0.216,88.968 4.116,92.994 5.604,95.172 C7.092,97.35 17.064,110.64 17.064,110.64 L30.354,101.13 L29.754,97.578 C29.154,94.026 23.106,81.42 23.106,81.42 C23.106,81.42 16.032,69.846 15,68.604 C13.968,67.362 6.636,63.804 6.294,63.678 C6.294,63.678 4.188,66.078 6.09,67.686 C7.068,68.52 11.106,71.352 11.106,71.352 L14.658,77.658 L14.628,78.168 L10.65,72.444 C10.65,72.444 9.018,70.968 7.536,70.746 C6.054,70.524 3.648,71.346 3.648,71.346 C2.86264159,71.9929029 2.5552287,73.0557412 2.874,74.022 L3.612,74.91 L5.316,75.396 L8.142,79.902 C8.142,79.902 5.61,78.45 4.59,79.35 C3.72074536,80.0880949 3.29233306,81.2214608 3.456,82.35 C3.6,83.454 6.186,86.52 6.186,86.52 Z" id="Path" fill="#FFBE9D"></path>
                        <path d="M18.696,78.048 C18.2832614,78.1741059 17.8818492,78.3346708 17.496,78.528 C16.896,78.912 16.626,79.476 16.542,79.44 C16.458,79.404 16.542,79.26 16.632,79.02 C16.9629246,78.3939877 17.5988324,77.9882831 18.306,77.952 C18.54,77.946 18.696,78 18.696,78.048 Z" id="Path" fill="#6D4944"></path>
                        <path d="M10.536,83.268 C9.93018898,82.7394856 9.39570436,82.1344086 8.946,81.468 C8.415302,80.8584156 7.96557997,80.1828242 7.608,79.458 C8.20921096,79.9911243 8.74315329,80.5955873 9.198,81.258 C9.73226049,81.8648581 10.1823099,82.5409413 10.536,83.268 Z" id="Path" fill="#6D4944"></path>
                        <path d="M7.68,89.046 C6.75396888,88.1055352 5.98606322,87.0215523 5.406,85.836 C6.32963735,86.7784664 7.09725447,87.862042 7.68,89.046 L7.68,89.046 Z" id="Path" fill="#6D4944"></path>
                        <path d="M100.962,100.344 C100.901471,100.653336 100.813111,100.956569 100.698,101.25 C100.512,101.85 100.254,102.678 99.96,103.722 C99.36,105.816 98.598,108.726 97.716,111.93 C96.834,115.134 95.982,118.026 95.274,120.096 C94.926,121.122 94.626,121.956 94.392,122.496 C94.2845585,122.793715 94.158304,123.084301 94.014,123.366 C94.0716442,123.054022 94.1600767,122.748528 94.278,122.454 C94.476,121.854 94.74,121.038 95.064,120 C95.712,117.924 96.54,115.032 97.416,111.822 C98.292,108.612 99.096,105.714 99.744,103.632 C100.074,102.594 100.344,101.76 100.578,101.19 C100.681458,100.897492 100.809934,100.614445 100.962,100.344 L100.962,100.344 Z" id="Path" fill="#2E353A"></path>
                    </g>
                    <g id="freepik--Desk--inject-2" transform="translate(7.200000, 273.000000)" fill="#2E353A">
                        <path d="M263.724,0.804 C263.724,0.894 204.744,0.96 132.006,0.96 C59.268,0.96 0.276,0.876 0.276,0.804 C0.276,0.732 59.244,0.648 132.006,0.648 C204.768,0.648 263.724,0.702 263.724,0.804 Z" id="Path"></path>
                    </g>
                    <g id="freepik--Plant--inject-2" transform="translate(7.200000, 0.000000)">
                        <path d="M11.508,127.65 C11.5216537,127.531012 11.5416825,127.412842 11.568,127.296 C11.622,127.044 11.694,126.696 11.784,126.264 L12.66,122.322 C13.434,118.878 14.556,113.922 15.942,107.808 C18.762,95.538 22.65,78.594 26.952,59.808 L27.15,58.956 L27.342,59.808 C27.42,60.144 27.498,60.504 27.582,60.87 C31.866,79.902 35.742,97.128 38.556,109.614 C39.936,115.842 41.058,120.888 41.838,124.398 C42.216,126.132 42.504,127.482 42.708,128.418 L42.93,129.468 C42.972,129.702 42.99,129.828 42.99,129.828 C42.99,129.828 42.948,129.708 42.888,129.474 C42.828,129.24 42.744,128.874 42.63,128.436 C42.414,127.5 42.096,126.156 41.688,124.428 C40.878,120.93 39.72,115.896 38.286,109.674 C35.442,97.2 31.524,80.004 27.198,60.984 L26.952,59.916 L27.342,59.916 C22.986,78.672 19.062,95.604 16.2,107.868 C14.766,113.976 13.602,118.92 12.792,122.352 C12.39,124.044 12.072,125.352 11.85,126.282 C11.742,126.72 11.658,127.056 11.592,127.302 C11.526,127.548 11.508,127.65 11.508,127.65 Z" id="Path" fill="#2E353A"></path>
                        <path d="M11.496,141.894 L11.496,129.852 L43.632,129.852 L43.632,141.894 C43.632,149.638137 37.3541368,155.916 29.61,155.916 L25.518,155.916 C17.7738632,155.916 11.496,149.638137 11.496,141.894 L11.496,141.894 Z" id="Path" fill="#2E353A"></path>
                        <path d="M11.496,129.852 C11.6332616,130.00837 11.7557823,130.177087 11.862,130.356 L12.84,131.85 L16.386,137.4 L27.942,155.706 L28.026,155.838 L27.684,155.838 L38.898,137.4 L42.33,131.85 L43.278,130.356 C43.3814403,130.176343 43.4998607,130.005737 43.632,129.846 C43.5537,130.037607 43.4593651,130.222263 43.35,130.398 C43.128,130.776 42.828,131.292 42.462,131.934 L39.138,137.544 L28.026,156 L27.858,156.276 L27.69,156.006 L27.606,155.874 L16.146,137.508 L12.714,131.916 L11.796,130.386 C11.6816745,130.216436 11.5813431,130.037846 11.496,129.852 L11.496,129.852 Z" id="Path" fill="#2E353A"></path>
                        <path d="M30.756,59.724 C30.756,61.1436625 29.900816,62.4235358 28.5892188,62.9668172 C27.2776217,63.5100985 25.7679082,63.2097978 24.7640552,62.2059448 C23.7602022,61.2020918 23.4599015,59.6923783 24.0031828,58.3807812 C24.5464642,57.069184 25.8263375,56.214 27.246,56.214 L27.246,56.214 C29.1845195,56.214 30.756,57.7854805 30.756,59.724 L30.756,59.724 Z" id="Path" fill="#2E353A"></path>
                        <path d="M27.246,0 C27.354,0 27.444,13.518 27.444,30.186 C27.444,46.854 27.354,60.378 27.246,60.378 C27.138,60.378 27.048,46.866 27.048,30.204 C27.048,13.542 27.138,0 27.246,0 Z" id="Path" fill="#2E353A"></path>
                        <path d="M29.0700122,157.2 C29.0733071,158.031731 28.401739,158.708665 27.5700079,158.711988 C26.7382767,158.715288 26.0613397,158.043723 26.0580116,157.211992 C26.054708,156.380261 26.7262689,155.70332 27.558,155.7 L27.558,155.7 C28.3883906,155.7 29.0634096,156.369636 29.0700122,157.2 L29.0700122,157.2 Z" id="Path" fill="#2E353A"></path>
                        <path d="M26.898,157.8 L27.144,157.68 C26.2817281,158.229322 25.7214843,159.146085 25.626,160.164 C25.537349,161.171395 25.6246509,162.186533 25.884,163.164 C25.95,163.476 26.112,163.866 26.43,163.848 C26.748,163.83 26.856,163.488 26.904,163.2 C27.0069404,162.605476 27.0231087,161.999165 26.952,161.4 C26.9182414,162.169046 27.1656517,162.924074 27.648,163.524 C27.744,163.644 27.876,163.758 28.02,163.722 C28.164,163.686 28.218,163.53 28.254,163.392 C28.3868611,162.888028 28.46333,162.370857 28.482,161.85 C28.5176792,162.304538 28.6820941,162.739509 28.956,163.104 C29.0988345,163.28089 29.3076944,163.391798 29.5342354,163.411054 C29.7607764,163.43031 29.9853591,163.356244 30.156,163.206 L30.156,163.206 C30.3136049,162.942652 30.3589937,162.627092 30.282,162.33 C30.0258161,160.528693 29.3017325,158.826062 28.182,157.392" id="Path" fill="#2E353A"></path>
                        <path d="M13.518,129.852 C13.518,129.852 -0.918,113.208 0.69,112.608 C2.298,112.008 15.126,121.23 15.126,121.23 C15.126,121.23 4.098,96.6 6.3,94.764 C8.502,92.928 20.136,116.604 20.136,116.604 C20.136,116.604 18.336,82.116 20.136,81.72 C21.936,81.324 28.536,116.208 28.536,116.208 C28.536,116.208 38.4,84.336 41.19,84.336 C43.98,84.336 38.19,115.014 38.19,115.014 C38.19,115.014 49.8,95.364 51.6,97.968 C53.4,100.572 43.38,121.83 43.38,121.83 C43.38,121.83 58.014,109.602 58.62,111.204 C59.226,112.806 42.78,129.852 42.78,129.852 L13.518,129.852 Z" id="Path" fill="#D61335"></path>
                        <path d="M11.508,104.79 C11.604,104.742 14.166,110.232 17.226,117.048 C20.286,123.864 22.686,129.426 22.584,129.474 C22.482,129.522 19.926,124.026 16.866,117.21 C13.806,110.394 11.4,104.832 11.508,104.79 Z" id="Path" fill="#2E353A"></path>
                        <path d="M23.172,107.856 C23.28,107.856 23.706,112.686 24.12,118.656 C24.534,124.626 24.786,129.456 24.672,129.4922 C24.558,129.528 24.138,124.692 23.724,118.692 C23.31,112.692 23.058,107.862 23.172,107.856 Z" id="Path" fill="#2E353A"></path>
                        <path d="M39.258,92.4 C39.245045,92.5327906 39.2168598,92.6636505 39.174,92.79 C39.084,93.084 38.982,93.444 38.856,93.888 C38.55,94.89 38.142,96.246 37.656,97.902 C36.636,101.298 35.256,105.99 33.87,111.21 C32.484,116.43 31.326,121.2 30.522,124.65 L29.562,128.736 L29.292,129.846 C29.2675152,129.97641 29.2272178,130.103347 29.172,130.224 C29.1681209,130.090712 29.1822485,129.957509 29.214,129.828 C29.268,129.528 29.334,129.156 29.412,128.706 C29.592,127.728 29.874,126.306 30.246,124.59 C30.984,121.122 32.094,116.352 33.492,111.12 C34.89,105.888 36.3,101.208 37.386,97.83 C37.926,96.144 38.382,94.782 38.712,93.852 C38.868,93.42 39,93.066 39.102,92.778 C39.1340489,92.6446615 39.1866803,92.5171315 39.258,92.4 Z" id="Path" fill="#2E353A"></path>
                        <path d="M46.2,110.184 C46.29,110.25 43.47,114.45 39.906,119.568 C36.342,124.686 33.378,128.79 33.306,128.73 C33.234,128.67 36.03,124.464 39.6,119.346 C43.17,114.228 46.122,110.124 46.2,110.184 Z" id="Path" fill="#2E353A"></path>
                        <path d="M18.396,129.498 C17.9323902,129.261307 17.5058791,128.9581 17.13,128.598 C16.1758383,127.800782 15.2645624,126.953596 14.4,126.06 C13.5275068,125.169579 12.7042815,124.232184 11.934,123.252 C11.5827765,122.866623 11.2896868,122.432042 11.064,121.962 C11.154,121.89 12.654,123.708 14.664,125.784 C16.674,127.86 18.468,129.408 18.396,129.498 Z" id="Path" fill="#2E353A"></path>
                        <path d="M27.162,122.886 C27.27,122.886 27.498,124.416 27.672,126.318 C27.846,128.22 27.9,129.78 27.792,129.786018 C27.684,129.792 27.45,128.262 27.276,126.354 C27.102,124.446 27.054,122.898 27.162,122.886 Z" id="Path" fill="#2E353A"></path>
                        <path d="M43.632,137.358 C43.2247639,137.47384 42.8096803,137.560065 42.39,137.616 C41.586,137.754 40.422,137.94 38.976,138.138 C35.1961561,138.672377 31.390966,139.008836 27.576,139.146 C23.7694474,139.288234 19.9576063,139.129741 16.176,138.672 C14.73,138.486 13.566,138.294 12.762,138.126 C12.3454316,138.057865 11.9343533,137.959607 11.532,137.832 C11.9551863,137.841691 12.3767484,137.887862 12.792,137.97 C13.596,138.096 14.766,138.24 16.212,138.396 C19.9817434,138.768899 23.7723423,138.887167 27.558,138.75 C31.998,138.6 36,138.186 38.892,137.862 L42.324,137.46 C42.7562854,137.388695 43.1938867,137.35457 43.632,137.358 Z" id="Path" fill="#FFFFFF"></path>
                        <path d="M43.632,140.94 C43.2269115,141.064387 42.8111144,141.150761 42.39,141.198 C41.586,141.342 40.422,141.522 38.976,141.726 C35.1954735,142.254412 31.3905912,142.590844 27.576,142.734 C23.7694474,142.876234 19.9576063,142.717741 16.176,142.26 C14.73,142.068 13.566,141.882 12.762,141.708 C12.3441703,141.646267 11.9325831,141.547887 11.532,141.414 C11.955358,141.425698 12.3769192,141.473876 12.792,141.558 C13.596,141.678 14.766,141.828 16.212,141.978 C19.9818043,142.349901 23.7722021,142.470167 27.558,142.338 C31.998,142.182 36,141.774 38.892,141.444 L42.324,141.048 C42.7561159,140.974714 43.1937159,140.938582 43.632,140.94 L43.632,140.94 Z" id="Path" fill="#FFFFFF"></path>
                    </g>
                </g>
            </g>
        </g>
    </g>
</svg>