<?xml version="1.0" encoding="UTF-8"?>
<svg width="321px" height="270px" viewBox="0 0 321 270" version="1.1" xmlns="http://www.w3.org/2000/svg" xmlns:xlink="http://www.w3.org/1999/xlink">
    <title>Group 8</title>
    <g id="Page-1" stroke="none" stroke-width="1" fill="none" fill-rule="evenodd">
        <g id="Resumig-home-activities" transform="translate(-46.000000, -3732.000000)">
            <g id="Group-8" transform="translate(46.000000, 3732.000000)">
                <g id="Mask-Copy-10" transform="translate(27.000000, 0.000000)" fill="#E13856" opacity="0.0770321801">
                    <circle id="Mask-Copy-7" cx="135" cy="135" r="135"></circle>
                </g>
                <g id="Asset-11" transform="translate(0.000000, 66.000000)" fill-rule="nonzero">
                    <g id="freepik--background-complete--inject-2">
                        <rect id="Rectangle" fill="#E4E4E4" x="0" y="149.08" width="320.44" height="1"></rect>
                        <rect id="Rectangle" fill="#E4E4E4" x="17.23" y="157.63" width="70.09" height="1"></rect>
                        <rect id="Rectangle" fill="#E4E4E4" x="120.76" y="153.71" width="37.05" height="1"></rect>
                        <rect id="Rectangle" fill="#E4E4E4" x="218.02" y="155.79" width="21.01" height="1"></rect>
                        <rect id="Rectangle" fill="#E4E4E4" x="255.14" y="155.79" width="9.96" height="1"></rect>
                        <rect id="Rectangle" fill="#E4E4E4" x="94.3" y="157.63" width="11.51" height="1"></rect>
                        <rect id="Rectangle" fill="#E4E4E4" x="271" y="155.79" width="30.22" height="1"></rect>
                        <rect id="Rectangle" fill="#F4F4F4" x="183.34" y="50.83" width="50.51" height="98.25"></rect>
                        <rect id="Rectangle" fill="#E9E9E9" x="229.68" y="50.83" width="4.17" height="98.25"></rect>
                        <rect id="Rectangle" fill="#E9E9E9" x="70.94" y="53.63" width="116.3" height="21.22"></rect>
                        <rect id="Rectangle" fill="#E9E9E9" x="76.54" y="50.83" width="157.31" height="7.37"></rect>
                        <rect id="Rectangle" fill="#F4F4F4" x="26.03" y="50.83" width="50.51" height="98.25"></rect>
                        <rect id="Rectangle" fill="#E9E9E9" x="72.37" y="50.83" width="4.17" height="98.25"></rect>
                        <polygon id="Path" fill="#E4E4E4" points="148.17 50.83 140.29 50.83 138.78 48.43 146.66 48.43"></polygon>
                        <polygon id="Path" fill="#F4F4F4" points="190.39 50.83 142.7 50.83 141.19 48.43 183.96 48.43"></polygon>
                        <path d="M87.83,44.74 L91.27,44.74 C94.6295128,44.7399955 97.3544836,47.4604918 97.36,50.82 L81.74,50.82 C81.74,47.4565859 84.4665859,44.73 87.83,44.73 L87.83,44.74 Z" id="Path" fill="#EFEFEF"></path>
                        <path d="M134.71,50.83 L117,50.83 L117,50.6 C117,49.6279788 117.787979,48.84 118.76,48.84 L133,48.84 C133.972021,48.84 134.76,49.6279788 134.76,50.6 L134.76,50.83 L134.71,50.83 Z" id="Path" fill="#F4F4F4"></path>
                        <path d="M119,50.83 L107,50.83 L107,50.6 C107,50.1314812 107.186793,49.6822961 107.519023,49.3519431 C107.851253,49.0215901 108.301489,48.837338 108.77,48.84 L117.27,48.84 C118.230285,48.8563709 119.00014,49.6395751 119,50.6 L119,50.83 L119,50.83 Z" id="Path" fill="#E4E4E4"></path>
                        <path d="M56.91,17.82 L56.91,17.77 C57.18,16.84 57.44,15.89 57.67,14.95 C59.07,16.77 60.43,17.23 61.45,17.23 L61.78,17.23 C63.78,17.03 65.72,15.06 66.94,12.02 C66.9796727,11.899857 66.9796727,11.770143 66.94,11.65 C66.8783263,11.5434788 66.7780885,11.4647205 66.66,11.43 C63.74191,10.6914752 60.6474158,11.2296481 58.15,12.91 C58.33,12.02 58.48,11.12 58.61,10.23 C58.9396756,10.2920009 59.2745517,10.3221397 59.61,10.32 C62.89,10.32 65.29,7.39 65.37,7.26 C65.458866,7.15091736 65.4887446,7.0052592 65.45,6.87 C65.4161027,6.73656206 65.3189594,6.62820988 65.19,6.58 C63.654157,5.81245136 61.8630749,5.73964314 60.27,6.38 C59.4271863,6.82351104 58.7476419,7.52407229 58.33,8.38 C57.0995376,4.50853521 53.7989397,1.65626203 49.79,1 C49.670427,0.976041488 49.5463445,1.00523736 49.45,1.08 C49.3467151,1.15447968 49.2838991,1.27272159 49.28,1.4 C49.11,4.4 49.2,8.02 51.44,9.76 C52.3681864,10.4501974 53.5041212,10.8029721 54.66,10.76 C55.6963261,10.7396877 56.7253477,10.5816354 57.72,10.29 C57.4004115,12.4380496 56.9394097,14.5626663 56.34,16.65 C54.1546627,13.6855916 51.0612888,11.5156653 47.53,10.47 C47.4212205,10.4395555 47.3047632,10.4542118 47.2069193,10.5106602 C47.1090755,10.5671086 47.0380941,10.6605899 47.01,10.77 L47.01,10.77 C46.34,13.33 46.68,15.41 48.01,16.77 C49.3732201,17.9988774 51.179749,18.6167102 53.01,18.48 C53.977268,18.4702611 54.9414906,18.3698212 55.89,18.18 C55.34,19.94 54.72,21.66 54.07,23.3 C52.73,22.12 48.8,19.11 44.52,20.36 C44.4017171,20.3953902 44.303745,20.4788479 44.25,20.59 C44.2003714,20.7013888 44.2003714,20.8286112 44.25,20.94 C45.42,23.78 46.74,25.35 48.4,25.94 C48.843263,26.0795513 49.3052888,26.1503728 49.77,26.15 C51.0396573,26.0917372 52.2771606,25.7317986 53.38,25.1 C52.45,27.26 51.48,29.31 50.55,31.1 C49.55,30.01 46.79,27.77 41.9,28.8 C41.6873372,28.8529702 41.5437619,29.0514419 41.56,29.27 C41.780016,31.122469 42.9683049,32.71828 44.68,33.46 C45.3127067,33.7285048 45.9926805,33.8678994 46.68,33.87 C47.6441826,33.8530189 48.5903915,33.6061818 49.44,33.15 C48.44,34.9 47.62,36.36 46.95,37.48 L38.75,37.48 C37.45,35.25 35.95,32.48 34.48,29.37 C35.1622947,29.5712019 35.8687448,29.6788514 36.58,29.69 C39.7353098,29.7289222 42.3261065,27.2052446 42.37,24.05 C42.3804523,23.5440422 42.3198617,23.0391202 42.19,22.55 C42.1293142,22.3508543 41.9373629,22.2214958 41.73,22.24 C38.336896,22.5841543 35.319464,24.5473478 33.63,27.51 C32.63,25.35 31.74,23.05 30.92,20.67 C31.9612177,21.2691849 33.1300882,21.6119621 34.33,21.67 C34.8021493,21.6718924 35.2715121,21.5976048 35.72,21.45 C38.08,20.65 39.5,17.75 40.72,14.74 C40.780448,14.6276124 40.780448,14.4923876 40.72,14.38 C40.6693332,14.2724358 40.5744668,14.1921643 40.46,14.16 C35.6,12.8 31.66,17.45 30.46,19.1 C29.7975543,17.0971153 29.240129,15.0610108 28.79,13 C29.8059823,13.1894252 30.8365601,13.2898062 31.87,13.3 C33.9457242,13.4422617 35.9876251,12.7181834 37.51,11.3 C38.95,9.76 39.31,7.45 38.51,4.63 C38.4313064,4.42454255 38.2155902,4.3061101 38,4.35 C34.1557132,5.5542853 30.8095861,7.98049078 28.47,11.26 C28.41,10.89 28.35,10.54 28.29,10.16 C28.2728962,10.0674936 28.2314785,9.98120658 28.17,9.91 C27.7773715,8.49220174 26.8141376,7.30083345 25.51,6.62 C24.07,5.9 22.25,6.03 20.11,6.91 C19.9777273,6.95625645 19.8816457,7.07155437 19.86,7.21 C19.8211867,7.34206493 19.8512349,7.48479367 19.94,7.59 C20.07,7.74 22.72,10.87 26.28,10.87 C26.6631348,10.8696712 27.0451943,10.8294544 27.42,10.75 C27.58,11.75 27.77,12.75 27.99,13.82 C25.2143645,11.9830907 21.7825267,11.4293335 18.57,12.3 C18.4511224,12.3282461 18.3516746,12.4092775 18.3,12.52 C18.2499091,12.6347727 18.2499091,12.7652273 18.3,12.88 C19.68,16.23 21.83,18.35 24.07,18.53 L24.37,18.53 C25.49,18.53 27.01,18.01 28.55,15.94 C29.1473538,18.2831749 29.8683632,20.5930753 30.71,22.86 C28.62,21.86 23.94,20.18 20.62,22.77 C20.434863,22.9140369 20.395271,23.1779833 20.53,23.37 C22.7,26.32 24.7,27.75 26.66,27.75 L26.71,27.75 C28.34,27.75 29.89,26.75 31.45,24.7 C32.34,26.92 33.29,29.03 34.25,31 C32.17,29.71 29.88,29.91 27.18,31.61 C27.0839443,31.6731777 27.017189,31.7721908 26.9946415,31.8849283 C26.972094,31.9976658 26.9956323,32.1147376 27.06,32.21 C27.0892138,32.2595001 27.1304999,32.3007862 27.18,32.33 C28.7802661,33.4649356 30.6626959,34.1362433 32.62,34.27 C33.6499506,34.2846088 34.6592788,33.9807626 35.51,33.4 C36.1540712,34.8021001 36.8751717,36.1675173 37.67,37.49 L33.91,37.49 L33.91,39.6 L35.27,39.6 L36.39,50.83 L52.87,50.83 L54,39.6 L55.36,39.6 L55.36,37.49 L47.96,37.49 C48.79,36.13 49.84,34.31 50.96,32.17 C50.9810386,32.1154273 50.9944972,32.0582282 51,32 C51.28,31.46 51.56,30.91 51.85,30.33 C52.8460316,31.8329363 54.5079486,32.7607779 56.31,32.82 L56.86,32.82 C58.8597584,32.5858047 60.5613786,31.2546052 61.27,29.37 C61.3398217,29.1710752 61.2551266,28.9508678 61.07,28.85 C58.5067122,27.4112603 55.4090698,27.2885446 52.74,28.52 C53.36,27.2 53.98,25.8 54.57,24.34 C54.6106979,24.2835348 54.6380514,24.2185702 54.65,24.15 C54.82,23.74 54.98,23.32 55.14,22.91 C56.58,24.72 58.02,25.6 59.47,25.6 L59.47,25.6 C61.26,25.6 63.07,24.28 65.03,21.54 C65.1526423,21.3766532 65.1399813,21.1487566 65,21 C61.94,18.69 57.74,20.27 55.83,21.18 C56.22,20.1 56.59,19 56.92,17.88 C57.38,16.18 56.91,17.83 56.91,17.82 Z" id="Path" fill="#E9E9E9"></path>
                        <path d="M210,100 L242.31,100 C248.476946,100.001165 253.510148,95.0657815 253.63,88.9 L254.8,29.7 C254.889263,25.1416185 251.268308,21.3729607 246.71,21.28 L226.29,21.28 C222.094241,21.2832201 218.567482,24.4314977 218.09,28.6 L210,100 Z" id="Path" fill="#E9E9E9"></path>
                        <path d="M227.54,100 L193.11,100 C192.219206,99.9945012 191.5,99.2708106 191.5,98.38 L191.5,98.23 C191.5,95.7889014 193.478901,93.81 195.92,93.81 L227.54,93.81 L227.54,100 L227.54,100 Z" id="Path" fill="#E9E9E9"></path>
                        <path d="M224.84,149.88 C224.492892,149.891671 224.188286,149.650525 224.12,149.31 L214,100.67 L196.43,100.67 L186.34,149.31 C186.259919,149.707645 185.872645,149.965081 185.475,149.885 C185.077355,149.804919 184.819919,149.417645 184.9,149.02 L195.12,99.8 C195.191965,99.4617425 195.494255,99.2224294 195.84,99.2298254 L214.59,99.2298254 C214.935745,99.2224294 215.238035,99.4617425 215.31,99.8 L225.52,149 C225.599939,149.389333 225.349279,149.769798 224.96,149.85 L224.84,149.85 L224.84,149.88 Z" id="Path" fill="#DEDEDE"></path>
                        <path d="M213.87,149.880289 L213.73,149.880289 C213.340721,149.799798 213.090061,149.419333 213.17,149.03 L213.17,149.03 L223.38,99.82 C223.447776,99.4777572 223.751174,99.2333535 224.1,99.2398325 L242.84,99.2398325 C243.191185,99.2325212 243.497902,99.4762142 243.57,99.82 L253.78,149 C253.815596,149.375331 253.563322,149.717419 253.194232,149.794313 C252.825142,149.871206 252.457248,149.65832 252.34,149.3 L242.25,100.68 L224.68,100.68 L214.59,149.33 C214.509889,149.660288 214.209729,149.889577 213.87,149.880289 L213.87,149.880289 Z" id="Path" fill="#DEDEDE"></path>
                    </g>
                    <g id="freepik--Shadow--inject-2" transform="translate(20.000000, 165.000000)" fill="#F4F4F4">
                        <ellipse id="Oval" cx="140.22" cy="8.47" rx="139.77" ry="8.16"></ellipse>
                    </g>
                    <g id="freepik--Character--inject-2" transform="translate(54.000000, 22.000000)">
                        <path d="M210,61.86 L209,75.48 C208.979317,75.6962112 208.797196,75.8609871 208.58,75.86 L202.73,75.86 C202.510946,75.8659263 202.325954,75.6985527 202.31,75.48 L202,72.42 L201.48,65.31 L201.23,61.86 L210,61.86 Z" id="Path" fill="#577AFA"></path>
                        <path d="M210,61.86 L209,75.48 C208.979317,75.6962112 208.797196,75.8609871 208.58,75.86 L202.73,75.86 C202.510946,75.8659263 202.325954,75.6985527 202.31,75.48 L202,72.42 L201.48,65.31 L201.23,61.86 L210,61.86 Z" id="Path" fill="#00A0FF"></path>
                        <rect id="Rectangle" fill="#E9E9E9" transform="translate(205.576781, 61.851908) rotate(-89.940000) translate(-205.576781, -61.851908) " x="204.891781" y="56.5269079" width="1.37" height="10.65" rx="0.62"></rect>
                        <path d="M33.07,44.3999957 L172.48,44.3999957 C175.592722,44.3973464 178.578863,45.6320105 180.780828,47.8320999 C182.982793,50.0321893 184.22,53.0172772 184.22,56.13 L184.22,56.13 L184.22,109.48 L21.3099825,109.48 L21.3099825,56.14 C21.2989398,49.6711154 26.5311271,44.4165491 33,44.3999957 L33.07,44.3999957 Z" id="Path" fill="#4D5A64"></path>
                        <path d="M33.07,44.3999957 L172.48,44.3999957 C175.592722,44.3973464 178.578863,45.6320105 180.780828,47.8320999 C182.982793,50.0321893 184.22,53.0172772 184.22,56.13 L184.22,56.13 L184.22,109.48 L21.3099825,109.48 L21.3099825,56.14 C21.2989398,49.6711154 26.5311271,44.4165491 33,44.3999957 L33.07,44.3999957 Z" id="Path" fill="#FFFFFF" opacity="0.3"></path>
                        <path d="M47,44.3999955 L176.14,44.3999955 C182.31064,44.3999955 187.314481,49.3993621 187.32,55.57 L187.32,109.49 L35.82,109.49 L35.82,55.56 C35.822651,52.5975314 37.00203,49.7574511 39.098687,47.6645449 C41.195344,45.5716386 44.0375314,44.3973466 47,44.3999955 Z" id="Path" fill="#4D5A64"></path>
                        <path d="M47,44.3999955 L176.14,44.3999955 C182.31064,44.3999955 187.314481,49.3993621 187.32,55.57 L187.32,109.49 L35.82,109.49 L35.82,55.56 C35.822651,52.5975314 37.00203,49.7574511 39.098687,47.6645449 C41.195344,45.5716386 44.0375314,44.3973466 47,44.3999955 Z" id="Path" fill="#FFFFFF" opacity="0.6"></path>
                        <path d="M180.23,75.84 L179.16,75.84 C171.64,76.38 165.55,82.76 165.07,90.61 C164.962364,92.3417388 165.127717,94.0796322 165.56,95.76 C167.220073,102.505401 168.01976,109.433784 167.94,116.38 L167.94,146.85 C167.917647,148.283873 169.056328,149.467208 170.49,149.5 L220.78,149.5 L220.78,75.84 L180.23,75.84 Z" id="Path" fill="#4D5A64"></path>
                        <path d="M180.23,75.84 L179.16,75.84 C171.64,76.38 165.55,82.76 165.07,90.61 C164.962364,92.3417388 165.127717,94.0796322 165.56,95.76 C167.220073,102.505401 168.01976,109.433784 167.94,116.38 L167.94,146.85 C167.917647,148.283873 169.056328,149.467208 170.49,149.5 L220.78,149.5 L220.78,75.84 L180.23,75.84 Z" id="Path" fill="#FFFFFF" opacity="0.4"></path>
                        <path d="M236,91.67 C236,82.56 228.61,75.25 219.73,75.88 C212.2,76.42 206.12,82.79 205.63,90.64 C205.521975,92.3750493 205.687326,94.1162961 206.12,95.8 C207.78008,102.542004 208.579774,109.467082 208.5,116.41 L208.5,146.89 C208.477647,148.323873 209.616328,149.507208 211.05,149.54 L230.5,149.54 C231.933672,149.507208 233.072353,148.323873 233.05,146.89 L233.05,115.25 C232.990876,108.735266 233.780859,102.240597 235.4,95.93 C235.784942,94.5422464 235.986654,93.1100911 236,91.67 Z" id="Path" fill="#4D5A64"></path>
                        <path d="M236,91.67 C236,82.56 228.61,75.25 219.73,75.88 C212.2,76.42 206.12,82.79 205.63,90.64 C205.521975,92.3750493 205.687326,94.1162961 206.12,95.8 C207.78008,102.542004 208.579774,109.467082 208.5,116.41 L208.5,146.89 C208.477647,148.323873 209.616328,149.507208 211.05,149.54 L230.5,149.54 C231.933672,149.507208 233.072353,148.323873 233.05,146.89 L233.05,115.25 C232.990876,108.735266 233.780859,102.240597 235.4,95.93 C235.784942,94.5422464 235.986654,93.1100911 236,91.67 Z" id="Path" fill="#FFFFFF" opacity="0.6"></path>
                        <rect id="Rectangle" fill="#4D5A64" x="67.1" y="100.79" width="132.74" height="48.76"></rect>
                        <rect id="Rectangle" fill="#FFFFFF" opacity="0.4" x="67.1" y="100.79" width="132.74" height="48.76"></rect>
                        <path d="M70.77,96.77 L199,96.77 C200.910905,96.77 202.460362,98.3190948 202.460362,100.23 L202.460362,109.49 C202.473387,110.416281 202.114771,111.309246 201.464438,111.968976 C200.814106,112.628706 199.926378,113 199,113 L70.77,113 C70.2177153,113 69.77,112.552285 69.77,112 L69.77,97.8 C69.77,97.2477153 70.2177153,96.8 70.77,96.8 L70.77,96.77 Z" id="Path" fill="#4D5A64"></path>
                        <path d="M70.77,96.77 L199,96.77 C200.910905,96.77 202.460362,98.3190948 202.460362,100.23 L202.460362,109.49 C202.473387,110.416281 202.114771,111.309246 201.464438,111.968976 C200.814106,112.628706 199.926378,113 199,113 L70.77,113 C70.2177153,113 69.77,112.552285 69.77,112 L69.77,97.8 C69.77,97.2477153 70.2177153,96.8 70.77,96.8 L70.77,96.77 Z" id="Path" fill="#FFFFFF" opacity="0.2"></path>
                        <path d="M15.1099732,149.54 L221.56,149.54 L221.56,149.54 C221.56,150.583818 220.713818,151.43 219.67,151.43 L17,151.43 C16.4979247,151.432678 16.0156384,151.234413 15.6606125,150.879387 C15.3055866,150.524362 15.1073222,150.042075 15.1099732,149.54 L15.1099732,149.54 L15.1099732,149.54 Z" id="Path" fill="#4D5A64"></path>
                        <path d="M15.1099732,149.54 L221.56,149.54 L221.56,149.54 C221.56,150.583818 220.713818,151.43 219.67,151.43 L17,151.43 C16.4979247,151.432678 16.0156384,151.234413 15.6606125,150.879387 C15.3055866,150.524362 15.1073222,150.042075 15.1099732,149.54 L15.1099732,149.54 L15.1099732,149.54 Z" id="Path" fill="#FFFFFF" opacity="0.2"></path>
                        <path d="M197.08,140.6 C194.14233,141.35364 191.088436,141.54366 188.08,141.16 C188.538953,141.033444 188.932356,140.736604 189.18,140.33 C189.286656,140.075247 189.252531,139.78329 189.09,139.56 C189.008576,139.414809 188.856427,139.323519 188.69,139.32 C188.24,139.32 187.69,139.97 187.19,140.54 C187.410266,139.967109 187.410266,139.332891 187.19,138.76 C187.05885,138.582276 186.821643,138.519853 186.62,138.61 C186.415314,138.670873 186.249609,138.821848 186.17,139.02 C186.01685,139.644015 186.073069,140.301072 186.33,140.89 L186,141 L183.08,137.1 L184.26,136.03 L183.44,134.03 L182.69,134.67 C181.97,133.55 180.84,131.72 179.46,129.41 C182.46,122.95 185.18,114.9 185.36,106.49 C185.61,94.95 171.04,89.06 159.73,86.25 L162.14,68.25 C163.208308,65.6819071 164.061246,63.0294373 164.69,60.32 C165.318151,59.2103051 165.703324,57.9797965 165.82,56.71 L165.59,51.71 L160.92,50.99 L160.56,53.31 L160.68,54.31 C160.228865,54.0424616 159.674372,54.0162355 159.2,54.24 C158.419888,53.2705106 157.002825,53.1140525 156.03,53.89 C155.676252,53.5284883 155.211458,53.2960916 154.71,53.23 C154.161789,53.1486323 153.603276,53.2811001 153.15,53.6 C152.39,50.6 151.15,47 149.72,46.6 C149.064145,46.4196519 148.395563,46.2892784 147.72,46.21 C146.14,45.93 143.83,45.54 141.44,45.21 C140.72,45.1166667 140,45.0366667 139.28,44.97 L139.28,44.97 C139.035719,44.9114878 138.795266,44.8380159 138.56,44.75 L139.73,44.5 C141.348291,45.0678948 143.111709,45.0678948 144.73,44.5 L149.22,44.5 L149.22,44.4 L56.92,44.4 C55.2605777,47.7302686 53.8175851,51.1640566 52.6,54.68 L54.13,55.28 C53.32,57.01 52.57,58.77 51.91,60.61 C51.1814948,62.5862921 50.6195366,64.6200455 50.23,66.69 C50.0283658,67.809607 49.9113681,68.9428139 49.88,70.08 C49.8283082,71.4399252 50.0353077,72.7972984 50.49,74.08 C50.747924,74.8522914 51.1222358,75.580682 51.6,76.24 C52.1153101,76.9353217 52.7522485,77.5316044 53.48,78 C54.1473222,78.436991 54.8750435,78.773899 55.64,79 C56.3188909,79.1581615 57.0129751,79.2419881 57.71,79.25 C58.904668,79.2395987 60.0910853,79.0508505 61.23,78.69 C61.55,78.59 61.86,78.46 62.17,78.35 C62.9834379,78.5697398 63.8183308,78.7005061 64.66,78.74 L68.79,80.64 L71.1,76.49 C71.35,79.15 71.53,81.12 71.72,82.13 C73.01,90.23 75.38,95.41 79.29,98.13 C83.4,100.96 95.29,99.13 102.91,98.73 C104.91,100.4 106.83,102.1 108.74,103.73 C105.68,113.27 98.39,128.32 95.82,133.51 L95.32,133.17 L93.71,135.85 L95.3,137.12 L94,138.74 L94,138.74 L90.4,143.37 L89.93,143.08 C89.7430196,142.961588 89.4993152,142.986371 89.34,143.14 L85.7,146.42 C85.4041963,146.673986 85.3642999,147.117279 85.61,147.42 C85.6638658,147.483658 85.728104,147.537753 85.8,147.58 C87.4379851,148.706741 89.137267,149.741667 90.89,150.68 C91.3477395,150.892378 91.7919191,151.132836 92.22,151.4 L98.12,151.4 C97.2635232,150.367329 96.5873714,149.197587 96.12,147.94 C96.4868089,148.209541 96.9177333,148.378463 97.37,148.43 L97.5,148.43 C97.7345174,148.401735 97.9420151,148.264638 98.06,148.06 C98.1300131,147.943008 98.1300131,147.796992 98.06,147.68 C97.88,147.32 97.06,147.09 96.28,146.96 C96.93,146.84 97.56,146.62 97.69,146.3 C97.75,146.18 97.75,145.99 97.49,145.78 C96.77,145.23 95.78,145.96 95.26,146.45 C95.1578985,146.331305 95.0401568,146.22702 94.91,146.14 L99.48,140.28 L101.48,141.91 L104.22,139.12 L103.05,138.32 C109.086875,130.630295 114.701805,122.618505 119.87,114.32 C127.8,123.45 134.54,135.74 137.33,141.18 L136.51,141.73 L138.58,144.62 L140.5,143.18 L141.94,145.55 L144.71,150.15 L144.27,150.48 C144.095499,150.613318 144.033726,150.848057 144.12,151.05 L144.27,151.44 L152.68,151.44 L153.08,151.13 C154.76,149.85 156.32,148.76 158.08,147.52 C158.015529,147.911076 158.188117,148.30332 158.52,148.52 C160.36,149.64 161.41,150.17 163.44,151.44 L170.82,151.44 C170.076626,150.520433 169.562493,149.437327 169.32,148.28 C169.810526,148.720481 170.418534,149.00885 171.07,149.11 L171.23,149.11 C171.481833,149.068359 171.695945,148.90308 171.8,148.67 C171.86934,148.538586 171.86934,148.381414 171.8,148.25 C171.56,147.8 170.44,147.53 169.54,147.38 C170.33,147.25 171.14,146.97 171.31,146.58 C171.37,146.44 171.38,146.22 171.08,145.99 C170.862698,145.809876 170.579396,145.72997 170.3,145.77 C169.675981,145.929604 169.116911,146.279023 168.7,146.77 C168.608476,146.667278 168.504314,146.576556 168.39,146.5 L167.91,146.2 L170.46,142.44 L172.78,143.79 L174.06,142.45 L172.59,141.52 L173.45,140.2 C173.79,139.69 174.17,139.14 174.52,138.55 C175.16,139.22 175.72,139.79 176.16,140.23 L175.44,140.85 L177.6,142.19 L178.69,141.19 L179.92,142.84 L180.44,143.56 L179.72,143.88 C179.49011,143.976743 179.369572,144.230734 179.44,144.47 L180.99,149.8 C181.165699,150.310126 181.714393,150.588898 182.23,150.43 L182.34,150.43 C184.5,149.43 185.53,148.79 188.34,147.55 C190.05,146.78 194.52,144.97 196.88,143.9 C199.24,142.83 198.17,140.37 197.08,140.6 Z M67.67,72.6 L61.9,73.6 L61.84,73.69 C60.6355582,73.814 59.4188692,73.7362671 58.24,73.46 C57.9870757,73.3897297 57.7448634,73.2854438 57.52,73.15 C57.383004,73.0716563 57.2664952,72.9620009 57.18,72.83 C57.18,72.74 57.12,72.64 57.1,72.55 C57.0858149,72.4036763 57.0858149,72.2563237 57.1,72.11 C57.0691913,70.7939403 57.2103852,69.4794924 57.52,68.2 C57.9371358,66.5635836 58.4718588,64.9594146 59.12,63.4 C59.84,61.67 60.64,59.96 61.53,58.25 L64.16,59.25 C64.16,59.25 65.82,56.08 67.6,52.13 L67.73,52.74 C67.81,53.1 67.88,53.46 67.95,53.81 C69.3564929,60.8957663 70.374678,68.0531063 71,75.25 L67.67,72.6 Z M97.78,147.83 C97.8100427,147.871831 97.8100427,147.928169 97.78,147.97 C97.7096282,148.112965 97.5688972,148.208053 97.41,148.22 C96.8240589,148.161412 96.2747315,147.907876 95.85,147.5 C95.79,147.38 95.74,147.25 95.67,147.12 C96.59,147.3 97.63,147.53 97.78,147.84 L97.78,147.83 Z M97.28,146.01 C97.45,146.14 97.42,146.21 97.41,146.24 C97.29,146.54 96.26,146.79 95.48,146.82 L95.37,146.67 C95.84,146.25 96.71,145.58 97.28,146 L97.28,146.01 Z M171.59,148.35 C171.619493,148.42383 171.619493,148.50617 171.59,148.58 C171.506094,148.751138 171.347018,148.87322 171.16,148.91 C170.400579,148.844901 169.690277,148.507508 169.16,147.96 C169.16,147.81 169.08,147.67 169.03,147.52 C170,147.69 171.36,148 171.59,148.36 L171.59,148.35 Z M170.29,145.98 C170.514817,145.940485 170.745579,146.002754 170.92,146.15 C171.15,146.33 171.1,146.46 171.08,146.5 C170.93,146.86 169.84,147.18 168.96,147.22 C168.916646,147.114989 168.863054,147.014504 168.8,146.92 C169.187611,146.460239 169.708138,146.131853 170.29,145.98 L170.29,145.98 Z M121.71,82.2 L121.71,82.2 C121.596488,82.1962327 121.485749,82.235527 121.4,82.31 C116.1,80.7 109.27,79.92 103.33,79.55 C101.17,78.4 99.81,77.76 99.81,77.76 C100.430138,67.2106909 99.6058465,56.6261158 97.36,46.3 C101.13,46.94 104.28,47.19 104.28,47.19 L104.59,45.19 L104.66,45.19 C108.465642,46.0606561 112.318862,46.7084245 116.2,47.13 C113.79,49.59 110.89,57.03 110.89,57.03 L113.2,58.68 C112.67,60.53 112.2,62.38 111.76,64.27 C111.32,66.16 110.94,68.02 110.66,69.97 C110.5,70.97 110.39,71.97 110.32,72.97 C110.32,73.49 110.27,73.97 110.27,74.57 L110.27,75.42 C110.29046,75.8941795 110.367677,76.364198 110.5,76.82 C110.806436,77.7982717 111.390006,78.6666793 112.18,79.32 C112.797469,79.8299873 113.506922,80.2169616 114.27,80.46 C115.410697,80.8289756 116.601145,81.0212009 117.8,81.03 C119.137312,81.0589025 120.474815,80.9819961 121.8,80.8 C121.8,81.27 121.8,81.73 121.8,82.21 L121.71,82.2 Z M115.94,75.12 C115.898733,75.092107 115.861688,75.0584296 115.83,75.02 C115.884603,75.0353307 115.931176,75.0711562 115.96,75.12 L115.94,75.12 Z M118.11,75.7 C117.444981,75.6382847 116.791931,75.4834378 116.17,75.24 L116.04,75.18 L116.04,74.7 C116.055281,74.3073917 116.098726,73.9163869 116.17,73.53 C116.27,72.71 116.42,71.86 116.59,71 C116.94,69.29 117.38,67.54 117.83,65.79 C118.11,64.79 118.4,63.71 118.7,62.68 L120.55,64 L120.67,63.77 C120.92,65.39 121.13,66.9 121.28,68.31 L121.28,68.31 C121.58,71.07 121.72,73.48 121.76,75.8 C120.545862,75.8566366 119.329197,75.8232117 118.12,75.7 L118.11,75.7 Z M149.73,146.6 L149.54,146.6 C149.3,146 148.99,144.96 149.61,144.6 C149.66703,144.562213 149.732086,144.538245 149.8,144.53 L149.87,144.53 C150.11,144.77 150,145.82 149.74,146.53 L149.73,146.6 Z M150.1,146.55 C150.55,145.74 151.15,144.84 151.49,144.81 L151.49,144.81 C151.530937,144.813088 151.56801,144.835332 151.59,144.87 C151.689467,144.993414 151.729688,145.154297 151.7,145.31 C151.62,145.65 151.21,146.07 150.55,146.49 C150.404585,146.518298 150.257683,146.53833 150.11,146.55 L150.1,146.55 Z M166.68,131.73 C165.83,134.06 165.15,135.73 164.68,136.73 L163.84,136.22 L162.97,138.01 L165.06,139.23 L163.91,140.93 L163.91,140.93 L162.64,142.8 L162.46,142.69 C162.253339,142.559565 161.982672,142.597627 161.82,142.78 L161.53,143.12 C161.41,142.57 161.06,142.23 160.69,142.4 C157.21,144.01 154.61,145.77 151.09,146.32 C151.467229,146.079477 151.763392,145.731051 151.94,145.32 C151.988416,145.091814 151.933512,144.853895 151.79,144.67 C151.709602,144.558811 151.576689,144.498051 151.44,144.51 C151.04,144.51 150.52,145.23 150.12,145.91 C150.24,145.26 150.27,144.59 150.01,144.36 C149.92,144.26 149.74,144.19 149.46,144.36 C148.68,144.83 149.01,146 149.28,146.67 C149.136306,146.729409 148.998949,146.803113 148.87,146.89 L144.72,140 L147.06,138.27 L145.87,135.38 L145.64,135.53 C142.716886,125.600201 139.180082,115.861466 135.05,106.37 C134.484856,105.14818 133.815726,103.977202 133.05,102.87 C140.39,103.69 149.18,104.39 154.57,113.19 C158.32576,119.226582 162.520407,124.978764 167.12,130.4 C166.96,130.873333 166.8,131.323333 166.64,131.75 L166.68,131.73 Z M171.1,114.05 C169.7,111.17 168.42,108.29 167.39,105.56 C168.045123,105.947234 168.664261,106.392345 169.24,106.89 L169.24,106.89 C169.402842,107.026392 169.556509,107.173378 169.7,107.33 L169.75,107.33 C170.035475,107.63519 170.28695,107.970491 170.5,108.33 C170.527364,108.38684 170.560899,108.440496 170.6,108.49 L170.77,108.82 C170.77,108.89 170.84,108.96 170.86,109.03 C170.88,109.1 170.94,109.23 170.97,109.34 C171.002661,109.417876 171.029403,109.498103 171.05,109.58 C171.05,109.66 171.12,109.87 171.14,110.01 C171.149889,110.163174 171.149889,110.316826 171.14,110.47 C171.202582,111.666309 171.189222,112.865383 171.1,114.06 L171.1,114.05 Z M186.57,140.87 C186.318513,140.312098 186.251941,139.688416 186.38,139.09 C186.442702,138.947887 186.562572,138.838914 186.71,138.79 L186.86,138.79 C186.937875,138.792123 187.009383,138.833522 187.05,138.9 C187.3,139.23 187.11,140.24 186.84,140.9 L186.58,140.9 L186.57,140.87 Z M187.14,140.95 C187.6,140.32 188.27,139.509999 188.69,139.509999 C188.781613,139.50975 188.866026,139.55963 188.91,139.64 C189.039452,139.8047 189.070032,140.026406 188.99,140.22 C188.67151,140.658152 188.200667,140.961347 187.67,141.07 C187.494604,141.039534 187.32101,140.999474 187.15,140.95 L187.14,140.95 Z" id="Shape" fill="#000000" opacity="0.1"></path>
                        <path d="M100.56,34.37 C104.16,35.44 107.92,36.49 111.56,37.46 C113.42,37.9533333 115.273333,38.4166667 117.12,38.85 C118.97,39.29 120.82,39.66 122.66,40 C123.08,40.06 123.39,40.12 123.83,40.16 L125.14,40.26 C126.05,40.32 126.99,40.35 127.93,40.37 C129.84,40.37 131.76,40.37 133.7,40.37 C137.58,40.37 141.5,40.37 145.41,40.37 L145.86,44.37 C141.97,45.25 138.08,45.95 134.13,46.5 C132.13,46.76 130.18,47.01 128.13,47.17 C127.13,47.25 126.13,47.31 125.03,47.36 L123.41,47.36 C122.87,47.36 122.2,47.3 121.65,47.26 C117.614089,46.8303457 113.607101,46.1625145 109.65,45.26 C105.8,44.3 102,43.27 98.1,42 L100.56,34.37 Z" id="Path" fill="#CD877B"></path>
                        <polygon id="Path" fill="#664240" points="189.1 148.46 193.5 144.11 184.84 132.55 180.45 136.89"></polygon>
                        <polygon id="Path" fill="#664240" points="165.16 146.77 170.5 149.89 178.54 138.02 173.2 134.9"></polygon>
                        <polygon id="Path" fill="#4D3333" points="178.54 138.03 174.39 144.14 169.06 141.03 173.2 134.9"></polygon>
                        <polygon id="Path" fill="#4D3333" points="180.45 136.9 184.84 132.55 189.3 138.52 184.91 142.86"></polygon>
                        <path d="M176.34,110.52 C176.52,116.04 174.84,122.78 172.99,128.34 C172.6,129.53 172.19,130.68 171.8,131.74 C170.12,136.33 169.14,138.36 169.14,138.36 L176.86,142.86 C177.34822,141.942863 177.899546,141.060741 178.51,140.22 C179.16,139.22 179.91,138.05 180.67,136.74 C184.81,129.81 190.23,118.5 190.49,106.46 C190.89,87.61 151.84,83.87 151.84,83.87 L133.39,83.87 L138.56,98.56 C138.56,98.56 176,100.48 176.34,110.52 Z" id="Path" fill="#577AFA"></path>
                        <path d="M176.34,110.52 C176.52,116.04 174.84,122.78 172.99,128.34 C172.6,129.53 172.19,130.68 171.8,131.74 C170.12,136.33 169.14,138.36 169.14,138.36 L176.86,142.86 C177.34822,141.942863 177.899546,141.060741 178.51,140.22 C179.16,139.22 179.91,138.05 180.67,136.74 C184.81,129.81 190.23,118.5 190.49,106.46 C190.89,87.61 151.84,83.87 151.84,83.87 L133.39,83.87 L138.56,98.56 C138.56,98.56 176,100.48 176.34,110.52 Z" id="Path" fill="#2E353A"></path>
                        <path d="M171.82,131.74 C173.651999,134.853667 175.895553,137.706041 178.49,140.22 C179.14,139.22 179.88,138.05 180.65,136.74 L172.97,128.34 C172.6,129.53 172.19,130.68 171.82,131.74 Z" id="Path" fill="#000000" opacity="0.3"></path>
                        <path d="M165.45,94.91 L166.23,102.91 C171.7,104.62 175.9,106.91 176.32,110.12 C177.23,103.06 172.29,98.88 165.45,94.91 Z" id="Path" fill="#000000" opacity="0.3"></path>
                        <path d="M145.21,83.87 C145.21,83.87 168.33,93.3 171.88,103.72 C176.37,117.03 188.59,135.82 188.59,135.82 L182.4,141.46 C173.831664,132.901361 166.241686,123.416404 159.77,113.18 C147.77,93.51 118.77,114.29 126.77,83.87 L145.21,83.87 Z" id="Path" fill="#577AFA"></path>
                        <path d="M145.21,83.87 C145.21,83.87 168.33,93.3 171.88,103.72 C176.37,117.03 188.59,135.82 188.59,135.82 L182.4,141.46 C173.831664,132.901361 166.241686,123.416404 159.77,113.18 C147.77,93.51 118.77,114.29 126.77,83.87 L145.21,83.87 Z" id="Path" fill="#2E353A"></path>
                        <path d="M126.4,82.4 L126.21,84.64 C126.11,84.82 126.32,84.99 126.61,84.99 L152,84.99 C152.23,84.99 152.41,84.88 152.43,84.74 L152.65,82.5 C152.65,82.34 152.47,82.2099933 152.23,82.2099933 L126.78,82.2099933 C126.630303,82.2092027 126.48918,82.2797641 126.4,82.4 L126.4,82.4 Z" id="Path" fill="#577AFA"></path>
                        <path d="M129.79,85.24 L129.11,85.24 C128.97,85.24 128.87,85.16 128.88,85.08 L129.2,82.2 C129.2,82.11 129.32,82.04 129.46,82.04 L130.14,82.04 C130.27,82.04 130.38,82.11 130.37,82.2 L130.05,85.08 C130,85.16 129.92,85.24 129.79,85.24 Z" id="Path" fill="#577AFA"></path>
                        <path d="M150.05,85.24 L149.37,85.24 C149.23,85.24 149.13,85.16 149.14,85.08 L149.46,82.2 C149.46,82.11 149.59,82.04 149.72,82.04 L150.4,82.04 C150.54,82.04 150.64,82.11 150.63,82.2 L150.31,85.08 C150.31,85.16 150.19,85.24 150.05,85.24 Z" id="Path" fill="#577AFA"></path>
                        <path d="M139.92,85.24 L139.24,85.24 C139.1,85.24 139,85.16 139.01,85.08 L139.33,82.2 C139.33,82.11 139.46,82.04 139.59,82.04 L140.27,82.04 C140.41,82.04 140.51,82.11 140.5,82.2 L140.18,85.08 C140.17,85.16 140.06,85.24 139.92,85.24 Z" id="Path" fill="#577AFA"></path>
                        <g id="Group" opacity="0.6" transform="translate(128.000000, 82.000000)" fill="#000000">
                            <path d="M1.79,3.24 L1.11,3.24 C0.97,3.24 0.87,3.16 0.88,3.08 L1.2,0.2 C1.2,0.11 1.32,0.04 1.46,0.04 L2.14,0.04 C2.27,0.04 2.38,0.11 2.37,0.2 L2.05,3.08 C2,3.16 1.92,3.24 1.79,3.24 Z" id="Path"></path>
                            <path d="M22.05,3.24 L21.37,3.24 C21.23,3.24 21.13,3.16 21.14,3.08 L21.46,0.2 C21.46,0.11 21.59,0.04 21.72,0.04 L22.4,0.04 C22.54,0.04 22.64,0.11 22.63,0.2 L22.31,3.08 C22.31,3.16 22.19,3.24 22.05,3.24 Z" id="Path"></path>
                            <path d="M11.92,3.24 L11.24,3.24 C11.1,3.24 11,3.16 11.01,3.08 L11.33,0.2 C11.33,0.11 11.46,0.04 11.59,0.04 L12.27,0.04 C12.41,0.04 12.51,0.11 12.5,0.2 L12.18,3.08 C12.17,3.16 12.06,3.24 11.92,3.24 Z" id="Path"></path>
                        </g>
                        <path d="M176.14,149.13 C175.28,149.13 174.04,148.07 173.35,147.42 C173.319443,147.385836 173.319443,147.334164 173.35,147.3 C173.367014,147.260622 173.407248,147.236482 173.45,147.24 C173.76,147.24 176.45,147.53 176.9,148.24 C176.969411,148.37493 176.969411,148.53507 176.9,148.67 C176.788636,148.899572 176.572028,149.06016 176.32,149.1 L176.14,149.13 Z M173.71,147.48 C174.8,148.48 175.71,149 176.27,148.92 C176.457601,148.889928 176.616396,148.76516 176.69,148.59 C176.729128,148.518326 176.729128,148.431674 176.69,148.36 C176.42,147.88 174.7,147.58 173.71,147.48 L173.71,147.48 Z" id="Shape" fill="#2E353A"></path>
                        <path d="M173.76,147.47 L173.4,147.47 C173.364576,147.459134 173.335472,147.433668 173.32,147.4 C173.309974,147.367421 173.309974,147.332579 173.32,147.3 C173.37,147.25 174.37,145.93 175.32,145.81 C175.597962,145.767203 175.881098,145.843432 176.1,146.02 C176.4,146.26 176.39,146.47 176.33,146.61 C176.14,147.14 174.7,147.47 173.76,147.47 Z M173.62,147.26 C174.53,147.31 176.01,146.94 176.19,146.54 C176.19,146.54 176.27,146.38 176.03,146.19 C175.847909,146.05018 175.617473,145.98897 175.39,146.02 C174.68779,146.244045 174.070423,146.67655 173.62,147.26 Z" id="Shape" fill="#2E353A"></path>
                        <path d="M191.8,141.56 C191.764011,141.557703 191.730963,141.539343 191.71,141.51 C191.69035,141.475966 191.69035,141.434034 191.71,141.4 C191.85,141.18 193.05,139.33 193.81,139.33 L193.81,139.33 C193.976922,139.331822 194.131434,139.418499 194.22,139.56 C194.378853,139.784714 194.412749,140.074709 194.31,140.33 C194.01,141.05 192.62,141.4 191.82,141.56 L191.8,141.56 Z M193.8,139.56 L193.8,139.56 C193.31,139.56 192.45,140.69 192.02,141.33 C193.16,141.08 193.93,140.69 194.11,140.28 C194.188968,140.090971 194.16236,139.874304 194.04,139.71 C194.001604,139.608589 193.908105,139.538465 193.8,139.53 L193.8,139.56 Z" id="Shape" fill="#2E353A"></path>
                        <path d="M191.8,141.56 L191.8,141.56 C191.764558,141.5497 191.733139,141.528754 191.71,141.5 C191.71,141.43 190.99,139.82 191.32,139.02 C191.408608,138.820762 191.580578,138.670745 191.79,138.61 C191.991643,138.519853 192.22885,138.582276 192.36,138.76 C192.74,139.29 192.36,140.92 191.89,141.51 C191.873436,141.543875 191.837512,141.563833 191.8,141.56 Z M191.97,138.78 L191.83,138.78 C191.679176,138.828784 191.558106,138.942516 191.5,139.09 C191.389937,139.824823 191.497715,140.575792 191.81,141.25 C192.16,140.61 192.46,139.25 192.18,138.9 C192.138499,138.837501 192.073653,138.79427 192,138.78 L191.97,138.78 Z" id="Shape" fill="#2E353A"></path>
                        <path d="M173.46,146.52 L167.62,142.79 C167.412266,142.649075 167.131628,142.687933 166.97,142.88 L163.37,147.09 C163.045277,147.520584 163.120485,148.131098 163.54,148.47 L163.61,148.53 C165.68,149.8 166.74,150.3 169.31,151.95 C171.537668,153.505066 173.908371,154.844446 176.39,155.95 C178.82,156.85 179.83,154.51 178.9,153.9 C174.72,151.24 174.79,149.38 174.15,147.34 C174.022552,146.994629 173.778505,146.704603 173.46,146.52 L173.46,146.52 Z" id="Path" fill="#577AFA"></path>
                        <path d="M173.46,146.52 L167.62,142.79 C167.412266,142.649075 167.131628,142.687933 166.97,142.88 L163.37,147.09 C163.045277,147.520584 163.120485,148.131098 163.54,148.47 L163.61,148.53 C165.68,149.8 166.74,150.3 169.31,151.95 C171.537668,153.505066 173.908371,154.844446 176.39,155.95 C178.82,156.85 179.83,154.51 178.9,153.9 C174.72,151.24 174.79,149.38 174.15,147.34 C174.022552,146.994629 173.778505,146.704603 173.46,146.52 L173.46,146.52 Z" id="Path" fill="#D61335"></path>
                        <path d="M191,141 L184.68,143.88 C184.454873,143.976231 184.335326,144.223865 184.4,144.46 L185.95,149.79 C186.121592,150.304122 186.671527,150.58796 187.19,150.43 L187.3,150.43 C189.46,149.43 190.49,148.79 193.3,147.55 C195.01,146.77 199.48,144.96 201.83,143.89 C204.18,142.82 203.27,140.43 202.19,140.67 C197.35,141.72 194.19,141.57 192.09,141 C191.738169,140.870705 191.351831,140.870705 191,141 L191,141 Z" id="Path" fill="#577AFA"></path>
                        <path d="M191,141 L184.68,143.88 C184.454873,143.976231 184.335326,144.223865 184.4,144.46 L185.95,149.79 C186.121592,150.304122 186.671527,150.58796 187.19,150.43 L187.3,150.43 C189.46,149.43 190.49,148.79 193.3,147.55 C195.01,146.77 199.48,144.96 201.83,143.89 C204.18,142.82 203.27,140.43 202.19,140.67 C197.35,141.72 194.19,141.57 192.09,141 C191.738169,140.870705 191.351831,140.870705 191,141 L191,141 Z" id="Path" fill="#D61335"></path>
                        <path d="M154.79,46.59 C157.34,47.24 159.12,57.71 159.12,57.71 L152.12,62.49 C152.12,62.49 145.4,51.92 147.36,49.11 C149.32,46.3 151.08,45.65 154.79,46.59 Z" id="Path" fill="#577AFA"></path>
                        <path d="M154.79,46.59 C157.34,47.24 159.12,57.71 159.12,57.71 L152.12,62.49 C152.12,62.49 145.4,51.92 147.36,49.11 C149.32,46.3 151.08,45.65 154.79,46.59 Z" id="Path" fill="#00A0FF"></path>
                        <path d="M126.76,83.87 L151.84,83.87 C157.73,47.62 154.79,46.59 154.79,46.59 C154.79,46.59 150.79,45.76 146.52,45.24 C145.8,45.16 145.08,45.07 144.36,45 C140.578079,44.7318822 136.781921,44.7318822 133,45 C132.28,45 131.56,45.09 130.84,45.16 C127.981497,45.4113163 125.140031,45.8286878 122.33,46.41 C127.19,67.37 127.17,73.66 126.76,83.87 Z" id="Path" fill="#577AFA"></path>
                        <path d="M126.76,83.87 L151.84,83.87 C157.73,47.62 154.79,46.59 154.79,46.59 C154.79,46.59 150.79,45.76 146.52,45.24 C145.8,45.16 145.08,45.07 144.36,45 C140.578079,44.7318822 136.781921,44.7318822 133,45 C132.28,45 131.56,45.09 130.84,45.16 C127.981497,45.4113163 125.140031,45.8286878 122.33,46.41 C127.19,67.37 127.17,73.66 126.76,83.87 Z" id="Path" fill="#00A0FF"></path>
                        <path d="M166.44,59.44 L165.68,53.26 L170.94,56.69 C170.94,56.69 170.64,60.69 168.3,61.69 L166.44,59.44 Z" id="Path" fill="#664240"></path>
                        <polygon id="Path" fill="#664240" points="166.04 50.89 170.71 51.61 170.94 56.68 165.68 53.26"></polygon>
                        <path d="M130.81,45.16 L131.08,45.79 C131.23,46.14 134.72,54.35 141.49,59.79 L143.15,61.12 L144.42,59.41 C148.23,54.25 147.09,47.55 146.53,45.19 C145.81,45.11 145.09,45.02 144.37,44.95 C140.583578,44.6980525 136.78406,44.714761 133,45 C132.23,45 131.51,45.09 130.81,45.16 Z" id="Path" fill="#E9E9E9"></path>
                        <circle id="Oval" fill="#2E353A" cx="132.96" cy="21.63" r="17.93"></circle>
                        <path d="M134.09,32.18 C134.81,35.84 135.53,42.56 132.96,45 C132.96,45 136.32,53 142.77,58.25 C146.77,52.79 144.35,45 144.35,45 C140.27,44 140.35,41 141.08,38.15 L134.09,32.18 Z" id="Path" fill="#664240"></path>
                        <path d="M136.93,34.62 L141.07,38.15 C140.898072,38.8053709 140.784298,39.474632 140.73,40.15 C139.16,39.92 137.02,38.21 136.86,36.54 C136.770294,35.9008607 136.793991,35.2509101 136.93,34.62 L136.93,34.62 Z" id="Path" fill="#4D3333"></path>
                        <path d="M130.37,25.14 C131.37,31.14 131.69,33.79 135.1,36.56 C140.22,40.77 147.42,38.18 148.22,31.96 C148.94,26.35 147.16,17.41 140.94,15.63 C138.814278,15.0043557 136.527043,15.2493093 134.582018,16.310914 C132.636993,17.3725187 131.1937,19.1637064 130.57,21.29 C130.199457,22.5393988 130.13091,23.858932 130.37,25.14 Z" id="Path" fill="#664240"></path>
                        <path d="M131.51,30.31 C131.51,30.31 139.16,24.58 132.51,17.17 C125.15,17.57 128.46,32.59 131.51,30.31 Z" id="Path" fill="#2E353A"></path>
                        <path d="M147,15.82 C147,15.82 137.93,8.73 131.21,17.45 C137.62,23.83 149.87,18.28 147,15.82 Z" id="Path" fill="#2E353A"></path>
                        <path d="M129.36,30.91 C129.800441,32.0057494 130.645438,32.8901319 131.72,33.38 C133.16,34.02 134.04,32.83 133.79,31.38 C133.54,29.93 132.56,28.18 131.05,28.14 C130.38492,28.1338734 129.765574,28.47778 129.419168,29.0455576 C129.072763,29.6133351 129.050292,30.3214006 129.36,30.91 L129.36,30.91 Z" id="Path" fill="#664240"></path>
                        <path d="M139.77,25.86 C139.83,26.36 140.14,26.74 140.46,26.7 C140.78,26.66 141,26.23 140.95,25.7 C140.9,25.17 140.59,24.83 140.27,24.87 C139.95,24.91 139.72,25.37 139.77,25.86 Z" id="Path" fill="#2E353A"></path>
                        <path d="M145.38,25.27 C145.43,25.77 145.73,26.15 146.05,26.11 C146.37,26.07 146.6,25.65 146.54,25.11 C146.48,24.57 146.19,24.24 145.87,24.27 C145.55,24.3 145.32,24.78 145.38,25.27 Z" id="Path" fill="#2E353A"></path>
                        <path d="M145.72,24.36 L146.88,23.89 C146.88,23.89 146.36,24.88 145.72,24.36 Z" id="Path" fill="#2E353A"></path>
                        <path d="M144,26.28 C144.561302,27.3727117 145.271396,28.3823237 146.11,29.28 C145.637656,29.6989386 145.005045,29.8890876 144.38,29.8 L144,26.28 Z" id="Path" fill="#4C1C1C"></path>
                        <path d="M142,31.8 L142,31.8 C140.925436,31.6257183 139.95697,31.0503561 139.29,30.19 C139.254101,30.1541015 139.254101,30.0958985 139.29,30.06 C139.325899,30.0241015 139.384101,30.0241015 139.42,30.06 C140.056803,30.8783106 140.977493,31.4278699 142,31.6 C142.06,31.6 142.090001,31.6 142.090001,31.7 L142.090001,31.7 C142.090258,31.7515478 142.05129,31.7948458 142,31.8 L142,31.8 Z" id="Path" fill="#2E353A"></path>
                        <path d="M138.52,23.94 C138.487421,23.9500256 138.452579,23.9500256 138.42,23.94 C138.378512,23.9151412 138.348774,23.8746326 138.337487,23.8276031 C138.3262,23.7805736 138.334314,23.7309804 138.36,23.69 L138.36,23.69 C138.818377,22.9131154 139.621844,22.403509 140.52,22.32 C140.621464,22.3318883 140.702927,22.4092782 140.72,22.51 C140.72,22.6149341 140.634934,22.7 140.53,22.7 C139.753448,22.7705254 139.057909,23.2094214 138.66,23.88 C138.624512,23.919732 138.573246,23.9417029 138.52,23.94 Z" id="Path" fill="#2E353A"></path>
                        <path d="M147.61,22.32 C147.555443,22.3178657 147.504441,22.2923647 147.47,22.25 C146.988462,21.6404718 146.246401,21.2954135 145.47,21.32 C145.422171,21.328656 145.372874,21.3176009 145.333322,21.2893493 C145.29377,21.2610976 145.267324,21.218051 145.26,21.17 L145.26,21.17 C145.25439,21.1222039 145.268154,21.0741519 145.298217,21.0365733 C145.328279,20.9989946 145.372138,20.9750191 145.42,20.97 C146.319068,20.9076987 147.190954,21.2931249 147.75,22 C147.784919,22.0321859 147.804783,22.0775105 147.804783,22.125 C147.804783,22.1724895 147.784919,22.2178141 147.75,22.25 L147.75,22.25 C147.720172,22.2977621 147.666106,22.3247948 147.61,22.32 Z" id="Path" fill="#2E353A"></path>
                        <path d="M140.1,25 L141.25,24.53 C141.25,24.53 140.77,25.48 140.1,25 Z" id="Path" fill="#2E353A"></path>
                        <path d="M128.2,56.14 L125,58.9 C125.72,62.56 126.15,65.61 126.44,68.32 C127,65.61 128.57,58.22 128.2,56.14 Z" id="Path" fill="#00A0FF"></path>
                        <path d="M166.77,59.19 C165.46,61.7 164.1,64.19 162.66,66.57 C162.3,67.12 161.93,67.66 161.57,68.15 C160.69,65.84 159.84,63.54 159.07,61.21 C158.63,59.88 158.21,58.54 157.82,57.21 C157.62,56.54 157.43,55.87 157.26,55.21 C157.09,54.55 156.9,53.85 156.78,53.32 L150.45,54.53 C150.62,55.41 150.78,56.1 150.98,56.86 C151.18,57.62 151.38,58.3 151.6,59.06 C152.03,60.5 152.51,61.93 153.04,63.34 C154.093333,66.1266667 155.276667,68.8633333 156.59,71.55 L156.84,72.05 C156.960118,72.320225 157.10052,72.5809699 157.26,72.83 C157.46842,73.1663061 157.709594,73.4811722 157.98,73.77 C158.392741,74.1955956 158.885512,74.535438 159.43,74.77 C160.066156,75.0159216 160.754627,75.0950958 161.43,75 C161.938464,74.9307099 162.428008,74.7607293 162.87,74.5 C163.438839,74.1818518 163.949448,73.7693071 164.38,73.28 C164.97424,72.5800471 165.487495,71.8151963 165.91,71 C166.32,70.28 166.63,69.56 166.99,68.84 C168.185985,66.0656028 169.123295,63.1867208 169.79,60.24 L166.77,59.19 Z M160.28,69.52 L160.44,69.44 C160.32,69.55 160.21,69.59 160.28,69.52 Z" id="Shape" fill="#664240"></path>
                        <path d="M128.31,75.73 C126.646602,75.8776251 124.973398,75.8776251 123.31,75.73 C122.644198,75.6731064 121.990465,75.5180975 121.37,75.27 L121.25,75.21 L121.25,74.73 C121.263229,74.3381507 121.299962,73.9474485 121.36,73.56 C121.48,72.74 121.62,71.89 121.79,71.03 C122.14,69.32 122.58,67.57 123.03,65.83 C123.48,64.09 124.03,62.33 124.53,60.58 C125.03,58.83 125.53,57.07 126.1,55.37 L119.95,53.3 C118.724073,56.9113659 117.682726,60.5827808 116.83,64.3 C116.39,66.17 116,68.06 115.72,70 C115.57,71 115.46,72 115.39,73 C115.39,73.52 115.33,74 115.39,74.61 L115.39,75.46 C115.410574,75.9349275 115.491216,76.4053371 115.63,76.86 C115.928907,77.8393322 116.509763,78.7088764 117.3,79.36 C117.921901,79.865811 118.629888,80.2553734 119.39,80.51 C120.532321,80.8709589 121.72205,81.0596977 122.92,81.07 C124.932856,81.0868812 126.942504,80.9060129 128.92,80.53 C132.688411,79.8144942 136.386152,78.7670797 139.97,77.4 L139.09,74.33 C135.522521,74.9778117 131.924607,75.4450732 128.31,75.73 L128.31,75.73 Z" id="Path" fill="#664240"></path>
                        <path d="M122.31,46.41 C119.79,47.17 115.94,57.04 115.94,57.04 L125.68,64.04 C125.68,64.04 130.06,55.6 129.01,52.36 C127.92,48.93 125.17,45.54 122.31,46.41 Z" id="Path" fill="#577AFA"></path>
                        <path d="M122.31,46.41 C119.79,47.17 115.94,57.04 115.94,57.04 L125.68,64.04 C125.68,64.04 130.06,55.6 129.01,52.36 C127.92,48.93 125.17,45.54 122.31,46.41 Z" id="Path" fill="#00A0FF"></path>
                        <path d="M154.44,60.47 C154.373709,60.4800063 154.306291,60.4800063 154.24,60.47 L142.59,57 L142.59,57 L140.28,56.32 C139.899519,56.2088 139.680489,55.8109709 139.79,55.43 L139.79,55.43 C139.910085,55.0517684 140.307144,54.8355919 140.69,54.94 L140.69,54.94 L142.97,55.62 L142.97,55.62 L154.52,59 L168.67,56.24 C169.073168,56.148873 169.473873,56.4018322 169.565,56.805 C169.656127,57.2081679 169.403168,57.608873 169,57.7 L154.64,60.47 L154.44,60.47 Z" id="Path" fill="#577AFA"></path>
                        <path d="M154.44,60.47 C154.373709,60.4800063 154.306291,60.4800063 154.24,60.47 L142.59,57 L142.59,57 L140.28,56.32 C139.899519,56.2088 139.680489,55.8109709 139.79,55.43 L139.79,55.43 C139.910085,55.0517684 140.307144,54.8355919 140.69,54.94 L140.69,54.94 L142.97,55.62 L142.97,55.62 L154.52,59 L168.67,56.24 C169.073168,56.148873 169.473873,56.4018322 169.565,56.805 C169.656127,57.2081679 169.403168,57.608873 169,57.7 L154.64,60.47 L154.44,60.47 Z" id="Path" fill="#00A0FF"></path>
                        <circle id="Oval" fill="#FFFFFF" cx="164.2" cy="57.87" r="2.26"></circle>
                        <path d="M159.22,57.38 C159.183585,58.0871265 159.579298,58.7457964 160.220712,59.0457002 C160.862126,59.345604 161.621302,59.226922 162.140582,58.7455672 C162.659862,58.2642124 162.835668,57.5161971 162.585175,56.8539228 C162.334682,56.1916485 161.707854,55.7472143 161,55.73 L161,55.73 C160.055665,55.7017037 159.263264,56.4362327 159.22,57.38 L159.22,57.38 Z" id="Path" fill="#FFFFFF"></path>
                        <path d="M155.74,59.1 C156.246107,60.2353685 157.574121,60.7488737 158.712397,60.2493407 C159.850674,59.7498077 160.371849,58.4247846 159.878907,57.283639 C159.385964,56.1424934 158.063977,55.6136644 156.92,56.1 L156.92,56.1 C156.360277,56.3349638 155.919242,56.7861247 155.697043,57.3510371 C155.474845,57.9159495 155.490336,58.5466771 155.74,59.1 Z" id="Path" fill="#FFFFFF"></path>
                        <path d="M153.13,60 C153.41108,60.6452278 154.053171,61.0575918 154.756848,61.0447941 C155.460525,61.0319963 156.087198,60.5965573 156.34463,59.9415357 C156.602062,59.286514 156.439552,58.540916 155.932884,58.0524368 C155.426215,57.5639576 154.675177,57.4288031 154.03,57.71 L154.03,57.71 C153.607716,57.8923086 153.275416,58.2352753 153.106535,58.6631061 C152.937655,59.0909369 152.946098,59.5684078 153.13,59.99 L153.13,60 Z" id="Path" fill="#FFFFFF"></path>
                        <path d="M150.11,58 C149.420595,59.0373278 149.700418,60.4368963 150.735679,61.1294024 C151.770939,61.8219084 153.171338,61.5462742 153.866939,60.5130908 C154.56254,59.4799073 154.291097,58.0786893 153.26,57.38 C152.760077,57.044469 152.147333,56.9212899 151.556584,57.0375644 C150.965835,57.1538389 150.445478,57.5000408 150.11,58 L150.11,58 Z" id="Path" fill="#FFFFFF"></path>
                        <path d="M148,56.24 C147.605174,56.8234052 147.601073,57.5873102 147.989612,58.1749212 C148.37815,58.7625323 149.082657,59.0578933 149.774081,58.9230513 C150.465504,58.7882093 151.007403,58.2497734 151.146675,57.5592284 C151.285947,56.8686833 150.995108,56.1622978 150.41,55.77 C149.614265,55.2364832 148.536955,55.446581 148,56.24 L148,56.24 Z" id="Path" fill="#FFFFFF"></path>
                        <path d="M144.11,55.91 C143.972059,57.1504034 144.86135,58.2695127 146.10085,58.4153432 C147.340351,58.5611737 148.465096,57.6790209 148.61881,56.4404732 C148.772523,55.2019256 147.897545,54.0715909 146.66,53.91 L146.66,53.91 C146.055579,53.8310784 145.444813,53.9985565 144.965185,54.3747355 C144.485557,54.7509145 144.177371,55.3041824 144.11,55.91 L144.11,55.91 Z" id="Path" fill="#FFFFFF"></path>
                        <circle id="Oval" fill="#FFFFFF" cx="143.16" cy="55.56" r="1.74"></circle>
                        <path d="M152.17,56.14 C151.655514,56.9007091 151.650064,57.8964679 152.15619,58.6627638 C152.662317,59.4290598 153.580297,59.8149066 154.481901,59.6403103 C155.383505,59.4657139 156.091087,58.7650758 156.274565,57.8652373 C156.458044,56.9653988 156.081268,56.0436585 155.32,55.53 C154.281557,54.8293203 152.871808,55.1023194 152.17,56.14 Z" id="Path" fill="#FFFFFF"></path>
                        <path d="M153,54.19 C152.45335,55.0051283 152.66964,56.1089251 153.483501,56.6574603 C154.297361,57.2059955 155.401656,56.9922611 155.952073,56.179672 C156.502491,55.3670829 156.291313,54.2622968 155.48,53.71 C154.661002,53.1657073 153.556767,53.3794302 153,54.19 L153,54.19 Z" id="Path" fill="#FFFFFF"></path>
                        <path d="M151.63,52.54 C151.13792,53.2598649 151.322045,54.2422801 152.041407,54.7350956 C152.760768,55.227911 153.743371,55.0447896 154.236921,54.3259315 C154.730471,53.6070734 154.548354,52.624284 153.83,52.13 L153.83,52.13 C153.484094,51.8919893 153.057676,51.8014514 152.644902,51.8783775 C152.232128,51.9553035 151.86695,52.1933662 151.63,52.54 Z" id="Path" fill="#FFFFFF"></path>
                        <path d="M153.83,53 C153.33792,53.7198649 153.522045,54.7022801 154.241407,55.1950956 C154.960768,55.687911 155.943371,55.5047896 156.436921,54.7859315 C156.930471,54.0670734 156.748354,53.084284 156.03,52.59 L156.03,52.59 C155.684945,52.3493015 155.257722,52.2571608 154.844131,52.3342392 C154.43054,52.4113176 154.065188,52.6511654 153.83,53 L153.83,53 Z" id="Path" fill="#FFFFFF"></path>
                        <path d="M163.69,54.7 C163.333968,55.2258421 163.329769,55.9143799 163.679363,56.4445243 C164.028957,56.9746688 164.66349,57.2420071 165.287058,57.1218703 C165.910625,57.0017335 166.400414,56.5177826 166.528019,55.8957007 C166.655625,55.2736187 166.395914,54.6359258 165.87,54.28 L165.87,54.28 C165.152011,53.7940827 164.176063,53.9821093 163.69,54.7 L163.69,54.7 Z" id="Path" fill="#FFFFFF"></path>
                        <path d="M150,54.45 C149.655239,54.9644624 149.611128,55.6237733 149.884285,56.1795766 C150.157442,56.7353799 150.706367,57.1032359 151.324285,57.1445767 C151.942204,57.1859175 152.535239,56.8944625 152.88,56.38 C153.138923,55.9985963 153.234916,55.5296269 153.146676,55.0771627 C153.058437,54.6246985 152.793262,54.2261641 152.41,53.97 L152.41,53.97 C151.61167,53.4384496 150.53375,53.6531391 150,54.45 L150,54.45 Z" id="Path" fill="#FFFFFF"></path>
                        <path d="M146.17,54.12 C146.037657,55.3542853 146.925622,56.4642747 148.158849,56.6061361 C149.392077,56.7479974 150.508883,55.8686221 150.660254,54.6365256 C150.811625,53.4044291 149.940892,52.2808716 148.71,52.12 C148.106674,52.0411482 147.49704,52.2089026 147.018991,52.585319 C146.540943,52.9617354 146.234869,53.5150107 146.17,54.12 Z" id="Path" fill="#FFFFFF"></path>
                        <path d="M154.61,55.59 C154.477657,56.8242853 155.365622,57.9342747 156.598849,58.0761361 C157.832077,58.2179974 158.948883,57.3386221 159.100254,56.1065256 C159.251625,54.8744291 158.380892,53.7508716 157.15,53.59 C156.546674,53.5111482 155.93704,53.6789026 155.458991,54.055319 C154.980943,54.4317354 154.674869,54.9850107 154.61,55.59 L154.61,55.59 Z" id="Path" fill="#FFFFFF"></path>
                        <path d="M157.23,55.12 C157.064315,56.3598793 157.935121,57.4993146 159.175,57.665 C160.414879,57.8306854 161.554315,56.9598793 161.72,55.72 C161.802323,55.1254616 161.643687,54.5226748 161.279368,54.0456795 C160.915049,53.5686842 160.375248,53.2570233 159.78,53.18 C158.542299,53.0197659 157.405781,53.8844109 157.23,55.12 L157.23,55.12 Z" id="Path" fill="#FFFFFF"></path>
                        <path d="M160.28,55.28 C160.142059,56.5204034 161.03135,57.6395127 162.27085,57.7853432 C163.510351,57.9311737 164.635096,57.0490209 164.78881,55.8104732 C164.942523,54.5719256 164.067545,53.4415909 162.83,53.28 L162.83,53.28 C162.226674,53.2011482 161.61704,53.3689026 161.138991,53.745319 C160.660943,54.1217354 160.354869,54.6750107 160.29,55.28 L160.28,55.28 Z" id="Path" fill="#FFFFFF"></path>
                        <path d="M164.8,56.08 C164.694783,56.7636018 165.01173,57.4432707 165.603043,57.8020618 C166.194357,58.1608528 166.943578,58.1281036 167.50133,57.7190859 C168.059081,57.3100682 168.315515,56.6053362 168.151052,55.9335225 C167.986588,55.2617087 167.433616,54.7551239 166.75,54.65 L166.75,54.65 C165.816655,54.5064739 164.943654,55.146675 164.8,56.08 L164.8,56.08 Z" id="Path" fill="#FFFFFF"></path>
                        <path d="M143.49,53.52 C143.398811,54.2179027 143.73705,54.9020072 144.346971,55.2532627 C144.956892,55.6045182 145.718355,55.5537363 146.276231,55.1246006 C146.834108,54.6954649 147.07851,53.972504 146.895455,53.2928907 C146.712399,52.6132773 146.137943,52.1108778 145.44,52.02 C144.982057,51.9576714 144.518213,52.0811686 144.151889,52.3629559 C143.785566,52.6447432 143.547222,53.0613905 143.49,53.52 L143.49,53.52 Z" id="Path" fill="#FFFFFF"></path>
                        <polygon id="Path" fill="#E4E4E4" points="140.44 55.63 141.86 91.9 163.94 92.94 168.78 56.97 166.41 57.43 162.19 58.26 159.76 58.74 155.65 59.54 154.44 59.78 153.27 59.43 149.25 58.24 146.88 57.53 142.76 56.31 142.75 56.31"></polygon>
                        <polygon id="Path" fill="#D61335" points="140.44 55.63 141.86 91.9 144.16 92 142.76 56.31 142.75 56.31"></polygon>
                        <polygon id="Path" fill="#D61335" points="146.88 57.53 146.75 92.13 149.13 92.24 149.25 58.24"></polygon>
                        <polygon id="Path" fill="#D61335" points="153.27 59.43 151.71 92.36 154.08 92.47 155.65 59.54 154.44 59.78"></polygon>
                        <polygon id="Path" fill="#D61335" points="156.67 92.6 159.06 92.71 162.19 58.26 159.76 58.74"></polygon>
                        <polygon id="Path" fill="#D61335" points="161.64 92.83 163.94 92.94 168.78 56.97 166.41 57.43"></polygon>
                        <g id="Group" opacity="0.2" transform="translate(140.000000, 55.000000)" fill="#000000">
                            <polygon id="Path" points="0.44 0.63 1.86 36.9 4.16 37 2.76 1.31 2.75 1.31"></polygon>
                            <polygon id="Path" points="6.88 2.53 6.75 37.13 9.13 37.24 9.25 3.24"></polygon>
                            <polygon id="Path" points="13.27 4.43 11.71 37.36 14.08 37.47 15.65 4.54 14.44 4.78"></polygon>
                            <polygon id="Path" points="16.67 37.6 19.06 37.71 22.19 3.26 19.76 3.74"></polygon>
                            <polygon id="Path" points="21.64 37.83 23.94 37.94 28.78 1.97 26.41 2.43"></polygon>
                        </g>
                        <path d="M138.92,74.39 L143.15,70.07 L143.7,76.33 C143.7,76.33 140.41,78.52 138.15,77.33 L138.92,74.39 Z" id="Path" fill="#664240"></path>
                        <polygon id="Path" fill="#664240" points="148.3 69.44 148.48 74.7 143.69 76.33 143.15 70.08"></polygon>
                        <path d="M90.08,41.57 C92.75,45.89 109.35,47.2 109.35,47.2 L111.26,35.29 C106.86022,33.8624828 102.315837,32.9267758 97.71,32.5 C91,32.08 87.14,36.84 90.08,41.57 Z" id="Path" fill="#577AFA"></path>
                        <path d="M90.08,41.57 C92.75,45.89 109.35,47.2 109.35,47.2 L111.26,35.29 C106.86022,33.8624828 102.315837,32.9267758 97.71,32.5 C91,32.08 87.14,36.84 90.08,41.57 Z" id="Path" fill="#00A0FF"></path>
                        <path d="M97.68,32.5 C97.68,32.5 106.28,47.4 104.89,77.77 L76.89,82.04 C76.05,77.76 75.56,56.35 68.32,36.71 C71.3251429,35.6335222 74.3986022,34.7582544 77.52,34.09 C81.4552124,33.257899 85.4351604,32.6535613 89.44,32.28 C92.1882825,32.1452568 94.9428228,32.2188003 97.68,32.5 Z" id="Path" fill="#577AFA"></path>
                        <path d="M97.68,32.5 C97.68,32.5 106.28,47.4 104.89,77.77 L76.89,82.04 C76.05,77.76 75.56,56.35 68.32,36.71 C71.3251429,35.6335222 74.3986022,34.7582544 77.52,34.09 C81.4552124,33.257899 85.4351604,32.6535613 89.44,32.28 C92.1882825,32.1452568 94.9428228,32.2188003 97.68,32.5 Z" id="Path" fill="#00A0FF"></path>
                        <path d="M104.88,77.77 C104.88,77.77 133.55,91.41 140.21,106.36 C144.692895,116.728051 148.474731,127.385343 151.53,138.26 L143.85,144 C143.85,144 133.26,121.68 121,110.09 C107.64,97.5 85.85,80.32 85.85,80.32 L104.88,77.77 Z" id="Path" fill="#577AFA"></path>
                        <path d="M144.42,40.6 L150.19,39 L149.78,44.53 C147.833018,45.2111337 145.691318,45.0591887 143.86,44.11 L144.42,40.6 Z" id="Path" fill="#CD877B"></path>
                        <polygon id="Path" fill="#CD877B" points="154.09 40.85 154.28 44.55 149.79 44.53 150.21 39.01"></polygon>
                        <path d="M75.22,43.93 C76.08,48.02 75.16,52.16 73.22,54.32 C72.92,52.88 72.6,51.41 72.22,49.89 L75.22,43.93 Z" id="Path" fill="#000000" opacity="0.3"></path>
                        <path d="M76.62,20.49 C77.95,24.21 79.77,31.13 77.48,34.09 C77.48,34.09 79.12,37.84 86.24,36.74 C91.93,35.86 89.39,32.28 89.39,32.28 C84.97,31.91 84.59,28.72 84.89,25.63 L76.62,20.49 Z" id="Path" fill="#CD877B"></path>
                        <path d="M78.16,32 C78.16,32 80.06,35 86.81,36.64 C86.4749368,38.0163742 86.540867,39.4598991 87,40.8 C87,40.8 78.89,38.2 76.91,34.1 L78.16,32 Z" id="Path" fill="#FFFFFF"></path>
                        <path d="M89.64,39.88 C89.0147815,38.5615109 88.0348709,37.443097 86.81,36.65 C87.58,35.29 88.12,32.49 86.98,31.41 C87.82812,31.4799966 88.666264,31.6409202 89.48,31.89 C89.48,31.89 91.18,34.2 89.64,39.88 Z" id="Path" fill="#FFFFFF"></path>
                        <path d="M80,22.58 L84.89,25.58 C84.8250682,26.2985361 84.8250682,27.0214639 84.89,27.74 C83.21,27.74 80.7,26.3 80.27,24.61 C80.0600985,23.9547509 79.9686687,23.2673342 80,22.58 Z" id="Path" fill="#B76F64"></path>
                        <path d="M87.2,6.44 C90.01,7.16 92.58,14.37 89.46,16.57 C86.34,18.77 81.87,5.09 87.2,6.44 Z" id="Path" fill="#2E353A"></path>
                        <path d="M75.18,14.59 C76.32,19.86 76.71,23 79.81,25.33 C84.48,28.82 90.68,25.39 91.14,19.88 C91.56,14.88 89.63,7.14 84.14,5.81 C82.2436854,5.34558136 80.2405451,5.65363852 78.5713986,6.6663791 C76.902252,7.67911968 75.7038795,9.3135535 75.24,11.21 C74.9550645,12.3163513 74.9345104,13.4742329 75.18,14.59 L75.18,14.59 Z" id="Path" fill="#CD877B"></path>
                        <path d="M83.47,14.85 C83.55,15.28 83.83,15.57 84.11,15.57 C84.39,15.57 84.57,15.14 84.51,14.71 C84.45,14.28 84.15,13.98 83.87,13.98 C83.59,13.98 83.41,14.42 83.47,14.85 Z" id="Path" fill="#2E353A"></path>
                        <path d="M88.38,14.11 C88.44,14.54 88.72,14.83 89.01,14.83 C89.3,14.83 89.46,14.4 89.4,13.96 C89.3902081,13.5998288 89.125684,13.2975156 88.77,13.24 C88.49,13.24 88.31,13.67 88.38,14.11 Z" id="Path" fill="#2E353A"></path>
                        <path d="M86.86,14.55 C87.5741746,15.8001994 88.4593843,16.9445771 89.49,17.95 C88.9606416,18.4708302 88.2298648,18.7339099 87.49,18.67 L86.86,14.55 Z" id="Path" fill="#C15854"></path>
                        <path d="M85.75,20.1000021 C84.7729497,20.1010563 83.8376754,19.7038355 83.16,19 C83.1341699,18.97722 83.1193725,18.9444401 83.1193725,18.91 C83.1193725,18.8755599 83.1341699,18.84278 83.16,18.82 C83.2102975,18.7717444 83.2897025,18.7717444 83.34,18.82 C83.34,18.82 83.34,18.82 83.34,18.82 C84.1406492,19.5792673 85.2524628,19.9165175 86.34,19.73 C86.4052043,19.7232695 86.4652193,19.7661374 86.48,19.83 L86.48,19.83 C86.4857329,19.8645391 86.4772919,19.8999305 86.4565873,19.928164 C86.4358827,19.9563975 86.4046651,19.9750862 86.37,19.98 C86.1664134,20.0345343 85.9592321,20.0746339 85.75,20.1000021 Z" id="Path" fill="#2E353A"></path>
                        <path d="M81.71,13.49 L81.59,13.49 C81.5297999,13.4600466 81.4842036,13.4071059 81.4635057,13.3431305 C81.4428078,13.2791551 81.4487533,13.2095391 81.48,13.15 L81.48,13.15 C81.8589721,12.4081398 82.5752146,11.8970709 83.4,11.78 C83.5399563,11.7742066 83.6593448,11.8803297 83.67,12.02 C83.6817314,12.1546797 83.5842734,12.2742872 83.45,12.29 L83.45,12.29 C82.8023049,12.4002659 82.2435449,12.8073097 81.94,13.39 C81.8916997,13.4680481 81.8000205,13.5079086 81.71,13.49 L81.71,13.49 Z" id="Path" fill="#2E353A"></path>
                        <path d="M90.23,12.1 C90.1415639,12.1064564 90.0555948,12.0690785 90,12 C89.6507955,11.4470508 89.0533076,11.099761 88.4,11.07 C88.2600437,11.0757934 88.1406552,10.9696703 88.129999,10.83 L88.129999,10.83 C88.1296109,10.6883568 88.2387454,10.5704916 88.38,10.56 C89.2084081,10.5917136 89.971114,11.019573 90.43,11.71 C90.5086873,11.8249329 90.4870306,11.9808612 90.38,12.07 C90.3325011,12.1015313 90.2770009,12.1188751 90.22,12.12 L90.23,12.1 Z" id="Path" fill="#2E353A"></path>
                        <path d="M74.93,44.54 C73.93,45.98 72.93,47.54 71.93,49.08 C70.93,50.62 70,52.19 69,53.77 C67.1761972,56.8509735 65.5625264,60.0515876 64.17,63.35 C63.5189365,64.9048988 62.9841352,66.5059602 62.57,68.14 C62.2620591,69.4233272 62.1175805,70.7404343 62.14,72.06 C62.1486364,72.2046906 62.1686989,72.3484719 62.2,72.49 C62.2112903,72.5870573 62.2383105,72.6816282 62.28,72.77 C62.3700672,72.9016786 62.4856921,73.0139028 62.62,73.1 C62.8448634,73.2354438 63.0870757,73.3397297 63.34,73.41 C64.8458692,73.7297482 66.3964361,73.780531 67.92,73.56 L69.36,77.26 C68.8770544,77.5340217 68.3758776,77.7745866 67.86,77.98 C67.3541927,78.1983196 66.836742,78.388608 66.31,78.55 C65.1720791,78.9150345 63.9850217,79.1038846 62.79,79.11 C62.0962327,79.1026212 61.4053932,79.0187815 60.73,78.86 C59.9484894,78.6448546 59.2059658,78.3073439 58.53,77.86 C57.8021122,77.3917792 57.1651447,76.7954691 56.65,76.1 C56.1957229,75.4541804 55.8354597,74.7471218 55.58,74 C55.1344756,72.715215 54.9310371,71.3589581 54.98,70 C55.0080271,68.8630643 55.1216821,67.7298564 55.32,66.61 C55.7139885,64.5476088 56.2758584,62.5208636 57,60.55 C57.6869863,58.6606677 58.4713704,56.8081861 59.35,55 C60.2033333,53.2 61.1133333,51.4433333 62.08,49.73 C63.08,48.03 64.08,46.34 65.08,44.73 C66.08,43.12 67.19,41.48 68.41,39.83 L74.93,44.54 Z" id="Path" fill="#CD877B"></path>
                        <path d="M67,73.57 L72.77,72.57 L69.77,78.57 C69.77,78.57 65.54,78.44 65,76.41 L67,73.57 Z" id="Path" fill="#CD877B"></path>
                        <polygon id="Path" fill="#CD877B" points="76.62 75.66 73.9 80.54 69.78 78.65 72.77 72.61"></polygon>
                        <path d="M69.89,15.44 C72.67,19.59 75.37,22.01 77.58,21.44 C79.79,20.87 79.7,15.95 77.91,11.73 C76.56,8.56 79.72,9.18 83.78,8.96 C88.33,8.72 91.32,5.01 89.7,2.22 C90.01,2.83 82.46,2.94 84.7,0.22 C80.47,-0.31 70.07,1.54 69.56,9.01 C66.53,9.32 67.84,12.4 69.89,15.44 Z" id="Path" fill="#2E353A"></path>
                        <path d="M69.57,9.41 C69.6450882,8.17548008 68.7222326,7.10620988 67.49,7 L67.2,7 C68.071383,7.71903117 68.8656523,8.52670591 69.57,9.41 L69.57,9.41 Z" id="Path" fill="#2E353A"></path>
                        <path d="M73.67,20.82 C74.559262,21.8448273 75.8170358,22.4773078 77.17,22.58 C78.96,22.7 79.49,21.01 78.68,19.51 C77.87,18.01 76.15,16.51 74.49,17.06 C73.9122634,17.2769173 73.4459317,17.7169032 73.1958205,18.2810637 C72.9457093,18.8452243 72.9328021,19.4862284 73.16,20.06 C73.2780822,20.3445596 73.4514259,20.6028758 73.67,20.82 L73.67,20.82 Z" id="Path" fill="#CD877B"></path>
                        <path d="M68.27,36.68 C63.1,38.53 57.69,54.68 57.69,54.68 L69.22,59.26 C71.4176191,55.0337964 73.3903698,50.6944124 75.13,46.26 C77.54,39.78 73.38,34.87 68.27,36.68 Z" id="Path" fill="#577AFA"></path>
                        <path d="M68.27,36.68 C63.1,38.53 57.69,54.68 57.69,54.68 L69.22,59.26 C71.4176191,55.0337964 73.3903698,50.6944124 75.13,46.26 C77.54,39.78 73.38,34.87 68.27,36.68 Z" id="Path" fill="#00A0FF"></path>
                        <polygon id="Path" fill="#CD877B" points="150.13 150.7 154.34 147.48 147.96 136.91 143.74 140.12"></polygon>
                        <polygon id="Path" fill="#B76F64" points="147.96 136.92 151.25 142.37 147.03 145.58 143.74 140.13"></polygon>
                        <polygon id="Path" fill="#CD877B" points="95.09 143.88 99.59 146.67 107.2 136.93 102.69 134.14"></polygon>
                        <polygon id="Path" fill="#B76F64" points="107.19 136.94 103.28 141.96 99.1 138.74 102.69 134.14"></polygon>
                        <path d="M104.88,77.77 C104.88,77.77 133.55,91.41 140.21,106.36 C144.692895,116.728051 148.474731,127.385343 151.53,138.26 L143.85,144 C143.85,144 133.26,121.68 121,110.09 C107.64,97.5 85.85,80.32 85.85,80.32 L104.88,77.77 Z" id="Path" fill="#2E353A"></path>
                        <path d="M154,147 L149.4,150.51 C149.22616,150.647933 149.161467,150.882447 149.24,151.09 L151.01,155.65 C151.142349,156.026044 151.551905,156.22637 151.93,156.1 C152.00836,156.069998 152.082351,156.02964 152.15,155.98 C153.79,154.69 156.15,152.75 158.21,151.16 C160.65,149.29 162.85,147.83 165.71,145.65 C167.44,144.33 166.71,142.12 165.87,142.5 C162.07,144.26 159.32,146.24 155.25,146.56 C154.80051,146.587505 154.367611,146.739886 154,147 Z" id="Path" fill="#D61335"></path>
                        <path d="M154.76,147.29 C154.731373,147.302834 154.698627,147.302834 154.67,147.29 C154.639957,147.248169 154.639957,147.191831 154.67,147.15 C154.79,146.9 155.89,144.69 156.61,144.61 C156.746689,144.598051 156.879602,144.658811 156.96,144.77 C157.113158,144.949262 157.165781,145.193582 157.1,145.42 C156.92,146.2 155.61,146.95 154.83,147.31 C154.804826,147.319868 154.776161,147.311678 154.76,147.29 Z M156.63,144.82 L156.63,144.82 C156.25,144.82 155.53,145.99 155.06,146.88 C156.06,146.34 156.75,145.77 156.85,145.33 C156.900131,145.176104 156.861724,145.007111 156.75,144.89 C156.732274,144.83959 156.68335,144.806974 156.63,144.81 L156.63,144.82 Z" id="Shape" fill="#2E353A"></path>
                        <path d="M154.76,147.29 L154.76,147.29 C154.711966,147.293253 154.667397,147.264891 154.65,147.22 C154.6,147.14 153.52,145.06 154.6,144.43 C154.89,144.25 155.06,144.33 155.17,144.43 C155.6,144.85 155.23,146.59 154.87,147.23 C154.84942,147.27097 154.805588,147.294878 154.76,147.29 L154.76,147.29 Z M154.92,144.57 C154.852086,144.578245 154.78703,144.602213 154.73,144.64 C154.01,145.07 154.52,146.34 154.73,146.88 C155.04,146.16 155.22,144.88 154.96,144.6 L154.92,144.57 Z" id="Shape" fill="#2E353A"></path>
                        <path d="M99.92,146.15 L95,143.1 C94.8083273,142.986964 94.5654937,143.011247 94.4,143.16 L90.8,146.45 C90.5122408,146.709314 90.4771271,147.148236 90.72,147.45 C90.7704184,147.510491 90.8314091,147.561316 90.9,147.6 C92.512992,148.720568 94.1818042,149.75857 95.9,150.71 C100.48,152.96 101.09,156.01 105.53,156.01 C107.69,156.01 108.79,154.25 107.92,154.01 C102.59,152.28 102.47,150.87 100.71,147.18 C100.55463,146.765924 100.279645,146.407399 99.92,146.15 L99.92,146.15 Z" id="Path" fill="#D61335"></path>
                        <path d="M102.41,148.49 C101.468788,148.263122 100.616107,147.761954 99.96,147.05 C99.9299573,147.008169 99.9299573,146.951831 99.96,146.91 C99.9821311,146.863197 100.028285,146.832427 100.08,146.83 C100.36,146.83 102.82,147.1 103.15,147.74 C103.21076,147.8629 103.21076,148.0071 103.15,148.13 C103.030856,148.333545 102.823966,148.47024 102.59,148.5 L102.41,148.49 Z M100.41,147.12 C101.28,147.88 102.06,148.31 102.5,148.23 C102.658872,148.210895 102.799567,148.118333 102.88,147.98 C102.900108,147.935499 102.900108,147.884501 102.88,147.84 C102.72,147.5 101.41,147.23 100.45,147.12 L100.41,147.12 Z" id="Shape" fill="#2E353A"></path>
                        <path d="M100.39,147.090003 L100,147.090003 C99.9527495,147.090359 99.9096869,147.062955 99.89,147.02 C99.8702467,146.978918 99.8702467,146.931082 99.89,146.89 C99.96,146.81 101.49,145.07 102.49,145.89 C102.76,146.09 102.75,146.28 102.7,146.41 C102.55,146.82 101.22,147.090003 100.39,147.090003 Z M100.31,146.84 C101.11,146.84 102.38,146.58 102.52,146.25 C102.505027,146.163237 102.458778,146.084969 102.39,146.03 C101.74,145.53 100.72,146.43 100.31,146.84 L100.31,146.84 Z" id="Shape" fill="#2E353A"></path>
                        <path d="M94.94,79.28 C94.94,79.28 136.75,78.05 135.36,90.43 C133.47,107.33 106.11,140.95 106.11,140.95 L100.01,135.28 C100.01,135.28 112.19,111.22 114.76,100.49 C115.97,95.49 90.76,102.41 84.4,98.01 C80.5,95.32 78.13,90.13 76.84,82.01 L94.94,79.28 Z" id="Path" fill="#577AFA"></path>
                        <path d="M94.94,79.28 C94.94,79.28 136.75,78.05 135.36,90.43 C133.47,107.33 106.11,140.95 106.11,140.95 L100.01,135.28 C100.01,135.28 112.19,111.22 114.76,100.49 C115.97,95.49 90.76,102.41 84.4,98.01 C80.5,95.32 78.13,90.13 76.84,82.01 L94.94,79.28 Z" id="Path" fill="#2E353A"></path>
                        <rect id="Rectangle" fill="#2E353A" x="36.78" y="73.95" width="15.68" height="1.92"></rect>
                        <rect id="Rectangle" fill="#00A0FF" x="52.46" y="73.94" width="8.47" height="1.92"></rect>
                        <path d="M15.87,75.84 L14.81,75.84 C7.28,76.38 1.19,82.76 0.71,90.61 C0.602363842,92.3417388 0.7677168,94.0796322 1.2,95.76 C2.8600726,102.505401 3.65975991,109.433784 3.58,116.38 L3.58,146.85 C3.55764728,148.283873 4.69632772,149.467208 6.13,149.5 L67.83,149.5 L67.83,75.84 L15.87,75.84 Z" id="Path" fill="#4D5A64"></path>
                        <path d="M15.87,75.84 L14.81,75.84 C7.28,76.38 1.19,82.76 0.71,90.61 C0.602363842,92.3417388 0.7677168,94.0796322 1.2,95.76 C2.8600726,102.505401 3.65975991,109.433784 3.58,116.38 L3.58,146.85 C3.55764728,148.283873 4.69632772,149.467208 6.13,149.5 L67.83,149.5 L67.83,75.84 L15.87,75.84 Z" id="Path" fill="#FFFFFF" opacity="0.4"></path>
                        <path d="M83,91.67 C83,82.56 75.61,75.25 66.73,75.88 C59.2,76.42 53.12,82.79 52.63,90.64 C52.527351,92.3749578 52.6926231,94.1153741 53.12,95.8 C54.7882376,102.540707 55.5913631,109.466404 55.51,116.41 L55.51,146.89 C55.4966109,147.5796 55.7577786,148.246261 56.2360235,148.74326 C56.7142684,149.24026 57.3703956,149.526866 58.06,149.54 L77.52,149.54 C78.2096044,149.526866 78.8657316,149.24026 79.3439765,148.74326 C79.8222214,148.246261 80.0833891,147.5796 80.07,146.89 L80.07,146.89 L80.07,115.25 C80.0207667,108.735824 80.8105951,102.242426 82.42,95.93 C82.7981855,94.54135 82.9931716,93.1092104 83,91.67 L83,91.67 Z" id="Path" fill="#4D5A64"></path>
                        <path d="M83,91.67 C83,82.56 75.61,75.25 66.73,75.88 C59.2,76.42 53.12,82.79 52.63,90.64 C52.527351,92.3749578 52.6926231,94.1153741 53.12,95.8 C54.7882376,102.540707 55.5913631,109.466404 55.51,116.41 L55.51,146.89 C55.4966109,147.5796 55.7577786,148.246261 56.2360235,148.74326 C56.7142684,149.24026 57.3703956,149.526866 58.06,149.54 L77.52,149.54 C78.2096044,149.526866 78.8657316,149.24026 79.3439765,148.74326 C79.8222214,148.246261 80.0833891,147.5796 80.07,146.89 L80.07,146.89 L80.07,115.25 C80.0207667,108.735824 80.8105951,102.242426 82.42,95.93 C82.7981855,94.54135 82.9931716,93.1092104 83,91.67 L83,91.67 Z" id="Path" fill="#FFFFFF" opacity="0.6"></path>
                    </g>
                </g>
            </g>
        </g>
    </g>
</svg>