<?xml version="1.0" encoding="UTF-8"?>
<svg width="321px" height="300px" viewBox="0 0 321 300" version="1.1" xmlns="http://www.w3.org/2000/svg" xmlns:xlink="http://www.w3.org/1999/xlink">
    <title>Group 4</title>
    <g id="Page-1" stroke="none" stroke-width="1" fill="none" fill-rule="evenodd">
        <g id="Managing-your-Risk-Factors" transform="translate(-48.000000, -2135.000000)">
            <g id="Group-4" transform="translate(48.000000, 2135.000000)">
                <circle id="Mask-Copy" fill="#E13856" opacity="0.0770321801" cx="159" cy="150" r="150"></circle>
                <g id="Asset-29" transform="translate(0.000000, 64.000000)">
                    <path d="M21.192,83.232 L121.722,98.958 L208.458,98.508 L226.2,80.136 C227.76,77.55 235.08,77.274 241.2,75.6 C249.756,73.26 252.468,72.276 259.008,69.192 C259.008,69.192 259.644,68.754 260.01,69.642 C262.008,75.516 260.73,89.616 236.862,90.9 L241.314,90.9 C242.011155,90.688201 242.733634,90.5711512 243.462,90.552 L294.762,88.368 C303.762,87.99 304.188,101.286 294.762,102.006 L266.316,104.19 C266.316,104.436 266.364,104.952 266.388,105.198 L313.44,105.198 C322.44,105.198 322.896,118.836 313.44,118.836 L266.16,118.836 C266.16,119.076 266.112,119.586 266.088,119.826 L301.29,121.71 C310.29,122.196 310.734,135.828 301.29,135.348 L264,133.458 L263.754,135.51 L286.554,137.55 C295.626,138.36 295.968,152.01 286.554,151.188 L251.4,148.104 L228.72,148.104 C228.72,148.104 213.87,149.73 207.03,138.858 L121.314,136.8 L16.452,121.962 L21.192,83.232 Z" id="Path" fill="#EDBC9C" fill-rule="nonzero"></path>
                    <path d="M320.4,111.66 C320.628,115.182 318.39,118.86 313.5,118.86 L266.22,118.86 C266.22,119.1 266.172,119.61 266.148,119.85 L259.59,119.886 C260.621807,119.489212 261.624301,119.020044 262.59,118.482 C263.702083,117.801104 264.627761,116.85481 265.284,115.728 C265.284,115.728 314.052,116.118 316.98,114.714 C319.908,113.31 320.394,111.75 320.412,111.714" id="Path" fill="#D69770" fill-rule="nonzero"></path>
                    <path d="M301.71,94.83 C301.932,98.352 299.682,101.622 294.804,102 L266.502,104.208 C266.502,104.448 266.454,104.952 266.43,105.192 L259.872,105.228 C260.903807,104.831212 261.906301,104.362044 262.872,103.824 C263.986148,103.145698 264.9124,102.198817 265.566,101.07 C265.566,101.07 295.386,99.27 298.284,97.854 C301.182,96.438 301.698,94.89 301.722,94.854" id="Path" fill="#D69770" fill-rule="nonzero"></path>
                    <path d="M308.238,128.172 C308.46,131.694 306.216,135.594 301.332,135.342 L264,133.458 C264,133.698 263.778,135.258 263.754,135.51 L257.4,134.484 C258.432484,134.086468 259.435066,133.615254 260.4,133.074 C261.514148,132.395698 262.4404,131.448817 263.094,130.32 C263.094,130.32 301.902,132.6 304.8,131.196 C307.698,129.792 308.214,128.232 308.238,128.196" id="Path" fill="#D69770" fill-rule="nonzero"></path>
                    <path d="M293.454,144 C293.676,147.522 291.432,151.434 286.554,151.2 L229.452,148.116 L228.732,148.116 C220.68,148.998 211.554,146.034 207.042,138.87 L121.722,138.87 L16.452,121.962 L17.052,117.282 L121.362,134.082 L211.65,134.082 C217.818,146.328 227.094,144.978 235.902,145.038 C253.614,145.146 287.874,148.092 290.022,147.06 C292.92,145.668 293.436,144.096 293.454,144.06" id="Path" fill="#D69770" fill-rule="nonzero"></path>
                    <path d="M244.842,97.356 C242.814,109.458 242.1,123.834 239.898,134.97 C238.596,127.404 236.814,123.768 234.786,120.888 C232.692,117.888 230.274,115.77 223.02,113.028 C234.366,108.51 236.904,106.008 244.842,97.356" id="Path" fill="#D69770"></path>
                    <rect id="Rectangle" fill="#81AED4" fill-rule="nonzero" transform="translate(66.286907, 110.704854) rotate(-82.290000) translate(-66.286907, -110.704854) " x="39.5779072" y="85.0818542" width="53.418" height="51.246"></rect>
                    <rect id="Rectangle" fill="#40709B" fill-rule="nonzero" transform="translate(40.897418, 107.272066) rotate(-82.290000) translate(-40.897418, -107.272066) " x="14.1884185" y="106.183066" width="53.418" height="2.178"></rect>
                    <rect id="Rectangle" fill="#40709B" fill-rule="nonzero" transform="translate(91.669939, 114.153420) rotate(-82.290000) translate(-91.669939, -114.153420) " x="64.9579392" y="113.06442" width="53.424" height="2.178"></rect>
                    <path d="M60.21,106.266 L73.32,108.066 C81.078,109.116 87.342,113.37 89.964,118.686 C90.2974894,119.346717 90.5725379,120.035342 90.786,120.744 C91.1268538,121.856327 91.3027253,123.012632 91.3084267,124.176 C91.3126974,124.707775 91.278607,125.239184 91.206,125.766 L89.172,140.766 L36.234,133.596 L38.268,118.596 C38.3340455,118.07062 38.4403583,117.551092 38.586,117.042 C38.9033793,115.921581 39.3802619,114.852637 40.002,113.868 C40.3975564,113.243389 40.8451463,112.653293 41.34,112.104 C45.288,107.676 52.452,105.24 60.21,106.29" id="Path" fill="#6697BC" fill-rule="nonzero"></path>
                    <polyline id="Path" fill="#CCCCCA" fill-rule="nonzero" points="91.386 124.398 91.206 125.742 91.242 125.454 91.422 124.11 91.386 124.398"></polyline>
                    <path d="M76.962,108.378 C76.1070043,108.13303 75.2398296,107.932759 74.364,107.778 C75.2398296,107.932759 76.1070043,108.13303 76.962,108.378 M90.162,117.174 L89.982,118.518 C87.816,113.994 83.142,110.232 77.184,108.444 C83.142,110.244 87.816,114 89.988,118.524 C90.8582124,120.272352 91.3101041,122.199054 91.3084267,124.152 C91.3126974,124.683775 91.278607,125.215184 91.206,125.742 L89.172,140.742 L87.246,140.484 L89.28,125.484 C89.3787295,124.77231 89.3968441,124.051752 89.334,123.336 C88.83,116.7 81.954,110.736 72.876,109.5 L60.276,107.796 C51.174,106.56 42.978,110.49 40.728,116.754 C40.4769098,117.428427 40.3018274,118.128757 40.206,118.842 L38.178,133.842 L36.252,133.584 L38.286,118.584 C38.3520455,118.05862 38.4583583,117.539092 38.604,117.03 C38.9269908,115.874616 39.409646,114.769962 40.038,113.748 C40.4268285,113.107545 40.8747845,112.504914 41.376,111.948 L41.562,110.604 C45.546,106.014 52.836,103.476 60.714,104.538 L73.314,106.248 C81.174,107.31 87.522,111.69 90.162,117.174 L90.162,117.174 Z" id="Shape" fill="#40709B" fill-rule="nonzero"></path>
                    <path d="M41.544,110.598 L41.358,111.942 C40.8567845,112.498914 40.4088285,113.101545 40.02,113.742 C39.3936729,114.756479 38.9110752,115.852925 38.586,117 C38.4403583,117.509092 38.3340455,118.02862 38.268,118.554 L38.448,117.216 C38.6873445,115.502955 39.2842612,113.85939 40.2,112.392 C40.5910218,111.751492 41.0409733,111.148878 41.544,110.592" id="Path" fill="#40709B" fill-rule="nonzero"></path>
                    <path d="M91.422,124.11 L91.242,125.454 C91.2877662,125.021531 91.3097992,124.58688 91.308,124.152 C91.3101041,122.199054 90.8582124,120.272352 89.988,118.524 L89.988,118.524 L90.168,117.18 C91.2342885,119.324485 91.6691813,121.72784 91.422,124.11" id="Path" fill="#40709B" fill-rule="nonzero"></path>
                    <path d="M185.226,119.568 L138.426,119.568 L138.426,115.038 L185.226,115.038 C189.582,115.038 193.266,112.446 193.266,109.386 C193.266,106.326 189.582,103.728 185.226,103.728 L168.474,103.728 C161.712,103.728 156.42,99.63 156.42,94.398 C156.42,89.166 161.712,85.068 168.474,85.068 L185.226,85.068 C189.66,85.068 193.266,81.72 193.266,77.61 L193.266,71.298 L197.286,71.298 L197.286,77.61 C197.286,80.8030209 196.013525,83.864396 193.750095,86.1165652 C191.486665,88.3687345 188.418981,89.6259651 185.226,89.61 L168.474,89.61 C163.74,89.61 160.44,92.148 160.44,94.41 C160.44,96.672 163.74,99.21 168.474,99.21 L185.226,99.21 C191.988,99.21 197.286,103.686 197.286,109.41 C197.286,115.134 191.988,119.61 185.226,119.61" id="Path" fill="#555559" fill-rule="nonzero"></path>
                    <rect id="Rectangle" fill="#45454B" fill-rule="nonzero" x="192.21" y="63.57" width="6.03" height="7.962"></rect>
                    <polygon id="Path" fill="#555559" fill-rule="nonzero" points="96.438 112.656 112.83 114.864 148.674 115.092 148.638 119.676 112.638 119.442 112.416 119.436 95.952 117.222"></polygon>
                    <rect id="Rectangle" fill="#45454B" fill-rule="nonzero" transform="translate(95.153958, 114.623096) rotate(-82.290000) translate(-95.153958, -114.623096) " x="92.1389576" y="111.821096" width="6.03" height="5.604"></rect>
                    <path d="M173.904,67.65 C166.697476,67.6433976 160.855226,61.8065145 160.842,54.6 L160.842,13.056 C160.851922,5.84714198 166.695138,0.00660984455 173.904,0 L215.436,0 C222.646231,0.00330744349 228.49138,5.84577168 228.498,13.056 L228.498,54.6 C228.49138,61.8102283 222.646231,67.6526926 215.436,67.656 L173.904,67.65 Z" id="Path" fill="#00A0FF" fill-rule="nonzero"></path>
                    <path d="M215.436,60.792 L173.904,60.792 C172.260188,60.7935921 170.68307,60.1421167 169.519594,58.9808913 C168.356118,57.8196659 167.701591,56.243812 167.7,54.6 L167.7,13.056 C167.7,11.4111481 168.353824,9.83375259 169.517473,8.67122949 C170.681121,7.50870638 172.259149,6.85640769 173.904,6.85799709 L215.436,6.85799709 C217.080851,6.85640769 218.658879,7.50870638 219.822527,8.67122949 C220.986176,9.83375259 221.64,11.4111481 221.64,13.056 L221.64,54.6 C221.64,56.2448519 220.986176,57.8222474 219.822527,58.9847705 C218.658879,60.1472936 217.080851,60.7995923 215.436,60.7980029" id="Path" fill="#45454B" fill-rule="nonzero"></path>
                    <path d="M221.64,13.02 C221.626179,11.694123 221.184216,10.4082191 220.38,9.354 L220.446,9.402 C221.212911,10.4468365 221.632627,11.7059843 221.646,13.002 M173.874,60.774 C172.577645,60.7626556 171.317891,60.3427374 170.274,59.574 C170.252638,59.5504959 170.23448,59.5242683 170.22,59.496 C171.262023,60.3144592 172.543166,60.7696022 173.868,60.792 L173.874,60.774 Z" id="Shape" fill="#39393D" fill-rule="nonzero"></path>
                    <path d="M211.38,48.396 L177.96,48.396 C175.206,48.396 172.974,46.53 172.974,44.196 L172.974,16.29 C172.974,13.992 175.206,12.126 177.96,12.126 L211.38,12.126 C214.134,12.126 216.366,13.992 216.366,16.29 L216.366,44.226 C216.366,46.53 214.134,48.426 211.38,48.426" id="Path" fill="#DDEAEE" fill-rule="nonzero"></path>
                    <path d="M174.846,47.454 C173.754904,46.7857286 173.056723,45.628806 172.974,44.352 L172.974,44.352 L172.974,44.292 L172.974,44.292 L172.974,44.292 L172.974,44.292 L172.974,16.29 C172.974,13.992 175.206,12.1258879 177.96,12.1258879 L211.494,12.1258879 C213.179021,12.114905 214.763058,12.9282081 215.736,14.304 C214.814456,13.6879872 213.730473,13.3600771 212.622,13.362 L179.202,13.362 C176.442,13.362 174.21,15.234 174.21,17.562 L174.21,45.468 C174.21852,46.1787228 174.440071,46.8705442 174.846,47.454" id="Path" fill="#9EA7A8" fill-rule="nonzero"></path>
                    <path d="M184.344,54.438 C184.344,56.4924993 182.678499,58.158 180.624,58.158 C178.569501,58.158 176.904,56.4924993 176.904,54.438 C176.904,52.3835007 178.569501,50.718 180.624,50.718 C181.610605,50.718 182.556802,51.1099274 183.254437,51.8075628 C183.952073,52.5051981 184.344,53.4513947 184.344,54.438" id="Path" fill="#E0E1E0" fill-rule="nonzero"></path>
                    <path d="M192.198,58.158 C190.829438,58.158 189.72,57.0485616 189.72,55.68 L189.72,53.196 C189.72,51.8274384 190.829438,50.718 192.198,50.718 L199.068,50.718 L199.068,58.158 L192.198,58.158 Z" id="Path" fill="#E0E1E0" fill-rule="nonzero"></path>
                    <path d="M207.174,58.1580073 L200.31,58.1580073 L200.31,50.7179927 L207.174,50.7179927 C207.831695,50.7164017 208.462913,50.9769627 208.927975,51.4420247 C209.393037,51.9070868 209.653598,52.5383049 209.652007,53.196 L209.652007,55.68 C209.653598,56.3376951 209.393037,56.9689132 208.927975,57.4339753 C208.462913,57.8990373 207.831695,58.1595983 207.174,58.1580073" id="Path" fill="#E0E1E0" fill-rule="nonzero"></path>
                    <rect id="Rectangle" fill="#555559" fill-rule="nonzero" x="180" y="52.578" width="1.242" height="3.726"></rect>
                    <polygon id="Path" fill="#555559" fill-rule="nonzero" points="202.512 51.582 207.456 54.438 202.512 57.288"></polygon>
                    <polygon id="Path" fill="#3D3D3D" fill-rule="nonzero" points="202.854 52.272 207.03 54.684 207.456 54.438 202.512 51.582 202.512 57.288 202.854 57.09"></polygon>
                    <polygon id="Path" fill="#555559" fill-rule="nonzero" points="196.83 51.582 191.88 54.438 196.83 57.294"></polygon>
                    <polygon id="Path" fill="#3D3D3D" fill-rule="nonzero" points="196.482 52.272 192.306 54.684 191.88 54.438 196.83 51.582 196.83 57.294 196.482 57.096"></polygon>
                    <path d="M195.768,35.556 C195.336797,35.5564609 194.930596,35.7584516 194.67,36.102 C194.310844,35.6302449 193.690487,35.440633 193.12896,35.6309814 C192.567432,35.8213298 192.190252,36.3490896 192.191994,36.942 C192.191994,38.334 194.67,39.762 194.67,39.762 C194.67,39.762 197.148013,38.31 197.148013,36.942 C197.149596,36.5749628 197.004908,36.222411 196.745935,35.9623117 C196.486961,35.7022123 196.135041,35.556 195.768,35.556" id="Path" fill="#45454B" fill-rule="nonzero"></path>
                    <polygon id="Path" fill="#45454B" fill-rule="nonzero" points="187.116 45.018 187.11 45.018 186.792 44.748 185.322 37.506 183.966 42.066 183.648 42.306 178.908 42.306 178.908 41.64 183.396 41.64 185.064 36.036 185.4 35.802 185.712 36.066 187.134 43.104 188.202 38.43 188.52 38.166 188.532 38.166 188.85 38.418 189.654 41.64 197.802 41.64 197.802 42.306 189.39 42.306 189.072 42.054 188.544 39.936 187.446 44.76"></polygon>
                    <path d="M201,21.396 L201,15.636 L199.8,15.636 C199.25273,15.9771774 198.639157,16.1980634 198,16.284 L198,17.304 L199.332,17.304 L199.332,21.396 L197.79,21.396 L197.79,22.734 L202.308,22.734 L202.308,21.396 L201,21.396 Z" id="Path" fill="#45454B" fill-rule="nonzero"></path>
                    <path d="M206.892,21.342 C206.490412,21.3494037 206.089658,21.381464 205.692,21.438 C206.838,20.238 207.954,18.954 207.954,17.754 C207.97855,17.1335217 207.735616,16.5323479 207.286882,16.1031237 C206.838147,15.6738994 206.226775,15.4579109 205.608,15.51 C204.676221,15.4928152 203.78937,15.909635 203.208,16.638 L204.102,17.514 C204.411684,17.1012342 204.883626,16.8412291 205.398,16.8 C205.679728,16.7817983 205.954911,16.8901081 206.148653,17.0954518 C206.342395,17.3007955 206.434537,17.5818048 206.4,17.862 C206.4,18.864 205.128,20.082 203.322,21.786 L203.322,22.734 L208.308,22.734 L208.308,21.342 L206.892,21.342 Z" id="Path" fill="#45454B" fill-rule="nonzero"></path>
                    <path d="M211.746,15.51 C210.228,15.51 209.22,16.752 209.22,19.158 C209.22,21.564 210.228,22.866 211.746,22.866 C213.264,22.866 214.29,21.564 214.29,19.158 C214.29,16.752 213.27,15.51 211.746,15.51 M211.746,21.588 C211.206,21.588 210.774,21.09 210.774,19.188 C210.774,17.286 211.206,16.788 211.746,16.788 C212.286,16.788 212.73,17.226 212.73,19.188 C212.73,21.15 212.304,21.6 211.746,21.6 L211.746,21.588 Z" id="Shape" fill="#45454B" fill-rule="nonzero"></path>
                    <path d="M207.132,30.114 L207.132,30.114 C207.678322,29.78096 208.024325,29.1990458 208.056,28.56 C208.056,27.36 207.198,26.61 205.908,26.61 C204.618,26.61 203.64,27.366 203.64,28.566 C203.669001,29.2388718 204.02824,29.8540678 204.6,30.21 L204.6,30.258 C203.89108,30.5496315 203.420676,31.2317176 203.4,31.998 C203.4,33.144 204.444,33.942 205.872,33.942 C207.3,33.942 208.38,33.09 208.38,31.968 C208.376519,31.1686453 207.90783,30.4445205 207.18,30.114 M205.92,27.714 C206.161119,27.7060526 206.394016,27.8021595 206.55936,27.9778377 C206.724704,28.153516 206.806533,28.3918046 206.784,28.632 C206.769796,29.0181396 206.613872,29.3855217 206.346,29.664 C205.614,29.388 205.146,29.112 205.146,28.53 C205.129463,28.3250221 205.197818,28.1222456 205.335073,27.9691101 C205.472328,27.8159745 205.666441,27.7259146 205.872,27.72 L205.92,27.714 Z M205.92,32.796 C205.633679,32.8320754 205.345628,32.7437018 205.128802,32.5532619 C204.911976,32.362822 204.787172,32.088582 204.786,31.8 C204.805698,31.3671386 205.005917,30.962348 205.338,30.684 C206.226,31.062 206.838,31.284 206.838,31.884 C206.859868,32.1400326 206.765012,32.3922589 206.579851,32.5704332 C206.394689,32.7486076 206.139003,32.8336956 205.884,32.802 L205.92,32.796 Z" id="Shape" fill="#45454B" fill-rule="nonzero"></path>
                    <path d="M211.746,26.58 C210.228,26.58 209.22,27.822 209.22,30.228 C209.22,32.634 210.228,33.942 211.746,33.942 C213.264,33.942 214.29,32.646 214.29,30.228 C214.29,27.81 213.27,26.58 211.746,26.58 M211.746,32.664 C211.206,32.664 210.774,32.166 210.774,30.228 C210.774,28.29 211.206,27.828 211.746,27.828 C212.286,27.828 212.73,28.272 212.73,30.228 C212.73,32.184 212.304,32.664 211.746,32.664 Z" id="Shape" fill="#45454B" fill-rule="nonzero"></path>
                    <path d="M206.298,40.452 C205.740984,40.4898311 205.22625,40.7624658 204.882,41.202 C204.936,39.54 205.554,38.988 206.34,38.988 C206.760212,39.0053435 207.157653,39.1836549 207.45,39.486 L208.308,38.508 C207.76511,37.9549126 207.018899,37.6490528 206.244,37.662 C204.744,37.662 203.376,38.862 203.376,41.496 C203.376,43.986 204.678,45.012 206.046,45.012 C206.687052,45.038409 207.309431,44.7927838 207.759667,44.3356916 C208.209902,43.8785995 208.446094,43.2525799 208.41,42.612 C208.476403,42.0277386 208.278068,41.4443933 207.869299,41.0216891 C207.46053,40.5989849 206.884158,40.3812126 206.298,40.428 M206.022,43.8 C205.53,43.8 205.056,43.446 204.912,42.324 C205.120631,41.9174036 205.52965,41.6523408 205.986,41.628 C206.52,41.628 206.91,41.91 206.91,42.648 C206.91,43.386 206.508,43.8 206.022,43.8 Z" id="Shape" fill="#45454B" fill-rule="nonzero"></path>
                    <path d="M211.746,37.662 C210.228,37.662 209.22,38.904 209.22,41.31 C209.22,43.716 210.228,45 211.746,45 C213.264,45 214.29,43.704 214.29,41.298 C214.29,38.892 213.27,37.65 211.746,37.65 M211.746,43.734 C211.206,43.734 210.774,43.236 210.774,41.298 C210.774,39.36 211.206,38.898 211.746,38.898 C212.286,38.898 212.73,39.33 212.73,41.298 C212.73,43.266 212.304,43.746 211.746,43.746 L211.746,43.734 Z" id="Shape" fill="#45454B" fill-rule="nonzero"></path>
                    <rect id="Rectangle" fill="#D26931" fill-rule="nonzero" x="169.434" y="18.084" width="2.376" height="3.822"></rect>
                    <rect id="Rectangle" fill="#DCC263" fill-rule="nonzero" x="169.434" y="24.384" width="2.376" height="3.822"></rect>
                    <rect id="Rectangle" fill="#A1B051" fill-rule="nonzero" x="169.434" y="30.69" width="2.376" height="3.822"></rect>
                    <rect id="Rectangle" fill="#45454B" fill-rule="nonzero" x="177.426" y="31.98" width="4.164" height="1.242"></rect>
                    <polygon id="Path" fill="#45454B" fill-rule="nonzero" points="178.092 32.598 178.914 31.26 178.866 31.23 176.676 32.1 174.396 32.598 176.676 33.102 178.866 33.972 178.914 33.972"></polygon>
                    <rect id="Rectangle" fill="#45454B" fill-rule="nonzero" x="176.94" y="14.346" width="1.086" height="2.586"></rect>
                    <rect id="Rectangle" fill="#45454B" fill-rule="nonzero" x="178.488" y="14.346" width="1.086" height="2.586"></rect>
                    <rect id="Rectangle" fill="#45454B" fill-rule="nonzero" x="180.03" y="14.346" width="1.086" height="2.586"></rect>
                    <path d="M9.204,108 C13.026,99.804 16.944,87.798 19.362,78.114 L30.6,79.95 L23.7,129.084 L7.56,123.738 L9.204,108 Z" id="Path" fill="#00A0FF"></path>
                    <path d="M0,124.446 C4.506,117.882 8.274,110.214 11.694,102.168 L26.904,105.888 L23.712,129.084 L0,124.446 Z" id="Path" fill="#0083C4"></path>
                </g>
            </g>
        </g>
    </g>
</svg>