<?xml version="1.0" encoding="UTF-8"?>
<svg width="300px" height="300px" viewBox="0 0 300 300" version="1.1" xmlns="http://www.w3.org/2000/svg" xmlns:xlink="http://www.w3.org/1999/xlink">
    <title>Group 5</title>
    <g id="Page-1" stroke="none" stroke-width="1" fill="none" fill-rule="evenodd">
        <g id="Managing-your-Risk-Factors" transform="translate(-57.000000, -3332.000000)">
            <g id="Group-5" transform="translate(57.000000, 3332.000000)">
                <circle id="Mask-Copy-3" fill="#E13856" opacity="0.0770321801" cx="150" cy="150" r="150"></circle>
                <g id="Asset-28" transform="translate(3.000000, 20.000000)">
                    <g id="freepik--Floor--inject-113" transform="translate(0.000000, 256.080000)" fill="#2E353A" fill-rule="nonzero">
                        <path d="M279.0084,0.7854 C279.0084,0.8844 216.546,0.957 139.5108,0.957 C62.4756,0.957 0,0.8844 0,0.7854 C0,0.6864 62.4492,0.6138 139.5108,0.6138 C216.5724,0.6138 279.0084,0.693 279.0084,0.7854 Z" id="Path"></path>
                    </g>
                    <g id="freepik--character-2--inject-113" transform="translate(122.100000, 21.780000)" fill-rule="nonzero">
                        <path d="M39.2238,172.3986 L39.2238,167.1186 C39.23108,163.438581 42.2163736,160.459193 45.8964,160.4592 L45.8964,160.4592 L76.8702,160.5318 L102.5442,88.44 L103.4484,60.093 L146.4606,58.773 L137.6034,91.773 L98.9208,172.3986 L39.2238,172.3986 Z" id="Path" fill="#4D5A64"></path>
                        <path d="M134.0526,91.08 C134.0526,91.179 127.281,91.2516 118.9254,91.2516 C110.5698,91.2516 103.7916,91.179 103.7916,91.08 C103.7916,90.981 110.5698,90.9084 118.9254,90.9084 C127.281,90.9084 134.0526,90.9546 134.0526,91.08 Z" id="Path" fill="#2E353A"></path>
                        <path d="M89.5224,158.9742 C89.9630462,159.205158 90.3695208,159.496132 90.7302,159.8388 C92.5879704,161.35847 94.1228982,163.234492 95.2446,165.3564 C95.5069335,165.780384 95.7111576,166.237668 95.8518,166.716 C95.7462,166.7754 94.7364,164.736 92.9874,162.591 C91.2384,160.446 89.4432,159.06 89.5224,158.9742 Z" id="Path" fill="#2E353A"></path>
                        <rect id="Rectangle" fill="#2E353A" x="39.7584" y="220.6776" width="21.0804" height="3.1152"></rect>
                        <polygon id="Path" fill="#2E353A" points="37.2702 168.7686 37.2702 180.1602 102.1812 180.1602 146.4276 92.1096 146.4276 58.8126 136.0854 58.8126 136.0194 91.2318 96.888 168.7686"></polygon>
                        <rect id="Rectangle" fill="#2E353A" x="60.6474" y="180.1602" width="31.383" height="50.49"></rect>
                        <path d="M102.1812,180.18 C102.1812,180.279 87.7272,180.378 69.9006,180.411 C52.074,180.444 37.62,180.411 37.62,180.2988 C37.62,180.1866 52.0674,180.1008 69.9006,180.0678 C87.7338,180.0348 102.1812,180.0678 102.1812,180.18 Z" id="Path" fill="#4D5A64"></path>
                        <path d="M102.1812,180.18 C101.143895,178.3584 100.207483,176.481169 99.3762,174.5568 C98.4443393,172.679834 97.613748,170.754273 96.888,168.7884 C97.9218529,170.610788 98.8560269,172.487949 99.6864,174.4116 C100.621969,176.287746 101.4548,178.21339 102.1812,180.18 Z" id="Path" fill="#4D5A64"></path>
                        <path d="M146.5662,91.08 C142.990527,91.3109908 139.403673,91.3109908 135.828,91.08 C139.403883,90.8556022 142.990317,90.8556022 146.5662,91.08 Z" id="Path" fill="#4D5A64"></path>
                        <polygon id="Path" fill="#2E353A" points="60.6474 230.6502 32.1618 235.1778 117.2226 235.1778 92.0304 230.6502"></polygon>
                        <path d="M94.7364,230.8416 C94.7364,230.934 87.1464,231.0132 77.7876,231.0132 C68.4288,231.0132 60.8388,230.934 60.8388,230.8416 C60.8388,230.7492 68.4288,230.67 77.7876,230.67 C87.1464,230.67 94.7364,230.7492 94.7364,230.8416 Z" id="Path" fill="#4D5A64"></path>
                        <path d="M85.272,6.963 C85.0527723,4.61597675 86.2421313,2.36139444 88.3030668,1.21722486 C90.3640022,0.0730552887 92.9065035,0.2558206 94.7826,1.683 C95.1961875,2.0792131 95.6736974,2.40275955 96.195,2.64 C96.8648233,2.78518297 97.5579767,2.78518297 98.2278,2.64 C100.879886,2.35378601 103.471242,3.56538732 104.952176,5.7840158 C106.433111,8.00264428 106.558133,10.8605231 105.2766,13.2 C107.254725,13.7249033 108.943253,15.0142344 109.970617,16.78427 C110.99798,18.5543057 111.279994,20.6600054 110.7546,22.638 C110.45319,23.7861957 109.888237,24.8483077 109.1046,25.74 C110.073552,26.6440449 110.643645,27.896007 110.689442,29.2204192 C110.73524,30.5448314 110.252989,31.8331829 109.3488,32.802 C108.854588,33.3274612 108.250673,33.7375823 107.58,34.0032 C107.030839,34.1448759 106.523789,34.4165094 106.1016,34.7952 C105.0984,36.0096 106.8012,37.9566 106.1016,39.3624 C105.5538,40.425 103.8774,40.59 103.4616,41.7186 C103.1844,42.5304 103.7322,43.3752 103.8378,44.2266 C104.0754,46.0812 102.201,47.5266 100.3992,48.0216 C96.8286,48.9654 92.9016,47.6388 90.1494,45.177 C87.3972,42.7152 85.6944,39.237 84.7242,35.6862 C82.4406,27.3108 83.8728,18.4272 85.3182,9.867" id="Path" fill="#2E353A"></path>
                        <path d="M82.6122,9.702 C81.8827415,9.240082 81.4696212,8.41172791 81.5395194,7.55115124 C81.6094177,6.69057457 82.1508033,5.93974794 82.9452448,5.6016051 C83.7396864,5.26346226 84.6561219,5.39378793 85.3248,5.94 C85.4147936,6.00512793 85.5007516,6.07565759 85.5822,6.1512 C85.8396,6.3954 86.0838,6.7188 86.4336,6.7386 C86.7834,6.7584 87.0474,6.501 87.3246,6.3162 C88.0685827,5.81211086 89.0386315,5.78973354 89.8050674,6.25897997 C90.5715032,6.72822641 90.9926647,7.60236512 90.882,8.4942 C92.0502,7.9926 93.6672,8.1378 94.2546,9.2598 C94.776,10.263 94.1754,11.5698 93.2052,12.144 C92.1857649,12.6580283 91.0202826,12.804879 89.9052,12.5598 C87.2111676,12.1624905 84.708027,10.9351442 82.7442,9.0486" id="Path" fill="#D61335"></path>
                        <path d="M89.8722,9.735 C89.9052,9.801 90.288,9.6558 90.5718,9.2532 C90.8556,8.8506 90.8622,8.448 90.7962,8.4414 C90.7302,8.4348 90.5982,8.7582 90.354,9.1014 C90.1098,9.4446 89.8392,9.702 89.8722,9.735 Z" id="Path" fill="#FFFFFF"></path>
                        <path d="M85.734,9.4446 C85.8066,9.4446 85.734,8.8638 85.9386,8.2104 C86.1076737,7.82656258 86.250991,7.43188886 86.3676,7.029 C86.0122511,7.29912974 85.7756327,7.69664866 85.7076,8.1378 C85.5407319,8.55930264 85.5502446,9.03018067 85.734,9.4446 Z" id="Path" fill="#FFFFFF"></path>
                        <path d="M83.5098,8.8968 C83.5824,8.8968 83.4306,8.316 83.5626,7.6428 C83.6946,6.9696 84.018,6.4944 83.9586,6.4416 C83.5790783,6.71046846 83.3375603,7.13312499 83.2986,7.5966 C83.170421,8.03974003 83.247948,8.51701525 83.5098,8.8968 L83.5098,8.8968 Z" id="Path" fill="#FFFFFF"></path>
                        <path d="M91.5354,11.1606 C91.6835168,11.1540502 91.8300571,11.1274065 91.971,11.0814 C92.3057714,10.9487791 92.5931274,10.7188943 92.796,10.4214 C93.0005638,10.1180495 93.117074,9.76395004 93.1326,9.3984 C93.1326,9.1212 93.0732,8.9562 93.0402,8.9628 C92.9571933,9.42452087 92.8012434,9.87009197 92.5782,10.2828 C92.1492,10.89 91.5024,11.088 91.5354,11.1606 Z" id="Path" fill="#FFFFFF"></path>
                        <path d="M67.7556,35.8974 C65.9895861,35.3133515 64.9363161,33.5041054 65.3004,31.68 C63.2993582,30.2802215 62.8118131,27.5233759 64.2114,25.5222 L64.3632,25.3176 C63.4059249,24.4890465 63.0453111,23.1635514 63.4508812,21.9642226 C63.8564514,20.7648939 64.9475271,19.9303083 66.2112,19.8528 C65.6766142,18.444782 65.9347424,16.8584567 66.8881566,15.6925673 C67.8415708,14.526678 69.3450804,13.958772 70.8312,14.2032 C70.6007261,12.6959103 71.2820573,11.1947219 72.5683028,10.3758123 C73.8545483,9.55690262 75.50302,9.57478316 76.7712,10.4214 C78.6588,7.8738 82.995,7.7154 85.0608,10.1244 C86.2729024,9.4615245 87.6987364,9.30747141 89.0244531,9.69615028 C90.3501699,10.0848291 91.4671038,10.9843809 92.1294,12.1968 L92.1954,12.3156 C93.7662,10.857 96.4986,11.3784 97.9242,12.9756 C99.3498,14.5728 99.6864,16.8828 99.5148,19.0212 C101.289732,19.837772 102.069088,21.9367211 101.2572,23.7138 C100.992472,24.2997325 100.569646,24.8002668 100.0362,25.1592 C101.990013,27.7989814 101.499563,31.5123889 98.9274,33.5544 C99.2990828,36.363141 97.9383933,39.118407 95.4822,40.5306" id="Path" fill="#2E353A"></path>
                        <path d="M93.06,23.562 L93.984,20.988 L78.144,18.4602 C73.26,18.0906 68.1648,23.1 67.98,27.9708 C67.7952,33.3828 67.7886,40.0026 68.5476,44.0154 C70.0722,52.0806 76.3158,52.932 76.3158,52.932 L76.8042,65.6568 L94.3998,58.2516 L93.06,23.562 Z" id="Path" fill="#A8775F"></path>
                        <path d="M70.125,32.8548 C70.1357308,33.4204178 70.5954911,33.8743213 71.1612,33.8778 C71.4266854,33.8903193 71.6861734,33.7962747 71.8819916,33.6165681 C72.0778099,33.4368615 72.1937342,33.1863821 72.204,32.9208 L72.204,32.9208 C72.1863733,32.3592426 71.7295929,31.9111905 71.1678,31.9044 C70.6220657,31.8781378 70.1569333,32.2961682 70.125,32.8416 L70.125,32.8548 Z" id="Path" fill="#2E353A"></path>
                        <path d="M69.8214,31.3632 C69.9534,31.4952 70.7256,30.888 71.841,30.8616 C72.9564,30.8352 73.821,31.3632 73.9134,31.2246 C74.0058,31.086 73.8342,30.921 73.4712,30.6702 C72.9756977,30.353501 72.3957216,30.194698 71.808,30.2148 C71.2245165,30.2280293 70.6604285,30.4268472 70.1976,30.7824 C69.861,31.0596 69.7554,31.3038 69.8214,31.3632 Z" id="Path" fill="#2E353A"></path>
                        <path d="M80.8302,32.8548 C80.8404755,33.4103804 81.2845999,33.8603103 81.84,33.8778 C82.3881699,33.9039788 82.8543495,33.4820567 82.8828,32.934 L82.8828,32.934 C82.8755754,32.3705292 82.4167171,31.9175537 81.8532,31.9176 C81.3038235,31.8913428 80.8357389,32.3123245 80.8038,32.8614 L80.8302,32.8548 Z" id="Path" fill="#2E353A"></path>
                        <path d="M81.0678,31.2246 C81.2064,31.3566 81.972,30.7494 83.094,30.723 C84.216,30.6966 85.074,31.2246 85.1664,31.086 C85.2588,30.9474 85.0872,30.7824 84.7176,30.5316 C84.2220977,30.214901 83.6421216,30.056098 83.0544,30.0762 C82.4735208,30.0926158 81.9124898,30.2911699 81.4506,30.6438 C81.114,30.921 81.0084,31.1652 81.0678,31.2246 Z" id="Path" fill="#2E353A"></path>
                        <path d="M77.0088,39.666 C76.4126362,39.5010183 75.7988744,39.4079569 75.1806,39.3888 C74.8968,39.3888 74.6196,39.3228 74.5668,39.1248 C74.5354521,38.8308868 74.5929254,38.5343244 74.7318,38.2734 C74.9826,37.5738 75.24,36.8412 75.5172,36.0756 C76.5996,32.9406 77.3718,30.36 77.22,30.36 C77.0682,30.36 76.1112,32.8218 75.0288,35.9568 C74.7714,36.729 74.5206,37.4616 74.283,38.1678 C74.1117223,38.5184445 74.0719112,38.9188969 74.1708,39.2964 C74.2612735,39.4973 74.4388213,39.6456619 74.6526,39.699 C74.8126339,39.7364731 74.9766549,39.7542051 75.141,39.7518 C75.7646046,39.8082816 76.3929998,39.7794154 77.0088,39.666 Z" id="Path" fill="#2E353A"></path>
                        <path d="M76.3488,52.9518 C80.2580079,52.8980078 84.0782759,51.7774871 87.3972,49.7112 C87.3972,49.7112 84.8232,55.4664 76.4148,54.9912 L76.3488,52.9518 Z" id="Path" fill="#815744"></path>
                        <path d="M81.4572,25.3506 C81.5232,25.6674 82.6452,25.707 83.919,26.07 C85.1928,26.433 86.1762,26.961 86.394,26.73 C86.493,26.6112 86.3544,26.301 85.9782,25.938 C85.5411103,25.4011562 84.9106404,25.057479 84.2226,24.981 C83.5779221,24.8008799 82.9004424,24.7715225 82.2426,24.8952 C81.7146,25.0074 81.4242,25.1988 81.4572,25.3506 Z" id="Path" fill="#2E353A"></path>
                        <path d="M69.8478,27.8388 C70.0656,28.0764 70.8114,27.7596 71.7354,27.6738 C72.6594,27.588 73.458,27.7134 73.6164,27.4296 C73.6824,27.2976 73.5438,27.0534 73.1808,26.8422 C72.7038902,26.5803797 72.156285,26.476404 71.6166,26.5452 C71.0691595,26.606267 70.5545315,26.8370419 70.1448,27.2052 C69.8412,27.456 69.7554,27.72 69.8478,27.8388 Z" id="Path" fill="#2E353A"></path>
                        <path d="M84.9552,18.3282 C84.7887391,18.9811492 84.4620849,19.5822835 84.0048,20.0772 C83.5139565,20.5712303 82.730962,20.6194583 82.1832,20.1894 C81.8568345,20.5387661 81.404999,20.7441007 80.9271788,20.7601931 C80.4493585,20.7762855 79.9847318,20.6018162 79.6356,20.2752 C79.5438584,20.1900151 79.4619477,20.0948215 79.3914,19.9914 C78.5821355,20.7498944 77.3648364,20.8716243 76.4214,20.2884 L74.0058,20.8164 C73.128,21.0078 72.0258,21.12 71.5044,20.4072 C71.379,20.2422 71.2866,20.031 71.1018,19.9452 C70.8992657,19.8857983 70.6839343,19.8857983 70.4814,19.9452 C69.7687614,19.9921672 69.0824124,19.6677113 68.6664,19.0872 C68.256946,18.5181233 67.9508747,17.8814057 67.7622,17.2062 C67.4124,16.1964 67.1352,14.883 67.9602,14.1966 C68.3054524,13.9541697 68.7037756,13.7980089 69.1218,13.7412 C69.9499051,13.4965093 70.8206759,13.4312577 71.676,13.5498 C72.6957768,13.845216 73.5775484,14.4930959 74.1642,15.378 C73.9910865,14.8000138 74.297543,14.187101 74.8638,13.9788 C75.4247808,13.8027332 76.0327867,13.8573587 76.5534,14.1306 C77.3229968,14.4768848 77.9778247,15.0355491 78.441,15.741 C79.826194,15.7265299 81.1019117,16.4919606 81.741,17.721 C82.3549628,17.3204972 83.104621,17.1848448 83.82,17.3448 C84.0721586,17.3912306 84.2967213,17.5330597 84.447,17.7408 C84.5047642,17.838824 84.5212225,17.9557799 84.4927545,18.0659388 C84.4642865,18.1760977 84.393224,18.2704358 84.2952,18.3282 C84.273345,18.3317718 84.251055,18.3317718 84.2292,18.3282" id="Path" fill="#2E353A"></path>
                        <path d="M77.1276,18.81 C77.6370493,19.9306988 77.3042966,21.2547486 76.3255451,22.0014412 C75.3467937,22.7481339 73.9818771,22.7192414 73.0356,21.9318 C72.6256971,23.0729643 71.4494016,23.7491246 70.257,23.529 C70.2678916,24.9404552 69.5089968,26.2457543 68.277,26.9346 C68.5745716,27.6381887 68.5934474,28.4286091 68.3298,29.1456 C68.1837448,29.6140006 67.8555446,30.0040356 67.419,30.228 C66.8703442,30.4241388 66.2645609,30.3810396 65.7492,30.1092 C64.9771486,29.8194454 64.3603215,29.2217447 64.0464,28.4592 C63.7547674,27.6665099 64.0784657,26.7791299 64.812,26.3604 C64.105163,25.718633 63.5504783,24.9271928 63.1884,24.0438 C62.9377371,23.5537237 62.8903106,22.9846057 63.0564,22.4598 C63.2374802,21.9956733 63.7598728,21.7654663 64.2246,21.945 L64.3764,22.0176 C63.9377213,21.2094509 64.003245,20.2209999 64.5447599,19.4778271 C65.0862747,18.7346544 66.0071109,18.3694291 66.9108,18.5394 C66.9149619,17.760506 67.3753994,17.0564135 68.0872892,16.7403343 C68.7991791,16.4242552 69.6302483,16.5549188 70.2108,17.0742" id="Path" fill="#2E353A"></path>
                        <path d="M86.823,17.8992 C86.7438,16.9224 87.6876,16.0908 88.6644,15.9522 C89.6500596,15.8938475 90.6314401,16.123142 91.4892,16.6122 C92.4401558,15.5169223 93.9701175,15.1252311 95.3304,15.6288 C96.6504,16.1502 97.4754,17.4108 98.5578,18.315 C99.1760527,18.7341274 99.7259235,19.2461529 100.188,19.833 C100.584,20.493 100.5774,21.4434 99.9306,21.813 C100.562536,22.031761 101.081673,22.4926205 101.373787,23.0941761 C101.6659,23.6957317 101.707056,24.3886971 101.4882,25.0206 C101.330157,25.4805848 101.041104,25.8843412 100.6566,26.1822 C100.4256,26.3604 100.155,26.5188 100.0626,26.796 C100.004623,27.0299366 100.027897,27.2766332 100.1286,27.4956 C100.605252,28.5452352 101.010963,29.6256602 101.343,30.7296 C101.574,31.8582 101.343,33.2046 100.3662,33.8382 C100.1154,34.0032 99.7986,34.1352 99.7062,34.419 C99.6403198,34.6092584 99.6403198,34.8161416 99.7062,35.0064 C99.9220004,35.6270685 100.196021,36.2259352 100.5246,36.795 C100.847907,37.3726322 100.953289,38.0470746 100.8216,38.6958 C100.743679,39.0162862 100.540722,39.2922507 100.258011,39.4621255 C99.9752996,39.6320003 99.6363564,39.6816508 99.3168,39.6 L99.3168,39.6 C99.810983,40.8436913 99.6603711,42.2510484 98.9142,43.362 C98.109,44.3982 95.4426,44.8668 93.8652,43.9098 L93.72,40.194 C93.9312,39.534 92.9148,36.0624 93.3372,35.3496 C93.3372,35.3496 94.4526,37.7652 91.9446,37.3296 C91.1262,37.554 89.562,35.1582 89.4498,34.32 C89.3940296,33.4553446 89.8410345,32.6358358 90.5982,32.2146 C89.1795309,31.0794802 88.7644359,29.0980933 89.6082,27.489 C88.6502423,27.3892529 87.8937682,26.6309366 87.7963515,25.6727391 C87.6989347,24.7145416 88.2873172,23.8194982 89.2056,23.529 C86.9882975,22.8701648 85.7240134,20.5395102 86.3808,18.3216 C86.4222619,18.1828365 86.470724,18.0462617 86.526,17.9124" id="Path" fill="#2E353A"></path>
                        <path d="M92.4396,33.594 C92.5518,33.5346 97.02,31.7196 97.3434,36.4254 C97.6668,41.1312 92.8818,40.4976 92.862,40.3854 C92.8422,40.2732 92.4396,33.594 92.4396,33.594 Z" id="Path" fill="#A8775F"></path>
                        <path d="M94.1754,38.478 C94.2490056,38.520196 94.3263302,38.5555444 94.4064,38.5836 C94.6020455,38.6692059 94.8245545,38.6692059 95.0202,38.5836 C95.6089222,38.1448752 95.9184733,37.4251061 95.832,36.696 C95.8116137,36.2933684 95.7058772,35.8996689 95.5218,35.541 C95.4098172,35.2499334 95.1638924,35.0310603 94.8618,34.9536 C94.6646961,34.9196788 94.470303,35.0264581 94.3932,35.211 C94.3338,35.3496 94.3932,35.442 94.347,35.4486 C94.3008,35.4552 94.2414,35.376 94.2678,35.1846 C94.2862801,35.0655633 94.3444218,34.9562569 94.4328,34.8744 C94.5567399,34.7715387 94.7140154,34.7175486 94.875,34.7226 C95.2701122,34.7758349 95.612178,35.0237087 95.7858,35.3826 C96.017816,35.7849793 96.1470302,36.2383625 96.162,36.7026 C96.195,37.653 95.7726,38.577 95.106,38.8212 C94.8551496,38.9138788 94.5757327,38.887152 94.347,38.7486 C94.1952,38.5902 94.1622,38.4846 94.1754,38.478 Z" id="Path" fill="#815744"></path>
                        <path d="M80.2362,41.217 C79.5998026,40.5817334 78.5691974,40.5817334 77.9328,41.217 C77.7899074,41.3588983 77.6756329,41.5269491 77.5962,41.712 C77.4177445,42.1063505 77.4177445,42.5584495 77.5962,42.9528 C77.8521239,43.5160556 78.443475,43.8485826 79.0577106,43.7746328 C79.6719461,43.7006831 80.1674755,43.2373032 80.2824,42.6294 C80.3946,42.042 80.5794,41.3094 80.0514,41.0586" id="Path" fill="#815744"></path>
                        <path d="M78.3816,33.1122 C78.4352215,32.6854026 78.5145659,32.2622325 78.6192,31.845 C78.9480528,30.7207635 79.6454317,29.7397839 80.5992,29.0598 C82.0036374,28.0288457 83.8350275,27.7803532 85.4634,28.3998 C85.9245883,28.5724735 86.3564459,28.8151152 86.7438,29.1192 C87.1510292,29.4293896 87.5073214,29.8012697 87.7998,30.2214 C89.094177,32.0384577 89.0540412,34.4867459 87.7008,36.2604 C87.0949967,37.0739591 86.2506187,37.6784045 85.2852,37.9896 C83.9848479,38.4453414 82.5563387,38.362906 81.3170431,37.7606083 C80.0777476,37.1583107 79.1303022,36.0860322 78.6852,34.782 C78.6324,34.6368 78.5928,34.4916 78.5532,34.3398 C78.4658892,33.9212871 78.40199,33.4982301 78.3618,33.0726 C78.3190966,33.5146784 78.3503239,33.9607822 78.4542,34.3926 C78.7766729,35.8658929 79.7137821,37.1309639 81.0291757,37.8687446 C82.3445693,38.6065253 83.9126769,38.7465854 85.338,38.2536 C85.8290219,38.0927873 86.2921276,37.8567816 86.7108,37.554 C87.1517693,37.2448987 87.5415088,36.8685218 87.8658,36.4386 C89.2955933,34.5789342 89.3384936,32.0022321 87.9714,30.096 C87.6622987,29.6550307 87.2859218,29.2652912 86.856,28.941 C86.4579928,28.624479 86.0125086,28.3727804 85.536,28.1952 C84.6413004,27.8588849 83.6734907,27.7655197 82.731,27.9246 C80.7015708,28.2815376 79.0652063,29.7864775 78.54,31.779 C78.4117023,32.211145 78.3581325,32.6620235 78.3816,33.1122 Z" id="Path" fill="#4D5A64"></path>
                        <path d="M65.2542,32.8878 C65.3087897,32.4616204 65.3858976,32.0386288 65.4852,31.6206 C65.8784895,30.2220211 66.843019,29.0539685 68.141962,28.4032407 C69.440905,27.752513 70.9539535,27.6793805 72.3096,28.2018 C72.7707883,28.3744735 73.2026459,28.6171152 73.59,28.9212 C73.9992175,29.2312694 74.3577044,29.603116 74.6526,30.0234 C75.9407697,31.8432163 75.8980066,34.2887332 74.547,36.0624 C73.9408683,36.872822 73.1032022,37.48036 72.1446,37.8048 C70.5056113,38.3807172 68.6859956,38.0795223 67.32,37.0062 C66.3961013,36.2926237 65.740267,35.2879415 65.4588,34.155 C65.3682855,33.7370691 65.3043573,33.3138203 65.2674,32.8878 C65.222011,33.3298388 65.25327,33.7763955 65.3598,34.2078 C65.6067321,35.3865886 66.2581333,36.4419051 67.2012,37.191 C68.616846,38.3308067 70.5191988,38.6624095 72.237,38.0688 C73.2416789,37.7292908 74.121952,37.0972409 74.7648,36.2538 C76.1945933,34.3941342 76.2374936,31.8174321 74.8704,29.9112 C74.5612987,29.4702307 74.1849218,29.0804912 73.755,28.7562 C73.3553861,28.4420701 72.9102896,28.1905905 72.435,28.0104 C71.0285769,27.4697051 69.4581491,27.5556496 68.1191297,28.2465937 C66.7801103,28.9375378 65.8000809,30.1676485 65.4258,31.6272 C65.3031227,32.0358609 65.2452208,32.4612172 65.2542,32.8878 Z" id="Path" fill="#4D5A64"></path>
                        <path d="M88.77,32.2476 C89.9925533,32.9280762 91.3390522,33.3567116 92.73,33.5082 C91.4354755,33.0118111 90.1132563,32.5909047 88.77,32.2476 Z" id="Path" fill="#4D5A64"></path>
                        <path d="M75.1806,31.614 C75.7555812,31.5347991 76.3365954,31.508289 76.9164,31.5348 C77.4841367,31.648158 78.040713,31.8115971 78.5796,32.0232 C78.153073,31.5684376 77.5656732,31.2984232 76.9428,31.2708 C76.3331445,31.1599598 75.704101,31.2824702 75.1806,31.614 Z" id="Path" fill="#4D5A64"></path>
                        <path d="M85.3842,37.1382 C85.6847721,37.104939 85.9725891,36.9984241 86.2224,36.828 C87.5087923,36.0856579 88.2899952,34.7027519 88.2618,33.2178 C88.2762493,32.9184531 88.2197111,32.6199316 88.0968,32.3466 C88.0769974,32.6366624 88.0769974,32.9277376 88.0968,33.2178 C88.0563533,33.9116539 87.8624971,34.5878966 87.5292,35.1978 C87.1863143,35.7954929 86.7124493,36.3077184 86.1432,36.696 C85.6614,36.96 85.3446,37.0986 85.3842,37.1382 Z" id="Path" fill="#FFFFFF"></path>
                        <path d="M72.369,36.762 C72.6513865,36.7383053 72.9213435,36.6353556 73.1478,36.465 C74.3453805,35.74866 75.0775254,34.4548697 75.075,33.0594 C75.1017322,32.7791525 75.0539175,32.4968181 74.9364,32.241 C74.9045604,32.5104135 74.8891319,32.7815137 74.8902,33.0528 C74.790575,34.3588146 74.1128562,35.5520839 73.0422,36.3066 C72.8134,36.4518 72.589,36.6036 72.369,36.762 Z" id="Path" fill="#FFFFFF"></path>
                        <path d="M80.6388,39.798 C80.718,39.798 80.85,40.1412 80.751,40.7154 C80.607073,41.4727157 80.1679441,42.1417318 79.5303754,42.575031 C78.8928067,43.0083301 78.1091198,43.1703537 77.352,43.0254 L77.352,43.0254 C76.7844,42.9066 76.5072,42.6624 76.5468,42.5832 C76.5864,42.504 76.9098,42.5832 77.3982,42.5436 C78.6845398,42.5542728 79.8422311,41.7649378 80.3022,40.5636 C80.4804,40.128 80.52,39.8046 80.6388,39.798 Z" id="Path" fill="#2E353A"></path>
                        <path d="M92.2152,12.3024 C92.2908834,12.2362189 92.375266,12.1807041 92.466,12.1374 C92.7074939,11.9786114 92.9639095,11.8437722 93.2316,11.7348 C94.2407661,11.2788136 95.3862954,11.2268515 96.4326,11.5896 C98.0036244,12.2198273 99.2724487,13.4295816 99.9768,14.9688 C100.406029,15.8920464 100.667507,16.8843204 100.749,17.8992 C100.79382,18.4502925 100.737908,19.0049405 100.584,19.536 C100.426246,20.1043985 100.104935,20.6139063 99.66,21.0012 L99.6072,20.724 C100.838065,21.1469524 101.764269,22.1740925 102.0581,23.4419964 C102.351932,24.7099003 101.97195,26.0397438 101.0526,26.961 C100.98,27.0402 100.8942,27.1062 100.8216,27.1722 L100.7754,26.8818 C101.531764,27.2192832 102.114704,27.8547834 102.3858,28.6374 C102.651619,29.369677 102.746436,30.15305 102.663,30.9276 C102.4848,32.4456 101.8116,33.7326 101.3826,34.9932 C101.159891,35.6013009 101.004954,36.2321171 100.9206,36.8742 C100.8414,37.5342 100.815,38.1216 100.7424,38.7288 C100.648176,39.8699132 100.21104,40.9558512 99.4884,41.844 C98.4425287,43.1271679 96.9307669,43.9435667 95.2842,44.1144 C94.8438303,44.1563376 94.3998131,44.1385769 93.9642,44.0616 C93.8118087,44.0477345 93.662567,44.0098672 93.522,43.9494 C94.1027435,44.0219412 94.6902565,44.0219412 95.271,43.9494 C96.8599098,43.7390424 98.3041916,42.9174591 99.297,41.6592 C99.9756573,40.7987643 100.38238,39.7555333 100.4652,38.6628 C100.5246,38.0688 100.5444,37.4484 100.6236,36.8082 C100.69858,36.1322217 100.853668,35.4675562 101.0856,34.8282 C101.5146,33.5412 102.1746,32.2542 102.333,30.8286 C102.407468,30.1071778 102.3172,29.3782632 102.069,28.6968 C101.834241,28.0006757 101.320035,27.4338535 100.65,27.1326 L100.386,27.06 L100.5906,26.8752 C100.65,26.8092 100.7292,26.7498 100.7952,26.6772 C101.442478,26.0320196 101.806292,25.1557073 101.806292,24.2418 C101.806292,23.3278927 101.442478,22.4515804 100.7952,21.8064 C100.421013,21.4410455 99.9700729,21.1637173 99.4752,20.9946 L99.2442,20.9154 L99.462,20.7306 C100.229445,19.9981572 100.604106,18.9451868 100.4718,17.8926 C100.399095,16.9161658 100.155602,15.9600654 99.7524,15.0678 C99.0854489,13.5835556 97.8835591,12.4052322 96.3864,11.7678 C95.3852322,11.4056057 94.2858038,11.4243994 93.2976,11.8206 C93.0304609,11.9196314 92.7702753,12.0364944 92.5188,12.1704 C92.4254939,12.2306961 92.3229338,12.2752875 92.2152,12.3024 Z" id="Path" fill="#4D5A64"></path>
                        <path d="M93.621,11.3124 C93.7963245,11.4092 93.9546181,11.5340513 94.0896,11.682 C94.4562022,12.0895942 94.7308163,12.5712943 94.8948,13.0944 C95.2663985,14.3230794 95.0107845,15.6559049 94.2109899,16.6599304 C93.4111953,17.6639559 92.1692578,18.211088 90.8886,18.1236 L91.0272,18.0708 C90.1332225,19.1000685 88.8520406,19.7119762 87.4896,19.7604 C87.1033751,19.77927 86.7164688,19.7414688 86.3412,19.6482 C86.2028797,19.6267719 86.0703809,19.5773656 85.9518,19.503 C86.4582536,19.5546536 86.9677481,19.5700928 87.4764,19.5492 C88.7559018,19.437145 89.9405683,18.8282265 90.7764,17.853 L90.8292,17.7936 L90.915,17.7936 C91.5520033,17.8331782 92.1879475,17.7009748 92.7564,17.4108 C93.5956699,17.0076431 94.2495249,16.2994968 94.5846,15.4308 C94.8359346,14.7052215 94.8612492,13.9204683 94.6572,13.1802 C94.4528371,12.4891934 94.0990916,11.8515501 93.621,11.3124 L93.621,11.3124 Z" id="Path" fill="#4D5A64"></path>
                        <path d="M97.3962,12.0186 C97.4453084,12.0596504 97.4895926,12.1061487 97.5282,12.1572 C97.645763,12.3049696 97.751681,12.46164 97.845,12.6258 C98.176038,13.2383513 98.3781869,13.9121812 98.439,14.6058 C98.5318129,15.6467933 98.3136006,16.6919151 97.812,17.6088 C96.5702944,19.7229797 94.0286497,20.6935754 91.6938,19.9452 L91.8918,19.866 C91.4612129,20.6617444 90.7582653,21.275652 89.9118,21.5952 C89.2594807,21.8448016 88.5487639,21.8998248 87.8658,21.7536 C87.4226277,21.6674857 87.0022815,21.4899063 86.6316,21.2322 C86.490232,21.1525021 86.3666918,21.0446852 86.2686,20.9154 C86.7675183,21.2323639 87.3198968,21.4559989 87.8988,21.5754 C89.3981079,21.8287191 90.8893365,21.0844386 91.5882,19.734 L91.6542,19.6152 L91.7796,19.6548 C92.7581896,19.9510664 93.8041727,19.9395467 94.776,19.6218 C95.9308944,19.2711966 96.9112397,18.498232 97.5216,17.457 C98.0081806,16.59827 98.2373017,15.6176314 98.1816,14.6322 C98.1140215,13.7140582 97.8459249,12.8219049 97.3962,12.0186 L97.3962,12.0186 Z" id="Path" fill="#4D5A64"></path>
                        <path d="M41.58,129.7296 C41.58,129.7296 17.2392,134.4552 11.88,135.9336 C4.026,138.105 0.5742,141.2532 0.5742,146.5728 C0.5742,151.8924 26.9742,212.9358 26.9742,212.9358 L37.7322,211.9194 L22.044,156.321 L53.2158,155.1528 L41.58,129.7296 Z" id="Path" fill="#A8775F"></path>
                        <path d="M42.0024,138.8112 C42.0024,138.8112 12.7842,139.722 7.2072,144.1308 C1.6302,148.5396 3.9072,153.8856 5.6562,160.0896 C7.4052,166.2936 31.7394,217.3776 31.7394,217.3776 L42.0156,215.16 C42.0156,215.16 37.2702,180.0876 35.0526,173.6592 C32.835,167.2308 26.2548,159.06 26.2548,159.06 C26.2548,159.06 49.764,162.0894 54.1926,160.9806 C58.6212,159.8718 42.0024,138.8112 42.0024,138.8112 Z" id="Path" fill="#A8775F"></path>
                        <path d="M31.2642,216.48 C31.209963,216.404564 31.1656027,216.322498 31.1322,216.2358 L30.7824,215.5098 L29.4624,212.7048 L24.6444,202.3428 L8.8044,168.102 C7.2468,164.7096 5.7354,161.4096 4.2702,158.202 L4.2702,158.202 C3.83354708,156.770015 3.50482652,155.307319 3.2868,153.8262 C3.08783535,152.393886 2.99079148,150.949256 2.9964,149.5032 C2.98443066,148.107456 3.20754933,146.719658 3.6564,145.398 C4.09659701,144.123589 4.87995143,142.995376 5.9202,142.1376 C6.93343299,141.378105 8.10015923,140.848798 9.339,140.5866 C10.4837205,140.342459 11.6402512,140.157414 12.804,140.0322 C15.0348,139.755 17.094,139.4448 18.9684,139.1742 C21.9032,138.7342 24.8578,138.424 27.8322,138.2436 C28.875,138.1908 29.6802,138.1842 30.2214,138.1908 L30.2214,138.1908 C29.6736,138.1908 28.8684,138.2304 27.8322,138.2964 C25.7532,138.4152 22.737,138.7518 18.9948,139.3326 C17.1204,139.6098 15.0348,139.9398 12.8304,140.2302 C11.6769004,140.356638 10.5311866,140.546121 9.3984,140.7978 C8.20101011,141.053915 7.07447607,141.569867 6.0984,142.3092 C5.10336116,143.134905 4.35636731,144.219988 3.9402,145.4442 C3.49114916,146.729351 3.26785543,148.082511 3.2802,149.4438 C3.27438627,150.874517 3.37143643,152.303801 3.5706,153.7206 C3.79500726,155.185352 4.1236417,156.632226 4.554,158.0502 L4.554,158.0502 L9.0948,167.9502 C15.2196,181.3218 20.757,193.4328 24.7764,202.2174 L29.4954,212.619 L30.7626,215.457 L31.086,216.1962 C31.1546936,216.284636 31.2143895,216.379707 31.2642,216.48 L31.2642,216.48 Z" id="Path" fill="#815744"></path>
                        <path d="M19.3314,152.526 C19.7668366,152.718132 20.175133,152.96666 20.5458,153.2652 C22.4088029,154.599479 24.0904882,156.170236 25.5486,157.938 C25.8746566,158.284797 26.1501701,158.675848 26.367,159.0996 C26.2878,159.1656 24.9084,157.4958 22.9614,155.6874 C21.0144,153.879 19.272,152.6118 19.3314,152.526 Z" id="Path" fill="#815744"></path>
                        <path d="M26.7102,212.1834 L26.9874,212.9358 C26.9874,212.9358 16.0842,222.882 16.8564,225.3306 L42.24,215.7408 L38.7024,207.4182 C35.5843873,210.669334 31.2092563,212.407829 26.7102,212.1834 Z" id="Path" fill="#D61335"></path>
                        <g id="Group" opacity="0.6" transform="translate(35.640000, 210.540000)" fill="#FFFFFF">
                            <path d="M1.5246,0.5544 C2.08698975,0.518712276 2.58670245,0.910532461 2.6862,1.4652 C2.74933716,2.02884674 2.35595192,2.54170454 1.7952,2.6268 C1.19688856,2.66883244 0.664953774,2.24843237 0.5676,1.6566 C0.5676,1.1088 1.089,0.4752 1.6302,0.5478" id="Path"></path>
                        </g>
                        <g id="Group" opacity="0.6" transform="translate(16.500000, 213.180000)" fill="#FFFFFF">
                            <path d="M25.74,2.5608 L24.8886,0.5808 L0.858,10.4808 C0.858,10.4808 -0.0858,11.4048 0.3432,12.1506 L25.74,2.5608 Z" id="Path"></path>
                        </g>
                        <path d="M26.928,213.0414 C26.9808,213.1668 27.588,212.9886 28.38,213.1536 C29.172,213.3186 29.6604,213.7212 29.7594,213.6288 C29.8584,213.5364 29.3964,212.8896 28.4394,212.7048 C27.4824,212.52 26.8554,212.9358 26.928,213.0414 Z" id="Path" fill="#2E353A"></path>
                        <path d="M24.6642,215.16 C24.6642,215.292 25.3242,215.3052 25.9182,215.6682 C26.5122,216.0312 26.8686,216.5394 26.994,216.4866 C27.1194,216.4338 26.928,215.7078 26.1492,215.2656 C25.3704,214.8234 24.6642,215.028 24.6642,215.16 Z" id="Path" fill="#2E353A"></path>
                        <path d="M24.3738,218.922 C24.4926,218.922 24.4332,218.2224 23.859,217.6614 C23.2848,217.1004 22.5984,217.0542 22.5852,217.173 C22.572,217.2918 23.067,217.5294 23.5356,217.9914 C24.0042,218.4534 24.2418,218.922 24.3738,218.922 Z" id="Path" fill="#2E353A"></path>
                        <path d="M101.5146,128.8386 C101.5146,128.8386 105.3492,79.9986 104.2008,69.1284 C103.4088,61.5912 94.1754,55.7106 94.1754,55.7106 L76.56,59.0964 C76.56,59.0964 64.68,75.7284 62.2512,83.9652 C61.5912,86.1762 61.2216,93.8652 61.0434,96.4128 C60.3834,106.3788 57.9084,116.2128 57.3936,122.4234 C57.1775451,124.765531 55.405293,126.665342 53.0838,127.0434 L38.8872,129.36 C33.8316,125.8224 25.608,129.4788 24.8292,132.495 C24.0504,135.5112 32.4786,138.7848 32.4786,138.7848 C32.4786,138.7848 36.9072,142.7448 40.0092,152.0838 C43.1112,161.4228 54.1926,160.9476 54.1926,160.9476 L80.0184,160.9476 C88.7641533,160.948089 96.7898165,156.101687 100.8612,148.3614 C103.7388,141.0816 101.5146,128.8386 101.5146,128.8386 Z" id="Path" fill="#5A9EFB"></path>
                        <g id="Group" opacity="0.3" transform="translate(74.580000, 112.860000)" fill="#000000">
                            <path d="M25.4298,1.782 C25.0424089,0.922423152 24.1207144,0.435746687 23.1924,0.6006 C22.1496,0.924 21.8724,2.2242 21.6612,3.3 C21.1992,6.0324 20.4204,8.7912 18.7374,10.9956 C17.0544,13.2 14.3352,14.7642 11.583,14.4474 C10.4016,14.3154 9.2664,13.8468 8.0784,13.7874 C6.48546126,13.7622347 4.92953766,14.2684904 3.6564,15.2262 C2.40176414,16.1807988 1.25731402,17.2721217 0.2442,18.48 L0.3498,18.777 C2.0394,18.9288 3.8346,18.1632 5.5242,18.348 C6.55809232,18.5720404 7.56811585,18.8947175 8.5404,19.3116 C10.431796,19.8603123 12.4495097,19.7862677 14.2956,19.1004 C16.129121,18.4061914 17.8086376,17.3590162 19.239,16.0182 C22.2024,13.332 24.1626,11.0022 25.2516,7.1478 C25.6278,5.775 26.0964,3.0426 25.4298,1.782 Z" id="Path"></path>
                        </g>
                        <path d="M53.46,115.4274 C52.8593888,114.574347 52.4496868,113.601868 52.2588,112.5762 C52.14,111.2562 61.1028,95.6868 61.1028,95.6868 C61.1028,95.6868 59.6244,113.1702 60.192,113.5068 C60.7596,113.8434 58.047,115.8894 58.047,115.8894 L53.46,115.4274 Z" id="Path" fill="#5A9EFB"></path>
                        <path d="M61.3272,92.202 C61.3542218,92.3165296 61.3653263,92.4342376 61.3602,92.5518 L61.3602,93.5682 C61.3602,94.4526 61.3206,95.7264 61.2084,97.3038 C60.8385813,101.394203 60.2592203,105.462947 59.4726,109.494 C59.0568,111.8634 58.6542,114.114 58.344,116.1666 C58.0338,118.2192 57.8028,120.087 57.684,121.6512 C57.6048,122.4366 57.5718,123.1428 57.552,123.7698 C57.5322,124.3968 57.4992,124.9314 57.5058,125.367 C57.5124,125.8026 57.5058,126.1128 57.5058,126.3834 C57.5189864,126.501834 57.5189864,126.621366 57.5058,126.7398 C57.4788648,126.622931 57.4655761,126.503331 57.4662,126.3834 C57.4662,126.1128 57.4332,125.7828 57.4134,125.3736 C57.3936,124.9644 57.4134,124.3902 57.4134,123.7632 C57.403411,123.053911 57.4298458,122.344578 57.4926,121.638 C57.5718,120.0606 57.7896,118.1928 58.0668,116.127 C58.344,114.0612 58.7268,111.804 59.1756,109.4346 C60.0402,104.709 60.7266,100.4124 61.0104,97.284 C61.149,95.7132 61.2414,94.446 61.2678,93.5682 L61.3206,92.5518 C61.3096563,92.4353221 61.3118703,92.3179821 61.3272,92.202 L61.3272,92.202 Z" id="Path" fill="#2E353A"></path>
                        <path d="M77.88,115.896 C77.88,115.896 80.0844,126.6474 82.8432,128.1654 C82.8432,128.1654 84.3414,130.8054 88.7502,129.0894 C91.3902622,128.114386 93.7784906,126.560571 95.7396,124.542 C99.957,120.2586 98.571,113.8566 98.571,113.8566 C99.4778932,113.378379 100.092164,112.485343 100.2144,111.4674 C100.399177,110.5971 100.399177,109.6977 100.2144,108.8274 C100.2144,108.8274 102.5574,106.92 102.4188,104.577 C102.2802,102.234 101.8644,101.5476 101.8644,101.5476 L104.2074,82.797 C104.2074,82.797 103.9302,72.5934 101.0394,67.7688 C98.1486,62.9442 94.6968,62.9442 91.938,63.36 C89.1792,63.7758 82.698,68.871 82.1502,92.3076 L81.3252,110.3652 L81.9852,113.0052 C81.9852,113.0052 77.22,113.0052 77.88,115.896 Z" id="Path" fill="#5A9EFB"></path>
                        <path d="M103.4154,82.401 C103.4154,82.401 103.4154,82.566 103.3824,82.8894 L103.2438,84.3282 C103.125,85.602 102.9468,87.4434 102.7158,89.7864 C102.4848,92.1294 102.2538,95.007 102.102,98.307 C102.000754,100.06649 102.025015,101.830959 102.1746,103.587 C102.281534,104.548358 102.245951,105.520236 102.069,106.4712 C101.876328,107.50137 101.29204,108.416833 100.4388,109.0254 L100.485,108.834 C101.402516,110.784345 100.570437,113.109444 98.6238,114.0348 L98.7096,113.85 C99.7392,117.5658 98.4852,121.9812 95.5284,125.07 C94.0161714,126.638623 92.2051779,127.88859 90.2022,128.7462 C89.1806909,129.195203 88.1231458,129.557285 87.0408,129.8286 C86.4814514,130.016166 85.8820474,130.050353 85.305,129.9276 C84.7372476,129.777284 84.2053756,129.514715 83.7408,129.1554 C83.3778,128.898 83.0478,128.6208 82.7244,128.3436 L82.7244,128.3436 L82.7244,128.304 L77.946,116.8662 L77.946,116.82 C77.8323783,116.182439 77.8685298,115.527192 78.0516,114.906 C78.2963753,114.304009 78.726305,113.79549 79.2792,113.454 C80.3205437,112.748426 81.6218564,112.542828 82.83,112.893 L82.698,113.1834 C81.5799805,112.324954 80.9240244,110.995973 80.9226,109.5864 C80.8907536,108.297925 80.93483,107.008692 81.0546,105.7254 C81.2394,103.224 81.477,100.8414 81.7146,98.5974 C82.1898,94.116 82.6716,90.1758 83.1138,86.9154 C83.556,83.655 83.9784,81.0876 84.3018,79.332 C84.4734,78.4542 84.6054,77.781 84.7176,77.352 L84.8364,76.8438 C84.8479029,76.784899 84.8656013,76.7273792 84.8892,76.6722 C84.8957932,76.731417 84.8957932,76.791183 84.8892,76.8504 C84.8697783,77.0238487 84.838911,77.1958237 84.7968,77.3652 C84.6978,77.8206 84.5856,78.4938 84.4338,79.3452 C84.1368,81.1074 83.7738,83.6814 83.3382,86.9418 C82.9026,90.2022 82.4604,94.1424 82.0182,98.6304 C81.8004,100.8678 81.576,103.2504 81.4044,105.7452 C81.2901157,107.015588 81.248248,108.291452 81.279,109.5666 C81.3132318,110.209972 81.4606914,110.84226 81.7146,111.4344 C81.9629848,112.033363 82.3803663,112.547064 82.9158,112.9128 L83.8398,113.5134 L82.7838,113.1966 C81.6597758,112.877081 80.4520167,113.070322 79.4838,113.7246 C78.9901596,114.041648 78.6054998,114.502319 78.3816,115.0446 C78.2208477,115.618074 78.1915199,116.220422 78.2958,116.8068 L78.2958,116.7606 L83.0808,128.1918 L83.0346,128.1258 C83.358,128.403 83.6946,128.6802 84.0246,128.9244 C84.454664,129.255018 84.9458979,129.49727 85.47,129.6372 C85.9923346,129.748844 86.535157,129.716914 87.0408,129.5448 C88.1047503,129.274863 89.1445068,128.91724 90.1494,128.4756 C92.1104463,127.636788 93.8850733,126.416311 95.37,124.8852 C98.2608,121.8954 99.4818,117.6252 98.4984,114.0018 L98.4654,113.8698 L98.5842,113.817 C100.374665,112.965539 101.145916,110.831352 100.3134,109.032 L100.254,108.9198 L100.3662,108.8472 C101.160673,108.284478 101.705066,107.434751 101.8842,106.4778 C102.057848,105.553159 102.093435,104.60788 101.9898,103.6728 C101.857798,101.915696 101.844568,100.151686 101.9502,98.3928 C102.1218,95.0928 102.399,92.2218 102.6102,89.8656 C102.8214,87.5094 103.0656,85.668 103.2174,84.414 C103.2966,83.7936 103.356,83.3184 103.3956,82.9818 C103.4352,82.6452 103.4154,82.401 103.4154,82.401 Z" id="Path" fill="#2E353A"></path>
                        <path d="M103.4154,69.5178 C103.3824,69.5178 103.3824,69.1746 103.2372,68.5806 C103.004224,67.7475563 102.636353,66.958305 102.1482,66.2442 C101.467757,65.1724244 100.568011,64.2569328 99.5082,63.558 C98.1161786,62.8577434 96.5405631,62.6085978 95.0004,62.8452 C94.2026342,62.9821422 93.4216587,63.2033817 92.6706,63.5052 C91.9701886,63.7810753 91.3054318,64.140044 90.6906,64.5744 C89.6898154,65.3711885 88.832661,66.333255 88.1562,67.419 C87.549,68.343 87.12,69.1284 86.8362,69.6564 C86.6928706,69.9459929 86.520378,70.2202119 86.3214,70.4748 C86.4275023,70.1711931 86.5600093,69.8774693 86.7174,69.597 C87.094844,68.8151039 87.5157005,68.0549181 87.978,67.32 C88.6406762,66.1841336 89.5038411,65.1778532 90.5256,64.35 C91.1546884,63.8886805 91.8400105,63.5094246 92.565,63.2214 C93.3386753,62.9124795 94.1444889,62.6911022 94.9674,62.5614 C96.5846336,62.3106588 98.2397022,62.58111 99.693,63.3336 C100.793125,64.0658677 101.717284,65.0328541 102.399,66.165 C102.879874,66.9099278 103.224062,67.734636 103.4154,68.6004 C103.460266,68.8375501 103.482367,69.0784451 103.48143,69.3198 C103.462968,69.3869362 103.440936,69.4530318 103.4154,69.5178 L103.4154,69.5178 Z" id="Path" fill="#2E353A"></path>
                        <g id="Group" opacity="0.3" transform="translate(82.500000, 112.860000)" fill="#000000">
                            <path d="M10.1904,5.5308 C9.438,3.3132 8.0322,2.4156 6.336,1.6764 C4.6398,0.9372 0.231,0.1188 0.231,0.1188 C0.231,0.1188 2.2902,1.7292 4.1514,2.9898 C5.5638,3.9468 6.0588,5.6298 7.0158,7.0554 C7.5636,7.8606 8.4018,8.712 9.339,8.4678 C9.90416932,8.29026274 10.3222177,7.81103656 10.4214,7.227 C10.4949427,6.6511238 10.4152616,6.06603748 10.1904,5.5308 L10.1904,5.5308 Z" id="Path"></path>
                        </g>
                        <path d="M89.2188,119.3214 C87.5803896,116.693433 85.2970263,114.528214 82.5858,113.0316 C83.0370249,113.131494 83.4678375,113.307837 83.8596,113.553 C85.8134799,114.623804 87.4555462,116.183994 88.6248,118.0806 C88.8867898,118.460406 89.0872515,118.879149 89.2188,119.3214 L89.2188,119.3214 Z" id="Path" fill="#2E353A"></path>
                        <path d="M91.938,117.0048 C91.6585588,116.561602 91.3186868,116.159531 90.9282,115.8102 C89.8787533,115.085359 88.7038393,114.561683 87.4632,114.2658 C86.2268,113.8962 84.9772,113.586 83.7144,113.3352 C83.1812116,113.270221 82.6553031,113.155316 82.1436,112.992 C82.6826987,112.96119 83.223541,112.996655 83.754,113.0976 C85.042611,113.281175 86.3155981,113.561365 87.5622,113.9358 C88.8465582,114.234102 90.0497106,114.810894 91.0866,115.6254 C91.5286153,115.966442 91.8312794,116.456805 91.938,117.0048 Z" id="Path" fill="#2E353A"></path>
                        <path d="M100.5642,108.735 C100.308892,108.991006 100.006289,109.194983 99.6732,109.3356 C98.8972584,109.743652 98.054592,110.009639 97.185,110.121 C96.3277031,110.207815 95.4652218,110.232079 94.6044,110.1936 C94.2470233,110.226767 93.8867036,110.206749 93.5352,110.1342 C93.8769437,110.0158 94.2361274,109.955564 94.5978,109.956 C95.2578,109.8966 96.1686,109.8966 97.1454,109.7778 C99.099,109.56 100.5048,108.6162 100.5642,108.735 Z" id="Path" fill="#2E353A"></path>
                        <path d="M75.9858,133.617 C75.8493475,133.64968 75.7101449,133.669566 75.57,133.6764 L74.3622,133.7886 L69.9138,134.1648 C66.1584,134.4618 60.9708,134.937 55.2288,135.2538 C49.4868,135.5706 44.2596,135.5442 40.491,135.4188 C38.61,135.3528 37.0854,135.2868 36.036,135.2208 L34.8216,135.135 C34.6790141,135.137416 34.536804,135.119639 34.3992,135.0822 L36.0426,135.0822 L40.4976,135.1812 C44.2662,135.234 49.467,135.234 55.209,134.9106 C60.951,134.5872 66.132,134.1582 69.894,133.9206 C71.775,133.7952 73.2996,133.7094 74.349,133.6566 L75.5634,133.6104 C75.7040967,133.59939 75.8455159,133.6016 75.9858,133.617 Z" id="Path" fill="#2E353A"></path>
                        <path d="M54.1794,113.652 C53.9946,113.9556 46.728,132.8316 46.728,132.8316 L50.952,134.541 C50.952,134.541 57.3474,130.0266 57.4398,127.2216 C57.5322,124.4166 58.2714,112.3386 58.2714,112.3386 C58.2714,112.3386 56.1,110.5434 54.1794,113.652 Z" id="Path" fill="#A8775F"></path>
                        <path d="M78.0582,116.7342 L51.9222,129.7824 C51.9222,129.7824 51.2622,128.9904 47.6718,128.5152 C43.7118,128.0004 37.554,135.1746 37.554,135.1746 C37.554,135.1746 58.4826,135.7752 66.594,134.0988 C74.7054,132.4224 82.8102,128.1588 82.8102,128.1588 L78.0582,116.7342 Z" id="Path" fill="#A8775F"></path>
                        <path d="M77.9988,117.0048 C77.8799085,117.104232 77.749103,117.18848 77.6094,117.2556 C77.3454,117.414 76.9494,117.6252 76.4412,117.9156 C75.4182,118.4502 73.9332,119.2356 72.0852,120.1134 C68.3892,121.935 63.261,124.4034 57.5652,127.0698 L53.4072,129.0036 L52.3974,129.459 C52.0396721,129.622939 51.636206,129.657922 51.2556,129.558 C50.5625403,129.425982 49.8807126,129.240631 49.2162,129.0036 C48.6067513,128.785409 47.9625962,128.680287 47.3154,128.6934 C46.7035605,128.724745 46.0981491,128.833409 45.5136,129.0168 C44.4666917,129.388815 43.4795347,129.911297 42.5832,130.5678 C41.2801274,131.529175 40.0673184,132.607227 38.9598,133.7886 C38.5638,134.2044 38.2668,134.541 38.0688,134.7654 C37.9735085,134.886874 37.8674811,134.999528 37.752,135.102 C37.825544,134.967053 37.9141062,134.840852 38.016,134.7258 C38.2008,134.4816 38.478,134.1318 38.8608,133.6962 C39.9432912,132.480353 41.1437741,131.374936 42.4446,130.3962 C43.3521721,129.7088 44.3577723,129.161504 45.4278,128.7726 C46.0349622,128.574809 46.6648164,128.455048 47.3022,128.4162 C47.9752627,128.403003 48.6454217,128.507994 49.2822,128.7264 C49.9269699,128.956854 50.5890608,129.135618 51.2622,129.261 C51.5828195,129.347651 51.9236318,129.319639 52.2258,129.1818 L53.2224,128.7264 L57.3804,126.786 L77.9988,117.0048 Z" id="Path" fill="#815744"></path>
                        <path d="M30.6042,216.5262 L30.8682,217.2588 C30.8682,217.2588 20.3082,226.8354 21.0804,229.2312 L45.6192,219.9912 L42.2004,211.9524 C39.1818816,215.087555 34.9501812,216.756632 30.6042,216.5262 L30.6042,216.5262 Z" id="Path" fill="#D61335"></path>
                        <g id="Group" opacity="0.6" transform="translate(39.600000, 215.160000)" fill="#FFFFFF">
                            <path d="M1.0824,0.3168 C1.62768705,0.277849474 2.11452754,0.656503191 2.211,1.1946 C2.2667228,1.73892556 1.88695253,2.2317572 1.3464,2.3166 C0.766642056,2.36163867 0.249556334,1.95371549 0.1584,1.3794 C0.1584,0.8514 0.6666,0.2442 1.188,0.3102" id="Path"></path>
                        </g>
                        <g id="Group" opacity="0.6" transform="translate(20.460000, 217.800000)" fill="#FFFFFF">
                            <path d="M25.1394,2.1648 L24.321,0.231 L1.0956,9.8208 C1.0956,9.8208 0.1848,10.7118 0.6006,11.4312 L25.1394,2.1648 Z" id="Path"></path>
                        </g>
                        <path d="M30.789,217.3578 C30.8418,217.4766 31.449,217.305 32.1948,217.47 C32.9406,217.635 33.4356,218.0178 33.5148,217.9254 C33.594,217.833 33.165,217.2126 32.274,217.0278 C31.383,216.843 30.723,217.2588 30.789,217.3578 Z" id="Path" fill="#2E353A"></path>
                        <path d="M28.6242,219.3972 C28.6242,219.5226 29.238,219.5292 29.8386,219.8856 C30.4392,220.242 30.756,220.7304 30.8748,220.6776 C30.9936,220.6248 30.8088,219.9186 30.0564,219.4962 C29.304,219.0738 28.578,219.2784 28.6242,219.3972 Z" id="Path" fill="#2E353A"></path>
                        <path d="M28.3206,223.0272 C28.4394,223.0272 28.38,222.3672 27.8256,221.8128 C27.2712,221.2584 26.6112,221.2188 26.598,221.3376 C26.5848,221.4564 27.06,221.6808 27.5088,222.1296 C27.9576,222.5784 28.1952,223.08 28.3206,223.0272 Z" id="Path" fill="#2E353A"></path>
                        <path d="M56.4234,146.1042 C56.4234,146.1438 53.6118,146.1702 50.1468,146.1702 C46.6818,146.1702 43.8636,146.1702 43.8636,146.1042 C43.8636,146.0382 46.6752,146.0316 50.1468,146.0316 C53.6184,146.0316 56.4234,146.0646 56.4234,146.1042 Z" id="Path" fill="#2E353A"></path>
                    </g>
                    <g id="freepik--character-1--inject-113" transform="translate(40.920000, 0.000000)" fill-rule="nonzero">
                        <path d="M57.717,234.8808 L56.76,251.1894 L59.7036,264.3102 C59.8964032,265.204028 59.3344483,266.086679 58.443,266.2902 L58.3242,266.2902 L58.3242,266.2902 C57.788895,266.381543 57.2434841,266.198087 56.8722,265.8018 C54.4698,263.3202 45.8304,254.2254 45.8634,253.209 C45.9096,251.889 45.705,235.686 45.705,235.686 L57.717,234.8808 Z" id="Path" fill="#D61335"></path>
                        <path d="M58.3242,266.3298 L45.8634,251.3742 L45.7842,252.582 C45.6921399,253.104214 45.8133931,253.641532 46.1208,254.0736 C49.3937533,258.276677 52.9040683,262.28941 56.6346,266.0922 C57.1158542,266.42268 57.7242883,266.508203 58.278,266.3232 L58.3242,266.3298 Z" id="Path" fill="#2E353A"></path>
                        <path d="M49.3746,246.7542 C49.7718217,247.073956 49.8706257,247.63855 49.6056,248.0742 C49.2980906,248.490692 48.7190398,248.594921 48.2856,248.3118 C47.8555632,247.971209 47.7554758,247.359246 48.0546,246.8994 C48.4200982,246.497001 49.0385595,246.456159 49.4538,246.807" id="Path" fill="#FFFFFF"></path>
                        <path d="M54.8328,259.0566 C54.9252,259.1094 55.3278,258.2646 56.3112,257.8422 C56.9196009,257.630671 57.5615722,257.53225 58.2054,257.5518 C58.2054,257.5122 58.0206,257.3802 57.6378,257.3076 C57.1377221,257.235687 56.6275018,257.306614 56.166,257.5122 C55.7029796,257.717822 55.3089025,258.052329 55.0308,258.4758 C54.8262,258.8058 54.78,259.0434 54.8328,259.0566 Z" id="Path" fill="#2E353A"></path>
                        <path d="M55.9152,261.2874 C56.3933667,261.040662 56.8847044,260.820331 57.387,260.6274 C57.9166461,260.555859 58.4498786,260.513993 58.9842,260.502 C58.4873873,260.16415 57.8576936,260.087898 57.2946,260.2974 C56.3442,260.535 55.8294,261.2412 55.9152,261.2874 Z" id="Path" fill="#2E353A"></path>
                        <path d="M52.8,256.179 C53.5057148,255.74087 54.2424729,255.354844 55.0044,255.024 C55.8056869,254.806108 56.6218765,254.647282 57.4464,254.5488 C56.6037505,254.290991 55.6972757,254.337716 54.8856,254.6808 C54.0344434,254.916475 53.2950602,255.447614 52.8,256.179 Z" id="Path" fill="#2E353A"></path>
                        <path d="M52.6548,251.196 C52.6944,251.295 53.6118,250.9518 54.7866,250.9518 C55.9614,250.9518 56.8854,251.2686 56.9184,251.1696 C56.2976407,250.733022 55.5426565,250.529667 54.7866,250.5954 C54.0280297,250.544043 53.2749944,250.756199 52.6548,251.196 L52.6548,251.196 Z" id="Path" fill="#2E353A"></path>
                        <path d="M52.8,246.3978 C53.5204657,246.199131 54.2636797,246.094859 55.011,246.0876 C55.7508843,246.199454 56.472356,246.410345 57.156,246.7146 C57.0312607,246.510292 56.853312,246.343751 56.6412,246.2328 C55.6402638,245.636232 54.4154872,245.550497 53.3412,246.0018 C52.998,246.18 52.8,246.3648 52.8,246.3978 Z" id="Path" fill="#2E353A"></path>
                        <path d="M55.0242,245.1768 C55.0826464,244.975476 55.0983827,244.76416 55.0704,244.5564 C55.0371357,243.987785 54.8913171,243.431431 54.6414,242.9196 C54.485037,242.53216 54.210123,242.204112 53.856,241.9824 C53.6022749,241.857189 53.2969668,241.907632 53.097,242.1078 C52.9171276,242.307153 52.8162117,242.56531 52.8132,242.8338 C52.8431571,243.966271 53.6748018,244.917118 54.7932,245.0976 C55.8915319,245.255946 56.976549,244.734303 57.5388,243.7776 C57.6764414,243.536816 57.7052357,243.248872 57.618,242.9856 C57.4994573,242.733464 57.2353521,242.582924 56.958,242.6094 C56.5548405,242.688532 56.1780735,242.867837 55.8624,243.1308 C55.4053362,243.467732 55.011985,243.883432 54.7008,244.3584 C54.5704763,244.520766 54.4780296,244.710169 54.4302,244.9128 C54.877372,244.313849 55.4086486,243.782572 56.0076,243.3354 C56.2924577,243.117576 56.6249868,242.97054 56.9778,242.9064 C57.1312776,242.892459 57.2777363,242.973535 57.3474,243.111 C57.392691,243.286201 57.3640583,243.472314 57.2682,243.6258 C56.762981,244.442595 55.8238998,244.884973 54.8724,244.7544 C53.9278693,244.601889 53.2151521,243.815159 53.1564,242.8602 C53.1487601,242.672269 53.2124103,242.48839 53.3346,242.3454 C53.4418737,242.232563 53.6091572,242.200699 53.7504,242.2662 C54.0410997,242.459364 54.2701859,242.731977 54.4104,243.0516 C54.7388101,243.718227 54.9466164,244.437729 55.0242,245.1768 L55.0242,245.1768 Z" id="Path" fill="#2E353A"></path>
                        <path d="M31.1454,235.7718 L31.7064,249.2622 C31.7064,249.2622 18.1764,254.364 18.0378,256.8654 L44.22,256.74 L44.22,235.6596 L31.1454,235.7718 Z" id="Path" fill="#D61335"></path>
                        <path d="M39.798,248.0808 C40.320438,248.239556 40.6410854,248.76451 40.5438,249.3018 C40.4132466,249.832866 39.8836564,250.163494 39.3492,250.0476 C38.7800556,249.883839 38.4361968,249.305925 38.5638,248.7276 C38.7570894,248.190524 39.3381656,247.899986 39.8838,248.0676" id="Path" fill="#FFFFFF"></path>
                        <path d="M44.22,256.74 L44.22,254.826 L18.9618,255.552 C18.9618,255.552 18.0708,256.1592 18.018,256.872 L44.22,256.74 Z" id="Path" fill="#2E353A"></path>
                        <path d="M31.2642,249.1302 C31.2642,249.2622 31.9242,249.315 32.5446,249.7242 C33.165,250.1334 33.5148,250.668 33.627,250.6152 C33.7392,250.5624 33.5544,249.8232 32.7822,249.348 C32.01,248.8728 31.2642,249.018 31.2642,249.1302 Z" id="Path" fill="#2E353A"></path>
                        <path d="M28.5384,250.2852 C28.5384,250.4106 29.0664,250.6218 29.502,251.163 C29.9376,251.7042 30.0696,252.2718 30.162,252.2652 C30.3301488,251.772633 30.1931546,251.227241 29.8122,250.8726 C29.2578,250.2126 28.5384,250.14 28.5384,250.2852 Z" id="Path" fill="#2E353A"></path>
                        <path d="M26.994,253.5786 C27.1128,253.6116 27.2844,252.9714 26.9544,252.2586 C26.6244,251.5458 26.0238,251.2818 25.9644,251.3874 C25.905,251.493 26.2878,251.8692 26.5518,252.4434 C26.8158,253.0176 26.8686,253.572 26.994,253.5786 Z" id="Path" fill="#2E353A"></path>
                        <path d="M31.4952,246.0414 C31.548,246.1602 32.1552,245.982 32.8548,246.0414 C33.5544,246.1008 34.1748,246.312 34.1748,246.2064 C34.1748,246.1008 33.6996,245.6388 32.8548,245.5992 C32.01,245.5596 31.4292,245.9424 31.4952,246.0414 Z" id="Path" fill="#2E353A"></path>
                        <path d="M21.4698,172.7814 C21.4698,172.7814 28.248,234.3594 30.5118,244.1868 L57.4728,244.1868 C57.4728,244.1868 65.2542,190.2252 66.5148,175.362 L21.4698,172.7814 Z" id="Path" fill="#2E353A"></path>
                        <path d="M45.1242,180.4902 C45.2166,180.4902 45.2958,194.7528 45.2958,212.3352 C45.2958,229.9176 45.2166,244.1868 45.1242,244.1868 C45.0318,244.1868 44.9526,229.9308 44.9526,212.3352 C44.9526,194.7396 45.0054,180.4902 45.1242,180.4902 Z" id="Path" fill="#4D5A64"></path>
                        <path d="M31.977,13.0482 C30.0322,18.8958 28.0896,24.7478 26.1492,30.6042 C24.8952,34.3662 23.628,38.1678 21.582,41.58 C20.658,43.1112 19.602,44.5962 19.206,46.3386 C18.81,48.081 19.206,49.896 18.711,51.5724 C18.216,53.2488 16.7772,54.5556 15.84,56.1 C14.9028,57.6444 14.3946,59.7894 15.6552,61.0698 C15.6552,61.0698 28.545,63.3468 28.8552,63.5712 C29.1654,63.7956 31.977,13.0482 31.977,13.0482 Z" id="Path" fill="#2E353A"></path>
                        <path d="M38.577,41.1774 L32.8746,47.7774 L19.6284,52.503 C19.6284,52.503 14.2428,106.4448 13.0284,113.3088 C11.814,120.1728 7.392,174.6888 7.392,174.6888 C7.392,174.6888 46.1406,182.5626 62.469,179.9688 C78.7974,177.375 79.1076,171.1908 79.1076,171.1908 L77.88,104.6496 L77.0286,87.12 C77.0286,87.12 77.6886,84.8166 78.0252,76.6524 C78.3618,68.4882 78.6852,56.331 76.0452,54.483 C73.4052,52.635 60.4494,48.9258 60.4494,48.9258 L55.0572,43.5336 L38.577,41.1774 Z" id="Path" fill="#FFFFFF"></path>
                        <path d="M38.577,41.1774 L39.6396,41.3094 L42.801,41.7384 L55.0638,43.4214 L55.0638,43.4214 L60.4692,48.8004 L60.4296,48.8004 C63.393,49.6584 66.6204,50.6352 70.0788,51.8166 C71.8807093,52.4135036 73.6440613,53.1210486 75.3588,53.9352 C75.5832,54.0474 75.7878,54.186 76.0188,54.3114 C76.1241358,54.38752 76.2254707,54.4690286 76.3224,54.5556 L76.5732,54.8526 C76.857377,55.2788453 77.0795946,55.7432802 77.2332,56.232 C77.5412843,57.2205781 77.7621294,58.2342568 77.8932,59.2614 C78.330697,63.6646524 78.4520078,68.0936011 78.2562,72.5142 C78.1902,74.8374 78.1176,77.22 77.979,79.662 C77.9064,80.8764 77.814,82.1106 77.6886,83.3514 C77.5811956,84.6159845 77.3938207,85.8724987 77.1276,87.1134 L77.1276,87.0672 C77.3256,91.0272 77.5258,95.0994 77.7282,99.2838 C77.814,101.3826 77.9592,103.5144 78.0054,105.6792 C78.0516,107.844 78.0912,110.0352 78.1308,112.2792 C78.3024,121.1694 78.474,130.5216 78.6588,140.2566 C78.8436,149.9916 79.035,160.1028 79.2264,170.511 C79.2529071,170.847987 79.239651,171.186924 79.1868,171.5208 C79.1040551,171.849779 78.9798613,172.166917 78.8172,172.4646 C78.5080761,173.041961 78.1192662,173.572965 77.6622,174.042 C76.7282044,174.997969 75.6503662,175.801894 74.4678,176.4246 C72.103331,177.670398 69.584496,178.598039 66.9768,179.1834 C66.3168,179.3286 65.6568,179.5134 64.9968,179.6322 L63.0168,179.9952 C62.3568,180.1404 61.6968,180.1734 61.0368,180.2658 C60.3768,180.3582 59.7168,180.4242 59.0172,180.477 C57.6972,180.5232 56.3046,180.6156 54.945,180.6222 C53.5854,180.6288 52.2192,180.6222 50.853,180.5694 C43.2696,180.2724 35.8248,179.4276 28.5648,178.4244 C21.3048,177.4212 14.223,176.22 7.359,174.8406 L7.2138,174.8406 L7.2138,174.6888 C8.3028,161.3106 9.3918,148.4934 10.4742,136.4088 C11.022,130.3764 11.5632,124.5288 12.1704,118.8924 C12.3156,117.48 12.4872,116.0874 12.6654,114.7014 C12.8436,113.3154 13.101,111.969 13.266,110.616 C13.629,107.9166 13.926,105.2568 14.2362,102.696 C16.5792,81.8994 18.3018,64.713 19.5558,52.536 L19.5558,52.4832 L19.602,52.4832 L32.8614,47.7906 L32.8614,47.7906 C34.8414,45.5334 36.2538,43.8834 37.1976,42.7878 L38.28,41.58 C38.511,41.316 38.6298,41.1906 38.6298,41.1906 L38.28,41.58 L37.224,42.8208 L32.9406,47.8434 L32.9406,47.8434 L19.7406,52.5954 L19.7934,52.5294 C18.5724,64.7064 16.8894,81.8994 14.5728,102.6894 C14.2758,105.2898 13.9788,107.9694 13.6158,110.6556 C13.4508,111.9756 13.2132,113.3748 13.0218,114.741 C12.8304,116.1072 12.6786,117.513 12.5334,118.9188 C11.9328,124.5552 11.3982,130.4028 10.857,136.4418 C9.7812,148.5066 8.7054,161.3238 7.6164,174.7218 L7.4844,174.5436 C14.3352,175.8636 21.417,177.078 28.6704,178.1142 C36.0472603,179.207851 43.4754607,179.921593 50.9256,180.2526 C52.2852,180.2988 53.6448,180.2526 55.0044,180.3054 C56.364,180.3582 57.7104,180.2064 59.0568,180.1602 C59.7168,180.1074 60.3768,180.0216 61.0368,179.949 C61.7010768,179.89676 62.3620421,179.808632 63.0168,179.685 L64.9968,179.322 C65.6568,179.2032 66.3168,179.025 66.9768,178.8798 C69.5557309,178.298421 72.0474882,177.38204 74.3886,176.154 C75.5398392,175.549542 76.5888545,174.767792 77.4972,173.8374 C77.9145194,173.361166 78.2653169,172.830529 78.54,172.26 C78.6861724,171.983894 78.799158,171.691461 78.8766,171.3888 C78.9129653,171.077458 78.9129653,170.762942 78.8766,170.4516 C78.6852,160.0434 78.5004,149.9322 78.3222,140.2038 C78.144,130.4754 77.979,121.1232 77.814,112.233 C77.7744,110.0066 77.7348,107.8066 77.6952,105.633 C77.6556,103.4682 77.5104,101.343 77.4246,99.2376 C77.2266,95.04 77.033,90.97 76.8438,87.0276 L76.8438,86.9814 C77.1099893,85.7582803 77.2973747,84.519332 77.4048,83.2722 C77.5302,82.038 77.6226,80.8104 77.6952,79.5894 C77.8404,77.1606 77.913,74.778 77.9856,72.4548 C78.1903091,68.0524236 78.0778183,63.6410214 77.649,59.2548 C77.5242174,58.239541 77.3032237,57.2384397 76.989,56.265 C76.8348398,55.7950488 76.6124648,55.3502989 76.329,54.945 C76.0340436,54.5901543 75.6614441,54.307882 75.24,54.12 C73.5386383,53.3081211 71.7884649,52.6027616 69.9996,52.008 C66.5742,50.82 63.36,49.8168 60.39,48.9522 L60.39,48.9522 L55.0242,43.56 L55.0638,43.56 L42.8406,41.811 L39.6726,41.349 C38.94,41.2434 38.577,41.1774 38.577,41.1774 Z" id="Path" fill="#2E353A"></path>
                        <path d="M21.9384,62.7462 L22.0968,78.144 L20.361,94.182 L34.1088,95.733 L33.1518,113.9688 C33.1518,113.9688 15.4638,113.7708 6.9894,110.385 C-1.485,106.9992 0.5346,100.9668 1.1484,94.809 C1.7622,88.6512 11.0088,58.146 13.7808,55.9944 C16.5528,53.8428 20.8692,52.5558 20.8692,52.5558 L21.9384,62.7462 Z" id="Path" fill="#FFFFFF"></path>
                        <path d="M79.7016,62.1258 C77.8536,53.0376 74.3094,53.9616 74.3094,53.9616 L76.692,92.6178 L68.5872,94.3206 L67.6896,101.64 C67.5312,109.56 75.471,112.2 75.471,112.2 C75.471,112.2 87.0936,104.4714 87.8658,99.5412 C88.638,94.611 81.5496,71.214 79.7016,62.1258 Z" id="Path" fill="#FFFFFF"></path>
                        <path d="M39.8442,41.1774 C38.6403965,42.5803544 38.0801603,44.4238667 38.2998,46.2594 C38.61,49.5 41.2302,54.8856 42.6162,56.7336 C44.0022,58.5816 52.14,75.042 52.14,75.042 L56.4498,52.5096 L56.7204,45.1308 L55.0638,43.4676 L39.8442,41.1774 Z" id="Path" fill="#5A9EFB"></path>
                        <path d="M50.094,74.6394 C49.9651553,74.5716215 49.8472366,74.4848511 49.7442,74.382 L48.708,73.6362 L44.9394,70.8246 L39.3822,66.6204 L36.0822,64.1256 C35.4271917,63.7038007 34.9666068,63.039039 34.8018,62.2776 C34.7693762,61.4987444 34.9208668,60.7232027 35.244,60.0138 C35.8775226,58.537867 36.6348253,57.1182004 37.5078,55.77 L37.7124,56.0142 L31.8384,58.6212 L31.6008,58.7268 L31.6008,58.476 C31.9638,55.308 32.2608,52.6548 32.4918,50.754 C32.604,49.8564 32.6964,49.137 32.7624,48.5958 C32.7838972,48.339398 32.8280699,48.085405 32.8944,47.8368 C32.901141,48.0948362 32.8879014,48.353007 32.8548,48.609 C32.8086,49.1436 32.7426,49.8696 32.6634,50.7738 C32.472,52.6812 32.208,55.3344 31.8912,58.5024 L31.6866,58.3572 L37.5606,55.7172 L38.049,55.4928 L37.7652,55.9614 C36.914188,57.2974134 36.1704571,58.6988055 35.541,60.1524 C35.2388613,60.8074809 35.0920486,61.5234754 35.112,62.2446 C35.2766069,62.9238286 35.7038287,63.5100718 36.3,63.8748 L39.5604,66.3828 L45.078,70.6398 L48.7806,73.5372 L49.7772,74.3424 C49.8896803,74.4337955 49.9955453,74.5330439 50.094,74.6394 L50.094,74.6394 Z" id="Path" fill="#2E353A"></path>
                        <path d="M52.14,75.042 C52.1935596,74.9160276 52.2646635,74.7982618 52.3512,74.6922 L53.0112,73.7286 L55.4664,70.2042 C56.5026,68.7192 57.7368,66.9438 59.0766,64.9242 C59.7366,63.9276 60.4494,62.8848 61.1424,61.7826 C61.4922,61.2348 61.8354,60.6672 62.1654,60.0864 C62.537709,59.5506233 62.7650753,58.9276396 62.8254,58.278 C62.7191899,57.4124791 62.2637629,56.628 61.5648,56.1066 C60.9040306,55.5720414 60.1762762,55.1260699 59.4,54.78 L58.5816,54.3774 L59.4792,54.4632 L65.8548,55.0572 L65.736,55.2882 L61.8354,50.6682 L60.7728,49.3482 C60.639547,49.2027608 60.5222764,49.0434498 60.423,48.873 C60.5682,49.005 60.7068,49.1502 60.8388,49.2954 L61.9542,50.5362 L65.9142,55.0902 L66.1386,55.3476 L65.7954,55.3476 L59.4726,54.78 L59.5518,54.4632 C60.3578495,54.8382535 61.1084834,55.3223901 61.7826,55.902 C62.1350393,56.2075332 62.4457099,56.5581472 62.7066,56.9448 C62.989049,57.3506617 63.1472825,57.8299485 63.162,58.3242 C63.1757068,58.5110685 63.1555844,58.698877 63.1026,58.8786 L63.0366,59.1426 L62.9244,59.3868 C62.7872179,59.705258 62.6284486,60.0139762 62.4492,60.3108 C62.1126,60.8982 61.7892,61.4658 61.413,62.0136 C60.7134,63.1224 60.0006,64.1652 59.3274,65.1552 C57.9678,67.1352 56.6874,68.8974 55.6512,70.3692 C54.615,71.841 53.7174,73.0092 53.1036,73.8276 L52.3842,74.7648 C52.3130121,74.8657183 52.2311378,74.9586567 52.14,75.042 L52.14,75.042 Z" id="Path" fill="#2E353A"></path>
                        <path d="M52.8594,180.5232 C52.767,180.5232 52.4106,156.8292 52.074,127.6044 C51.7374,98.3796 51.5394,74.6856 51.6318,74.6789986 C51.7242,74.6724 52.0806,98.3664 52.4172,127.6044 C52.7538,156.8424 52.9518,180.5232 52.8594,180.5232 Z" id="Path" fill="#2E353A"></path>
                        <path d="M76.5006,92.6706 C76.7987629,92.2678805 77.1847209,91.9383491 77.6292,91.707 C79.7350334,90.3987084 82.3964125,90.3808639 84.5196,91.6608 C84.9657434,91.8893502 85.3556923,92.213932 85.6614,92.6112 C85.6218,92.6574 85.1994,92.2812 84.4008,91.872 C82.3149673,90.7740689 79.8183832,90.7914063 77.748,91.9182 C76.9626,92.334 76.56,92.7168 76.5006,92.6706 Z" id="Path" fill="#2E353A"></path>
                        <path d="M85.9914,96.7692 C85.9386,96.7692 85.6416,96.2478 84.9882,95.4954 C84.1318083,94.5263162 83.0758407,93.7540413 81.8928,93.2316 C80.6981895,92.7368535 79.4092103,92.5115075 78.1176,92.5716 C77.121,92.6112 76.5204,92.7762 76.5006,92.7168 C77.0053408,92.4855221 77.5498006,92.3533281 78.1044,92.3274 C80.8245028,92.0655849 83.4900507,93.2104514 85.173,95.3634 C85.5351336,95.7739528 85.8131867,96.2515762 85.9914,96.7692 L85.9914,96.7692 Z" id="Path" fill="#2E353A"></path>
                        <path d="M5.28,95.8716 C5.42775314,95.7212841 5.58660103,95.5822921 5.7552,95.4558 C6.20732,95.1063757 6.68619332,94.7930116 7.1874,94.5186 C7.93215649,94.1092458 8.71182424,93.7668987 9.5172,93.4956 C10.5082595,93.1799262 11.5270189,92.9589372 12.5598,92.8356 C13.5956776,92.7332426 14.6391224,92.7332426 15.675,92.8356 C16.5208081,92.9189888 17.3577614,93.0757795 18.1764,93.3042 C18.7279211,93.4542551 19.2664619,93.648483 19.7868,93.885 C19.9846262,93.9574831 20.1712589,94.0574649 20.3412,94.182 C20.3412,94.2414 19.503,93.8718 18.117,93.522 C17.3051224,93.3318625 16.4799317,93.2038918 15.6486,93.1392 C14.6326103,93.0676469 13.6123033,93.0853145 12.5994,93.192 C11.588524,93.3294868 10.5907317,93.5502373 9.6162,93.852 C8.82213186,94.1099988 8.04788787,94.4254315 7.2996,94.7958 C6.0456,95.3766 5.3394,95.9244 5.28,95.8716 Z" id="Path" fill="#2E353A"></path>
                        <path d="M10.2036,88.737 C10.3568869,88.6850634 10.5170292,88.6561489 10.6788,88.6512 C11.1179068,88.6115513 11.5596932,88.6115513 11.9988,88.6512 C14.9142406,88.8479929 17.616272,90.2492233 19.4568,92.5188 C19.7308726,92.8584536 19.9759339,93.2205262 20.1894,93.6012 C20.3346,93.8718 20.4006,94.0236 20.3808,94.0368 C20.361,94.05 19.9848,93.4824 19.272,92.6772 C17.401417,90.5641258 14.8156786,89.2171912 12.012,88.8954 C10.89,88.7436 10.2102,88.803 10.2036,88.737 Z" id="Path" fill="#2E353A"></path>
                        <path d="M32.2278,95.5614 C31.9256286,95.5725166 31.6230647,95.5570572 31.3236,95.5152 L28.842,95.271 L20.3412,94.3206 L20.1828,94.3206 L20.1828,94.1556 C20.295,92.9346 20.4138,91.6344 20.5722,90.3012 C21.0672,85.9584 21.6414,82.0446 22.0836,79.2198 C22.3014,77.8008 22.4928,76.659 22.638,75.8736 C22.704,75.5106 22.7634,75.2136 22.8096,74.9628 C22.8233165,74.8565696 22.8499121,74.7524037 22.8888,74.6526 C22.9020554,74.7599925 22.9020554,74.8686075 22.8888,74.976 C22.8888,75.2268 22.8228,75.5304 22.7832,75.8934 L22.3344,79.2528 C21.9582,82.0908 21.4236,86.0046 20.9286,90.3408 C20.7702,91.6608 20.6448,92.9808 20.5326,94.182 L20.3808,94.0038 L28.8684,95.073 L31.3434,95.4162 C31.6411184,95.4447444 31.9365834,95.4932536 32.2278,95.5614 L32.2278,95.5614 Z" id="Path" fill="#2E353A"></path>
                        <path d="M18.8562,53.3016 L18.5856,53.394 L17.82,53.6316 C16.7969892,53.9189193 15.8305153,54.3787198 14.9622,54.9912 C13.8402,55.8162 12.9228,57.2946 12.1374,59.0964 C11.352,60.8982 10.6986,63.0564 9.933,65.4258 C8.415,70.1646 6.6858,75.834 4.8312,82.1502 C3.1548,88.4796 0.3168,95.3502 0.8712,103.0062 L0.8712,103.6662 C1.21832314,105.344 2.01967982,106.894203 3.1878,108.1476 C4.43356594,109.255296 5.89060725,110.099437 7.4712,110.6292 C9.00308075,111.162309 10.574258,111.574964 12.1704,111.8634 C13.7346,112.1802 15.279,112.4508 16.7904,112.6554 C18.3018,112.86 19.7934,112.9986 21.252,113.0778 L25.4958,113.355 L33.1914,113.8566 L33.0594,113.9688 C33.4752,108.4314 33.8184,103.9368 34.056,100.8084 C34.1814,99.2706 34.2738,98.0694 34.3398,97.2312 C34.3794,96.8352 34.4058,96.525 34.4256,96.3006 C34.4331483,96.1943701 34.4463672,96.0886193 34.4652,95.9838 L34.4652,96.3006 C34.468603,96.6136437 34.4531751,96.9266087 34.419,97.2378 C34.3662,98.0694 34.287,99.2772 34.1946,100.8216 C33.9834,103.95 33.6864,108.4446 33.3102,113.9886 L33.3102,114.114 L33.1848,114.114 L25.4892,113.652 L21.2388,113.388 C19.7802,113.3154 18.2754,113.19 16.7574,112.9788 C15.2394,112.7676 13.6818,112.5102 12.1374,112.1934 C10.5239891,111.90198 8.93532387,111.487162 7.3854,110.9526 C5.75540027,110.411124 4.25455397,109.539375 2.9766,108.3918 C1.76458437,107.102236 0.931113108,105.503798 0.5676,103.7718 L0.5676,103.7718 L0.5676,103.1118 C0.5082,99.3234 0.6666,95.535 1.749,92.0898 C2.6862,88.6314 3.6564,85.3116 4.587,82.1898 C6.4614,75.8802 8.217,70.2174 9.7614,65.4852 C10.5468,63.1224 11.2398,60.9774 12.0252,59.1492 C12.6153229,57.5400775 13.619263,56.1149835 14.9358,55.0176 C15.8243508,54.4075897 16.8143935,53.9606178 17.8596,53.6976 C18.2094,53.592 18.5196,53.5326 18.6714,53.4864 L18.8562,53.3016 Z" id="Path" fill="#2E353A"></path>
                        <path d="M47.4804,99.0726 C48.0018,103.6002 45.6192,106.9134 41.5404,104.7024 C38.643,103.1448 35.6004,102.1812 35.6004,99.0726 C35.6939056,95.8801796 38.3474668,93.3622448 41.5404,93.4362 C44.814,93.4362 47.1306,95.9772 47.4804,99.0726 Z" id="Path" fill="#2E353A"></path>
                        <path d="M29.9904,97.02 C30.195,96.822 34.1088,94.1028 34.1088,94.1028 C34.1088,94.1028 34.3332,92.2284 35.343,91.8918 C35.343,91.8918 36.0756,90.2154 38.4912,90.2154 L44.3256,90.2154 L49.3548,95.8452 C49.268196,96.6170509 48.5846279,97.1808485 47.8104,97.119 L49.1898,99.7128 C49.1898,99.7128 47.6124,100.8744 46.266,99.9372 C44.9196,99 43.0518,97.3896 43.0518,97.3896 L45.7314,101.6136 C45.7314,101.6136 45.507,102.5508 44.0088,101.8842 C42.8621642,101.236768 41.8532255,100.371323 41.0388,99.3366 L36.5508,98.8614 L40.3722,100.1352 L43.3158,102.8214 C43.3158,102.8214 43.0518,103.7586 41.712,103.422 C40.6855476,103.100674 39.7132698,102.626772 38.8278,102.0162 L36.8478,102.1482 C36.6781633,103.11238 36.0539959,103.935592 35.1714,104.3592 C34.1001451,104.846831 32.9283858,105.073039 31.7526,105.0192 L27.3372,106.5702 C27.2448,104.016 28.6242,100.0824 29.9904,97.02 Z" id="Path" fill="#EDBC9C"></path>
                        <path d="M47.8104,97.1454 C47.4319097,96.7724129 47.0853,96.3684028 46.7742,95.9376 C46.4050052,95.5012544 46.0128506,95.0848656 45.5994,94.6902 C45.116684,94.2005092 44.5203953,93.837748 43.8636,93.6342 C42.6525209,93.2452264 41.4017538,92.9928593 40.1346,92.8818 C39.602966,92.8568525 39.073699,92.7951047 38.5506,92.697 C39.0800512,92.6047381 39.6195745,92.5847558 40.1544,92.6376 C41.4527826,92.6779516 42.7390988,92.9001133 43.9758,93.2976 C44.3398074,93.4147001 44.6878693,93.5765377 45.012,93.7794 C45.2963611,93.9791733 45.5655006,94.1997794 45.8172,94.4394 C46.2326483,94.8480068 46.6144847,95.2894362 46.959,95.7594 C47.3055649,96.179779 47.5920992,96.6462302 47.8104,97.1454 Z" id="Path" fill="#D69770"></path>
                        <path d="M43.0518,97.416 C42.8210555,97.2586385 42.600606,97.0866879 42.3918,96.9012 C41.8633938,96.5106204 41.2583541,96.2362158 40.6164,96.096 C39.9635852,95.9695665 39.3011958,95.8989116 38.6364,95.8848 C38.3509718,95.9115435 38.0631118,95.87781 37.7916,95.7858 C38.0593141,95.6848672 38.3437349,95.6355975 38.6298,95.6406 C39.3205402,95.5813627 40.0162043,95.6213689 40.6956,95.7594 C41.3890232,95.9046607 42.0300126,96.2354203 42.5502,96.7164 C42.933,97.0926 43.0782,97.3962 43.0518,97.416 Z" id="Path" fill="#D69770"></path>
                        <path d="M33.1452,98.5314 C32.9826787,98.4364655 32.8535599,98.2935125 32.7756,98.1222 C32.3608365,97.2693084 32.6433154,96.241085 33.4356,95.7198 C33.7326,95.5416 33.9504,95.5218 33.9636,95.5614 C33.5035008,95.8853521 33.158947,96.3478405 32.9802,96.8814 C32.8889984,97.4363354 32.9459162,98.0055131 33.1452,98.5314 L33.1452,98.5314 Z" id="Path" fill="#D69770"></path>
                        <path d="M29.5878,104.082 C29.6472,104.0094 30.1092,104.2866 30.7164,104.5176 C31.3236,104.7486 31.8582,104.841 31.8516,104.9334 C31.845,105.0258 31.2642,105.0918 30.5976,104.8344 C29.931,104.577 29.5218,104.1546 29.5878,104.082 Z" id="Path" fill="#D69770"></path>
                        <path d="M32.1552,95.5944 C31.8851549,95.7168319 31.6228636,95.8556919 31.3698,96.0102 C30.7104201,96.4681304 30.1751796,97.0827498 29.8122,97.7988 C29.2912362,98.8828063 28.8500649,100.003382 28.4922,101.1516 C27.992699,102.533723 27.6668043,103.972537 27.522,105.435 C27.413938,106.650526 27.5371093,107.87552 27.885,109.0452 C28.18033,110.051018 28.7147482,110.970399 29.4426,111.7248 C29.9996254,112.31059 30.6744426,112.771715 31.4226,113.0778 C31.8907403,113.268241 32.3844906,113.388343 32.8878,113.4342 L33.0924,113.4342 L32.901,113.5002 C32.748423,113.573422 32.5861935,113.624535 32.4192,113.652 C32.5622437,113.560991 32.7123197,113.481539 32.868,113.4144 L32.868,113.52 C32.3457313,113.519713 31.8275326,113.428135 31.3368,113.2494 C30.5434694,112.971785 29.8219808,112.520855 29.2248,111.9294 C28.4463508,111.157473 27.8705139,110.205301 27.5484,109.1574 C27.1731184,107.950132 27.0385726,106.680917 27.1524,105.4218 C27.299666,103.930172 27.6390768,102.463829 28.1622,101.0592 C28.548075,99.9014304 29.0247561,98.7759334 29.5878,97.6932 C29.9807797,96.9543851 30.5670485,96.3361796 31.284,95.9046 C31.4814773,95.7930487 31.6921052,95.7065804 31.911,95.6472 C31.9889245,95.6162315 32.0714422,95.5983898 32.1552,95.5944 L32.1552,95.5944 Z" id="Path" fill="#2E353A"></path>
                        <path d="M21.2322,66.0726 C22.0574502,67.6823451 22.6761432,69.3898492 23.0736,71.1546 C22.6113451,70.3754567 22.2477563,69.5418629 21.9912,68.673 C21.6329942,67.8404343 21.378097,66.967134 21.2322,66.0726 L21.2322,66.0726 Z" id="Path" fill="#2E353A"></path>
                        <path d="M71.1348,93.6408 C71.2603126,93.5883109 71.3907624,93.5485127 71.5242,93.522 L72.6066,93.291 L76.6194,92.499 L76.5204,92.631 C76.296,89.1396 75.9792,84.4008 75.636,79.167 C75.2928,73.9332 75.0552,69.1878 74.8506,65.6964 C74.7648,64.0068 74.6988,62.6208 74.6526,61.611 C74.6526,61.171 74.6394,60.8014 74.613,60.5022 C74.5998076,60.3727352 74.5998076,60.2422648 74.613,60.1128 C74.6456506,60.238072 74.6655518,60.3663242 74.6724,60.4956 L74.7714,61.6044 C74.8506,62.6142 74.9496,63.9936 75.0816,65.6832 C75.306,69.168 75.6228,73.9068 75.966,79.1472 C76.3092,84.3876 76.5468,89.1264 76.7514,92.6112 L76.7514,92.7234 L76.6458,92.7234 L72.6132,93.3834 L71.511,93.555 C71.3898868,93.5999121 71.2634098,93.6287577 71.1348,93.6408 Z" id="Path" fill="#2E353A"></path>
                        <path d="M76.5006,54.78 C76.5513955,54.8285953 76.5977775,54.8816033 76.6392,54.9384 L77.022,55.44 C77.4335494,56.1301947 77.8080789,56.8418009 78.144,57.5718 C79.035,59.466 80.124,62.2776 81.444,65.7888 C82.764,69.3 84.1368,73.5174 85.635,78.2166 C86.0046,79.4046 86.383,80.6124 86.7702,81.84 C87.1708496,83.1045197 87.4644836,84.4004832 87.648,85.7142 C88.0194305,88.4692429 88.2265966,91.2439464 88.2684,94.0236 C88.2684,95.4492 88.2684,96.8616 88.209,98.2542 C88.1940851,98.6057451 88.1588261,98.9561315 88.1034,99.3036 C88.0439128,99.6519668 87.9465348,99.9927897 87.813,100.32 C87.571026,100.964503 87.265943,101.583512 86.9022,102.168 C86.1833634,103.290811 85.3324904,104.323381 84.3678,105.2436 C83.4504,106.161 82.5132,107.0124 81.5826,107.8308 C80.652,108.6492 79.7214,109.4148 78.7974,110.1342 C78.3354,110.4972 77.8668,110.8404 77.3982,111.1638 C77.1597464,111.329648 76.9106047,111.479574 76.6524,111.6126 C76.4082,111.7116 76.1904,111.87 75.9264,112.002 C75.656218,112.141525 75.3461494,112.183489 75.0486,112.1208 C74.7764637,112.06861 74.5108748,111.98672 74.2566,111.8766 C73.7653346,111.693109 73.2887565,111.472471 72.831,111.2166 C71.175348,110.297065 69.7668509,108.990469 68.7258,107.4084 C68.4944688,107.065726 68.2892879,106.706108 68.112,106.3326 C67.9596887,105.974622 67.8403931,105.60348 67.7556,105.2238 C67.4973366,103.968983 67.4460596,102.680371 67.6038,101.409 C67.7028,100.3662 67.848,99.5676 67.947,99.0264 C67.9998,98.7756 68.0394,98.571 68.0724,98.4126 C68.0837832,98.342945 68.1014555,98.274465 68.1252,98.208 C68.1318016,98.2782452 68.1318016,98.3489548 68.1252,98.4192 C68.1252,98.5776 68.0724,98.7822 68.0394,99.0396 C67.9602,99.5808 67.8348,100.3596 67.7556,101.4222 C67.6285855,102.677034 67.6976113,103.943992 67.9602,105.1776 C68.1437999,105.937779 68.4733011,106.65506 68.9304,107.2896 C69.9724886,108.814936 71.3583093,110.074156 72.9762,110.9658 C73.4248919,111.221534 73.8926861,111.442192 74.3754,111.6258 C74.8138197,111.882857 75.3446607,111.928912 75.8208,111.7512 C76.0452,111.6456 76.2828,111.4674 76.5534,111.3486 C76.7976166,111.22691 77.0315808,111.085648 77.253,110.9262 C77.715,110.6094 78.177,110.2662 78.6324,109.9032 C79.5498,109.1838 80.4672,108.4116 81.3912,107.5998 C82.3152,106.788 83.2458,105.93 84.15,105.0192 C85.0952307,104.117018 85.9284241,103.104334 86.6316,102.003 C88.2486,99.7656 87.9516,96.855 87.9516,94.0368 C87.9054361,91.2707248 87.7004989,88.5095814 87.3378,85.767 C87.1602375,84.4690918 86.8732144,83.1885276 86.4798,81.939 C86.097,80.7048 85.7274,79.497 85.3578,78.3222 C83.8794,73.6164 82.4736,69.399 81.2394,65.8746 C80.0052,62.3502 78.9162,59.5386 78.0648,57.6312 C77.649,56.6742 77.2596,55.968 77.0022,55.4862 L76.6524,54.9714 C76.5966519,54.9118578 76.5458816,54.8478432 76.5006,54.78 Z" id="Path" fill="#2E353A"></path>
                        <path d="M64.8318,95.9442 L67.914,91.9182 C67.914,91.9182 70.8774,90.7698 72.0126,92.6706 C72.0126,92.6706 74.9298,92.8422 74.5338,95.7594 C75.408979,96.5923689 75.799536,97.8137922 75.57,99 L75.6558,106.92 L72.6,105.402 C71.6560697,105.652665 70.6492011,105.428643 69.9006,104.8014 C69.003,104.0424 68.8116,102.2868 68.8116,102.2868 C68.8116,102.2868 67.2738,103.4352 66.594,102.5574 C65.6964,101.4024 67.5906,99.9636 67.5906,99.9636 C67.5906,99.9636 65.7624,100.7688 65.1684,99.924 C64.8102599,99.4703845 64.7888641,98.8365336 65.1156,98.3598 L65.8548,97.3236 C65.8548,97.3236 64.1982,97.5282 64.8318,95.9442 Z" id="Path" fill="#EDBC9C"></path>
                        <path d="M69.6168,94.0038 C69.0952078,94.6948241 68.4824401,95.3120322 67.7952,95.8386 C67.184429,96.4536094 66.4941022,96.9841178 65.7426,97.416 C66.2659951,96.7265409 66.8785379,96.1095594 67.5642,95.5812 C68.1784185,94.9701171 68.8682045,94.4400243 69.6168,94.0038 Z" id="Path" fill="#D69770"></path>
                        <path d="M71.9004,95.9376 C71.2204149,96.8001448 70.4504698,97.5877898 69.6036,98.2872 C68.8351892,99.0696711 67.9881053,99.7707824 67.0758,100.3794 C67.7592555,99.5199105 68.5288635,98.7326104 69.3726,98.0298 C70.1444673,97.251101 70.9911543,96.5503182 71.9004,95.9376 L71.9004,95.9376 Z" id="Path" fill="#D69770"></path>
                        <path d="M74.0256,98.7294 C74.0652,98.835 72.7056,99.3102 71.2602,100.3134 C69.8148,101.3166 68.8908,102.4188 68.805,102.3462 C69.366506,101.408586 70.1394846,100.615266 71.0622,100.0296 C71.9334199,99.3681886 72.948959,98.922618 74.0256,98.7294 Z" id="Path" fill="#D69770"></path>
                        <path d="M75.2796,103.884 C75.3126,103.884 75.1344,104.2074 74.7054,104.544 C74.1385318,105.014057 73.4537712,105.319917 72.7254,105.4284 C72.0073999,105.587632 71.2589342,105.539565 70.5672,105.2898 C70.0524,105.039 69.8346,104.7684 69.861,104.742 C69.8874,104.7156 70.1712,104.8938 70.6596,105.0588 C71.3116124,105.204015 71.9875876,105.204015 72.6396,105.0588 C73.5963157,104.869346 74.4984174,104.467911 75.2796,103.884 Z" id="Path" fill="#D69770"></path>
                        <path d="M74.514,101.2968 C74.4734975,101.421731 74.4032895,101.534969 74.3094,101.6268 C74.0534486,101.870786 73.756244,102.067433 73.4316,102.2076 C72.9833239,102.384512 72.5847056,102.667621 72.27,103.0326 C72.1390768,103.29043 72.0393726,103.562954 71.973,103.8444 C71.8092907,104.186459 71.49367,104.431126 71.1216,104.5044 C70.7527638,104.581667 70.3684887,104.497607 70.0656,104.2734 C69.798441,104.064672 69.6099751,103.771503 69.531,103.4418 C69.4451695,103.153247 69.4451695,102.845953 69.531,102.5574 C69.6052472,102.330209 69.6979564,102.109473 69.8082,101.8974 C70.2108,101.0988 70.686,100.749 70.719,100.8084 C70.4583091,101.182722 70.2371269,101.583062 70.059,102.003 C69.8244893,102.417398 69.7471659,102.902426 69.8412,103.3692 C69.9633716,103.921289 70.4987424,104.279173 71.0556,104.181 C71.3237964,104.132924 71.5523401,103.958444 71.6694,103.7124 C71.749811,103.412948 71.8673211,103.124715 72.0192,102.8544 C72.369809,102.448568 72.827082,102.149054 73.3392,101.9898 C73.7683437,101.829343 74.1659808,101.594782 74.514,101.2968 Z" id="Path" fill="#D69770"></path>
                        <path d="M75.6558,98.8878 C75.7555351,99.5185119 75.7997047,100.156762 75.7878,100.7952 C75.8274,101.9766 75.9,103.6068 75.9264,105.4152 C75.9573706,106.957511 75.8956595,108.50029 75.7416,110.0352 C75.7078878,110.675379 75.5970877,111.309155 75.4116,111.9228 C75.3929376,111.288288 75.417193,110.65324 75.4842,110.022 C75.5502,108.8472 75.5832,107.2236 75.5634,105.402 C75.5436,103.5804 75.504,101.9766 75.5238,100.782 C75.5050722,100.147789 75.5492885,99.5132837 75.6558,98.8878 Z" id="Path" fill="#2E353A"></path>
                        <path d="M69.6036,79.761 C69.5658214,79.8755298 69.5125256,79.9843421 69.4452,80.0844 L68.937,80.9556 C68.4948,81.7146 67.815,82.7904 66.957,84.1104 C64.7040448,87.5297077 62.2810006,90.8338589 59.697,94.0104 C56.6742,97.7394 53.7174,100.9272 51.4998,103.1514 C50.391,104.2668 49.4736,105.1314 48.8268,105.7452 L48.081,106.4052 C47.9028,106.557 47.8104,106.6362 47.8038,106.623 C47.7972,106.6098 47.8698,106.524 48.0282,106.3524 L48.7344,105.6264 C49.3548,105.006 50.2392,104.0952 51.3282,102.9864 C53.4996,100.716 56.4168,97.5084 59.433,93.7926 C62.4492,90.0768 64.9704,86.5326 66.7392,83.952 C67.6236,82.632 68.3232,81.6024 68.805,80.8632 C69.0294,80.5266 69.2208,80.2494 69.366,80.025 C69.4398383,79.9323184 69.5191814,79.8441594 69.6036,79.761 Z" id="Path" fill="#2E353A"></path>
                        <path d="M57.3078,1.98 C58.8258,2.2836 60.423,2.0592 61.9278,2.475 C64.0794,3.0822 65.6766,4.983 66.5016,7.095 C67.3266,9.207 67.485,11.4444 67.6434,13.695 C67.782,15.675 67.9272,17.6946 68.0658,19.6944 C68.1076067,20.983586 68.2868207,22.264634 68.6004,23.5158 C68.9898,24.8952 70.0656,28.5714 70.1382,30.3666 C70.3692,36.2142 69.9732,48.1206 67.3662,51.0774 C65.9868,52.635 57.8622,48.7476 55.8228,49.1634 C54.9252,48.378 52.6746,45.1572 51.7704,44.3652 C51.6186,44.2332 58.3044,39.0852 58.2252,38.9334 C58.1399136,38.6092802 58.1726646,38.2653939 58.3176,37.9632 C62.2557316,26.2860343 61.5322013,13.5391324 56.298,2.3826" id="Path" fill="#2E353A"></path>
                        <path d="M56.5818,51.3546 C56.694,43.5534 56.8656,42.009 56.8656,42.0552 C56.8656,42.1014 63.5712,40.9266 64.9374,32.1552 C65.5974,27.7992 65.3862,20.6646 65.0034,14.8368 C64.6668,9.5568 61.1688,3.1548 55.9416,3.7224 L39.6,7.8804 C38.0089517,8.05784623 36.8171694,9.42152016 36.8544,11.022 L36.8544,11.022 L36.8544,51.282 C36.8544,51.282 41.415,55.4136 47.6586,54.6216 C53.9022,53.8296 56.5818,51.3546 56.5818,51.3546 Z" id="Path" fill="#EDBC9C"></path>
                        <path d="M62.997,21.3708 C63.0045509,21.9804328 62.5239013,22.4845287 61.9146,22.506 C61.6318811,22.529744 61.3513168,22.4401479 61.1346863,22.2569405 C60.9180559,22.073733 60.7831232,21.8119373 60.7596,21.5292 L60.7596,21.5292 C60.7519433,20.9220355 61.2287002,20.4189546 61.8354,20.394 C62.4289635,20.3484147 62.9479286,20.7907146 62.997,21.384 L62.997,21.3708 Z" id="Path" fill="#2E353A"></path>
                        <path d="M62.9442,18.5724 C62.8056,18.7176 61.9542,18.0906 60.7464,18.0972 C59.5386,18.1038 58.6542,18.7044 58.5222,18.5592 C58.3902,18.414 58.6014,18.2292 58.9842,17.9454 C59.5098106,17.5881991 60.130701,17.3973327 60.7662,17.3976 C61.3938316,17.3950984 62.006122,17.5914934 62.5152,17.9586 C62.9046,18.2424 63.0366,18.48 62.9442,18.5724 Z" id="Path" fill="#2E353A"></path>
                        <path d="M51.48,21.8328 C51.4912763,22.4388681 51.0164571,22.9429971 50.4108,22.968 C50.1280811,22.991744 49.8475168,22.9021479 49.6308863,22.7189405 C49.4142559,22.535733 49.2793232,22.2739373 49.2558,21.9912 L49.2558,21.9912 C49.2481433,21.3840355 49.7249002,20.8809546 50.3316,20.856 C50.9143381,20.8211576 51.4208938,21.2520211 51.48,21.8328 L51.48,21.8328 Z" id="Path" fill="#2E353A"></path>
                        <path d="M51.0972,19.4238 C50.9586,19.569 50.1072,18.942 48.8994,18.9486 C47.6916,18.9552 46.8072,19.5624 46.6752,19.4106 C46.5432,19.2588 46.7544,19.0806 47.1372,18.8034 C47.6603987,18.4404493 48.2824381,18.246926 48.9192,18.249 C49.5468316,18.2464984 50.159122,18.4428934 50.6682,18.81 C51.0642,19.0938 51.1632,19.3578 51.0972,19.4238 Z" id="Path" fill="#2E353A"></path>
                        <path d="M55.4994,27.7662 C56.1426674,27.5682131 56.8074698,27.4485487 57.4794,27.4098 C57.7896,27.3768 58.08,27.3108 58.1394,27.1062 C58.1657459,26.7859043 58.0919455,26.4653337 57.9282,26.1888 C57.6378,25.443 57.3342,24.6642 57.0108,23.8458 C55.737,20.5062 54.813,17.7606 54.9516,17.7078 C55.0902,17.655 56.2254,20.3478 57.4992,23.6478 C57.8094,24.4728 58.0998,25.2582 58.377,26.0106 C58.5756335,26.3802 58.6342217,26.8090657 58.542,27.2184 C58.4542363,27.4420859 58.2657359,27.6110019 58.0338,27.6738 C57.8646582,27.7241672 57.6888674,27.7486444 57.5124,27.7464 C56.8449738,27.8385973 56.1685106,27.8452511 55.4994,27.7662 Z" id="Path" fill="#2E353A"></path>
                        <path d="M56.8656,42.042 C52.5848079,42.1398007 48.3585184,41.0672542 44.6424,38.94 C44.6424,38.94 47.9886,45.0978 56.7468,44.2596 L56.8656,42.042 Z" id="Path" fill="#D69770"></path>
                        <path d="M55.0242,30.6768 C54.549536,30.0818005 53.7994041,29.7767468 53.0442,29.8716 C52.504761,29.919877 52.0086436,30.1870172 51.6714,30.6108 C51.3441823,31.0244387 51.3073799,31.5975038 51.579,32.0496 C51.973164,32.4980858 52.6025261,32.6580486 53.163,32.4522 C53.7339238,32.2464444 54.2587168,31.930223 54.7074,31.5216 C54.8426356,31.4247911 54.9589615,31.3039912 55.0506,31.1652 C55.1435559,31.0300398 55.1435559,30.8515602 55.0506,30.7164" id="Path" fill="#5A9EFB"></path>
                        <path d="M51.9486,28.611 C52.1466,28.611 52.1466,29.931 53.2686,30.8352 C54.3906,31.7394 55.7832,31.614 55.7964,31.7988 C55.8096,31.9836 55.4862,32.0562 54.8922,32.0694 C54.1258489,32.0889831 53.3782006,31.8311733 52.7868,31.3434 C52.2121671,30.87972 51.8424629,30.2090387 51.7572,29.4756 C51.7242,28.9278 51.8562,28.6044 51.9486,28.611 Z" id="Path" fill="#2E353A"></path>
                        <path d="M51.6384,15.8928 C51.5196,16.2228 50.3184,16.071 48.8994,16.2426 C47.4804,16.4142 46.3386,16.8102 46.1472,16.5132 C46.068,16.3746 46.266,16.0644 46.7214,15.7476 C47.3347126,15.3498334 48.0336592,15.1032794 48.7608,15.0282 C49.4850653,14.9434802 50.219112,15.0270486 50.9058,15.2724 C51.4272,15.4836 51.7242,15.741 51.6384,15.8928 Z" id="Path" fill="#2E353A"></path>
                        <path d="M62.5152,16.368 C62.304,16.6452 61.4724,16.368 60.4692,16.368 C59.466,16.368 58.6212,16.5594 58.4232,16.269 C58.344,16.1304 58.476,15.8598 58.8456,15.609 C59.8652746,14.9748387 61.1657747,15.0138537 62.1456,15.708 C62.4888,15.9522 62.6076,16.236 62.5152,16.368 Z" id="Path" fill="#2E353A"></path>
                        <path d="M51.117,29.1984 C51.0751909,29.1053503 51.0592313,29.0027529 51.0708,28.9014 C51.1044709,28.6587122 51.2050229,28.4301851 51.3612,28.2414 C51.5343103,28.0448592 51.7654558,27.9084834 52.0212,27.852 C52.121025,27.8284078 52.224975,27.8284078 52.3248,27.852 L52.0476,27.9576 C51.842813,28.043253 51.6600528,28.1741183 51.513,28.3404 C51.368445,28.5130673 51.2646729,28.7160997 51.2094,28.9344 C51.1368,29.0862 51.1434,29.1984 51.117,29.1984 Z" id="Path" fill="#D69770"></path>
                        <path d="M49.6386,29.7792 C49.5562495,29.6370642 49.5151126,29.4748018 49.5198,29.3106 C49.4578141,28.4851231 49.9427758,27.7161507 50.7144,27.4164 C50.8655356,27.3487281 51.0309943,27.3192629 51.1962,27.3306 C51.0474462,27.3834622 50.9019866,27.4451724 50.7606,27.5154 C50.4253658,27.6819208 50.1405869,27.9348044 49.9356,28.248 C49.7344792,28.5636104 49.6269234,28.9297578 49.6254,29.304 C49.6188,29.5944 49.665,29.7726 49.6386,29.7792 Z" id="Path" fill="#D69770"></path>
                        <path d="M55.803,0.8646 C55.803,0.8646 36.4782,-4.4154 31.9638,11.0814 C29.7,18.942 17.16,59.3538 17.16,59.3538 C17.16,59.3538 22.011,67.023 28.611,67.5774 C35.211,68.1318 40.491,56.4234 40.491,56.4234 L43.395,17.2986 C43.395,17.2986 46.7676,14.8038 51.1236,11.8668 L59.0436,3.5244 L55.803,0.8646 Z" id="Path" fill="#2E353A"></path>
                        <path d="M18.2292,60.06 C18.1750122,59.8956969 18.1439149,59.7246618 18.1368,59.5518 C18.075443,59.0636593 18.0467791,58.5719636 18.051,58.08 C18.0788075,56.2529375 18.413468,54.4435393 19.041,52.7274 C19.9808247,50.1916789 21.3174797,47.8213439 23.001,45.705 C25.0956057,43.1584902 27.3838139,40.7776063 29.8452,38.5836 C32.288405,36.4054947 34.5940392,34.0778181 36.7488,31.614 C38.4774964,29.5853729 39.904586,27.3180343 40.986,24.882 C41.6985671,23.2347004 42.1634034,21.4910082 42.3654,19.7076 C42.4908,18.4404 42.438,17.7276 42.4908,17.7276 C42.5369045,17.8928808 42.5569454,18.0643419 42.5502,18.2358 C42.5832073,18.7302498 42.5832073,19.2263502 42.5502,19.7208 C42.4182414,21.5359996 41.9971347,23.3184617 41.3028,25.0008 C40.2532319,27.4945983 38.8361161,29.8171554 37.0986,31.8912 C34.9518577,34.3937449 32.638811,36.7486866 30.1752,38.94 C27.7422154,41.1273489 25.4703108,43.4874828 23.3772,46.002 C21.7009763,48.0732783 20.350079,50.3878305 19.371,52.866 C18.7288838,54.5356129 18.348206,56.2942997 18.2424,58.08 C18.1896,59.4 18.282,60.06 18.2292,60.06 Z" id="Path" fill="#E9E9E9"></path>
                        <path d="M21.6876,62.964 C21.5597111,62.8356968 21.4488063,62.6915206 21.3576,62.535 C21.0665983,62.100371 20.823198,61.6356976 20.6316,61.149 C19.9218636,59.334584 19.7143843,57.3623907 20.031,55.44 C20.4924819,52.600257 21.7227706,49.9410987 23.5884,47.751 C25.5684,45.2232 28.3338,42.966 31.1916,40.6626 C34.0494,38.3592 36.7026,36.0426 38.5506,33.4884 C40.2033333,31.2221502 41.4207787,28.668648 42.141,25.9578 C42.6340547,24.1288586 42.9087679,22.2479591 42.9594,20.3544 C42.9594,19.0344 42.9198,18.2688 42.9594,18.2622 C43.0103974,18.4383294 43.0392201,18.6201337 43.0452,18.8034 C43.1044672,19.3183878 43.1375098,19.8360562 43.1442,20.3544 C43.17644,22.2716267 42.9545088,24.1846737 42.4842,26.0436 C41.8056964,28.8260433 40.6028118,31.4535734 38.94,33.7854 C37.0722,36.4254 34.3794,38.7684 31.5216,41.0454 C28.6638,43.3224 25.9446,45.573 23.958,48.0348 C22.1219002,50.1531463 20.8907183,52.7272284 20.394,55.4862 C20.0626882,57.3471627 20.2103192,59.2618243 20.823,61.05 C21.0786344,61.702216 21.3672056,62.3410377 21.6876,62.964 Z" id="Path" fill="#4D5A64"></path>
                        <path d="M30.8286,18.0312 L30.8286,17.7012 C30.86963,17.3831626 30.9471404,17.0709066 31.0596,16.7706 C31.4779054,15.6582064 32.1568938,14.6623567 33.0396,13.8666 C34.3449081,12.6902813 35.8961771,11.8199472 37.5804,11.319 C39.6176536,10.7376293 41.6841164,10.2639731 43.7712,9.9 C47.5022568,9.12254268 51.1148419,7.85769409 54.516,6.138 C55.5606169,5.68124108 56.4698658,4.96293445 57.156,4.0524 C57.3695242,3.69353929 57.5443057,3.31300234 57.6774,2.9172 C57.6971483,3.02853102 57.6971483,3.14246898 57.6774,3.2538 C57.614709,3.57236883 57.4986781,3.87806571 57.3342,4.158 C56.6768836,5.14718861 55.7648254,5.94067921 54.6942,6.4548 C51.3053632,8.29501191 47.6653628,9.62915986 43.89,10.4148 C41.679,10.8702 39.5736,11.1804 37.7388,11.7348 C36.1030012,12.1924974 34.5855223,12.9985173 33.2904,14.0976 C32.420723,14.8416064 31.7284303,15.7706767 31.2642,16.8168 C30.9474,17.622 30.8748,18.0444 30.8286,18.0312 Z" id="Path" fill="#E9E9E9"></path>
                    </g>
                    <path d="M86.3874,105.0192 C86.3874,105.0192 88.7766,122.5026 98.8152,127.6044 C108.4974,132.5214 152.1564,143.253 171.0258,141.1014 C189.8952,138.9498 204.2436,125.1228 204.2436,125.1228" id="Path" stroke="#2E353A" stroke-width="0.66"></path>
                    <path d="M205.095,109.362 C205.095,109.362 223.575,111.4278 224.6442,110.2398 C225.7134,109.0518 223.2912,118.0674 224.1822,123.9678 L224.3274,126.852 C224.3274,126.852 209.8074,130.3236 203.4714,127.512 C203.4714,127.5318 204.138,114.6486 205.095,109.362 Z" id="Path" fill="#4C5A68" fill-rule="nonzero"></path>
                </g>
            </g>
        </g>
    </g>
</svg>