<?xml version="1.0" encoding="UTF-8"?>
<svg width="322px" height="300px" viewBox="0 0 322 300" version="1.1" xmlns="http://www.w3.org/2000/svg" xmlns:xlink="http://www.w3.org/1999/xlink">
    <title>Group 2</title>
    <g id="Page-1" stroke="none" stroke-width="1" fill="none" fill-rule="evenodd">
        <g id="Managing-your-Risk-Factors" transform="translate(-46.000000, -188.000000)">
            <g id="Group-2" transform="translate(46.000000, 188.000000)">
                <circle id="Mask" fill="#E13856" opacity="0.0770321801" cx="161" cy="150" r="150"></circle>
                <g id="Asset-30" transform="translate(42.000000, 27.000000)" fill-rule="nonzero">
                    <g id="freepik--speech-bubble--inject-67" transform="translate(0.000000, 1.800000)">
                        <path d="M79.902,72.75 L71.562,58.5 C81.7708209,41.4181547 77.2630732,19.3696551 61.1690132,7.6653526 C45.0749533,-4.0389499 22.7103051,-1.53322883 9.60545913,13.4425007 C-3.49938687,28.4182302 -3.01601729,50.9176186 10.7199079,65.3167096 C24.455833,79.7158007 46.9074604,81.2587034 62.484,68.874 L62.484,68.874 L79.902,72.75 Z" id="Path" fill="#F9F9F9"></path>
                        <path d="M79.902,72.75 L62.454,68.964 C62.4334748,68.9612543 62.4151256,68.9498042 62.4036388,68.9325741 C62.3921521,68.915344 62.3886402,68.8940023 62.394,68.874 L62.394,68.874 L62.502,68.982 C60.0883308,70.900189 57.4584382,72.5292725 54.666,73.836 C47.4858359,77.145959 39.4649556,78.1802359 31.68,76.8 C16.3113285,74.0092435 4.13970529,62.2307881 0.846,46.962 C-0.341899941,41.3267025 -0.276352807,35.4991527 1.038,29.892 C2.44045565,24.0252171 5.20279638,18.5704162 9.102,13.968 C10.1040226,12.785008 11.1717043,11.6592347 12.3,10.596 C13.4281938,9.55366747 14.6162103,8.57801141 15.858,7.674 C18.2967538,5.87564039 20.9464546,4.38253902 23.748,3.228 C26.4825249,2.08170558 29.3420594,1.26009284 32.268,0.78 C35.1210735,0.316349224 38.0166526,0.16945744 40.902,0.342 C61.4847361,1.5763078 77.4399283,18.809291 77.088,39.426 C77.0277278,43.0897871 76.445884,46.7263107 75.36,50.226 C74.4411127,53.1308362 73.1887629,55.9194285 71.628,58.536 L71.628,58.464 L79.902,72.75 L71.502,58.536 C71.4902605,58.5134356 71.4902605,58.4865644 71.502,58.464 C73.0498103,55.8534577 74.2862488,53.0704644 75.186,50.172 C76.2597306,46.6869979 76.8294995,43.0663385 76.878,39.42 C76.91952,35.2317953 76.2853798,31.0642992 75,27.078 C71.927937,17.6577283 65.3407734,9.78536938 56.61,5.1 C51.7528037,2.49690587 46.3858214,0.985714353 40.884,0.672 C38.0205831,0.502469616 35.1472022,0.649358132 32.316,1.11 C29.4172175,1.58309817 26.5825495,2.38840158 23.868,3.51 C21.0988421,4.66086113 18.4796739,6.14371327 16.068,7.926 C8.72862372,13.2950768 3.52391316,21.0862033 1.374,29.922 C0.0687857011,35.492311 0.00937196613,41.282077 1.2,46.878 C4.4589427,62.0406045 16.5406897,73.7409474 31.8,76.512 C35.9048413,77.2385821 40.0989512,77.3094627 44.226,76.722 C47.8328203,76.1914894 51.3459441,75.1510876 54.66,73.632 C57.4387343,72.3424798 60.056621,70.7314726 62.46,68.832 C62.4901785,68.8030467 62.5378215,68.8030467 62.568,68.832 C62.5916261,68.8573484 62.5916261,68.8966516 62.568,68.922 L62.568,68.922 L62.526,68.802 L79.902,72.75 Z" id="Path" fill="#2E353A"></path>
                        <rect id="Rectangle" fill="#D61335" transform="translate(38.731358, 38.827532) rotate(-89.530000) translate(-38.731358, -38.827532) " x="20.6323583" y="22.8705318" width="36.198" height="31.914" rx="2.928"></rect>
                        <rect id="Rectangle" fill="#FFFFFF" transform="translate(39.244710, 33.469110) rotate(-89.427061) translate(-39.244710, -33.469110) " x="33.0734015" y="22.3535543" width="12.3426171" height="22.2311115" rx="5.136"></rect>
                        <path d="M45.102,39.636 C45.8883018,39.5878192 46.6571913,39.3838697 47.364,39.036 C48.1805784,38.6254648 48.872488,38.0039891 49.368,37.236 C49.6780643,36.7588785 49.9014908,36.2307794 50.028,35.676 C50.1535827,35.0482458 50.2019415,34.4074919 50.172,33.768 C50.1950753,33.0613148 50.1730305,32.3538773 50.106,31.65 C49.9920766,30.9018661 49.7043822,30.1908499 49.266,29.574 C48.2929936,28.1900041 46.6911663,27.3857111 45,27.432 L33.264,27.348 C31.2436356,27.3397084 29.4174811,28.5500391 28.638,30.414 C28.4580009,30.8520631 28.3369438,31.3120802 28.278,31.782 C28.242,32.238 28.242,32.718 28.242,33.192 C28.1584805,34.0973974 28.2294921,35.0104047 28.452,35.892 C28.9597991,37.5072104 30.2481837,38.7572369 31.878,39.216 C32.6213403,39.3859722 33.3842595,39.4545946 34.146,39.42 L36.288,39.42 L42.75,39.522 L44.508,39.57 L34.128,39.57 C33.3425963,39.6125594 32.5550859,39.5459239 31.788,39.372 C30.0567017,38.9037479 28.6836769,37.5850107 28.146,35.874 C27.9077124,34.9644513 27.8265451,34.0208814 27.906,33.084 C27.906,32.61 27.906,32.136 27.942,31.638 C28.00118,31.139024 28.1283597,30.6504926 28.32,30.186 C28.7193874,29.2278813 29.3911365,28.4080136 30.252,27.828 C30.6905641,27.5341515 31.1695932,27.3057537 31.674,27.15 C32.1864626,26.9992607 32.7178277,26.9224855 33.252,26.922 L45,27.06 C46.7886798,27.0181042 48.478971,27.8767722 49.5,29.346 C49.9549322,30.001401 50.2526417,30.7528607 50.37,31.542 C50.4340475,32.2601297 50.4500832,32.9817341 50.418,33.702 C50.4381378,34.3586038 50.3797235,35.0152612 50.244,35.658 C50.1058352,36.2338144 49.8660813,36.780372 49.536,37.272 C48.6696381,38.5593757 47.2710262,39.3897327 45.726,39.534 C45.5742369,39.5460021 45.4217631,39.5460021 45.27,39.534 C45.2196235,39.5764996 45.1629469,39.6109104 45.102,39.636 Z" id="Path" fill="#2E353A"></path>
                        <g id="Group" opacity="0.4" transform="translate(33.000000, 20.400000)" fill="#000000">
                            <path d="M0.426,0.288 C0.894,2.886 3.468,5.352 6.102,5.22 C8.7810482,5.09751292 10.9724875,3.04351584 11.268,0.378" id="Path"></path>
                        </g>
                        <path d="M40.8,25.158 C39.6542031,25.7934382 38.2617969,25.7934382 37.116,25.158 L37.206,14.676 C37.2256976,13.6690483 38.052906,12.8659334 39.06,12.8759064 L39.06,12.8759064 C40.0665092,12.9021284 40.8668771,13.7291752 40.86,14.736 L40.8,25.158 Z" id="Path" fill="#4D5A64"></path>
                        <rect id="Rectangle" fill="#FFFFFF" transform="translate(39.058758, 16.776668) rotate(-89.530000) translate(-39.058758, -16.776668) " x="36.8477579" y="16.2396676" width="4.422" height="1.074"></rect>
                        <path d="M38.4,48.282 C38.3531763,47.8905851 38.2850755,47.5020099 38.196,47.118 C37.9198107,46.0864444 37.3075146,45.1764457 36.456,44.532 C35.194401,43.5610472 33.5237732,43.3029827 32.028,43.848 C31.154271,44.1510683 30.3942312,44.7142934 29.85,45.462 C28.9790714,46.6394086 28.7103582,48.1569626 29.124042,49.5618375 C29.5377257,50.9667123 30.5859745,52.0964697 31.956,52.614 C33.4423253,53.1769199 35.1123982,52.9512344 36.396,52.014 C37.2655017,51.3852021 37.8992347,50.4831888 38.196,49.452 C38.394,48.726 38.376,48.294 38.418,48.294 C38.4235851,48.3963525 38.4175465,48.4990082 38.4,48.6 C38.3949361,48.8973259 38.3566994,49.1931576 38.286,49.482 C38.0266805,50.5633063 37.4039658,51.5227953 36.522,52.2 C35.4750441,52.9927919 34.1559595,53.3370534 32.8551066,53.1570045 C31.5542538,52.9769557 30.3782642,52.2873553 29.586,51.24 L29.532,51.168 C28.0933375,49.1953733 28.3078512,46.4683869 30.0372566,44.7449708 C31.766662,43.0215547 34.4943762,42.8165027 36.462,44.262 L36.588,44.358 C37.4622527,45.0449726 38.0709015,46.014145 38.31,47.1 C38.3710209,47.3960838 38.4011821,47.6976959 38.4,48 C38.4110834,48.0936733 38.4110834,48.1883267 38.4,48.282 Z" id="Path" fill="#2E353A"></path>
                        <path d="M31.026,48.222 C31.062,48.222 31.47,48.438 32.1,48.75 C32.73,49.062 33.6,49.566 34.632,50.16 L34.392,50.292 L34.392,46.2 L34.626,46.338 C33.576,46.938 32.682,47.412 32.07,47.706 C31.458,48 31.026,48.216 30.99,48.216 C31.2842766,47.9956204 31.5929658,47.7951729 31.914,47.616 C32.544,47.226 33.444,46.686 34.47,46.086 L34.704,45.954 L34.704,50.586 L34.47,50.448 C33.45,49.848 32.58,49.308 31.938,48.876 C31.6124808,48.6896901 31.306888,48.4705479 31.026,48.222 L31.026,48.222 Z" id="Path" fill="#2E353A"></path>
                        <path d="M39.294,48.288 C39.3370283,48.6799647 39.4051683,49.0687638 39.498,49.452 C39.7729801,50.4857455 40.3853855,51.3980183 41.238,52.044 C42.6478447,53.1207464 44.5448567,53.3090431 46.138861,52.5304577 C47.7328653,51.7518724 48.7505453,50.1399054 48.768,48.366 C48.7665628,47.3750611 48.4584663,46.4088537 47.886,45.6 C47.1527514,44.5816716 46.043023,43.8985233 44.8035844,43.7024667 C43.5641458,43.50641 42.2977482,43.8136983 41.286,44.556 C40.4164983,45.1847979 39.7827653,46.0868112 39.486,47.118 C39.282,47.85 39.3,48.282 39.264,48.276 C39.246047,48.17479 39.246047,48.07121 39.264,47.97 C39.2686594,47.6726447 39.306902,47.376768 39.378,47.088 C39.6425445,45.9997548 40.2792905,45.0382684 41.178,44.37 C41.7873874,43.9013105 42.4985821,43.5827117 43.254,43.44 C45.212316,43.0861709 47.1923534,43.9380096 48.2820822,45.6031486 C49.371811,47.2682876 49.3598657,49.4237537 48.2517484,51.0767125 C47.1436311,52.7296714 45.1542741,53.5595122 43.2,53.184 C41.3166155,52.8038578 39.8332614,51.351064 39.414,49.476 C39.3378185,49.190249 39.2994909,48.8957313 39.3,48.6 C39.2823804,48.4968879 39.2803578,48.3917133 39.294,48.288 L39.294,48.288 Z" id="Path" fill="#2E353A"></path>
                        <path d="M46.662,48.348 C46.662,48.348 46.2,48.138 45.6,47.82 C45,47.502 44.106,47.004 43.068,46.41 L43.302,46.278 L43.302,50.364 L43.068,50.232 C44.112,49.632 45.012,49.158 45.618,48.864 C46.224,48.57 46.668,48.354 46.698,48.348 C46.404101,48.5659298 46.0975654,48.7662798 45.78,48.948 C45.126,49.368 44.25,49.878 43.218,50.478 L42.984,50.616 L42.984,45.978 L43.212,46.116 C44.232,46.716 45.102,47.262 45.75,47.688 C46.0653415,47.891887 46.3697605,48.1121902 46.662,48.348 L46.662,48.348 Z" id="Path" fill="#2E353A"></path>
                        <path d="M38.556,34.8 C38.556,35.856 37.644,36.504 36.222,36.492 C34.8,36.48 33.93,35.82 33.936,34.764 C33.9304273,34.1202225 34.351142,33.5503008 34.968,33.366 C34.4651227,33.1527964 34.1454985,32.6518929 34.164,32.106 C34.164,31.134 35.016,30.54 36.27,30.545955 C37.524,30.552 38.376,31.146 38.37,32.142 C38.3751725,32.6899471 38.0442422,33.1851522 37.536,33.39 C38.1499704,33.5833138 38.564523,34.1563718 38.556,34.8 L38.556,34.8 Z M37.722,34.8 C37.722,34.158 37.17,33.756 36.246,33.75 C35.322,33.744 34.8,34.104 34.8,34.746 C34.8,35.388 35.334,35.814 36.258,35.82 C37.182,35.826 37.716,35.4 37.722,34.8 L37.722,34.8 Z M34.986,32.178 C34.986,32.778 35.454,33.114 36.252,33.12 C37.05,33.126 37.548,32.772 37.554,32.196 C37.56,31.62 37.044,31.2 36.264,31.2 C35.484,31.2 34.992,31.566 34.986,32.148 L34.986,32.178 Z" id="Shape" fill="#4D5A64"></path>
                        <path d="M39.372,35.928 C39.3687826,35.7815906 39.4238758,35.6399031 39.5251527,35.534125 C39.6264297,35.4283468 39.7655891,35.3671482 39.912,35.364 L39.972,35.364 C40.1146623,35.362397 40.2520338,35.417949 40.3534797,35.5182677 C40.4549256,35.6185864 40.512009,35.7553287 40.512,35.898 L40.512,36 C40.518812,36.3003614 40.2841579,36.5510147 39.984,36.564 L39.984,36.564 C39.8343441,36.5738587 39.6869247,36.5237034 39.5743324,36.4246222 C39.4617402,36.3255411 39.3932488,36.1856948 39.384,36.036 C39.3742698,36.0008696 39.3702187,35.9644095 39.372,35.928 Z" id="Path" fill="#4D5A64"></path>
                        <path d="M45.3600398,34.758 C45.3600398,35.76 44.628,36.558 43.146,36.558 C42.3732652,36.5705002 41.6202426,36.3138362 41.016,35.832 L41.4,35.178 C41.8811626,35.5942595 42.4978019,35.8204317 43.134,35.814 C44.016,35.814 44.52,35.418 44.52,34.788 C44.52,34.158 44.118,33.726 42.774,33.714 L41.454,33.714 L41.79,30.678 L45.066,30.678 L45.066,31.404 L42.486,31.404 L42.318,33 L42.966,33 C44.694,33 45.366,33.726 45.3600398,34.758 Z" id="Path" fill="#4D5A64"></path>
                        <path d="M44.292,20.778 C44.3220189,20.9768736 44.3220189,21.1791264 44.292,21.378 C44.1951894,21.9489209 43.9916362,22.496479 43.692,22.992 C43.2580495,23.7385563 42.6535763,24.3718139 41.928,24.84 C41.0345859,25.4220545 39.9942032,25.7383308 38.928,25.752 C37.8691327,25.7223752 36.8457647,25.363777 36,24.726 C35.2809265,24.2383931 34.6685184,23.6096541 34.2,22.878 C33.8872145,22.3951206 33.6561199,21.8640087 33.516,21.306 C33.4506013,21.112933 33.420125,20.909758 33.426,20.706 C33.6655597,21.4443294 34.000383,22.1482651 34.422,22.8 C34.8784373,23.4852816 35.4607313,24.0777555 36.138,24.546 C36.9445253,25.1400689 37.9145629,25.4710969 38.916,25.494 C40.7750992,25.4458063 42.4877024,24.4736058 43.482,22.902 C43.8634159,22.2416664 44.1368633,21.5246265 44.292,20.778 Z" id="Path" fill="#2E353A"></path>
                    </g>
                    <g id="freepik--Character--inject-67" transform="translate(29.400000, 0.000000)">
                        <path d="M67.032,99.978 C64.092,71.22 60.918,52.212 70.476,24.264 L90.072,28.584 C98.586,55.35 98.076,84.03 97.488,112.11 C97.434,114.642 97.344,117.312 96.006,119.466 C93.33,123.768 87.264,123.972 82.206,123.666 C77.688,123.414 68.772,127.008 65.628,123.75 C62.7,120.732 67.452,104.178 67.032,99.978 Z" id="Path" fill="#2E353A"></path>
                        <path d="M163.164,106.146 L145.908,100.68 L129.078,100.2 L81.768,106.086 L53.052,177.54 L64.2,227.19 L56.844,252.912 L156.252,252.912 C156.252,252.912 166.5,132.87 166.212,131.712 C165.924,130.554 163.152,106.152 163.152,106.152" id="Path" fill="#00A0FF"></path>
                        <path d="M81.768,106.086 C81.768,106.086 58.644,108.972 48.93,123 C41.448,133.8 23.208,169.344 23.208,169.344 L10.506,162.93 C10.506,162.93 2.4,189.678 2.178,194.73 C1.836,202.398 2.592,219.126 8.778,224.316 C16.062,230.43 28.95,224.016 32.934,220.884 C38.19,216.744 55.524,184.686 55.524,184.686 L81.768,106.086 Z" id="Path" fill="#00A0FF"></path>
                        <path d="M64.23,227.19 C64.2220239,227.108708 64.199677,227.029479 64.164,226.956 C64.0897178,226.729965 64.0296011,226.499517 63.984,226.266 L63.324,223.608 C62.766,221.274 61.962,217.932 60.972,213.81 C59.982,209.688 58.812,204.738 57.516,199.266 C56.868,196.53 56.19,193.656 55.482,190.68 C55.314,189.936 55.11,189.192 54.972,188.424 C54.834,187.656 54.684,186.882 54.558,186.102 C54.282,184.542 54.048,182.952 53.844,181.338 C53.4291277,178.196178 53.2925971,175.023849 53.436,171.858 C53.5962441,168.90814 54.0504953,165.981637 54.792,163.122 C56.0838723,158.301151 57.7509596,153.58877 59.778,149.028 C61.476,145.122 62.988,142.026 64.032,139.89 L65.232,137.436 C65.364,137.166 65.472,136.956 65.556,136.8 C65.5914314,136.727486 65.631515,136.65734 65.676,136.59 C65.6639412,136.672936 65.6308966,136.751417 65.58,136.818 L65.286,137.466 L64.122,139.944 C63.114,142.098 61.632,145.206 59.958,149.112 C57.971082,153.678298 56.3304537,158.387583 55.05,163.2 C54.3243038,166.043503 53.880164,168.951513 53.724,171.882 C53.5856079,175.030061 53.7241408,178.184194 54.138,181.308 C54.342,182.91 54.582,184.494 54.846,186.054 C54.972,186.834 55.122,187.602 55.254,188.364 C55.386,189.126 55.596,189.876 55.764,190.62 C56.46,193.62 57.138,196.476 57.774,199.212 C59.052,204.69 60.174,209.616 61.17,213.768 C62.166,217.92 62.892,221.25 63.426,223.584 C63.684,224.736 63.888,225.63 64.026,226.26 C64.086,226.554 64.14,226.782 64.176,226.956 C64.2048052,227.031106 64.2229807,227.109867 64.23,227.19 L64.23,227.19 Z" id="Path" fill="#2E353A"></path>
                        <path d="M31.164,157.464 C31.1911931,157.502181 31.211499,157.544823 31.224,157.59 L31.374,157.974 C31.535144,158.474669 31.6614458,158.985891 31.752,159.504 C32.0455606,161.413084 32.1540643,163.346056 32.076,165.276 C32.076,167.718 31.752,170.616 31.89,173.82 C32.0841378,177.31296 32.5617085,180.784377 33.318,184.2 C34.854,191.466 36.762,197.97 37.098,202.872 C37.2839058,204.793514 37.2839058,206.728486 37.098,208.65 C37.0526225,209.18106 36.9704248,209.708328 36.852,210.228 C36.804,210.384 36.768,210.51 36.738,210.618 C36.7283164,210.664047 36.7121557,210.708489 36.69,210.75 C36.6839627,210.704198 36.6839627,210.657802 36.69,210.612 C36.7059461,210.475762 36.7340584,210.341224 36.774,210.21 C36.8722105,209.698433 36.9403275,209.181545 36.978,208.662 C37.1110087,206.746795 37.0788901,204.823695 36.882,202.914 C36.486,198.054 34.554,191.568 33.012,184.314 C32.2514848,180.891603 31.7798263,177.411365 31.602,173.91 C31.482,170.67 31.806,167.778 31.854,165.348 C31.9510113,163.42921 31.876717,161.505592 31.632,159.6 C31.5583312,159.083811 31.4521196,158.572793 31.314,158.07 C31.266,157.914 31.23,157.788 31.194,157.68 C31.1755089,157.609437 31.1654388,157.536932 31.164,157.464 Z" id="Path" fill="#2E353A"></path>
                        <path d="M43.92,158.778 C43.842,158.814 42.456,156.15 40.83,152.82 C39.204,149.49 37.944,146.766 38.022,146.73 C38.1,146.694 39.48,149.358 41.112,152.682 C42.744,156.006 43.998,158.742 43.92,158.778 Z" id="Path" fill="#FFFFFF"></path>
                        <path d="M53.826,152.118 C53.898,152.172 51.15,155.988 47.694,160.638 C44.238,165.288 41.382,169.038 41.316,168.972 C41.25,168.906 43.986,165.108 47.442,160.452 C50.898,155.796 53.76,152.07 53.826,152.118 Z" id="Path" fill="#FFFFFF"></path>
                        <path d="M52.896,165.888 C52.2745446,165.239424 51.7308703,164.520565 51.276,163.746 C50.7337303,163.030522 50.2785298,162.253056 49.92,161.43 C50.5405088,162.079383 51.0840963,162.798126 51.54,163.572 C52.0797388,164.289166 52.5347593,165.066325 52.896,165.888 Z" id="Path" fill="#FFFFFF"></path>
                        <path d="M66.252,153.762 C66.324,153.798 64.83,156.834 62.91,160.536 C60.99,164.238 59.364,167.208 59.31,167.172 C59.256,167.136 60.732,164.094 62.652,160.392 C64.572,156.69 66.198,153.72 66.252,153.762 Z" id="Path" fill="#FFFFFF"></path>
                        <path d="M72.678,165.87 C72.2890783,165.671538 71.9329299,165.414545 71.622,165.108 C70.0346417,163.72915 68.6864256,162.097099 67.632,160.278 C67.3919431,159.907832 67.2098427,159.503164 67.092,159.078 C67.176,159.03 68.1,160.782 69.642,162.648 C71.184,164.514 72.738,165.798 72.678,165.87 Z" id="Path" fill="#FFFFFF"></path>
                        <path d="M82.656,151.86 C82.2325756,152.319585 81.7752943,152.746782 81.288,153.138 C80.424,153.906 79.23,154.974 77.94,156.174 C76.65,157.374 75.54,158.49 74.682,159.294 C74.2608878,159.756184 73.8012314,160.181718 73.308,160.566 C73.6683218,160.05802 74.0696648,159.580422 74.508,159.138 C75.294,158.292 76.416,157.152 77.712,155.946 C79.008,154.74 80.22,153.696 81.126,152.946 C81.6001086,152.535919 82.1124542,152.172255 82.656,151.86 Z" id="Path" fill="#FFFFFF"></path>
                        <path d="M89.052,170.118 C88.986,170.172 86.796,167.718 84.156,164.58 C81.516,161.442 79.434,158.898 79.5,158.844 C79.566,158.79 81.756,161.244 84.396,164.382 C87.036,167.52 89.112,170.058 89.052,170.118 Z" id="Path" fill="#FFFFFF"></path>
                        <path d="M96.054,155.49 C95.0732214,156.663681 94.0105638,157.766439 92.874,158.79 C91.8132488,159.891967 90.6786192,160.920351 89.478,161.868 C90.4633038,160.709719 91.5235836,159.61737 92.652,158.598 C93.7160157,157.487902 94.8525117,156.449621 96.054,155.49 L96.054,155.49 Z" id="Path" fill="#FFFFFF"></path>
                        <path d="M107.112,168.198 C106.553959,167.904999 106.028956,167.552985 105.546,167.148 C103.12756,165.303539 100.968201,163.142161 99.126,160.722 C98.721672,160.238551 98.3697072,159.71362 98.076,159.156 C98.503579,159.608126 98.9042673,160.084945 99.276,160.584 C100.014,161.478 101.076,162.678 102.318,163.926 C103.56,165.174 104.766,166.23 105.66,166.974 C106.169508,167.350744 106.654491,167.759572 107.112,168.198 L107.112,168.198 Z" id="Path" fill="#FFFFFF"></path>
                        <path d="M113.898,156.126 C113.580464,156.484611 113.233232,156.815786 112.86,157.116 C112.2,157.716 111.306,158.538 110.358,159.516 C109.41,160.494 108.6,161.4 108,162.054 C107.711079,162.436744 107.38554,162.790416 107.028,163.11 C107.251662,162.68201 107.52125,162.27964 107.832,161.91 C108.54002,160.992123 109.30133,160.116616 110.112,159.288 C110.927207,158.463755 111.788596,157.686502 112.692,156.96 C113.057352,156.632421 113.462547,156.352211 113.898,156.126 Z" id="Path" fill="#FFFFFF"></path>
                        <path d="M123.15,169.998 C123.09,170.058 121.14,168.102 118.794,165.636 C117.335283,164.184566 115.957217,162.654271 114.666,161.052 C116.19,162.438 117.666,163.896 119.022,165.42 C121.362,167.898 123.21,169.944 123.15,169.998 Z" id="Path" fill="#FFFFFF"></path>
                        <path d="M129.18,153.342 C128.792096,153.837727 128.3647,154.301241 127.902,154.728 C127.104,155.568 126.012,156.738 124.86,158.082 C123.708,159.426 122.718,160.686 122.01,161.61 C121.65023,162.131509 121.248925,162.623108 120.81,163.08 C121.09464,162.517972 121.427911,161.981928 121.806,161.478 C122.472,160.518 123.438,159.228 124.596,157.878 C125.754,156.528 126.876,155.376 127.722,154.572 C128.168511,154.117356 128.656645,153.705556 129.18,153.342 L129.18,153.342 Z" id="Path" fill="#FFFFFF"></path>
                        <path d="M135.978,167.4 C135.502819,167.123882 135.058324,166.798053 134.652,166.428 C133.86,165.78 132.798,164.844 131.652,163.758 C130.506,162.672 129.576,161.628 128.904,160.854 C128.51818,160.457265 128.178055,160.018525 127.89,159.546 C128.317436,159.902519 128.718485,160.289532 129.09,160.704 C129.792,161.442 130.776,162.45 131.892,163.536 C133.008,164.622 134.04,165.57 134.79,166.26 C135.218967,166.604082 135.616529,166.98558 135.978,167.4 Z" id="Path" fill="#FFFFFF"></path>
                        <path d="M147.948,153.198 C147.609339,153.691948 147.219148,154.148512 146.784,154.56 C146.022,155.37 144.93,156.444 143.652,157.56 C142.374,158.676 141.162,159.606 140.262,160.248 C139.79363,160.624334 139.286819,160.950142 138.75,161.22 C139.18219,160.8057 139.643358,160.422729 140.13,160.074 C140.994,159.39 142.182,158.43 143.448,157.326 C144.714,156.222 145.848,155.172 146.628,154.41 C147.041754,153.978315 147.482651,153.573491 147.948,153.198 Z" id="Path" fill="#FFFFFF"></path>
                        <path d="M158.652,154.62 C158.712009,155.122214 158.712009,155.629786 158.652,156.132 C158.61,157.068 158.502,158.358 158.31,159.774 C158.118,161.19 157.878,162.456 157.674,163.374 C157.597559,163.87541 157.458471,164.36524 157.26,164.832 C157.284229,164.327369 157.350458,163.825634 157.458,163.332 C157.608,162.414 157.812,161.142 158.004,159.732 C158.196,158.322 158.334,157.044 158.436,156.132 C158.454188,155.621767 158.526595,155.114916 158.652,154.62 L158.652,154.62 Z" id="Path" fill="#FFFFFF"></path>
                        <g id="Group" opacity="0.3" transform="translate(52.800000, 164.400000)" fill="#000000">
                            <path d="M44.4,4.446 C43.152,3.012 41.838,1.536 40.092,0.78 C37.692,-0.252 34.95,0.246 32.394,0.78 C21.75,2.988 11.15,5.416 0.594,8.064 L1.68,9.21 C5.07,13.632 11.46,14.178 17.022,13.896 C22.584,13.614 28.656,13.02 33.264,16.152 C37.3591607,19.0675458 40.9075898,22.683003 43.746,26.832 C51.75,38.76 57.486,44.928 66.408,52.734 C75.726,60.894 83.808,70.134 96.024,68.004 C79.548,46.236 62.34,25.05 44.4,4.446 Z" id="Path"></path>
                        </g>
                        <path d="M10.266,164.652 L11.67,159.342 C11.67,159.342 -1.86,148.092 0.42,143.25 C0.833770418,141.684383 2.2330543,140.581102 3.852,140.544 C3.852,140.544 2.286,137.268 4.452,134.85 C6.618,132.432 9.012,133.428 9.012,133.428 C9.012,133.428 7.872,130.008 8.586,128.442 C8.70622342,128.182592 8.84456561,127.931972 9,127.692 C9.92927471,126.280599 11.5101895,125.435939 13.2,125.448 L14.304,125.448 L12.054,117.288 C11.7550043,116.202491 11.7674797,115.054754 12.09,113.976 L12.51,112.56 C13.2748265,110.129363 15.781616,108.696912 18.264,109.272 C19.974,109.692 21.264,110.436 21.264,111.78 L21.264,112.494 L18.396,114.06 C18.396,114.06 22.776,124.998 23.196,125.598 C23.616,126.198 27.9,131.298 27.9,131.298 C27.9,131.298 28.326,124.89 31.17,124.458 C34.014,124.026 35.016,125.742 34.59,127.026 C34.164,128.31 34.212,129.948 34.686,131.904 C34.686,131.904 33.168,145.824 33.306,149.526 C33.444,153.228 31.74,153.228 31.74,153.228 C31.74,153.228 31.458,158.496 30.462,161.346 C29.466,164.196 20.358,174.726 16.2,173.598 C12.042,172.47 10.266,164.652 10.266,164.652 Z" id="Path" fill="#EDBC9C"></path>
                        <path d="M3.732,140.31 C3.85120329,140.340025 3.96762595,140.38017 4.08,140.43 L5.052,140.826 L8.616,142.332 L13.878,144.6 L16.986,145.95 C17.5370877,146.177537 18.0758313,146.433891 18.6,146.718 C19.1839822,147.017559 19.6492669,147.506108 19.92,148.104 C20.0518672,148.473891 20.034653,148.880576 19.872,149.238 C19.7093738,149.576322 19.4450442,149.855337 19.116,150.036 C18.509804,150.377971 17.8359642,150.582786 17.142,150.636 C13.8488676,151.057661 10.5080453,150.39413 7.626,148.746 L7.8,148.746 C6.84470463,149.671145 5.58782463,150.220763 4.26,150.294 C4.16685954,150.311977 4.07114046,150.311977 3.978,150.294 C4.34294223,150.273764 4.70383329,150.207231 5.052,150.096 C6.03522665,149.842869 6.93375648,149.333564 7.656,148.62 L7.71,148.566 L7.776,148.602 C9.53436463,149.5671 11.4646716,150.178602 13.458,150.402 C14.6872662,150.55486 15.9307338,150.55486 17.16,150.402 C17.8080131,150.358944 18.4387601,150.174635 19.008,149.862 C19.2826535,149.709659 19.5044712,149.477379 19.644,149.196 C19.7724058,148.912055 19.7853163,148.589294 19.68,148.296 C19.42297,147.774833 19.0011674,147.35303 18.48,147.096 C17.9613213,146.812736 17.4263932,146.560298 16.878,146.34 L13.782,144.972 L8.544,142.638 L4.992,141 L4.044,140.55 C3.92801423,140.486923 3.82271728,140.405926 3.732,140.31 Z" id="Path" fill="#D69770"></path>
                        <path d="M8.15393658,133.266 C8.25956524,133.276764 8.36397185,133.296843 8.466,133.326 C8.75902079,133.391716 9.04759586,133.475884 9.33,133.578 C10.372172,133.960112 11.3619842,134.472153 12.276,135.102 C14.676,136.602 17.346,139.506 21.366,141.006 C22.3396337,141.412015 23.2443911,141.966609 24.048,142.65 C24.7774923,143.3309 25.2766364,144.222228 25.476,145.2 C25.674548,146.111464 25.4222042,147.062778 24.798,147.756 C24.2241612,148.316297 23.4578918,148.636112 22.656,148.65 C22.0118438,148.672802 21.3700564,148.560387 20.772,148.32 C20.3248791,148.151449 19.8949184,147.940487 19.488,147.69 C19.2259758,147.543107 18.971643,147.382898 18.726,147.21 C18.6331733,147.160948 18.5482285,147.09825 18.474,147.024 C18.84,147.198 19.194,147.384 19.542,147.588 C19.9567161,147.810862 20.3879935,148.001427 20.832,148.158 C21.4072604,148.369999 22.0198564,148.461889 22.632,148.428 C23.3692142,148.411318 24.0726035,148.11538 24.6,147.6 C25.1639064,146.968664 25.3874661,146.103489 25.2,145.278 C25.01618,144.356331 24.5457803,143.516331 23.856,142.878 C23.0707499,142.223057 22.1933392,141.687311 21.252,141.288 C20.2910728,140.889548 19.3535619,140.436819 18.444,139.932 C17.6118008,139.432554 16.8103572,138.883565 16.044,138.288 C14.58,137.16 13.32,136.074 12.168,135.288 C11.2807741,134.644218 10.3200022,134.108442 9.306,133.692 C8.568,133.398 8.148,133.302 8.15393658,133.266 Z" id="Path" fill="#D69770"></path>
                        <path d="M13.2,125.598 C13.3225553,125.63393 13.4396351,125.686414 13.548,125.754 L14.502,126.264 L17.988,128.184 L23.136,131.064 C24.1890815,131.589645 25.1659888,132.255718 26.04,133.044 C27.0168465,133.934087 27.502072,135.242184 27.342,136.554 C27.2224837,137.222737 26.8563422,137.822267 26.316,138.234 C25.7878775,138.619686 25.1666074,138.85784 24.516,138.924 C23.3191708,139.020562 22.1223802,138.737112 21.096,138.114 C20.106,137.574 19.248,136.95 18.408,136.44 C17.568,135.93 16.776,135.468 16.008,135.09 C14.8304141,134.488176 13.5912138,134.015429 12.312,133.68 C11.406,133.458 10.89,133.398 10.89,133.368 C11.0177186,133.355997 11.1462814,133.355997 11.274,133.368 C11.6327058,133.407957 11.9891612,133.466031 12.342,133.542 C13.6437104,133.834769 14.9064084,134.279835 16.104,134.868 C16.9274714,135.266117 17.7286571,135.708772 18.504,136.194 C19.332,136.71 20.22,137.316 21.186,137.838 C22.1540042,138.427799 23.2844262,138.694646 24.414,138.6 C25.0009708,138.535921 25.5602093,138.316368 26.034,137.964 C26.5104435,137.600446 26.8336289,137.071792 26.94,136.482 C27.0838394,135.271922 26.6373669,134.066446 25.74,133.242 C24.8874607,132.472705 23.9372853,131.819081 22.914,131.298 L17.796,128.358 L14.358,126.348 L13.434,125.79 C13.352267,125.73069 13.2741294,125.666577 13.2,125.598 Z" id="Path" fill="#D69770"></path>
                        <path d="M21.21,111.798 C21.2495221,111.90229 21.275729,112.01115 21.288,112.122 C21.2767343,112.256001 21.2526236,112.38861 21.216,112.518 C21.149374,112.68141 21.0605377,112.834855 20.952,112.974 C20.2864747,113.71879 19.4162319,114.250953 18.45,114.504 C17.5135009,114.807951 16.5293147,114.938091 15.546,114.888 C15.1305544,114.891523 14.7198996,114.799126 14.346,114.618 C14.346,114.564 14.808,114.666 15.546,114.666 C16.495973,114.653967 17.4386515,114.498202 18.342,114.204 C19.2438174,113.95589 20.0689961,113.485538 20.742,112.836 C20.8492375,112.719671 20.9419189,112.590723 21.018,112.452 C21.066,112.32 21.102,112.206 21.132,112.116 C21.1371958,112.005954 21.1636849,111.89796 21.21,111.798 Z" id="Path" fill="#D69770"></path>
                        <path d="M24.522,158.598 C24.0462938,157.064642 23.3336818,155.615124 22.41,154.302 C21.4020521,153.05248 20.2057283,151.967489 18.864,151.086 C19.3228911,151.22987 19.7547487,151.44884 20.142,151.734 C22.0848781,153.044937 23.5320249,154.969537 24.252,157.2 C24.4201226,157.647459 24.5114082,158.120116 24.522,158.598 Z" id="Path" fill="#D69770"></path>
                        <path d="M20.52,162.084 C20.4103205,162.183557 20.2895219,162.27013 20.16,162.342 C19.8132023,162.546915 19.4423862,162.708139 19.056,162.822 C17.7706564,163.225457 16.3904555,163.210752 15.114,162.78 C13.8392846,162.328303 12.7378342,161.489103 11.964,160.38 C11.7235914,160.052546 11.5222288,159.698147 11.364,159.324 C11.2915724,159.192831 11.2485763,159.047463 11.238,158.898 C11.292,158.898 11.514,159.462 12.12,160.248 C13.7135511,162.351949 16.4222445,163.281728 18.972,162.6 C19.956,162.366 20.496,162.036 20.52,162.084 Z" id="Path" fill="#D69770"></path>
                        <path d="M28.878,154.956 C28.5289417,155.074651 28.1564597,155.107578 27.792,155.052 C26.9041979,154.990473 26.0441205,154.716812 25.284,154.254 C24.51758,153.794511 23.8717307,153.158946 23.4,152.4 C23.186537,152.100188 23.0448861,151.755299 22.986,151.392 C23.034,151.392 23.202,151.752 23.586,152.28 C24.0822579,152.96388 24.710653,153.54127 25.434,153.978 C26.1696299,154.418248 26.9854414,154.707861 27.834,154.83 C28.1841911,154.851255 28.5328072,154.89333 28.878,154.956 L28.878,154.956 Z" id="Path" fill="#D69770"></path>
                        <path d="M31.452,144.33 C31.0030518,144.420215 30.539529,144.407909 30.096,144.294 C27.8684964,143.879853 26.0686601,142.238142 25.452,140.058 C25.2993231,139.627481 25.2439956,139.168467 25.29,138.714 C25.344,138.714 25.392,139.224 25.662,139.992 C26.0141469,140.989882 26.6029631,141.887518 27.378,142.608 C28.1613252,143.32006 29.1099991,143.825332 30.138,144.078 C30.918,144.276 31.452,144.276 31.452,144.33 Z" id="Path" fill="#D69770"></path>
                        <path d="M17.4,115.008 L29.166,138.798 C29.166,138.798 32.766,142.668 33.162,145.548 L38.292,152.31 L41.892,150.036 L39.426,142.104 C39.426,142.104 35.76,138.288 35.76,135.156 L22.338,112.5 L17.4,115.008 Z" id="Path" fill="#D61335"></path>
                        <path d="M35.772,135.162 C34.8556204,136.036213 33.8240781,136.781104 32.706,137.376 C31.6428052,138.068422 30.4791057,138.592593 29.256,138.93 C29.22,138.84 30.762,138.162 32.55,137.13 C34.338,136.098 35.718,135.09 35.772,135.162 Z" id="Path" fill="#2E353A"></path>
                        <path d="M39.342,142.11 C38.3963989,142.805006 37.3926891,143.417269 36.342,143.94 C35.3327647,144.557661 34.2681612,145.079919 33.162,145.5 C34.1104893,144.80931 35.1138274,144.197274 36.162,143.67 C37.1745912,143.058465 38.2386293,142.536484 39.342,142.11 Z" id="Path" fill="#2E353A"></path>
                        <path d="M25.956,118.578 C25.1500473,119.207454 24.2814749,119.752323 23.364,120.204 C22.4991639,120.751424 21.577843,121.204038 20.616,121.554 C21.4269487,120.92864 22.2970864,120.384051 23.214,119.928 C24.0793644,119.3853 24.9981865,118.932926 25.956,118.578 L25.956,118.578 Z" id="Path" fill="#2E353A"></path>
                        <path d="M30.816,130.944 L30.924,130.896 C31.517357,130.611176 32.2294045,130.857448 32.52,131.448 L35.16,136.632 C35.309806,136.914261 35.3408445,137.244615 35.2462359,137.549841 C35.1516273,137.855066 34.9391865,138.10995 34.656,138.258 L34.62,138.258 L34.62,138.258 C34.0334557,138.565979 33.3083011,138.340375 33,137.754 L33,137.754 L30.252,132.6 C29.9343353,132.021521 30.1434177,131.295094 30.72,130.974 L30.816,130.944 Z" id="Path" fill="#4D5A64"></path>
                        <path d="M126.516,217.8 L103.116,186.654 L120.516,168.75 L142.236,188.454 L147.942,154.632 L158.25,107.232 C158.25,107.232 179.052,114.138 179.052,132.81 C179.052,151.482 172.032,209.514 167.346,218.61 C165.624,221.952 164.112,225.576 161.826,228.066 C157.89,232.35 152.718,234.372 147.852,233.418 C134.13,230.694 126.516,217.8 126.516,217.8 Z" id="Path" fill="#00A0FF"></path>
                        <path d="M36.2519247,160.56 C36.2519247,160.56 36.18,157.098 40.488,157.176 C40.488,157.176 43.26,157.248 46.722,161.64 L49.722,162.714 L38.322,152.322 C38.322,152.322 40.5,149.406 42.888,150.096 C45.276,150.786 46.614,154.098 49.23,155.094 C51.846,156.09 55.314,158.868 55.314,158.868 L63.036,160.2 L63.732,159.354 L48.066,143.688 C48.066,143.688 50.694,140.01 53.85,142.488 C57.006,144.966 61.806,149.82 62.73,150.516 C63.654,151.212 67.116,153.594 67.116,153.594 L73.116,154.668 L77.58,153.054 C77.58,153.054 76.428,149.592 79.578,148.818 C82.728,148.044 89.892,151.284 89.892,151.284 C91.7078107,150.017176 93.8762147,149.35385 96.09,149.388 C99.942,149.388 102.906,152.778 103.134,155.388 C103.362,157.998 95.334,168.21 95.334,168.21 L92.052,170.208 L71.808,173.358 L68.034,172.974 L58.992,174.744 L40.848,168.822 C40.848,168.822 39.234,165.822 42.156,165.282 L36.2519247,160.56 Z" id="Path" fill="#EDBC9C"></path>
                        <path d="M68.856,165.546 C68.856,165.546 68.484,165.45 67.806,165.39 C66.8465052,165.349993 65.8871166,165.471692 64.968,165.75 C63.768,166.056 62.436,166.614 60.834,166.95 C59.0840363,167.286427 57.2827618,167.249625 55.548,166.842 C53.7,166.476 52.002,165.918 50.436,165.522 C49.0628811,165.146486 47.6560705,164.907328 46.236,164.808 C45.2758599,164.75975 44.313551,164.83843 43.374,165.042 C42.714,165.198 42.36,165.342 42.348,165.312 C42.336,165.282 42.432,165.258 42.594,165.192 C42.8387651,165.08978 43.0891736,165.001636 43.344,164.928 C44.2884669,164.675386 45.2647883,164.56219 46.242,164.592 C47.6854398,164.650838 49.1180407,164.868142 50.514,165.24 C52.092,165.63 53.79,166.176 55.614,166.536 C57.3107971,166.933504 59.071135,166.978431 60.786,166.668 C62.352,166.338 63.72,165.798 64.92,165.516 C65.8649631,165.258022 66.8480074,165.168654 67.824,165.252 C68.0863592,165.288544 68.3452431,165.346742 68.598,165.426 C68.6882362,165.456178 68.7747827,165.496432 68.856,165.546 L68.856,165.546 Z" id="Path" fill="#D69770"></path>
                        <path d="M64.14,164.856 C63.2766233,164.656254 62.40057,164.515925 61.518,164.436 C60.560236,164.381846 59.5994319,164.442274 58.656,164.616 C58.098,164.724 57.546,164.856 57,165.018 C56.3973361,165.226495 55.7553751,165.296229 55.122,165.222 C53.9483401,164.953262 52.8175847,164.523171 51.762,163.944 L49.164,162.642 C48.5804437,162.347324 47.9793078,162.088835 47.364,161.868 C46.932,161.706 46.68,161.67 46.6858952,161.64 C46.692,161.61 46.752,161.64 46.872,161.64 C47.0501343,161.66183 47.2265523,161.695911 47.4,161.742 C48.0325783,161.92734 48.6503207,162.159997 49.248,162.438 C50.004,162.774 50.886,163.212 51.876,163.68 C52.9118796,164.219153 54.0129588,164.622478 55.152,164.88 C55.7449892,164.945887 56.3452123,164.880333 56.91,164.688 C57.4619475,164.525471 58.0228987,164.395251 58.59,164.298 C59.5570808,164.13513 60.5408349,164.094812 61.518,164.178 C62.1746339,164.238162 62.8237586,164.362761 63.456,164.55 C63.6970876,164.619786 63.9272942,164.722773 64.14,164.856 Z" id="Path" fill="#D69770"></path>
                        <path d="M67.104,154.854 C67.164,154.926 66.39,155.592 65.748,156.654 C65.106,157.716 64.848,158.7 64.758,158.682 C64.7783502,157.897242 65.0287081,157.135736 65.478,156.492 C65.8435414,155.795345 66.4100517,155.224654 67.104,154.854 L67.104,154.854 Z" id="Path" fill="#D69770"></path>
                        <path d="M74.154,159.798 C74.058,159.798 74.154,158.778 73.986,157.566 C73.818,156.354 73.386,155.424 73.482,155.382 C74.3276296,156.690007 74.5722724,158.29766 74.154,159.798 Z" id="Path" fill="#D69770"></path>
                        <path d="M83.964,158.598 C83.3677398,158.898699 82.7476249,159.149555 82.11,159.348 C80.958,159.774 79.344,160.332 77.574,160.956 C77.136,161.112 76.698,161.25 76.284,161.412 L75.084,161.88 L73.074,162.666 C72.4636079,162.935441 71.8313077,163.15223 71.184,163.314 C71.7619201,162.985522 72.3635983,162.700728 72.984,162.462 L74.982,161.616 L76.182,161.124 C76.596,160.962 77.034,160.818 77.478,160.662 C79.278,160.062 80.874,159.51 82.044,159.138 C82.6694659,158.909837 83.3112976,158.729322 83.964,158.598 Z" id="Path" fill="#D69770"></path>
                        <path d="M93.402,161.958 C93.163672,161.911005 92.9305482,161.840665 92.706,161.748 L90.846,161.076 C89.274,160.512 87.102,159.738 84.678,158.946 C83.478,158.538 82.278,158.208 81.264,157.794 C80.3253114,157.451527 79.4688788,156.916001 78.75,156.222 C78.2674547,155.750925 77.9017225,155.173561 77.682,154.536 C77.5880589,154.306062 77.5470465,154.057937 77.562,153.81 C77.6246337,154.042971 77.7028088,154.271483 77.796,154.494 C78.0517135,155.090016 78.4298951,155.625603 78.906,156.066 C79.6235715,156.710189 80.4617257,157.20574 81.372,157.524 C82.392,157.914 83.568,158.238 84.78,158.646 C87.18,159.444 89.37,160.254 90.924,160.872 C91.698,161.178 92.322,161.442 92.724,161.634 C92.9634417,161.711271 93.1914656,161.820238 93.402,161.958 Z" id="Path" fill="#D69770"></path>
                        <path d="M96.0720489,152.706 C95.5807456,152.753199 95.0850115,152.712565 94.608,152.586 C93.4488457,152.356961 92.3031252,152.064522 91.176,151.71 C89.856,151.302 88.674,150.882 87.834,150.546 C87.3654281,150.405763 86.9175234,150.204004 86.502,149.946 C86.9825266,150.04256 87.4541616,150.179033 87.912,150.354 L91.266,151.428 C92.58,151.83 93.78,152.172 94.656,152.388 C95.532,152.604 96.078,152.664 96.0720489,152.706 Z" id="Path" fill="#D69770"></path>
                        <polygon id="Path" fill="#EDBC9C" points="91.674 170.244 104.202 185.712 118.344 170.976 102.306 153.456"></polygon>
                        <path d="M172.842,194.238 C172.834659,194.399676 172.812567,194.560343 172.776,194.718 C172.71,195.036 172.65,195.51 172.554,196.122 C172.356,197.322 172.056,199.17 171.63,201.522 C171.204,203.874 170.646,206.706 169.866,209.982 C169.022191,213.70591 167.896959,217.360406 166.5,220.914 C165.68063,222.990346 164.573829,224.941385 163.212,226.71 C161.695161,228.605073 159.839733,230.202124 157.74,231.42 C155.485053,232.720277 152.953669,233.466737 150.354,233.598 C147.594777,233.692032 144.848989,233.17361 142.314,232.08 C139.654407,230.950124 137.194742,229.398144 135.03,227.484 C132.784042,225.490011 130.714362,223.305907 128.844,220.956 C126.924,218.588 125.022,216.138 123.138,213.606 C121.254,211.074 119.34,208.52 117.396,205.944 L102.996,186.744 L102.918,186.642 L103.008,186.546 L120.408,168.654 L120.492,168.57 L120.576,168.636 C121.776,169.578 122.808,170.55 123.876,171.498 L126.966,174.294 L132.696,179.538 L142.296,188.388 L142.296,188.388 C145.396602,190.625884 147.742571,193.754541 149.022,197.358 C149.207384,197.908577 149.351778,198.472115 149.454,199.044 C149.548622,199.45448 149.610814,199.871767 149.64,200.292 C149.64,200.622 149.682,200.892 149.694,201.06 C149.701885,201.145819 149.701885,201.232181 149.694,201.318 C149.689787,201.231092 149.677738,201.144742 149.658,201.06 C149.622,200.886 149.616,200.628 149.58,200.298 C149.544707,199.879287 149.476496,199.464003 149.376,199.056 C149.261976,198.490913 149.111665,197.933759 148.926,197.388 C148.396184,195.872153 147.652684,194.439703 146.718,193.134 C146.135217,192.302047 145.485028,191.519411 144.774,190.794 C143.980776,189.964814 143.115366,189.207831 142.188,188.532 L142.188,188.532 L132.588,179.724 L126.852,174.468 L123.75,171.678 C122.694,170.742 121.614,169.746 120.48,168.846 L120.648,168.846 L103.248,186.762 L103.248,186.6 L117.648,205.8 C119.592,208.392 121.506,210.946 123.39,213.462 C125.274,215.978 127.172,218.424 129.084,220.8 C130.94866,223.134374 133.012404,225.302509 135.252,227.28 C137.391125,229.17268 139.822586,230.706527 142.452,231.822 C144.946742,232.90175 147.648917,233.418011 150.366,233.334 C152.915028,233.21311 155.399025,232.489296 157.614,231.222 C159.687578,230.028927 161.519194,228.457808 163.014,226.59 C164.371243,224.844376 165.474212,222.915189 166.29,220.86 C167.694769,217.320751 168.830003,213.680381 169.686,209.97 C170.484,206.7 171.054,203.856 171.486,201.534 C171.918,199.212 172.254,197.394 172.47,196.134 C172.578,195.534 172.662,195.06 172.722,194.736 C172.746644,194.566671 172.786813,194.399969 172.842,194.238 L172.842,194.238 Z" id="Path" fill="#2E353A"></path>
                        <path d="M149.46,133.014 C149.465781,133.061826 149.465781,133.110174 149.46,133.158 C149.443734,133.297657 149.417669,133.435998 149.382,133.572 C149.304,133.962 149.19,134.49 149.052,135.156 C148.758,136.524 148.344,138.51 147.852,140.97 C146.862,145.884 145.614,152.694 144.516,160.26 C143.418,167.826 142.686,174.72 142.242,179.712 C142.014,182.208 141.846,184.23 141.738,185.628 C141.684,186.306 141.636,186.828 141.606,187.236 C141.600707,187.376734 141.58668,187.517004 141.564,187.656 C141.569781,187.703826 141.569781,187.752174 141.564,187.8 C141.558219,187.752174 141.558219,187.703826 141.564,187.656 L141.564,187.236 C141.564,186.84 141.606,186.3 141.636,185.622 C141.708,184.218 141.84,182.196 142.038,179.694 C142.428,174.696 143.13,167.796 144.222,160.218 C145.314,152.64 146.622,145.818 147.654,140.922 C148.176,138.468 148.62,136.488 148.956,135.126 C149.118,134.466 149.244,133.926 149.34,133.56 L149.448,133.152 C149.443029,133.105657 149.447104,133.058789 149.46,133.014 Z" id="Path" fill="#2E353A"></path>
                        <path d="M157.956,169.086 C157.80215,168.991256 157.655728,168.884949 157.518,168.768 C157.248,168.546 156.87,168.21 156.414,167.79 C155.225796,166.683786 154.096253,165.516191 153.03,164.292 C151.965518,163.074126 150.964203,161.802456 150.03,160.482 C149.67,159.978 149.388,159.558 149.202,159.282 C149.091656,159.13633 149.004618,158.974398 148.944,158.802 C149.397298,159.297902 149.820076,159.820864 150.21,160.368 C150.972,161.346 152.01,162.684 153.288,164.106 C154.566,165.528 155.724,166.764 156.594,167.646 C157.07389,168.100834 157.528568,168.58155 157.956,169.086 Z" id="Path" fill="#FFFFFF"></path>
                        <path d="M164.922,152.106 C164.111888,153.843461 163.208574,155.535924 162.216,157.176 C161.311292,158.872239 160.309633,160.514959 159.216,162.096 C160.028639,160.359803 160.931883,158.667473 161.922,157.026 C162.829421,155.331311 163.830987,153.688742 164.922,152.106 L164.922,152.106 Z" id="Path" fill="#FFFFFF"></path>
                        <path d="M174.852,169.8 C174.774,169.83 173.55,167.112 172.128,163.728 C170.706,160.344 169.608,157.566 169.686,157.536 C169.764,157.506 170.988,160.218 172.41,163.608 C173.832,166.998 174.954,169.8 174.852,169.8 Z" id="Path" fill="#FFFFFF"></path>
                        <path d="M105.204,0.06 C108.708,-0.258 112.236,0.66 115.404,2.112 C123.33,5.712 129.42,12.612 133.452,20.328 C137.484,28.044 139.662,36.6 141.354,45.132 C143.524157,56.05049 145.009058,67.0940631 145.8,78.198 C146.04,81.546 147.81,105.876 148.2,110.826 L96.216,4.932 C98.226,2.046 101.7,0.378 105.204,0.06 Z" id="Path" fill="#2E353A"></path>
                        <path d="M123.336,20.154 L100.152,10.8 L94.08,11.49 C80.43,11.49 70.938,26.49 70.8,37.542 C70.638,49.824 70.932,64.83 72.84,73.896 C76.68,92.118 90.876,93.75 90.876,93.75 C90.876,93.75 90.714,98.73 90.564,104.844 C90.4432379,109.960996 92.3604594,114.916325 95.8937748,118.619555 C99.4270903,122.322784 104.286975,124.470467 109.404,124.59 L110.25,124.59 C120.718773,124.384768 129.109646,115.860707 129.15,105.39 L129.444,26.436 C129.346702,23.0742318 126.69371,20.3456635 123.336,20.154 Z" id="Path" fill="#EDBC9C"></path>
                        <path d="M76.716,50.964 C76.7616433,52.2479764 77.831572,53.2563841 79.116,53.226 C79.7122496,53.2470335 80.2923298,53.0297583 80.7280428,52.6221921 C81.1637558,52.214626 81.419228,51.6503251 81.438,51.054 L81.438,51 C81.386023,49.7189017 80.3199296,48.7141087 79.038,48.738 C77.7963797,48.7009362 76.7583944,49.6745503 76.716,50.916 L76.716,50.964 Z" id="Path" fill="#2E353A"></path>
                        <path d="M74.436,43.8 C74.748,44.094 76.464,42.684 79.002,42.564 C81.54,42.444 83.46,43.62 83.718,43.296 C83.844,43.152 83.52,42.612 82.68,42.06 C81.5442131,41.3585366 80.220966,41.0214436 78.888,41.094 C77.5729258,41.159928 76.3125827,41.6409589 75.288,42.468 C74.526,43.116 74.286,43.686 74.436,43.8 Z" id="Path" fill="#2E353A"></path>
                        <path d="M91.128,63.66 C91.128,63.516 89.544,63.324 86.97,63.126 C86.322,63.09 85.698,62.994 85.572,62.556 C85.5090723,61.8896481 85.6250607,61.2185725 85.908,60.612 C86.436,59.016 86.988,57.342 87.576,55.59 C89.88,48.438 91.518,42.6 91.2,42.48 C90.882,42.36 88.8,48.114 86.502,55.266 L84.918,60.312 C84.708,61.062 84.318,61.92 84.708,62.874 C84.9199975,63.3274959 85.3297448,63.6575086 85.818,63.768 C86.1827554,63.844777 86.5554791,63.8770126 86.928,63.864 C89.526,63.876 91.122,63.798 91.128,63.66 Z" id="Path" fill="#2E353A"></path>
                        <path d="M90.882,93.75 C99.5405124,93.4501424 107.945292,90.7496448 115.158,85.95 C115.158,85.95 109.242,99.012 90.762,98.214 L90.882,93.75 Z" id="Path" fill="#D69770"></path>
                        <path d="M92.502,69.72 C93.4214418,68.4349763 94.9392276,67.7157864 96.516,67.818 C97.6504315,67.8650188 98.7174963,68.3693314 99.474,69.216 C100.207319,70.0437693 100.348507,71.2402793 99.828,72.216 C99.192,73.212 97.77,73.506 96.546,73.224 C95.3221674,72.8551403 94.1854411,72.2428999 93.204,71.424 C92.9085308,71.2345283 92.6502686,70.9925346 92.442,70.71 C92.2401927,70.4306544 92.223687,70.0580978 92.4,69.762" id="Path" fill="#D69770"></path>
                        <path d="M98.652,65.04 C98.238,65.04 98.37,67.788 96.114,69.84 C93.858,71.892 90.912,71.76 90.906,72.144 C90.906,72.318 91.59,72.648 92.826,72.618 C94.440988,72.5639623 95.9844744,71.9389141 97.182,70.854 C98.3280621,69.8120753 99.0267931,68.3673145 99.132,66.822 C99.204,65.682 98.862,64.998 98.652,65.04 Z" id="Path" fill="#2E353A"></path>
                        <path d="M76.008,36.726 C76.482,37.278 78.198,36.594 80.298,36.462 C82.398,36.33 84.198,36.654 84.576,36.03 C84.738,35.73 84.432,35.166 83.628,34.662 C81.4239992,33.4388163 78.7010271,33.6588306 76.722,35.22 C76.008,35.85 75.798,36.456 76.008,36.726 Z" id="Path" fill="#2E353A"></path>
                        <path d="M105.126,50.814 C105.153389,52.0904614 104.157422,53.1556673 102.882,53.214 C101.639852,53.3250884 100.542129,52.4098725 100.428,51.168 L100.428,51.12 C100.406962,49.845976 101.399436,48.7845064 102.672,48.72 C103.917457,48.6089254 105.017857,49.5268202 105.132,50.772 L105.126,50.814 Z" id="Path" fill="#2E353A"></path>
                        <path d="M109.452,43.518 C109.164,43.83 107.358,42.528 104.82,42.57 C102.282,42.612 100.44,43.902 100.158,43.59 C100.02,43.458 100.314,42.894 101.118,42.294 C102.210073,41.526413 103.509227,41.1080058 104.844,41.094 C106.163251,41.0766907 107.454404,41.4755836 108.534,42.234 C109.35,42.798 109.62,43.398 109.452,43.518 Z" id="Path" fill="#2E353A"></path>
                        <path d="M108.372,35.466 C107.934,36.066 106.176,35.466 104.07,35.466 C101.964,35.466 100.194,35.904 99.774,35.304 C99.594,35.016 99.864,34.434 100.638,33.876 C102.761798,32.5209622 105.491392,32.5729995 107.562,34.008 C108.312,34.596 108.564,35.184 108.372,35.466 Z" id="Path" fill="#2E353A"></path>
                        <path d="M102.852,8.856 C108.72,6.456 117.702,7.29 122.742,11.118 C127.782,14.946 130.926,20.934 132.078,27.156 C133.23,33.378 131.688,42.6 130.044,48.714 C120.54,36.474 110.76,22.356 101.592,9.864 L102.852,8.856 Z" id="Path" fill="#2E353A"></path>
                        <path d="M98.334,3.294 C66.132,-1.242 69.18,39.93 69.18,39.93 L69.18,39.93 C83.22,29.904 97.302,10.74 97.302,10.74 L102.378,9.882 L98.334,3.294 Z" id="Path" fill="#2E353A"></path>
                        <path d="M125.784,57.462 C125.718,56.094 127.134,52.788 128.478,52.512 C132.078,51.768 138.576,51.732 139.098,60.912 C139.806,73.44 127.098,71.568 127.044,71.208 C126.99,70.848 126,62.184 125.784,57.462 Z" id="Path" fill="#EDBC9C"></path>
                        <path d="M130.602,66.198 C130.656,66.156 130.83,66.342 131.202,66.486 C131.731683,66.6848505 132.318621,66.6654297 132.834,66.432 C134.13,65.868 135.12,63.708 135.054,61.446 C135.028679,60.3698641 134.759957,59.3134382 134.268,58.356 C133.83,57.462 133.206,56.856 132.534,56.778 C132.010464,56.6711764 131.484666,56.9504277 131.28,57.444 C131.13,57.804 131.226,58.044 131.16,58.074 C131.094,58.104 130.878,57.882 130.95,57.36 C131.00409,57.0451771 131.162605,56.7577356 131.4,56.544 C131.736546,56.2679325 132.165705,56.1306016 132.6,56.16 C133.566,56.16 134.484,57.012 135,57.96 C135.594438,59.0128834 135.921979,60.1953251 135.954,61.404 C136.014,63.936 134.856,66.372 133.08,66.996 C132.409479,67.2450579 131.661685,67.1720485 131.052,66.798 C130.638,66.528 130.56,66.252 130.602,66.198 Z" id="Path" fill="#D69770"></path>
                        <path d="M95.544,9.882 C97.0940308,9.63586307 98.6815757,9.80351775 100.146,10.368 C101.146788,10.704623 102.124819,11.1054553 103.074,11.568 L103.842,11.952 C104.076,12.072 104.442,12.3 104.742,12.486 C105.344329,12.9000521 105.915828,13.3572519 106.452,13.854 C107.523796,14.8545714 108.52612,15.9270587 109.452,17.064 L110.85,18.726 C111.078,18.996 111.312,19.26 111.54,19.506 L112.314,20.4 C114.426,22.692 116.82,25.17 119.358,28.032 C122.187409,31.1367574 124.697996,34.5177079 126.852,38.124 C128.043905,40.1685212 129.065359,42.3077554 129.906,44.52 C130.724959,46.7934495 131.408162,49.1135347 131.952,51.468 C133.061922,56.3175499 133.681041,61.266479 133.8,66.24 C133.877095,69.2086008 133.788959,72.1791918 133.536,75.138 C142.649306,83.0261447 148.138518,94.2994088 148.728,106.338 C149.214,109.536 147.396,113.412 144.81,115.794 C144.350483,116.422093 143.838658,117.01019 143.28,117.552 C141.964077,118.896398 140.407003,119.981261 138.69,120.75 C137.478386,121.283916 136.183022,121.602682 134.862,121.692 C133.197824,121.819005 131.529613,121.504404 130.026,120.78 C128.399912,119.952174 127.001203,118.73886 125.952,117.246 C124.934046,115.812073 124.125902,114.240232 123.552,112.578 C122.301509,109.115273 121.669884,105.459568 121.686,101.778 C121.721803,97.8961946 122.070937,94.0236152 122.73,90.198 C123.33,86.31 124.062,82.47 124.476,78.57 C124.930904,74.5530056 125.107326,70.5093495 125.004,66.468 C124.903835,62.033595 124.413948,57.6165854 123.54,53.268 C123.130629,51.2425595 122.61593,49.239841 121.998,47.268 C121.389609,45.4431013 120.64139,43.667838 119.76,41.958 C117.993688,38.6728015 115.954518,35.5417922 113.664,32.598 C111.492,29.682 109.332,26.922 107.454,24.294 L106.752,23.304 C106.5,22.944 106.272,22.596 106.056,22.26 C105.618,21.582 105.24,20.952 104.856,20.352 C104.13,19.152 103.476,18.108 102.828,17.244 C102.533968,16.8517651 102.219535,16.4752463 101.886,16.116 C101.712,15.954 101.622,15.84 101.388,15.648 L100.788,15.138 C99.984,14.472 99.27,13.938 98.61,13.434 C97.6267229,12.7108742 96.5613118,12.1066713 95.436,11.634 C94.65,11.316 94.122,11.148 94.062,10.836 C94.002,10.524 94.452,10.128 95.544,9.882 Z" id="Path" fill="#2E353A"></path>
                        <path d="M176.34,122.736 C173.94,119.286 170.88,115.854 166.872,114.258 C162.378,112.458 155.01,114.858 150.672,117.036 C146.334,119.214 141.978,121.836 137.136,121.884 C135.01837,121.978891 132.937397,121.307953 131.274,119.994 C129.684,118.626 128.814,116.328 129.474,114.342 C130.392,111.66 133.494,110.562 135.732,108.822 C139.188,106.152 140.748,101.706 141.552,97.422 C142.356,93.138 142.59,88.68 144.186,84.612 C148.764,87.492 145.662,95.748 149.76,99.288 C151.944,101.178 155.16,100.824 158.052,101.184 C162.516,101.742 169.38,104.736 171.786,108.534 C174.192,112.332 178.122,117.798 176.31,122.748" id="Path" fill="#2E353A"></path>
                        <path d="M125.778,63.864 C125.778,79.998 121.242,97.602 122.208,107.622 C123.174,117.642 123.246,123.156 123.45,133.218 C123.63708,142.804505 121.571705,152.301118 117.42,160.944 C124.314,159.198 131.658,157.188 136.326,151.824 C141.558,145.824 142.086,137.196 143.058,129.282 C144.03,121.368 148.806,116.616 155.874,114.936 L125.778,63.864 Z" id="Path" fill="#2E353A"></path>
                    </g>
                </g>
                <path d="M321.5712,280.24 C321.5712,280.312 249.5712,280.3648 160.8,280.3648 C72.0288,280.3648 0,280.312 0,280.24 C0,280.168 71.9712,280.1152 160.8,280.1152 C249.6288,280.1152 321.5712,280.1728 321.5712,280.24 Z" id="Path" fill="#2E353A" fill-rule="nonzero"></path>
            </g>
        </g>
    </g>
</svg>