<?xml version="1.0" encoding="UTF-8"?>
<svg width="300px" height="300px" viewBox="0 0 300 300" version="1.1" xmlns="http://www.w3.org/2000/svg" xmlns:xlink="http://www.w3.org/1999/xlink">
    <title>Group 3</title>
    <g id="Page-1" stroke="none" stroke-width="1" fill="none" fill-rule="evenodd">
        <g id="Managing-your-Risk-Factors" transform="translate(-57.000000, -1487.000000)">
            <g id="Group-3" transform="translate(57.000000, 1487.000000)">
                <circle id="Mask-Copy-4" fill="#E13856" opacity="0.0770321801" cx="150" cy="150" r="150"></circle>
                <text id="IGT" opacity="0.463095022" transform="translate(57.000000, 107.000000) rotate(-15.000000) translate(-57.000000, -107.000000) " font-family="AvenirNext-Bold, Avenir Next" font-size="20.4" font-weight="bold" line-spacing="31.68" fill="#00A0FF">
                    <tspan x="40" y="111">IGT</tspan>
                </text>
                <g id="Asset-31" transform="translate(40.000000, 30.000000)" fill-rule="nonzero">
                    <path d="M29.57,234.75 C30.9390632,235.737036 32.4275603,236.546805 34,237.16 C35.5571593,237.761817 37.1724345,238.200823 38.82,238.47 C40.05,238.56 41.53,238.97 42.82,238.97 C56.45,237.88 69.97,237.73 83.52,237.6 L88.04,237.6 C89.57,237.75 91.1,237.86 92.63,237.94 C94.16,238.02 95.69,238.07 97.21,238.1 C102.21,238.34 107.3,238.35 112.37,238.21 L116.17,238.06 C117.62,237.82 119.07,237.6 120.52,237.44 C130.753092,236.651113 141.035555,236.758187 151.25,237.76 C152.52,237.96 153.79,238.11 155.05,238.19 C156.29205,238.269876 157.53795,238.269876 158.78,238.19 C160.03,238.19 161.28,238.19 162.53,238.12 C163.78,238.05 165.02,238.02 166.26,237.95 C167.17,237.89 168.07,237.81 168.97,237.72 C171.43,237.58 176.09,237.61 177.89,235.58 C180.43,232.71 176.83,230.79 174.03,230.2 C169.03,229.2 163.75,229.57 158.56,229.85 L155.44,230.02 C142.8,231.27 129.9,231.89 117.13,230.28 C115.6,230.19 114.08,230.15 112.55,230.13 C111.02,230.11 109.55,230.13 108,230.13 L104.76,230.04 C101.51,229.96 98.27,229.9 94.96,229.99 L92.16,229.99 L89.36,229.99 C75.36,229.74 61.21,231.61 47.26,229.62 C45.131638,229.441088 42.9944069,229.390996 40.86,229.47 C36.7191994,229.495098 32.6801288,230.755567 29.26,233.09 C29.1132086,233.661965 29.2266757,234.269563 29.57,234.75 Z" id="Path" fill="#181818" opacity="0.03"></path>
                    <path d="M150.87,188.5 C150.81,189.68 150.76,190.87 150.63,192.05 L150.63,192 C150.644469,192.183048 150.644469,192.366952 150.63,192.55 C150.52,193.94 150.39,195.33 150.25,196.72 C149.97,199.53 149.63,202.33 149.25,205.11 C148.5,210.65 147.6,216.11 146.67,221.63 C146.14,224.74 145.61,227.84 145.09,230.95 C144.92,231.95 145.37,233.18 146.09,233.41 C146.81,233.64 147.61,233.06 147.79,231.97 C149.65,220.87 151.7,209.82 152.88,198.51 C153.05,196.85 153.2,195.19 153.34,193.51 C153.48,191.83 153.58,190.18 153.67,188.51 C153.73,187.44 152.93,186.41 152.23,186.51 C151.53,186.61 150.92,187.42 150.86,188.58 L150.87,188.5 Z" id="Path" fill="#2C0000"></path>
                    <path d="M146.38,232.32 C146.704253,232.501246 147.038075,232.664819 147.38,232.81 C147.725356,232.960734 148.079304,233.09096 148.44,233.2 C149.952856,233.563102 151.50422,233.741072 153.06,233.73 C153.44425,233.713328 153.826006,233.659748 154.2,233.57 C154.487603,233.505975 154.771383,233.425848 155.05,233.33 C155.336316,233.225113 155.611093,233.091075 155.87,232.93 C156.216138,232.703265 156.458015,232.3483 156.542409,231.94321 C156.626803,231.53812 156.546799,231.116096 156.32,230.77 C155.89133,229.969062 155.233201,229.314415 154.43,228.89 C154.209213,228.788676 153.982066,228.701826 153.75,228.63 C151.574235,228.033717 149.248587,228.723659 147.75,230.41 C147.61,230.55 147.48,230.7 147.35,230.85 C147.2,231.24 146.79,231.45 146.64,231.85 C146.54,232.003333 146.453333,232.16 146.38,232.32 Z" id="Path" fill="#2C0000"></path>
                    <path d="M145.79,233.37 C146.687369,233.883332 147.658911,234.254408 148.67,234.47 C149.680458,234.676723 150.702234,234.823645 151.73,234.91 C152.794327,235.005596 153.867172,234.914218 154.9,234.64 C155.947675,234.441723 156.872825,233.833357 157.47,232.95 C158.41,231.1 156.88,228.95 155.29,227.95 C153.61003,227.027472 151.608901,226.892112 149.82,227.58 C148.799006,227.954638 147.868689,228.540772 147.09,229.3 L146.62,229.79 C146.495178,229.923863 146.381468,230.067672 146.28,230.22 C146.259406,230.279331 146.23259,230.336315 146.2,230.39 C146.29,230.27 146.29,230.26 146.2,230.39 C145.825094,230.769791 145.526381,231.217859 145.32,231.71 C145.109213,232.085129 145.114567,232.544216 145.334045,232.914327 C145.553523,233.284438 145.953781,233.509345 146.384045,233.504327 C146.814309,233.499309 147.209213,233.265129 147.42,232.89 C147.486667,232.73 147.566667,232.57 147.66,232.41 C147.66,232.35 147.85,232.12 147.66,232.34 L147.79,232.2 C147.944186,232.028916 148.087787,231.848581 148.22,231.66 C148.22,231.66 148.36,231.4 148.29,231.54 C148.22,231.68 148.24,231.54 148.29,231.48 L148.46,231.31 C148.58,231.18 148.71,231.04 148.84,230.92 L149,230.77 C149,230.77 149.25,230.56 149.12,230.66 C148.99,230.76 149.26,230.56 149.25,230.57 C149.24,230.58 149.4,230.47 149.47,230.42 C149.630797,230.310528 149.797738,230.210364 149.97,230.12 L150.25,229.98 L150.25,229.98 L150.73,229.8 C150.893745,229.746122 151.060748,229.702701 151.23,229.67 L151.43,229.67 C151.57,229.67 151.56,229.67 151.43,229.67 L151.63,229.67 C151.932818,229.645 152.237182,229.645 152.54,229.67 C152.6,229.67 152.92,229.73 152.62,229.67 L152.82,229.67 C153.020002,229.701284 153.217265,229.748092 153.41,229.81 L153.61,229.88 L153.8,229.96 C153.955478,230.03682 154.105795,230.12367 154.25,230.22 C154.44,230.34 154.25,230.22 154.25,230.22 L154.48,230.42 L154.62,230.56 C154.62,230.56 154.88,230.85 154.8,230.75 C154.72,230.65 154.9,230.89 154.89,230.88 L155.02,231.05 L155.19,231.33 C155.33,231.52 155.19,231.33 155.19,231.33 C155.19,231.33 155.35,231.67 155.32,231.76 L155.32,231.61 C155.32,231.67 155.32,231.73 155.32,231.78 L155.32,231.87 C155.32,232.01 155.32,231.98 155.32,231.8 C155.32,231.8 155.32,231.96 155.32,231.96 L155.37,231.83 C155.349342,231.879853 155.322462,231.926893 155.29,231.97 L155.29,231.97 L155.39,231.89 L155.23,231.99 L155.03,232.11 C155.03,232.11 154.68,232.28 154.9,232.18 C154.710592,232.260399 154.516976,232.330502 154.32,232.39 L153.72,232.54 L153.54,232.54 L153.28,232.54 C152.823828,232.570053 152.366172,232.570053 151.91,232.54 L151.23,232.48 C151,232.48 151.51,232.48 151.12,232.48 L150.75,232.48 C150.29,232.41 149.82,232.33 149.36,232.24 C148.938051,232.165387 148.52322,232.054988 148.12,231.91 C147.74,231.77 148.22,231.91 148,231.86 L147.6,231.69 L146.94,231.35 C146.360101,231.026913 145.628087,231.235101 145.305,231.815 C144.981913,232.394899 145.190101,233.126913 145.77,233.45 L145.79,233.37 Z" id="Path" fill="#2C0000"></path>
                    <path d="M110.49,188.55 C110.54,189.25 110.59,189.95 110.65,190.65 L110.74,191.65 C110.74,191.79 110.74,191.94 110.74,192.08 C110.74,191.81 110.74,192.46 110.74,192.54 C110.88,193.93 111.03,195.31 111.2,196.7 C111.53,199.5 111.92,202.29 112.35,205.07 C113.21,210.6 114.21,216.07 115.24,221.54 C115.82,224.63 116.42,227.73 116.99,230.82 C117.18,231.82 116.75,233.06 115.99,233.31 C115.23,233.56 114.46,232.99 114.26,231.9 C112.2,220.84 109.95,209.82 108.56,198.53 C108.35,196.88 108.17,195.22 108,193.53 C107.83,191.84 107.7,190.2 107.58,188.53 C107.5,187.48 108.27,186.47 108.98,186.53 C109.69,186.59 110.3,187.42 110.39,188.53 L110.49,188.55 Z" id="Path" fill="#2C0000"></path>
                    <path d="M115.79,232.23 C115.468426,232.422134 115.134345,232.592515 114.79,232.74 C114.45,232.89 114.09,233.03 113.73,233.15 C112.223798,233.540998 110.675985,233.749164 109.12,233.77 C108.736843,233.754197 108.355596,233.707377 107.98,233.63 C107.692532,233.569526 107.408739,233.492735 107.13,233.4 C106.841116,233.301924 106.563006,233.174597 106.3,233.02 C105.571343,232.561349 105.352038,231.59909 105.81,230.87 C106.226268,230.059988 106.873608,229.391767 107.67,228.95 C107.887017,228.842218 108.110824,228.748687 108.34,228.67 C110.512036,228.031275 112.858288,228.682796 114.39,230.35 C114.534179,230.485977 114.671039,230.629513 114.8,230.78 C114.96,231.16 115.37,231.37 115.53,231.78 C115.629521,231.922197 115.716514,232.072761 115.79,232.23 L115.79,232.23 Z" id="Path" fill="#2C0000"></path>
                    <path d="M116.4,233.27 C115.512854,233.800905 114.547729,234.18898 113.54,234.42 C112.53501,234.651405 111.516271,234.818411 110.49,234.92 C109.429079,235.030754 108.35704,234.959736 107.32,234.71 C106.262968,234.541571 105.320365,233.949284 104.71,233.07 C103.71,231.23 105.23,229.07 106.8,228.07 C108.465437,227.117881 110.464193,226.942488 112.27,227.59 C113.299383,227.946547 114.240481,228.51939 115.03,229.27 C115.19,229.42 115.35,229.59 115.5,229.75 C115.627319,229.880768 115.744335,230.021187 115.85,230.17 C115.872034,230.230538 115.90232,230.287745 115.94,230.34 C115.84,230.22 115.84,230.21 115.94,230.34 C116.317689,230.721679 116.62267,231.168985 116.84,231.66 C117.174132,232.234376 116.979376,232.970868 116.405,233.305 C115.830624,233.639132 115.094132,233.444376 114.76,232.87 C114.69,232.71 114.6,232.55 114.51,232.39 C114.42,232.23 114.32,232.11 114.51,232.32 L114.38,232.18 C114.219875,232.018518 114.072751,231.844644 113.94,231.66 C113.94,231.66 113.79,231.4 113.87,231.53 L113.87,231.48 L113.71,231.31 L113.32,230.93 L113.16,230.78 L113.03,230.68 L112.89,230.58 C112.820499,230.527568 112.746933,230.480753 112.67,230.44 C112.509065,230.333773 112.342119,230.236944 112.17,230.15 L111.89,230.01 L111.89,230.01 L111.4,229.84 C111.24,229.84 111.07,229.75 110.9,229.72 L110.7,229.72 C110.56,229.72 110.57,229.72 110.7,229.72 L110.5,229.72 C110.196996,229.700005 109.893004,229.700005 109.59,229.72 C109.53,229.72 109.21,229.79 109.51,229.72 L109.31,229.72 C109.110785,229.75938 108.913833,229.809452 108.72,229.87 L108.53,229.94 L108.34,230.03 C108.184415,230.110346 108.03411,230.200529 107.89,230.3 C107.7,230.42 107.89,230.3 107.89,230.3 L107.67,230.51 L107.52,230.65 L107.35,230.85 C107.46,230.71 107.26,230.99 107.26,230.98 L107.14,231.16 L106.97,231.43 C106.84,231.63 106.97,231.43 106.97,231.43 C106.97,231.43 106.81,231.77 106.85,231.86 L106.85,231.72 C106.845175,231.776564 106.845175,231.833436 106.85,231.89 L106.85,231.98 C106.85,232.11 106.85,232.09 106.85,231.91 C106.85,231.91 106.85,232.06 106.85,232.07 L106.79,231.94 C106.816421,231.988873 106.846508,232.035673 106.88,232.08 C106.77,231.87 106.81,231.97 106.88,232.03 L106.78,231.96 L106.95,232.06 L107.14,232.17 C107.14,232.17 107.5,232.33 107.27,232.24 C107.461538,232.318275 107.658779,232.381794 107.86,232.43 C108.06,232.49 108.26,232.53 108.46,232.57 C108.46,232.57 108.87,232.63 108.65,232.57 L108.9,232.57 C109.356173,232.600024 109.813827,232.600024 110.27,232.57 L110.95,232.5 C111.19,232.5 110.67,232.55 111.06,232.5 L111.43,232.44 C111.89,232.37 112.36,232.27 112.82,232.17 C113.238899,232.087241 113.650285,231.97018 114.05,231.82 C114.42,231.68 113.95,231.82 114.17,231.82 L114.56,231.63 C114.78,231.52 115,231.41 115.22,231.28 C115.794376,230.945868 116.530868,231.140624 116.865,231.715 C117.199132,232.289376 117.004376,233.025868 116.43,233.36 L116.4,233.27 Z" id="Path" fill="#2C0000"></path>
                    <path d="M143.38,0.87 C143.226018,0.450724697 142.871861,0.136737854 142.437157,0.0340994277 C142.002453,-0.0685389991 141.545256,0.0538780624 141.22,0.36 C136.69,4.61 122.4,15.36 120.78,16.76 C112.906448,23.557172 105.408692,30.7778517 98.32,38.39 C87.37,50.16 76.77,63.09 68.11,77.14 C63.7612612,84.1205249 59.9630974,91.4293156 56.75,99 C47.75,120 44.18,144.06 52.14,166.12 C57.8039016,181.74717 68.6442907,194.965952 82.86,203.58 C107.99,219.25 138.01,219.58 164.36,209.1 C184.49,201.1 201.65,185.64 209.36,165.34 C212.230462,158.014756 213.954053,150.290641 214.47,142.44 C214.998151,134.290926 214.293551,126.108808 212.38,118.17 C208.26,101 198,85 187.38,71 C173.2,52.36 158.58,35.9 149.47,15.17 C147.25,10.56 145.21,5.81 143.38,0.87 Z" id="Path" fill="#D14D4D"></path>
                    <path d="M211.48,117.69 C207.6,96.91 193.48,80.69 180.87,64.69 C178.42,61.55 175.99,58.4 173.62,55.21 C161.72,39.3 151,22.6 144.22,3.78 C144.53,18.62 148.22,32.42 153.7,45.73 C155.07,49.05 156.56,52.35 158.13,55.63 C160,59.49 162,63.25 164.05,67 C166.1,70.75 168.23,74.43 170.28,78.19 C177.75,92.73 185.8,106.74 189.92,123.1 C194.38,140.7 191.49,159.34 181.28,173.88 C180.131368,175.533931 178.89632,177.126142 177.58,178.65 C176.5,180.03 175.35,181.37 174.16,182.65 C172.97,183.93 171.73,185.17 170.44,186.34 C168.96,187.673333 167.43,188.946667 165.85,190.16 C162.690665,192.627263 159.293977,194.774479 155.71,196.57 C152.144862,198.358769 148.426674,199.824625 144.6,200.95 C132.49,204.47 119.17,205.3 106.84,202.46 C104.202078,201.667897 101.682789,200.524295 99.35,199.06 C97.0025023,197.597747 94.8660359,195.821284 93,193.78 C91.9780073,192.6248 91.0484733,191.390995 90.22,190.09 C87.31,185.31 88.77,179.28 89.95,173.83 C90.28,172.13 90.6,170.42 90.83,168.72 C91.0720137,167.048054 91.1756986,165.358994 91.14,163.67 C91.2374918,160.10114 91.0199822,156.530636 90.49,153 C89.9259419,149.390285 88.9599377,145.854978 87.61,142.46 C87.0004962,140.668623 86.2687773,138.921184 85.42,137.23 C82.07,130.6 76.72,125.48 68.52,123.72 C66.9432168,123.410358 65.335631,123.286181 63.73,123.35 C64.58,124.02 65.42,124.72 66.23,125.43 C71.7888541,129.19471 76.2696647,134.344196 79.23,140.37 C79.9801915,141.855399 80.6478725,143.38105 81.23,144.94 C83.1565921,149.684983 84.2590918,154.724015 84.49,159.84 C84.5506217,161.545447 84.4904714,163.253046 84.31,164.95 C84.04,172.85 78.84,179.51 72.19,183.04 C65.95,186.37 61.79,179.51 58.09,175.74 C56.8166667,174.3 55.6,172.773333 54.44,171.16 C55.2066667,172.866667 56.04,174.533333 56.94,176.16 C60.42702,182.397334 64.7653175,188.118905 69.83,193.16 C70.83,194.16 71.83,195.16 72.94,196.08 C76.0938427,199.018525 79.5305679,201.637939 83.2,203.9 C86.8459323,206.142097 90.6764866,208.069084 94.65,209.66 C111.65,216.3 131.03,218.8 148.99,214.32 C152.374397,213.559283 155.713062,212.607764 158.99,211.47 C168.529323,208.125481 177.444726,203.214912 185.37,196.94 C187.817212,194.991381 190.154154,192.908164 192.37,190.7 C195.318138,187.765583 198.01742,184.591335 200.44,181.21 C210.97,166.5 215.35,147.77 213.44,129.91 C213.069293,125.796336 212.414396,121.713252 211.48,117.69 L211.48,117.69 Z" id="Path" fill="#C93C3C"></path>
                    <path d="M95.52,146.57 C95.4384621,142.749252 97.9916103,139.372641 101.69,138.41 C104.440725,137.786548 107.307277,138.774347 109.09,140.96 C110.917354,143.197378 111.496152,146.204122 110.63,148.96 C109.730623,152.02666 107.092406,154.263836 103.92,154.65 C100.52029,154.904305 97.3554028,152.901366 96.13,149.72 C95.7292431,148.718039 95.5222486,147.649133 95.52,146.57 Z" id="Path" fill="#2C0000"></path>
                    <path d="M99.39,145.55 C99.4229788,144.379396 100.168678,143.34811 101.27,142.95 C102.132498,142.679863 103.073201,142.867936 103.765533,143.448929 C104.457866,144.029922 104.806348,144.923707 104.69,145.82 C104.566281,146.800449 103.918674,147.635823 103,148 C102.021705,148.428336 100.88063,148.209663 100.13,147.45 C99.636896,146.942571 99.3699907,146.257273 99.39,145.55 Z" id="Path" fill="#FFFFFF"></path>
                    <path d="M151.35,146.6 C151.293426,142.991559 153.572317,139.75909 156.99,138.6 C161.141271,137.520438 165.385266,139.995357 166.49,144.14 C167.438503,147.258785 166.54433,150.645803 164.18,152.89 C162.019952,154.888743 158.88766,155.432979 156.18,154.28 C153.901223,153.255335 152.212194,151.249842 151.59,148.83 C151.414777,148.100021 151.334116,147.350546 151.35,146.6 L151.35,146.6 Z" id="Path" fill="#2C0000"></path>
                    <path d="M155.07,145.64 C155.096362,144.567396 155.733331,143.604175 156.71,143.16 C157.980655,142.621265 159.452064,143.147985 160.092167,144.370714 C160.732271,145.593442 160.326732,147.102753 159.16,147.84 C158.117017,148.545595 156.718314,148.402354 155.84,147.5 C155.346817,147.006653 155.069836,146.337582 155.07,145.64 Z" id="Path" fill="#FFFFFF"></path>
                    <path d="M102.53,156.34 C100.396519,156.554816 98.4359183,157.608864 97.08,159.27 C96.2870763,160.290885 96.2626366,161.712462 97.02,162.76 C98.59,164.87 101.51,165.49 104.02,165.19 C106.02,164.94 108.9,163.89 109.82,161.93 C110.91,159.63 108.48,157.51 106.54,156.74 C105.256308,156.280074 103.879249,156.142712 102.53,156.34 Z" id="Path" fill="#E9A6A6"></path>
                    <path d="M102.44,156 C100.07,156.34 96.95,157.66 96.26,160.22 C95.57,162.78 98.26,164.7 100.45,165.27 C102.801608,165.839435 105.278399,165.566988 107.45,164.5 C109.45,163.55 111.22,161.58 110.11,159.31 C108.77,156.58 105.35,155.65 102.57,155.98 C102.15,156.03 102.14,156.7 102.57,156.64 C104.857454,156.253134 107.190573,156.99854 108.83,158.64 C109.612552,159.355023 109.939066,160.442124 109.68,161.47 C109.281133,162.43924 108.541242,163.228931 107.6,163.69 C105.859379,164.650086 103.867945,165.058138 101.89,164.86 C99.95,164.67 96.89,163.51 96.89,161.17 C96.9897047,159.847043 97.7388787,158.659602 98.89,158 C100.014482,157.279577 101.285198,156.81843 102.61,156.65 C103,156.6 102.85,156 102.44,156 Z" id="Path" fill="#E9A6A6"></path>
                    <path d="M159.85,156.34 C161.982548,156.548724 163.94223,157.604214 165.29,159.27 C166.089261,160.287462 166.11782,161.711307 165.36,162.76 C163.78,164.87 160.87,165.49 158.36,165.19 C156.36,164.94 153.48,163.89 152.55,161.93 C151.46,159.63 153.9,157.51 155.84,156.74 C157.123692,156.280074 158.500751,156.142712 159.85,156.34 Z" id="Path" fill="#E9A6A6"></path>
                    <path d="M159.76,156.66 C161.86,156.97 164.67,158.03 165.43,160.24 C166.27,162.7 163.38,164.33 161.43,164.75 C159.431015,165.139362 157.360225,164.891007 155.51,164.04 C153.71,163.21 151.83,161.45 153.08,159.37 C154.48,157.06 157.39,156.37 159.89,156.67 C160.31,156.73 160.31,156.06 159.89,156.01 C157.238516,155.565714 154.548891,156.54963 152.81,158.6 C152.092438,159.449428 151.841588,160.598845 152.14,161.67 C152.529159,162.694991 153.265118,163.551251 154.22,164.09 C156.261619,165.334624 158.674126,165.826323 161.04,165.48 C163.22,165.17 166.2,163.75 166.28,161.19 C166.37,158.09 162.53,156.39 159.98,156.03 C159.52,156 159.34,156.6 159.76,156.66 Z" id="Path" fill="#E9A6A6"></path>
                    <path d="M111.8,40.82 C104.8,42.04 97.43,49.24 95.8,56.66 C95.4698409,58.112945 95.4021086,59.6132153 95.6,61.09 C95.94,62.58 96.43,64.19 97.83,64.91 C106.76,70.14 116.55,58.91 119.74,51.55 C121.38,47.78 121.13,42.37 116.41,41.23 C114.934645,40.6969746 113.346266,40.5557088 111.8,40.82 Z" id="Path" fill="#FFFFFF"></path>
                    <path d="M89.18,70.24 C86.2033579,71.0914917 83.7795356,73.2574605 82.6,76.12 C81.16,79.84 81,86 85.54,86.92 C90.73,87.92 95.24,83.01 96.75,78.17 C97.525533,75.9561191 97.1507998,73.5016164 95.75,71.62 C94.14,69.74 91.57,69.54 89.18,70.24 Z" id="Path" fill="#FFFFFF"></path>
                    <path d="M51.6,209.09 L40.46,209.42 C40.1803225,209.419103 39.9130499,209.535369 39.7230338,209.740587 C39.5330176,209.945804 39.4376242,210.221218 39.46,210.5 L40,228.58 C40.0978997,231.498812 42.5304591,233.793006 45.45,233.72 L48.11,233.64 C51.0297296,233.547513 53.3241398,231.109982 53.24,228.19 L52.71,210.11 C52.7023543,209.826051 52.579992,209.557315 52.370837,209.365119 C52.161682,209.172922 51.8835815,209.073666 51.6,209.09 Z" id="Path" fill="#00A0FF"></path>
                    <path d="M49,212.49 L43.36,212.65 C43.07,212.65 42.84,213.01 42.85,213.43 C42.85,213.43 43.24,226.59 43.24,226.61 C43.31,228.82 45.12,231 47.52,230.32 C49.1296442,229.728017 50.1281701,228.114696 49.94,226.41 L49.55,213.23 C49.49,212.81 49.24,212.48 49,212.49 Z" id="Path" fill="#FFFFFF"></path>
                    <path d="M48.58,114.45 C42.3224586,113.928671 36.0225036,114.572907 30,116.35 C16.46,120.43 5.16,131.42 1.85,145.92 C-3.46,169.13 6.36,197.98 26.75,209.86 C40.3297534,217.77767 57.4337148,216.228602 69.37,206 C88.81,189.47 94.84,153.1 79.98,131.32 C72.82,120.8 60.61,115.44 48.58,114.45 Z" id="Path" fill="#00A0FF"></path>
                    <path d="M48.58,114.45 C42.3224586,113.928671 36.0225036,114.572907 30,116.35 C16.46,120.43 5.16,131.42 1.85,145.92 C-3.46,169.13 6.36,197.98 26.75,209.86 C40.3297534,217.77767 57.4337148,216.228602 69.37,206 C88.81,189.47 94.84,153.1 79.98,131.32 C72.82,120.8 60.61,115.44 48.58,114.45 Z" id="Path" fill="#1F90C9"></path>
                    <path d="M25.08,208.82 C27.4992192,207.536031 30.0379044,206.491084 32.66,205.7 C38.6750094,203.919657 44.9690252,203.275334 51.22,203.8 C56.6803824,204.216873 62.028363,205.569936 67.03,207.8 C67.83,207.22 68.61,206.61 69.37,205.96 C88.81,189.43 94.84,153.06 79.98,131.28 C72.82,120.77 60.61,115.41 48.58,114.42 C42.3206009,113.90839 36.0206102,114.562803 30,116.35 C16.46,120.43 5.16,131.42 1.85,145.92 C-3.29,168.48 5.84,196.37 25.08,208.82 Z" id="Path" fill="#00A0FF"></path>
                    <path d="M74,135.72 C72.9947253,134.260659 71.5467756,133.163303 69.87,132.59 C68.361485,132.067685 66.784937,131.767871 65.19,131.7 C63.64,131.6 62.07,131.7 60.52,131.7 L25,132.79 C22.4704283,132.713298 19.9483614,133.103133 17.56,133.94 C13.9229302,135.494903 11.5874162,139.094993 11.65,143.05 C11.91,151.976667 12.1766667,160.903333 12.45,169.83 C12.73,179.5 19.65,182.56 29.01,182.24 L60.45,181.15 C66.45,180.95 74.68,180.47 76.61,173.91 C77.1013837,171.845086 77.2700488,169.716533 77.11,167.6 C76.9566667,161.773333 76.8033333,155.943333 76.65,150.11 C76.54,145.36 76.88,139.89 74,135.72 Z" id="Path" fill="#2C0000"></path>
                    <polygon id="Path" fill="#2C0000" points="47.31 132.1 29.79 182.21 39.51 181.88 53.66 131.88"></polygon>
                    <path d="M74,135.72 C72.9947253,134.260659 71.5467756,133.163303 69.87,132.59 C68.361485,132.067685 66.784937,131.767871 65.19,131.7 C63.64,131.6 62.07,131.7 60.52,131.7 L53.65,131.92 L39.5,181.92 L48.88,181.59 L74,135.72 Z" id="Path" fill="#360000"></path>
                    <path d="M76.66,150.11 C76.54,145.36 76.88,139.89 74.02,135.72 L48.89,181.55 L60.46,181.15 C66.46,180.95 74.69,180.47 76.62,173.91 C77.1113837,171.845086 77.2800488,169.716533 77.12,167.6 C76.9733333,161.773333 76.82,155.943333 76.66,150.11 Z" id="Path" fill="#2C0000"></path>
                    <path d="M25,132.79 L19.09,180.79 C22.2405613,182.00757 25.6206258,182.516287 28.99,182.28 L29.76,182.28 L47.31,132.1 L25,132.79 Z" id="Path" fill="#360000"></path>
                    <path d="M25,132.79 C22.4704283,132.713298 19.9483614,133.103133 17.56,133.94 C13.9229302,135.494903 11.5874162,139.094993 11.65,143.05 C11.91,151.976667 12.1766667,160.903333 12.45,169.83 C12.62,175.58 15.13,178.99 19.11,180.75 L25.02,132.75 L25,132.79 Z" id="Path" fill="#2C0000"></path>
                    <path d="M40.91,190.51 L35.91,193.59 C35.6301006,193.782552 35.4671062,194.10404 35.4772128,194.443625 C35.4873195,194.783209 35.6691448,195.094435 35.96,195.27 L41.14,198.05 C41.4452589,198.191426 41.8011731,198.169878 42.0871408,197.992659 C42.3731086,197.81544 42.5507984,197.506303 42.56,197.17 L42.39,191.3 C42.3611184,190.96251 42.1633569,190.662582 41.8645394,190.503078 C41.5657218,190.343574 41.2064729,190.346179 40.91,190.51 Z" id="Path" fill="#FFFFFF"></path>
                    <path d="M49.84,197.8 L54.84,194.71 C55.1154311,194.51671 55.2751865,194.197859 55.2651166,193.861523 C55.2550466,193.525188 55.0765016,193.216466 54.79,193.04 L49.62,190.25 C49.3138113,190.104061 48.9545186,190.123279 48.6656448,190.301048 C48.376771,190.478816 48.1977017,190.790898 48.19,191.13 L48.36,197 C48.385756,197.339295 48.5822755,197.642209 48.8816142,197.804014 C49.1809528,197.965819 49.5420271,197.964306 49.84,197.8 Z" id="Path" fill="#FFFFFF"></path>
                    <path d="M6.21,190.29 C4.54,189.96 3.36,188.61 2.35,187.43 C1.97707132,186.961084 1.6426494,186.462795 1.35,185.94 C1.06409888,185.423671 0.819986,184.885285 0.62,184.33 C0.2085601,183.233306 -0.00147600843,182.071332 -7.72552196e-06,180.9 C-7.72552196e-06,178.76 0.62,175.66 3.49,175.61 C9.04,175.5 12.13,182.2 11.57,186.85 C11.5098022,187.52243 11.3051399,188.173939 10.97,188.76 C10.3379632,189.696262 9.31568092,190.295658 8.19,190.39 C7.52854635,190.448127 6.86223139,190.414474 6.21,190.29 L6.21,190.29 Z" id="Path" fill="#2C0000"></path>
                    <path d="M125.74,152.81 L126,152.81 C128.734629,152.916736 131.473249,152.85328 134.2,152.62 C134.774694,152.570891 135.317107,152.892321 135.55,153.42 C135.682739,153.682859 135.767405,153.967336 135.8,154.26 C135.98,156.05 134.15,156.44 132.74,156.51 C130.785363,156.715045 128.814637,156.715045 126.86,156.51 C125.922905,156.470813 125.03152,156.094371 124.35,155.45 C124.071961,155.026274 123.994945,154.501494 124.139513,154.015748 C124.28408,153.530001 124.635514,153.132736 125.1,152.93 C125.306123,152.858185 125.521862,152.817734 125.74,152.81 L125.74,152.81 Z" id="Path" fill="#2C0000"></path>
                    <path d="M180.59,172.87 C178.96,178.18 174.5,181.7 169.32,183.34 C163.713429,185.130447 157.649264,184.839311 152.24,182.52 C148.832647,181.026405 145.751193,178.879239 143.17,176.2 C142.545979,175.647397 142.462563,174.703476 142.98,174.05 C143.521429,173.412264 144.474683,173.327629 145.12,173.86 C149.078233,178.142038 154.460064,180.836508 160.26,181.44 C164.819119,181.820592 169.37284,180.646916 173.18,178.11 C175.251538,176.720249 176.805503,174.684625 177.6,172.32 C177.775412,171.509834 178.550445,170.975631 179.37,171.1 C180.192473,171.256792 180.73615,172.04557 180.59,172.87 Z" id="Path" fill="#2C0000"></path>
                    <path d="M139.66,165.16 C141.586983,165.184188 143.38758,166.123468 144.51,167.69 C144.750543,167.574042 145.006487,167.493218 145.27,167.45 C145.88332,167.330824 146.519049,167.43737 147.06,167.75 C147.589195,168.141368 147.947317,168.721526 148.06,169.37 C148.300542,170.473115 148.18861,171.623915 147.74,172.66 C147.01997,174.602123 145.436105,176.09784 143.455977,176.705602 C141.475848,177.313364 139.325598,176.963762 137.64,175.76 C135.544952,174.332943 134.465086,171.822351 134.87,169.32 C135.324919,166.999627 137.298779,165.285377 139.66,165.16 L139.66,165.16 Z" id="Path" fill="#2C0000"></path>
                    <path d="M32.32,149.5 L32.84,168.64 C32.8643429,169.252306 32.6400973,169.848443 32.2182371,170.292903 C31.7963769,170.737363 31.2127419,170.992385 30.6,171 C29.9958604,171.02999 29.4056426,170.812163 28.965832,170.396892 C28.5260214,169.98162 28.2747055,169.404865 28.27,168.8 L27.9,155.1 C27.0056917,155.865105 25.6759892,155.823786 24.8309108,155.00463 C23.9858325,154.185474 23.9031191,152.857704 24.64,151.94 L27.64,148.13 C28.0706594,147.658086 28.6717039,147.377359 29.31,147.35 L29.92,147.35 C30.5246003,147.311812 31.1192202,147.517955 31.5704452,147.922177 C32.0216703,148.3264 32.2917187,148.894855 32.32,149.5 Z" id="Path" fill="#FFFFFF"></path>
                    <path d="M42.3,149.24 L42.81,168.38 C42.823391,168.985489 42.5942686,169.571224 42.1735963,170.006921 C41.7529239,170.442617 41.1755863,170.692144 40.57,170.7 C39.9666128,170.727132 39.3780272,170.508346 38.9388612,170.093683 C38.4996953,169.67902 38.2475158,169.10395 38.24,168.5 L37.88,154.8 C36.989145,155.594095 35.6366611,155.566867 34.7784875,154.737562 C33.9203139,153.908257 33.8468412,152.557495 34.61,151.64 L37.61,147.84 C38.0375852,147.362544 38.6396687,147.077726 39.28,147.05 L39.89,147.05 C40.5015567,147.014634 41.101619,147.226846 41.5549754,147.638817 C42.0083318,148.050788 42.276841,148.62786 42.3,149.24 Z" id="Path" fill="#FFFFFF"></path>
                    <path d="M54.34,170.67 C48.93,170.82 44.42,165.46 44.24,158.76 C44.06,152.06 48.24,146.43 53.69,146.29 C59.14,146.15 63.61,151.54 63.79,158.29 C63.97,165.04 59.75,170.53 54.34,170.67 Z M53.81,151 C51.08,151.07 48.81,154.52 48.94,158.64 C49.07,162.76 51.48,166.06 54.22,165.98 C56.96,165.9 59.22,162.46 59.09,158.37 C58.96,154.28 56.55,150.92 53.81,151 Z" id="Shape" fill="#FFFFFF"></path>
                </g>
            </g>
        </g>
    </g>
</svg>