<svg width="603" height="603" viewBox="0 0 603 603" fill="none" xmlns="http://www.w3.org/2000/svg">
<circle opacity="0.0770322" cx="301.5" cy="301.5" r="301.5" fill="#E13856"/>
<path fill-rule="evenodd" clip-rule="evenodd" d="M185.133 61.717C184.048 47.7848 172.539 37.032 158.687 37.0025L157.311 37C142.468 37.8441 134.886 51.0331 136.133 65.9792L138.694 125.897C138.736 126.903 139.33 127.801 140.234 128.228L173.545 144L172.516 112.554C172.516 112.554 186.788 110.345 186.993 95.9551C187.092 89.0044 186.143 74.6747 185.133 61.717Z" fill="#FFBF9D"/>
<path fill-rule="evenodd" clip-rule="evenodd" d="M173 113.433C173 113.433 163.733 113.956 154 108C154 108 158.45 118.133 172.931 116.895L173 113.433Z" fill="#FF9A6C"/>
<path fill-rule="evenodd" clip-rule="evenodd" d="M179.999 70.8931C180.035 71.9964 179.168 72.9371 178.063 72.9971C176.961 73.0559 176.037 72.2115 176.001 71.1083C175.966 70.005 176.832 69.0618 177.936 69.003C179.039 68.943 179.964 69.7886 179.999 70.8931Z" fill="#1A2E35"/>
<path fill-rule="evenodd" clip-rule="evenodd" d="M181.968 68.9637C181.717 69.2054 180.192 68.1596 178.022 68.1607C175.855 68.1328 174.261 69.1609 174.027 68.9147C173.911 68.8056 174.167 68.369 174.861 67.9045C175.544 67.4412 176.709 66.9923 178.061 67.0001C179.413 67.0101 180.548 67.4701 181.2 67.9424C181.866 68.4157 182.091 68.8546 181.968 68.9637Z" fill="#1A2E35"/>
<path fill-rule="evenodd" clip-rule="evenodd" d="M157.999 71.8931C158.034 72.9964 157.167 73.9371 156.063 73.9971C154.961 74.0559 154.036 73.2128 154.001 72.1083C153.966 71.005 154.832 70.063 155.936 70.003C157.039 69.943 157.964 70.7898 157.999 71.8931Z" fill="#1A2E35"/>
<path fill-rule="evenodd" clip-rule="evenodd" d="M159.968 69.9637C159.717 70.2054 158.19 69.1596 156.023 69.1607C153.856 69.134 152.262 70.1609 152.027 69.9147C151.912 69.8056 152.165 69.369 152.862 68.9045C153.545 68.4423 154.709 67.9923 156.061 68.0001C157.412 68.0101 158.547 68.4712 159.2 68.9424C159.864 69.4157 160.091 69.8546 159.968 69.9637Z" fill="#1A2E35"/>
<path fill-rule="evenodd" clip-rule="evenodd" d="M168.903 85.91C168.894 85.7881 170.137 85.5597 172.151 85.2871C172.662 85.2333 173.146 85.1245 173.232 84.749C173.353 84.3532 173.141 83.7614 172.894 83.1229C172.417 81.7945 171.917 80.4003 171.393 78.9404C169.307 72.986 167.798 68.0909 168.022 68.0012C168.247 67.9139 170.119 72.6691 172.204 78.6224C172.705 80.0919 173.186 81.4908 173.642 82.83C173.834 83.4541 174.165 84.1619 173.903 84.9846C173.764 85.3935 173.389 85.6912 173.062 85.7857C172.734 85.8909 172.447 85.8969 172.195 85.9124C170.168 86.026 168.911 86.0332 168.903 85.91Z" fill="#1A2E35"/>
<path fill-rule="evenodd" clip-rule="evenodd" d="M162.342 88.0003C162.682 87.9805 162.682 90.2433 164.622 91.8523C166.56 93.467 168.981 93.2178 168.999 93.5331C169.03 93.6757 168.459 93.9713 167.436 93.998C166.434 94.0293 164.971 93.7058 163.783 92.7217C162.599 91.7352 162.093 90.4207 162.017 89.4921C161.932 88.5474 162.186 87.9863 162.342 88.0003Z" fill="#1A2E35"/>
<path fill-rule="evenodd" clip-rule="evenodd" d="M160.988 60.697C160.772 61.3083 158.587 61.0139 156.018 61.3271C153.445 61.5865 151.374 62.3557 151.034 61.807C150.882 61.5426 151.244 60.9676 152.082 60.3762C152.914 59.7861 154.238 59.2261 155.78 59.0532C157.321 58.8841 158.732 59.1384 159.667 59.5318C160.608 59.9252 161.082 60.4075 160.988 60.697Z" fill="#1A2E35"/>
<path fill-rule="evenodd" clip-rule="evenodd" d="M180.947 62.8286C180.587 63.2269 179.182 62.809 177.493 62.7875C175.803 62.7141 174.371 63.0508 174.041 62.6319C173.898 62.4293 174.123 62.029 174.75 61.6522C175.367 61.2754 176.399 60.97 177.561 61.0023C178.722 61.0356 179.727 61.3997 180.314 61.8098C180.911 62.2218 181.106 62.6339 180.947 62.8286Z" fill="#1A2E35"/>
<path fill-rule="evenodd" clip-rule="evenodd" d="M138.474 77.4595C138.232 77.3526 128.716 74.5186 129.007 84.3424C129.297 94.1662 138.991 91.8444 139 91.5619C139.007 91.2806 138.474 77.4595 138.474 77.4595Z" fill="#FFBF9D"/>
<path fill-rule="evenodd" clip-rule="evenodd" d="M135.991 88.2066C135.952 88.179 135.843 88.3236 135.589 88.4555C135.343 88.584 134.914 88.6803 134.455 88.5163C133.524 88.1882 132.704 86.6752 132.615 85.0233C132.569 84.1894 132.713 83.3887 132.976 82.7222C133.222 82.042 133.622 81.5602 134.083 81.4593C134.541 81.3319 134.878 81.6141 134.992 81.8699C135.116 82.1212 135.066 82.3058 135.113 82.3208C135.138 82.3437 135.295 82.1602 135.214 81.7839C135.174 81.6038 135.065 81.3904 134.855 81.2207C134.641 81.0486 134.331 80.966 134.008 81.013C133.338 81.083 132.751 81.7529 132.462 82.4859C132.137 83.2224 131.957 84.1217 132.009 85.0589C132.117 86.9057 133.065 88.608 134.336 88.9499C134.954 89.099 135.46 88.8891 135.719 88.6643C135.982 88.4291 136.022 88.2226 135.991 88.2066Z" fill="#FF9A6C"/>
<path fill-rule="evenodd" clip-rule="evenodd" d="M144.744 47.7639L186 48.6676C184.718 45.8371 182.427 43.5692 179.939 41.6904C174.577 37.6446 167.986 35.1182 161.258 35.0012C154.53 34.8843 140.833 43.0385 135.958 47.6568C132.059 51.3516 132.084 54.5478 132.084 54.5478C131.464 59.8716 134.458 65.9229 135.648 71.1482C136.262 73.8445 137.447 82 137.447 82H137.448C139.721 81.9914 140.566 80.1914 140.221 77.9543L139.795 69.1807C139.795 69.1807 147.526 63.7129 143.864 53.7057C143.275 52.9091 142.021 49.2537 144.744 47.7639Z" fill="#1A2E35"/>
<path fill-rule="evenodd" clip-rule="evenodd" d="M152.542 78.7125C152.435 78.7335 152.329 78.6555 152.306 78.5385C152.282 78.4215 152.351 78.3095 152.458 78.2875C152.565 78.2665 152.671 78.3445 152.694 78.4615C152.718 78.5795 152.649 78.6915 152.542 78.7125Z" fill="#FF9A6C"/>
<path fill-rule="evenodd" clip-rule="evenodd" d="M156.548 77.744C156.441 77.765 156.332 77.673 156.306 77.539C156.279 77.404 156.344 77.277 156.452 77.256C156.559 77.235 156.668 77.327 156.694 77.462C156.721 77.597 156.655 77.723 156.548 77.744Z" fill="#FF9A6C"/>
<path fill-rule="evenodd" clip-rule="evenodd" d="M160.539 77.8214C160.431 77.8354 160.326 77.7024 160.303 77.5244C160.281 77.3464 160.352 77.1914 160.461 77.1784C160.568 77.1654 160.674 77.2984 160.697 77.4754C160.719 77.6534 160.648 77.8084 160.539 77.8214Z" fill="#FF9A6C"/>
<path fill-rule="evenodd" clip-rule="evenodd" d="M154.5 81.6265C154.39 81.6265 154.302 81.5695 154.302 81.4995C154.302 81.4295 154.391 81.3725 154.5 81.3735C154.61 81.3735 154.698 81.4305 154.698 81.5005C154.698 81.5695 154.609 81.6265 154.5 81.6265Z" fill="#FF9A6C"/>
<path fill-rule="evenodd" clip-rule="evenodd" d="M159.519 80.7239C159.41 80.7339 159.313 80.6409 159.302 80.5169C159.292 80.3929 159.372 80.2859 159.481 80.2759C159.59 80.2669 159.687 80.3599 159.697 80.4839C159.708 80.6079 159.628 80.7149 159.519 80.7239Z" fill="#FF9A6C"/>
<path fill-rule="evenodd" clip-rule="evenodd" d="M179.544 77.7191C179.437 77.7401 179.329 77.6591 179.306 77.5381C179.282 77.4171 179.35 77.3021 179.456 77.2811C179.564 77.2591 179.671 77.3401 179.695 77.4611C179.719 77.5821 179.65 77.6981 179.544 77.7191Z" fill="#FF9A6C"/>
<path fill-rule="evenodd" clip-rule="evenodd" d="M182.524 77.7485C182.415 77.7595 182.316 77.6555 182.303 77.5195C182.29 77.3815 182.367 77.2615 182.476 77.2515C182.585 77.2405 182.684 77.3435 182.697 77.4805C182.71 77.6185 182.632 77.7375 182.524 77.7485Z" fill="#FF9A6C"/>
<path fill-rule="evenodd" clip-rule="evenodd" d="M176.534 78.671C176.427 78.692 176.325 78.632 176.306 78.538C176.287 78.443 176.359 78.351 176.467 78.329C176.574 78.308 176.676 78.367 176.695 78.461C176.714 78.556 176.641 78.65 176.534 78.671Z" fill="#FF9A6C"/>
<path fill-rule="evenodd" clip-rule="evenodd" d="M178.592 80.71C178.492 80.754 178.369 80.695 178.319 80.579C178.268 80.464 178.307 80.334 178.408 80.29C178.508 80.246 178.631 80.305 178.681 80.42C178.732 80.536 178.692 80.666 178.592 80.71Z" fill="#FF9A6C"/>
<path fill-rule="evenodd" clip-rule="evenodd" d="M181.456 80.6607C181.351 80.6317 181.285 80.5357 181.31 80.4467C181.333 80.3587 181.438 80.3097 181.544 80.3397C181.65 80.3677 181.715 80.4637 181.691 80.5527C181.667 80.6407 181.562 80.6897 181.456 80.6607Z" fill="#FF9A6C"/>
<mask id="mask0" mask-type="alpha" maskUnits="userSpaceOnUse" x="134" y="28" width="60" height="32">
<path fill-rule="evenodd" clip-rule="evenodd" d="M134.957 28.5513H193.982V59.6998H134.957V28.5513Z" fill="white"/>
</mask>
<g mask="url(#mask0)">
<path fill-rule="evenodd" clip-rule="evenodd" d="M135.369 48.7152C134.309 45.1201 135.366 41.1164 137.701 38.1687C140.037 35.2186 143.853 33.4771 147.639 33.6297C149.579 33.7097 151.507 34.2512 153.437 34.0432C157.03 33.6555 159.802 30.8087 163.135 29.4254C168.328 27.2715 174.935 29.2297 178.07 33.8537C179.334 35.7171 180.164 38.0211 182.099 39.1952C183.772 40.2094 185.881 40.1257 187.762 40.6844C191.565 41.8167 194.169 45.8057 193.971 49.7244C193.774 53.6444 190.996 57.2321 187.341 58.7681C183.686 60.3041 179.332 59.8746 175.861 57.9681C172.728 56.2438 169.921 53.3047 166.336 53.4081C162.623 53.5164 159.378 56.9774 155.735 56.2598C153.826 55.8832 152.353 54.4297 150.956 53.0906C149.557 51.7515 147.948 50.3866 146.003 50.2746C144.059 50.1601 143.046 52.7989 143.742 54.5971L135.369 48.7152Z" fill="#1A2E35"/>
</g>
<path fill-rule="evenodd" clip-rule="evenodd" d="M184.999 42.9054C185.005 42.9092 184.983 42.9578 184.933 43.05C184.883 43.1422 184.811 43.283 184.693 43.4513C184.468 43.7965 184.097 44.2838 183.51 44.8047C182.926 45.3231 182.113 45.869 181.056 46.2366C180.007 46.603 178.694 46.7612 177.313 46.4622C175.939 46.1718 174.487 45.4465 173.364 44.199C172.235 42.9515 171.567 41.2841 170.516 39.8198C169.993 39.0883 169.338 38.4278 168.519 37.9991C167.696 37.5803 166.746 37.3759 165.783 37.3934C164.819 37.4171 163.845 37.6788 162.974 38.1548C162.105 38.6458 161.387 39.3836 160.903 40.2996C160.404 41.2118 160.048 42.2138 159.449 43.1023C158.876 44.0034 157.874 44.6801 156.806 44.7224C155.744 44.7822 154.761 44.3847 153.926 43.885C153.077 43.3852 152.374 42.711 151.734 42.058C150.462 40.7632 149.205 39.4733 147.642 39.1231C146.096 38.753 144.583 39.325 143.497 40.1039C142.391 40.9015 141.68 41.9571 141.222 42.9428C140.763 43.9348 140.524 44.857 140.37 45.616C140.217 46.3737 140.145 46.9744 140.097 47.3806C140.048 47.7869 140.025 48.0012 140.01 48C140.003 48 139.999 47.9452 140 47.8392C140.001 47.7345 140.004 47.5775 140.016 47.3731C140.04 46.9631 140.087 46.3587 140.217 45.5861C140.349 44.8159 140.568 43.8738 141.019 42.8494C141.467 41.8337 142.188 40.7221 143.333 39.8734C144.452 39.0496 146.041 38.4165 147.717 38.7991C149.408 39.168 150.721 40.5202 151.993 41.7951C152.639 42.4468 153.31 43.0824 154.12 43.5547C154.917 44.0283 155.841 44.3872 156.781 44.3311C157.724 44.2838 158.583 43.7117 159.121 42.878C159.682 42.0493 160.039 41.056 160.554 40.1064C161.058 39.1443 161.852 38.3231 162.779 37.8071C163.712 37.2962 164.749 37.022 165.773 37.0008C166.798 36.9846 167.81 37.2052 168.695 37.6588C169.578 38.1249 170.277 38.8427 170.815 39.6029C171.89 41.1308 172.538 42.7783 173.61 43.9772C174.668 45.1736 176.054 45.8901 177.371 46.1842C178.698 46.4896 179.962 46.3587 180.987 46.0235C182.017 45.687 182.822 45.1761 183.41 44.6875C184.587 43.6881 184.954 42.8693 184.999 42.9054Z" fill="#375A64"/>
<path fill-rule="evenodd" clip-rule="evenodd" d="M191.81 44C191.828 43.9964 191.925 44.2644 191.976 44.7727C192.028 45.2773 192.011 46.0295 191.77 46.9187C191.525 47.8019 191.044 48.816 190.24 49.7472C189.441 50.6821 188.317 51.4895 187.015 52.0531C184.376 53.1886 181.699 53.0864 179.897 52.8437C178.983 52.7163 178.255 52.5541 177.76 52.4256C177.262 52.2958 176.994 52.2009 177 52.1768C177.015 52.1119 178.12 52.3835 179.931 52.5721C181.719 52.7428 184.318 52.7932 186.856 51.6986C188.11 51.1567 189.19 50.3913 189.965 49.5141C190.745 48.6394 191.234 47.6805 191.503 46.8418C192.036 45.1367 191.723 43.9988 191.81 44Z" fill="#375A64"/>
<mask id="mask1" mask-type="alpha" maskUnits="userSpaceOnUse" x="236" y="66" width="44" height="101">
<path fill-rule="evenodd" clip-rule="evenodd" d="M236.055 66.1694H279.186V166.456H236.055V66.1694Z" fill="white"/>
</mask>
<g mask="url(#mask1)">
<path fill-rule="evenodd" clip-rule="evenodd" d="M271.55 88.1912C270.595 84.0133 275.465 69.5875 272.322 69.2673C268.317 68.8584 267.639 85.2635 267.496 86.7341C267.358 88.1641 265.253 87.9929 265.453 86.6738C265.737 84.7769 268.406 66.2139 264.364 66.1695C262.122 66.1449 262.028 70.2724 262.028 70.2724C262.028 70.2724 260.519 88.5657 258.61 88.4782C256.672 88.392 258.066 77.9828 258.262 74.1104C258.448 70.3992 256.611 68.2659 255.253 69.8708C253.263 72.2234 253.274 81.6509 253.03 85.3657C252.785 89.0805 251.797 99.7496 248.012 94.4126C244.224 89.0756 239.373 86.3757 237.583 86.5605C235.794 86.7452 235.461 89.354 237.197 90.3763C238.602 91.2028 240.538 93.3078 241.932 94.9484C243.081 96.3008 243.841 97.9106 244.659 99.486C245.243 100.611 246.197 102.845 246.645 105.954C247.162 109.552 249.215 112.743 252.217 114.737L252.005 144.044L251.106 158.54L273.647 166.456L270.685 114.748C271.791 104.811 276.113 92.2411 277.692 86.4163C280.207 77.1268 279.03 76.7216 277.907 76.6723C275.427 76.5627 272.482 92.267 271.55 88.1912Z" fill="#FFBF9D"/>
</g>
<path fill-rule="evenodd" clip-rule="evenodd" d="M268 101.091C268 101.178 266.901 101.083 265.226 101.527C263.57 101.953 261.332 103.048 259.694 105.052C259.251 105.585 258.9 106.159 258.601 106.721L258.452 107L258.234 106.787C256.742 105.348 255.137 104.413 253.947 103.861C252.752 103.303 251.98 103.079 252 103.018C252.011 102.977 252.819 103.108 254.073 103.604C255.32 104.097 257.005 105.008 258.559 106.476L258.19 106.541C258.499 105.948 258.865 105.342 259.329 104.78C260.182 103.737 261.217 102.929 262.236 102.343C263.264 101.763 264.282 101.414 265.151 101.22C266.021 101.017 266.748 101.008 267.24 101C267.734 101.026 268.002 101.062 268 101.091Z" fill="#8E3823"/>
<path fill-rule="evenodd" clip-rule="evenodd" d="M268 114.141C268.037 114.232 265.844 114.803 263.024 114.87C260.204 114.95 257.97 114.494 258 114.401C258.024 114.287 260.251 114.569 263.009 114.491C265.766 114.426 267.967 114.029 268 114.141Z" fill="#8E3823"/>
<path fill-rule="evenodd" clip-rule="evenodd" d="M140.913 127.994L114 135.554L122.748 219.484C122.748 219.484 117.716 249.449 117.716 257.324C117.716 267.554 125.661 271.398 125.661 271.398L211.639 274L216.033 270.187C218.294 267.529 219.337 264.041 218.904 260.574L202.929 132.507L173 126L140.913 127.994Z" fill="#00A0FF"/>
<path fill-rule="evenodd" clip-rule="evenodd" d="M122.994 219C122.977 219.004 122.922 218.782 122.832 218.358C122.738 217.883 122.617 217.266 122.466 216.501C122.157 214.826 121.731 212.503 121.208 209.657C120.186 203.818 118.792 195.849 117.25 187.045C115.766 178.229 114.424 170.25 113.439 164.404C112.982 161.547 112.61 159.214 112.341 157.533C112.228 156.76 112.138 156.138 112.066 155.659C112.01 155.23 111.988 155.003 112.006 155C112.023 154.998 112.078 155.217 112.168 155.64C112.261 156.116 112.384 156.731 112.534 157.497C112.842 159.172 113.268 161.495 113.79 164.339C114.813 170.181 116.207 178.15 117.75 186.958C119.234 195.773 120.577 203.75 121.561 209.598C122.018 212.454 122.391 214.787 122.659 216.47C122.772 217.241 122.863 217.863 122.933 218.342C122.99 218.77 123.012 218.997 122.994 219Z" fill="#1A2E35"/>
<path fill-rule="evenodd" clip-rule="evenodd" d="M176.999 127.006C177.02 127.034 176.575 127.393 175.745 128.021C175.325 128.325 174.778 128.647 174.157 129.046C173.503 129.382 172.783 129.825 171.925 130.177C170.238 130.946 168.136 131.658 165.74 132.144C163.345 132.638 160.666 132.914 157.856 132.981C155.043 133.051 152.366 132.922 149.941 132.731C147.518 132.55 145.331 132.287 143.525 131.875C141.719 131.469 140.31 130.92 139.382 130.463C138.919 130.229 138.566 130.035 138.339 129.883C138.108 129.736 137.992 129.651 138 129.636C138.023 129.596 138.521 129.878 139.462 130.279C140.405 130.676 141.808 131.162 143.598 131.518C145.388 131.879 147.557 132.102 149.975 132.257C152.391 132.42 155.054 132.535 157.843 132.465C160.631 132.397 163.28 132.139 165.65 131.678C168.021 131.223 170.103 130.556 171.784 129.842C175.179 128.441 176.927 126.89 176.999 127.006Z" fill="#1A2E35"/>
<path fill-rule="evenodd" clip-rule="evenodd" d="M205 255.807C205.002 255.824 204.799 255.863 204.411 255.924C203.968 255.986 203.403 256.066 202.707 256.165C201.968 256.269 201.059 256.384 200.002 256.473C198.944 256.568 197.742 256.703 196.405 256.766C193.738 256.953 190.551 257.035 187.015 256.986C183.479 256.906 179.593 256.678 175.537 256.213C171.482 255.727 167.651 255.049 164.194 254.309C160.746 253.539 157.668 252.722 155.121 251.923C153.838 251.553 152.703 251.143 151.698 250.806C150.691 250.474 149.836 250.154 149.143 249.881C148.49 249.624 147.96 249.416 147.545 249.252C147.181 249.103 146.995 249.018 147 249.002C147.008 248.988 147.206 249.041 147.581 249.159C148.004 249.3 148.544 249.479 149.21 249.7C149.913 249.945 150.774 250.239 151.788 250.544C152.798 250.856 153.938 251.241 155.225 251.589C157.777 252.343 160.853 253.121 164.294 253.865C167.742 254.578 171.559 255.239 175.597 255.724C179.635 256.187 183.504 256.428 187.025 256.532C190.548 256.605 193.724 256.56 196.385 256.418C197.718 256.378 198.92 256.266 199.977 256.198C201.035 256.136 201.944 256.049 202.686 255.974C203.386 255.913 203.953 255.864 204.398 255.825C204.79 255.796 204.997 255.79 205 255.807Z" fill="#1A2E35"/>
<path fill-rule="evenodd" clip-rule="evenodd" d="M214.992 184C214.958 184.01 214.81 183.588 214.572 182.819C214.333 182.05 214.009 180.932 213.627 179.543C212.861 176.769 211.879 172.914 210.913 168.63C209.949 164.345 209.185 160.442 208.687 157.608C208.437 156.192 208.25 155.043 208.138 154.246C208.024 153.449 207.977 153.006 208.011 153C208.046 152.994 208.16 153.425 208.334 154.211C208.522 155.098 208.76 156.212 209.044 157.542C209.632 160.356 210.451 164.24 211.413 168.52C212.378 172.798 213.304 176.66 213.979 179.454C214.291 180.777 214.556 181.887 214.765 182.769C214.944 183.553 215.027 183.991 214.992 184Z" fill="#1A2E35"/>
<path fill-rule="evenodd" clip-rule="evenodd" d="M149.986 131C151.058 134.749 150.061 140.213 150.587 143.569C152.694 157.002 153.706 170.658 152.736 184.222C152.683 184.963 152.628 185.727 152.873 186.426C153.098 187.064 153.554 187.588 153.96 188.128C156.673 191.736 157.374 196.557 156.828 201.046C156.281 205.536 154.606 209.796 152.945 214C152.85 210.378 153.04 204.962 153.325 201.349C153.382 200.628 153.748 201.091 153.769 200.368C153.89 196.025 153.167 191.994 150.132 188.9C149.525 188.279 148.827 187.719 148.414 186.954C148.032 186.249 147.927 185.432 147.83 184.635C145.968 169.469 144.696 154.23 144.015 138.965C143.977 138.099 143.968 137.147 144.508 136.473C144.934 135.941 145.612 135.699 146.179 135.322C147.341 134.551 148.067 133.19 149.323 132.59" fill="#0084E9"/>
<path fill-rule="evenodd" clip-rule="evenodd" d="M114.643 135C114.643 135 89.9475 140.803 95.9365 177.718C98.0418 190.693 102.09 209.974 110.671 230.13C114.717 239.63 123.885 246.166 134.147 244.826C138.629 244.24 143.07 244.949 146.071 243.144C150.627 240.406 152.611 231.17 153.47 221.206C154.055 214.42 153.808 207.349 154.711 201.555C156.182 192.097 151.831 187.64 146.264 186.534L124.435 182.196L123.178 193.71L114.643 135Z" fill="#00A0FF"/>
<path fill-rule="evenodd" clip-rule="evenodd" d="M132.003 207.558C132.067 207.509 132.428 208 133.298 208.63C134.155 209.257 135.58 209.991 137.495 210.238C139.399 210.505 141.735 210.184 144.147 209.324C146.548 208.445 149.194 207.271 151.33 205.328C153.45 203.379 154.681 200.807 155.061 198.391C155.46 195.96 155.001 193.71 154.263 191.991C152.74 188.503 150.537 187.124 150.688 187.003C150.718 186.965 151.263 187.259 152.091 187.999C152.913 188.733 153.995 189.96 154.845 191.747C155.696 193.516 156.259 195.904 155.879 198.507C155.52 201.089 154.231 203.856 151.948 205.954C149.652 208.038 146.91 209.211 144.423 210.076C141.908 210.926 139.418 211.209 137.395 210.844C135.371 210.499 133.904 209.63 133.075 208.889C132.233 208.146 131.966 207.578 132.003 207.558Z" fill="#1A2E35"/>
<path fill-rule="evenodd" clip-rule="evenodd" d="M109.006 227.252C109.082 227.226 109.466 228.397 110.471 230.366C111.469 232.325 113.199 235.07 116.049 237.799C118.877 240.519 122.957 243.136 128.034 244.374C133.058 245.616 139.101 245.512 144.618 243.221C147.389 242.107 148.391 239.051 149.452 236.501C150.431 233.851 151.079 231.188 151.518 228.621C152.397 223.48 152.603 218.754 152.899 214.8C153.185 210.937 153.419 207.766 153.592 205.43C153.685 204.404 153.763 203.563 153.824 202.885C153.887 202.303 153.933 201.999 153.964 202C153.993 202.001 154.005 202.309 153.998 202.895C153.98 203.575 153.955 204.42 153.928 205.449C153.824 207.788 153.682 210.966 153.51 214.837C153.291 218.793 153.151 223.534 152.303 228.751C151.881 231.357 151.238 234.074 150.247 236.791C149.726 238.142 149.179 239.497 148.422 240.826C147.69 242.156 146.459 243.38 144.983 243.999C139.2 246.4 133.019 246.455 127.839 245.141C122.62 243.824 118.455 241.068 115.622 238.233C112.763 235.387 111.085 232.54 110.169 230.511C109.695 229.499 109.404 228.679 109.228 228.12C109.055 227.559 108.977 227.261 109.006 227.252Z" fill="#1A2E35"/>
<path fill-rule="evenodd" clip-rule="evenodd" d="M117.073 211C116.955 210.99 116.984 209.264 117.127 206.481C117.269 203.7 117.525 199.861 117.86 195.626C118.039 193.503 118.177 191.503 118.392 189.644C118.615 187.792 119.134 186.078 120.046 184.926C120.936 183.774 122.028 183.219 122.798 183.07C123.579 182.908 124.01 183.072 124 183.111C123.999 183.192 123.57 183.153 122.884 183.403C122.207 183.638 121.276 184.219 120.529 185.303C118.935 187.477 119.128 191.497 118.715 195.699C118.38 199.933 118.028 203.764 117.731 206.533C117.434 209.302 117.192 211.01 117.073 211Z" fill="#1A2E35"/>
<path fill-rule="evenodd" clip-rule="evenodd" d="M124.737 171.188C124.524 170.034 124.189 168.369 123.76 166.316C122.898 162.21 121.651 156.552 120.223 150.313C119.498 147.203 118.874 144.202 117.958 141.549C117.057 138.896 115.836 136.622 114.463 135L114 135.381C115.264 136.992 116.383 139.199 117.223 141.803C118.077 144.404 118.678 147.391 119.404 150.508C120.831 156.746 122.17 162.383 123.18 166.453C123.685 168.488 124.108 170.132 124.418 171.263C124.729 172.394 124.927 173.014 124.984 173C125.04 172.988 124.95 172.342 124.737 171.188Z" fill="#1A2E35"/>
<path fill-rule="evenodd" clip-rule="evenodd" d="M124 179.212C122.104 179.149 120.272 179.981 118.697 181.091C115.259 183.512 112.776 187.321 111.68 191.511C110.583 195.699 110.847 200.234 112.226 204.329C112.656 205.605 113.488 207.052 114.778 206.999C116.294 206.935 116.908 204.951 117.117 203.374C117.698 199.007 118.281 194.639 118.864 190.272C119.061 188.787 119.271 187.263 119.97 185.953C120.668 184.647 121.975 183.583 123.403 183.666C123.532 182.11 123.661 180.555 123.79 179" fill="#0084E9"/>
<path fill-rule="evenodd" clip-rule="evenodd" d="M271.823 200C271.823 200 276.459 193.088 276.946 182.905C277.431 172.724 274.513 164.114 274.513 164.114L248.168 156L248 164.741L271.823 200Z" fill="#00A0FF"/>
<path fill-rule="evenodd" clip-rule="evenodd" d="M248.44 164.277L204 132V134.237L208.8 184.485C208.8 184.485 245.538 201.012 255.271 203.445C265.002 205.879 272 199.513 272 199.513L248.44 164.277Z" fill="#00A0FF"/>
<path fill-rule="evenodd" clip-rule="evenodd" d="M260.998 187.996C260.978 188.029 260.63 187.852 260.041 187.452C259.453 187.055 258.638 186.409 257.719 185.504C255.866 183.707 253.718 180.726 252.081 177.03C250.441 173.339 249.496 169.775 248.864 167.209C248.551 165.921 248.322 164.874 248.177 164.147C248.032 163.42 247.972 163.013 248.012 163C248.097 162.976 248.553 164.548 249.277 167.082C250.013 169.608 251.016 173.118 252.628 176.748C254.239 180.376 256.279 183.324 258.017 185.169C259.745 187.036 261.059 187.898 260.998 187.996Z" fill="#1A2E35"/>
<path fill-rule="evenodd" clip-rule="evenodd" d="M274 169.963C273.996 170.007 273.585 170.011 272.84 169.979C272.097 169.956 271.023 169.844 269.707 169.64C267.075 169.235 263.474 168.307 259.769 166.61C256.069 164.9 253.03 162.775 251.021 161.043C250.013 160.18 249.236 159.438 248.738 158.89C248.234 158.348 247.97 158.034 248.003 158.004C248.082 157.926 249.245 159.073 251.312 160.695C253.372 162.319 256.4 164.348 260.042 166.03C263.687 167.701 267.206 168.683 269.789 169.196C272.373 169.714 274.009 169.854 274 169.963Z" fill="#1A2E35"/>
<path fill-rule="evenodd" clip-rule="evenodd" d="M249.988 183.999C249.928 184.033 249.272 183.015 248.596 181.18C247.91 179.351 247.312 176.689 247.108 173.717C246.902 170.744 247.03 168.054 247.167 166.12C247.31 164.184 247.466 162.995 247.552 163C247.644 163.005 247.649 164.206 247.622 166.141C247.602 168.073 247.549 170.742 247.75 173.669C247.952 176.594 248.465 179.2 249.028 181.032C249.58 182.866 250.086 183.95 249.988 183.999Z" fill="#1A2E35"/>
<path fill-rule="evenodd" clip-rule="evenodd" d="M203.011 151C203.051 150.989 203.203 151.479 203.443 152.373C203.684 153.269 204.008 154.57 204.39 156.184C205.153 159.409 206.132 163.889 207.096 168.864C208.059 173.84 208.826 178.367 209.324 181.654C209.573 183.298 209.76 184.63 209.871 185.553C209.983 186.477 210.026 186.992 209.984 187C209.944 187.007 209.824 186.508 209.642 185.597C209.443 184.552 209.197 183.26 208.908 181.737C208.267 178.331 207.433 173.899 206.51 168.996C205.536 164.108 204.655 159.685 203.977 156.289C203.677 154.766 203.423 153.477 203.216 152.433C203.046 151.52 202.97 151.01 203.011 151Z" fill="#1A2E35"/>
<path fill-rule="evenodd" clip-rule="evenodd" d="M123 186.716L128.486 126L146.66 133.18L149 194.937C149 194.937 143.182 203.743 133.359 200.13C123.536 196.516 123 186.716 123 186.716Z" fill="#FFBF9D"/>
<path fill-rule="evenodd" clip-rule="evenodd" d="M127.308 73L161 102.36L154.901 124.282L152.456 125L123 95.1317L124.863 73.7178L127.308 73Z" fill="#1A2E35"/>
<path fill-rule="evenodd" clip-rule="evenodd" d="M124.308 73L158 102.772L151.901 125L120 95.4415L124.308 73Z" fill="#375A64"/>
<path fill-rule="evenodd" clip-rule="evenodd" d="M147.23 135C147.23 135 150.696 131.416 150.617 126.823C150.541 122.345 149.288 111.571 149.288 111.571C149.288 111.571 155.145 99.4068 154.997 97.7894C154.85 96.1721 154.582 96.1951 152.479 96.8486C150.375 97.5009 143.847 108.591 143.847 108.591L141.712 100.367C141.712 100.367 147.144 91.7321 147.575 90.5306C148.006 89.3279 148.727 88.3325 147.364 88.2197C146.002 88.1082 135.804 97.8634 135.804 97.8634L136.627 106.874C136.627 106.874 136.424 107.591 134.955 106.324C133.488 105.057 133.859 94.3098 133.859 94.3098C133.859 94.3098 137.334 87.9457 137.25 87.0231C137.166 86.098 137.885 85.1038 137.202 83.5337C136.517 81.9636 134.517 83.7714 134.517 83.7714L127.747 92.5251L125.334 83.8623C125.334 83.8623 125.436 82.017 123 82L123.943 110.097L130.113 131.714L147.23 135Z" fill="#FFBF9D"/>
<path fill-rule="evenodd" clip-rule="evenodd" d="M150.159 194C150.159 194 150.107 193.634 150.063 192.921C150.024 192.165 149.967 191.116 149.896 189.768C149.77 186.956 149.59 182.904 149.36 177.749C148.945 167.319 148.353 152.436 147.636 134.427L147.628 134.253L147.776 134.126C149.167 132.938 150.356 131.31 151.063 129.492C151.806 127.659 151.88 125.638 151.75 123.533C151.535 119.341 151.012 114.979 150.427 110.522L150.413 110.403L150.463 110.293C151.574 107.934 152.687 105.505 153.768 103.014C154.304 101.767 154.839 100.507 155.332 99.223C155.574 98.5805 155.81 97.933 155.998 97.2868L156.12 96.8098C156.137 96.6615 156.156 96.5639 156.158 96.4095C156.13 96.0808 156.078 95.7224 155.99 95.547C156.054 95.3468 155.119 95.5519 154.517 95.7607C154.127 95.8769 153.976 95.9547 153.715 96.1673C153.464 96.3674 153.224 96.6035 152.992 96.8654C152.06 97.8898 151.223 99.0624 150.401 100.24C148.768 102.611 147.222 105.107 145.722 107.646L145.189 108.552L144.928 107.537C144.246 104.882 143.514 102.032 142.775 99.1563L142.729 98.9784L142.827 98.819C143.706 97.3869 144.651 95.8423 145.602 94.2915C146.659 92.506 147.82 90.6723 148.675 88.9202C148.852 88.4284 149.096 87.9218 149.214 87.5066C149.279 87.2817 149.241 87.1828 149.236 87.2014C149.234 87.1816 148.961 87.0815 148.824 87.1235C148.77 87.1347 148.528 87.2508 148.329 87.3707C148.128 87.4819 147.921 87.645 147.716 87.7784C147.31 88.07 146.906 88.379 146.513 88.699C143.362 91.2803 140.413 94.0679 137.541 96.8049L137.67 96.4601C137.948 99.5653 138.222 102.627 138.492 105.642L138.499 105.728L138.477 105.794C138.333 106.234 137.904 106.328 137.662 106.302C137.407 106.28 137.236 106.195 137.065 106.116C136.742 105.945 136.479 105.745 136.232 105.535C135.615 104.984 135.503 104.257 135.345 103.666C135.087 102.427 135.005 101.21 134.932 100C134.805 97.5821 134.81 95.2096 134.877 92.8619L134.879 92.7717L134.925 92.684C136.12 90.4042 137.38 88.117 138.218 85.8545C138.258 85.7223 138.297 85.5728 138.299 85.5159C138.31 85.4159 138.289 85.1601 138.315 85.0056C138.353 84.6559 138.43 84.3483 138.482 84.0554C138.591 83.4759 138.596 82.9334 138.424 82.4046C138.237 81.8053 138.051 81.5594 137.589 81.6422C137.128 81.7299 136.609 82.071 136.206 82.4169L136.251 82.3675C133.875 85.4616 131.601 88.4222 129.41 91.2741L128.968 91.8499L128.776 91.1518C127.942 88.0948 127.14 85.1514 126.367 82.3181L126.354 82.2736L126.356 82.2106C126.358 81.7484 126.112 81.2653 125.734 81.0182C125.349 80.7575 124.845 80.6611 124.338 80.6574L124.668 80.32C125.007 91.9685 125.287 101.629 125.5 108.958L125.492 108.911C126.855 114.172 127.908 118.243 128.633 121.048C128.969 122.396 129.229 123.439 129.415 124.187C129.586 124.892 129.645 125.261 129.645 125.261C129.645 125.261 129.513 124.912 129.307 124.214C129.096 123.474 128.8 122.441 128.42 121.105C127.65 118.313 126.532 114.258 125.087 109.019L125.081 108.996L125.08 108.971C124.808 101.645 124.447 91.9858 124.014 80.3423L124 80L124.343 80.0025C124.92 80.0074 125.549 80.1001 126.109 80.472C126.669 80.8514 127.036 81.5026 127.028 82.2477L127.017 82.1401C127.805 84.9698 128.622 87.9082 129.471 90.9602L128.838 90.8379C131.016 87.9774 133.278 85.0081 135.642 81.9041L135.667 81.872L135.688 81.8535C136.198 81.4272 136.712 81.0466 137.456 80.8835C137.817 80.8044 138.326 80.8847 138.641 81.2048C138.965 81.5199 139.06 81.872 139.168 82.1785C139.386 82.8247 139.376 83.5574 139.254 84.1938C139.197 84.5138 139.126 84.8129 139.099 85.0835C139.08 85.2392 139.095 85.2972 139.088 85.5073C139.079 85.7668 139.019 85.9151 138.975 86.0843C138.075 88.5334 136.847 90.7415 135.64 93.0683L135.688 92.8903C135.628 95.2072 135.63 97.5759 135.76 99.9533C135.833 101.138 135.921 102.344 136.162 103.491C136.302 104.057 136.44 104.619 136.772 104.893C136.992 105.081 137.225 105.252 137.447 105.368C137.553 105.419 137.67 105.463 137.724 105.464H137.746C137.749 105.475 137.765 105.541 137.774 105.552L137.788 105.573L137.798 105.58L137.826 105.595L137.876 105.618L137.889 105.622C138.092 105.698 137.627 105.522 137.672 105.545L137.666 105.566L137.652 105.718C137.377 102.703 137.099 99.6419 136.816 96.5367L136.798 96.3316L136.945 96.1907C139.831 93.434 142.767 90.6501 145.969 88.0243C146.37 87.6981 146.784 87.3818 147.214 87.0716C147.439 86.9234 147.638 86.764 147.887 86.6243C148.141 86.4946 148.334 86.3216 148.803 86.2561C149.16 86.2425 149.447 86.2697 149.839 86.5761C150.232 86.9678 150.124 87.4794 150.056 87.729C149.884 88.311 149.663 88.7385 149.491 89.2241C148.53 91.2098 147.428 92.9076 146.348 94.7413C145.395 96.2958 144.448 97.8416 143.567 99.2774L143.619 98.9401C144.356 101.815 145.087 104.667 145.768 107.323L144.973 107.213C146.489 104.649 148.037 102.153 149.694 99.7531C150.532 98.5583 151.371 97.3782 152.367 96.2871C152.61 96.0116 152.877 95.7471 153.186 95.5013C153.462 95.2479 153.976 95.0181 154.267 94.9502C154.614 94.8464 154.955 94.7389 155.343 94.6647C155.533 94.6276 155.752 94.5992 156.016 94.6351C156.287 94.6548 156.625 94.8995 156.734 95.1441C156.951 95.6088 156.954 95.9671 156.999 96.3304C157.005 96.5231 156.98 96.7789 156.947 96.9754L156.811 97.5141C156.608 98.2098 156.364 98.8684 156.116 99.5221C155.613 100.826 155.072 102.092 154.529 103.345C153.438 105.846 152.32 108.274 151.198 110.642L151.234 110.413C151.81 114.894 152.32 119.254 152.523 123.499C152.651 125.596 152.568 127.815 151.763 129.766C150.984 131.717 149.766 133.388 148.222 134.7L148.362 134.401C148.95 152.415 149.437 167.301 149.778 177.733C149.923 182.891 150.036 186.946 150.114 189.76C150.14 191.11 150.16 192.16 150.176 192.918C150.183 193.631 150.159 194 150.159 194Z" fill="#8E3823"/>
<path fill-rule="evenodd" clip-rule="evenodd" d="M129.91 107C129.752 107.025 129.44 103.681 129.213 99.5335C128.987 95.3849 128.932 92.0118 129.091 92C129.249 91.9906 129.562 95.3331 129.787 99.4675C130.013 103.602 130.068 106.975 129.91 107Z" fill="#8E3823"/>
<path fill-rule="evenodd" clip-rule="evenodd" d="M94.2528 521L85.4432 555.876L70.5029 581.457C69.4266 583.3 70.1392 585.668 72.0562 586.615C73.13 587.144 74.3825 587.129 75.4365 586.562C82.1454 582.95 106.758 569.545 107.26 566.956C107.839 563.959 119 530.783 119 530.783L94.2528 521Z" fill="#D61335"/>
<path fill-rule="evenodd" clip-rule="evenodd" d="M72 587.564L108 565L107.59 566.508C107.237 567.809 106.448 568.944 105.35 569.703C102.415 571.732 94.1902 577.154 75.5007 587.54C74.4126 588.144 73.0943 588.154 72 587.564Z" fill="white"/>
<path fill-rule="evenodd" clip-rule="evenodd" d="M104.364 552.121C103.388 552.462 102.777 553.628 103.077 554.616C103.376 555.606 104.557 556.238 105.539 555.915C106.522 555.591 107.297 554.216 106.889 553.265C106.48 552.315 105.054 551.65 104.177 552.198" fill="white"/>
<path fill-rule="evenodd" clip-rule="evenodd" d="M83.9021 573.999C83.6857 574.036 83.4144 572.215 81.673 570.827C79.977 569.392 77.9846 569.356 78.0001 569.153C77.9929 569.069 78.4925 568.937 79.3112 569.035C80.124 569.127 81.2332 569.52 82.1834 570.299C83.13 571.079 83.6822 572.048 83.877 572.783C84.0778 573.522 83.9929 573.995 83.9021 573.999Z" fill="#1A2E35"/>
<path fill-rule="evenodd" clip-rule="evenodd" d="M79.96 577.994C79.7522 578.102 78.9466 576.629 77.2849 575.595C75.6467 574.521 73.9973 574.424 74.001 574.187C73.9503 573.976 75.8335 573.696 77.7081 574.908C79.595 576.099 80.1667 577.95 79.96 577.994Z" fill="#1A2E35"/>
<path fill-rule="evenodd" clip-rule="evenodd" d="M89.978 568.996C89.7868 569.105 88.663 567.085 86.428 565.446C84.2167 563.773 81.9488 563.267 82.0009 563.053C81.9964 562.871 84.4883 563.08 86.8637 564.869C89.256 566.633 90.1568 568.949 89.978 568.996Z" fill="#1A2E35"/>
<path fill-rule="evenodd" clip-rule="evenodd" d="M94.9896 558.984C94.8386 559.155 93.1347 557.909 90.6523 557.181C88.1811 556.419 86.0168 556.501 86.0008 556.28C85.9525 556.096 88.2381 555.665 90.8974 556.476C93.5628 557.267 95.1443 558.862 94.9896 558.984Z" fill="#1A2E35"/>
<path fill-rule="evenodd" clip-rule="evenodd" d="M96.9897 548.988C96.8337 549.152 95.2896 547.533 92.7275 546.951C90.1785 546.311 88.0669 547.056 88.0018 546.84C87.9664 546.754 88.4464 546.438 89.3367 546.208C90.221 545.973 91.5275 545.889 92.9037 546.214C94.2799 546.547 95.4043 547.213 96.0864 547.821C96.7757 548.428 97.0595 548.928 96.9897 548.988Z" fill="#1A2E35"/>
<path fill-rule="evenodd" clip-rule="evenodd" d="M93.1017 544.959C93.0603 544.948 93.1074 544.449 93.397 543.607C93.6855 542.77 94.2313 541.577 95.2576 540.391C95.7735 539.839 96.3527 539.104 97.3744 538.91C97.8834 538.81 98.5304 539.104 98.7959 539.69C99.0614 540.261 99.0349 540.878 98.9028 541.443C98.3006 543.681 95.9861 545.322 93.5924 544.946C91.1998 544.523 89.4633 542.438 89.0347 540.219C88.96 539.654 88.9772 538.997 89.3794 538.474C89.7794 537.945 90.4988 537.904 90.94 538.13C91.8628 538.579 92.3156 539.368 92.7673 539.989C93.6349 541.308 94.0647 542.549 94.2819 543.409C94.4991 544.275 94.5129 544.775 94.4704 544.783C94.3336 544.841 94.0911 542.796 92.3513 540.333C91.9031 539.751 91.3974 539.035 90.7228 538.756C90.3942 538.618 90.0667 538.677 89.8713 538.938C89.6748 539.186 89.63 539.651 89.7058 540.099C90.0816 541.923 91.6732 543.825 93.7004 544.148C95.7149 544.488 97.7478 543.042 98.2477 541.245C98.3627 540.811 98.3673 540.341 98.2202 540.018C98.0754 539.698 97.7731 539.534 97.441 539.575C96.7412 539.662 96.1298 540.278 95.6276 540.794C93.605 542.982 93.2373 545.037 93.1017 544.959Z" fill="#1A2E35"/>
<path fill-rule="evenodd" clip-rule="evenodd" d="M212.119 524.942L210.143 554.384C210.143 554.384 239.828 564.108 240 569.585L182 570L183.171 524L212.119 524.942Z" fill="#D61335"/>
<path fill-rule="evenodd" clip-rule="evenodd" d="M193.552 552.074C192.553 552.317 191.834 553.414 192.033 554.428C192.233 555.44 193.34 556.184 194.343 555.96C195.346 555.735 196.249 554.443 195.938 553.459C195.627 552.474 194.281 551.673 193.361 552.133" fill="white"/>
<path fill-rule="evenodd" clip-rule="evenodd" d="M182 571L182.118 566L237.853 567.646C237.853 567.646 239.706 568.503 240 571H182Z" fill="white"/>
<path fill-rule="evenodd" clip-rule="evenodd" d="M210.998 555.253C210.982 555.499 209.663 555.573 208.343 556.328C207.002 557.05 206.3 558.097 206.062 557.993C205.82 557.938 206.26 556.478 207.876 555.591C209.481 554.69 211.062 555.029 210.998 555.253Z" fill="#1A2E35"/>
<path fill-rule="evenodd" clip-rule="evenodd" d="M216.998 557.113C217.055 557.363 215.802 557.764 214.795 558.823C213.752 559.853 213.467 561.018 213.184 561C212.913 561.031 212.765 559.526 214.048 558.232C215.315 556.93 216.999 556.868 216.998 557.113Z" fill="#1A2E35"/>
<path fill-rule="evenodd" clip-rule="evenodd" d="M220.34 564.999C220.054 565.053 219.667 563.574 220.521 561.99C221.363 560.398 222.856 559.806 222.981 560.054C223.149 560.301 222.172 561.136 221.493 562.447C220.781 563.743 220.651 564.978 220.34 564.999Z" fill="#1A2E35"/>
<path fill-rule="evenodd" clip-rule="evenodd" d="M210.989 547.825C210.863 548.015 209.587 547.694 207.995 547.739C206.404 547.761 205.154 548.133 205.013 547.949C204.857 547.792 206.095 547.036 207.969 547.002C209.842 546.958 211.134 547.662 210.989 547.825Z" fill="#1A2E35"/>
<path fill-rule="evenodd" clip-rule="evenodd" d="M211 542.786C211 542.901 209.968 543.038 208.335 542.685C207.523 542.508 206.568 542.193 205.572 541.683C205.074 541.427 204.567 541.124 204.066 540.768C203.826 540.591 203.539 540.413 203.28 540.074C203 539.775 202.858 539.035 203.203 538.597C203.488 538.169 203.975 537.998 204.359 538C204.752 537.999 205.067 538.093 205.355 538.179C205.943 538.352 206.493 538.578 206.995 538.838C207.997 539.365 208.807 540.014 209.403 540.636C210.604 541.894 210.996 542.944 210.906 542.994C210.785 543.081 210.209 542.195 208.981 541.149C208.369 540.628 207.582 540.085 206.644 539.645C206.174 539.428 205.666 539.238 205.128 539.093C204.569 538.918 204.089 538.897 203.937 539.16C203.882 539.26 203.874 539.3 203.987 539.48C204.104 539.646 204.328 539.812 204.565 539.987C205.026 540.329 205.491 540.628 205.949 540.89C206.863 541.41 207.742 541.774 208.495 542.025C210.008 542.527 211.009 542.636 211 542.786Z" fill="#1A2E35"/>
<path fill-rule="evenodd" clip-rule="evenodd" d="M211.583 542.999C211.497 543.038 211.044 542.023 211.002 540.216C210.984 539.32 211.094 538.238 211.423 537.1C211.59 536.533 211.812 535.953 212.098 535.387C212.404 534.834 212.777 534.092 213.717 534C214.208 533.996 214.603 534.452 214.731 534.833C214.885 535.223 214.909 535.557 214.958 535.889C215.032 536.559 215.004 537.212 214.91 537.813C214.722 539.022 214.264 540.017 213.774 540.727C212.767 542.172 211.751 542.47 211.733 542.375C211.656 542.233 212.513 541.725 213.29 540.329C213.673 539.642 214.021 538.73 214.144 537.673C214.207 537.145 214.214 536.585 214.142 536.019C214.081 535.411 213.896 534.914 213.698 534.97C213.452 534.957 213.022 535.398 212.807 535.876C212.539 536.378 212.323 536.894 212.152 537.403C211.814 538.422 211.654 539.405 211.597 540.237C211.485 541.909 211.716 542.961 211.583 542.999Z" fill="#1A2E35"/>
<path fill-rule="evenodd" clip-rule="evenodd" d="M212.693 269.656L125.254 269L83 545.914L119.29 550.511L165.798 322.82L179.718 551.319L179.754 552L219 551.315L212.693 269.656Z" fill="#1A2E35"/>
<path fill-rule="evenodd" clip-rule="evenodd" d="M302 165.039L327.261 140.331C325.291 119.635 328.834 98.1545 338.685 78.1325C367.015 20.5495 436.66 -3.16347 494.242 25.1655C551.825 53.4955 575.538 123.141 547.208 180.724C518.879 238.306 449.234 262.019 391.651 233.689C367.607 221.86 349.497 202.814 338.586 180.464L338.599 180.528L302 165.039Z" fill="#FAFAFA"/>
<mask id="mask2" mask-type="alpha" maskUnits="userSpaceOnUse" x="302" y="13" width="258" height="233">
<path fill-rule="evenodd" clip-rule="evenodd" d="M302 13H559.41V245.831H302V13Z" fill="white"/>
</mask>
<g mask="url(#mask2)">
<path fill-rule="evenodd" clip-rule="evenodd" d="M302 165.039C302.75 165.359 314.804 170.501 338.554 180.633L338.752 180.718L338.711 180.506C338.707 180.487 338.703 180.465 338.698 180.441L338.483 180.514C340.202 183.904 342.074 187.531 344.409 191.186C345.514 193.053 346.82 194.867 348.097 196.774C349.46 198.622 350.825 200.549 352.37 202.416C358.396 209.994 366.101 217.541 375.524 224.272C384.925 231.03 396.189 236.746 408.858 240.719C421.532 244.65 435.717 246.543 450.475 245.587C465.216 244.636 480.521 240.761 494.944 233.591C509.38 226.479 522.809 215.895 533.614 202.484C544.446 189.105 552.508 172.804 556.53 155.101C557.099 152.903 557.424 150.648 557.855 148.408C558.245 146.161 558.488 143.884 558.791 141.611C559.198 137.044 559.506 132.435 559.383 127.8C559.376 123.162 558.922 118.518 558.367 113.874C557.672 109.249 556.852 104.612 555.607 100.057C554.444 95.3696 552.844 90.8276 551.142 86.3596L549.747 83.0596L549.047 81.4136L548.273 79.8036L546.73 76.5886L545.045 73.4556C540.54 65.1186 534.976 57.4836 528.714 50.6546C527.191 48.9056 525.508 47.3206 523.886 45.6856C522.248 44.0666 520.492 42.5816 518.805 41.0356C517.015 39.6096 515.296 38.1036 513.465 36.7556C511.621 35.4256 509.84 34.0166 507.924 32.8146C500.414 27.7896 492.434 23.6956 484.234 20.5586C467.819 14.2646 450.519 12.0976 434.202 13.3316C417.849 14.5416 402.487 19.2456 389.198 26.1746C375.882 33.0986 364.602 42.2176 355.772 52.3056C351.341 57.3406 347.49 62.5956 344.155 67.9066C343.359 69.2576 342.57 70.5976 341.788 71.9236C340.99 73.2416 340.344 74.6276 339.625 75.9566C339.275 76.6266 338.926 77.2926 338.58 77.9556C338.26 78.6326 337.942 79.3066 337.626 79.9766C336.979 81.3106 336.39 82.6556 335.831 83.9966C331.283 94.7046 328.734 105.183 327.536 114.734C326.937 119.514 326.651 124.067 326.621 128.349C326.604 132.631 326.82 136.636 327.153 140.342L327.186 140.254C310.867 156.312 302.549 164.498 302 165.039C302.552 164.502 310.92 156.367 327.337 140.409L327.374 140.373L327.369 140.321C327.047 136.621 326.844 132.624 326.871 128.351C326.912 124.079 327.207 119.536 327.814 114.769C329.031 105.244 331.592 94.7986 336.144 84.1306C336.704 82.7936 337.292 81.4536 337.94 80.1246C338.256 79.4566 338.574 78.7856 338.894 78.1106C339.241 77.4496 339.589 76.7856 339.939 76.1186C340.658 74.7946 341.304 73.4136 342.102 72.1016C342.882 70.7796 343.671 69.4456 344.466 68.1006C347.799 62.8096 351.644 57.5776 356.066 52.5646C364.877 42.5216 376.127 33.4466 389.399 26.5616C402.645 19.6706 417.951 14.9966 434.238 13.8016C450.49 12.5836 467.715 14.7506 484.057 21.0236C492.22 24.1516 500.165 28.2306 507.642 33.2366C509.548 34.4336 511.32 35.8366 513.156 37.1616C514.979 38.5046 516.69 40.0046 518.472 41.4246C520.151 42.9646 521.899 44.4426 523.529 46.0556C525.144 47.6836 526.819 49.2626 528.335 51.0036C534.567 57.8036 540.105 65.4036 544.59 73.7046L546.267 76.8236L547.803 80.0236L548.573 81.6276L549.27 83.2666L550.658 86.5526C552.353 90.9996 553.945 95.5216 555.104 100.188C556.343 104.724 557.159 109.34 557.852 113.944C558.404 118.567 558.857 123.19 558.863 127.807C558.987 132.422 558.681 137.011 558.276 141.558C557.974 143.819 557.733 146.087 557.346 148.324C556.917 150.554 556.594 152.799 556.027 154.987C552.027 172.611 544.005 188.847 533.225 202.172C522.472 215.528 509.106 226.075 494.732 233.166C480.372 240.316 465.13 244.187 450.446 245.148C435.745 246.114 421.61 244.243 408.975 240.34C396.345 236.395 385.108 230.713 375.725 223.989C366.32 217.292 358.622 209.781 352.596 202.233C351.051 200.375 349.686 198.455 348.321 196.615C347.044 194.715 345.736 192.908 344.629 191.049C342.291 187.407 340.414 183.793 338.689 180.414L338.312 179.675L338.474 180.486C338.479 180.509 338.483 180.531 338.487 180.55L338.644 180.423C314.835 170.428 302.752 165.354 302 165.039Z" fill="#003446"/>
</g>
<path fill-rule="evenodd" clip-rule="evenodd" d="M450.419 148.259L443.588 173.245L418.638 139.555L424.512 227.896H460.133L470.519 228.395C470.519 228.395 468.979 214.471 468.346 206.611C468.225 205.114 467.71 196.357 465.181 188.101C459.868 170.756 450.419 148.259 450.419 148.259Z" fill="#FAFAFA"/>
<path fill-rule="evenodd" clip-rule="evenodd" d="M442.376 187.354C442.288 187.468 446.312 190.71 451.362 194.596C456.413 198.484 460.578 201.542 460.666 201.427C460.753 201.313 456.731 198.071 451.679 194.184C446.629 190.298 442.463 187.24 442.376 187.354Z" fill="#1A2E35"/>
<path fill-rule="evenodd" clip-rule="evenodd" d="M380.367 136.08L399.767 126.746L407.375 117.703L418.138 128.892L446.674 227.655H397.738L391.463 210.711L380.367 145.268V136.08Z" fill="#00A0FF"/>
<path fill-rule="evenodd" clip-rule="evenodd" d="M467.669 229.085L468.98 208.124L409.862 198.108C409.862 198.108 399.763 149.325 393.542 141.332C387.799 133.955 380.313 136.514 380.313 136.514C380.313 136.514 373.567 141.135 375.18 158.827C376.024 168.093 379.412 200.217 380.64 211.821C380.935 214.604 381.855 217.278 383.332 219.653C386.713 225.09 392.662 228.395 399.064 228.395L467.669 229.085Z" fill="#00A0FF"/>
<path fill-rule="evenodd" clip-rule="evenodd" d="M400.208 210.288C400.294 210.297 400.377 209.357 400.808 207.923C401.229 206.495 402.076 204.571 403.542 202.833C405.008 201.094 406.761 199.935 408.098 199.278C409.439 198.612 410.351 198.372 410.328 198.288C410.317 198.232 409.364 198.346 407.943 198.944C406.531 199.531 404.67 200.685 403.144 202.498C401.616 204.308 400.792 206.337 400.452 207.827C400.103 209.328 400.152 210.287 400.208 210.288Z" fill="#1A2E35"/>
<path fill-rule="evenodd" clip-rule="evenodd" d="M401.286 128.169C401.846 134.337 403.029 140.448 404.81 146.38C406.292 145.944 407.775 145.51 409.257 145.075C407.432 147.689 407.207 151.159 407.93 154.264C408.652 157.369 410.221 160.201 411.771 162.986C419.126 176.198 426.481 189.41 433.836 202.621L411.594 152.122L412.173 142.787L407.89 141.872L401.286 128.169Z" fill="#0084E9"/>
<path fill-rule="evenodd" clip-rule="evenodd" d="M410.056 197.524C407.368 197.367 404.632 198.166 402.451 199.745C400.269 201.324 398.656 203.672 397.965 206.276C397.8 206.899 397.689 207.577 397.93 208.175C398.171 208.773 398.882 209.221 399.473 208.964C399.924 208.769 400.142 208.268 400.339 207.819C402.27 203.409 406.08 199.858 410.616 198.243" fill="#0084E9"/>
<path fill-rule="evenodd" clip-rule="evenodd" d="M433.673 202.143C433.69 202.136 433.586 201.857 433.373 201.332C433.137 200.768 432.819 200.007 432.419 199.05C431.549 197.031 430.324 194.187 428.82 190.693C425.718 183.618 421.466 173.917 416.769 163.203C415.047 159.309 413.383 155.55 411.822 152.022L411.843 152.138C412.04 148.821 412.225 145.692 412.397 142.802L412.408 142.608L412.22 142.569C410.712 142.253 409.287 141.955 407.934 141.671L408.076 141.783C405.857 137.294 404.035 133.61 402.744 130.997C402.115 129.753 401.615 128.766 401.251 128.046C401.088 127.737 400.955 127.486 400.847 127.282C400.753 127.111 400.699 127.025 400.69 127.03C400.681 127.035 400.715 127.128 400.791 127.309C400.885 127.52 401 127.78 401.142 128.099C401.482 128.83 401.948 129.834 402.535 131.099C403.787 133.73 405.554 137.442 407.706 141.962L407.749 142.052L407.848 142.074C409.199 142.369 410.621 142.678 412.126 143.007L411.949 142.774C411.762 145.663 411.56 148.791 411.345 152.107L411.341 152.167L411.366 152.223C412.921 155.755 414.577 159.516 416.293 163.413C421.044 174.104 425.346 183.782 428.484 190.842C430.051 194.308 431.327 197.128 432.233 199.132C432.671 200.073 433.019 200.821 433.277 201.375C433.521 201.886 433.656 202.151 433.673 202.143Z" fill="#1A2E35"/>
<path fill-rule="evenodd" clip-rule="evenodd" d="M467.711 228.395C467.72 228.396 467.737 228.278 467.76 228.047C467.782 227.789 467.811 227.45 467.848 227.023C467.917 226.087 468.013 224.766 468.136 223.082C468.365 219.623 468.691 214.678 469.094 208.583L469.106 208.416L468.94 208.386C457.838 206.346 442.765 203.578 426.176 200.53C420.693 199.536 415.378 198.571 410.408 197.669L410.606 197.853C407.139 184.684 404.13 173.254 401.979 165.081C400.895 161.04 400.026 157.804 399.42 155.544C399.119 154.458 398.883 153.608 398.713 152.997C398.634 152.728 398.57 152.513 398.52 152.341C398.474 152.195 398.447 152.121 398.44 152.123C398.433 152.124 398.445 152.203 398.477 152.353C398.516 152.527 398.565 152.747 398.628 153.019C398.777 153.635 398.986 154.493 399.253 155.587C399.825 157.857 400.645 161.104 401.669 165.162C403.776 173.347 406.723 184.792 410.118 197.98L410.158 198.135L410.316 198.165C415.285 199.072 420.6 200.041 426.081 201.042C442.68 204.035 457.762 206.754 468.871 208.757L468.717 208.56C468.385 214.66 468.116 219.608 467.927 223.069C467.847 224.756 467.784 226.08 467.74 227.016C467.725 227.445 467.713 227.784 467.705 228.044C467.7 228.276 467.702 228.395 467.711 228.395Z" fill="#1A2E35"/>
<path fill-rule="evenodd" clip-rule="evenodd" d="M383.346 134.442C383.331 134.536 384.335 134.684 385.846 135.247C387.355 135.8 389.344 136.866 391.14 138.541C392.929 140.224 394.122 142.139 394.774 143.609C395.433 145.08 395.647 146.072 395.74 146.05C395.775 146.044 395.747 145.792 395.664 145.338C395.592 144.882 395.408 144.238 395.114 143.466C394.534 141.922 393.347 139.902 391.496 138.161C389.638 136.427 387.545 135.376 385.966 134.898C385.177 134.656 384.522 134.514 384.062 134.471C383.604 134.419 383.351 134.407 383.346 134.442Z" fill="#1A2E35"/>
<path fill-rule="evenodd" clip-rule="evenodd" d="M495.108 112.219C493.356 108.99 494.132 95.9484 491.432 96.4094C487.989 96.9984 491.17 110.704 491.386 111.952C491.597 113.165 489.798 113.511 489.664 112.374C489.469 110.741 487.461 94.7934 484.07 95.6924C482.191 96.1894 483.056 99.6194 483.056 99.6194C483.056 99.6194 485.971 115.077 484.355 115.448C482.715 115.824 481.504 106.904 480.783 103.661C480.091 100.552 478.068 99.2154 477.299 100.855C476.172 103.258 478.335 111.041 478.979 114.166C479.622 117.291 481.234 126.332 476.849 122.799C472.464 119.266 467.792 118.157 466.338 118.724C464.885 119.29 465.201 121.523 466.887 121.965C468.249 122.323 470.349 123.614 471.889 124.648C473.158 125.498 474.162 126.653 475.206 127.764C475.951 128.558 477.258 130.183 478.342 132.648C479.597 135.499 482.041 137.66 485.008 138.613L487.567 150.794L504.148 147.241L500.45 134.354C499.105 125.89 499.848 114.509 499.837 109.332C499.818 101.078 498.743 101.017 497.792 101.236C495.693 101.717 496.818 115.369 495.108 112.219Z" fill="#FFD2BD"/>
<path fill-rule="evenodd" clip-rule="evenodd" d="M495.574 123.298C495.595 123.375 494.657 123.544 493.369 124.325C492.095 125.088 490.499 126.58 489.628 128.745C489.391 129.324 489.241 129.917 489.13 130.488L489.074 130.771L488.839 130.632C487.241 129.692 485.673 129.228 484.545 129.008C483.412 128.786 482.712 128.764 482.715 128.705C482.714 128.665 483.42 128.596 484.586 128.75C485.747 128.902 487.376 129.327 489.033 130.278L488.743 130.422C488.853 129.82 489.009 129.196 489.258 128.589C489.711 127.462 490.374 126.501 491.079 125.742C491.792 124.988 492.554 124.443 493.232 124.069C493.907 123.688 494.51 123.512 494.918 123.392C495.336 123.302 495.569 123.271 495.574 123.298Z" fill="#E09074"/>
<path fill-rule="evenodd" clip-rule="evenodd" d="M497.779 134.894C497.835 134.978 496.2 136.056 493.91 136.762C491.623 137.482 489.665 137.523 489.664 137.422C489.651 137.302 491.554 137.083 493.79 136.379C496.03 135.69 497.72 134.788 497.779 134.894Z" fill="#E09074"/>
<path fill-rule="evenodd" clip-rule="evenodd" d="M437.753 122.898L450.42 148.259L443.588 173.246L425.4 154.025L407.47 120.717L437.753 122.898Z" fill="#FFD2BD"/>
<path fill-rule="evenodd" clip-rule="evenodd" d="M449.677 125.277C449.677 125.277 467.681 131.677 467.681 132.867C467.681 132.869 467.682 132.873 467.682 132.875C470.862 135.371 481.452 160.971 484.821 165.813L494.452 180.003H494.453L494.452 180.002L486.374 148.471L504.147 143.244C504.147 143.244 519.323 179.92 521.168 188.078C523.012 196.235 520.881 202.708 520.881 202.708L520.783 202.624C519.49 206.574 516.991 209.741 514.126 211.578C506.59 216.41 499.555 217.319 492.356 212C488.274 208.984 483.615 205.349 479.346 201.95L478.228 228.424H468.413C468.413 226.937 468.711 208.796 468.711 208.796C468.711 208.796 466.629 201.956 465.737 195.71C464.844 189.465 450.224 148.484 450.224 148.484L438.872 126.627L438.608 118.539L449.677 125.277Z" fill="#00A0FF"/>
<path fill-rule="evenodd" clip-rule="evenodd" d="M478.423 228.201C478.44 228.201 478.468 227.918 478.507 227.376C478.544 226.791 478.593 226 478.655 225.002C478.763 222.889 478.917 219.905 479.106 216.222C479.444 208.74 479.908 198.425 480.429 186.87L480.43 186.84L480.424 186.805C480.213 185.712 479.987 184.546 479.759 183.368C477.38 171.222 475.227 160.231 473.657 152.221C472.859 148.276 472.209 145.067 471.749 142.795C471.52 141.719 471.339 140.865 471.205 140.237C471.143 139.971 471.092 139.755 471.05 139.575C471.013 139.427 470.989 139.351 470.981 139.352C470.971 139.354 470.978 139.433 470.998 139.586C471.027 139.768 471.061 139.989 471.102 140.259C471.213 140.891 471.362 141.752 471.551 142.836C471.972 145.117 472.566 148.337 473.297 152.296C474.828 160.314 476.928 171.317 479.25 183.473C479.478 184.651 479.704 185.818 479.916 186.912L479.91 186.847C479.454 198.406 479.048 208.723 478.752 216.207C478.63 219.893 478.531 222.879 478.462 224.994C478.439 225.993 478.421 226.785 478.408 227.372C478.401 227.915 478.406 228.2 478.423 228.201Z" fill="#1A2E35"/>
<path fill-rule="evenodd" clip-rule="evenodd" d="M468.359 204.701C468.377 204.698 468.345 204.412 468.269 203.871C468.18 203.284 468.061 202.496 467.911 201.508C467.568 199.407 467.088 196.456 466.497 192.831C465.246 185.47 463.531 175.384 461.638 164.241C460.366 156.948 459.173 150.107 458.157 144.282L458.152 144.255L458.142 144.231C455.646 138.572 453.559 133.838 452.072 130.466C451.341 128.845 450.758 127.554 450.337 126.62C450.143 126.208 449.987 125.876 449.863 125.613C449.752 125.387 449.69 125.272 449.678 125.277C449.667 125.282 449.708 125.406 449.797 125.641C449.905 125.912 450.041 126.253 450.208 126.675C450.602 127.621 451.146 128.93 451.829 130.571C453.274 133.961 455.302 138.721 457.727 144.411L457.712 144.359C458.708 150.187 459.878 157.033 461.125 164.33C463.077 175.462 464.844 185.539 466.134 192.894C466.793 196.508 467.329 199.449 467.711 201.542C467.901 202.524 468.053 203.305 468.166 203.889C468.276 204.424 468.341 204.704 468.359 204.701Z" fill="#1A2E35"/>
<path fill-rule="evenodd" clip-rule="evenodd" d="M502.855 201.761C502.925 201.71 502.154 200.607 501.075 198.73C499.99 196.856 498.647 194.178 497.463 191.094C496.286 188.006 495.481 185.119 494.985 183.01C494.486 180.901 494.254 179.575 494.172 179.587C494.137 179.592 494.156 179.929 494.223 180.536C494.285 181.143 494.419 182.016 494.626 183.087C495.032 185.231 495.788 188.162 496.978 191.28C498.172 194.395 499.584 197.078 500.759 198.919C501.343 199.842 501.849 200.568 502.23 201.045C502.605 201.527 502.826 201.782 502.855 201.761Z" fill="#1A2E35"/>
<path fill-rule="evenodd" clip-rule="evenodd" d="M501.498 200.296C502.17 200.355 502.552 201.234 502.258 201.842C501.963 202.449 501.206 202.729 500.539 202.63C499.871 202.532 499.286 202.131 498.789 201.675C497.259 200.273 496.355 198.315 495.73 196.336C494.209 191.518 494.136 186.38 494.076 181.327C495.489 187.903 497.992 194.243 501.453 200.01" fill="#0084E9"/>
<path fill-rule="evenodd" clip-rule="evenodd" d="M479.63 202.65C482.675 197.807 483.66 192.151 483.26 186.444C482.722 178.749 478.981 171.711 476.19 164.519C477.797 172.082 478.712 179.587 480.169 186.859C480.169 186.859 479.391 197.664 479.373 202.462" fill="#0084E9"/>
<path fill-rule="evenodd" clip-rule="evenodd" d="M467.214 197.827C466.433 186.31 465.649 174.766 463.611 163.404C461.573 152.043 457.617 140.268 452.015 130.175C453.465 134.738 457.934 144.321 457.934 144.321C457.934 144.321 464.39 178.34 467.187 195.474" fill="#0084E9"/>
<path fill-rule="evenodd" clip-rule="evenodd" d="M468.666 211.068L467.053 228.926L475.486 228.893C475.709 228.894 479.153 228.838 482.948 228.773C485.74 229.13 490.166 229.143 491.51 229.002C491.748 228.976 491.889 228.947 491.907 228.912C491.907 228.912 492.543 228.835 493.207 228.598C493.226 228.597 493.245 228.597 493.245 228.597L493.241 228.586C494.005 228.306 494.789 227.815 494.667 226.976C494.298 224.416 492.776 224.21 492.776 224.21C492.776 224.21 492.488 224.189 492.013 224.157L491.951 223.934C493.109 223.936 494.083 223.905 494.599 223.85C494.836 223.826 494.978 223.796 494.996 223.761C494.996 223.761 497.985 223.407 497.757 221.825C497.387 219.264 495.865 219.058 495.865 219.058C495.865 219.058 494.832 218.985 493.404 218.893C494.6 218.897 495.612 218.866 496.14 218.81C496.378 218.786 496.52 218.755 496.537 218.721C496.537 218.721 499.527 218.367 499.298 216.785C498.929 214.224 497.407 214.018 497.407 214.018C497.407 214.018 496.573 213.96 495.371 213.881C496.338 213.876 497.139 213.845 497.589 213.797C497.827 213.773 497.968 213.743 497.986 213.709C497.986 213.709 500.976 213.354 500.748 211.772C500.378 209.212 498.856 209.006 498.856 209.006C498.856 209.006 494.151 208.671 490.921 208.537C490.92 208.534 487.257 205.233 485.813 205.385C483.657 205.613 471.116 210.243 471.116 210.243L468.666 211.068Z" fill="#FFD2BD"/>
<path fill-rule="evenodd" clip-rule="evenodd" d="M484.489 223.684C484.501 223.832 486.373 224.012 488.669 224.086C490.966 224.161 492.817 224.101 492.805 223.954C492.793 223.805 490.922 223.625 488.625 223.551C486.328 223.477 484.477 223.537 484.489 223.684Z" fill="#E09074"/>
<path fill-rule="evenodd" clip-rule="evenodd" d="M484.462 218.621C484.457 218.77 487.118 218.985 490.405 219.102C493.693 219.219 496.362 219.192 496.368 219.044C496.373 218.894 493.712 218.679 490.424 218.562C487.137 218.445 484.467 218.472 484.462 218.621Z" fill="#E09074"/>
<path fill-rule="evenodd" clip-rule="evenodd" d="M484.888 213.476C484.883 213.625 487.544 213.841 490.831 213.957C494.119 214.074 496.788 214.047 496.794 213.899C496.799 213.749 494.138 213.534 490.85 213.417C487.563 213.3 484.893 213.327 484.888 213.476Z" fill="#E09074"/>
<path fill-rule="evenodd" clip-rule="evenodd" d="M492.268 208.639C492.268 208.701 491.543 208.745 490.373 208.788C489.032 208.832 487.498 208.882 485.805 208.937C484.112 208.998 482.579 209.053 481.237 209.102C480.067 209.139 479.342 209.144 479.337 209.082C479.332 209.023 480.05 208.909 481.217 208.791C482.384 208.674 484.001 208.56 485.79 208.497C487.579 208.437 489.2 208.441 490.372 208.478C491.545 208.514 492.269 208.579 492.268 208.639Z" fill="#E09074"/>
<path fill-rule="evenodd" clip-rule="evenodd" d="M399.187 63.1655C397.069 58.0125 390.361 55.6665 385.129 57.5825C379.897 59.4985 376.402 64.8695 375.773 70.4055C375.464 73.1275 375.807 76.0355 377.371 78.2845C379.017 80.6505 381.841 82.0035 384.696 82.4035C389.796 83.1195 395.206 80.8955 398.328 76.8015C401.451 72.7055 402.164 66.9005 400.124 62.1725" fill="#1A2E35"/>
<path fill-rule="evenodd" clip-rule="evenodd" d="M377.895 63.8489C377.868 63.8689 377.993 64.1159 378.271 64.5329C378.549 64.9499 378.995 65.5249 379.617 66.1739C380.847 67.4719 382.886 69.0229 385.505 69.9209C388.124 70.8219 390.687 70.8499 392.455 70.5809C393.344 70.4519 394.049 70.2709 394.524 70.1129C395 69.9539 395.251 69.8359 395.241 69.8039C395.216 69.7179 394.163 70.0529 392.412 70.2159C390.673 70.3849 388.203 70.2969 385.674 69.4289C383.146 68.5609 381.144 67.1139 379.875 65.9119C378.594 64.7079 377.968 63.7959 377.895 63.8489Z" fill="#375A64"/>
<path fill-rule="evenodd" clip-rule="evenodd" d="M375.67 69.7278C375.649 69.7558 375.853 69.9478 376.243 70.2688C376.629 70.5968 377.223 71.0268 377.981 71.5228C379.5 72.4968 381.762 73.6878 384.502 74.2618C385.869 74.5398 387.204 74.6238 388.411 74.5718C389.619 74.5048 390.692 74.2998 391.567 74.0498C392.441 73.7928 393.13 73.5318 393.581 73.2978C394.037 73.0758 394.28 72.9378 394.265 72.9058C394.226 72.8148 393.209 73.2858 391.477 73.6928C390.61 73.8918 389.563 74.0538 388.392 74.0918C387.222 74.1158 385.933 74.0218 384.608 73.7508C381.953 73.1958 379.719 72.0878 378.172 71.2078C376.626 70.3128 375.723 69.6578 375.67 69.7278Z" fill="#375A64"/>
<path fill-rule="evenodd" clip-rule="evenodd" d="M453.264 78.5562C465.642 51.3292 436.198 37.6522 420.131 42.1902C405.031 46.4542 398.591 53.9692 396.106 64.0682C393.62 74.1722 393.739 85.1142 397.699 94.7372C399.651 99.4812 403.167 104.301 408.264 104.894" fill="#1A2E35"/>
<path fill-rule="evenodd" clip-rule="evenodd" d="M438.478 145.846C438.692 132.837 438.843 114.969 438.848 115.043C438.848 115.043 450.029 113.186 452.346 98.5983C453.498 91.3433 453.133 79.4473 452.521 69.7233C451.969 60.9713 446.17 50.2333 437.45 51.1563L410.219 58.0373C407.57 58.3183 405.575 60.5783 405.628 63.2423L407.402 119.567" fill="#FFD2BD"/>
<path fill-rule="evenodd" clip-rule="evenodd" d="M445.842 80.0905C445.888 81.0715 445.095 81.9205 444.071 81.9875C443.049 82.0545 442.18 81.3155 442.134 80.3335C442.088 79.3525 442.881 78.5015 443.903 78.4355C444.927 78.3675 445.796 79.1095 445.842 80.0905Z" fill="#1A2E35"/>
<path fill-rule="evenodd" clip-rule="evenodd" d="M425.664 80.0905C425.71 81.0715 424.917 81.9205 423.893 81.9865C422.871 82.0545 422.002 81.3155 421.956 80.3335C421.911 79.3525 422.703 78.5025 423.725 78.4355C424.749 78.3675 425.618 79.1095 425.664 80.0905Z" fill="#1A2E35"/>
<path fill-rule="evenodd" clip-rule="evenodd" d="M437.74 90.4182C437.731 90.3042 438.982 90.0882 441.01 89.8282C441.524 89.7752 442.011 89.6732 442.097 89.3222C442.219 88.9512 442.004 88.3972 441.754 87.7992C441.271 86.5552 440.765 85.2512 440.234 83.8842C438.122 78.3112 436.594 73.7272 436.819 73.6442C437.044 73.5612 438.939 78.0122 441.05 83.5852C441.558 84.9602 442.044 86.2702 442.507 87.5232C442.701 88.1072 443.035 88.7712 442.773 89.5412C442.635 89.9252 442.257 90.2042 441.927 90.2932C441.598 90.3942 441.309 90.3982 441.054 90.4142C439.014 90.5232 437.748 90.5332 437.74 90.4182Z" fill="#1A2E35"/>
<path fill-rule="evenodd" clip-rule="evenodd" d="M438.873 115.103C438.873 115.103 429.059 115.736 419.335 109.891C419.335 109.891 424.271 120.04 438.873 118.675V115.103Z" fill="#E09074"/>
<path fill-rule="evenodd" clip-rule="evenodd" d="M408.412 81.6491C408.199 81.5451 400.603 78.1861 400.514 86.9201C400.425 95.6551 409.213 93.9431 409.23 93.6921C409.248 93.4421 408.412 81.6491 408.412 81.6491Z" fill="#FFD2BD"/>
<path fill-rule="evenodd" clip-rule="evenodd" d="M406.596 90.3558C406.558 90.3278 406.443 90.4607 406.185 90.5767C405.933 90.6877 405.501 90.7628 405.047 90.5877C404.128 90.2397 403.366 88.7667 403.34 87.1927C403.325 86.3967 403.499 85.6417 403.788 85.0177C404.061 84.3817 404.479 83.9397 404.944 83.8617C405.408 83.7597 405.733 84.0417 405.838 84.2887C405.952 84.5337 405.895 84.7077 405.941 84.7227C405.966 84.7447 406.13 84.5787 406.063 84.2167C406.029 84.0437 405.929 83.8357 405.725 83.6667C405.517 83.4937 405.21 83.4037 404.886 83.4347C404.212 83.4747 403.6 84.0877 403.283 84.7727C402.929 85.4597 402.715 86.3098 402.731 87.2027C402.769 88.9627 403.653 90.6198 404.912 90.9977C405.525 91.1637 406.039 90.9837 406.306 90.7797C406.578 90.5668 406.626 90.3728 406.596 90.3558Z" fill="#E09074"/>
<path fill-rule="evenodd" clip-rule="evenodd" d="M437.144 96.0287C436.851 96.7707 436.551 97.5257 436.059 98.1557C435.567 98.7847 434.849 99.2837 434.05 99.3217C433.2 99.3617 432.38 98.8587 431.906 98.1517C431.432 97.4447 431.27 96.5637 431.309 95.7137C431.343 94.9447 431.695 94.0267 432.459 93.9367C432.777 93.8987 433.09 94.0217 433.387 94.1417L437.404 95.7707" fill="#E09074"/>
<path fill-rule="evenodd" clip-rule="evenodd" d="M435.541 99.3509C435.52 99.2249 434.639 99.5829 433.399 99.0859C432.799 98.8449 432.142 98.3669 431.779 97.6149C431.417 96.8719 431.346 95.8669 431.727 94.9879C431.815 94.7669 431.947 94.5659 432.077 94.3869C432.236 94.2199 432.207 94.2279 432.38 94.2529C432.543 94.2969 432.808 94.4209 433.023 94.5049C433.247 94.5969 433.467 94.6869 433.683 94.7749C434.543 95.1219 435.321 95.4259 435.978 95.6719C437.294 96.1629 438.127 96.4209 438.166 96.3299C438.205 96.2399 437.442 95.8159 436.178 95.2049C435.546 94.8999 434.788 94.5479 433.943 94.1659C433.73 94.0719 433.513 93.9739 433.292 93.8749C433.058 93.7799 432.879 93.6739 432.559 93.5739C432.402 93.5299 432.18 93.5039 431.963 93.5909C431.751 93.6769 431.619 93.8209 431.52 93.9409C431.34 94.1799 431.182 94.4249 431.068 94.7029C430.596 95.7999 430.71 97.0159 431.191 97.9159C431.683 98.8359 432.519 99.3529 433.23 99.5649C433.953 99.7879 434.575 99.7339 434.97 99.6319C435.37 99.5269 435.557 99.3909 435.541 99.3509Z" fill="#1A2E35"/>
<path fill-rule="evenodd" clip-rule="evenodd" d="M398.619 75.6706C399.514 75.6086 406.727 76.5406 406.159 89.9506C405.629 102.476 396.842 99.7176 394.038 95.0026C391.382 90.5346 389.848 76.2856 398.619 75.6706Z" fill="#375A64"/>
<path fill-rule="evenodd" clip-rule="evenodd" d="M394.158 77.2543C394.168 77.2543 394.179 77.1333 394.192 76.9013C394.202 76.6403 394.217 76.3023 394.234 75.8803C394.26 74.9543 394.296 73.6643 394.341 72.0613C394.407 68.7673 394.499 64.1923 394.605 58.9093L394.443 59.0683C395.633 59.0703 396.883 59.0713 398.162 59.0733L397.995 58.9023C397.968 59.9003 397.939 60.9533 397.91 62.0233C397.785 67.0553 397.669 71.7413 397.572 75.6633L397.569 75.7783L397.68 75.8053C399.354 76.1963 400.677 77.1703 401.512 78.2713C402.361 79.3733 402.783 80.5443 403.042 81.5063C403.299 82.4753 403.387 83.2633 403.436 83.7963C403.459 84.0643 403.472 84.2703 403.479 84.4083C403.488 84.5473 403.492 84.6183 403.5 84.6183C403.507 84.6193 403.517 84.5473 403.523 84.4083C403.531 84.2693 403.532 84.0613 403.521 83.7913C403.499 83.2513 403.437 82.4543 403.2 81.4663C402.961 80.4853 402.555 79.2833 401.695 78.1333C400.853 76.9833 399.479 75.9493 397.746 75.5293L397.855 75.6713C397.967 71.7493 398.102 67.0633 398.246 62.0313C398.275 60.9623 398.303 59.9093 398.329 58.9113L398.333 58.7393H398.162C396.883 58.7413 395.633 58.7433 394.443 58.7443L394.283 58.7453L394.281 58.9043C394.223 64.1883 394.173 68.7643 394.137 72.0583C394.131 73.6613 394.127 74.9523 394.124 75.8783C394.129 76.3003 394.133 76.6393 394.135 76.9003C394.141 77.1333 394.148 77.2543 394.158 77.2543Z" fill="#375A64"/>
<path fill-rule="evenodd" clip-rule="evenodd" d="M398.619 58.9069C398.619 58.9069 402.391 50.0779 411.381 45.7209C415.736 43.6109 418.994 42.5219 422.15 41.7279C422.15 41.7279 416.906 40.4829 408.419 44.2589C404.562 45.9739 400.677 48.2089 398.108 51.5569C396.476 53.6839 394.439 57.8419 394.443 58.9069H398.619Z" fill="#375A64"/>
<path fill-rule="evenodd" clip-rule="evenodd" d="M399.578 98.7473C399.582 98.7583 399.668 98.7323 399.831 98.6733C399.99 98.6083 400.224 98.5043 400.501 98.3263C401.055 97.9803 401.793 97.3323 402.391 96.3093C402.997 95.2933 403.399 93.9163 403.552 92.3773C403.701 90.8373 403.701 89.1403 403.557 87.3663C403.408 85.5933 403.108 83.9183 402.727 82.4253C402.352 80.9353 401.902 79.5983 401.285 78.5893C400.678 77.5753 399.942 76.9243 399.383 76.5833C399.104 76.4103 398.871 76.3043 398.71 76.2433C398.548 76.1843 398.459 76.1633 398.456 76.1733C398.443 76.2023 398.786 76.3223 399.31 76.6923C399.833 77.0583 400.517 77.7123 401.08 78.7093C401.652 79.7023 402.07 81.0163 402.427 82.5003C402.787 83.9823 403.074 85.6403 403.222 87.3933C403.364 89.1463 403.372 90.8333 403.243 92.3473C403.109 93.8583 402.743 95.1963 402.184 96.1923C401.633 97.1943 400.945 97.8483 400.427 98.2183C399.908 98.5953 399.564 98.7163 399.578 98.7473Z" fill="#1A2E35"/>
<path fill-rule="evenodd" clip-rule="evenodd" d="M427.736 100.577L434.642 101.932C435.563 102.113 436.457 101.513 436.638 100.591L436.741 100.067C436.922 99.1458 436.321 98.2518 435.4 98.0708L428.494 96.7158C427.572 96.5348 426.678 97.1358 426.498 98.0568L426.395 98.5808C426.214 99.5018 426.815 100.396 427.736 100.577Z" fill="#375A64"/>
<path fill-rule="evenodd" clip-rule="evenodd" d="M427.369 97.7375L396.715 88.1205C395.956 87.8835 395.148 88.3015 394.905 89.0585C394.654 89.8435 395.109 90.6805 395.905 90.8955L427.251 99.3645L427.369 97.7375Z" fill="#375A64"/>
<path fill-rule="evenodd" clip-rule="evenodd" d="M404.711 93.5104C404.717 93.4884 404.356 93.3624 403.696 93.1534C402.979 92.9354 402.034 92.6474 400.893 92.2994C399.717 91.9364 398.273 91.5534 396.746 91.0524C396.377 90.9094 396.019 90.7184 395.742 90.4354C395.475 90.1594 395.303 89.7614 395.31 89.3684C395.311 88.9744 395.561 88.6194 395.943 88.4904C396.327 88.3634 396.786 88.4194 397.225 88.5304C400.788 89.6764 404.011 90.7134 406.416 91.4874C407.555 91.8384 408.499 92.1304 409.215 92.3514C409.878 92.5484 410.248 92.6474 410.255 92.6244C410.263 92.6034 409.906 92.4624 409.256 92.2274C408.548 91.9804 407.616 91.6544 406.49 91.2604C404.143 90.4634 400.925 89.3624 397.307 88.2034C396.839 88.0894 396.332 88.0114 395.833 88.1754C395.328 88.3364 394.97 88.8554 394.981 89.3614C394.977 89.8614 395.185 90.3224 395.512 90.6594C395.839 90.9894 396.243 91.1954 396.634 91.3424C398.219 91.8444 399.632 92.1904 400.828 92.5294C401.981 92.8344 402.936 93.0874 403.66 93.2794C404.331 93.4494 404.705 93.5324 404.711 93.5104Z" fill="#1A2E35"/>
<path fill-rule="evenodd" clip-rule="evenodd" d="M420.797 75.8062C421.032 76.1752 423.132 75.0322 425.736 75.5002C428.348 75.9352 429.941 77.7172 430.286 77.4492C430.452 77.3332 430.28 76.6862 429.582 75.8972C428.9 75.1162 427.63 74.2442 426.003 73.9612C424.376 73.6802 422.886 74.0752 421.982 74.5812C421.059 75.0902 420.679 75.6422 420.797 75.8062Z" fill="#E09074"/>
<path fill-rule="evenodd" clip-rule="evenodd" d="M421.094 76.1332C421.131 76.2062 421.651 75.9682 422.529 75.7722C423.401 75.5722 424.657 75.4562 425.982 75.7542C427.307 76.0522 428.393 76.6952 429.095 77.2482C429.805 77.8022 430.173 78.2392 430.238 78.1902C430.288 78.1552 430.02 77.6272 429.336 76.9702C428.663 76.3162 427.526 75.5682 426.096 75.2462C424.667 74.9242 423.32 75.1132 422.431 75.4172C421.532 75.7182 421.063 76.0802 421.094 76.1332Z" fill="#1A2E35"/>
<path fill-rule="evenodd" clip-rule="evenodd" d="M419.748 70.2688C419.961 70.9688 422.19 70.9158 424.843 71.0428C427.498 71.1258 429.732 71.3288 429.987 70.6408C430.1 70.3068 429.643 69.7958 428.735 69.3368C427.831 68.8788 426.474 68.4998 424.942 68.4418C423.412 68.3818 422.025 68.6568 421.089 69.0518C420.147 69.4458 419.657 69.9278 419.748 70.2688Z" fill="#1A2E35"/>
<path fill-rule="evenodd" clip-rule="evenodd" d="M441.734 77.3452C441.937 77.4572 442.33 77.0832 442.96 76.6492C443.588 76.2082 444.503 75.7462 445.617 75.5742C447.878 75.2012 449.692 76.2482 449.954 75.8802C450.074 75.7222 449.767 75.2062 448.966 74.7042C448.178 74.2142 446.848 73.8012 445.377 74.0322C443.904 74.2502 442.732 75.0892 442.181 75.8662C441.614 76.6462 441.561 77.2552 441.734 77.3452Z" fill="#E09074"/>
<path fill-rule="evenodd" clip-rule="evenodd" d="M441.488 78.4313C441.558 78.4763 441.894 77.9753 442.602 77.3503C443.3 76.7263 444.422 76.0023 445.816 75.7013C447.209 75.3993 448.53 75.5903 449.425 75.8683C450.329 76.1423 450.843 76.4563 450.888 76.3863C450.925 76.3393 450.472 75.9043 449.549 75.5213C448.638 75.1373 447.218 74.8643 445.705 75.1923C444.193 75.5193 443.013 76.3583 442.345 77.0853C441.665 77.8193 441.436 78.4043 441.488 78.4313Z" fill="#1A2E35"/>
<path fill-rule="evenodd" clip-rule="evenodd" d="M440.58 71.1428C440.71 71.8598 442.84 72.0658 445.366 72.0938C447.894 72.1048 450.026 71.9338 450.167 71.2188C450.312 70.5248 448.188 69.5068 445.387 69.4898C442.586 69.4628 440.447 70.4468 440.58 71.1428Z" fill="#1A2E35"/>
<path fill-rule="evenodd" clip-rule="evenodd" d="M417.034 50.4596C418.612 52.8336 420.212 55.2536 421.029 57.9846C421.845 60.7176 421.778 63.8566 420.173 66.2146C418.637 68.4716 416.001 69.6536 413.605 70.9646C411.209 72.2746 408.751 74.0716 408.157 76.7366C407.971 77.5706 408.326 80.4816 407.7 81.0636C406.841 81.8606 405.333 81.3706 404.68 80.3966C404.028 79.4226 403.605 76.2216 403.589 75.0496C403.537 71.4146 403.487 67.7796 403.436 64.1456C403.392 61.0666 403.433 57.8756 404.767 55.1016C406.632 51.2216 410.498 49.9806 416.138 50.2546" fill="#1A2E35"/>
<path fill-rule="evenodd" clip-rule="evenodd" d="M452.849 72.3356C452.365 68.6566 451.028 65.0466 448.709 62.1496C446.391 59.2536 443.049 57.1146 439.379 56.5626C435.7 56.0076 431.984 57.0276 428.269 57.2396C424.554 57.4506 420.323 56.5406 418.384 53.3646C417.779 52.3746 417.493 50.9876 418.266 50.1236C418.557 49.7966 418.96 49.5946 419.356 49.4066C424.285 47.0836 429.87 46.0346 435.259 46.8356C440.648 47.6356 445.803 50.3576 449.189 54.6266C452.575 58.8956 454.052 64.7206 452.721 70.0036" fill="#1A2E35"/>
<path fill-rule="evenodd" clip-rule="evenodd" d="M455.072 66.8579C455.09 66.8629 455.148 66.6999 455.245 66.3819C455.347 66.0669 455.456 65.5869 455.54 64.9619C455.706 63.7179 455.728 61.8359 455.04 59.6629C454.372 57.5069 452.972 55.0549 450.656 53.1189C448.369 51.1649 445.271 49.7279 441.857 49.1619C438.432 48.5909 435.095 48.9249 432.198 49.5969C430.746 49.9389 429.39 50.3559 428.15 50.8179C426.905 51.2739 425.791 51.7799 424.726 52.0649C422.577 52.5079 420.74 52.7779 419.541 52.5269C418.318 52.2819 417.887 51.6319 417.848 51.6939C417.839 51.7009 417.935 51.8509 418.184 52.0759C418.43 52.3059 418.875 52.5629 419.496 52.7239C420.764 53.0449 422.595 52.8319 424.82 52.4209C425.928 52.1479 427.064 51.6549 428.296 51.2239C429.53 50.7849 430.872 50.3889 432.305 50.0649C435.164 49.4279 438.435 49.1189 441.771 49.6749C445.098 50.2269 448.114 51.6109 450.347 53.4849C452.608 55.3429 453.992 57.6899 454.69 59.7769C455.404 61.8769 455.441 63.7119 455.339 64.9399C455.228 66.1769 455.02 66.8439 455.072 66.8579Z" fill="#375A64"/>
<path fill-rule="evenodd" clip-rule="evenodd" d="M438.935 43.9134C438.939 43.8824 438.615 43.8034 438.017 43.7364C437.419 43.6664 436.543 43.6374 435.466 43.7324C433.331 43.9184 430.321 44.7554 427.706 46.8364C426.413 47.8674 425.334 48.9814 424.189 49.7584C423.07 50.5424 421.834 50.8904 420.816 51.1164C419.789 51.3324 418.931 51.3614 418.355 51.2844C417.775 51.2134 417.481 51.0584 417.459 51.1004C417.443 51.1184 417.718 51.3454 418.319 51.4834C418.916 51.6284 419.812 51.6544 420.884 51.4784C421.943 51.2904 423.235 50.9744 424.457 50.1554C425.669 49.3644 426.774 48.2434 428.029 47.2454C430.549 45.2384 433.434 44.3734 435.509 44.0994C437.605 43.8164 438.928 44.0124 438.935 43.9134Z" fill="#375A64"/>
<path fill-rule="evenodd" clip-rule="evenodd" d="M394.77 70.6995C394.816 70.7205 394.972 70.3515 395.394 69.7925C395.827 69.2485 396.573 68.5265 397.713 68.0095C398.84 67.4825 400.325 67.1315 401.978 67.1535C403.638 67.1735 405.45 67.5445 407.368 67.8995C409.281 68.2655 411.179 68.4875 412.892 68.3175C414.601 68.1665 416.103 67.7465 417.296 67.2565C418.496 66.7725 419.389 66.2195 419.98 65.8115C420.572 65.4025 420.857 65.1225 420.841 65.1005C420.785 65.0125 419.538 66.0305 417.164 66.9125C415.981 67.3475 414.512 67.7185 412.853 67.8405C411.193 67.9765 409.37 67.7525 407.461 67.3875C405.554 67.0345 403.706 66.6685 401.981 66.6745C400.254 66.6785 398.713 67.0825 397.551 67.6785C396.376 68.2635 395.626 69.0715 395.229 69.6755C395.041 69.9875 394.908 70.2355 394.849 70.4185C394.781 70.5965 394.753 70.6915 394.77 70.6995Z" fill="#375A64"/>
<path fill-rule="evenodd" clip-rule="evenodd" d="M396.352 63.6949C396.394 63.7149 396.546 63.3519 396.975 62.8189C397.407 62.2949 398.17 61.6259 399.305 61.1739C400.433 60.7099 401.904 60.5439 403.519 60.7249C405.14 60.8849 406.883 61.3749 408.773 61.7279C410.654 62.0819 412.574 62.1719 414.208 61.6419C415.84 61.1429 417.111 60.2159 417.988 59.2999C418.876 58.3819 419.376 57.4619 419.65 56.8129C419.787 56.4859 419.873 56.2259 419.914 56.0449C419.961 55.8649 419.977 55.7679 419.96 55.7619C419.852 55.7019 419.498 57.3089 417.727 59.0409C416.853 59.8869 415.619 60.7359 414.071 61.1819C412.531 61.6539 410.716 61.5619 408.867 61.2159C407.013 60.8709 405.242 60.3869 403.565 60.2479C401.898 60.0849 400.332 60.2989 399.162 60.8349C397.983 61.3549 397.213 62.1109 396.812 62.6969C396.415 63.2949 396.329 63.6869 396.352 63.6949Z" fill="#375A64"/>
<path fill-rule="evenodd" clip-rule="evenodd" d="M433.833 163.706C433.836 163.701 433.773 163.648 433.648 163.55C433.524 163.448 433.331 163.31 433.09 163.11C432.604 162.718 431.901 162.113 431.057 161.262C430.21 160.411 429.237 159.298 428.186 157.93C427.133 156.562 426.011 154.935 424.781 153.11C422.32 149.464 419.44 145.029 416.384 139.912C414.854 137.354 413.278 134.628 411.686 131.749C411.29 131.027 410.89 130.298 410.486 129.561C410.085 128.824 409.672 128.065 409.118 127.386C408.571 126.705 407.838 126.14 406.996 125.847C406.577 125.699 406.119 125.607 405.646 125.698C405.412 125.752 405.181 125.869 405.004 126.051C404.821 126.232 404.73 126.472 404.659 126.703L404.645 126.751L404.663 126.801C404.771 127.091 404.908 127.384 405.135 127.625C405.359 127.868 405.687 128.022 406.012 128.045C406.669 128.084 407.247 127.787 407.746 127.447C408.828 126.783 409.307 125.278 408.858 124.036C408.644 123.409 408.166 122.879 407.585 122.586C407.006 122.288 406.332 122.187 405.691 122.32C405.065 122.454 404.41 122.821 404.153 123.516C404.018 123.856 404.106 124.318 404.376 124.576C404.633 124.843 404.951 124.977 405.275 125.065C406.42 125.347 407.663 124.768 408.208 123.725C408.481 123.202 408.534 122.568 408.38 122.008C408.237 121.443 407.916 120.936 407.489 120.56C407.062 120.182 406.509 119.942 405.931 119.953C405.365 119.978 404.794 120.225 404.456 120.729C404.286 120.978 404.219 121.308 404.273 121.612C404.322 121.926 404.519 122.2 404.76 122.367C405.246 122.704 405.854 122.761 406.387 122.57C406.939 122.363 407.284 121.863 407.481 121.361C407.676 120.848 407.729 120.305 407.727 119.778C407.704 118.735 407.532 117.658 406.938 116.767C406.627 116.34 406.227 115.958 405.687 115.821C405.158 115.69 404.618 115.824 404.176 116.094C403.749 116.365 403.355 116.858 403.417 117.445C403.46 118.02 403.923 118.471 404.416 118.609C404.907 118.767 405.47 118.693 405.884 118.371C406.295 118.059 406.535 117.573 406.624 117.086C406.726 116.601 406.636 116.07 406.5 115.637C406.375 115.186 406.225 114.737 406.004 114.318C405.792 113.902 405.468 113.506 405.059 113.272C404.66 113.033 404.222 112.879 403.765 112.835C403.545 112.819 403.291 112.811 403.06 112.93C402.84 113.043 402.669 113.211 402.531 113.398C402.396 113.588 402.293 113.802 402.24 114.035C402.185 114.263 402.192 114.54 402.325 114.764C402.587 115.234 403.15 115.316 403.563 115.245C404.002 115.187 404.397 114.946 404.703 114.656C405.316 114.057 405.644 113.221 405.684 112.402C405.739 111.583 405.527 110.753 405.072 110.103C404.838 109.787 404.566 109.497 404.222 109.307C403.884 109.115 403.508 109.019 403.134 109.005C402.762 108.998 402.374 109.08 402.069 109.321C401.77 109.559 401.582 109.949 401.619 110.338C401.708 111.121 402.386 111.647 403.055 111.736C403.77 111.821 404.373 111.343 404.695 110.811C405.03 110.267 405.151 109.629 405.104 109.035C404.983 107.832 404.378 106.894 404.017 105.984C403.619 105.08 403.254 104.252 402.926 103.506C402.271 102.029 401.76 100.878 401.406 100.081C401.233 99.7025 401.1 99.4075 401.003 99.1945C400.91 98.9955 400.855 98.8975 400.855 98.8975C400.855 98.8975 400.89 99.0055 400.972 99.2095C401.061 99.4255 401.185 99.7255 401.344 100.11C401.685 100.913 402.176 102.073 402.807 103.561C403.127 104.31 403.482 105.141 403.871 106.05C404.228 106.97 404.816 107.917 404.916 109.049C404.957 109.604 404.837 110.201 404.524 110.698C404.229 111.186 403.671 111.6 403.079 111.518C402.502 111.446 401.901 110.949 401.845 110.322C401.815 110.017 401.969 109.701 402.212 109.511C402.459 109.314 402.796 109.241 403.129 109.249C403.464 109.264 403.806 109.352 404.105 109.525C404.405 109.691 404.659 109.963 404.87 110.252C405.284 110.848 405.479 111.62 405.425 112.383C405.385 113.145 405.074 113.914 404.519 114.452C404.235 114.717 403.905 114.916 403.521 114.967C403.154 115.028 402.732 114.939 402.567 114.623C402.391 114.324 402.537 113.884 402.759 113.573C402.875 113.415 403.022 113.277 403.186 113.194C403.34 113.111 403.538 113.114 403.742 113.129C404.553 113.222 405.375 113.658 405.744 114.461C405.947 114.85 406.091 115.278 406.211 115.719C406.347 116.166 406.412 116.585 406.325 117.025C406.247 117.454 406.037 117.864 405.699 118.118C405.373 118.374 404.91 118.436 404.505 118.305C404.097 118.185 403.76 117.842 403.729 117.418C403.68 116.999 403.976 116.605 404.343 116.37C404.719 116.142 405.189 116.03 405.614 116.14C406.031 116.238 406.41 116.58 406.677 116.956C407.208 117.75 407.383 118.782 407.4 119.778C407.403 120.277 407.349 120.781 407.175 121.235C407.004 121.68 406.694 122.101 406.272 122.253C405.848 122.409 405.321 122.353 404.951 122.091C404.562 121.843 404.478 121.296 404.734 120.919C404.983 120.537 405.475 120.31 405.944 120.296C406.417 120.286 406.901 120.488 407.273 120.819C408.026 121.468 408.392 122.659 407.911 123.561C407.452 124.458 406.33 124.979 405.354 124.73C405.08 124.658 404.8 124.532 404.617 124.337C404.43 124.146 404.381 123.885 404.471 123.632C404.656 123.11 405.208 122.771 405.761 122.658C406.882 122.411 408.18 123.038 408.544 124.151C408.935 125.244 408.526 126.577 407.559 127.165C407.096 127.487 406.556 127.743 406.037 127.708C405.505 127.687 405.147 127.214 404.973 126.692L404.977 126.789C405.071 126.395 405.338 126.102 405.716 126.025C406.093 125.951 406.508 126.023 406.893 126.161C407.675 126.433 408.353 126.95 408.874 127.597C409.403 128.241 409.81 128.981 410.211 129.718C410.617 130.454 411.019 131.183 411.416 131.904C413.017 134.783 414.602 137.509 416.142 140.063C419.219 145.175 422.123 149.601 424.609 153.232C425.851 155.049 426.989 156.672 428.058 158.034C429.125 159.396 430.115 160.504 430.978 161.345C432.704 163.031 433.833 163.706 433.833 163.706Z" fill="#1A2E35"/>
<path fill-rule="evenodd" clip-rule="evenodd" d="M453.872 483.555C458.582 481.124 464.129 480.808 469.358 481.673C472.167 482.137 475.096 482.978 477.008 485.088C478.919 487.198 479.282 490.911 477.087 492.725C475.78 493.804 473.958 493.968 472.263 493.949C468.17 493.901 463.627 493.18 460.357 495.643C458.491 497.048 457.249 499.384 455.018 500.076C452.836 500.752 450.373 499.464 449.216 497.493C448.059 495.524 448.02 493.062 448.559 490.842C448.559 490.842 449.127 486.002 453.872 483.555Z" fill="#D61335"/>
<path fill-rule="evenodd" clip-rule="evenodd" d="M443.081 462.723C445.961 466.837 451.559 465.475 454.154 462.964C456.75 460.453 457.847 456.814 458.846 453.344C461.127 445.414 463.428 437.096 461.731 429.022C461.224 426.608 460.321 424.201 458.625 422.41C456.929 420.619 454.32 419.553 451.935 420.183C449.113 420.929 447.358 423.693 446.091 426.323C442.364 434.053 440.391 442.622 440.361 451.204C440.348 455.211 440.82 459.414 443.081 462.723Z" fill="#D61335"/>
<path fill-rule="evenodd" clip-rule="evenodd" d="M435.171 468.625C438.298 464.914 438.892 459.501 437.5 454.852C436.108 450.201 432.965 446.246 429.342 443.017C425.094 439.23 420.1 436.284 414.733 434.396C412.62 433.654 410.392 433.068 408.163 433.281C405.933 433.493 403.688 434.634 402.649 436.617C401.111 439.549 402.585 443.105 404.18 446.007C406.988 451.119 410.2 456.01 413.775 460.619C416.651 464.327 419.945 467.984 424.329 469.66C428.712 471.336 433.265 471.139 435.588 468.1" fill="#D61335"/>
<path fill-rule="evenodd" clip-rule="evenodd" d="M442.886 524.776C442.94 524.78 443.028 524.113 443.147 522.907C443.279 521.547 443.445 519.839 443.643 517.806C443.881 515.66 444.194 513.105 444.791 510.323C445.385 507.548 446.315 504.542 447.51 501.492C448.747 498.461 450.257 495.705 452.02 493.502C453.771 491.288 455.807 489.685 457.721 488.761C459.629 487.819 461.34 487.436 462.522 487.266C463.716 487.144 464.383 487.049 464.384 486.997C464.384 486.944 463.715 486.935 462.49 486.967C461.276 487.048 459.494 487.356 457.483 488.27C455.466 489.165 453.306 490.793 451.469 493.051C449.617 495.301 448.054 498.118 446.795 501.204C445.579 504.306 444.662 507.344 444.094 510.179C443.528 513.009 443.269 515.591 443.099 517.756C442.937 519.922 442.876 521.676 442.847 522.889C442.82 524.101 442.833 524.773 442.886 524.776Z" fill="#1A2E35"/>
<path fill-rule="evenodd" clip-rule="evenodd" d="M443.237 520.851C443.263 520.85 443.28 520.551 443.287 519.984C443.285 519.331 443.283 518.511 443.28 517.503C443.275 515.351 443.276 512.236 443.391 508.389C443.582 500.697 444.244 492.417 445.523 480.745C446.735 469.769 448.361 456.996 450.077 448.691C450.445 446.801 450.816 445.102 451.164 443.614C451.497 442.122 451.781 440.835 452.055 439.795C452.291 438.816 452.483 438.018 452.635 437.384C452.759 436.83 452.812 436.536 452.787 436.529C452.761 436.521 452.658 436.801 452.485 437.342C452.296 437.966 452.058 438.752 451.765 439.718C451.445 440.749 451.118 442.027 450.745 443.513C450.355 444.995 449.946 446.691 449.543 448.577C447.845 456.102 446.048 466.62 444.756 478.32C443.474 490.017 442.897 500.666 442.845 508.379C442.8 512.235 442.882 515.357 442.98 517.51C443.042 518.518 443.092 519.338 443.132 519.99C443.175 520.556 443.21 520.852 443.237 520.851Z" fill="#1A2E35"/>
<path fill-rule="evenodd" clip-rule="evenodd" d="M443.288 500.31C443.342 500.308 443.332 499.387 443.27 497.718C443.175 496.053 442.946 493.647 442.476 490.699C441.979 487.758 441.285 484.266 440.194 480.472C439.721 478.737 438.609 474.581 435.917 468.37C432.37 459.955 427.55 453.075 423.357 448.813C422.374 447.682 421.279 446.867 420.403 446.067C419.949 445.684 419.549 445.301 419.141 444.998C418.73 444.715 418.348 444.453 417.994 444.208C416.614 443.265 415.842 442.767 415.813 442.812C415.689 442.98 418.904 444.872 422.963 449.191C427.005 453.499 431.69 460.332 435.209 468.676C437.171 473.203 438.539 477.24 439.51 480.666C440.631 484.424 441.376 487.881 441.939 490.792C442.474 493.71 442.784 496.093 442.971 497.743C443.124 499.396 443.235 500.312 443.288 500.31Z" fill="#1A2E35"/>
<path fill-rule="evenodd" clip-rule="evenodd" d="M423.434 536.546L425.493 564.744H461.719L463.778 536.546H423.434Z" fill="#1A2E35"/>
<mask id="mask3" mask-type="alpha" maskUnits="userSpaceOnUse" x="402" y="420" width="77" height="153">
<path fill-rule="evenodd" clip-rule="evenodd" d="M402 572.169H478.592V420H402V572.169Z" fill="white"/>
</mask>
<g mask="url(#mask3)">
<path fill-rule="evenodd" clip-rule="evenodd" d="M419.935 536.546H468.1V525.431H419.935V536.546Z" fill="#1A2E35"/>
<path fill-rule="evenodd" clip-rule="evenodd" d="M419.935 563.665V566.746H422.198H467.304V563.665H419.935Z" fill="#375A64"/>
<path fill-rule="evenodd" clip-rule="evenodd" d="M424.416 572.169L422.198 566.746H465.579L462.99 572.169H424.416Z" fill="#375A64"/>
<path fill-rule="evenodd" clip-rule="evenodd" d="M463.105 545.762C463.113 545.769 463.056 545.857 462.936 546.021C462.793 546.211 462.614 546.448 462.395 546.739C461.88 547.398 461.173 548.302 460.284 549.44L460.19 549.56L460.1 549.434C458.773 547.6 457.001 545.149 454.915 542.263H455.213C453.671 544.447 451.953 546.879 450.109 549.491L449.949 549.718L449.77 549.504C447.886 547.263 445.84 544.829 443.716 542.302L444.065 542.297C443.96 542.43 443.846 542.573 443.732 542.716C441.854 545.07 440.037 547.348 438.319 549.502L438.138 549.728L437.972 549.492C436.134 546.893 434.417 544.463 432.864 542.267L433.162 542.281C430.645 545.149 428.51 547.58 426.872 549.447L426.76 549.575L426.675 549.431C425.846 548.038 425.185 546.927 424.706 546.122C424.5 545.763 424.333 545.473 424.2 545.241C424.089 545.039 424.037 544.933 424.046 544.927C424.056 544.921 424.127 545.016 424.257 545.206C424.404 545.429 424.588 545.708 424.816 546.054C425.319 546.845 426.013 547.935 426.883 549.303L426.687 549.286C428.299 547.398 430.399 544.936 432.876 542.033L433.032 541.85L433.173 542.047C434.739 544.234 436.472 546.653 438.326 549.241L437.979 549.232C439.693 547.074 441.506 544.792 443.379 542.435C443.493 542.291 443.607 542.149 443.712 542.017L443.884 541.8L444.062 542.012C446.18 544.544 448.22 546.984 450.098 549.229L449.759 549.242C451.622 546.644 453.357 544.224 454.915 542.051L455.066 541.84L455.213 542.051C457.255 544.968 458.99 547.445 460.289 549.299L460.105 549.294C461.029 548.185 461.764 547.304 462.3 546.662C462.538 546.386 462.731 546.162 462.887 545.982C463.023 545.83 463.097 545.755 463.105 545.762Z" fill="#E1E1E1"/>
<path fill-rule="evenodd" clip-rule="evenodd" d="M464.281 536.359C464.281 536.483 455.204 536.585 444.009 536.585C432.81 536.585 423.735 536.483 423.735 536.359C423.735 536.234 432.81 536.133 444.009 536.133C455.204 536.133 464.281 536.234 464.281 536.359Z" fill="#375A64"/>
<path fill-rule="evenodd" clip-rule="evenodd" d="M466.112 567.05C466.112 567.175 456.247 567.276 444.08 567.276C431.91 567.276 422.047 567.175 422.047 567.05C422.047 566.926 431.91 566.825 444.08 566.825C456.247 566.825 466.112 566.926 466.112 567.05Z" fill="#1A2E35"/>
</g>
<mask id="mask4" mask-type="alpha" maskUnits="userSpaceOnUse" x="85" y="571" width="452" height="1">
<path fill-rule="evenodd" clip-rule="evenodd" d="M85 571.24H536.017V572H85V571.24Z" fill="white"/>
</mask>
<g mask="url(#mask4)">
<path fill-rule="evenodd" clip-rule="evenodd" d="M536.017 571.74C536.017 571.884 435.045 572.001 310.519 572.001C185.95 572.001 84.999 571.884 84.999 571.74C84.999 571.596 185.95 571.479 310.519 571.479C435.045 571.479 536.017 571.596 536.017 571.74Z" fill="#00A0FF"/>
</g>
<mask id="mask5" mask-type="alpha" maskUnits="userSpaceOnUse" x="280" y="239" width="135" height="151">
<path fill-rule="evenodd" clip-rule="evenodd" d="M280 239H414.233V389.08H280V239Z" fill="white"/>
</mask>
<g mask="url(#mask5)">
<path fill-rule="evenodd" clip-rule="evenodd" d="M412.869 351.568L335.434 388.841C334.236 389.419 332.797 388.915 332.22 387.715L280.239 279.726C279.662 278.527 280.166 277.088 281.365 276.511L358.8 239.239C359.998 238.662 361.437 239.166 362.014 240.364L413.994 348.354C414.571 349.552 414.068 350.992 412.869 351.568Z" fill="#E1E1E1"/>
</g>
<path fill-rule="evenodd" clip-rule="evenodd" d="M407.884 347.346L335.242 382.311L284.912 277.751L357.554 242.784L407.884 347.346Z" fill="#FAFAFA"/>
<path fill-rule="evenodd" clip-rule="evenodd" d="M319.887 255.462C318.07 256.337 315.887 255.572 315.012 253.755C314.137 251.938 314.901 249.755 316.719 248.88C318.536 248.005 320.719 248.769 321.594 250.587C322.469 252.404 321.705 254.587 319.887 255.462ZM336.767 254.741C333.805 252.454 329.804 252.036 326.434 253.662L324.207 249.243C322.582 245.867 318.527 244.447 315.15 246.072C311.773 247.697 310.353 251.753 311.979 255.13L314.212 259.769L312.665 260.545C309.366 262.2 307.265 265.555 307.216 269.244L307.185 271.544L338.811 256.32L336.767 254.741Z" fill="#ECECEC"/>
<path fill-rule="evenodd" clip-rule="evenodd" d="M318.967 279.605C319.029 279.735 314.67 281.962 309.232 284.58C303.792 287.199 299.332 289.215 299.27 289.086C299.208 288.957 303.566 286.729 309.006 284.111C314.444 281.493 318.905 279.475 318.967 279.605Z" fill="#E1E1E1"/>
<path fill-rule="evenodd" clip-rule="evenodd" d="M310.362 287.839C310.424 287.969 308.35 289.097 305.729 290.359C303.107 291.62 300.932 292.538 300.869 292.408C300.807 292.278 302.881 291.151 305.503 289.889C308.124 288.627 310.3 287.709 310.362 287.839Z" fill="#E1E1E1"/>
<path fill-rule="evenodd" clip-rule="evenodd" d="M361.093 274.82C361.155 274.95 348.933 280.962 333.798 288.248C318.657 295.536 306.336 301.337 306.274 301.207C306.211 301.078 318.431 295.066 333.572 287.778C348.708 280.493 361.031 274.69 361.093 274.82Z" fill="#E1E1E1"/>
<path fill-rule="evenodd" clip-rule="evenodd" d="M363.609 280.047C363.671 280.177 351.449 286.189 336.313 293.475C321.172 300.763 308.852 306.564 308.789 306.434C308.727 306.305 320.946 300.293 336.088 293.005C351.223 285.72 363.547 279.917 363.609 280.047Z" fill="#E1E1E1"/>
<path fill-rule="evenodd" clip-rule="evenodd" d="M366.125 285.275C366.187 285.404 353.965 291.417 338.83 298.703C323.688 305.99 311.368 311.792 311.306 311.662C311.243 311.532 323.462 305.521 338.604 298.233C353.739 290.948 366.063 285.145 366.125 285.275Z" fill="#E1E1E1"/>
<path fill-rule="evenodd" clip-rule="evenodd" d="M368.642 290.502C368.704 290.631 356.482 296.644 341.347 303.929C326.205 311.217 313.885 317.019 313.823 316.889C313.76 316.759 325.98 310.748 341.121 303.46C356.256 296.175 368.58 290.372 368.642 290.502Z" fill="#E1E1E1"/>
<path fill-rule="evenodd" clip-rule="evenodd" d="M371.157 295.73C371.219 295.859 358.997 301.872 343.862 309.157C328.72 316.445 316.4 322.247 316.338 322.117C316.275 321.987 328.495 315.976 343.636 308.688C358.771 301.403 371.095 295.6 371.157 295.73Z" fill="#E1E1E1"/>
<path fill-rule="evenodd" clip-rule="evenodd" d="M373.674 300.956C373.736 301.086 361.514 307.099 346.378 314.384C331.237 321.672 318.917 327.474 318.854 327.344C318.792 327.214 331.011 321.203 346.153 313.915C361.288 306.629 373.612 300.827 373.674 300.956Z" fill="#E1E1E1"/>
<path fill-rule="evenodd" clip-rule="evenodd" d="M348.533 318.864C348.549 318.897 348.18 319.112 347.5 319.474C346.718 319.876 345.747 320.373 344.598 320.963C342.139 322.199 338.725 323.874 334.942 325.695C331.157 327.517 327.718 329.14 325.217 330.292C324.04 330.822 323.046 331.27 322.244 331.631C321.537 331.936 321.139 332.091 321.123 332.057C321.108 332.025 321.476 331.81 322.156 331.448C322.938 331.047 323.908 330.55 325.057 329.96C327.517 328.723 330.93 327.049 334.716 325.226C338.5 323.405 341.938 321.782 344.439 320.631C345.616 320.1 346.611 319.652 347.412 319.292C348.119 318.986 348.517 318.832 348.533 318.864Z" fill="#E1E1E1"/>
<path fill-rule="evenodd" clip-rule="evenodd" d="M357.184 260.626C357.246 260.755 355.331 261.807 352.907 262.974C350.482 264.141 348.466 264.981 348.403 264.853C348.341 264.723 350.256 263.672 352.681 262.504C355.105 261.337 357.122 260.496 357.184 260.626Z" fill="#E1E1E1"/>
<path fill-rule="evenodd" clip-rule="evenodd" d="M341.557 336.252C341.619 336.382 338.482 338.021 334.551 339.913C330.618 341.806 327.381 343.235 327.318 343.106C327.256 342.976 330.392 341.337 334.325 339.444C338.256 337.552 341.495 336.122 341.557 336.252Z" fill="#E1E1E1"/>
<path fill-rule="evenodd" clip-rule="evenodd" d="M344.316 340.77C344.378 340.9 341.188 342.565 337.191 344.489C333.193 346.414 329.902 347.868 329.84 347.738C329.777 347.609 332.967 345.944 336.965 344.019C340.962 342.095 344.254 340.64 344.316 340.77Z" fill="#E1E1E1"/>
<path fill-rule="evenodd" clip-rule="evenodd" d="M382.507 315.664C382.569 315.793 381.079 316.64 379.179 317.555C377.278 318.47 375.687 319.106 375.625 318.977C375.562 318.847 377.052 318 378.953 317.086C380.853 316.171 382.445 315.534 382.507 315.664Z" fill="#E1E1E1"/>
<path fill-rule="evenodd" clip-rule="evenodd" d="M384.801 319.822C384.863 319.952 383.373 320.799 381.473 321.713C379.572 322.628 377.981 323.264 377.919 323.135C377.856 323.005 379.346 322.159 381.247 321.244C383.147 320.329 384.739 319.692 384.801 319.822Z" fill="#E1E1E1"/>
<path fill-rule="evenodd" clip-rule="evenodd" d="M340.07 348.952C340.132 349.082 338.695 349.903 336.861 350.786C335.026 351.67 333.487 352.28 333.425 352.151C333.363 352.021 334.799 351.2 336.635 350.317C338.469 349.433 340.008 348.823 340.07 348.952Z" fill="#E1E1E1"/>
<path fill-rule="evenodd" clip-rule="evenodd" d="M387.437 324.691C387.499 324.821 386.435 325.462 385.059 326.126C383.682 326.788 382.516 327.219 382.454 327.09C382.391 326.961 383.456 326.319 384.833 325.656C386.208 324.994 387.375 324.561 387.437 324.691Z" fill="#E1E1E1"/>
<path fill-rule="evenodd" clip-rule="evenodd" d="M338.405 363.615C338.399 363.605 338.493 363.533 338.681 363.403C338.905 363.254 339.183 363.069 339.524 362.842C340.316 362.335 341.4 361.639 342.758 360.769C345.606 358.98 349.595 356.475 354.366 353.48L354.594 353.337L354.693 353.589C355.218 354.925 355.311 356.509 354.821 357.994C354.363 359.473 353.221 360.875 351.625 361.458C350.069 362.04 348.143 361.963 346.677 360.9C345.187 359.846 344.573 357.813 345.021 356.03C345.189 355.362 345.509 354.726 345.977 354.216C346.089 354.083 346.216 353.967 346.352 353.858C346.481 353.747 346.613 353.634 346.806 353.548C346.984 353.457 347.289 353.429 347.504 353.571C347.714 353.704 347.814 353.881 347.9 354.03C348.521 355.192 348.851 356.467 348.917 357.73C348.983 358.994 348.789 360.251 348.346 361.387C347.916 362.515 347.238 363.595 346.195 364.237C345.148 364.91 343.76 364.773 342.818 364.162C341.851 363.564 341.16 362.65 340.813 361.652C340.161 359.631 340.572 357.676 340.845 356.008L340.908 355.627L341.163 355.914C342.357 357.253 342.909 358.84 343.069 360.224C343.243 361.621 343.028 362.839 342.734 363.77C342.43 364.708 342.024 365.364 341.729 365.784C341.577 365.991 341.442 366.135 341.357 366.235C341.27 366.334 341.222 366.382 341.215 366.376C341.146 366.337 341.982 365.562 342.54 363.711C342.797 362.794 342.975 361.607 342.779 360.261C342.598 358.927 342.038 357.416 340.892 356.164L341.21 356.069C340.954 357.74 340.596 359.649 341.222 361.511C341.542 362.409 342.188 363.245 343.053 363.769C343.91 364.302 345.05 364.402 345.947 363.826C346.846 363.269 347.483 362.278 347.881 361.21C348.294 360.137 348.473 358.951 348.407 357.758C348.343 356.566 348.025 355.361 347.446 354.28C347.379 354.155 347.3 354.052 347.236 354.015C347.176 353.981 347.124 353.978 347.016 354.023C346.812 354.129 346.548 354.351 346.361 354.566C345.959 355.007 345.676 355.562 345.526 356.156C345.126 357.753 345.681 359.569 346.981 360.483C348.269 361.427 350.031 361.515 351.447 360.987C352.891 360.466 353.928 359.215 354.364 357.844C354.827 356.473 354.751 354.994 354.275 353.755L354.602 353.862C349.791 356.793 345.768 359.243 342.896 360.993C341.51 361.818 340.404 362.478 339.597 362.96C339.241 363.163 338.952 363.329 338.718 363.463C338.518 363.573 338.411 363.626 338.405 363.615Z" fill="#E1E1E1"/>
<path fill-rule="evenodd" clip-rule="evenodd" d="M390.327 338.406C390.349 338.411 390.317 338.742 390.16 339.343C390.076 339.642 389.955 340.014 389.707 340.404C389.459 340.791 389.047 341.188 388.452 341.36C388.158 341.444 387.808 341.454 387.478 341.328C387.149 341.206 386.868 340.96 386.647 340.679C386.213 340.102 385.917 339.446 385.526 338.772C384.772 337.397 383.938 335.874 383.04 334.237L383.496 334.131C383.415 336.425 383.327 338.927 383.236 341.548C383.212 342.173 383.188 342.79 383.165 343.396L383.125 344.431L382.673 343.501C381.306 340.691 380.031 338.069 378.917 335.781L379.332 335.74C378.553 338.56 378.389 341.014 378.381 342.716C378.378 344.423 378.497 345.395 378.439 345.402C378.417 345.405 378.364 345.165 378.295 344.71C378.23 344.254 378.156 343.581 378.121 342.719C378.053 341.003 378.153 338.507 378.902 335.624L379.052 335.05L379.317 335.584C380.45 337.863 381.748 340.474 383.139 343.272L382.647 343.377C382.669 342.77 382.692 342.153 382.715 341.528C382.82 338.907 382.92 336.406 383.012 334.113L383.048 333.214L383.467 334.007C384.34 335.658 385.152 337.192 385.885 338.579C386.258 339.256 386.558 339.946 386.929 340.462C387.295 340.993 387.868 341.219 388.378 341.073C389.434 340.791 389.809 339.828 390.01 339.296C390.211 338.721 390.296 338.397 390.327 338.406Z" fill="#E1E1E1"/>
<path fill-rule="evenodd" clip-rule="evenodd" d="M390.219 334.659C390.3 334.778 386.173 337.725 381.003 341.242C375.83 344.76 371.573 347.514 371.492 347.395C371.411 347.276 375.537 344.33 380.71 340.811C385.88 337.296 390.138 334.54 390.219 334.659Z" fill="#E1E1E1"/>
<path fill-rule="evenodd" clip-rule="evenodd" d="M395.291 335.535C395.385 335.644 392.358 338.399 388.533 341.688C384.706 344.977 381.528 347.556 381.435 347.446C381.341 347.337 384.366 344.583 388.193 341.293C392.019 338.005 395.197 335.427 395.291 335.535Z" fill="#E1E1E1"/>
</svg>
