<?xml version="1.0" encoding="utf-8"?>
<!-- Generator: Adobe Illustrator 25.0.0, SVG Export Plug-In . SVG Version: 6.00 Build 0)  -->
<svg version="1.1" id="Layer_1" xmlns="http://www.w3.org/2000/svg" xmlns:xlink="http://www.w3.org/1999/xlink" x="0px" y="0px"
	 viewBox="0 0 683 625" style="enable-background:new 0 0 683 625;" xml:space="preserve">
<style type="text/css">
	.st0{opacity:7.703220e-02;fill:#E13856;enable-background:new    ;}
	.st1{fill:#E2F5FF;}
	.st2{fill:#11A9FF;}
	.st3{fill:#FFFFFF;}
	.st4{fill-rule:evenodd;clip-rule:evenodd;fill:#D61335;}
	.st5{fill-rule:evenodd;clip-rule:evenodd;fill:#1A2E35;}
	.st6{fill-rule:evenodd;clip-rule:evenodd;fill:#FFFFFF;filter:url(#Adobe_OpacityMaskFilter);}
	.st7{mask:url(#mask2_1_);}
	.st8{fill-rule:evenodd;clip-rule:evenodd;fill:#375A64;}
	.st9{fill-rule:evenodd;clip-rule:evenodd;fill:#E1E1E1;}
	.st10{fill:#D61335;}
	.st11{fill-rule:evenodd;clip-rule:evenodd;fill:#FFFFFF;filter:url(#Adobe_OpacityMaskFilter_1_);}
	.st12{mask:url(#mask0_2_);}
	.st13{fill-rule:evenodd;clip-rule:evenodd;fill:#FFBF9D;}
	.st14{fill-rule:evenodd;clip-rule:evenodd;fill:#FF9A6C;}
	.st15{fill-rule:evenodd;clip-rule:evenodd;fill:#FFFFFF;filter:url(#Adobe_OpacityMaskFilter_2_);}
	.st16{mask:url(#mask1_2_);}
	.st17{fill-rule:evenodd;clip-rule:evenodd;fill:#00A3FF;}
	.st18{fill-rule:evenodd;clip-rule:evenodd;}
	.st19{opacity:0.1232;fill-rule:evenodd;clip-rule:evenodd;enable-background:new    ;}
</style>
<circle class="st0" cx="301.5" cy="301.5" r="301.5"/>
<path class="st1" d="M265,113h410c4.4,0,8,3.6,8,8v317c0,4.4-3.6,8-8,8H265c-4.4,0-8-3.6-8-8V121C257,116.6,260.6,113,265,113z"/>
<path class="st2" d="M257,121c0-4.4,3.6-8,8-8h410c4.4,0,8,3.6,8,8v58H257V121z"/>
<path class="st3" d="M390.2,136h3.4l4.7,13.1h0.1l4.7-13.1h3.3l-6.8,17H397L390.2,136z M407.5,141.5h2.9V153h-2.9V141.5z
	 M407.1,137.6c0-0.5,0.2-0.9,0.5-1.2c0.4-0.4,0.8-0.5,1.3-0.5c0.5,0,1,0.2,1.3,0.5c0.4,0.3,0.6,0.7,0.6,1.2c0,0.5-0.2,0.9-0.6,1.2
	c-0.4,0.3-0.8,0.5-1.3,0.5c-0.5,0-1-0.2-1.3-0.5C407.3,138.4,407.1,138,407.1,137.6z M420.2,144.6c-0.3-0.3-0.6-0.6-1.1-0.9
	c-0.4-0.3-0.9-0.4-1.5-0.4c-0.5,0-0.9,0.1-1.3,0.3s-0.6,0.5-0.6,1s0.2,0.8,0.6,1c0.4,0.2,1.1,0.4,1.9,0.6c0.4,0.1,0.9,0.2,1.3,0.4
	c0.4,0.2,0.8,0.4,1.2,0.6c0.4,0.3,0.7,0.6,0.9,1c0.2,0.4,0.3,0.9,0.3,1.4c0,0.7-0.1,1.3-0.4,1.8c-0.3,0.5-0.6,0.9-1.1,1.2
	c-0.4,0.3-0.9,0.5-1.5,0.6c-0.6,0.1-1.2,0.2-1.8,0.2c-0.9,0-1.8-0.2-2.6-0.5c-0.8-0.3-1.6-0.8-2.1-1.4l1.9-1.8
	c0.3,0.4,0.7,0.8,1.2,1s1.1,0.4,1.7,0.4c0.2,0,0.4,0,0.6-0.1c0.2,0,0.4-0.1,0.6-0.2c0.2-0.1,0.3-0.3,0.5-0.4
	c0.1-0.2,0.2-0.4,0.2-0.6c0-0.5-0.2-0.8-0.7-1c-0.4-0.2-1.1-0.4-2-0.6c-0.4-0.1-0.9-0.2-1.3-0.4c-0.4-0.2-0.8-0.4-1.1-0.6
	c-0.3-0.3-0.6-0.6-0.8-0.9c-0.2-0.4-0.3-0.8-0.3-1.4c0-0.6,0.1-1.2,0.4-1.7c0.3-0.5,0.6-0.8,1.1-1.1c0.4-0.3,0.9-0.5,1.5-0.7
	s1.1-0.2,1.7-0.2c0.8,0,1.6,0.1,2.4,0.4c0.8,0.3,1.4,0.7,1.9,1.3L420.2,144.6z M424.6,141.5h2.9V153h-2.9V141.5z M424.2,137.6
	c0-0.5,0.2-0.9,0.5-1.2c0.4-0.4,0.8-0.5,1.3-0.5c0.5,0,1,0.2,1.3,0.5c0.4,0.3,0.6,0.7,0.6,1.2c0,0.5-0.2,0.9-0.6,1.2
	c-0.4,0.3-0.8,0.5-1.3,0.5c-0.5,0-1-0.2-1.3-0.5C424.4,138.4,424.2,138,424.2,137.6z M429.3,143.8v-2.3h2v-3.3h2.8v3.3h2.9v2.3h-2.9
	v5.4c0,0.5,0.1,0.9,0.3,1.3c0.2,0.3,0.6,0.5,1.2,0.5c0.2,0,0.4,0,0.6,0c0.2,0,0.4-0.1,0.6-0.2l0.1,2.3c-0.3,0.1-0.6,0.2-0.9,0.2
	c-0.4,0.1-0.7,0.1-1,0.1c-0.8,0-1.4-0.1-1.9-0.3c-0.5-0.2-0.9-0.5-1.2-0.9c-0.3-0.4-0.5-0.8-0.6-1.3c-0.1-0.5-0.1-1-0.1-1.6v-5.4
	H429.3z M439.2,141.5h2.9V153h-2.9V141.5z M438.8,137.6c0-0.5,0.2-0.9,0.5-1.2c0.4-0.4,0.8-0.5,1.3-0.5c0.5,0,1,0.2,1.3,0.5
	c0.4,0.3,0.6,0.7,0.6,1.2c0,0.5-0.2,0.9-0.6,1.2c-0.4,0.3-0.8,0.5-1.3,0.5c-0.5,0-1-0.2-1.3-0.5C438.9,138.4,438.8,138,438.8,137.6z
	 M445.5,141.5h2.7v1.8h0c0.3-0.6,0.7-1.1,1.3-1.5c0.6-0.4,1.4-0.7,2.3-0.7c0.8,0,1.4,0.1,1.9,0.4c0.5,0.3,1,0.6,1.3,1
	c0.4,0.4,0.6,0.9,0.8,1.5c0.2,0.6,0.2,1.1,0.2,1.7v7.2h-2.9v-6.4c0-0.3,0-0.7-0.1-1.1s-0.2-0.7-0.3-1c-0.2-0.3-0.4-0.6-0.7-0.7
	c-0.3-0.2-0.6-0.3-1.1-0.3c-0.5,0-0.9,0.1-1.2,0.3c-0.3,0.2-0.6,0.4-0.8,0.7c-0.2,0.3-0.4,0.6-0.5,1c-0.1,0.4-0.2,0.7-0.2,1.1v6.3
	h-2.9V141.5z M471.2,141.5V152c0,1-0.1,2-0.4,2.8c-0.3,0.8-0.7,1.6-1.2,2.1c-0.5,0.6-1.2,1-2,1.4c-0.8,0.3-1.8,0.5-2.9,0.5
	c-0.5,0-1,0-1.5-0.1c-0.5-0.1-1-0.2-1.5-0.4c-0.5-0.2-1-0.4-1.4-0.6c-0.5-0.2-0.9-0.5-1.2-0.8l1.7-2.2c0.6,0.5,1.2,0.9,1.9,1.2
	c0.7,0.3,1.4,0.4,2.1,0.4c0.7,0,1.3-0.1,1.7-0.3c0.5-0.2,0.9-0.5,1.1-0.8c0.3-0.4,0.5-0.8,0.6-1.2c0.1-0.5,0.2-1,0.2-1.6v-0.8h0
	c-0.4,0.6-1,1-1.6,1.3c-0.6,0.3-1.4,0.4-2.2,0.4c-0.9,0-1.6-0.2-2.4-0.5c-0.7-0.3-1.3-0.8-1.8-1.3c-0.5-0.5-0.9-1.2-1.1-1.9
	c-0.3-0.7-0.4-1.5-0.4-2.3c0-0.8,0.1-1.6,0.4-2.4c0.3-0.7,0.6-1.4,1.1-1.9c0.5-0.5,1.1-1,1.8-1.3c0.7-0.3,1.5-0.5,2.4-0.5
	c0.8,0,1.6,0.2,2.3,0.5c0.7,0.3,1.3,0.9,1.7,1.6h0v-1.7H471.2z M465.1,143.5c-0.5,0-1,0.1-1.4,0.3c-0.4,0.2-0.7,0.5-1,0.8
	c-0.3,0.3-0.5,0.7-0.6,1.2c-0.1,0.4-0.2,0.9-0.2,1.4c0,0.5,0.1,0.9,0.2,1.3c0.2,0.4,0.4,0.8,0.6,1.2c0.3,0.3,0.6,0.6,1,0.8
	c0.4,0.2,0.9,0.3,1.4,0.3c0.5,0,1-0.1,1.4-0.3c0.4-0.2,0.8-0.5,1.1-0.8c0.3-0.3,0.5-0.7,0.7-1.2c0.2-0.4,0.2-0.9,0.2-1.4
	c0-0.5-0.1-1-0.2-1.4s-0.4-0.8-0.7-1.2c-0.3-0.3-0.6-0.6-1.1-0.8C466.1,143.6,465.6,143.5,465.1,143.5z M483.7,138.6h-5.2V136h13.4
	v2.6h-5.2V153h-3V138.6z M493.5,141.5h2.9V153h-2.9V141.5z M493.1,137.6c0-0.5,0.2-0.9,0.5-1.2c0.4-0.4,0.8-0.5,1.3-0.5
	s1,0.2,1.3,0.5c0.4,0.3,0.6,0.7,0.6,1.2c0,0.5-0.2,0.9-0.6,1.2c-0.4,0.3-0.8,0.5-1.3,0.5s-1-0.2-1.3-0.5
	C493.3,138.4,493.1,138,493.1,137.6z M513.6,141.1c0.8,0,1.4,0.1,1.9,0.4c0.5,0.3,1,0.6,1.3,1c0.4,0.4,0.6,0.9,0.8,1.5
	c0.2,0.6,0.2,1.1,0.2,1.7v7.2H515v-6.4c0-0.3,0-0.7-0.1-1.1c0-0.4-0.2-0.7-0.3-1c-0.2-0.3-0.4-0.6-0.7-0.7c-0.3-0.2-0.6-0.3-1.1-0.3
	c-0.4,0-0.8,0.1-1.2,0.3c-0.3,0.2-0.6,0.4-0.8,0.7s-0.4,0.6-0.5,1c-0.1,0.4-0.1,0.7-0.1,1.1v6.3h-2.9v-7c0-0.7-0.2-1.3-0.5-1.8
	c-0.3-0.5-0.9-0.7-1.6-0.7c-0.4,0-0.8,0.1-1.1,0.3c-0.3,0.2-0.6,0.4-0.8,0.7c-0.2,0.3-0.3,0.6-0.5,1c-0.1,0.4-0.1,0.7-0.1,1.1v6.3
	h-2.9v-11.5h2.7v1.8h0c0.1-0.3,0.3-0.6,0.5-0.8c0.2-0.3,0.5-0.5,0.8-0.7c0.3-0.2,0.6-0.4,1-0.5c0.4-0.1,0.8-0.2,1.3-0.2
	c0.9,0,1.6,0.2,2.2,0.6c0.6,0.4,1,0.9,1.4,1.6c0.4-0.7,0.9-1.2,1.5-1.6C512,141.3,512.8,141.1,513.6,141.1z M529.3,146.1
	c0-0.4-0.1-0.7-0.2-1.1c-0.1-0.3-0.3-0.6-0.5-0.9s-0.5-0.5-0.9-0.6c-0.3-0.2-0.7-0.2-1.2-0.2c-0.9,0-1.6,0.3-2.2,0.8
	c-0.6,0.5-0.9,1.2-1,2H529.3z M532.2,147.4c0,0.1,0,0.3,0,0.4c0,0.1,0,0.3,0,0.4h-8.8c0,0.4,0.1,0.8,0.3,1.2
	c0.2,0.3,0.4,0.6,0.7,0.9c0.3,0.2,0.6,0.4,1,0.6c0.4,0.1,0.8,0.2,1.2,0.2c0.7,0,1.3-0.1,1.8-0.4c0.5-0.3,0.9-0.6,1.2-1.1l1.9,1.5
	c-1.1,1.5-2.8,2.3-4.9,2.3c-0.9,0-1.7-0.1-2.5-0.4c-0.8-0.3-1.4-0.7-2-1.2c-0.5-0.5-1-1.1-1.3-1.9c-0.3-0.8-0.5-1.6-0.5-2.5
	c0-0.9,0.2-1.8,0.5-2.5c0.3-0.8,0.8-1.4,1.3-1.9c0.5-0.5,1.2-1,1.9-1.2c0.8-0.3,1.6-0.5,2.4-0.5c0.8,0,1.5,0.1,2.2,0.4
	c0.7,0.3,1.3,0.6,1.8,1.2c0.5,0.5,0.9,1.2,1.2,1.9C532.1,145.4,532.2,146.3,532.2,147.4z M541.3,144.6c-0.3-0.3-0.6-0.6-1.1-0.9
	c-0.4-0.3-0.9-0.4-1.5-0.4c-0.5,0-0.9,0.1-1.3,0.3c-0.4,0.2-0.6,0.5-0.6,1s0.2,0.8,0.6,1c0.4,0.2,1.1,0.4,1.9,0.6
	c0.4,0.1,0.9,0.2,1.3,0.4c0.4,0.2,0.8,0.4,1.2,0.6c0.4,0.3,0.7,0.6,0.9,1c0.2,0.4,0.3,0.9,0.3,1.4c0,0.7-0.1,1.3-0.4,1.8
	c-0.3,0.5-0.6,0.9-1.1,1.2c-0.4,0.3-0.9,0.5-1.5,0.6c-0.6,0.1-1.2,0.2-1.8,0.2c-0.9,0-1.8-0.2-2.6-0.5c-0.8-0.3-1.6-0.8-2.1-1.4
	l1.9-1.8c0.3,0.4,0.7,0.8,1.2,1c0.5,0.3,1.1,0.4,1.7,0.4c0.2,0,0.4,0,0.6-0.1c0.2,0,0.4-0.1,0.6-0.2c0.2-0.1,0.3-0.3,0.5-0.4
	c0.1-0.2,0.2-0.4,0.2-0.6c0-0.5-0.2-0.8-0.7-1c-0.4-0.2-1.1-0.4-2-0.6c-0.4-0.1-0.9-0.2-1.3-0.4c-0.4-0.2-0.8-0.4-1.1-0.6
	c-0.3-0.3-0.6-0.6-0.8-0.9c-0.2-0.4-0.3-0.8-0.3-1.4c0-0.6,0.1-1.2,0.4-1.7c0.3-0.5,0.6-0.8,1.1-1.1c0.4-0.3,0.9-0.5,1.5-0.7
	c0.5-0.1,1.1-0.2,1.7-0.2c0.8,0,1.6,0.1,2.4,0.4c0.8,0.3,1.4,0.7,1.9,1.3L541.3,144.6z"/>
<path class="st4" d="M551.9,534.6c4.7-2.4,10.3-2.7,15.5-1.9c2.8,0.5,5.7,1.3,7.7,3.4c1.9,2.1,2.3,5.8,0.1,7.6
	c-1.3,1.1-3.1,1.2-4.8,1.2c-4.1,0-8.6-0.8-11.9,1.7c-1.9,1.4-3.1,3.7-5.3,4.4c-2.2,0.7-4.6-0.6-5.8-2.6c-1.2-2-1.2-4.4-0.7-6.7
	C546.6,541.8,547.1,537,551.9,534.6z"/>
<path class="st4" d="M541.1,513.7c2.9,4.1,8.5,2.8,11.1,0.2c2.6-2.5,3.7-6.2,4.7-9.6c2.3-7.9,4.6-16.2,2.9-24.3
	c-0.5-2.4-1.4-4.8-3.1-6.6c-1.7-1.8-4.3-2.9-6.7-2.2c-2.8,0.7-4.6,3.5-5.8,6.1c-3.7,7.7-5.7,16.3-5.7,24.9
	C538.3,506.2,538.8,510.4,541.1,513.7z"/>
<path class="st4" d="M533.2,519.6c3.1-3.7,3.7-9.1,2.3-13.8c-1.4-4.7-4.5-8.6-8.2-11.8c-4.2-3.8-9.2-6.7-14.6-8.6
	c-2.1-0.7-4.3-1.3-6.6-1.1c-2.2,0.2-4.5,1.4-5.5,3.3c-1.5,2.9-0.1,6.5,1.5,9.4c2.8,5.1,6,10,9.6,14.6c2.9,3.7,6.2,7.4,10.6,9
	c4.4,1.7,8.9,1.5,11.3-1.6"/>
<path class="st5" d="M540.9,575.8c0.1,0,0.1-0.7,0.3-1.9c0.1-1.4,0.3-3.1,0.5-5.1c0.2-2.1,0.6-4.7,1.1-7.5c0.6-2.8,1.5-5.8,2.7-8.8
	c1.2-3,2.7-5.8,4.5-8c1.8-2.2,3.8-3.8,5.7-4.7c1.9-0.9,3.6-1.3,4.8-1.5c1.2-0.1,1.9-0.2,1.9-0.3c0-0.1-0.7-0.1-1.9,0
	c-1.2,0.1-3,0.4-5,1.3c-2,0.9-4.2,2.5-6,4.8c-1.9,2.2-3.4,5.1-4.7,8.2c-1.2,3.1-2.1,6.1-2.7,9c-0.6,2.8-0.8,5.4-1,7.6
	c-0.2,2.2-0.2,3.9-0.3,5.1C540.8,575.1,540.8,575.8,540.9,575.8z"/>
<path class="st5" d="M541.2,571.9c0,0,0-0.3,0-0.9c0-0.7,0-1.5,0-2.5c0-2.2,0-5.3,0.1-9.1c0.2-7.7,0.9-16,2.1-27.6
	c1.2-11,2.8-23.7,4.6-32.1c0.4-1.9,0.7-3.6,1.1-5.1c0.3-1.5,0.6-2.8,0.9-3.8c0.2-1,0.4-1.8,0.6-2.4c0.1-0.6,0.2-0.8,0.2-0.9
	c0,0-0.1,0.3-0.3,0.8c-0.2,0.6-0.4,1.4-0.7,2.4c-0.3,1-0.6,2.3-1,3.8c-0.4,1.5-0.8,3.2-1.2,5.1c-1.7,7.5-3.5,18-4.8,29.7
	c-1.3,11.7-1.9,22.3-1.9,30.1c0,3.9,0,7,0.1,9.1c0.1,1,0.1,1.8,0.2,2.5C541.2,571.6,541.2,571.9,541.2,571.9z"/>
<path class="st5" d="M541.3,551.3c0.1,0,0-0.9,0-2.6c-0.1-1.7-0.3-4.1-0.8-7c-0.5-2.9-1.2-6.4-2.3-10.2c-0.5-1.7-1.6-5.9-4.3-12.1
	c-3.5-8.4-8.4-15.3-12.6-19.6c-1-1.1-2.1-1.9-3-2.7c-0.5-0.4-0.9-0.8-1.3-1.1c-0.4-0.3-0.8-0.5-1.1-0.8c-1.4-0.9-2.2-1.4-2.2-1.4
	c-0.1,0.2,3.1,2.1,7.2,6.4c4,4.3,8.7,11.1,12.2,19.5c2,4.5,3.3,8.6,4.3,12c1.1,3.8,1.9,7.2,2.4,10.1c0.5,2.9,0.8,5.3,1,7
	C541.1,550.4,541.2,551.3,541.3,551.3z"/>
<path class="st5" d="M521.4,587.5l2.1,28.2h36.2l2.1-28.2H521.4z"/>
<defs>
	<filter id="Adobe_OpacityMaskFilter" filterUnits="userSpaceOnUse" x="517.9" y="576.4" width="48.2" height="46.7">
		<feColorMatrix  type="matrix" values="1 0 0 0 0  0 1 0 0 0  0 0 1 0 0  0 0 0 1 0"/>
	</filter>
</defs>
<mask maskUnits="userSpaceOnUse" x="517.9" y="576.4" width="48.2" height="46.7" id="mask2_1_">
	<path class="st6" d="M500,623.2h76.6V471H500V623.2z"/>
</mask>
<g class="st7">
	<path class="st5" d="M517.9,587.5h48.2v-11.1h-48.2V587.5z"/>
	<path class="st8" d="M517.9,614.7v3.1h2.3h45.1v-3.1H517.9z"/>
	<path class="st8" d="M522.4,623.2l-2.2-5.4h43.4l-2.6,5.4H522.4z"/>
	<path class="st9" d="M561.1,596.8c0,0,0,0.1-0.2,0.3c-0.1,0.2-0.3,0.4-0.5,0.7c-0.5,0.7-1.2,1.6-2.1,2.7l-0.1,0.1l-0.1-0.1
		c-1.3-1.8-3.1-4.3-5.2-7.2h0.3c-1.5,2.2-3.3,4.6-5.1,7.2l-0.2,0.2l-0.2-0.2c-1.9-2.2-3.9-4.7-6.1-7.2l0.3,0
		c-0.1,0.1-0.2,0.3-0.3,0.4c-1.9,2.4-3.7,4.6-5.4,6.8l-0.2,0.2l-0.2-0.2c-1.8-2.6-3.6-5-5.1-7.2l0.3,0c-2.5,2.9-4.7,5.3-6.3,7.2
		l-0.1,0.1l-0.1-0.1c-0.8-1.4-1.5-2.5-2-3.3c-0.2-0.4-0.4-0.6-0.5-0.9c-0.1-0.2-0.2-0.3-0.2-0.3c0,0,0.1,0.1,0.2,0.3
		c0.1,0.2,0.3,0.5,0.6,0.8c0.5,0.8,1.2,1.9,2.1,3.2l-0.2,0c1.6-1.9,3.7-4.4,6.2-7.3l0.2-0.2l0.1,0.2c1.6,2.2,3.3,4.6,5.2,7.2l-0.3,0
		c1.7-2.2,3.5-4.4,5.4-6.8c0.1-0.1,0.2-0.3,0.3-0.4l0.2-0.2l0.2,0.2c2.1,2.5,4.2,5,6,7.2l-0.3,0c1.9-2.6,3.6-5,5.2-7.2l0.2-0.2
		l0.1,0.2c2,2.9,3.8,5.4,5.1,7.2l-0.2,0c0.9-1.1,1.7-2,2.2-2.6c0.2-0.3,0.4-0.5,0.6-0.7C561,596.8,561.1,596.8,561.1,596.8z"/>
	<path class="st8" d="M562.3,587.4c0,0.1-9.1,0.2-20.3,0.2c-11.2,0-20.3-0.1-20.3-0.2c0-0.1,9.1-0.2,20.3-0.2
		C553.2,587.1,562.3,587.2,562.3,587.4z"/>
	<path class="st5" d="M564.1,618c0,0.1-9.9,0.2-22,0.2c-12.2,0-22-0.1-22-0.2c0-0.1,9.9-0.2,22-0.2
		C554.2,617.8,564.1,617.9,564.1,618z"/>
</g>
<circle class="st10" cx="317.3" cy="204.2" r="5"/>
<circle class="st10" cx="317.3" cy="286.6" r="5"/>
<circle class="st10" cx="317.3" cy="367.5" r="5"/>
<g>
	<defs>
		<filter id="Adobe_OpacityMaskFilter_1_" filterUnits="userSpaceOnUse" x="13.3" y="613.3" width="378.7" height="0.3">
			<feColorMatrix  type="matrix" values="1 0 0 0 0  0 1 0 0 0  0 0 1 0 0  0 0 0 1 0"/>
		</filter>
	</defs>
	<mask maskUnits="userSpaceOnUse" x="13.3" y="613.3" width="378.7" height="0.3" id="mask0_2_">
		<path class="st11" d="M392,614.1H13.3v-1.2H392V614.1z"/>
	</mask>
	<g class="st12">
		<path class="st5" d="M202.6,613.3c104.6,0,189.4,0.1,189.4,0.2c0,0.1-84.8,0.2-189.4,0.2c-104.6,0-189.3-0.1-189.3-0.2
			C13.3,613.4,98,613.3,202.6,613.3z"/>
	</g>
	<path class="st13" d="M229.6,221.5l12.1-8.8c0,0,14.7-0.3,17.7-0.3c3.7,0,3.3-3.3,2.1-4c-1.1-0.6-16.4-5.8-16.4-5.8l14.5-15.6
		c0,0-1.5-0.6-7.6,1.6c-3.7,1.3-30.1,21.3-30.1,21.3L229.6,221.5z"/>
	<path class="st13" d="M131.1,140.3c-0.1,14.2-14.3,16.5-14.3,16.5c0.6,14.2,2.3,37.9-10.6,32l-21.5-3.1c-0.9-0.4-1.4-14.4-1.4-15.4
		l-3-59c-1.4-14.7,6.1-27.8,20.8-28.7l1.4,0c13.8-0.1,25.3,10.4,26.5,24.1C130.1,119.3,131.2,133.4,131.1,140.3z"/>
	<path class="st14" d="M117,160.2c-14.1,1.4-18.6-8.8-18.6-8.8c9.6,5.9,18.6,5.3,18.6,5.3L117,160.2z"/>
	<path class="st5" d="M122,113.6c-1.1,0.1-2,1-1.9,2.1c0,1.1,1,1.9,2.1,1.8c1.1-0.1,2-1,1.9-2.1S123.1,113.5,122,113.6z"/>
	<path class="st5" d="M125.2,112.4c-0.7-0.5-1.8-1-3.2-1c-1.4,0-2.5,0.5-3.2,1c-0.7,0.5-0.9,1-0.8,1.1c0.2,0.3,1.8-0.9,4-0.9
		c2.2,0,3.7,1.1,4,0.8C126.1,113.4,125.9,112.9,125.2,112.4z"/>
	<path class="st5" d="M100.5,114.4c-1.1,0.1-2,1-1.9,2.1c0,1.1,1,1.9,2.1,1.8c1.1-0.1,2-1,1.9-2.1
		C102.6,115.2,101.7,114.4,100.5,114.4z"/>
	<path class="st5" d="M103.8,113c-0.7-0.5-1.8-1-3.2-1c-1.4,0-2.5,0.5-3.2,1c-0.7,0.5-0.9,1-0.8,1.1c0.2,0.3,1.8-0.9,4-0.9
		c2.2,0,3.7,1.1,4,0.8C104.7,113.9,104.5,113.5,103.8,113z"/>
	<path class="st5" d="M116.2,130.2c0.3,0,0.6,0,0.9-0.1c0.4-0.1,0.8-0.4,0.9-0.8c0.3-0.8-0.1-1.6-0.3-2.2c-0.5-1.4-1-2.8-1.6-4.3
		c-2.3-6-4.4-10.8-4.6-10.7c-0.2,0.1,1.4,5,3.8,11.1c0.6,1.5,1.1,2.9,1.7,4.2c0.3,0.6,0.5,1.2,0.4,1.6c-0.1,0.4-0.6,0.5-1.2,0.6
		c-2.2,0.3-3.5,0.5-3.5,0.7C112.6,130.3,114,130.3,116.2,130.2z"/>
	<path class="st5" d="M103.8,104.4c-0.9-0.4-2.3-0.6-3.9-0.4c-1.5,0.2-2.8,0.7-3.7,1.3c-0.8,0.6-1.2,1.1-1,1.4
		c0.3,0.5,2.4-0.2,5-0.5c2.6-0.3,4.7-0.1,4.9-0.7C105.2,105.2,104.7,104.8,103.8,104.4z"/>
	<path class="st5" d="M124.5,106c-0.6-0.5-1.7-0.9-2.9-1c-1.2,0-2.3,0.4-3,0.8c-0.7,0.5-0.9,1-0.7,1.2c0.4,0.5,1.9,0.1,3.7,0.2
		c1.8,0,3.3,0.5,3.7,0C125.3,107,125.1,106.5,124.5,106z"/>
	<path class="st13" d="M83.2,135.6c0,0.3-9.7,2.6-10-7c-0.4-9.7,9.1-7,9.4-6.9C82.6,121.7,83.2,135.3,83.2,135.6z"/>
	<path class="st14" d="M80.6,132.5c-0.3,0.2-0.8,0.5-1.5,0.3c-1.4-0.4-2.5-2.1-2.6-4.1c-0.1-1,0.1-1.9,0.5-2.7
		c0.3-0.8,1-1.5,1.7-1.6c0.4-0.1,0.7,0,0.9,0.2c0.2,0.2,0.4,0.4,0.4,0.6c0.1,0.4-0.1,0.6-0.1,0.6c-0.1,0,0-0.2-0.1-0.5
		c-0.1-0.3-0.5-0.6-1-0.4c-0.5,0.1-1,0.6-1.2,1.3c-0.3,0.7-0.4,1.6-0.4,2.4c0.1,1.7,1,3.3,2.1,3.7c0.5,0.2,1,0.1,1.3-0.1
		c0.3-0.1,0.4-0.3,0.4-0.3C81,132,80.9,132.2,80.6,132.5z"/>
	<path class="st5" d="M87.9,98.6c3.7,9.8-3.9,15.3-3.9,15.3l0.5,8.6c0.4,2.2-0.5,4-2.7,4h0c0,0-1.2-8-1.9-10.7
		c-1.2-5.1-4.2-11.1-3.6-16.3c0,0-0.1-3.1,3.7-6.8c4.7-4.6,18.1-12.7,24.7-12.7c6.6,0.1,13.1,2.5,18.4,6.4c2.5,1.8,4.7,4,6,6.8
		l-40.4-0.6C86,94.3,87.3,97.9,87.9,98.6z"/>
	<path class="st14" d="M97.6,123.1c0-0.1-0.2-0.2-0.3-0.2c-0.1,0-0.2,0.2-0.2,0.3c0,0.1,0.2,0.2,0.3,0.2
		C97.5,123.4,97.6,123.2,97.6,123.1z"/>
	<path class="st14" d="M101.7,122.1c0-0.2-0.2-0.3-0.3-0.2c-0.1,0-0.2,0.2-0.2,0.3c0,0.2,0.2,0.3,0.3,0.2
		C101.7,122.4,101.8,122.2,101.7,122.1z"/>
	<path class="st14" d="M104.6,121.9c0-0.2-0.2-0.4-0.3-0.4c-0.1,0-0.2,0.2-0.2,0.4c0,0.2,0.2,0.4,0.3,0.4
		C104.5,122.3,104.6,122.1,104.6,121.9z"/>
	<path class="st14" d="M99.7,125.8c0-0.1-0.1-0.2-0.2-0.2c-0.1,0-0.2,0.1-0.2,0.2c0,0.1,0.1,0.2,0.2,0.2
		C99.6,126,99.7,125.9,99.7,125.8z"/>
	<path class="st14" d="M103.5,124.8c0-0.2-0.1-0.3-0.3-0.2c-0.1,0-0.2,0.1-0.2,0.3c0,0.2,0.1,0.3,0.3,0.2
		C103.4,125.1,103.5,124.9,103.5,124.8z"/>
	<path class="st14" d="M123.3,122.3c0-0.1-0.2-0.2-0.3-0.2c-0.1,0-0.2,0.2-0.2,0.3c0,0.1,0.2,0.2,0.3,0.2
		C123.3,122.6,123.4,122.4,123.3,122.3z"/>
	<path class="st14" d="M126.2,122c0-0.2-0.1-0.3-0.3-0.3c-0.1,0-0.2,0.2-0.2,0.3c0,0.2,0.1,0.3,0.3,0.3
		C126.1,122.3,126.2,122.1,126.2,122z"/>
	<path class="st14" d="M120.8,122.4c0-0.1-0.1-0.2-0.3-0.2c-0.1,0-0.2,0.1-0.2,0.3c0,0.1,0.1,0.2,0.3,0.2
		C120.8,122.6,120.9,122.5,120.8,122.4z"/>
	<path class="st14" d="M122.9,125.1c-0.1-0.1-0.2-0.2-0.3-0.2c-0.1,0.1-0.2,0.2-0.1,0.4c0.1,0.1,0.2,0.2,0.3,0.2
		C122.9,125.4,122.9,125.3,122.9,125.1z"/>
	<path class="st14" d="M125.5,124.9c0-0.1-0.1-0.2-0.2-0.3c-0.1,0-0.3,0-0.3,0.1c0,0.1,0.1,0.2,0.2,0.3
		C125.3,125,125.4,125,125.5,124.9z"/>
	<path class="st5" d="M88,99c-0.7-1.8,0.3-4.4,2.2-4.3c1.9,0.1,3.5,1.4,4.8,2.7c1.4,1.3,2.8,2.7,4.7,3.1c3.6,0.7,6.7-2.8,10.3-2.9
		c3.5-0.1,6.2,2.7,9.3,4.4c3.4,1.9,7.6,2.2,11.2,0.7c3.5-1.5,6.2-5.1,6.4-9c0.2-3.9-2.4-7.8-6.1-8.9c-1.8-0.5-3.9-0.4-5.5-1.4
		c-1.9-1.1-2.7-3.4-4-5.2c-3.1-4.5-9.5-6.4-14.6-4.2c-3.2,1.4-5.9,4.2-9.4,4.6c-1.9,0.2-3.8-0.3-5.6-0.4c-3.7-0.1-7.4,1.6-9.6,4.5
		c-2.2,2.9-3.2,6.9-2.2,10.4L88,99z"/>
	<path class="st8" d="M126.7,90c-0.6,0.5-1.4,1-2.4,1.3c-1,0.3-2.2,0.5-3.5,0.2c-1.3-0.3-2.7-1-3.7-2.1c-1.1-1.2-1.7-2.8-2.8-4.2
		c-0.5-0.7-1.2-1.4-2.1-1.9c-0.9-0.4-1.9-0.6-2.9-0.6c-1,0-2,0.3-2.9,0.8c-0.9,0.5-1.7,1.3-2.2,2.3c-0.5,0.9-0.8,1.9-1.4,2.7
		c-0.5,0.8-1.4,1.4-2.3,1.4c-0.9,0.1-1.8-0.3-2.6-0.7c-0.8-0.5-1.5-1.1-2.1-1.7c-1.3-1.2-2.6-2.5-4.2-2.9c-1.6-0.4-3.2,0.3-4.3,1.1
		c-1.1,0.8-1.8,1.9-2.2,2.9c-0.4,1-0.6,1.9-0.8,2.7c-0.1,0.8-0.2,1.3-0.2,1.7c0,0.2,0,0.4,0,0.5c0,0.1,0,0.2,0,0.2
		c0,0,0-0.2,0.1-0.6c0-0.4,0.1-1,0.3-1.7c0.1-0.7,0.4-1.6,0.8-2.6c0.4-1,1.1-2,2.2-2.8c1.1-0.8,2.5-1.3,4.1-1c1.5,0.3,2.8,1.6,4,2.8
		c0.6,0.6,1.3,1.3,2.2,1.8c0.8,0.5,1.8,0.9,2.8,0.8c1,0,2-0.7,2.6-1.6c0.6-0.9,0.9-1.8,1.4-2.7c0.5-0.9,1.2-1.6,2-2.1
		c0.9-0.5,1.8-0.7,2.7-0.8c0.9,0,1.9,0.2,2.7,0.6c0.8,0.4,1.5,1,2,1.8c1,1.4,1.7,3,2.8,4.2c1.1,1.2,2.5,1.9,3.9,2.2
		c1.4,0.3,2.6,0.1,3.7-0.2c1-0.4,1.8-0.9,2.4-1.4c0.6-0.5,0.9-1,1.1-1.3c0.1-0.2,0.2-0.3,0.2-0.4c0-0.1,0.1-0.1,0.1-0.1
		C128.2,88.2,127.9,89,126.7,90z"/>
	<path class="st8" d="M135.3,91.2c-0.3,0.8-0.7,1.8-1.5,2.7c-0.8,0.9-1.8,1.7-3.1,2.2c-2.5,1.1-5.1,1.1-6.9,0.9
		c-1.8-0.2-2.9-0.4-2.9-0.4c0,0,0.3,0.1,0.8,0.2c0.5,0.1,1.2,0.3,2.1,0.4c1.8,0.2,4.4,0.3,7-0.9c1.3-0.6,2.4-1.4,3.2-2.4
		c0.8-0.9,1.3-2,1.5-2.9c0.2-0.9,0.2-1.7,0.2-2.2c-0.1-0.5-0.2-0.8-0.2-0.8C135.5,88.3,135.8,89.5,135.3,91.2z"/>
	<path class="st5" d="M107.9,135.8c0.1,1,0.6,2.3,1.8,3.3c1.2,1,2.7,1.3,3.7,1.3c1,0,1.6-0.3,1.6-0.5c0-0.3-2.5-0.1-4.5-1.7
		c-2-1.6-2-4-2.3-3.9C108.1,134.2,107.8,134.8,107.9,135.8z"/>
	<path class="st13" d="M13.6,367l22.3-6.2c0.4-1.5-2.1-17.4-2.3-18.6l-19.9-4.4c-0.4,0.1-0.5,9.7-0.5,9.7
		C13.3,348.1,13.6,367,13.6,367z"/>
	<path class="st13" d="M15.4,368.6c2.8-0.4,3-2.1,3-2.1s0.8-10.6,0.5-11.9c-0.2-1.2-3.4-2-4.7-1.5c-1.2,0.4-1.3,9.8-1.1,12
		c0,0.3,0.1,0.4,0.1,0.4C13.2,365.6,13.6,368.8,15.4,368.6z"/>
	<path class="st13" d="M21,372c2.8-0.4,3-2.1,3-2.1s0.8-10.6,0.5-11.9c-0.2-1.2-3.4-2-4.7-1.5c-1.2,0.4-1.3,9.8-1.1,12
		c0,0.3,0.1,0.4,0.1,0.4C18.9,368.9,19.3,372.2,21,372z"/>
	<path class="st13" d="M26.6,373.7c2.8-0.4,3-2.1,3-2.1s0.8-10.6,0.5-11.9c-0.2-1.2-3.4-2-4.7-1.5c-1.2,0.4-1.3,9.8-1.1,12
		c0,0.3,0.1,0.4,0.1,0.4C24.4,370.6,24.8,373.9,26.6,373.7z"/>
	<path class="st13" d="M32.1,375.3c2.8-0.4,3-2.1,3-2.1s0.8-10.6,0.5-11.9c-0.2-1.2-3.4-2-4.7-1.5c-1.2,0.4-1.3,9.8-1.1,12
		c0,0.3,0.1,0.4,0.1,0.4C30,372.2,30.3,375.5,32.1,375.3z"/>
	<path class="st14" d="M19.1,361.9c-0.1,2.5-0.3,4.6-0.4,4.6c-0.2,0-0.2-2-0.1-4.5c0.1-2.5,0.3-4.6,0.4-4.6
		C19.2,357.4,19.2,359.4,19.1,361.9z"/>
	<path class="st14" d="M24.6,363.9c-0.1,3.6-0.4,6.5-0.5,6.5c-0.2,0-0.2-2.9-0.1-6.6c0.1-3.6,0.4-6.5,0.5-6.5
		C24.7,357.4,24.8,360.3,24.6,363.9z"/>
	<path class="st14" d="M30.3,364.4c-0.1,3.6-0.4,6.5-0.5,6.5c-0.2,0-0.2-2.9-0.1-6.6c0.1-3.6,0.4-6.5,0.5-6.5
		C30.4,357.8,30.4,360.8,30.3,364.4z"/>
	<path class="st13" d="M35.6,364.5c0,0,3.7-1.7,4.8-2.8c1.1-1.1-6.7-19-6.7-19L35.6,364.5z"/>
	<defs>
		<filter id="Adobe_OpacityMaskFilter_2_" filterUnits="userSpaceOnUse" x="106.8" y="566.7" width="54.2" height="54.7">
			<feColorMatrix  type="matrix" values="1 0 0 0 0  0 1 0 0 0  0 0 1 0 0  0 0 0 1 0"/>
		</filter>
	</defs>
	<mask maskUnits="userSpaceOnUse" x="106.8" y="566.7" width="54.2" height="54.7" id="mask1_2_">
		<path class="st15" d="M160.9,621.4h-54.2v-54.7h54.2V621.4z"/>
	</mask>
	<g class="st16">
		<path class="st13" d="M113.1,566.7l-6.4,45l54.2,9.7c0.6-5.4-26.2-21.2-26.2-21.2l4.3-28.8L113.1,566.7z"/>
	</g>
	<path class="st13" d="M52.8,574.9l-2.9,45.4l56.5-0.2C106,614.7,76.7,604,76.7,604l0.9-29.1L52.8,574.9z"/>
	<path class="st13" d="M106.4,620.1c0.3-1.8-2.2-2.9-2.2-2.9L50,615.8l-0.1,4.6L106.4,620.1z"/>
	<path class="st13" d="M109.4,593l11.8-169.1l35.4,18.7c0,2.8-21,153.5-21,153.5L109.4,593z"/>
	<path class="st13" d="M51.2,600.9l-0.4,0c0,0,22.7-291.3,23.4-293.3l44.6-6v53.1l-42,246.5L51.2,600.9z"/>
	<path class="st8" d="M112.8,388.4c-3.1,19.6-5.5,35.5-5.3,35.5c0.2,0,2.9-15.8,6-35.4c3.1-19.6,5.5-35.5,5.3-35.5
		C118.6,353,115.9,368.8,112.8,388.4z"/>
	<path class="st17" d="M235.5,217.1c0,0-30.7,57.5-47.9,59.2c-22.5,2.3-38.9-39.6-38.9-39.6l-3.8-66.4c0,0,6.8,3.4,9.5,6.7
		c2.7,3.2,33,55,33,55l40.5-26.6L235.5,217.1z"/>
	<path class="st18" d="M188.3,232c-2.8,6.3-5.6,12.6-8.3,18.9c-0.7,1.5-1.2,3.4-0.2,4.6c0.9,1,2.6,0.9,3.7,0.1
		c1.1-0.8,1.8-2,2.4-3.2c0.1,1.3,0.2,2.6,0.8,3.7c0.7,1.1,2.2,1.7,3.3,1.1c0.7-0.4,1.1-1.3,1.3-2.1c2.5-7.9,1.2-16.9-3.3-23.9"/>
	<path class="st5" d="M188,239.9c0.1-4.3-0.6-7.8-0.4-7.8c0.2-0.1,1.3,3.4,1.2,7.9c-0.1,4.5-1.3,7.9-1.5,7.8
		C187.1,247.7,187.9,244.2,188,239.9z"/>
	<path class="st5" d="M184.4,239.8c1.8-4.2,3-7.8,3.3-7.7c0.2,0.1-0.6,3.8-2.5,8.1c-1.8,4.3-4,7.5-4.2,7.3
		C180.9,247.4,182.6,244.1,184.4,239.8z"/>
	<path class="st17" d="M43.5,182.2l17.1,56.2l1.1,70.4c0,3.7-1.9,11.6,1.2,13.6l3.5-1.4l86.6-3.3c0.9-1.6,1.3-3.4,1.3-5.2
		l-9.5-142.1l-22-5l-3.1,2.2c-5.4,3.9-11.9,6.1-18.6,6.2c-7.5,0.2-14.8-2.3-20.8-6.9l-3.8-2.9L43.5,182.2z"/>
	<path class="st17" d="M5.4,276.8c-0.1-2.8,0.3-5.6,1.3-8.2c6.8-18.1,33.4-84.9,36.9-86.3l17.1,56.2l-24.1,38l-2.7,66.3l-20.7-0.5
		L5.4,276.8z"/>
	<path class="st5" d="M50.6,184.9c2,0.5,4.8,1.5,7.8,2.8c3,1.3,5.5,2.8,7.3,3.9c1.8,1.1,2.8,2,2.7,2.1c-0.1,0.2-4.5-2.6-10.4-5.2
		c-5.8-2.6-10.8-4-10.8-4.2C47.2,184.1,48.5,184.3,50.6,184.9z"/>
	<path class="st18" d="M60.3,238.3c2.5-4.6,5.1-9.2,7.6-13.8c3,24.2,1.3,49-5,72.5l-2.3-58.4"/>
	<path class="st5" d="M144.1,316c1-1.5,1.1-3,1.3-3c0.2-0.1,0.6,1.7-0.6,3.5c-1.2,1.8-3,2.1-3,1.8
		C141.7,318.1,143.1,317.5,144.1,316z"/>
	<path class="st5" d="M141.1,313.1c0.6-2.4,0.4-4.4,0.6-4.5c0.2-0.1,0.9,2.1,0.2,4.7c-0.6,2.6-2.3,4.2-2.4,4
		C139.3,317.2,140.5,315.5,141.1,313.1z"/>
	<path class="st5" d="M76.3,314.4c1.6,3.6,4,5.8,3.8,6c-0.1,0.2-2.9-1.8-4.6-5.6c-1.8-3.7-1.6-7.2-1.4-7.2
		C74.4,307.6,74.6,310.9,76.3,314.4z"/>
	<path class="st17" d="M131.1,243.3c-8.9-28.3-67.9-27.5-70.8-21.8c-2.9,5.7-10.9,128.1-10.9,128.1c-3.6,26.4-3,45-5.9,70.1
		c-2.2,18.9-5.5,54.5-7,71c-0.5,5.1,3.1,9.6,8.2,10.2c30,3.9,91.6,6.9,116.2,8.1c5.6,0.3,8.2-14.1,8.9-19.7c2.1-17,0.6-38-1.6-60.3
		c-2.6-26-6.1-72.2-7.3-76.6C159.7,348,153,292,153,292S140,271.6,131.1,243.3z"/>
	<path class="st5" d="M28.7,271.6c6.8,1.7,7.8,4.8,7.8,4.8L28.7,271.6z"/>
	<path class="st19" d="M38.5,469c0,0-3.4,22.4-0.4,27.8c3,5.4,15.3,5.1,15.3,5.1s-6-37.2,0-86.8c6-49.6,4-171.8,4-171.8L38.5,469z"
		/>
</g>
<g>
	<path d="M342.2,200.2l-2.8,2.3l-1.4-1.7l4.4-3.6h2.2v14.2h-2.4V200.2z"/>
	<path d="M355.5,204.4c-0.2-0.3-0.5-0.5-0.9-0.7c-0.4-0.2-0.8-0.3-1.2-0.3c-0.4,0-0.7,0.1-1.1,0.2c-0.3,0.2-0.5,0.4-0.5,0.8
		c0,0.4,0.2,0.6,0.5,0.8s0.9,0.3,1.6,0.5c0.4,0.1,0.7,0.2,1.1,0.3c0.4,0.1,0.7,0.3,1,0.5c0.3,0.2,0.5,0.5,0.7,0.8s0.3,0.7,0.3,1.2
		c0,0.6-0.1,1.1-0.3,1.5c-0.2,0.4-0.5,0.7-0.9,1c-0.4,0.3-0.8,0.4-1.3,0.5c-0.5,0.1-1,0.2-1.5,0.2c-0.7,0-1.5-0.1-2.2-0.4
		c-0.7-0.3-1.3-0.7-1.8-1.2l1.6-1.5c0.3,0.3,0.6,0.6,1,0.9s0.9,0.3,1.4,0.3c0.2,0,0.4,0,0.5-0.1s0.3-0.1,0.5-0.2
		c0.2-0.1,0.3-0.2,0.4-0.4c0.1-0.1,0.1-0.3,0.1-0.5c0-0.4-0.2-0.7-0.5-0.9c-0.4-0.2-0.9-0.3-1.6-0.5c-0.4-0.1-0.7-0.2-1.1-0.3
		c-0.3-0.1-0.6-0.3-0.9-0.5c-0.3-0.2-0.5-0.5-0.6-0.8c-0.2-0.3-0.2-0.7-0.2-1.1c0-0.5,0.1-1,0.3-1.4c0.2-0.4,0.5-0.7,0.9-0.9
		c0.4-0.2,0.8-0.4,1.2-0.6c0.5-0.1,0.9-0.2,1.4-0.2c0.7,0,1.4,0.1,2,0.4c0.7,0.2,1.2,0.6,1.6,1.1L355.5,204.4z"/>
	<path d="M357.8,203.7v-1.9h1.7V199h2.4v2.8h2.4v1.9h-2.4v4.5c0,0.4,0.1,0.8,0.2,1.1c0.2,0.3,0.5,0.4,1,0.4c0.2,0,0.3,0,0.5,0
		c0.2,0,0.4-0.1,0.5-0.1l0.1,1.9c-0.2,0.1-0.5,0.1-0.8,0.2s-0.6,0.1-0.8,0.1c-0.6,0-1.2-0.1-1.6-0.3c-0.4-0.2-0.7-0.4-0.9-0.7
		c-0.2-0.3-0.4-0.7-0.5-1.1c-0.1-0.4-0.1-0.8-0.1-1.3v-4.5H357.8z"/>
	<path d="M370.4,206.6c0-0.8,0.1-1.5,0.4-2.1c0.3-0.6,0.6-1.1,1.1-1.6s1-0.8,1.7-1c0.6-0.2,1.3-0.4,2-0.4c0.7,0,1.4,0.1,2,0.4
		c0.6,0.2,1.2,0.6,1.7,1s0.8,1,1.1,1.6c0.3,0.6,0.4,1.3,0.4,2.1c0,0.8-0.1,1.5-0.4,2.1c-0.3,0.6-0.6,1.2-1.1,1.6s-1,0.8-1.7,1
		c-0.6,0.3-1.3,0.4-2,0.4c-0.7,0-1.4-0.1-2-0.4c-0.6-0.3-1.2-0.6-1.7-1s-0.8-1-1.1-1.6C370.5,208,370.4,207.3,370.4,206.6z
		 M372.8,206.6c0,0.4,0.1,0.7,0.2,1.1c0.1,0.4,0.3,0.7,0.5,1c0.2,0.3,0.5,0.5,0.9,0.7c0.3,0.2,0.8,0.3,1.2,0.3
		c0.5,0,0.9-0.1,1.2-0.3c0.3-0.2,0.6-0.4,0.9-0.7c0.2-0.3,0.4-0.6,0.5-1c0.1-0.4,0.2-0.7,0.2-1.1s-0.1-0.7-0.2-1.1
		c-0.1-0.4-0.3-0.7-0.5-1c-0.2-0.3-0.5-0.5-0.9-0.7c-0.3-0.2-0.8-0.3-1.2-0.3c-0.5,0-0.9,0.1-1.2,0.3c-0.3,0.2-0.6,0.4-0.9,0.7
		c-0.2,0.3-0.4,0.6-0.5,1C372.9,205.8,372.8,206.2,372.8,206.6z"/>
	<path d="M383.2,201.8h2.3v1.5h0c0.2-0.5,0.6-0.9,1.1-1.3c0.5-0.4,1.2-0.5,1.9-0.5c0.6,0,1.2,0.1,1.6,0.3c0.4,0.2,0.8,0.5,1.1,0.9
		c0.3,0.4,0.5,0.8,0.6,1.2c0.1,0.5,0.2,0.9,0.2,1.4v6h-2.4v-5.3c0-0.3,0-0.6-0.1-0.9c0-0.3-0.1-0.6-0.3-0.8
		c-0.1-0.2-0.3-0.5-0.5-0.6c-0.2-0.2-0.5-0.2-0.9-0.2s-0.7,0.1-1,0.2c-0.3,0.2-0.5,0.4-0.7,0.6c-0.2,0.2-0.3,0.5-0.4,0.8
		c-0.1,0.3-0.1,0.6-0.1,1v5.3h-2.4V201.8z"/>
	<path d="M399.8,196.3h2.4v15.1h-2.4V196.3z"/>
	<path d="M404.9,198.5c0-0.4,0.1-0.7,0.4-1c0.3-0.3,0.6-0.4,1.1-0.4c0.4,0,0.8,0.1,1.1,0.4c0.3,0.3,0.5,0.6,0.5,1s-0.1,0.8-0.5,1
		c-0.3,0.3-0.7,0.4-1.1,0.4c-0.4,0-0.8-0.1-1.1-0.4C405,199.3,404.9,198.9,404.9,198.5z M405.2,201.8h2.4v9.6h-2.4V201.8z"/>
	<path d="M415.8,204.4c-0.2-0.3-0.5-0.5-0.9-0.7c-0.4-0.2-0.8-0.3-1.2-0.3c-0.4,0-0.7,0.1-1.1,0.2c-0.3,0.2-0.5,0.4-0.5,0.8
		c0,0.4,0.2,0.6,0.5,0.8s0.9,0.3,1.5,0.5c0.4,0.1,0.7,0.2,1.1,0.3c0.4,0.1,0.7,0.3,1,0.5c0.3,0.2,0.5,0.5,0.7,0.8s0.3,0.7,0.3,1.2
		c0,0.6-0.1,1.1-0.3,1.5c-0.2,0.4-0.5,0.7-0.9,1c-0.4,0.3-0.8,0.4-1.3,0.5c-0.5,0.1-1,0.2-1.5,0.2c-0.7,0-1.5-0.1-2.2-0.4
		c-0.7-0.3-1.3-0.7-1.8-1.2l1.6-1.5c0.3,0.3,0.6,0.6,1,0.9s0.9,0.3,1.4,0.3c0.2,0,0.4,0,0.5-0.1s0.3-0.1,0.5-0.2
		c0.2-0.1,0.3-0.2,0.4-0.4c0.1-0.1,0.1-0.3,0.1-0.5c0-0.4-0.2-0.7-0.5-0.9c-0.4-0.2-0.9-0.3-1.7-0.5c-0.4-0.1-0.7-0.2-1-0.3
		c-0.3-0.1-0.6-0.3-0.9-0.5c-0.3-0.2-0.5-0.5-0.6-0.8c-0.2-0.3-0.2-0.7-0.2-1.1c0-0.5,0.1-1,0.3-1.4c0.2-0.4,0.5-0.7,0.9-0.9
		s0.8-0.4,1.2-0.6c0.5-0.1,0.9-0.2,1.4-0.2c0.7,0,1.4,0.1,2,0.4c0.7,0.2,1.2,0.6,1.6,1.1L415.8,204.4z"/>
	<path d="M418,203.7v-1.9h1.7V199h2.4v2.8h2.4v1.9h-2.4v4.5c0,0.4,0.1,0.8,0.2,1.1c0.2,0.3,0.5,0.4,1,0.4c0.2,0,0.3,0,0.5,0
		c0.2,0,0.4-0.1,0.5-0.1l0.1,1.9c-0.2,0.1-0.5,0.1-0.8,0.2c-0.3,0-0.6,0.1-0.8,0.1c-0.6,0-1.2-0.1-1.6-0.3c-0.4-0.2-0.7-0.4-1-0.7
		c-0.2-0.3-0.4-0.7-0.5-1.1c-0.1-0.4-0.1-0.8-0.1-1.3v-4.5H418z"/>
	<path d="M426.2,203.2c0-0.4,0.2-0.8,0.5-1.1s0.7-0.5,1.1-0.5c0.4,0,0.8,0.1,1.1,0.4s0.5,0.7,0.5,1.1c0,0.4-0.2,0.8-0.5,1.1
		c-0.3,0.3-0.7,0.5-1.1,0.5c-0.2,0-0.4,0-0.6-0.1c-0.2-0.1-0.4-0.2-0.5-0.3c-0.1-0.1-0.3-0.3-0.3-0.5
		C426.2,203.7,426.2,203.5,426.2,203.2z M426.2,210c0-0.4,0.2-0.8,0.5-1.1s0.7-0.5,1.1-0.5c0.4,0,0.8,0.1,1.1,0.4
		c0.3,0.3,0.5,0.7,0.5,1.1s-0.2,0.8-0.5,1.1s-0.7,0.5-1.1,0.5c-0.2,0-0.4,0-0.6-0.1s-0.4-0.2-0.5-0.3s-0.3-0.3-0.3-0.5
		C426.2,210.4,426.2,210.2,426.2,210z"/>
	<path d="M344,234.2L344,234.2c-0.3,0.4-0.7,0.8-1.2,1.1c-0.5,0.3-1.1,0.4-1.8,0.4c-0.4,0-0.8-0.1-1.2-0.2c-0.4-0.1-0.8-0.3-1.2-0.5
		c-0.4-0.2-0.6-0.5-0.9-0.9s-0.4-0.9-0.4-1.4c0-0.7,0.2-1.3,0.6-1.7c0.4-0.4,0.9-0.8,1.6-1c0.6-0.2,1.4-0.4,2.1-0.5
		c0.8-0.1,1.5-0.1,2.3-0.1v-0.2c0-0.6-0.2-1-0.6-1.3c-0.4-0.3-1-0.4-1.5-0.4c-0.5,0-1,0.1-1.5,0.3c-0.5,0.2-0.9,0.5-1.2,0.8
		l-1.2-1.5c0.5-0.5,1.2-0.9,1.9-1.1c0.7-0.3,1.4-0.4,2.2-0.4c0.9,0,1.6,0.1,2.1,0.4c0.6,0.2,1,0.6,1.3,0.9c0.3,0.4,0.5,0.8,0.7,1.3
		c0.1,0.5,0.2,1,0.2,1.4v5.8H344V234.2z M344,231h-0.5c-0.4,0-0.8,0-1.2,0c-0.4,0-0.8,0.1-1.2,0.2s-0.7,0.3-0.9,0.5
		c-0.2,0.2-0.4,0.5-0.4,0.9c0,0.2,0,0.4,0.1,0.6s0.2,0.3,0.4,0.4c0.2,0.1,0.3,0.2,0.5,0.2c0.2,0,0.4,0.1,0.6,0.1
		c0.8,0,1.5-0.2,1.9-0.7c0.4-0.4,0.6-1,0.6-1.8V231z"/>
	<path d="M351.4,225.8v1.3h0.1c0.1-0.2,0.3-0.4,0.5-0.6c0.2-0.2,0.4-0.4,0.7-0.5c0.3-0.2,0.6-0.3,1-0.4c0.4-0.1,0.8-0.1,1.2-0.1
		c0.7,0,1.3,0.1,1.9,0.4c0.6,0.3,1.1,0.6,1.5,1.1c0.4,0.5,0.7,1,1,1.6c0.2,0.6,0.3,1.3,0.3,2s-0.1,1.4-0.3,2s-0.5,1.2-0.9,1.6
		c-0.4,0.5-0.9,0.8-1.5,1.1c-0.6,0.3-1.2,0.4-2,0.4c-0.7,0-1.3-0.1-1.9-0.4c-0.6-0.3-1-0.7-1.3-1.1h0v6.1h-2.4v-14.4H351.4z
		 M357,230.6c0-0.4-0.1-0.7-0.2-1.1c-0.1-0.4-0.3-0.7-0.5-1c-0.2-0.3-0.5-0.5-0.9-0.7c-0.3-0.2-0.8-0.3-1.2-0.3
		c-0.4,0-0.8,0.1-1.2,0.3c-0.3,0.2-0.6,0.4-0.9,0.7c-0.2,0.3-0.4,0.6-0.6,1c-0.1,0.4-0.2,0.7-0.2,1.1c0,0.4,0.1,0.7,0.2,1.1
		s0.3,0.7,0.6,1c0.2,0.3,0.5,0.5,0.9,0.7c0.3,0.2,0.7,0.3,1.2,0.3c0.5,0,0.9-0.1,1.2-0.3c0.3-0.2,0.6-0.4,0.9-0.7
		c0.2-0.3,0.4-0.6,0.5-1C356.9,231.3,357,230.9,357,230.6z"/>
	<path d="M364,225.8v1.3h0.1c0.1-0.2,0.3-0.4,0.5-0.6c0.2-0.2,0.4-0.4,0.7-0.5c0.3-0.2,0.6-0.3,1-0.4c0.4-0.1,0.8-0.1,1.2-0.1
		c0.7,0,1.3,0.1,1.9,0.4c0.6,0.3,1.1,0.6,1.5,1.1c0.4,0.5,0.7,1,1,1.6c0.2,0.6,0.3,1.3,0.3,2s-0.1,1.4-0.3,2s-0.5,1.2-0.9,1.6
		c-0.4,0.5-0.9,0.8-1.5,1.1c-0.6,0.3-1.2,0.4-2,0.4c-0.7,0-1.3-0.1-1.9-0.4c-0.6-0.3-1-0.7-1.3-1.1h0v6.1h-2.4v-14.4H364z
		 M369.6,230.6c0-0.4-0.1-0.7-0.2-1.1c-0.1-0.4-0.3-0.7-0.5-1c-0.2-0.3-0.5-0.5-0.9-0.7c-0.3-0.2-0.8-0.3-1.2-0.3
		c-0.4,0-0.8,0.1-1.2,0.3c-0.3,0.2-0.6,0.4-0.9,0.7c-0.2,0.3-0.4,0.6-0.6,1c-0.1,0.4-0.2,0.7-0.2,1.1c0,0.4,0.1,0.7,0.2,1.1
		s0.3,0.7,0.6,1c0.2,0.3,0.5,0.5,0.9,0.7c0.3,0.2,0.7,0.3,1.2,0.3c0.5,0,0.9-0.1,1.2-0.3c0.3-0.2,0.6-0.4,0.9-0.7
		c0.2-0.3,0.4-0.6,0.5-1C369.6,231.3,369.6,230.9,369.6,230.6z"/>
	<path d="M374.4,225.8h2.3v1.6h0c0.3-0.6,0.6-1,1.1-1.4c0.5-0.3,1-0.5,1.7-0.5c0.1,0,0.2,0,0.3,0c0.1,0,0.2,0,0.3,0.1v2.2
		c-0.2,0-0.3-0.1-0.4-0.1c-0.1,0-0.2,0-0.3,0c-0.5,0-1,0.1-1.3,0.3c-0.3,0.2-0.6,0.4-0.8,0.7c-0.2,0.3-0.3,0.6-0.4,0.9
		c-0.1,0.3-0.1,0.5-0.1,0.7v5.1h-2.4V225.8z"/>
	<path d="M380.8,230.6c0-0.8,0.1-1.5,0.4-2.1c0.3-0.6,0.6-1.1,1.1-1.6s1-0.8,1.7-1c0.6-0.2,1.3-0.4,2-0.4c0.7,0,1.4,0.1,2,0.4
		c0.6,0.2,1.2,0.6,1.7,1s0.8,1,1.1,1.6c0.3,0.6,0.4,1.3,0.4,2.1c0,0.8-0.1,1.5-0.4,2.1c-0.3,0.6-0.6,1.2-1.1,1.6s-1,0.8-1.7,1
		c-0.6,0.3-1.3,0.4-2,0.4c-0.7,0-1.4-0.1-2-0.4c-0.6-0.3-1.2-0.6-1.7-1s-0.8-1-1.1-1.6C380.9,232,380.8,231.3,380.8,230.6z
		 M383.2,230.6c0,0.4,0.1,0.7,0.2,1.1c0.1,0.4,0.3,0.7,0.5,1c0.2,0.3,0.5,0.5,0.9,0.7c0.3,0.2,0.8,0.3,1.2,0.3
		c0.5,0,0.9-0.1,1.2-0.3c0.3-0.2,0.6-0.4,0.9-0.7c0.2-0.3,0.4-0.6,0.5-1c0.1-0.4,0.2-0.7,0.2-1.1s-0.1-0.7-0.2-1.1
		c-0.1-0.4-0.3-0.7-0.5-1c-0.2-0.3-0.5-0.5-0.9-0.7c-0.3-0.2-0.8-0.3-1.2-0.3c-0.5,0-0.9,0.1-1.2,0.3c-0.3,0.2-0.6,0.4-0.9,0.7
		c-0.2,0.3-0.4,0.6-0.5,1C383.3,229.8,383.2,230.2,383.2,230.6z"/>
	<path d="M395.8,230.3l-3.5-4.5h2.9l2.1,3l2.1-3h2.8l-3.4,4.5l3.9,5.1h-2.9l-2.5-3.5l-2.5,3.5h-2.8L395.8,230.3z"/>
	<path d="M403.8,222.5c0-0.4,0.1-0.7,0.4-1c0.3-0.3,0.6-0.4,1.1-0.4c0.4,0,0.8,0.1,1.1,0.4c0.3,0.3,0.5,0.6,0.5,1s-0.1,0.8-0.5,1
		c-0.3,0.3-0.7,0.4-1.1,0.4c-0.4,0-0.8-0.1-1.1-0.4C403.9,223.3,403.8,222.9,403.8,222.5z M404.1,225.8h2.4v9.6h-2.4V225.8z"/>
	<path d="M420.9,225.5c0.6,0,1.2,0.1,1.6,0.3c0.4,0.2,0.8,0.5,1.1,0.9c0.3,0.4,0.5,0.8,0.6,1.2c0.1,0.5,0.2,0.9,0.2,1.4v6H422v-5.3
		c0-0.3,0-0.6-0.1-0.9c0-0.3-0.1-0.6-0.3-0.8c-0.1-0.2-0.3-0.5-0.5-0.6c-0.2-0.2-0.5-0.2-0.9-0.2c-0.4,0-0.7,0.1-1,0.2
		c-0.3,0.2-0.5,0.4-0.7,0.6c-0.2,0.3-0.3,0.5-0.4,0.9c-0.1,0.3-0.1,0.6-0.1,0.9v5.2h-2.4v-5.8c0-0.6-0.1-1.1-0.4-1.5
		c-0.3-0.4-0.7-0.6-1.3-0.6c-0.4,0-0.7,0.1-0.9,0.2s-0.5,0.4-0.7,0.6c-0.2,0.2-0.3,0.5-0.4,0.8c-0.1,0.3-0.1,0.6-0.1,1v5.3h-2.4
		v-9.6h2.3v1.5h0c0.1-0.2,0.2-0.5,0.4-0.7c0.2-0.2,0.4-0.4,0.6-0.6c0.2-0.2,0.5-0.3,0.8-0.4c0.3-0.1,0.7-0.1,1.1-0.1
		c0.7,0,1.4,0.2,1.9,0.5c0.5,0.3,0.9,0.8,1.1,1.3c0.3-0.6,0.7-1,1.3-1.4C419.5,225.7,420.2,225.5,420.9,225.5z"/>
	<path d="M433.2,234.2L433.2,234.2c-0.3,0.4-0.7,0.8-1.2,1.1c-0.5,0.3-1.1,0.4-1.8,0.4c-0.4,0-0.8-0.1-1.2-0.2
		c-0.4-0.1-0.8-0.3-1.2-0.5c-0.4-0.2-0.6-0.5-0.9-0.9c-0.2-0.4-0.4-0.9-0.4-1.4c0-0.7,0.2-1.3,0.6-1.7c0.4-0.4,0.9-0.8,1.6-1
		c0.6-0.2,1.3-0.4,2.1-0.5c0.8-0.1,1.5-0.1,2.3-0.1v-0.2c0-0.6-0.2-1-0.7-1.3s-1-0.4-1.5-0.4c-0.5,0-1,0.1-1.5,0.3
		c-0.5,0.2-0.9,0.5-1.2,0.8l-1.2-1.5c0.5-0.5,1.2-0.9,1.9-1.1c0.7-0.3,1.4-0.4,2.2-0.4c0.9,0,1.6,0.1,2.1,0.4c0.6,0.2,1,0.6,1.3,0.9
		c0.3,0.4,0.5,0.8,0.7,1.3c0.1,0.5,0.2,1,0.2,1.4v5.8h-2.2V234.2z M433.1,231h-0.5c-0.4,0-0.8,0-1.2,0c-0.4,0-0.8,0.1-1.2,0.2
		s-0.7,0.3-0.9,0.5c-0.2,0.2-0.4,0.5-0.4,0.9c0,0.2,0,0.4,0.1,0.6c0.1,0.2,0.2,0.3,0.4,0.4s0.3,0.2,0.5,0.2s0.4,0.1,0.6,0.1
		c0.8,0,1.5-0.2,1.9-0.7c0.4-0.4,0.6-1,0.6-1.8V231z"/>
	<path d="M436.6,227.7v-1.9h1.7V223h2.4v2.8h2.4v1.9h-2.4v4.5c0,0.4,0.1,0.8,0.2,1.1c0.2,0.3,0.5,0.4,1,0.4c0.2,0,0.3,0,0.5,0
		c0.2,0,0.4-0.1,0.5-0.1l0.1,1.9c-0.2,0.1-0.5,0.1-0.8,0.2c-0.3,0-0.6,0.1-0.8,0.1c-0.6,0-1.2-0.1-1.6-0.3c-0.4-0.2-0.7-0.4-1-0.7
		c-0.2-0.3-0.4-0.7-0.5-1.1c-0.1-0.4-0.1-0.8-0.1-1.3v-4.5H436.6z"/>
	<path d="M454,230.7c0,0.1,0,0.2,0,0.3s0,0.2,0,0.3h-7.3c0,0.3,0.1,0.7,0.3,1s0.4,0.5,0.6,0.7c0.3,0.2,0.5,0.4,0.9,0.5
		c0.3,0.1,0.7,0.2,1,0.2c0.6,0,1.1-0.1,1.5-0.3c0.4-0.2,0.8-0.5,1-0.9l1.6,1.3c-0.9,1.3-2.3,1.9-4.1,1.9c-0.7,0-1.4-0.1-2.1-0.3
		c-0.6-0.2-1.2-0.6-1.6-1c-0.5-0.4-0.8-0.9-1.1-1.6c-0.3-0.6-0.4-1.3-0.4-2.1c0-0.8,0.1-1.5,0.4-2.1c0.3-0.6,0.6-1.2,1.1-1.6
		c0.5-0.4,1-0.8,1.6-1s1.3-0.4,2-0.4c0.7,0,1.3,0.1,1.8,0.3c0.6,0.2,1.1,0.5,1.5,1c0.4,0.4,0.7,1,1,1.6
		C453.9,229.1,454,229.9,454,230.7z M451.6,229.6c0-0.3,0-0.6-0.1-0.9c-0.1-0.3-0.2-0.5-0.4-0.7c-0.2-0.2-0.4-0.4-0.7-0.5
		c-0.3-0.1-0.6-0.2-1-0.2c-0.7,0-1.3,0.2-1.8,0.6c-0.5,0.4-0.8,1-0.8,1.7H451.6z"/>
	<path d="M459.9,227.7v-1.9h1.7V223h2.4v2.8h2.4v1.9H464v4.5c0,0.4,0.1,0.8,0.2,1.1c0.2,0.3,0.5,0.4,1,0.4c0.2,0,0.3,0,0.5,0
		c0.2,0,0.4-0.1,0.5-0.1l0.1,1.9c-0.2,0.1-0.5,0.1-0.8,0.2c-0.3,0-0.6,0.1-0.8,0.1c-0.6,0-1.2-0.1-1.6-0.3c-0.4-0.2-0.7-0.4-1-0.7
		c-0.2-0.3-0.4-0.7-0.5-1.1c-0.1-0.4-0.1-0.8-0.1-1.3v-4.5H459.9z"/>
	<path d="M467.8,222.5c0-0.4,0.1-0.7,0.4-1c0.3-0.3,0.6-0.4,1.1-0.4c0.4,0,0.8,0.1,1.1,0.4c0.3,0.3,0.5,0.6,0.5,1s-0.1,0.8-0.5,1
		c-0.3,0.3-0.7,0.4-1.1,0.4c-0.4,0-0.8-0.1-1.1-0.4C468,223.3,467.8,222.9,467.8,222.5z M468.1,225.8h2.4v9.6h-2.4V225.8z"/>
	<path d="M484.9,225.5c0.6,0,1.2,0.1,1.6,0.3c0.4,0.2,0.8,0.5,1.1,0.9c0.3,0.4,0.5,0.8,0.6,1.2c0.1,0.5,0.2,0.9,0.2,1.4v6h-2.4v-5.3
		c0-0.3,0-0.6-0.1-0.9c0-0.3-0.1-0.6-0.3-0.8c-0.1-0.2-0.3-0.5-0.5-0.6c-0.2-0.2-0.5-0.2-0.9-0.2c-0.4,0-0.7,0.1-1,0.2
		c-0.3,0.2-0.5,0.4-0.7,0.6c-0.2,0.3-0.3,0.5-0.4,0.9c-0.1,0.3-0.1,0.6-0.1,0.9v5.2h-2.4v-5.8c0-0.6-0.1-1.1-0.4-1.5
		c-0.3-0.4-0.7-0.6-1.3-0.6c-0.4,0-0.7,0.1-0.9,0.2s-0.5,0.4-0.7,0.6c-0.2,0.2-0.3,0.5-0.4,0.8c-0.1,0.3-0.1,0.6-0.1,1v5.3h-2.4
		v-9.6h2.3v1.5h0c0.1-0.2,0.2-0.5,0.4-0.7c0.2-0.2,0.4-0.4,0.6-0.6c0.2-0.2,0.5-0.3,0.8-0.4c0.3-0.1,0.7-0.1,1.1-0.1
		c0.7,0,1.4,0.2,1.9,0.5c0.5,0.3,0.9,0.8,1.1,1.3c0.3-0.6,0.7-1,1.3-1.4C483.6,225.7,484.2,225.5,484.9,225.5z"/>
	<path d="M500.4,230.7c0,0.1,0,0.2,0,0.3s0,0.2,0,0.3h-7.3c0,0.3,0.1,0.7,0.3,1s0.4,0.5,0.6,0.7c0.3,0.2,0.5,0.4,0.9,0.5
		c0.3,0.1,0.7,0.2,1,0.2c0.6,0,1.1-0.1,1.5-0.3c0.4-0.2,0.8-0.5,1-0.9l1.6,1.3c-0.9,1.3-2.3,1.9-4.1,1.9c-0.7,0-1.4-0.1-2.1-0.3
		c-0.6-0.2-1.2-0.6-1.6-1c-0.5-0.4-0.8-0.9-1.1-1.6c-0.3-0.6-0.4-1.3-0.4-2.1c0-0.8,0.1-1.5,0.4-2.1c0.3-0.6,0.6-1.2,1.1-1.6
		c0.5-0.4,1-0.8,1.6-1s1.3-0.4,2-0.4c0.7,0,1.3,0.1,1.8,0.3c0.6,0.2,1.1,0.5,1.5,1c0.4,0.4,0.7,1,1,1.6
		C500.3,229.1,500.4,229.9,500.4,230.7z M498,229.6c0-0.3,0-0.6-0.1-0.9c-0.1-0.3-0.2-0.5-0.4-0.7c-0.2-0.2-0.4-0.4-0.7-0.5
		c-0.3-0.1-0.6-0.2-1-0.2c-0.7,0-1.3,0.2-1.8,0.6c-0.5,0.4-0.8,1-0.8,1.7H498z"/>
	<path d="M507.2,230.6c0-0.8,0.1-1.5,0.4-2.1c0.3-0.6,0.6-1.1,1.1-1.6c0.5-0.4,1-0.8,1.7-1c0.6-0.2,1.3-0.4,2-0.4
		c0.7,0,1.4,0.1,2,0.4c0.6,0.2,1.2,0.6,1.7,1s0.8,1,1.1,1.6c0.3,0.6,0.4,1.3,0.4,2.1c0,0.8-0.1,1.5-0.4,2.1
		c-0.3,0.6-0.6,1.2-1.1,1.6s-1,0.8-1.7,1c-0.6,0.3-1.3,0.4-2,0.4c-0.7,0-1.4-0.1-2-0.4c-0.6-0.3-1.2-0.6-1.7-1
		c-0.5-0.4-0.8-1-1.1-1.6C507.3,232,507.2,231.3,507.2,230.6z M509.6,230.6c0,0.4,0.1,0.7,0.2,1.1c0.1,0.4,0.3,0.7,0.5,1
		c0.2,0.3,0.5,0.5,0.9,0.7c0.3,0.2,0.8,0.3,1.2,0.3c0.5,0,0.9-0.1,1.2-0.3c0.3-0.2,0.6-0.4,0.9-0.7c0.2-0.3,0.4-0.6,0.5-1
		c0.1-0.4,0.2-0.7,0.2-1.1s-0.1-0.7-0.2-1.1c-0.1-0.4-0.3-0.7-0.5-1c-0.2-0.3-0.5-0.5-0.9-0.7c-0.3-0.2-0.8-0.3-1.2-0.3
		c-0.5,0-0.9,0.1-1.2,0.3c-0.3,0.2-0.6,0.4-0.9,0.7c-0.2,0.3-0.4,0.6-0.5,1C509.7,229.8,509.6,230.2,509.6,230.6z"/>
	<path d="M520.3,227.7h-1.8v-1.9h1.8v-1.4c0-0.6,0.1-1.1,0.2-1.6s0.3-1,0.6-1.4c0.3-0.4,0.7-0.7,1.2-0.9s1.1-0.4,1.9-0.4
		c0.3,0,0.5,0,0.7,0s0.4,0.1,0.5,0.1l-0.2,2c-0.1,0-0.3-0.1-0.4-0.1s-0.3,0-0.5,0c-0.3,0-0.6,0.1-0.8,0.2c-0.2,0.1-0.4,0.3-0.5,0.5
		c-0.1,0.2-0.2,0.4-0.2,0.7s-0.1,0.5-0.1,0.7v1.6h2.2v1.9h-2.2v7.7h-2.4V227.7z"/>
	<path d="M537.9,234.2L537.9,234.2c-0.3,0.4-0.7,0.8-1.2,1.1c-0.5,0.3-1.1,0.4-1.8,0.4c-0.4,0-0.8-0.1-1.2-0.2
		c-0.4-0.1-0.8-0.3-1.2-0.5c-0.4-0.2-0.6-0.5-0.9-0.9c-0.2-0.4-0.4-0.9-0.4-1.4c0-0.7,0.2-1.3,0.6-1.7c0.4-0.4,0.9-0.8,1.6-1
		c0.6-0.2,1.3-0.4,2.1-0.5c0.8-0.1,1.5-0.1,2.3-0.1v-0.2c0-0.6-0.2-1-0.7-1.3s-1-0.4-1.5-0.4c-0.5,0-1,0.1-1.5,0.3
		c-0.5,0.2-0.9,0.5-1.2,0.8l-1.2-1.5c0.5-0.5,1.2-0.9,1.9-1.1c0.7-0.3,1.4-0.4,2.2-0.4c0.9,0,1.6,0.1,2.1,0.4c0.6,0.2,1,0.6,1.3,0.9
		c0.3,0.4,0.5,0.8,0.7,1.3c0.1,0.5,0.2,1,0.2,1.4v5.8h-2.2V234.2z M537.8,231h-0.5c-0.4,0-0.8,0-1.2,0c-0.4,0-0.8,0.1-1.2,0.2
		s-0.7,0.3-0.9,0.5c-0.2,0.2-0.4,0.5-0.4,0.9c0,0.2,0,0.4,0.1,0.6c0.1,0.2,0.2,0.3,0.4,0.4s0.3,0.2,0.5,0.2s0.4,0.1,0.6,0.1
		c0.8,0,1.5-0.2,1.9-0.7c0.4-0.4,0.6-1,0.6-1.8V231z"/>
	<path d="M542.9,225.8h2.3v1.6h0c0.3-0.6,0.6-1,1.1-1.4c0.5-0.3,1-0.5,1.7-0.5c0.1,0,0.2,0,0.3,0c0.1,0,0.2,0,0.3,0.1v2.2
		c-0.2,0-0.3-0.1-0.4-0.1c-0.1,0-0.2,0-0.3,0c-0.5,0-1,0.1-1.3,0.3c-0.3,0.2-0.6,0.4-0.8,0.7c-0.2,0.3-0.3,0.6-0.4,0.9
		c-0.1,0.3-0.1,0.5-0.1,0.7v5.1h-2.4V225.8z"/>
	<path d="M550.2,225.8h2.3v1.6h0c0.3-0.6,0.6-1,1.1-1.4c0.5-0.3,1-0.5,1.7-0.5c0.1,0,0.2,0,0.3,0c0.1,0,0.2,0,0.3,0.1v2.2
		c-0.2,0-0.3-0.1-0.4-0.1c-0.1,0-0.2,0-0.3,0c-0.5,0-1,0.1-1.3,0.3c-0.3,0.2-0.6,0.4-0.8,0.7c-0.2,0.3-0.3,0.6-0.4,0.9
		c-0.1,0.3-0.1,0.5-0.1,0.7v5.1h-2.4V225.8z"/>
	<path d="M557.2,222.5c0-0.4,0.1-0.7,0.4-1c0.3-0.3,0.6-0.4,1.1-0.4c0.4,0,0.8,0.1,1.1,0.4c0.3,0.3,0.5,0.6,0.5,1s-0.1,0.8-0.5,1
		c-0.3,0.3-0.7,0.4-1.1,0.4c-0.4,0-0.8-0.1-1.1-0.4C557.3,223.3,557.2,222.9,557.2,222.5z M557.5,225.8h2.4v9.6h-2.4V225.8z"/>
	<path d="M561.4,225.8h2.6l2.5,7h0l2.5-7h2.5l-3.8,9.6h-2.6L561.4,225.8z"/>
	<path d="M579,234.2L579,234.2c-0.3,0.4-0.7,0.8-1.2,1.1c-0.5,0.3-1.1,0.4-1.8,0.4c-0.4,0-0.8-0.1-1.2-0.2c-0.4-0.1-0.8-0.3-1.2-0.5
		c-0.4-0.2-0.6-0.5-0.9-0.9c-0.2-0.4-0.4-0.9-0.4-1.4c0-0.7,0.2-1.3,0.6-1.7c0.4-0.4,0.9-0.8,1.6-1c0.6-0.2,1.3-0.4,2.1-0.5
		c0.8-0.1,1.5-0.1,2.3-0.1v-0.2c0-0.6-0.2-1-0.7-1.3s-1-0.4-1.5-0.4c-0.5,0-1,0.1-1.5,0.3c-0.5,0.2-0.9,0.5-1.2,0.8l-1.2-1.5
		c0.5-0.5,1.2-0.9,1.9-1.1c0.7-0.3,1.4-0.4,2.2-0.4c0.9,0,1.6,0.1,2.1,0.4c0.6,0.2,1,0.6,1.3,0.9c0.3,0.4,0.5,0.8,0.7,1.3
		c0.1,0.5,0.2,1,0.2,1.4v5.8H579V234.2z M579,231h-0.5c-0.4,0-0.8,0-1.2,0c-0.4,0-0.8,0.1-1.2,0.2s-0.7,0.3-0.9,0.5
		c-0.2,0.2-0.4,0.5-0.4,0.9c0,0.2,0,0.4,0.1,0.6c0.1,0.2,0.2,0.3,0.4,0.4s0.3,0.2,0.5,0.2s0.4,0.1,0.6,0.1c0.8,0,1.5-0.2,1.9-0.7
		c0.4-0.4,0.6-1,0.6-1.8V231z"/>
	<path d="M584.1,220.3h2.4v15.1h-2.4V220.3z"/>
	<path d="M594.1,222.5c0-0.4,0.1-0.7,0.4-1c0.3-0.3,0.6-0.4,1.1-0.4c0.4,0,0.8,0.1,1.1,0.4c0.3,0.3,0.5,0.6,0.5,1s-0.1,0.8-0.5,1
		c-0.3,0.3-0.7,0.4-1.1,0.4c-0.4,0-0.8-0.1-1.1-0.4C594.3,223.3,594.1,222.9,594.1,222.5z M594.5,225.8h2.4v9.6h-2.4V225.8z"/>
	<path d="M599.8,225.8h2.3v1.5h0c0.2-0.5,0.6-0.9,1.1-1.3c0.5-0.4,1.1-0.5,1.9-0.5c0.6,0,1.2,0.1,1.6,0.3c0.4,0.2,0.8,0.5,1.1,0.9
		c0.3,0.4,0.5,0.8,0.6,1.2c0.1,0.5,0.2,0.9,0.2,1.4v6h-2.4v-5.3c0-0.3,0-0.6-0.1-0.9c0-0.3-0.1-0.6-0.3-0.8
		c-0.1-0.2-0.3-0.5-0.5-0.6c-0.2-0.2-0.5-0.2-0.9-0.2s-0.7,0.1-1,0.2s-0.5,0.4-0.7,0.6c-0.2,0.2-0.3,0.5-0.4,0.8
		c-0.1,0.3-0.1,0.6-0.1,1v5.3h-2.4V225.8z"/>
	<path d="M348.4,248.6c-0.4-0.5-0.9-0.9-1.5-1.1c-0.6-0.2-1.2-0.3-1.8-0.3c-0.7,0-1.4,0.1-2,0.4c-0.6,0.3-1.1,0.6-1.5,1.1
		c-0.4,0.5-0.8,1-1,1.6c-0.2,0.6-0.3,1.3-0.3,2c0,0.8,0.1,1.5,0.3,2.1c0.2,0.6,0.5,1.2,1,1.6c0.4,0.5,0.9,0.8,1.5,1.1s1.2,0.4,2,0.4
		c0.8,0,1.4-0.1,2-0.5c0.6-0.3,1.1-0.7,1.4-1.2l2,1.4c-0.6,0.8-1.4,1.4-2.3,1.8c-0.9,0.4-2,0.6-3.2,0.6c-1.1,0-2.1-0.2-3-0.5
		s-1.7-0.9-2.4-1.5c-0.7-0.7-1.2-1.4-1.6-2.4c-0.4-0.9-0.6-1.9-0.6-3c0-1.1,0.2-2.2,0.6-3.1c0.4-0.9,0.9-1.7,1.6-2.3
		s1.5-1.1,2.4-1.5c0.9-0.3,1.9-0.5,3-0.5c0.5,0,0.9,0,1.4,0.1c0.5,0.1,1,0.2,1.4,0.4c0.5,0.2,0.9,0.4,1.3,0.7s0.7,0.6,1,1
		L348.4,248.6z"/>
	<path d="M352.1,245.2h2.5v14.2h-2.5V245.2z"/>
	<path d="M368,248.6c-0.4-0.5-0.9-0.9-1.5-1.1c-0.6-0.2-1.2-0.3-1.8-0.3c-0.7,0-1.4,0.1-2,0.4c-0.6,0.3-1.1,0.6-1.6,1.1
		c-0.4,0.5-0.8,1-1,1.6c-0.2,0.6-0.3,1.3-0.3,2c0,0.8,0.1,1.5,0.3,2.1s0.5,1.2,1,1.6c0.4,0.5,0.9,0.8,1.5,1.1c0.6,0.3,1.2,0.4,2,0.4
		c0.8,0,1.4-0.1,2-0.5c0.6-0.3,1.1-0.7,1.4-1.2l2,1.4c-0.6,0.8-1.4,1.4-2.3,1.8c-0.9,0.4-2,0.6-3.2,0.6c-1.1,0-2.1-0.2-3-0.5
		c-0.9-0.4-1.7-0.9-2.4-1.5s-1.2-1.4-1.6-2.4c-0.4-0.9-0.6-1.9-0.6-3c0-1.1,0.2-2.2,0.6-3.1c0.4-0.9,0.9-1.7,1.6-2.3
		s1.5-1.1,2.4-1.5c0.9-0.3,1.9-0.5,3-0.5c0.5,0,0.9,0,1.4,0.1c0.5,0.1,1,0.2,1.4,0.4c0.5,0.2,0.9,0.4,1.3,0.7c0.4,0.3,0.7,0.6,1,1
		L368,248.6z"/>
	<path d="M383,254.2c0,0.9-0.1,1.6-0.4,2.3c-0.3,0.7-0.7,1.3-1.2,1.8s-1.1,0.9-1.8,1.1c-0.7,0.3-1.4,0.4-2.3,0.4
		c-0.8,0-1.6-0.1-2.3-0.4c-0.7-0.3-1.3-0.6-1.8-1.1c-0.5-0.5-0.9-1.1-1.2-1.8c-0.3-0.7-0.4-1.5-0.4-2.3v-9h2.5v8.9
		c0,0.4,0.1,0.8,0.2,1.2s0.3,0.8,0.5,1.1c0.2,0.3,0.6,0.6,1,0.8c0.4,0.2,0.9,0.3,1.5,0.3c0.6,0,1.1-0.1,1.5-0.3
		c0.4-0.2,0.7-0.5,1-0.8c0.2-0.3,0.4-0.7,0.5-1.1s0.2-0.8,0.2-1.2v-8.9h2.5V254.2z"/>
	<path d="M390.5,246.5c0-0.4,0.1-0.7,0.4-1c0.3-0.3,0.6-0.4,1.1-0.4c0.4,0,0.8,0.1,1.1,0.4c0.3,0.3,0.5,0.6,0.5,1s-0.1,0.8-0.5,1
		c-0.3,0.3-0.7,0.4-1.1,0.4c-0.4,0-0.8-0.1-1.1-0.4C390.7,247.3,390.5,246.9,390.5,246.5z M390.9,249.8h2.4v9.6h-2.4V249.8z"/>
	<path d="M401.5,252.4c-0.2-0.3-0.5-0.5-0.9-0.7c-0.4-0.2-0.8-0.3-1.2-0.3c-0.4,0-0.7,0.1-1.1,0.2c-0.3,0.2-0.5,0.4-0.5,0.8
		c0,0.4,0.2,0.6,0.5,0.8s0.9,0.3,1.5,0.5c0.4,0.1,0.7,0.2,1.1,0.3c0.4,0.1,0.7,0.3,1,0.5c0.3,0.2,0.5,0.5,0.7,0.8s0.3,0.7,0.3,1.2
		c0,0.6-0.1,1.1-0.3,1.5c-0.2,0.4-0.5,0.7-0.9,1c-0.4,0.3-0.8,0.4-1.3,0.5c-0.5,0.1-1,0.2-1.5,0.2c-0.7,0-1.5-0.1-2.2-0.4
		c-0.7-0.3-1.3-0.7-1.8-1.2l1.6-1.5c0.3,0.3,0.6,0.6,1,0.9s0.9,0.3,1.4,0.3c0.2,0,0.4,0,0.5-0.1s0.3-0.1,0.5-0.2
		c0.2-0.1,0.3-0.2,0.4-0.4c0.1-0.1,0.1-0.3,0.1-0.5c0-0.4-0.2-0.7-0.5-0.9c-0.4-0.2-0.9-0.3-1.7-0.5c-0.4-0.1-0.7-0.2-1-0.3
		c-0.3-0.1-0.6-0.3-0.9-0.5c-0.3-0.2-0.5-0.5-0.6-0.8c-0.2-0.3-0.2-0.7-0.2-1.1c0-0.5,0.1-1,0.3-1.4c0.2-0.4,0.5-0.7,0.9-0.9
		s0.8-0.4,1.2-0.6c0.5-0.1,0.9-0.2,1.4-0.2c0.7,0,1.4,0.1,2,0.4c0.7,0.2,1.2,0.6,1.6,1.1L401.5,252.4z"/>
	<path d="M410,257.2l5.5-5.4c0.4-0.4,0.8-0.9,1-1.3c0.3-0.4,0.4-0.9,0.4-1.5c0-0.7-0.2-1.2-0.7-1.6c-0.4-0.4-1-0.6-1.6-0.6
		c-0.7,0-1.2,0.2-1.6,0.7s-0.7,1-0.8,1.7l-2.3-0.4c0.1-0.6,0.2-1.1,0.5-1.6c0.3-0.5,0.6-0.9,1-1.3c0.4-0.4,0.9-0.6,1.5-0.9
		c0.6-0.2,1.2-0.3,1.8-0.3c0.6,0,1.2,0.1,1.8,0.3c0.6,0.2,1.1,0.4,1.5,0.8c0.4,0.4,0.8,0.8,1,1.3c0.3,0.5,0.4,1.1,0.4,1.8
		c0,0.5-0.1,0.9-0.2,1.3c-0.1,0.4-0.3,0.8-0.5,1.1c-0.2,0.3-0.4,0.7-0.7,1c-0.3,0.3-0.6,0.6-0.9,0.9l-4.1,3.9h6.4v2.2H410V257.2z"/>
	<path d="M424.6,249.8v1.3h0.1c0.1-0.2,0.3-0.4,0.5-0.6c0.2-0.2,0.4-0.4,0.7-0.5c0.3-0.2,0.6-0.3,0.9-0.4s0.8-0.1,1.2-0.1
		c0.7,0,1.3,0.1,1.9,0.4c0.6,0.3,1.1,0.6,1.5,1.1c0.4,0.5,0.7,1,1,1.6c0.2,0.6,0.3,1.3,0.3,2s-0.1,1.4-0.3,2s-0.5,1.2-0.9,1.6
		c-0.4,0.5-0.9,0.8-1.5,1.1c-0.6,0.3-1.2,0.4-2,0.4c-0.7,0-1.3-0.1-1.9-0.4c-0.6-0.3-1-0.7-1.3-1.1h0v6.1h-2.4v-14.4H424.6z
		 M430.2,254.6c0-0.4-0.1-0.7-0.2-1.1c-0.1-0.4-0.3-0.7-0.5-1c-0.2-0.3-0.5-0.5-0.9-0.7c-0.3-0.2-0.8-0.3-1.2-0.3
		c-0.4,0-0.8,0.1-1.2,0.3c-0.3,0.2-0.6,0.4-0.9,0.7c-0.2,0.3-0.4,0.6-0.6,1c-0.1,0.4-0.2,0.7-0.2,1.1c0,0.4,0.1,0.7,0.2,1.1
		c0.1,0.4,0.3,0.7,0.6,1c0.2,0.3,0.5,0.5,0.9,0.7c0.3,0.2,0.7,0.3,1.2,0.3c0.5,0,0.9-0.1,1.2-0.3c0.3-0.2,0.6-0.4,0.9-0.7
		c0.2-0.3,0.4-0.6,0.5-1C430.1,255.3,430.2,254.9,430.2,254.6z"/>
	<path d="M446.4,249.5c0.6,0,1.2,0.1,1.6,0.3c0.4,0.2,0.8,0.5,1.1,0.9c0.3,0.4,0.5,0.8,0.6,1.2c0.1,0.5,0.2,0.9,0.2,1.4v6h-2.4v-5.3
		c0-0.3,0-0.6-0.1-0.9c0-0.3-0.1-0.6-0.3-0.8c-0.1-0.2-0.3-0.5-0.5-0.6c-0.2-0.2-0.5-0.2-0.9-0.2c-0.4,0-0.7,0.1-1,0.2
		c-0.3,0.2-0.5,0.4-0.7,0.6c-0.2,0.3-0.3,0.5-0.4,0.9c-0.1,0.3-0.1,0.6-0.1,0.9v5.2h-2.4v-5.8c0-0.6-0.1-1.1-0.4-1.5
		c-0.3-0.4-0.7-0.6-1.3-0.6c-0.4,0-0.7,0.1-0.9,0.2s-0.5,0.4-0.7,0.6c-0.2,0.2-0.3,0.5-0.4,0.8c-0.1,0.3-0.1,0.6-0.1,1v5.3h-2.4
		v-9.6h2.3v1.5h0c0.1-0.2,0.2-0.5,0.4-0.7c0.2-0.2,0.4-0.4,0.6-0.6c0.2-0.2,0.5-0.3,0.8-0.4c0.3-0.1,0.7-0.1,1.1-0.1
		c0.7,0,1.4,0.2,1.9,0.5c0.5,0.3,0.9,0.8,1.1,1.3c0.3-0.6,0.7-1,1.3-1.4C445.1,249.7,445.7,249.5,446.4,249.5z"/>
	<path d="M452.3,258c0-0.4,0.2-0.8,0.5-1.1s0.7-0.5,1.1-0.5c0.4,0,0.8,0.1,1.1,0.4c0.3,0.3,0.5,0.7,0.5,1.1s-0.2,0.8-0.5,1.1
		c-0.3,0.3-0.7,0.5-1.1,0.5c-0.2,0-0.4,0-0.6-0.1s-0.4-0.2-0.5-0.3c-0.1-0.1-0.3-0.3-0.4-0.5S452.3,258.2,452.3,258z"/>
	<path d="M338,291.2l5.5-5.4c0.4-0.4,0.8-0.9,1-1.3c0.3-0.4,0.4-0.9,0.4-1.5c0-0.7-0.2-1.2-0.6-1.6c-0.4-0.4-1-0.6-1.6-0.6
		c-0.7,0-1.2,0.2-1.6,0.7s-0.7,1-0.8,1.7l-2.3-0.4c0.1-0.6,0.2-1.1,0.5-1.6c0.3-0.5,0.6-0.9,1-1.3c0.4-0.4,0.9-0.6,1.5-0.9
		c0.6-0.2,1.2-0.3,1.8-0.3c0.6,0,1.2,0.1,1.8,0.3c0.6,0.2,1.1,0.4,1.5,0.8c0.4,0.4,0.8,0.8,1,1.3s0.4,1.1,0.4,1.8
		c0,0.5-0.1,0.9-0.2,1.3s-0.3,0.8-0.5,1.1c-0.2,0.3-0.4,0.7-0.7,1c-0.3,0.3-0.6,0.6-0.9,0.9l-4.1,3.9h6.4v2.2H338V291.2z"/>
	<path d="M350.3,283.8h2.3v1.5h0c0.2-0.5,0.6-0.9,1.1-1.3c0.5-0.4,1.2-0.5,1.9-0.5c0.6,0,1.2,0.1,1.6,0.3c0.4,0.2,0.8,0.5,1.1,0.9
		c0.3,0.4,0.5,0.8,0.6,1.2s0.2,0.9,0.2,1.4v6h-2.4v-5.3c0-0.3,0-0.6-0.1-0.9c0-0.3-0.1-0.6-0.3-0.8c-0.1-0.2-0.3-0.5-0.6-0.6
		c-0.2-0.2-0.5-0.2-0.9-0.2s-0.7,0.1-1,0.2s-0.5,0.4-0.7,0.6c-0.2,0.2-0.3,0.5-0.4,0.8c-0.1,0.3-0.1,0.6-0.1,1v5.3h-2.4V283.8z"/>
	<path d="M371.7,293.4h-2.3V292h0c-0.3,0.6-0.8,1-1.4,1.3c-0.6,0.3-1.2,0.4-1.9,0.4c-0.7,0-1.4-0.1-2-0.4c-0.6-0.3-1.1-0.6-1.5-1.1
		c-0.4-0.5-0.7-1-0.9-1.6s-0.3-1.3-0.3-2s0.1-1.4,0.3-2s0.5-1.1,1-1.6s0.9-0.8,1.5-1.1c0.6-0.3,1.2-0.4,1.9-0.4c0.4,0,0.8,0,1.2,0.1
		s0.7,0.2,0.9,0.4c0.3,0.1,0.5,0.3,0.7,0.5s0.3,0.3,0.5,0.5h0.1v-6.7h2.4V293.4z M363.8,288.6c0,0.4,0.1,0.7,0.2,1.1
		c0.1,0.4,0.3,0.7,0.5,1c0.2,0.3,0.5,0.5,0.9,0.7c0.3,0.2,0.8,0.3,1.2,0.3c0.4,0,0.8-0.1,1.2-0.3c0.3-0.2,0.6-0.4,0.9-0.7
		c0.2-0.3,0.4-0.6,0.6-1c0.1-0.4,0.2-0.7,0.2-1.1c0-0.4-0.1-0.7-0.2-1.1c-0.1-0.4-0.3-0.7-0.6-1c-0.2-0.3-0.5-0.5-0.9-0.7
		c-0.3-0.2-0.7-0.3-1.2-0.3c-0.5,0-0.9,0.1-1.2,0.3c-0.3,0.2-0.6,0.4-0.9,0.7c-0.2,0.3-0.4,0.6-0.5,1
		C363.8,287.8,363.8,288.2,363.8,288.6z"/>
	<path d="M379,288.6c0-0.8,0.1-1.5,0.4-2.1c0.3-0.6,0.6-1.1,1.1-1.6s1-0.8,1.7-1c0.6-0.2,1.3-0.4,2-0.4c0.7,0,1.4,0.1,2,0.4
		c0.6,0.2,1.2,0.6,1.7,1s0.8,1,1.1,1.6c0.3,0.6,0.4,1.3,0.4,2.1c0,0.8-0.1,1.5-0.4,2.1c-0.3,0.6-0.6,1.2-1.1,1.6s-1,0.8-1.7,1
		c-0.6,0.3-1.3,0.4-2,0.4c-0.7,0-1.4-0.1-2-0.4c-0.6-0.3-1.2-0.6-1.7-1s-0.8-1-1.1-1.6C379.2,290,379,289.3,379,288.6z M381.5,288.6
		c0,0.4,0.1,0.7,0.2,1.1c0.1,0.4,0.3,0.7,0.5,1c0.2,0.3,0.5,0.5,0.9,0.7c0.3,0.2,0.8,0.3,1.2,0.3c0.5,0,0.9-0.1,1.2-0.3
		c0.3-0.2,0.6-0.4,0.9-0.7c0.2-0.3,0.4-0.6,0.5-1c0.1-0.4,0.2-0.7,0.2-1.1s-0.1-0.7-0.2-1.1c-0.1-0.4-0.3-0.7-0.5-1
		c-0.2-0.3-0.5-0.5-0.9-0.7c-0.3-0.2-0.8-0.3-1.2-0.3c-0.5,0-0.9,0.1-1.2,0.3c-0.3,0.2-0.6,0.4-0.9,0.7c-0.2,0.3-0.4,0.6-0.5,1
		C381.5,287.8,381.5,288.2,381.5,288.6z"/>
	<path d="M391.8,283.8h2.3v1.5h0c0.2-0.5,0.6-0.9,1.1-1.3c0.5-0.4,1.1-0.5,1.9-0.5c0.6,0,1.2,0.1,1.6,0.3c0.4,0.2,0.8,0.5,1.1,0.9
		c0.3,0.4,0.5,0.8,0.6,1.2c0.1,0.5,0.2,0.9,0.2,1.4v6h-2.4v-5.3c0-0.3,0-0.6-0.1-0.9c0-0.3-0.1-0.6-0.3-0.8
		c-0.1-0.2-0.3-0.5-0.5-0.6c-0.2-0.2-0.5-0.2-0.9-0.2s-0.7,0.1-1,0.2s-0.5,0.4-0.7,0.6c-0.2,0.2-0.3,0.5-0.4,0.8
		c-0.1,0.3-0.1,0.6-0.1,1v5.3h-2.4V283.8z"/>
	<path d="M408.5,278.3h2.4v15.1h-2.4V278.3z"/>
	<path d="M413.5,280.5c0-0.4,0.1-0.7,0.4-1c0.3-0.3,0.6-0.4,1.1-0.4c0.4,0,0.8,0.1,1.1,0.4c0.3,0.3,0.5,0.6,0.5,1s-0.1,0.8-0.5,1
		c-0.3,0.3-0.7,0.4-1.1,0.4c-0.4,0-0.8-0.1-1.1-0.4C413.7,281.3,413.5,280.9,413.5,280.5z M413.8,283.8h2.4v9.6h-2.4V283.8z"/>
	<path d="M424.4,286.4c-0.2-0.3-0.5-0.5-0.9-0.7c-0.4-0.2-0.8-0.3-1.2-0.3c-0.4,0-0.7,0.1-1.1,0.2c-0.3,0.2-0.5,0.4-0.5,0.8
		c0,0.4,0.2,0.6,0.5,0.8s0.9,0.3,1.5,0.5c0.4,0.1,0.7,0.2,1.1,0.3c0.4,0.1,0.7,0.3,1,0.5c0.3,0.2,0.5,0.5,0.7,0.8s0.3,0.7,0.3,1.2
		c0,0.6-0.1,1.1-0.3,1.5c-0.2,0.4-0.5,0.7-0.9,1c-0.4,0.3-0.8,0.4-1.3,0.5c-0.5,0.1-1,0.2-1.5,0.2c-0.7,0-1.5-0.1-2.2-0.4
		c-0.7-0.3-1.3-0.7-1.8-1.2l1.6-1.5c0.3,0.3,0.6,0.6,1,0.9s0.9,0.3,1.4,0.3c0.2,0,0.4,0,0.5-0.1s0.3-0.1,0.5-0.2
		c0.2-0.1,0.3-0.2,0.4-0.4c0.1-0.1,0.1-0.3,0.1-0.5c0-0.4-0.2-0.7-0.5-0.9c-0.4-0.2-0.9-0.3-1.7-0.5c-0.4-0.1-0.7-0.2-1-0.3
		c-0.3-0.1-0.6-0.3-0.9-0.5c-0.3-0.2-0.5-0.5-0.6-0.8c-0.2-0.3-0.2-0.7-0.2-1.1c0-0.5,0.1-1,0.3-1.4c0.2-0.4,0.5-0.7,0.9-0.9
		s0.8-0.4,1.2-0.6c0.5-0.1,0.9-0.2,1.4-0.2c0.7,0,1.4,0.1,2,0.4c0.7,0.2,1.2,0.6,1.6,1.1L424.4,286.4z"/>
	<path d="M426.7,285.7v-1.9h1.7V281h2.4v2.8h2.4v1.9h-2.4v4.5c0,0.4,0.1,0.8,0.2,1.1c0.2,0.3,0.5,0.4,1,0.4c0.2,0,0.3,0,0.5,0
		c0.2,0,0.4-0.1,0.5-0.1l0.1,1.9c-0.2,0.1-0.5,0.1-0.8,0.2c-0.3,0-0.6,0.1-0.8,0.1c-0.6,0-1.2-0.1-1.6-0.3c-0.4-0.2-0.7-0.4-1-0.7
		c-0.2-0.3-0.4-0.7-0.5-1.1c-0.1-0.4-0.1-0.8-0.1-1.3v-4.5H426.7z"/>
	<path d="M434.8,285.2c0-0.4,0.2-0.8,0.5-1.1s0.7-0.5,1.1-0.5c0.4,0,0.8,0.1,1.1,0.4s0.5,0.7,0.5,1.1c0,0.4-0.2,0.8-0.5,1.1
		c-0.3,0.3-0.7,0.5-1.1,0.5c-0.2,0-0.4,0-0.6-0.1c-0.2-0.1-0.4-0.2-0.5-0.3c-0.1-0.1-0.3-0.3-0.3-0.5
		C434.8,285.7,434.8,285.5,434.8,285.2z M434.8,292c0-0.4,0.2-0.8,0.5-1.1s0.7-0.5,1.1-0.5c0.4,0,0.8,0.1,1.1,0.4
		c0.3,0.3,0.5,0.7,0.5,1.1s-0.2,0.8-0.5,1.1s-0.7,0.5-1.1,0.5c-0.2,0-0.4,0-0.6-0.1s-0.4-0.2-0.5-0.3s-0.3-0.3-0.3-0.5
		C434.8,292.4,434.8,292.2,434.8,292z"/>
	<path d="M344,316.2L344,316.2c-0.3,0.4-0.7,0.8-1.2,1s-1.1,0.4-1.8,0.4c-0.4,0-0.8,0-1.2-0.2c-0.4-0.1-0.8-0.3-1.2-0.5
		c-0.4-0.2-0.6-0.5-0.9-0.9s-0.4-0.8-0.4-1.4c0-0.7,0.2-1.3,0.6-1.7c0.4-0.4,0.9-0.8,1.6-1c0.6-0.2,1.4-0.4,2.1-0.5
		c0.8-0.1,1.5-0.1,2.3-0.1v-0.2c0-0.6-0.2-1-0.6-1.3c-0.4-0.3-1-0.4-1.5-0.4c-0.5,0-1,0.1-1.5,0.3c-0.5,0.2-0.9,0.5-1.2,0.8
		l-1.2-1.5c0.5-0.5,1.2-0.9,1.9-1.1c0.7-0.3,1.4-0.4,2.2-0.4c0.9,0,1.6,0.1,2.1,0.4c0.6,0.2,1,0.6,1.3,0.9c0.3,0.4,0.5,0.8,0.7,1.3
		c0.1,0.5,0.2,1,0.2,1.4v5.8H344V316.2z M344,313h-0.5c-0.4,0-0.8,0-1.2,0c-0.4,0-0.8,0.1-1.2,0.2c-0.4,0.1-0.7,0.3-0.9,0.5
		c-0.2,0.2-0.4,0.5-0.4,0.8c0,0.2,0,0.4,0.1,0.6s0.2,0.3,0.4,0.4c0.2,0.1,0.3,0.2,0.5,0.2c0.2,0,0.4,0.1,0.6,0.1
		c0.8,0,1.5-0.2,1.9-0.7c0.4-0.4,0.6-1,0.6-1.8V313z"/>
	<path d="M351.4,307.8v1.3h0.1c0.1-0.2,0.3-0.4,0.5-0.6c0.2-0.2,0.4-0.4,0.7-0.5c0.3-0.2,0.6-0.3,1-0.4c0.4-0.1,0.8-0.1,1.2-0.1
		c0.7,0,1.3,0.1,1.9,0.4c0.6,0.3,1.1,0.6,1.5,1.1c0.4,0.5,0.7,1,1,1.6c0.2,0.6,0.3,1.3,0.3,2c0,0.7-0.1,1.4-0.3,2
		c-0.2,0.6-0.5,1.2-0.9,1.6c-0.4,0.5-0.9,0.8-1.5,1.1s-1.2,0.4-2,0.4c-0.7,0-1.3-0.1-1.9-0.4c-0.6-0.3-1-0.7-1.3-1.1h0v6.1h-2.4
		v-14.4H351.4z M357,312.6c0-0.4-0.1-0.7-0.2-1.1c-0.1-0.4-0.3-0.7-0.5-1c-0.2-0.3-0.5-0.5-0.9-0.7c-0.3-0.2-0.8-0.3-1.2-0.3
		c-0.4,0-0.8,0.1-1.2,0.3c-0.3,0.2-0.6,0.4-0.9,0.7c-0.2,0.3-0.4,0.6-0.6,1c-0.1,0.4-0.2,0.7-0.2,1.1c0,0.4,0.1,0.7,0.2,1.1
		c0.1,0.4,0.3,0.7,0.6,1c0.2,0.3,0.5,0.5,0.9,0.7c0.3,0.2,0.7,0.3,1.2,0.3c0.5,0,0.9-0.1,1.2-0.3s0.6-0.4,0.9-0.7s0.4-0.6,0.5-1
		S357,312.9,357,312.6z"/>
	<path d="M364,307.8v1.3h0.1c0.1-0.2,0.3-0.4,0.5-0.6c0.2-0.2,0.4-0.4,0.7-0.5c0.3-0.2,0.6-0.3,1-0.4c0.4-0.1,0.8-0.1,1.2-0.1
		c0.7,0,1.3,0.1,1.9,0.4c0.6,0.3,1.1,0.6,1.5,1.1c0.4,0.5,0.7,1,1,1.6c0.2,0.6,0.3,1.3,0.3,2c0,0.7-0.1,1.4-0.3,2
		c-0.2,0.6-0.5,1.2-0.9,1.6c-0.4,0.5-0.9,0.8-1.5,1.1s-1.2,0.4-2,0.4c-0.7,0-1.3-0.1-1.9-0.4c-0.6-0.3-1-0.7-1.3-1.1h0v6.1h-2.4
		v-14.4H364z M369.6,312.6c0-0.4-0.1-0.7-0.2-1.1c-0.1-0.4-0.3-0.7-0.5-1c-0.2-0.3-0.5-0.5-0.9-0.7c-0.3-0.2-0.8-0.3-1.2-0.3
		c-0.4,0-0.8,0.1-1.2,0.3c-0.3,0.2-0.6,0.4-0.9,0.7c-0.2,0.3-0.4,0.6-0.6,1c-0.1,0.4-0.2,0.7-0.2,1.1c0,0.4,0.1,0.7,0.2,1.1
		c0.1,0.4,0.3,0.7,0.6,1c0.2,0.3,0.5,0.5,0.9,0.7c0.3,0.2,0.7,0.3,1.2,0.3c0.5,0,0.9-0.1,1.2-0.3s0.6-0.4,0.9-0.7s0.4-0.6,0.5-1
		S369.6,312.9,369.6,312.6z"/>
	<path d="M374.4,307.8h2.3v1.6h0c0.3-0.6,0.6-1,1.1-1.4c0.5-0.3,1-0.5,1.7-0.5c0.1,0,0.2,0,0.3,0c0.1,0,0.2,0,0.3,0.1v2.2
		c-0.2,0-0.3-0.1-0.4-0.1c-0.1,0-0.2,0-0.3,0c-0.5,0-1,0.1-1.3,0.3c-0.3,0.2-0.6,0.4-0.8,0.7c-0.2,0.3-0.3,0.6-0.4,0.9
		c-0.1,0.3-0.1,0.5-0.1,0.7v5.1h-2.4V307.8z"/>
	<path d="M380.8,312.6c0-0.8,0.1-1.5,0.4-2.1c0.3-0.6,0.6-1.1,1.1-1.6s1-0.8,1.7-1c0.6-0.2,1.3-0.4,2-0.4c0.7,0,1.4,0.1,2,0.4
		c0.6,0.2,1.2,0.6,1.7,1s0.8,1,1.1,1.6c0.3,0.6,0.4,1.3,0.4,2.1c0,0.8-0.1,1.5-0.4,2.1s-0.6,1.2-1.1,1.6c-0.5,0.4-1,0.8-1.7,1.1
		c-0.6,0.3-1.3,0.4-2,0.4c-0.7,0-1.4-0.1-2-0.4c-0.6-0.3-1.2-0.6-1.7-1.1c-0.5-0.4-0.8-1-1.1-1.6S380.8,313.3,380.8,312.6z
		 M383.2,312.6c0,0.4,0.1,0.7,0.2,1.1s0.3,0.7,0.5,1s0.5,0.5,0.9,0.7c0.3,0.2,0.8,0.3,1.2,0.3c0.5,0,0.9-0.1,1.2-0.3
		s0.6-0.4,0.9-0.7c0.2-0.3,0.4-0.6,0.5-1s0.2-0.7,0.2-1.1s-0.1-0.7-0.2-1.1c-0.1-0.4-0.3-0.7-0.5-1c-0.2-0.3-0.5-0.5-0.9-0.7
		c-0.3-0.2-0.8-0.3-1.2-0.3c-0.5,0-0.9,0.1-1.2,0.3c-0.3,0.2-0.6,0.4-0.9,0.7c-0.2,0.3-0.4,0.6-0.5,1
		C383.3,311.8,383.2,312.2,383.2,312.6z"/>
	<path d="M395.8,312.3l-3.5-4.5h2.9l2.1,3l2.1-3h2.8l-3.4,4.5l3.9,5.1h-2.9l-2.5-3.5l-2.5,3.5h-2.8L395.8,312.3z"/>
	<path d="M403.8,304.5c0-0.4,0.1-0.7,0.4-1c0.3-0.3,0.6-0.4,1.1-0.4c0.4,0,0.8,0.1,1.1,0.4c0.3,0.3,0.5,0.6,0.5,1s-0.1,0.8-0.5,1
		c-0.3,0.3-0.7,0.4-1.1,0.4c-0.4,0-0.8-0.1-1.1-0.4C403.9,305.3,403.8,304.9,403.8,304.5z M404.1,307.8h2.4v9.6h-2.4V307.8z"/>
	<path d="M420.9,307.5c0.6,0,1.2,0.1,1.6,0.3c0.4,0.2,0.8,0.5,1.1,0.9c0.3,0.4,0.5,0.8,0.6,1.2c0.1,0.5,0.2,0.9,0.2,1.4v6H422v-5.3
		c0-0.3,0-0.6-0.1-0.9c0-0.3-0.1-0.6-0.3-0.8c-0.1-0.2-0.3-0.5-0.5-0.6c-0.2-0.2-0.5-0.2-0.9-0.2c-0.4,0-0.7,0.1-1,0.2
		c-0.3,0.2-0.5,0.4-0.7,0.6c-0.2,0.3-0.3,0.5-0.4,0.9c-0.1,0.3-0.1,0.6-0.1,0.9v5.2h-2.4v-5.8c0-0.6-0.1-1.1-0.4-1.5
		c-0.3-0.4-0.7-0.6-1.3-0.6c-0.4,0-0.7,0.1-0.9,0.2s-0.5,0.4-0.7,0.6c-0.2,0.2-0.3,0.5-0.4,0.8c-0.1,0.3-0.1,0.6-0.1,1v5.3h-2.4
		v-9.6h2.3v1.5h0c0.1-0.2,0.2-0.5,0.4-0.7c0.2-0.2,0.4-0.4,0.6-0.6c0.2-0.2,0.5-0.3,0.8-0.4c0.3-0.1,0.7-0.1,1.1-0.1
		c0.7,0,1.4,0.2,1.9,0.5c0.5,0.3,0.9,0.8,1.1,1.3c0.3-0.6,0.7-1,1.3-1.4C419.5,307.7,420.2,307.5,420.9,307.5z"/>
	<path d="M433.2,316.2L433.2,316.2c-0.3,0.4-0.7,0.8-1.2,1s-1.1,0.4-1.8,0.4c-0.4,0-0.8,0-1.2-0.2c-0.4-0.1-0.8-0.3-1.2-0.5
		c-0.4-0.2-0.6-0.5-0.9-0.9c-0.2-0.4-0.4-0.8-0.4-1.4c0-0.7,0.2-1.3,0.6-1.7c0.4-0.4,0.9-0.8,1.6-1c0.6-0.2,1.3-0.4,2.1-0.5
		c0.8-0.1,1.5-0.1,2.3-0.1v-0.2c0-0.6-0.2-1-0.7-1.3s-1-0.4-1.5-0.4c-0.5,0-1,0.1-1.5,0.3c-0.5,0.2-0.9,0.5-1.2,0.8l-1.2-1.5
		c0.5-0.5,1.2-0.9,1.9-1.1c0.7-0.3,1.4-0.4,2.2-0.4c0.9,0,1.6,0.1,2.1,0.4c0.6,0.2,1,0.6,1.3,0.9c0.3,0.4,0.5,0.8,0.7,1.3
		c0.1,0.5,0.2,1,0.2,1.4v5.8h-2.2V316.2z M433.1,313h-0.5c-0.4,0-0.8,0-1.2,0c-0.4,0-0.8,0.1-1.2,0.2c-0.4,0.1-0.7,0.3-0.9,0.5
		c-0.2,0.2-0.4,0.5-0.4,0.8c0,0.2,0,0.4,0.1,0.6c0.1,0.2,0.2,0.3,0.4,0.4s0.3,0.2,0.5,0.2s0.4,0.1,0.6,0.1c0.8,0,1.5-0.2,1.9-0.7
		c0.4-0.4,0.6-1,0.6-1.8V313z"/>
	<path d="M436.6,309.7v-1.9h1.7V305h2.4v2.8h2.4v1.9h-2.4v4.5c0,0.4,0.1,0.8,0.2,1.1s0.5,0.4,1,0.4c0.2,0,0.3,0,0.5,0
		s0.4-0.1,0.5-0.2l0.1,1.9c-0.2,0.1-0.5,0.1-0.8,0.2c-0.3,0-0.6,0.1-0.8,0.1c-0.6,0-1.2-0.1-1.6-0.3c-0.4-0.2-0.7-0.4-1-0.7
		s-0.4-0.7-0.5-1.1c-0.1-0.4-0.1-0.8-0.1-1.3v-4.5H436.6z"/>
	<path d="M454,312.7c0,0.1,0,0.2,0,0.3c0,0.1,0,0.2,0,0.3h-7.3c0,0.3,0.1,0.7,0.3,1s0.4,0.5,0.6,0.7c0.3,0.2,0.5,0.4,0.9,0.5
		c0.3,0.1,0.7,0.2,1,0.2c0.6,0,1.1-0.1,1.5-0.3c0.4-0.2,0.8-0.5,1-0.9l1.6,1.3c-0.9,1.3-2.3,1.9-4.1,1.9c-0.7,0-1.4-0.1-2.1-0.4
		c-0.6-0.2-1.2-0.6-1.6-1s-0.8-1-1.1-1.6c-0.3-0.6-0.4-1.3-0.4-2.1c0-0.8,0.1-1.5,0.4-2.1c0.3-0.6,0.6-1.2,1.1-1.6
		c0.5-0.4,1-0.8,1.6-1s1.3-0.4,2-0.4c0.7,0,1.3,0.1,1.8,0.3c0.6,0.2,1.1,0.5,1.5,1c0.4,0.4,0.7,1,1,1.6
		C453.9,311.1,454,311.9,454,312.7z M451.6,311.6c0-0.3,0-0.6-0.1-0.9c-0.1-0.3-0.2-0.5-0.4-0.7c-0.2-0.2-0.4-0.4-0.7-0.5
		c-0.3-0.1-0.6-0.2-1-0.2c-0.7,0-1.3,0.2-1.8,0.6c-0.5,0.4-0.8,1-0.8,1.7H451.6z"/>
	<path d="M459.9,309.7v-1.9h1.7V305h2.4v2.8h2.4v1.9H464v4.5c0,0.4,0.1,0.8,0.2,1.1s0.5,0.4,1,0.4c0.2,0,0.3,0,0.5,0
		s0.4-0.1,0.5-0.2l0.1,1.9c-0.2,0.1-0.5,0.1-0.8,0.2c-0.3,0-0.6,0.1-0.8,0.1c-0.6,0-1.2-0.1-1.6-0.3c-0.4-0.2-0.7-0.4-1-0.7
		s-0.4-0.7-0.5-1.1c-0.1-0.4-0.1-0.8-0.1-1.3v-4.5H459.9z"/>
	<path d="M467.8,304.5c0-0.4,0.1-0.7,0.4-1c0.3-0.3,0.6-0.4,1.1-0.4c0.4,0,0.8,0.1,1.1,0.4c0.3,0.3,0.5,0.6,0.5,1s-0.1,0.8-0.5,1
		c-0.3,0.3-0.7,0.4-1.1,0.4c-0.4,0-0.8-0.1-1.1-0.4C468,305.3,467.8,304.9,467.8,304.5z M468.1,307.8h2.4v9.6h-2.4V307.8z"/>
	<path d="M484.9,307.5c0.6,0,1.2,0.1,1.6,0.3c0.4,0.2,0.8,0.5,1.1,0.9c0.3,0.4,0.5,0.8,0.6,1.2c0.1,0.5,0.2,0.9,0.2,1.4v6h-2.4v-5.3
		c0-0.3,0-0.6-0.1-0.9c0-0.3-0.1-0.6-0.3-0.8c-0.1-0.2-0.3-0.5-0.5-0.6c-0.2-0.2-0.5-0.2-0.9-0.2c-0.4,0-0.7,0.1-1,0.2
		c-0.3,0.2-0.5,0.4-0.7,0.6c-0.2,0.3-0.3,0.5-0.4,0.9c-0.1,0.3-0.1,0.6-0.1,0.9v5.2h-2.4v-5.8c0-0.6-0.1-1.1-0.4-1.5
		c-0.3-0.4-0.7-0.6-1.3-0.6c-0.4,0-0.7,0.1-0.9,0.2s-0.5,0.4-0.7,0.6c-0.2,0.2-0.3,0.5-0.4,0.8c-0.1,0.3-0.1,0.6-0.1,1v5.3h-2.4
		v-9.6h2.3v1.5h0c0.1-0.2,0.2-0.5,0.4-0.7c0.2-0.2,0.4-0.4,0.6-0.6c0.2-0.2,0.5-0.3,0.8-0.4c0.3-0.1,0.7-0.1,1.1-0.1
		c0.7,0,1.4,0.2,1.9,0.5c0.5,0.3,0.9,0.8,1.1,1.3c0.3-0.6,0.7-1,1.3-1.4C483.6,307.7,484.2,307.5,484.9,307.5z"/>
	<path d="M500.4,312.7c0,0.1,0,0.2,0,0.3c0,0.1,0,0.2,0,0.3h-7.3c0,0.3,0.1,0.7,0.3,1s0.4,0.5,0.6,0.7c0.3,0.2,0.5,0.4,0.9,0.5
		c0.3,0.1,0.7,0.2,1,0.2c0.6,0,1.1-0.1,1.5-0.3c0.4-0.2,0.8-0.5,1-0.9l1.6,1.3c-0.9,1.3-2.3,1.9-4.1,1.9c-0.7,0-1.4-0.1-2.1-0.4
		c-0.6-0.2-1.2-0.6-1.6-1s-0.8-1-1.1-1.6c-0.3-0.6-0.4-1.3-0.4-2.1c0-0.8,0.1-1.5,0.4-2.1c0.3-0.6,0.6-1.2,1.1-1.6
		c0.5-0.4,1-0.8,1.6-1s1.3-0.4,2-0.4c0.7,0,1.3,0.1,1.8,0.3c0.6,0.2,1.1,0.5,1.5,1c0.4,0.4,0.7,1,1,1.6
		C500.3,311.1,500.4,311.9,500.4,312.7z M498,311.6c0-0.3,0-0.6-0.1-0.9c-0.1-0.3-0.2-0.5-0.4-0.7c-0.2-0.2-0.4-0.4-0.7-0.5
		c-0.3-0.1-0.6-0.2-1-0.2c-0.7,0-1.3,0.2-1.8,0.6c-0.5,0.4-0.8,1-0.8,1.7H498z"/>
	<path d="M507.2,312.6c0-0.8,0.1-1.5,0.4-2.1c0.3-0.6,0.6-1.1,1.1-1.6c0.5-0.4,1-0.8,1.7-1c0.6-0.2,1.3-0.4,2-0.4
		c0.7,0,1.4,0.1,2,0.4c0.6,0.2,1.2,0.6,1.7,1s0.8,1,1.1,1.6c0.3,0.6,0.4,1.3,0.4,2.1c0,0.8-0.1,1.5-0.4,2.1s-0.6,1.2-1.1,1.6
		c-0.5,0.4-1,0.8-1.7,1.1c-0.6,0.3-1.3,0.4-2,0.4c-0.7,0-1.4-0.1-2-0.4c-0.6-0.3-1.2-0.6-1.7-1.1c-0.5-0.4-0.8-1-1.1-1.6
		S507.2,313.3,507.2,312.6z M509.6,312.6c0,0.4,0.1,0.7,0.2,1.1s0.3,0.7,0.5,1s0.5,0.5,0.9,0.7c0.3,0.2,0.8,0.3,1.2,0.3
		c0.5,0,0.9-0.1,1.2-0.3s0.6-0.4,0.9-0.7c0.2-0.3,0.4-0.6,0.5-1s0.2-0.7,0.2-1.1s-0.1-0.7-0.2-1.1c-0.1-0.4-0.3-0.7-0.5-1
		c-0.2-0.3-0.5-0.5-0.9-0.7c-0.3-0.2-0.8-0.3-1.2-0.3c-0.5,0-0.9,0.1-1.2,0.3c-0.3,0.2-0.6,0.4-0.9,0.7c-0.2,0.3-0.4,0.6-0.5,1
		C509.7,311.8,509.6,312.2,509.6,312.6z"/>
	<path d="M520.3,309.7h-1.8v-1.9h1.8v-1.4c0-0.6,0.1-1.1,0.2-1.6s0.3-1,0.6-1.4c0.3-0.4,0.7-0.7,1.2-0.9s1.1-0.4,1.9-0.4
		c0.3,0,0.5,0,0.7,0s0.4,0.1,0.5,0.1l-0.2,2c-0.1,0-0.3-0.1-0.4-0.1s-0.3,0-0.5,0c-0.3,0-0.6,0.1-0.8,0.2c-0.2,0.1-0.4,0.3-0.5,0.5
		c-0.1,0.2-0.2,0.4-0.2,0.7s-0.1,0.5-0.1,0.7v1.6h2.2v1.9h-2.2v7.7h-2.4V309.7z"/>
	<path d="M537.9,316.2L537.9,316.2c-0.3,0.4-0.7,0.8-1.2,1s-1.1,0.4-1.8,0.4c-0.4,0-0.8,0-1.2-0.2c-0.4-0.1-0.8-0.3-1.2-0.5
		c-0.4-0.2-0.6-0.5-0.9-0.9c-0.2-0.4-0.4-0.8-0.4-1.4c0-0.7,0.2-1.3,0.6-1.7c0.4-0.4,0.9-0.8,1.6-1c0.6-0.2,1.3-0.4,2.1-0.5
		c0.8-0.1,1.5-0.1,2.3-0.1v-0.2c0-0.6-0.2-1-0.7-1.3s-1-0.4-1.5-0.4c-0.5,0-1,0.1-1.5,0.3c-0.5,0.2-0.9,0.5-1.2,0.8l-1.2-1.5
		c0.5-0.5,1.2-0.9,1.9-1.1c0.7-0.3,1.4-0.4,2.2-0.4c0.9,0,1.6,0.1,2.1,0.4c0.6,0.2,1,0.6,1.3,0.9c0.3,0.4,0.5,0.8,0.7,1.3
		c0.1,0.5,0.2,1,0.2,1.4v5.8h-2.2V316.2z M537.8,313h-0.5c-0.4,0-0.8,0-1.2,0c-0.4,0-0.8,0.1-1.2,0.2c-0.4,0.1-0.7,0.3-0.9,0.5
		c-0.2,0.2-0.4,0.5-0.4,0.8c0,0.2,0,0.4,0.1,0.6c0.1,0.2,0.2,0.3,0.4,0.4s0.3,0.2,0.5,0.2s0.4,0.1,0.6,0.1c0.8,0,1.5-0.2,1.9-0.7
		c0.4-0.4,0.6-1,0.6-1.8V313z"/>
	<path d="M542.9,307.8h2.3v1.6h0c0.3-0.6,0.6-1,1.1-1.4c0.5-0.3,1-0.5,1.7-0.5c0.1,0,0.2,0,0.3,0c0.1,0,0.2,0,0.3,0.1v2.2
		c-0.2,0-0.3-0.1-0.4-0.1c-0.1,0-0.2,0-0.3,0c-0.5,0-1,0.1-1.3,0.3c-0.3,0.2-0.6,0.4-0.8,0.7c-0.2,0.3-0.3,0.6-0.4,0.9
		c-0.1,0.3-0.1,0.5-0.1,0.7v5.1h-2.4V307.8z"/>
	<path d="M550.2,307.8h2.3v1.6h0c0.3-0.6,0.6-1,1.1-1.4c0.5-0.3,1-0.5,1.7-0.5c0.1,0,0.2,0,0.3,0c0.1,0,0.2,0,0.3,0.1v2.2
		c-0.2,0-0.3-0.1-0.4-0.1c-0.1,0-0.2,0-0.3,0c-0.5,0-1,0.1-1.3,0.3c-0.3,0.2-0.6,0.4-0.8,0.7c-0.2,0.3-0.3,0.6-0.4,0.9
		c-0.1,0.3-0.1,0.5-0.1,0.7v5.1h-2.4V307.8z"/>
	<path d="M557.2,304.5c0-0.4,0.1-0.7,0.4-1c0.3-0.3,0.6-0.4,1.1-0.4c0.4,0,0.8,0.1,1.1,0.4c0.3,0.3,0.5,0.6,0.5,1s-0.1,0.8-0.5,1
		c-0.3,0.3-0.7,0.4-1.1,0.4c-0.4,0-0.8-0.1-1.1-0.4C557.3,305.3,557.2,304.9,557.2,304.5z M557.5,307.8h2.4v9.6h-2.4V307.8z"/>
	<path d="M561.4,307.8h2.6l2.5,7h0l2.5-7h2.5l-3.8,9.6h-2.6L561.4,307.8z"/>
	<path d="M579,316.2L579,316.2c-0.3,0.4-0.7,0.8-1.2,1s-1.1,0.4-1.8,0.4c-0.4,0-0.8,0-1.2-0.2c-0.4-0.1-0.8-0.3-1.2-0.5
		c-0.4-0.2-0.6-0.5-0.9-0.9c-0.2-0.4-0.4-0.8-0.4-1.4c0-0.7,0.2-1.3,0.6-1.7c0.4-0.4,0.9-0.8,1.6-1c0.6-0.2,1.3-0.4,2.1-0.5
		c0.8-0.1,1.5-0.1,2.3-0.1v-0.2c0-0.6-0.2-1-0.7-1.3s-1-0.4-1.5-0.4c-0.5,0-1,0.1-1.5,0.3c-0.5,0.2-0.9,0.5-1.2,0.8l-1.2-1.5
		c0.5-0.5,1.2-0.9,1.9-1.1c0.7-0.3,1.4-0.4,2.2-0.4c0.9,0,1.6,0.1,2.1,0.4c0.6,0.2,1,0.6,1.3,0.9c0.3,0.4,0.5,0.8,0.7,1.3
		c0.1,0.5,0.2,1,0.2,1.4v5.8H579V316.2z M579,313h-0.5c-0.4,0-0.8,0-1.2,0c-0.4,0-0.8,0.1-1.2,0.2c-0.4,0.1-0.7,0.3-0.9,0.5
		c-0.2,0.2-0.4,0.5-0.4,0.8c0,0.2,0,0.4,0.1,0.6c0.1,0.2,0.2,0.3,0.4,0.4s0.3,0.2,0.5,0.2s0.4,0.1,0.6,0.1c0.8,0,1.5-0.2,1.9-0.7
		c0.4-0.4,0.6-1,0.6-1.8V313z"/>
	<path d="M584.1,302.3h2.4v15.1h-2.4V302.3z"/>
	<path d="M594.1,304.5c0-0.4,0.1-0.7,0.4-1c0.3-0.3,0.6-0.4,1.1-0.4c0.4,0,0.8,0.1,1.1,0.4c0.3,0.3,0.5,0.6,0.5,1s-0.1,0.8-0.5,1
		c-0.3,0.3-0.7,0.4-1.1,0.4c-0.4,0-0.8-0.1-1.1-0.4C594.3,305.3,594.1,304.9,594.1,304.5z M594.5,307.8h2.4v9.6h-2.4V307.8z"/>
	<path d="M599.8,307.8h2.3v1.5h0c0.2-0.5,0.6-0.9,1.1-1.3c0.5-0.4,1.1-0.5,1.9-0.5c0.6,0,1.2,0.1,1.6,0.3c0.4,0.2,0.8,0.5,1.1,0.9
		c0.3,0.4,0.5,0.8,0.6,1.2c0.1,0.5,0.2,0.9,0.2,1.4v6h-2.4v-5.3c0-0.3,0-0.6-0.1-0.9c0-0.3-0.1-0.6-0.3-0.8
		c-0.1-0.2-0.3-0.5-0.5-0.6c-0.2-0.2-0.5-0.2-0.9-0.2s-0.7,0.1-1,0.2s-0.5,0.4-0.7,0.6c-0.2,0.2-0.3,0.5-0.4,0.8
		c-0.1,0.3-0.1,0.6-0.1,1v5.3h-2.4V307.8z"/>
	<path d="M348.4,330.6c-0.4-0.5-0.9-0.9-1.5-1.1c-0.6-0.2-1.2-0.3-1.8-0.3c-0.7,0-1.4,0.1-2,0.4c-0.6,0.3-1.1,0.6-1.5,1.1
		c-0.4,0.5-0.8,1-1,1.6c-0.2,0.6-0.3,1.3-0.3,2c0,0.8,0.1,1.5,0.3,2.1c0.2,0.6,0.5,1.2,1,1.7c0.4,0.5,0.9,0.8,1.5,1.1
		c0.6,0.3,1.2,0.4,2,0.4c0.8,0,1.4-0.1,2-0.4c0.6-0.3,1.1-0.7,1.4-1.2l2,1.4c-0.6,0.8-1.4,1.4-2.3,1.8c-0.9,0.4-2,0.7-3.2,0.7
		c-1.1,0-2.1-0.2-3-0.6c-0.9-0.4-1.7-0.9-2.4-1.5c-0.7-0.7-1.2-1.4-1.6-2.4c-0.4-0.9-0.6-1.9-0.6-3c0-1.1,0.2-2.2,0.6-3.1
		c0.4-0.9,0.9-1.7,1.6-2.3c0.7-0.6,1.5-1.1,2.4-1.5c0.9-0.3,1.9-0.5,3-0.5c0.5,0,0.9,0,1.4,0.1s1,0.2,1.4,0.4
		c0.5,0.2,0.9,0.4,1.3,0.7c0.4,0.3,0.7,0.6,1,1L348.4,330.6z"/>
	<path d="M352.1,327.2h2.5v14.2h-2.5V327.2z"/>
	<path d="M368,330.6c-0.4-0.5-0.9-0.9-1.5-1.1s-1.2-0.3-1.8-0.3c-0.7,0-1.4,0.1-2,0.4c-0.6,0.3-1.1,0.6-1.6,1.1
		c-0.4,0.5-0.8,1-1,1.6c-0.2,0.6-0.3,1.3-0.3,2c0,0.8,0.1,1.5,0.3,2.1s0.5,1.2,1,1.7c0.4,0.5,0.9,0.8,1.5,1.1c0.6,0.3,1.2,0.4,2,0.4
		c0.8,0,1.4-0.1,2-0.4c0.6-0.3,1.1-0.7,1.4-1.2l2,1.4c-0.6,0.8-1.4,1.4-2.3,1.8c-0.9,0.4-2,0.7-3.2,0.7c-1.1,0-2.1-0.2-3-0.6
		c-0.9-0.4-1.7-0.9-2.4-1.5c-0.7-0.7-1.2-1.4-1.6-2.4c-0.4-0.9-0.6-1.9-0.6-3c0-1.1,0.2-2.2,0.6-3.1c0.4-0.9,0.9-1.7,1.6-2.3
		c0.7-0.6,1.5-1.1,2.4-1.5c0.9-0.3,1.9-0.5,3-0.5c0.5,0,0.9,0,1.4,0.1c0.5,0.1,1,0.2,1.4,0.4c0.5,0.2,0.9,0.4,1.3,0.7
		c0.4,0.3,0.7,0.6,1,1L368,330.6z"/>
	<path d="M383,336.2c0,0.9-0.1,1.6-0.4,2.3c-0.3,0.7-0.7,1.3-1.2,1.8c-0.5,0.5-1.1,0.8-1.8,1.1c-0.7,0.3-1.4,0.4-2.3,0.4
		c-0.8,0-1.6-0.1-2.3-0.4c-0.7-0.3-1.3-0.6-1.8-1.1c-0.5-0.5-0.9-1.1-1.2-1.8s-0.4-1.5-0.4-2.3v-9h2.5v8.9c0,0.4,0.1,0.8,0.2,1.2
		c0.1,0.4,0.3,0.8,0.5,1.1c0.2,0.3,0.6,0.6,1,0.8c0.4,0.2,0.9,0.3,1.5,0.3c0.6,0,1.1-0.1,1.5-0.3c0.4-0.2,0.7-0.5,1-0.8
		c0.2-0.3,0.4-0.7,0.5-1.1c0.1-0.4,0.2-0.8,0.2-1.2v-8.9h2.5V336.2z"/>
	<path d="M390.5,328.5c0-0.4,0.1-0.7,0.4-1c0.3-0.3,0.6-0.4,1.1-0.4c0.4,0,0.8,0.1,1.1,0.4c0.3,0.3,0.5,0.6,0.5,1
		c0,0.4-0.1,0.8-0.5,1c-0.3,0.3-0.7,0.4-1.1,0.4c-0.4,0-0.8-0.1-1.1-0.4C390.7,329.3,390.5,328.9,390.5,328.5z M390.9,331.8h2.4v9.6
		h-2.4V331.8z"/>
	<path d="M401.5,334.4c-0.2-0.3-0.5-0.5-0.9-0.7c-0.4-0.2-0.8-0.3-1.2-0.3c-0.4,0-0.7,0.1-1.1,0.2s-0.5,0.4-0.5,0.8s0.2,0.6,0.5,0.8
		s0.9,0.3,1.5,0.5c0.4,0.1,0.7,0.2,1.1,0.3c0.4,0.1,0.7,0.3,1,0.5c0.3,0.2,0.5,0.5,0.7,0.8c0.2,0.3,0.3,0.7,0.3,1.2
		c0,0.6-0.1,1.1-0.3,1.5c-0.2,0.4-0.5,0.7-0.9,1c-0.4,0.3-0.8,0.4-1.3,0.6c-0.5,0.1-1,0.2-1.5,0.2c-0.7,0-1.5-0.1-2.2-0.4
		c-0.7-0.3-1.3-0.7-1.8-1.2l1.6-1.5c0.3,0.3,0.6,0.6,1,0.9s0.9,0.3,1.4,0.3c0.2,0,0.4,0,0.5-0.1s0.3-0.1,0.5-0.2s0.3-0.2,0.4-0.3
		c0.1-0.1,0.1-0.3,0.1-0.5c0-0.4-0.2-0.7-0.5-0.9c-0.4-0.2-0.9-0.3-1.7-0.5c-0.4-0.1-0.7-0.2-1-0.3c-0.3-0.1-0.6-0.3-0.9-0.5
		c-0.3-0.2-0.5-0.5-0.6-0.8s-0.2-0.7-0.2-1.1c0-0.5,0.1-1,0.3-1.4s0.5-0.7,0.9-1c0.4-0.2,0.8-0.4,1.2-0.5s0.9-0.2,1.4-0.2
		c0.7,0,1.4,0.1,2,0.4c0.7,0.2,1.2,0.6,1.6,1.1L401.5,334.4z"/>
	<path d="M415.6,338.5h-6.5v-2.1l6-9.1h2.9v9.2h2v2.1h-2v2.9h-2.4V338.5z M415.6,330.1L415.6,330.1l-4.1,6.3h4.1V330.1z"/>
	<path d="M424.6,331.8v1.3h0.1c0.1-0.2,0.3-0.4,0.5-0.6s0.4-0.4,0.7-0.5c0.3-0.2,0.6-0.3,0.9-0.4c0.4-0.1,0.8-0.1,1.2-0.1
		c0.7,0,1.3,0.1,1.9,0.4s1.1,0.6,1.5,1.1c0.4,0.5,0.7,1,1,1.6c0.2,0.6,0.3,1.3,0.3,2s-0.1,1.4-0.3,2c-0.2,0.6-0.5,1.2-0.9,1.6
		c-0.4,0.5-0.9,0.8-1.5,1.1s-1.2,0.4-2,0.4c-0.7,0-1.3-0.1-1.9-0.4c-0.6-0.3-1-0.7-1.3-1.1h0v6.1h-2.4v-14.4H424.6z M430.2,336.6
		c0-0.4-0.1-0.7-0.2-1.1c-0.1-0.4-0.3-0.7-0.5-1c-0.2-0.3-0.5-0.5-0.9-0.7c-0.3-0.2-0.8-0.3-1.2-0.3c-0.4,0-0.8,0.1-1.2,0.3
		c-0.3,0.2-0.6,0.4-0.9,0.7s-0.4,0.6-0.6,1c-0.1,0.4-0.2,0.7-0.2,1.1s0.1,0.7,0.2,1.1c0.1,0.4,0.3,0.7,0.6,1
		c0.2,0.3,0.5,0.5,0.9,0.7c0.3,0.2,0.7,0.3,1.2,0.3c0.5,0,0.9-0.1,1.2-0.3s0.6-0.4,0.9-0.7s0.4-0.6,0.5-1S430.2,336.9,430.2,336.6z"
		/>
	<path d="M446.4,331.5c0.6,0,1.2,0.1,1.6,0.3c0.4,0.2,0.8,0.5,1.1,0.9c0.3,0.4,0.5,0.8,0.6,1.2c0.1,0.5,0.2,0.9,0.2,1.4v6h-2.4v-5.3
		c0-0.3,0-0.6-0.1-0.9c0-0.3-0.1-0.6-0.3-0.8c-0.1-0.2-0.3-0.5-0.5-0.6c-0.2-0.2-0.5-0.2-0.9-0.2c-0.4,0-0.7,0.1-1,0.2
		c-0.3,0.2-0.5,0.4-0.7,0.6c-0.2,0.3-0.3,0.5-0.4,0.8s-0.1,0.6-0.1,0.9v5.2h-2.4v-5.8c0-0.6-0.1-1.1-0.4-1.5
		c-0.3-0.4-0.7-0.6-1.3-0.6c-0.4,0-0.7,0.1-0.9,0.2c-0.3,0.2-0.5,0.4-0.7,0.6c-0.2,0.2-0.3,0.5-0.4,0.8c-0.1,0.3-0.1,0.6-0.1,1v5.3
		h-2.4v-9.6h2.3v1.5h0c0.1-0.2,0.2-0.5,0.4-0.7c0.2-0.2,0.4-0.4,0.6-0.6c0.2-0.2,0.5-0.3,0.8-0.4c0.3-0.1,0.7-0.1,1.1-0.1
		c0.7,0,1.4,0.2,1.9,0.5s0.9,0.8,1.1,1.3c0.3-0.6,0.7-1,1.3-1.4C445.1,331.7,445.7,331.5,446.4,331.5z"/>
	<path d="M452.3,340c0-0.4,0.2-0.8,0.5-1.1s0.7-0.5,1.1-0.5c0.4,0,0.8,0.1,1.1,0.4c0.3,0.3,0.5,0.7,0.5,1.1c0,0.4-0.2,0.8-0.5,1.1
		c-0.3,0.3-0.7,0.5-1.1,0.5c-0.2,0-0.4,0-0.6-0.1s-0.4-0.2-0.5-0.3c-0.1-0.1-0.3-0.3-0.4-0.5S452.3,340.2,452.3,340z"/>
	<path d="M340.9,367.1h0.6c0.4,0,0.7,0,1.1-0.1c0.4-0.1,0.7-0.2,1-0.3c0.3-0.2,0.5-0.4,0.7-0.7s0.3-0.6,0.3-1.1
		c0-0.3-0.1-0.6-0.2-0.9s-0.3-0.5-0.5-0.6c-0.2-0.2-0.4-0.3-0.7-0.4c-0.3-0.1-0.6-0.1-0.8-0.1c-0.6,0-1.1,0.2-1.5,0.5
		c-0.4,0.3-0.7,0.8-0.8,1.3l-2.3-0.6c0.1-0.5,0.3-0.9,0.6-1.3c0.3-0.4,0.6-0.7,1-1c0.4-0.3,0.9-0.5,1.4-0.7c0.5-0.2,1-0.2,1.6-0.2
		c0.6,0,1.2,0.1,1.7,0.2c0.6,0.2,1,0.4,1.5,0.7c0.4,0.3,0.7,0.7,1,1.2c0.2,0.5,0.4,1,0.4,1.7c0,0.8-0.2,1.4-0.7,2
		c-0.5,0.6-1.1,1-1.8,1.2v0c0.9,0.2,1.6,0.6,2.1,1.2c0.5,0.6,0.8,1.4,0.8,2.2c0,0.7-0.1,1.4-0.4,1.9s-0.7,1-1.1,1.4
		c-0.5,0.4-1,0.6-1.6,0.8s-1.2,0.3-1.8,0.3s-1.2-0.1-1.7-0.2c-0.5-0.1-1-0.3-1.5-0.6s-0.8-0.6-1.2-1c-0.3-0.4-0.6-0.9-0.8-1.5
		l2.2-0.7c0.2,0.6,0.5,1,1,1.4c0.5,0.4,1.1,0.6,1.8,0.6c0.3,0,0.6,0,0.9-0.1s0.6-0.2,0.8-0.4c0.2-0.2,0.4-0.4,0.6-0.7
		c0.2-0.3,0.2-0.7,0.2-1.1c0-0.5-0.1-0.8-0.3-1.2c-0.2-0.3-0.5-0.6-0.8-0.7c-0.3-0.2-0.7-0.3-1.1-0.4c-0.4-0.1-0.8-0.1-1.2-0.1h-0.6
		V367.1z"/>
	<path d="M350.3,365.8h2.3v1.6h0c0.3-0.6,0.6-1,1.1-1.4c0.5-0.3,1-0.5,1.7-0.5c0.1,0,0.2,0,0.3,0s0.2,0,0.3,0v2.2
		c-0.2,0-0.3-0.1-0.4-0.1c-0.1,0-0.2,0-0.3,0c-0.5,0-1,0.1-1.3,0.3c-0.3,0.2-0.6,0.4-0.8,0.7s-0.3,0.6-0.4,0.9
		c-0.1,0.3-0.1,0.5-0.1,0.7v5.1h-2.4V365.8z"/>
	<path d="M367,375.4h-2.3V374h0c-0.3,0.6-0.8,1-1.4,1.3c-0.6,0.3-1.2,0.4-1.9,0.4c-0.7,0-1.4-0.1-2-0.4s-1.1-0.6-1.5-1.1
		c-0.4-0.5-0.7-1-0.9-1.6c-0.2-0.6-0.3-1.3-0.3-2s0.1-1.4,0.3-2s0.5-1.1,1-1.6s0.9-0.8,1.5-1.1c0.6-0.3,1.2-0.4,1.9-0.4
		c0.4,0,0.8,0,1.2,0.1c0.3,0.1,0.7,0.2,0.9,0.4c0.3,0.1,0.5,0.3,0.7,0.5s0.3,0.3,0.5,0.5h0.1v-6.7h2.4V375.4z M359.1,370.6
		c0,0.4,0.1,0.7,0.2,1.1c0.1,0.4,0.3,0.7,0.5,1c0.2,0.3,0.5,0.5,0.9,0.7s0.8,0.3,1.2,0.3c0.4,0,0.8-0.1,1.2-0.3
		c0.3-0.2,0.6-0.4,0.9-0.7c0.2-0.3,0.4-0.6,0.6-1c0.1-0.4,0.2-0.7,0.2-1.1s-0.1-0.7-0.2-1.1c-0.1-0.4-0.3-0.7-0.6-1
		c-0.2-0.3-0.5-0.5-0.9-0.7s-0.7-0.3-1.2-0.3c-0.5,0-0.9,0.1-1.2,0.3c-0.3,0.2-0.6,0.4-0.9,0.7c-0.2,0.3-0.4,0.6-0.5,1
		C359.1,369.8,359.1,370.2,359.1,370.6z"/>
	<path d="M374.3,370.6c0-0.8,0.1-1.5,0.4-2.1c0.3-0.6,0.6-1.1,1.1-1.6s1-0.8,1.7-1c0.6-0.2,1.3-0.4,2-0.4s1.4,0.1,2,0.4
		c0.6,0.2,1.2,0.6,1.7,1c0.5,0.4,0.8,1,1.1,1.6s0.4,1.3,0.4,2.1s-0.1,1.5-0.4,2.1s-0.6,1.2-1.1,1.6c-0.5,0.4-1,0.8-1.7,1.1
		c-0.6,0.3-1.3,0.4-2,0.4s-1.4-0.1-2-0.4c-0.6-0.3-1.2-0.6-1.7-1.1c-0.5-0.4-0.8-1-1.1-1.6C374.5,372,374.3,371.3,374.3,370.6z
		 M376.8,370.6c0,0.4,0.1,0.7,0.2,1.1c0.1,0.4,0.3,0.7,0.5,1c0.2,0.3,0.5,0.5,0.9,0.7s0.8,0.3,1.2,0.3c0.5,0,0.9-0.1,1.2-0.3
		s0.6-0.4,0.9-0.7c0.2-0.3,0.4-0.6,0.5-1s0.2-0.7,0.2-1.1s-0.1-0.7-0.2-1.1c-0.1-0.4-0.3-0.7-0.5-1c-0.2-0.3-0.5-0.5-0.9-0.7
		c-0.3-0.2-0.8-0.3-1.2-0.3c-0.5,0-0.9,0.1-1.2,0.3c-0.3,0.2-0.6,0.4-0.9,0.7c-0.2,0.3-0.4,0.6-0.5,1
		C376.8,369.8,376.8,370.2,376.8,370.6z"/>
	<path d="M387.1,365.8h2.3v1.5h0c0.2-0.5,0.6-0.9,1.1-1.3c0.5-0.4,1.1-0.5,1.9-0.5c0.6,0,1.2,0.1,1.6,0.3c0.4,0.2,0.8,0.5,1.1,0.9
		c0.3,0.4,0.5,0.8,0.6,1.2c0.1,0.5,0.2,0.9,0.2,1.4v6h-2.4v-5.3c0-0.3,0-0.6-0.1-0.9s-0.1-0.6-0.3-0.8c-0.1-0.2-0.3-0.5-0.5-0.6
		c-0.2-0.2-0.5-0.2-0.9-0.2s-0.7,0.1-1,0.2c-0.3,0.2-0.5,0.4-0.7,0.6c-0.2,0.2-0.3,0.5-0.4,0.8c-0.1,0.3-0.1,0.6-0.1,1v5.3h-2.4
		V365.8z"/>
	<path d="M403.8,360.3h2.4v15.1h-2.4V360.3z"/>
	<path d="M408.8,362.5c0-0.4,0.1-0.7,0.4-1c0.3-0.3,0.6-0.4,1.1-0.4c0.4,0,0.8,0.1,1.1,0.4c0.3,0.3,0.5,0.6,0.5,1
		c0,0.4-0.1,0.8-0.5,1c-0.3,0.3-0.7,0.4-1.1,0.4c-0.4,0-0.8-0.1-1.1-0.4C408.9,363.3,408.8,362.9,408.8,362.5z M409.1,365.8h2.4v9.6
		h-2.4V365.8z"/>
	<path d="M419.7,368.4c-0.2-0.3-0.5-0.5-0.9-0.7c-0.4-0.2-0.8-0.3-1.2-0.3c-0.4,0-0.7,0.1-1.1,0.2s-0.5,0.4-0.5,0.8s0.2,0.6,0.5,0.8
		s0.9,0.3,1.5,0.5c0.4,0.1,0.7,0.2,1.1,0.3c0.4,0.1,0.7,0.3,1,0.5c0.3,0.2,0.5,0.5,0.7,0.8c0.2,0.3,0.3,0.7,0.3,1.2
		c0,0.6-0.1,1.1-0.3,1.5c-0.2,0.4-0.5,0.7-0.9,1c-0.4,0.3-0.8,0.4-1.3,0.6c-0.5,0.1-1,0.2-1.5,0.2c-0.7,0-1.5-0.1-2.2-0.4
		c-0.7-0.3-1.3-0.7-1.8-1.2l1.6-1.5c0.3,0.3,0.6,0.6,1,0.9s0.9,0.3,1.4,0.3c0.2,0,0.4,0,0.5-0.1s0.3-0.1,0.5-0.2s0.3-0.2,0.4-0.3
		c0.1-0.1,0.1-0.3,0.1-0.5c0-0.4-0.2-0.7-0.5-0.9c-0.4-0.2-0.9-0.3-1.7-0.5c-0.4-0.1-0.7-0.2-1-0.3c-0.3-0.1-0.6-0.3-0.9-0.5
		c-0.3-0.2-0.5-0.5-0.6-0.8s-0.2-0.7-0.2-1.1c0-0.5,0.1-1,0.3-1.4s0.5-0.7,0.9-1c0.4-0.2,0.8-0.4,1.2-0.5s0.9-0.2,1.4-0.2
		c0.7,0,1.4,0.1,2,0.4c0.7,0.2,1.2,0.6,1.6,1.1L419.7,368.4z"/>
	<path d="M421.9,367.7v-1.9h1.7V363h2.4v2.8h2.4v1.9H426v4.5c0,0.4,0.1,0.8,0.2,1.1s0.5,0.4,1,0.4c0.2,0,0.3,0,0.5,0
		s0.4-0.1,0.5-0.2l0.1,1.9c-0.2,0.1-0.5,0.1-0.8,0.2c-0.3,0-0.6,0.1-0.8,0.1c-0.6,0-1.2-0.1-1.6-0.3c-0.4-0.2-0.7-0.4-1-0.7
		s-0.4-0.7-0.5-1.1c-0.1-0.4-0.1-0.8-0.1-1.3v-4.5H421.9z"/>
	<path d="M430.1,367.2c0-0.4,0.2-0.8,0.5-1.1s0.7-0.5,1.1-0.5c0.4,0,0.8,0.1,1.1,0.4c0.3,0.3,0.5,0.7,0.5,1.1s-0.2,0.8-0.5,1.1
		s-0.7,0.5-1.1,0.5c-0.2,0-0.4,0-0.6-0.1s-0.4-0.2-0.5-0.3c-0.1-0.1-0.3-0.3-0.3-0.5C430.1,367.7,430.1,367.5,430.1,367.2z
		 M430.1,374c0-0.4,0.2-0.8,0.5-1.1s0.7-0.5,1.1-0.5c0.4,0,0.8,0.1,1.1,0.4c0.3,0.3,0.5,0.7,0.5,1.1c0,0.4-0.2,0.8-0.5,1.1
		s-0.7,0.5-1.1,0.5c-0.2,0-0.4,0-0.6-0.1s-0.4-0.2-0.5-0.3c-0.1-0.1-0.3-0.3-0.3-0.5C430.1,374.4,430.1,374.2,430.1,374z"/>
	<path d="M344,398.2L344,398.2c-0.3,0.4-0.7,0.8-1.2,1s-1.1,0.4-1.8,0.4c-0.4,0-0.8,0-1.2-0.2c-0.4-0.1-0.8-0.3-1.2-0.5
		c-0.4-0.2-0.6-0.5-0.9-0.9s-0.4-0.8-0.4-1.4c0-0.7,0.2-1.3,0.6-1.7c0.4-0.4,0.9-0.8,1.6-1c0.6-0.2,1.4-0.4,2.1-0.4s1.5-0.1,2.3-0.1
		v-0.2c0-0.6-0.2-1-0.6-1.3c-0.4-0.3-1-0.4-1.5-0.4c-0.5,0-1,0.1-1.5,0.3c-0.5,0.2-0.9,0.5-1.2,0.8l-1.2-1.5
		c0.5-0.5,1.2-0.9,1.9-1.1c0.7-0.3,1.4-0.4,2.2-0.4c0.9,0,1.6,0.1,2.1,0.4c0.6,0.2,1,0.6,1.3,0.9c0.3,0.4,0.5,0.8,0.7,1.3
		c0.1,0.5,0.2,1,0.2,1.4v5.8H344V398.2z M344,395h-0.5c-0.4,0-0.8,0-1.2,0c-0.4,0-0.8,0.1-1.2,0.2c-0.4,0.1-0.7,0.3-0.9,0.5
		c-0.2,0.2-0.4,0.5-0.4,0.8c0,0.2,0,0.4,0.1,0.6s0.2,0.3,0.4,0.4c0.2,0.1,0.3,0.2,0.5,0.2c0.2,0,0.4,0.1,0.6,0.1
		c0.8,0,1.5-0.2,1.9-0.7c0.4-0.4,0.6-1,0.6-1.8V395z"/>
	<path d="M351.4,389.8v1.3h0.1c0.1-0.2,0.3-0.4,0.5-0.6c0.2-0.2,0.4-0.4,0.7-0.5c0.3-0.2,0.6-0.3,1-0.4c0.4-0.1,0.8-0.1,1.2-0.1
		c0.7,0,1.3,0.1,1.9,0.4s1.1,0.6,1.5,1.1c0.4,0.5,0.7,1,1,1.6c0.2,0.6,0.3,1.3,0.3,2s-0.1,1.4-0.3,2c-0.2,0.6-0.5,1.2-0.9,1.6
		c-0.4,0.5-0.9,0.8-1.5,1.1s-1.2,0.4-2,0.4c-0.7,0-1.3-0.1-1.9-0.4c-0.6-0.3-1-0.7-1.3-1.1h0v6.1h-2.4v-14.4H351.4z M357,394.6
		c0-0.4-0.1-0.7-0.2-1.1c-0.1-0.4-0.3-0.7-0.5-1c-0.2-0.3-0.5-0.5-0.9-0.7c-0.3-0.2-0.8-0.3-1.2-0.3c-0.4,0-0.8,0.1-1.2,0.3
		s-0.6,0.4-0.9,0.7c-0.2,0.3-0.4,0.6-0.6,1s-0.2,0.7-0.2,1.1s0.1,0.7,0.2,1.1c0.1,0.4,0.3,0.7,0.6,1c0.2,0.3,0.5,0.5,0.9,0.7
		c0.3,0.2,0.7,0.3,1.2,0.3c0.5,0,0.9-0.1,1.2-0.3s0.6-0.4,0.9-0.7s0.4-0.6,0.5-1S357,394.9,357,394.6z"/>
	<path d="M364,389.8v1.3h0.1c0.1-0.2,0.3-0.4,0.5-0.6c0.2-0.2,0.4-0.4,0.7-0.5c0.3-0.2,0.6-0.3,1-0.4c0.4-0.1,0.8-0.1,1.2-0.1
		c0.7,0,1.3,0.1,1.9,0.4s1.1,0.6,1.5,1.1c0.4,0.5,0.7,1,1,1.6c0.2,0.6,0.3,1.3,0.3,2s-0.1,1.4-0.3,2c-0.2,0.6-0.5,1.2-0.9,1.6
		c-0.4,0.5-0.9,0.8-1.5,1.1s-1.2,0.4-2,0.4c-0.7,0-1.3-0.1-1.9-0.4c-0.6-0.3-1-0.7-1.3-1.1h0v6.1h-2.4v-14.4H364z M369.6,394.6
		c0-0.4-0.1-0.7-0.2-1.1c-0.1-0.4-0.3-0.7-0.5-1c-0.2-0.3-0.5-0.5-0.9-0.7c-0.3-0.2-0.8-0.3-1.2-0.3c-0.4,0-0.8,0.1-1.2,0.3
		s-0.6,0.4-0.9,0.7c-0.2,0.3-0.4,0.6-0.6,1s-0.2,0.7-0.2,1.1s0.1,0.7,0.2,1.1c0.1,0.4,0.3,0.7,0.6,1c0.2,0.3,0.5,0.5,0.9,0.7
		c0.3,0.2,0.7,0.3,1.2,0.3c0.5,0,0.9-0.1,1.2-0.3s0.6-0.4,0.9-0.7s0.4-0.6,0.5-1S369.6,394.9,369.6,394.6z"/>
	<path d="M374.4,389.8h2.3v1.6h0c0.3-0.6,0.6-1,1.1-1.4c0.5-0.3,1-0.5,1.7-0.5c0.1,0,0.2,0,0.3,0s0.2,0,0.3,0v2.2
		c-0.2,0-0.3-0.1-0.4-0.1c-0.1,0-0.2,0-0.3,0c-0.5,0-1,0.1-1.3,0.3c-0.3,0.2-0.6,0.4-0.8,0.7s-0.3,0.6-0.4,0.9
		c-0.1,0.3-0.1,0.5-0.1,0.7v5.1h-2.4V389.8z"/>
	<path d="M380.8,394.6c0-0.8,0.1-1.5,0.4-2.1s0.6-1.1,1.1-1.6s1-0.8,1.7-1c0.6-0.2,1.3-0.4,2-0.4c0.7,0,1.4,0.1,2,0.4
		c0.6,0.2,1.2,0.6,1.7,1s0.8,1,1.1,1.6s0.4,1.3,0.4,2.1s-0.1,1.5-0.4,2.1s-0.6,1.2-1.1,1.6c-0.5,0.4-1,0.8-1.7,1.1
		c-0.6,0.3-1.3,0.4-2,0.4c-0.7,0-1.4-0.1-2-0.4c-0.6-0.3-1.2-0.6-1.7-1.1c-0.5-0.4-0.8-1-1.1-1.6S380.8,395.3,380.8,394.6z
		 M383.2,394.6c0,0.4,0.1,0.7,0.2,1.1s0.3,0.7,0.5,1s0.5,0.5,0.9,0.7c0.3,0.2,0.8,0.3,1.2,0.3c0.5,0,0.9-0.1,1.2-0.3
		s0.6-0.4,0.9-0.7c0.2-0.3,0.4-0.6,0.5-1s0.2-0.7,0.2-1.1s-0.1-0.7-0.2-1.1c-0.1-0.4-0.3-0.7-0.5-1c-0.2-0.3-0.5-0.5-0.9-0.7
		c-0.3-0.2-0.8-0.3-1.2-0.3c-0.5,0-0.9,0.1-1.2,0.3c-0.3,0.2-0.6,0.4-0.9,0.7c-0.2,0.3-0.4,0.6-0.5,1
		C383.3,393.8,383.2,394.2,383.2,394.6z"/>
	<path d="M395.8,394.3l-3.5-4.5h2.9l2.1,3l2.1-3h2.8l-3.4,4.5l3.9,5.1h-2.9l-2.5-3.5l-2.5,3.5h-2.8L395.8,394.3z"/>
	<path d="M403.8,386.5c0-0.4,0.1-0.7,0.4-1c0.3-0.3,0.6-0.4,1.1-0.4c0.4,0,0.8,0.1,1.1,0.4c0.3,0.3,0.5,0.6,0.5,1
		c0,0.4-0.1,0.8-0.5,1c-0.3,0.3-0.7,0.4-1.1,0.4c-0.4,0-0.8-0.1-1.1-0.4C403.9,387.3,403.8,386.9,403.8,386.5z M404.1,389.8h2.4v9.6
		h-2.4V389.8z"/>
	<path d="M420.9,389.5c0.6,0,1.2,0.1,1.6,0.3c0.4,0.2,0.8,0.5,1.1,0.9c0.3,0.4,0.5,0.8,0.6,1.2c0.1,0.5,0.2,0.9,0.2,1.4v6H422v-5.3
		c0-0.3,0-0.6-0.1-0.9c0-0.3-0.1-0.6-0.3-0.8c-0.1-0.2-0.3-0.5-0.5-0.6c-0.2-0.2-0.5-0.2-0.9-0.2c-0.4,0-0.7,0.1-1,0.2
		c-0.3,0.2-0.5,0.4-0.7,0.6c-0.2,0.3-0.3,0.5-0.4,0.8s-0.1,0.6-0.1,0.9v5.2h-2.4v-5.8c0-0.6-0.1-1.1-0.4-1.5
		c-0.3-0.4-0.7-0.6-1.3-0.6c-0.4,0-0.7,0.1-0.9,0.2c-0.3,0.2-0.5,0.4-0.7,0.6c-0.2,0.2-0.3,0.5-0.4,0.8c-0.1,0.3-0.1,0.6-0.1,1v5.3
		h-2.4v-9.6h2.3v1.5h0c0.1-0.2,0.2-0.5,0.4-0.7c0.2-0.2,0.4-0.4,0.6-0.6c0.2-0.2,0.5-0.3,0.8-0.4c0.3-0.1,0.7-0.1,1.1-0.1
		c0.7,0,1.4,0.2,1.9,0.5s0.9,0.8,1.1,1.3c0.3-0.6,0.7-1,1.3-1.4C419.5,389.7,420.2,389.5,420.9,389.5z"/>
	<path d="M433.2,398.2L433.2,398.2c-0.3,0.4-0.7,0.8-1.2,1s-1.1,0.4-1.8,0.4c-0.4,0-0.8,0-1.2-0.2c-0.4-0.1-0.8-0.3-1.2-0.5
		c-0.4-0.2-0.6-0.5-0.9-0.9c-0.2-0.4-0.4-0.8-0.4-1.4c0-0.7,0.2-1.3,0.6-1.7c0.4-0.4,0.9-0.8,1.6-1c0.6-0.2,1.3-0.4,2.1-0.4
		c0.8-0.1,1.5-0.1,2.3-0.1v-0.2c0-0.6-0.2-1-0.7-1.3c-0.4-0.3-1-0.4-1.5-0.4c-0.5,0-1,0.1-1.5,0.3c-0.5,0.2-0.9,0.5-1.2,0.8
		l-1.2-1.5c0.5-0.5,1.2-0.9,1.9-1.1c0.7-0.3,1.4-0.4,2.2-0.4c0.9,0,1.6,0.1,2.1,0.4c0.6,0.2,1,0.6,1.3,0.9c0.3,0.4,0.5,0.8,0.7,1.3
		c0.1,0.5,0.2,1,0.2,1.4v5.8h-2.2V398.2z M433.1,395h-0.5c-0.4,0-0.8,0-1.2,0s-0.8,0.1-1.2,0.2c-0.4,0.1-0.7,0.3-0.9,0.5
		c-0.2,0.2-0.4,0.5-0.4,0.8c0,0.2,0,0.4,0.1,0.6c0.1,0.2,0.2,0.3,0.4,0.4s0.3,0.2,0.5,0.2s0.4,0.1,0.6,0.1c0.8,0,1.5-0.2,1.9-0.7
		c0.4-0.4,0.6-1,0.6-1.8V395z"/>
	<path d="M436.6,391.7v-1.9h1.7V387h2.4v2.8h2.4v1.9h-2.4v4.5c0,0.4,0.1,0.8,0.2,1.1s0.5,0.4,1,0.4c0.2,0,0.3,0,0.5,0
		s0.4-0.1,0.5-0.2l0.1,1.9c-0.2,0.1-0.5,0.1-0.8,0.2c-0.3,0-0.6,0.1-0.8,0.1c-0.6,0-1.2-0.1-1.6-0.3c-0.4-0.2-0.7-0.4-1-0.7
		s-0.4-0.7-0.5-1.1c-0.1-0.4-0.1-0.8-0.1-1.3v-4.5H436.6z"/>
	<path d="M454,394.7c0,0.1,0,0.2,0,0.3c0,0.1,0,0.2,0,0.3h-7.3c0,0.3,0.1,0.7,0.3,1s0.4,0.5,0.6,0.7c0.3,0.2,0.5,0.4,0.9,0.5
		c0.3,0.1,0.7,0.2,1,0.2c0.6,0,1.1-0.1,1.5-0.3c0.4-0.2,0.8-0.5,1-0.9l1.6,1.3c-0.9,1.3-2.3,1.9-4.1,1.9c-0.7,0-1.4-0.1-2.1-0.4
		c-0.6-0.2-1.2-0.6-1.6-1s-0.8-1-1.1-1.6c-0.3-0.6-0.4-1.3-0.4-2.1c0-0.8,0.1-1.5,0.4-2.1c0.3-0.6,0.6-1.2,1.1-1.6
		c0.5-0.4,1-0.8,1.6-1s1.3-0.4,2-0.4c0.7,0,1.3,0.1,1.8,0.3c0.6,0.2,1.1,0.5,1.5,1c0.4,0.4,0.7,1,1,1.6
		C453.9,393.1,454,393.9,454,394.7z M451.6,393.6c0-0.3,0-0.6-0.1-0.9c-0.1-0.3-0.2-0.5-0.4-0.7c-0.2-0.2-0.4-0.4-0.7-0.5
		c-0.3-0.1-0.6-0.2-1-0.2c-0.7,0-1.3,0.2-1.8,0.7s-0.8,1-0.8,1.7H451.6z"/>
	<path d="M459.9,391.7v-1.9h1.7V387h2.4v2.8h2.4v1.9H464v4.5c0,0.4,0.1,0.8,0.2,1.1s0.5,0.4,1,0.4c0.2,0,0.3,0,0.5,0
		s0.4-0.1,0.5-0.2l0.1,1.9c-0.2,0.1-0.5,0.1-0.8,0.2c-0.3,0-0.6,0.1-0.8,0.1c-0.6,0-1.2-0.1-1.6-0.3c-0.4-0.2-0.7-0.4-1-0.7
		s-0.4-0.7-0.5-1.1c-0.1-0.4-0.1-0.8-0.1-1.3v-4.5H459.9z"/>
	<path d="M467.8,386.5c0-0.4,0.1-0.7,0.4-1c0.3-0.3,0.6-0.4,1.1-0.4c0.4,0,0.8,0.1,1.1,0.4c0.3,0.3,0.5,0.6,0.5,1
		c0,0.4-0.1,0.8-0.5,1c-0.3,0.3-0.7,0.4-1.1,0.4c-0.4,0-0.8-0.1-1.1-0.4C468,387.3,467.8,386.9,467.8,386.5z M468.1,389.8h2.4v9.6
		h-2.4V389.8z"/>
	<path d="M484.9,389.5c0.6,0,1.2,0.1,1.6,0.3c0.4,0.2,0.8,0.5,1.1,0.9c0.3,0.4,0.5,0.8,0.6,1.2c0.1,0.5,0.2,0.9,0.2,1.4v6h-2.4v-5.3
		c0-0.3,0-0.6-0.1-0.9c0-0.3-0.1-0.6-0.3-0.8c-0.1-0.2-0.3-0.5-0.5-0.6c-0.2-0.2-0.5-0.2-0.9-0.2c-0.4,0-0.7,0.1-1,0.2
		c-0.3,0.2-0.5,0.4-0.7,0.6c-0.2,0.3-0.3,0.5-0.4,0.8s-0.1,0.6-0.1,0.9v5.2h-2.4v-5.8c0-0.6-0.1-1.1-0.4-1.5
		c-0.3-0.4-0.7-0.6-1.3-0.6c-0.4,0-0.7,0.1-0.9,0.2c-0.3,0.2-0.5,0.4-0.7,0.6c-0.2,0.2-0.3,0.5-0.4,0.8c-0.1,0.3-0.1,0.6-0.1,1v5.3
		h-2.4v-9.6h2.3v1.5h0c0.1-0.2,0.2-0.5,0.4-0.7c0.2-0.2,0.4-0.4,0.6-0.6c0.2-0.2,0.5-0.3,0.8-0.4c0.3-0.1,0.7-0.1,1.1-0.1
		c0.7,0,1.4,0.2,1.9,0.5s0.9,0.8,1.1,1.3c0.3-0.6,0.7-1,1.3-1.4C483.6,389.7,484.2,389.5,484.9,389.5z"/>
	<path d="M500.4,394.7c0,0.1,0,0.2,0,0.3c0,0.1,0,0.2,0,0.3h-7.3c0,0.3,0.1,0.7,0.3,1s0.4,0.5,0.6,0.7c0.3,0.2,0.5,0.4,0.9,0.5
		c0.3,0.1,0.7,0.2,1,0.2c0.6,0,1.1-0.1,1.5-0.3c0.4-0.2,0.8-0.5,1-0.9l1.6,1.3c-0.9,1.3-2.3,1.9-4.1,1.9c-0.7,0-1.4-0.1-2.1-0.4
		c-0.6-0.2-1.2-0.6-1.6-1s-0.8-1-1.1-1.6c-0.3-0.6-0.4-1.3-0.4-2.1c0-0.8,0.1-1.5,0.4-2.1c0.3-0.6,0.6-1.2,1.1-1.6
		c0.5-0.4,1-0.8,1.6-1s1.3-0.4,2-0.4c0.7,0,1.3,0.1,1.8,0.3c0.6,0.2,1.1,0.5,1.5,1c0.4,0.4,0.7,1,1,1.6
		C500.3,393.1,500.4,393.9,500.4,394.7z M498,393.6c0-0.3,0-0.6-0.1-0.9c-0.1-0.3-0.2-0.5-0.4-0.7c-0.2-0.2-0.4-0.4-0.7-0.5
		c-0.3-0.1-0.6-0.2-1-0.2c-0.7,0-1.3,0.2-1.8,0.7s-0.8,1-0.8,1.7H498z"/>
	<path d="M507.2,394.6c0-0.8,0.1-1.5,0.4-2.1s0.6-1.1,1.1-1.6c0.5-0.4,1-0.8,1.7-1c0.6-0.2,1.3-0.4,2-0.4c0.7,0,1.4,0.1,2,0.4
		c0.6,0.2,1.2,0.6,1.7,1s0.8,1,1.1,1.6s0.4,1.3,0.4,2.1s-0.1,1.5-0.4,2.1s-0.6,1.2-1.1,1.6c-0.5,0.4-1,0.8-1.7,1.1
		c-0.6,0.3-1.3,0.4-2,0.4c-0.7,0-1.4-0.1-2-0.4c-0.6-0.3-1.2-0.6-1.7-1.1c-0.5-0.4-0.8-1-1.1-1.6S507.2,395.3,507.2,394.6z
		 M509.6,394.6c0,0.4,0.1,0.7,0.2,1.1s0.3,0.7,0.5,1s0.5,0.5,0.9,0.7c0.3,0.2,0.8,0.3,1.2,0.3c0.5,0,0.9-0.1,1.2-0.3
		s0.6-0.4,0.9-0.7c0.2-0.3,0.4-0.6,0.5-1s0.2-0.7,0.2-1.1s-0.1-0.7-0.2-1.1c-0.1-0.4-0.3-0.7-0.5-1c-0.2-0.3-0.5-0.5-0.9-0.7
		c-0.3-0.2-0.8-0.3-1.2-0.3c-0.5,0-0.9,0.1-1.2,0.3c-0.3,0.2-0.6,0.4-0.9,0.7c-0.2,0.3-0.4,0.6-0.5,1
		C509.7,393.8,509.6,394.2,509.6,394.6z"/>
	<path d="M520.3,391.7h-1.8v-1.9h1.8v-1.4c0-0.6,0.1-1.1,0.2-1.7s0.3-1,0.6-1.4c0.3-0.4,0.7-0.7,1.2-1s1.1-0.4,1.9-0.4
		c0.3,0,0.5,0,0.7,0c0.2,0,0.4,0.1,0.5,0.1l-0.2,2c-0.1,0-0.3-0.1-0.4-0.1c-0.2,0-0.3,0-0.5,0c-0.3,0-0.6,0.1-0.8,0.2
		c-0.2,0.1-0.4,0.3-0.5,0.5c-0.1,0.2-0.2,0.4-0.2,0.7c0,0.3-0.1,0.5-0.1,0.7v1.6h2.2v1.9h-2.2v7.7h-2.4V391.7z"/>
	<path d="M537.9,398.2L537.9,398.2c-0.3,0.4-0.7,0.8-1.2,1s-1.1,0.4-1.8,0.4c-0.4,0-0.8,0-1.2-0.2c-0.4-0.1-0.8-0.3-1.2-0.5
		c-0.4-0.2-0.6-0.5-0.9-0.9c-0.2-0.4-0.4-0.8-0.4-1.4c0-0.7,0.2-1.3,0.6-1.7c0.4-0.4,0.9-0.8,1.6-1c0.6-0.2,1.3-0.4,2.1-0.4
		c0.8-0.1,1.5-0.1,2.3-0.1v-0.2c0-0.6-0.2-1-0.7-1.3c-0.4-0.3-1-0.4-1.5-0.4c-0.5,0-1,0.1-1.5,0.3c-0.5,0.2-0.9,0.5-1.2,0.8
		l-1.2-1.5c0.5-0.5,1.2-0.9,1.9-1.1c0.7-0.3,1.4-0.4,2.2-0.4c0.9,0,1.6,0.1,2.1,0.4c0.6,0.2,1,0.6,1.3,0.9c0.3,0.4,0.5,0.8,0.7,1.3
		c0.1,0.5,0.2,1,0.2,1.4v5.8h-2.2V398.2z M537.8,395h-0.5c-0.4,0-0.8,0-1.2,0s-0.8,0.1-1.2,0.2c-0.4,0.1-0.7,0.3-0.9,0.5
		c-0.2,0.2-0.4,0.5-0.4,0.8c0,0.2,0,0.4,0.1,0.6c0.1,0.2,0.2,0.3,0.4,0.4s0.3,0.2,0.5,0.2s0.4,0.1,0.6,0.1c0.8,0,1.5-0.2,1.9-0.7
		c0.4-0.4,0.6-1,0.6-1.8V395z"/>
	<path d="M542.9,389.8h2.3v1.6h0c0.3-0.6,0.6-1,1.1-1.4c0.5-0.3,1-0.5,1.7-0.5c0.1,0,0.2,0,0.3,0s0.2,0,0.3,0v2.2
		c-0.2,0-0.3-0.1-0.4-0.1c-0.1,0-0.2,0-0.3,0c-0.5,0-1,0.1-1.3,0.3c-0.3,0.2-0.6,0.4-0.8,0.7c-0.2,0.3-0.3,0.6-0.4,0.9
		c-0.1,0.3-0.1,0.5-0.1,0.7v5.1h-2.4V389.8z"/>
	<path d="M550.2,389.8h2.3v1.6h0c0.3-0.6,0.6-1,1.1-1.4c0.5-0.3,1-0.5,1.7-0.5c0.1,0,0.2,0,0.3,0s0.2,0,0.3,0v2.2
		c-0.2,0-0.3-0.1-0.4-0.1c-0.1,0-0.2,0-0.3,0c-0.5,0-1,0.1-1.3,0.3c-0.3,0.2-0.6,0.4-0.8,0.7c-0.2,0.3-0.3,0.6-0.4,0.9
		c-0.1,0.3-0.1,0.5-0.1,0.7v5.1h-2.4V389.8z"/>
	<path d="M557.2,386.5c0-0.4,0.1-0.7,0.4-1c0.3-0.3,0.6-0.4,1.1-0.4c0.4,0,0.8,0.1,1.1,0.4c0.3,0.3,0.5,0.6,0.5,1
		c0,0.4-0.1,0.8-0.5,1c-0.3,0.3-0.7,0.4-1.1,0.4c-0.4,0-0.8-0.1-1.1-0.4C557.3,387.3,557.2,386.9,557.2,386.5z M557.5,389.8h2.4v9.6
		h-2.4V389.8z"/>
	<path d="M561.4,389.8h2.6l2.5,7h0l2.5-7h2.5l-3.8,9.6h-2.6L561.4,389.8z"/>
	<path d="M579,398.2L579,398.2c-0.3,0.4-0.7,0.8-1.2,1s-1.1,0.4-1.8,0.4c-0.4,0-0.8,0-1.2-0.2c-0.4-0.1-0.8-0.3-1.2-0.5
		c-0.4-0.2-0.6-0.5-0.9-0.9c-0.2-0.4-0.4-0.8-0.4-1.4c0-0.7,0.2-1.3,0.6-1.7c0.4-0.4,0.9-0.8,1.6-1c0.6-0.2,1.3-0.4,2.1-0.4
		c0.8-0.1,1.5-0.1,2.3-0.1v-0.2c0-0.6-0.2-1-0.7-1.3c-0.4-0.3-1-0.4-1.5-0.4c-0.5,0-1,0.1-1.5,0.3c-0.5,0.2-0.9,0.5-1.2,0.8
		l-1.2-1.5c0.5-0.5,1.2-0.9,1.9-1.1c0.7-0.3,1.4-0.4,2.2-0.4c0.9,0,1.6,0.1,2.1,0.4c0.6,0.2,1,0.6,1.3,0.9c0.3,0.4,0.5,0.8,0.7,1.3
		c0.1,0.5,0.2,1,0.2,1.4v5.8H579V398.2z M579,395h-0.5c-0.4,0-0.8,0-1.2,0s-0.8,0.1-1.2,0.2c-0.4,0.1-0.7,0.3-0.9,0.5
		c-0.2,0.2-0.4,0.5-0.4,0.8c0,0.2,0,0.4,0.1,0.6c0.1,0.2,0.2,0.3,0.4,0.4s0.3,0.2,0.5,0.2s0.4,0.1,0.6,0.1c0.8,0,1.5-0.2,1.9-0.7
		c0.4-0.4,0.6-1,0.6-1.8V395z"/>
	<path d="M584.1,384.3h2.4v15.1h-2.4V384.3z"/>
	<path d="M594.1,386.5c0-0.4,0.1-0.7,0.4-1c0.3-0.3,0.6-0.4,1.1-0.4c0.4,0,0.8,0.1,1.1,0.4c0.3,0.3,0.5,0.6,0.5,1
		c0,0.4-0.1,0.8-0.5,1c-0.3,0.3-0.7,0.4-1.1,0.4c-0.4,0-0.8-0.1-1.1-0.4C594.3,387.3,594.1,386.9,594.1,386.5z M594.5,389.8h2.4v9.6
		h-2.4V389.8z"/>
	<path d="M599.8,389.8h2.3v1.5h0c0.2-0.5,0.6-0.9,1.1-1.3c0.5-0.4,1.1-0.5,1.9-0.5c0.6,0,1.2,0.1,1.6,0.3c0.4,0.2,0.8,0.5,1.1,0.9
		c0.3,0.4,0.5,0.8,0.6,1.2c0.1,0.5,0.2,0.9,0.2,1.4v6h-2.4v-5.3c0-0.3,0-0.6-0.1-0.9s-0.1-0.6-0.3-0.8c-0.1-0.2-0.3-0.5-0.5-0.6
		c-0.2-0.2-0.5-0.2-0.9-0.2s-0.7,0.1-1,0.2c-0.3,0.2-0.5,0.4-0.7,0.6c-0.2,0.2-0.3,0.5-0.4,0.8c-0.1,0.3-0.1,0.6-0.1,1v5.3h-2.4
		V389.8z"/>
	<path d="M348.4,412.6c-0.4-0.5-0.9-0.9-1.5-1.1c-0.6-0.2-1.2-0.3-1.8-0.3c-0.7,0-1.4,0.1-2,0.4c-0.6,0.3-1.1,0.6-1.5,1.1
		c-0.4,0.5-0.8,1-1,1.6c-0.2,0.6-0.3,1.3-0.3,2c0,0.8,0.1,1.5,0.3,2.1c0.2,0.6,0.5,1.2,1,1.7c0.4,0.5,0.9,0.8,1.5,1.1
		c0.6,0.3,1.2,0.4,2,0.4c0.8,0,1.4-0.1,2-0.4c0.6-0.3,1.1-0.7,1.4-1.2l2,1.4c-0.6,0.8-1.4,1.4-2.3,1.8c-0.9,0.4-2,0.7-3.2,0.7
		c-1.1,0-2.1-0.2-3-0.6c-0.9-0.4-1.7-0.9-2.4-1.5c-0.7-0.7-1.2-1.4-1.6-2.4c-0.4-0.9-0.6-1.9-0.6-3c0-1.1,0.2-2.2,0.6-3.1
		c0.4-0.9,0.9-1.7,1.6-2.3c0.7-0.6,1.5-1.1,2.4-1.5c0.9-0.3,1.9-0.5,3-0.5c0.5,0,0.9,0,1.4,0.1s1,0.2,1.4,0.4
		c0.5,0.2,0.9,0.4,1.3,0.7c0.4,0.3,0.7,0.6,1,1L348.4,412.6z"/>
	<path d="M352.1,409.2h2.5v14.2h-2.5V409.2z"/>
	<path d="M368,412.6c-0.4-0.5-0.9-0.9-1.5-1.1s-1.2-0.3-1.8-0.3c-0.7,0-1.4,0.1-2,0.4c-0.6,0.3-1.1,0.6-1.6,1.1
		c-0.4,0.5-0.8,1-1,1.6c-0.2,0.6-0.3,1.3-0.3,2c0,0.8,0.1,1.5,0.3,2.1s0.5,1.2,1,1.7c0.4,0.5,0.9,0.8,1.5,1.1c0.6,0.3,1.2,0.4,2,0.4
		c0.8,0,1.4-0.1,2-0.4c0.6-0.3,1.1-0.7,1.4-1.2l2,1.4c-0.6,0.8-1.4,1.4-2.3,1.8c-0.9,0.4-2,0.7-3.2,0.7c-1.1,0-2.1-0.2-3-0.6
		c-0.9-0.4-1.7-0.9-2.4-1.5c-0.7-0.7-1.2-1.4-1.6-2.4c-0.4-0.9-0.6-1.9-0.6-3c0-1.1,0.2-2.2,0.6-3.1c0.4-0.9,0.9-1.7,1.6-2.3
		c0.7-0.6,1.5-1.1,2.4-1.5c0.9-0.3,1.9-0.5,3-0.5c0.5,0,0.9,0,1.4,0.1c0.5,0.1,1,0.2,1.4,0.4c0.5,0.2,0.9,0.4,1.3,0.7
		c0.4,0.3,0.7,0.6,1,1L368,412.6z"/>
	<path d="M383,418.2c0,0.9-0.1,1.6-0.4,2.3c-0.3,0.7-0.7,1.3-1.2,1.8c-0.5,0.5-1.1,0.8-1.8,1.1c-0.7,0.3-1.4,0.4-2.3,0.4
		c-0.8,0-1.6-0.1-2.3-0.4c-0.7-0.3-1.3-0.6-1.8-1.1c-0.5-0.5-0.9-1.1-1.2-1.8s-0.4-1.5-0.4-2.3v-9h2.5v8.9c0,0.4,0.1,0.8,0.2,1.2
		c0.1,0.4,0.3,0.8,0.5,1.1c0.2,0.3,0.6,0.6,1,0.8c0.4,0.2,0.9,0.3,1.5,0.3c0.6,0,1.1-0.1,1.5-0.3c0.4-0.2,0.7-0.5,1-0.8
		c0.2-0.3,0.4-0.7,0.5-1.1c0.1-0.4,0.2-0.8,0.2-1.2v-8.9h2.5V418.2z"/>
	<path d="M390.5,410.5c0-0.4,0.1-0.7,0.4-1c0.3-0.3,0.6-0.4,1.1-0.4c0.4,0,0.8,0.1,1.1,0.4c0.3,0.3,0.5,0.6,0.5,1
		c0,0.4-0.1,0.8-0.5,1c-0.3,0.3-0.7,0.4-1.1,0.4c-0.4,0-0.8-0.1-1.1-0.4C390.7,411.3,390.5,410.9,390.5,410.5z M390.9,413.8h2.4v9.6
		h-2.4V413.8z"/>
	<path d="M401.5,416.4c-0.2-0.3-0.5-0.5-0.9-0.7c-0.4-0.2-0.8-0.3-1.2-0.3c-0.4,0-0.7,0.1-1.1,0.2s-0.5,0.4-0.5,0.8s0.2,0.6,0.5,0.8
		s0.9,0.3,1.5,0.5c0.4,0.1,0.7,0.2,1.1,0.3c0.4,0.1,0.7,0.3,1,0.5c0.3,0.2,0.5,0.5,0.7,0.8c0.2,0.3,0.3,0.7,0.3,1.2
		c0,0.6-0.1,1.1-0.3,1.5c-0.2,0.4-0.5,0.7-0.9,1c-0.4,0.3-0.8,0.4-1.3,0.6c-0.5,0.1-1,0.2-1.5,0.2c-0.7,0-1.5-0.1-2.2-0.4
		c-0.7-0.3-1.3-0.7-1.8-1.2l1.6-1.5c0.3,0.3,0.6,0.6,1,0.9s0.9,0.3,1.4,0.3c0.2,0,0.4,0,0.5-0.1s0.3-0.1,0.5-0.2s0.3-0.2,0.4-0.3
		c0.1-0.1,0.1-0.3,0.1-0.5c0-0.4-0.2-0.7-0.5-0.9c-0.4-0.2-0.9-0.3-1.7-0.5c-0.4-0.1-0.7-0.2-1-0.3c-0.3-0.1-0.6-0.3-0.9-0.5
		c-0.3-0.2-0.5-0.5-0.6-0.8s-0.2-0.7-0.2-1.1c0-0.5,0.1-1,0.3-1.4s0.5-0.7,0.9-1c0.4-0.2,0.8-0.4,1.2-0.5s0.9-0.2,1.4-0.2
		c0.7,0,1.4,0.1,2,0.4c0.7,0.2,1.2,0.6,1.6,1.1L401.5,416.4z"/>
	<path d="M417.5,409.2l-3.6,5.2l0,0c0.2-0.1,0.4-0.1,0.7-0.2c0.3,0,0.6-0.1,0.8-0.1c0.6,0,1.2,0.1,1.8,0.3c0.5,0.2,1,0.6,1.4,1
		c0.4,0.4,0.7,0.9,1,1.4c0.2,0.6,0.4,1.1,0.4,1.8c0,0.7-0.1,1.4-0.4,2s-0.6,1.1-1.1,1.6c-0.5,0.4-1,0.8-1.6,1
		c-0.6,0.2-1.3,0.4-2,0.4c-0.7,0-1.4-0.1-2.1-0.4c-0.6-0.2-1.2-0.6-1.6-1s-0.8-1-1.1-1.5s-0.4-1.2-0.4-1.9c0-0.4,0-0.8,0.1-1.1
		s0.2-0.7,0.3-1c0.1-0.3,0.3-0.7,0.5-1s0.4-0.7,0.6-1l3.5-5.5H417.5z M412,419c0,0.4,0.1,0.7,0.2,1.1c0.1,0.3,0.3,0.6,0.5,0.9
		c0.2,0.3,0.5,0.5,0.9,0.6c0.3,0.1,0.7,0.2,1.1,0.2c0.8,0,1.5-0.3,2-0.8c0.5-0.5,0.8-1.2,0.8-2c0-0.4-0.1-0.8-0.2-1.1
		s-0.3-0.6-0.5-0.9s-0.5-0.4-0.8-0.6c-0.3-0.1-0.7-0.2-1.1-0.2c-0.4,0-0.8,0.1-1.1,0.2c-0.3,0.1-0.6,0.3-0.9,0.6
		c-0.2,0.2-0.4,0.5-0.6,0.9C412.1,418.2,412,418.5,412,419z"/>
	<path d="M424.6,413.8v1.3h0.1c0.1-0.2,0.3-0.4,0.5-0.6s0.4-0.4,0.7-0.5c0.3-0.2,0.6-0.3,0.9-0.4c0.4-0.1,0.8-0.1,1.2-0.1
		c0.7,0,1.3,0.1,1.9,0.4s1.1,0.6,1.5,1.1c0.4,0.5,0.7,1,1,1.6c0.2,0.6,0.3,1.3,0.3,2s-0.1,1.4-0.3,2c-0.2,0.6-0.5,1.2-0.9,1.6
		c-0.4,0.5-0.9,0.8-1.5,1.1s-1.2,0.4-2,0.4c-0.7,0-1.3-0.1-1.9-0.4c-0.6-0.3-1-0.7-1.3-1.1h0v6.1h-2.4v-14.4H424.6z M430.2,418.6
		c0-0.4-0.1-0.7-0.2-1.1c-0.1-0.4-0.3-0.7-0.5-1c-0.2-0.3-0.5-0.5-0.9-0.7c-0.3-0.2-0.8-0.3-1.2-0.3c-0.4,0-0.8,0.1-1.2,0.3
		c-0.3,0.2-0.6,0.4-0.9,0.7s-0.4,0.6-0.6,1c-0.1,0.4-0.2,0.7-0.2,1.1s0.1,0.7,0.2,1.1c0.1,0.4,0.3,0.7,0.6,1
		c0.2,0.3,0.5,0.5,0.9,0.7c0.3,0.2,0.7,0.3,1.2,0.3c0.5,0,0.9-0.1,1.2-0.3s0.6-0.4,0.9-0.7s0.4-0.6,0.5-1S430.2,418.9,430.2,418.6z"
		/>
	<path d="M446.4,413.5c0.6,0,1.2,0.1,1.6,0.3c0.4,0.2,0.8,0.5,1.1,0.9c0.3,0.4,0.5,0.8,0.6,1.2c0.1,0.5,0.2,0.9,0.2,1.4v6h-2.4v-5.3
		c0-0.3,0-0.6-0.1-0.9c0-0.3-0.1-0.6-0.3-0.8c-0.1-0.2-0.3-0.5-0.5-0.6c-0.2-0.2-0.5-0.2-0.9-0.2c-0.4,0-0.7,0.1-1,0.2
		c-0.3,0.2-0.5,0.4-0.7,0.6c-0.2,0.3-0.3,0.5-0.4,0.8s-0.1,0.6-0.1,0.9v5.2h-2.4v-5.8c0-0.6-0.1-1.1-0.4-1.5
		c-0.3-0.4-0.7-0.6-1.3-0.6c-0.4,0-0.7,0.1-0.9,0.2c-0.3,0.2-0.5,0.4-0.7,0.6c-0.2,0.2-0.3,0.5-0.4,0.8c-0.1,0.3-0.1,0.6-0.1,1v5.3
		h-2.4v-9.6h2.3v1.5h0c0.1-0.2,0.2-0.5,0.4-0.7c0.2-0.2,0.4-0.4,0.6-0.6c0.2-0.2,0.5-0.3,0.8-0.4c0.3-0.1,0.7-0.1,1.1-0.1
		c0.7,0,1.4,0.2,1.9,0.5s0.9,0.8,1.1,1.3c0.3-0.6,0.7-1,1.3-1.4C445.1,413.7,445.7,413.5,446.4,413.5z"/>
	<path d="M452.3,422c0-0.4,0.2-0.8,0.5-1.1s0.7-0.5,1.1-0.5c0.4,0,0.8,0.1,1.1,0.4c0.3,0.3,0.5,0.7,0.5,1.1c0,0.4-0.2,0.8-0.5,1.1
		c-0.3,0.3-0.7,0.5-1.1,0.5c-0.2,0-0.4,0-0.6-0.1s-0.4-0.2-0.5-0.3c-0.1-0.1-0.3-0.3-0.4-0.5S452.3,422.2,452.3,422z"/>
</g>
</svg>
