<?xml version="1.0" encoding="utf-8"?>
<!-- Generator: Adobe Illustrator 25.0.0, SVG Export Plug-In . SVG Version: 6.00 Build 0)  -->
<svg version="1.1" id="Layer_1" xmlns="http://www.w3.org/2000/svg" xmlns:xlink="http://www.w3.org/1999/xlink" x="0px" y="0px"
	 viewBox="0 0 200.1 200.1" style="enable-background:new 0 0 200.1 200.1;" xml:space="preserve">
<style type="text/css">
	.st0{opacity:7.703220e-02;fill:#E13856;enable-background:new    ;}
	.st1{fill:#FFFFFF;}
	.st2{fill:#DBDBDB;}
	.st3{fill:#E8E8E8;}
	.st4{fill:none;stroke:#FFFFFF;stroke-width:1.5808;stroke-linecap:round;stroke-linejoin:round;stroke-miterlimit:10;}
	.st5{fill:#D3D3D3;}
	.st6{fill:#FFC9A6;}
	.st7{fill:#001B2F;}
	.st8{fill:#162026;}
	.st9{fill:#CC0D0D;}
	.st10{fill:#E51A1A;}
	.st11{fill:#00283F;}
	.st12{fill:#CE1313;}
	.st13{fill:none;stroke:#C61010;stroke-width:0.7208;stroke-linecap:round;stroke-miterlimit:10;}
	.st14{fill:none;stroke:#001B2F;stroke-width:0.7208;stroke-linecap:round;stroke-linejoin:round;stroke-miterlimit:10;}
	.st15{fill:#FFBE99;}
	.st16{clip-path:url(#SVGID_2_);fill:#121C21;}
	.st17{fill:#121C21;}
</style>
<g>
	<circle class="st0" cx="100" cy="100" r="100"/>
</g>
<path id="XMLID_26_" class="st1" d="M100.1,64.2c0,0-0.9-3.1-4.4-3.8c-3.5-0.7-4.9,0.4-4.9,0.4s-0.2-6.2-6.1-7.1
	c-5.9-0.9-7.9,2.1-7.9,2.1s-1.7-5.8-5.3-6.1c-3.6-0.4-5,1.2-5,1.2s1.7-4.7-0.7-7.6c-2.4-2.8-6-3-6-3s0.6-2.5-1.8-3.1
	c0,0-2.1-4.2-5.7-3.7c-3.6,0.4-4.2,3.2-4.2,3.2s-2.7,0-3.6,1.6c-0.9,1.6-0.4,3.2-0.4,3.2s-1.9,0.5-2.8,1.8c-0.9,1.3,0,4,0,4
	s-3.2-0.1-4.6,1.3c-1.4,1.4-1.1,4.2-1.1,4.2s-3.4-0.6-5.3,1.1c-1.9,1.7-1.1,4.8-1.1,4.8s-3.6-0.7-6.7,1.2s-3.9,4.4-3.9,4.4
	s8.5,1.9,16.3,0c0,0,3.9,1.9,7.4-1.1c0,0,1.7,2,4.8,1c0,0,3.1,2.6,6.4,0.3c0,0,3.7,2.1,5.7-0.7c0,0,2.2,2.2,4.2,0.5
	c0,0,5.6,3.2,10,0.1c0,0,3.3,1.6,6-0.6c0,0,2.3,2.2,5.7,0.5c0,0,4.9,2.1,8.6-0.1C93.8,64.1,96.9,65.4,100.1,64.2z"/>
<rect x="3.9" y="142.5" class="st2" width="193.4" height="0.6"/>
<g>
	<g>
		<g>
			<path class="st3" d="M138.6,132.8c11.6-0.6,11.2-4.9,8.3-8.8c-2.9-3.9,0.8-5.2-1.2-8.9c-2.4-4.4,0.4-4.3-1-8.8
				c-1.2-3.5-3.2-3.7-3.4-8.7c-0.2-5-9.3-5.3-7.3,1.7c2,7-3.1,5.3-2.2,10.4c1.2,6.8-3.6,6.4-2.1,11.7
				C131,126,121.2,133.7,138.6,132.8z"/>
			<line class="st4" x1="138.5" y1="138.1" x2="138.5" y2="109.9"/>
			<path class="st4" d="M135.7,114.8c0,0,0.5,2.1,2.8,4.4"/>
			<path class="st4" d="M133.6,123.2c0,0,0.8,2.1,4.9,4.3"/>
			<path class="st4" d="M142.5,118.2c0,0-0.5,3.4-4,5.8"/>
		</g>
		<g>
			<path class="st5" d="M158.5,129.8c32.9,0,9.1-15.9,11.3-25.7c2.2-9.8-1.9-13.2-4.1-21.6c-2.2-8.4-12.1-9.2-13.2,0.6
				c-1.1,9.8-5.4,9.7-5.1,20.9c0.2,8.4-8.2,12.2-5.7,18.6C144.9,130.7,158.5,129.8,158.5,129.8z"/>
			<line class="st4" x1="159.4" y1="134.9" x2="159.4" y2="88.3"/>
			<path class="st4" d="M164.7,94.1c0,0-0.9,4.7-5.3,9.5"/>
			<path class="st4" d="M166.4,113.7c0,0-1.2,4.7-7.1,9.5"/>
			<path class="st4" d="M153.5,104.1c0,0,0.8,5.6,5.9,9.6"/>
		</g>
	</g>
	<g>
		<path class="st3" d="M166.6,142.5c-22,0-20.7,0-24.3,0c-3.6,0-4.3-5.6-0.9-6.9c3.4-1.3,6.9-1.4,8.1-6.1c1.3-4.8,7.5-8.1,12.7-5
			c5.2,3.1,3.6,7.3,11.5,6.3c7.8-1,12.5,3.9,11.7,8.1c-0.9,4.1-6.4,3.6-7.9,3.6C176,142.5,166.6,142.5,166.6,142.5z"/>
		<path class="st5" d="M132.2,142.6c-7.3,0-6.4-7.7-1.2-7.4c5.2,0.3,3.7-6.8,10-6.8s3.6,4,9.6,6.1c6,2.1,3.8,8.1,0.5,8.1
			C148,142.6,132.2,142.6,132.2,142.6z"/>
	</g>
</g>
<g>
	<path class="st5" d="M70.3,132.2h2.5v-15.8c0-0.5-0.4-0.9-0.9-0.9h-0.7c-0.5,0-0.9,0.4-0.9,0.9V132.2z"/>
	<path class="st5" d="M75.3,135.8h-2.5v5.7c0,0.5,0.4,1,1,1h0.6c0.5,0,1-0.4,1-1V135.8z"/>
	<path class="st5" d="M27.1,135.8h-2.5v5.7c0,0.5,0.4,1,1,1h0.6c0.5,0,1-0.4,1-1V135.8z"/>
	<path class="st5" d="M27.1,132.2h2.5v-15.8c0-0.5-0.4-0.9-0.9-0.9H28c-0.5,0-0.9,0.4-0.9,0.9V132.2z"/>
	<g>
		<path class="st3" d="M22,118.2c0-0.8,0.6-1.4,1.4-1.4h52.9c0.8,0,1.4,0.6,1.4,1.4v3.3H22V118.2z"/>
		<path class="st3" d="M77.8,126.2v3.3c0,0.8-0.6,1.4-1.4,1.4H23.4c-0.8,0-1.4-0.6-1.4-1.4v-3.3H77.8z"/>
		<rect x="22" y="121.5" class="st5" width="55.8" height="4.7"/>
	</g>
	<path class="st3" d="M21.6,135.8h56.7c0.8,0,1.5-0.7,1.5-1.5v-0.6c0-0.8-0.7-1.5-1.5-1.5H21.6c-0.8,0-1.5,0.7-1.5,1.5v0.6
		C20.1,135.2,20.7,135.8,21.6,135.8z"/>
</g>
<g>
	<polygon class="st6" points="63.6,159.9 58.4,166.1 64.4,170.1 69.5,163.9 	"/>
	<polygon class="st6" points="120.9,170.1 123.5,177.8 130,174.7 127.4,167.2 	"/>
	<path class="st7" d="M104.1,105.4l-3.9,21.1c-0.8,4.2-2.3,8.3-4.4,12l-25.5,28.2l-10.1-6l23.5-32.5L90,90.8L104.1,105.4z"/>
	<path class="st8" d="M58.8,164.3c0.4-0.2,0.9,0,1,0.4c0.2,0.9,0.7,2.2,2.3,3.3c1.6,1.1,2.8,0.8,3.5,0.5c0.4-0.2,0.8-0.1,1,0.3
		l5.7,11.6c0.3,0.7,0.4,1.5,0.1,2.3l0,0c-0.2,0.7-1.1,0.9-1.7,0.4l-15.3-13.6c-0.6-0.5-0.6-1.5-0.1-2l2.8-2.8c0,0,0.1-0.1,0.2-0.1
		L58.8,164.3z"/>
	<path class="st6" d="M69,104c0.1,2.9-2.2,5.4-5.2,5.5c-2.9,0.1-5.4-2.2-5.5-5.2c-0.1-2.9,2.2-5.4,5.2-5.5
		C66.5,98.8,69,101.1,69,104z"/>
	<polygon class="st6" points="68.9,105.6 73,94 67.7,92.1 63.9,101.7 	"/>
	<path class="st6" d="M127,94.1c2.8,0.8,4.4,3.8,3.6,6.6c-0.8,2.8-3.8,4.4-6.6,3.6c-2.8-0.8-4.4-3.8-3.6-6.6
		C121.2,94.9,124.2,93.3,127,94.1z"/>
	<polygon class="st6" points="128.4,94.8 118.8,87.2 115.3,91.7 123.2,98.2 	"/>
	
		<rect x="106.8" y="69" transform="matrix(0.7297 -0.6838 0.6838 0.7297 -26.5735 99.1552)" class="st9" width="10.6" height="28.5"/>
	<path class="st10" d="M108.9,82.8h-22V52.3c0-4.9,4-8.8,8.8-8.8h0c7.3,0,13.2,5.9,13.2,13.2V82.8z"/>
	<path class="st11" d="M108.9,82.8l21.1,86l-10.7,4.1l-13.4-43.6l-15.3-28.5c-0.7-1.3-1.5-2.6-2.1-4c-1.2-2.6-1.7-5.5-1.7-8.3
		l0.1-5.7H108.9z"/>
	<path class="st8" d="M122.2,176.5c0-0.5,0.5-0.8,0.9-0.6c0.9,0.3,2.3,0.5,4-0.2c1.8-0.8,2.2-2,2.2-2.7c0-0.4,0.3-0.7,0.7-0.7
		l12.9,1.2c0.8,0.1,1.5,0.5,2,1.1l0,0c0.5,0.6,0.2,1.4-0.5,1.7l-19.5,6c-0.8,0.2-1.6-0.2-1.8-1l-1-3.8c0-0.1,0-0.1,0-0.2
		L122.2,176.5z"/>
	<path class="st10" d="M72.9,99.9l-10-3.6l8.9-28.6l16.8-20.8c1.7-2.4,5-3,7.4-1.3l0,0c2.4,1.7,3,5,1.3,7.4l-16,19.6L72.9,99.9z"/>
	<g>
		<path class="st12" d="M96.1,44.2c0.1,0.3,0.3,0.8,0.5,1.1c0.2,0.3,0.4,0.5,0.7,0.7c0.5,0.3,1.3,0.6,2.1,0.6c0.4,0,0.7,0,1.1,0
			c0.2,0,0.4-0.1,0.6-0.1c0.2-0.1,0.3-0.1,0.5-0.2c0.3-0.1,0.4-0.2,0.6-0.3c0.2-0.2,0.3-0.6,0.5-1l0-0.1c0.2-0.6,0.8-1,1.4-0.8
			c0.4,0.1,0.6,0.3,0.8,0.7c0.3,0.7,0.4,1.5,0.2,2.4c-0.2,0.9-0.9,1.8-1.6,2.3c-0.4,0.3-0.7,0.5-1.1,0.6c-0.3,0.1-0.7,0.3-1.1,0.4
			c-0.8,0.2-1.6,0.2-2.3,0.1c-0.7-0.1-1.4-0.3-2.1-0.6c-0.7-0.3-1.4-0.8-2-1.4c-0.6-0.6-0.9-1.5-1.1-2.2c-0.1-0.8-0.1-1.5,0.2-2.3
			c0.2-0.6,0.8-0.9,1.4-0.7c0.3,0.1,0.5,0.3,0.7,0.6L96.1,44.2z"/>
	</g>
	<path class="st6" d="M99.9,48.2L99.9,48.2c-2.6,0-4.6-2.1-4.6-4.6V28.3h8.5v16C103.7,46.5,102,48.2,99.9,48.2z"/>
	<line class="st13" x1="86.9" y1="65.7" x2="92.1" y2="59.8"/>
	<path class="st13" d="M77.6,69.7c0,0,1.6,0,2.4,2.5"/>
	<line class="st14" x1="104.6" y1="89.8" x2="109.4" y2="95.2"/>
	<line class="st14" x1="118.4" y1="168.9" x2="128.9" y2="165.5"/>
	<line class="st14" x1="87.2" y1="84.8" x2="109.1" y2="84.8"/>
	<polyline class="st14" points="96.4,84.8 114.7,128.4 123.6,166.6 	"/>
	<path class="st15" d="M100.2,37.7c0,0-0.5,4.3,3.5,5.7v-2.9L100.2,37.7z"/>
	<circle class="st6" cx="100.8" cy="28.3" r="9.2"/>
	<path class="st6" d="M104,41.4L104,41.4c-2.4,0-4.4-2-4.4-4.4v-8.8H110v7.2C110,38.7,107.3,41.4,104,41.4z"/>
	<path class="st6" d="M109.7,30.4l2,3c0.3,0.5-0.1,1.1-0.7,1.1l-2.3,0.4L109.7,30.4z"/>
	<g>
		<defs>
			<circle id="SVGID_1_" cx="100.8" cy="28.3" r="9.2"/>
		</defs>
		<clipPath id="SVGID_2_">
			<use xlink:href="#SVGID_1_"  style="overflow:visible;"/>
		</clipPath>
		<path class="st16" d="M101.7,32.3c0,0,3-2.9,1.3-7.6c0,0,6.6,0.8,8-1.5c0,0-5.5-11.3-15.8-5.7c-10.2,5.5-5.5,17.2-5.5,17.2
			l8.4,2.4L101.7,32.3z"/>
	</g>
	<path class="st6" d="M102.2,32.3c0,1.4-1.1,2.5-2.5,2.5c-1.4,0-2.5-1.1-2.5-2.5c0-1.4,1.1-2.5,2.5-2.5
		C101.1,29.8,102.2,30.9,102.2,32.3z"/>
	<path class="st17" d="M95,33.8l0.2,4.4c0,0,4.7,1.1,4.7-3.3l-2.8,0.5L95,33.8z"/>
</g>
</svg>
