<?xml version="1.0" encoding="utf-8"?>
<!-- Generator: Adobe Illustrator 25.0.0, SVG Export Plug-In . SVG Version: 6.00 Build 0)  -->
<svg version="1.1" id="Layer_1" xmlns="http://www.w3.org/2000/svg" xmlns:xlink="http://www.w3.org/1999/xlink" x="0px" y="0px"
	 viewBox="0 0 683 625" style="enable-background:new 0 0 683 625;" xml:space="preserve">
<style type="text/css">
	.st0{opacity:7.703220e-02;fill:#E13856;enable-background:new    ;}
	.st1{fill:#E2F5FF;}
	.st2{fill:#11A9FF;}
	.st3{fill:#333333;}
	.st4{fill-rule:evenodd;clip-rule:evenodd;fill:#B45B52;}
	.st5{fill-rule:evenodd;clip-rule:evenodd;fill:#00A3FF;}
	.st6{fill-rule:evenodd;clip-rule:evenodd;fill:#FFFFFF;}
	.st7{fill-rule:evenodd;clip-rule:evenodd;fill:#FFFFFF;filter:url(#Adobe_OpacityMaskFilter);}
	.st8{mask:url(#mask0_1_);}
	.st9{fill-rule:evenodd;clip-rule:evenodd;fill:#FF1849;}
	.st10{fill-rule:evenodd;clip-rule:evenodd;fill:#FFFFFF;filter:url(#Adobe_OpacityMaskFilter_1_);}
	.st11{mask:url(#mask1_1_);}
	.st12{fill-rule:evenodd;clip-rule:evenodd;}
	.st13{fill-rule:evenodd;clip-rule:evenodd;fill:#1A2E35;}
	.st14{fill-rule:evenodd;clip-rule:evenodd;fill:#9F2724;}
	.st15{fill-rule:evenodd;clip-rule:evenodd;fill:#417BFE;}
	.st16{fill-rule:evenodd;clip-rule:evenodd;fill:#F4F4F4;}
	.st17{fill-rule:evenodd;clip-rule:evenodd;fill:#FFFFFF;filter:url(#Adobe_OpacityMaskFilter_2_);}
	.st18{mask:url(#mask2_1_);}
	.st19{fill:#FFFFFF;}
	.st20{fill-rule:evenodd;clip-rule:evenodd;fill:#FFFFFF;filter:url(#Adobe_OpacityMaskFilter_3_);}
	.st21{mask:url(#mask3_1_);}
	.st22{fill-rule:evenodd;clip-rule:evenodd;fill:#D61335;}
	.st23{fill-rule:evenodd;clip-rule:evenodd;fill:#FFFFFF;filter:url(#Adobe_OpacityMaskFilter_4_);}
	.st24{mask:url(#mask4_1_);}
	.st25{fill-rule:evenodd;clip-rule:evenodd;fill:#375A64;}
	.st26{fill-rule:evenodd;clip-rule:evenodd;fill:#E1E1E1;}
	.st27{font-family:'Poppins-Medium';}
	.st28{font-size:30px;}
</style>
<circle class="st0" cx="301.5" cy="301.5" r="301.5"/>
<path class="st1" d="M265,113h410c4.4,0,8,3.6,8,8v304c0,4.4-3.6,8-8,8H265c-4.4,0-8-3.6-8-8V121C257,116.6,260.6,113,265,113z"/>
<path class="st2" d="M257,121c0-4.4,3.6-8,8-8h410c4.4,0,8,3.6,8,8v58H257V121z"/>
<path class="st3" d="M470.1,350.4c4.4,0,8.1-3.7,8.1-8.1s-3.7-8.1-8.1-8.1c-4.4,0-8.2,3.7-8.2,8.1S465.7,350.4,470.1,350.4z
	 M470.1,347.8c-2.9,0-5.2-2.5-5.2-5.5c0-3,2.4-5.5,5.2-5.5c2.8,0,5.2,2.5,5.2,5.5C475.3,345.3,472.9,347.8,470.1,347.8z
	 M484.9,337.5v-3h-3V350h3v-8.8c0.3-2.7,2.6-4.5,5.8-4.5v-2.6C488,334.1,485.9,335.4,484.9,337.5z"/>
<path class="st4" d="M259.5,128.5c6.6-8.2,12.1-14,12.1-14l-11.9-7.5l-8.6,10.5L259.5,128.5z"/>
<path class="st5" d="M173,105.6c0.1,0.3,0.5,1.1,0.7,1.6l0.8,1.9c0.7,1.3,1.3,2.5,1.9,3.8c1.2,2.5,2.5,4.9,3.9,7.3
	c2.7,4.7,5.7,9.2,9,13.5c3,4,6.5,7.6,10.3,10.8c1.7,1.4,3.5,2.6,5.3,3.6l1.3,0.7l1.3,0.5c0.4,0.2,0.8,0.3,1.2,0.4l0.3,0.1
	c0.2,0,0,0,0,0h-0.2c-0.4,0.1,0.8,0.1,2.5-0.5c2-0.8,3.9-1.7,5.7-2.9c4.5-2.9,8.7-6.1,12.6-9.7c4.2-3.7,8.2-7.8,12.2-12.1
	c2-2.1,3.9-4.3,5.8-6.5c1.9-2.2,3.8-4.5,5.4-6.6l20.8,16.2c-2.1,2.7-4.1,5.1-6.2,7.5c-2.1,2.4-4.2,4.8-6.3,7.2
	c-4.3,4.7-8.8,9.4-13.6,13.9c-5,4.7-10.4,9.1-16.1,12.9c-3.3,2.2-6.8,4.1-10.5,5.6c-2.2,0.9-4.5,1.6-6.8,2c-2.8,0.6-5.7,0.7-8.6,0.5
	c-0.8-0.1-1.6-0.2-2.4-0.4l-1.1-0.2l-0.8-0.2c-1.1-0.3-2.1-0.6-3.1-0.9l-3-1.1l-2.8-1.3c-3.5-1.7-6.9-3.8-10.1-6.1
	c-5.7-4.4-11-9.4-15.6-14.9c-4.4-5.2-8.4-10.6-12.1-16.3c-1.8-2.8-3.6-5.6-5.2-8.5c-0.8-1.5-1.6-2.9-2.4-4.4l-1.2-2.3
	c-0.4-0.8-0.8-1.5-1.2-2.5L173,105.6z"/>
<path class="st5" d="M173,105.6c0.1,0.3,0.5,1.1,0.7,1.6l0.8,1.9c0.7,1.3,1.3,2.5,1.9,3.8c1.2,2.5,2.5,4.9,3.9,7.3
	c2.7,4.7,5.7,9.2,9,13.5c3,4,6.5,7.6,10.3,10.8c1.7,1.4,3.5,2.6,5.3,3.6l1.3,0.7l1.3,0.5c0.4,0.2,0.8,0.3,1.2,0.4l0.3,0.1
	c0.2,0,0,0,0,0h-0.2c-0.4,0.1,0.8,0.1,2.5-0.5c2-0.8,3.9-1.7,5.7-2.9c4.5-2.9,8.7-6.1,12.6-9.7c4.2-3.7,8.2-7.8,12.2-12.1
	c2-2.1,3.9-4.3,5.8-6.5c1.9-2.2,3.8-4.5,5.4-6.6l20.8,16.2c-2.1,2.7-4.1,5.1-6.2,7.5c-2.1,2.4-4.2,4.8-6.3,7.2
	c-4.3,4.7-8.8,9.4-13.6,13.9c-5,4.7-10.4,9.1-16.1,12.9c-3.3,2.2-6.8,4.1-10.5,5.6c-2.2,0.9-4.5,1.6-6.8,2c-2.8,0.6-5.7,0.7-8.6,0.5
	c-0.8-0.1-1.6-0.2-2.4-0.4l-1.1-0.2l-0.8-0.2c-1.1-0.3-2.1-0.6-3.1-0.9l-3-1.1l-2.8-1.3c-3.5-1.7-6.9-3.8-10.1-6.1
	c-5.7-4.4-11-9.4-15.6-14.9c-4.4-5.2-8.4-10.6-12.1-16.3c-1.8-2.8-3.6-5.6-5.2-8.5c-0.8-1.5-1.6-2.9-2.4-4.4l-1.2-2.3
	c-0.4-0.8-0.8-1.5-1.2-2.5L173,105.6z"/>
<path class="st5" d="M140.7,304h-29.8L87.9,419.2h60.8L140.7,304z"/>
<path class="st6" d="M140.7,304h-29.8L87.9,419.2h60.8L140.7,304z"/>
<path class="st4" d="M136.3,573h15.5l-0.7,35.9h-15.5L136.3,573z"/>
<path class="st4" d="M56.7,573h15.5l-6.9,35.9H49.8L56.7,573z"/>
<defs>
	<filter id="Adobe_OpacityMaskFilter" filterUnits="userSpaceOnUse" x="45" y="607.1" width="45.9" height="17.6">
		<feColorMatrix  type="matrix" values="1 0 0 0 0  0 1 0 0 0  0 0 1 0 0  0 0 0 1 0"/>
	</filter>
</defs>
<mask maskUnits="userSpaceOnUse" x="45" y="607.1" width="45.9" height="17.6" id="mask0_1_">
	<path class="st7" d="M45,607.1h45.9v17.6H45V607.1z"/>
</mask>
<g class="st8">
	<path class="st9" d="M69,608c3.9,3.4,8.5,7,20.5,9.7c2.7,0.6,2,7-4.5,7c-6.5,0-16.2-0.5-20.9-0.5c-7.7,0-10.6,0.4-16.7,0.5
		c-0.2,0-0.3,0-0.5,0c-1.3-0.2-2.1-1.4-1.9-2.7l2.7-13.8c0.1-0.6,0.7-1.1,1.3-1.1h17.3C67.3,607,68.3,607.4,69,608z"/>
</g>
<path class="st9" d="M154.7,608.2c10.6,6.5,13.5,6.8,25.7,9.4c2.7,0.6,1.1,7-5.3,7c-10.5,0-11.2-0.5-20.2-0.5
	c-7.7,0-16.5,0.4-22.6,0.5c-0.1,0-0.3,0-0.4,0c-1.3-0.2-2.1-1.5-1.9-2.7l2.7-13.7c0.1-0.6,0.7-1.1,1.3-1.1H151
	C152.3,607.1,153.6,607.5,154.7,608.2z"/>
<path class="st4" d="M258.5,110l-0.2,4.2c6,2.4,12.6,3,19,1.9l-1.9-12.9l-10,0.1C261.7,103.4,258.7,106.3,258.5,110z"/>
<defs>
	<filter id="Adobe_OpacityMaskFilter_1_" filterUnits="userSpaceOnUse" x="275.4" y="103.2" width="15.7" height="12.9">
		<feColorMatrix  type="matrix" values="1 0 0 0 0  0 1 0 0 0  0 0 1 0 0  0 0 0 1 0"/>
	</filter>
</defs>
<mask maskUnits="userSpaceOnUse" x="275.4" y="103.2" width="15.7" height="12.9" id="mask1_1_">
	<path class="st10" d="M275.4,103.2h15.7v12.9h-15.7V103.2z"/>
</mask>
<g class="st11">
	<path class="st4" d="M275.4,103.2l1.9,12.9l11.8-4.2l1.9-8.2L275.4,103.2z"/>
</g>
<path class="st12" d="M136.3,573l-0.3,18.5h15.5l0.3-18.5H136.3z"/>
<path class="st12" d="M53.2,591.5h15.5l3.6-18.5H56.7L53.2,591.5z"/>
<path class="st6" d="M159.6,98c-4.8-1.3-9.6-2.2-14.6-2.7c-11.5-1.1-23.1-1.5-34.7-1.1c-3.4,0.2-6.8,0.5-10,0.8
	c-0.3,0-0.7,0.1-1,0.1c-9,1.6-14.9,10.1-13.3,19.1c9.3,54.4,4,106.6,4.9,118.1h82.9c8.4-65.9,0.7-107.3-3.6-123.7
	C168.7,103.4,164.7,99.4,159.6,98z"/>
<path class="st4" d="M135.2,66.7c-2,8.8-2.3,24.4,10.5,27.5c0,0,9.8,11.5-9.4,11.5c-21.1,0-25.9-11.5-25.9-11.5
	c7.7-7.6,6.3-21.6,3.8-32.9L135.2,66.7z"/>
<path class="st9" d="M137,103.9c-0.6-0.5-1.4-0.4-1.9,0.2l-4.7,5.4c-0.4,0.5-0.4,1.1,0,1.6l2.9,4.3c0.3,0.4,0.7,0.6,1.2,0.6l4.9-0.2
	c0.5,0,1-0.4,1.2-0.9l1.4-4.4c0.2-0.5,0-1-0.3-1.3l-4.6-5C137.1,104,137,103.9,137,103.9z"/>
<path class="st9" d="M135.5,115.7c0.4,9.8-0.7,47.2,0.2,64.7c0.9,17.5,6.1,27.3,6.1,27.3c2.7-8.7,4.2-17.8,4.3-26.9
	c-0.2-9.7-7.7-65.1-7.7-65.1H135.5z"/>
<path class="st12" d="M114.1,61.2c0.4,1.9,0.8,3.9,1.1,5.9c2.1,7.6,4.3,11.2,10.1,14.9c2.6,1.6,8.8,4,10.3,3.4
	c-2.3-6-1.7-13.4-0.5-18.6L114.1,61.2z"/>
<path class="st4" d="M155.3,53.3c0.2-3.7-2.6-6.9-6.4-7.1c-5-0.1-8.2,6.1-8.9,10.4c-0.8,4.8,2.3,8.9,7,7c3.5-1.5,6.3-4.3,7.7-7.9
	C155.1,55,155.3,54.2,155.3,53.3z"/>
<path class="st12" d="M155.3,53.3c0.2-3.7-2.6-6.9-6.4-7.1c-5-0.1-8.2,6.1-8.9,10.4c-0.8,4.8,2.3,8.9,7,7c3.5-1.5,6.3-4.3,7.7-7.9
	C155.1,55,155.3,54.2,155.3,53.3z"/>
<path class="st13" d="M141.7,25.7c4.2-0.6,8.3,4.4,9.2,11c0.9,6.6-1.8,12.5-6,13c-4.2,0.6-8.4-4.4-9.2-11
	C134.7,32.1,137.5,26.3,141.7,25.7z"/>
<path class="st4" d="M106.4,36.4C109,25.4,120,18.5,131,21c15.8,3.6,22.1,25.8,21.5,40c-0.7,15.8-17.9,25.9-31.5,16.1
	c-9.1-6.5-10.5-15.5-14.3-30.5C105.7,43.2,105.7,39.8,106.4,36.4z"/>
<path class="st13" d="M97.1,31.4c-10.3,7.1,5.2,32.1,10.4,33.4c1.6,3,4.3,5.2,7.5,6.3c0,0-6.2-13.1-3.3-11.7
	c8.8-7.8,2.4-22.8,2.4-22.8s19.4-0.8,28-6.2c8.6-5.4-1.4-12.7-10.4-14.6C119.6,13.2,99.1,16.8,97.1,31.4z"/>
<path class="st6" d="M109.5,55.4c-0.1-0.2,0-0.5,0.2-0.6l13.6-6.2c0,0,0.1,0,0.1-0.1c0.3-0.1,0.5,0.1,0.6,0.3
	c0.1,0.3-0.1,0.5-0.3,0.6l-13.6,6.2h-0.2C109.7,55.6,109.6,55.5,109.5,55.4z"/>
<path class="st4" d="M105,53.6c4.6-1.8,9.9,3.1,12.1,6.8c2.4,4.3,1.1,9.1-4,8.9c-3.9-0.2-7.5-2-10.1-4.9
	C99.9,60.9,100.4,55.4,105,53.6z"/>
<path class="st13" d="M119.2,232.4c0,0,9.2,114.2,11.7,166.8c2.4,48.2,0,188.7,0,188.7h26.2c0,0,20.4-143.3,21-192.5
	c0.5-47.2-4.4-163.1-4.4-163.1H119.2z"/>
<path class="st13" d="M161.2,575.2l-1.7,13.2h-30.2c0,0,0.4-12.1,0.5-12.1L161.2,575.2z"/>
<path class="st12" d="M123.6,289.8c2.3,30.1,4.9,66.4,6.4,93.8c6.4-28.1,9-63,8.1-120.5L123.6,289.8z"/>
<path class="st13" d="M90.8,232.4c0,0-10.9,114.9-16.1,167.1c-4.9,48-27.2,188.3-27.2,188.3h28.4c0,0,35.8-144.2,45.2-192.8
	c8.5-44.3,23.2-162.7,23.2-162.7L90.8,232.4z"/>
<path class="st13" d="M80.6,575.8l-3.4,12.7H46c0,0,2-11.5,2.1-11.5L80.6,575.8z"/>
<path class="st13" d="M131.3,44.5c0.8-0.1,1.7,0.8,1.9,2s-0.2,2.4-1,2.5c-0.8,0.1-1.6-0.8-1.9-2C130,45.7,130.5,44.6,131.3,44.5z"/>
<path class="st13" d="M146.5,40.9c0.8-0.1,1.7,0.8,1.9,2c0.2,1.2-0.2,2.4-1,2.5c-0.8,0.1-1.7-0.8-1.9-2
	C145.2,42.1,145.7,41,146.5,40.9z"/>
<path class="st14" d="M142.7,57.8c2.1-0.1,4.1-1.1,5.3-2.7c-3.3-2.5-6.3-5.4-8.9-8.6L142.7,57.8z"/>
<path class="st13" d="M129.8,59c-0.1-0.1-0.1-0.4,0-0.5c0.1-0.1,0.4-0.1,0.5,0c2.3,2.1,5.5,3.1,8.6,2.5c0.2,0,0.4,0.1,0.4,0.3
	c0,0.2-0.1,0.4-0.3,0.4C135.7,62.3,132.3,61.3,129.8,59z"/>
<path class="st13" d="M122.3,42.9c-0.4-0.2-0.6-0.6-0.4-1c0.8-2.2,2.6-3.9,4.9-4.4c0.4-0.1,0.8,0.2,0.9,0.6c0.1,0.4-0.2,0.8-0.6,0.9
	c-1.8,0.5-3.2,1.8-3.8,3.6c-0.1,0.2-0.3,0.4-0.5,0.4C122.7,43,122.5,43,122.3,42.9z"/>
<path class="st13" d="M148.5,37.2c-1.1-1.5-2.9-2.4-4.8-2.3h0c-0.4,0-0.8-0.3-0.8-0.7c0,0,0,0,0,0c0-0.4,0.2-0.7,0.6-0.8
	c2.4-0.1,4.6,1,6.1,2.8c0.3,0.3,0.3,0.7,0,1c-0.1,0.1-0.2,0.1-0.3,0.2C149,37.5,148.7,37.4,148.5,37.2z"/>
<path class="st6" d="M128.8,40.2c-1.5,0.3-2.9,1.2-3.8,2.5c-1.1,1.7-1.6,3.8-1.2,5.9c0.4,3.8,3.8,6.5,7.5,6.1
	c1.5-0.3,2.9-1.2,3.8-2.5c1.1-1.7,1.6-3.8,1.1-5.9c-0.4-3.4-3.2-6-6.6-6.2C129.5,40.2,129.1,40.2,128.8,40.2z M122.9,48.7
	c-0.4-2.3,0-4.7,1.3-6.6c1-1.5,2.6-2.5,4.4-2.9c4.3-0.4,8.2,2.6,8.7,6.9c0.5,2.3,0,4.7-1.3,6.6c-1,1.5-2.6,2.5-4.4,2.9
	c-0.4,0.1-0.7,0.1-1.1,0.1C126.6,55.5,123.5,52.6,122.9,48.7z"/>
<path class="st6" d="M136.6,46.7C136.6,46.7,136.6,46.7,136.6,46.7c-0.2-0.1-0.3-0.4-0.2-0.7c0.9-1.7,2.9-2.4,4.7-1.8
	c0.2,0.1,0.4,0.4,0.2,0.6c-0.1,0.2-0.4,0.4-0.6,0.3c-1.3-0.5-2.8,0.1-3.5,1.4c-0.1,0.1-0.2,0.2-0.4,0.2
	C136.7,46.8,136.7,46.7,136.6,46.7z"/>
<path class="st6" d="M146.3,36.3c-1.5,0.3-2.9,1.2-3.8,2.5c-1.2,1.7-1.6,3.8-1.2,5.9c0.4,3.8,3.8,6.5,7.5,6.1
	c1.5-0.3,2.9-1.2,3.8-2.5c1.2-1.7,1.6-3.8,1.2-5.9c-0.4-3.4-3.2-6-6.6-6.2C146.9,36.2,146.6,36.2,146.3,36.3z M140.4,44.8
	c-0.4-2.3,0-4.7,1.3-6.6c1-1.5,2.6-2.5,4.4-2.9c4.3-0.4,8.1,2.6,8.7,6.9c0.4,2.3,0,4.7-1.3,6.6c-1,1.5-2.6,2.5-4.4,2.9
	c-0.4,0.1-0.8,0.1-1.1,0.1C144.1,51.6,140.9,48.6,140.4,44.8z"/>
<path class="st5" d="M73.8,606.5c-1.8,0.4-3.6,1.1-5.2,2.1c2.7,0.5,4.7,0.4,5.5-0.3c0.4-0.3,0.6-0.8,0.5-1.3c0-0.2-0.1-0.3-0.2-0.4
	C74.2,606.6,74,606.5,73.8,606.5L73.8,606.5z M67.6,609.3c-0.1,0-0.3-0.2-0.3-0.3c0-0.1,0-0.3,0.2-0.4c0.6-0.3,5.5-3.4,7.2-2.5
	c0.4,0.2,0.6,0.6,0.7,1.1c0.1,0.7-0.2,1.4-0.7,1.9c-0.9,0.6-1.9,0.9-3,0.8C70.3,609.7,68.9,609.6,67.6,609.3z"/>
<path class="st5" d="M69.7,603.3c-1,1.4-1.6,3.1-1.7,4.9c1.6-1.2,3.5-3.8,3.3-4.8c0-0.1-0.1-0.4-0.5-0.4h-0.2
	C70.3,603,70,603.1,69.7,603.3z M67.6,609.3c-0.2,0-0.4-0.2-0.4-0.4c0-0.2,0.3-4.7,2-6.1c0.4-0.4,1-0.5,1.6-0.5c0.6,0,1.1,0.4,1.2,1
	c0.4,1.7-2.7,5.1-4.2,6C67.7,609.2,67.6,609.2,67.6,609.3L67.6,609.3z"/>
<path class="st5" d="M153.8,608.7c3.4,0.6,6,0.4,6.9-0.4c0.3-0.3,0.5-0.7,0.4-1.2c0-0.2-0.1-0.3-0.2-0.4c-0.2-0.1-0.5-0.1-0.7-0.1
	C157.9,606.9,155.7,607.6,153.8,608.7z M152.6,609.2c-0.1,0-0.2-0.1-0.3-0.2c-0.1-0.2,0-0.4,0.2-0.5c0.7-0.4,6.9-3.5,8.8-2.5
	c0.4,0.2,0.6,0.6,0.6,1c0.1,0.7-0.1,1.3-0.6,1.8c-1.1,0.7-2.4,1.1-3.8,1C155.8,609.7,154.2,609.5,152.6,609.2z"/>
<path class="st5" d="M155,603.5c-1.1,1.4-1.8,3-1.9,4.8c1.9-1.1,4.3-3.8,4.1-4.8c0-0.1-0.1-0.4-0.7-0.4h-0.2
	C155.8,603,155.4,603.1,155,603.5z M152.4,609.2c-0.1-0.1-0.2-0.2-0.2-0.3c0-0.2,0.4-4.4,2.3-6c0.6-0.5,1.3-0.7,2-0.6
	c1,0.1,1.4,0.6,1.4,1c0.3,1.8-3.3,5.1-5.1,6h-0.2C152.5,609.2,152.5,609.2,152.4,609.2z"/>
<path class="st5" d="M142.1,156.3c2.8,27.9,2.7,56.1-0.3,84c-7.6,64.2-21.2,127.6-40.7,189.3l-40.7-7.1c0,0,20.7-160.5,22.1-190.1
	c3-58.6-0.7-96.9-1.6-124.8c-0.2-6.2,4.4-11.5,10.5-12.2l17.9-2.1L142.1,156.3z"/>
<path class="st5" d="M142.1,156.3c2.8,27.9,2.7,56.1-0.3,84c-7.6,64.2-21.2,127.6-40.7,189.3l-40.7-7.1c0,0,20.7-160.5,22.1-190.1
	c3-58.6-0.7-96.9-1.6-124.8c-0.2-6.2,4.4-11.5,10.5-12.2l17.9-2.1L142.1,156.3z"/>
<path class="st15" d="M82.6,141.3c0.4,8.4,0.8,17.6,1,27.6c7.9-14.7,11.1-36,11.1-40.1L82.6,141.3z"/>
<path class="st15" d="M164.5,149.6l0.8,1c4.3,5.2,9.1,10,14.3,14.4c1.4,1.1,2.9,2.2,4.4,3.3c-3.4-20.3-10-38.9-12.3-43.3
	L164.5,149.6z"/>
<path class="st5" d="M140.1,152.7c-1.1,29.2-0.6,58.5,1.6,87.6c8.5,98.2,15,186.6,15,186.6l25.4-4.4c0,0,1.3-160.6-0.5-190.1
	c-1.3-21.8-3.8-84.3-5-115.6c-0.4-10.5-8.4-19.2-18.8-20.5L147.1,95L140.1,152.7z"/>
<path class="st5" d="M140.1,152.7c-1.1,29.2-0.6,58.5,1.6,87.6c8.5,98.2,15,186.6,15,186.6l25.4-4.4c0,0,1.3-160.6-0.5-190.1
	c-1.3-21.8-3.8-84.3-5-115.6c-0.4-10.5-8.4-19.2-18.8-20.5L147.1,95L140.1,152.7z"/>
<path class="st16" d="M112.7,89.6c-2.3,1.8-6,4-6,4c-0.9,13.6,23.8,22.1,23.8,22.1c1.4-4.2,3.3-8.3,5.6-12.1
	C113.8,98.2,112.7,89.6,112.7,89.6z"/>
<path class="st16" d="M142.6,92c2.3,0.5,4.6,1.3,6.8,2.1c2.5,7.4,0,15.6-6.2,20.2c-1.8-3.9-4.2-7.5-7-10.8
	C144.4,100.7,142.6,92,142.6,92z"/>
<path class="st15" d="M101.5,255.5l-19.4,9.5l28.3-24.3L101.5,255.5z"/>
<path class="st5" d="M106.7,121.5c-0.8,0.9-1.8,2.2-2.7,3.4l-2.7,3.7c-1.8,2.5-3.6,5-5.3,7.5c-3.4,5.1-6.6,10.3-9.4,15.6
	c-2.8,5.1-5.2,10.4-7.2,15.9c-1.8,4.7-2.8,9.6-3,14.6c0.1,5.1,1,10.2,2.7,15.1c1.8,5.5,4,10.9,6.7,16c2.8,5.4,5.9,10.6,9.3,15.6
	c1.7,2.6,3.4,5.1,5.3,7.5l2.8,3.6c0.8,1.2,2,2.4,2.7,3.4l-19.9,17.3c-1.4-1.6-2.4-2.9-3.5-4.2c-1.1-1.4-2.2-2.8-3.2-4.2
	c-2.1-2.8-4.1-5.6-6.1-8.5c-4-5.8-7.7-11.8-11-17.9c-3.5-6.4-6.5-13.1-8.9-19.9c-2.7-7.5-4.2-15.3-4.5-23.2c-0.1-4.2,0.2-8.4,1-12.5
	c0.7-3.8,1.6-7.6,2.8-11.3c2.2-6.9,4.9-13.7,8.1-20.2c3.1-6.4,6.4-12.5,10-18.5c1.8-3,3.6-5.9,5.5-8.8l2.9-4.4
	c1-1.5,1.9-2.8,3.1-4.5L106.7,121.5z"/>
<path class="st5" d="M106.7,121.5c-0.8,0.9-1.8,2.2-2.7,3.4l-2.7,3.7c-1.8,2.5-3.6,5-5.3,7.5c-3.4,5.1-6.6,10.3-9.4,15.6
	c-2.8,5.1-5.2,10.4-7.2,15.9c-1.8,4.7-2.8,9.6-3,14.6c0.1,5.1,1,10.2,2.7,15.1c1.8,5.5,4,10.9,6.7,16c2.8,5.4,5.9,10.6,9.3,15.6
	c1.7,2.6,3.4,5.1,5.3,7.5l2.8,3.6c0.8,1.2,2,2.4,2.7,3.4l-19.9,17.3c-1.4-1.6-2.4-2.9-3.5-4.2c-1.1-1.4-2.2-2.8-3.2-4.2
	c-2.1-2.8-4.1-5.6-6.1-8.5c-4-5.8-7.7-11.8-11-17.9c-3.5-6.4-6.5-13.1-8.9-19.9c-2.7-7.5-4.2-15.3-4.5-23.2c-0.1-4.2,0.2-8.4,1-12.5
	c0.7-3.8,1.6-7.6,2.8-11.3c2.2-6.9,4.9-13.7,8.1-20.2c3.1-6.4,6.4-12.5,10-18.5c1.8-3,3.6-5.9,5.5-8.8l2.9-4.4
	c1-1.5,1.9-2.8,3.1-4.5L106.7,121.5z"/>
<path class="st13" d="M107.1,134.1c-0.5-2.5,1.1-5,3.6-5.6c3.1-0.7,6.3,0.9,7.5,3.9c0.1,0.3,0.2,0.6,0.3,0.9
	c0.6,2.6-1.1,5.1-3.6,5.6c-3.1,0.7-6.3-0.9-7.5-3.9C107.3,134.8,107.2,134.5,107.1,134.1z"/>
<path class="st6" d="M107.1,134.1c-0.5-2.5,1.1-5,3.6-5.6c3.1-0.7,6.3,0.9,7.5,3.9c0.1,0.3,0.2,0.6,0.3,0.9c0.6,2.6-1.1,5.1-3.6,5.6
	c-3.1,0.7-6.3-0.9-7.5-3.9C107.3,134.8,107.2,134.5,107.1,134.1z"/>
<path class="st13" d="M113,131.9c-14.4-20.1-10.3-38-10.3-38.2c0-0.1,0-0.1,0.1-0.2c0.2-0.4,0.6-0.6,1-0.4s0.6,0.6,0.4,1
	c0,0.2-4,17.5,10.1,37c0.2,0.3,0.2,0.8-0.2,1c-0.1,0.1-0.3,0.1-0.4,0.1C113.4,132.2,113.2,132.1,113,131.9z"/>
<path class="st13" d="M162.4,122.3c-0.4,0-0.7-0.4-0.7-0.8c1.5-18.2-8.3-25.2-8.4-25.2c-0.3-0.2-0.4-0.7-0.2-1
	c0.2-0.3,0.7-0.4,1-0.2c0.4,0.3,10.6,7.3,9,26.5C163.2,122,162.9,122.3,162.4,122.3L162.4,122.3z"/>
<path class="st13" d="M109.2,133.8c-0.6-2.5,1-5.1,3.6-5.7c3.1-0.7,6.2,0.9,7.5,3.8c0.1,0.3,0.3,0.6,0.3,1c0.5,2.5-1.1,5-3.6,5.6
	c-3.1,0.7-6.3-1-7.5-3.9C109.4,134.3,109.3,134,109.2,133.8z"/>
<path class="st6" d="M109.2,133.8c-0.6-2.5,1-5.1,3.6-5.7c3.1-0.7,6.2,0.9,7.5,3.8c0.1,0.3,0.3,0.6,0.3,1c0.5,2.5-1.1,5-3.6,5.6
	c-3.1,0.7-6.3-1-7.5-3.9C109.4,134.3,109.3,134,109.2,133.8z"/>
<path class="st6" d="M112.5,133.1c-0.3-1.3,0.6-2.7,1.9-3c1.6-0.4,3.3,0.5,4,2c0.1,0.2,0.1,0.3,0.2,0.5c0.3,1.3-0.6,2.7-1.9,3
	c-1.6,0.4-3.3-0.5-4-2C112.6,133.4,112.5,133.2,112.5,133.1z"/>
<path class="st13" d="M149.8,160.4l-1.4-24.5c0-0.4,0-0.7,0-1.1c0.1-7.7,6.4-13.9,14.1-13.8c8.3,0.1,15.1,6.5,15.6,14.8l1.4,24.5
	c0,0.2,0,0.3,0,0.5c0,3.4-2.8,6.2-6.2,6.1c-0.4,0-0.7-0.3-0.7-0.7c0-0.4,0.3-0.7,0.7-0.7c0.1,0,0.3,0,0.4,0c2.6-0.2,4.5-2.5,4.3-5.1
	l-1.4-24.5c-0.5-7.5-6.7-13.3-14.2-13.4c-0.3,0-0.6,0-1,0c-6.9,0.5-12.1,6.4-11.6,13.3l1.4,24.5c0.3,2.8,2.6,5.1,5.5,5.1h0
	c0.4,0,0.7,0.3,0.7,0.7c0,0.4-0.3,0.7-0.7,0.7C153.1,166.8,150.1,164,149.8,160.4z"/>
<path class="st13" d="M173.2,164c0.7,0,1.3,1,1.3,2.1c0.1,1.2-0.4,2.1-1.1,2.1c-0.7,0-1.3-1-1.3-2.1C172,164.9,172.5,164,173.2,164z
	"/>
<path class="st13" d="M156.6,164c0.7,0,1.3,1,1.3,2.1c0.1,1.2-0.4,2.1-1.1,2.1c-0.7,0-1.3-1-1.3-2.1
	C155.5,164.9,155.9,164,156.6,164z"/>
<defs>
	<filter id="Adobe_OpacityMaskFilter_2_" filterUnits="userSpaceOnUse" x="311" y="287" width="31" height="33">
		<feColorMatrix  type="matrix" values="1 0 0 0 0  0 1 0 0 0  0 0 1 0 0  0 0 0 1 0"/>
	</filter>
</defs>
<mask maskUnits="userSpaceOnUse" x="311" y="287" width="31" height="33" id="mask2_1_">
	<path class="st17" d="M311,287h31v33h-31V287z"/>
</mask>
<g class="st18">
	<path class="st9" d="M314.5,288.2c2.4-1.9,4.4-1.5,5.4,0.7c1.9,4,3.3,5.9,1.9,7.5c-2.6,1.8-4.4,2.6-3.4,4.5
		c1.9,4.7,5.7,8.8,10.2,11.2c1.7,1.1,2.7-0.8,4.6-3.2c1.6-1.3,3.4,0.1,7.2,2.4c2,1.2,2.1,3.2,0.2,5.5
		C329.3,329.9,301.1,298.9,314.5,288.2z"/>
</g>
<path class="st19" d="M390.6,155.3c2.6,0,5-1.1,6.7-2.9l-3.4-3c-0.8,1-2,1.7-3.3,1.7c-2.3,0-4.2-2-4.2-4.3c0-2.3,1.9-4.3,4.2-4.3
	c1.3,0,2.5,0.7,3.3,1.7l3.4-3c-1.7-1.8-4.1-2.9-6.7-2.9c-4.9,0-9,3.9-9,8.5S385.7,155.3,390.6,155.3z M405.4,155.3c3.8,0,7-3,7-6.5
	s-3.2-6.5-7-6.5c-3.8,0-7,3-7,6.5S401.5,155.3,405.4,155.3z M405.4,151.4c-1.5,0-2.7-1.2-2.7-2.7s1.2-2.6,2.7-2.6
	c1.4,0,2.7,1.2,2.7,2.6S406.8,151.4,405.4,151.4z M422.3,142.3c-1.5,0-2.7,0.6-3.5,1.5v-1.2h-4.6V155h4.6v-7c0-1.1,0.7-1.9,1.8-1.9
	c1.1,0,1.9,0.8,1.9,2v6.8h4.4v-7.9C426.9,144.3,425,142.3,422.3,142.3z M436.6,151.1c-0.2,0.2-0.7,0.4-1.1,0.4
	c-0.6,0-1.1-0.5-1.1-1.3v-3.9h2.4v-3.6h-2.4v-3.4H430v3.4h-1.6v3.6h1.6v4.8c0,2.5,1.7,4.2,4.2,4.2c1.1,0,2.4-0.5,3.2-1.3
	L436.6,151.1z M445.2,142.3c-2.1,0-3.9,0.6-5.7,1.5l1.4,2.8c1-0.5,1.8-0.8,3-0.8c1.4,0,2.5,0.7,2.5,1.9v0.1
	c-0.9-0.4-1.8-0.6-2.6-0.6c-3,0-5.4,1.7-5.4,4.1c0,2.3,2.1,4,4.8,4c1.2,0,2.4-0.4,3.2-1.2v0.9h4.4v-7.3
	C451,144.3,448.4,142.3,445.2,142.3z M444.5,152.6c-0.9,0-1.5-0.6-1.5-1.3c0-0.8,0.7-1.4,1.6-1.4c0.7,0,1.5,0.2,2,0.4v1.2
	C446.4,152,445.6,152.6,444.5,152.6z M459.7,155.3c2.3,0,4.1-0.9,5.3-2.4l-3-2.4c-0.5,0.6-1.4,1-2.2,1c-1.4,0-2.6-1.2-2.6-2.7
	c0-1.4,1.2-2.6,2.6-2.6c0.8,0,1.7,0.4,2.2,1l3-2.5c-1.2-1.4-3-2.3-5.2-2.3c-3.8,0-7,3-7,6.5S455.9,155.3,459.7,155.3z M473.9,151.1
	c-0.2,0.2-0.7,0.4-1.1,0.4c-0.6,0-1.1-0.5-1.1-1.3v-3.9h2.4v-3.6h-2.4v-3.4h-4.4v3.4h-1.6v3.6h1.6v4.8c0,2.5,1.7,4.2,4.2,4.2
	c1.1,0,2.4-0.5,3.2-1.3L473.9,151.1z M483.3,155h6.1c5.8,0,9.8-3.4,9.8-8.3c0-4.8-4.1-8.2-9.8-8.2h-6.1V155z M488,150.8v-8h2.3
	c2.5,0,4.3,1.7,4.3,4c0,2.4-1.8,4-4.3,4H488z M507.3,151.8c-1.2,0-2.1-0.8-2.4-1.9h8.8c0-4.8-2.4-7.6-6.3-7.6
	c-3.8,0-6.6,2.7-6.6,6.5c0,3.8,2.8,6.5,6.7,6.5c1.9,0,4-0.8,5.1-1.9l-2.5-2.6C509.2,151.4,508.2,151.8,507.3,151.8z M507.3,145.8
	c1,0,1.8,0.7,2.1,1.7h-4.5C505.3,146.4,506.2,145.8,507.3,145.8z M522.9,151.1c-0.2,0.2-0.7,0.4-1.1,0.4c-0.6,0-1.1-0.5-1.1-1.3
	v-3.9h2.4v-3.6h-2.4v-3.4h-4.4v3.4h-1.6v3.6h1.6v4.8c0,2.5,1.7,4.2,4.2,4.2c1.1,0,2.4-0.5,3.2-1.3L522.9,151.1z M531.5,142.3
	c-2.1,0-3.9,0.6-5.7,1.5l1.4,2.8c1-0.5,1.8-0.8,3-0.8c1.4,0,2.5,0.7,2.5,1.9v0.1c-0.9-0.4-1.8-0.6-2.6-0.6c-3,0-5.4,1.7-5.4,4.1
	c0,2.3,2.1,4,4.8,4c1.2,0,2.4-0.4,3.2-1.2v0.9h4.4v-7.3C537.2,144.3,534.6,142.3,531.5,142.3z M530.7,152.6c-0.9,0-1.5-0.6-1.5-1.3
	c0-0.8,0.7-1.4,1.6-1.4c0.7,0,1.5,0.2,2,0.4v1.2C532.7,152,531.8,152.6,530.7,152.6z M542,141.3c1.3,0,2.4-1.1,2.4-2.4
	c0-1.2-1.1-2.4-2.4-2.4c-1.3,0-2.4,1.1-2.4,2.4C539.6,140.2,540.7,141.3,542,141.3z M539.6,155h4.6v-12.4h-4.6V155z M546.9,155h4.6
	v-16.8h-4.6V155z M559.1,155.3c3.4,0,5.4-1.6,5.4-4.2c0-2.9-2.6-3.7-4.8-4.2c-1.2-0.3-1.8-0.4-1.8-0.8c0-0.4,0.4-0.7,1.1-0.7
	c1.2,0,2.6,0.6,3.6,1.3l1.6-2.8c-1.4-0.9-3.3-1.6-5.2-1.6c-3.2,0-5.2,1.9-5.2,4.3c0,2.9,2.5,3.5,4.8,4c1.2,0.2,1.9,0.5,1.9,0.9
	c0,0.4-0.3,0.6-1.2,0.6c-1.3,0-3.1-0.6-4.3-1.5l-1.7,2.8C554.7,154.6,556.9,155.3,559.1,155.3z"/>
<defs>
	<filter id="Adobe_OpacityMaskFilter_3_" filterUnits="userSpaceOnUse" x="316" y="222" width="22" height="33">
		<feColorMatrix  type="matrix" values="1 0 0 0 0  0 1 0 0 0  0 0 1 0 0  0 0 0 1 0"/>
	</filter>
</defs>
<mask maskUnits="userSpaceOnUse" x="316" y="222" width="22" height="33" id="mask3_1_">
	<path class="st20" d="M316,222h22v33h-22V222z"/>
</mask>
<g class="st21">
	<path class="st9" d="M327,238.7c-3,0-5.4-2.5-5.4-5.5s2.4-5.5,5.4-5.5c3,0,5.4,2.5,5.4,5.5S330,238.7,327,238.7z M327,222
		c-6.1,0-11,5-11,11.2c0,0.1,0,0.3,0,0.4c0,1.2,0.3,2.3,0.6,3.4C319,244.8,327,255,327,255s8-10.2,10.4-18.1
		c0.4-1.1,0.6-2.2,0.6-3.4c0-0.1,0-0.3,0-0.4C338,227,333.1,222,327,222z"/>
</g>
<path class="st22" d="M551.9,534.6c4.7-2.4,10.3-2.7,15.5-1.9c2.8,0.5,5.7,1.3,7.7,3.4c1.9,2.1,2.3,5.8,0.1,7.6
	c-1.3,1.1-3.1,1.2-4.8,1.2c-4.1,0-8.6-0.8-11.9,1.7c-1.9,1.4-3.1,3.7-5.3,4.4c-2.2,0.7-4.6-0.6-5.8-2.6c-1.2-2-1.2-4.4-0.7-6.7
	C546.6,541.8,547.1,537,551.9,534.6z"/>
<path class="st22" d="M541.1,513.7c2.9,4.1,8.5,2.8,11.1,0.2c2.6-2.5,3.7-6.2,4.7-9.6c2.3-7.9,4.6-16.2,2.9-24.3
	c-0.5-2.4-1.4-4.8-3.1-6.6c-1.7-1.8-4.3-2.9-6.7-2.2c-2.8,0.7-4.6,3.5-5.8,6.1c-3.7,7.7-5.7,16.3-5.7,24.9
	C538.3,506.2,538.8,510.4,541.1,513.7z"/>
<path class="st22" d="M533.2,519.6c3.1-3.7,3.7-9.1,2.3-13.8c-1.4-4.7-4.5-8.6-8.2-11.8c-4.2-3.8-9.2-6.7-14.6-8.6
	c-2.1-0.7-4.3-1.3-6.6-1.1c-2.2,0.2-4.5,1.4-5.5,3.3c-1.5,2.9-0.1,6.5,1.5,9.4c2.8,5.1,6,10,9.6,14.6c2.9,3.7,6.2,7.4,10.6,9
	c4.4,1.7,8.9,1.5,11.3-1.6"/>
<path class="st13" d="M540.9,575.8c0.1,0,0.1-0.7,0.3-1.9c0.1-1.4,0.3-3.1,0.5-5.1c0.2-2.1,0.6-4.7,1.1-7.5c0.6-2.8,1.5-5.8,2.7-8.8
	c1.2-3,2.7-5.8,4.5-8c1.8-2.2,3.8-3.8,5.7-4.7c1.9-0.9,3.6-1.3,4.8-1.5c1.2-0.1,1.9-0.2,1.9-0.3c0-0.1-0.7-0.1-1.9,0
	c-1.2,0.1-3,0.4-5,1.3c-2,0.9-4.2,2.5-6,4.8c-1.9,2.2-3.4,5.1-4.7,8.2c-1.2,3.1-2.1,6.1-2.7,9c-0.6,2.8-0.8,5.4-1,7.6
	c-0.2,2.2-0.2,3.9-0.3,5.1C540.8,575.1,540.8,575.8,540.9,575.8z"/>
<path class="st13" d="M541.2,571.9c0,0,0-0.3,0-0.9c0-0.7,0-1.5,0-2.5c0-2.2,0-5.3,0.1-9.1c0.2-7.7,0.9-16,2.1-27.6
	c1.2-11,2.8-23.7,4.6-32.1c0.4-1.9,0.7-3.6,1.1-5.1c0.3-1.5,0.6-2.8,0.9-3.8c0.2-1,0.4-1.8,0.6-2.4c0.1-0.6,0.2-0.8,0.2-0.9
	c0,0-0.1,0.3-0.3,0.8c-0.2,0.6-0.4,1.4-0.7,2.4c-0.3,1-0.6,2.3-1,3.8c-0.4,1.5-0.8,3.2-1.2,5.1c-1.7,7.5-3.5,18-4.8,29.7
	c-1.3,11.7-1.9,22.3-1.9,30.1c0,3.9,0,7,0.1,9.1c0.1,1,0.1,1.8,0.2,2.5C541.2,571.6,541.2,571.9,541.2,571.9z"/>
<path class="st13" d="M541.3,551.3c0.1,0,0-0.9,0-2.6c-0.1-1.7-0.3-4.1-0.8-7c-0.5-2.9-1.2-6.4-2.3-10.2c-0.5-1.7-1.6-5.9-4.3-12.1
	c-3.5-8.4-8.4-15.3-12.6-19.6c-1-1.1-2.1-1.9-3-2.7c-0.5-0.4-0.9-0.8-1.3-1.1c-0.4-0.3-0.8-0.5-1.1-0.8c-1.4-0.9-2.2-1.4-2.2-1.4
	c-0.1,0.2,3.1,2.1,7.2,6.4c4,4.3,8.7,11.1,12.2,19.5c2,4.5,3.3,8.6,4.3,12c1.1,3.8,1.9,7.2,2.4,10.1c0.5,2.9,0.8,5.3,1,7
	C541.1,550.4,541.2,551.3,541.3,551.3z"/>
<path class="st13" d="M521.4,587.5l2.1,28.2h36.2l2.1-28.2H521.4z"/>
<defs>
	<filter id="Adobe_OpacityMaskFilter_4_" filterUnits="userSpaceOnUse" x="517.9" y="576.4" width="48.2" height="46.7">
		<feColorMatrix  type="matrix" values="1 0 0 0 0  0 1 0 0 0  0 0 1 0 0  0 0 0 1 0"/>
	</filter>
</defs>
<mask maskUnits="userSpaceOnUse" x="517.9" y="576.4" width="48.2" height="46.7" id="mask4_1_">
	<path class="st23" d="M500,623.2h76.6V471H500V623.2z"/>
</mask>
<g class="st24">
	<path class="st13" d="M517.9,587.5h48.2v-11.1h-48.2V587.5z"/>
	<path class="st25" d="M517.9,614.7v3.1h2.3h45.1v-3.1H517.9z"/>
	<path class="st25" d="M522.4,623.2l-2.2-5.4h43.4l-2.6,5.4H522.4z"/>
	<path class="st26" d="M561.1,596.8c0,0,0,0.1-0.2,0.3c-0.1,0.2-0.3,0.4-0.5,0.7c-0.5,0.7-1.2,1.6-2.1,2.7l-0.1,0.1l-0.1-0.1
		c-1.3-1.8-3.1-4.3-5.2-7.2h0.3c-1.5,2.2-3.3,4.6-5.1,7.2l-0.2,0.2l-0.2-0.2c-1.9-2.2-3.9-4.7-6.1-7.2l0.3,0
		c-0.1,0.1-0.2,0.3-0.3,0.4c-1.9,2.4-3.7,4.6-5.4,6.8l-0.2,0.2l-0.2-0.2c-1.8-2.6-3.6-5-5.1-7.2l0.3,0c-2.5,2.9-4.7,5.3-6.3,7.2
		l-0.1,0.1l-0.1-0.1c-0.8-1.4-1.5-2.5-2-3.3c-0.2-0.4-0.4-0.6-0.5-0.9c-0.1-0.2-0.2-0.3-0.2-0.3c0,0,0.1,0.1,0.2,0.3
		c0.1,0.2,0.3,0.5,0.6,0.8c0.5,0.8,1.2,1.9,2.1,3.2l-0.2,0c1.6-1.9,3.7-4.4,6.2-7.3l0.2-0.2l0.1,0.2c1.6,2.2,3.3,4.6,5.2,7.2l-0.3,0
		c1.7-2.2,3.5-4.4,5.4-6.8c0.1-0.1,0.2-0.3,0.3-0.4l0.2-0.2l0.2,0.2c2.1,2.5,4.2,5,6,7.2l-0.3,0c1.9-2.6,3.6-5,5.2-7.2l0.2-0.2
		l0.1,0.2c2,2.9,3.8,5.4,5.1,7.2l-0.2,0c0.9-1.1,1.7-2,2.2-2.6c0.2-0.3,0.4-0.5,0.6-0.7C561,596.8,561.1,596.8,561.1,596.8z"/>
	<path class="st25" d="M562.3,587.4c0,0.1-9.1,0.2-20.3,0.2c-11.2,0-20.3-0.1-20.3-0.2c0-0.1,9.1-0.2,20.3-0.2
		C553.2,587.1,562.3,587.2,562.3,587.4z"/>
	<path class="st13" d="M564.1,618c0,0.1-9.9,0.2-22,0.2c-12.2,0-22-0.1-22-0.2c0-0.1,9.9-0.2,22-0.2
		C554.2,617.8,564.1,617.9,564.1,618z"/>
</g>
<path class="st13" d="M603,624.5c0,0.1-135,0.1-301.5,0.1C135,624.6,0,624.6,0,624.5c0-0.1,135-0.1,301.5-0.1
	C468,624.4,603,624.4,603,624.5z"/>
<text transform="matrix(1 0 0 1 360.652 250.4795)" class="st27 st28">Ward 4D - 4th foor</text>
<text transform="matrix(1 0 0 1 360.652 312.5)" class="st27 st28">(021)423 4100</text>
<text transform="matrix(1 0 0 1 360.652 390.2197)" class="st27 st28">(021)423 4102</text>
</svg>
