<?xml version="1.0" encoding="utf-8"?>
<!-- Generator: Adobe Illustrator 25.0.0, SVG Export Plug-In . SVG Version: 6.00 Build 0)  -->
<svg version="1.1" id="Layer_1" xmlns="http://www.w3.org/2000/svg" xmlns:xlink="http://www.w3.org/1999/xlink" x="0px" y="0px"
	 viewBox="0 0 300 300" style="enable-background:new 0 0 300 300;" xml:space="preserve">
<style type="text/css">
	.st0{opacity:9.000000e-02;fill:#FF3556;}
	.st1{clip-path:url(#SVGID_2_);}
	.st2{fill:#F4A773;}
	.st3{opacity:0.35;}
	.st4{fill:#E0AD74;}
	.st5{fill:#7692B5;}
	.st6{opacity:0.55;}
	.st7{fill:#FFBF9D;}
	.st8{fill:#373736;}
	.st9{fill:#0086C3;}
	.st10{fill:#00A2FF;}
	.st11{fill:#FFFFFF;}
	.st12{fill:#D1F5FF;}
	.st13{fill:#86D0F5;}
</style>
<g>
	<circle class="st0" cx="150" cy="150" r="150"/>
	<g>
		<defs>
			<circle id="SVGID_1_" cx="150" cy="150" r="150"/>
		</defs>
		<clipPath id="SVGID_2_">
			<use xlink:href="#SVGID_1_"  style="overflow:visible;"/>
		</clipPath>
		<g class="st1">
			<g>
				<g>
					<g>
						<path class="st2" d="M-150.3,1357.2c0,0,8.7,28,17.1,40.9c9.4,14.3,2.2,47-27,48.2c-30.3,1.2-65.9,38.1-85,52.7
							c-19.3,14.8-97,26.3-94.2,8.9c1.7-10.4,7.7-10.6,15.3-14.2c6.2-2.9,12.1-3.7,23.6-12.3c25.1-18.7,28-42.9,74.4-85.3
							c20.8-19,24.4-39.2,24.4-39.2L-150.3,1357.2z"/>
					</g>
					<g class="st3">
						<path class="st4" d="M-324.1,1493.7c1.5-0.7,2.9-1.2,4.4-1.8c8.7,5.9,20,9.3,31.4,8c22.8-2.6,43.7-10.8,59.3-28.3
							c17-19,33.4-25,54.8-36.5c15.2-8.2,25.4-23.1,20.2-41.1c-2.7-9.6-6.8-17.8-11.5-26.5c-1.9-3.5-3.2-7-4.2-10.5l19.4,0.1
							c0,0,8.7,28,17.1,40.9c9.4,14.3,2.2,47-27,48.2c-30.3,1.2-65.9,38.1-85,52.7c-19.3,14.8-97,26.3-94.2,8.9
							C-337.8,1497.4-331.8,1497.2-324.1,1493.7z"/>
					</g>
					<g>
						<path class="st2" d="M164.1,1427.2c0,0-9.8,27.6-18.7,40.2c-9.9,13.9-4.1,46.9,25.1,49.2c30.2,2.4,64.3,40.6,82.9,56
							c18.8,15.5,95.9,30.1,93.8,12.5c-1.3-10.5-7.3-10.9-14.8-14.7c-6.1-3.1-11.9-4.1-23.2-13.2c-24.4-19.7-26.3-44-71.1-88.2
							c-20.1-19.8-22.9-40.1-22.9-40.1L164.1,1427.2z"/>
					</g>
					<g class="st3">
						<path class="st4" d="M160.3,1492.7c9.2,2.5,40.5,14.9,47.2,20.8c11.5,9.8,22.9,19.6,34.8,29c23.3,18.3,53.8,35.1,76.4,21.3
							c5.6,3.3,9.7,4.6,13.8,6.7c7.5,3.8,13.5,4.2,14.8,14.7c2.1,17.5-75.1,3-93.8-12.5c-18.6-15.4-52.7-53.6-82.9-56
							c-23-1.8-31.3-22.5-29.1-38.1C145.4,1485.1,151.5,1490.3,160.3,1492.7z"/>
					</g>
					<g>
						<path class="st5" d="M-187.5,952.2C-70.8,713.7,37.1,573,37.1,573c1,0.2,2.7,1.3,4.8,3.2c0.5-1.1,1-2.2,1.7-3.2
							c0,0,85.7,24.1,221,15.1c0,0,55.2,108.8,38.3,250.8c-16.9,142-20.3,194.7-18,210.4c2.3,15.7-34.4,228.4-50.2,398.8
							c0,0-59.2-10.1-84-11.3c0,0,9.6-147.7,6-217.5c-4.2-80.7-10.2-142.3,7.7-185.3c12.3-29.6-20.5-187.4-35.1-253.9
							c-2.6-11.9-17.6-15.9-25.8-6.8C48.7,833.7-90.3,969.5-88.7,992.8c1.8,27.1,25.2,95.8,15.1,146.5
							c-10.1,50.7-55.7,235.6-55.7,235.6c-21.3-6.8-85.3-18-85.3-18C-202.7,1298.3-187.5,952.2-187.5,952.2z"/>
					</g>
					<g class="st6">
						<path class="st5" d="M170.7,644.7c-50.2-4.9-101-27.9-151.3-47.4c11.3-16,17.7-24.3,17.7-24.3c1,0.2,2.7,1.3,4.8,3.2
							c0.5-1.1,1-2.2,1.7-3.2c0,0,61,17,161.1,17l0,0c8.6,0,17.5-0.1,26.6-0.4c1.2,0,2.4-0.1,3.6-0.1c9.6-0.3,19.5-0.8,29.7-1.4
							c0,0,0.1,0.2,0.3,0.7c0.1,0.3,0.3,0.6,0.6,1.2c0.1,0.3,0.3,0.6,0.4,0.9c0.5,1.2,1.2,2.7,2.1,4.6c0.2,0.4,0.3,0.7,0.5,1.1
							c1.6,3.6,3.5,8.4,5.8,14.2c0.4,1,0.7,2,1.1,3c15.1,40.2,39.5,124.2,27.5,225.1c-16.9,142-20.3,194.7-18,210.4
							c2.3,15.7-34.4,228.4-50.2,398.8c0,0-8.7-1.5-20.9-3.4c34.3-156.2,65.2-318.1,65.5-476.9c0.1-76.3,14.9-166.8-7.2-240.9
							c-0.1-0.3-0.2-0.6-0.3-0.9C258.2,680.8,217.6,649.3,170.7,644.7z"/>
					</g>
					<g class="st6">
						<path class="st5" d="M-140.4,1315.8c16.8-68.5,29.5-137.1,36.3-208.1c3.6-37.8-1.4-75.5-5.5-113.2
							c-3-27.2,30.1-54.3,55.1-90.2c28.4-41,74.5-76.1,96.2-121.6c11.7-24.5,21.7-49.4,31-74.6c21.3,11.9,36,18.7,62,19
							c13.9,0.1,28.3-1.7,42.4-5.3c-26.3,110.2,36.7,263,26.9,314.6c-11.4,60.2-27,156.3-26.6,229.8c0.3,55.8,4.6,116-1.2,173
							c-9.7-1.2-18.8-2.2-25.4-2.5c0,0,9.6-147.7,6-217.5c-4.2-80.7-10.2-142.3,7.7-185.3c12.3-29.6-20.5-187.4-35.1-253.9
							c-2.6-11.9-17.6-15.9-25.8-6.8C48.7,833.7-90.3,969.5-88.7,992.8c1.8,27.1,25.2,95.8,15.1,146.5
							c-10.1,50.7-55.7,235.6-55.7,235.6c-6.5-2.1-17.1-4.6-28.6-7.1C-147.7,1352.9-144.5,1332.3-140.4,1315.8z"/>
					</g>
					<g>
						<path class="st7" d="M-57.2,751.3c-76.8-170.1-96.5-229.2-93.2-264.9c3.4-36.3,51.9-131.7,56.4-173.4
							c4.5-41.7,34.9-151.3,63.7-166.3c28.7-14.9,124.5-17.9,124.5-17.9c15.5-8,39.3-32,45.4-104.8c0,0,68.5,18.4,82,22.6
							c12.6,4,0.2,94.8,49.2,100.7c0.1,0,0.3,0.1,0.5,0.1c3.3,0.3,11.9,2.1,11.9,2.1c23.8,4.3,67.1,12.8,80,20.6
							c18.2,11,60.2,53.2,69.2,134.7c9,81.5,31.2,147.6,40.4,173.2c9.2,25.6,21.6,91.3,10.3,248c0,0-0.5,12.9,2.2,27.3
							c0.4,1.1,12,32.7,19.9,50.6c8,18.2,10.6,44,9.8,63c-0.8,19-2.3,33.3-15.5,28.3c0,0-0.4,32.3-18.4,24.5c0,0-7.2,14-19,1.5
							c0,0-10.3,7.6-17.3-1.5c-5.5-7.2-1.4-27.6,1.5-47.4c2.9-19.8-0.3-42.6-5.8-43.9c-22.3-5.1-10.8,52.5-30,45.7
							c-11.5-4.1-5.5-55.4,3.8-70.2c9.3-14.8,16.8-33.1,21.9-50.7c1.4-8.2,3.4-24.4,0.6-40.7c-3.9-23.1-29.2-93.4-29.9-162.7
							c-0.6-55.2-29-92.2-40.9-115c-9.3-18-30.8-72.1-45.2-107c0.1,15.3-0.3,31.4-1.6,48.7c-1.4,18.8-119.2-67.9-147.6-76.1
							c-22.3-6.4-166.4,47.9-163.9,31.1c0-0.3,0.1-0.7,0.2-1.1c-21.9,71.3-94.4,149.6-83.1,180.5c12.7,34.7,30.4,79.6,36.4,112.5
							c5.3,29.6,26,107.1,30.2,122.7c6,17.4,14.7,37.8,24.7,52.1c10,14.3,18.6,62.3,7.3,67c-18.8,7.8-16.9-54.4-30.2-50.7
							c-5.4,1.5-3.3,14.2,0.6,33.8c1.4,7.4,9.7,12.7,15.5,16.1c9.7,5.7,20.3,16.3,17.6,19.9c-6.5,8.5-20.1,3.5-20.1,3.5
							c-2.5,18.9-25.9,3.7-25.9,3.7c-9.2,20-31-6.5-31-6.5c-4.1,3.6-11.8,2.5-19.2-9.8c-2.8-4.6-7-14.6-9.9-23.9
							c-5.3-17.3-2.7-30.1,4.5-48.6C-67.9,785.2-58.4,755.1-57.2,751.3z"/>
					</g>
					<g class="st3">
						<path class="st4" d="M419.8,828.6c1.4-3.1,3.2-5.4,5.4-6.5c15.9-7.3,28.5,4.3,41.8,11.1c17.7,9.1,32.5,3.8,44.9-6.5
							c2.7,13.7,3.7,28.2,3.2,40.1c-0.8,19-2.3,33.3-15.5,28.3c0,0-0.4,32.3-18.4,24.5c0,0-7.2,14-19,1.5c0,0-10.3,7.6-17.3-1.5
							c-5.5-7.2-1.4-27.6,1.5-47.4c2.9-19.8-0.3-42.6-5.8-43.9c-21.3-4.9-11.8,47.5-27.8,46c1.9-5.6,3.1-11.6,3.7-18
							C417.3,849.4,417.5,838.1,419.8,828.6z"/>
					</g>
					<g class="st3">
						<path class="st4" d="M-43.2,836.4c11.3-1.9,18.9-13.9,22.5-23.6c3.7-9.6,4.6-19.9,8-29.5c2.7-7.8,6.5-14,10.7-20
							c5.2,12.5,11.3,25.1,18.1,34.9c10,14.3,18.6,62.3,7.3,67c-18.8,7.8-16.9-54.4-30.2-50.7c-5.4,1.5-3.3,14.2,0.6,33.8
							c1.4,7.4,9.7,12.7,15.5,16.1c9.7,5.7,20.3,16.3,17.6,19.9c-6.5,8.5-20.1,3.5-20.1,3.5c-2.5,18.9-25.9,3.7-25.9,3.7
							c-9.2,20-31-6.5-31-6.5c-4.1,3.6-11.8,2.5-19.2-9.8c-2.8-4.6-7-14.6-9.9-23.9c-1.3-4.2-2-8.2-2.3-12
							C-71.2,833.3-55.2,838.4-43.2,836.4z"/>
					</g>
					<g class="st3">
						<path class="st4" d="M420.1,494.4c6.6,12.4,12.2,25,13.8,40.6c0.6,6.4,3.2,23.9-1.1,33.3c-7.8-9.7-14.7-19.1-17.5-33
							C412.2,520.3,414.7,507.1,420.1,494.4z"/>
					</g>
					<g class="st3">
						<path class="st4" d="M242,125.6C195.5,122,148.7,71.6,135.3,56c0.1-0.6,0.2-1.2,0.4-1.9c1.7-9,3-18.9,4-30.1
							c0,0,68.5,18.4,82,22.6c8.6,2.7,5.6,45.2,18,74.2C240.4,122.5,241.2,124.1,242,125.6z"/>
					</g>
					<g>
						<path class="st7" d="M266.7,146.6c0,0-40.8,171.5,54.7,205.3c0,0-8.6,143.8-51.4,248.6c0,0-110.5,36-241.2-16.4
							c0,0-30.6-132.7-21-252.6c0,0,70.9-32.8,69.1-201.8l17.2-0.8c0,0-4.6,81.7,23.6,123.9c10.7,16,80.7,19.2,90.3,11.3
							c43.5-35.7,41.4-127.4,41.4-127.4L266.7,146.6z"/>
					</g>
					<g class="st3">
						<path class="st4" d="M7.9,331.4c0,0,10.5-4.9,23.3-20.5c-2.2,11-3.8,22.1-3.5,33.6c0.8,28.1,3.4,55.3,13.3,81.7
							c15.9,42.3,63.6,79.8,108.3,85.6c49,6.3,90-16.5,107.7-63.5c13.8-36.7,23.6-75.6,37.3-112.6c7.5,6.9,16.4,12.5,27.1,16.3
							c0,0-8.6,143.8-51.4,248.6c0,0-110.5,36-241.2-16.4C28.9,584.1-1.7,451.3,7.9,331.4z"/>
					</g>
					<g>
						<path class="st7" d="M180.4-117.6c0,0,142.7,16.5,141.1,37.2c-1.6,20.7-6.8,62.6-10.1,75.5c-3.4,13-1.7,18.2,0,28.9
							c1.7,10.7-4,36.6-11.8,53.5c-9.6,20.6-14.1,45.5-28.2,50.6c-14.1,5.1-93-16.3-112.2-84C140-23.5,168.9-113.7,180.4-117.6z"/>
					</g>
					<g class="st3">
						<path class="st4" d="M241.2-49.9c-13.5-5.2-23.5-9.7-32.8-6.4c-9.1,3.2-12.4,23.5-14.7,31.7c-6.3,22.5-11,48.7-11,48.7
							c-5.2-6.4-9.2-14.8-11.7-21.5c-1.8-4.8-6.3-5.6-9.6-3.8c-1.2-0.1-2.5,0.2-3.8,1.1c-1.8,1.2-3.3,2.6-4.8,4.1
							c-2.6-58.5,18.1-118.3,27.4-121.5c0,0,142.7,16.5,141.1,37.2c-0.7,9.1-2.1,22.1-3.7,35.1C292.1-40.2,266.3-40.2,241.2-49.9z"
							/>
					</g>
					<g>
						<path class="st7" d="M153.7,31.2c0,0-42.3-28.7-34.9-57.5s24.2-39.5,47.3,5.1c0,0,1.1,47.9,3.4,52.4
							C171.7,35.7,166.1,36.8,153.7,31.2z"/>
					</g>
					<g>
						<path class="st8" d="M138.9-143.5c0,0,27-24.7,4.2-56.4C143.1-199.9,124.6-158.7,138.9-143.5z"/>
					</g>
					<g>
						<path class="st8" d="M139.1-143.6c0,0-46.4,9.4-48.2-28C90.9-171.6,132-172,139.1-143.6z"/>
					</g>
					<g>
						<path class="st8" d="M137.1-146.9c0,0,22-52.4,89.1-37.2c67.1,15.2,112,39.3,150.3,20.4c0,0,3.6,41.2-55,46.1
							c0,0,25.8,25.4,65.1,13.2c0,0-27.3,92.9-180.1,32.8c0,0-26.5,36.2-23.7,95.7c0,0-9-6.9-15.8-10.6
							c-6.8-3.7,13.4-64.7-36.1-49.8c-31.9,9.6,6.2,59.1,17.5,62.5c0,0,2.6,19.4-12.2,25.4c0,0-65.4-61.3-45.3-140.9
							C108.7-159.6,137.1-146.9,137.1-146.9z"/>
					</g>
					<g class="st3">
						<path class="st4" d="M135.8-24.7c0,0,21.3,2,15.4,27c-3.4,14.4-21.3,0.2-13.9-9.6C144.7-17.1,135.8-24.7,135.8-24.7z"/>
					</g>
					<g class="st3">
						<path class="st4" d="M280.6,82.6c0,0-11.8,16.6-39.5-5.1c0,0,26.6,8.5,34.8,3C284.3,75,282.1,81,280.6,82.6z"/>
					</g>
					<g class="st3">
						<path class="st4" d="M284.9,1.8c0,0,4.8,60.5-2.8,63.6c-7.6,3.1-25.1-7.9-22.8-12.4c2.3-4.5,15.9,7.8,18.2,6.8
							C282.1,57.6,280.7,9.6,284.9,1.8z"/>
					</g>
					<g>
						<g class="st3">
							<path class="st4" d="M216.5,10.1c0,0,24.7,21.6,39.6,10.2c2.6-2,6.1-12.3,5.1-15.2c-0.7-1.9-2.3-3.7-6-4.4
								c-11.1-2.1-32.7-4.9-38.7,8.3L216.5,10.1z"/>
						</g>
					</g>
					<g>
						<g class="st3">
							<path class="st4" d="M310.1,25.7c-6.2,1.6-12.8,1.5-17.7-2.9c-2.1-1.9-4.3-11.3-3.2-13.7c0.8-1.6,2.4-3,5.6-3.3
								c3.9-0.4,9.2-0.7,14.5-0.2c0,0,1.2,2.7,1.9,9.2C311.7,19.2,310.1,25.7,310.1,25.7z"/>
						</g>
						<g>
							<path class="st8" d="M289.9,16.6c0,0,2,12.7,21.2,13.3c5,0.1,0.5-7.8,0.5-7.8C305.6,22.6,298.2,21.5,289.9,16.6z"/>
						</g>
					</g>
					<g>
						<path class="st8" d="M210.3-18.7c0,0,9.2-7.6,16.8-10.1c7.6-2.5,39.5,3.6,40.4,7.8c0.8,4.2-5.1,10.8-7.6,10.6
							c-2.5-0.2-27.5-9.3-30.8-8.7C225.8-18.5,212.4-17.4,210.3-18.7z"/>
					</g>
					<g>
						<path class="st8" d="M314.2-22.1c-9.7-0.4-21.7-0.1-22.6,1.9c-1.8,3.9,2.6,11.6,5.1,12c1.1,0.2,9.5,0,15.8-0.6L314.2-22.1z"/>
					</g>
				</g>
			</g>
			<g>
				<path class="st9" d="M152,103.2l-1.5,0.4c-0.4,0.1-0.8-0.1-0.9-0.5l-2.1-7.6c-0.1-0.4,0.1-0.8,0.5-0.9l1.5-0.4
					c0.4-0.1,0.8,0.1,0.9,0.5l2.1,7.6C152.6,102.7,152.4,103.1,152,103.2z"/>
			</g>
			<g>
				<g>
					<path class="st10" d="M152.8,97.5l-5.9,1.6c-0.6,0.2-1.2-0.2-1.4-0.8l-7.2-26.8c-0.2-0.6,0.2-1.2,0.8-1.4l5.9-1.6
						c0.6-0.2,1.2,0.2,1.4,0.8l7.2,26.8C153.7,96.7,153.4,97.3,152.8,97.5z"/>
				</g>
				<g>
					<path class="st11" d="M185.5,106.3c-0.1-0.4-0.3-0.8-0.4-1.2l0.1,0l-0.2-0.5c-0.5-1.3-1.2-2.6-2-3.8l-16.8-32.3l-18.6,5
						l-8.1,2.2l-9.7,2.6c-1,2.9-4.4,13.3-8.1,20.2l0.8,18.6c-0.1,1.4,0,2.8,0.2,4.2l0,0.5l0.1,0c0.1,0.4,0.1,0.8,0.2,1.2
						c3.4,12.8,20.2,19.3,37.5,14.7C177.8,133.2,189,119.1,185.5,106.3z M157.1,125.2c-10.3,2.8-20.1-0.3-21.9-6.9
						c-0.1-0.2-0.1-0.4-0.1-0.6l-0.1,0v-0.3c-0.1-0.8-0.1-1.5,0-2.2l-0.3-19l9.5-2.6l8.1-2.2l9.6-2.6l9.3,16.5
						c0.4,0.6,0.8,1.2,1.1,1.9l0.1,0.3h0c0,0.2,0.1,0.4,0.2,0.6C174.3,114.8,167.4,122.4,157.1,125.2z"/>
				</g>
				<g>
					<path class="st12" d="M179.3,107.3c-0.1-0.3-0.2-0.5-0.3-0.8l0.1,0l-0.2-0.3c-0.4-0.9-0.9-1.8-1.5-2.6l-12.6-22.3l-14.2,3.8
						l-8.1,2.2l-14.2,3.8l0.3,25.6c-0.1,1-0.1,2,0,3l0,0.4l0.1,0c0,0.3,0.1,0.6,0.1,0.8c2.4,8.9,15.6,13.1,29.6,9.3
						C172.4,126.4,181.7,116.2,179.3,107.3z M157.1,125.2c-10.3,2.8-20.1-0.3-21.9-6.9c-0.1-0.2-0.1-0.4-0.1-0.6l-0.1,0v-0.3
						c-0.1-0.8-0.1-1.5,0-2.2l-0.3-19l9.5-2.6l8.1-2.2l9.6-2.6l9.3,16.5c0.4,0.6,0.8,1.2,1.1,1.9l0.1,0.3h0c0,0.2,0.1,0.4,0.2,0.6
						C174.3,114.8,167.4,122.4,157.1,125.2z"/>
				</g>
			</g>
			<g>
				<path class="st11" d="M121.6,98.6"/>
			</g>
			<g>
				<path class="st11" d="M129.9,77.8c0,0.1-0.1,0.3-0.2,0.6l-0.1,0L129.9,77.8z"/>
			</g>
			<g>
				<path class="st13" d="M55.5,282.9l-1.7-1c0-0.1,3.9-7.3,8.7-41.8c3.7-26.7-1.8-61.4-5.8-86.7c-1.2-7.9-2.3-14.7-2.9-19.8
					c-1.6-14.6,7.7-31.8,13.3-40.7c2.6-4,4.9-8.5,7.5-13.9c3.7-7.9,12.9-21.3,32.4-22.7c28.2-2,33.7,12.7,33.9,13.3l-1.8,0.6
					l0.9-0.3l-0.9,0.3c-0.1-0.1-5.3-13.9-31.9-12C88.8,59.5,80,72.3,76.5,79.8c-2.6,5.6-5.1,10.1-7.7,14.1
					c-5.5,8.7-14.5,25.4-13,39.4c0.5,5.1,1.6,11.8,2.9,19.7c4,25.5,9.5,60.3,5.8,87.3C59.5,275.5,55.7,282.6,55.5,282.9z"/>
			</g>
			<g>
				<path class="st13" d="M51.5,282.9l-1.7-1c0-0.1,3.9-7.3,8.7-41.8c3.7-26.7-1.8-61.4-5.8-86.7c-1.2-7.9-2.3-14.7-2.9-19.8
					c-1.6-14.6,7.7-31.8,13.3-40.7c2.6-4,4.9-8.5,7.5-13.9c4.3-9.2,16.7-25,35.4-26.3c28.1-2,36.9,16.5,36.9,16.7l-1.8,0.8
					c-0.3-0.7-8.4-17.5-35-15.6C88.5,55.8,76.7,71,72.5,79.8c-2.6,5.6-5.1,10.1-7.7,14.1c-5.5,8.7-14.5,25.4-13,39.4
					c0.5,5.1,1.6,11.8,2.9,19.7c4,25.5,9.5,60.3,5.8,87.3C55.6,275.5,51.7,282.6,51.5,282.9z"/>
			</g>
			<g>
				<path class="st13" d="M47.5,282.9l-1.7-1c0-0.1,3.9-7.3,8.7-41.8c3.7-26.7-1.8-61.4-5.8-86.7c-1.2-7.9-2.3-14.7-2.9-19.8
					c-1.6-14.6,7.7-31.8,13.3-40.7c2.6-4,4.9-8.5,7.5-13.9c3.5-7.3,19.1-27.8,38.8-29.1c28.1-1.9,38.7,18.5,38.8,18.7l-1.7,0.9
					c-0.1-0.2-10.2-19.6-36.9-17.6c-18.9,1.3-33.9,21-37.2,28c-2.6,5.6-5.1,10.1-7.7,14.1c-5.5,8.7-14.5,25.4-13,39.4
					c0.5,5.1,1.6,11.8,2.9,19.7c4,25.5,9.5,60.3,5.8,87.3C51.6,275.5,47.7,282.6,47.5,282.9z"/>
			</g>
		</g>
	</g>
</g>
</svg>
