<svg id="Layer_1" data-name="Layer 1" xmlns="http://www.w3.org/2000/svg" viewBox="0 0 600 600"><defs><style>.cls-1{fill:#ff3556;opacity:0.09;}.cls-2{fill:#d3d3d3;}.cls-3{fill:#ff1849;}.cls-4{fill:#d1d1d1;}.cls-5,.cls-9{fill:#fff;}.cls-6{fill:#c8cfd7;}.cls-7{fill:#161b43;}.cls-8{fill:#0086c3;}.cls-10,.cls-11,.cls-14,.cls-15,.cls-9{opacity:0.5;}.cls-10{fill:#b4acaa;}.cls-11{fill:#acacac;}.cls-12{fill:#757c83;opacity:0.3;}.cls-13{fill:#decfca;}.cls-14{fill:#8fd2f8;}.cls-15{fill:#929292;}.cls-16{fill:#fdebe7;}.cls-17{fill:#59adda;}.cls-18{fill:#e1f0fd;}.cls-19{fill:#1a2e35;}.cls-20{fill:#e8e8e8;}.cls-21{fill:#bebebf;}.cls-22{fill:#eee;}.cls-23{fill:#ffbf9d;}.cls-24{fill:#00a2ff;}.cls-25{fill:#ff9a6c;}.cls-26{fill:#375a64;}</style></defs><title>all vect</title><circle class="cls-1" cx="307.08" cy="298.93" r="286.44"/><path class="cls-2" d="M127.77,164.88a.31.31,0,0,1-.42,0c-1.09-1.15-4.41-.31-9.09,2.32a.31.31,0,0,1-.43-.13.31.31,0,0,1,.12-.43c3.56-2,8.16-4,9.86-2.19a.32.32,0,0,1,0,.45Z"/><path class="cls-2" d="M75.36,214.18a.32.32,0,0,1-.42,0c-1.92-2,1.11-7.38,4-11.5A131.22,131.22,0,0,1,96,183.55a138.12,138.12,0,0,1,18.58-14.9.31.31,0,0,1,.44.09.32.32,0,0,1-.09.44A135.56,135.56,0,0,0,96.43,184a130.46,130.46,0,0,0-17,19,33.39,33.39,0,0,0-3.93,7c-.68,1.81-.72,3.11-.12,3.74a.33.33,0,0,1,0,.45Z"/><path class="cls-2" d="M135,176.32l-.08,0a.31.31,0,0,1-.41-.18c-.32-.81-1.51-1.32-3.44-1.49a33.93,33.93,0,0,0-8,.6,130.32,130.32,0,0,0-24.41,7.27,129.68,129.68,0,0,0-22.79,11.36,33.16,33.16,0,0,0-6.23,5c-1.3,1.43-1.82,2.62-1.49,3.43a.32.32,0,0,1-.6.24c-1-2.6,3.77-6.44,8-9.21A130.36,130.36,0,0,1,98.49,182a129.91,129.91,0,0,1,24.54-7.3c5-.85,11.08-1.32,12.1,1.28A.32.32,0,0,1,135,176.32Z"/><path class="cls-2" d="M81.52,213.59l-.07,0c-3.29,1.43-5.48,1.6-6.51.51a.32.32,0,0,1,0-.45.33.33,0,0,1,.45,0c.8.86,2.86.62,5.8-.65a.32.32,0,0,1,.42.16A.33.33,0,0,1,81.52,213.59Z"/><path class="cls-2" d="M93.94,205.86c-2.38,1.79-4.68,3.38-6.82,4.71a.32.32,0,0,1-.44-.1.33.33,0,0,1,.1-.44,131.86,131.86,0,0,0,19.54-15.5,129.84,129.84,0,0,0,17-19,33.22,33.22,0,0,0,3.94-6.95c.67-1.81.71-3.11.12-3.75a.31.31,0,0,1,0-.44.31.31,0,0,1,.45,0c1.91,2-1.12,7.38-4,11.5A129.52,129.52,0,0,1,106.75,195,154.41,154.41,0,0,1,93.94,205.86Z"/><path class="cls-2" d="M129.93,183.22c-.91.68-1.85,1.33-2.76,1.94a131.42,131.42,0,0,1-22.91,11.42,130.87,130.87,0,0,1-24.54,7.3c-5,.85-11.08,1.31-12.11-1.28a.32.32,0,1,1,.6-.24c.32.82,1.5,1.33,3.43,1.49a33.3,33.3,0,0,0,8-.59A130.11,130.11,0,0,0,104,196a130.51,130.51,0,0,0,22.8-11.36,33.49,33.49,0,0,0,6.23-5c1.29-1.43,1.81-2.62,1.49-3.44a.33.33,0,0,1,.18-.41.32.32,0,0,1,.41.18C135.93,178,133.18,180.78,129.93,183.22Z"/><polygon class="cls-3" points="101.99 191.47 105.25 193.19 108.52 191.49 107.88 195.13 110.51 197.71 106.86 198.23 105.21 201.53 103.59 198.22 99.94 197.67 102.6 195.1 101.99 191.47"/><polygon class="cls-3" points="66.4 199.46 68.88 200.77 71.36 199.47 70.88 202.24 72.88 204.2 70.1 204.59 68.85 207.1 67.62 204.58 64.85 204.17 66.86 202.22 66.4 199.46"/><polygon class="cls-3" points="133.05 171.94 134.66 173.59 136.93 173.21 135.85 175.25 136.91 177.29 134.64 176.89 133.03 178.54 132.71 176.26 130.64 175.23 132.71 174.22 133.05 171.94"/><path class="cls-4" d="M323.24,316.58H160c-2.63,0-4.76,1.48-4.76,3.31V363.7h8.2V325.23c0-1.62,1.9-2.94,4.23-2.94H319c2.33,0,4.23,1.32,4.23,2.94V363.7h8.2V319.89c0-1.83-2.13-3.31-4.76-3.31Z"/><path class="cls-5" d="M458,467.9H435.32V211.72h-6.73V467.9h-20.8a4.19,4.19,0,0,0,0,8.38H458a4.19,4.19,0,1,0,0-8.38Z"/><path class="cls-6" d="M446.12,199.72h-5.44V183.79H426.22v15.93h-4.71a11.68,11.68,0,0,0-11.68,11.68h48A11.68,11.68,0,0,0,446.12,199.72Z"/><path class="cls-5" d="M481.78,101.24H385.85a11.55,11.55,0,0,0-11.51,11.52v63.33a11.54,11.54,0,0,0,11.51,11.51h95.93a10,10,0,0,0,1.9-.17,11.54,11.54,0,0,0,9.61-11.34V112.76A11.55,11.55,0,0,0,481.78,101.24Z"/><path class="cls-7" d="M462.57,172.23a3.84,3.84,0,1,1-3.83,3.84A3.83,3.83,0,0,1,462.57,172.23Z"/><path class="cls-7" d="M405.05,172.23a3.84,3.84,0,1,1-3.83,3.84A3.83,3.83,0,0,1,405.05,172.23Z"/><path class="cls-8" d="M481.78,108.92H385.85a3.85,3.85,0,0,0-3.84,3.84v49.88a3.85,3.85,0,0,0,3.84,3.84h95.93a3.85,3.85,0,0,0,3.84-3.84V112.76A3.85,3.85,0,0,0,481.78,108.92Z"/><path class="cls-6" d="M445.38,178a1.92,1.92,0,0,1,0-3.84h0a1.92,1.92,0,1,1,0,3.84Z"/><path class="cls-6" d="M437.71,178a1.92,1.92,0,0,1,0-3.84h0a1.92,1.92,0,1,1,0,3.84Z"/><path class="cls-6" d="M430,178a1.92,1.92,0,0,1,0-3.84h0a1.92,1.92,0,0,1,0,3.84Z"/><path class="cls-6" d="M422.36,178a1.92,1.92,0,0,1,0-3.84h0a1.92,1.92,0,0,1,0,3.84Z"/><path class="cls-7" d="M466.56,219.78H399.74a4.19,4.19,0,0,1-4.19-4.19h0a4.2,4.2,0,0,1,4.19-4.19h66.82a4.19,4.19,0,0,1,4.19,4.19h0A4.18,4.18,0,0,1,466.56,219.78Z"/><path class="cls-9" d="M461.74,134.43a1.25,1.25,0,0,0-1.61.76l-4,11.09L451,135.75a1.28,1.28,0,0,0-.74-.74A1.22,1.22,0,0,0,450,135h-.24a1.41,1.41,0,0,0-.49.12,1.31,1.31,0,0,0-.67.81l-3.79,10.43-7.65-21.88,0,0a.61.61,0,0,0-.05-.12l-.06-.1-.08-.1-.07-.09-.1-.09-.09-.06-.12-.08-.09,0-.07,0h-.07l-.1,0-.14,0h-.35l-.14,0h-.05l-.05,0-.13.06-.09.06-.11.08-.08.07-.09.1-.07.09-.07.11-.05.11,0,.06L430,137.46H416.72l-.1,0-.14,0-.1,0-.12.07-.09.05-.11.09a.46.46,0,0,0-.07.07l-.09.1-.06.09a.39.39,0,0,0-.06.11.67.67,0,0,0-.06.12v0l-3.84,10.56L404.21,127l0-.06a.54.54,0,0,0-.05-.11l-.06-.11-.08-.1-.07-.08-.11-.09a.27.27,0,0,0-.08-.07l-.12-.07-.09-.05-.07,0h-.07l-.1,0-.14,0h-.35l-.14,0,0,0-.05,0-.13.06-.09.06-.11.08a.27.27,0,0,0-.08.07.47.47,0,0,0-.1.1l-.06.08-.07.12a1.17,1.17,0,0,0-.05.11.33.33,0,0,0,0,.06L397.09,140H385.34a1.26,1.26,0,1,0,0,2.52H398a1.27,1.27,0,0,0,.34,0l.07,0a1.27,1.27,0,0,0,.31-.15h0a1.42,1.42,0,0,0,.25-.24s0,0,0,0a1.34,1.34,0,0,0,.17-.31v0L403,131.12,410.66,153l0,0a1.08,1.08,0,0,0,.16.3l0,.06a1.12,1.12,0,0,0,.2.18l.08.06a1.05,1.05,0,0,0,.26.13h0a1.42,1.42,0,0,0,.42.07l.15,0,.24,0h0a1,1,0,0,0,.29-.15l0,0a1.2,1.2,0,0,0,.26-.24h0a1.06,1.06,0,0,0,.18-.33s0,0,0,0l4.75-13h13.14a1.27,1.27,0,0,0,1.19-.83L436,128.6l7.6,21.73a1.25,1.25,0,0,0,.8.94h0a1.28,1.28,0,0,0,.27.05l.11,0h0l.16,0a.78.78,0,0,0,.21,0h.05a1.26,1.26,0,0,0,.81-.94l4-10.89,5.12,10.6a1.3,1.3,0,0,0,.66.61l.06,0h0a1.59,1.59,0,0,0,.3.06h.2l.08,0a1.19,1.19,0,0,0,.32-.1h0l0,0a1.24,1.24,0,0,0,.61-.68l5.05-13.88A1.26,1.26,0,0,0,461.74,134.43Z"/><rect class="cls-6" x="410.56" y="219.78" width="42.79" height="14.85"/><path class="cls-5" d="M420.44,229.13a1.92,1.92,0,0,1,0-3.84h0a1.92,1.92,0,0,1,0,3.84Z"/><path class="cls-5" d="M431.46,229.13a1.92,1.92,0,0,1,0-3.84h0a1.92,1.92,0,0,1,0,3.84Z"/><path class="cls-5" d="M442.68,229.13a1.92,1.92,0,0,1,0-3.84h0a1.92,1.92,0,0,1,0,3.84Z"/><rect class="cls-5" x="517.01" y="270.74" width="21.42" height="196.4" transform="translate(968.09 838.71) rotate(-168.11)"/><rect class="cls-10" x="517.17" y="269.19" width="6.37" height="196.4" transform="translate(953.84 834.13) rotate(-168.11)"/><rect class="cls-5" x="497.01" y="202.9" width="102.2" height="88.47" transform="translate(1096.21 494.27) rotate(-180)"/><rect class="cls-11" x="505.56" y="206.51" width="80.08" height="20.77" transform="translate(1091.2 433.78) rotate(-180)"/><rect class="cls-12" x="505.56" y="206.51" width="80.08" height="6.19" transform="translate(1091.2 419.21) rotate(-180)"/><rect class="cls-13" x="486.39" y="202.9" width="10.62" height="88.47"/><rect class="cls-11" x="571.33" y="233.05" width="24.78" height="7.08" transform="translate(1167.44 473.19) rotate(-180)"/><rect class="cls-11" x="571.33" y="241.9" width="24.78" height="7.08" transform="translate(1167.44 490.89) rotate(-180)"/><rect class="cls-11" x="571.33" y="250.75" width="24.78" height="7.08" transform="translate(1167.44 508.59) rotate(-180)"/><rect class="cls-11" x="571.33" y="259.6" width="24.78" height="7.08" transform="translate(1167.44 526.29) rotate(-180)"/><rect class="cls-11" x="548.1" y="233.05" width="18.8" height="11.08"/><rect class="cls-11" x="548.1" y="246.91" width="18.8" height="11.08"/><rect class="cls-11" x="548.1" y="260.76" width="18.8" height="11.08"/><rect class="cls-11" x="548.1" y="274.62" width="18.8" height="11.08"/><rect class="cls-14" x="505.56" y="233.05" width="26.84" height="14.08" transform="translate(1037.96 480.19) rotate(-180)"/><circle class="cls-11" cx="542.13" cy="236.59" r="3.5"/><circle class="cls-11" cx="542.13" cy="245.44" r="3.5"/><circle class="cls-11" cx="542.13" cy="254.29" r="3.5"/><circle class="cls-11" cx="542.13" cy="263.14" r="3.5"/><circle class="cls-11" cx="542.13" cy="271.99" r="3.5"/><circle class="cls-11" cx="577.08" cy="273.15" r="3.5"/><circle class="cls-11" cx="577.08" cy="282" r="3.5"/><circle class="cls-11" cx="516.91" cy="263.14" r="8.85"/><circle class="cls-15" cx="516.91" cy="263.14" r="6.03"/><path class="cls-5" d="M488.84,461.56h75.21a0,0,0,0,1,0,0v1.68a13.29,13.29,0,0,1-13.29,13.29h-48a13.94,13.94,0,0,1-13.94-13.94v-1A0,0,0,0,1,488.84,461.56Z" transform="translate(1052.9 938.1) rotate(-180)"/><path class="cls-16" d="M488.84,469.05h75.21a0,0,0,0,1,0,0v.52a7,7,0,0,1-7,7H488.84a0,0,0,0,1,0,0v-7.49A0,0,0,0,1,488.84,469.05Z" transform="translate(1052.9 945.59) rotate(-180)"/><path class="cls-17" d="M255.16,220.57c0,13,5.92,24.91,9.67,37.1,1.86,6.05,3.23,12.33,2.95,18.7a43,43,0,0,1-5.55,18.6,90.13,90.13,0,0,1-13.47,17.92c-.41.45.25,1.12.67.67,8.81-9.5,17.25-20.65,19-33.87s-3.86-25.52-8-37.63c-2.36-6.94-4.35-14.1-4.35-21.49a.48.48,0,0,0-1,0Z"/><path class="cls-5" d="M239.57,147.65c-.93,0-1.69-1-1.69-2.3v-9.23c0-1.28.76-2.3,1.69-2.3s1.69,1,1.69,2.3v9.23C241.26,146.62,240.51,147.65,239.57,147.65Z"/><path class="cls-5" d="M273.47,147.65c-.94,0-1.7-1-1.7-2.3v-9.23c0-1.28.76-2.3,1.7-2.3s1.69,1,1.69,2.3v9.23C275.16,146.62,274.4,147.65,273.47,147.65Z"/><path class="cls-5" d="M255.71,209.25c-.93,0-1.69-1.17-1.69-2.61v-7.79h3.38v7.79C257.4,208.08,256.65,209.25,255.71,209.25Z"/><path class="cls-17" d="M259.72,222.31c0,1.44-.9,2.61-2,2.61h-4a2.37,2.37,0,0,1-2-2.61v-7.92l8-.07Z"/><path class="cls-18" d="M257.72,206.67h-4a2.38,2.38,0,0,0-2,2.61v5.21h8v-5.21C259.72,207.85,258.82,206.67,257.72,206.67Z"/><path class="cls-18" d="M277.48,145.54v44.67a11.73,11.73,0,0,1-3.49,8.36l-.05,0A11.7,11.7,0,0,1,265.7,202h-20a11.72,11.72,0,0,1-8.3-3.43h0a11.75,11.75,0,0,1-3.44-8.3V145.54Z"/><path class="cls-17" d="M275.1,174v14a10.47,10.47,0,0,1-3.11,7.44l0,0a10.45,10.45,0,0,1-7.34,3H246.78a10.44,10.44,0,0,1-7.39-3.06h0a10.42,10.42,0,0,1-3.07-7.39V174Z"/><path class="cls-5" d="M317.06,474.86l-5-2.67a6.56,6.56,0,0,0-3.07-.77H294.32V136.49a2.67,2.67,0,0,0-2.61-2.67H223.93c-1.44,0-2,.75-2,1.69s.53,1.69,2,1.69h67V471.42H275.1a6.53,6.53,0,0,0-3.07.77l-5,2.67a1.69,1.69,0,1,0,1.59,3l4.93-2.64a3.35,3.35,0,0,1,1.61-.41h33.16a5.86,5.86,0,0,1,2.74.69l4.39,2.36a1.72,1.72,0,0,0,.8.2h0A1.7,1.7,0,0,0,317.06,474.86Z"/><rect class="cls-19" x="10.08" y="476.68" width="566.05" height="0.64"/><path class="cls-20" d="M313.69,348.76H103.37L11.25,257.58A13.6,13.6,0,0,1,12.7,237l4.67-3.47,186.39,2.76Z"/><path class="cls-4" d="M104.83,351.14,87.46,364.06,8,257.16a13.37,13.37,0,0,1,2.75-18.68l6.66-4.95Z"/><path class="cls-4" d="M11.48,364.06h517a11.48,11.48,0,0,0,11.48-11.48h0a11.48,11.48,0,0,0-11.48-11.48h-517A11.48,11.48,0,0,0,0,352.58H0A11.48,11.48,0,0,0,11.48,364.06Z"/><rect class="cls-4" x="87.46" y="364.06" width="8.26" height="104.62"/><rect class="cls-4" x="507.72" y="364.06" width="8.26" height="112.62"/><rect class="cls-4" x="382.38" y="364.06" width="8.26" height="104.62"/><rect class="cls-4" x="233.13" y="364.06" width="8.26" height="104.62"/><rect class="cls-4" x="87.46" y="430.82" width="382.11" height="8.74"/><rect class="cls-4" x="332.84" y="430.82" width="183.14" height="8.74"/><circle class="cls-21" cx="91.59" cy="468.68" r="9.37" transform="translate(-174.74 72.3) rotate(-22.84)"/><circle class="cls-22" cx="91.59" cy="468.68" r="5.22" transform="translate(-379.33 547.92) rotate(-88.49)"/><path class="cls-21" d="M227.89,468.68a9.37,9.37,0,1,1,9.37,9.37A9.37,9.37,0,0,1,227.89,468.68Z"/><circle class="cls-22" cx="237.26" cy="468.68" r="5.22" transform="translate(-237.49 693.53) rotate(-88.49)"/><circle class="cls-21" cx="386.51" cy="468.68" r="9.37" transform="translate(-149.93 183.59) rotate(-22.5)"/><path class="cls-22" d="M381.28,468.68a5.23,5.23,0,1,1,5.23,5.22A5.23,5.23,0,0,1,381.28,468.68Z"/><polygon class="cls-4" points="18.9 251.47 18.9 346.12 30.5 346.12 30.5 264.43 18.9 251.47"/><polygon class="cls-23" points="193.13 256.94 237.17 273.6 213.49 277.38 197.18 266.39 193.13 256.94"/><path class="cls-24" d="M272,342.44c1.71.66,27.76-36.9,24.52-47.39-.15-.51-56.13-11.34-65.41-14-20.5-5.8-43.64-26.52-55.21-28.47-24-4-63.72,19.87-57.39,40.49,9.53,31.08,27.57,49.35,57.82,49.07C177.4,342.16,270.11,341.76,272,342.44Z"/><path class="cls-24" d="M169.87,252.17s12.18-1.95,33.26,5.86a16.52,16.52,0,0,1-8,9.68C188.59,271.3,169.87,252.17,169.87,252.17Z"/><path class="cls-8" d="M461.11,300.52s-108.28,1.28-158.51-14-91.06-14.26-91.06-14.26-32.91,34.17-40.91,65.46a24.8,24.8,0,0,0-.76,6.07h0s71.52,6.2,135.6,2.3c61.31-3.74,152.43,17.94,152.43,17.94Z"/><path class="cls-23" d="M132.68,309.72s60.29,26,73,23.73,46.18-38.32,46.18-38.32l-6.38-4.57-43.25,23.62s-39.68-21-56.72-31.77C136.32,276.63,127.64,307.63,132.68,309.72Z"/><path class="cls-24" d="M172.75,298c-3.27,11.62-2.14,17.11-16.55,25.35-2.36,1.34-6.59,3.45-6.59,3.45-6.82-6.51-27.6-17.89-31.1-33.7-.33-1.49,1.35-4.43,2.44-5.5,4.13-4,15.06-12.09,24.06-9.83,8,2,20.62,9.4,27.34,13.57C174.58,292.72,173.52,295.26,172.75,298Z"/><path class="cls-23" d="M245.47,290.56s2.61-6.65,3.29-8.36,5.86-6,6.07-4.82-1.77,3.89-1,4,3.88-5.63,6-5.56,1,7.41.21,10.75-8.16,8.58-8.16,8.58Z"/><rect class="cls-4" x="359.01" y="272.28" width="180.91" height="91.78" rx="10.86" ry="10.86"/><path class="cls-23" d="M139.66,213.4a19.56,19.56,0,0,0-26.17-4.3l-.85.56c-8.77,6.54-8.12,17.64-1.34,26.23L135,268.16a9.75,9.75,0,0,0,12,3.11l8-3.74a7.26,7.26,0,0,0,2.91-10.71c-.81-1.16-4.43-5.85-5.5-7.36h0s7.87-7.14,2.2-16C151.85,229.21,145.5,220.88,139.66,213.4Z"/><path class="cls-25" d="M152.44,249.4a25.5,25.5,0,0,1-13.7,4.2s6.86,4.53,15.09-2Z"/><path class="cls-19" d="M140.16,220.9a1.49,1.49,0,0,1-.38,2,1.43,1.43,0,0,1-2-.27,1.5,1.5,0,0,1,.37-2.06A1.44,1.44,0,0,1,140.16,220.9Z"/><path class="cls-19" d="M140.61,218.94c-.05.26-1.46.18-2.81,1.08s-1.89,2.21-2.14,2.14-.16-.42.07-1a4.07,4.07,0,0,1,1.58-1.92,3.92,3.92,0,0,1,2.37-.65C140.3,218.61,140.63,218.81,140.61,218.94Z"/><path class="cls-19" d="M127.2,230.05a1.5,1.5,0,0,1-.38,2.06,1.43,1.43,0,0,1-2-.28,1.51,1.51,0,0,1,.37-2.06A1.45,1.45,0,0,1,127.2,230.05Z"/><path class="cls-19" d="M127.53,227.91c0,.26-1.46.19-2.81,1.08s-1.89,2.21-2.14,2.14-.16-.42.07-1a4.14,4.14,0,0,1,1.58-1.92,3.92,3.92,0,0,1,2.37-.65C127.22,227.58,127.55,227.79,127.53,227.91Z"/><path class="cls-19" d="M139,234.68a10.32,10.32,0,0,1,1.92-1.83c.32-.27.61-.55.51-.82s-.47-.58-.9-.87l-2.74-1.95c-3.87-2.8-6.92-5.19-6.8-5.35s3.34,2,7.21,4.79l2.71,2a2.45,2.45,0,0,1,1.07,1.24,1.05,1.05,0,0,1-.24.87,2.49,2.49,0,0,1-.53.47A11,11,0,0,1,139,234.68Z"/><path class="cls-19" d="M124.4,222.4c.11.45-1.35,1.17-2.81,2.4s-2.45,2.5-2.88,2.31c-.19-.1-.2-.59.08-1.28a6.5,6.5,0,0,1,4.33-3.59C123.86,222.09,124.34,222.19,124.4,222.4Z"/><path class="cls-19" d="M137.54,215.36c0,.47-1.17.76-2.3,1.48s-1.92,1.56-2.35,1.38c-.2-.09-.25-.49,0-1.05a3.8,3.8,0,0,1,1.53-1.73,3.75,3.75,0,0,1,2.22-.58C137.21,214.92,137.55,215.15,137.54,215.36Z"/><path class="cls-23" d="M116.9,241.51c-.19,0-7.2,2.18-3.06,8.05s9.18.51,9.07.33S116.9,241.51,116.9,241.51Z"/><path class="cls-25" d="M120.08,248.58s-.06.15-.17.35a1.29,1.29,0,0,1-.76.55,3.09,3.09,0,0,1-2.77-1.44,4.13,4.13,0,0,1-.74-1.67,1.42,1.42,0,0,1,.21-1.32.65.65,0,0,1,.8-.15c.2.11.24.25.28.24s.06-.19-.16-.39a.83.83,0,0,0-.49-.21.91.91,0,0,0-.67.25,1.77,1.77,0,0,0-.43,1.66,4.33,4.33,0,0,0,.8,1.89c.87,1.15,2.26,1.83,3.28,1.48a1.34,1.34,0,0,0,.83-.81C120.17,248.73,120.1,248.58,120.08,248.58Z"/><path class="cls-19" d="M109.06,221.12l25.33-16a13.78,13.78,0,0,0-6.48-1.82,23.42,23.42,0,0,0-14,3.41c-4.12,2.62-9.13,13.06-10.22,17.82-.88,3.81.42,5.74.42,5.74,1.77,3.49,6,6,8.84,8.67,1.45,1.39,5.45,5.88,5.45,5.88h0c1.37-.92,1.16-2.35,0-3.57l-3.79-5.17a9.66,9.66,0,0,0-3.76-11C110.24,224.84,108,223.11,109.06,221.12Z"/><path class="cls-25" d="M126.82,236.59a.19.19,0,0,1-.26,0,.18.18,0,0,1,0-.26.19.19,0,0,1,.26,0A.19.19,0,0,1,126.82,236.59Z"/><path class="cls-25" d="M129,234.31a.23.23,0,1,1,0-.29A.21.21,0,0,1,129,234.31Z"/><path class="cls-25" d="M130.72,233.12c-.08.07-.22,0-.33-.1s-.13-.28,0-.34.22,0,.32.11S130.79,233.06,130.72,233.12Z"/><path class="cls-25" d="M129.15,237.37c-.08,0-.18,0-.21,0s0-.14.09-.19.17-.06.21,0S129.23,237.31,129.15,237.37Z"/><path class="cls-25" d="M131.15,235.27a.19.19,0,0,1-.26-.05.19.19,0,0,1,0-.27.2.2,0,0,1,.27.05A.2.2,0,0,1,131.15,235.27Z"/><path class="cls-25" d="M142.47,225.71a.19.19,0,0,1-.27,0,.2.2,0,0,1,0-.27.2.2,0,0,1,.28.29Z"/><path class="cls-25" d="M144.12,224.39a.23.23,0,0,1-.28-.35.21.21,0,0,1,.28.07A.19.19,0,0,1,144.12,224.39Z"/><path class="cls-25" d="M141,226.77a.16.16,0,0,1-.23,0,.18.18,0,0,1,.25-.25A.16.16,0,0,1,141,226.77Z"/><path class="cls-25" d="M143.41,227.67a.2.2,0,0,1-.27,0,.19.19,0,0,1-.08-.26.19.19,0,0,1,.27,0A.19.19,0,0,1,143.41,227.67Z"/><path class="cls-25" d="M144.71,226.38a.15.15,0,1,1-.09-.28.16.16,0,0,1,.21.09A.15.15,0,0,1,144.71,226.38Z"/><path class="cls-19" d="M103.76,225a8.85,8.85,0,0,1,1.3-14.05,28.44,28.44,0,0,0,3.66-2.06c2-1.66,2.52-4.49,4-6.66A9.1,9.1,0,0,1,123.44,199c1.51.63,2.94,1.7,4.57,1.64,1.42,0,2.65-.93,4-1.34a6.67,6.67,0,0,1,7.37,3,7.85,7.85,0,0,1-.35,8.14,9.61,9.61,0,0,1-7.22,4.07c-2.58.2-5.45-.47-7.56,1s-2.75,4.93-5.23,5.94a7.47,7.47,0,0,1-4.14,0,6,6,0,0,0-4.11.25c-1.22.7-.76,2.71.38,3.53l-7.4-.25"/><path class="cls-26" d="M131.8,202.31s0,0,0,.11a2.68,2.68,0,0,1,0,.34,4.86,4.86,0,0,1-.18,1.29,5.27,5.27,0,0,1-.92,1.84,5.07,5.07,0,0,1-2.17,1.63,5.35,5.35,0,0,1-3.29.22,35,35,0,0,1-3.46-1.49,4.23,4.23,0,0,0-1.93-.29,4.08,4.08,0,0,0-1.9.73,4.55,4.55,0,0,0-1.4,1.58,3.81,3.81,0,0,0-.4,2.11c.06.75.25,1.5.24,2.27a2.48,2.48,0,0,1-1,2,3.69,3.69,0,0,1-2.07.65,7.71,7.71,0,0,1-2.06-.22,6.69,6.69,0,0,0-3.64-.13,3.8,3.8,0,0,0-2.12,2.25,5.14,5.14,0,0,0-.24,2.62,8,8,0,0,0,.54,1.94c.21.52.41.91.54,1.17a2.93,2.93,0,0,1,.19.41l-.07-.09c0-.07-.1-.16-.17-.29a11.45,11.45,0,0,1-.59-1.15,8,8,0,0,1-.6-2,5.26,5.26,0,0,1,.21-2.71,4,4,0,0,1,2.23-2.4,6.78,6.78,0,0,1,3.78.09,7.7,7.7,0,0,0,2,.2,3.45,3.45,0,0,0,1.92-.59,2.24,2.24,0,0,0,.84-1.81c0-.73-.17-1.46-.24-2.24a4.12,4.12,0,0,1,.44-2.27,4.86,4.86,0,0,1,1.49-1.69,4.15,4.15,0,0,1,4.08-.45,36.93,36.93,0,0,0,3.43,1.51,5.14,5.14,0,0,0,3.15-.18,5,5,0,0,0,2.13-1.54,5.43,5.43,0,0,0,.93-1.77A6.37,6.37,0,0,0,131.8,202.31Z"/><path class="cls-26" d="M136.39,199.41a1.45,1.45,0,0,1,.42.41,4.55,4.55,0,0,1,.76,1.42,5.77,5.77,0,0,1,.23,2.38,6.59,6.59,0,0,1-1,2.75,9.69,9.69,0,0,1-4,3.37,13.12,13.12,0,0,1-1.48.6,1.93,1.93,0,0,1-.56.15s.77-.32,2-.94a10,10,0,0,0,3.88-3.34,6.53,6.53,0,0,0,1-2.62,5.6,5.6,0,0,0-.16-2.29A6.2,6.2,0,0,0,136.39,199.41Z"/><path class="cls-19" d="M144,237.92c-.06.25-1.71-.23-3.29.84s-1.92,2.87-2.16,2.81-.2-.48,0-1.23a4.3,4.3,0,0,1,1.71-2.38,3.73,3.73,0,0,1,2.73-.59C143.7,237.51,144.05,237.81,144,237.92Z"/><path class="cls-4" d="M299.81,318.39H155.13c-2.33,0-4.22,1.43-4.22,3.2V363.8h7.27V326.74c0-1.57,1.68-2.84,3.75-2.84H296.07c2.06,0,3.74,1.27,3.74,2.84V363.8h7.27V321.59c0-1.77-1.88-3.2-4.21-3.2Z"/></svg>