<svg id="Layer_1" data-name="Layer 1" xmlns="http://www.w3.org/2000/svg" viewBox="0 0 600 600"><defs><style>.cls-1{fill:#ff3556;opacity:0.09;}.cls-14,.cls-2{fill:#fff;}.cls-2{fill-rule:evenodd;}.cls-3{fill:#e6625b;}.cls-4{fill:#f38b7d;}.cls-5{fill:#00adfb;}.cls-6{fill:#93c0d9;}.cls-7{fill:#9c1212;}.cls-8{fill:#d6d7dc;}.cls-9{fill:#c8cad1;}.cls-10{fill:#e0e2e6;}.cls-11{fill:#bfdaef;}.cls-12{fill:#cce5f7;}.cls-13{fill:#a6cee3;}.cls-14{opacity:0.21;}.cls-15{opacity:0.7;}</style></defs><title>all vect</title><circle class="cls-1" cx="300" cy="299" r="299"/><path class="cls-2" d="M461.76,441.54c-1.31-14.81-4.26-29.31-10.05-43.12a7.54,7.54,0,0,1-.39-3.31c.23-2.77.79-5.52.93-8.29a133.37,133.37,0,0,0-1.09-25.74c-2.7-18.75-7.65-37.3-13.38-55.3a16.07,16.07,0,0,1-.79-5c.1-2.68.68-5.33.89-8,.22-2.92.05-5.89.43-8.79a63.58,63.58,0,0,0-.49-19.57c-1.84-10.54-6.6-22.09-12.8-32.58-6-10.14-13.69-15.87-22.24-21.42A45.09,45.09,0,0,0,390,204.72c-4.69-1.27-9.61-1.3-14.19-3.35-2-.89-4.1-1.38-6-2.4-8-4.22-15.92-8.72-24-12.86-5.88-3-11.93-5.59-18-8.18-2.12-.91-2.32-.71-2.53-2.86-1.18-12.29,1.41-25.23,1.41-25.63a2.24,2.24,0,0,1,0-.24l.28-.39a22.47,22.47,0,0,0,3.45-8.76l1-6.7c2.53.36,5,.13,6.28-1.67.94-1.36,1.25-2.9,2-4.39a23.11,23.11,0,0,1,3.26-4.07c2.32-2.77,2.86-6.69,2.9-10.38,0-3.33.63-11.22-3.77-12.09-.95-.18-2.2.59-3.33,1.49l0-.15c.42-3.28.36-6.61,1.15-9.88a46.74,46.74,0,0,0-4.08-33,48.36,48.36,0,0,0-34.35-24.84c-36.64-6.62-67.28,19.41-62.8,57.25a57.68,57.68,0,0,0,2.48,9.65l.48,1.21c-1.2-1-2.57-1.91-3.6-1.72-4.41.87-3.8,8.76-3.77,12.09,0,3.69.58,7.61,2.89,10.38a23.63,23.63,0,0,1,3.27,4.07c.78,1.49,1.09,3,2,4.39,1.51,2.18,4.87,2.06,7.88,1.36a22.6,22.6,0,0,1,.39,3.37,22.69,22.69,0,0,0,3.24,11c.9,1.42,1.88,2.79,2.83,4.18.54,6.2,1.73,18.78,2,21.36.38,3.37-1.09,4.45-4.37,6-.31.14-.61.27-.91.42-5.37,2.63-10.81,5.19-16.11,8.07-7.23,3.93-14.35,8.13-21.54,12.28-3.64,2.09-7.33,4-11.38,4.75a40.22,40.22,0,0,0-5.1,1c-3.64,1.12-7.57,1.74-10.79,3.62-10.95,6.39-20.6,12.65-27.88,25.74-8.63,15.49-15,33.36-12.43,51.3a7.25,7.25,0,0,1,0,1.47,34.72,34.72,0,0,0,.84,9.47,19,19,0,0,1-.09,9.47,365.44,365.44,0,0,0-12.65,49.69c-2.27,13.26-3.25,26.65-1.2,40.08a8.2,8.2,0,0,1-.62,4.5,125.12,125.12,0,0,0-6.84,22.27,220,220,0,0,0-3.39,23.75h53.82A95.56,95.56,0,0,0,180,425c-.11-3.08.36-6.19.45-9.3.1-3.76.17-7.52.06-11.27A11.41,11.41,0,0,1,182,398a119.93,119.93,0,0,0,8.24-18.62,177.51,177.51,0,0,0,6.08-20.72,4,4,0,0,1,1.21-2.66c1.19,2.7,2.33,5.21,3.42,7.77a7,7,0,0,1,.26,1.69c1,9.75,2,19.53,3.06,29.3.58,5.45,1.51,10.87,1.83,16.33.35,6.21.14,12.45.26,18.67.12,5.68.26,11.36.46,17H382.55c0-3.91,0-7.83-.07-11.74-.07-4.83-.39-9.66-.23-14.48.25-7.44.71-14.89,1.29-22.31.87-11.26,1.93-22.52,2.94-33.77a24.78,24.78,0,0,1,3.61-7.9c.22.76.44,1.46.61,2.16a154,154,0,0,0,14.35,38.56,7.17,7.17,0,0,1,.94,4c-.11,2.11-.27,4.24-.2,6.35.18,5.4.8,10.81.67,16.18a100.12,100.12,0,0,0,2.25,23h53.44C462,445.06,461.91,443.3,461.76,441.54Z"/><path class="cls-3" d="M285.55,183.4v73.28L283.42,259l-16.11-9.46-4.78-6.9-9.81.55-19.27,10.92-6.37,18.54-10.9,22.71-3.82,41.08L222,351l23.27,5.46,20.43-1.27,7.25-13.64,4.68-50.17,4-18,1.27-.76,4,0,2.27,0h7l1.64,0,3.78-.86,1.47,1.58,8,11.41v52.54l27.45,23.94,23.27-4.61s7.75-11.63,8.24-13.09,0-31.75,0-31.75l-3.66-20.36-12.82-29.33-14.06-17.41-17-10.13-9.06,12.64L303.17,260.4l-1.79-1.21-1.51-.94-.61-1.43-.28-.49V182.71l-3.82,6.52-5.4-.61Z"/><path class="cls-4" d="M276.8,262.08a14.61,14.61,0,0,0,4.64-1.69c-.65-8.31-2.67-16.43-7.84-23C257.44,216.88,231.4,249,226,262.71c-2.34,5.93-4.19,12-6.61,17.91-2.73,6.67-5.68,13.26-8.09,20.06-4.76,13.34-5.94,27.83-7.24,41.84-.6,6.41-1.15,12.91-.33,19.21a10.73,10.73,0,0,0,5.1,5.46c9.84,5.3,22.65,3.71,33.26,2.05,12.54-2,28.76-3.93,36.65-15.3,4.81-6.92,5.34-15.2,5.15-23.46-.06-.58-.12-1.14-.18-1.71-1.8-17-3.31-33.51-2.35-50.61.09-1.55.17-3.13.23-4.72l-.25,0C278.12,271.26,276.7,266.41,276.8,262.08Zm-10.72,66.4c-.22.5-.92.28-.71-.28a10.9,10.9,0,0,0-1.23-10.51l-.64-1c-1.84,4.45-4.17,8.62-6.34,12.91.91,2.15,2.6,3.77,3,6.12a15.67,15.67,0,0,1,.08,5.95c-.08.45-.81.48-.71,0,.44-2.48.43-5.74-1.18-7.84a17.58,17.58,0,0,1-2-2.72c-.28.57-.57,1.14-.84,1.72-2,4.17-1.87,8.38-.82,12.76a8.12,8.12,0,0,1,0,5.2c-.19.47-1,.37-.85-.19,1-3.09-1.2-7.79-1.43-11.08a14.33,14.33,0,0,1,1.23-7.39c1.72-4,3.84-7.74,5.63-11.68,1.7-3.78,4.4-8.27,4-12.56-.27-3.13-1.65-6.07-3-9a9.9,9.9,0,0,1,.09,3.47c-.37,1.69-1.6,2.82-1.92,4.58-.05.27-.51.37-.54,0-.09-1.55.69-2.51,1.4-3.8.89-1.65.51-3.37.29-5.13a.29.29,0,0,1,.15-.27c-1.53-3.31-2.91-6.66-2.57-10.3a19.53,19.53,0,0,1,2.13-7,1.54,1.54,0,0,1-1.24-.71A13.67,13.67,0,0,0,254,283.4c-2.65,4.1-3.08,8.36-3.25,13.08a20.64,20.64,0,0,1-1,6c.14,2.71,2.51,4.51,3,7.26a8.49,8.49,0,0,1-.48,5.45c-.21.45-.88.26-.66-.24,1.47-3.45-.37-6.27-2.16-9a8.68,8.68,0,0,1-.66-1.28,13.05,13.05,0,0,1-3.85,4.28c-2.11,1.55-3,3.64-4.31,5.55-.27,1.91,1,3.08.9,4.9a16.84,16.84,0,0,1-.91,4.6,17.74,17.74,0,0,1-5.85,8.59c-.5.38-.89-.33-.44-.69a16.34,16.34,0,0,0,5.89-10.64c.26-2.09-.73-3.51-.9-5.22-1.31,1.22-3.46,1.81-5.06,2.35-4.6,1.57-8.05,3.75-8.85,9.06a26.35,26.35,0,0,0,.31,10.43c.1.41-.56.79-.69.33-1.22-4.22-2.23-12.26.79-16a16.24,16.24,0,0,1,4.13-3.65,7.44,7.44,0,0,1-1.29-.17c-1.78-.42-3.33-1.59-5.29-.95a9.27,9.27,0,0,0-4.48,3.67c-.32.45-.88,0-.56-.45,1.63-2.32,3.61-4.15,6.52-4.44,1.26-.12,2.21.71,3.36,1a10.88,10.88,0,0,0,5.35-.29c2.22-.76,5.13-1.75,6-3.83a10.42,10.42,0,0,1,1.22-2.51,19.48,19.48,0,0,1,3.43-2.76,11.73,11.73,0,0,0,5-9.48h0a5.86,5.86,0,0,1-4.63,1.63c-2.06-.12-4.92-.16-6.58,1.32-1.18,1.07-2.25,2.25-3.39,3.37-.17.15-.38-.1-.23-.27,1.75-2,3.2-4.36,5.93-5a15.19,15.19,0,0,1,3.73-.47,7.47,7.47,0,0,0,5.18-1.75c0-3.05,0-6.13,1-9.07,1.54-4.8,4.21-7.2,7.55-9.82a13.82,13.82,0,0,1-5.17.58,34,34,0,0,0-7,.33s0,.05-.08.08c-2.11,1.16-2.39,4.62-3,7.41a20.22,20.22,0,0,1,.75,2.77,10.87,10.87,0,0,1-.22,2.67c0,.27-.47.46-.49.1a8.63,8.63,0,0,0-.49-3.46l-.14-.3a3.35,3.35,0,0,1-.23.55,50.88,50.88,0,0,1-4.9,7c-.34.41-.85,0-.55-.45,3-4.25,5.62-7.77,6-13.12a4.71,4.71,0,0,1,.95-2.6,12.53,12.53,0,0,0-1.9.82c-3.78,2-5.64,4.94-8.13,8.2-.36.48-1,0-.62-.5,1-1.33,2-2.65,3-3.87a5.1,5.1,0,0,1-1.47.14A8.77,8.77,0,0,0,227,288a79.44,79.44,0,0,0-6.53,9.59c-.26.45-1,.24-.69-.25a61.61,61.61,0,0,1,7.19-10.65,8.47,8.47,0,0,1,3.68-2.46c1.76-.57,3.88-.27,5.55-.89a.37.37,0,0,1,.31,0,15,15,0,0,1,7.49-4.82c4.39-1.14,9.35,0,13.41-1.65a4.28,4.28,0,0,0-1.37-2.38c-1.74-1.44-3.31-4.3-5.65-4.5a22.93,22.93,0,0,1-4-.54l0,0c-3.33,3.05-8.27,4.75-12.61,2.82-.24-.11,0-.51.21-.42a10.25,10.25,0,0,0,8.28-.78,19,19,0,0,1,3.12-2,7.35,7.35,0,0,1-3.73-3.17c-.13-.22.22-.53.39-.3,2.05,2.83,4.44,3.2,7.7,3.28a8.11,8.11,0,0,1,2.57.33c-.51-.82-1-1.63-1.44-2.42-1-1.69-.72-3.84-1.25-5.66a19,19,0,0,0-5.51-8.46c-.2-.2.11-.59.31-.4,3,2.73,5.66,5.77,6.33,9.89a14.76,14.76,0,0,0,.41,1.69,10.36,10.36,0,0,1,.73-3.64c1.77-4.43,3.87-7.74,3.59-12.79,0-.15.25-.24.28,0a14.34,14.34,0,0,1-1,8.36c-1.72,3.43-3.09,6.38-2.91,10.16a23.43,23.43,0,0,0,3.88,6.24c.63.6,1.27,1.19,1.86,1.81,0,0,0,0,0,0,.26.2.53.35.78.53a11.19,11.19,0,0,0,1.05-2,9.94,9.94,0,0,0,3.68,5.38l-.67.52a16.72,16.72,0,0,0-2.89,6,14.18,14.18,0,0,0-.2,4.28c.86,2.47,4.67,1.5,6.06,3.5.23.35-.24,1-.64.8a16.08,16.08,0,0,0-1.87-1,17.67,17.67,0,0,1-2.13-.82,4.4,4.4,0,0,1-1.17-.83,29.25,29.25,0,0,0,2.7,7.14c2.65,5.28,4.41,10.15,2.41,16-.16.46-.34.91-.52,1.36.81,2.25,2.64,4.18,3,6.66A12.79,12.79,0,0,1,266.08,328.48Zm1.25-53.4a22.68,22.68,0,0,0-2.62,1.65,9,9,0,0,1-4-6.86,7,7,0,0,1,1-1.34,17.88,17.88,0,0,1,3.55-3,5.07,5.07,0,0,1,.44-.37c.82,3.57,2.37,7,5,9.27A11.41,11.41,0,0,0,267.33,275.08Zm6.37-.9c-3.66-2-5.6-6-6.5-10.16a11.07,11.07,0,0,1,7.09-1.8c.29,0,.59,0,.89,0-.14,4.15.95,8.74,3.5,11.56C277.08,274,275.34,274.06,273.7,274.18Z"/><path class="cls-4" d="M380.56,342.52c-1.3-14-2.48-28.5-7.23-41.84-2.42-6.8-5.37-13.39-8.1-20.06-2.41-5.9-4.28-12-6.61-17.91C353.21,249,327.18,216.88,311,237.39c-5.17,6.57-7.19,14.69-7.84,23a13.64,13.64,0,0,0,6.37,1.83c-.13,3.91-1.43,8.89-3.84,11.54-1-.09-1.87-.2-2.66-.33.06,1.59.14,3.17.22,4.72,1,17.1-.55,33.61-2.34,50.61-.06.57-.13,1.13-.18,1.71-.2,8.26.33,16.54,5.14,23.46,7.89,11.37,24.11,13.34,36.66,15.3,10.61,1.66,23.42,3.25,33.26-2.05a10.75,10.75,0,0,0,5.09-5.46C381.71,355.43,381.15,348.93,380.56,342.52Zm-57.64-74a13.41,13.41,0,0,1,2.31,4.16,13.14,13.14,0,0,1-3,5.86l-.05-.08a32.68,32.68,0,0,0-4.35-3.05,15.84,15.84,0,0,0,3.29-8.58A22.29,22.29,0,0,1,322.92,268.53Zm-15.45,5.39a22.37,22.37,0,0,0,3.77-11.73,11.75,11.75,0,0,1,8.13,3.35l.06,0a13.77,13.77,0,0,1-3,9.23A84.62,84.62,0,0,0,307.47,273.92Zm58.24,47.16a9.16,9.16,0,0,0-4.49-3.67c-1.94-.64-3.49.53-5.28.95a7.33,7.33,0,0,1-1.28.17,16,16,0,0,1,4.12,3.65c3,3.73,2,11.77.8,16-.14.46-.8.08-.7-.33a26.17,26.17,0,0,0,.31-10.43c-.79-5.31-4.25-7.49-8.84-9.06-1.6-.54-3.77-1.13-5.07-2.35-.17,1.71-1.16,3.13-.89,5.22a16.32,16.32,0,0,0,5.88,10.64c.46.36.06,1.07-.44.69A17.74,17.74,0,0,1,344,324a17.22,17.22,0,0,1-.91-4.6c-.11-1.82,1.18-3,.9-4.9-1.33-1.91-2.19-4-4.31-5.55a13.28,13.28,0,0,1-3.85-4.28,8.68,8.68,0,0,1-.66,1.28c-1.78,2.76-3.62,5.58-2.16,9,.21.5-.45.69-.67.24a8.62,8.62,0,0,1-.47-5.45c.5-2.75,2.87-4.55,3-7.26a20.63,20.63,0,0,1-1-6c-.16-4.72-.59-9-3.25-13.08a13.63,13.63,0,0,0-4.12-3.71,1.56,1.56,0,0,1-1.25.71,19.53,19.53,0,0,1,2.13,7c.34,3.64-1,7-2.57,10.3a.27.27,0,0,1,.15.27c-.21,1.76-.6,3.48.3,5.13.7,1.29,1.48,2.25,1.39,3.8,0,.34-.48.24-.54,0-.32-1.76-1.56-2.89-1.91-4.58a9.66,9.66,0,0,1,.08-3.47c-1.37,2.93-2.74,5.87-3,9-.39,4.29,2.3,8.78,4,12.56,1.78,3.94,3.89,7.72,5.63,11.68a14.65,14.65,0,0,1,1.23,7.39c-.23,3.29-2.48,8-1.44,11.08.18.56-.66.66-.85.19a8.12,8.12,0,0,1,0-5.2c1-4.38,1.15-8.59-.81-12.76-.27-.58-.57-1.15-.85-1.72a16.94,16.94,0,0,1-2,2.72c-1.61,2.1-1.62,5.36-1.18,7.84.1.53-.63.5-.71,0a15.67,15.67,0,0,1,.08-5.95c.45-2.35,2.13-4,3-6.12-2.18-4.29-4.5-8.46-6.35-12.91-.21.34-.42.68-.65,1a10.9,10.9,0,0,0-1.22,10.51c.21.56-.49.78-.71.28a12.79,12.79,0,0,1-1.12-6.92c.37-2.48,2.2-4.41,3-6.66-.17-.45-.35-.9-.52-1.36-2-5.86-.23-10.73,2.41-16a29.25,29.25,0,0,0,2.7-7.14,4.4,4.4,0,0,1-1.17.83,17.67,17.67,0,0,1-2.13.82,15.17,15.17,0,0,0-1.86,1c-.41.23-.89-.45-.65-.8,1.39-2,5.2-1,6.06-3.5a14.84,14.84,0,0,0-.19-4.28,14.36,14.36,0,0,0-2-4.64,15.88,15.88,0,0,0,3.23-5.36,6.22,6.22,0,0,0,.7-.48l0,0c.59-.62,1.22-1.21,1.86-1.81a23.43,23.43,0,0,0,3.88-6.24c.17-3.78-1.2-6.73-2.91-10.16a14.34,14.34,0,0,1-1-8.36c0-.19.28-.1.26,0-.27,5.05,1.83,8.36,3.6,12.79a10.6,10.6,0,0,1,.74,3.64,14.65,14.65,0,0,0,.4-1.69c.67-4.12,3.33-7.16,6.33-9.89.21-.19.52.2.32.4a19.25,19.25,0,0,0-5.53,8.46c-.52,1.82-.25,4-1.24,5.66-.45.79-.93,1.6-1.44,2.42a8.11,8.11,0,0,1,2.57-.33c3.26-.08,5.65-.45,7.7-3.28.16-.23.53.08.39.3a7.35,7.35,0,0,1-3.73,3.17,19.08,19.08,0,0,1,3.13,2c2,1.41,5.92,1.7,8.27.78.24-.09.46.31.2.42-4.32,1.93-9.27.23-12.59-2.82a.05.05,0,0,1,0,0,23.05,23.05,0,0,1-4,.54c-2.34.2-3.92,3.06-5.64,4.5a4.19,4.19,0,0,0-1.38,2.38c4.06,1.65,9,.51,13.42,1.65a15.08,15.08,0,0,1,7.49,4.82.37.37,0,0,1,.31,0c1.67.62,3.77.32,5.54.89a8.5,8.5,0,0,1,3.69,2.46,62.18,62.18,0,0,1,7.19,10.65c.29.49-.43.7-.69.25a80.61,80.61,0,0,0-6.53-9.59,8.8,8.8,0,0,0-7.05-3.38,5.1,5.1,0,0,1-1.48-.14c1,1.22,2,2.54,3,3.87.36.49-.25,1-.62.5-2.49-3.26-4.36-6.17-8.13-8.2a13,13,0,0,0-1.9-.82,4.8,4.8,0,0,1,1,2.6c.33,5.35,2.95,8.87,5.95,13.12.31.43-.21.86-.55.45a50,50,0,0,1-4.9-7c-.09-.16-.16-.37-.24-.55a1.94,1.94,0,0,1-.13.3,8.81,8.81,0,0,0-.49,3.46c0,.36-.46.17-.49-.1a10.87,10.87,0,0,1-.22-2.67,17.74,17.74,0,0,1,.76-2.77c-.67-2.79-.95-6.25-3.06-7.41,0,0-.05-.07-.08-.08a33.93,33.93,0,0,0-7-.33,13.93,13.93,0,0,1-5.18-.58c3.35,2.62,6,5,7.57,9.82.94,2.94.92,6,1,9.07a7.47,7.47,0,0,0,5.18,1.75,15.19,15.19,0,0,1,3.73.47c2.73.63,4.18,3,5.93,5,.15.17-.05.42-.22.27-1.15-1.12-2.22-2.3-3.4-3.37-1.65-1.48-4.52-1.44-6.58-1.32a5.84,5.84,0,0,1-4.62-1.63h0a11.72,11.72,0,0,0,5,9.48,19.12,19.12,0,0,1,3.43,2.76A10.42,10.42,0,0,1,345,313c.87,2.08,3.79,3.07,6,3.83a10.82,10.82,0,0,0,5.33.29c1.16-.25,2.11-1.08,3.36-1,2.92.29,4.9,2.12,6.53,4.44C366.59,321.08,366,321.53,365.71,321.08Z"/><path class="cls-4" d="M299,227.16v-9.57c-4.25,2-9.94,2.77-13.43.42v8.77C288.74,229.77,295.1,229.52,299,227.16Z"/><path class="cls-4" d="M299,215.83v-10c-4.28,2-9.81,2.77-13.43.68v8.9C288.44,218.74,294.69,218,299,215.83Z"/><path class="cls-4" d="M299,204v-9.57c-4.25,2-9.94,2.77-13.43.42v8.77C288.74,206.64,295.1,206.39,299,204Z"/><path class="cls-4" d="M299,192.69v-10c-4.28,2-9.81,2.77-13.43.69v8.89C288.44,195.61,294.69,194.82,299,192.69Z"/><path class="cls-4" d="M299,238.47v-9.58c-4,2.16-9.76,2.69-13.43.4v8.78C288.92,241.32,294.88,241,299,238.47Z"/><path class="cls-4" d="M299,248v-7.76c-4.17,2.29-9.66,2.89-13.43.41v6.62C288.78,249.69,295.66,250.19,299,248Z"/><path class="cls-4" d="M299.26,256.82a4.76,4.76,0,0,1-.28-.49v-6.6a15.57,15.57,0,0,1-13.43-.15v6.91a3.16,3.16,0,0,1-.34.5l.17,0C289.52,259.15,295.26,259.45,299.26,256.82Z"/><path class="cls-4" d="M285.09,259c.24,4.88,1.06,10,4,13.71,2.28,0,4.84,0,7,0a46.41,46.41,0,0,0,3.72-14.43C295.56,261.08,289.76,261,285.09,259Z"/><path class="cls-4" d="M303.17,260.4a12.47,12.47,0,0,1-1.79-1.21,48.7,48.7,0,0,1-3.59,13.53c1.16,0,2.16,0,2.8.1a10.47,10.47,0,0,0,2.45.62A109.3,109.3,0,0,1,303.17,260.4Z"/><path class="cls-4" d="M281.44,260.39a111.65,111.65,0,0,1,.14,13.05,9.89,9.89,0,0,0,2.44-.62c.65-.05,1.64-.08,2.82-.1-2.48-3.91-3.2-8.92-3.42-13.68A11.51,11.51,0,0,1,281.44,260.39Z"/><path class="cls-5" d="M303.17,302.58l-1.32,16.95-1.11,11s-.1,9,1,13.77a25.9,25.9,0,0,0,13.62,17.88c9.8,5.26,25,6.77,25,6.77s15.16,2.48,22.25,1.8,11.25-1.87,15.35-4.93a8.64,8.64,0,0,0,3.31-7.87,191.16,191.16,0,0,0-1.29-22s-1.9-18.41-3.65-25S371,293.29,367.46,286c0,0,8,48.68,3.66,59.35s-11.51,13.94-17.33,10.3-15.63-7.63-25.09-5.94S307.48,340.69,303.17,302.58Z"/><polygon class="cls-6" points="390.66 357.15 390.24 353.73 370.24 357.82 370.27 358.02 390.66 357.15"/><polygon class="cls-7" points="389.49 356.24 389.33 354.89 370.24 357.82 370.24 357.82 389.49 356.24"/><path class="cls-6" d="M454.34,412.85c-.32-.69-.65-1.41-1-2.11A59.66,59.66,0,0,0,444,397a32.56,32.56,0,0,0-5.73-4.88,32.53,32.53,0,0,0-.09-8.12,34.3,34.3,0,0,0-2.74-9.63,38.17,38.17,0,0,0-4-6.84A36.74,36.74,0,0,0,417.29,356a37.72,37.72,0,0,0-24-2.2l-.72.17.67,2.87.72-.17a34.91,34.91,0,0,1,22.1,2,34.33,34.33,0,0,1,16.68,16.9,30.33,30.33,0,0,1,2.5,8.74,30.73,30.73,0,0,1,.21,6.11,25.33,25.33,0,0,0-7.67-2.39c-7.48-1.06-13.41.44-17.64,4.45-2,1.91-6.5,7-5,13.24a10.89,10.89,0,0,0,.66,1.92c2.31,5.14,8.23,7.88,12.88,7.93,4.29,0,8.28-2,11.86-6.21a36.1,36.1,0,0,0,5-7.87,29.15,29.15,0,0,0,2.18-6.23,32.51,32.51,0,0,1,4.16,3.72,56.82,56.82,0,0,1,9.77,15c1.54,3.45,2,9,2.58,12.16h3C456.48,421.92,455.69,415.84,454.34,412.85Zm-35.63-.2c-3.71,0-8.41-2.17-10.21-6.17a7.33,7.33,0,0,1-.48-1.41c-1.14-4.74,2.53-8.86,4.17-10.41,3.54-3.37,8.64-4.61,15.19-3.69a22.21,22.21,0,0,1,7.68,2.61,26.39,26.39,0,0,1-2.18,6.66C429,408.3,424,412.71,418.71,412.65Z"/><path class="cls-5" d="M453.53,413.22c-.31-.69-.64-1.4-1-2.09a59.2,59.2,0,0,0-9.17-13.56,32.45,32.45,0,0,0-6-5l-.08-.05,0-.09a32.51,32.51,0,0,0,0-8.36,33.58,33.58,0,0,0-2.68-9.37,36.14,36.14,0,0,0-17.71-17.87,36.75,36.75,0,0,0-23.28-2.18l.27,1.15a35.64,35.64,0,0,1,22.52,2.11,35.08,35.08,0,0,1,17.13,17.32,32.07,32.07,0,0,1,2.69,16.41l0,.22-.2-.11a24.18,24.18,0,0,0-8.36-2.81c-7.2-1-12.88.4-16.89,4.21-1.9,1.8-6.15,6.62-4.77,12.4a10.44,10.44,0,0,0,.6,1.76c2.16,4.8,7.72,7.35,12.09,7.4,4,.06,7.78-1.94,11.18-5.9a35.1,35.1,0,0,0,4.87-7.68,27.85,27.85,0,0,0,2.34-7.11l.05-.22.18.12a30.78,30.78,0,0,1,5.21,4.47,57.72,57.72,0,0,1,9.93,15.26c1.6,3.58,2.08,9.24,2.67,12.54h1.19C455.58,422.08,454.83,416.12,453.53,413.22Zm-17.51-20a27.52,27.52,0,0,1-2.34,7.4c-4.06,8.4-9.38,13-15,12.92-4-.05-9.06-2.36-11-6.69a8.93,8.93,0,0,1-.54-1.58c-1.24-5.17,2.69-9.6,4.44-11.26,3.73-3.56,9.09-4.88,15.91-3.9a23,23,0,0,1,8.45,3l.09.05Z"/><rect class="cls-8" x="380.91" y="352.05" width="17.54" height="6.49" transform="translate(-39.87 49.41) rotate(-6.9)"/><rect class="cls-8" x="380.91" y="352.05" width="17.54" height="6.49" transform="translate(-39.87 49.41) rotate(-6.9)"/><rect class="cls-9" x="380.62" y="352.07" width="17.54" height="1.78" transform="translate(-39.6 49.36) rotate(-6.9)"/><polygon class="cls-10" points="398.65 356.64 398.56 355.94 381.13 357.88 381.23 358.75 398.65 356.64"/><path class="cls-11" d="M453.61,520c16.64.36,30.23-.65,30.73-22.15L485.4,453A18.78,18.78,0,0,0,467,433.87l-22.59-.53A18.88,18.88,0,0,0,425,451.55l-1,44C423.42,519,438.24,519.62,453.61,520Z"/><path class="cls-12" d="M453.67,520c10,.21,18.85-.06,24.5-4.93-5.64,3.47-13.65,3.67-22.51,3.48-15.37-.33-31.87-.84-31.32-24.29l-.39,1.38C423.4,519,438.3,519.62,453.67,520Z"/><path class="cls-12" d="M455.65,440.25c-17.78-.42-24.9,4.76-25.18,14.59l-.92,39.1c-.15,6.35,5.8,11.66,13.26,11.84l22.59.53c7.46.18,13.65-4.85,13.8-11.2l.88-37.64C480.26,447.24,474.1,440.68,455.65,440.25Z"/><rect class="cls-6" x="451.55" y="425.88" width="8.43" height="8.43" transform="translate(15.08 875.63) rotate(-88.65)"/><rect class="cls-13" x="451.7" y="427.55" width="8.02" height="6.45" transform="translate(14.35 876.23) rotate(-88.65)"/><path class="cls-5" d="M454.93,470.51c-18-1.33-24.14-1-24.79-1.54l-.54,24.94c-.15,6.35,5.75,11.54,13.21,11.72l22.59.53c7.46.18,13.59-4.74,13.74-11.09l.65-24.95C479.77,470.61,468.61,471.52,454.93,470.51Z"/><path class="cls-14" d="M455.7,440.25c-17.77-.42-24.85,4.76-25.08,14.59l-.73,31.23a159.25,159.25,0,0,1,3.43-21.45,21.06,21.06,0,0,1,4.5-9.15,22.4,22.4,0,0,1,10.51-6.55c19.06-5.42,30,5.2,31.68,9.89l0-1.34C480.28,447.24,474.15,440.68,455.7,440.25Z"/><path class="cls-13" d="M427,454.65a25,25,0,0,1,3.43-9.69,14.83,14.83,0,0,1,12.8-7.87c7.8-.77,14-.36,21.14,0,9.16.42,8.55.17,9.41.4,2.46.68,6.28,2.4,10.16,7.71a19.09,19.09,0,0,0-17-11.29l-22.59-.53A18.87,18.87,0,0,0,425,451.53l-1.05,44.67C424.63,490.91,426,461.42,427,454.65Z"/><g class="cls-15"><rect x="435.17" y="454.52" width="17.22" height="1.52"/><rect x="435.17" y="457.79" width="8.82" height="1.52"/><rect x="435.17" y="461.05" width="17.22" height="1.52"/><rect x="435.17" y="464.32" width="8.82" height="1.52"/><rect x="435.17" y="467.58" width="17.22" height="1.52"/><rect x="435.17" y="470.85" width="8.82" height="1.52"/><rect x="435.17" y="474.11" width="17.22" height="1.52"/><rect x="435.17" y="477.38" width="8.82" height="1.52"/><rect x="435.17" y="480.64" width="17.22" height="1.52"/><rect x="435.17" y="483.91" width="8.82" height="1.52"/><rect x="435.17" y="487.17" width="17.22" height="1.52"/><rect x="435.17" y="490.44" width="8.82" height="1.52"/><rect x="435.17" y="493.7" width="17.22" height="1.52"/><rect x="435.17" y="496.97" width="8.82" height="1.52"/><rect x="435.17" y="500.23" width="17.22" height="1.52"/><rect x="435.17" y="503.5" width="8.82" height="1.52"/></g></svg>