<svg width="603" height="603" viewBox="0 0 603 603" fill="none" xmlns="http://www.w3.org/2000/svg">
<circle opacity="0.0770322" cx="301.5" cy="301.5" r="301.5" fill="#E13856"/>
<mask id="mask0" mask-type="alpha" maskUnits="userSpaceOnUse" x="379" y="385" width="18" height="132">
<path fill-rule="evenodd" clip-rule="evenodd" d="M383.525 385.199C381.114 385.199 379.145 387.018 379.145 389.247V512.927C379.145 515.156 381.114 517 383.525 517H392.286C394.697 517 396.666 515.156 396.666 512.927V389.247C396.666 387.018 394.697 385.199 392.286 385.199H383.525Z" fill="white"/>
</mask>
<g mask="url(#mask0)">
<path fill-rule="evenodd" clip-rule="evenodd" d="M383.525 385.199C381.114 385.199 379.145 387.018 379.145 389.247V512.927C379.145 515.156 381.114 517 383.525 517H392.286C394.697 517 396.666 515.156 396.666 512.927V389.247C396.666 387.018 394.697 385.199 392.286 385.199H383.525Z" fill="url(#paint0_linear)"/>
</g>
<path fill-rule="evenodd" clip-rule="evenodd" d="M379.145 396.93H396.666V358.139H379.145V396.93Z" fill="#A5B1CC"/>
<path fill-rule="evenodd" clip-rule="evenodd" d="M379.145 487.648H396.666V409.045H379.145V487.648Z" fill="#A5B1CC"/>
<path fill-rule="evenodd" clip-rule="evenodd" d="M150.422 242.583C149.962 242.507 149.501 242.43 149.041 242.379C147.329 242.175 145.667 242.098 144.082 242.149L140.146 253.434C142.165 252.668 144.414 252.362 146.945 252.592L150.422 242.583ZM158.678 244.524C158.09 244.345 157.477 244.192 156.889 244.013C155.994 243.783 155.1 243.553 154.231 243.349L150.805 253.23C151.751 253.434 152.748 253.69 153.796 253.996C154.282 254.124 154.742 254.251 155.253 254.379L158.678 244.524ZM165.555 246.643C164.455 246.311 163.382 245.979 162.359 245.647L158.934 255.502C159.931 255.809 160.954 256.141 162.027 256.498L165.555 246.643Z" fill="#00B49D"/>
<path fill-rule="evenodd" clip-rule="evenodd" d="M179.717 426.719C182.503 415.128 183.756 404.43 184.062 398.456L172.943 397.996C172.764 401.596 172.227 406.983 171.179 413.264C173.837 417.86 176.7 422.354 179.717 426.719Z" fill="#00B49D"/>
<path fill-rule="evenodd" clip-rule="evenodd" d="M164.532 238.677C165.529 238.983 166.091 240.03 165.759 240.975L159.164 259.919C158.831 260.864 157.732 261.375 156.71 261.068C155.713 260.762 155.15 259.741 155.483 258.77L162.078 239.851C162.41 238.907 163.509 238.37 164.532 238.677ZM156.454 236.2C157.477 236.532 158.014 237.553 157.681 238.498L151.086 257.443C150.753 258.387 149.655 258.924 148.657 258.592C147.635 258.285 147.072 257.264 147.405 256.319L154 237.375C154.332 236.43 155.431 235.894 156.454 236.2ZM176.981 232.907L159.854 227.672C155.406 226.294 150.549 228.617 149.092 232.779L140.554 257.289C139.097 261.477 141.551 266.021 146.024 267.375L163.126 272.634C167.6 273.987 172.43 271.689 173.888 267.502L182.425 243.017C183.883 238.83 181.429 234.285 176.981 232.907Z" fill="#BEE7FC"/>
<path fill-rule="evenodd" clip-rule="evenodd" d="M419.085 348.668L388.078 360.847L357.096 348.668C358.374 357.732 359.038 368.149 360.572 377.876C361.748 385.408 361.62 385.868 363.486 388.855C365.25 391.715 368.113 393.911 372.842 394.421C377.853 394.932 382.888 394.88 387.924 394.88H388.001H388.154H388.257C393.292 394.88 398.328 394.932 403.313 394.421C408.042 393.911 410.931 391.715 412.694 388.855C414.535 385.868 414.433 385.408 415.609 377.876C417.142 368.149 417.807 357.732 419.085 348.668Z" fill="#7ED2F9"/>
<path fill-rule="evenodd" clip-rule="evenodd" d="M419.085 348.668L388.078 360.847L357.096 348.668C358.272 357.042 358.936 366.54 360.24 375.604C362.234 376.804 364.688 377.647 367.73 377.978C374.427 378.668 381.15 378.566 387.873 378.566H387.975H388.205H388.308C395.031 378.566 401.754 378.668 408.426 377.978C411.467 377.647 413.947 376.804 415.941 375.604C417.244 366.54 417.884 357.042 419.085 348.668Z" fill="#00BBF4"/>
<path fill-rule="evenodd" clip-rule="evenodd" d="M428.825 313.612L388.078 329.621L347.356 313.612C349.044 325.51 349.913 339.196 351.932 352.012C353.466 361.893 353.313 362.48 355.767 366.438C358.067 370.165 361.85 373.076 368.062 373.74C374.632 374.429 381.253 374.327 387.873 374.327H387.976H388.18H388.308C394.929 374.327 401.524 374.429 408.119 373.74C414.331 373.076 418.089 370.165 420.415 366.438C422.869 362.48 422.715 361.893 424.249 352.012C426.268 339.196 427.137 325.51 428.825 313.612Z" fill="#BEE7FC"/>
<path fill-rule="evenodd" clip-rule="evenodd" d="M428.825 313.612L388.078 329.621L347.356 313.612C348.865 324.234 349.708 336.285 351.319 347.851C352.469 347.595 353.773 347.417 355.23 347.34C378.159 346.089 405.589 347.417 425.169 334.957C425.604 334.676 426.038 334.37 426.498 334.089C427.24 327.017 427.904 320.047 428.825 313.612Z" fill="#9EDDFA"/>
<path fill-rule="evenodd" clip-rule="evenodd" d="M364.918 387.834C366.682 390.132 369.29 391.868 373.277 392.302C378.159 392.813 383.042 392.762 387.924 392.736H388.001H388.154H388.257C393.139 392.762 398.022 392.813 402.879 392.302C406.866 391.868 409.499 390.132 411.263 387.834C409.525 388.906 407.352 389.673 404.617 389.928C399.198 390.464 393.727 390.413 388.283 390.387H388.18H388.001H387.899C382.454 390.413 376.984 390.464 371.565 389.928C368.803 389.673 366.631 388.906 364.918 387.834Z" fill="#BEE7FC"/>
<mask id="mask1" mask-type="alpha" maskUnits="userSpaceOnUse" x="164" y="82" width="284" height="416">
<path fill-rule="evenodd" clip-rule="evenodd" d="M239.786 134.184C217.803 170.346 193.44 215.427 178.468 260.304C165.416 299.38 156.203 345.253 173.759 384.508C189.115 418.753 215.884 451.9 247.823 473.93C269.218 488.675 310.139 511.727 330.05 487.116C337.113 478.376 340.517 471.22 340.926 455.707V363.756C340.926 346.838 341.285 338.276 354.95 337.535C377.906 336.283 405.367 337.586 424.97 325.14C441.773 314.465 447.933 300.086 447.963 284.701V284.487C447.919 260.445 432.974 233.971 420.313 215.325C389.577 170.09 340.312 113.457 315.488 82.0742C267.017 99.2225 254.4 110.135 239.786 134.184Z" fill="white"/>
</mask>
<g mask="url(#mask1)">
<path fill-rule="evenodd" clip-rule="evenodd" d="M239.786 134.184C217.803 170.346 193.44 215.427 178.468 260.304C165.416 299.38 156.203 345.253 173.759 384.508C189.115 418.753 215.884 451.9 247.823 473.93C269.218 488.675 310.139 511.727 330.05 487.116C337.113 478.376 340.517 471.22 340.926 455.707V363.756C340.926 346.838 341.285 338.276 354.95 337.535C377.906 336.283 405.367 337.586 424.97 325.14C441.773 314.465 447.933 300.086 447.963 284.701V284.487C447.919 260.445 432.974 233.971 420.313 215.325C389.577 170.09 340.312 113.457 315.488 82.0742C267.017 99.2225 254.4 110.135 239.786 134.184Z" fill="url(#paint1_linear)"/>
</g>
<mask id="mask2" mask-type="alpha" maskUnits="userSpaceOnUse" x="266" y="82" width="182" height="256">
<path fill-rule="evenodd" clip-rule="evenodd" d="M266.052 82.0742H447.963V337.921H266.052V82.0742Z" fill="white"/>
</mask>
<g mask="url(#mask2)">
<path fill-rule="evenodd" clip-rule="evenodd" d="M315.995 82.0742C340.724 113.511 389.8 170.241 420.419 215.553C441.146 246.247 468.017 298.113 425.059 325.556C405.734 337.895 378.761 336.743 356.046 337.921C358.086 336.743 360.074 335.437 361.96 333.953C392.732 309.812 392.477 280.961 375.931 254.337C346.384 206.823 302.279 150.81 266.052 104.167C276.58 96.3334 290.22 91.239 315.995 82.0742Z" fill="#DCF3FD"/>
</g>
<path fill-rule="evenodd" clip-rule="evenodd" d="M308.755 84.6592C338.685 121.37 385.212 176.563 411.547 215.552C429.954 242.79 453.128 286.669 428.169 315.366C442.471 284.544 418.201 240.41 401.4 215.552C375.957 177.869 331.062 124.339 300.902 87.5008C303.375 86.6048 305.976 85.6576 308.755 84.6592Z" fill="white"/>
<mask id="mask3" mask-type="alpha" maskUnits="userSpaceOnUse" x="280" y="130" width="86" height="65">
<path fill-rule="evenodd" clip-rule="evenodd" d="M319.09 149.752C299.281 171.094 292.832 173.717 289.852 175.774C284.328 179.554 285.612 178.294 281.784 182.049C278.958 186.472 280.371 190.586 283.531 193.003C286.974 195.6 293.269 195.934 297.149 192.232C307.349 179.014 317.112 169.552 328.443 161.734C338.9 154.509 350.924 148.569 365.98 142.32C362.666 138.206 359.351 134.143 356.088 130.157C341.623 136.277 327.8 140.34 319.09 149.752Z" fill="white"/>
</mask>
<g mask="url(#mask3)">
<path fill-rule="evenodd" clip-rule="evenodd" d="M319.09 149.752C299.281 171.094 292.832 173.717 289.852 175.774C284.328 179.554 285.612 178.294 281.784 182.049C278.958 186.472 280.371 190.586 283.531 193.003C286.974 195.6 293.269 195.934 297.149 192.232C307.349 179.014 317.112 169.552 328.443 161.734C338.9 154.509 350.924 148.569 365.98 142.32C362.666 138.206 359.351 134.143 356.088 130.157C341.623 136.277 327.8 140.34 319.09 149.752Z" fill="url(#paint2_linear)"/>
</g>
<mask id="mask4" mask-type="alpha" maskUnits="userSpaceOnUse" x="164" y="82" width="165" height="416">
<path fill-rule="evenodd" clip-rule="evenodd" d="M239.657 134.184C217.712 170.346 193.39 215.427 178.444 260.304C165.414 299.38 156.217 345.253 173.743 384.508C189.072 418.753 215.796 451.9 247.68 473.93C268.732 488.471 308.689 511.063 328.873 488.164H328.847C324.478 488.087 320.11 487.653 315.741 486.937C311.091 486.171 306.62 485.097 302.354 483.819C278.772 476.74 256.264 462.25 239.07 446.737C235.289 443.338 231.457 439.658 227.624 435.697C223.716 431.633 220.088 427.621 216.818 423.685C199.24 402.627 185.367 377.863 181.765 352.818C179.594 337.765 180.462 321.741 183.375 305.36C186.389 288.441 191.576 271.242 197.86 254.324C204.707 235.923 212.781 217.932 221.186 201.064C229.515 184.402 238.431 168.352 246.939 153.862C247.578 152.814 248.191 151.741 248.804 150.693C253.479 142.668 258.231 134.541 263.75 128.076C268.068 123.041 273.101 118.722 280.126 114.48C287.842 109.828 297.908 105.279 311.628 100.091L311.653 100.143C313.058 99.6059 318.73 97.7658 325.96 95.4146C322.025 90.61 318.423 86.1377 315.23 82.0742C266.841 99.2225 254.246 110.135 239.657 134.184Z" fill="white"/>
</mask>
<g mask="url(#mask4)">
<path fill-rule="evenodd" clip-rule="evenodd" d="M239.657 134.184C217.712 170.346 193.39 215.427 178.444 260.304C165.414 299.38 156.217 345.253 173.743 384.508C189.072 418.753 215.796 451.9 247.68 473.93C268.732 488.471 308.689 511.063 328.873 488.164H328.847C324.478 488.087 320.11 487.653 315.741 486.937C311.091 486.171 306.62 485.097 302.354 483.819C278.772 476.74 256.264 462.25 239.07 446.737C235.289 443.338 231.457 439.658 227.624 435.697C223.716 431.633 220.088 427.621 216.818 423.685C199.24 402.627 185.367 377.863 181.765 352.818C179.594 337.765 180.462 321.741 183.375 305.36C186.389 288.441 191.576 271.242 197.86 254.324C204.707 235.923 212.781 217.932 221.186 201.064C229.515 184.402 238.431 168.352 246.939 153.862C247.578 152.814 248.191 151.741 248.804 150.693C253.479 142.668 258.231 134.541 263.75 128.076C268.068 123.041 273.101 118.722 280.126 114.48C287.842 109.828 297.908 105.279 311.628 100.091L311.653 100.143C313.058 99.6059 318.73 97.7658 325.96 95.4146C322.025 90.61 318.423 86.1377 315.23 82.0742C266.841 99.2225 254.246 110.135 239.657 134.184Z" fill="url(#paint3_linear)"/>
</g>
<path fill-rule="evenodd" clip-rule="evenodd" d="M275.688 116.948C277.085 115.938 278.585 114.953 280.211 113.942C287.885 109.224 297.898 104.611 311.544 99.3488L311.569 99.4006C312.967 98.8563 318.608 96.9901 325.8 94.6054C321.886 89.7325 318.303 85.1965 315.127 81.0752C291.824 89.4992 276.882 96.4198 266.006 104.118C270.478 110.054 274.138 114.927 275.586 116.819C275.612 116.845 275.637 116.897 275.688 116.948Z" fill="#7ED2F9"/>
<path fill-rule="evenodd" clip-rule="evenodd" d="M310.68 99.6855C310.985 99.5818 311.264 99.4781 311.544 99.3485L311.569 99.4003C312.458 99.0634 315.025 98.1821 318.608 96.9898C314.873 92.376 311.29 87.9178 307.935 83.7188C305.242 84.7556 302.675 85.7405 300.21 86.7255C303.539 90.8468 307.046 95.2013 310.68 99.6855Z" fill="#9EDDFA"/>
<path fill-rule="evenodd" clip-rule="evenodd" d="M272.427 113C274.608 111.468 277.018 109.962 279.657 108.456C289.119 103.069 301.55 97.7846 318.877 91.6065C324.56 89.5641 327.427 83.5903 325.296 78.2291C324.078 75.1401 321.49 72.9446 318.42 72C318.269 72.0511 318.091 72.1021 317.939 72.1532C299.242 78.8418 285.669 84.637 275.116 90.6364C270.169 93.4701 265.856 96.3294 262 99.3418C266.034 104.626 269.789 109.554 272.427 113Z" fill="#BEE7FC"/>
<path fill-rule="evenodd" clip-rule="evenodd" d="M266.987 315C290.696 315 310 295.67 310 272.013C310 248.33 290.696 229 266.987 229C243.304 229 224 248.33 224 272.013C224 295.67 243.304 315 266.987 315Z" fill="#5AC8F7"/>
<mask id="mask5" mask-type="alpha" maskUnits="userSpaceOnUse" x="224" y="232" width="86" height="86">
<path fill-rule="evenodd" clip-rule="evenodd" d="M224.28 274.962C224.28 298.533 243.493 317.746 267.064 317.746C290.66 317.746 309.873 298.533 309.873 274.962C309.873 251.392 290.66 232.153 267.064 232.153C243.493 232.153 224.28 251.392 224.28 274.962Z" fill="white"/>
</mask>
<g mask="url(#mask5)">
<path fill-rule="evenodd" clip-rule="evenodd" d="M224.28 274.962C224.28 298.533 243.493 317.746 267.064 317.746C290.66 317.746 309.873 298.533 309.873 274.962C309.873 251.392 290.66 232.153 267.064 232.153C243.493 232.153 224.28 251.392 224.28 274.962Z" fill="url(#paint4_linear)"/>
</g>
<path fill-rule="evenodd" clip-rule="evenodd" d="M267.064 250.692C269.917 250.692 272.21 248.354 272.21 245.502C272.21 242.65 269.917 240.312 267.064 240.312C264.237 240.312 261.944 242.65 261.944 245.502C261.944 248.354 264.237 250.692 267.064 250.692Z" fill="#2DBEF5"/>
<path fill-rule="evenodd" clip-rule="evenodd" d="M267.064 312.746C269.917 312.746 272.21 310.408 272.21 307.556C272.21 304.703 269.917 302.365 267.064 302.365C264.237 302.365 261.944 304.703 261.944 307.556C261.944 310.408 264.237 312.746 267.064 312.746Z" fill="#2DBEF5"/>
<path fill-rule="evenodd" clip-rule="evenodd" d="M292.486 250.924C290.474 248.894 287.213 248.894 285.201 250.924C283.188 252.954 283.188 256.243 285.201 258.247C287.213 260.277 290.474 260.277 292.486 258.247C294.473 256.243 294.473 252.954 292.486 250.924Z" fill="#2DBEF5"/>
<path fill-rule="evenodd" clip-rule="evenodd" d="M248.953 294.811C246.941 292.781 243.68 292.781 241.668 294.811C239.681 296.815 239.681 300.104 241.668 302.134C243.68 304.164 246.941 304.164 248.953 302.134C250.94 300.104 250.94 296.815 248.953 294.811Z" fill="#2DBEF5"/>
<path fill-rule="evenodd" clip-rule="evenodd" d="M303.007 276.541C303.007 273.689 300.688 271.351 297.861 271.351C295.034 271.351 292.716 273.689 292.716 276.541C292.716 279.393 295.034 281.731 297.861 281.731C300.688 281.731 303.007 279.393 303.007 276.541Z" fill="#2DBEF5"/>
<path fill-rule="evenodd" clip-rule="evenodd" d="M241.439 276.541C241.439 273.689 239.12 271.351 236.293 271.351C233.465 271.351 231.147 273.689 231.147 276.541C231.147 279.393 233.465 281.731 236.293 281.731C239.12 281.731 241.439 279.393 241.439 276.541Z" fill="#2DBEF5"/>
<path fill-rule="evenodd" clip-rule="evenodd" d="M292.486 302.134C294.473 300.13 294.473 296.815 292.486 294.811C290.474 292.781 287.213 292.781 285.201 294.811C283.214 296.815 283.214 300.13 285.201 302.134C287.213 304.164 290.474 304.164 292.486 302.134Z" fill="#2DBEF5"/>
<path fill-rule="evenodd" clip-rule="evenodd" d="M248.953 258.247C250.94 256.243 250.94 252.954 248.953 250.924C246.941 248.894 243.68 248.894 241.668 250.924C239.681 252.954 239.681 256.243 241.668 258.247C243.68 260.277 246.941 260.277 248.953 258.247Z" fill="#2DBEF5"/>
<path fill-rule="evenodd" clip-rule="evenodd" d="M265.714 286.151C270.605 286.151 274.604 282.117 274.604 277.183C274.604 272.25 270.605 268.216 265.714 268.216C260.798 268.216 256.799 272.25 256.799 277.183C256.799 282.117 260.798 286.151 265.714 286.151Z" fill="#5AC8F7"/>
<path fill-rule="evenodd" clip-rule="evenodd" d="M267.064 249.818C269.917 249.818 272.21 247.48 272.21 244.628C272.21 241.776 269.917 239.438 267.064 239.438C264.237 239.438 261.944 241.776 261.944 244.628C261.944 247.48 264.237 249.818 267.064 249.818Z" fill="white"/>
<path fill-rule="evenodd" clip-rule="evenodd" d="M267.064 311.872C269.917 311.872 272.21 309.56 272.21 306.707C272.21 303.829 269.917 301.517 267.064 301.517C264.237 301.517 261.944 303.829 261.944 306.707C261.944 309.56 264.237 311.872 267.064 311.872Z" fill="white"/>
<path fill-rule="evenodd" clip-rule="evenodd" d="M292.486 250.05C290.474 248.046 287.213 248.046 285.201 250.05C283.188 252.08 283.188 255.369 285.201 257.399C287.213 259.403 290.474 259.403 292.486 257.399C294.473 255.369 294.473 252.08 292.486 250.05Z" fill="white"/>
<path fill-rule="evenodd" clip-rule="evenodd" d="M248.953 293.937C246.941 291.908 243.68 291.908 241.668 293.937C239.681 295.967 239.681 299.256 241.668 301.261C243.68 303.29 246.941 303.29 248.953 301.261C250.94 299.256 250.94 295.967 248.953 293.937Z" fill="white"/>
<path fill-rule="evenodd" clip-rule="evenodd" d="M303.007 275.668C303.007 272.816 300.688 270.478 297.861 270.478C295.034 270.478 292.716 272.816 292.716 275.668C292.716 278.52 295.034 280.858 297.861 280.858C300.688 280.858 303.007 278.52 303.007 275.668Z" fill="white"/>
<path fill-rule="evenodd" clip-rule="evenodd" d="M241.439 275.668C241.439 272.816 239.12 270.478 236.293 270.478C233.465 270.478 231.147 272.816 231.147 275.668C231.147 278.52 233.465 280.858 236.293 280.858C239.12 280.858 241.439 278.52 241.439 275.668Z" fill="white"/>
<path fill-rule="evenodd" clip-rule="evenodd" d="M292.486 301.261C294.473 299.256 294.473 295.967 292.486 293.937C290.474 291.908 287.213 291.908 285.201 293.937C283.214 295.967 283.214 299.256 285.201 301.261C287.213 303.29 290.474 303.29 292.486 301.261Z" fill="white"/>
<path fill-rule="evenodd" clip-rule="evenodd" d="M248.953 257.399C250.94 255.369 250.94 252.08 248.953 250.05C246.941 248.046 243.68 248.046 241.668 250.05C239.681 252.08 239.681 255.369 241.668 257.399C243.68 259.403 246.941 259.403 248.953 257.399Z" fill="white"/>
<path fill-rule="evenodd" clip-rule="evenodd" d="M265.714 284.635C270.605 284.635 274.604 280.601 274.604 275.668C274.604 270.734 270.605 266.7 265.714 266.7C260.798 266.7 256.799 270.734 256.799 275.668C256.799 280.601 260.798 284.635 265.714 284.635Z" fill="#9EDDFA"/>
<path fill-rule="evenodd" clip-rule="evenodd" d="M265.715 268.319C262.301 268.319 259.397 270.478 258.251 273.535C260.034 271.762 262.709 270.632 265.715 270.632C268.695 270.632 271.37 271.762 273.152 273.535C272.031 270.478 269.102 268.319 265.715 268.319Z" fill="#DCF3FD"/>
<path fill-rule="evenodd" clip-rule="evenodd" d="M267.064 217.237C243.119 217.237 223.022 236.149 218.283 261.202C224.907 238.95 244.291 222.762 267.064 222.762C289.862 222.762 309.247 238.95 315.87 261.202C311.132 236.149 291.034 217.237 267.064 217.237Z" fill="#DCF3FD"/>
<mask id="mask6" mask-type="alpha" maskUnits="userSpaceOnUse" x="148" y="243" width="16" height="13">
<path fill-rule="evenodd" clip-rule="evenodd" d="M148.114 252.858C149.738 253.08 151.492 253.474 153.403 253.991C155.445 254.509 157.723 255.174 160.289 255.937L163.823 246.429C161.231 245.666 158.875 244.976 156.571 244.36C154.869 243.917 153.246 243.548 151.649 243.252L148.114 252.858Z" fill="white"/>
</mask>
<g mask="url(#mask6)">
<path fill-rule="evenodd" clip-rule="evenodd" d="M148.114 252.858C149.738 253.08 151.492 253.474 153.403 253.991C155.445 254.509 157.723 255.174 160.289 255.937L163.823 246.429C161.231 245.666 158.875 244.976 156.571 244.36C154.869 243.917 153.246 243.548 151.649 243.252L148.114 252.858Z" fill="url(#paint5_linear)"/>
</g>
<mask id="mask7" mask-type="alpha" maskUnits="userSpaceOnUse" x="368" y="415" width="40" height="68">
<path fill-rule="evenodd" clip-rule="evenodd" d="M376.129 415.28C371.68 415.28 368.055 418.646 368.055 422.777V475.384C368.055 479.515 371.68 482.906 376.129 482.906H399.709C404.158 482.906 407.783 479.515 407.783 475.384V422.777C407.783 418.646 404.158 415.28 399.709 415.28H376.129Z" fill="white"/>
</mask>
<g mask="url(#mask7)">
<path fill-rule="evenodd" clip-rule="evenodd" d="M376.129 415.28C371.68 415.28 368.055 418.646 368.055 422.777V475.384C368.055 479.515 371.68 482.906 376.129 482.906H399.709C404.158 482.906 407.783 479.515 407.783 475.384V422.777C407.783 418.646 404.158 415.28 399.709 415.28H376.129Z" fill="url(#paint6_linear)"/>
</g>
<path fill-rule="evenodd" clip-rule="evenodd" d="M367.712 468.825H407.064V458.734H367.712V468.825Z" fill="#9BA8C5"/>
<path fill-rule="evenodd" clip-rule="evenodd" d="M408.439 456.741H366.336C363.382 456.741 360.962 459.015 360.962 461.799C360.962 464.558 363.382 466.832 366.336 466.832H408.439C411.394 466.832 413.814 464.558 413.814 461.799C413.814 459.015 411.394 456.741 408.439 456.741Z" fill="#D5DAE7"/>
<path fill-rule="evenodd" clip-rule="evenodd" d="M397.233 417.247H377.544C374.538 417.247 371.965 419.137 371.1 421.718C372.475 420.415 374.436 419.572 376.601 419.572H398.15C400.34 419.572 402.301 420.415 403.651 421.718C402.811 419.137 400.238 417.247 397.233 417.247Z" fill="#E5E9F2"/>
<path fill-rule="evenodd" clip-rule="evenodd" d="M397.233 479.682H377.544C374.538 479.682 371.965 477.792 371.1 475.186C372.475 476.489 374.436 477.332 376.601 477.332H398.15C400.34 477.332 402.301 476.489 403.651 475.186C402.811 477.792 400.238 479.682 397.233 479.682Z" fill="#D5DAE7"/>
<path fill-rule="evenodd" clip-rule="evenodd" d="M294.484 175.145L287.275 183.37L289.389 185.031L296.623 176.805L294.484 175.145Z" fill="#8C9DBC"/>
<path fill-rule="evenodd" clip-rule="evenodd" d="M408.44 456.741H366.336C363.942 456.741 361.905 458.223 361.217 460.267H413.559C412.871 458.223 410.834 456.741 408.44 456.741Z" fill="#E0E4EE"/>
<path fill-rule="evenodd" clip-rule="evenodd" d="M356.046 143.084C353.474 144.208 351.003 145.306 348.609 146.43C345.399 142.445 342.165 138.46 338.955 134.526C341.349 133.376 343.795 132.227 346.316 131.103C349.551 135.062 352.786 139.047 356.046 143.084Z" fill="#D5DAE7"/>
<path fill-rule="evenodd" clip-rule="evenodd" d="M307.423 96.0523C309.893 95.1071 312.466 94.1619 315.166 93.1656C310.759 87.8008 306.607 82.7171 302.812 78.0166C300.138 79.064 297.591 80.1114 295.171 81.1333C298.992 85.8082 303.093 90.8153 307.423 96.0523Z" fill="#DCF3FD"/>
<defs>
<linearGradient id="paint0_linear" x1="386.324" y1="492.211" x2="386.324" y2="516.003" gradientUnits="userSpaceOnUse">
<stop stop-color="#CAD1E2"/>
<stop offset="1" stop-color="#DBDDEB"/>
</linearGradient>
<linearGradient id="paint1_linear" x1="263.555" y1="365.366" x2="263.555" y2="489.771" gradientUnits="userSpaceOnUse">
<stop stop-color="#BDE6FB"/>
<stop offset="1" stop-color="#59C8F6"/>
</linearGradient>
<linearGradient id="paint2_linear" x1="325.413" y1="201.072" x2="364.067" y2="148.226" gradientUnits="userSpaceOnUse">
<stop stop-color="#7ED1F9"/>
<stop offset="1" stop-color="#59C8F6"/>
</linearGradient>
<linearGradient id="paint3_linear" x1="224.591" y1="333.776" x2="224.591" y2="444.208" gradientUnits="userSpaceOnUse">
<stop stop-color="#2DBDF4"/>
<stop offset="1" stop-color="#00B8F0"/>
</linearGradient>
<linearGradient id="paint4_linear" x1="305.965" y1="313.516" x2="305.965" y2="235.74" gradientUnits="userSpaceOnUse">
<stop stop-color="#7ED1F9"/>
<stop offset="1" stop-color="white"/>
</linearGradient>
<linearGradient id="paint5_linear" x1="148.795" y1="252.71" x2="159.492" y2="257.136" gradientUnits="userSpaceOnUse">
<stop stop-color="#5BC8B3"/>
<stop offset="1" stop-color="#91D8CA"/>
</linearGradient>
<linearGradient id="paint6_linear" x1="373.807" y1="428.928" x2="373.807" y2="476.97" gradientUnits="userSpaceOnUse">
<stop stop-color="#D4DAE6"/>
<stop offset="1" stop-color="#BDC6DB"/>
</linearGradient>
</defs>
</svg>
