<svg id="Layer_1" data-name="Layer 1" xmlns="http://www.w3.org/2000/svg" xmlns:xlink="http://www.w3.org/1999/xlink" viewBox="0 0 598 647.04"><defs><style>.cls-1{fill:none;}.cls-2{fill:#ff3556;opacity:0.09;}.cls-3{clip-path:url(#clip-path);}.cls-4{fill:#b9e0f9;}.cls-5{fill:#85d0f5;}.cls-6{fill:#e8e8ea;}.cls-7{fill:#d3d7dc;}.cls-8{fill:#a9b2bf;}.cls-16,.cls-9{fill:#d4d2d7;}.cls-10,.cls-12{fill:#323232;}.cls-11{fill:#fff;}.cls-12{font-size:7.95px;font-family:MyriadPro-Regular, Myriad Pro;}.cls-13{fill:#509cc7;}.cls-14{fill:#2b799f;}.cls-15{fill:#63b3e2;}.cls-16{opacity:0.5;}</style><clipPath id="clip-path" transform="translate(-1 48.04)"><circle class="cls-1" cx="300" cy="300" r="299"/></clipPath></defs><title>Chest drain tubes</title><circle class="cls-2" cx="299" cy="348.04" r="299"/><g class="cls-3"><path class="cls-4" d="M341.51,154l-6.33-6.25,3.17,3.13-3.18-3.11c.67-.69,16.21-17.15.61-38.17-4.95-6.66-10.55-11.59-16-16.35C306.25,81.31,293.44,70.06,305,39.1,318.19,4,306.5-6.69,306.38-6.8l-.53-.37-.13-.3L290.45-26.64l7-5.54,15,18.84c3.07,2.76,15.43,16.87.95,55.56-9.43,25.21-.78,32.81,12.32,44.32,5.5,4.83,11.73,10.31,17.24,17.73C359.1,126.07,349.07,146.31,341.51,154Z" transform="translate(-1 48.04)"/><path class="cls-5" d="M342.87,152l-2.37-2.34c.76-.79,17.92-18.77.85-41.77C336.23,101,330.51,96,325,91.13c-13.38-11.75-24.92-21.89-14-51,14.16-37.83.68-48.89.54-49l-.28-.28L296-28.37l2.61-2.08,15.16,19c1.78,1.54,14.69,14.4.37,52.65-10.11,27-.39,35.56,13.08,47.39,5.4,4.74,11.51,10.11,16.85,17.3C362.84,131.28,343.07,151.82,342.87,152Zm-1.19-1.17-1.19-1.17h0Z" transform="translate(-1 48.04)"/><rect class="cls-6" x="332.54" y="185.33" width="21.27" height="9.59" rx="2.5" ry="2.5"/><path class="cls-7" d="M270.77-38.21c-7.1,0-12.87-2.13-12.89-4.84s5.74-5,12.84-5,12.88,2.13,12.89,4.85S277.88-38.25,270.77-38.21Z" transform="translate(-1 48.04)"/><path class="cls-8" d="M270.8-33c-7.1,0-12.87-2.14-12.89-4.85s5.73-5,12.84-5,12.88,2.14,12.89,4.85S277.91-33,270.8-33Z" transform="translate(-1 48.04)"/><path class="cls-7" d="M270.83-28.78c-7.11,0-12.88-2.13-12.89-4.85s5.73-4.94,12.83-5,12.88,2.13,12.89,4.84S277.93-28.82,270.83-28.78Z" transform="translate(-1 48.04)"/><path class="cls-8" d="M270.85-23.55c-7.1,0-12.87-2.13-12.89-4.84s5.74-4.94,12.84-5,12.88,2.12,12.89,4.84S278-23.59,270.85-23.55Z" transform="translate(-1 48.04)"/><path class="cls-7" d="M270.88-19.34c-7.11,0-12.88-2.14-12.89-4.86s5.73-4.94,12.83-5,12.88,2.12,12.9,4.84S278-19.38,270.88-19.34Z" transform="translate(-1 48.04)"/><path class="cls-8" d="M270.91-14.12C263.8-14.08,258-16.24,258-19s5.73-4.94,12.83-5,12.88,2.13,12.89,4.84S278-14.16,270.91-14.12Z" transform="translate(-1 48.04)"/><path class="cls-7" d="M270.93-9.93c-7.1,0-12.88-2.12-12.89-4.84s5.73-4.95,12.83-5,12.88,2.12,12.9,4.83S278-10,270.93-9.93Z" transform="translate(-1 48.04)"/><path class="cls-8" d="M271-4.69c-7.11,0-12.88-2.12-12.89-4.84s5.73-5,12.83-5,12.88,2.13,12.9,4.84S278.06-4.72,271-4.69Z" transform="translate(-1 48.04)"/><path class="cls-7" d="M271-.49c-7.1,0-12.87-2.13-12.89-4.85s5.73-4.94,12.84-5,12.87,2.13,12.89,4.84S278.09-.53,271-.49Z" transform="translate(-1 48.04)"/><path class="cls-8" d="M271,4.74c-7.1,0-12.88-2.13-12.89-4.84S263.85-5,271-5.09s12.87,2.14,12.89,4.85S278.12,4.7,271,4.74Z" transform="translate(-1 48.04)"/><path class="cls-7" d="M271,8.94c-7.1,0-12.87-2.14-12.89-4.85S263.88-.86,271-.9,283.86,1.23,283.87,4,278.14,8.9,271,8.94Z" transform="translate(-1 48.04)"/><path class="cls-8" d="M271.06,14.17c-7.1,0-12.87-2.12-12.89-4.84s5.73-4.95,12.84-5,12.87,2.14,12.89,4.85S278.17,14.13,271.06,14.17Z" transform="translate(-1 48.04)"/><path class="cls-7" d="M271.08,18.36c-7.1,0-12.87-2.12-12.89-4.84s5.74-4.94,12.84-5,12.88,2.12,12.89,4.84S278.19,18.33,271.08,18.36Z" transform="translate(-1 48.04)"/><path class="cls-8" d="M271.11,23.61c-7.1,0-12.87-2.13-12.89-4.86s5.74-4.94,12.84-5S283.94,15.9,284,18.61,278.22,23.57,271.11,23.61Z" transform="translate(-1 48.04)"/><path class="cls-7" d="M271.14,27.8c-7.11,0-12.88-2.13-12.89-4.85S264,18,271.08,18,284,20.09,284,22.81,278.24,27.76,271.14,27.8Z" transform="translate(-1 48.04)"/><path class="cls-8" d="M271.17,33c-7.11,0-12.88-2.12-12.89-4.84s5.73-5,12.83-5S284,25.33,284,28.05,278.27,33,271.17,33Z" transform="translate(-1 48.04)"/><path class="cls-7" d="M271.2,38.57c-7.11,0-12.88-2-12.89-4.62s5.73-4.73,12.83-4.77,12.88,2,12.89,4.63S278.3,38.53,271.2,38.57Z" transform="translate(-1 48.04)"/><path class="cls-8" d="M271.23,45.6c-7.1,0-12.87-2.24-12.89-5.08s5.73-5.18,12.84-5.22,12.88,2.24,12.89,5.08S278.34,45.56,271.23,45.6Z" transform="translate(-1 48.04)"/><path class="cls-7" d="M272.17,48.91c7.08-.69,12.66-2.88,12.72-4.94s-5.45-4.54-12.5-5.51-13.15,1.34-13.23,5.07S265.1,49.62,272.17,48.91Z" transform="translate(-1 48.04)"/><path class="cls-8" d="M272.86,54.27c7-1.42,12.32-4.14,12.16-6.14s-5.9-3.83-13-4-12.95,2.65-12.64,6.28S265.91,55.69,272.86,54.27Z" transform="translate(-1 48.04)"/><path class="cls-7" d="M273.8,58.41c6.84-2,11.94-5.09,11.62-7s-6.18-3.25-13.28-2.87-12.69,3.66-12.09,7.21S267,60.39,273.8,58.41Z" transform="translate(-1 48.04)"/><path class="cls-8" d="M275.43,63.41c6.6-2.64,11.37-6.24,10.87-8.12s-6.49-2.54-13.51-1.43-12.24,4.89-11.31,8.3S268.83,66.05,275.43,63.41Z" transform="translate(-1 48.04)"/><path class="cls-7" d="M277.07,67.24c6.37-3.16,10.85-7.12,10.19-8.93s-6.65-2-13.56-.29-11.83,5.83-10.62,9.12S270.7,70.4,277.07,67.24Z" transform="translate(-1 48.04)"/><path class="cls-8" d="M279.52,71.78c6-3.77,10.1-8.13,9.28-9.86S282,60.66,275.28,63s-11.19,7-9.67,10.08S273.49,75.54,279.52,71.78Z" transform="translate(-1 48.04)"/><path class="cls-7" d="M281.78,75.21c5.72-4.23,9.45-8.88,8.5-10.53s-6.89-.7-13.39,2.19-10.6,7.8-8.86,10.78S276.07,79.44,281.78,75.21Z" transform="translate(-1 48.04)"/><path class="cls-8" d="M285,79.23c5.28-4.76,8.54-9.75,7.43-11.29s-6.9,0-13.09,3.5-9.79,8.78-7.77,11.57S279.69,84,285,79.23Z" transform="translate(-1 48.04)"/><path class="cls-7" d="M287.79,82.22c4.88-5.16,7.75-10.4,6.52-11.84s-6.87.52-12.75,4.51S272.47,84.41,274.7,87,282.9,87.37,287.79,82.22Z" transform="translate(-1 48.04)"/><path class="cls-8" d="M291.6,85.61C296,80,298.31,74.51,297,73.2s-6.78,1.2-12.25,5.74-8.11,10.34-5.65,12.73S287.24,91.22,291.6,85.61Z" transform="translate(-1 48.04)"/><path class="cls-7" d="M294.9,88.07c3.92-5.94,5.82-11.59,4.37-12.8S292.61,77,287.51,82s-7.3,10.93-4.66,13.12S291,94,294.9,88.07Z" transform="translate(-1 48.04)"/><path class="cls-8" d="M299.26,90.77c3.32-6.29,4.65-12.11,3.11-13.18S295.9,80,291.3,85.37,285.11,97,288,98.9,295.94,97.05,299.26,90.77Z" transform="translate(-1 48.04)"/><path class="cls-7" d="M302.94,92.62c2.82-6.54,3.69-12.44,2.06-13.39s-6.27,2.85-10.42,8.62-5.28,12.05-2.3,13.76S300.12,99.14,302.94,92.62Z" transform="translate(-1 48.04)"/><path class="cls-8" d="M307.74,94.53c2.17-6.78,2.45-12.75.71-13.54s-5.95,3.44-9.53,9.59-4.08,12.51-.94,13.92S305.59,101.3,307.74,94.53Z" transform="translate(-1 48.04)"/><path class="cls-7" d="M311.74,95.71c1.62-6.93,1.42-12.9-.38-13.56s-5.69,3.89-8.78,10.3-3.08,12.81.18,14S310.13,102.63,311.74,95.71Z" transform="translate(-1 48.04)"/><path class="cls-8" d="M316.88,96.74c.92-7,.11-13-1.75-13.45s-5.32,4.43-7.77,11.1-1.78,13.07,1.62,13.9S316,103.79,316.88,96.74Z" transform="translate(-1 48.04)"/><path class="cls-7" d="M321.12,97.19c.35-7.11-1-13-2.89-13.27s-5,4.84-6.89,11.69-.73,13.16,2.76,13.73S320.77,104.3,321.12,97.19Z" transform="translate(-1 48.04)"/><path class="cls-8" d="M326.52,97.25c-.39-7.09-2.33-12.76-4.3-12.88s-4.51,5.3-5.73,12.31.6,13.17,4.18,13.38S326.91,104.35,326.52,97.25Z" transform="translate(-1 48.04)"/><path class="cls-7" d="M330.92,96.9c-1-7-3.43-12.52-5.43-12.48s-4.12,5.66-4.78,12.74,1.7,13.08,5.34,13S331.91,103.94,330.92,96.9Z" transform="translate(-1 48.04)"/><path class="cls-8" d="M336.47,95.92c-1.73-6.9-4.81-12.08-6.84-11.83s-3.59,6.07-3.52,13.18,3.08,12.83,6.77,12.35S338.2,102.8,336.47,95.92Z" transform="translate(-1 48.04)"/><path class="cls-7" d="M339.46,96.07c-.23,7.11-2,12.83-4.09,13s-4.89-5.14-6.32-12.1.47-13.22,4.19-13.54S339.7,89,339.46,96.07Z" transform="translate(-1 48.04)"/><path class="cls-8" d="M344.86,96.41c-1,7-3.33,12.56-5.34,12.53s-4.2-5.63-4.88-12.71,1.8-13.09,5.44-13S345.81,89.38,344.86,96.41Z" transform="translate(-1 48.04)"/><path class="cls-7" d="M349.05,97.08c-1.53,7-4.3,12.25-6.26,12s-3.66-5.95-3.74-13.06,2.82-12.9,6.4-12.54S350.58,90.14,349.05,97.08Z" transform="translate(-1 48.04)"/><path class="cls-8" d="M354.14,98.37c-2.2,6.76-5.48,11.76-7.39,11.38s-3-6.31-2.31-13.38,4.08-12.54,7.55-11.83S356.35,91.62,354.14,98.37Z" transform="translate(-1 48.04)"/><path class="cls-7" d="M358.07,99.76c-2.74,6.56-6.39,11.3-8.24,10.76S347.43,104,348.66,97s5-12.18,8.39-11.2S360.81,93.2,358.07,99.76Z" transform="translate(-1 48.04)"/><path class="cls-8" d="M362.76,101.9c-3.36,6.26-7.44,10.62-9.22,9.91s-1.71-6.71.21-13.56,6.21-11.62,9.42-10.31S366.12,95.64,362.76,101.9Z" transform="translate(-1 48.04)"/><path class="cls-7" d="M366.34,103.94c-3.85,6-8.25,10-9.95,9.16s-1.16-6.82,1.3-13.49,7.09-11.09,10.17-9.55S370.18,98,366.34,103.94Z" transform="translate(-1 48.04)"/><path class="cls-8" d="M370.56,106.86c-4.41,5.57-9.18,9.16-10.78,8.15s-.47-6.89,2.63-13.29,8.12-10.34,11-8.51S375,101.28,370.56,106.86Z" transform="translate(-1 48.04)"/><path class="cls-7" d="M373.72,109.47c-4.83,5.21-9.87,8.42-11.39,7.29s.08-6.89,3.67-13,8.9-9.68,11.65-7.63S378.54,104.25,373.72,109.47Z" transform="translate(-1 48.04)"/><path class="cls-8" d="M377.36,113.06c-5.3,4.73-10.64,7.42-12,6.16s.75-6.85,4.93-12.6,9.78-8.77,12.34-6.48S382.67,108.34,377.36,113.06Z" transform="translate(-1 48.04)"/><path class="cls-7" d="M380,116.18c-5.66,4.3-11.18,6.57-12.48,5.21s1.28-6.76,5.89-12.18,10.43-8,12.8-5.5S385.69,111.9,380,116.18Z" transform="translate(-1 48.04)"/><path class="cls-8" d="M383,120.36c-6.05,3.73-11.77,5.43-12.94,4s1.93-6.6,7-11.55,11.17-6.93,13.28-4.23S389.05,116.64,383,120.36Z" transform="translate(-1 48.04)"/><path class="cls-7" d="M385.09,123.91c-6.33,3.25-12.17,4.5-13.22,2.93s2.43-6.44,7.91-11,11.68-6.06,13.58-3.19S391.42,120.68,385.09,123.91Z" transform="translate(-1 48.04)"/><path class="cls-8" d="M387.31,128.58c-6.62,2.61-12.56,3.28-13.46,1.59s3-6.16,8.94-10.14,12.22-4.89,13.83-1.84S393.93,126,387.31,128.58Z" transform="translate(-1 48.04)"/><path class="cls-7" d="M388.76,132.49c-6.82,2.07-12.79,2.26-13.56.51s3.51-5.93,9.7-9.44,12.58-3.91,14-.73S395.55,130.43,388.76,132.49Z" transform="translate(-1 48.04)"/><path class="cls-8" d="M390.12,137.56c-7,1.38-12.95.95-13.54-.88s4.07-5.6,10.57-8.47,12.92-2.64,14,.7S397.09,136.18,390.12,137.56Z" transform="translate(-1 48.04)"/><path class="cls-7" d="M390.85,141.76c-7.07.81-13-.12-13.44-2s4.5-5.28,11.22-7.64,13.08-1.59,13.88,1.85S397.91,140.94,390.85,141.76Z" transform="translate(-1 48.04)"/><path class="cls-8" d="M391.26,147.14c-7.11.08-12.89-1.49-13.14-3.44s5-4.85,11.91-6.54,13.18-.26,13.63,3.3S398.37,147.06,391.26,147.14Z" transform="translate(-1 48.04)"/><path class="cls-7" d="M391.2,151.55c-7.09-.51-12.72-2.61-12.81-4.6s5.37-4.48,12.4-5.6,13.16.84,13.31,4.47S398.28,152.07,391.2,151.55Z" transform="translate(-1 48.04)"/><path class="cls-8" d="M390.58,157.16c-7-1.29-12.37-4-12.25-6s5.82-4,12.92-4.39,13,2.24,12.77,5.95S397.56,158.43,390.58,157.16Z" transform="translate(-1 48.04)"/><rect class="cls-6" x="370.91" y="187.14" width="36.15" height="9.1" rx="2.77" ry="2.77"/><rect class="cls-9" x="171.97" y="191.17" width="257.24" height="359.55" rx="5.42" ry="5.42"/><rect class="cls-10" x="397.52" y="244.54" width="19.09" height="290.23"/><rect class="cls-11" x="354.8" y="244.54" width="19.09" height="290.23"/><rect class="cls-11" x="312.08" y="244.54" width="19.09" height="290.23"/><path class="cls-10" d="M286.39,502.67H177.69A4.72,4.72,0,0,1,173,498v-310c41.38-3,78.88.53,113.42,9.07Z" transform="translate(-1 48.04)"/><rect x="312.08" y="246" width="6.36" height="0.58"/><rect x="312.08" y="249.11" width="6.36" height="0.58"/><rect x="312.08" y="252.21" width="6.36" height="0.58"/><rect x="312.08" y="255.33" width="15.06" height="0.58"/><rect x="312.08" y="258.43" width="6.36" height="0.58"/><rect x="312.08" y="261.54" width="6.36" height="0.58"/><rect x="312.08" y="264.64" width="6.36" height="0.58"/><rect x="312.08" y="267.76" width="6.36" height="0.58"/><rect x="312.08" y="270.86" width="8.38" height="0.58"/><rect x="312.08" y="273.97" width="6.36" height="0.58"/><rect x="312.08" y="277.07" width="6.36" height="0.58"/><rect x="312.08" y="280.19" width="6.36" height="0.58"/><rect x="312.08" y="283.29" width="6.36" height="0.58"/><rect x="312.08" y="286.4" width="15.06" height="0.58"/><rect x="312.08" y="289.5" width="6.36" height="0.58"/><rect x="312.08" y="292.62" width="6.36" height="0.58"/><rect x="312.08" y="295.72" width="6.36" height="0.58"/><rect x="312.08" y="298.83" width="6.36" height="0.58"/><rect x="312.08" y="301.93" width="8.38" height="0.58"/><rect x="312.08" y="305.05" width="6.36" height="0.58"/><rect x="312.08" y="308.15" width="6.36" height="0.58"/><rect x="312.08" y="311.26" width="6.36" height="0.58"/><rect x="312.08" y="314.36" width="6.36" height="0.58"/><rect x="312.08" y="317.48" width="15.06" height="0.58"/><rect x="312.08" y="320.58" width="6.36" height="0.58"/><rect x="312.08" y="323.69" width="6.36" height="0.58"/><rect x="312.08" y="326.79" width="6.36" height="0.58"/><rect x="312.08" y="329.91" width="6.36" height="0.58"/><rect x="312.08" y="333.01" width="8.38" height="0.58"/><rect x="312.08" y="336.12" width="6.36" height="0.58"/><rect x="312.08" y="339.23" width="6.36" height="0.58"/><rect x="312.08" y="342.34" width="6.36" height="0.58"/><rect x="312.08" y="345.44" width="6.36" height="0.58"/><rect x="312.08" y="348.55" width="15.06" height="0.58"/><rect x="312.08" y="351.66" width="6.36" height="0.58"/><rect x="312.08" y="354.77" width="6.36" height="0.58"/><rect x="312.08" y="357.87" width="6.36" height="0.58"/><rect x="312.08" y="360.98" width="6.36" height="0.58"/><rect x="312.08" y="364.09" width="8.38" height="0.58"/><rect x="312.08" y="367.2" width="6.36" height="0.58"/><rect x="312.08" y="370.3" width="6.36" height="0.58"/><rect x="312.08" y="373.41" width="6.36" height="0.58"/><rect x="312.08" y="376.52" width="6.36" height="0.58"/><rect x="312.08" y="379.63" width="15.06" height="0.58"/><rect x="312.08" y="382.73" width="6.36" height="0.58"/><rect x="312.08" y="385.84" width="6.36" height="0.58"/><rect x="312.08" y="388.95" width="6.36" height="0.58"/><rect x="312.08" y="392.06" width="6.36" height="0.58"/><rect x="312.08" y="395.16" width="8.38" height="0.58"/><rect x="312.08" y="398.27" width="6.36" height="0.58"/><rect x="312.08" y="401.38" width="6.36" height="0.58"/><rect x="312.08" y="404.49" width="6.36" height="0.58"/><rect x="312.08" y="407.59" width="6.36" height="0.58"/><rect x="312.08" y="410.69" width="15.06" height="0.58"/><rect x="312.08" y="413.81" width="6.36" height="0.58"/><rect x="312.08" y="416.92" width="6.36" height="0.58"/><rect x="312.08" y="420.02" width="6.36" height="0.58"/><rect x="312.08" y="423.13" width="6.36" height="0.58"/><rect x="312.08" y="426.24" width="8.38" height="0.58"/><rect x="312.08" y="429.35" width="6.36" height="0.58"/><rect x="312.08" y="432.45" width="6.36" height="0.58"/><rect x="312.08" y="435.55" width="6.36" height="0.58"/><rect x="312.08" y="438.67" width="6.36" height="0.58"/><rect x="312.08" y="441.78" width="15.06" height="0.58"/><rect x="312.08" y="444.88" width="6.36" height="0.58"/><rect x="312.08" y="447.98" width="6.36" height="0.58"/><rect x="312.08" y="451.1" width="6.36" height="0.58"/><rect x="312.08" y="454.21" width="6.36" height="0.58"/><rect x="312.08" y="457.31" width="8.38" height="0.58"/><rect x="312.08" y="460.41" width="6.36" height="0.58"/><rect x="312.08" y="463.53" width="6.36" height="0.58"/><rect x="312.08" y="466.64" width="6.36" height="0.58"/><rect x="312.08" y="469.74" width="6.36" height="0.58"/><rect x="312.08" y="472.84" width="15.06" height="0.58"/><rect x="312.08" y="475.96" width="6.36" height="0.58"/><rect x="312.08" y="479.07" width="6.36" height="0.58"/><rect x="312.08" y="482.17" width="6.36" height="0.58"/><rect x="312.08" y="485.27" width="6.36" height="0.58"/><rect x="312.08" y="488.39" width="8.38" height="0.58"/><rect x="312.08" y="491.5" width="6.36" height="0.58"/><rect x="312.08" y="494.6" width="6.36" height="0.58"/><rect x="312.08" y="497.7" width="6.36" height="0.58"/><rect x="312.08" y="500.82" width="6.36" height="0.58"/><rect x="312.08" y="503.93" width="15.06" height="0.58"/><rect x="312.08" y="507.03" width="6.36" height="0.58"/><rect x="312.08" y="510.13" width="6.36" height="0.58"/><rect x="312.08" y="513.25" width="6.36" height="0.58"/><rect x="312.08" y="516.36" width="6.36" height="0.58"/><rect x="312.08" y="519.46" width="8.38" height="0.58"/><rect x="312.08" y="522.56" width="6.36" height="0.58"/><rect x="312.08" y="525.68" width="6.36" height="0.58"/><rect x="312.08" y="528.79" width="6.36" height="0.58"/><rect x="312.08" y="531.89" width="6.36" height="0.58"/><rect x="354.8" y="246" width="6.36" height="0.58"/><rect x="354.8" y="249.11" width="6.36" height="0.58"/><rect x="354.8" y="252.21" width="6.36" height="0.58"/><rect x="354.8" y="255.33" width="15.06" height="0.58"/><rect x="354.8" y="258.43" width="6.36" height="0.58"/><rect x="354.8" y="261.54" width="6.36" height="0.58"/><rect x="354.8" y="264.64" width="6.36" height="0.58"/><rect x="354.8" y="267.76" width="6.36" height="0.58"/><rect x="354.8" y="270.86" width="8.38" height="0.58"/><rect x="354.8" y="273.97" width="6.36" height="0.58"/><rect x="354.8" y="277.07" width="6.36" height="0.58"/><rect x="354.8" y="280.19" width="6.36" height="0.58"/><rect x="354.8" y="283.29" width="6.36" height="0.58"/><rect x="354.8" y="286.4" width="15.06" height="0.58"/><rect x="354.8" y="289.5" width="6.36" height="0.58"/><rect x="354.8" y="292.62" width="6.36" height="0.58"/><rect x="354.8" y="295.72" width="6.36" height="0.58"/><rect x="354.8" y="298.83" width="6.36" height="0.58"/><rect x="354.8" y="301.93" width="8.38" height="0.58"/><rect x="354.8" y="305.05" width="6.36" height="0.58"/><rect x="354.8" y="308.15" width="6.36" height="0.58"/><rect x="354.8" y="311.26" width="6.36" height="0.58"/><rect x="354.8" y="314.36" width="6.36" height="0.58"/><rect x="354.8" y="317.48" width="15.06" height="0.58"/><rect x="354.8" y="320.58" width="6.36" height="0.58"/><rect x="354.8" y="323.69" width="6.36" height="0.58"/><rect x="354.8" y="326.79" width="6.36" height="0.58"/><rect x="354.8" y="329.91" width="6.36" height="0.58"/><rect x="354.8" y="333.01" width="8.38" height="0.58"/><rect x="354.8" y="336.12" width="6.36" height="0.58"/><rect x="354.8" y="339.23" width="6.36" height="0.58"/><rect x="354.8" y="342.34" width="6.36" height="0.58"/><rect x="354.8" y="345.44" width="6.36" height="0.58"/><rect x="354.8" y="348.55" width="15.06" height="0.58"/><rect x="354.8" y="351.66" width="6.36" height="0.58"/><rect x="354.8" y="354.77" width="6.36" height="0.58"/><rect x="354.8" y="357.87" width="6.36" height="0.58"/><rect x="354.8" y="360.98" width="6.36" height="0.58"/><rect x="354.8" y="364.09" width="8.38" height="0.58"/><rect x="354.8" y="367.2" width="6.36" height="0.58"/><rect x="354.8" y="370.3" width="6.36" height="0.58"/><rect x="354.8" y="373.41" width="6.36" height="0.58"/><rect x="354.8" y="376.52" width="6.36" height="0.58"/><rect x="354.8" y="379.63" width="15.06" height="0.58"/><rect x="354.8" y="382.73" width="6.36" height="0.58"/><rect x="354.8" y="385.84" width="6.36" height="0.58"/><rect x="354.8" y="388.95" width="6.36" height="0.58"/><rect x="354.8" y="392.06" width="6.36" height="0.58"/><rect x="354.8" y="395.16" width="8.38" height="0.58"/><rect x="354.8" y="398.27" width="6.36" height="0.58"/><rect x="354.8" y="401.38" width="6.36" height="0.58"/><rect x="354.8" y="404.49" width="6.36" height="0.58"/><rect x="354.8" y="407.59" width="6.36" height="0.58"/><rect x="354.8" y="410.69" width="15.06" height="0.58"/><rect x="354.8" y="413.81" width="6.36" height="0.58"/><rect x="354.8" y="416.92" width="6.36" height="0.58"/><rect x="354.8" y="420.02" width="6.36" height="0.58"/><rect x="354.8" y="423.13" width="6.36" height="0.58"/><rect x="354.8" y="426.24" width="8.38" height="0.58"/><rect x="354.8" y="429.35" width="6.36" height="0.58"/><rect x="354.8" y="432.45" width="6.36" height="0.58"/><rect x="354.8" y="435.55" width="6.36" height="0.58"/><rect x="354.8" y="438.67" width="6.36" height="0.58"/><rect x="354.8" y="441.78" width="15.06" height="0.58"/><rect x="354.8" y="444.88" width="6.36" height="0.58"/><rect x="354.8" y="447.98" width="6.36" height="0.58"/><rect x="354.8" y="451.1" width="6.36" height="0.58"/><rect x="354.8" y="454.21" width="6.36" height="0.58"/><rect x="354.8" y="457.31" width="8.38" height="0.58"/><rect x="354.8" y="460.41" width="6.36" height="0.58"/><rect x="354.8" y="463.53" width="6.36" height="0.58"/><rect x="354.8" y="466.64" width="6.36" height="0.58"/><rect x="354.8" y="469.74" width="6.36" height="0.58"/><rect x="354.8" y="472.84" width="15.06" height="0.58"/><rect x="354.8" y="475.96" width="6.36" height="0.58"/><rect x="354.8" y="479.07" width="6.36" height="0.58"/><rect x="354.8" y="482.17" width="6.36" height="0.58"/><rect x="354.8" y="485.27" width="6.36" height="0.58"/><rect x="354.8" y="488.39" width="8.38" height="0.58"/><rect x="354.8" y="491.5" width="6.36" height="0.58"/><rect x="354.8" y="494.6" width="6.36" height="0.58"/><rect x="354.8" y="497.7" width="6.36" height="0.58"/><rect x="354.8" y="500.82" width="6.36" height="0.58"/><rect x="354.8" y="503.93" width="15.06" height="0.58"/><rect x="354.8" y="507.03" width="6.36" height="0.58"/><rect x="354.8" y="510.13" width="6.36" height="0.58"/><rect x="354.8" y="513.25" width="6.36" height="0.58"/><rect x="354.8" y="516.36" width="6.36" height="0.58"/><rect x="354.8" y="519.46" width="8.38" height="0.58"/><rect x="354.8" y="522.56" width="6.36" height="0.58"/><rect x="354.8" y="525.68" width="6.36" height="0.58"/><rect x="354.8" y="528.79" width="6.36" height="0.58"/><rect x="354.8" y="531.89" width="6.36" height="0.58"/><rect class="cls-11" x="397.52" y="246" width="6.36" height="0.58"/><rect class="cls-11" x="397.52" y="249.11" width="6.36" height="0.58"/><rect class="cls-11" x="397.52" y="252.21" width="6.36" height="0.58"/><rect class="cls-11" x="397.52" y="255.33" width="15.06" height="0.58"/><rect class="cls-11" x="397.52" y="258.43" width="6.36" height="0.58"/><rect class="cls-11" x="397.52" y="261.54" width="6.36" height="0.58"/><rect class="cls-11" x="397.52" y="264.64" width="6.36" height="0.58"/><rect class="cls-11" x="397.52" y="267.76" width="6.36" height="0.58"/><rect class="cls-11" x="397.52" y="270.86" width="8.38" height="0.58"/><rect class="cls-11" x="397.52" y="273.97" width="6.36" height="0.58"/><rect class="cls-11" x="397.52" y="277.07" width="6.36" height="0.58"/><rect class="cls-11" x="397.52" y="280.19" width="6.36" height="0.58"/><rect class="cls-11" x="397.52" y="283.29" width="6.36" height="0.58"/><rect class="cls-11" x="397.52" y="286.4" width="15.06" height="0.58"/><rect class="cls-11" x="397.52" y="289.5" width="6.36" height="0.58"/><rect class="cls-11" x="397.52" y="292.62" width="6.36" height="0.58"/><rect class="cls-11" x="397.52" y="295.72" width="6.36" height="0.58"/><rect class="cls-11" x="397.52" y="298.83" width="6.36" height="0.58"/><rect class="cls-11" x="397.52" y="301.93" width="8.38" height="0.58"/><rect class="cls-11" x="397.52" y="305.05" width="6.36" height="0.58"/><rect class="cls-11" x="397.52" y="308.15" width="6.36" height="0.58"/><rect class="cls-11" x="397.52" y="311.26" width="6.36" height="0.58"/><rect class="cls-11" x="397.52" y="314.36" width="6.36" height="0.58"/><rect class="cls-11" x="397.52" y="317.48" width="15.06" height="0.58"/><rect class="cls-11" x="397.52" y="320.58" width="6.36" height="0.58"/><rect class="cls-11" x="397.52" y="323.69" width="6.36" height="0.58"/><rect class="cls-11" x="397.52" y="326.79" width="6.36" height="0.58"/><rect class="cls-11" x="397.52" y="329.91" width="6.36" height="0.58"/><rect class="cls-11" x="397.52" y="333.01" width="8.38" height="0.58"/><rect class="cls-11" x="397.52" y="336.12" width="6.36" height="0.58"/><rect class="cls-11" x="397.52" y="339.23" width="6.36" height="0.58"/><rect class="cls-11" x="397.52" y="342.34" width="6.36" height="0.58"/><rect class="cls-11" x="397.52" y="345.44" width="6.36" height="0.58"/><rect class="cls-11" x="397.52" y="348.55" width="15.06" height="0.58"/><rect class="cls-11" x="397.52" y="351.66" width="6.36" height="0.58"/><rect class="cls-11" x="397.52" y="354.77" width="6.36" height="0.58"/><rect class="cls-11" x="397.52" y="357.87" width="6.36" height="0.58"/><rect class="cls-11" x="397.52" y="360.98" width="6.36" height="0.58"/><rect class="cls-11" x="397.52" y="364.09" width="8.38" height="0.58"/><rect class="cls-11" x="397.52" y="367.2" width="6.36" height="0.58"/><rect class="cls-11" x="397.52" y="370.3" width="6.36" height="0.58"/><rect class="cls-11" x="397.52" y="373.41" width="6.36" height="0.58"/><rect class="cls-11" x="397.52" y="376.52" width="6.36" height="0.58"/><rect class="cls-11" x="397.52" y="379.63" width="15.06" height="0.58"/><rect class="cls-11" x="397.52" y="382.73" width="6.36" height="0.58"/><rect class="cls-11" x="397.52" y="385.84" width="6.36" height="0.58"/><rect class="cls-11" x="397.52" y="388.95" width="6.36" height="0.58"/><rect class="cls-11" x="397.52" y="392.06" width="6.36" height="0.58"/><rect class="cls-11" x="397.52" y="395.16" width="8.38" height="0.58"/><rect class="cls-11" x="397.52" y="398.27" width="6.36" height="0.58"/><rect class="cls-11" x="397.52" y="401.38" width="6.36" height="0.58"/><rect class="cls-11" x="397.52" y="404.49" width="6.36" height="0.58"/><rect class="cls-11" x="397.52" y="407.59" width="6.36" height="0.58"/><rect class="cls-11" x="397.52" y="410.69" width="15.06" height="0.58"/><rect class="cls-11" x="397.52" y="413.81" width="6.36" height="0.58"/><rect class="cls-11" x="397.52" y="416.92" width="6.36" height="0.58"/><rect class="cls-11" x="397.52" y="420.02" width="6.36" height="0.58"/><rect class="cls-11" x="397.52" y="423.13" width="6.36" height="0.58"/><rect class="cls-11" x="397.52" y="426.24" width="8.38" height="0.58"/><rect class="cls-11" x="397.52" y="429.35" width="6.36" height="0.58"/><rect class="cls-11" x="397.52" y="432.45" width="6.36" height="0.58"/><rect class="cls-11" x="397.52" y="435.55" width="6.36" height="0.58"/><rect class="cls-11" x="397.52" y="438.67" width="6.36" height="0.58"/><rect class="cls-11" x="397.52" y="441.78" width="15.06" height="0.58"/><rect class="cls-11" x="397.52" y="444.88" width="6.36" height="0.58"/><rect class="cls-11" x="397.52" y="447.98" width="6.36" height="0.58"/><rect class="cls-11" x="397.52" y="451.1" width="6.36" height="0.58"/><rect class="cls-11" x="397.52" y="454.21" width="6.36" height="0.58"/><rect class="cls-11" x="397.52" y="457.31" width="8.38" height="0.58"/><rect class="cls-11" x="397.52" y="460.41" width="6.36" height="0.58"/><rect class="cls-11" x="397.52" y="463.53" width="6.36" height="0.58"/><rect class="cls-11" x="397.52" y="466.64" width="6.36" height="0.58"/><rect class="cls-11" x="397.52" y="469.74" width="6.36" height="0.58"/><rect class="cls-11" x="397.52" y="472.84" width="15.06" height="0.58"/><rect class="cls-11" x="397.52" y="475.96" width="6.36" height="0.58"/><rect class="cls-11" x="397.52" y="479.07" width="6.36" height="0.58"/><rect class="cls-11" x="397.52" y="482.17" width="6.36" height="0.58"/><rect class="cls-11" x="397.52" y="485.27" width="6.36" height="0.58"/><rect class="cls-11" x="397.52" y="488.39" width="8.38" height="0.58"/><rect class="cls-11" x="397.52" y="491.5" width="6.36" height="0.58"/><rect class="cls-11" x="397.52" y="494.6" width="6.36" height="0.58"/><rect class="cls-11" x="397.52" y="497.7" width="6.36" height="0.58"/><rect class="cls-11" x="397.52" y="500.82" width="6.36" height="0.58"/><rect class="cls-11" x="397.52" y="503.93" width="15.06" height="0.58"/><rect class="cls-11" x="397.52" y="507.03" width="6.36" height="0.58"/><rect class="cls-11" x="397.52" y="510.13" width="6.36" height="0.58"/><rect class="cls-11" x="397.52" y="513.25" width="6.36" height="0.58"/><rect class="cls-11" x="397.52" y="516.36" width="6.36" height="0.58"/><rect class="cls-11" x="397.52" y="519.46" width="8.38" height="0.58"/><rect class="cls-11" x="397.52" y="522.56" width="6.36" height="0.58"/><rect class="cls-11" x="397.52" y="525.68" width="6.36" height="0.58"/><rect class="cls-11" x="397.52" y="528.79" width="6.36" height="0.58"/><rect class="cls-11" x="397.52" y="531.89" width="6.36" height="0.58"/><text class="cls-12" transform="translate(382.51 257.79)">200</text><text class="cls-12" transform="translate(382.51 284.3)">180</text><text class="cls-12" transform="translate(382.51 310.8)">160</text><text class="cls-12" transform="translate(382.51 337.31)">140</text><text class="cls-12" transform="translate(382.51 363.82)">120</text><text class="cls-12" transform="translate(382.51 390.32)">100</text><text class="cls-12" transform="translate(386.58 416.83)">80</text><text class="cls-12" transform="translate(386.58 443.34)">60</text><text class="cls-12" transform="translate(386.58 469.84)">40</text><text class="cls-12" transform="translate(386.58 496.35)">20</text><text class="cls-12" transform="translate(386.58 522.86)">10</text><text class="cls-12" transform="translate(339.88 257.79)">200</text><text class="cls-12" transform="translate(339.88 284.3)">180</text><text class="cls-12" transform="translate(339.88 310.8)">160</text><text class="cls-12" transform="translate(339.88 337.31)">140</text><text class="cls-12" transform="translate(339.88 363.82)">120</text><text class="cls-12" transform="translate(339.88 390.32)">100</text><text class="cls-12" transform="translate(343.96 416.83)">80</text><text class="cls-12" transform="translate(343.96 443.34)">60</text><text class="cls-12" transform="translate(343.96 469.84)">40</text><text class="cls-12" transform="translate(343.96 496.35)">20</text><text class="cls-12" transform="translate(343.96 522.86)">10</text><text class="cls-12" transform="translate(297.44 257.79)">200</text><text class="cls-12" transform="translate(297.44 284.3)">180</text><text class="cls-12" transform="translate(297.44 310.8)">160</text><text class="cls-12" transform="translate(297.44 337.31)">140</text><text class="cls-12" transform="translate(297.44 363.82)">120</text><text class="cls-12" transform="translate(297.44 390.32)">100</text><text class="cls-12" transform="translate(301.52 416.83)">80</text><text class="cls-12" transform="translate(301.52 443.34)">60</text><text class="cls-12" transform="translate(301.52 469.84)">40</text><text class="cls-12" transform="translate(301.52 496.35)">20</text><text class="cls-12" transform="translate(301.52 522.86)">10</text><path class="cls-11" d="M172,270h40.69a26,26,0,0,1,26,26v16.88a26,26,0,0,1-26,26H172a0,0,0,0,1,0,0V270A0,0,0,0,1,172,270Z"/><circle class="cls-11" cx="201.07" cy="306.16" r="20.2"/><path class="cls-13" d="M216.89,271.28a19.34,19.34,0,0,1-23,3.26,8.94,8.94,0,0,1-.87-.48,18.61,18.61,0,0,1-3.51-2.77,18.25,18.25,0,0,1-2.77-3.52,7,7,0,0,1-.5-.86,19.38,19.38,0,0,1,26.33-26.32l.84.49a21.35,21.35,0,0,1,3.51,2.8,20.07,20.07,0,0,1,2.78,3.5,9,9,0,0,1,.49.87A19.37,19.37,0,0,1,216.89,271.28Z" transform="translate(-1 48.04)"/><path class="cls-9" d="M190.62,245a19.36,19.36,0,0,1,23.88-2.77,18.45,18.45,0,0,1,2.89,2.25,8,8,0,0,0-.54-.62,20.41,20.41,0,0,0-3.5-2.79,19.36,19.36,0,0,0-26.65,26.64,18.79,18.79,0,0,0,2.77,3.53c.19.19.4.35.61.53a17.45,17.45,0,0,1-2.23-2.91A19.3,19.3,0,0,1,190.62,245Z" transform="translate(-1 48.04)"/><path class="cls-14" d="M220,247.19l-27.19,27.18a20,20,0,0,1-3.57-2.83,18.64,18.64,0,0,1-2.82-3.59l27.17-27.17a20.43,20.43,0,0,1,6.41,6.41Z" transform="translate(-1 48.04)"/><path class="cls-15" d="M220,247a84.89,84.89,0,0,0-27.31,27.33,18.56,18.56,0,0,1-6.27-6.27,84.66,84.66,0,0,0,27.31-27.32A19.66,19.66,0,0,1,220,247Z" transform="translate(-1 48.04)"/><rect class="cls-9" x="258.7" y="270.03" width="10.01" height="174.85"/><polygon class="cls-13" points="183.09 522.57 234.38 522.57 234.38 452.54 183.09 482.75 183.09 522.57"/><rect class="cls-9" x="224.37" y="462.67" width="10.01" height="59.89"/><polygon class="cls-9" points="224.37 470.63 224.37 458.43 263.66 435.63 268.9 444.59 224.37 470.63"/><path class="cls-11" d="M180.19,311.1h3.71v-7.6h-3.71Z" transform="translate(-1 48.04)"/><path class="cls-11" d="M184.53,311.1h3.71v-7.6h-3.71Z" transform="translate(-1 48.04)"/><path class="cls-11" d="M190,311.1h3.7v-7.6H190Z" transform="translate(-1 48.04)"/><path class="cls-11" d="M215.14,309.27h8.68v-3.94h-8.68Z" transform="translate(-1 48.04)"/><path class="cls-11" d="M216.63,307.3l1.76-3.71-.1-.09-4.73,2.4c-1.64.48-3.29,1-4.93,1.4,1.64.47,3.29.93,4.93,1.41l4.73,2.39.1-.05Z" transform="translate(-1 48.04)"/><path class="cls-11" d="M226,309.27h8.68v-3.94H226Z" transform="translate(-1 48.04)"/><path class="cls-11" d="M233.18,307.3l-1.77-3.71.11-.09,4.72,2.4q2.47.72,4.94,1.4l-4.94,1.41-4.72,2.39-.11-.05Z" transform="translate(-1 48.04)"/><rect class="cls-16" x="179.19" y="389.53" width="60.98" height="5.92"/><rect class="cls-16" x="179.19" y="401.81" width="60.98" height="5.92"/><rect class="cls-16" x="179.19" y="414.1" width="60.98" height="5.92"/><rect class="cls-16" x="179.19" y="426.39" width="60.98" height="5.92"/></g></svg>