<svg width="686" height="625" viewBox="0 0 686 625" fill="none" xmlns="http://www.w3.org/2000/svg">
<circle opacity="0.0770322" cx="301.5" cy="301.5" r="301.5" fill="#E13856"/>
<rect x="257" y="113" width="426" height="333" rx="8" fill="#E2F5FF"/>
<path d="M257 121C257 116.582 260.582 113 265 113H675C679.418 113 683 116.582 683 121V179H257V121Z" fill="#11A9FF"/>
<path d="M330.72 222.432C330.72 218.186 327.156 214.622 322.91 214.622C318.664 214.622 315.056 218.186 315.056 222.432C315.056 226.678 318.664 230.264 322.91 230.264C324.714 230.264 326.408 229.604 327.75 228.526L329.444 230L330.72 228.504L329.114 227.118C330.126 225.798 330.72 224.17 330.72 222.432ZM322.91 228.218C319.896 228.218 317.344 225.578 317.344 222.432C317.344 219.308 319.896 216.668 322.91 216.668C325.924 216.668 328.454 219.308 328.454 222.432C328.454 223.62 328.08 224.742 327.464 225.688L325.242 223.752L323.966 225.248L326.122 227.118C325.22 227.8 324.098 228.218 322.91 228.218ZM341.205 218.626V225.996C341.029 227.338 339.665 228.372 338.081 228.372C336.541 228.372 335.463 227.184 335.463 225.49V218.626H333.329V225.864C333.329 228.438 335.089 230.264 337.597 230.264C339.137 230.264 340.523 229.472 341.205 228.35V230H343.383V218.626H341.205ZM347.621 216.734C348.325 216.734 348.919 216.118 348.919 215.414C348.919 214.732 348.325 214.116 347.621 214.116C346.873 214.116 346.301 214.732 346.301 215.414C346.301 216.118 346.873 216.734 347.621 216.734ZM346.521 230H348.699V218.626H346.521V230ZM357.064 228.328C355.106 228.328 353.72 226.964 353.434 225.072H362.388C362.388 221.002 360.386 218.362 356.91 218.362C353.764 218.362 351.234 220.87 351.234 224.28C351.234 227.778 353.918 230.264 357.086 230.264C358.692 230.264 360.672 229.582 361.684 228.504L360.32 227.096C359.638 227.8 358.252 228.328 357.064 228.328ZM356.998 220.298C358.956 220.298 360.034 221.574 360.276 223.334H353.456C353.808 221.486 355.238 220.298 356.998 220.298ZM370.236 227.954C369.994 228.196 369.554 228.372 369.07 228.372C368.432 228.372 367.904 227.8 367.904 227.008V220.474H370.588V218.626H367.904V215.502H365.77V218.626H364.054V220.474H365.77V227.162C365.77 228.988 367.002 230.264 368.762 230.264C369.576 230.264 370.412 229.956 371.028 229.45L370.236 227.954ZM384.867 227.954C384.625 228.196 384.185 228.372 383.701 228.372C383.063 228.372 382.535 227.8 382.535 227.008V220.474H385.219V218.626H382.535V215.502H380.401V218.626H378.685V220.474H380.401V227.162C380.401 228.988 381.633 230.264 383.393 230.264C384.207 230.264 385.043 229.956 385.659 229.45L384.867 227.954ZM388.957 216.734C389.661 216.734 390.255 216.118 390.255 215.414C390.255 214.732 389.661 214.116 388.957 214.116C388.209 214.116 387.637 214.732 387.637 215.414C387.637 216.118 388.209 216.734 388.957 216.734ZM387.857 230H390.035V218.626H387.857V230ZM405.902 218.362C404.186 218.362 402.734 219.242 402.206 220.65C401.546 219.242 400.204 218.362 398.554 218.362C397.102 218.362 395.914 219.088 395.342 220.21V218.626H393.164V230H395.342V222.894C395.342 221.332 396.486 220.254 398.114 220.254C399.544 220.254 400.534 221.42 400.534 223.092V230H402.668V222.894C402.668 221.332 403.812 220.254 405.44 220.254C406.87 220.254 407.86 221.42 407.86 223.092V230H409.994V222.762C409.994 220.188 408.278 218.362 405.902 218.362ZM418.337 228.328C416.379 228.328 414.993 226.964 414.707 225.072H423.661C423.661 221.002 421.659 218.362 418.183 218.362C415.037 218.362 412.507 220.87 412.507 224.28C412.507 227.778 415.191 230.264 418.359 230.264C419.965 230.264 421.945 229.582 422.957 228.504L421.593 227.096C420.911 227.8 419.525 228.328 418.337 228.328ZM418.271 220.298C420.229 220.298 421.307 221.574 421.549 223.334H414.729C415.081 221.486 416.511 220.298 418.271 220.298ZM430.478 231.628H432.854L440.532 213.654H438.156L430.478 231.628ZM450.538 220.804V218.626H448.36V230H450.538V223.532C450.736 221.552 452.408 220.254 454.762 220.254V218.362C452.804 218.362 451.264 219.308 450.538 220.804ZM462.101 228.328C460.143 228.328 458.757 226.964 458.471 225.072H467.425C467.425 221.002 465.423 218.362 461.947 218.362C458.801 218.362 456.271 220.87 456.271 224.28C456.271 227.778 458.955 230.264 462.123 230.264C463.729 230.264 465.709 229.582 466.721 228.504L465.357 227.096C464.675 227.8 463.289 228.328 462.101 228.328ZM462.035 220.298C463.993 220.298 465.071 221.574 465.313 223.334H458.493C458.845 221.486 460.275 220.298 462.035 220.298ZM474.063 230.264C476.549 230.264 478.375 228.9 478.375 226.744C478.375 224.478 476.373 223.862 474.503 223.312C472.589 222.718 471.885 222.454 471.885 221.574C471.885 220.716 472.765 220.232 473.887 220.232C474.877 220.232 476.021 220.606 477.121 221.288L478.089 219.682C476.857 218.868 475.361 218.362 473.887 218.362C471.467 218.362 469.729 219.726 469.751 221.816C469.751 223.664 471.049 224.412 473.667 225.138C475.075 225.534 476.241 225.864 476.241 226.92C476.241 227.8 475.361 228.394 474.085 228.394C472.743 228.394 471.445 227.888 470.235 227.008L469.201 228.57C470.565 229.67 472.391 230.264 474.063 230.264ZM486.23 227.954C485.988 228.196 485.548 228.372 485.064 228.372C484.426 228.372 483.898 227.8 483.898 227.008V220.474H486.582V218.626H483.898V215.502H481.764V218.626H480.048V220.474H481.764V227.162C481.764 228.988 482.996 230.264 484.756 230.264C485.57 230.264 486.406 229.956 487.022 229.45L486.23 227.954ZM491.53 220.804V218.626H489.352V230H491.53V223.532C491.728 221.552 493.4 220.254 495.754 220.254V218.362C493.796 218.362 492.256 219.308 491.53 220.804ZM498.957 216.734C499.661 216.734 500.255 216.118 500.255 215.414C500.255 214.732 499.661 214.116 498.957 214.116C498.209 214.116 497.637 214.732 497.637 215.414C497.637 216.118 498.209 216.734 498.957 216.734ZM497.857 230H500.035V218.626H497.857V230ZM508.554 230.264C510.248 230.264 511.722 229.56 512.822 228.438L511.348 227.096C510.644 227.888 509.632 228.372 508.576 228.372C506.486 228.372 504.77 226.524 504.77 224.302C504.77 222.102 506.486 220.254 508.554 220.254C509.61 220.254 510.6 220.716 511.282 221.486L512.756 220.122C511.678 219.044 510.204 218.362 508.576 218.362C505.32 218.362 502.57 221.068 502.57 224.302C502.57 227.536 505.32 230.264 508.554 230.264ZM520.476 227.954C520.234 228.196 519.794 228.372 519.31 228.372C518.672 228.372 518.144 227.8 518.144 227.008V220.474H520.828V218.626H518.144V215.502H516.01V218.626H514.294V220.474H516.01V227.162C516.01 228.988 517.242 230.264 519.002 230.264C519.816 230.264 520.652 229.956 521.268 229.45L520.476 227.954ZM528.702 228.328C526.744 228.328 525.358 226.964 525.072 225.072H534.026C534.026 221.002 532.024 218.362 528.548 218.362C525.402 218.362 522.872 220.87 522.872 224.28C522.872 227.778 525.556 230.264 528.724 230.264C530.33 230.264 532.31 229.582 533.322 228.504L531.958 227.096C531.276 227.8 529.89 228.328 528.702 228.328ZM528.636 220.298C530.594 220.298 531.672 221.574 531.914 223.334H525.094C525.446 221.486 526.876 220.298 528.636 220.298ZM545.307 214.622V220.584C544.427 219.198 543.019 218.362 541.259 218.362C538.267 218.362 536.023 220.826 536.023 224.302C536.023 227.8 538.267 230.264 541.259 230.264C543.019 230.264 544.427 229.428 545.307 228.02V230H547.463V214.622H545.307ZM541.787 228.372C539.697 228.372 538.223 226.678 538.223 224.302C538.223 221.926 539.697 220.254 541.787 220.254C543.833 220.254 545.307 221.926 545.307 224.302C545.307 226.678 543.833 228.372 541.787 228.372ZM560.809 230H562.855L567.651 218.626H565.297L561.821 227.47L558.279 218.626H555.925L560.809 230ZM570.801 216.734C571.505 216.734 572.099 216.118 572.099 215.414C572.099 214.732 571.505 214.116 570.801 214.116C570.053 214.116 569.481 214.732 569.481 215.414C569.481 216.118 570.053 216.734 570.801 216.734ZM569.701 230H571.879V218.626H569.701V230ZM579.143 230.264C581.629 230.264 583.455 228.9 583.455 226.744C583.455 224.478 581.453 223.862 579.583 223.312C577.669 222.718 576.965 222.454 576.965 221.574C576.965 220.716 577.845 220.232 578.967 220.232C579.957 220.232 581.101 220.606 582.201 221.288L583.169 219.682C581.937 218.868 580.441 218.362 578.967 218.362C576.547 218.362 574.809 219.726 574.831 221.816C574.831 223.664 576.129 224.412 578.747 225.138C580.155 225.534 581.321 225.864 581.321 226.92C581.321 227.8 580.441 228.394 579.165 228.394C577.823 228.394 576.525 227.888 575.315 227.008L574.281 228.57C575.645 229.67 577.471 230.264 579.143 230.264ZM587.064 216.734C587.768 216.734 588.362 216.118 588.362 215.414C588.362 214.732 587.768 214.116 587.064 214.116C586.316 214.116 585.744 214.732 585.744 215.414C585.744 216.118 586.316 216.734 587.064 216.734ZM585.964 230H588.142V218.626H585.964V230ZM596.617 227.954C596.375 228.196 595.935 228.372 595.451 228.372C594.813 228.372 594.285 227.8 594.285 227.008V220.474H596.969V218.626H594.285V215.502H592.151V218.626H590.435V220.474H592.151V227.162C592.151 228.988 593.383 230.264 595.143 230.264C595.957 230.264 596.793 229.956 597.409 229.45L596.617 227.954ZM600.707 216.734C601.411 216.734 602.005 216.118 602.005 215.414C602.005 214.732 601.411 214.116 600.707 214.116C599.959 214.116 599.387 214.732 599.387 215.414C599.387 216.118 599.959 216.734 600.707 216.734ZM599.607 230H601.785V218.626H599.607V230ZM610.722 218.362C609.182 218.362 607.796 219.154 607.114 220.276V218.626H604.936V230H607.114V222.63C607.29 221.288 608.654 220.254 610.238 220.254C611.778 220.254 612.856 221.442 612.856 223.136V230H614.99V222.762C614.99 220.188 613.23 218.362 610.722 218.362ZM626.751 218.626V220.452C625.893 219.176 624.441 218.362 622.725 218.362C619.733 218.362 617.555 220.584 617.555 223.752C617.555 226.92 619.733 229.164 622.725 229.164C624.441 229.164 625.849 228.394 626.751 227.096V228.746C626.751 230.726 625.277 231.892 622.835 231.892C621.471 231.892 620.107 231.43 619.271 230.638L618.413 232.266C619.491 233.146 621.251 233.784 623.165 233.784C626.531 233.784 628.929 231.716 628.929 228.79V218.626H626.751ZM623.275 227.272C621.251 227.272 619.821 225.82 619.821 223.752C619.821 221.706 621.251 220.254 623.275 220.254C625.299 220.254 626.751 221.706 626.751 223.752C626.751 225.82 625.299 227.272 623.275 227.272ZM315.034 262H325.792V259.932H318.554L322.096 256.94C324.692 254.828 325.66 253.222 325.66 251.198C325.66 248.448 323.416 246.622 320.6 246.622C318.202 246.622 316.42 247.722 315.1 249.548L316.596 250.868C317.652 249.504 318.862 248.624 320.512 248.624C322.008 248.624 323.372 249.592 323.372 251.242C323.372 252.606 322.602 253.904 320.578 255.598L315.034 260.174V262ZM335.003 250.362C333.243 250.362 331.835 251.198 330.955 252.584V250.626H328.799V265.784H330.955V260.02C331.835 261.428 333.243 262.264 335.003 262.264C337.995 262.264 340.239 259.8 340.239 256.302C340.239 252.826 337.995 250.362 335.003 250.362ZM334.475 260.372C332.429 260.372 330.955 258.678 330.955 256.302C330.955 253.926 332.429 252.254 334.475 252.254C336.565 252.254 338.039 253.926 338.039 256.302C338.039 258.678 336.565 260.372 334.475 260.372ZM355.585 250.362C353.869 250.362 352.417 251.242 351.889 252.65C351.229 251.242 349.887 250.362 348.237 250.362C346.785 250.362 345.597 251.088 345.025 252.21V250.626H342.847V262H345.025V254.894C345.025 253.332 346.169 252.254 347.797 252.254C349.227 252.254 350.217 253.42 350.217 255.092V262H352.351V254.894C352.351 253.332 353.495 252.254 355.123 252.254C356.553 252.254 357.543 253.42 357.543 255.092V262H359.677V254.762C359.677 252.188 357.961 250.362 355.585 250.362ZM368.662 256.984H374.47V255.004H368.662V256.984ZM390.448 262H392.67V258.524H394.848V256.566H392.67V246.886H390.03L382.704 256.742L382.946 258.524H390.448V262ZM385.146 256.566L390.448 249.416V256.566H385.146ZM403.711 250.362C401.951 250.362 400.543 251.198 399.663 252.584V250.626H397.507V265.784H399.663V260.02C400.543 261.428 401.951 262.264 403.711 262.264C406.703 262.264 408.947 259.8 408.947 256.302C408.947 252.826 406.703 250.362 403.711 250.362ZM403.183 260.372C401.137 260.372 399.663 258.678 399.663 256.302C399.663 253.926 401.137 252.254 403.183 252.254C405.273 252.254 406.747 253.926 406.747 256.302C406.747 258.678 405.273 260.372 403.183 260.372ZM424.292 250.362C422.576 250.362 421.124 251.242 420.596 252.65C419.936 251.242 418.594 250.362 416.944 250.362C415.492 250.362 414.304 251.088 413.732 252.21V250.626H411.554V262H413.732V254.894C413.732 253.332 414.876 252.254 416.504 252.254C417.934 252.254 418.924 253.42 418.924 255.092V262H421.058V254.894C421.058 253.332 422.202 252.254 423.83 252.254C425.26 252.254 426.25 253.42 426.25 255.092V262H428.384V254.762C428.384 252.188 426.668 250.362 424.292 250.362Z" fill="#333333"/>
<path d="M319.852 324H322.074V310.954H327.046V308.886H314.902V310.954H319.852V324ZM335.292 312.362C333.73 312.362 332.344 313.176 331.662 314.32V308.622H329.506V324H331.662V316.938C331.662 315.464 333.092 314.254 334.808 314.254C336.348 314.254 337.426 315.442 337.426 317.136V324H339.56V316.762C339.56 314.188 337.8 312.362 335.292 312.362ZM347.89 322.328C345.932 322.328 344.546 320.964 344.26 319.072H353.214C353.214 315.002 351.212 312.362 347.736 312.362C344.59 312.362 342.06 314.87 342.06 318.28C342.06 321.778 344.744 324.264 347.912 324.264C349.518 324.264 351.498 323.582 352.51 322.504L351.146 321.096C350.464 321.8 349.078 322.328 347.89 322.328ZM347.824 314.298C349.782 314.298 350.86 315.574 351.102 317.334H344.282C344.634 315.486 346.064 314.298 347.824 314.298ZM358.026 314.804V312.626H355.848V324H358.026V317.532C358.224 315.552 359.896 314.254 362.25 314.254V312.362C360.292 312.362 358.752 313.308 358.026 314.804ZM369.589 322.328C367.631 322.328 366.245 320.964 365.959 319.072H374.913C374.913 315.002 372.911 312.362 369.435 312.362C366.289 312.362 363.759 314.87 363.759 318.28C363.759 321.778 366.443 324.264 369.611 324.264C371.217 324.264 373.197 323.582 374.209 322.504L372.845 321.096C372.163 321.8 370.777 322.328 369.589 322.328ZM369.523 314.298C371.481 314.298 372.559 315.574 372.801 317.334H365.981C366.333 315.486 367.763 314.298 369.523 314.298ZM384.81 310.734C385.514 310.734 386.108 310.118 386.108 309.414C386.108 308.732 385.514 308.116 384.81 308.116C384.062 308.116 383.49 308.732 383.49 309.414C383.49 310.118 384.062 310.734 384.81 310.734ZM383.71 324H385.888V312.626H383.71V324ZM393.153 324.264C395.639 324.264 397.465 322.9 397.465 320.744C397.465 318.478 395.463 317.862 393.593 317.312C391.679 316.718 390.975 316.454 390.975 315.574C390.975 314.716 391.855 314.232 392.977 314.232C393.967 314.232 395.111 314.606 396.211 315.288L397.179 313.682C395.947 312.868 394.451 312.362 392.977 312.362C390.557 312.362 388.819 313.726 388.841 315.816C388.841 317.664 390.139 318.412 392.757 319.138C394.165 319.534 395.331 319.864 395.331 320.92C395.331 321.8 394.451 322.394 393.175 322.394C391.833 322.394 390.535 321.888 389.325 321.008L388.291 322.57C389.655 323.67 391.481 324.264 393.153 324.264ZM410.405 324.264C412.891 324.264 414.717 322.9 414.717 320.744C414.717 318.478 412.715 317.862 410.845 317.312C408.931 316.718 408.227 316.454 408.227 315.574C408.227 314.716 409.107 314.232 410.229 314.232C411.219 314.232 412.363 314.606 413.463 315.288L414.431 313.682C413.199 312.868 411.703 312.362 410.229 312.362C407.809 312.362 406.071 313.726 406.093 315.816C406.093 317.664 407.391 318.412 410.009 319.138C411.417 319.534 412.583 319.864 412.583 320.92C412.583 321.8 411.703 322.394 410.427 322.394C409.085 322.394 407.787 321.888 406.577 321.008L405.543 322.57C406.907 323.67 408.733 324.264 410.405 324.264ZM422.572 321.954C422.33 322.196 421.89 322.372 421.406 322.372C420.768 322.372 420.24 321.8 420.24 321.008V314.474H422.924V312.626H420.24V309.502H418.106V312.626H416.39V314.474H418.106V321.162C418.106 322.988 419.338 324.264 421.098 324.264C421.912 324.264 422.748 323.956 423.364 323.45L422.572 321.954ZM427.872 314.804V312.626H425.694V324H427.872V317.532C428.07 315.552 429.742 314.254 432.096 314.254V312.362C430.138 312.362 428.598 313.308 427.872 314.804ZM435.299 310.734C436.003 310.734 436.597 310.118 436.597 309.414C436.597 308.732 436.003 308.116 435.299 308.116C434.551 308.116 433.979 308.732 433.979 309.414C433.979 310.118 434.551 310.734 435.299 310.734ZM434.199 324H436.377V312.626H434.199V324ZM444.895 324.264C446.589 324.264 448.063 323.56 449.163 322.438L447.689 321.096C446.985 321.888 445.973 322.372 444.917 322.372C442.827 322.372 441.111 320.524 441.111 318.302C441.111 316.102 442.827 314.254 444.895 314.254C445.951 314.254 446.941 314.716 447.623 315.486L449.097 314.122C448.019 313.044 446.545 312.362 444.917 312.362C441.661 312.362 438.911 315.068 438.911 318.302C438.911 321.536 441.661 324.264 444.895 324.264ZM456.818 321.954C456.576 322.196 456.136 322.372 455.652 322.372C455.014 322.372 454.486 321.8 454.486 321.008V314.474H457.17V312.626H454.486V309.502H452.352V312.626H450.636V314.474H452.352V321.162C452.352 322.988 453.584 324.264 455.344 324.264C456.158 324.264 456.994 323.956 457.61 323.45L456.818 321.954ZM459.83 324H461.986V308.622H459.83V324ZM467.16 327.96C468.788 327.938 469.998 327.08 470.812 325.034L475.828 312.626H473.562L470.108 321.602L466.456 312.626H464.124L469.008 324.066L468.436 325.276C468.062 325.936 467.578 326.156 466.874 326.156C466.434 326.156 465.928 326.046 465.488 325.804L465.004 327.476C465.598 327.784 466.39 327.96 467.16 327.96ZM490.345 312.362C488.805 312.362 487.419 313.154 486.737 314.276V312.626H484.559V324H486.737V316.63C486.913 315.288 488.277 314.254 489.861 314.254C491.401 314.254 492.479 315.442 492.479 317.136V324H494.613V316.762C494.613 314.188 492.853 312.362 490.345 312.362ZM503.119 324.264C506.353 324.264 509.081 321.536 509.081 318.302C509.081 315.068 506.353 312.362 503.119 312.362C499.863 312.362 497.113 315.068 497.113 318.302C497.113 321.536 499.863 324.264 503.119 324.264ZM503.119 322.372C501.029 322.372 499.291 320.524 499.291 318.302C499.291 316.102 501.029 314.254 503.119 314.254C505.165 314.254 506.903 316.102 506.903 318.302C506.903 320.524 505.165 322.372 503.119 322.372ZM521.708 324H523.754L528.55 312.626H526.196L522.72 321.47L519.178 312.626H516.824L521.708 324ZM531.699 310.734C532.403 310.734 532.997 310.118 532.997 309.414C532.997 308.732 532.403 308.116 531.699 308.116C530.951 308.116 530.379 308.732 530.379 309.414C530.379 310.118 530.951 310.734 531.699 310.734ZM530.599 324H532.777V312.626H530.599V324ZM540.042 324.264C542.528 324.264 544.354 322.9 544.354 320.744C544.354 318.478 542.352 317.862 540.482 317.312C538.568 316.718 537.864 316.454 537.864 315.574C537.864 314.716 538.744 314.232 539.866 314.232C540.856 314.232 542 314.606 543.1 315.288L544.068 313.682C542.836 312.868 541.34 312.362 539.866 312.362C537.446 312.362 535.708 313.726 535.73 315.816C535.73 317.664 537.028 318.412 539.646 319.138C541.054 319.534 542.22 319.864 542.22 320.92C542.22 321.8 541.34 322.394 540.064 322.394C538.722 322.394 537.424 321.888 536.214 321.008L535.18 322.57C536.544 323.67 538.37 324.264 540.042 324.264ZM547.963 310.734C548.667 310.734 549.261 310.118 549.261 309.414C549.261 308.732 548.667 308.116 547.963 308.116C547.215 308.116 546.643 308.732 546.643 309.414C546.643 310.118 547.215 310.734 547.963 310.734ZM546.863 324H549.041V312.626H546.863V324ZM557.515 321.954C557.273 322.196 556.833 322.372 556.349 322.372C555.711 322.372 555.183 321.8 555.183 321.008V314.474H557.867V312.626H555.183V309.502H553.049V312.626H551.333V314.474H553.049V321.162C553.049 322.988 554.281 324.264 556.041 324.264C556.855 324.264 557.691 323.956 558.307 323.45L557.515 321.954ZM561.605 310.734C562.309 310.734 562.903 310.118 562.903 309.414C562.903 308.732 562.309 308.116 561.605 308.116C560.857 308.116 560.285 308.732 560.285 309.414C560.285 310.118 560.857 310.734 561.605 310.734ZM560.505 324H562.683V312.626H560.505V324ZM571.62 312.362C570.08 312.362 568.694 313.154 568.012 314.276V312.626H565.834V324H568.012V316.63C568.188 315.288 569.552 314.254 571.136 314.254C572.676 314.254 573.754 315.442 573.754 317.136V324H575.888V316.762C575.888 314.188 574.128 312.362 571.62 312.362ZM587.65 312.626V314.452C586.792 313.176 585.34 312.362 583.624 312.362C580.632 312.362 578.454 314.584 578.454 317.752C578.454 320.92 580.632 323.164 583.624 323.164C585.34 323.164 586.748 322.394 587.65 321.096V322.746C587.65 324.726 586.176 325.892 583.734 325.892C582.37 325.892 581.006 325.43 580.17 324.638L579.312 326.266C580.39 327.146 582.15 327.784 584.064 327.784C587.43 327.784 589.828 325.716 589.828 322.79V312.626H587.65ZM584.174 321.272C582.15 321.272 580.72 319.82 580.72 317.752C580.72 315.706 582.15 314.254 584.174 314.254C586.198 314.254 587.65 315.706 587.65 317.752C587.65 319.82 586.198 321.272 584.174 321.272ZM321.898 344.362C320.138 344.362 318.73 345.198 317.85 346.584V340.622H315.694V356H317.85V354.02C318.73 355.428 320.138 356.264 321.898 356.264C324.89 356.264 327.134 353.8 327.134 350.302C327.134 346.826 324.89 344.362 321.898 344.362ZM321.37 354.372C319.324 354.372 317.85 352.678 317.85 350.302C317.85 347.926 319.324 346.254 321.37 346.254C323.46 346.254 324.934 347.926 324.934 350.302C324.934 352.678 323.46 354.372 321.37 354.372ZM334.978 354.328C333.02 354.328 331.634 352.964 331.348 351.072H340.302C340.302 347.002 338.3 344.362 334.824 344.362C331.678 344.362 329.148 346.87 329.148 350.28C329.148 353.778 331.832 356.264 335 356.264C336.606 356.264 338.586 355.582 339.598 354.504L338.234 353.096C337.552 353.8 336.166 354.328 334.978 354.328ZM334.912 346.298C336.87 346.298 337.948 347.574 338.19 349.334H331.37C331.722 347.486 333.152 346.298 334.912 346.298ZM345.818 343.372C345.818 342.58 346.346 342.008 346.984 342.008C347.468 342.008 347.908 342.184 348.15 342.426L348.942 340.974C348.326 340.468 347.49 340.16 346.676 340.16C344.916 340.16 343.684 341.436 343.684 343.262V344.626H341.968V346.474H343.684V356H345.818V346.474H348.502V344.626H345.818V343.372ZM356.144 356.264C359.378 356.264 362.106 353.536 362.106 350.302C362.106 347.068 359.378 344.362 356.144 344.362C352.888 344.362 350.138 347.068 350.138 350.302C350.138 353.536 352.888 356.264 356.144 356.264ZM356.144 354.372C354.054 354.372 352.316 352.524 352.316 350.302C352.316 348.102 354.054 346.254 356.144 346.254C358.19 346.254 359.928 348.102 359.928 350.302C359.928 352.524 358.19 354.372 356.144 354.372ZM366.942 346.804V344.626H364.764V356H366.942V349.532C367.14 347.552 368.812 346.254 371.166 346.254V344.362C369.208 344.362 367.668 345.308 366.942 346.804ZM378.505 354.328C376.547 354.328 375.161 352.964 374.875 351.072H383.829C383.829 347.002 381.827 344.362 378.351 344.362C375.205 344.362 372.675 346.87 372.675 350.28C372.675 353.778 375.359 356.264 378.527 356.264C380.133 356.264 382.113 355.582 383.125 354.504L381.761 353.096C381.079 353.8 379.693 354.328 378.505 354.328ZM378.439 346.298C380.397 346.298 381.475 347.574 381.717 349.334H374.897C375.249 347.486 376.679 346.298 378.439 346.298ZM395.09 356H397.334V340.886H395.53L391.548 343.592L392.472 345.198L395.09 343.526V356ZM403.319 356H405.563V340.886H403.759L399.777 343.592L400.701 345.198L403.319 343.526V356ZM413.879 344.362C412.625 344.362 411.195 344.692 409.567 345.506L410.359 347.112C411.349 346.606 412.449 346.166 413.571 346.166C415.837 346.166 416.497 347.684 416.497 349.114V349.466C415.397 349.092 414.187 348.85 413.065 348.85C410.557 348.85 408.511 350.368 408.511 352.634C408.511 354.856 410.293 356.264 412.713 356.264C414.099 356.264 415.661 355.626 416.497 354.438V356H418.631V349.114C418.631 346.298 416.937 344.362 413.879 344.362ZM413.131 354.548C411.701 354.548 410.601 353.8 410.601 352.568C410.601 351.336 411.877 350.478 413.395 350.478C414.517 350.478 415.573 350.632 416.497 350.918V352.436C416.123 353.844 414.539 354.548 413.131 354.548ZM434.497 344.362C432.781 344.362 431.329 345.242 430.801 346.65C430.141 345.242 428.799 344.362 427.149 344.362C425.697 344.362 424.509 345.088 423.937 346.21V344.626H421.759V356H423.937V348.894C423.937 347.332 425.081 346.254 426.709 346.254C428.139 346.254 429.129 347.42 429.129 349.092V356H431.263V348.894C431.263 347.332 432.407 346.254 434.035 346.254C435.465 346.254 436.455 347.42 436.455 349.092V356H438.589V348.762C438.589 346.188 436.873 344.362 434.497 344.362ZM442.819 359.014C444.227 357.408 444.733 356.462 444.733 355.428C444.733 354.218 444.117 353.338 443.149 353.338C442.313 353.338 441.675 354.02 441.675 354.79C441.675 355.604 442.313 356.264 443.105 356.264C442.929 356.946 442.533 357.65 441.895 358.31L442.819 359.014ZM458.825 344.362C457.571 344.362 456.141 344.692 454.513 345.506L455.305 347.112C456.295 346.606 457.395 346.166 458.517 346.166C460.783 346.166 461.443 347.684 461.443 349.114V349.466C460.343 349.092 459.133 348.85 458.011 348.85C455.503 348.85 453.457 350.368 453.457 352.634C453.457 354.856 455.239 356.264 457.659 356.264C459.045 356.264 460.607 355.626 461.443 354.438V356H463.577V349.114C463.577 346.298 461.883 344.362 458.825 344.362ZM458.077 354.548C456.647 354.548 455.547 353.8 455.547 352.568C455.547 351.336 456.823 350.478 458.341 350.478C459.463 350.478 460.519 350.632 461.443 350.918V352.436C461.069 353.844 459.485 354.548 458.077 354.548ZM472.513 344.362C470.973 344.362 469.587 345.154 468.905 346.276V344.626H466.727V356H468.905V348.63C469.081 347.288 470.445 346.254 472.029 346.254C473.569 346.254 474.647 347.442 474.647 349.136V356H476.781V348.762C476.781 346.188 475.021 344.362 472.513 344.362ZM488.653 340.622V346.584C487.773 345.198 486.365 344.362 484.605 344.362C481.613 344.362 479.369 346.826 479.369 350.302C479.369 353.8 481.613 356.264 484.605 356.264C486.365 356.264 487.773 355.428 488.653 354.02V356H490.809V340.622H488.653ZM485.133 354.372C483.043 354.372 481.569 352.678 481.569 350.302C481.569 347.926 483.043 346.254 485.133 346.254C487.179 346.254 488.653 347.926 488.653 350.302C488.653 352.678 487.179 354.372 485.133 354.372ZM506.685 344.362C504.925 344.362 503.517 345.198 502.637 346.584V340.622H500.481V356H502.637V354.02C503.517 355.428 504.925 356.264 506.685 356.264C509.677 356.264 511.921 353.8 511.921 350.302C511.921 346.826 509.677 344.362 506.685 344.362ZM506.157 354.372C504.111 354.372 502.637 352.678 502.637 350.302C502.637 347.926 504.111 346.254 506.157 346.254C508.247 346.254 509.721 347.926 509.721 350.302C509.721 352.678 508.247 354.372 506.157 354.372ZM519.765 354.328C517.807 354.328 516.421 352.964 516.135 351.072H525.089C525.089 347.002 523.087 344.362 519.611 344.362C516.465 344.362 513.935 346.87 513.935 350.28C513.935 353.778 516.619 356.264 519.787 356.264C521.393 356.264 523.373 355.582 524.385 354.504L523.021 353.096C522.339 353.8 520.953 354.328 519.765 354.328ZM519.699 346.298C521.657 346.298 522.735 347.574 522.977 349.334H516.157C516.509 347.486 517.939 346.298 519.699 346.298ZM532.937 353.954C532.695 354.196 532.255 354.372 531.771 354.372C531.133 354.372 530.605 353.8 530.605 353.008V346.474H533.289V344.626H530.605V341.502H528.471V344.626H526.755V346.474H528.471V353.162C528.471 354.988 529.703 356.264 531.463 356.264C532.277 356.264 533.113 355.956 533.729 355.45L532.937 353.954ZM538.831 356H540.833L543.583 347.552L546.311 356H548.313L552.141 344.626H549.919L547.323 353.096L544.507 344.626H542.659L539.843 353.096L537.225 344.626H535.003L538.831 356ZM558.995 354.328C557.037 354.328 555.651 352.964 555.365 351.072H564.319C564.319 347.002 562.317 344.362 558.841 344.362C555.695 344.362 553.165 346.87 553.165 350.28C553.165 353.778 555.849 356.264 559.017 356.264C560.623 356.264 562.603 355.582 563.615 354.504L562.251 353.096C561.569 353.8 560.183 354.328 558.995 354.328ZM558.929 346.298C560.887 346.298 561.965 347.574 562.207 349.334H555.387C555.739 347.486 557.169 346.298 558.929 346.298ZM572.058 354.328C570.1 354.328 568.714 352.964 568.428 351.072H577.382C577.382 347.002 575.38 344.362 571.904 344.362C568.758 344.362 566.228 346.87 566.228 350.28C566.228 353.778 568.912 356.264 572.08 356.264C573.686 356.264 575.666 355.582 576.678 354.504L575.314 353.096C574.632 353.8 573.246 354.328 572.058 354.328ZM571.992 346.298C573.95 346.298 575.028 347.574 575.27 349.334H568.45C568.802 347.486 570.232 346.298 571.992 346.298ZM585.692 344.362C584.152 344.362 582.766 345.154 582.084 346.276V344.626H579.906V356H582.084V348.63C582.26 347.288 583.624 346.254 585.208 346.254C586.748 346.254 587.826 347.442 587.826 349.136V356H589.96V348.762C589.96 346.188 588.2 344.362 585.692 344.362ZM316.86 388H319.412L325.77 374.558V372.886H315.21V374.954H323.152L316.86 388ZM330.161 388.264C330.953 388.264 331.591 387.582 331.591 386.768C331.591 386.02 330.953 385.338 330.161 385.338C329.325 385.338 328.687 386.02 328.687 386.768C328.687 387.582 329.325 388.264 330.161 388.264ZM339.613 388.264C342.891 388.264 345.201 386.262 345.201 383.204C345.201 380.19 342.913 378.474 340.207 378.474C338.865 378.474 337.853 378.914 337.061 379.442L337.193 374.954H344.387V372.886H335.081L334.861 380.784L336.423 381.488C337.325 380.806 338.403 380.388 339.657 380.388C341.615 380.388 342.957 381.554 342.957 383.292C342.957 384.986 341.637 386.306 339.679 386.306C338.073 386.306 336.665 385.514 335.499 384.304L334.113 385.888C335.411 387.296 337.215 388.264 339.613 388.264ZM352.933 388.264C356.211 388.264 358.521 386.262 358.521 383.204C358.521 380.19 356.233 378.474 353.527 378.474C352.185 378.474 351.173 378.914 350.381 379.442L350.513 374.954H357.707V372.886H348.401L348.181 380.784L349.743 381.488C350.645 380.806 351.723 380.388 352.977 380.388C354.935 380.388 356.277 381.554 356.277 383.292C356.277 384.986 354.957 386.306 352.999 386.306C351.393 386.306 349.985 385.514 348.819 384.304L347.433 385.888C348.731 387.296 350.535 388.264 352.933 388.264ZM367.574 376.362C365.814 376.362 364.406 377.198 363.526 378.584V376.626H361.37V391.784H363.526V386.02C364.406 387.428 365.814 388.264 367.574 388.264C370.566 388.264 372.81 385.8 372.81 382.302C372.81 378.826 370.566 376.362 367.574 376.362ZM367.046 386.372C365 386.372 363.526 384.678 363.526 382.302C363.526 379.926 365 378.254 367.046 378.254C369.136 378.254 370.61 379.926 370.61 382.302C370.61 384.678 369.136 386.372 367.046 386.372ZM388.155 376.362C386.439 376.362 384.987 377.242 384.459 378.65C383.799 377.242 382.457 376.362 380.807 376.362C379.355 376.362 378.167 377.088 377.595 378.21V376.626H375.417V388H377.595V380.894C377.595 379.332 378.739 378.254 380.367 378.254C381.797 378.254 382.787 379.42 382.787 381.092V388H384.921V380.894C384.921 379.332 386.065 378.254 387.693 378.254C389.123 378.254 390.113 379.42 390.113 381.092V388H392.247V380.762C392.247 378.188 390.531 376.362 388.155 376.362ZM401.232 382.984H407.04V381.004H401.232V382.984ZM421.236 388.264C424.404 388.264 426.934 386.636 426.934 384.018C426.934 382.17 425.548 380.828 423.744 380.19C425.284 379.596 426.56 378.474 426.56 376.67C426.56 374.162 424.052 372.622 421.236 372.622C418.508 372.622 415.934 374.096 415.934 376.67C415.934 378.386 417.1 379.53 418.75 380.19C416.946 380.806 415.538 382.148 415.538 384.018C415.538 386.614 418.046 388.264 421.236 388.264ZM421.236 379.354C419.894 379.266 418.156 378.474 418.156 376.912C418.156 375.57 419.498 374.58 421.236 374.58C422.974 374.58 424.338 375.57 424.338 376.912C424.338 378.43 422.622 379.266 421.236 379.354ZM421.236 386.306C419.3 386.306 417.782 385.294 417.782 383.82C417.782 382.214 419.762 381.246 421.236 381.202C422.732 381.246 424.69 382.214 424.69 383.82C424.69 385.294 423.172 386.306 421.236 386.306ZM430.923 388.264C431.715 388.264 432.353 387.582 432.353 386.768C432.353 386.02 431.715 385.338 430.923 385.338C430.087 385.338 429.449 386.02 429.449 386.768C429.449 387.582 430.087 388.264 430.923 388.264ZM440.265 388.264C443.543 388.264 445.721 386.416 445.721 383.864C445.721 381.752 444.071 380.608 442.487 380.256C444.071 379.772 445.391 378.606 445.391 376.736C445.391 374.316 443.257 372.622 440.199 372.622C437.735 372.622 436.019 373.766 434.853 375.284L436.239 376.648C437.295 375.416 438.461 374.624 440.045 374.624C441.805 374.624 443.125 375.636 443.125 377.044C443.125 378.562 441.783 379.398 439.869 379.398L438.219 379.376V381.356H439.869C442.135 381.334 443.433 382.148 443.433 383.71C443.433 385.228 442.179 386.262 440.221 386.262C438.483 386.262 437.009 385.448 435.997 384.216L434.567 385.69C435.733 387.142 437.691 388.264 440.265 388.264ZM454.494 388.264C458.256 388.264 460.94 385.03 460.94 380.432C460.94 375.856 458.256 372.622 454.494 372.622C450.688 372.622 448.026 375.856 448.026 380.432C448.026 385.03 450.688 388.264 454.494 388.264ZM454.494 386.218C452.03 386.218 450.292 383.82 450.292 380.432C450.292 377.044 452.03 374.668 454.494 374.668C456.936 374.668 458.652 377.044 458.652 380.432C458.652 383.82 456.936 386.218 454.494 386.218ZM470.033 376.362C468.273 376.362 466.865 377.198 465.985 378.584V376.626H463.829V391.784H465.985V386.02C466.865 387.428 468.273 388.264 470.033 388.264C473.025 388.264 475.269 385.8 475.269 382.302C475.269 378.826 473.025 376.362 470.033 376.362ZM469.505 386.372C467.459 386.372 465.985 384.678 465.985 382.302C465.985 379.926 467.459 378.254 469.505 378.254C471.595 378.254 473.069 379.926 473.069 382.302C473.069 384.678 471.595 386.372 469.505 386.372ZM490.614 376.362C488.898 376.362 487.446 377.242 486.918 378.65C486.258 377.242 484.916 376.362 483.266 376.362C481.814 376.362 480.626 377.088 480.054 378.21V376.626H477.876V388H480.054V380.894C480.054 379.332 481.198 378.254 482.826 378.254C484.256 378.254 485.246 379.42 485.246 381.092V388H487.38V380.894C487.38 379.332 488.524 378.254 490.152 378.254C491.582 378.254 492.572 379.42 492.572 381.092V388H494.706V380.762C494.706 378.188 492.99 376.362 490.614 376.362ZM499.2 388.264C499.992 388.264 500.63 387.582 500.63 386.768C500.63 386.02 499.992 385.338 499.2 385.338C498.364 385.338 497.726 386.02 497.726 386.768C497.726 387.582 498.364 388.264 499.2 388.264Z" fill="#333333"/>
<path fill-rule="evenodd" clip-rule="evenodd" d="M259.489 128.456C266.118 120.302 271.579 114.464 271.579 114.464L259.64 106.932L251.09 117.401L259.489 128.456Z" fill="#B45B52"/>
<path fill-rule="evenodd" clip-rule="evenodd" d="M172.958 105.612C173.09 105.951 173.41 106.685 173.655 107.25L174.483 109.133C175.143 110.432 175.745 111.675 176.367 112.899C177.584 115.385 178.884 117.834 180.265 120.244C182.942 124.96 185.943 129.483 189.248 133.784C192.268 137.776 195.737 141.41 199.586 144.612C201.262 145.962 203.051 147.165 204.934 148.209L206.252 148.868L207.514 149.414C207.947 149.583 208.342 149.677 208.757 149.846L209.077 149.941C209.228 149.941 209.077 149.941 209.077 149.941H208.889C208.531 150.035 209.736 150.053 211.355 149.432C213.328 148.658 215.22 147.693 217.005 146.551C221.491 143.685 225.719 140.434 229.641 136.835C233.802 133.087 237.851 129.001 241.806 124.763C243.802 122.635 245.704 120.413 247.568 118.248C249.433 116.082 251.372 113.728 252.992 111.675L273.819 127.833C271.672 130.563 269.695 132.918 267.624 135.365C265.552 137.813 263.424 140.186 261.277 142.578C256.984 147.323 252.502 151.974 247.662 156.475C242.679 161.224 237.306 165.546 231.599 169.393C228.301 171.588 224.794 173.448 221.129 174.949C218.931 175.833 216.655 176.508 214.331 176.964C211.495 177.546 208.587 177.698 205.706 177.416C204.915 177.322 204.105 177.209 203.277 177.039L202.147 176.795L201.356 176.568C200.301 176.267 199.228 176.004 198.23 175.645L195.236 174.535L192.392 173.273C188.85 171.534 185.472 169.479 182.299 167.134C176.563 162.759 171.322 157.77 166.668 152.258C162.278 147.092 158.239 141.637 154.579 135.93C152.758 133.143 151.02 130.306 149.363 127.419C148.515 125.968 147.724 124.5 146.915 123.012L145.728 120.753C145.314 119.942 144.975 119.302 144.485 118.248L172.958 105.612Z" fill="#00A3FF"/>
<path fill-rule="evenodd" clip-rule="evenodd" d="M172.958 105.612C173.09 105.951 173.41 106.685 173.655 107.25L174.483 109.133C175.143 110.432 175.745 111.675 176.367 112.899C177.584 115.385 178.884 117.834 180.265 120.244C182.942 124.96 185.943 129.483 189.248 133.784C192.268 137.776 195.737 141.41 199.586 144.612C201.262 145.962 203.051 147.165 204.934 148.209L206.252 148.868L207.514 149.414C207.947 149.583 208.342 149.677 208.757 149.846L209.077 149.941C209.228 149.941 209.077 149.941 209.077 149.941H208.889C208.531 150.035 209.736 150.053 211.355 149.432C213.328 148.658 215.22 147.693 217.005 146.551C221.491 143.685 225.719 140.434 229.641 136.835C233.802 133.087 237.851 129.001 241.806 124.763C243.802 122.635 245.704 120.413 247.568 118.248C249.433 116.082 251.372 113.728 252.992 111.675L273.819 127.833C271.672 130.563 269.695 132.918 267.624 135.365C265.552 137.813 263.424 140.186 261.277 142.578C256.984 147.323 252.502 151.974 247.662 156.475C242.679 161.224 237.306 165.546 231.599 169.393C228.301 171.588 224.794 173.448 221.129 174.949C218.931 175.833 216.655 176.508 214.331 176.964C211.495 177.546 208.587 177.698 205.706 177.416C204.915 177.322 204.105 177.209 203.277 177.039L202.147 176.795L201.356 176.568C200.301 176.267 199.228 176.004 198.23 175.645L195.236 174.535L192.392 173.273C188.85 171.534 185.472 169.479 182.299 167.134C176.563 162.759 171.322 157.77 166.668 152.258C162.278 147.092 158.239 141.637 154.579 135.93C152.758 133.143 151.02 130.306 149.363 127.419C148.515 125.968 147.724 124.5 146.915 123.012L145.728 120.753C145.314 119.942 144.975 119.302 144.485 118.248L172.958 105.612Z" fill="#00A3FF"/>
<path fill-rule="evenodd" clip-rule="evenodd" d="M140.701 304.001H110.929L87.8789 419.211H148.667L140.701 304.001Z" fill="#00A3FF"/>
<path fill-rule="evenodd" clip-rule="evenodd" d="M140.701 304.001H110.929L87.8789 419.211H148.667L140.701 304.001Z" fill="white"/>
<path fill-rule="evenodd" clip-rule="evenodd" d="M136.294 572.969H151.793L151.133 608.843H135.635L136.294 572.969Z" fill="#B45B52"/>
<path fill-rule="evenodd" clip-rule="evenodd" d="M56.7313 572.969H72.2303L65.3183 608.843H49.8203L56.7313 572.969Z" fill="#B45B52"/>
<mask id="mask0" mask-type="alpha" maskUnits="userSpaceOnUse" x="45" y="607" width="46" height="18">
<path fill-rule="evenodd" clip-rule="evenodd" d="M45 607.054H90.9445V624.661H45V607.054Z" fill="white"/>
</mask>
<g mask="url(#mask0)">
<path fill-rule="evenodd" clip-rule="evenodd" d="M68.9915 607.995C72.8895 611.441 77.4845 615.038 89.4795 617.656C92.1545 618.239 91.4575 624.661 84.9605 624.661C78.4635 624.661 68.7465 624.172 64.0385 624.172C56.3745 624.172 53.4365 624.529 47.3735 624.623C47.2215 624.626 47.0705 624.613 46.9215 624.587C45.6525 624.357 44.8085 623.143 45.0375 621.874L47.7495 608.108C47.8755 607.492 48.4195 607.05 49.0495 607.054H66.3735C67.3315 607.042 68.2615 607.376 68.9915 607.995Z" fill="#FF1849"/>
</g>
<path fill-rule="evenodd" clip-rule="evenodd" d="M154.73 608.203C165.351 614.682 168.232 614.964 180.416 617.619C183.09 618.203 181.489 624.624 175.125 624.624C164.616 624.624 163.882 624.135 154.918 624.135C147.235 624.135 138.422 624.492 132.321 624.605C132.174 624.605 132.028 624.592 131.885 624.565C130.617 624.326 129.784 623.104 130.023 621.838L132.754 608.109C132.872 607.496 133.41 607.053 134.034 607.055H150.982C152.313 607.089 153.609 607.486 154.73 608.203Z" fill="#FF1849"/>
<path fill-rule="evenodd" clip-rule="evenodd" d="M258.51 110.037L258.341 114.237C264.366 116.633 270.944 117.286 277.322 116.12L275.439 103.202L265.421 103.352C261.706 103.389 258.67 106.326 258.51 110.037Z" fill="#B45B52"/>
<mask id="mask1" mask-type="alpha" maskUnits="userSpaceOnUse" x="275" y="103" width="17" height="14">
<path fill-rule="evenodd" clip-rule="evenodd" d="M275.439 103.202H291.107V116.12H275.439V103.202Z" fill="white"/>
</mask>
<g mask="url(#mask1)">
<path fill-rule="evenodd" clip-rule="evenodd" d="M275.439 103.202L277.36 116.12L289.167 111.958L291.107 103.805L275.439 103.202Z" fill="#B45B52"/>
</g>
<path fill-rule="evenodd" clip-rule="evenodd" d="M136.294 572.988L135.955 591.48H151.453L151.793 572.988H136.294Z" fill="black"/>
<path fill-rule="evenodd" clip-rule="evenodd" d="M53.1533 591.481H68.6523L72.2303 572.989H56.7313L53.1533 591.481Z" fill="black"/>
<path fill-rule="evenodd" clip-rule="evenodd" d="M159.551 97.9855C154.785 96.6755 149.915 95.7815 144.994 95.3115C133.459 94.2375 121.869 93.8595 110.288 94.1815C106.917 94.3505 103.509 94.6525 100.289 95.0095C99.9481 95.0485 99.6091 95.0975 99.2721 95.1585C90.3221 96.7445 84.3521 105.287 85.9391 114.237C95.2601 168.603 89.9881 220.822 90.7981 232.366H173.655C182.073 166.475 174.371 125.046 170.078 108.625C168.731 103.447 164.714 99.3865 159.551 97.9855Z" fill="white"/>
<path fill-rule="evenodd" clip-rule="evenodd" d="M135.183 66.7261C133.187 75.5391 132.923 91.1691 145.634 94.1821C145.634 94.1821 155.464 105.669 136.219 105.669C115.165 105.669 110.326 94.1821 110.326 94.1821C118.046 86.6121 116.597 72.5441 114.092 61.2461L135.183 66.7261Z" fill="#B45B52"/>
<path fill-rule="evenodd" clip-rule="evenodd" d="M136.961 103.883C136.393 103.428 135.563 103.519 135.108 104.087L130.362 109.491C129.998 109.97 129.998 110.633 130.362 111.112L133.3 115.423C133.563 115.818 134.013 116.046 134.486 116.027L139.401 115.781C139.938 115.76 140.403 115.406 140.569 114.897L142.019 110.452C142.173 109.994 142.065 109.488 141.736 109.134L137.179 104.106C137.115 104.024 137.042 103.948 136.961 103.883Z" fill="#FF1849"/>
<path fill-rule="evenodd" clip-rule="evenodd" d="M135.504 115.743C135.9 125.573 134.826 162.916 135.712 180.429C136.596 197.942 141.775 207.734 141.775 207.734C144.498 199.026 145.932 189.967 146.031 180.844C145.861 171.182 138.329 115.743 138.329 115.743H135.504Z" fill="#FF1849"/>
<path fill-rule="evenodd" clip-rule="evenodd" d="M114.092 61.2451C114.525 63.1471 114.902 65.1051 115.241 67.1211C117.35 74.7471 119.572 78.3251 125.316 81.9781C127.896 83.6171 134.11 86.0091 135.616 85.3491C133.319 79.3981 133.884 71.9041 135.07 66.7441L114.092 61.2451Z" fill="black"/>
<path fill-rule="evenodd" clip-rule="evenodd" d="M155.317 53.3303C155.527 49.6023 152.676 46.4103 148.949 46.1993C143.977 46.0673 140.719 52.2813 140.061 56.5943C139.307 61.3963 142.339 65.5013 147.028 63.6183C150.552 62.1313 153.329 59.2873 154.73 55.7273C155.071 54.9723 155.27 54.1593 155.317 53.3303Z" fill="#B45B52"/>
<path fill-rule="evenodd" clip-rule="evenodd" d="M155.317 53.3303C155.527 49.6023 152.676 46.4103 148.949 46.1993C143.977 46.0673 140.719 52.2813 140.061 56.5943C139.307 61.3963 142.339 65.5013 147.028 63.6183C150.552 62.1313 153.329 59.2873 154.73 55.7273C155.071 54.9723 155.27 54.1593 155.317 53.3303Z" fill="black"/>
<path fill-rule="evenodd" clip-rule="evenodd" d="M141.679 25.6914C145.897 25.1274 150.021 30.0604 150.926 36.7084C151.829 43.3554 149.137 49.1934 144.918 49.7584C140.7 50.3234 136.557 45.3894 135.672 38.7604C134.73 32.1134 137.461 26.2564 141.679 25.6914Z" fill="#1A2E35"/>
<path fill-rule="evenodd" clip-rule="evenodd" d="M106.439 36.3988C108.992 25.3638 120.006 18.4888 131.041 21.0408C146.859 24.6188 153.168 46.8398 152.508 61.0388C151.793 76.8198 134.562 86.9138 120.966 77.1018C111.908 70.5868 110.439 61.6228 106.673 46.5568C105.744 43.2448 105.664 39.7508 106.439 36.3988Z" fill="#B45B52"/>
<path fill-rule="evenodd" clip-rule="evenodd" d="M97.1257 31.3607C86.8057 38.4407 102.286 63.4677 107.521 64.8047C109.162 67.7727 111.846 70.0277 115.053 71.1317C115.053 71.1317 108.82 57.9877 111.739 59.4377C120.496 51.6607 114.093 36.5947 114.093 36.5947C114.093 36.5947 133.47 35.7667 142.076 30.3997C150.682 25.0337 140.702 17.6707 131.681 15.7867C119.573 13.1697 99.0837 16.7657 97.1257 31.3607Z" fill="#1A2E35"/>
<path fill-rule="evenodd" clip-rule="evenodd" d="M109.46 55.3889C109.354 55.1449 109.462 54.8599 109.705 54.7489L123.282 48.5349C123.321 48.5099 123.364 48.4909 123.409 48.4779C123.668 48.4039 123.939 48.5539 124.014 48.8149C124.088 49.0749 123.938 49.3449 123.678 49.4189L110.119 55.6339H109.912C109.727 55.6449 109.552 55.5499 109.46 55.3889Z" fill="white"/>
<path fill-rule="evenodd" clip-rule="evenodd" d="M104.996 53.6C109.591 51.849 114.92 56.669 117.123 60.436C119.572 64.692 118.253 69.57 113.15 69.306C109.272 69.063 105.642 67.313 103.038 64.428C99.8934 60.87 100.401 55.352 104.996 53.6Z" fill="#B45B52"/>
<path fill-rule="evenodd" clip-rule="evenodd" d="M119.177 232.366C119.177 232.366 128.329 346.559 130.89 399.175C133.244 447.42 130.89 587.884 130.89 587.884H157.122C157.122 587.884 177.554 444.557 178.1 395.427C178.628 348.179 173.656 232.366 173.656 232.366H119.177Z" fill="#1A2E35"/>
<path fill-rule="evenodd" clip-rule="evenodd" d="M161.152 575.248L159.42 588.43H129.176C129.176 588.43 129.534 576.302 129.666 576.302L161.152 575.248Z" fill="#1A2E35"/>
<path fill-rule="evenodd" clip-rule="evenodd" d="M123.602 289.764C125.881 319.876 128.461 356.126 130.042 383.544C136.464 355.41 139.063 320.497 138.159 263.024L123.602 289.764Z" fill="black"/>
<path fill-rule="evenodd" clip-rule="evenodd" d="M90.8352 232.442C90.8352 232.442 79.9512 347.388 74.6972 399.57C69.8382 447.59 47.4482 587.884 47.4482 587.884H75.8272C75.8272 587.884 111.606 443.655 121.022 395.088C129.571 350.741 144.26 232.367 144.26 232.367L90.8352 232.442Z" fill="#1A2E35"/>
<path fill-rule="evenodd" clip-rule="evenodd" d="M80.6286 575.775L77.2016 588.429H46.0166C46.0166 588.429 47.9936 576.942 48.1256 576.942L80.6286 575.775Z" fill="#1A2E35"/>
<path fill-rule="evenodd" clip-rule="evenodd" d="M131.266 44.4671C132.076 44.3351 132.923 45.2201 133.149 46.4631C133.375 47.7061 132.923 48.8171 132.113 48.9481C131.304 49.0801 130.475 48.1961 130.23 46.9521C130.023 45.7101 130.456 44.5991 131.266 44.4671Z" fill="#1A2E35"/>
<path fill-rule="evenodd" clip-rule="evenodd" d="M146.463 40.889C147.273 40.757 148.12 41.642 148.346 42.885C148.572 44.128 148.12 45.24 147.311 45.37C146.501 45.502 145.653 44.618 145.427 43.374C145.201 42.132 145.653 41.021 146.463 40.889Z" fill="#1A2E35"/>
<path fill-rule="evenodd" clip-rule="evenodd" d="M142.678 57.8374C144.782 57.7664 146.744 56.7574 148.026 55.0884C144.68 52.6304 141.678 49.7364 139.1 46.4824L142.678 57.8374Z" fill="#9F2724"/>
<path fill-rule="evenodd" clip-rule="evenodd" d="M129.778 58.967C129.643 58.821 129.652 58.594 129.797 58.458C129.943 58.323 130.17 58.332 130.305 58.478C132.625 60.612 135.812 61.531 138.911 60.963C139.113 60.929 139.306 61.063 139.344 61.265C139.38 61.461 139.256 61.651 139.062 61.697C135.708 62.335 132.253 61.319 129.778 58.967Z" fill="#1A2E35"/>
<path fill-rule="evenodd" clip-rule="evenodd" d="M122.34 42.8855C121.965 42.7295 121.776 42.3095 121.906 41.9255C122.694 39.7115 124.54 38.0415 126.821 37.4815C127.22 37.4105 127.603 37.6685 127.688 38.0655C127.769 38.4595 127.517 38.8465 127.123 38.9315C125.365 39.4375 123.962 40.7645 123.357 42.4895C123.276 42.7065 123.092 42.8685 122.867 42.9235C122.693 42.9745 122.505 42.9615 122.34 42.8855Z" fill="#1A2E35"/>
<path fill-rule="evenodd" clip-rule="evenodd" d="M148.478 37.1984C147.34 35.7024 145.555 34.8414 143.676 34.8824H143.668C143.265 34.9224 142.905 34.6264 142.866 34.2224C142.866 34.2194 142.865 34.2144 142.865 34.2104C142.816 33.8174 143.095 33.4614 143.488 33.4134C145.862 33.3434 148.13 34.3964 149.608 36.2564C149.883 36.5474 149.883 37.0014 149.608 37.2924C149.53 37.3674 149.432 37.4204 149.325 37.4424C149.02 37.5464 148.682 37.4484 148.478 37.1984Z" fill="#1A2E35"/>
<path fill-rule="evenodd" clip-rule="evenodd" d="M128.838 40.2289C127.302 40.5139 125.945 41.4019 125.072 42.6959C123.925 44.4259 123.506 46.5359 123.904 48.5719C124.329 52.3249 127.674 55.0529 131.436 54.7109C132.971 54.4239 134.326 53.5349 135.203 52.2439C136.343 50.5129 136.755 48.4019 136.351 46.3689C135.912 42.9929 133.156 40.3949 129.761 40.1539C129.451 40.1529 129.142 40.1789 128.838 40.2289ZM122.943 48.7409C122.499 46.4569 122.973 44.0889 124.262 42.1499C125.28 40.6499 126.85 39.6139 128.631 39.2699C132.926 38.8379 136.781 41.9139 137.312 46.1989C137.765 48.4839 137.29 50.8549 135.994 52.7899C134.98 54.2949 133.407 55.3319 131.625 55.6709C131.257 55.7299 130.886 55.7619 130.514 55.7659C126.64 55.5239 123.474 52.5859 122.943 48.7409Z" fill="white"/>
<path fill-rule="evenodd" clip-rule="evenodd" d="M136.577 46.6891C136.576 46.6891 136.575 46.6881 136.575 46.6881C136.347 46.5421 136.28 46.2391 136.426 46.0111C137.34 44.3581 139.316 43.6091 141.097 44.2421C141.339 44.3521 141.448 44.6371 141.341 44.8811C141.23 45.1241 140.951 45.2391 140.701 45.1451C139.355 44.6731 137.869 45.2801 137.236 46.5571C137.145 46.6861 136.998 46.7631 136.841 46.7641C136.747 46.7691 136.654 46.7431 136.577 46.6891Z" fill="white"/>
<path fill-rule="evenodd" clip-rule="evenodd" d="M146.294 36.2559C144.762 36.5479 143.407 37.4349 142.528 38.7229C141.376 40.4489 140.956 42.5629 141.36 44.5989C141.785 48.3529 145.13 51.0789 148.893 50.7369C150.428 50.4539 151.786 49.5659 152.659 48.2709C153.813 46.5449 154.233 44.4309 153.827 42.3959C153.387 39.0199 150.631 36.4209 147.235 36.1809C146.92 36.1789 146.605 36.2039 146.294 36.2559ZM140.419 44.7869C139.973 42.4959 140.447 40.1219 141.737 38.1769C142.746 36.6719 144.322 35.6389 146.106 35.3149C150.398 34.8719 154.256 37.9429 154.787 42.2259C155.232 44.5109 154.758 46.8789 153.469 48.8169C152.456 50.3209 150.882 51.3599 149.1 51.6979C148.726 51.7579 148.349 51.7889 147.97 51.7919C144.107 51.5509 140.949 48.6209 140.419 44.7869Z" fill="white"/>
<path fill-rule="evenodd" clip-rule="evenodd" d="M73.7928 606.545C71.9438 606.919 70.1848 607.648 68.6138 608.692C71.2698 609.22 73.2838 609.125 74.1128 608.409C74.4858 608.072 74.6628 607.569 74.5838 607.072C74.5908 606.894 74.4958 606.726 74.3388 606.64C74.1898 606.576 74.0298 606.544 73.8678 606.545H73.7928ZM67.5788 609.257C67.4298 609.227 67.3168 609.106 67.2958 608.956C67.2568 608.811 67.3178 608.657 67.4468 608.579C68.0118 608.24 72.9448 605.171 74.6588 606.037C75.0488 606.248 75.2988 606.649 75.3178 607.092C75.3968 607.798 75.1308 608.499 74.6028 608.975C73.7318 609.558 72.6898 609.83 71.6458 609.747C70.2758 609.737 68.9118 609.573 67.5788 609.257Z" fill="#00A3FF"/>
<path fill-rule="evenodd" clip-rule="evenodd" d="M69.7251 603.307C68.6751 604.715 68.0781 606.41 68.0121 608.165C69.5751 606.96 71.4761 604.38 71.2691 603.364C71.2501 603.269 71.1941 603.005 70.7231 603.005H70.5541C70.2501 603.003 69.9561 603.11 69.7251 603.307ZM67.5791 609.277C67.3781 609.244 67.2251 609.082 67.2021 608.881C67.2211 608.673 67.4841 604.21 69.2351 602.742C69.6651 602.37 70.2341 602.198 70.7981 602.271C71.3671 602.282 71.8561 602.677 71.9851 603.232C72.3621 604.964 69.3291 608.354 67.7481 609.22C67.6931 609.239 67.6331 609.239 67.5791 609.22V609.277Z" fill="#00A3FF"/>
<path fill-rule="evenodd" clip-rule="evenodd" d="M153.75 608.674C157.196 609.257 159.739 609.107 160.661 608.259C160.998 607.963 161.154 607.514 161.076 607.072C161.077 606.91 160.991 606.759 160.85 606.677C160.629 606.587 160.392 606.542 160.153 606.545C157.914 606.887 155.748 607.606 153.75 608.674ZM152.621 609.2C152.499 609.187 152.393 609.111 152.34 609C152.254 608.822 152.329 608.609 152.507 608.523C153.204 608.146 159.381 604.983 161.264 606.056C161.625 606.245 161.86 606.61 161.885 607.017C161.991 607.683 161.75 608.358 161.245 608.805C160.139 609.552 158.808 609.892 157.479 609.766C155.845 609.729 154.219 609.539 152.621 609.2Z" fill="#00A3FF"/>
<path fill-rule="evenodd" clip-rule="evenodd" d="M154.994 603.458C153.886 604.819 153.228 606.49 153.111 608.241C154.994 607.093 157.442 604.456 157.254 603.42C157.235 603.326 157.179 603.006 156.519 603.006H156.293C155.819 602.987 155.354 603.148 154.994 603.458ZM152.395 609.183C152.297 609.098 152.242 608.974 152.244 608.844C152.264 608.674 152.621 604.493 154.504 602.874C155.057 602.39 155.79 602.163 156.519 602.253C157.536 602.347 157.913 602.874 157.913 603.27C158.233 605.04 154.655 608.373 152.772 609.221H152.621C152.544 609.225 152.467 609.212 152.395 609.183Z" fill="#00A3FF"/>
<path fill-rule="evenodd" clip-rule="evenodd" d="M142.075 156.326C144.833 184.259 144.732 212.401 141.774 240.313C134.148 304.542 120.53 367.915 101.098 429.605L60.4043 422.47C60.4043 422.47 81.0613 261.932 82.5493 232.367C85.5063 173.744 81.8153 135.423 80.9113 107.534C80.7013 101.344 85.2683 96.0225 91.4193 95.2935L109.308 93.1455L142.075 156.326Z" fill="#00A3FF"/>
<path fill-rule="evenodd" clip-rule="evenodd" d="M142.075 156.326C144.833 184.259 144.732 212.401 141.774 240.313C134.148 304.542 120.53 367.915 101.098 429.605L60.4043 422.47C60.4043 422.47 81.0613 261.932 82.5493 232.367C85.5063 173.744 81.8153 135.423 80.9113 107.534C80.7013 101.344 85.2683 96.0225 91.4193 95.2935L109.308 93.1455L142.075 156.326Z" fill="#00A3FF"/>
<path fill-rule="evenodd" clip-rule="evenodd" d="M82.5684 141.316C82.9824 149.714 83.3404 158.867 83.5664 168.885C91.4944 154.197 94.6954 132.918 94.6954 128.737L82.5684 141.316Z" fill="#417BFE"/>
<path fill-rule="evenodd" clip-rule="evenodd" d="M164.466 149.622L165.295 150.639C169.583 155.873 174.362 160.685 179.569 165.007C180.981 166.137 182.45 167.248 183.994 168.321C180.623 148.003 173.995 129.397 171.697 125.01L164.466 149.622Z" fill="#417BFE"/>
<path fill-rule="evenodd" clip-rule="evenodd" d="M140.136 152.71C138.989 181.918 139.511 211.166 141.699 240.314C150.23 338.52 156.67 426.914 156.67 426.914L182.036 422.47C182.036 422.47 183.373 261.913 181.49 232.367C180.153 210.579 177.704 148.059 176.499 116.762C176.107 106.23 168.128 97.5406 157.668 96.2536L147.104 94.9736L140.136 152.71Z" fill="#00A3FF"/>
<path fill-rule="evenodd" clip-rule="evenodd" d="M140.136 152.71C138.989 181.918 139.511 211.166 141.699 240.314C150.23 338.52 156.67 426.914 156.67 426.914L182.036 422.47C182.036 422.47 183.373 261.913 181.49 232.367C180.153 210.579 177.704 148.059 176.499 116.762C176.107 106.23 168.128 97.5406 157.668 96.2536L147.104 94.9736L140.136 152.71Z" fill="#00A3FF"/>
<path fill-rule="evenodd" clip-rule="evenodd" d="M112.717 89.6055C110.457 91.4135 106.691 93.6355 106.691 93.6355C105.806 107.25 130.531 115.743 130.531 115.743C131.923 111.501 133.82 107.442 136.181 103.653C113.847 98.1925 112.736 89.6055 112.717 89.6055Z" fill="#F4F4F4"/>
<path fill-rule="evenodd" clip-rule="evenodd" d="M142.641 92.0352C144.959 92.5732 147.232 93.2912 149.439 94.1812C151.958 101.567 149.443 109.735 143.206 114.425C141.363 110.533 139 106.91 136.182 103.653C144.43 100.734 142.641 92.0352 142.641 92.0352Z" fill="#F4F4F4"/>
<path fill-rule="evenodd" clip-rule="evenodd" d="M101.513 255.473L82.1543 264.945L110.495 240.596L101.513 255.473Z" fill="#417BFE"/>
<path fill-rule="evenodd" clip-rule="evenodd" d="M106.653 121.507C105.843 122.43 104.864 123.748 103.96 124.915L101.211 128.588C99.4031 131.055 97.6331 133.578 95.9191 136.12C92.5491 141.224 89.3661 146.458 86.5041 151.732C83.7051 156.822 81.3061 162.124 79.3291 167.587C77.5451 172.259 76.5221 177.186 76.2971 182.182C76.4091 187.31 77.3041 192.39 78.9521 197.246C80.7371 202.756 82.9861 208.105 85.6751 213.235C88.4781 218.6 91.5781 223.806 94.9591 228.827C96.6731 231.426 98.4051 233.911 100.288 236.36L103.075 239.975C103.904 241.143 105.034 242.423 105.787 243.327L85.8821 260.596C84.5271 259.014 83.4901 257.734 82.3981 256.359C81.3061 254.984 80.2331 253.59 79.1971 252.196C77.1131 249.422 75.0921 246.598 73.1331 243.723C69.1341 237.947 65.4571 231.956 62.1171 225.777C58.6091 219.386 55.6361 212.715 53.2291 205.834C50.5701 198.356 49.0411 190.525 48.6901 182.596C48.6121 178.395 48.9341 174.195 49.6511 170.054C50.3281 166.231 51.2591 162.456 52.4381 158.755C54.6511 151.832 57.3631 145.079 60.5541 138.549C63.6421 132.165 66.9941 126.065 70.5531 120.095C72.3231 117.119 74.1501 114.175 76.0331 111.263L78.9151 106.912C79.9311 105.425 80.8351 104.107 82.0411 102.431L106.653 121.507Z" fill="#00A3FF"/>
<path fill-rule="evenodd" clip-rule="evenodd" d="M106.653 121.507C105.843 122.43 104.864 123.748 103.96 124.915L101.211 128.588C99.4031 131.055 97.6331 133.578 95.9191 136.12C92.5491 141.224 89.3661 146.458 86.5041 151.732C83.7051 156.822 81.3061 162.124 79.3291 167.587C77.5451 172.259 76.5221 177.186 76.2971 182.182C76.4091 187.31 77.3041 192.39 78.9521 197.246C80.7371 202.756 82.9861 208.105 85.6751 213.235C88.4781 218.6 91.5781 223.806 94.9591 228.827C96.6731 231.426 98.4051 233.911 100.288 236.36L103.075 239.975C103.904 241.143 105.034 242.423 105.787 243.327L85.8821 260.596C84.5271 259.014 83.4901 257.734 82.3981 256.359C81.3061 254.984 80.2331 253.59 79.1971 252.196C77.1131 249.422 75.0921 246.598 73.1331 243.723C69.1341 237.947 65.4571 231.956 62.1171 225.777C58.6091 219.386 55.6361 212.715 53.2291 205.834C50.5701 198.356 49.0411 190.525 48.6901 182.596C48.6121 178.395 48.9341 174.195 49.6511 170.054C50.3281 166.231 51.2591 162.456 52.4381 158.755C54.6511 151.832 57.3631 145.079 60.5541 138.549C63.6421 132.165 66.9941 126.065 70.5531 120.095C72.3231 117.119 74.1501 114.175 76.0331 111.263L78.9151 106.912C79.9311 105.425 80.8351 104.107 82.0411 102.431L106.653 121.507Z" fill="#00A3FF"/>
<path fill-rule="evenodd" clip-rule="evenodd" d="M107.108 134.123C106.562 131.581 108.18 129.077 110.722 128.531C113.834 127.839 116.999 129.46 118.254 132.392C118.392 132.694 118.497 133.012 118.568 133.337C119.125 135.888 117.509 138.406 114.959 138.964C111.842 139.645 108.681 138.018 107.426 135.084C107.286 134.776 107.179 134.454 107.108 134.123Z" fill="#1A2E35"/>
<path fill-rule="evenodd" clip-rule="evenodd" d="M107.108 134.123C106.562 131.581 108.18 129.077 110.722 128.531C113.834 127.839 116.999 129.46 118.254 132.392C118.392 132.694 118.497 133.012 118.568 133.337C119.125 135.888 117.509 138.406 114.959 138.964C111.842 139.645 108.681 138.018 107.426 135.084C107.286 134.776 107.179 134.454 107.108 134.123Z" fill="white"/>
<path fill-rule="evenodd" clip-rule="evenodd" d="M113.038 131.92C98.6126 111.864 102.756 93.918 102.756 93.748C102.763 93.676 102.78 93.604 102.808 93.535C102.96 93.16 103.388 92.979 103.764 93.131C104.14 93.283 104.321 93.712 104.169 94.087C104.131 94.257 100.214 111.582 114.225 131.072C114.455 131.4 114.38 131.854 114.055 132.089C113.928 132.178 113.777 132.224 113.622 132.221C113.389 132.228 113.168 132.114 113.038 131.92Z" fill="#1A2E35"/>
<path fill-rule="evenodd" clip-rule="evenodd" d="M162.413 122.316C162.015 122.286 161.713 121.943 161.735 121.545C163.204 103.315 153.449 96.3853 153.355 96.3853C153.017 96.1623 152.925 95.7073 153.148 95.3693C153.384 95.0463 153.83 94.9633 154.165 95.1803C154.598 95.4623 164.729 102.524 163.204 121.657C163.166 122.037 162.85 122.328 162.47 122.335L162.413 122.316Z" fill="#1A2E35"/>
<path fill-rule="evenodd" clip-rule="evenodd" d="M109.22 133.777C108.638 131.232 110.23 128.697 112.774 128.115C115.863 127.41 119.019 128.988 120.307 131.881C120.452 132.197 120.562 132.528 120.635 132.868C121.177 135.411 119.554 137.912 117.012 138.454C113.896 139.128 110.74 137.502 109.479 134.575C109.369 134.317 109.282 134.049 109.22 133.777Z" fill="#1A2E35"/>
<path fill-rule="evenodd" clip-rule="evenodd" d="M109.22 133.777C108.638 131.232 110.23 128.697 112.774 128.115C115.863 127.41 119.019 128.988 120.307 131.881C120.452 132.197 120.562 132.528 120.635 132.868C121.177 135.411 119.554 137.912 117.012 138.454C113.896 139.128 110.74 137.502 109.479 134.575C109.369 134.317 109.282 134.049 109.22 133.777Z" fill="white"/>
<path fill-rule="evenodd" clip-rule="evenodd" d="M112.482 133.075C112.187 131.734 113.034 130.408 114.375 130.112C116.014 129.758 117.677 130.608 118.348 132.146C118.418 132.302 118.471 132.464 118.508 132.63C118.803 133.971 117.956 135.297 116.615 135.593C114.975 135.956 113.307 135.102 112.642 133.558C112.572 133.403 112.519 133.241 112.482 133.075Z" fill="white"/>
<path fill-rule="evenodd" clip-rule="evenodd" d="M149.834 160.355L148.44 135.875C148.415 135.512 148.404 135.15 148.408 134.787C148.478 127.09 154.774 120.909 162.47 120.979C170.748 121.078 177.56 127.521 178.119 135.781L179.531 160.261C179.542 160.417 179.546 160.572 179.544 160.727C179.516 164.149 176.719 166.9 173.298 166.872C172.896 166.861 172.573 166.539 172.563 166.136C172.563 165.731 172.892 165.402 173.298 165.402C173.447 165.405 173.596 165.401 173.745 165.389C176.338 165.191 178.279 162.929 178.081 160.336L176.668 135.856C176.159 128.364 169.979 122.52 162.47 122.429C162.146 122.426 161.822 122.435 161.499 122.458C154.619 122.925 149.422 128.882 149.89 135.761L151.284 160.243C151.54 163.091 153.886 165.299 156.745 165.383H156.764C157.159 165.394 157.471 165.723 157.46 166.118C157.46 166.516 157.143 166.842 156.745 166.852C153.103 166.813 150.098 163.989 149.834 160.355Z" fill="#1A2E35"/>
<path fill-rule="evenodd" clip-rule="evenodd" d="M173.166 163.971C173.844 163.971 174.428 164.95 174.503 166.117C174.578 167.285 174.07 168.245 173.411 168.245C172.751 168.245 172.092 167.285 172.092 166.117C172.017 164.931 172.488 163.971 173.166 163.971Z" fill="#1A2E35"/>
<path fill-rule="evenodd" clip-rule="evenodd" d="M156.613 163.971C157.291 163.971 157.875 164.95 157.95 166.117C158.025 167.285 157.535 168.245 156.858 168.245C156.18 168.245 155.521 167.285 155.521 166.117C155.464 164.931 155.935 163.971 156.613 163.971Z" fill="#1A2E35"/>
<path d="M365.792 148.288C368.432 148.288 370.832 147.16 372.488 145.36L369.08 142.384C368.288 143.392 367.112 144.064 365.792 144.064C363.536 144.064 361.616 142.096 361.616 139.744C361.616 137.416 363.536 135.448 365.792 135.448C367.088 135.448 368.288 136.12 369.056 137.128L372.488 134.128C370.832 132.352 368.432 131.224 365.792 131.224C360.92 131.224 356.816 135.112 356.816 139.744C356.816 144.376 360.92 148.288 365.792 148.288ZM374.481 148H379.137V131.512H374.481V148ZM390.448 148.288C393.088 148.288 395.488 147.16 397.144 145.36L393.736 142.384C392.944 143.392 391.768 144.064 390.448 144.064C388.192 144.064 386.272 142.096 386.272 139.744C386.272 137.416 388.192 135.448 390.448 135.448C391.744 135.448 392.944 136.12 393.712 137.128L397.144 134.128C395.488 132.352 393.088 131.224 390.448 131.224C385.576 131.224 381.472 135.112 381.472 139.744C381.472 144.376 385.576 148.288 390.448 148.288ZM406.746 148.288C411.354 148.288 414.594 145.144 414.594 140.68V131.512H409.938V140.44C409.938 142.552 408.618 144.064 406.746 144.064C404.874 144.064 403.554 142.552 403.554 140.44V131.512H398.898V140.68C398.898 145.144 402.138 148.288 406.746 148.288ZM423.31 143.224H430.126V139.432H423.31V143.224ZM450.282 131.512L446.586 141.16L442.866 131.512H437.61L443.946 148H449.202L455.538 131.512H450.282ZM459.235 134.272C460.531 134.272 461.587 133.168 461.587 131.872C461.587 130.624 460.531 129.52 459.235 129.52C457.891 129.52 456.835 130.624 456.835 131.872C456.835 133.168 457.891 134.272 459.235 134.272ZM456.883 148H461.515V135.592H456.883V148ZM469.02 148.288C472.38 148.288 474.42 146.656 474.42 144.088C474.42 141.16 471.828 140.416 469.572 139.912C468.324 139.624 467.772 139.552 467.772 139.144C467.772 138.784 468.204 138.448 468.852 138.448C470.028 138.448 471.444 139.096 472.476 139.768L474.036 136.936C472.62 136 470.772 135.304 468.852 135.304C465.612 135.304 463.668 137.176 463.668 139.576C463.668 142.504 466.188 143.056 468.444 143.536C469.596 143.776 470.316 144.016 470.316 144.448C470.316 144.856 470.004 145.072 469.14 145.072C467.82 145.072 466.044 144.448 464.844 143.608L463.116 146.416C464.628 147.592 466.86 148.288 469.02 148.288ZM478.664 134.272C479.96 134.272 481.016 133.168 481.016 131.872C481.016 130.624 479.96 129.52 478.664 129.52C477.32 129.52 476.264 130.624 476.264 131.872C476.264 133.168 477.32 134.272 478.664 134.272ZM476.312 148H480.944V135.592H476.312V148ZM490.873 144.088C490.633 144.304 490.177 144.448 489.745 144.448C489.121 144.448 488.689 143.92 488.689 143.176V139.24H491.137V135.592H488.689V132.184H484.273V135.592H482.713V139.24H484.273V144.088C484.273 146.56 486.001 148.288 488.473 148.288C489.577 148.288 490.897 147.76 491.665 147.016L490.873 144.088ZM495.938 134.272C497.234 134.272 498.29 133.168 498.29 131.872C498.29 130.624 497.234 129.52 495.938 129.52C494.594 129.52 493.538 130.624 493.538 131.872C493.538 133.168 494.594 134.272 495.938 134.272ZM493.586 148H498.218V135.592H493.586V148ZM508.915 135.304C507.427 135.304 506.179 135.88 505.411 136.84V135.592H500.779V148H505.411V141.04C505.411 139.936 506.155 139.144 507.187 139.144C508.291 139.144 509.059 139.984 509.059 141.184V148H513.475V140.104C513.475 137.296 511.579 135.304 508.915 135.304ZM524.513 135.592V136.96C523.745 136 522.161 135.304 520.673 135.304C517.673 135.304 515.297 137.728 515.297 141.184C515.297 144.64 517.673 147.088 520.673 147.088C522.113 147.088 523.529 146.488 524.513 145.456V146.44C524.513 147.496 523.217 148.288 521.369 148.288C520.001 148.288 518.561 147.88 517.841 147.28L516.329 150.472C517.649 151.432 519.809 152.128 522.113 152.128C526.241 152.128 529.169 149.872 529.169 146.68V135.592H524.513ZM522.281 143.248C520.985 143.248 520.049 142.384 520.049 141.184C520.049 139.984 520.985 139.144 522.281 139.144C523.577 139.144 524.513 139.984 524.513 141.184C524.513 142.384 523.577 143.248 522.281 143.248ZM542.362 148H547.018V135.664H551.89V131.512H537.49V135.664H542.362V148ZM556.078 134.272C557.374 134.272 558.43 133.168 558.43 131.872C558.43 130.624 557.374 129.52 556.078 129.52C554.734 129.52 553.678 130.624 553.678 131.872C553.678 133.168 554.734 134.272 556.078 134.272ZM553.726 148H558.358V135.592H553.726V148ZM576.687 135.304C574.863 135.304 573.375 136.096 572.655 137.344C571.815 136.072 570.375 135.304 568.767 135.304C567.303 135.304 566.151 136 565.551 137.104V135.592H560.919V148H565.551V140.8C565.551 139.84 566.271 139.144 567.303 139.144C568.335 139.144 569.055 139.888 569.055 140.944V148.024H573.471V140.8C573.471 139.84 574.191 139.144 575.223 139.144C576.255 139.144 576.975 139.888 576.975 140.944V148.024H581.391V140.104C581.391 137.296 579.279 135.304 576.687 135.304ZM589.747 144.832C588.571 144.832 587.659 144.064 587.299 142.888H596.083C596.083 138.112 593.731 135.304 589.747 135.304C585.907 135.304 583.195 137.968 583.195 141.76C583.195 145.576 585.979 148.288 589.939 148.288C591.835 148.288 593.947 147.496 595.051 146.368L592.507 143.8C591.691 144.448 590.683 144.832 589.747 144.832ZM589.747 138.76C590.755 138.76 591.547 139.432 591.883 140.464H587.371C587.779 139.432 588.643 138.76 589.747 138.76ZM602.871 148.288C606.231 148.288 608.271 146.656 608.271 144.088C608.271 141.16 605.679 140.416 603.423 139.912C602.175 139.624 601.623 139.552 601.623 139.144C601.623 138.784 602.055 138.448 602.703 138.448C603.879 138.448 605.295 139.096 606.327 139.768L607.887 136.936C606.471 136 604.623 135.304 602.703 135.304C599.463 135.304 597.519 137.176 597.519 139.576C597.519 142.504 600.039 143.056 602.295 143.536C603.447 143.776 604.167 144.016 604.167 144.448C604.167 144.856 603.855 145.072 602.991 145.072C601.671 145.072 599.895 144.448 598.695 143.608L596.967 146.416C598.479 147.592 600.711 148.288 602.871 148.288Z" fill="white"/>
<path fill-rule="evenodd" clip-rule="evenodd" d="M551.872 534.555C556.582 532.124 562.129 531.808 567.358 532.673C570.167 533.137 573.096 533.978 575.008 536.088C576.919 538.198 577.282 541.911 575.087 543.725C573.78 544.804 571.958 544.968 570.263 544.949C566.17 544.901 561.627 544.18 558.357 546.643C556.491 548.048 555.249 550.384 553.018 551.076C550.836 551.752 548.373 550.464 547.216 548.493C546.059 546.524 546.02 544.062 546.559 541.842C546.559 541.842 547.127 537.002 551.872 534.555Z" fill="#D61335"/>
<path fill-rule="evenodd" clip-rule="evenodd" d="M541.081 513.722C543.961 517.836 549.559 516.474 552.154 513.963C554.75 511.452 555.847 507.813 556.846 504.343C559.127 496.413 561.428 488.095 559.731 480.021C559.224 477.607 558.321 475.2 556.625 473.409C554.929 471.618 552.32 470.552 549.935 471.182C547.113 471.928 545.358 474.692 544.091 477.322C540.364 485.052 538.391 493.621 538.361 502.203C538.348 506.21 538.82 510.413 541.081 513.722Z" fill="#D61335"/>
<path fill-rule="evenodd" clip-rule="evenodd" d="M533.171 519.625C536.298 515.914 536.892 510.501 535.5 505.852C534.108 501.201 530.965 497.246 527.342 494.017C523.094 490.23 518.1 487.284 512.733 485.396C510.62 484.654 508.392 484.068 506.163 484.281C503.933 484.493 501.688 485.634 500.649 487.617C499.111 490.549 500.585 494.105 502.18 497.007C504.988 502.119 508.2 507.01 511.775 511.619C514.651 515.327 517.945 518.984 522.329 520.66C526.712 522.336 531.265 522.139 533.588 519.1" fill="#D61335"/>
<path fill-rule="evenodd" clip-rule="evenodd" d="M540.886 575.777C540.94 575.781 541.028 575.114 541.147 573.908C541.279 572.548 541.445 570.84 541.643 568.807C541.881 566.661 542.194 564.106 542.791 561.324C543.385 558.549 544.315 555.543 545.51 552.493C546.747 549.462 548.257 546.706 550.02 544.503C551.771 542.289 553.807 540.686 555.721 539.762C557.629 538.82 559.34 538.437 560.522 538.267C561.716 538.145 562.383 538.05 562.384 537.998C562.384 537.945 561.715 537.936 560.49 537.968C559.276 538.049 557.494 538.357 555.483 539.271C553.466 540.166 551.306 541.794 549.469 544.052C547.617 546.302 546.054 549.119 544.795 552.205C543.579 555.307 542.662 558.345 542.094 561.18C541.528 564.01 541.269 566.592 541.099 568.757C540.937 570.923 540.876 572.677 540.847 573.89C540.82 575.102 540.833 575.774 540.886 575.777Z" fill="#1A2E35"/>
<path fill-rule="evenodd" clip-rule="evenodd" d="M541.237 571.851C541.263 571.85 541.28 571.551 541.287 570.984C541.285 570.331 541.283 569.511 541.28 568.503C541.275 566.351 541.276 563.236 541.391 559.389C541.582 551.697 542.244 543.417 543.523 531.745C544.735 520.769 546.361 507.996 548.077 499.691C548.445 497.801 548.816 496.102 549.164 494.614C549.497 493.122 549.781 491.835 550.055 490.795C550.291 489.816 550.483 489.018 550.635 488.384C550.759 487.83 550.812 487.536 550.787 487.529C550.761 487.521 550.658 487.801 550.485 488.342C550.296 488.966 550.058 489.752 549.765 490.718C549.445 491.749 549.118 493.027 548.745 494.513C548.355 495.995 547.946 497.691 547.543 499.577C545.845 507.102 544.048 517.62 542.756 529.32C541.474 541.017 540.897 551.666 540.845 559.379C540.8 563.235 540.882 566.357 540.98 568.51C541.042 569.518 541.092 570.338 541.132 570.99C541.175 571.556 541.21 571.852 541.237 571.851Z" fill="#1A2E35"/>
<path fill-rule="evenodd" clip-rule="evenodd" d="M541.288 551.31C541.342 551.308 541.332 550.387 541.27 548.718C541.175 547.053 540.946 544.647 540.476 541.699C539.979 538.758 539.285 535.266 538.194 531.472C537.721 529.737 536.609 525.581 533.917 519.37C530.37 510.955 525.55 504.075 521.357 499.813C520.374 498.682 519.279 497.867 518.403 497.067C517.949 496.684 517.549 496.301 517.141 495.998C516.73 495.715 516.348 495.453 515.994 495.208C514.614 494.265 513.842 493.767 513.813 493.812C513.689 493.98 516.904 495.872 520.963 500.191C525.005 504.499 529.69 511.332 533.209 519.676C535.171 524.203 536.539 528.24 537.51 531.666C538.631 535.424 539.376 538.881 539.939 541.792C540.474 544.71 540.784 547.093 540.971 548.743C541.124 550.396 541.235 551.312 541.288 551.31Z" fill="#1A2E35"/>
<path fill-rule="evenodd" clip-rule="evenodd" d="M521.434 587.546L523.493 615.744H559.719L561.778 587.546H521.434Z" fill="#1A2E35"/>
<mask id="mask2" mask-type="alpha" maskUnits="userSpaceOnUse" x="500" y="471" width="77" height="153">
<path fill-rule="evenodd" clip-rule="evenodd" d="M500 623.169H576.592V471H500V623.169Z" fill="white"/>
</mask>
<g mask="url(#mask2)">
<path fill-rule="evenodd" clip-rule="evenodd" d="M517.935 587.546H566.1V576.431H517.935V587.546Z" fill="#1A2E35"/>
<path fill-rule="evenodd" clip-rule="evenodd" d="M517.935 614.665V617.746H520.198H565.304V614.665H517.935Z" fill="#375A64"/>
<path fill-rule="evenodd" clip-rule="evenodd" d="M522.416 623.169L520.198 617.746H563.579L560.99 623.169H522.416Z" fill="#375A64"/>
<path fill-rule="evenodd" clip-rule="evenodd" d="M561.105 596.762C561.113 596.769 561.056 596.857 560.936 597.021C560.793 597.211 560.614 597.448 560.395 597.739C559.88 598.398 559.173 599.302 558.284 600.44L558.19 600.56L558.1 600.434C556.773 598.6 555.001 596.149 552.915 593.263H553.213C551.671 595.447 549.953 597.879 548.109 600.491L547.949 600.718L547.77 600.504C545.886 598.263 543.84 595.829 541.716 593.302L542.065 593.297C541.96 593.43 541.846 593.573 541.732 593.716C539.854 596.07 538.037 598.348 536.319 600.502L536.138 600.728L535.972 600.492C534.134 597.893 532.417 595.463 530.864 593.267L531.162 593.281C528.645 596.149 526.51 598.58 524.872 600.447L524.76 600.575L524.675 600.431C523.846 599.038 523.185 597.927 522.706 597.122C522.5 596.763 522.333 596.473 522.2 596.241C522.089 596.039 522.037 595.933 522.046 595.927C522.056 595.921 522.127 596.016 522.257 596.206C522.404 596.429 522.588 596.708 522.816 597.054C523.319 597.845 524.013 598.935 524.883 600.303L524.687 600.286C526.299 598.398 528.399 595.936 530.876 593.033L531.032 592.85L531.173 593.047C532.739 595.234 534.472 597.653 536.326 600.241L535.979 600.232C537.693 598.074 539.506 595.792 541.379 593.435C541.493 593.291 541.607 593.149 541.712 593.017L541.884 592.8L542.062 593.012C544.18 595.544 546.22 597.984 548.098 600.229L547.759 600.242C549.622 597.644 551.357 595.224 552.915 593.051L553.066 592.84L553.213 593.051C555.255 595.968 556.99 598.445 558.289 600.299L558.105 600.294C559.029 599.185 559.764 598.304 560.3 597.662C560.538 597.386 560.731 597.162 560.887 596.982C561.023 596.83 561.097 596.755 561.105 596.762Z" fill="#E1E1E1"/>
<path fill-rule="evenodd" clip-rule="evenodd" d="M562.281 587.359C562.281 587.483 553.204 587.585 542.009 587.585C530.81 587.585 521.735 587.483 521.735 587.359C521.735 587.234 530.81 587.133 542.009 587.133C553.204 587.133 562.281 587.234 562.281 587.359Z" fill="#375A64"/>
<path fill-rule="evenodd" clip-rule="evenodd" d="M564.112 618.05C564.112 618.175 554.247 618.276 542.08 618.276C529.91 618.276 520.047 618.175 520.047 618.05C520.047 617.926 529.91 617.825 542.08 617.825C554.247 617.825 564.112 617.926 564.112 618.05Z" fill="#1A2E35"/>
</g>
<path fill-rule="evenodd" clip-rule="evenodd" d="M603 624.501C603 624.575 468.004 624.635 301.515 624.635C134.967 624.635 0 624.575 0 624.501C0 624.427 134.967 624.366 301.515 624.366C468.004 624.366 603 624.427 603 624.501Z" fill="#1A2E35"/>
<circle cx="292" cy="223" r="5" fill="#D61335"/>
<circle cx="292" cy="320" r="5" fill="#D61335"/>
</svg>
