<svg width="683" height="625" viewBox="0 0 683 625" fill="none" xmlns="http://www.w3.org/2000/svg">
<circle opacity="0.0770322" cx="301.5" cy="301.5" r="301.5" fill="#E13856"/>
<rect x="257" y="113" width="426" height="320" rx="8" fill="#E2F5FF"/>
<path d="M257 121C257 116.582 260.582 113 265 113H675C679.418 113 683 116.582 683 121V179H257V121Z" fill="#11A9FF"/>
<path d="M375.15 252.36C378.09 252.36 380.79 251.1 382.74 249.12L380.61 247.08C379.23 248.58 377.28 249.57 375.15 249.57C371.04 249.57 367.56 245.97 367.56 241.68C367.56 237.42 371.04 233.82 375.15 233.82C377.28 233.82 379.23 234.81 380.61 236.31L382.74 234.27C380.79 232.26 378.09 231.03 375.15 231.03C369.36 231.03 364.44 235.89 364.44 241.68C364.44 247.47 369.36 252.36 375.15 252.36ZM385.817 252H388.847V231.39H385.817V252ZM403.275 252.36C406.215 252.36 408.915 251.1 410.865 249.12L408.735 247.08C407.355 248.58 405.405 249.57 403.275 249.57C399.165 249.57 395.685 245.97 395.685 241.68C395.685 237.42 399.165 233.82 403.275 233.82C405.405 233.82 407.355 234.81 408.735 236.31L410.865 234.27C408.915 232.26 406.215 231.03 403.275 231.03C397.485 231.03 392.565 235.89 392.565 241.68C392.565 247.47 397.485 252.36 403.275 252.36ZM422.912 252.36C428.072 252.36 431.762 248.61 431.762 243.33V231.39H428.702V243.27C428.702 246.96 426.302 249.6 422.912 249.6C419.492 249.6 417.092 246.96 417.092 243.27V231.39H414.062V243.33C414.062 248.61 417.722 252.36 422.912 252.36ZM444.277 245.13H458.407V242.49H444.277V245.13ZM477.527 252.36C481.997 252.36 485.147 249.63 485.147 245.46C485.147 241.35 482.027 239.01 478.337 239.01C476.507 239.01 475.127 239.61 474.047 240.33L474.227 234.21H484.037V231.39H471.347L471.047 242.16L473.177 243.12C474.407 242.19 475.877 241.62 477.587 241.62C480.257 241.62 482.087 243.21 482.087 245.58C482.087 247.89 480.287 249.69 477.617 249.69C475.427 249.69 473.507 248.61 471.917 246.96L470.027 249.12C471.797 251.04 474.257 252.36 477.527 252.36ZM496.141 249.21C495.811 249.54 495.211 249.78 494.551 249.78C493.681 249.78 492.961 249 492.961 247.92V239.01H496.621V236.49H492.961V232.23H490.051V236.49H487.711V239.01H490.051V248.13C490.051 250.62 491.731 252.36 494.131 252.36C495.241 252.36 496.381 251.94 497.221 251.25L496.141 249.21ZM508.138 236.13C506.008 236.13 504.118 237.24 503.188 238.8V231.03H500.248V252H503.188V242.37C503.188 240.36 505.138 238.71 507.478 238.71C509.578 238.71 511.048 240.33 511.048 242.64V252H513.958V242.13C513.958 238.62 511.558 236.13 508.138 236.13ZM542.031 234.21V231.39H526.881V252H529.941V243.03H540.861V240.21H529.941V234.21H542.031ZM545.306 252H548.246V231.03H545.306V252ZM559.922 252.36C564.332 252.36 568.052 248.64 568.052 244.23C568.052 239.82 564.332 236.13 559.922 236.13C555.482 236.13 551.732 239.82 551.732 244.23C551.732 248.64 555.482 252.36 559.922 252.36ZM559.922 249.78C557.072 249.78 554.702 247.26 554.702 244.23C554.702 241.23 557.072 238.71 559.922 238.71C562.712 238.71 565.082 241.23 565.082 244.23C565.082 247.26 562.712 249.78 559.922 249.78ZM578.877 252.36C583.287 252.36 587.007 248.64 587.007 244.23C587.007 239.82 583.287 236.13 578.877 236.13C574.437 236.13 570.687 239.82 570.687 244.23C570.687 248.64 574.437 252.36 578.877 252.36ZM578.877 249.78C576.027 249.78 573.657 247.26 573.657 244.23C573.657 241.23 576.027 238.71 578.877 238.71C581.667 238.71 584.037 241.23 584.037 244.23C584.037 247.26 581.667 249.78 578.877 249.78ZM593.602 239.46V236.49H590.632V252H593.602V243.18C593.872 240.48 596.152 238.71 599.362 238.71V236.13C596.692 236.13 594.592 237.42 593.602 239.46Z" fill="#333333"/>
<path d="M371.16 319.1L372.72 317.45C369.48 314.18 367.8 310.76 367.8 306.05C367.8 301.31 369.48 297.92 372.72 294.62L371.16 293C367.08 296.27 364.74 300.8 364.74 306.05C364.74 311.27 367.08 315.83 371.16 319.1ZM384.426 314.36C389.556 314.36 393.216 309.95 393.216 303.68C393.216 297.44 389.556 293.03 384.426 293.03C379.236 293.03 375.606 297.44 375.606 303.68C375.606 309.95 379.236 314.36 384.426 314.36ZM384.426 311.57C381.066 311.57 378.696 308.3 378.696 303.68C378.696 299.06 381.066 295.82 384.426 295.82C387.756 295.82 390.096 299.06 390.096 303.68C390.096 308.3 387.756 311.57 384.426 311.57ZM396.256 314H410.926V311.18H401.056L405.886 307.1C409.426 304.22 410.746 302.03 410.746 299.27C410.746 295.52 407.686 293.03 403.846 293.03C400.576 293.03 398.146 294.53 396.346 297.02L398.386 298.82C399.826 296.96 401.476 295.76 403.726 295.76C405.766 295.76 407.626 297.08 407.626 299.33C407.626 301.19 406.576 302.96 403.816 305.27L396.256 311.51V314ZM418.207 314H421.267V293.39H418.807L413.377 297.08L414.637 299.27L418.207 296.99V314ZM426.758 319.1C430.838 315.83 433.178 311.27 433.178 306.05C433.178 300.8 430.838 296.27 426.758 293L425.198 294.62C428.408 297.92 430.118 301.31 430.118 306.05C430.118 310.76 428.408 314.18 425.198 317.45L426.758 319.1ZM455.118 314H458.148V309.26H461.118V306.59H458.148V293.39H454.548L444.558 306.83L444.888 309.26H455.118V314ZM447.888 306.59L455.118 296.84V306.59H447.888ZM463.844 314H478.514V311.18H468.644L473.474 307.1C477.014 304.22 478.334 302.03 478.334 299.27C478.334 295.52 475.274 293.03 471.434 293.03C468.164 293.03 465.734 294.53 463.934 297.02L465.974 298.82C467.414 296.96 469.064 295.76 471.314 295.76C473.354 295.76 475.214 297.08 475.214 299.33C475.214 301.19 474.164 302.96 471.404 305.27L463.844 311.51V314ZM489.125 314.36C493.595 314.36 496.565 311.84 496.565 308.36C496.565 305.48 494.315 303.92 492.155 303.44C494.315 302.78 496.115 301.19 496.115 298.64C496.115 295.34 493.205 293.03 489.035 293.03C485.675 293.03 483.335 294.59 481.745 296.66L483.635 298.52C485.075 296.84 486.665 295.76 488.825 295.76C491.225 295.76 493.025 297.14 493.025 299.06C493.025 301.13 491.195 302.27 488.585 302.27L486.335 302.24V304.94H488.585C491.675 304.91 493.445 306.02 493.445 308.15C493.445 310.22 491.735 311.63 489.065 311.63C486.695 311.63 484.685 310.52 483.305 308.84L481.355 310.85C482.945 312.83 485.615 314.36 489.125 314.36ZM518.282 314H521.312V309.26H524.282V306.59H521.312V293.39H517.712L507.722 306.83L508.052 309.26H518.282V314ZM511.052 306.59L518.282 296.84V306.59H511.052ZM536.038 314.36C541.168 314.36 544.828 309.95 544.828 303.68C544.828 297.44 541.168 293.03 536.038 293.03C530.848 293.03 527.218 297.44 527.218 303.68C527.218 309.95 530.848 314.36 536.038 314.36ZM536.038 311.57C532.678 311.57 530.308 308.3 530.308 303.68C530.308 299.06 532.678 295.82 536.038 295.82C539.368 295.82 541.708 299.06 541.708 303.68C541.708 308.3 539.368 311.57 536.038 311.57ZM555.637 314.36C559.957 314.36 563.407 312.14 563.407 308.57C563.407 306.05 561.517 304.22 559.057 303.35C561.157 302.54 562.897 301.01 562.897 298.55C562.897 295.13 559.477 293.03 555.637 293.03C551.917 293.03 548.407 295.04 548.407 298.55C548.407 300.89 549.997 302.45 552.247 303.35C549.787 304.19 547.867 306.02 547.867 308.57C547.867 312.11 551.287 314.36 555.637 314.36ZM555.637 302.21C553.807 302.09 551.437 301.01 551.437 298.88C551.437 297.05 553.267 295.7 555.637 295.7C558.007 295.7 559.867 297.05 559.867 298.88C559.867 300.95 557.527 302.09 555.637 302.21ZM555.637 311.69C552.997 311.69 550.927 310.31 550.927 308.3C550.927 306.11 553.627 304.79 555.637 304.73C557.677 304.79 560.347 306.11 560.347 308.3C560.347 310.31 558.277 311.69 555.637 311.69ZM570.316 314H573.376V293.39H570.916L565.486 297.08L566.746 299.27L570.316 296.99V314Z" fill="#333333"/>
<path d="M470.144 350.36C474.554 350.36 478.274 346.64 478.274 342.23C478.274 337.82 474.554 334.13 470.144 334.13C465.704 334.13 461.954 337.82 461.954 342.23C461.954 346.64 465.704 350.36 470.144 350.36ZM470.144 347.78C467.294 347.78 464.924 345.26 464.924 342.23C464.924 339.23 467.294 336.71 470.144 336.71C472.934 336.71 475.304 339.23 475.304 342.23C475.304 345.26 472.934 347.78 470.144 347.78ZM484.869 337.46V334.49H481.899V350H484.869V341.18C485.139 338.48 487.419 336.71 490.629 336.71V334.13C487.959 334.13 485.859 335.42 484.869 337.46Z" fill="#333333"/>
<path d="M371.16 397.1L372.72 395.45C369.48 392.18 367.8 388.76 367.8 384.05C367.8 379.31 369.48 375.92 372.72 372.62L371.16 371C367.08 374.27 364.74 378.8 364.74 384.05C364.74 389.27 367.08 393.83 371.16 397.1ZM384.426 392.36C389.556 392.36 393.216 387.95 393.216 381.68C393.216 375.44 389.556 371.03 384.426 371.03C379.236 371.03 375.606 375.44 375.606 381.68C375.606 387.95 379.236 392.36 384.426 392.36ZM384.426 389.57C381.066 389.57 378.696 386.3 378.696 381.68C378.696 377.06 381.066 373.82 384.426 373.82C387.756 373.82 390.096 377.06 390.096 381.68C390.096 386.3 387.756 389.57 384.426 389.57ZM396.256 392H410.926V389.18H401.056L405.886 385.1C409.426 382.22 410.746 380.03 410.746 377.27C410.746 373.52 407.686 371.03 403.846 371.03C400.576 371.03 398.146 372.53 396.346 375.02L398.386 376.82C399.826 374.96 401.476 373.76 403.726 373.76C405.766 373.76 407.626 375.08 407.626 377.33C407.626 379.19 406.576 380.96 403.816 383.27L396.256 389.51V392ZM418.207 392H421.267V371.39H418.807L413.377 375.08L414.637 377.27L418.207 374.99V392ZM426.758 397.1C430.838 393.83 433.178 389.27 433.178 384.05C433.178 378.8 430.838 374.27 426.758 371L425.198 372.62C428.408 375.92 430.118 379.31 430.118 384.05C430.118 388.76 428.408 392.18 425.198 395.45L426.758 397.1ZM455.118 392H458.148V387.26H461.118V384.59H458.148V371.39H454.548L444.558 384.83L444.888 387.26H455.118V392ZM447.888 384.59L455.118 374.84V384.59H447.888ZM463.844 392H478.514V389.18H468.644L473.474 385.1C477.014 382.22 478.334 380.03 478.334 377.27C478.334 373.52 475.274 371.03 471.434 371.03C468.164 371.03 465.734 372.53 463.934 375.02L465.974 376.82C467.414 374.96 469.064 373.76 471.314 373.76C473.354 373.76 475.214 375.08 475.214 377.33C475.214 379.19 474.164 380.96 471.404 383.27L463.844 389.51V392ZM489.125 392.36C493.595 392.36 496.565 389.84 496.565 386.36C496.565 383.48 494.315 381.92 492.155 381.44C494.315 380.78 496.115 379.19 496.115 376.64C496.115 373.34 493.205 371.03 489.035 371.03C485.675 371.03 483.335 372.59 481.745 374.66L483.635 376.52C485.075 374.84 486.665 373.76 488.825 373.76C491.225 373.76 493.025 375.14 493.025 377.06C493.025 379.13 491.195 380.27 488.585 380.27L486.335 380.24V382.94H488.585C491.675 382.91 493.445 384.02 493.445 386.15C493.445 388.22 491.735 389.63 489.065 389.63C486.695 389.63 484.685 388.52 483.305 386.84L481.355 388.85C482.945 390.83 485.615 392.36 489.125 392.36ZM518.282 392H521.312V387.26H524.282V384.59H521.312V371.39H517.712L507.722 384.83L508.052 387.26H518.282V392ZM511.052 384.59L518.282 374.84V384.59H511.052ZM536.038 392.36C541.168 392.36 544.828 387.95 544.828 381.68C544.828 375.44 541.168 371.03 536.038 371.03C530.848 371.03 527.218 375.44 527.218 381.68C527.218 387.95 530.848 392.36 536.038 392.36ZM536.038 389.57C532.678 389.57 530.308 386.3 530.308 381.68C530.308 377.06 532.678 373.82 536.038 373.82C539.368 373.82 541.708 377.06 541.708 381.68C541.708 386.3 539.368 389.57 536.038 389.57ZM555.637 392.36C559.957 392.36 563.407 390.14 563.407 386.57C563.407 384.05 561.517 382.22 559.057 381.35C561.157 380.54 562.897 379.01 562.897 376.55C562.897 373.13 559.477 371.03 555.637 371.03C551.917 371.03 548.407 373.04 548.407 376.55C548.407 378.89 549.997 380.45 552.247 381.35C549.787 382.19 547.867 384.02 547.867 386.57C547.867 390.11 551.287 392.36 555.637 392.36ZM555.637 380.21C553.807 380.09 551.437 379.01 551.437 376.88C551.437 375.05 553.267 373.7 555.637 373.7C558.007 373.7 559.867 375.05 559.867 376.88C559.867 378.95 557.527 380.09 555.637 380.21ZM555.637 389.69C552.997 389.69 550.927 388.31 550.927 386.3C550.927 384.11 553.627 382.79 555.637 382.73C557.677 382.79 560.347 384.11 560.347 386.3C560.347 388.31 558.277 389.69 555.637 389.69ZM573.646 392.36C578.116 392.36 581.086 389.84 581.086 386.36C581.086 383.48 578.836 381.92 576.676 381.44C578.836 380.78 580.636 379.19 580.636 376.64C580.636 373.34 577.726 371.03 573.556 371.03C570.196 371.03 567.856 372.59 566.266 374.66L568.156 376.52C569.596 374.84 571.186 373.76 573.346 373.76C575.746 373.76 577.546 375.14 577.546 377.06C577.546 379.13 575.716 380.27 573.106 380.27L570.856 380.24V382.94H573.106C576.196 382.91 577.966 384.02 577.966 386.15C577.966 388.22 576.256 389.63 573.586 389.63C571.216 389.63 569.206 388.52 567.826 386.84L565.876 388.85C567.466 390.83 570.136 392.36 573.646 392.36Z" fill="#333333"/>
<path fill-rule="evenodd" clip-rule="evenodd" d="M259.489 128.456C266.118 120.302 271.579 114.464 271.579 114.464L259.64 106.932L251.09 117.401L259.489 128.456Z" fill="#B45B52"/>
<path fill-rule="evenodd" clip-rule="evenodd" d="M172.958 105.612C173.09 105.951 173.41 106.685 173.655 107.25L174.483 109.133C175.143 110.432 175.745 111.675 176.367 112.899C177.584 115.385 178.884 117.834 180.265 120.244C182.942 124.96 185.943 129.483 189.248 133.784C192.268 137.776 195.737 141.41 199.586 144.612C201.262 145.962 203.051 147.165 204.934 148.209L206.252 148.868L207.514 149.414C207.947 149.583 208.342 149.677 208.757 149.846L209.077 149.941C209.228 149.941 209.077 149.941 209.077 149.941H208.889C208.531 150.035 209.736 150.053 211.355 149.432C213.328 148.658 215.22 147.693 217.005 146.551C221.491 143.685 225.719 140.434 229.641 136.835C233.802 133.087 237.851 129.001 241.806 124.763C243.802 122.635 245.704 120.413 247.568 118.248C249.433 116.082 251.372 113.728 252.992 111.675L273.819 127.833C271.672 130.563 269.695 132.918 267.624 135.365C265.552 137.813 263.424 140.186 261.277 142.578C256.984 147.323 252.502 151.974 247.662 156.475C242.679 161.224 237.306 165.546 231.599 169.393C228.301 171.588 224.794 173.448 221.129 174.949C218.931 175.833 216.655 176.508 214.331 176.964C211.495 177.546 208.587 177.698 205.706 177.416C204.915 177.322 204.105 177.209 203.277 177.039L202.147 176.795L201.356 176.568C200.301 176.267 199.228 176.004 198.23 175.645L195.236 174.535L192.392 173.273C188.85 171.534 185.472 169.479 182.299 167.134C176.563 162.759 171.322 157.77 166.668 152.258C162.278 147.092 158.239 141.637 154.579 135.93C152.758 133.143 151.02 130.306 149.363 127.419C148.515 125.968 147.724 124.5 146.915 123.012L145.728 120.753C145.314 119.942 144.975 119.302 144.485 118.248L172.958 105.612Z" fill="#00A3FF"/>
<path fill-rule="evenodd" clip-rule="evenodd" d="M172.958 105.612C173.09 105.951 173.41 106.685 173.655 107.25L174.483 109.133C175.143 110.432 175.745 111.675 176.367 112.899C177.584 115.385 178.884 117.834 180.265 120.244C182.942 124.96 185.943 129.483 189.248 133.784C192.268 137.776 195.737 141.41 199.586 144.612C201.262 145.962 203.051 147.165 204.934 148.209L206.252 148.868L207.514 149.414C207.947 149.583 208.342 149.677 208.757 149.846L209.077 149.941C209.228 149.941 209.077 149.941 209.077 149.941H208.889C208.531 150.035 209.736 150.053 211.355 149.432C213.328 148.658 215.22 147.693 217.005 146.551C221.491 143.685 225.719 140.434 229.641 136.835C233.802 133.087 237.851 129.001 241.806 124.763C243.802 122.635 245.704 120.413 247.568 118.248C249.433 116.082 251.372 113.728 252.992 111.675L273.819 127.833C271.672 130.563 269.695 132.918 267.624 135.365C265.552 137.813 263.424 140.186 261.277 142.578C256.984 147.323 252.502 151.974 247.662 156.475C242.679 161.224 237.306 165.546 231.599 169.393C228.301 171.588 224.794 173.448 221.129 174.949C218.931 175.833 216.655 176.508 214.331 176.964C211.495 177.546 208.587 177.698 205.706 177.416C204.915 177.322 204.105 177.209 203.277 177.039L202.147 176.795L201.356 176.568C200.301 176.267 199.228 176.004 198.23 175.645L195.236 174.535L192.392 173.273C188.85 171.534 185.472 169.479 182.299 167.134C176.563 162.759 171.322 157.77 166.668 152.258C162.278 147.092 158.239 141.637 154.579 135.93C152.758 133.143 151.02 130.306 149.363 127.419C148.515 125.968 147.724 124.5 146.915 123.012L145.728 120.753C145.314 119.942 144.975 119.302 144.485 118.248L172.958 105.612Z" fill="#00A3FF"/>
<path fill-rule="evenodd" clip-rule="evenodd" d="M140.701 304.001H110.929L87.8789 419.211H148.667L140.701 304.001Z" fill="#00A3FF"/>
<path fill-rule="evenodd" clip-rule="evenodd" d="M140.701 304.001H110.929L87.8789 419.211H148.667L140.701 304.001Z" fill="white"/>
<path fill-rule="evenodd" clip-rule="evenodd" d="M136.294 572.969H151.793L151.133 608.843H135.635L136.294 572.969Z" fill="#B45B52"/>
<path fill-rule="evenodd" clip-rule="evenodd" d="M56.7313 572.969H72.2303L65.3183 608.843H49.8203L56.7313 572.969Z" fill="#B45B52"/>
<mask id="mask0" mask-type="alpha" maskUnits="userSpaceOnUse" x="45" y="607" width="46" height="18">
<path fill-rule="evenodd" clip-rule="evenodd" d="M45 607.054H90.9445V624.661H45V607.054Z" fill="white"/>
</mask>
<g mask="url(#mask0)">
<path fill-rule="evenodd" clip-rule="evenodd" d="M68.9915 607.995C72.8895 611.441 77.4845 615.038 89.4795 617.656C92.1545 618.239 91.4575 624.661 84.9605 624.661C78.4635 624.661 68.7465 624.172 64.0385 624.172C56.3745 624.172 53.4365 624.529 47.3735 624.623C47.2215 624.626 47.0705 624.613 46.9215 624.587C45.6525 624.357 44.8085 623.143 45.0375 621.874L47.7495 608.108C47.8755 607.492 48.4195 607.05 49.0495 607.054H66.3735C67.3315 607.042 68.2615 607.376 68.9915 607.995Z" fill="#FF1849"/>
</g>
<path fill-rule="evenodd" clip-rule="evenodd" d="M154.73 608.203C165.351 614.682 168.232 614.964 180.416 617.619C183.09 618.203 181.489 624.624 175.125 624.624C164.616 624.624 163.882 624.135 154.918 624.135C147.235 624.135 138.422 624.492 132.321 624.605C132.174 624.605 132.028 624.592 131.885 624.565C130.617 624.326 129.784 623.104 130.023 621.838L132.754 608.109C132.872 607.496 133.41 607.053 134.034 607.055H150.982C152.313 607.089 153.609 607.486 154.73 608.203Z" fill="#FF1849"/>
<path fill-rule="evenodd" clip-rule="evenodd" d="M258.51 110.037L258.341 114.237C264.366 116.633 270.944 117.286 277.322 116.12L275.439 103.202L265.421 103.352C261.706 103.389 258.67 106.326 258.51 110.037Z" fill="#B45B52"/>
<mask id="mask1" mask-type="alpha" maskUnits="userSpaceOnUse" x="275" y="103" width="17" height="14">
<path fill-rule="evenodd" clip-rule="evenodd" d="M275.439 103.202H291.107V116.12H275.439V103.202Z" fill="white"/>
</mask>
<g mask="url(#mask1)">
<path fill-rule="evenodd" clip-rule="evenodd" d="M275.439 103.202L277.36 116.12L289.167 111.958L291.107 103.805L275.439 103.202Z" fill="#B45B52"/>
</g>
<path fill-rule="evenodd" clip-rule="evenodd" d="M136.294 572.988L135.955 591.48H151.453L151.793 572.988H136.294Z" fill="black"/>
<path fill-rule="evenodd" clip-rule="evenodd" d="M53.1533 591.481H68.6523L72.2303 572.989H56.7313L53.1533 591.481Z" fill="black"/>
<path fill-rule="evenodd" clip-rule="evenodd" d="M159.551 97.9855C154.785 96.6755 149.915 95.7815 144.994 95.3115C133.459 94.2375 121.869 93.8595 110.288 94.1815C106.917 94.3505 103.509 94.6525 100.289 95.0095C99.9481 95.0485 99.6091 95.0975 99.2721 95.1585C90.3221 96.7445 84.3521 105.287 85.9391 114.237C95.2601 168.603 89.9881 220.822 90.7981 232.366H173.655C182.073 166.475 174.371 125.046 170.078 108.625C168.731 103.447 164.714 99.3865 159.551 97.9855Z" fill="white"/>
<path fill-rule="evenodd" clip-rule="evenodd" d="M135.183 66.7261C133.187 75.5391 132.923 91.1691 145.634 94.1821C145.634 94.1821 155.464 105.669 136.219 105.669C115.165 105.669 110.326 94.1821 110.326 94.1821C118.046 86.6121 116.597 72.5441 114.092 61.2461L135.183 66.7261Z" fill="#B45B52"/>
<path fill-rule="evenodd" clip-rule="evenodd" d="M136.961 103.883C136.393 103.428 135.563 103.519 135.108 104.087L130.362 109.491C129.998 109.97 129.998 110.633 130.362 111.112L133.3 115.423C133.563 115.818 134.013 116.046 134.486 116.027L139.401 115.781C139.938 115.76 140.403 115.406 140.569 114.897L142.019 110.452C142.173 109.994 142.065 109.488 141.736 109.134L137.179 104.106C137.115 104.024 137.042 103.948 136.961 103.883Z" fill="#FF1849"/>
<path fill-rule="evenodd" clip-rule="evenodd" d="M135.504 115.743C135.9 125.573 134.826 162.916 135.712 180.429C136.596 197.942 141.775 207.734 141.775 207.734C144.498 199.026 145.932 189.967 146.031 180.844C145.861 171.182 138.329 115.743 138.329 115.743H135.504Z" fill="#FF1849"/>
<path fill-rule="evenodd" clip-rule="evenodd" d="M114.092 61.2451C114.525 63.1471 114.902 65.1051 115.241 67.1211C117.35 74.7471 119.572 78.3251 125.316 81.9781C127.896 83.6171 134.11 86.0091 135.616 85.3491C133.319 79.3981 133.884 71.9041 135.07 66.7441L114.092 61.2451Z" fill="black"/>
<path fill-rule="evenodd" clip-rule="evenodd" d="M155.317 53.3303C155.527 49.6023 152.676 46.4103 148.949 46.1993C143.977 46.0673 140.719 52.2813 140.061 56.5943C139.307 61.3963 142.339 65.5013 147.028 63.6183C150.552 62.1313 153.329 59.2873 154.73 55.7273C155.071 54.9723 155.27 54.1593 155.317 53.3303Z" fill="#B45B52"/>
<path fill-rule="evenodd" clip-rule="evenodd" d="M155.317 53.3303C155.527 49.6023 152.676 46.4103 148.949 46.1993C143.977 46.0673 140.719 52.2813 140.061 56.5943C139.307 61.3963 142.339 65.5013 147.028 63.6183C150.552 62.1313 153.329 59.2873 154.73 55.7273C155.071 54.9723 155.27 54.1593 155.317 53.3303Z" fill="black"/>
<path fill-rule="evenodd" clip-rule="evenodd" d="M141.679 25.6914C145.897 25.1274 150.021 30.0604 150.926 36.7084C151.829 43.3554 149.137 49.1934 144.918 49.7584C140.7 50.3234 136.557 45.3894 135.672 38.7604C134.73 32.1134 137.461 26.2564 141.679 25.6914Z" fill="#1A2E35"/>
<path fill-rule="evenodd" clip-rule="evenodd" d="M106.439 36.3988C108.992 25.3638 120.006 18.4888 131.041 21.0408C146.859 24.6188 153.168 46.8398 152.508 61.0388C151.793 76.8198 134.562 86.9138 120.966 77.1018C111.908 70.5868 110.439 61.6228 106.673 46.5568C105.744 43.2448 105.664 39.7508 106.439 36.3988Z" fill="#B45B52"/>
<path fill-rule="evenodd" clip-rule="evenodd" d="M97.1257 31.3607C86.8057 38.4407 102.286 63.4677 107.521 64.8047C109.162 67.7727 111.846 70.0277 115.053 71.1317C115.053 71.1317 108.82 57.9877 111.739 59.4377C120.496 51.6607 114.093 36.5947 114.093 36.5947C114.093 36.5947 133.47 35.7667 142.076 30.3997C150.682 25.0337 140.702 17.6707 131.681 15.7867C119.573 13.1697 99.0837 16.7657 97.1257 31.3607Z" fill="#1A2E35"/>
<path fill-rule="evenodd" clip-rule="evenodd" d="M109.46 55.3889C109.354 55.1449 109.462 54.8599 109.705 54.7489L123.282 48.5349C123.321 48.5099 123.364 48.4909 123.409 48.4779C123.668 48.4039 123.939 48.5539 124.014 48.8149C124.088 49.0749 123.938 49.3449 123.678 49.4189L110.119 55.6339H109.912C109.727 55.6449 109.552 55.5499 109.46 55.3889Z" fill="white"/>
<path fill-rule="evenodd" clip-rule="evenodd" d="M104.996 53.6C109.591 51.849 114.92 56.669 117.123 60.436C119.572 64.692 118.253 69.57 113.15 69.306C109.272 69.063 105.642 67.313 103.038 64.428C99.8934 60.87 100.401 55.352 104.996 53.6Z" fill="#B45B52"/>
<path fill-rule="evenodd" clip-rule="evenodd" d="M119.177 232.366C119.177 232.366 128.329 346.559 130.89 399.175C133.244 447.42 130.89 587.884 130.89 587.884H157.122C157.122 587.884 177.554 444.557 178.1 395.427C178.628 348.179 173.656 232.366 173.656 232.366H119.177Z" fill="#1A2E35"/>
<path fill-rule="evenodd" clip-rule="evenodd" d="M161.152 575.248L159.42 588.43H129.176C129.176 588.43 129.534 576.302 129.666 576.302L161.152 575.248Z" fill="#1A2E35"/>
<path fill-rule="evenodd" clip-rule="evenodd" d="M123.602 289.764C125.881 319.876 128.461 356.126 130.042 383.544C136.464 355.41 139.063 320.497 138.159 263.024L123.602 289.764Z" fill="black"/>
<path fill-rule="evenodd" clip-rule="evenodd" d="M90.8352 232.442C90.8352 232.442 79.9512 347.388 74.6972 399.57C69.8382 447.59 47.4482 587.884 47.4482 587.884H75.8272C75.8272 587.884 111.606 443.655 121.022 395.088C129.571 350.741 144.26 232.367 144.26 232.367L90.8352 232.442Z" fill="#1A2E35"/>
<path fill-rule="evenodd" clip-rule="evenodd" d="M80.6286 575.775L77.2016 588.429H46.0166C46.0166 588.429 47.9936 576.942 48.1256 576.942L80.6286 575.775Z" fill="#1A2E35"/>
<path fill-rule="evenodd" clip-rule="evenodd" d="M131.266 44.4671C132.076 44.3351 132.923 45.2201 133.149 46.4631C133.375 47.7061 132.923 48.8171 132.113 48.9481C131.304 49.0801 130.475 48.1961 130.23 46.9521C130.023 45.7101 130.456 44.5991 131.266 44.4671Z" fill="#1A2E35"/>
<path fill-rule="evenodd" clip-rule="evenodd" d="M146.463 40.889C147.273 40.757 148.12 41.642 148.346 42.885C148.572 44.128 148.12 45.24 147.311 45.37C146.501 45.502 145.653 44.618 145.427 43.374C145.201 42.132 145.653 41.021 146.463 40.889Z" fill="#1A2E35"/>
<path fill-rule="evenodd" clip-rule="evenodd" d="M142.678 57.8374C144.782 57.7664 146.744 56.7574 148.026 55.0884C144.68 52.6304 141.678 49.7364 139.1 46.4824L142.678 57.8374Z" fill="#9F2724"/>
<path fill-rule="evenodd" clip-rule="evenodd" d="M129.778 58.967C129.643 58.821 129.652 58.594 129.797 58.458C129.943 58.323 130.17 58.332 130.305 58.478C132.625 60.612 135.812 61.531 138.911 60.963C139.113 60.929 139.306 61.063 139.344 61.265C139.38 61.461 139.256 61.651 139.062 61.697C135.708 62.335 132.253 61.319 129.778 58.967Z" fill="#1A2E35"/>
<path fill-rule="evenodd" clip-rule="evenodd" d="M122.34 42.8855C121.965 42.7295 121.776 42.3095 121.906 41.9255C122.694 39.7115 124.54 38.0415 126.821 37.4815C127.22 37.4105 127.603 37.6685 127.688 38.0655C127.769 38.4595 127.517 38.8465 127.123 38.9315C125.365 39.4375 123.962 40.7645 123.357 42.4895C123.276 42.7065 123.092 42.8685 122.867 42.9235C122.693 42.9745 122.505 42.9615 122.34 42.8855Z" fill="#1A2E35"/>
<path fill-rule="evenodd" clip-rule="evenodd" d="M148.478 37.1984C147.34 35.7024 145.555 34.8414 143.676 34.8824H143.668C143.265 34.9224 142.905 34.6264 142.866 34.2224C142.866 34.2194 142.865 34.2144 142.865 34.2104C142.816 33.8174 143.095 33.4614 143.488 33.4134C145.862 33.3434 148.13 34.3964 149.608 36.2564C149.883 36.5474 149.883 37.0014 149.608 37.2924C149.53 37.3674 149.432 37.4204 149.325 37.4424C149.02 37.5464 148.682 37.4484 148.478 37.1984Z" fill="#1A2E35"/>
<path fill-rule="evenodd" clip-rule="evenodd" d="M128.838 40.2289C127.302 40.5139 125.945 41.4019 125.072 42.6959C123.925 44.4259 123.506 46.5359 123.904 48.5719C124.329 52.3249 127.674 55.0529 131.436 54.7109C132.971 54.4239 134.326 53.5349 135.203 52.2439C136.343 50.5129 136.755 48.4019 136.351 46.3689C135.912 42.9929 133.156 40.3949 129.761 40.1539C129.451 40.1529 129.142 40.1789 128.838 40.2289ZM122.943 48.7409C122.499 46.4569 122.973 44.0889 124.262 42.1499C125.28 40.6499 126.85 39.6139 128.631 39.2699C132.926 38.8379 136.781 41.9139 137.312 46.1989C137.765 48.4839 137.29 50.8549 135.994 52.7899C134.98 54.2949 133.407 55.3319 131.625 55.6709C131.257 55.7299 130.886 55.7619 130.514 55.7659C126.64 55.5239 123.474 52.5859 122.943 48.7409Z" fill="white"/>
<path fill-rule="evenodd" clip-rule="evenodd" d="M136.577 46.6891C136.576 46.6891 136.575 46.6881 136.575 46.6881C136.347 46.5421 136.28 46.2391 136.426 46.0111C137.34 44.3581 139.316 43.6091 141.097 44.2421C141.339 44.3521 141.448 44.6371 141.341 44.8811C141.23 45.1241 140.951 45.2391 140.701 45.1451C139.355 44.6731 137.869 45.2801 137.236 46.5571C137.145 46.6861 136.998 46.7631 136.841 46.7641C136.747 46.7691 136.654 46.7431 136.577 46.6891Z" fill="white"/>
<path fill-rule="evenodd" clip-rule="evenodd" d="M146.294 36.2559C144.762 36.5479 143.407 37.4349 142.528 38.7229C141.376 40.4489 140.956 42.5629 141.36 44.5989C141.785 48.3529 145.13 51.0789 148.893 50.7369C150.428 50.4539 151.786 49.5659 152.659 48.2709C153.813 46.5449 154.233 44.4309 153.827 42.3959C153.387 39.0199 150.631 36.4209 147.235 36.1809C146.92 36.1789 146.605 36.2039 146.294 36.2559ZM140.419 44.7869C139.973 42.4959 140.447 40.1219 141.737 38.1769C142.746 36.6719 144.322 35.6389 146.106 35.3149C150.398 34.8719 154.256 37.9429 154.787 42.2259C155.232 44.5109 154.758 46.8789 153.469 48.8169C152.456 50.3209 150.882 51.3599 149.1 51.6979C148.726 51.7579 148.349 51.7889 147.97 51.7919C144.107 51.5509 140.949 48.6209 140.419 44.7869Z" fill="white"/>
<path fill-rule="evenodd" clip-rule="evenodd" d="M73.7928 606.545C71.9438 606.919 70.1848 607.648 68.6138 608.692C71.2698 609.22 73.2838 609.125 74.1128 608.409C74.4858 608.072 74.6628 607.569 74.5838 607.072C74.5908 606.894 74.4958 606.726 74.3388 606.64C74.1898 606.576 74.0298 606.544 73.8678 606.545H73.7928ZM67.5788 609.257C67.4298 609.227 67.3168 609.106 67.2958 608.956C67.2568 608.811 67.3178 608.657 67.4468 608.579C68.0118 608.24 72.9448 605.171 74.6588 606.037C75.0488 606.248 75.2988 606.649 75.3178 607.092C75.3968 607.798 75.1308 608.499 74.6028 608.975C73.7318 609.558 72.6898 609.83 71.6458 609.747C70.2758 609.737 68.9118 609.573 67.5788 609.257Z" fill="#00A3FF"/>
<path fill-rule="evenodd" clip-rule="evenodd" d="M69.7251 603.307C68.6751 604.715 68.0781 606.41 68.0121 608.165C69.5751 606.96 71.4761 604.38 71.2691 603.364C71.2501 603.269 71.1941 603.005 70.7231 603.005H70.5541C70.2501 603.003 69.9561 603.11 69.7251 603.307ZM67.5791 609.277C67.3781 609.244 67.2251 609.082 67.2021 608.881C67.2211 608.673 67.4841 604.21 69.2351 602.742C69.6651 602.37 70.2341 602.198 70.7981 602.271C71.3671 602.282 71.8561 602.677 71.9851 603.232C72.3621 604.964 69.3291 608.354 67.7481 609.22C67.6931 609.239 67.6331 609.239 67.5791 609.22V609.277Z" fill="#00A3FF"/>
<path fill-rule="evenodd" clip-rule="evenodd" d="M153.75 608.674C157.196 609.257 159.739 609.107 160.661 608.259C160.998 607.963 161.154 607.514 161.076 607.072C161.077 606.91 160.991 606.759 160.85 606.677C160.629 606.587 160.392 606.542 160.153 606.545C157.914 606.887 155.748 607.606 153.75 608.674ZM152.621 609.2C152.499 609.187 152.393 609.111 152.34 609C152.254 608.822 152.329 608.609 152.507 608.523C153.204 608.146 159.381 604.983 161.264 606.056C161.625 606.245 161.86 606.61 161.885 607.017C161.991 607.683 161.75 608.358 161.245 608.805C160.139 609.552 158.808 609.892 157.479 609.766C155.845 609.729 154.219 609.539 152.621 609.2Z" fill="#00A3FF"/>
<path fill-rule="evenodd" clip-rule="evenodd" d="M154.994 603.458C153.886 604.819 153.228 606.49 153.111 608.241C154.994 607.093 157.442 604.456 157.254 603.42C157.235 603.326 157.179 603.006 156.519 603.006H156.293C155.819 602.987 155.354 603.148 154.994 603.458ZM152.395 609.183C152.297 609.098 152.242 608.974 152.244 608.844C152.264 608.674 152.621 604.493 154.504 602.874C155.057 602.39 155.79 602.163 156.519 602.253C157.536 602.347 157.913 602.874 157.913 603.27C158.233 605.04 154.655 608.373 152.772 609.221H152.621C152.544 609.225 152.467 609.212 152.395 609.183Z" fill="#00A3FF"/>
<path fill-rule="evenodd" clip-rule="evenodd" d="M142.075 156.326C144.833 184.259 144.732 212.401 141.774 240.313C134.148 304.542 120.53 367.915 101.098 429.605L60.4043 422.47C60.4043 422.47 81.0613 261.932 82.5493 232.367C85.5063 173.744 81.8153 135.423 80.9113 107.534C80.7013 101.344 85.2683 96.0225 91.4193 95.2935L109.308 93.1455L142.075 156.326Z" fill="#00A3FF"/>
<path fill-rule="evenodd" clip-rule="evenodd" d="M142.075 156.326C144.833 184.259 144.732 212.401 141.774 240.313C134.148 304.542 120.53 367.915 101.098 429.605L60.4043 422.47C60.4043 422.47 81.0613 261.932 82.5493 232.367C85.5063 173.744 81.8153 135.423 80.9113 107.534C80.7013 101.344 85.2683 96.0225 91.4193 95.2935L109.308 93.1455L142.075 156.326Z" fill="#00A3FF"/>
<path fill-rule="evenodd" clip-rule="evenodd" d="M82.5684 141.316C82.9824 149.714 83.3404 158.867 83.5664 168.885C91.4944 154.197 94.6954 132.918 94.6954 128.737L82.5684 141.316Z" fill="#417BFE"/>
<path fill-rule="evenodd" clip-rule="evenodd" d="M164.466 149.622L165.295 150.639C169.583 155.873 174.362 160.685 179.569 165.007C180.981 166.137 182.45 167.248 183.994 168.321C180.623 148.003 173.995 129.397 171.697 125.01L164.466 149.622Z" fill="#417BFE"/>
<path fill-rule="evenodd" clip-rule="evenodd" d="M140.136 152.71C138.989 181.918 139.511 211.166 141.699 240.314C150.23 338.52 156.67 426.914 156.67 426.914L182.036 422.47C182.036 422.47 183.373 261.913 181.49 232.367C180.153 210.579 177.704 148.059 176.499 116.762C176.107 106.23 168.128 97.5406 157.668 96.2536L147.104 94.9736L140.136 152.71Z" fill="#00A3FF"/>
<path fill-rule="evenodd" clip-rule="evenodd" d="M140.136 152.71C138.989 181.918 139.511 211.166 141.699 240.314C150.23 338.52 156.67 426.914 156.67 426.914L182.036 422.47C182.036 422.47 183.373 261.913 181.49 232.367C180.153 210.579 177.704 148.059 176.499 116.762C176.107 106.23 168.128 97.5406 157.668 96.2536L147.104 94.9736L140.136 152.71Z" fill="#00A3FF"/>
<path fill-rule="evenodd" clip-rule="evenodd" d="M112.717 89.6055C110.457 91.4135 106.691 93.6355 106.691 93.6355C105.806 107.25 130.531 115.743 130.531 115.743C131.923 111.501 133.82 107.442 136.181 103.653C113.847 98.1925 112.736 89.6055 112.717 89.6055Z" fill="#F4F4F4"/>
<path fill-rule="evenodd" clip-rule="evenodd" d="M142.641 92.0352C144.959 92.5732 147.232 93.2912 149.439 94.1812C151.958 101.567 149.443 109.735 143.206 114.425C141.363 110.533 139 106.91 136.182 103.653C144.43 100.734 142.641 92.0352 142.641 92.0352Z" fill="#F4F4F4"/>
<path fill-rule="evenodd" clip-rule="evenodd" d="M101.513 255.473L82.1543 264.945L110.495 240.596L101.513 255.473Z" fill="#417BFE"/>
<path fill-rule="evenodd" clip-rule="evenodd" d="M106.653 121.507C105.843 122.43 104.864 123.748 103.96 124.915L101.211 128.588C99.4031 131.055 97.6331 133.578 95.9191 136.12C92.5491 141.224 89.3661 146.458 86.5041 151.732C83.7051 156.822 81.3061 162.124 79.3291 167.587C77.5451 172.259 76.5221 177.186 76.2971 182.182C76.4091 187.31 77.3041 192.39 78.9521 197.246C80.7371 202.756 82.9861 208.105 85.6751 213.235C88.4781 218.6 91.5781 223.806 94.9591 228.827C96.6731 231.426 98.4051 233.911 100.288 236.36L103.075 239.975C103.904 241.143 105.034 242.423 105.787 243.327L85.8821 260.596C84.5271 259.014 83.4901 257.734 82.3981 256.359C81.3061 254.984 80.2331 253.59 79.1971 252.196C77.1131 249.422 75.0921 246.598 73.1331 243.723C69.1341 237.947 65.4571 231.956 62.1171 225.777C58.6091 219.386 55.6361 212.715 53.2291 205.834C50.5701 198.356 49.0411 190.525 48.6901 182.596C48.6121 178.395 48.9341 174.195 49.6511 170.054C50.3281 166.231 51.2591 162.456 52.4381 158.755C54.6511 151.832 57.3631 145.079 60.5541 138.549C63.6421 132.165 66.9941 126.065 70.5531 120.095C72.3231 117.119 74.1501 114.175 76.0331 111.263L78.9151 106.912C79.9311 105.425 80.8351 104.107 82.0411 102.431L106.653 121.507Z" fill="#00A3FF"/>
<path fill-rule="evenodd" clip-rule="evenodd" d="M106.653 121.507C105.843 122.43 104.864 123.748 103.96 124.915L101.211 128.588C99.4031 131.055 97.6331 133.578 95.9191 136.12C92.5491 141.224 89.3661 146.458 86.5041 151.732C83.7051 156.822 81.3061 162.124 79.3291 167.587C77.5451 172.259 76.5221 177.186 76.2971 182.182C76.4091 187.31 77.3041 192.39 78.9521 197.246C80.7371 202.756 82.9861 208.105 85.6751 213.235C88.4781 218.6 91.5781 223.806 94.9591 228.827C96.6731 231.426 98.4051 233.911 100.288 236.36L103.075 239.975C103.904 241.143 105.034 242.423 105.787 243.327L85.8821 260.596C84.5271 259.014 83.4901 257.734 82.3981 256.359C81.3061 254.984 80.2331 253.59 79.1971 252.196C77.1131 249.422 75.0921 246.598 73.1331 243.723C69.1341 237.947 65.4571 231.956 62.1171 225.777C58.6091 219.386 55.6361 212.715 53.2291 205.834C50.5701 198.356 49.0411 190.525 48.6901 182.596C48.6121 178.395 48.9341 174.195 49.6511 170.054C50.3281 166.231 51.2591 162.456 52.4381 158.755C54.6511 151.832 57.3631 145.079 60.5541 138.549C63.6421 132.165 66.9941 126.065 70.5531 120.095C72.3231 117.119 74.1501 114.175 76.0331 111.263L78.9151 106.912C79.9311 105.425 80.8351 104.107 82.0411 102.431L106.653 121.507Z" fill="#00A3FF"/>
<path fill-rule="evenodd" clip-rule="evenodd" d="M107.108 134.123C106.562 131.581 108.18 129.077 110.722 128.531C113.834 127.839 116.999 129.46 118.254 132.392C118.392 132.694 118.497 133.012 118.568 133.337C119.125 135.888 117.509 138.406 114.959 138.964C111.842 139.645 108.681 138.018 107.426 135.084C107.286 134.776 107.179 134.454 107.108 134.123Z" fill="#1A2E35"/>
<path fill-rule="evenodd" clip-rule="evenodd" d="M107.108 134.123C106.562 131.581 108.18 129.077 110.722 128.531C113.834 127.839 116.999 129.46 118.254 132.392C118.392 132.694 118.497 133.012 118.568 133.337C119.125 135.888 117.509 138.406 114.959 138.964C111.842 139.645 108.681 138.018 107.426 135.084C107.286 134.776 107.179 134.454 107.108 134.123Z" fill="white"/>
<path fill-rule="evenodd" clip-rule="evenodd" d="M113.038 131.92C98.6126 111.864 102.756 93.918 102.756 93.748C102.763 93.676 102.78 93.604 102.808 93.535C102.96 93.16 103.388 92.979 103.764 93.131C104.14 93.283 104.321 93.712 104.169 94.087C104.131 94.257 100.214 111.582 114.225 131.072C114.455 131.4 114.38 131.854 114.055 132.089C113.928 132.178 113.777 132.224 113.622 132.221C113.389 132.228 113.168 132.114 113.038 131.92Z" fill="#1A2E35"/>
<path fill-rule="evenodd" clip-rule="evenodd" d="M162.413 122.316C162.015 122.286 161.713 121.943 161.735 121.545C163.204 103.315 153.449 96.3853 153.355 96.3853C153.017 96.1623 152.925 95.7073 153.148 95.3693C153.384 95.0463 153.83 94.9633 154.165 95.1803C154.598 95.4623 164.729 102.524 163.204 121.657C163.166 122.037 162.85 122.328 162.47 122.335L162.413 122.316Z" fill="#1A2E35"/>
<path fill-rule="evenodd" clip-rule="evenodd" d="M109.22 133.777C108.638 131.232 110.23 128.697 112.774 128.115C115.863 127.41 119.019 128.988 120.307 131.881C120.452 132.197 120.562 132.528 120.635 132.868C121.177 135.411 119.554 137.912 117.012 138.454C113.896 139.128 110.74 137.502 109.479 134.575C109.369 134.317 109.282 134.049 109.22 133.777Z" fill="#1A2E35"/>
<path fill-rule="evenodd" clip-rule="evenodd" d="M109.22 133.777C108.638 131.232 110.23 128.697 112.774 128.115C115.863 127.41 119.019 128.988 120.307 131.881C120.452 132.197 120.562 132.528 120.635 132.868C121.177 135.411 119.554 137.912 117.012 138.454C113.896 139.128 110.74 137.502 109.479 134.575C109.369 134.317 109.282 134.049 109.22 133.777Z" fill="white"/>
<path fill-rule="evenodd" clip-rule="evenodd" d="M112.482 133.075C112.187 131.734 113.034 130.408 114.375 130.112C116.014 129.758 117.677 130.608 118.348 132.146C118.418 132.302 118.471 132.464 118.508 132.63C118.803 133.971 117.956 135.297 116.615 135.593C114.975 135.956 113.307 135.102 112.642 133.558C112.572 133.403 112.519 133.241 112.482 133.075Z" fill="white"/>
<path fill-rule="evenodd" clip-rule="evenodd" d="M149.834 160.355L148.44 135.875C148.415 135.512 148.404 135.15 148.408 134.787C148.478 127.09 154.774 120.909 162.47 120.979C170.748 121.078 177.56 127.521 178.119 135.781L179.531 160.261C179.542 160.417 179.546 160.572 179.544 160.727C179.516 164.149 176.719 166.9 173.298 166.872C172.896 166.861 172.573 166.539 172.563 166.136C172.563 165.731 172.892 165.402 173.298 165.402C173.447 165.405 173.596 165.401 173.745 165.389C176.338 165.191 178.279 162.929 178.081 160.336L176.668 135.856C176.159 128.364 169.979 122.52 162.47 122.429C162.146 122.426 161.822 122.435 161.499 122.458C154.619 122.925 149.422 128.882 149.89 135.761L151.284 160.243C151.54 163.091 153.886 165.299 156.745 165.383H156.764C157.159 165.394 157.471 165.723 157.46 166.118C157.46 166.516 157.143 166.842 156.745 166.852C153.103 166.813 150.098 163.989 149.834 160.355Z" fill="#1A2E35"/>
<path fill-rule="evenodd" clip-rule="evenodd" d="M173.166 163.971C173.844 163.971 174.428 164.95 174.503 166.117C174.578 167.285 174.07 168.245 173.411 168.245C172.751 168.245 172.092 167.285 172.092 166.117C172.017 164.931 172.488 163.971 173.166 163.971Z" fill="#1A2E35"/>
<path fill-rule="evenodd" clip-rule="evenodd" d="M156.613 163.971C157.291 163.971 157.875 164.95 157.95 166.117C158.025 167.285 157.535 168.245 156.858 168.245C156.18 168.245 155.521 167.285 155.521 166.117C155.464 164.931 155.935 163.971 156.613 163.971Z" fill="#1A2E35"/>
<mask id="mask2" mask-type="alpha" maskUnits="userSpaceOnUse" x="311" y="287" width="31" height="33">
<path fill-rule="evenodd" clip-rule="evenodd" d="M311 287H342V320H311V287Z" fill="white"/>
</mask>
<g mask="url(#mask2)">
<path fill-rule="evenodd" clip-rule="evenodd" d="M314.54 288.221C316.901 286.348 318.94 286.678 319.906 288.882C321.837 292.848 323.232 294.831 321.837 296.373C319.262 298.136 317.438 299.017 318.404 300.89C320.335 305.628 324.091 309.704 328.598 312.128C330.315 313.23 331.28 311.357 333.212 308.933C334.821 307.611 336.646 309.043 340.401 311.357C342.44 312.569 342.548 314.552 340.616 316.865C329.349 329.866 301.127 298.907 314.54 288.221Z" fill="#FF1849"/>
</g>
<path d="M365.792 148.288C368.432 148.288 370.832 147.16 372.488 145.36L369.08 142.384C368.288 143.392 367.112 144.064 365.792 144.064C363.536 144.064 361.616 142.096 361.616 139.744C361.616 137.416 363.536 135.448 365.792 135.448C367.088 135.448 368.288 136.12 369.056 137.128L372.488 134.128C370.832 132.352 368.432 131.224 365.792 131.224C360.92 131.224 356.816 135.112 356.816 139.744C356.816 144.376 360.92 148.288 365.792 148.288ZM374.481 148H379.137V131.512H374.481V148ZM390.448 148.288C393.088 148.288 395.488 147.16 397.144 145.36L393.736 142.384C392.944 143.392 391.768 144.064 390.448 144.064C388.192 144.064 386.272 142.096 386.272 139.744C386.272 137.416 388.192 135.448 390.448 135.448C391.744 135.448 392.944 136.12 393.712 137.128L397.144 134.128C395.488 132.352 393.088 131.224 390.448 131.224C385.576 131.224 381.472 135.112 381.472 139.744C381.472 144.376 385.576 148.288 390.448 148.288ZM406.746 148.288C411.354 148.288 414.594 145.144 414.594 140.68V131.512H409.938V140.44C409.938 142.552 408.618 144.064 406.746 144.064C404.874 144.064 403.554 142.552 403.554 140.44V131.512H398.898V140.68C398.898 145.144 402.138 148.288 406.746 148.288ZM423.31 143.224H430.126V139.432H423.31V143.224ZM447.378 148.288C450.018 148.288 452.418 147.16 454.074 145.36L450.666 142.384C449.874 143.392 448.698 144.064 447.378 144.064C445.122 144.064 443.202 142.096 443.202 139.744C443.202 137.416 445.122 135.448 447.378 135.448C448.674 135.448 449.874 136.12 450.642 137.128L454.074 134.128C452.418 132.352 450.018 131.224 447.378 131.224C442.506 131.224 438.402 135.112 438.402 139.744C438.402 144.376 442.506 148.288 447.378 148.288ZM462.187 148.288C465.979 148.288 469.171 145.312 469.171 141.784C469.171 138.256 465.979 135.304 462.187 135.304C458.371 135.304 455.179 138.256 455.179 141.784C455.179 145.312 458.371 148.288 462.187 148.288ZM462.187 144.448C460.723 144.448 459.499 143.224 459.499 141.784C459.499 140.344 460.723 139.144 462.187 139.144C463.627 139.144 464.851 140.344 464.851 141.784C464.851 143.224 463.627 144.448 462.187 144.448ZM479.149 135.304C477.661 135.304 476.413 135.88 475.645 136.84V135.592H471.013V148H475.645V141.04C475.645 139.936 476.389 139.144 477.421 139.144C478.525 139.144 479.293 139.984 479.293 141.184V148H483.709V140.104C483.709 137.296 481.813 135.304 479.149 135.304ZM493.451 144.088C493.211 144.304 492.755 144.448 492.323 144.448C491.699 144.448 491.267 143.92 491.267 143.176V139.24H493.715V135.592H491.267V132.184H486.851V135.592H485.291V139.24H486.851V144.088C486.851 146.56 488.579 148.288 491.051 148.288C492.155 148.288 493.475 147.76 494.243 147.016L493.451 144.088ZM502.068 135.304C499.98 135.304 498.132 135.904 496.404 136.768L497.82 139.576C498.852 139.048 499.644 138.736 500.82 138.736C502.26 138.736 503.364 139.456 503.364 140.68V140.752C502.476 140.392 501.564 140.2 500.748 140.2C497.748 140.2 495.396 141.904 495.396 144.328C495.396 146.656 497.508 148.288 500.172 148.288C501.348 148.288 502.524 147.88 503.364 147.112V148H507.804V140.68C507.804 137.296 505.212 135.304 502.068 135.304ZM501.3 145.552C500.412 145.552 499.788 145 499.788 144.208C499.788 143.368 500.46 142.768 501.396 142.768C502.116 142.768 502.932 142.936 503.364 143.152V144.328C503.268 145.048 502.404 145.552 501.3 145.552ZM516.538 148.288C518.842 148.288 520.594 147.352 521.842 145.912L518.794 143.464C518.29 144.04 517.378 144.448 516.586 144.448C515.17 144.448 513.994 143.224 513.994 141.76C513.994 140.344 515.17 139.144 516.562 139.144C517.354 139.144 518.242 139.552 518.722 140.104L521.77 137.608C520.57 136.216 518.818 135.304 516.61 135.304C512.794 135.304 509.578 138.256 509.578 141.784C509.578 145.312 512.77 148.288 516.538 148.288ZM530.764 144.088C530.524 144.304 530.068 144.448 529.636 144.448C529.012 144.448 528.58 143.92 528.58 143.176V139.24H531.028V135.592H528.58V132.184H524.164V135.592H522.604V139.24H524.164V144.088C524.164 146.56 525.892 148.288 528.364 148.288C529.468 148.288 530.788 147.76 531.556 147.016L530.764 144.088ZM540.135 148H546.279C552.039 148 556.119 144.568 556.119 139.744C556.119 134.92 552.039 131.512 546.279 131.512H540.135V148ZM544.791 143.776V135.736H547.047C549.543 135.736 551.319 137.392 551.319 139.744C551.319 142.096 549.543 143.776 547.047 143.776H544.791ZM564.13 144.832C562.954 144.832 562.042 144.064 561.682 142.888H570.466C570.466 138.112 568.114 135.304 564.13 135.304C560.29 135.304 557.578 137.968 557.578 141.76C557.578 145.576 560.362 148.288 564.322 148.288C566.218 148.288 568.33 147.496 569.434 146.368L566.89 143.8C566.074 144.448 565.066 144.832 564.13 144.832ZM564.13 138.76C565.138 138.76 565.93 139.432 566.266 140.464H561.754C562.162 139.432 563.026 138.76 564.13 138.76ZM579.678 144.088C579.438 144.304 578.982 144.448 578.55 144.448C577.926 144.448 577.494 143.92 577.494 143.176V139.24H579.942V135.592H577.494V132.184H573.078V135.592H571.518V139.24H573.078V144.088C573.078 146.56 574.806 148.288 577.278 148.288C578.382 148.288 579.702 147.76 580.47 147.016L579.678 144.088ZM588.294 135.304C586.206 135.304 584.358 135.904 582.63 136.768L584.046 139.576C585.078 139.048 585.87 138.736 587.046 138.736C588.486 138.736 589.59 139.456 589.59 140.68V140.752C588.702 140.392 587.79 140.2 586.974 140.2C583.974 140.2 581.622 141.904 581.622 144.328C581.622 146.656 583.734 148.288 586.398 148.288C587.574 148.288 588.75 147.88 589.59 147.112V148H594.03V140.68C594.03 137.296 591.438 135.304 588.294 135.304ZM587.526 145.552C586.638 145.552 586.014 145 586.014 144.208C586.014 143.368 586.686 142.768 587.622 142.768C588.342 142.768 589.158 142.936 589.59 143.152V144.328C589.494 145.048 588.63 145.552 587.526 145.552ZM598.828 134.272C600.124 134.272 601.18 133.168 601.18 131.872C601.18 130.624 600.124 129.52 598.828 129.52C597.484 129.52 596.428 130.624 596.428 131.872C596.428 133.168 597.484 134.272 598.828 134.272ZM596.476 148H601.108V135.592H596.476V148ZM603.765 148H608.397V131.224H603.765V148ZM615.879 148.288C619.239 148.288 621.279 146.656 621.279 144.088C621.279 141.16 618.687 140.416 616.431 139.912C615.183 139.624 614.631 139.552 614.631 139.144C614.631 138.784 615.063 138.448 615.711 138.448C616.887 138.448 618.303 139.096 619.335 139.768L620.895 136.936C619.479 136 617.631 135.304 615.711 135.304C612.471 135.304 610.527 137.176 610.527 139.576C610.527 142.504 613.047 143.056 615.303 143.536C616.455 143.776 617.175 144.016 617.175 144.448C617.175 144.856 616.863 145.072 615.999 145.072C614.679 145.072 612.903 144.448 611.703 143.608L609.975 146.416C611.487 147.592 613.719 148.288 615.879 148.288Z" fill="white"/>
<mask id="mask3" mask-type="alpha" maskUnits="userSpaceOnUse" x="316" y="222" width="22" height="33">
<path fill-rule="evenodd" clip-rule="evenodd" d="M316 222H338V255H316V222Z" fill="white"/>
</mask>
<g mask="url(#mask3)">
<path fill-rule="evenodd" clip-rule="evenodd" d="M327 238.651C324.025 238.651 321.613 236.2 321.613 233.177C321.613 230.154 324.025 227.703 327 227.703C329.976 227.703 332.388 230.154 332.388 233.177C332.388 236.2 329.976 238.651 327 238.651ZM327 222C320.925 222 316 227.004 316 233.177C316 233.309 316.004 233.444 316.01 233.58C316.051 234.754 316.269 235.882 316.639 236.937C318.986 244.775 327 255 327 255C327 255 335.013 244.776 337.36 236.938C337.731 235.883 337.949 234.754 337.99 233.58C337.996 233.444 338 233.31 338 233.177C338 227.004 333.075 222 327 222Z" fill="#FF1849"/>
</g>
<path fill-rule="evenodd" clip-rule="evenodd" d="M551.872 534.555C556.582 532.124 562.129 531.808 567.358 532.673C570.167 533.137 573.096 533.978 575.008 536.088C576.919 538.198 577.282 541.911 575.087 543.725C573.78 544.804 571.958 544.968 570.263 544.949C566.17 544.901 561.627 544.18 558.357 546.643C556.491 548.048 555.249 550.384 553.018 551.076C550.836 551.752 548.373 550.464 547.216 548.493C546.059 546.524 546.02 544.062 546.559 541.842C546.559 541.842 547.127 537.002 551.872 534.555Z" fill="#D61335"/>
<path fill-rule="evenodd" clip-rule="evenodd" d="M541.081 513.722C543.961 517.836 549.559 516.474 552.154 513.963C554.75 511.452 555.847 507.813 556.846 504.343C559.127 496.413 561.428 488.095 559.731 480.021C559.224 477.607 558.321 475.2 556.625 473.409C554.929 471.618 552.32 470.552 549.935 471.182C547.113 471.928 545.358 474.692 544.091 477.322C540.364 485.052 538.391 493.621 538.361 502.203C538.348 506.21 538.82 510.413 541.081 513.722Z" fill="#D61335"/>
<path fill-rule="evenodd" clip-rule="evenodd" d="M533.171 519.625C536.298 515.914 536.892 510.501 535.5 505.852C534.108 501.201 530.965 497.246 527.342 494.017C523.094 490.23 518.1 487.284 512.733 485.396C510.62 484.654 508.392 484.068 506.163 484.281C503.933 484.493 501.688 485.634 500.649 487.617C499.111 490.549 500.585 494.105 502.18 497.007C504.988 502.119 508.2 507.01 511.775 511.619C514.651 515.327 517.945 518.984 522.329 520.66C526.712 522.336 531.265 522.139 533.588 519.1" fill="#D61335"/>
<path fill-rule="evenodd" clip-rule="evenodd" d="M540.886 575.777C540.94 575.781 541.028 575.114 541.147 573.908C541.279 572.548 541.445 570.84 541.643 568.807C541.881 566.661 542.194 564.106 542.791 561.324C543.385 558.549 544.315 555.543 545.51 552.493C546.747 549.462 548.257 546.706 550.02 544.503C551.771 542.289 553.807 540.686 555.721 539.762C557.629 538.82 559.34 538.437 560.522 538.267C561.716 538.145 562.383 538.05 562.384 537.998C562.384 537.945 561.715 537.936 560.49 537.968C559.276 538.049 557.494 538.357 555.483 539.271C553.466 540.166 551.306 541.794 549.469 544.052C547.617 546.302 546.054 549.119 544.795 552.205C543.579 555.307 542.662 558.345 542.094 561.18C541.528 564.01 541.269 566.592 541.099 568.757C540.937 570.923 540.876 572.677 540.847 573.89C540.82 575.102 540.833 575.774 540.886 575.777Z" fill="#1A2E35"/>
<path fill-rule="evenodd" clip-rule="evenodd" d="M541.237 571.851C541.263 571.85 541.28 571.551 541.287 570.984C541.285 570.331 541.283 569.511 541.28 568.503C541.275 566.351 541.276 563.236 541.391 559.389C541.582 551.697 542.244 543.417 543.523 531.745C544.735 520.769 546.361 507.996 548.077 499.691C548.445 497.801 548.816 496.102 549.164 494.614C549.497 493.122 549.781 491.835 550.055 490.795C550.291 489.816 550.483 489.018 550.635 488.384C550.759 487.83 550.812 487.536 550.787 487.529C550.761 487.521 550.658 487.801 550.485 488.342C550.296 488.966 550.058 489.752 549.765 490.718C549.445 491.749 549.118 493.027 548.745 494.513C548.355 495.995 547.946 497.691 547.543 499.577C545.845 507.102 544.048 517.62 542.756 529.32C541.474 541.017 540.897 551.666 540.845 559.379C540.8 563.235 540.882 566.357 540.98 568.51C541.042 569.518 541.092 570.338 541.132 570.99C541.175 571.556 541.21 571.852 541.237 571.851Z" fill="#1A2E35"/>
<path fill-rule="evenodd" clip-rule="evenodd" d="M541.288 551.31C541.342 551.308 541.332 550.387 541.27 548.718C541.175 547.053 540.946 544.647 540.476 541.699C539.979 538.758 539.285 535.266 538.194 531.472C537.721 529.737 536.609 525.581 533.917 519.37C530.37 510.955 525.55 504.075 521.357 499.813C520.374 498.682 519.279 497.867 518.403 497.067C517.949 496.684 517.549 496.301 517.141 495.998C516.73 495.715 516.348 495.453 515.994 495.208C514.614 494.265 513.842 493.767 513.813 493.812C513.689 493.98 516.904 495.872 520.963 500.191C525.005 504.499 529.69 511.332 533.209 519.676C535.171 524.203 536.539 528.24 537.51 531.666C538.631 535.424 539.376 538.881 539.939 541.792C540.474 544.71 540.784 547.093 540.971 548.743C541.124 550.396 541.235 551.312 541.288 551.31Z" fill="#1A2E35"/>
<path fill-rule="evenodd" clip-rule="evenodd" d="M521.434 587.546L523.493 615.744H559.719L561.778 587.546H521.434Z" fill="#1A2E35"/>
<mask id="mask4" mask-type="alpha" maskUnits="userSpaceOnUse" x="500" y="471" width="77" height="153">
<path fill-rule="evenodd" clip-rule="evenodd" d="M500 623.169H576.592V471H500V623.169Z" fill="white"/>
</mask>
<g mask="url(#mask4)">
<path fill-rule="evenodd" clip-rule="evenodd" d="M517.935 587.546H566.1V576.431H517.935V587.546Z" fill="#1A2E35"/>
<path fill-rule="evenodd" clip-rule="evenodd" d="M517.935 614.665V617.746H520.198H565.304V614.665H517.935Z" fill="#375A64"/>
<path fill-rule="evenodd" clip-rule="evenodd" d="M522.416 623.169L520.198 617.746H563.579L560.99 623.169H522.416Z" fill="#375A64"/>
<path fill-rule="evenodd" clip-rule="evenodd" d="M561.105 596.762C561.113 596.769 561.056 596.857 560.936 597.021C560.793 597.211 560.614 597.448 560.395 597.739C559.88 598.398 559.173 599.302 558.284 600.44L558.19 600.56L558.1 600.434C556.773 598.6 555.001 596.149 552.915 593.263H553.213C551.671 595.447 549.953 597.879 548.109 600.491L547.949 600.718L547.77 600.504C545.886 598.263 543.84 595.829 541.716 593.302L542.065 593.297C541.96 593.43 541.846 593.573 541.732 593.716C539.854 596.07 538.037 598.348 536.319 600.502L536.138 600.728L535.972 600.492C534.134 597.893 532.417 595.463 530.864 593.267L531.162 593.281C528.645 596.149 526.51 598.58 524.872 600.447L524.76 600.575L524.675 600.431C523.846 599.038 523.185 597.927 522.706 597.122C522.5 596.763 522.333 596.473 522.2 596.241C522.089 596.039 522.037 595.933 522.046 595.927C522.056 595.921 522.127 596.016 522.257 596.206C522.404 596.429 522.588 596.708 522.816 597.054C523.319 597.845 524.013 598.935 524.883 600.303L524.687 600.286C526.299 598.398 528.399 595.936 530.876 593.033L531.032 592.85L531.173 593.047C532.739 595.234 534.472 597.653 536.326 600.241L535.979 600.232C537.693 598.074 539.506 595.792 541.379 593.435C541.493 593.291 541.607 593.149 541.712 593.017L541.884 592.8L542.062 593.012C544.18 595.544 546.22 597.984 548.098 600.229L547.759 600.242C549.622 597.644 551.357 595.224 552.915 593.051L553.066 592.84L553.213 593.051C555.255 595.968 556.99 598.445 558.289 600.299L558.105 600.294C559.029 599.185 559.764 598.304 560.3 597.662C560.538 597.386 560.731 597.162 560.887 596.982C561.023 596.83 561.097 596.755 561.105 596.762Z" fill="#E1E1E1"/>
<path fill-rule="evenodd" clip-rule="evenodd" d="M562.281 587.359C562.281 587.483 553.204 587.585 542.009 587.585C530.81 587.585 521.735 587.483 521.735 587.359C521.735 587.234 530.81 587.133 542.009 587.133C553.204 587.133 562.281 587.234 562.281 587.359Z" fill="#375A64"/>
<path fill-rule="evenodd" clip-rule="evenodd" d="M564.112 618.05C564.112 618.175 554.247 618.276 542.08 618.276C529.91 618.276 520.047 618.175 520.047 618.05C520.047 617.926 529.91 617.825 542.08 617.825C554.247 617.825 564.112 617.926 564.112 618.05Z" fill="#1A2E35"/>
</g>
<path fill-rule="evenodd" clip-rule="evenodd" d="M603 624.501C603 624.575 468.004 624.635 301.515 624.635C134.967 624.635 0 624.575 0 624.501C0 624.427 134.967 624.366 301.515 624.366C468.004 624.366 603 624.427 603 624.501Z" fill="#1A2E35"/>
</svg>
