<svg width="653" height="603" viewBox="0 0 653 603" fill="none" xmlns="http://www.w3.org/2000/svg">
<circle opacity="0.0770322" cx="344.5" cy="301.5" r="301.5" fill="#E13856"/>
<path fill-rule="evenodd" clip-rule="evenodd" d="M517.409 456.547L524.264 483.023C524.264 483.023 554.791 492.861 555.293 498.234L496.904 500.108L495.317 454.821L517.409 456.547Z" fill="#FFBF9D"/>
<path fill-rule="evenodd" clip-rule="evenodd" d="M524.489 476.081C524.377 476.337 523.058 475.998 521.448 476.156C519.838 476.282 518.599 476.844 518.444 476.613C518.273 476.418 519.466 475.361 521.364 475.201C523.259 475.028 524.624 475.861 524.489 476.081Z" fill="#1A2E35"/>
<path fill-rule="evenodd" clip-rule="evenodd" d="M524.42 470.218C524.427 470.331 523.305 470.538 521.496 470.297C520.596 470.176 519.532 469.926 518.409 469.488C517.85 469.267 517.275 469.001 516.704 468.682C516.431 468.524 516.107 468.365 515.802 468.046C515.477 467.769 515.276 467.045 515.627 466.586C515.914 466.144 516.438 465.939 516.859 465.918C517.287 465.89 517.639 465.963 517.959 466.029C518.615 466.16 519.229 466.348 519.795 466.572C520.926 467.027 521.85 467.616 522.542 468.195C523.932 469.361 524.426 470.374 524.331 470.43C524.203 470.526 523.519 469.684 522.11 468.731C521.409 468.255 520.514 467.769 519.46 467.395C518.932 467.212 518.364 467.056 517.766 466.95C517.143 466.811 516.617 466.825 516.466 467.097C516.411 467.199 516.404 467.24 516.54 467.409C516.678 467.566 516.933 467.716 517.203 467.874C517.73 468.182 518.258 468.448 518.774 468.676C519.806 469.131 520.79 469.432 521.632 469.631C523.319 470.027 524.422 470.069 524.42 470.218Z" fill="#1A2E35"/>
<path fill-rule="evenodd" clip-rule="evenodd" d="M456.644 172.253C456.644 172.253 455.71 166.59 457.169 161.875C458.627 157.158 464.727 144.72 462.798 140.399C460.866 136.077 453.879 124.448 449.567 124.483C445.256 124.517 454.101 136.928 452.885 140.805C451.671 144.681 451.269 144.995 449.771 144.653C448.273 144.312 445.994 136.89 445.236 138.623C444.478 140.355 444.919 151.841 446.344 154.709C447.768 157.577 444.846 173.744 444.846 173.744L456.644 172.253Z" fill="#FFBF9D"/>
<path fill-rule="evenodd" clip-rule="evenodd" d="M456.5 168C456.5 168 453.381 164.215 446 166.5C446 166.5 428.526 208.778 420.46 239.792C404.979 201.591 395.454 163.493 395.454 163.493C395.454 163.493 376.684 189.416 369.908 206.651C363.132 223.888 403.625 284.359 419.34 289.105C435.739 294.059 432.754 289.096 442.008 283.802C444.984 279.941 450.914 258.983 456.5 168Z" fill="#FFBF9D"/>
<path d="M417.5 230C414.3 241.2 398.5 256.333 391 262.5C389.8 262.5 383.5 252.833 380.5 248L387 207.5C389.167 196 394.6 173.6 399 176C403.4 178.4 413.167 213 417.5 230Z" fill="#0092C7"/>
<path fill-rule="evenodd" clip-rule="evenodd" d="M464.331 297.482C464.331 297.482 458.993 299.856 452.406 304.713C451.657 300.897 450.578 298.419 450.578 298.419C403.555 286.173 277.685 287.171 277.685 287.171C277.685 287.171 250.623 293.948 258.569 333.34C265.883 369.592 367.713 357.233 406.751 346.356C407.664 346.103 419.592 343.354 420.447 343.074C429.91 367.181 495.318 480.319 495.318 480.319L529.514 479.86C512.787 432.617 464.331 297.482 464.331 297.482Z" fill="#00A3FF"/>
<path d="M344.5 300.5C320.9 317.7 276.333 319.333 257 318V324.5C269 327 280.5 328.341 303 324.5C319.4 321.7 340.5 306.667 344.5 300.5Z" fill="#0092C7"/>
<path fill-rule="evenodd" clip-rule="evenodd" d="M396.934 222.704C387.956 243.971 379.746 257.551 378.671 259.326C374.801 265.722 370.648 271.593 366.849 276.72C366.729 276.884 366.61 277.042 366.49 277.207C359.007 287.273 347.564 290.045 347.92 292.569C348.635 297.633 335.845 309.782 314.755 315.17C290.283 321.423 261.925 324.432 254.757 316.159C252.36 313.382 251.562 308.273 251.83 301.923C252.353 288.546 269.191 234.678 269.191 234.678C297.993 147.513 380.477 147.513 380.477 147.513C380.477 147.513 378.86 168.394 399.107 175.641C399.132 175.685 403.863 206.292 396.934 222.704Z" fill="#00A3FF"/>
<path fill-rule="evenodd" clip-rule="evenodd" d="M445.377 284.727C445.377 284.727 457.764 289.106 461.159 291.231C464.557 293.359 472.377 304.062 473.257 307.814C474.137 311.566 475.169 322.594 474.528 324.438C473.887 326.284 464.406 319.21 462.299 312.55C460.19 305.892 454.777 304.101 454.984 304.458C455.191 304.818 457.963 313.341 457.378 313.708C456.793 314.076 454.27 314.713 451.984 309.956C449.696 305.197 445.167 301.72 446.022 296.803C446.878 291.886 445.377 284.727 445.377 284.727Z" fill="#FFBF9D"/>
<path fill-rule="evenodd" clip-rule="evenodd" d="M348.331 293.272C349.046 298.336 335.845 309.782 314.756 315.17C297.163 280.172 330.612 200.052 330.612 200.052L366.85 276.72C359.203 287.042 347.971 290.707 348.331 293.272Z" fill="#0092C7"/>
<path fill-rule="evenodd" clip-rule="evenodd" d="M450.129 285.815C450.129 285.815 393.612 269.993 364.604 263.072C367.159 228.847 375.538 125.368 322.831 166.789C322.831 166.789 319.961 274.508 345.5 296.97C345.5 296.97 430.388 298.958 446 298C446 298 446.569 298.553 447.708 296.97C451.352 291.907 450.129 287 450.129 287" fill="#FFBF9D"/>
<path d="M368.5 253C357.3 259.8 335.167 261.167 325.5 261C320.3 248.2 320.334 193.333 321 167.5L338.5 157C341.334 155.667 349.9 155.3 361.5 164.5C373.1 173.7 371 227.333 368.5 253Z" fill="#00A3FF"/>
<path fill-rule="evenodd" clip-rule="evenodd" d="M401.858 353.896V375.695C401.858 380.196 398.176 383.878 393.675 383.878H264.796C260.295 383.878 256.613 380.196 256.613 375.695V353.896C256.613 349.395 260.295 345.713 264.796 345.713H393.675C398.176 345.713 401.858 349.395 401.858 353.896Z" fill="#C0C0C0"/>
<path fill-rule="evenodd" clip-rule="evenodd" d="M401.858 371.727V375.696C401.858 380.197 398.176 383.879 393.675 383.879H264.796C260.295 383.879 256.613 380.197 256.613 375.696V371.4H399.513C400.323 371.4 401.114 371.517 401.858 371.727Z" fill="#E1E1E1"/>
<path fill-rule="evenodd" clip-rule="evenodd" d="M287.639 383.879L281.83 405.884L281.823 405.893L257.636 497.478H255.092L269.071 421.493C269.085 421.417 269.106 421.343 269.118 421.262L276.033 383.682L287.639 383.879Z" fill="#D9D9D9"/>
<path fill-rule="evenodd" clip-rule="evenodd" d="M287.639 383.879L281.83 405.884L281.823 405.893C281.489 406.055 270.913 411.523 269.118 421.262L276.033 383.682L287.639 383.879Z" fill="#C0C0C0"/>
<path fill-rule="evenodd" clip-rule="evenodd" d="M401.858 497.476H399.315L379.608 422.87V422.856L375.128 405.891L375.121 405.883L369.311 383.878L380.917 383.682L384.872 405.167L387.831 421.262C387.845 421.342 387.866 421.417 387.879 421.493L401.858 497.476Z" fill="#D9D9D9"/>
<path fill-rule="evenodd" clip-rule="evenodd" d="M362.573 412.696C362.559 412.703 362.547 412.696 362.533 412.668C362.479 412.573 362.492 412.594 362.573 412.696Z" fill="#3662C1"/>
<path fill-rule="evenodd" clip-rule="evenodd" d="M384.872 405.169C382.731 408.285 379.777 414.141 379.608 422.858L375.128 405.893L375.121 405.884L369.311 383.879L380.917 383.682L384.872 405.169Z" fill="#C0C0C0"/>
<path fill-rule="evenodd" clip-rule="evenodd" d="M355.476 189.848C355.476 189.848 361.907 237.915 360.558 251.915L355.476 189.848Z" fill="black"/>
<path fill-rule="evenodd" clip-rule="evenodd" d="M448.026 131.734C456.671 119.015 454.091 101.79 442.107 92.1542L440.917 91.1952C427.471 81.6164 411.828 87.684 402.623 101.389L367.208 150.268C363.049 155.949 363.5 163.784 368.286 168.947L377.353 178.729C381.967 183.709 389.947 183.331 394.083 177.946C395.379 176.259 400.43 168.895 402.108 166.651C402.108 166.651 415.997 174.662 426.077 162.443C430.946 156.54 439.985 143.566 448.026 131.734Z" fill="#FFBF9D"/>
<path fill-rule="evenodd" clip-rule="evenodd" d="M402.225 166.716C402.225 166.716 393.963 160.852 389.861 148.976C389.861 148.976 386.519 160.918 399.729 169.712L402.225 166.716Z" fill="#FF9A6C"/>
<path fill-rule="evenodd" clip-rule="evenodd" d="M402.225 166.716C402.225 166.716 393.963 160.852 389.861 148.976C389.861 148.976 386.519 160.918 399.729 169.712L402.225 166.716Z" fill="#FF9A6C"/>
<path fill-rule="evenodd" clip-rule="evenodd" d="M437.001 139.08C436.285 140.037 434.884 140.219 433.872 139.491C432.861 138.762 432.617 137.398 433.333 136.441C434.049 135.485 435.451 135.298 436.462 136.026C437.475 136.756 437.717 138.122 437.001 139.08Z" fill="#1A2E35"/>
<path fill-rule="evenodd" clip-rule="evenodd" d="M440.679 137.041C440.275 136.997 440.249 134.864 438.774 132.928C437.326 130.975 435.25 130.307 435.328 129.917C435.354 129.733 435.951 129.641 436.873 129.918C437.785 130.187 439.01 130.895 439.922 132.109C440.83 133.322 441.158 134.675 441.145 135.605C441.14 136.547 440.868 137.071 440.679 137.041Z" fill="#1A2E35"/>
<path fill-rule="evenodd" clip-rule="evenodd" d="M417.864 124.698C417.148 125.656 415.748 125.838 414.734 125.11C413.723 124.382 413.48 123.017 414.195 122.059C414.912 121.103 416.313 120.918 417.324 121.645C418.339 122.374 418.58 123.741 417.864 124.698Z" fill="#1A2E35"/>
<path fill-rule="evenodd" clip-rule="evenodd" d="M422.456 120.115C422.081 120.273 421.008 118.431 418.771 117.472C416.551 116.484 414.414 116.927 414.29 116.548C414.222 116.376 414.693 115.999 415.635 115.788C416.56 115.574 417.977 115.588 419.367 116.192C420.756 116.801 421.705 117.818 422.153 118.634C422.611 119.457 422.634 120.048 422.456 120.115Z" fill="#1A2E35"/>
<path fill-rule="evenodd" clip-rule="evenodd" d="M417.152 140.605C417.23 140.49 418.574 141.235 420.681 142.527C421.205 142.866 421.74 143.14 422.087 142.874C422.485 142.617 422.702 141.931 422.92 141.179C423.407 139.642 423.918 138.029 424.454 136.339C426.689 129.489 428.722 124.012 428.996 124.105C429.27 124.197 427.683 129.825 425.45 136.675C424.886 138.357 424.352 139.958 423.836 141.49C423.577 142.187 423.39 143.065 422.559 143.593C422.139 143.849 421.57 143.826 421.194 143.66C420.806 143.504 420.53 143.292 420.278 143.112C418.273 141.67 417.074 140.718 417.152 140.605Z" fill="#1A2E35"/>
<path fill-rule="evenodd" clip-rule="evenodd" d="M428.051 113.964C427.449 114.33 425.752 112.562 423.311 111.04C420.901 109.469 418.583 108.678 418.66 107.978C418.706 107.65 419.409 107.417 420.536 107.502C421.656 107.58 423.185 108.031 424.639 108.957C426.094 109.885 427.147 111.08 427.691 112.063C428.244 113.049 428.328 113.784 428.051 113.964Z" fill="#1A2E35"/>
<path fill-rule="evenodd" clip-rule="evenodd" d="M444.23 129.595C443.549 129.758 442.603 128.26 441.049 126.974C439.538 125.636 437.914 124.93 437.97 124.233C438.012 123.907 438.568 123.644 439.477 123.703C440.377 123.757 441.603 124.197 442.656 125.097C443.707 126 444.329 127.142 444.521 128.024C444.721 128.913 444.546 129.504 444.23 129.595Z" fill="#1A2E35"/>
<path fill-rule="evenodd" clip-rule="evenodd" d="M397.14 112.026C397.002 111.765 390.677 102.696 384.16 111.352C377.642 120.006 387.676 124.764 387.879 124.528C388.079 124.291 397.14 112.026 397.14 112.026Z" fill="#FFBF9D"/>
<path fill-rule="evenodd" clip-rule="evenodd" d="M388.446 119.853C388.428 119.797 388.215 119.845 387.872 119.769C387.539 119.698 387.053 119.454 386.729 118.945C386.068 117.92 386.39 115.89 387.524 114.298C388.094 113.493 388.824 112.869 389.571 112.457C390.311 112.023 391.053 111.89 391.575 112.153C392.113 112.393 392.232 112.914 392.154 113.237C392.089 113.567 391.904 113.699 391.938 113.748C391.946 113.787 392.233 113.742 392.434 113.332C392.526 113.133 392.578 112.853 392.501 112.533C392.42 112.208 392.179 111.892 391.833 111.686C391.13 111.229 390.068 111.39 389.247 111.841C388.388 112.267 387.549 112.956 386.908 113.86C385.651 115.645 385.315 117.951 386.293 119.253C386.782 119.872 387.427 120.069 387.843 120.062C388.273 120.051 388.465 119.891 388.446 119.853Z" fill="#FF9A6C"/>
<path fill-rule="evenodd" clip-rule="evenodd" d="M422.805 91.3383L457.427 120.346C458.281 117.035 457.884 113.523 457.048 110.209C455.25 103.066 451.357 96.3853 445.69 91.6813C440.021 86.9773 422.713 84.6057 415.373 85.2343C409.501 85.7369 407.323 88.4991 407.323 88.4991C403.134 92.6445 401.531 99.8881 398.955 105.19C397.625 107.924 393.03 115.735 393.03 115.735V115.736C394.979 117.285 396.938 116.317 398.181 114.161L403.851 106.338C403.851 106.338 414.215 106.934 417.967 95.8365C418.012 94.7501 419.454 90.7531 422.805 91.3383Z" fill="#1A2E35"/>
<path fill-rule="evenodd" clip-rule="evenodd" d="M408.796 123.998C408.663 123.93 408.618 123.758 408.694 123.615C408.768 123.471 408.936 123.409 409.066 123.478C409.198 123.546 409.244 123.718 409.17 123.861C409.094 124.005 408.928 124.067 408.796 123.998Z" fill="#FF9A6C"/>
<path fill-rule="evenodd" clip-rule="evenodd" d="M413.081 126.09C412.949 126.021 412.913 125.832 412.997 125.667C413.084 125.503 413.26 125.425 413.392 125.493C413.522 125.562 413.56 125.751 413.474 125.916C413.389 126.08 413.213 126.16 413.081 126.09Z" fill="#FF9A6C"/>
<path fill-rule="evenodd" clip-rule="evenodd" d="M415.569 127.993C415.443 127.914 415.443 127.685 415.57 127.479C415.697 127.272 415.902 127.167 416.029 127.245C416.155 127.322 416.154 127.555 416.026 127.76C415.899 127.966 415.695 128.071 415.569 127.993Z" fill="#FF9A6C"/>
<path fill-rule="evenodd" clip-rule="evenodd" d="M408.747 127.706C408.632 127.613 408.587 127.477 408.646 127.403C408.706 127.329 408.846 127.344 408.962 127.438C409.077 127.531 409.125 127.666 409.064 127.739C409.006 127.813 408.863 127.797 408.747 127.706Z" fill="#FF9A6C"/>
<path fill-rule="evenodd" clip-rule="evenodd" d="M412.691 129.608C412.568 129.524 412.546 129.346 412.638 129.204C412.732 129.064 412.907 129.018 413.03 129.102C413.153 129.183 413.178 129.364 413.083 129.504C412.991 129.643 412.814 129.69 412.691 129.608Z" fill="#FF9A6C"/>
<path fill-rule="evenodd" clip-rule="evenodd" d="M431.647 141.454C431.516 141.386 431.472 141.209 431.551 141.062C431.626 140.912 431.796 140.848 431.927 140.917C432.059 140.985 432.102 141.162 432.027 141.309C431.948 141.458 431.779 141.523 431.647 141.454Z" fill="#FF9A6C"/>
<path fill-rule="evenodd" clip-rule="evenodd" d="M434.298 143.216C434.175 143.133 434.157 142.943 434.26 142.784C434.363 142.629 434.546 142.567 434.671 142.65C434.794 142.73 434.811 142.923 434.708 143.078C434.606 143.237 434.423 143.297 434.298 143.216Z" fill="#FF9A6C"/>
<path fill-rule="evenodd" clip-rule="evenodd" d="M429.417 139.762C429.286 139.693 429.228 139.545 429.287 139.429C429.347 139.314 429.504 139.275 429.634 139.343C429.766 139.412 429.825 139.56 429.765 139.675C429.704 139.791 429.549 139.83 429.417 139.762Z" fill="#FF9A6C"/>
<path fill-rule="evenodd" clip-rule="evenodd" d="M429.262 143.704C429.117 143.666 429.039 143.499 429.082 143.334C429.127 143.169 429.28 143.067 429.423 143.105C429.565 143.144 429.645 143.309 429.6 143.474C429.557 143.639 429.406 143.742 429.262 143.704Z" fill="#FF9A6C"/>
<path fill-rule="evenodd" clip-rule="evenodd" d="M431.71 144.979C431.623 144.859 431.634 144.703 431.735 144.629C431.836 144.556 431.988 144.594 432.075 144.714C432.162 144.833 432.151 144.99 432.05 145.064C431.949 145.136 431.796 145.099 431.71 144.979Z" fill="#FF9A6C"/>
<path fill-rule="evenodd" clip-rule="evenodd" d="M414.756 85.5313C416.328 81.7233 419.978 79.0031 423.989 78.0581C427.998 77.1131 432.436 78.2107 435.543 80.9155C437.135 82.3015 438.398 84.0795 440.178 85.2107C443.494 87.3205 447.804 86.7605 451.584 87.8371C457.474 89.5171 461.733 95.6897 461.212 101.791C461.002 104.251 460.121 106.793 460.957 109.116C461.68 111.125 463.526 112.486 464.737 114.245C467.186 117.801 466.651 122.998 463.788 126.229C460.925 129.461 456.098 130.653 451.941 129.487C447.783 128.322 444.383 124.996 442.75 120.999C441.276 117.39 440.918 112.957 437.804 110.61C434.578 108.179 429.446 108.945 426.848 105.852C425.485 104.231 425.236 101.983 424.972 99.8813C424.706 97.7813 424.279 95.5161 422.706 94.0965C421.136 92.6783 418.46 94.2561 417.815 96.2735L414.756 85.5313Z" fill="#1A2E35"/>
<path fill-rule="evenodd" clip-rule="evenodd" d="M460.329 115.324C460.331 115.331 460.278 115.357 460.173 115.404C460.067 115.447 459.91 115.516 459.696 115.58C459.27 115.716 458.621 115.878 457.767 115.917C456.915 115.958 455.85 115.864 454.699 115.453C453.553 115.047 452.323 114.281 451.348 113.081C450.372 111.898 449.624 110.288 449.511 108.462C449.395 106.631 449.957 104.761 450.055 102.801C450.104 101.821 449.994 100.814 449.585 99.8901C449.166 98.9703 448.494 98.1471 447.66 97.5031C446.821 96.8633 445.812 96.4195 444.744 96.2277C443.669 96.0485 442.554 96.1843 441.518 96.6295C440.472 97.0635 439.487 97.6697 438.371 98.0127C437.271 98.3837 435.955 98.2717 435.015 97.5773C434.066 96.9025 433.498 95.8917 433.122 94.8977C432.739 93.8925 432.595 92.8397 432.492 91.8485C432.285 89.8801 432.088 87.9271 430.992 86.5607C429.922 85.1901 428.241 84.6399 426.786 84.5559C425.299 84.4761 423.972 84.8849 422.911 85.4085C421.847 85.9349 421.015 86.5537 420.37 87.0913C419.723 87.6317 419.255 88.0909 418.938 88.4017C418.62 88.7125 418.455 88.8777 418.442 88.8679C418.436 88.8623 418.471 88.8133 418.543 88.7251C418.616 88.6369 418.723 88.5053 418.875 88.3415C419.173 88.0083 419.624 87.5281 420.259 86.9625C420.895 86.3997 421.722 85.7515 422.802 85.1901C423.875 84.6343 425.247 84.1849 426.8 84.2493C428.318 84.3165 430.103 84.8639 431.276 86.3367C432.47 87.8067 432.672 89.8521 432.891 91.8037C433.001 92.7963 433.142 93.7945 433.514 94.7521C433.873 95.6971 434.416 96.6337 435.26 97.2287C436.096 97.8349 437.217 97.9371 438.246 97.5969C439.288 97.2777 440.267 96.6799 441.352 96.2263C442.435 95.7559 443.673 95.6033 444.815 95.8007C445.958 96.0051 447.029 96.4811 447.919 97.1629C448.805 97.8517 449.521 98.7295 449.967 99.7193C450.404 100.72 450.515 101.808 450.456 102.819C450.337 104.852 449.773 106.693 449.872 108.443C449.964 110.182 450.662 111.736 451.587 112.888C452.512 114.054 453.68 114.807 454.783 115.224C455.891 115.644 456.927 115.761 457.761 115.748C459.444 115.705 460.315 115.264 460.329 115.324Z" fill="#375A64"/>
<path fill-rule="evenodd" clip-rule="evenodd" d="M466.615 120.566C466.634 120.575 466.528 120.878 466.214 121.36C465.902 121.842 465.358 122.49 464.525 123.104C463.69 123.712 462.56 124.272 461.211 124.535C459.863 124.804 458.321 124.737 456.798 124.331C453.718 123.506 451.478 121.563 450.092 120.103C449.393 119.358 448.88 118.713 448.541 118.256C448.203 117.797 448.038 117.528 448.061 117.511C448.119 117.464 448.882 118.468 450.312 119.887C451.738 121.276 453.948 123.117 456.91 123.911C458.376 124.3 459.849 124.376 461.137 124.14C462.427 123.911 463.524 123.404 464.347 122.854C466.01 121.723 466.539 120.505 466.615 120.566Z" fill="#375A64"/>
<path fill-rule="evenodd" clip-rule="evenodd" d="M414.433 151.357C414.046 151.399 413.913 148.812 411.605 147.084C409.303 145.351 406.558 145.779 406.52 145.418C406.475 145.258 407.109 144.885 408.273 144.795C409.412 144.698 411.099 144.983 412.51 146.04C413.919 147.099 414.574 148.574 414.715 149.632C414.868 150.707 414.61 151.364 414.433 151.357Z" fill="#1A2E35"/>
<mask id="mask0" mask-type="alpha" maskUnits="userSpaceOnUse" x="0" y="496" width="653" height="2">
<path fill-rule="evenodd" clip-rule="evenodd" d="M0.000976562 496.338H652.487V497.738H0.000976562V496.338Z" fill="white"/>
</mask>
<g mask="url(#mask0)">
<path d="M652.488 497.038H0.000976562" stroke="#1A2E35" stroke-width="0.7"/>
</g>
<path fill-rule="evenodd" clip-rule="evenodd" d="M511.192 89.4982C510.987 89.3848 510.898 89.1328 510.99 88.913C511.893 86.7724 508.805 82.8454 502.519 78.1428C502.313 77.9888 502.271 77.6976 502.425 77.4932C502.579 77.2874 502.87 77.2454 503.074 77.3994C507.851 80.9736 513.252 85.9352 511.847 89.2742C511.746 89.5094 511.474 89.62 511.238 89.522C511.222 89.515 511.207 89.5066 511.192 89.4982Z" fill="#D4D4D4"/>
<path fill-rule="evenodd" clip-rule="evenodd" d="M414.288 48.6905C414.083 48.5771 413.994 48.3265 414.086 48.1053C415.67 44.3449 424.602 45.2269 431.817 46.6297C441.805 48.5743 454.45 52.6511 467.419 58.1125C479.192 63.0713 490.175 68.7483 498.344 74.1005C498.557 74.2405 498.617 74.5289 498.478 74.7417C498.337 74.9573 498.048 75.0175 497.836 74.8761C489.711 69.5547 478.782 63.9057 467.059 58.9693C454.147 53.5303 441.567 49.4731 431.639 47.5425C426.835 46.6073 422.924 46.2237 420.014 46.4015C417.191 46.5751 415.437 47.2891 414.942 48.4665C414.842 48.7031 414.571 48.8137 414.334 48.7143C414.317 48.7073 414.303 48.6989 414.288 48.6905Z" fill="#D4D4D4"/>
<path fill-rule="evenodd" clip-rule="evenodd" d="M500.208 105.975C500.173 105.955 500.139 105.931 500.108 105.901C499.926 105.72 499.924 105.426 500.104 105.245C500.999 104.334 500.983 102.441 500.058 99.7686C499.103 97.0148 497.245 93.5512 494.535 89.4758C488.935 81.0534 480.352 71.0028 470.367 61.1734C460.381 51.3454 450.194 42.9202 441.684 37.4546C437.568 34.8086 434.076 33.0054 431.305 32.0954C428.619 31.212 426.726 31.2246 425.83 32.136C425.651 32.3194 425.357 32.3208 425.173 32.1416C424.991 31.9624 424.989 31.6684 425.168 31.485C428.031 28.5772 436.004 32.7016 442.186 36.6734C450.749 42.174 460.987 50.6398 471.016 60.5112C481.046 70.384 489.674 80.4892 495.309 88.962C499.378 95.0814 503.627 102.986 500.764 105.895C500.615 106.048 500.386 106.074 500.208 105.975Z" fill="#D4D4D4"/>
<path fill-rule="evenodd" clip-rule="evenodd" d="M418.715 56.5702C418.684 56.552 418.653 56.5324 418.626 56.5058C414.762 52.9554 413.235 50.1288 414.086 48.1058C414.187 47.8706 414.459 47.76 414.694 47.858C414.93 47.9602 415.041 48.2304 414.942 48.467C414.277 50.0448 415.808 52.6572 419.254 55.8226C419.443 55.9962 419.454 56.2902 419.282 56.4792C419.133 56.6402 418.898 56.6724 418.715 56.5702Z" fill="#D4D4D4"/>
<path fill-rule="evenodd" clip-rule="evenodd" d="M436.412 68.5888C432.604 66.4664 429.124 64.3412 426.072 62.2664C425.86 62.1222 425.806 61.8338 425.949 61.621C426.093 61.4096 426.381 61.355 426.593 61.5006C434.867 67.123 446.33 73.129 458.874 78.4112C471.787 83.8488 484.366 87.9074 494.295 89.8394C499.097 90.7732 503.009 91.1554 505.918 90.9776C508.742 90.804 510.496 90.09 510.992 88.914C511.091 88.6788 511.363 88.5668 511.599 88.6662C511.836 88.767 511.945 89.0372 511.847 89.2738C510.262 93.0356 501.33 92.1522 494.117 90.7494C484.128 88.8062 471.484 84.728 458.513 79.2666C450.535 75.9066 442.988 72.2526 436.412 68.5888Z" fill="#D4D4D4"/>
<path fill-rule="evenodd" clip-rule="evenodd" d="M487.97 103.249C486.525 102.444 485.093 101.572 483.746 100.707C475.185 95.2064 464.947 86.7406 454.917 76.8678C444.888 66.995 436.26 56.8926 430.625 48.4184C426.556 42.299 422.306 34.3932 425.169 31.484C425.349 31.302 425.642 31.2992 425.824 31.4784C426.007 31.659 426.009 31.953 425.83 32.135C424.935 33.045 424.949 34.9392 425.874 37.6104C426.829 40.3656 428.687 43.8292 431.397 47.9046C436.999 56.3256 445.582 66.3776 455.567 76.207C465.553 86.0364 475.74 94.4602 484.249 99.9258C488.366 102.572 491.858 104.375 494.628 105.285C497.314 106.168 499.206 106.154 500.104 105.244C500.283 105.061 500.577 105.06 500.759 105.239C500.942 105.418 500.945 105.712 500.765 105.895C498.525 108.17 493.16 106.142 487.97 103.249Z" fill="#D4D4D4"/>
<path fill-rule="evenodd" clip-rule="evenodd" d="M460.402 70.8076L460.023 76.1864L464.238 79.5478L459.006 80.8498L457.111 85.8982L454.256 81.3244L448.87 81.0822L452.338 76.9536L450.903 71.7554L455.901 73.7784L460.402 70.8076Z" fill="#FF1849"/>
<path fill-rule="evenodd" clip-rule="evenodd" d="M428.645 28.001L428.356 32.0876L431.56 34.6426L427.584 35.631L426.144 39.467L423.974 35.9922L419.881 35.8074L422.517 32.6714L421.428 28.7206L425.226 30.2578L428.645 28.001Z" fill="#FF1849"/>
<path fill-rule="evenodd" clip-rule="evenodd" d="M504.896 100.74L503.634 103.862L505.491 106.67L502.131 106.436L500.032 109.07L499.219 105.802L496.064 104.62L498.92 102.837L499.07 99.4727L501.65 101.638L504.896 100.74Z" fill="#FF1849"/>
<path opacity="0.5" d="M286.289 83.3242C286.723 63.5793 271.069 47.2208 251.324 46.7865C231.579 46.3523 215.221 62.0066 214.786 81.7516C214.352 101.496 230.006 117.855 249.751 118.289C269.496 118.724 285.855 103.069 286.289 83.3242Z" fill="white"/>
<path d="M250.564 51.7239C256.662 51.7239 262.623 53.5323 267.693 56.9204C272.763 60.3085 276.715 65.1241 279.048 70.7581C281.381 76.3922 281.991 82.5916 280.801 88.5723C279.61 94.553 276.673 100.046 272.361 104.358C268.048 108.669 262.554 111.604 256.572 112.793C250.591 113.981 244.392 113.369 238.759 111.034C233.126 108.699 228.311 104.746 224.925 99.6749C221.538 94.6036 219.732 88.642 219.734 82.5439C219.745 74.3715 222.996 66.5369 228.776 60.7591C234.556 54.9812 242.392 51.7319 250.564 51.7239V51.7239ZM250.564 46.7939C243.49 46.792 236.575 48.8878 230.693 52.8164C224.811 56.745 220.226 62.3299 217.518 68.8646C214.81 75.3993 214.101 82.5902 215.481 89.5279C216.86 96.4656 220.266 102.838 225.268 107.84C230.27 112.842 236.642 116.248 243.58 117.627C250.518 119.007 257.709 118.298 264.243 115.59C270.778 112.882 276.363 108.297 280.291 102.415C284.22 96.5327 286.316 89.6175 286.314 82.5439C286.311 73.0633 282.544 63.9717 275.84 57.2678C269.136 50.564 260.045 46.7966 250.564 46.7939V46.7939Z" fill="#DDDDDD"/>
<path d="M250.564 54.0436C250.245 54.054 249.942 54.1882 249.72 54.4177C249.498 54.6473 249.374 54.9542 249.374 55.2736V56.5036C249.374 56.8298 249.504 57.1427 249.734 57.3734C249.965 57.604 250.278 57.7336 250.604 57.7336C250.93 57.7336 251.243 57.604 251.474 57.3734C251.704 57.1427 251.834 56.8298 251.834 56.5036V55.2736C251.834 55.1087 251.801 54.9454 251.737 54.7935C251.672 54.6416 251.578 54.5042 251.46 54.3894C251.341 54.2747 251.201 54.1849 251.047 54.1255C250.893 54.0661 250.729 54.0383 250.564 54.0436Z" fill="#D1D1D1"/>
<path d="M250.564 107.053C250.243 107.064 249.939 107.199 249.717 107.431C249.494 107.663 249.371 107.972 249.374 108.293V109.523C249.374 109.85 249.504 110.162 249.734 110.393C249.965 110.624 250.278 110.753 250.604 110.753C250.93 110.753 251.243 110.624 251.474 110.393C251.704 110.162 251.834 109.85 251.834 109.523V108.293C251.835 108.128 251.803 107.963 251.74 107.81C251.676 107.657 251.582 107.518 251.463 107.403C251.345 107.287 251.204 107.196 251.049 107.136C250.895 107.076 250.73 107.048 250.564 107.053V107.053Z" fill="#D1D1D1"/>
<path d="M277.684 81.1632H276.454C276.146 81.191 275.859 81.3331 275.65 81.5616C275.441 81.7902 275.325 82.0886 275.325 82.3982C275.325 82.7078 275.441 83.0062 275.65 83.2348C275.859 83.4633 276.146 83.6054 276.454 83.6332H277.684C277.855 83.6487 278.028 83.6282 278.192 83.5732C278.355 83.5181 278.505 83.4297 278.632 83.3135C278.759 83.1973 278.86 83.0559 278.93 82.8983C278.999 82.7408 279.035 82.5704 279.035 82.3982C279.035 82.226 278.999 82.0557 278.93 81.8981C278.86 81.7405 278.759 81.5991 278.632 81.4829C278.505 81.3667 278.355 81.2783 278.192 81.2232C278.028 81.1682 277.855 81.1478 277.684 81.1632V81.1632Z" fill="#D1D1D1"/>
<path d="M224.674 81.1631H223.434C223.126 81.1909 222.839 81.333 222.63 81.5615C222.421 81.7901 222.306 82.0885 222.306 82.3981C222.306 82.7077 222.421 83.0061 222.63 83.2346C222.839 83.4632 223.126 83.6053 223.434 83.6331H224.674C224.983 83.6053 225.27 83.4632 225.478 83.2346C225.687 83.0061 225.803 82.7077 225.803 82.3981C225.803 82.0885 225.687 81.7901 225.478 81.5615C225.27 81.333 224.983 81.1909 224.674 81.1631V81.1631Z" fill="#D1D1D1"/>
<path d="M268.874 62.3438L267.994 63.2138C267.763 63.4462 267.633 63.7608 267.633 64.0888C267.633 64.4167 267.763 64.7314 267.994 64.9638C268.229 65.1941 268.545 65.3233 268.874 65.3238C269.2 65.3228 269.513 65.1935 269.744 64.9638L270.614 64.0838C270.845 63.853 270.975 63.5401 270.975 63.2138C270.975 62.8874 270.845 62.5745 270.614 62.3438C270.383 62.113 270.071 61.9834 269.744 61.9834C269.418 61.9834 269.105 62.113 268.874 62.3438V62.3438Z" fill="#D1D1D1"/>
<path d="M231.374 99.834L230.504 100.704C230.387 100.817 230.294 100.952 230.231 101.101C230.167 101.251 230.135 101.412 230.135 101.574C230.135 101.736 230.167 101.897 230.231 102.047C230.294 102.196 230.387 102.331 230.504 102.444C230.616 102.562 230.751 102.655 230.9 102.719C231.05 102.783 231.211 102.815 231.374 102.814C231.536 102.814 231.697 102.782 231.847 102.718C231.996 102.655 232.131 102.561 232.244 102.444L233.114 101.574C233.345 101.343 233.474 101.03 233.474 100.704C233.474 100.378 233.345 100.065 233.114 99.834C232.883 99.6033 232.57 99.4736 232.244 99.4736C231.917 99.4736 231.605 99.6033 231.374 99.834V99.834Z" fill="#D1D1D1"/>
<path d="M269.744 99.8336C269.513 99.6016 269.199 99.4707 268.872 99.4697C268.545 99.4688 268.231 99.5979 267.999 99.8286C267.767 100.059 267.636 100.373 267.635 100.7C267.634 101.027 267.763 101.342 267.994 101.574L268.874 102.444C268.986 102.561 269.121 102.655 269.27 102.719C269.42 102.782 269.581 102.815 269.744 102.814C269.906 102.814 270.067 102.782 270.217 102.718C270.366 102.654 270.501 102.561 270.614 102.444C270.728 102.329 270.819 102.194 270.88 102.045C270.942 101.895 270.974 101.735 270.974 101.574C270.974 101.412 270.942 101.252 270.88 101.103C270.819 100.953 270.728 100.818 270.614 100.704L269.744 99.8336Z" fill="#D1D1D1"/>
<path d="M232.254 62.3439C232.139 62.2296 232.004 62.139 231.854 62.0771C231.705 62.0152 231.545 61.9834 231.384 61.9834C231.222 61.9834 231.062 62.0152 230.913 62.0771C230.763 62.139 230.628 62.2296 230.514 62.3439C230.397 62.4567 230.304 62.5919 230.241 62.7414C230.177 62.8909 230.145 63.0516 230.145 63.2139C230.145 63.3763 230.177 63.537 230.241 63.6864C230.304 63.8359 230.397 63.9711 230.514 64.0839L231.384 64.9639C231.498 65.0782 231.633 65.1689 231.783 65.2307C231.932 65.2926 232.092 65.3244 232.254 65.3244C232.415 65.3244 232.575 65.2926 232.724 65.2307C232.874 65.1689 233.009 65.0782 233.124 64.9639C233.355 64.7315 233.485 64.4169 233.485 64.0889C233.485 63.7609 233.355 63.4463 233.124 63.2139L232.254 62.3439Z" fill="#D1D1D1"/>
<path d="M246.864 83.2438H237.004C236.885 83.2568 236.765 83.2445 236.651 83.208C236.538 83.1714 236.433 83.1113 236.344 83.0316C236.255 82.9519 236.184 82.8543 236.135 82.7453C236.087 82.6363 236.062 82.5182 236.062 82.3988C236.062 82.2794 236.087 82.1614 236.135 82.0524C236.184 81.9433 236.255 81.8458 236.344 81.7661C236.433 81.6864 236.538 81.6262 236.651 81.5897C236.765 81.5531 236.885 81.5409 237.004 81.5538H246.864C246.982 81.5409 247.102 81.5531 247.216 81.5897C247.33 81.6262 247.434 81.6864 247.523 81.7661C247.612 81.8458 247.683 81.9433 247.732 82.0524C247.781 82.1614 247.806 82.2794 247.806 82.3988C247.806 82.5182 247.781 82.6363 247.732 82.7453C247.683 82.8543 247.612 82.9519 247.523 83.0316C247.434 83.1113 247.33 83.1714 247.216 83.208C247.102 83.2445 246.982 83.2568 246.864 83.2438Z" fill="#D1D1D1"/>
<path d="M250.564 79.5432C250.338 79.5432 250.122 79.4536 249.963 79.2942C249.803 79.1348 249.714 78.9186 249.714 78.6932V65.1332C249.714 64.9078 249.803 64.6916 249.963 64.5322C250.122 64.3728 250.338 64.2832 250.564 64.2832C250.789 64.2832 251.006 64.3728 251.165 64.5322C251.324 64.6916 251.414 64.9078 251.414 65.1332V78.6932C251.414 78.8048 251.392 78.9154 251.349 79.0185C251.306 79.1216 251.244 79.2153 251.165 79.2942C251.086 79.3732 250.992 79.4358 250.889 79.4785C250.786 79.5212 250.675 79.5432 250.564 79.5432Z" fill="#D1D1D1"/>
<path d="M250.564 78.6934C251.296 78.6934 252.011 78.9104 252.62 79.3169C253.228 79.7235 253.703 80.3013 253.983 80.9774C254.263 81.6535 254.336 82.3975 254.193 83.1152C254.05 83.8329 253.698 84.4922 253.181 85.0097C252.663 85.5271 252.004 85.8795 251.286 86.0223C250.568 86.165 249.824 86.0918 249.148 85.8117C248.472 85.5317 247.894 85.0574 247.488 84.449C247.081 83.8405 246.864 83.1251 246.864 82.3934C246.864 81.4121 247.254 80.4709 247.948 79.7771C248.642 79.0832 249.583 78.6934 250.564 78.6934V78.6934Z" fill="#D1D1D1"/>
</svg>
