<svg width="600" height="600" viewBox="0 0 600 600" fill="none" xmlns="http://www.w3.org/2000/svg">
<mask id="mask0" mask-type="alpha" maskUnits="userSpaceOnUse" x="0" y="0" width="600" height="600">
<path d="M300 600C465.685 600 600 465.685 600 300C600 134.315 465.685 0 300 0C134.315 0 0 134.315 0 300C0 465.685 134.315 600 300 600Z" fill="#FF3556"/>
</mask>
<g mask="url(#mask0)">
<path opacity="0.09" d="M300 600C465.685 600 600 465.685 600 300C600 134.315 465.685 0 300 0C134.315 0 0 134.315 0 300C0 465.685 134.315 600 300 600Z" fill="#FF3556"/>
<path d="M882.001 317.14H434.841C427.641 317.14 421.841 321.21 421.841 326.22V446.22H444.321V340.86C444.321 336.4 449.501 332.79 455.901 332.79H870.451C876.841 332.79 882.031 336.4 882.031 340.86V446.23H904.501V326.23C904.501 321.23 898.671 317.15 891.501 317.15L882.001 317.14Z" fill="#D1D1D1"/>
<path d="M28.0906 447.2H1444.09C1452.43 447.2 1460.43 443.886 1466.33 437.988C1472.23 432.09 1475.54 424.091 1475.54 415.75C1475.54 407.41 1472.22 399.413 1466.33 393.518C1460.43 387.622 1452.43 384.31 1444.09 384.31H28.0906C19.7513 384.31 11.7534 387.622 5.85565 393.518C-0.0420799 399.413 -3.35672 407.41 -3.35938 415.75C-3.35937 424.091 -0.0459027 432.09 5.85212 437.988C11.7501 443.886 19.7496 447.2 28.0906 447.2Z" fill="#D1D1D1"/>
<path d="M258.83 447.21H236.2V733.77H258.83V447.21Z" fill="#D1D1D1"/>
<path d="M260.29 295.469C253.737 316.236 247.194 336.999 240.66 357.759C240.356 359.088 239.747 360.327 238.88 361.379C236.2 364.189 231.6 362.499 228.01 361.049C210.69 354.049 191.16 356.749 172.69 359.569C176.344 350.063 179.99 340.546 183.63 331.019L190.56 312.919C193.56 304.969 197.1 296.459 204.34 291.979C207.14 290.259 214.66 290.169 223.34 290.799C227.17 291.079 231.22 291.479 235.19 291.969C244.41 293.059 253.19 294.449 257.48 295.119C258.41 295.287 259.348 295.404 260.29 295.469Z" fill="#FFBF9D"/>
<path d="M244.211 253.999C243.737 250.611 242.355 247.415 240.211 244.749C235.571 239.169 227.851 237.089 220.021 235.939C219.161 235.799 218.281 235.689 217.421 235.569C213.031 235.019 203.421 235.839 199.951 232.729C196.011 229.169 201.721 221.659 197.641 218.609C190.321 213.119 173.641 226.189 164.641 221.809C157.351 218.289 155.531 212.809 145.851 213.269C133.171 213.899 114.591 209.809 100.291 211.339C92.1508 228.339 80.2908 245.709 65.2908 258.249C64.5885 266.579 64.7762 274.96 65.8508 283.249C71.5108 321.469 121.311 324.509 151.371 328.769C162.811 330.399 173.661 331.559 183.691 331.089C203.161 330.149 219.501 323.019 230.871 300.929C231.131 300.449 231.371 299.979 231.611 299.489C232.781 297.119 234.011 294.629 235.231 292.039C240.781 280.159 246.221 266.459 244.211 253.999Z" fill="#FFBF9D"/>
<path d="M163.481 308.52C159.641 307.91 153.181 313.81 148.481 312.87C145.535 312.222 142.823 310.781 140.638 308.703C138.452 306.625 136.876 303.989 136.081 301.08C135.852 300.005 135.741 298.908 135.751 297.81C93.9005 290.81 173.391 205.88 99.0505 196.61C92.5305 195.8 88.1605 198.29 87.5205 203.23C83.5205 233.82 43.9405 235.93 39.3105 265.11C38.1905 272.21 38.9205 279.46 39.6505 286.61C42.0605 310.14 45.9305 343.02 71.2305 353.16C88.1205 359.93 109.361 357.84 127.231 358.75L179.111 361.39C188.171 361.85 190.811 362.54 195.481 354.19C199.013 347.792 200.989 340.653 201.251 333.35C201.251 334.29 183.491 327.35 181.631 326.27C178.094 324.186 174.844 321.651 171.961 318.73C169.961 316.73 166.161 309.21 163.771 308.58L163.481 308.52Z" fill="#4C2A1A"/>
<path d="M211.84 349.66H26.1203C21.6503 349.66 18.0303 358.61 18.0303 369.66C18.0303 380.66 21.6503 389.66 26.1203 389.66H211.84C216.31 389.66 219.93 380.66 219.93 369.66C219.93 358.61 216.31 349.66 211.84 349.66Z" fill="#E5E5E6"/>
<path d="M257.46 295.119L256.3 295.369C247.807 297.209 239.31 299.039 230.81 300.859C220.81 303.019 210.827 305.173 200.86 307.319C208.63 302.319 216.57 297.079 223.32 290.799C227.286 287.182 230.756 283.056 233.64 278.529C239.8 268.679 241.87 256.359 240.2 244.699C242.345 247.365 243.727 250.561 244.2 253.949C246.2 266.459 240.77 280.159 235.2 291.949C244.39 293.059 253.14 294.449 257.46 295.119Z" fill="#EBA05D"/>
<path d="M247.39 294.53C279.39 271.94 313.5 249.08 352.45 244.67C369.63 242.73 386.97 244.5 404.25 244.4C423.85 244.3 443.36 241.79 462.95 241.4C515.95 240.3 567.95 254.49 619.03 268.57C621.85 269.35 624.81 270.2 626.91 272.25C629.49 274.77 630.26 278.56 630.82 282.12C635.824 314.467 633.646 347.519 624.44 378.93C623.67 381.56 622.8 384.27 620.97 386.32C617.97 389.71 613.09 390.58 608.59 391.18C530 401.64 450 391.29 371 398.67C336.52 401.9 301.12 408.42 267.8 399.01C257.15 396.01 246.8 391.28 238.68 383.73C226.25 372.14 221.74 354 224.52 337.55C226.017 329.123 229.401 321.143 234.42 314.21C238 309.15 243 297.62 247.39 294.53Z" fill="#00A2FF"/>
<path d="M721.001 356.87C714.451 364.55 701.141 370.13 689.721 369.41C676.341 368.57 605.231 381.19 591.351 383.96C560.001 390.2 522.181 381.48 490.461 381.39C450.921 381.27 461.151 385.52 421.611 384.85C379.441 384.14 339.091 376.37 298.611 365.3C277.251 359.47 257.481 335.16 262.831 305.13C266.881 282.36 302.301 286.49 318.581 288.81C347.981 293.01 377.281 297.8 406.481 303.18C429.861 307.5 460.851 308.51 482.311 319.18C482.481 319.26 482.631 319.36 482.791 319.44C486.492 319.805 490.212 319.959 493.931 319.9H494.931C495.061 319.9 495.181 319.9 495.311 319.9C516.181 320.76 537.131 319.78 558.021 320.22C585.801 320.79 612.771 327.97 640.201 331.45C648.511 332.45 658.521 335.26 666.821 334.83C677.751 334.25 687.541 329 698.821 329.66C712.811 330.44 734.211 341.36 721.001 356.87Z" fill="#FAB977"/>
<path d="M374.811 285.74C369.301 281.85 362.491 280.86 355.811 280.12C344.951 278.92 334.171 277.05 323.241 276.55C306.311 275.76 286.711 276.55 272.131 286.39C240.751 307.51 203.011 354 229.131 368.39C238.341 373.46 309.231 374.67 319.391 377.1C329.871 379.6 340.921 381.6 351.711 380.35C352.442 380.327 353.137 380.028 353.655 379.511C354.173 378.995 354.476 378.301 354.501 377.57C356.131 346.57 366.281 316.94 379.291 289.03C380.741 286 376.571 283.33 374.811 285.74Z" fill="#00A2FF"/>
<path d="M454.86 432.13C456.43 332.55 529.62 248.85 529.62 248.85C597.48 227.94 678.02 240.17 926.5 250.58C991.1 253.29 964.77 250.04 1089.85 253.1C1372.32 260 1210.99 438.43 1199.48 432.1L454.86 432.13Z" fill="#0086C3"/>
<path d="M721.001 356.87C714.451 364.55 701.141 370.13 689.721 369.41C676.341 368.57 605.231 381.19 591.351 383.96C560.001 390.2 522.181 381.48 490.461 381.39C450.921 381.27 461.151 385.52 421.611 384.85C379.441 384.14 339.091 376.37 298.611 365.3C277.251 359.47 257.481 335.16 262.831 305.13C266.881 282.36 302.301 286.49 318.581 288.81C347.981 293.01 377.281 297.8 406.481 303.18C429.861 307.5 460.851 308.51 482.311 319.18C482.481 319.26 482.631 319.36 482.791 319.44C486.492 319.805 490.212 319.959 493.931 319.9H494.931C495.061 319.9 495.181 319.9 495.311 319.9C516.181 320.76 537.131 319.78 558.021 320.22C585.801 320.79 612.771 327.97 640.201 331.45C648.511 332.45 658.521 335.26 666.821 334.83C677.751 334.25 687.541 329 698.821 329.66C712.811 330.44 734.211 341.36 721.001 356.87Z" fill="#FFBF9D"/>
<path d="M374.811 285.74C369.301 281.85 362.491 280.86 355.811 280.12C344.951 278.92 334.171 277.05 323.241 276.55C306.311 275.76 286.711 276.55 272.131 286.39C240.751 307.51 203.011 354 229.131 368.39C238.341 373.46 309.231 374.67 319.391 377.1C329.871 379.6 340.921 381.6 351.711 380.35C352.442 380.327 353.137 380.028 353.655 379.511C354.173 378.995 354.476 378.301 354.501 377.57C356.131 346.57 366.281 316.94 379.291 289.03C380.741 286 376.571 283.33 374.811 285.74Z" fill="#00A2FF"/>
<path d="M846.411 748.48L832.741 740.15C830.212 738.592 827.302 737.761 824.331 737.75H784.121V-305.25C784.121 -309.77 780.941 -313.44 776.981 -313.54H591.321C587.321 -313.54 585.921 -311.19 585.921 -308.28C585.921 -305.37 587.371 -303.01 591.321 -303.01H774.851V737.75H731.461C728.491 737.764 725.581 738.594 723.051 740.15L709.391 748.48C705.141 751.06 706.761 758.38 711.571 758.38C712.344 758.38 713.103 758.166 713.761 757.76L727.251 749.55C728.579 748.729 730.109 748.293 731.671 748.29H822.491C825.141 748.297 827.737 749.037 829.991 750.43L841.991 757.76C842.65 758.164 843.408 758.379 844.181 758.38C849.001 758.38 850.661 751.06 846.411 748.48Z" fill="white"/>
<path d="M214.321 230.63L198.621 229.79C197.461 229.79 196.301 229.79 196.291 228.67V226.59C196.291 225.43 197.561 225.59 198.721 225.59L214.281 224.36C214.558 224.356 214.834 224.407 215.092 224.51C215.349 224.613 215.584 224.766 215.782 224.96C215.98 225.155 216.137 225.386 216.245 225.642C216.353 225.898 216.41 226.172 216.411 226.45V228.53C216.408 229.084 216.188 229.615 215.797 230.008C215.405 230.401 214.875 230.624 214.321 230.63Z" fill="#0086C3"/>
<path d="M195.48 217.52L185.74 218.52C185.74 218.52 192.77 215.94 195.48 217.52Z" fill="#D7EBF4"/>
<path d="M195.48 217.519V239.769H185.74V218.489C185.74 218.489 192.77 215.939 195.48 217.519Z" fill="#D7EBF4"/>
<path d="M195.481 217.52C195.481 217.52 201.061 218.02 198.701 225.52C196.341 233.02 195.041 234.21 195.041 234.21L195.481 217.69V217.52Z" fill="#D7EBF4"/>
<path d="M356.201 261.469C356.121 261.655 355.972 261.802 355.785 261.879C355.597 261.956 355.388 261.956 355.201 261.879C320.041 246.319 273.311 235.529 216.311 229.809L216.571 227.199C274.631 232.999 322.001 239.759 357.931 255.589C358.027 255.632 358.113 255.694 358.185 255.771C358.257 255.848 358.313 255.938 358.351 256.036C358.388 256.135 358.405 256.24 358.402 256.345C358.398 256.45 358.374 256.553 358.331 256.649L356.201 261.469Z" fill="#C8D9E0"/>
<path opacity="0.7" d="M367.99 260.917L347.521 252.321C347.338 252.244 347.127 252.33 347.05 252.514L345.459 256.303C345.382 256.486 345.468 256.697 345.651 256.774L366.12 265.37C366.303 265.447 366.514 265.361 366.591 265.177L368.182 261.388C368.259 261.205 368.173 260.994 367.99 260.917Z" fill="#FF3556"/>
<path d="M454.601 461.92C452.031 461.92 449.481 461.82 447.011 461.61C391.071 457.01 352.751 413.47 352.37 413.03L352.141 412.66C352.011 412.43 340.011 390.66 299.231 369.05C282.411 360.13 272.821 348.1 270.751 333.29C268.751 319.11 274.661 307.44 276.011 306.14C276.151 305.99 290.671 290.3 281.141 253.21C275.291 230.41 247.951 227 232.141 227C226.952 226.977 221.769 227.328 216.631 228.05H216.311L215.771 224.82L216.101 224.76C221.369 224.037 226.683 223.696 232.001 223.74C248.791 223.74 277.901 227.46 284.311 252.39C294.311 291.39 278.441 308.34 278.311 308.5C277.631 309.26 271.861 320.43 274.201 334.01C276.481 347.2 285.421 358.01 300.791 366.15C342.791 388.4 354.531 410.22 355.011 411.15C356.541 412.83 394.29 453.99 447.3 458.35C449.67 458.55 452.111 458.65 454.531 458.65C480.811 458.65 505.931 447.38 528.081 437.44C547.701 428.65 566.201 420.35 583.281 420.35C585.9 420.344 588.516 420.554 591.1 420.98H591.43L590.891 424.22L590.57 424.16C588.16 423.77 585.722 423.576 583.281 423.58C566.891 423.58 548.701 431.74 529.451 440.38C506.94 450.5 481.491 461.92 454.601 461.92Z" fill="#B9E0F9"/>
<path d="M232.001 224.07C250.001 224.07 277.751 228.17 284.001 252.47C294.001 291.54 278.221 308.11 278.061 308.27C277.361 309.03 271.491 320.34 273.861 334.07C276.151 347.36 285.151 358.25 300.621 366.44C342.621 388.68 354.221 410.38 354.701 411.29C357.701 414.62 394.701 454.29 447.261 458.67C449.691 458.87 452.101 458.96 454.511 458.96C480.811 458.96 505.871 447.75 528.201 437.73C547.691 428.99 566.201 420.67 583.261 420.67C585.864 420.659 588.463 420.867 591.031 421.29L590.601 423.88C588.175 423.481 585.72 423.284 583.261 423.29C566.801 423.29 548.491 431.5 529.261 440.13C506.711 450.24 481.401 461.59 454.591 461.59C452.078 461.59 449.558 461.486 447.031 461.28C391.381 456.7 353.031 413.28 352.611 412.81L352.411 412.49C352.291 412.27 340.541 390.57 299.411 368.76C282.681 359.9 273.151 347.94 271.091 333.24C269.091 319.24 274.931 307.66 276.261 306.38C276.411 306.23 290.991 290.14 281.481 253.12C275.681 230.54 249.481 226.68 232.191 226.68C226.987 226.646 221.788 226.98 216.631 227.68L216.201 225.1C221.436 224.374 226.716 224.029 232.001 224.07ZM232.001 223.41C226.668 223.383 221.341 223.744 216.061 224.49L215.421 224.6L215.521 225.24L215.951 227.83L216.051 228.48L216.701 228.37C221.824 227.672 226.99 227.338 232.161 227.37C247.841 227.37 275.011 230.74 280.811 253.32C290.251 290.07 275.911 305.81 275.761 305.96C274.401 307.27 268.411 319.09 270.411 333.37C272.501 348.3 282.151 360.37 299.071 369.37C339.871 390.99 351.711 412.61 351.831 412.83L352.061 413.2C352.501 413.71 390.901 457.35 446.981 461.97C449.451 462.17 451.981 462.28 454.591 462.28C481.591 462.28 507.041 450.84 529.531 440.75C548.781 432.12 566.931 423.98 583.251 423.98C585.673 423.971 588.091 424.165 590.481 424.56L591.131 424.67L591.241 424.02L591.671 421.43L591.781 420.78L591.131 420.67C588.526 420.244 585.89 420.033 583.251 420.04C566.101 420.04 547.571 428.35 527.951 437.15C505.791 447.09 480.711 458.34 454.501 458.34C452.081 458.34 449.661 458.24 447.301 458.05C394.921 453.73 357.471 413.4 355.231 410.94C354.331 409.26 342.231 387.76 300.911 365.89C285.651 357.77 276.761 347 274.501 334C272.191 320.59 277.831 309.58 278.551 308.75C278.681 308.62 294.741 291.75 284.631 252.35C278.171 227.21 248.891 223.45 232.011 223.45L232.001 223.41Z" fill="#0086C3"/>
</g>
</svg>
