<svg width="603" height="603" viewBox="0 0 603 603" fill="none" xmlns="http://www.w3.org/2000/svg">
<circle opacity="0.0770322" cx="301.5" cy="301.5" r="301.5" fill="#E13856"/>
<path fill-rule="evenodd" clip-rule="evenodd" d="M324.27 57.9418C325.531 43.7399 337.526 32.8878 351.83 33.0009L353.253 33.0121C368.572 34.0247 376.268 47.5581 374.829 62.7913L371.574 123.888C371.519 124.914 370.897 125.825 369.959 126.252L335.4 142L336.782 109.932C336.782 109.932 322.066 107.533 322.001 92.8501C321.968 85.7591 323.097 71.1509 324.27 57.9418Z" fill="#FFBF9D"/>
<path fill-rule="evenodd" clip-rule="evenodd" d="M337 109.344C337 109.344 346.234 109.967 356 104C356 104 351.459 114.271 337.033 112.868L337 109.344Z" fill="#FF9A6C"/>
<path fill-rule="evenodd" clip-rule="evenodd" d="M329.002 66.8719C328.955 67.9748 329.814 68.9242 330.917 68.996C332.02 69.0653 332.952 68.2322 332.998 67.1293C333.043 66.0265 332.187 65.0758 331.084 65.004C329.979 64.9347 329.047 65.769 329.002 66.8719Z" fill="#1A2E35"/>
<path fill-rule="evenodd" clip-rule="evenodd" d="M327.032 64.9395C327.279 65.1858 328.816 64.1462 330.986 64.1684C333.153 64.1606 334.736 65.208 334.972 64.9628C335.089 64.8552 334.839 64.4114 334.15 63.9387C333.472 63.4671 332.312 63.0045 330.96 63C329.608 62.9967 328.468 63.4494 327.809 63.9187C327.139 64.3892 326.909 64.8285 327.032 64.9395Z" fill="#1A2E35"/>
<path fill-rule="evenodd" clip-rule="evenodd" d="M352.002 67.8725C351.957 68.9756 352.815 69.9253 353.919 69.9958C355.021 70.0664 355.952 69.2332 355.998 68.1288C356.043 67.0256 355.186 66.076 354.084 66.0042C352.979 65.9336 352.047 66.7693 352.002 67.8725Z" fill="#1A2E35"/>
<path fill-rule="evenodd" clip-rule="evenodd" d="M350.031 65.9395C350.28 66.1858 351.817 65.1462 353.986 65.1684C356.153 65.1606 357.736 66.208 357.972 65.9628C358.089 65.8552 357.841 65.4125 357.149 64.9387C356.472 64.4671 355.312 64.0045 353.959 64C352.608 63.9967 351.468 64.4505 350.81 64.9187C350.141 65.3892 349.909 65.8285 350.031 65.9395Z" fill="#1A2E35"/>
<path fill-rule="evenodd" clip-rule="evenodd" d="M340.785 81.9146C340.798 81.7846 339.385 81.5295 337.095 81.2193C336.513 81.1555 335.964 81.0355 335.869 80.639C335.736 80.22 335.984 79.596 336.27 78.9231C336.829 77.5249 337.412 76.0579 338.025 74.5222C340.462 68.2527 342.229 63.0976 341.976 63.0013C341.721 62.9063 339.542 67.9088 337.104 74.177C336.518 75.7228 335.957 77.1973 335.424 78.6055C335.199 79.2633 334.814 80.0087 335.105 80.8804C335.257 81.3143 335.681 81.632 336.053 81.7346C336.424 81.8509 336.752 81.8609 337.039 81.8796C339.345 82.0222 340.775 82.0435 340.785 81.9146Z" fill="#1A2E35"/>
<path fill-rule="evenodd" clip-rule="evenodd" d="M349.011 56.6252C349.222 57.2283 351.41 56.9603 353.979 57.2941C356.553 57.5756 358.62 58.3518 358.965 57.8157C359.119 57.5586 358.762 56.9895 357.929 56.3998C357.102 55.8124 355.781 55.2483 354.241 55.063C352.699 54.8803 351.284 55.1167 350.344 55.4932C349.398 55.8697 348.92 56.3388 349.011 56.6252Z" fill="#1A2E35"/>
<path fill-rule="evenodd" clip-rule="evenodd" d="M328.059 58.7306C328.464 59.3411 330.075 58.7247 332.007 58.713C333.937 58.6232 335.571 59.1528 335.95 58.5217C336.118 58.2142 335.865 57.6052 335.154 57.0241C334.454 56.4445 333.279 55.9679 331.952 56.0017C330.625 56.037 329.471 56.5769 328.794 57.1918C328.109 57.8097 327.879 58.4334 328.059 58.7306Z" fill="#1A2E35"/>
<path fill-rule="evenodd" clip-rule="evenodd" d="M372.66 73.4287C372.901 73.324 382.373 70.584 381.989 80.41C381.604 90.236 372.006 87.8173 372 87.535C371.995 87.2515 372.66 73.4287 372.66 73.4287Z" fill="#FFBF9D"/>
<path fill-rule="evenodd" clip-rule="evenodd" d="M374.011 84.0918C374.06 84.0611 374.195 84.2248 374.506 84.3769C374.811 84.5239 375.34 84.6377 375.912 84.4574C377.069 84.1007 378.104 82.4069 378.233 80.548C378.3 79.6084 378.13 78.7059 377.815 77.9516C377.515 77.1846 377.027 76.6374 376.455 76.5172C375.888 76.3689 375.47 76.6821 375.324 76.9685C375.167 77.251 375.227 77.4607 375.17 77.4748C375.139 77.5003 374.945 77.2945 375.049 76.8713C375.103 76.6668 375.239 76.429 375.502 76.2398C375.769 76.0481 376.156 75.9598 376.553 76.0174C377.384 76.103 378.105 76.865 378.453 77.6921C378.847 78.5256 379.06 79.5407 378.985 80.5954C378.83 82.6728 377.634 84.5776 376.053 84.9483C375.286 85.1094 374.66 84.8652 374.345 84.6096C374.021 84.3424 373.973 84.1097 374.011 84.0918Z" fill="#FF9A6C"/>
<path fill-rule="evenodd" clip-rule="evenodd" d="M366.086 43.135L324 43.6403C325.337 40.7743 327.696 38.4929 330.253 36.6103C335.763 32.5529 342.51 30.051 349.372 30.0002C356.236 29.9482 370.122 38.3728 375.047 43.1139C378.988 46.9088 378.929 50.1575 378.929 50.1575C379.507 55.5725 376.392 61.6921 375.124 66.9918C374.471 69.7253 373.18 78 373.18 78H373.178C370.859 77.969 370.017 76.131 370.392 73.8633L370.915 64.9495C370.915 64.9495 363.086 59.3153 366.923 49.1828C367.531 48.379 368.848 44.6757 366.086 43.135Z" fill="#1A2E35"/>
<path fill-rule="evenodd" clip-rule="evenodd" d="M357.455 75.715C357.563 75.737 357.671 75.659 357.695 75.541C357.721 75.422 357.652 75.308 357.544 75.285C357.435 75.263 357.328 75.341 357.304 75.459C357.279 75.578 357.347 75.692 357.455 75.715Z" fill="#FF9A6C"/>
<path fill-rule="evenodd" clip-rule="evenodd" d="M352.449 73.7461C352.557 73.7681 352.668 73.6771 352.696 73.5411C352.724 73.4041 352.659 73.2761 352.552 73.2541C352.443 73.2311 352.332 73.3231 352.304 73.4591C352.276 73.5951 352.341 73.7241 352.449 73.7461Z" fill="#FF9A6C"/>
<path fill-rule="evenodd" clip-rule="evenodd" d="M349.456 73.8245C349.565 73.8395 349.674 73.7055 349.698 73.5265C349.722 73.3465 349.652 73.1895 349.543 73.1755C349.434 73.1605 349.325 73.2945 349.302 73.4725C349.277 73.6525 349.347 73.8095 349.456 73.8245Z" fill="#FF9A6C"/>
<path fill-rule="evenodd" clip-rule="evenodd" d="M354.499 77.6285C354.609 77.6295 354.699 77.5715 354.7 77.5015C354.701 77.4315 354.611 77.3725 354.501 77.3715C354.391 77.3715 354.3 77.4275 354.3 77.4985C354.299 77.5685 354.389 77.6275 354.499 77.6285Z" fill="#FF9A6C"/>
<path fill-rule="evenodd" clip-rule="evenodd" d="M350.479 76.7264C350.589 76.7374 350.688 76.6444 350.7 76.5194C350.711 76.3934 350.631 76.2844 350.522 76.2734C350.412 76.2634 350.313 76.3564 350.301 76.4814C350.29 76.6064 350.369 76.7154 350.479 76.7264Z" fill="#FF9A6C"/>
<path fill-rule="evenodd" clip-rule="evenodd" d="M330.454 74.7212C330.562 74.7432 330.671 74.6622 330.696 74.5402C330.722 74.4182 330.654 74.3012 330.546 74.2792C330.437 74.2562 330.329 74.3362 330.304 74.4592C330.278 74.5812 330.346 74.6992 330.454 74.7212Z" fill="#FF9A6C"/>
<path fill-rule="evenodd" clip-rule="evenodd" d="M327.474 73.751C327.582 73.763 327.685 73.66 327.7 73.522C327.714 73.383 327.637 73.261 327.526 73.249C327.415 73.237 327.315 73.341 327.301 73.48C327.287 73.618 327.363 73.74 327.474 73.751Z" fill="#FF9A6C"/>
<path fill-rule="evenodd" clip-rule="evenodd" d="M332.465 74.6725C332.572 74.6945 332.677 74.6365 332.696 74.5405C332.716 74.4455 332.645 74.3515 332.536 74.3275C332.428 74.3055 332.324 74.3645 332.305 74.4595C332.284 74.5545 332.357 74.6505 332.465 74.6725Z" fill="#FF9A6C"/>
<path fill-rule="evenodd" clip-rule="evenodd" d="M330.405 77.7113C330.506 77.7563 330.63 77.6983 330.682 77.5823C330.735 77.4663 330.696 77.3343 330.595 77.2893C330.494 77.2433 330.37 77.3013 330.317 77.4173C330.264 77.5343 330.303 77.6653 330.405 77.7113Z" fill="#FF9A6C"/>
<path fill-rule="evenodd" clip-rule="evenodd" d="M328.543 76.6632C328.65 76.6342 328.717 76.5382 328.693 76.4482C328.67 76.3582 328.564 76.3092 328.457 76.3372C328.35 76.3652 328.282 76.4612 328.307 76.5512C328.33 76.6412 328.437 76.6902 328.543 76.6632Z" fill="#FF9A6C"/>
<mask id="mask0" mask-type="alpha" maskUnits="userSpaceOnUse" x="316" y="22" width="61" height="33">
<path fill-rule="evenodd" clip-rule="evenodd" d="M316.486 22.7666H376.118V54.8113H316.486V22.7666Z" fill="white"/>
</mask>
<g mask="url(#mask0)">
<path fill-rule="evenodd" clip-rule="evenodd" d="M375.672 43.9353C376.779 40.2318 375.751 36.0826 373.424 33.01C371.097 29.9399 367.261 28.1001 363.437 28.2198C361.477 28.2802 359.525 28.8229 357.58 28.5875C353.956 28.1505 351.185 25.1787 347.835 23.7167C342.612 21.4374 335.922 23.3943 332.709 28.1417C331.414 30.0558 330.554 32.4269 328.589 33.6207C326.888 34.6533 324.76 34.5438 322.855 35.1029C319.004 36.2349 316.334 40.3326 316.493 44.3836C316.652 48.4372 319.422 52.1747 323.097 53.7991C326.771 55.4235 331.172 55.0256 334.695 53.0889C337.877 51.3398 340.739 48.3289 344.359 48.4737C348.106 48.6223 351.347 52.2313 355.033 51.5261C356.965 51.1572 358.466 49.67 359.89 48.2999C361.317 46.9298 362.955 45.5358 364.92 45.4389C366.883 45.3407 367.879 48.0795 367.158 49.9307L375.672 43.9353Z" fill="#1A2E35"/>
</g>
<path fill-rule="evenodd" clip-rule="evenodd" d="M325.001 38.5829C324.995 38.5865 325.019 38.6347 325.067 38.7263C325.118 38.8167 325.19 38.9553 325.308 39.1204C325.535 39.459 325.91 39.9399 326.505 40.4545C327.098 40.9667 327.924 41.5078 329.001 41.8753C330.072 42.2453 331.414 42.4116 332.832 42.132C334.24 41.8645 335.733 41.1691 336.895 39.9616C338.063 38.754 338.764 37.1319 339.853 35.7111C340.395 35 341.072 34.3625 341.916 33.9516C342.763 33.5502 343.737 33.361 344.721 33.3863C345.709 33.4189 346.703 33.684 347.589 34.1588C348.473 34.6457 349.2 35.3736 349.685 36.2739C350.187 37.1693 350.542 38.1527 351.146 39.0264C351.722 39.9122 352.742 40.5822 353.833 40.634C354.92 40.7039 355.929 40.3231 356.789 39.8447C357.663 39.3638 358.39 38.7118 359.051 38.0816C360.366 36.8294 361.665 35.5809 363.267 35.2543C364.854 34.9072 366.396 35.4821 367.499 36.2522C368.623 37.0427 369.342 38.0816 369.8 39.0493C370.26 40.0218 370.495 40.9257 370.644 41.6681C370.793 42.4104 370.861 42.9973 370.906 43.3938C370.951 43.7915 370.974 44.0012 370.99 44C370.996 44 371 43.947 371 43.8433C371 43.7409 370.999 43.5878 370.989 43.3878C370.969 42.9865 370.927 42.3948 370.801 41.6403C370.674 40.8871 370.458 39.964 370.008 38.9589C369.561 37.9623 368.833 36.8692 367.67 36.0304C366.533 35.2133 364.915 34.5794 363.195 34.9374C361.46 35.2808 360.104 36.5884 358.789 37.8225C358.122 38.4527 357.429 39.065 356.594 39.5205C355.774 39.9748 354.825 40.3171 353.862 40.2508C352.898 40.1966 352.026 39.6302 351.483 38.8083C350.918 37.9948 350.563 37.021 350.045 36.0883C349.539 35.1434 348.734 34.3336 347.791 33.8202C346.841 33.3128 345.783 33.0344 344.735 33.0019C343.687 32.9778 342.648 33.1827 341.74 33.6177C340.83 34.0648 340.107 34.759 339.55 35.4953C338.434 36.9777 337.754 38.5817 336.646 39.7422C335.55 40.9016 334.125 41.5849 332.773 41.8609C331.413 42.1465 330.121 42.0067 329.075 41.6693C328.025 41.3306 327.206 40.8233 326.609 40.3388C325.416 39.3518 325.047 38.5492 325.001 38.5829Z" fill="#375A64"/>
<path fill-rule="evenodd" clip-rule="evenodd" d="M317.204 39.0001C317.185 38.9948 317.086 39.2891 317.028 39.8462C316.972 40.402 316.982 41.2299 317.215 42.2094C317.452 43.1824 317.925 44.3032 318.722 45.3363C319.515 46.3708 320.637 47.2719 321.941 47.9061C324.58 49.1839 327.27 49.0989 329.084 48.8504C330.003 48.7209 330.734 48.5509 331.234 48.4136C331.736 48.2776 332.006 48.1769 332 48.1494C331.985 48.0775 330.873 48.3639 329.053 48.5522C327.253 48.7222 324.641 48.7484 322.103 47.519C320.849 46.9083 319.77 46.0556 319.002 45.0813C318.226 44.1109 317.745 43.0542 317.484 42.1283C316.965 40.2464 317.291 39.0001 317.204 39.0001Z" fill="#375A64"/>
<mask id="mask1" mask-type="alpha" maskUnits="userSpaceOnUse" x="212" y="152" width="72" height="48">
<path fill-rule="evenodd" clip-rule="evenodd" d="M212 152.355H283.229V199.494H212V152.355Z" fill="white"/>
</mask>
<g mask="url(#mask1)">
<path fill-rule="evenodd" clip-rule="evenodd" d="M263.826 163.009C263.826 163.009 262.01 155.181 254.686 155.574C247.36 155.965 245.583 155.965 242.415 155.574C239.247 155.181 234.346 151.404 232.961 152.582C231.575 153.759 232.349 156.313 234.922 158.581C237.496 160.849 241.916 162.395 241.916 162.395L232.552 163.99C232.552 163.99 224.117 159.529 222.137 160.314C220.157 161.098 220.315 163.271 220.315 163.271C220.315 163.271 216.815 161.711 215.826 163.085C214.835 164.459 214.595 165.376 215.584 166.162C215.584 166.162 214.935 165.525 213.116 166.058C211.562 166.512 211.695 169.351 213.119 170.116L213.599 170.39C213.599 170.39 226.864 177.965 227.269 178.02C229.612 178.327 243.909 177.724 251.27 177.386C253.979 177.26 256.54 178.589 257.987 180.864L269.842 199.494L283.229 184.209L263.826 163.009Z" fill="#C88976"/>
</g>
<path fill-rule="evenodd" clip-rule="evenodd" d="M240 167.568C240.007 167.611 239.198 167.781 237.823 168.033C236.448 168.286 234.507 168.619 232.25 168.99L232.191 169L232.135 168.975C231.195 168.556 230.179 168.106 229.125 167.64C226.363 166.401 223.867 165.282 221.94 164.421C221.087 164.025 220.364 163.692 219.773 163.419C219.265 163.174 218.989 163.028 219 163.004C219.013 162.979 219.31 163.078 219.837 163.279C220.442 163.52 221.183 163.817 222.056 164.166C223.017 164.565 224.12 165.024 225.328 165.527C226.557 166.07 227.892 166.661 229.295 167.282C230.347 167.755 231.36 168.211 232.301 168.636L232.186 168.619C234.448 168.272 236.397 167.989 237.784 167.801C239.17 167.613 239.992 167.524 240 167.568Z" fill="#BF654E"/>
<path fill-rule="evenodd" clip-rule="evenodd" d="M235.999 171.02C236.034 171.133 234.589 171.498 233.2 172.622C231.793 173.726 231.111 175.057 231.01 174.998C230.918 174.977 231.481 173.495 232.964 172.324C234.435 171.14 236.001 170.925 235.999 171.02Z" fill="#BF654E"/>
<path fill-rule="evenodd" clip-rule="evenodd" d="M251.572 160C251.621 159.995 251.656 160.468 251.915 161.228C252.172 161.98 252.7 163.038 253.729 163.938L254 164.175L253.637 164.242C252.523 164.444 251.263 164.788 249.986 165.292C247.803 166.166 246.03 167.367 244.857 168.346C243.677 169.32 243.057 170.044 243.002 169.998C242.98 169.981 243.12 169.787 243.39 169.452C243.668 169.122 244.091 168.659 244.666 168.138C245.807 167.09 247.596 165.821 249.831 164.928C251.136 164.413 252.431 164.074 253.575 163.895L253.484 164.197C252.416 163.216 251.913 162.082 251.707 161.287C251.501 160.482 251.544 160 251.572 160Z" fill="#BF654E"/>
<path fill-rule="evenodd" clip-rule="evenodd" d="M243 162.013C243.033 162.127 240.845 162.844 238.07 163.37C236.683 163.636 235.418 163.817 234.497 163.91C233.579 164.006 233.006 164.023 233 163.971C232.986 163.853 235.24 163.511 237.998 162.976C239.287 162.715 240.458 162.479 241.524 162.262C242.425 162.076 242.984 161.96 243 162.013Z" fill="#BF654E"/>
<path fill-rule="evenodd" clip-rule="evenodd" d="M229.999 171.995C229.972 172.049 229.151 171.672 227.802 171.115C226.455 170.554 224.573 169.841 222.475 169.087C220.376 168.332 218.479 167.626 217.132 167.048C215.783 166.473 214.978 166.053 215 166.006C215.024 165.952 215.866 166.28 217.236 166.784C218.728 167.318 220.571 167.978 222.61 168.709C224.712 169.464 226.592 170.223 227.918 170.854C229.243 171.482 230.023 171.95 229.999 171.995Z" fill="#BF654E"/>
<path fill-rule="evenodd" clip-rule="evenodd" d="M233.999 172.182C234.037 172.261 232.746 172.668 231.049 172.794C229.352 172.927 227.982 172.722 228 172.638C228.012 172.543 229.363 172.599 231.008 172.47C232.652 172.349 233.963 172.09 233.999 172.182Z" fill="#BF654E"/>
<path fill-rule="evenodd" clip-rule="evenodd" d="M417.248 266.286C417.354 266.593 415.687 270.516 414.145 274.032C412.509 277.762 411.789 281.839 412.054 285.914L413.099 301.985C413.099 301.985 415.702 300.952 416.606 299.232C417.512 297.513 417.564 287.512 417.564 287.512L418.093 288.016C420.263 290.09 421.548 292.947 421.667 295.97L421.727 297.504C421.654 298.646 421.454 299.776 421.13 300.872L419.606 304.861C419.089 306.069 419.194 307.338 420.397 307.841C421.482 308.298 422.963 307.928 424.542 304.629C425.425 302.784 427.641 295.962 427.641 295.962C427.641 295.962 429.492 295.834 430.462 295.523C431.433 295.213 432.368 292.53 432.368 292.53C432.368 292.53 435.754 290.801 436.525 290.096C436.869 289.782 437.576 287.356 438.248 284.774C439.336 280.608 439.244 276.214 437.967 272.104L436.072 266L417.65 266.28" fill="#C88976"/>
<path fill-rule="evenodd" clip-rule="evenodd" d="M308.375 127C308.375 127 296.372 133.822 293.858 154.673C292.548 165.542 287.756 185.758 287.756 185.758L277.902 174.812L263 191.672C263 191.672 279.103 225.628 288.236 234.889C297.37 244.15 315.374 247 315.374 247L319 190.246L308.375 127Z" fill="#00A3FF"/>
<path fill-rule="evenodd" clip-rule="evenodd" d="M398.624 117.788L371.22 113L336.284 114.731C336.284 114.731 307.188 126.719 308.669 127.152L303 183.222L317.054 210.312L314.227 268H405.279L404.959 227.884L398.65 179.541L410.62 216.964L412.435 268H439.277C442.111 245.775 443 214.898 443 214.898L421.094 143.468C418.05 133.541 411.495 125 402.539 119.721C400.999 118.812 399.644 118.134 398.624 117.788Z" fill="#00A3FF"/>
<path fill-rule="evenodd" clip-rule="evenodd" d="M308.002 155C308.009 154.999 308.029 155.096 308.066 155.285C308.102 155.496 308.151 155.776 308.213 156.132C308.338 156.9 308.515 157.994 308.744 159.391C309.195 162.224 309.835 166.324 310.573 171.399C311.31 176.476 312.141 182.529 312.932 189.269C313.714 196.01 314.465 203.44 314.888 211.27C314.925 211.998 314.964 212.723 315 213.396V213.404V213.412C314.615 228.603 314.176 242.253 313.775 252.105C313.572 257.03 313.386 261.006 313.227 263.748C313.141 265.101 313.073 266.16 313.027 266.902C313.001 267.248 312.98 267.518 312.963 267.721C313.533 268 312.936 268 312.929 268C312.924 268 312.922 267.905 312.926 267.718C312.933 267.514 312.941 267.244 312.953 266.899C312.982 266.154 313.025 265.095 313.082 263.741C313.184 260.971 313.329 257.002 313.509 252.094C313.842 242.241 314.236 228.59 314.618 213.401V213.416C314.583 212.745 314.544 212.021 314.507 211.293C314.084 203.476 313.345 196.052 312.583 189.315C311.812 182.577 311.008 176.522 310.306 171.442C309.588 166.383 309.004 162.279 308.597 159.416C308.4 158.014 308.246 156.916 308.137 156.145C308.091 155.787 308.055 155.505 308.027 155.293C308.005 155.101 307.995 155.001 308.002 155Z" fill="#1A2E35"/>
<path fill-rule="evenodd" clip-rule="evenodd" d="M392.528 158C392.514 158.002 392.484 157.879 392.44 157.641C392.393 157.353 392.336 157.009 392.266 156.595C392.231 156.36 392.193 156.107 392.151 155.837C392.12 155.558 392.109 155.254 392.085 154.927C392.052 154.274 391.969 153.529 392.012 152.705C392.022 152.29 392.032 151.858 392.041 151.408C392.055 150.959 392.125 150.495 392.168 150.011C392.234 149.04 392.444 148.023 392.635 146.949C393.108 144.817 393.827 142.515 394.88 140.222C395.962 137.942 397.266 135.911 398.597 134.18C399.298 133.342 399.942 132.529 400.644 131.855C400.988 131.511 401.299 131.161 401.635 130.861C401.973 130.564 402.298 130.28 402.611 130.006C403.214 129.443 403.838 129.029 404.361 128.634C404.626 128.443 404.866 128.256 405.1 128.101C405.334 127.957 405.553 127.826 405.756 127.702C406.118 127.488 406.419 127.312 406.669 127.164C406.879 127.045 406.993 126.989 407 127.002C407.007 127.013 406.907 127.093 406.711 127.234C406.473 127.399 406.186 127.597 405.844 127.836C405.647 127.966 405.437 128.109 405.212 128.261C404.985 128.423 404.753 128.619 404.496 128.818C403.992 129.226 403.385 129.652 402.8 130.224C402.497 130.5 402.18 130.788 401.852 131.087C401.525 131.391 401.222 131.744 400.889 132.088C400.205 132.764 399.578 133.579 398.894 134.412C397.595 136.134 396.318 138.143 395.249 140.394C394.211 142.658 393.49 144.927 393.003 147.029C392.804 148.087 392.583 149.09 392.503 150.05C392.453 150.525 392.378 150.985 392.355 151.429C392.336 151.873 392.318 152.3 392.3 152.71C392.239 153.527 392.301 154.265 392.313 154.914C392.325 155.238 392.324 155.541 392.345 155.82C392.373 156.091 392.399 156.343 392.424 156.575C392.463 156.993 392.495 157.341 392.522 157.627C392.539 157.87 392.542 157.997 392.528 158Z" fill="#1A2E35"/>
<path fill-rule="evenodd" clip-rule="evenodd" d="M409.997 216C409.983 216.004 409.921 215.844 409.815 215.537C409.7 215.188 409.551 214.74 409.369 214.188C408.977 212.966 408.439 211.277 407.779 209.215C406.441 205.013 404.598 199.21 402.484 192.823C400.364 186.44 398.403 180.665 396.823 176.558C396.001 174.517 395.201 172.916 394.711 171.781C394.463 171.216 394.279 170.773 394.161 170.47C394.044 170.166 393.988 170.005 394.002 170C394.015 169.994 394.096 170.145 394.237 170.437C394.398 170.768 394.604 171.193 394.858 171.716C395.39 172.828 396.231 174.41 397.092 176.451C398.752 180.554 400.753 186.309 402.874 192.699C404.99 199.088 406.789 204.909 408.057 209.132C408.692 211.244 409.188 212.957 409.523 214.144C409.675 214.704 409.799 215.159 409.896 215.514C409.976 215.827 410.011 215.995 409.997 216Z" fill="#1A2E35"/>
<path fill-rule="evenodd" clip-rule="evenodd" d="M430 215.109C429.98 215.175 428.979 214.892 427.327 214.646C425.677 214.395 423.359 214.241 420.825 214.502C418.29 214.772 416.062 215.404 414.505 215.99C412.947 216.574 412.034 217.055 412.001 216.995C411.986 216.973 412.204 216.835 412.611 216.603C413.014 216.366 413.626 216.067 414.399 215.74C415.945 215.083 418.202 214.398 420.781 214.123C423.36 213.857 425.717 214.059 427.375 214.38C428.204 214.539 428.868 214.703 429.315 214.852C429.765 214.993 430.008 215.085 430 215.109Z" fill="#1A2E35"/>
<path fill-rule="evenodd" clip-rule="evenodd" d="M308.998 211C308.971 211.015 308.73 210.624 308.281 209.936C307.81 209.26 307.116 208.291 306.186 207.144C304.349 204.835 301.648 201.771 298.648 198.402C295.644 195.034 292.928 191.978 291.011 189.725C290.055 188.597 289.286 187.679 288.772 187.03C288.256 186.383 287.979 186.018 288.001 186.001C288.021 185.984 288.338 186.316 288.89 186.931C289.488 187.597 290.274 188.477 291.225 189.54C293.244 191.789 295.954 194.805 298.949 198.138C301.951 201.509 304.622 204.607 306.41 206.972C307.315 208.144 307.98 209.146 308.413 209.854C308.628 210.209 308.767 210.501 308.868 210.694C308.966 210.888 309.01 210.993 308.998 211Z" fill="#1A2E35"/>
<path opacity="0.236305" fill-rule="evenodd" clip-rule="evenodd" d="M314.337 247C314.797 231.19 315.648 216.611 314.162 201C313.499 214.855 308.266 231.072 303 243.977L314.337 247Z" fill="black"/>
<path opacity="0.236305" fill-rule="evenodd" clip-rule="evenodd" d="M398.042 179.077C398.042 179.077 393.74 169 394.033 169C393.609 187.86 397.272 209.503 404 227L398.042 179.077Z" fill="black"/>
<path fill-rule="evenodd" clip-rule="evenodd" d="M386 232.001C386.006 232.014 385.82 232.127 385.459 232.335C385.066 232.558 384.538 232.855 383.877 233.227C382.508 234.013 380.526 235.147 378.102 236.59C375.673 238.023 372.792 239.754 369.514 241.554C366.229 243.334 362.533 245.185 358.436 246.631C354.333 248.032 350.239 248.991 346.435 249C344.537 249.004 342.731 248.756 341.114 248.271C339.495 247.786 338.088 247.034 336.965 246.163C334.714 244.395 333.597 242.276 333.242 240.768C333.049 240.012 333.004 239.405 333 238.998C333.01 238.589 333.023 238.376 333.036 238.376C333.099 238.372 332.972 239.248 333.396 240.727C333.79 242.196 334.924 244.244 337.144 245.943C338.253 246.782 339.625 247.496 341.212 247.958C342.796 248.417 344.567 248.649 346.432 248.636C350.171 248.609 354.228 247.65 358.296 246.258C362.361 244.826 366.045 242.992 369.331 241.234C372.61 239.459 375.504 237.754 377.954 236.35C380.397 234.937 382.404 233.839 383.798 233.093C384.477 232.748 385.017 232.472 385.42 232.266C385.793 232.08 385.992 231.989 386 232.001Z" fill="#1A2E35"/>
<path fill-rule="evenodd" clip-rule="evenodd" d="M385.996 209C386.023 209.007 385.914 209.481 385.69 210.335C385.586 210.763 385.442 211.283 385.231 211.876C385.024 212.468 384.819 213.155 384.502 213.88C384.209 214.616 383.879 215.418 383.457 216.251C383.075 217.101 382.575 217.966 382.066 218.885C380.992 220.691 379.681 222.607 378.115 224.479C376.528 226.333 374.847 227.956 373.229 229.329C372.398 229.993 371.621 230.637 370.836 231.169C370.077 231.732 369.33 232.202 368.643 232.625C367.971 233.068 367.317 233.397 366.757 233.708C366.2 234.025 365.703 234.263 365.289 234.447C364.47 234.826 364.012 235.022 364 234.998C363.988 234.972 364.422 234.728 365.215 234.31C365.616 234.105 366.101 233.848 366.643 233.516C367.187 233.186 367.827 232.845 368.485 232.389C369.156 231.953 369.887 231.474 370.632 230.903C371.402 230.365 372.165 229.716 372.979 229.052C374.569 227.676 376.226 226.063 377.796 224.225C379.346 222.373 380.655 220.482 381.736 218.702C382.249 217.797 382.758 216.946 383.149 216.109C383.581 215.289 383.923 214.499 384.233 213.776C384.564 213.062 384.786 212.387 385.012 211.804C385.242 211.222 385.408 210.711 385.538 210.292C385.807 209.454 385.968 208.994 385.996 209Z" fill="#1A2E35"/>
<path opacity="0.236305" fill-rule="evenodd" clip-rule="evenodd" d="M366.325 234.326C362.327 236.52 356.936 236.869 352.122 236.993C351.215 237.015 350.272 237.009 349.444 236.649C348.615 236.29 347.927 235.485 348.006 234.612C348.104 233.562 349.188 232.884 350.197 232.481C354.082 230.928 358.448 231.017 362.528 230.026C369.486 228.338 376.582 223.544 382 219C377.868 225.727 373.325 230.278 366.325 234.326Z" fill="black"/>
<path fill-rule="evenodd" clip-rule="evenodd" d="M336.297 90.3345C336.634 91.1608 336.978 92.0003 337.543 92.7011C338.107 93.4007 338.932 93.9556 339.847 93.9974C340.823 94.0429 341.764 93.4832 342.308 92.6975C342.852 91.9106 343.037 90.93 342.994 89.9841C342.953 89.1291 342.55 88.109 341.673 88.0074C341.308 87.9667 340.949 88.1018 340.608 88.2358C339.073 88.8397 337.536 89.4448 336 90.0487" fill="#BF654E"/>
<path fill-rule="evenodd" clip-rule="evenodd" d="M337.193 93.5833C337.219 93.4409 338.292 93.846 339.799 93.284C340.529 93.0103 341.328 92.4689 341.768 91.6185C342.209 90.7779 342.295 89.6404 341.834 88.6441C341.726 88.3959 341.564 88.1684 341.407 87.9652C341.214 87.7767 341.249 87.7852 341.037 87.8144C340.839 87.8643 340.518 88.0042 340.255 88.099C339.983 88.2025 339.715 88.3046 339.454 88.4032C338.408 88.7973 337.461 89.1416 336.661 89.419C335.061 89.975 334.049 90.2669 334.002 90.1647C333.953 90.0613 334.88 89.5832 336.418 88.8922C337.188 88.5455 338.109 88.1477 339.138 87.7171C339.396 87.6088 339.661 87.4993 339.929 87.3874C340.214 87.2779 340.432 87.1599 340.82 87.0455C341.011 86.9956 341.282 86.9677 341.545 87.065C341.802 87.1623 341.963 87.3241 342.083 87.4616C342.302 87.7304 342.495 88.009 342.632 88.3229C343.208 89.565 343.069 90.9397 342.485 91.9592C341.887 93.0005 340.87 93.5857 340.004 93.8241C339.126 94.076 338.369 94.0151 337.888 93.902C337.403 93.7828 337.174 93.6283 337.193 93.5833Z" fill="#1A2E35"/>
<path fill-rule="evenodd" clip-rule="evenodd" d="M363.812 43C363.759 42.9939 363.957 42.3962 363.819 41.3244C363.683 40.2708 363.079 38.7284 361.622 37.4353C360.208 36.1068 357.878 35.3148 355.294 35.3783C352.693 35.3991 349.929 36.2412 347.072 37.1884C345.636 37.6541 344.221 38.099 342.816 38.4045C341.41 38.7039 340.026 38.8653 338.706 38.8983C336.059 38.9753 333.691 38.5512 331.782 38C329.871 37.428 328.414 36.7301 327.447 36.1911C326.961 35.9259 326.6 35.6924 326.358 35.5287C326.116 35.3673 325.993 35.2769 326 35.2647C326.024 35.2292 326.538 35.5604 327.524 36.0505C328.506 36.5431 329.968 37.1933 331.862 37.7237C333.757 38.2322 336.094 38.6196 338.694 38.5218C339.992 38.4803 341.348 38.3141 342.728 38.0158C344.106 37.7091 345.507 37.2679 346.942 36.8022C349.795 35.855 352.618 35.0031 355.289 35.0019C357.943 34.9542 360.375 35.8122 361.822 37.2239C363.308 38.5939 363.889 40.2146 363.981 41.306C364.071 42.417 363.812 43 363.812 43Z" fill="#375A64"/>
<path fill-rule="evenodd" clip-rule="evenodd" d="M374.996 66.9996C374.984 67.007 374.918 66.9068 374.807 66.7088C374.691 66.5133 374.541 66.2151 374.357 65.8266C373.996 65.047 373.545 63.8825 373.206 62.3868C372.879 60.8912 372.671 59.0595 372.834 57.036C372.967 55.0015 373.629 52.8546 374.124 50.6062C374.638 48.364 374.758 46.1315 374.136 44.2437C373.839 43.3052 373.354 42.4816 372.752 41.8328C372.146 41.1998 371.405 40.7673 370.675 40.529C369.205 40.0329 367.879 40.2565 367.109 40.6158C366.333 40.9958 366.036 41.3966 366 41.3611C366 41.3611 366.245 40.9188 367.033 40.4752C367.814 40.0537 369.208 39.769 370.772 40.2553C371.547 40.4911 372.348 40.9322 373.013 41.6067C373.663 42.2812 374.189 43.15 374.51 44.1312C375.183 46.0985 375.061 48.4202 374.541 50.6881C374.037 52.967 373.375 55.0797 373.224 57.0666C373.043 59.0485 373.215 60.8497 373.501 62.3294C373.797 63.8116 374.199 64.9761 374.51 65.7667C374.822 66.5585 375.031 66.9837 374.996 66.9996Z" fill="#375A64"/>
<path fill-rule="evenodd" clip-rule="evenodd" d="M365.729 42C365.714 41.9987 365.718 41.8015 365.735 41.4285C365.751 41.0141 365.77 40.4715 365.796 39.797C365.809 38.3916 365.855 36.3042 365.145 33.8889C364.782 32.6945 364.188 31.431 363.264 30.3006C362.349 29.1715 361.065 28.1856 359.489 27.7799C357.921 27.3478 356.157 27.4998 354.45 27.9884C352.73 28.477 351.074 29.3448 349.411 30.2969C347.745 31.2451 346.117 32.2122 344.415 32.8929C342.704 33.5561 340.945 33.9053 339.265 33.9379C337.584 33.9756 335.985 33.7583 334.548 33.3526C333.112 32.9407 331.831 32.3793 330.722 31.7601C328.518 30.4802 327.057 28.9718 326.192 27.8527C325.746 27.2989 325.457 26.8266 325.273 26.5001C325.083 26.1785 324.989 26.0077 325.001 26.0002C325.014 25.9939 325.132 26.1509 325.344 26.4548C325.551 26.7651 325.856 27.2172 326.318 27.7497C327.211 28.8261 328.681 30.2768 330.865 31.5013C331.964 32.0929 333.227 32.6279 334.636 33.0173C336.05 33.3991 337.615 33.6001 339.253 33.5511C340.894 33.5084 342.6 33.163 344.263 32.5111C345.925 31.8417 347.535 30.8834 349.207 29.9314C350.874 28.9768 352.568 28.0926 354.338 27.5928C356.096 27.0966 357.935 26.9409 359.588 27.4069C361.249 27.8452 362.595 28.899 363.53 30.0796C364.477 31.2652 365.071 32.5714 365.426 33.8048C366.116 36.2878 366.019 38.3928 365.957 39.8033C365.914 40.5142 365.86 41.0643 365.819 41.4361C365.775 41.8078 365.744 42.0012 365.729 42Z" fill="#375A64"/>
<mask id="mask2" mask-type="alpha" maskUnits="userSpaceOnUse" x="267" y="540" width="53" height="42">
<path fill-rule="evenodd" clip-rule="evenodd" d="M267.517 540.379H319.892V582H267.517V540.379Z" fill="white"/>
</mask>
<g mask="url(#mask2)">
<path fill-rule="evenodd" clip-rule="evenodd" d="M292.551 541.272L294.419 566.85C294.419 566.85 267.657 577.241 267.517 582.001L319.892 580.346L318.706 540.379L292.551 541.272Z" fill="#D51335"/>
</g>
<path fill-rule="evenodd" clip-rule="evenodd" d="M310.442 564.074C311.442 564.312 312.164 565.409 311.968 566.422C311.771 567.435 310.668 568.183 309.663 567.961C308.659 567.74 307.753 566.45 308.061 565.465C308.369 564.48 309.713 563.675 310.634 564.131" fill="#E1E1E1"/>
<mask id="mask3" mask-type="alpha" maskUnits="userSpaceOnUse" x="267" y="576" width="53" height="6">
<path fill-rule="evenodd" clip-rule="evenodd" d="M267.487 576.47H319.893V581.833H267.487V576.47Z" fill="white"/>
</mask>
<g mask="url(#mask3)">
<path fill-rule="evenodd" clip-rule="evenodd" d="M319.893 580.271L319.608 576.47L269.497 579.39C269.497 579.39 267.199 580.369 267.518 581.834L319.893 580.271Z" fill="#E1E1E1"/>
</g>
<path fill-rule="evenodd" clip-rule="evenodd" d="M293.002 566.256C293.02 566.503 294.336 566.574 295.656 567.328C296.998 568.049 297.7 569.098 297.939 568.993C298.18 568.937 297.735 567.473 296.12 566.588C294.514 565.688 292.937 566.031 293.002 566.256Z" fill="#1A2E35"/>
<path fill-rule="evenodd" clip-rule="evenodd" d="M288.002 569.114C287.946 569.365 289.197 569.764 290.205 570.821C291.247 571.852 291.534 573.018 291.82 573C292.088 573.031 292.23 571.522 290.948 570.23C289.68 568.926 287.999 568.869 288.002 569.114Z" fill="#1A2E35"/>
<path fill-rule="evenodd" clip-rule="evenodd" d="M284.776 574.999C284.966 575.042 285.22 573.856 284.65 572.589C284.087 571.316 283.095 570.844 283.013 571.044C282.901 571.242 283.551 571.909 284.004 572.959C284.481 573.995 284.569 574.983 284.776 574.999Z" fill="#1A2E35"/>
<path fill-rule="evenodd" clip-rule="evenodd" d="M294.009 560.811C294.114 560.988 295.178 560.687 296.503 560.725C297.829 560.741 298.874 561.084 298.989 560.913C299.119 560.767 298.086 560.068 296.524 560.04C294.961 560.003 293.889 560.66 294.009 560.811Z" fill="#1A2E35"/>
<path fill-rule="evenodd" clip-rule="evenodd" d="M293 554.829C293.001 554.921 294.036 555.028 295.668 554.743C296.482 554.599 297.436 554.345 298.431 553.937C298.928 553.731 299.435 553.489 299.936 553.204C300.176 553.063 300.462 552.92 300.722 552.649C301.002 552.411 301.142 551.821 300.795 551.473C300.508 551.133 300.019 550.997 299.635 551C299.243 551 298.927 551.075 298.638 551.145C298.05 551.284 297.5 551.467 297 551.674C295.997 552.096 295.189 552.615 294.592 553.114C293.395 554.119 293.005 554.955 293.095 554.995C293.216 555.065 293.791 554.357 295.017 553.52C295.629 553.104 296.413 552.669 297.352 552.317C297.822 552.142 298.331 551.989 298.868 551.872C299.428 551.731 299.907 551.714 300.06 551.923C300.116 552.001 300.124 552.035 300.012 552.178C299.894 552.31 299.672 552.443 299.434 552.583C298.974 552.857 298.508 553.097 298.052 553.306C297.137 553.723 296.26 554.014 295.506 554.217C293.993 554.62 292.991 554.71 293 554.829Z" fill="#1A2E35"/>
<path fill-rule="evenodd" clip-rule="evenodd" d="M293.427 555.999C293.513 556.034 293.963 555.13 293.998 553.521C294.015 552.725 293.903 551.764 293.572 550.751C293.403 550.247 293.18 549.732 292.893 549.229C292.586 548.738 292.212 548.079 291.273 548C290.784 547.997 290.391 548.405 290.264 548.744C290.111 549.093 290.088 549.389 290.04 549.685C289.968 550.281 289.998 550.862 290.094 551.397C290.285 552.471 290.743 553.355 291.234 553.985C292.243 555.268 293.257 555.53 293.275 555.445C293.352 555.318 292.496 554.869 291.717 553.63C291.333 553.02 290.983 552.209 290.857 551.268C290.793 550.8 290.786 550.301 290.855 549.798C290.915 549.256 291.097 548.815 291.296 548.864C291.541 548.85 291.972 549.243 292.187 549.667C292.456 550.112 292.673 550.571 292.845 551.022C293.184 551.928 293.347 552.803 293.405 553.543C293.521 555.028 293.295 555.966 293.427 555.999Z" fill="#1A2E35"/>
<mask id="mask4" mask-type="alpha" maskUnits="userSpaceOnUse" x="333" y="540" width="54" height="42">
<path fill-rule="evenodd" clip-rule="evenodd" d="M333.831 540.379H386.206V582H333.831V540.379Z" fill="white"/>
</mask>
<g mask="url(#mask4)">
<path fill-rule="evenodd" clip-rule="evenodd" d="M358.866 541.272L360.733 566.85C360.733 566.85 333.972 577.241 333.831 582.001L386.206 580.346L385.021 540.379L358.866 541.272Z" fill="#D51335"/>
</g>
<path fill-rule="evenodd" clip-rule="evenodd" d="M376.442 564.074C377.442 564.312 378.164 565.409 377.968 566.422C377.771 567.435 376.668 568.183 375.663 567.961C374.659 567.74 373.753 566.45 374.061 565.465C374.369 564.48 375.713 563.675 376.634 564.131" fill="#E1E1E1"/>
<mask id="mask5" mask-type="alpha" maskUnits="userSpaceOnUse" x="333" y="576" width="54" height="6">
<path fill-rule="evenodd" clip-rule="evenodd" d="M333.801 576.47H386.206V581.833H333.801V576.47Z" fill="white"/>
</mask>
<g mask="url(#mask5)">
<path fill-rule="evenodd" clip-rule="evenodd" d="M386.206 580.271L385.921 576.47L335.81 579.39C335.81 579.39 333.512 580.369 333.831 581.834L386.206 580.271Z" fill="#E1E1E1"/>
</g>
<path fill-rule="evenodd" clip-rule="evenodd" d="M360.002 566.256C360.02 566.503 361.336 566.574 362.656 567.328C363.998 568.049 364.7 569.098 364.939 568.993C365.18 568.937 364.735 567.473 363.12 566.588C361.514 565.688 359.937 566.031 360.002 566.256Z" fill="#1A2E35"/>
<path fill-rule="evenodd" clip-rule="evenodd" d="M354.002 569.114C353.946 569.365 355.197 569.764 356.205 570.821C357.247 571.852 357.534 573.018 357.82 573C358.088 573.031 358.23 571.522 356.948 570.23C355.68 568.926 353.999 568.869 354.002 569.114Z" fill="#1A2E35"/>
<path fill-rule="evenodd" clip-rule="evenodd" d="M350.776 574.999C350.966 575.042 351.22 573.856 350.65 572.589C350.087 571.316 349.095 570.844 349.013 571.044C348.901 571.242 349.551 571.909 350.004 572.959C350.481 573.995 350.569 574.983 350.776 574.999Z" fill="#1A2E35"/>
<path fill-rule="evenodd" clip-rule="evenodd" d="M360.009 560.811C360.114 560.988 361.178 560.687 362.503 560.725C363.829 560.741 364.874 561.084 364.989 560.913C365.119 560.767 364.086 560.068 362.524 560.04C360.961 560.003 359.889 560.66 360.009 560.811Z" fill="#1A2E35"/>
<path fill-rule="evenodd" clip-rule="evenodd" d="M360 554.829C360.001 554.921 361.036 555.028 362.668 554.743C363.482 554.599 364.436 554.345 365.431 553.937C365.928 553.731 366.435 553.489 366.936 553.204C367.176 553.063 367.462 552.92 367.722 552.649C368.002 552.411 368.142 551.821 367.795 551.473C367.508 551.133 367.019 550.997 366.635 551C366.243 551 365.927 551.075 365.638 551.145C365.05 551.284 364.5 551.467 364 551.674C362.997 552.096 362.189 552.615 361.592 553.114C360.395 554.119 360.005 554.955 360.095 554.995C360.216 555.065 360.791 554.357 362.017 553.52C362.629 553.104 363.413 552.669 364.352 552.317C364.822 552.142 365.331 551.989 365.868 551.872C366.428 551.731 366.907 551.714 367.06 551.923C367.116 552.001 367.124 552.035 367.012 552.178C366.894 552.31 366.672 552.443 366.434 552.583C365.974 552.857 365.508 553.097 365.052 553.306C364.137 553.723 363.26 554.014 362.506 554.217C360.993 554.62 359.991 554.71 360 554.829Z" fill="#1A2E35"/>
<path fill-rule="evenodd" clip-rule="evenodd" d="M360.427 555.999C360.513 556.034 360.963 555.13 360.998 553.521C361.015 552.725 360.903 551.764 360.572 550.751C360.403 550.247 360.18 549.732 359.893 549.229C359.586 548.738 359.212 548.079 358.273 548C357.784 547.997 357.391 548.405 357.264 548.744C357.111 549.093 357.088 549.389 357.04 549.685C356.968 550.281 356.998 550.862 357.094 551.397C357.285 552.471 357.743 553.355 358.234 553.985C359.243 555.268 360.257 555.53 360.275 555.445C360.352 555.318 359.496 554.869 358.717 553.63C358.333 553.02 357.983 552.209 357.857 551.268C357.793 550.8 357.786 550.301 357.855 549.798C357.915 549.256 358.097 548.815 358.296 548.864C358.541 548.85 358.972 549.243 359.187 549.667C359.456 550.112 359.673 550.571 359.845 551.022C360.184 551.928 360.347 552.803 360.405 553.543C360.521 555.028 360.295 555.966 360.427 555.999Z" fill="#1A2E35"/>
<path fill-rule="evenodd" clip-rule="evenodd" d="M400 289.296L392.38 562L351.7 560.833L342 280L400 289.296Z" fill="#1A2E35"/>
<path fill-rule="evenodd" clip-rule="evenodd" d="M316.083 279C316.083 279 286.003 394.508 285.08 414.205C284.158 433.9 291.517 557 291.517 557H331.184L327.872 416.815L358 298.182L350.707 279.607L316.083 279Z" fill="#1A2E35"/>
<path fill-rule="evenodd" clip-rule="evenodd" d="M340.018 294C340.004 294 339.999 294.125 340 294.368C340.006 294.651 340.014 295.007 340.024 295.446C340.063 296.448 340.117 297.832 340.187 299.587C340.362 303.238 340.613 308.424 340.922 314.808C341.617 327.706 342.571 345.432 343.628 365.011C344.769 384.596 345.802 402.319 346.553 415.214C346.961 421.594 347.291 426.777 347.525 430.425C347.653 432.178 347.754 433.56 347.826 434.559C347.867 434.997 347.899 435.35 347.923 435.634C347.951 435.876 347.971 436 347.982 436C347.996 436 348.001 435.875 348 435.632C347.994 435.348 347.986 434.994 347.976 434.555C347.938 433.555 347.884 432.172 347.816 430.416C347.638 426.766 347.389 421.581 347.08 415.196C346.384 402.299 345.429 384.57 344.372 364.98C343.232 345.402 342.198 327.677 341.447 314.782C341.04 308.401 340.709 303.221 340.475 299.571C340.348 297.819 340.247 296.438 340.174 295.438C340.134 295.001 340.101 294.646 340.077 294.365C340.049 294.123 340.03 293.999 340.018 294Z" fill="#375A64"/>
<path fill-rule="evenodd" clip-rule="evenodd" d="M404.433 265.495C404.433 265.495 408.381 288.552 395.44 288.969C377.68 289.543 350.701 281.935 350.701 281.935L317.944 278.85C317.944 278.85 314.678 280.341 314.016 269.099C313.355 257.856 332.936 265.6 332.936 265.6L404.433 265.495Z" fill="#00A3FF"/>
<path fill-rule="evenodd" clip-rule="evenodd" d="M223.137 107.095C223.071 116.886 223.02 132.696 223 139.958C222.994 142.099 224.736 143.84 226.898 143.852L253.876 144C256.042 144.011 257.807 142.281 257.818 140.137L258 107.561C258.026 102.797 254.152 98.9142 249.346 98.8881L249.373 94.0969L231.705 94L231.679 98.5291L231.615 98.5316C226.92 98.6508 223.167 102.441 223.137 107.095Z" fill="#AAE6FF"/>
<path fill-rule="evenodd" clip-rule="evenodd" d="M232.013 95L232 97.2564L249.983 98L250 95.0991L232.013 95Z" fill="#E1E1E1"/>
<path fill-rule="evenodd" clip-rule="evenodd" d="M249.531 96L232.428 95.9057C231.08 95.8981 229.992 94.7901 230 93.4313L230.015 90.7888C230.025 88.6849 231.729 86.9886 233.816 87.0001L248.241 87.0803C250.328 87.0918 252.011 88.8072 252 90.911L251.985 93.5535C251.978 94.9124 250.879 96.0076 249.531 96Z" fill="#D51335"/>
<path fill-rule="evenodd" clip-rule="evenodd" d="M232.481 96C232.378 96 232.304 93.9832 232.315 91.5C232.326 89.0129 232.417 86.9987 232.519 87C232.622 87 232.696 89.0168 232.685 91.5026C232.674 93.9858 232.583 96.0013 232.481 96Z" fill="#E1E1E1"/>
<path fill-rule="evenodd" clip-rule="evenodd" d="M235.481 96C235.378 95.9987 235.304 93.9835 235.315 91.4994C235.326 89.0139 235.418 87 235.519 87C235.622 87.0013 235.696 89.0165 235.685 91.5019C235.674 93.9861 235.584 96.0013 235.481 96Z" fill="#E1E1E1"/>
<path fill-rule="evenodd" clip-rule="evenodd" d="M237.481 96C237.379 96 237.305 93.9832 237.315 91.5C237.326 89.0129 237.418 86.9987 237.52 87C237.622 87 237.696 89.0168 237.685 91.5026C237.675 93.9858 237.584 96.0013 237.481 96Z" fill="#E1E1E1"/>
<path fill-rule="evenodd" clip-rule="evenodd" d="M239.481 96C239.378 95.9987 239.304 93.9835 239.315 91.4994C239.326 89.0139 239.417 87 239.519 87C239.622 87.0013 239.696 89.0165 239.685 91.5019C239.674 93.9861 239.583 96.0013 239.481 96Z" fill="#E1E1E1"/>
<path fill-rule="evenodd" clip-rule="evenodd" d="M242.481 96C242.378 95.9987 242.304 93.9822 242.315 91.4994C242.326 89.0139 242.418 86.9987 242.519 87C242.622 87 242.696 89.0165 242.685 91.5019C242.674 93.9848 242.584 96 242.481 96Z" fill="#E1E1E1"/>
<path fill-rule="evenodd" clip-rule="evenodd" d="M244.481 96C244.378 95.9987 244.304 93.9835 244.315 91.4994C244.326 89.0139 244.418 87 244.52 87C244.622 87.0013 244.696 89.0165 244.685 91.5019C244.674 93.9861 244.584 96.0013 244.481 96Z" fill="#E1E1E1"/>
<path fill-rule="evenodd" clip-rule="evenodd" d="M246.481 96C246.378 95.9987 246.304 93.9822 246.315 91.4994C246.326 89.0139 246.417 86.9987 246.519 87C246.622 87 246.696 89.0165 246.685 91.5019C246.674 93.9848 246.583 96 246.481 96Z" fill="#E1E1E1"/>
<path fill-rule="evenodd" clip-rule="evenodd" d="M249.481 96C249.378 95.9987 249.304 93.9835 249.315 91.4994C249.326 89.0139 249.418 87 249.519 87C249.622 87.0013 249.696 89.0165 249.685 91.5019C249.674 93.9861 249.583 96.0013 249.481 96Z" fill="#E1E1E1"/>
<path fill-rule="evenodd" clip-rule="evenodd" d="M251.088 129L229.82 128.88C228.81 128.874 227.995 128.031 228 126.996L228.072 113.862C228.077 112.828 228.9 111.994 229.912 112L251.18 112.12C252.19 112.126 253.005 112.969 253 114.004L252.928 127.138C252.922 128.172 252.099 129.006 251.088 129Z" fill="#00A3FF"/>
<path fill-rule="evenodd" clip-rule="evenodd" d="M251.729 127.91C251.722 127.903 251.715 127.808 251.71 127.629C251.705 127.42 251.701 127.163 251.695 126.848C251.686 126.129 251.676 125.146 251.662 123.907C251.653 121.348 251.64 117.742 251.624 113.357L251.808 113.544C245.611 113.523 237.787 113.498 229.299 113.468C229.245 113.518 229.745 113.032 229.534 113.241V113.245V113.251V113.266V113.297L229.533 113.356V113.478L229.531 113.72L229.529 114.203L229.523 115.164C229.519 115.804 229.515 116.436 229.511 117.066C229.504 118.324 229.495 119.565 229.487 120.782C229.468 123.216 229.451 125.56 229.434 127.788L229.219 127.573C235.783 127.652 241.372 127.719 245.372 127.767C247.332 127.802 248.901 127.831 250.028 127.849C250.544 127.863 250.959 127.875 251.28 127.883C251.568 127.892 251.72 127.901 251.729 127.91C251.738 127.918 251.601 127.926 251.33 127.934C251.018 127.937 250.619 127.944 250.121 127.952C249.004 127.96 247.453 127.971 245.512 127.985C241.477 127.987 235.839 127.994 229.216 128H229L229.001 127.785C229.009 125.557 229.018 123.214 229.027 120.78C229.031 119.563 229.037 118.322 229.043 117.064C229.046 116.435 229.05 115.801 229.053 115.162L229.058 114.201L229.061 113.718L229.062 113.475V113.354L229.064 113.295V113.263V113.248V113.242V113.238C228.851 113.443 229.351 112.953 229.301 113.004C237.79 113.069 245.613 113.128 251.811 113.174L252 113.177L251.997 113.36C251.931 117.791 251.878 121.436 251.84 124.022C251.812 125.244 251.791 126.212 251.775 126.922C251.765 127.223 251.757 127.468 251.751 127.669C251.743 127.834 251.736 127.917 251.729 127.91Z" fill="#E1E1E1"/>
<path fill-rule="evenodd" clip-rule="evenodd" d="M249 117.533C248.999 117.636 245.64 117.704 241.498 117.685C237.355 117.667 233.999 117.569 234 117.467C234 117.365 237.358 117.297 241.501 117.315C245.644 117.333 249 117.431 249 117.533Z" fill="#E1E1E1"/>
<path fill-rule="evenodd" clip-rule="evenodd" d="M248 120.534C248 120.636 244.641 120.704 240.498 120.685C236.356 120.667 232.999 120.569 233 120.468C233 120.365 236.359 120.297 240.501 120.315C244.644 120.334 248.001 120.431 248 120.534Z" fill="#E1E1E1"/>
<path fill-rule="evenodd" clip-rule="evenodd" d="M248 122.534C247.999 122.637 244.641 122.704 240.498 122.685C236.355 122.668 232.999 122.57 233 122.468C233 122.365 236.358 122.298 240.501 122.315C244.644 122.334 248.001 122.431 248 122.534Z" fill="#E1E1E1"/>
<path fill-rule="evenodd" clip-rule="evenodd" d="M248 98.536C247.999 98.639 244.418 98.705 240 98.685C235.581 98.665 232 98.566 232 98.464C232.001 98.362 235.583 98.295 240.002 98.315C244.42 98.335 248.001 98.434 248 98.536Z" fill="#E1E1E1"/>
<path fill-rule="evenodd" clip-rule="evenodd" d="M225.109 138C225.079 138 225.055 137.452 225.038 136.461C225.03 135.393 225.017 133.979 225.004 132.264C224.992 128.721 225.007 123.826 225.049 118.421C225.077 115.72 225.103 113.148 225.127 110.797C225.147 108.458 225.368 106.281 226.084 104.634C226.783 102.983 227.835 101.957 228.646 101.487C229.053 101.24 229.402 101.133 229.634 101.061C229.872 101.009 229.996 100.989 230 101.005C230.012 101.051 229.5 101.133 228.729 101.64C227.971 102.141 226.994 103.164 226.356 104.765C225.702 106.362 225.514 108.474 225.514 110.803C225.502 113.154 225.487 115.725 225.471 118.425C225.429 123.83 225.368 128.724 225.302 132.267C225.261 133.981 225.227 135.395 225.202 136.462C225.169 137.453 225.137 138 225.109 138Z" fill="white"/>
<path fill-rule="evenodd" clip-rule="evenodd" d="M257 142.997C256.986 143.022 256.562 142.903 255.804 142.663C255.428 142.54 254.965 142.394 254.42 142.251C253.874 142.105 253.263 141.913 252.566 141.761C251.188 141.414 249.518 141.095 247.649 140.831C245.776 140.591 243.701 140.423 241.516 140.404C239.331 140.401 237.253 140.551 235.376 140.772C233.505 141.019 231.831 141.322 230.449 141.656C229.75 141.799 229.136 141.986 228.589 142.128C228.041 142.265 227.577 142.407 227.198 142.527C226.44 142.758 226.013 142.875 226 142.848C225.988 142.823 226.393 142.658 227.135 142.381C227.505 142.238 227.963 142.072 228.508 141.914C229.05 141.75 229.662 141.544 230.361 141.382C231.744 141.01 233.426 140.672 235.315 140.405C237.207 140.159 239.309 139.998 241.519 140C243.727 140.02 245.826 140.202 247.715 140.463C249.601 140.749 251.278 141.103 252.656 141.487C253.353 141.656 253.963 141.87 254.503 142.038C255.046 142.202 255.501 142.371 255.87 142.518C256.61 142.802 257.012 142.972 257 142.997Z" fill="white"/>
<path fill-rule="evenodd" clip-rule="evenodd" d="M186.872 483.555C191.582 481.124 197.129 480.808 202.358 481.673C205.167 482.137 208.096 482.978 210.008 485.088C211.919 487.198 212.282 490.911 210.087 492.725C208.78 493.804 206.958 493.968 205.263 493.949C201.17 493.901 196.627 493.18 193.357 495.643C191.491 497.048 190.249 499.384 188.018 500.076C185.836 500.752 183.373 499.464 182.216 497.493C181.059 495.524 181.02 493.062 181.559 490.842C181.559 490.842 182.127 486.002 186.872 483.555Z" fill="#D61335"/>
<path fill-rule="evenodd" clip-rule="evenodd" d="M176.081 462.722C178.961 466.836 184.559 465.474 187.154 462.963C189.75 460.452 190.847 456.813 191.846 453.343C194.127 445.413 196.428 437.095 194.731 429.021C194.224 426.607 193.321 424.2 191.625 422.409C189.929 420.618 187.32 419.552 184.935 420.182C182.113 420.928 180.358 423.692 179.091 426.322C175.364 434.052 173.391 442.621 173.361 451.203C173.348 455.21 173.82 459.413 176.081 462.722Z" fill="#D61335"/>
<path fill-rule="evenodd" clip-rule="evenodd" d="M168.171 468.625C171.298 464.914 171.892 459.501 170.5 454.852C169.108 450.201 165.965 446.246 162.342 443.017C158.094 439.23 153.1 436.284 147.733 434.396C145.62 433.654 143.392 433.068 141.163 433.281C138.933 433.493 136.688 434.634 135.649 436.617C134.111 439.549 135.585 443.105 137.18 446.007C139.988 451.119 143.2 456.01 146.775 460.619C149.651 464.327 152.945 467.984 157.329 469.66C161.712 471.336 166.265 471.139 168.588 468.1" fill="#D61335"/>
<path fill-rule="evenodd" clip-rule="evenodd" d="M175.886 524.777C175.94 524.781 176.028 524.114 176.147 522.908C176.279 521.548 176.445 519.84 176.643 517.807C176.881 515.661 177.194 513.106 177.791 510.324C178.385 507.549 179.315 504.543 180.51 501.493C181.747 498.462 183.257 495.706 185.02 493.503C186.771 491.289 188.807 489.686 190.721 488.762C192.629 487.82 194.34 487.437 195.522 487.267C196.716 487.145 197.383 487.05 197.384 486.998C197.384 486.945 196.715 486.936 195.49 486.968C194.276 487.049 192.494 487.357 190.483 488.271C188.466 489.166 186.306 490.794 184.469 493.052C182.617 495.302 181.054 498.119 179.795 501.205C178.579 504.307 177.662 507.345 177.094 510.18C176.528 513.01 176.269 515.592 176.099 517.757C175.937 519.923 175.876 521.677 175.847 522.89C175.82 524.102 175.833 524.774 175.886 524.777Z" fill="#1A2E35"/>
<path fill-rule="evenodd" clip-rule="evenodd" d="M176.237 520.851C176.263 520.85 176.28 520.551 176.287 519.984C176.285 519.331 176.283 518.511 176.28 517.503C176.275 515.351 176.276 512.236 176.391 508.389C176.582 500.697 177.244 492.417 178.523 480.745C179.735 469.769 181.361 456.996 183.077 448.691C183.445 446.801 183.816 445.102 184.164 443.614C184.497 442.122 184.781 440.835 185.055 439.795C185.291 438.816 185.483 438.018 185.635 437.384C185.759 436.83 185.812 436.536 185.787 436.529C185.761 436.521 185.658 436.801 185.485 437.342C185.296 437.966 185.058 438.752 184.765 439.718C184.445 440.749 184.118 442.027 183.745 443.513C183.355 444.995 182.946 446.691 182.543 448.577C180.845 456.102 179.048 466.62 177.756 478.32C176.474 490.017 175.897 500.666 175.845 508.379C175.8 512.235 175.882 515.357 175.98 517.51C176.042 518.518 176.092 519.338 176.132 519.99C176.175 520.556 176.21 520.852 176.237 520.851Z" fill="#1A2E35"/>
<path fill-rule="evenodd" clip-rule="evenodd" d="M176.288 500.31C176.342 500.308 176.332 499.387 176.27 497.718C176.175 496.053 175.946 493.647 175.476 490.699C174.979 487.758 174.285 484.266 173.194 480.472C172.721 478.737 171.609 474.581 168.917 468.37C165.37 459.955 160.55 453.075 156.357 448.813C155.374 447.682 154.279 446.867 153.403 446.067C152.949 445.684 152.549 445.301 152.141 444.998C151.73 444.715 151.348 444.453 150.994 444.208C149.614 443.265 148.842 442.767 148.813 442.812C148.689 442.98 151.904 444.872 155.963 449.191C160.005 453.499 164.69 460.332 168.209 468.676C170.171 473.203 171.539 477.24 172.51 480.666C173.631 484.424 174.376 487.881 174.939 490.792C175.474 493.71 175.784 496.093 175.971 497.743C176.124 499.396 176.235 500.312 176.288 500.31Z" fill="#1A2E35"/>
<path fill-rule="evenodd" clip-rule="evenodd" d="M156.434 536.546L158.493 564.744H194.719L196.778 536.546H156.434Z" fill="#1A2E35"/>
<mask id="mask6" mask-type="alpha" maskUnits="userSpaceOnUse" x="135" y="420" width="77" height="153">
<path fill-rule="evenodd" clip-rule="evenodd" d="M135 572.169H211.592V420H135V572.169Z" fill="white"/>
</mask>
<g mask="url(#mask6)">
<path fill-rule="evenodd" clip-rule="evenodd" d="M152.935 536.546H201.1V525.431H152.935V536.546Z" fill="#1A2E35"/>
<path fill-rule="evenodd" clip-rule="evenodd" d="M152.935 563.665V566.746H155.198H200.304V563.665H152.935Z" fill="#375A64"/>
<path fill-rule="evenodd" clip-rule="evenodd" d="M157.416 572.169L155.198 566.746H198.579L195.99 572.169H157.416Z" fill="#375A64"/>
<path fill-rule="evenodd" clip-rule="evenodd" d="M196.105 545.762C196.113 545.769 196.056 545.857 195.936 546.021C195.793 546.211 195.614 546.448 195.395 546.739C194.88 547.398 194.173 548.302 193.284 549.44L193.19 549.56L193.1 549.434C191.773 547.6 190.001 545.149 187.915 542.263H188.213C186.671 544.447 184.953 546.879 183.109 549.491L182.949 549.718L182.77 549.504C180.886 547.263 178.84 544.829 176.716 542.302L177.065 542.297C176.96 542.43 176.846 542.573 176.732 542.716C174.854 545.07 173.037 547.348 171.319 549.502L171.138 549.728L170.972 549.492C169.134 546.893 167.417 544.463 165.864 542.267L166.162 542.281C163.645 545.149 161.51 547.58 159.872 549.447L159.76 549.575L159.675 549.431C158.846 548.038 158.185 546.927 157.706 546.122C157.5 545.763 157.333 545.473 157.2 545.241C157.089 545.039 157.037 544.933 157.046 544.927C157.056 544.921 157.127 545.016 157.257 545.206C157.404 545.429 157.588 545.708 157.816 546.054C158.319 546.845 159.013 547.935 159.883 549.303L159.687 549.286C161.299 547.398 163.399 544.936 165.876 542.033L166.032 541.85L166.173 542.047C167.739 544.234 169.472 546.653 171.326 549.241L170.979 549.232C172.693 547.074 174.506 544.792 176.379 542.435C176.493 542.291 176.607 542.149 176.712 542.017L176.884 541.8L177.062 542.012C179.18 544.544 181.22 546.984 183.098 549.229L182.759 549.242C184.622 546.644 186.357 544.224 187.915 542.051L188.066 541.84L188.213 542.051C190.255 544.968 191.99 547.445 193.289 549.299L193.105 549.294C194.029 548.185 194.764 547.304 195.3 546.662C195.538 546.386 195.731 546.162 195.887 545.982C196.023 545.83 196.097 545.755 196.105 545.762Z" fill="#E1E1E1"/>
<path fill-rule="evenodd" clip-rule="evenodd" d="M197.281 536.359C197.281 536.483 188.204 536.585 177.009 536.585C165.81 536.585 156.735 536.483 156.735 536.359C156.735 536.234 165.81 536.133 177.009 536.133C188.204 536.133 197.281 536.234 197.281 536.359Z" fill="#375A64"/>
<path fill-rule="evenodd" clip-rule="evenodd" d="M199.112 567.05C199.112 567.175 189.247 567.276 177.08 567.276C164.91 567.276 155.047 567.175 155.047 567.05C155.047 566.926 164.91 566.825 177.08 566.825C189.247 566.825 199.112 566.926 199.112 567.05Z" fill="#1A2E35"/>
</g>
<rect x="237.048" y="54.4316" width="6.696" height="8.4" fill="#FF1E49"/>
<rect x="241.728" y="54.4316" width="1.344" height="8.4" fill="#B2163B"/>
<rect x="239.496" y="54.4316" width="1.384" height="8.4" fill="#B2163B"/>
<rect x="237.84" y="54.4316" width="0.72" height="8.4" fill="#B2163B"/>
<g style="mix-blend-mode:multiply" opacity="0.1">
<path d="M241.888 61.5362H238.904C238.212 61.5331 237.547 61.2638 237.048 60.7842V63.0402H243.744V60.7842C243.247 61.2667 242.581 61.5364 241.888 61.5362Z" fill="black"/>
</g>
<g style="mix-blend-mode:multiply" opacity="0.05">
<path d="M238.904 57.6075H241.888C242.581 57.6073 243.247 57.877 243.744 58.3595V56.1035H237.048V58.3595C237.547 57.8799 238.212 57.6106 238.904 57.6075Z" fill="black"/>
</g>
<path d="M248.944 67.6322V66.4722C248.944 64.116 247.037 62.2046 244.68 62.2002H236.12C233.77 62.2046 231.865 64.1062 231.856 66.4562V67.6162L248.944 67.6322Z" fill="#D1EDFC"/>
<g style="mix-blend-mode:multiply" opacity="0.05">
<path d="M245.984 65.4001H234.784C233.871 65.3985 233.007 64.991 232.424 64.2881C232.034 64.944 231.827 65.6927 231.824 66.4561V67.6161H248.944V66.4721C248.942 65.7087 248.735 64.96 248.344 64.3041C247.759 65.001 246.894 65.4024 245.984 65.4001Z" fill="black"/>
</g>
<path d="M251.552 74.7599V68.9039C251.548 67.6951 250.569 66.7163 249.36 66.7119H231.44C230.229 66.7119 229.248 67.6933 229.248 68.9039V74.7599H251.552Z" fill="#FF1E49"/>
<rect x="231.416" y="67.5195" width="0.248" height="5.36" rx="0.12" fill="#B2163B"/>
<rect x="230.32" y="68.3838" width="0.248" height="4.496" rx="0.12" fill="#B2163B"/>
<rect x="249.224" y="72.8799" width="0.248" height="5.36" rx="0.12" transform="rotate(180 249.224 72.8799)" fill="#B2163B"/>
<rect x="250.32" y="72.8799" width="0.248" height="4.496" rx="0.12" transform="rotate(-180 250.32 72.8799)" fill="#B2163B"/>
<rect x="232.512" y="67.5195" width="0.248" height="5.36" rx="0.12" fill="#B2163B"/>
<rect x="233.616" y="67.5195" width="0.248" height="5.36" rx="0.12" fill="#B2163B"/>
<rect x="234.712" y="67.5195" width="0.248" height="5.36" rx="0.12" fill="#B2163B"/>
<rect x="235.808" y="67.5195" width="0.248" height="5.36" rx="0.12" fill="#B2163B"/>
<rect x="236.904" y="67.5195" width="0.248" height="5.36" rx="0.12" fill="#B2163B"/>
<rect x="238" y="67.5195" width="0.248" height="5.36" rx="0.12" fill="#B2163B"/>
<rect x="239.096" y="67.5195" width="0.248" height="5.36" rx="0.12" fill="#B2163B"/>
<rect x="240.192" y="67.5195" width="0.248" height="5.36" rx="0.12" fill="#B2163B"/>
<rect x="241.296" y="67.5195" width="0.248" height="5.36" rx="0.12" fill="#B2163B"/>
<rect x="244.584" y="67.5195" width="0.248" height="5.36" rx="0.12" fill="#B2163B"/>
<rect x="245.68" y="67.5195" width="0.248" height="5.36" rx="0.12" fill="#B2163B"/>
<rect x="242.392" y="67.5195" width="0.248" height="5.36" rx="0.12" fill="#B2163B"/>
<rect x="243.488" y="67.5195" width="0.248" height="5.36" rx="0.12" fill="#B2163B"/>
<rect x="246.776" y="67.5195" width="0.248" height="5.36" rx="0.12" fill="#B2163B"/>
<rect x="247.872" y="67.5195" width="0.248" height="5.36" rx="0.12" fill="#B2163B"/>
<g style="mix-blend-mode:multiply" opacity="0.05">
<path d="M248.48 72.3757H232.312C230.62 72.3669 229.252 70.9954 229.248 69.3037V74.7597H251.552V69.3037C251.548 70.9985 250.175 72.3713 248.48 72.3757Z" fill="black"/>
</g>
<g style="mix-blend-mode:multiply" opacity="0.1">
<path d="M248.8 73.1925H232C230.888 73.2002 229.853 72.6309 229.264 71.6885V74.7605H251.552V71.6885C250.96 72.6358 249.917 73.2058 248.8 73.1925Z" fill="black"/>
</g>
<path d="M235.68 53.6719V55.8399C235.68 56.538 236.246 57.1039 236.944 57.1039H243.856C244.554 57.1039 245.12 56.538 245.12 55.8399V53.6719H235.68Z" fill="#D1EDFC"/>
<g style="mix-blend-mode:multiply" opacity="0.05">
<path d="M235.68 53.6719V55.8399C235.679 55.951 235.696 56.0615 235.728 56.1679C235.876 55.6174 236.374 55.234 236.944 55.2319H243.856C244.425 55.2367 244.921 55.619 245.072 56.1679C245.104 56.0615 245.12 55.951 245.12 55.8399V53.6719H235.68Z" fill="black"/>
</g>
<path d="M226.2 48.152L225.464 49.48C225.376 49.6624 225.393 49.878 225.509 50.0439C225.626 50.2097 225.822 50.3 226.024 50.28C228.192 49.992 232.84 49.728 233.808 52.448C233.898 52.7214 233.941 53.0081 233.936 53.296C233.94 53.9291 234.454 54.44 235.088 54.44H245.704C246.327 54.4402 246.838 53.9437 246.856 53.32V48.152C246.851 47.5176 246.338 47.0044 245.704 47H244.056C238.085 46.9996 232.121 47.3844 226.2 48.152Z" fill="#E6F6FF"/>
<path d="M226.2 48.152L225.464 49.48C225.376 49.6624 225.393 49.878 225.509 50.0439C225.626 50.2097 225.822 50.3 226.024 50.28C228.192 49.992 232.84 49.728 233.808 52.448C233.898 52.7214 233.941 53.0081 233.936 53.296C233.94 53.9291 234.454 54.44 235.088 54.44H245.704C246.327 54.4402 246.838 53.9437 246.856 53.32V48.152C246.851 47.5176 246.338 47.0044 245.704 47H244.056C238.085 46.9996 232.121 47.3844 226.2 48.152Z" fill="#E6F6FF"/>
<g style="mix-blend-mode:multiply" opacity="0.05">
<path d="M246.488 47.3115C246.678 47.5333 246.775 47.8198 246.76 48.1115L246.4 52.6475C246.339 53.1525 245.908 53.5312 245.4 53.5275H236.376C235.803 53.5309 235.299 53.151 235.144 52.5995C235.094 52.3461 235.002 52.1028 234.872 51.8795C233.36 49.3275 228.568 49.4875 226.32 49.7195C226.011 49.7316 225.715 49.5983 225.52 49.3595L225.456 49.4795C225.368 49.662 225.386 49.8776 225.502 50.0434C225.618 50.2093 225.814 50.2995 226.016 50.2795C228.184 49.9915 232.832 49.7275 233.8 52.4475C233.89 52.7209 233.934 53.0076 233.928 53.2955C233.932 53.9286 234.447 54.4395 235.08 54.4395H245.704C246.328 54.4398 246.838 53.9432 246.856 53.3195V48.1515C246.855 47.8327 246.721 47.5285 246.488 47.3115Z" fill="black"/>
</g>
<path opacity="0.5" d="M244 47.4961C238.739 47.4945 233.483 47.8231 228.264 48.4801C228.199 48.4957 228.153 48.5536 228.153 48.6201C228.153 48.6866 228.199 48.7445 228.264 48.7601C230.918 49.0803 233.59 49.2352 236.264 49.2241C239.477 49.2455 242.687 49.0128 245.864 48.5281C246.024 48.501 246.142 48.3628 246.144 48.2001V48.1281C246.122 47.9843 246.073 47.8459 246 47.7201C245.957 47.6231 245.871 47.5519 245.768 47.5281C245.691 47.5158 245.612 47.5158 245.536 47.5281L244 47.4961Z" fill="white"/>
<path d="M229.432 73.9521C228.16 73.9521 220 75.2401 220 84.0321V140.472C220.004 143.435 222.405 145.836 225.368 145.84H255.424C258.39 145.84 260.796 143.438 260.8 140.472V84.0321C260.8 75.2321 252.632 73.9521 251.368 73.9521H229.432Z" fill="#E6F6FF"/>
<g style="mix-blend-mode:multiply" opacity="0.1">
<path d="M230.4 75.8877C229.248 75.8877 221.784 77.0797 221.784 85.2077V138.944C221.778 140.253 222.292 141.511 223.213 142.441C224.134 143.371 225.387 143.897 226.696 143.904H254.136C255.445 143.897 256.698 143.371 257.62 142.441C258.541 141.511 259.055 140.253 259.048 138.944V85.2077C259.048 77.0797 251.584 75.8877 250.424 75.8877H230.4Z" fill="black"/>
</g>
<path d="M230.96 76.9443C229.872 76.9443 222.856 78.0883 222.856 85.8563V138.104C222.839 139.346 223.316 140.543 224.181 141.432C225.047 142.322 226.231 142.831 227.472 142.848H253.32C255.906 142.813 257.975 140.69 257.944 138.104V85.8563C257.944 78.0883 250.92 76.9443 249.832 76.9443H230.96Z" fill="#D1EDFC"/>
<path d="M222.856 85.0645V138.104C222.839 139.346 223.316 140.543 224.181 141.433C225.047 142.322 226.231 142.832 227.472 142.848H253.32C255.906 142.813 257.975 140.691 257.944 138.104V85.0645H222.856Z" fill="#00A3FF"/>
<g style="mix-blend-mode:multiply" opacity="0.05">
<path d="M256.36 75.5762C257.736 77.0802 258.72 79.3922 258.336 82.9442L254.928 136.032C254.565 138.523 252.652 140.504 250.176 140.952L223.776 144.056C222.891 144.199 221.984 144.111 221.144 143.8C222.159 145.1 223.718 145.858 225.368 145.856H255.424C256.851 145.856 258.219 145.289 259.228 144.279C260.236 143.269 260.802 141.899 260.8 140.472V84.0322C260.8 79.5122 258.632 76.9762 256.36 75.5762Z" fill="black"/>
</g>
<g style="mix-blend-mode:multiply" opacity="0.05">
<path d="M257.088 76.0723C258.936 77.6083 260.456 80.1763 260.168 84.3763L257.768 139.4C257.541 142.109 255.368 144.244 252.656 144.424L225.12 145.656C224.454 145.703 223.785 145.616 223.152 145.4C223.849 145.715 224.604 145.879 225.368 145.88H255.424C256.856 145.88 258.228 145.31 259.237 144.294C260.246 143.279 260.809 141.904 260.8 140.472V84.0323C260.8 80.0003 259.072 77.5443 257.088 76.0723Z" fill="black"/>
</g>
<ellipse opacity="0.1" cx="229.082" cy="84.0462" rx="6.936" ry="4.456" transform="rotate(-49.58 229.082 84.0462)" fill="white"/>
<path opacity="0.1" d="M230.256 84.752C228.944 86.288 227.056 86.848 226.104 86.008C225.152 85.168 225.376 83.248 226.68 81.712C227.984 80.176 229.88 79.608 230.832 80.448C231.784 81.288 231.56 83.216 230.256 84.752Z" fill="white"/>
<path d="M227.368 109.632C227.381 109.923 227.284 110.209 227.096 110.432C226.888 110.647 226.594 110.756 226.296 110.728C225.998 110.755 225.704 110.646 225.496 110.432C225.308 110.209 225.211 109.923 225.224 109.632V107.296C225.211 107.004 225.308 106.719 225.496 106.496C225.704 106.282 225.998 106.173 226.296 106.2C226.594 106.172 226.888 106.281 227.096 106.496C227.284 106.719 227.381 107.004 227.368 107.296V107.736H226.704V107.248C226.704 106.96 226.584 106.808 226.336 106.808C226.088 106.808 225.968 106.96 225.968 107.248V109.648C225.968 109.936 226.096 110.08 226.336 110.08C226.576 110.08 226.704 109.936 226.704 109.648V109H227.368V109.632Z" fill="#F5F5F5"/>
<path d="M227.8 110.712V106.2H228.504V108.128H229.304V106.2H230.024V110.696H229.304V108.784H228.504V110.712H227.8Z" fill="#F5F5F5"/>
<path d="M231.24 106.2V110.048H232.4V110.696H230.536V106.2H231.24Z" fill="#F5F5F5"/>
<path fill-rule="evenodd" clip-rule="evenodd" d="M233.728 106.168C233.431 106.146 233.139 106.254 232.928 106.464C232.731 106.695 232.631 106.993 232.648 107.296V109.6C232.638 109.892 232.738 110.178 232.928 110.4C233.139 110.61 233.431 110.718 233.728 110.696C234.025 110.718 234.318 110.61 234.528 110.4C234.716 110.177 234.814 109.891 234.8 109.6V107.264C234.812 106.973 234.715 106.688 234.528 106.464C234.318 106.254 234.025 106.146 233.728 106.168ZM234.096 109.68C234.096 109.968 233.976 110.12 233.728 110.12H233.72C233.48 110.12 233.36 109.968 233.368 109.68V107.28C233.368 106.992 233.48 106.84 233.728 106.84C233.976 106.84 234.096 106.992 234.096 107.28V109.68Z" fill="#F5F5F5"/>
<path fill-rule="evenodd" clip-rule="evenodd" d="M236.672 110.16V110.504C236.677 110.589 236.696 110.673 236.728 110.752H237.44C237.407 110.675 237.386 110.595 237.376 110.512V110.2V109.456C237.382 109.245 237.344 109.035 237.264 108.84C237.193 108.683 237.064 108.56 236.904 108.496C237.233 108.322 237.418 107.961 237.368 107.592V107.232C237.414 106.944 237.317 106.651 237.109 106.446C236.901 106.242 236.607 106.15 236.32 106.2H235.256V110.712H235.96V108.88H236.208C236.34 108.869 236.47 108.919 236.56 109.016C236.646 109.143 236.685 109.295 236.672 109.448V110.16ZM236.232 108.24H235.952V106.864H236.296C236.398 106.854 236.498 106.893 236.568 106.968C236.634 107.073 236.665 107.196 236.656 107.32V107.768C236.667 107.898 236.627 108.027 236.544 108.128C236.46 108.208 236.347 108.248 236.232 108.24Z" fill="#F5F5F5"/>
<path d="M237.824 110.712V106.2H238.528V108.128H239.328V106.2H240.04V110.696H239.328V108.784H238.528V110.712H237.824Z" fill="#F5F5F5"/>
<path d="M242.24 108.112V108.752H241.272V110.064H242.488V110.712H240.56V106.2H242.488V106.848H241.272V108.096L242.24 108.112Z" fill="#F5F5F5"/>
<path d="M244.536 108.4L245.336 110.712H244.592L244 108.936L243.416 110.712H242.752L243.552 108.4L242.816 106.2H243.544L244.08 107.856L244.624 106.2H245.28L244.536 108.4Z" fill="#F5F5F5"/>
<path d="M246.4 106.2V110.696H245.68V106.2H246.4Z" fill="#F5F5F5"/>
<path fill-rule="evenodd" clip-rule="evenodd" d="M248.8 106.488C248.59 106.277 248.296 106.171 248 106.2H246.88V110.648H248C248.296 110.677 248.59 110.571 248.8 110.36C248.985 110.136 249.079 109.85 249.064 109.56V107.288C249.079 106.998 248.985 106.712 248.8 106.488ZM248 110.048H247.592L247.608 106.864H248C248.1 106.857 248.199 106.892 248.272 106.96C248.337 107.059 248.368 107.177 248.36 107.296V109.616C248.368 109.735 248.337 109.853 248.272 109.952C248.199 110.021 248.1 110.055 248 110.048Z" fill="#F5F5F5"/>
<path d="M250.224 106.2V110.696H249.512V106.2H250.224Z" fill="#F5F5F5"/>
<path d="M251.36 110.712H250.728V106.2H251.616L252.336 108.888V106.2H252.968V110.696H252.24L251.36 107.44V110.712Z" fill="#F5F5F5"/>
<path d="M255.144 108.112V108.752H254.176V110.064H255.392V110.712H253.472V106.2H255.392V106.848H254.176V108.096L255.144 108.112Z" fill="#F5F5F5"/>
<path d="M228.624 114.152C228.834 113.942 229.128 113.836 229.424 113.864C229.72 113.836 230.013 113.942 230.224 114.152C230.403 114.379 230.497 114.662 230.488 114.952V115.096H229.824V114.904C229.834 114.784 229.799 114.664 229.728 114.568C229.664 114.494 229.569 114.455 229.472 114.464C229.372 114.454 229.274 114.493 229.208 114.568C229.136 114.664 229.102 114.784 229.112 114.904C229.11 115.081 229.163 115.254 229.264 115.4C229.398 115.576 229.551 115.737 229.72 115.88C229.861 116.007 229.995 116.144 230.12 116.288C230.229 116.414 230.319 116.557 230.384 116.712C230.46 116.894 230.498 117.09 230.496 117.288C230.509 117.579 230.412 117.865 230.224 118.088C230.015 118.302 229.721 118.411 229.424 118.384C229.126 118.412 228.832 118.303 228.624 118.088C228.436 117.865 228.339 117.579 228.352 117.288V117.008H229.016V117.4C229.016 117.696 229.136 117.84 229.384 117.84C229.632 117.84 229.752 117.696 229.752 117.4C229.753 117.225 229.7 117.055 229.6 116.912C229.464 116.735 229.311 116.571 229.144 116.424C228.976 116.272 228.848 116.136 228.744 116.024C228.634 115.894 228.545 115.749 228.48 115.592C228.403 115.412 228.365 115.219 228.368 115.024C228.339 114.711 228.43 114.399 228.624 114.152Z" fill="#F5F5F5"/>
<path d="M230.848 118.4V113.912H231.552V115.84H232.352V113.912H233.064V118.4H232.352V116.48H231.552V118.4H230.848Z" fill="#F5F5F5"/>
<path fill-rule="evenodd" clip-rule="evenodd" d="M234.608 113.904C234.311 113.882 234.019 113.99 233.808 114.2C233.617 114.422 233.517 114.708 233.528 115V117.336C233.519 117.628 233.619 117.914 233.808 118.136C234.021 118.344 234.312 118.451 234.608 118.432C234.904 118.449 235.194 118.341 235.408 118.136C235.595 117.913 235.692 117.627 235.68 117.336V115C235.693 114.709 235.596 114.423 235.408 114.2C235.196 113.992 234.905 113.884 234.608 113.904ZM234.976 117.408C234.976 117.704 234.856 117.856 234.608 117.856L234.6 117.816C234.4 117.816 234.232 117.664 234.24 117.408V115.008C234.24 114.712 234.36 114.568 234.608 114.568C234.856 114.568 234.976 114.712 234.976 115.008V117.408Z" fill="#F5F5F5"/>
<path d="M237.432 118.4H236.464L236 113.912H236.688L237.064 117.456L237.4 113.912H238.08L238.4 117.48L238.768 113.912H239.384L238.888 118.4H237.952L237.696 116L237.432 118.4Z" fill="#F5F5F5"/>
<path d="M241.408 115.8V116.44H240.44V117.752H241.664V118.392H239.736V113.912H241.664V114.552H240.44V115.8H241.408Z" fill="#F5F5F5"/>
<path fill-rule="evenodd" clip-rule="evenodd" d="M243.52 117.848C243.513 117.965 243.513 118.083 243.52 118.2C243.539 118.269 243.566 118.336 243.6 118.4H244.32C244.287 118.326 244.265 118.248 244.256 118.168V117.856V117.168C244.262 116.957 244.224 116.747 244.144 116.552C244.073 116.395 243.944 116.271 243.784 116.208C244.114 116.031 244.299 115.667 244.248 115.296V114.944C244.293 114.656 244.197 114.363 243.989 114.158C243.781 113.954 243.487 113.862 243.2 113.912H242.096V118.4H242.8V116.576H243.064C243.194 116.563 243.324 116.61 243.416 116.704C243.497 116.835 243.534 116.99 243.52 117.144V117.848ZM243.08 115.936H242.8V114.536H243.144C243.247 114.529 243.347 114.571 243.416 114.648C243.482 114.753 243.512 114.876 243.504 115V115.456C243.516 115.589 243.476 115.721 243.392 115.824C243.308 115.904 243.195 115.944 243.08 115.936Z" fill="#F5F5F5"/>
<path d="M247.712 115.904V117.328C247.725 117.618 247.631 117.902 247.448 118.128C247.238 118.339 246.946 118.447 246.648 118.424C246.351 118.451 246.057 118.342 245.848 118.128C245.66 117.905 245.563 117.619 245.576 117.328V115C245.566 114.709 245.663 114.424 245.848 114.2C246.06 113.992 246.352 113.886 246.648 113.912C246.944 113.89 247.235 113.994 247.448 114.2C247.628 114.427 247.721 114.711 247.712 115V115.432H247.048V114.952C247.048 114.656 246.928 114.512 246.68 114.512C246.432 114.512 246.312 114.656 246.312 114.952V117.352C246.312 117.648 246.44 117.792 246.68 117.792C246.92 117.792 247.048 117.648 247.048 117.352V116.552H246.728V115.912L247.712 115.904Z" fill="#F5F5F5"/>
<path d="M249.84 115.8V116.44H248.872V117.752H250.096V118.392H248.168V113.912H250.096V114.552H248.872V115.8H249.84Z" fill="#F5F5F5"/>
<path d="M251.2 113.912V117.76H252.36V118.4H250.528V113.912H251.2Z" fill="#F5F5F5"/>
</svg>
