<svg width="614" height="603" viewBox="0 0 614 603" fill="none" xmlns="http://www.w3.org/2000/svg">
<circle opacity="0.0770322" cx="301.5" cy="301.5" r="301.5" fill="#E13856"/>
<path fill-rule="evenodd" clip-rule="evenodd" d="M206.139 95.9466C206.139 133.55 180.37 164.033 148.585 164.033C116.799 164.033 91.0303 133.55 91.0303 95.9466C91.0303 58.341 116.799 27.8574 148.585 27.8574C180.37 27.8574 206.139 58.341 206.139 95.9466Z" fill="#EBEBEB"/>
<path fill-rule="evenodd" clip-rule="evenodd" d="M197.668 96.7164C197.668 128.786 175.694 154.786 148.585 154.786C121.478 154.786 99.501 128.786 99.501 96.7164C99.501 64.6464 121.478 38.6484 148.585 38.6484C175.694 38.6484 197.668 64.6464 197.668 96.7164Z" fill="white"/>
<path fill-rule="evenodd" clip-rule="evenodd" d="M147.387 29.2285C147.387 29.2285 145.206 29.6173 141.55 30.8101C140.632 31.0981 139.625 31.4437 138.545 31.8649C137.454 32.2513 136.308 32.7517 135.081 33.2821C133.841 33.7789 132.592 34.4677 131.243 35.1097C129.909 35.7853 128.551 36.5845 127.114 37.3693C125.746 38.2705 124.265 39.1249 122.836 40.1569C121.435 41.2321 119.887 42.2041 118.497 43.4653C117.781 44.0677 117.058 44.6809 116.322 45.2989C115.594 45.9229 114.935 46.6429 114.227 47.3197C113.537 48.0169 112.804 48.6877 112.122 49.4185C111.465 50.1757 110.802 50.9377 110.135 51.7057C107.448 54.7717 105.105 58.2865 102.942 61.9681L102.523 62.6533C102.466 62.7529 102.36 62.9197 102.342 62.9605L102.161 63.3265L101.441 64.7953C100.959 65.7745 100.476 66.7573 99.9927 67.7437C99.7323 68.2333 99.5307 68.7337 99.3507 69.2365L98.7747 70.7425L97.6203 73.7569L96.7059 76.8781C96.4251 77.9233 96.0495 78.9457 95.8527 80.0089C95.6391 81.0697 95.4279 82.1269 95.2179 83.1829L94.9011 84.7633C94.8123 85.2925 94.7691 85.8265 94.7043 86.3569C94.4679 88.4809 94.1523 90.5845 94.1319 92.6833C94.0875 93.7321 94.0431 94.7737 93.9999 95.8081C94.0335 96.8437 94.0659 97.8709 94.0995 98.8909C94.1571 99.9085 94.1151 100.925 94.2531 101.92C94.3551 102.917 94.4571 103.905 94.5603 104.883C94.6083 105.372 94.6587 105.858 94.7055 106.343C94.7739 106.823 94.8663 107.298 94.9467 107.772C95.1099 108.718 95.2719 109.655 95.4303 110.579C95.7459 112.427 96.2799 114.177 96.6615 115.901C97.1199 117.604 97.6791 119.217 98.1531 120.786C98.7111 122.327 99.3147 123.778 99.8403 125.179C100.431 126.553 101.057 127.827 101.611 129.042C102.85 131.401 103.96 133.461 105.075 135.025C105.622 135.813 106.057 136.56 106.521 137.147C106.983 137.733 107.375 138.233 107.695 138.639C108.334 139.451 108.675 139.884 108.675 139.884C108.675 139.884 108.304 139.475 107.609 138.711C107.261 138.328 106.833 137.854 106.329 137.298C105.814 136.746 105.339 136.023 104.748 135.256C103.542 133.737 102.313 131.725 100.935 129.401C100.311 128.205 99.6075 126.947 98.9367 125.586C98.3307 124.195 97.6743 122.737 97.0467 121.195C96.5031 119.621 95.8743 118 95.3403 116.281C95.1015 115.414 94.8591 114.533 94.6119 113.638C94.3719 112.74 94.0899 111.838 93.9291 110.895C93.7407 109.955 93.5499 109.005 93.3555 108.043C93.2619 107.56 93.1539 107.076 93.0711 106.587C93.0087 106.095 92.9439 105.599 92.8791 105.102C92.6139 103.105 92.3367 101.067 92.2911 98.9749C92.2407 97.9309 92.1915 96.8773 92.1387 95.8165C92.1639 94.7533 92.1927 93.6829 92.2203 92.6065C92.1987 90.4489 92.4975 88.2817 92.7363 86.0965C92.8035 85.5517 92.8431 84.9985 92.9319 84.4537L93.2475 82.8253C93.4575 81.7381 93.6699 80.6473 93.8823 79.5541C94.0815 78.4561 94.4619 77.4013 94.7439 76.3213C95.0559 75.2485 95.3439 74.1673 95.6751 73.0981L96.9015 69.9481L97.5135 68.3761C97.7115 67.8457 97.9239 67.3285 98.1831 66.8485C98.6715 65.8657 99.1611 64.8865 99.6483 63.9073L100.377 62.4445L100.56 62.0773C100.661 61.8757 100.711 61.8205 100.791 61.6837L101.223 60.9805C103.458 57.1909 105.97 53.6389 108.768 50.5237C109.469 49.7449 110.164 48.9721 110.853 48.2077C111.562 47.4649 112.332 46.7965 113.061 46.1005C113.808 45.4249 114.502 44.7073 115.266 44.0893C116.033 43.4749 116.793 42.8689 117.541 42.2713C118.283 41.6653 119.025 41.0785 119.806 40.5733C120.574 40.0477 121.33 39.5317 122.071 39.0229C123.568 38.0257 125.109 37.2085 126.534 36.3469C128.027 35.6077 129.426 34.8349 130.816 34.2229C132.219 33.6433 133.511 33.0133 134.794 32.5789C136.06 32.1073 137.242 31.6621 138.361 31.3321C139.469 30.9625 140.5 30.6685 141.436 30.4285C143.302 29.9101 144.802 29.6485 145.816 29.4601C146.838 29.2885 147.387 29.2285 147.387 29.2285Z" fill="white"/>
<path fill-rule="evenodd" clip-rule="evenodd" d="M149.692 163.181C149.692 163.181 151.87 162.792 155.53 161.599C156.448 161.311 157.454 160.964 158.532 160.544C159.622 160.158 160.771 159.658 161.996 159.126C163.237 158.63 164.485 157.942 165.836 157.3C167.168 156.623 168.525 155.824 169.963 155.04C171.332 154.139 172.812 153.283 174.242 152.251C175.642 151.177 177.192 150.205 178.581 148.944C179.296 148.34 180.021 147.728 180.754 147.109C181.485 146.486 182.142 145.766 182.853 145.09C183.541 144.392 184.273 143.722 184.956 142.991C185.613 142.234 186.274 141.472 186.944 140.704C189.628 137.638 191.972 134.122 194.136 130.44L194.553 129.755C194.612 129.656 194.719 129.49 194.738 129.449L194.917 129.082L195.637 127.614C196.118 126.635 196.603 125.652 197.085 124.666C197.348 124.176 197.548 123.676 197.728 123.173L198.303 121.666L199.456 118.652L200.372 115.531C200.652 114.484 201.031 113.465 201.226 112.4C201.438 111.341 201.651 110.281 201.862 109.226L202.176 107.646C202.266 107.117 202.308 106.583 202.375 106.052C202.609 103.927 202.924 101.825 202.946 99.7248C202.99 98.676 203.034 97.6344 203.077 96.6012C203.044 95.5656 203.013 94.5384 202.978 93.5184C202.921 92.5008 202.964 91.4832 202.826 90.4896C202.723 89.4912 202.621 88.5048 202.52 87.5256C202.47 87.0372 202.422 86.5524 202.371 86.0664C202.304 85.5864 202.212 85.1112 202.132 84.6372C201.968 83.6904 201.807 82.7544 201.646 81.8304C201.332 79.9824 200.8 78.2328 200.416 76.5084C199.957 74.8056 199.399 73.1916 198.924 71.622C198.369 70.0812 197.764 68.6304 197.239 67.2288C196.65 65.856 196.022 64.5828 195.468 63.366C194.228 61.0068 193.118 58.9476 192.002 57.384C191.456 56.5956 191.022 55.8492 190.558 55.2624C190.095 54.6768 189.704 54.1764 189.385 53.7708C188.746 52.9584 188.406 52.5264 188.406 52.5264C188.406 52.5264 188.774 52.9332 189.468 53.7C189.817 54.0816 190.245 54.5556 190.75 55.1112C191.263 55.6632 191.738 56.3856 192.328 57.1536C193.538 58.6728 194.764 60.684 196.142 63.0072C196.767 64.2048 197.469 65.4624 198.142 66.8244C198.748 68.214 199.402 69.6708 200.032 71.214C200.575 72.7884 201.205 74.4096 201.736 76.128C201.978 76.9944 202.221 77.8752 202.467 78.7716C202.707 79.6692 202.987 80.5716 203.148 81.5148C203.336 82.4544 203.53 83.4048 203.722 84.366C203.817 84.8484 203.923 85.3332 204.008 85.8228C204.068 86.3148 204.134 86.8092 204.198 87.3072C204.464 89.304 204.741 91.3416 204.786 93.4332C204.838 94.4784 204.889 95.532 204.938 96.594C204.914 97.656 204.884 98.7252 204.859 99.8028C204.878 101.96 204.582 104.126 204.343 106.313C204.276 106.858 204.234 107.408 204.147 107.956L203.83 109.584C203.62 110.67 203.407 111.761 203.194 112.854C202.998 113.952 202.617 115.007 202.333 116.088C202.022 117.161 201.733 118.242 201.403 119.311L200.176 122.461L199.563 124.033C199.366 124.564 199.154 125.081 198.895 125.558C198.405 126.544 197.917 127.524 197.431 128.501L196.702 129.965L196.52 130.33C196.418 130.531 196.368 130.589 196.287 130.726L195.854 131.429C193.621 135.218 191.109 138.77 188.308 141.886C187.608 142.664 186.914 143.436 186.226 144.202C185.516 144.944 184.746 145.613 184.017 146.308C183.272 146.984 182.576 147.701 181.813 148.319C181.044 148.934 180.284 149.539 179.535 150.138C178.794 150.744 178.053 151.328 177.271 151.836C176.505 152.36 175.749 152.878 175.005 153.386C173.509 154.382 171.968 155.201 170.546 156.061C169.05 156.802 167.65 157.572 166.264 158.186C164.86 158.767 163.567 159.395 162.285 159.83C161.018 160.302 159.837 160.746 158.716 161.076C157.611 161.446 156.58 161.741 155.641 161.981C153.778 162.499 152.276 162.761 151.261 162.949C150.24 163.121 149.692 163.181 149.692 163.181Z" fill="#E9E9E9"/>
<mask id="mask0" mask-type="alpha" maskUnits="userSpaceOnUse" x="17" y="562" width="597" height="3">
<path fill-rule="evenodd" clip-rule="evenodd" d="M17 562.906H613.713V564.106H17V562.906Z" fill="white"/>
</mask>
<g mask="url(#mask0)">
<path fill-rule="evenodd" clip-rule="evenodd" d="M613.713 563.506C613.713 563.589 480.125 563.657 315.371 563.657C150.56 563.657 16.999 563.589 16.999 563.506C16.999 563.423 150.56 563.355 315.371 563.355C480.125 563.355 613.713 563.423 613.713 563.506Z" fill="#1A2E35"/>
</g>
<path fill-rule="evenodd" clip-rule="evenodd" d="M176.615 170.423C176.615 170.423 172.727 166.519 167.208 161.664C167.208 161.664 162.091 156.816 152.719 152.964C152.719 152.964 143.988 148.249 141.313 145.4C141.072 145.144 140.887 144.844 140.748 144.518C139.937 142.609 136.939 135.28 139.551 136.966C140.039 137.28 140.433 137.718 140.739 138.209L144.038 143.495C144.991 144.256 147.017 145.306 148.376 145.974C148.559 146.063 148.722 145.823 148.569 145.687C146.919 144.212 143.783 140.866 140.94 134.768C140.232 133.259 144.527 122.306 146.076 124.187C147.893 126.372 143.133 131.964 145.479 135.056C146.707 136.676 149.142 139.502 150.444 140.998C150.579 141.151 150.823 140.993 150.735 140.808C149.382 137.983 146.183 130.919 147.026 128.924C148.849 124.644 150.9 118.823 152.181 118.53C152.609 118.432 153.678 119.425 152.963 121.758C152.293 123.94 150.494 127.38 151.38 129.701C152.433 132.467 153.714 134.96 154.435 136.292C154.53 136.466 154.712 136.37 154.759 136.178C155.103 134.752 155.082 132.463 155.643 127.697C155.703 127.194 155.867 126.712 156.305 126.46C157.239 125.924 159.799 124.876 161.631 123.57C162.983 122.605 165.163 121.448 166.333 120.286C167.289 119.321 168.144 121.196 166.973 123.466C165.542 126.222 159.786 127.459 159.932 128.755C159.932 128.755 159.789 132.52 161.251 135.512C162.231 137.514 163.736 138.874 166.095 139.601C166.095 139.601 168.507 139.998 168.404 137.106C168.306 134.336 168.655 128.536 170.983 125.929C171.391 125.47 171.788 124.882 172.374 124.696C174.18 124.136 173.003 127.248 172.833 127.838C172.626 128.581 172.472 129.847 172.424 130.631C172.382 131.262 174.153 138.414 174.522 139.775C176.383 146.645 175.741 147.186 176.478 150.648C176.927 152.806 185.421 159.958 185.421 159.958L176.615 170.423Z" fill="#FEC7B0"/>
<path fill-rule="evenodd" clip-rule="evenodd" d="M150.528 141.043C150.5 141.033 150.468 141.025 150.444 140.997C149.142 139.503 146.706 136.676 145.479 135.057C143.621 132.608 146.21 128.596 146.469 125.945C145.234 128.885 143.391 133.378 144.146 134.648C145.06 136.185 146.362 137.477 147.731 139.067C148.74 140.237 150.381 141.153 150.528 141.043Z" fill="#F0A18B"/>
<path fill-rule="evenodd" clip-rule="evenodd" d="M152.962 121.758C153.177 121.058 153.229 120.481 153.187 120.016C153.133 120.341 153.07 120.662 153.003 120.971C152.517 123.176 150.897 125.995 150.52 128.149C150.344 129.157 151.016 130.932 151.947 133.12C152.694 134.872 154.282 136.224 154.372 136.176C153.642 134.82 152.404 132.394 151.38 129.701C150.494 127.38 152.293 123.938 152.962 121.758Z" fill="#F0A18B"/>
<path fill-rule="evenodd" clip-rule="evenodd" d="M143.47 143.854C144.355 144.598 146.749 146.068 147.907 146.135C148.076 146.069 148.244 146.018 148.41 145.978C148.398 145.974 148.389 145.979 148.376 145.974C147.016 145.306 144.992 144.256 144.038 143.494L140.739 138.209C140.492 137.813 140.185 137.455 139.821 137.166C140.56 138.076 141.244 139.336 141.871 140.477C143.402 143.26 143.044 143.495 143.47 143.854Z" fill="#F0A18B"/>
<path fill-rule="evenodd" clip-rule="evenodd" d="M174.692 148.49C174.9 150.793 174.362 151.385 175.818 153.311C177.017 154.895 178.484 155.939 179.95 157.242C181.378 158.51 183.018 160.081 183.766 161.923L185.421 159.959C185.421 159.959 176.926 152.807 176.477 150.649C175.742 147.186 176.382 146.645 174.521 139.775C174.387 139.278 174.066 138.009 173.715 136.569C174.632 143.005 174.608 147.555 174.692 148.49Z" fill="#F0A18B"/>
<path fill-rule="evenodd" clip-rule="evenodd" d="M172.374 124.695C171.788 124.881 171.392 125.47 170.983 125.928C168.655 128.535 168.306 134.336 168.404 137.106C168.507 139.998 166.096 139.601 166.096 139.601C163.736 138.873 162.231 137.514 161.251 135.513C159.789 132.52 159.932 128.756 159.932 128.756C159.786 127.46 165.543 126.221 166.972 123.466C167.307 122.816 167.469 122.205 167.517 121.677C167.149 122.453 166.772 123.149 166.59 123.419C165.504 125.015 163.238 126.083 161.719 126.474C159.022 127.168 158.86 127.806 159.279 130.67C159.632 133.078 159.978 136.404 161.307 138.351C162.613 140.265 164.071 142.223 166.278 143.174C167.293 143.61 169.014 144.504 169.432 142.751C169.711 141.585 170.026 140.428 170.091 139.223C170.316 135.005 169.429 129.381 172.143 125.754C172.456 125.333 172.807 125.026 173.175 124.808C173.025 124.635 172.777 124.57 172.374 124.695Z" fill="#F0A18B"/>
<path fill-rule="evenodd" clip-rule="evenodd" d="M171.068 127.95C171.068 127.95 171.683 125.589 172.692 125.268C174.251 124.767 172.472 128.614 172.472 128.614C171.608 128.61 171.068 127.95 171.068 127.95Z" fill="#F7DFD2"/>
<path fill-rule="evenodd" clip-rule="evenodd" d="M166.573 120.102C166.573 120.102 166.281 121.858 164.865 122.769C163.567 123.604 163.598 122.29 163.598 122.29C163.598 122.29 165.945 120.255 166.573 120.102Z" fill="#F7DFD2"/>
<path fill-rule="evenodd" clip-rule="evenodd" d="M151.731 118.821C151.731 118.821 152.079 119.758 151.147 121.358C150.359 122.709 149.999 121.804 149.999 121.804C149.999 121.804 150.589 119.942 151.731 118.821Z" fill="#F7DFD2"/>
<path fill-rule="evenodd" clip-rule="evenodd" d="M145.214 124.159C145.214 124.159 145.543 124.771 144.612 126.371C143.825 127.722 143.266 126.916 143.266 126.916C143.266 126.916 144.41 124.523 145.214 124.159Z" fill="#F7DFD2"/>
<path fill-rule="evenodd" clip-rule="evenodd" d="M138.515 137.229C138.515 137.229 139.114 137.357 139.679 138.936C140.156 140.269 139.106 140.181 139.106 140.181C139.106 140.181 138.202 137.994 138.515 137.229Z" fill="#F7DFD2"/>
<mask id="mask1" mask-type="alpha" maskUnits="userSpaceOnUse" x="166" y="119" width="8" height="8">
<path fill-rule="evenodd" clip-rule="evenodd" d="M166.603 122.242C166.58 122.268 166.559 122.295 166.539 122.322C167.426 122.397 168.321 122.627 168.896 122.95C170.213 123.692 171.197 125.087 171.412 126.614C171.416 126.638 171.417 126.658 171.419 126.681C171.485 126.608 171.553 126.538 171.615 126.461C173.726 123.952 174.315 120.976 172.93 119.81C172.553 119.493 172.07 119.343 171.523 119.343C170.057 119.343 168.139 120.416 166.603 122.242Z" fill="white"/>
</mask>
<g mask="url(#mask1)">
<path fill-rule="evenodd" clip-rule="evenodd" d="M166.603 122.242C166.58 122.268 166.559 122.295 166.539 122.322C167.426 122.397 168.321 122.627 168.896 122.95C170.213 123.692 171.197 125.087 171.412 126.614C171.416 126.638 171.417 126.658 171.419 126.681C171.485 126.608 171.553 126.538 171.615 126.461C173.726 123.952 174.315 120.976 172.93 119.81C172.553 119.493 172.07 119.343 171.523 119.343C170.057 119.343 168.139 120.416 166.603 122.242Z" fill="#FA2222"/>
</g>
<path fill-rule="evenodd" clip-rule="evenodd" d="M168.279 125.932C167.206 126.964 166.009 127.506 164.805 127.382C164.869 127.925 165.071 128.38 165.435 128.684C166.699 129.75 169.362 128.665 171.383 126.265C173.404 123.864 174.016 121.055 172.751 119.99C172.485 119.766 172.153 119.641 171.781 119.602C171.491 122.19 170.199 124.085 168.279 125.932Z" fill="#D8D8D1"/>
<path fill-rule="evenodd" clip-rule="evenodd" d="M279.95 56.5789C281.14 42.8629 292.668 32.3665 306.435 32.4517L307.803 32.4601C322.55 33.4117 329.98 46.4677 328.622 61.1833L325.593 120.197C325.542 121.187 325.049 135.205 324.148 135.619L302.698 138.769C289.812 144.69 291.498 120.946 292.082 106.776C292.082 106.776 277.914 104.485 277.824 90.3037C277.782 83.4541 278.842 69.3397 279.95 56.5789Z" fill="#FFBF9D"/>
<path fill-rule="evenodd" clip-rule="evenodd" d="M291.965 106.755C291.965 106.755 301.016 107.355 310.578 101.431C310.578 101.431 306.145 111.609 292.004 110.246L291.965 106.755Z" fill="#FF9A6C"/>
<path fill-rule="evenodd" clip-rule="evenodd" d="M284.904 65.4324C284.86 66.5016 285.728 67.4208 286.844 67.488C287.958 67.554 288.899 66.744 288.943 65.6748C288.986 64.6068 288.119 63.6852 287.005 63.618C285.889 63.552 284.948 64.3632 284.904 65.4324Z" fill="#1A2E35"/>
<path fill-rule="evenodd" clip-rule="evenodd" d="M282.955 63.5433C283.203 63.8085 284.744 62.6817 286.924 62.7021C289.1 62.6889 290.692 63.8193 290.93 63.5553C291.048 63.4365 290.794 62.9589 290.102 62.4477C289.419 61.9389 288.253 61.4409 286.896 61.4385C285.538 61.4373 284.394 61.9293 283.734 62.4369C283.062 62.9481 282.831 63.4233 282.955 63.5433Z" fill="#1A2E35"/>
<path fill-rule="evenodd" clip-rule="evenodd" d="M306.319 66.2693C306.275 67.3397 307.143 68.2577 308.258 68.3249C309.373 68.3921 310.313 67.5809 310.357 66.5117C310.401 65.4437 309.533 64.5221 308.419 64.4549C307.303 64.3889 306.363 65.2001 306.319 66.2693Z" fill="#1A2E35"/>
<path fill-rule="evenodd" clip-rule="evenodd" d="M304.372 64.0794C304.621 64.3446 306.163 63.219 308.342 63.2382C310.518 63.2262 312.11 64.3566 312.348 64.0914C312.464 63.9738 312.215 63.4962 311.519 62.985C310.837 62.475 309.671 61.977 308.314 61.9746C306.955 61.9746 305.812 62.4666 305.15 62.9742C304.481 63.4842 304.248 63.9594 304.372 64.0794Z" fill="#1A2E35"/>
<path fill-rule="evenodd" clip-rule="evenodd" d="M296.364 80.1911C296.376 80.0675 295.022 79.8251 292.83 79.5311C292.273 79.4699 291.746 79.3571 291.655 78.9755C291.528 78.5735 291.763 77.9747 292.038 77.3291C292.568 75.9863 293.125 74.5775 293.708 73.1027C296.032 67.0835 297.715 62.1335 297.472 62.0423C297.229 61.9511 295.148 66.7559 292.828 72.7739C292.268 74.2583 291.734 75.6719 291.226 77.0255C291.011 77.6579 290.644 78.3719 290.923 79.2083C291.071 79.6247 291.478 79.9295 291.833 80.0267C292.189 80.1383 292.501 80.1467 292.777 80.1647C294.985 80.2967 296.354 80.3159 296.364 80.1911Z" fill="#1A2E35"/>
<path fill-rule="evenodd" clip-rule="evenodd" d="M303.86 55.5365C304.072 56.1305 306.248 55.8617 308.803 56.1869C311.365 56.4593 313.422 57.2201 313.764 56.6909C313.918 56.4377 313.561 55.8773 312.731 55.3001C311.909 54.7217 310.592 54.1685 309.06 53.9885C307.526 53.8121 306.12 54.0473 305.185 54.4193C304.244 54.7925 303.77 55.2557 303.86 55.5365Z" fill="#1A2E35"/>
<path fill-rule="evenodd" clip-rule="evenodd" d="M283.794 57.2405C284.174 57.7385 285.678 57.2333 287.484 57.2201C289.288 57.1445 290.816 57.5729 291.17 57.0581C291.326 56.8085 291.089 56.3105 290.423 55.8377C289.769 55.3661 288.669 54.9785 287.429 55.0085C286.188 55.0397 285.112 55.4813 284.48 55.9853C283.839 56.4905 283.626 56.9981 283.794 57.2405Z" fill="#1A2E35"/>
<path fill-rule="evenodd" clip-rule="evenodd" d="M326.413 71.6674C326.655 71.5642 336.173 68.8438 335.804 78.5374C335.435 88.2286 325.781 85.8586 325.775 85.5814C325.768 85.3018 326.413 71.6674 326.413 71.6674Z" fill="#FFBF9D"/>
<path fill-rule="evenodd" clip-rule="evenodd" d="M328.022 82.0157C328.067 81.9869 328.188 82.1405 328.468 82.2821C328.741 82.4189 329.216 82.5257 329.729 82.3553C330.767 82.0181 331.692 80.4257 331.804 78.6809C331.862 77.8001 331.71 76.9529 331.424 76.2449C331.154 75.5249 330.715 75.0125 330.203 74.9009C329.695 74.7629 329.318 75.0569 329.19 75.3269C329.048 75.5921 329.102 75.7889 329.051 75.8021C329.023 75.8261 328.849 75.6329 328.943 75.2357C328.991 75.0437 329.112 74.8193 329.347 74.6417C329.587 74.4617 329.933 74.3789 330.29 74.4317C331.036 74.5109 331.682 75.2249 331.997 76.0001C332.352 76.7825 332.545 77.7353 332.479 78.7253C332.344 80.6753 331.273 82.4645 329.856 82.8161C329.168 82.9685 328.607 82.7405 328.322 82.5005C328.032 82.2497 327.989 82.0313 328.022 82.0157Z" fill="#FF9A6C"/>
<path fill-rule="evenodd" clip-rule="evenodd" d="M320.294 42.7974L279.862 43.359C281.14 40.5798 283.404 38.3658 285.856 36.537C291.144 32.5962 297.621 30.1614 304.215 30.099C310.809 30.0378 324.164 38.1762 328.903 42.7626C332.695 46.431 332.646 49.5786 332.646 49.5786C333.21 54.825 330.226 60.7602 329.018 65.8962C328.395 68.5458 327.169 76.5654 327.169 76.5654C324.94 76.539 324.127 74.7606 324.483 72.561L324.97 63.9246C324.97 63.9246 317.439 58.479 321.109 48.6558C321.692 47.8758 322.951 44.2854 320.294 42.7974Z" fill="#1A2E35"/>
<path fill-rule="evenodd" clip-rule="evenodd" d="M311.554 73.3877C311.683 73.4141 311.814 73.3205 311.843 73.1789C311.873 73.0361 311.79 72.9005 311.661 72.8729C311.53 72.8465 311.401 72.9401 311.373 73.0817C311.343 73.2233 311.425 73.3613 311.554 73.3877Z" fill="#FF9A6C"/>
<path fill-rule="evenodd" clip-rule="evenodd" d="M307.397 72.4172C307.527 72.4436 307.66 72.3344 307.693 72.1712C307.726 72.008 307.649 71.8544 307.519 71.828C307.389 71.8004 307.257 71.9108 307.222 72.074C307.188 72.2372 307.267 72.392 307.397 72.4172Z" fill="#FF9A6C"/>
<path fill-rule="evenodd" clip-rule="evenodd" d="M304.594 72.3322C304.726 72.3502 304.856 72.1894 304.883 71.9734C304.913 71.7586 304.828 71.5702 304.697 71.5534C304.567 71.5354 304.436 71.6962 304.408 71.911C304.379 72.1258 304.463 72.3142 304.594 72.3322Z" fill="#FF9A6C"/>
<path fill-rule="evenodd" clip-rule="evenodd" d="M309.491 75.988C309.625 75.9892 309.733 75.9208 309.733 75.8356C309.734 75.7516 309.626 75.682 309.494 75.6808C309.362 75.6796 309.254 75.748 309.253 75.8332C309.253 75.9172 309.359 75.9868 309.491 75.988Z" fill="#FF9A6C"/>
<path fill-rule="evenodd" clip-rule="evenodd" d="M305.679 75.0792C305.811 75.0924 305.93 74.9808 305.944 74.8308C305.958 74.6796 305.862 74.5488 305.73 74.5368C305.598 74.5236 305.479 74.6352 305.464 74.7864C305.452 74.9364 305.547 75.0672 305.679 75.0792Z" fill="#FF9A6C"/>
<path fill-rule="evenodd" clip-rule="evenodd" d="M285.823 72.5867C285.953 72.6131 286.084 72.5147 286.114 72.3683C286.145 72.2219 286.063 72.0815 285.934 72.0551C285.803 72.0275 285.673 72.1247 285.643 72.2723C285.612 72.4187 285.694 72.5603 285.823 72.5867Z" fill="#FF9A6C"/>
<path fill-rule="evenodd" clip-rule="evenodd" d="M282.988 72.3084C283.119 72.3228 283.241 72.198 283.258 72.0336C283.275 71.8668 283.182 71.7204 283.05 71.706C282.917 71.6916 282.797 71.8164 282.78 71.9832C282.763 72.1488 282.856 72.2952 282.988 72.3084Z" fill="#FF9A6C"/>
<path fill-rule="evenodd" clip-rule="evenodd" d="M288.328 72.6722C288.457 72.6986 288.582 72.6278 288.605 72.5138C288.629 72.3986 288.544 72.2858 288.413 72.2582C288.283 72.2318 288.159 72.3026 288.136 72.4166C288.112 72.5306 288.198 72.6458 288.328 72.6722Z" fill="#FF9A6C"/>
<path fill-rule="evenodd" clip-rule="evenodd" d="M286.207 75.4964C286.33 75.5504 286.479 75.4808 286.541 75.3416C286.603 75.2012 286.557 75.044 286.435 74.9888C286.314 74.9348 286.165 75.0044 286.103 75.1448C286.039 75.284 286.086 75.4424 286.207 75.4964Z" fill="#FF9A6C"/>
<path fill-rule="evenodd" clip-rule="evenodd" d="M283.788 74.9974C283.916 74.9638 283.996 74.8486 283.968 74.7406C283.939 74.6326 283.813 74.5726 283.683 74.6074C283.556 74.641 283.474 74.7562 283.504 74.8642C283.532 74.9722 283.66 75.031 283.788 74.9974Z" fill="#FF9A6C"/>
<path fill-rule="evenodd" clip-rule="evenodd" d="M329.165 43.3177C330.225 39.7861 329.229 35.8345 326.981 32.9101C324.731 29.9881 321.031 28.2421 317.343 28.3621C315.455 28.4245 313.575 28.9429 311.697 28.7233C308.204 28.3117 305.529 25.4869 302.297 24.0973C297.259 21.9349 290.814 23.8105 287.725 28.3405C286.481 30.1657 285.654 32.4289 283.761 33.5689C282.125 34.5553 280.073 34.4545 278.238 34.9921C274.527 36.0769 271.961 39.9853 272.121 43.8469C272.282 47.7085 274.958 51.2653 278.502 52.8073C282.047 54.3493 286.289 53.9617 289.681 52.1101C292.745 50.4385 295.5 47.5645 298.988 47.6953C302.6 47.8309 305.731 51.2641 309.283 50.5873C311.144 50.2321 312.589 48.8113 313.961 47.5033C315.332 46.1953 316.909 44.8645 318.803 44.7685C320.695 44.6725 321.66 47.2801 320.969 49.0441L329.165 43.3177Z" fill="#1A2E35"/>
<path fill-rule="evenodd" clip-rule="evenodd" d="M280.687 38.2343C280.681 38.2367 280.704 38.2847 280.752 38.3759C280.8 38.4659 280.869 38.6039 280.983 38.7683C281.201 39.1055 281.561 39.5831 282.131 40.0943C282.7 40.6043 283.492 41.1407 284.523 41.5067C285.549 41.8703 286.834 42.0347 288.19 41.7551C289.537 41.4851 290.964 40.7903 292.075 39.5855C293.191 38.3819 293.86 36.7643 294.899 35.3483C295.417 34.6403 296.064 34.0043 296.871 33.5939C297.681 33.1919 298.613 33.0023 299.557 33.0251C300.501 33.0563 301.452 33.3179 302.302 33.7895C303.149 34.2743 303.846 34.9967 304.312 35.8919C304.793 36.7835 305.135 37.7615 305.715 38.6303C306.269 39.5099 307.246 40.1771 308.291 40.2263C309.331 40.2935 310.297 39.9131 311.119 39.4355C311.955 38.9567 312.649 38.3063 313.281 37.6763C314.537 36.4271 315.779 35.1815 317.313 34.8539C318.829 34.5059 320.308 35.0747 321.364 35.8403C322.443 36.6251 323.131 37.6595 323.572 38.6207C324.013 39.5891 324.241 40.4891 324.385 41.2271C324.528 41.9663 324.594 42.5507 324.64 42.9455C324.683 43.3415 324.705 43.5503 324.719 43.5491C324.726 43.5491 324.73 43.4963 324.73 43.3943C324.73 43.2911 324.729 43.1387 324.717 42.9395C324.699 42.5411 324.658 41.9519 324.534 41.2007C324.412 40.4507 324.204 39.5315 323.771 38.5319C323.341 37.5395 322.643 36.4523 321.528 35.6183C320.439 34.8083 318.888 34.1783 317.243 34.5371C315.582 34.8827 314.286 36.1883 313.03 37.4183C312.393 38.0471 311.73 38.6591 310.931 39.1127C310.147 39.5675 309.24 39.9095 308.319 39.8459C307.396 39.7931 306.559 39.2303 306.037 38.4131C305.496 37.6031 305.154 36.6347 304.656 35.7071C304.17 34.7663 303.399 33.9611 302.494 33.4523C301.584 32.9483 300.571 32.6735 299.568 32.6435C298.565 32.6195 297.57 32.8259 296.703 33.2603C295.831 33.7079 295.141 34.4003 294.61 35.1347C293.543 36.6119 292.895 38.2103 291.837 39.3683C290.789 40.5239 289.426 41.2091 288.133 41.4839C286.831 41.7707 285.594 41.6339 284.593 41.3003C283.587 40.9643 282.802 40.4603 282.231 39.9791C281.086 38.9987 280.732 38.1995 280.687 38.2343Z" fill="#375A64"/>
<path fill-rule="evenodd" clip-rule="evenodd" d="M273.36 38.3184C273.342 38.3136 273.243 38.5836 273.188 39.096C273.134 39.606 273.145 40.3656 273.376 41.2632C273.612 42.156 274.081 43.1844 274.868 44.13C275.652 45.078 276.759 45.9024 278.046 46.4832C280.65 47.6496 283.303 47.568 285.091 47.3376C285.997 47.2164 286.719 47.058 287.212 46.9332C287.706 46.806 287.972 46.7124 287.966 46.6884C287.952 46.6224 286.856 46.8876 285.061 47.0628C283.285 47.2212 280.71 47.25 278.205 46.1268C276.968 45.5688 275.904 44.7888 275.142 43.896C274.376 43.0068 273.901 42.0372 273.64 41.1888C273.127 39.4632 273.446 38.3184 273.36 38.3184Z" fill="#375A64"/>
<path fill-rule="evenodd" clip-rule="evenodd" d="M300.728 84.2727C300.38 84.2511 300.376 86.5719 298.39 88.2183C296.408 89.8707 293.934 89.6103 293.916 89.9355C293.884 90.0807 294.467 90.3855 295.51 90.4143C296.535 90.4491 298.03 90.1203 299.246 89.1123C300.456 88.1019 300.977 86.7543 301.056 85.8027C301.146 84.8343 300.887 84.2583 300.728 84.2727Z" fill="#1A2E35"/>
<path fill-rule="evenodd" clip-rule="evenodd" d="M395.702 297.517C395.702 297.517 395.588 287.855 395.179 287.779L375.329 292.194C375.121 293.453 372.617 309.299 373.045 310.842L395.377 317.036C395.377 317.036 395.702 298.078 395.702 297.517Z" fill="#FFBF9D"/>
<path fill-rule="evenodd" clip-rule="evenodd" d="M395.723 315.565C395.76 315.545 395.794 315.39 395.821 315.128C396.049 312.966 395.91 303.527 394.758 303.123C393.468 302.671 390.243 303.409 390.019 304.652C389.797 305.895 390.553 316.521 390.553 316.521C390.553 316.521 390.78 318.193 393.595 318.6C395.333 318.851 395.723 315.565 395.723 315.565Z" fill="#FFBF9D"/>
<path fill-rule="evenodd" clip-rule="evenodd" d="M390.061 318.96C390.099 318.94 390.132 318.785 390.159 318.525C390.387 316.361 390.249 306.922 389.097 306.519C387.805 306.066 384.581 306.804 384.358 308.048C384.137 309.291 384.892 319.916 384.892 319.916C384.892 319.916 385.119 321.588 387.934 321.995C389.671 322.246 390.061 318.96 390.061 318.96Z" fill="#FFBF9D"/>
<path fill-rule="evenodd" clip-rule="evenodd" d="M384.522 320.655C384.559 320.634 384.593 320.48 384.619 320.219C384.847 318.056 384.709 308.616 383.557 308.213C382.266 307.761 379.041 308.499 378.818 309.742C378.596 310.985 379.352 321.61 379.352 321.61C379.352 321.61 379.579 323.283 382.394 323.69C384.132 323.94 384.522 320.655 384.522 320.655Z" fill="#FFBF9D"/>
<path fill-rule="evenodd" clip-rule="evenodd" d="M379.012 322.248C379.049 322.227 379.084 322.072 379.11 321.812C379.338 319.648 379.199 310.209 378.048 309.806C376.757 309.354 373.531 310.092 373.308 311.335C373.087 312.578 373.843 323.204 373.843 323.204C373.843 323.204 374.069 324.876 376.884 325.282C378.623 325.533 379.012 322.248 379.012 322.248Z" fill="#FFBF9D"/>
<path fill-rule="evenodd" clip-rule="evenodd" d="M389.977 307.414C390.139 307.427 390.337 309.485 390.419 312.008C390.5 314.533 390.434 316.568 390.272 316.553C390.109 316.54 389.911 314.485 389.831 311.96C389.749 309.436 389.814 307.4 389.977 307.414Z" fill="#FF9A6C"/>
<path fill-rule="evenodd" clip-rule="evenodd" d="M384.411 307.384C384.575 307.378 384.811 310.303 384.94 313.915C385.068 317.53 385.038 320.463 384.876 320.469C384.712 320.475 384.475 317.551 384.346 313.937C384.219 310.324 384.246 307.39 384.411 307.384Z" fill="#FF9A6C"/>
<path fill-rule="evenodd" clip-rule="evenodd" d="M378.756 307.851C378.921 307.845 379.157 310.77 379.285 314.382C379.414 317.997 379.384 320.931 379.222 320.937C379.056 320.941 378.82 318.018 378.691 314.404C378.564 310.791 378.593 307.857 378.756 307.851Z" fill="#FF9A6C"/>
<path fill-rule="evenodd" clip-rule="evenodd" d="M375.202 292.713C375.202 292.713 367.345 310.564 368.494 311.673C369.641 312.782 373.327 314.483 373.327 314.483L375.202 292.713Z" fill="#FFBF9D"/>
<mask id="mask2" mask-type="alpha" maskUnits="userSpaceOnUse" x="248" y="516" width="55" height="56">
<path fill-rule="evenodd" clip-rule="evenodd" d="M248.042 516.718H302.217V571.44H248.042V516.718Z" fill="white"/>
</mask>
<g mask="url(#mask2)">
<path fill-rule="evenodd" clip-rule="evenodd" d="M269.949 521.445L274.269 550.236C274.269 550.236 247.424 566.07 248.053 571.44L302.217 561.702L295.844 516.718L269.949 521.445Z" fill="#FFBF9D"/>
</g>
<path fill-rule="evenodd" clip-rule="evenodd" d="M331.323 524.915L332.241 554.016C332.241 554.016 302.969 564.723 302.615 570.117L359.103 570.364L356.17 524.956L331.323 524.915Z" fill="#FFBF9D"/>
<path fill-rule="evenodd" clip-rule="evenodd" d="M359.104 570.364L358.969 565.787L304.859 567.261C304.859 567.261 302.339 568.343 302.616 570.117L359.104 570.364Z" fill="#FFBF9D"/>
<path fill-rule="evenodd" clip-rule="evenodd" d="M273.389 546.188C273.389 546.188 252.399 395.517 252.375 392.674L287.792 373.949L299.573 543.05L273.389 546.188Z" fill="#FFBF9D"/>
<path fill-rule="evenodd" clip-rule="evenodd" d="M332.155 551.274L290.184 304.75V251.648L334.818 257.627C335.508 259.696 358.201 550.973 358.201 550.973L357.768 550.949L332.155 551.274Z" fill="#FFBF9D"/>
<path fill-rule="evenodd" clip-rule="evenodd" d="M290.184 303.012C289.995 303.041 292.358 318.947 295.461 338.533C298.566 358.127 301.236 373.98 301.426 373.949C301.616 373.919 299.254 358.017 296.15 338.425C293.045 318.837 290.374 302.982 290.184 303.012Z" fill="#375A64"/>
<path fill-rule="evenodd" clip-rule="evenodd" d="M181.062 155.401L221.532 182.014C221.532 182.014 251.879 130.262 254.56 127.044C257.241 123.827 264.057 120.383 264.057 120.383L260.289 186.737C260.289 186.737 243.875 228.625 221.352 226.35C204.103 224.608 173.448 167.158 173.448 167.158L181.062 155.401Z" fill="#00A3FF"/>
<path fill-rule="evenodd" clip-rule="evenodd" d="M220.926 181.233C216.393 188.179 215.148 197.178 217.628 205.094C217.881 205.902 218.22 206.761 218.949 207.195C220.04 207.846 221.53 207.177 222.213 206.107C222.898 205.037 222.987 203.705 223.055 202.436C223.689 203.612 224.361 204.836 225.465 205.591C226.569 206.346 228.238 206.454 229.137 205.464C230.22 204.27 229.624 202.383 228.972 200.909C226.194 194.612 223.415 188.317 220.636 182.021" fill="#009CE3"/>
<path fill-rule="evenodd" clip-rule="evenodd" d="M221.571 197.736C221.361 197.811 220.145 194.37 220.089 189.915C220.005 185.461 221.117 181.982 221.329 182.052C221.588 182.109 220.891 185.58 220.974 189.902C221.024 194.221 221.829 197.671 221.571 197.736Z" fill="#1A2E35"/>
<path fill-rule="evenodd" clip-rule="evenodd" d="M227.891 197.513C227.695 197.636 225.557 194.483 223.711 190.181C221.85 185.882 221.026 182.162 221.251 182.105C221.497 182.034 222.688 185.594 224.522 189.83C226.34 194.071 228.113 197.383 227.891 197.513Z" fill="#1A2E35"/>
<path fill-rule="evenodd" clip-rule="evenodd" d="M332.291 114.079L328.511 117.012C322.582 121.612 315.255 124.038 307.753 123.883C301.073 123.746 294.598 121.57 289.191 117.649L286.09 115.4L264.057 120.384L254.565 262.472C254.505 264.273 254.941 266.056 255.825 267.625L342.463 270.954L345.989 272.396C349.099 270.481 347.158 262.562 347.195 258.845L348.305 188.473L365.446 132.246L332.291 114.079Z" fill="#00A3FF"/>
<path fill-rule="evenodd" clip-rule="evenodd" d="M395.857 292.245L375.201 292.713L372.456 226.439L348.305 188.472L365.445 132.245C368.979 133.636 395.582 200.441 402.356 218.578C403.334 221.199 403.761 223.979 403.617 226.772L395.857 292.245Z" fill="#00A3FF"/>
<path fill-rule="evenodd" clip-rule="evenodd" d="M361.78 134.254C361.848 134.514 356.827 135.874 351.005 138.48C345.168 141.059 340.798 143.877 340.65 143.651C340.587 143.556 341.601 142.728 343.374 141.579C345.147 140.429 347.697 138.987 350.646 137.674C353.597 136.364 356.375 135.435 358.416 134.89C360.457 134.342 361.752 134.144 361.78 134.254Z" fill="#1A2E35"/>
<path fill-rule="evenodd" clip-rule="evenodd" d="M348.407 188.592C347.623 208.072 346.84 227.554 346.057 247.035C339.718 223.5 338.001 198.727 341.034 174.542C343.572 179.126 346.11 183.712 348.648 188.296" fill="black"/>
<path fill-rule="evenodd" clip-rule="evenodd" d="M267.165 268.333C267.147 268.576 265.337 268.247 264.169 266.491C262.981 264.748 263.357 262.945 263.589 263.021C263.842 263.033 263.894 264.545 264.902 265.997C265.868 267.476 267.249 268.094 267.165 268.333Z" fill="#1A2E35"/>
<path fill-rule="evenodd" clip-rule="evenodd" d="M269.424 267.395C269.272 267.567 267.629 266.001 266.979 263.374C266.302 260.755 267.005 258.596 267.22 258.675C267.478 258.719 267.21 260.768 267.835 263.158C268.421 265.558 269.631 267.233 269.424 267.395Z" fill="#1A2E35"/>
<path fill-rule="evenodd" clip-rule="evenodd" d="M334.817 257.626C335.036 257.59 335.246 261.038 333.465 264.778C331.719 268.538 328.929 270.573 328.817 270.382C328.628 270.189 331.017 267.965 332.664 264.401C334.358 260.861 334.546 257.602 334.817 257.626Z" fill="#1A2E35"/>
<path fill-rule="evenodd" clip-rule="evenodd" d="M255.929 242.034C255.929 242.034 249.242 297.993 248.042 302.408C246.842 306.822 243.359 353.022 240.748 379.022C238.514 401.252 237.038 422.297 239.147 439.285C239.843 444.885 242.404 459.228 248.042 458.952C272.71 457.738 334.285 454.718 364.287 450.844C369.317 450.194 372.931 445.693 372.467 440.642C370.954 424.154 367.625 388.531 365.446 369.679C362.548 344.622 363.123 326.022 359.535 299.622C359.535 299.622 351.548 177.155 348.649 171.488C345.748 165.822 286.7 164.943 277.823 193.283C268.948 221.622 255.929 242.034 255.929 242.034Z" fill="#00A3FF"/>
<path fill-rule="evenodd" clip-rule="evenodd" d="M372.456 226.439C372.456 226.439 373.498 223.271 380.248 221.621L372.456 226.439Z" fill="#1A2E35"/>
<path fill-rule="evenodd" clip-rule="evenodd" d="M351.509 193.238C351.509 193.238 349.547 315.422 355.547 365.022C361.547 414.621 355.547 451.853 355.547 451.853C355.547 451.853 367.93 452.142 370.888 446.781C373.847 441.422 370.447 418.988 370.447 418.988L351.509 193.238Z" fill="#009CE3"/>
<path fill-rule="evenodd" clip-rule="evenodd" d="M201.704 278.964L175.953 290.153C172.5 291.654 168.482 290.071 166.982 286.616L166.928 286.489C165.427 283.037 167.01 279.019 170.465 277.519L196.215 266.33C199.669 264.829 203.685 266.413 205.187 269.867L205.241 269.993C206.742 273.446 205.159 277.464 201.704 278.964Z" fill="white"/>
<path fill-rule="evenodd" clip-rule="evenodd" d="M183.251 271.964L170.465 277.52C167.01 279.02 165.426 283.037 166.927 286.49L166.982 286.617C168.482 290.072 172.5 291.655 175.953 290.153L188.739 284.597L183.251 271.964Z" fill="#D40000"/>
<path opacity="0.331403" fill-rule="evenodd" clip-rule="evenodd" d="M200.499 273.803L186.657 279.818L173.004 285.749C171.089 286.581 169.045 286.59 167.317 285.944C167.332 285.978 167.341 286.014 167.357 286.049L167.411 286.172C168.87 289.53 172.776 291.072 176.136 289.612L188.573 284.207L201.184 278.728C204.544 277.269 206.083 273.362 204.624 270.002L204.571 269.878C204.556 269.844 204.537 269.813 204.522 269.778C203.815 271.484 202.414 272.972 200.499 273.803Z" fill="#D7D7D7"/>
<path fill-rule="evenodd" clip-rule="evenodd" d="M170.893 289.547L150.226 308.551C147.454 311.1 143.14 310.919 140.591 308.147L140.497 308.045C137.949 305.273 138.13 300.96 140.902 298.411L161.569 279.407C164.343 276.858 168.657 277.038 171.205 279.811L171.298 279.913C173.847 282.684 173.667 286.998 170.893 289.547Z" fill="white"/>
<path fill-rule="evenodd" clip-rule="evenodd" d="M151.165 288.975L140.901 298.411C138.131 300.96 137.948 305.274 140.497 308.046L140.591 308.148C143.141 310.919 147.453 311.1 150.227 308.551L160.489 299.116L151.165 288.975Z" fill="#FE1515"/>
<path opacity="0.320545" fill-rule="evenodd" clip-rule="evenodd" d="M168.063 285.066L156.954 295.281L145.997 305.355C144.459 306.769 142.532 307.446 140.687 307.4C140.712 307.429 140.733 307.459 140.759 307.488L140.849 307.586C143.329 310.283 147.524 310.459 150.222 307.98L160.203 298.801L170.325 289.494C173.022 287.016 173.197 282.819 170.718 280.123L170.628 280.025C170.601 279.996 170.573 279.973 170.546 279.945C170.438 281.789 169.601 283.652 168.063 285.066Z" fill="#D7D7D7"/>
<path fill-rule="evenodd" clip-rule="evenodd" d="M545.699 539.108C545.699 553.199 519.217 564.627 486.551 564.627C453.883 564.627 427.404 553.199 427.404 539.108C427.404 525.011 453.883 513.585 486.551 513.585C519.217 513.585 545.699 525.011 545.699 539.108Z" fill="#D9D9D9"/>
<path fill-rule="evenodd" clip-rule="evenodd" d="M543.484 322.009H486.756H486.347H429.618C429.618 322.009 415.335 323.308 416.633 334.995C417.933 346.683 428.319 410.311 428.319 410.311C428.319 410.311 428.968 418.104 438.06 418.752H485.373H487.73H535.043C544.133 418.104 544.782 410.311 544.782 410.311C544.782 410.311 555.171 346.683 556.469 334.995C557.765 323.308 543.484 322.009 543.484 322.009Z" fill="#E9E9E9"/>
<path fill-rule="evenodd" clip-rule="evenodd" d="M416.955 337.592H421.455H556.146C556.283 336.564 556.392 335.685 556.47 334.995C557.766 323.308 543.484 322.009 543.484 322.009H429.62C429.62 322.009 415.335 323.308 416.633 334.995C416.712 335.685 416.82 336.564 416.955 337.592Z" fill="#C2C2C2"/>
<path fill-rule="evenodd" clip-rule="evenodd" d="M412.64 333.047H560.457V321.36H412.64V333.047Z" fill="#E9E9E9"/>
<path fill-rule="evenodd" clip-rule="evenodd" d="M421.454 337.592H432.71C432.71 337.592 429.248 365.511 426.217 362.049C423.188 358.585 424.053 345.383 424.053 345.383L421.023 345.599L421.454 337.592Z" fill="#C2C2C2"/>
<path fill-rule="evenodd" clip-rule="evenodd" d="M545.077 346.741C545.077 383.709 518.943 413.676 486.708 413.676C454.473 413.676 428.338 383.709 428.338 346.741C428.338 309.773 454.473 279.807 486.708 279.807C518.943 279.807 545.077 309.773 545.077 346.741Z" fill="#E6E6E6"/>
<path fill-rule="evenodd" clip-rule="evenodd" d="M456.2 417.126H517.215V401.757H456.2V417.126Z" fill="#E0E2E4"/>
<path fill-rule="evenodd" clip-rule="evenodd" d="M541.441 347.332C541.441 381.994 516.935 410.095 486.71 410.095C456.482 410.095 431.977 381.994 431.977 347.332C431.977 312.668 456.482 284.567 486.71 284.567C516.935 284.567 541.441 312.668 541.441 347.332Z" fill="white"/>
<path fill-rule="evenodd" clip-rule="evenodd" d="M516.93 454.797L513.887 430.1H455.65L452.605 454.797H516.93Z" fill="#C8E7FA"/>
<path fill-rule="evenodd" clip-rule="evenodd" d="M527.135 537.671L513.887 430.1H455.65L442.4 537.671C442.4 537.671 439.751 553.56 468.899 557.838L473.255 558.449C477.261 558.626 481.182 558.646 484.767 558.597C488.352 558.646 492.274 558.626 496.282 558.449L500.637 557.838C529.786 553.56 527.135 537.671 527.135 537.671Z" fill="#E1E1E1"/>
<path fill-rule="evenodd" clip-rule="evenodd" d="M527.135 537.671L513.887 430.1H484.44V558.598C484.547 558.597 484.66 558.597 484.767 558.597C488.352 558.646 492.274 558.626 496.282 558.449L500.637 557.838C529.786 553.56 527.135 537.671 527.135 537.671Z" fill="#E9E9E9"/>
<path fill-rule="evenodd" clip-rule="evenodd" d="M527.135 537.671L513.887 430.1H506.898C508.612 451.155 509.504 472.275 510.764 493.364C511.966 513.438 514.601 533.415 515.912 553.474C528.711 547.19 527.135 537.671 527.135 537.671Z" fill="#D9D9D9"/>
<path fill-rule="evenodd" clip-rule="evenodd" d="M541.285 428.924L475.881 434.342L430.329 428.924L422.755 431.302C422.755 431.302 429.897 463.118 450.673 472.857C450.673 472.857 463.34 477.208 477.51 476.643C493.01 477.208 520.94 472.857 520.94 472.857C541.718 463.118 548.86 431.302 548.86 431.302L541.285 428.924Z" fill="#C8E7FA"/>
<path fill-rule="evenodd" clip-rule="evenodd" d="M541.285 428.924L475.881 434.342L430.329 428.924L422.755 431.302C422.755 431.302 429.897 463.118 450.673 472.857C450.673 472.857 463.34 477.208 477.51 476.643C493.01 477.208 520.94 472.857 520.94 472.857C541.718 463.118 548.86 431.302 548.86 431.302L541.285 428.924Z" fill="#E9E9E9"/>
<path fill-rule="evenodd" clip-rule="evenodd" d="M541.284 428.924L475.881 434.342L430.329 428.924L425.925 430.306C426.075 433.469 427.594 436.393 430.814 438.669C436.62 442.768 444.005 444.483 450.899 445.676C460.893 447.405 471.078 447.993 481.209 448.085C484.912 448.118 488.62 448.09 492.323 447.974C497.313 447.811 502.226 446.81 507.213 446.662C512.295 446.511 518.942 447.301 518.85 453.869C518.763 460.096 516.526 466.983 512.183 471.549C511.131 472.659 509.992 473.637 508.797 474.515C515.838 473.65 520.94 472.857 520.94 472.857C541.718 463.118 548.86 431.302 548.86 431.302L541.284 428.924Z" fill="#D2D2D2"/>
<path fill-rule="evenodd" clip-rule="evenodd" d="M549.146 430.332C549.146 439.832 520.802 447.538 485.842 447.538C450.88 447.538 422.538 439.832 422.538 430.332C422.538 420.827 450.88 413.124 485.842 413.124C520.802 413.124 549.146 420.827 549.146 430.332Z" fill="#FAFBFD"/>
<path fill-rule="evenodd" clip-rule="evenodd" d="M531.325 427.452C531.325 434.278 510.96 439.814 485.843 439.814C460.724 439.814 440.361 434.278 440.361 427.452C440.361 420.626 460.724 415.091 485.843 415.091C510.96 415.091 531.325 420.626 531.325 427.452Z" fill="#AEC9D9"/>
<path fill-rule="evenodd" clip-rule="evenodd" d="M531.244 428.161C531.292 427.926 531.325 427.69 531.325 427.452C531.325 420.626 510.961 415.091 485.842 415.091C460.724 415.091 440.362 420.626 440.362 427.452C440.362 427.69 440.395 427.926 440.442 428.161C446.271 422.845 464.388 418.968 485.842 418.968C507.297 418.968 525.414 422.845 531.244 428.161Z" fill="#D2D2D2"/>
<path fill-rule="evenodd" clip-rule="evenodd" d="M485.842 439.814C510.083 439.814 529.891 434.66 531.244 428.161C525.413 422.845 507.297 418.968 485.842 418.968C464.387 418.968 446.271 422.845 440.441 428.161C441.796 434.66 461.602 439.814 485.842 439.814Z" fill="white"/>
</svg>
