<svg id="Layer_1" data-name="Layer 1" xmlns="http://www.w3.org/2000/svg" xmlns:xlink="http://www.w3.org/1999/xlink" viewBox="0 0 598 598"><defs><style>.cls-1,.cls-8{fill:#fff;}.cls-2{fill:#ff3556;opacity:0.09;}.cls-3{fill:#4c4e55;}.cls-4{mask:url(#mask);}.cls-5{fill:#d4d2d7;}.cls-6{fill:#7a7a7a;}.cls-7{fill:#efefef;}.cls-8{opacity:0.24;isolation:isolate;}.cls-9{fill:#509cc7;}.cls-10{fill:#f54910;}.cls-11{fill:#5bb153;}.cls-12{fill:#fdac03;}.cls-13{fill:#eee;}.cls-14{fill:#2b799f;}.cls-15{fill:#63b3e2;}.cls-16{mask:url(#mask-2);}.cls-17,.cls-18,.cls-19,.cls-20,.cls-21{fill:#3c3c42;}.cls-18{font-size:33.9px;}.cls-18,.cls-19,.cls-21{font-family:Poppins-Medium, Poppins;}.cls-19{font-size:13.8px;}.cls-20{font-size:25.26px;font-family:Poppins-Bold, Poppins;font-weight:700;}.cls-21{font-size:12.54px;}</style><mask id="mask" x="108.37" y="136.55" width="381.27" height="326.14" maskUnits="userSpaceOnUse"><g transform="translate(2.61 -1)"><g id="mask0"><path class="cls-1" d="M105.76,137.55H487V463.7H105.76Z"/></g></g></mask><mask id="mask-2" x="108.36" y="123.01" width="381.03" height="351.99" maskUnits="userSpaceOnUse"><g transform="translate(2.61 -1)"><g id="mask1"><path class="cls-1" d="M105.76,476h381V124h-381Z"/></g></g></mask></defs><title>Heart monitor</title><circle class="cls-2" cx="299" cy="299" r="299"/><path class="cls-3" d="M469.67,476H122.88a6.54,6.54,0,0,1-6.67-6.39v-6.38H476.33v6.38A6.53,6.53,0,0,1,469.67,476Z" transform="translate(2.61 -1)"/><g class="cls-4"><path class="cls-5" d="M477,463.7H115.74a10,10,0,0,1-10-10V147.54a10,10,0,0,1,10-10H477a10,10,0,0,1,10,10V453.72A10,10,0,0,1,477,463.7Z" transform="translate(2.61 -1)"/></g><path class="cls-6" d="M457.46,455.08H420.31a25.44,25.44,0,0,0-3.09-12.22,8.87,8.87,0,0,0-.64-1.15,25.55,25.55,0,0,0-3.55-4.58,27.71,27.71,0,0,0-4.54-3.69c-.38-.2-.73-.43-1.1-.64a24.69,24.69,0,0,0-29.73,4.3,25.33,25.33,0,0,0-7.33,18H135.08c-3.69,0-5.76-2.88-4.61-6.44l5.88-18.48a9.78,9.78,0,0,1,8.72-6.44h302.4a9.8,9.8,0,0,1,8.73,6.44l5.88,18.48C463.21,452.2,461.15,455.08,457.46,455.08Z" transform="translate(2.61 -1)"/><path class="cls-1" d="M464.13,450.12l-5.88-17.83a8.82,8.82,0,0,0-2.82-3.91,7.59,7.59,0,0,1,1.15,2.15l5.89,17.84c1.12,3.44-.93,6.22-4.62,6.22H420.69c.05.58,38.83,1.75,38.83,1.75C463.2,456.34,465.27,453.56,464.13,450.12Z" transform="translate(2.61 -1)"/><path class="cls-1" d="M413.41,437.26a26.79,26.79,0,0,0-4.54-3.56c-.38-.2-.73-.43-1.11-.62A25.33,25.33,0,0,0,378,437.23a24,24,0,0,0-7.33,17.36H135.42a5.51,5.51,0,0,1-2.82-.72,4.71,4.71,0,0,0,4.47,2.47h235.3A24.09,24.09,0,0,1,379.69,439a25.36,25.36,0,0,1,29.75-4.15c.36.19.73.42,1.09.62a27.3,27.3,0,0,1,4.16,3.24C414.27,438.2,413.86,437.71,413.41,437.26Z" transform="translate(2.61 -1)"/><path d="M133.79,451.14l5.88-17.9A9.77,9.77,0,0,1,148.4,427H450.76a9.08,9.08,0,0,1,4.66,1.43,9.86,9.86,0,0,0-8-4.7H145.07a9.75,9.75,0,0,0-8.73,6.24l-5.88,17.89c-1,3,.41,5.42,3.15,6.07A5.37,5.37,0,0,1,133.79,451.14Z" transform="translate(2.61 -1)"/><path class="cls-7" d="M242.78,434.17H223.14a3.51,3.51,0,0,0-3.54,3.49v3.49a3.51,3.51,0,0,0,3.54,3.48h19.64a3.51,3.51,0,0,0,3.54-3.48v-3.49A3.52,3.52,0,0,0,242.78,434.17Z" transform="translate(2.61 -1)"/><path class="cls-1" d="M220.57,442.33v-3.4a3.49,3.49,0,0,1,3.57-3.39H244a3.64,3.64,0,0,1,2.36.89,3.52,3.52,0,0,0-3.32-2.26H223.17a3.49,3.49,0,0,0-3.57,3.4V441a3.28,3.28,0,0,0,1.21,2.5A3.32,3.32,0,0,1,220.57,442.33Z" transform="translate(2.61 -1)"/><path d="M242.62,434.17h-.4a3.61,3.61,0,0,1,3.68,3.49v3.48a3.6,3.6,0,0,1-3.7,3.49h.42a3.6,3.6,0,0,0,3.7-3.48v-3.49A3.6,3.6,0,0,0,242.62,434.17Z" transform="translate(2.61 -1)"/><path class="cls-7" d="M282.28,434.17H262.64a3.51,3.51,0,0,0-3.54,3.49v3.49a3.51,3.51,0,0,0,3.54,3.48h19.64a3.51,3.51,0,0,0,3.54-3.48v-3.49A3.52,3.52,0,0,0,282.28,434.17Z" transform="translate(2.61 -1)"/><path class="cls-1" d="M260.07,442.33v-3.4a3.49,3.49,0,0,1,3.57-3.39h19.82a3.64,3.64,0,0,1,2.36.89,3.53,3.53,0,0,0-3.33-2.26H262.68a3.49,3.49,0,0,0-3.58,3.4V441a3.23,3.23,0,0,0,1.22,2.5A3.11,3.11,0,0,1,260.07,442.33Z" transform="translate(2.61 -1)"/><path d="M283.28,434.17h-.4a3.6,3.6,0,0,1,3.67,3.49v3.48a3.59,3.59,0,0,1-3.69,3.49h.42a3.6,3.6,0,0,0,3.7-3.48v-3.49A3.6,3.6,0,0,0,283.28,434.17Z" transform="translate(2.61 -1)"/><path class="cls-7" d="M322.93,434.17H303.3a3.51,3.51,0,0,0-3.54,3.49v3.49a3.51,3.51,0,0,0,3.54,3.48h19.63a3.51,3.51,0,0,0,3.54-3.48v-3.49A3.51,3.51,0,0,0,322.93,434.17Z" transform="translate(2.61 -1)"/><path class="cls-1" d="M300.72,442.33v-3.4a3.49,3.49,0,0,1,3.57-3.39H324.1a3.65,3.65,0,0,1,2.37.89,3.56,3.56,0,0,0-3.33-2.26H303.33a3.49,3.49,0,0,0-3.57,3.4V441a3.28,3.28,0,0,0,1.21,2.5A3.11,3.11,0,0,1,300.72,442.33Z" transform="translate(2.61 -1)"/><path d="M322.78,434.17h-.39a3.59,3.59,0,0,1,3.66,3.49v3.48a3.59,3.59,0,0,1-3.69,3.49h.42a3.59,3.59,0,0,0,3.69-3.48v-3.49A3.59,3.59,0,0,0,322.78,434.17Z" transform="translate(2.61 -1)"/><path class="cls-7" d="M363.59,434.17H344a3.52,3.52,0,0,0-3.55,3.49v3.49a3.52,3.52,0,0,0,3.55,3.48h19.63a3.51,3.51,0,0,0,3.54-3.48v-3.49A3.51,3.51,0,0,0,363.59,434.17Z" transform="translate(2.61 -1)"/><path class="cls-1" d="M341.39,442.33v-3.4a3.49,3.49,0,0,1,3.57-3.39h19.81a3.64,3.64,0,0,1,2.36.89,3.54,3.54,0,0,0-3.33-2.26H344a3.5,3.5,0,0,0-3.58,3.4V441a3.29,3.29,0,0,0,1.22,2.5A3.32,3.32,0,0,1,341.39,442.33Z" transform="translate(2.61 -1)"/><path d="M363.44,434.17h-.39a3.6,3.6,0,0,1,3.67,3.49v3.48a3.6,3.6,0,0,1-3.7,3.49h.42a3.58,3.58,0,0,0,3.69-3.48v-3.49A3.58,3.58,0,0,0,363.44,434.17Z" transform="translate(2.61 -1)"/><path class="cls-7" d="M449.56,434.17H429.92a3.51,3.51,0,0,0-3.54,3.49v3.49a3.51,3.51,0,0,0,3.54,3.48h19.64a3.51,3.51,0,0,0,3.54-3.48v-3.49A3.52,3.52,0,0,0,449.56,434.17Z" transform="translate(2.61 -1)"/><path class="cls-1" d="M427.35,442.33v-3.4a3.48,3.48,0,0,1,3.57-3.39h19.81a3.63,3.63,0,0,1,2.37.89,3.55,3.55,0,0,0-3.33-2.26H430a3.49,3.49,0,0,0-3.57,3.4V441a3.27,3.27,0,0,0,1.2,2.5A3.31,3.31,0,0,1,427.35,442.33Z" transform="translate(2.61 -1)"/><path d="M450.56,434.17h-.39a3.61,3.61,0,0,1,3.67,3.49v3.48a3.6,3.6,0,0,1-3.7,3.49h.42a3.6,3.6,0,0,0,3.7-3.48v-3.49A3.6,3.6,0,0,0,450.56,434.17Z" transform="translate(2.61 -1)"/><path class="cls-7" d="M453.1,179.31v217a10,10,0,0,1-10,10H150.6a10,10,0,0,1-9.7-7.59,9.84,9.84,0,0,1-.29-2.39v-217a10,10,0,0,1,10-10H443.09A10,10,0,0,1,453.1,179.31Z" transform="translate(2.61 -1)"/><path class="cls-3" d="M197.53,136.78l3.69-7.06a11.86,11.86,0,0,1,9.64-5.71H381.69a11.88,11.88,0,0,1,9.64,5.71l3.68,7.06Z" transform="translate(2.61 -1)"/><path class="cls-8" d="M112.43,154a10,10,0,0,1,10-10h82.13l3.69-7.37a11.8,11.8,0,0,1,9.65-6s168-6.66,164.28-6.66h-171a11.8,11.8,0,0,0-9.65,6l-3.69,7.36H115.76a10,10,0,0,0-10,10V453.87C105.76,458.39,112.43,154,112.43,154Z" transform="translate(2.61 -1)"/><path class="cls-9" d="M324.91,287.08c-4.57,0-6.82-3.12-9-6.14-2.06-2.85-4-5.55-7.88-5.55s-5.81,2.7-7.87,5.55c-2.18,3-4.44,6.14-9,6.14s-6.82-3.12-9-6.14c-2.06-2.85-4-5.55-7.87-5.55s-5.8,2.7-7.87,5.55c-2.17,3-4.42,6.14-9,6.14s-6.82-3.12-9-6.14c-2.06-2.85-4-5.55-7.86-5.55s-5.82,2.7-7.88,5.55c-2.18,3-4.43,6.14-9,6.14s-6.82-3.12-9-6.14c-2.06-2.86-4-5.55-7.87-5.55s-5.8,2.7-7.87,5.55c-2.17,3-4.42,6.14-9,6.14s-6.82-3.12-9-6.14c-2.05-2.86-4-5.55-7.86-5.55s-5.8,2.69-7.85,5.55c-2.17,3-4.42,6.14-9,6.14s-6.82-3.12-9-6.14c-2.06-2.85-4-5.55-7.87-5.55V274c4.57,0,6.82,3.12,9,6.13s4,5.56,7.87,5.56,5.8-2.7,7.87-5.56,4.41-6.13,9-6.13,6.82,3.12,9,6.13,4,5.56,7.87,5.56,5.8-2.7,7.87-5.56,4.41-6.13,9-6.13,6.81,3.12,9,6.13,4,5.56,7.87,5.56,5.8-2.7,7.87-5.55c2.18-3,4.42-6.14,9-6.14s6.81,3.12,9,6.13,4,5.56,7.87,5.56,5.8-2.7,7.86-5.56,4.42-6.13,9-6.13,6.82,3.12,9,6.13,4,5.56,7.87,5.56S297,283,299,280.15s4.42-6.13,9-6.13,6.82,3.12,9,6.13,4,5.56,7.88,5.56Z" transform="translate(2.61 -1)"/><path class="cls-9" d="M166.23,265.09H165a16.57,16.57,0,0,1-5.6-1.53,15.2,15.2,0,0,1-2.82-2.35,18.77,18.77,0,0,0-4.23-3.39,11.42,11.42,0,0,0-1.62-.51c-1.54-.41-3.27-.88-4.18-2.81-.13-.28-.26-.62-.39-1a7.31,7.31,0,0,0-.66-1.43,3.86,3.86,0,0,0-.35.51,22.56,22.56,0,0,0-1,4.61c-.63,4.15-1.14,6.94-2.28,7.75a.7.7,0,0,1-.4.12h-1.42v-1.35h1.16c.69-.87,1.25-4.5,1.59-6.73.4-2.63.67-4.28,1.11-5.07.32-.57.82-1.32,1.64-1.27,1,.08,1.41,1.25,1.83,2.38.13.31.24.62.36.88.65,1.35,1.87,1.68,3.29,2.06a13.71,13.71,0,0,1,1.82.58,18.83,18.83,0,0,1,4.63,3.66,15.59,15.59,0,0,0,2.48,2.11,15.26,15.26,0,0,0,5,1.4h1.2Z" transform="translate(2.61 -1)"/><path class="cls-9" d="M193,265.09h-1.21a16.51,16.51,0,0,1-5.59-1.53,14.89,14.89,0,0,1-2.81-2.35,18.61,18.61,0,0,0-4.25-3.39,11.69,11.69,0,0,0-1.61-.51c-1.54-.41-3.27-.88-4.18-2.81-.13-.28-.26-.62-.4-1a9,9,0,0,0-.64-1.42,2.17,2.17,0,0,0-.35.51,21.22,21.22,0,0,0-1,4.62c-.64,4.15-1.14,6.93-2.28,7.74a.72.72,0,0,1-.4.12h-1.42v-1.35h1.15c.7-.87,1.25-4.5,1.59-6.72.41-2.64.67-4.29,1.12-5.08.32-.57.82-1.32,1.64-1.27s1.38,1.19,1.83,2.37c.12.32.24.63.36.88.63,1.36,1.87,1.69,3.29,2.07a13.26,13.26,0,0,1,1.82.58,19,19,0,0,1,4.63,3.66,15.59,15.59,0,0,0,2.48,2.11,15.27,15.27,0,0,0,5,1.4H193Z" transform="translate(2.61 -1)"/><path class="cls-9" d="M219.13,265.09h-1.22a16.51,16.51,0,0,1-5.59-1.53,15.2,15.2,0,0,1-2.82-2.35,18.37,18.37,0,0,0-4.24-3.39,11.69,11.69,0,0,0-1.61-.51c-1.54-.41-3.27-.88-4.18-2.81a9.44,9.44,0,0,1-.4-1,9,9,0,0,0-.64-1.42,2.45,2.45,0,0,0-.36.51,21.85,21.85,0,0,0-1,4.62c-.63,4.15-1.13,6.93-2.28,7.74a.67.67,0,0,1-.39.12H193v-1.35h1.15c.7-.87,1.25-4.5,1.59-6.72.41-2.64.67-4.29,1.12-5.08.32-.57.83-1.32,1.64-1.27s1.38,1.19,1.83,2.37c.12.32.24.63.36.88.64,1.36,1.87,1.69,3.29,2.07a13.13,13.13,0,0,1,1.81.58,18.87,18.87,0,0,1,4.64,3.66,15.59,15.59,0,0,0,2.48,2.11,15.27,15.27,0,0,0,5,1.4h1.22Z" transform="translate(2.61 -1)"/><path class="cls-9" d="M245.23,265.09H244a16.57,16.57,0,0,1-5.6-1.53,15.21,15.21,0,0,1-2.81-2.35,18.8,18.8,0,0,0-4.24-3.39,11.84,11.84,0,0,0-1.62-.51c-1.53-.41-3.27-.88-4.18-2.81-.13-.29-.27-.63-.4-1a9,9,0,0,0-.64-1.42,2.45,2.45,0,0,0-.36.51,23.24,23.24,0,0,0-1,4.62c-.63,4.15-1.12,6.93-2.27,7.74a.67.67,0,0,1-.39.12h-1.42v-1.35h1.14c.7-.87,1.25-4.5,1.59-6.72.4-2.64.67-4.3,1.12-5.08.33-.57.88-1.3,1.65-1.27,1,.08,1.38,1.19,1.82,2.37.12.31.25.62.36.88.64,1.36,1.87,1.69,3.29,2.07a12.51,12.51,0,0,1,1.83.58,19.21,19.21,0,0,1,4.63,3.66,16.15,16.15,0,0,0,2.48,2.11,15.27,15.27,0,0,0,5,1.4h1.21Z" transform="translate(2.61 -1)"/><path class="cls-9" d="M271.33,265.09h-1.21a16.58,16.58,0,0,1-5.59-1.53,14.89,14.89,0,0,1-2.81-2.35,19,19,0,0,0-4.24-3.39,11.84,11.84,0,0,0-1.62-.51c-1.54-.41-3.27-.88-4.18-2.81a10.28,10.28,0,0,1-.39-1,8.71,8.71,0,0,0-.65-1.43,2.45,2.45,0,0,0-.36.51,22.7,22.7,0,0,0-.95,4.62c-.64,4.15-1.14,6.93-2.28,7.74a.7.7,0,0,1-.4.12h-1.42v-1.35h1.15c.7-.87,1.26-4.5,1.59-6.71.4-2.65.67-4.3,1.12-5.09.33-.57.81-1.32,1.65-1.27s1.39,1.25,1.83,2.38c.12.31.23.62.35.88.64,1.35,1.87,1.68,3.29,2.06a13.26,13.26,0,0,1,1.82.58,18.83,18.83,0,0,1,4.63,3.66,15.59,15.59,0,0,0,2.48,2.11,15.34,15.34,0,0,0,5,1.4h1.21Z" transform="translate(2.61 -1)"/><path class="cls-9" d="M298.12,265.09H296.9a16.46,16.46,0,0,1-5.58-1.53,15.2,15.2,0,0,1-2.82-2.35,18.58,18.58,0,0,0-4.24-3.39,11.27,11.27,0,0,0-1.61-.51c-1.54-.41-3.28-.88-4.18-2.81-.14-.28-.26-.62-.4-1a7.31,7.31,0,0,0-.65-1.43,3.06,3.06,0,0,0-.35.51,21.88,21.88,0,0,0-.95,4.61c-.63,4.15-1.14,6.94-2.28,7.75a.72.72,0,0,1-.4.12H272v-1.35h1.15c.7-.87,1.25-4.5,1.59-6.73.41-2.63.67-4.28,1.12-5.07.31-.57.8-1.32,1.64-1.27s1.4,1.25,1.83,2.38c.12.31.23.62.36.88.64,1.35,1.87,1.68,3.29,2.06a13.58,13.58,0,0,1,1.81.58,18.87,18.87,0,0,1,4.64,3.66,16.09,16.09,0,0,0,2.47,2.11,15.34,15.34,0,0,0,5,1.4h1.22Z" transform="translate(2.61 -1)"/><path class="cls-9" d="M324.22,265.09H323a16.63,16.63,0,0,1-5.6-1.53,15.21,15.21,0,0,1-2.81-2.35,18.58,18.58,0,0,0-4.24-3.39,11.42,11.42,0,0,0-1.62-.51c-1.53-.41-3.26-.88-4.18-2.81-.13-.28-.26-.62-.39-1a8.17,8.17,0,0,0-.65-1.42,2.54,2.54,0,0,0-.35.51,23.24,23.24,0,0,0-1,4.62c-.63,4.15-1.13,6.93-2.28,7.74a.7.7,0,0,1-.4.12h-1.41v-1.35h1.15c.69-.87,1.25-4.5,1.59-6.72.4-2.64.67-4.29,1.12-5.08.32-.57.8-1.32,1.64-1.27s1.37,1.19,1.83,2.37c.12.32.24.63.35.88.65,1.36,1.87,1.69,3.3,2.07a14.2,14.2,0,0,1,1.82.58,19.21,19.21,0,0,1,4.63,3.66,15.59,15.59,0,0,0,2.48,2.11,15.27,15.27,0,0,0,5,1.4h1.21Z" transform="translate(2.61 -1)"/><path class="cls-9" d="M166.23,309.22H165a16.57,16.57,0,0,1-5.6-1.53,15.62,15.62,0,0,1-2.82-2.35,18.22,18.22,0,0,0-4.23-3.39,10.26,10.26,0,0,0-1.62-.52c-1.54-.41-3.27-.87-4.18-2.8-.13-.29-.26-.63-.39-1a7.31,7.31,0,0,0-.66-1.43,3.24,3.24,0,0,0-.35.51,22.58,22.58,0,0,0-1,4.6c-.63,4.16-1.14,7-2.28,7.76a.7.7,0,0,1-.4.12h-1.42v-1.36h1.16c.69-.86,1.25-4.49,1.59-6.72.4-2.63.67-4.29,1.11-5.07.32-.57.82-1.33,1.64-1.27,1,.07,1.41,1.25,1.83,2.37.13.32.24.63.36.88.65,1.36,1.87,1.69,3.29,2.07a12.39,12.39,0,0,1,1.82.58,19,19,0,0,1,4.63,3.65,15.78,15.78,0,0,0,2.48,2.12,15.23,15.23,0,0,0,5,1.39h1.2Z" transform="translate(2.61 -1)"/><path class="cls-9" d="M193,309.22h-1.21a16.51,16.51,0,0,1-5.59-1.53,15.29,15.29,0,0,1-2.81-2.35,18.08,18.08,0,0,0-4.25-3.39,10.47,10.47,0,0,0-1.61-.52c-1.54-.41-3.27-.87-4.18-2.8-.13-.29-.26-.63-.4-1a9,9,0,0,0-.64-1.42,2,2,0,0,0-.35.5,21.51,21.51,0,0,0-1,4.62c-.64,4.15-1.14,6.94-2.28,7.75a.72.72,0,0,1-.4.12h-1.42v-1.36h1.15c.7-.86,1.25-4.49,1.59-6.71.41-2.64.67-4.3,1.12-5.08.32-.57.82-1.33,1.64-1.27s1.38,1.19,1.83,2.37c.12.31.24.62.36.88.63,1.36,1.87,1.69,3.29,2.07a12,12,0,0,1,1.82.58,19.2,19.2,0,0,1,4.63,3.65,15.78,15.78,0,0,0,2.48,2.12,15.25,15.25,0,0,0,5,1.39H193Z" transform="translate(2.61 -1)"/><path class="cls-9" d="M219.13,309.22h-1.22a16.51,16.51,0,0,1-5.59-1.53,15.62,15.62,0,0,1-2.82-2.35,17.85,17.85,0,0,0-4.24-3.39,10.47,10.47,0,0,0-1.61-.52c-1.54-.41-3.27-.87-4.18-2.8-.14-.29-.27-.63-.4-1a9,9,0,0,0-.64-1.42,2.29,2.29,0,0,0-.36.5,22.16,22.16,0,0,0-1,4.62c-.63,4.15-1.13,6.94-2.28,7.75a.67.67,0,0,1-.39.12H193v-1.36h1.15c.7-.86,1.25-4.49,1.59-6.71.41-2.64.67-4.3,1.12-5.08.32-.57.83-1.33,1.64-1.27s1.38,1.19,1.83,2.37c.12.31.24.62.36.88.64,1.36,1.87,1.69,3.29,2.07a11.9,11.9,0,0,1,1.81.58,19.05,19.05,0,0,1,4.64,3.65,15.78,15.78,0,0,0,2.48,2.12,15.25,15.25,0,0,0,5,1.39h1.22Z" transform="translate(2.61 -1)"/><path class="cls-9" d="M245.23,309.22H244a16.35,16.35,0,0,1-5.6-1.54,15.07,15.07,0,0,1-2.81-2.34,18.59,18.59,0,0,0-4.24-3.4,11.84,11.84,0,0,0-1.62-.51c-1.53-.41-3.27-.87-4.18-2.81-.13-.28-.27-.62-.4-1a8.6,8.6,0,0,0-.64-1.42,2.18,2.18,0,0,0-.36.51,23.09,23.09,0,0,0-1,4.61c-.63,4.15-1.12,6.94-2.27,7.75a.67.67,0,0,1-.39.12h-1.42v-1.36h1.14c.7-.86,1.25-4.49,1.59-6.71.4-2.64.67-4.3,1.12-5.09.33-.57.88-1.29,1.65-1.26,1,.07,1.38,1.19,1.82,2.37.12.31.25.62.36.88.64,1.36,1.87,1.69,3.29,2.06a13.91,13.91,0,0,1,1.83.59,19.4,19.4,0,0,1,4.63,3.65,15.78,15.78,0,0,0,2.48,2.12,15.25,15.25,0,0,0,5,1.39h1.21Z" transform="translate(2.61 -1)"/><path class="cls-9" d="M271.33,309.22h-1.21a16.58,16.58,0,0,1-5.59-1.53,15.29,15.29,0,0,1-2.81-2.35,18.46,18.46,0,0,0-4.24-3.39,10.6,10.6,0,0,0-1.62-.52c-1.54-.41-3.27-.87-4.18-2.8-.13-.29-.27-.63-.39-1a8.71,8.71,0,0,0-.65-1.43,2.18,2.18,0,0,0-.36.51,22.72,22.72,0,0,0-.95,4.61c-.64,4.15-1.14,6.94-2.28,7.75a.7.7,0,0,1-.4.12h-1.42v-1.36h1.15c.7-.86,1.26-4.49,1.59-6.71.4-2.64.67-4.3,1.12-5.08.33-.57.81-1.33,1.65-1.27s1.39,1.25,1.83,2.37c.12.32.23.63.35.88.64,1.36,1.87,1.69,3.29,2.07a12,12,0,0,1,1.82.58,19,19,0,0,1,4.63,3.65,15.78,15.78,0,0,0,2.48,2.12,15.31,15.31,0,0,0,5,1.39h1.21Z" transform="translate(2.61 -1)"/><path class="cls-9" d="M298.12,309.22H296.9a16.46,16.46,0,0,1-5.58-1.53,15.62,15.62,0,0,1-2.82-2.35,18,18,0,0,0-4.24-3.39,10.13,10.13,0,0,0-1.61-.52c-1.54-.41-3.28-.87-4.18-2.8-.14-.29-.26-.63-.4-1a7.31,7.31,0,0,0-.65-1.43,2.66,2.66,0,0,0-.35.51,21.9,21.9,0,0,0-.95,4.6c-.63,4.16-1.14,7-2.28,7.76a.72.72,0,0,1-.4.12H272v-1.36h1.15c.7-.86,1.25-4.49,1.59-6.72.41-2.63.67-4.29,1.12-5.07.31-.57.8-1.33,1.64-1.27s1.4,1.25,1.83,2.37a8.41,8.41,0,0,0,.36.88c.64,1.36,1.87,1.69,3.29,2.07a12.27,12.27,0,0,1,1.81.58,19.05,19.05,0,0,1,4.64,3.65,16.3,16.3,0,0,0,2.47,2.12,15.31,15.31,0,0,0,5,1.39h1.22Z" transform="translate(2.61 -1)"/><path class="cls-9" d="M324.22,309.22H323a16.63,16.63,0,0,1-5.6-1.53,15.63,15.63,0,0,1-2.81-2.35,18,18,0,0,0-4.24-3.39,10.26,10.26,0,0,0-1.62-.52c-1.53-.41-3.26-.87-4.18-2.8-.13-.29-.26-.63-.39-1a8.17,8.17,0,0,0-.65-1.42,2.37,2.37,0,0,0-.35.5,23.58,23.58,0,0,0-1,4.62c-.63,4.15-1.13,6.94-2.28,7.75a.7.7,0,0,1-.4.12h-1.41v-1.36h1.15c.69-.86,1.25-4.49,1.59-6.71.4-2.64.67-4.3,1.12-5.08.32-.57.8-1.33,1.64-1.27s1.37,1.19,1.83,2.37c.12.31.24.62.35.88.65,1.36,1.87,1.69,3.3,2.07a12.78,12.78,0,0,1,1.82.58,19.4,19.4,0,0,1,4.63,3.65,15.78,15.78,0,0,0,2.48,2.12,15.25,15.25,0,0,0,5,1.39h1.21Z" transform="translate(2.61 -1)"/><path class="cls-10" d="M183.56,439.4a2.88,2.88,0,1,1-2.87-2.87A2.86,2.86,0,0,1,183.56,439.4Z" transform="translate(2.61 -1)"/><path d="M183.05,436.77a2.82,2.82,0,0,1,.73,1.89,2.88,2.88,0,0,1-2.87,2.87,2.93,2.93,0,0,1-1.58-.47,2.88,2.88,0,0,0,5-1.89A2.81,2.81,0,0,0,183.05,436.77Z" transform="translate(2.61 -1)"/><path class="cls-11" d="M196.33,439.4a2.87,2.87,0,1,1-2.87-2.87A2.86,2.86,0,0,1,196.33,439.4Z" transform="translate(2.61 -1)"/><path d="M194.67,436.77a2.82,2.82,0,0,1,.73,1.89,2.87,2.87,0,0,1-4.45,2.4,2.9,2.9,0,0,0,2.15,1,2.86,2.86,0,0,0,2.87-2.86A2.82,2.82,0,0,0,194.67,436.77Z" transform="translate(2.61 -1)"/><path class="cls-12" d="M206.79,439.4a2.87,2.87,0,1,1-2.87-2.87A2.86,2.86,0,0,1,206.79,439.4Z" transform="translate(2.61 -1)"/><path d="M206.3,436.77a2.86,2.86,0,0,1-2.16,4.76,3,3,0,0,1-1.58-.47,2.94,2.94,0,0,0,2.17,1,2.85,2.85,0,0,0,2.86-2.86A2.81,2.81,0,0,0,206.3,436.77Z" transform="translate(2.61 -1)"/><path class="cls-10" d="M166.16,440a9.29,9.29,0,1,1-9.3-9.29A9.3,9.3,0,0,1,166.16,440Z" transform="translate(2.61 -1)"/><path class="cls-1" d="M156.86,430.83a9.51,9.51,0,0,1,9.27,9.15c0-.23,0-.44,0-.66a9.3,9.3,0,1,0-18.58,0c0,.22,0,.43,0,.66A9.51,9.51,0,0,1,156.86,430.83Z" transform="translate(2.61 -1)"/><path d="M156.86,448a9.5,9.5,0,0,0,9.27-9.14c0,.23,0,.44,0,.66a9.3,9.3,0,1,1-18.58,0c0-.22,0-.43,0-.66A9.5,9.5,0,0,0,156.86,448Z" transform="translate(2.61 -1)"/><path class="cls-13" d="M156.86,445.79a5.79,5.79,0,0,1-3.66-10.28.79.79,0,0,1,1.11.12.77.77,0,0,1-.12,1.1,4.24,4.24,0,1,0,5.35,0,.78.78,0,0,1-.13-1.1.81.81,0,0,1,1.12-.12,5.78,5.78,0,0,1-3.67,10.28Z" transform="translate(2.61 -1)"/><path class="cls-13" d="M157.45,441.14a.84.84,0,0,1-.88-.84v-6.44a.88.88,0,0,1,1.76,0v6.44A.84.84,0,0,1,157.45,441.14Z" transform="translate(2.61 -1)"/><path class="cls-9" d="M150.06,247.92a.69.69,0,0,1-.68-.54c-.47-2.34-.82-8-1.1-12.59-.12-2-.26-4.17-.38-5.45a9.83,9.83,0,0,1-3.14.89,6.87,6.87,0,0,1-2.72-.69h-1.91v-1.36h2.05a.92.92,0,0,1,.28,0,6.46,6.46,0,0,0,2.12.64c1.63-.21,3-.7,3.18-1.16a.72.72,0,0,1,.54-.39.72.72,0,0,1,.62.23c.28.32.35.79.74,7.16.11,1.85.24,3.87.37,5.78,0-.11,0-.23,0-.34.48-4.38,1-9.35,1-11.13a.68.68,0,0,1,.44-.66.72.72,0,0,1,.78.19c.49.57,1.06,1.16,1.63,1.74a33.76,33.76,0,0,1,2.41,2.69,14.68,14.68,0,0,0,1-1.61,9.16,9.16,0,0,1,.7-1.08c1.86-2.3,6.85-3,9-2.94a8.52,8.52,0,0,1,2.54.83H171v1.36h-1.6a.6.6,0,0,1-.3-.07,8.89,8.89,0,0,0-2.11-.76c-2.43,0-6.57.79-7.9,2.43a8.25,8.25,0,0,0-.58.9,15.83,15.83,0,0,1-1.76,2.55.73.73,0,0,1-.6.24.69.69,0,0,1-.54-.36,20.52,20.52,0,0,0-2.76-3.25c-.17-.17-.34-.34-.5-.52-.15,2.41-.56,6.19-.94,9.6-.32,2.87-.62,5.6-.69,7a.7.7,0,0,1-.65.64Z" transform="translate(2.61 -1)"/><path class="cls-9" d="M180.28,247.92a.69.69,0,0,1-.68-.54c-.47-2.34-.82-8-1.1-12.59-.12-2-.26-4.17-.37-5.45a9.88,9.88,0,0,1-3.15.89,7,7,0,0,1-2.73-.69h-1.89v-1.36h2a.93.93,0,0,1,.29,0,6.53,6.53,0,0,0,2.12.64c1.63-.21,3-.7,3.19-1.16a.69.69,0,0,1,1.15-.16c.29.32.35.79.74,7.16.11,1.85.24,3.87.38,5.78,0-.11,0-.23,0-.34.48-4.38,1-9.35,1-11.13a.67.67,0,0,1,.44-.66.71.71,0,0,1,.77.19c.5.57,1.06,1.16,1.63,1.74a34,34,0,0,1,2.42,2.69,16,16,0,0,0,1-1.61,9.16,9.16,0,0,1,.7-1.08c1.86-2.3,6.82-3,9-2.94a8.42,8.42,0,0,1,2.54.83h1.45v1.36h-1.61a.63.63,0,0,1-.3-.07,8.7,8.7,0,0,0-2.1-.76c-2.46,0-6.57.79-7.91,2.43a8.25,8.25,0,0,0-.58.9,15.62,15.62,0,0,1-1.75,2.55.77.77,0,0,1-.61.24.69.69,0,0,1-.54-.36,20.52,20.52,0,0,0-2.76-3.25l-.5-.52c-.15,2.41-.56,6.19-.94,9.6-.31,2.87-.62,5.6-.7,7a.68.68,0,0,1-.64.64Z" transform="translate(2.61 -1)"/><path class="cls-9" d="M211.19,247.92a.69.69,0,0,1-.68-.54c-.47-2.34-.82-8-1.1-12.59-.12-2-.26-4.17-.37-5.45a9.94,9.94,0,0,1-3.16.89,7,7,0,0,1-2.72-.69h-1.89v-1.36h2a1,1,0,0,1,.28,0,6.53,6.53,0,0,0,2.12.64c1.63-.21,3-.7,3.19-1.16a.69.69,0,0,1,.53-.39.71.71,0,0,1,.62.23c.28.32.35.79.74,7.16.11,1.85.24,3.87.38,5.78,0-.11,0-.23,0-.34.48-4.38,1-9.35,1-11.13a.68.68,0,0,1,.44-.66.7.7,0,0,1,.77.19c.51.57,1.07,1.16,1.64,1.74a33.76,33.76,0,0,1,2.41,2.69,14.36,14.36,0,0,0,1-1.61,9.18,9.18,0,0,1,.71-1.08c1.86-2.3,6.83-3,9-2.94a8.49,8.49,0,0,1,2.55.83h1.45v1.36h-1.61a.63.63,0,0,1-.3-.07,8.74,8.74,0,0,0-2.11-.76c-2.42,0-6.56.79-7.9,2.43a7,7,0,0,0-.58.9,15.19,15.19,0,0,1-1.76,2.55.73.73,0,0,1-.6.24.69.69,0,0,1-.54-.36,20,20,0,0,0-2.76-3.25c-.16-.17-.34-.34-.5-.52-.14,2.41-.56,6.19-.94,9.6-.31,2.87-.62,5.6-.69,7a.7.7,0,0,1-.65.64Z" transform="translate(2.61 -1)"/><path class="cls-9" d="M242.1,247.92a.68.68,0,0,1-.67-.54c-.48-2.34-.83-8-1.11-12.59-.12-2-.26-4.17-.37-5.45a10,10,0,0,1-3.15.89,7,7,0,0,1-2.73-.69h-1.89v-1.36h2a.92.92,0,0,1,.28,0,6.53,6.53,0,0,0,2.12.64c1.63-.21,3-.7,3.19-1.16a.69.69,0,0,1,.53-.39.74.74,0,0,1,.63.23c.28.32.35.79.73,7.16.12,1.85.24,3.87.37,5.78,0-.11,0-.23.05-.34.48-4.38,1-9.35,1-11.13a.68.68,0,0,1,.45-.66.7.7,0,0,1,.77.19c.49.57,1.06,1.16,1.63,1.74a31.91,31.91,0,0,1,2.41,2.69,14.68,14.68,0,0,0,1-1.61,9.16,9.16,0,0,1,.7-1.08c1.87-2.3,6.84-3,9-2.94a8.58,8.58,0,0,1,2.55.83h1.44v1.36h-1.61a.63.63,0,0,1-.3-.07,8.7,8.7,0,0,0-2.1-.76c-2.4,0-6.57.79-7.91,2.43a7,7,0,0,0-.57.9,15.83,15.83,0,0,1-1.76,2.55.75.75,0,0,1-.61.24.69.69,0,0,1-.54-.36,20,20,0,0,0-2.76-3.25l-.5-.52c-.15,2.41-.56,6.19-.94,9.6-.31,2.87-.62,5.6-.7,7a.67.67,0,0,1-.64.64Z" transform="translate(2.61 -1)"/><path class="cls-9" d="M273,247.92a.7.7,0,0,1-.68-.54c-.47-2.34-.82-8-1.09-12.59-.13-2-.26-4.17-.38-5.45a9.88,9.88,0,0,1-3.15.89,7,7,0,0,1-2.72-.69h-1.9v-1.36h2a.87.87,0,0,1,.28,0,6.53,6.53,0,0,0,2.12.64c1.63-.21,3-.7,3.19-1.16a.7.7,0,0,1,1.16-.16c.28.32.35.79.74,7.16.11,1.85.23,3.87.37,5.78,0-.11,0-.23,0-.34.48-4.38,1-9.35,1-11.13a.67.67,0,0,1,.44-.66.7.7,0,0,1,.77.19c.5.57,1.06,1.16,1.63,1.74a34,34,0,0,1,2.42,2.69,14.36,14.36,0,0,0,1-1.61,9.16,9.16,0,0,1,.7-1.08c1.86-2.3,6.85-3,9-2.94a8.49,8.49,0,0,1,2.55.83H294v1.36h-1.6a.64.64,0,0,1-.31-.07,8.86,8.86,0,0,0-2.1-.76c-2.46,0-6.57.79-7.9,2.43a8.26,8.26,0,0,0-.59.9,14.6,14.6,0,0,1-1.76,2.55.71.71,0,0,1-.59.24.69.69,0,0,1-.55-.36,19.86,19.86,0,0,0-2.75-3.25l-.51-.52c-.14,2.41-.56,6.19-.93,9.6-.32,2.87-.62,5.6-.7,7a.69.69,0,0,1-.64.64Z" transform="translate(2.61 -1)"/><path class="cls-9" d="M303.93,247.92a.69.69,0,0,1-.68-.54c-.47-2.34-.82-8-1.11-12.59-.12-2-.25-4.17-.37-5.45a10,10,0,0,1-3.14.89,7,7,0,0,1-2.73-.69H294v-1.36h2a.87.87,0,0,1,.28,0,6.6,6.6,0,0,0,2.12.64c1.63-.21,3-.7,3.19-1.16a.72.72,0,0,1,.54-.39.72.72,0,0,1,.62.23c.28.32.35.79.73,7.16.12,1.85.24,3.87.38,5.78,0-.11,0-.23,0-.34.48-4.38,1-9.35,1-11.13a.69.69,0,0,1,.45-.66.72.72,0,0,1,.78.19c.49.57,1.06,1.16,1.62,1.74a32.16,32.16,0,0,1,2.42,2.69,14.36,14.36,0,0,0,1-1.61,10.63,10.63,0,0,1,.7-1.08c1.87-2.3,6.86-3,9-2.94a8.52,8.52,0,0,1,2.54.83h1.44v1.36h-1.6a.7.7,0,0,1-.31-.07,8.67,8.67,0,0,0-2.09-.76c-2.43,0-6.58.79-7.91,2.43a7,7,0,0,0-.58.9,15.19,15.19,0,0,1-1.76,2.55.74.74,0,0,1-.6.24.69.69,0,0,1-.55-.36,20.38,20.38,0,0,0-2.75-3.25l-.51-.52c-.14,2.41-.55,6.19-.94,9.6-.31,2.87-.62,5.6-.7,7a.66.66,0,0,1-.63.64Z" transform="translate(2.61 -1)"/><path class="cls-9" d="M175.54,221.13c-1.52,0-8-9.07-8.12-9.17-.26-.36-.37-1.31-.87-7.24-.3-3.57-.75-9-1.21-11.72-.75,4.17-1.78,15.34-2.5,25.53a.69.69,0,0,1-.62.64.68.68,0,0,1-.72-.52l-1.51-6.3h-8.11l-2.47,1.93a.68.68,0,0,1-.87,0l-2.16-1.9h-5.56V211h5.82a.68.68,0,0,1,.45.17l1.93,1.69,2.2-1.72a.71.71,0,0,1,.42-.14h8.89a.67.67,0,0,1,.66.52l.61,2.53c1.78-23.81,2.82-23.81,3.52-23.81,1.14,0,1.51,1.33,2.59,14.39.25,2.9.52,6.19.68,6.66.86,1.18,5.66,7.43,6.94,8.4,1-.77,4.18-4.75,6.91-8.42A.7.7,0,0,1,183,211h3.16v1.37h-2.82C176.78,221.13,175.87,221.13,175.54,221.13Z" transform="translate(2.61 -1)"/><path class="cls-9" d="M221.55,221.13c-1.5,0-8-9.07-8.1-9.17-.27-.36-.38-1.31-.88-7.25-.29-3.57-.75-9-1.21-11.71-.75,4.16-1.78,15.34-2.5,25.53a.68.68,0,0,1-1.34.12l-1.51-6.3H197.9l-2.47,1.93a.68.68,0,0,1-.87,0l-2.15-1.9h-5.57V211h5.82a.68.68,0,0,1,.45.17l1.93,1.69,2.21-1.72a.68.68,0,0,1,.41-.14h8.89a.69.69,0,0,1,.67.52l.6,2.52c1.79-23.8,2.83-23.8,3.52-23.8,1.13,0,1.51,1.33,2.6,14.37.24,2.91.51,6.21.68,6.68.86,1.18,5.65,7.42,6.93,8.4a78.4,78.4,0,0,0,6.91-8.42A.69.69,0,0,1,229,211h3.17v1.37h-2.82C222.8,221.13,221.9,221.13,221.55,221.13Z" transform="translate(2.61 -1)"/><path class="cls-9" d="M266.89,221.13c-1.49,0-8-9.07-8.11-9.17-.26-.36-.37-1.32-.87-7.26-.3-3.57-.75-9-1.21-11.69-.76,4.16-1.78,15.33-2.5,25.52a.68.68,0,0,1-.62.64.7.7,0,0,1-.73-.52l-1.51-6.3h-8.11l-2.46,1.93a.68.68,0,0,1-.87,0l-2.16-1.9h-5.56V211H238a.7.7,0,0,1,.45.17l1.93,1.69,2.21-1.72A.66.66,0,0,1,243,211h8.88a.69.69,0,0,1,.67.52l.61,2.53c1.79-23.81,2.82-23.81,3.52-23.81,1.13,0,1.51,1.33,2.59,14.36.25,2.92.52,6.22.69,6.69.81,1.14,5.64,7.42,6.93,8.41,1-.77,4.18-4.75,6.92-8.43a.65.65,0,0,1,.54-.27h3.16v1.37h-2.82C268.14,221.13,267.23,221.13,266.89,221.13Z" transform="translate(2.61 -1)"/><path class="cls-9" d="M312.92,221.13c-1.52,0-8.05-9.07-8.11-9.17-.27-.36-.38-1.32-.88-7.27-.3-3.56-.74-9-1.21-11.68-.75,4.17-1.77,15.34-2.5,25.52a.69.69,0,0,1-.62.64.67.67,0,0,1-.71-.52l-1.52-6.3h-8.11l-2.47,1.93a.68.68,0,0,1-.87,0l-2.16-1.9H278.2V211H284a.68.68,0,0,1,.45.17l1.93,1.69,2.2-1.72A.73.73,0,0,1,289,211h8.89a.67.67,0,0,1,.66.52l.61,2.53c1.79-23.81,2.83-23.81,3.53-23.81,1.13,0,1.5,1.33,2.59,14.36.24,2.92.52,6.22.68,6.69.85,1.18,5.65,7.43,6.93,8.41,1-.77,4.18-4.75,6.92-8.43a.65.65,0,0,1,.54-.27h3.17v1.37h-2.82C314.17,221.13,313.26,221.13,312.92,221.13Z" transform="translate(2.61 -1)"/><path d="M442,169.31H153.9a13.32,13.32,0,0,0-13.29,13.32V398.7a10,10,0,0,0,9.67,7.59h3.62a6.67,6.67,0,0,1-6.64-6.66v-217A6.68,6.68,0,0,1,153.9,176H445.59a6.67,6.67,0,0,1,6.35,4.71v-1.36A10,10,0,0,0,442,169.31Z" transform="translate(2.61 -1)"/><path class="cls-3" d="M150.41,172.49a6.67,6.67,0,0,0-6.64,6.66v217.3a6.67,6.67,0,0,0,6.64,6.67h291.7a6.67,6.67,0,0,0,6.65-6.67V179.15a6.67,6.67,0,0,0-6.65-6.66Zm291.7,237.29H150.41a13.34,13.34,0,0,1-13.29-13.33V179.15a13.33,13.33,0,0,1,13.29-13.32h291.7a13.33,13.33,0,0,1,13.31,13.32v217.3A13.34,13.34,0,0,1,442.11,409.78Z" transform="translate(2.61 -1)"/><path d="M116.21,468.33H476.33v-4.42H116.21Z" transform="translate(2.61 -1)"/><path class="cls-9" d="M407.34,467.41a17.38,17.38,0,0,1-20.71,2.93,5.81,5.81,0,0,1-.78-.43,17.49,17.49,0,0,1-3.16-2.49,16.86,16.86,0,0,1-2.49-3.17,5.43,5.43,0,0,1-.44-.77,17.42,17.42,0,0,1,23.67-23.66l.75.43a18,18,0,0,1,5.67,5.67c.15.24.3.5.44.78A17.42,17.42,0,0,1,407.34,467.41Z" transform="translate(2.61 -1)"/><path class="cls-1" d="M383.72,443.79a17.1,17.1,0,0,1,24.07-.47,6.3,6.3,0,0,0-.48-.55,18.14,18.14,0,0,0-3.15-2.52,17.41,17.41,0,0,0-24,24,16.16,16.16,0,0,0,2.49,3.17c.17.18.36.32.54.48a16.32,16.32,0,0,1-2-2.61A17.35,17.35,0,0,1,383.72,443.79Z" transform="translate(2.61 -1)"/><path class="cls-14" d="M410.12,445.75l-24.46,24.44a18,18,0,0,1-3.21-2.54,17.1,17.1,0,0,1-2.54-3.23L404.35,440a19.35,19.35,0,0,1,3.21,2.57A18.92,18.92,0,0,1,410.12,445.75Z" transform="translate(2.61 -1)"/><path class="cls-15" d="M410.12,445.61a76.22,76.22,0,0,0-24.57,24.58,15.9,15.9,0,0,1-3.15-2.47,16.25,16.25,0,0,1-2.49-3.17A76.06,76.06,0,0,0,404.47,440a17.8,17.8,0,0,1,5.65,5.63Z" transform="translate(2.61 -1)"/><g class="cls-16"><path class="cls-17" d="M160.11,187.9h4v-8.13h-4Z" transform="translate(2.61 -1)"/><path class="cls-17" d="M164.76,187.9h4v-8.13h-4Z" transform="translate(2.61 -1)"/><path class="cls-17" d="M170.57,187.9h4v-8.13h-4Z" transform="translate(2.61 -1)"/><path class="cls-17" d="M175,359V351.3h-1.46a5.55,5.55,0,0,1-2.16.87v1.36H173V359h-1.9v1.78h5.54V359Z" transform="translate(2.61 -1)"/><path class="cls-17" d="M182.8,359a12.3,12.3,0,0,0-1.48.12c1.44-1.58,2.82-3.27,2.82-4.84a2.78,2.78,0,0,0-2.93-2.95,3.68,3.68,0,0,0-3,1.48l1.12,1.16a2.2,2.2,0,0,1,1.57-1c.77,0,1.25.5,1.25,1.4,0,1.33-1.59,2.93-3.85,5.18v1.23h6.24V359Z" transform="translate(2.61 -1)"/><path class="cls-17" d="M189.32,359.16c-.68,0-1.23-.64-1.23-3.16s.55-3.07,1.23-3.07,1.22.57,1.22,3.07S190,359.16,189.32,359.16Zm0-7.86c-1.9,0-3.16,1.61-3.16,4.7s1.26,4.79,3.16,4.79,3.17-1.67,3.17-4.79S191.21,351.3,189.32,351.3Z" transform="translate(2.61 -1)"/><path class="cls-17" d="M205.16,359.33a1.28,1.28,0,0,1-1.38-1.29,2,2,0,0,1,.69-1.44c1.12.49,1.91.78,1.91,1.58A1.1,1.1,0,0,1,205.16,359.33Zm0-6.55a1.07,1.07,0,0,1,1.09,1.18,2.1,2.1,0,0,1-.54,1.34c-.93-.36-1.57-.72-1.57-1.47A1,1,0,0,1,205.15,352.78Zm1.6,3.08v0a2.45,2.45,0,0,0-1.56-4.52,2.58,2.58,0,0,0-2.88,2.53,2.63,2.63,0,0,0,1.2,2.15v.07a2.5,2.5,0,0,0-1.53,2.24c0,1.48,1.33,2.5,3.14,2.5s3.19-1.09,3.19-2.54A2.64,2.64,0,0,0,206.75,355.86Z" transform="translate(2.61 -1)"/><path class="cls-17" d="M213.05,359.15c-.67,0-1.22-.65-1.22-3.15s.55-3.05,1.22-3.05,1.23.57,1.23,3.05S213.74,359.15,213.05,359.15Zm0-7.85c-1.9,0-3.16,1.61-3.16,4.7s1.26,4.79,3.16,4.79,3.17-1.67,3.17-4.79S215,351.3,213.05,351.3Z" transform="translate(2.61 -1)"/><path class="cls-17" d="M195.62,361.58l-1.55-.87,4.79-9.41,1.54.87Z" transform="translate(2.61 -1)"/><path class="cls-17" d="M160.71,351.3a3.28,3.28,0,0,0-2.62,1.33,3.3,3.3,0,0,0-5.94,2.07c0,3.4,5.94,6.88,5.94,6.88s5.92-3.53,5.92-6.88A3.34,3.34,0,0,0,160.71,351.3Z" transform="translate(2.61 -1)"/><path class="cls-17" d="M233.12,355.27H232v-1.75l1.21-.1.27-2.12h1.94v2.12h1.88v1.85h-1.88v3.2c0,.89.4,1.26,1,1.26a2.05,2.05,0,0,0,.75-.16l.36,1.73a5.87,5.87,0,0,1-1.74.28c-2,0-2.72-1.23-2.72-3.08Z" transform="translate(2.61 -1)"/><path class="cls-17" d="M245.76,358.73a3.15,3.15,0,0,0,2.16,1c1,0,1.61-.43,1.61-1.17s-.51-1.42-2.66-1.42v-1.62c1.77,0,2.33-.53,2.33-1.33s-.44-1.09-1.21-1.09a2.67,2.67,0,0,0-1.85.87l-1.16-1.4a4.59,4.59,0,0,1,3.11-1.27c2,0,3.42,1,3.42,2.72a2.34,2.34,0,0,1-1.66,2.2v.06a2.47,2.47,0,0,1,2,2.42c0,1.85-1.68,2.88-3.68,2.88a4.31,4.31,0,0,1-3.44-1.4Z" transform="translate(2.61 -1)"/><path class="cls-17" d="M257.61,358.26c0-1-.54-1.43-1.3-1.43a1.84,1.84,0,0,0-1.53,1c.22,1.56.88,2.06,1.57,2.06S257.61,359.38,257.61,358.26Zm.76-4.39a2.3,2.3,0,0,0-1.56-.71c-1.11,0-2,.78-2.07,3.08a2.88,2.88,0,0,1,2-1,2.76,2.76,0,0,1,3,3.06,3.2,3.2,0,0,1-3.33,3.32c-1.94,0-3.79-1.43-3.79-4.91,0-3.7,1.94-5.37,4.05-5.37a4.06,4.06,0,0,1,2.93,1.18Z" transform="translate(2.61 -1)"/><path class="cls-17" d="M262.49,358.05a1.56,1.56,0,1,1-1.5,1.57A1.5,1.5,0,0,1,262.49,358.05Z" transform="translate(2.61 -1)"/><path class="cls-17" d="M270.27,358.26c0-1-.56-1.43-1.31-1.43a1.81,1.81,0,0,0-1.52,1c.21,1.56.87,2.06,1.56,2.06S270.27,359.38,270.27,358.26Zm.75-4.39a2.28,2.28,0,0,0-1.56-.71c-1.1,0-2,.78-2.07,3.08a2.88,2.88,0,0,1,2-1,2.76,2.76,0,0,1,3,3.06,3.2,3.2,0,0,1-3.33,3.32c-1.94,0-3.78-1.43-3.78-4.91,0-3.7,1.94-5.37,4.05-5.37a4,4,0,0,1,2.92,1.18Z" transform="translate(2.61 -1)"/><path class="cls-17" d="M307,359.87c-.69,0-1.36-.5-1.57-2.07a1.82,1.82,0,0,1,1.53-1c.74,0,1.29.39,1.29,1.42S307.67,359.87,307,359.87Zm.39-4.67a2.77,2.77,0,0,0-2,1.05c.08-2.32,1-3.09,2.07-3.09a2.29,2.29,0,0,1,1.56.7l1.21-1.37a4,4,0,0,0-2.92-1.19c-2.11,0-4.05,1.67-4.05,5.36,0,3.49,1.84,4.92,3.78,4.92a3.2,3.2,0,0,0,3.33-3.33A2.76,2.76,0,0,0,307.37,355.2Z" transform="translate(2.61 -1)"/><path class="cls-17" d="M314.7,359.81c-.76,0-1.38-.7-1.38-3.41s.62-3.32,1.38-3.32,1.38.6,1.38,3.32S315.48,359.81,314.7,359.81Zm0-8.51c-2.14,0-3.55,1.74-3.55,5.1s1.41,5.18,3.55,5.18,3.57-1.81,3.57-5.18S316.83,351.3,314.7,351.3Z" transform="translate(2.61 -1)"/><path class="cls-17" d="M291.89,356.26c1.29,0,1.92-.57,1.92-1.65s-.68-1.46-1.92-1.46h-1.32v3.11Zm-3.68-5H292c2.25,0,4.09.83,4.09,3.31s-1.88,3.49-4.09,3.49h-1.46v3.48h-2.36Z" transform="translate(2.61 -1)"/><path class="cls-17" d="M197.53,185.94h9.29v-4.22h-9.29Z" transform="translate(2.61 -1)"/><path class="cls-17" d="M199.13,183.83l1.88-4-.1-.09-5.07,2.57c-1.76.51-3.53,1-5.28,1.49l5.28,1.51,5.07,2.56.1-.05Z" transform="translate(2.61 -1)"/><path class="cls-17" d="M209.15,185.94h9.29v-4.22h-9.29Z" transform="translate(2.61 -1)"/><path class="cls-17" d="M216.84,183.83l-1.89-4,.11-.09,5.06,2.57c1.77.51,3.54,1,5.29,1.49l-5.29,1.51-5.06,2.56-.11-.05Z" transform="translate(2.61 -1)"/><rect class="cls-17" x="174.21" y="380.6" width="23.81" height="17" rx="3.42" ry="3.42"/><rect class="cls-17" x="200.13" y="380.6" width="23.81" height="17" rx="3.42" ry="3.42"/><rect class="cls-17" x="226.05" y="380.6" width="23.81" height="17" rx="3.42" ry="3.42"/><rect class="cls-17" x="251.97" y="380.6" width="23.81" height="17" rx="3.42" ry="3.42"/><rect class="cls-17" x="277.79" y="380.6" width="23.81" height="17" rx="3.42" ry="3.42"/><rect class="cls-17" x="303.71" y="380.6" width="23.81" height="17" rx="3.42" ry="3.42"/><rect class="cls-17" x="362.77" y="382.77" width="23.81" height="12.67" rx="3.42" ry="3.42"/><rect class="cls-17" x="388.59" y="382.77" width="23.81" height="12.67" rx="3.42" ry="3.42"/><rect class="cls-17" x="414.51" y="382.77" width="23.81" height="12.67" rx="3.42" ry="3.42"/><polygon class="cls-17" points="162.92 394.07 157.95 389.1 162.92 384.13 162.92 394.07"/><polygon class="cls-17" points="339.23 384.13 344.2 389.1 339.23 394.07 339.23 384.13"/></g><rect class="cls-9" x="149.8" y="318.66" width="177.03" height="1.07"/><text class="cls-18" transform="translate(347.64 223.76)">101</text><text class="cls-19" transform="translate(350.64 253.89)"><tspan xml:space="preserve">94/57   (66)</tspan></text><text class="cls-20" transform="translate(350.64 289.32)">10<tspan x="0" y="30.31">97</tspan></text><text class="cls-21" transform="translate(384.84 320.41)">Standby</text></svg>