<svg id="Layer_1" data-name="Layer 1" xmlns="http://www.w3.org/2000/svg" xmlns:xlink="http://www.w3.org/1999/xlink" viewBox="0 0 598 609.03"><defs><style>.cls-1,.cls-14,.cls-7,.cls-9{fill:none;}.cls-2{fill:#ff3556;opacity:0.09;}.cls-3{clip-path:url(#clip-path);}.cls-4{fill:#ff1849;}.cls-5{fill:#232323;}.cls-6{fill:#f30034;}.cls-7{stroke:#f30034;}.cls-14,.cls-7,.cls-9{stroke-miterlimit:10;}.cls-7,.cls-9{stroke-width:5px;}.cls-8{fill:#0086c3;}.cls-9{stroke:#0086c3;}.cls-10{fill:#00b2fb;}.cls-11{fill:#00749d;}.cls-12,.cls-13,.cls-15,.cls-19{fill:#fff;}.cls-13{opacity:0.5;}.cls-14{stroke:#fff;stroke-width:0.5px;}.cls-15,.cls-16{font-size:10.82px;}.cls-15,.cls-16,.cls-19,.cls-20{font-family:MyriadPro-Regular, Myriad Pro;}.cls-16{fill:#455d80;}.cls-17,.cls-20{fill:#2e2e36;}.cls-18{fill:#d8d8d8;}.cls-19,.cls-20{font-size:16.23px;}</style><clipPath id="clip-path" transform="translate(-1 10.03)"><circle class="cls-1" cx="300" cy="300" r="299"/></clipPath></defs><title>fsfs</title><circle class="cls-2" cx="299" cy="310.03" r="299"/><g class="cls-3"><path class="cls-4" d="M242.12,168.43H223.26a1.48,1.48,0,0,1-1.63-1.41l4.77-70.37A1.53,1.53,0,0,1,228,95.39h9.3A1.52,1.52,0,0,1,239,96.65L243.75,167A1.48,1.48,0,0,1,242.12,168.43Z" transform="translate(-1 10.03)"/><path class="cls-5" d="M272.35,160.65H253.49a1.49,1.49,0,0,1-1.64-1.41l4.78-70.37a1.53,1.53,0,0,1,1.63-1.26h9.31a1.52,1.52,0,0,1,1.63,1.26L274,159.24A1.48,1.48,0,0,1,272.35,160.65Z" transform="translate(-1 10.03)"/><path class="cls-4" d="M339.31,160.65H320.45a1.48,1.48,0,0,1-1.63-1.41l4.77-70.37a1.53,1.53,0,0,1,1.64-1.26h9.3a1.52,1.52,0,0,1,1.63,1.26l4.78,70.37A1.48,1.48,0,0,1,339.31,160.65Z" transform="translate(-1 10.03)"/><path class="cls-5" d="M369.54,168.43H350.68A1.49,1.49,0,0,1,349,167l4.78-70.37a1.53,1.53,0,0,1,1.63-1.26h9.31a1.52,1.52,0,0,1,1.63,1.26L371.17,167A1.48,1.48,0,0,1,369.54,168.43Z" transform="translate(-1 10.03)"/><path class="cls-6" d="M236.55,94.88h-7.72A3.91,3.91,0,0,1,224.91,91l2.71-42.89a3.92,3.92,0,0,1,3.91-3.92h2.31a3.92,3.92,0,0,1,3.92,3.92L240.47,91A3.92,3.92,0,0,1,236.55,94.88Z" transform="translate(-1 10.03)"/><path class="cls-7" d="M232.69,52.55c-.43-1.35-1.15-37.2,7.78-53.2" transform="translate(-1 10.03)"/><path class="cls-8" d="M266.78,87.19h-7.72a3.92,3.92,0,0,1-3.92-3.92l2.7-42.89a3.92,3.92,0,0,1,3.92-3.92h2.31A3.91,3.91,0,0,1,268,40.38l2.7,42.89A3.92,3.92,0,0,1,266.78,87.19Z" transform="translate(-1 10.03)"/><path class="cls-9" d="M262.92,44.86c-.44-1.35-1.15-37.2,7.77-53.21" transform="translate(-1 10.03)"/><path class="cls-8" d="M356.52,94.88h7.72A3.91,3.91,0,0,0,368.16,91l-2.7-42.89a3.93,3.93,0,0,0-3.92-3.92h-2.31a3.92,3.92,0,0,0-3.92,3.92L352.6,91A3.92,3.92,0,0,0,356.52,94.88Z" transform="translate(-1 10.03)"/><path class="cls-9" d="M360.81,52.55c-.39-1.35-1-37.2,7-53.2" transform="translate(-1 10.03)"/><path class="cls-6" d="M326.29,86.93H334A3.91,3.91,0,0,0,337.93,83l-2.7-42.89a3.92,3.92,0,0,0-3.92-3.91H329a3.92,3.92,0,0,0-3.92,3.91L322.38,83A3.91,3.91,0,0,0,326.29,86.93Z" transform="translate(-1 10.03)"/><path class="cls-7" d="M330.66,44.6c-.54-1.35-1.43-37.2,9.69-53.2" transform="translate(-1 10.03)"/><path class="cls-10" d="M376.32,521.64a311.3,311.3,0,0,1-156.46,0A13.25,13.25,0,0,1,210,509.09l-7.68-352.33A13.21,13.21,0,0,1,212,143.7q86.13-23.58,172.28,0a13.22,13.22,0,0,1,9.68,13.06l-7.68,352.33A13.25,13.25,0,0,1,376.32,521.64Z" transform="translate(-1 10.03)"/><circle class="cls-11" cx="370.36" cy="223.32" r="26.37"/><circle class="cls-12" cx="370.36" cy="223.32" r="22.54"/><circle class="cls-11" cx="370.36" cy="223.32" r="9.46"/><circle class="cls-11" cx="370.36" cy="276.07" r="26.37"/><circle class="cls-12" cx="370.36" cy="276.07" r="22.54"/><circle class="cls-11" cx="370.36" cy="328.81" r="26.37"/><circle class="cls-12" cx="370.36" cy="328.81" r="22.54"/><circle class="cls-11" cx="370.36" cy="276.07" r="9.46"/><circle class="cls-11" cx="370.36" cy="328.81" r="9.46"/><circle class="cls-12" cx="328.26" cy="249.7" r="11.1"/><circle class="cls-12" cx="328.26" cy="302.44" r="11.1"/><circle class="cls-12" cx="328.26" cy="355.18" r="11.1"/><circle class="cls-12" cx="328.26" cy="403.39" r="7.47"/><circle class="cls-12" cx="328.26" cy="424.7" r="7.47"/><circle class="cls-12" cx="328.26" cy="446.02" r="7.47"/><circle class="cls-12" cx="328.26" cy="467.33" r="7.47"/><circle class="cls-12" cx="328.26" cy="488.64" r="7.47"/><rect class="cls-13" x="206.54" y="392.06" width="146.57" height="0.44"/><rect class="cls-13" x="206.54" y="413.83" width="181.1" height="0.44"/><rect class="cls-13" x="206.54" y="435.14" width="146.57" height="0.44"/><rect class="cls-13" x="206.54" y="456.45" width="181.1" height="0.44"/><rect class="cls-13" x="206.54" y="477.77" width="146.57" height="0.44"/><circle class="cls-14" cx="242.84" cy="516.46" r="11.62"/><text class="cls-15" transform="translate(234.95 520.14)">Of</text><circle class="cls-12" cx="282.95" cy="516.46" r="11.62"/><text class="cls-16" transform="translate(276.22 519.63)">On</text><path class="cls-17" d="M308.82,275.5H208.9a4.18,4.18,0,0,1-4.18-4.1L203.8,227a4.17,4.17,0,0,1,4.18-4.27H308.82a4.18,4.18,0,0,1,4.18,4.18v44.38A4.18,4.18,0,0,1,308.82,275.5Z" transform="translate(-1 10.03)"/><path class="cls-12" d="M308.82,355.14H210.68a4.19,4.19,0,0,1-4.18-4.09l-1-44.38a4.18,4.18,0,0,1,4.19-4.27h99.1a4.18,4.18,0,0,1,4.18,4.18V351A4.18,4.18,0,0,1,308.82,355.14Z" transform="translate(-1 10.03)"/><rect class="cls-18" x="233.51" y="194.47" width="56.81" height="293.08" rx="4.41" ry="4.41"/><text class="cls-19" transform="translate(213.03 263.02)">A</text><text class="cls-20" transform="translate(213.03 344.08)">V</text></g></svg>