<svg xmlns="http://www.w3.org/2000/svg" viewBox="0 0 598 598"><defs><style>.cls-1{isolation:isolate;}.cls-2{fill:#ff3556;opacity:0.09;}.cls-3,.cls-8{fill:#fff;}.cls-4{fill:#d7ebf4;}.cls-5{opacity:0.7;}.cls-6{fill:#ffb400;}.cls-7{fill:#ff8d00;}.cls-8{opacity:0.5;mix-blend-mode:screen;}.cls-9{fill:#b3d2dd;}.cls-10{fill:#ccdee5;}.cls-11{fill:#0086c3;}.cls-12{fill:#00a2ff;}.cls-13{fill:#ffbe59;}</style></defs><title>urine bag</title><g class="cls-1"><g id="Layer_1" data-name="Layer 1"><circle class="cls-2" cx="299" cy="299" r="299"/><rect class="cls-3" x="143.5" y="169.89" width="213.72" height="290.12" rx="10.11" ry="10.11"/><path class="cls-4" d="M338.9,426.86l-83.13,22.05a15.49,15.49,0,0,1-7.94,0L164.7,426.86a15.48,15.48,0,0,1-11.51-15V202.13a15.48,15.48,0,0,1,15.48-15.48H334.93a15.48,15.48,0,0,1,15.48,15.48V411.9A15.48,15.48,0,0,1,338.9,426.86Z" transform="translate(-1.44 -1)"/><g class="cls-5"><path class="cls-6" d="M350.41,389l-98.32,3.4-98.9-5.83h0l.17,31.16c-6.74,24.41,190.54,24.29,196.46,2l.59-30.71Z" transform="translate(-1.44 -1)"/><path class="cls-7" d="M155.11,386.64s82.62,5.65,131.6-.83,92.06,2.7,35.59,9.59C264.31,402.47,155.11,386.64,155.11,386.64Z" transform="translate(-1.44 -1)"/><path class="cls-6" d="M260.07,447.77l80.86-21.6s8.34-4.27,8.89-10-108,4.14-108,4.14l-88.65-9.46a11.6,11.6,0,0,0,5.66,13.05c8.15,5,87.2,24.64,87.2,24.64A20.68,20.68,0,0,0,260.07,447.77Z" transform="translate(-1.44 -1)"/></g><rect class="cls-3" x="163.63" y="197.13" width="64.63" height="220.49" rx="10.7" ry="10.7"/><rect class="cls-8" x="306.81" y="230.4" width="19.81" height="149.11" rx="7.88" ry="7.88"/><rect class="cls-9" x="173.07" y="210.51" width="45.99" height="2.1"/><rect class="cls-9" x="173.07" y="223.14" width="45.99" height="2.1"/><rect class="cls-9" x="173.07" y="235.76" width="45.99" height="2.1"/><rect class="cls-9" x="173.07" y="248.39" width="45.99" height="2.1"/><rect class="cls-9" x="173.07" y="261.01" width="45.99" height="2.1"/><rect class="cls-9" x="173.07" y="273.64" width="45.99" height="2.1"/><rect class="cls-9" x="173.07" y="286.26" width="45.99" height="2.1"/><rect class="cls-9" x="173.07" y="298.89" width="45.99" height="2.1"/><rect class="cls-9" x="173.07" y="311.51" width="45.99" height="2.1"/><rect class="cls-9" x="173.07" y="324.14" width="45.99" height="2.1"/><rect class="cls-9" x="173.07" y="336.76" width="45.99" height="2.1"/><rect class="cls-9" x="173.07" y="349.39" width="45.99" height="2.1"/><rect class="cls-9" x="173.07" y="360.36" width="45.99" height="2.1"/><rect class="cls-9" x="173.07" y="371.48" width="45.99" height="2.1"/><rect class="cls-9" x="173.07" y="383.28" width="45.99" height="2.1"/><rect class="cls-9" x="173.07" y="394.33" width="45.99" height="2.1"/><rect class="cls-4" x="244.61" y="432.74" width="13.23" height="80.09" rx="3.56" ry="3.56"/><rect class="cls-10" x="241.83" y="469.65" width="18.79" height="31.41" rx="3.56" ry="3.56"/><rect class="cls-11" x="250.95" y="480.97" width="33.71" height="10.54" rx="4.43" ry="4.43"/><rect class="cls-12" x="238.9" y="478.82" width="29.41" height="14.83" rx="4.43" ry="4.43"/><path class="cls-13" d="M374.13,447.5a38.53,38.53,0,0,1-13.29-2.27c-12.91-4.7-23.81-16.67-29.9-32.84-7.17-19.06-10.31-40.87-9.06-63.06.95-16.87,4.28-30.64,10.17-42.09,8.37-16.25,20.75-22.7,33.87-29.52,4.31-2.25,8.76-4.57,13.21-7.31,15.52-9.55,26.21-27.77,32.68-55.69,6.86-29.62,10.34-71.89-12-105.11-15-22.31-42.18-35.11-74.5-35.11-1.34,0-2.69,0-4,.07-16.87.54-30.25,3.8-40.91,10a47.58,47.58,0,0,0-23.82,45.2,3.51,3.51,0,0,1-3.18,3.81l-.33,0a3.52,3.52,0,0,1-3.48-3.19A54.64,54.64,0,0,1,276.8,78.45C288.49,71.7,303,68.13,321,67.55c1.43,0,2.87-.07,4.28-.07,34.69,0,64,13.93,80.31,38.21,23.78,35.31,20.22,79.64,13,110.61-6.91,29.85-18.63,49.5-35.83,60.09-4.67,2.88-9.24,5.25-13.65,7.55-12.63,6.57-23.53,12.25-30.87,26.51-5.43,10.56-8.51,23.41-9.4,39.27-1.19,21.23,1.79,42,8.62,60.19,5.36,14.26,14.74,24.73,25.73,28.73a31.52,31.52,0,0,0,10.83,1.82c17.64,0,35.76-12.37,42.73-17.69,7.74-5.91,17.56-15.61,20.32-28.23,1.81-8.27.53-16.82-.82-25.86-.29-2-.57-3.82-.82-5.68-3.08-23.09,6-49.94,33.28-57.84a44.51,44.51,0,0,1,12.44-1.74,49.94,49.94,0,0,1,37.36,17.19,3.51,3.51,0,1,1-5.32,4.58,42.76,42.76,0,0,0-32-14.77,38,38,0,0,0-10.56,1.48c-23.26,6.74-31,30.06-28.27,50.17.24,1.77.5,3.54.76,5.31l0,.26c1.39,9.28,2.82,18.87.73,28.4-2.54,11.63-10.47,22.81-22.91,32.31C413.51,434.1,393.84,447.5,374.13,447.5Z" transform="translate(-1.44 -1)"/><path class="cls-4" d="M325.29,68.48c34.35,0,63.32,13.77,79.48,37.77,23.58,35,20,79.05,12.9,109.83-6.85,29.57-18.43,49-35.39,59.46-4.63,2.85-9.18,5.22-13.59,7.52-12.77,6.65-23.8,12.39-31.29,26.93-5.5,10.69-8.61,23.67-9.51,39.67-1.2,21.37,1.8,42.32,8.68,60.61,5.47,14.53,15.07,25.21,26.33,29.31a32.54,32.54,0,0,0,11.17,1.88c17.95,0,36.29-12.52,43.33-17.9,7.88-6,17.87-15.89,20.7-28.81,1.84-8.45.56-17.08-.81-26.22-.27-1.85-.56-3.76-.81-5.66-3-22.67,5.86-49,32.55-56.75a43.74,43.74,0,0,1,12.17-1.7,48.89,48.89,0,0,1,36.6,16.85,2.46,2.46,0,0,1,.6,1.82,2.49,2.49,0,0,1-.86,1.71,2.54,2.54,0,0,1-1.64.61,2.51,2.51,0,0,1-1.9-.87,43.79,43.79,0,0,0-32.73-15.12,38.89,38.89,0,0,0-10.84,1.52c-23.83,6.91-31.73,30.72-29,51.26.24,1.84.52,3.7.79,5.5v.09c1.38,9.19,2.79,18.69.75,28-2.5,11.4-10.29,22.37-22.55,31.72-7.46,5.7-26.91,18.95-46.32,18.95a37.51,37.51,0,0,1-12.95-2.21c-12.64-4.6-23.32-16.35-29.3-32.26-7.13-18.93-10.24-40.59-9-62.65.94-16.72,4.23-30.36,10.06-41.68,8.22-16,20.47-22.34,33.45-29.1,4.32-2.25,8.78-4.58,13.26-7.33,15.76-9.7,26.6-28.13,33.13-56.33,6.91-29.8,10.4-72.37-12.17-105.89C385.4,86.46,357.94,73.5,325.28,73.5c-1.35,0-2.72,0-4.08.07-17,.54-30.58,3.85-41.38,10.09a48.6,48.6,0,0,0-24.32,46.16,2.51,2.51,0,0,1-2.27,2.73H253a2.51,2.51,0,0,1-2.48-2.28,53.59,53.59,0,0,1,26.79-51c11.55-6.67,25.85-10.19,43.74-10.77,1.42,0,2.85-.07,4.25-.07m0-2c-1.43,0-2.87,0-4.31.07-18.23.59-32.84,4.2-44.68,11a55.66,55.66,0,0,0-27.79,52.88,4.52,4.52,0,0,0,4.48,4.1l.42,0a4.51,4.51,0,0,0,4.08-4.9,46.59,46.59,0,0,1,23.33-44.25c10.51-6.07,23.74-9.29,40.44-9.82,1.35,0,2.69-.07,4-.07C357.33,75.5,384,88,399,110.17c22.17,32.92,18.7,74.9,11.88,104.32-6.4,27.65-16.94,45.67-32.22,55.07-4.43,2.72-8.86,5-13.16,7.27-13.26,6.9-25.78,13.42-34.29,29.95-6,11.58-9.32,25.48-10.27,42.49-1.26,22.33,1.89,44.28,9.11,63.47,6.2,16.45,17.31,28.63,30.49,33.43a39.65,39.65,0,0,0,13.64,2.33c19.69,0,39-12.87,47.53-19.36,12.64-9.64,20.69-21,23.29-32.89,2.13-9.7.68-19.39-.72-28.75-.27-1.86-.55-3.71-.8-5.56-2.63-19.69,4.87-42.5,27.56-49.08a36.94,36.94,0,0,1,10.28-1.44,41.68,41.68,0,0,1,31.21,14.42,4.51,4.51,0,1,0,6.84-5.88,50.84,50.84,0,0,0-38.12-17.54,45.7,45.7,0,0,0-12.72,1.78c-27.84,8.07-37.13,35.41-34,58.93.26,1.9.54,3.79.82,5.7,1.34,8.95,2.6,17.41.83,25.5-2.7,12.32-12.34,21.83-19.95,27.64-6,4.61-24.5,17.49-42.12,17.49a30.58,30.58,0,0,1-10.49-1.76c-10.71-3.9-19.87-14.15-25.14-28.14-6.78-18-9.74-38.7-8.55-59.78.88-15.73,3.92-28.44,9.29-38.87,7.2-14,18-19.59,30.44-26.08,4.43-2.31,9-4.7,13.71-7.59,17.44-10.73,29.31-30.59,36.29-60.71,7.22-31.17,10.79-75.79-13.19-111.4-16.63-24.7-46.05-38.65-81.14-38.65Z" transform="translate(-1.44 -1)"/><path class="cls-12" d="M540.56,340l-1.21,1.58a3.05,3.05,0,0,1-4.1.69l-31.62-21a3,3,0,0,1-.73-4.38l4.39-5.75a3,3,0,0,1,4.43-.43l28.44,25.17A3,3,0,0,1,540.56,340Z" transform="translate(-1.44 -1)"/><rect class="cls-4" x="238.75" y="161.24" width="24.95" height="31.41" rx="3.56" ry="3.56"/><rect class="cls-10" x="244.61" y="124.33" width="13.23" height="80.09" rx="3.56" ry="3.56"/></g></g></svg>