<svg width="771" height="530" viewBox="0 0 771 530" fill="none" xmlns="http://www.w3.org/2000/svg">
<path fill-rule="evenodd" clip-rule="evenodd" d="M230.427 484L185 530H600L577.483 484H230.427Z" fill="#E12349"/>
<path fill-rule="evenodd" clip-rule="evenodd" d="M382 476.822C382 476.822 370.869 473.102 359.301 476.292C358.823 476.422 358.876 496.035 359.742 496C360.617 495.965 379.421 489.012 379.793 488.53C380.166 488.051 382 476.822 382 476.822Z" fill="#1C163D"/>
<path fill-rule="evenodd" clip-rule="evenodd" d="M415 476.822C415 476.822 426.129 473.102 437.695 476.292C438.173 476.422 438.133 496.035 437.258 496C436.391 495.965 417.576 489.012 417.207 488.53C416.831 488.051 415 476.822 415 476.822Z" fill="#1C163D"/>
<path fill-rule="evenodd" clip-rule="evenodd" d="M441.437 185.864C447.601 145.532 447.684 102.991 446.214 102.707C446.214 102.707 445.715 102.611 445.447 102.562C443.434 102.153 437.677 100.802 430.81 97.5626C422.241 93.521 408.878 95.4696 408.878 95.4696H387.578C387.578 95.4696 374.539 93.521 366.165 97.5626C359.466 100.802 353.853 102.153 351.888 102.562C351.628 102.611 351.38 102.659 351.149 102.703C351.137 102.707 351.133 102.707 351.133 102.707C351.133 102.707 349.77 144.386 355.779 184.717C361.731 224.636 352.958 246.123 356.118 265.826C357.217 272.654 389.679 262.458 392.16 270.89C392.16 270.89 396.89 271.098 398.096 270.942C399.339 271.098 404.18 270.89 404.18 270.89C406.725 262.458 440.17 272.654 441.293 265.826C444.533 246.123 435.344 225.779 441.437 185.864Z" fill="#E7B487"/>
<path fill-rule="evenodd" clip-rule="evenodd" d="M377.78 82C377.78 82 382.855 94.0162 375.756 100.252C368.648 106.491 414 103.834 414 100.252C414 96.6731 409.258 87.6211 412.197 82C412.197 82 394.609 82.359 377.78 82Z" fill="#E7B487"/>
<path fill-rule="evenodd" clip-rule="evenodd" d="M357.125 363.347C356.759 366.273 357.755 375.674 356.181 379.423C352.711 387.676 357.811 410.525 359.683 427.263C361.552 444.002 362.209 473 362.209 473L378.904 472.775C378.904 472.775 380.394 434.702 384.434 411.131C388.972 384.622 386.008 379.712 386.482 367.389C384.924 362.873 359.042 360.248 357.125 363.347Z" fill="#E7B487"/>
<path fill-rule="evenodd" clip-rule="evenodd" d="M358.669 373.753C359.782 378.661 385.025 384.132 386.235 375.345C387.002 357.38 411.159 264.045 387.953 255.625C387.953 255.625 360.057 217.284 354.523 257.054C350.461 286.316 352.395 332.379 352.928 344.522C353.29 352.926 355.9 365.748 358.669 373.753Z" fill="#E7B487"/>
<path fill-rule="evenodd" clip-rule="evenodd" d="M380.569 490C380.685 486.126 381.784 485.794 379.942 481.3C378.059 476.733 378.351 463 378.351 463L362.915 465.026C362.915 465.026 362.152 478.159 357 490H380.569Z" fill="#E7B487"/>
<path fill-rule="evenodd" clip-rule="evenodd" d="M440.873 363.347C441.243 366.273 440.243 375.674 441.817 379.423C445.292 387.676 440.188 410.525 438.315 427.263C436.442 444.002 435.784 473 435.784 473L419.088 472.775C419.088 472.775 417.606 434.702 413.562 411.131C409.027 384.622 411.996 379.712 411.514 367.389C413.068 362.873 438.96 360.248 440.873 363.347Z" fill="#E7B487"/>
<path fill-rule="evenodd" clip-rule="evenodd" d="M438.771 373.38C437.652 378.312 412.201 376.255 410.981 367.431C410.2 349.382 385.663 263.162 409.141 254.702C409.141 254.702 437.37 216.183 442.97 256.138C447.088 285.537 443.755 333.117 443.219 345.316C442.849 353.756 441.573 365.338 438.771 373.38Z" fill="#E7B487"/>
<path fill-rule="evenodd" clip-rule="evenodd" d="M426 50C426 69.3302 412.347 85 395.506 85C378.661 85 365 69.3302 365 50C365 30.6658 378.661 15 395.506 15C412.347 15 426 30.6658 426 50Z" fill="#E7B487"/>
<path fill-rule="evenodd" clip-rule="evenodd" d="M461.261 269.978C461.261 269.978 462.353 276.956 461.257 282.193C460.328 286.632 460.248 288.217 459.176 295.538C458.012 303.474 457.261 303.817 456.165 306.26C455.065 308.707 459.72 312.683 462.659 305.905C465.611 299.103 465.452 296.955 465.452 296.955C465.452 296.955 465.058 308.144 465.281 313.924C465.491 319.705 465.44 323.365 468.22 322.866C469.626 322.611 470.175 321.824 470.234 314.092C470.29 306.364 470.464 297.65 470.464 297.65C470.464 297.65 470.941 326.107 474.274 326C476.407 325.928 477.149 324.615 476.669 315.421C476.196 306.232 475.326 297.494 475.326 297.494C475.326 297.494 478.73 321.086 479.711 322.786C480.303 323.804 484.132 327.509 482.702 318.064C481.265 308.623 479.414 296.276 479.414 296.276C479.414 296.276 483.155 316.096 485.809 315.445C488.553 314.763 486.051 306.284 483.386 294.232C480.724 282.189 479.727 282.676 477.96 279.698C476.188 276.712 474.572 267 474.572 267L461.261 269.978Z" fill="#E7B487"/>
<mask id="mask0" mask-type="alpha" maskUnits="userSpaceOnUse" x="310" y="267" width="32" height="60">
<path fill-rule="evenodd" clip-rule="evenodd" d="M310 267.003H341.215V326.123H310V267.003Z" fill="white"/>
</mask>
<g mask="url(#mask0)">
<path fill-rule="evenodd" clip-rule="evenodd" d="M335.918 269.987C335.918 269.987 334.818 276.979 335.93 282.227C336.866 286.675 336.938 288.263 338.018 295.599C339.198 303.551 339.946 303.895 341.05 306.343C342.154 308.795 337.474 312.779 334.51 305.987C331.538 299.171 331.694 297.019 331.694 297.019C331.694 297.019 332.102 308.231 331.87 314.023C331.654 319.815 331.71 323.483 328.914 322.983C327.498 322.727 326.942 321.939 326.886 314.191C326.826 306.447 326.654 297.715 326.654 297.715C326.654 297.715 326.174 326.231 322.814 326.123C320.662 326.051 319.922 324.735 320.402 315.523C320.878 306.315 321.758 297.559 321.758 297.559C321.758 297.559 318.334 321.199 317.338 322.903C316.746 323.923 312.89 327.635 314.334 318.171C315.77 308.711 317.638 296.339 317.638 296.339C317.638 296.339 313.87 316.199 311.202 315.547C308.434 314.863 310.954 306.367 313.638 294.291C316.322 282.223 317.322 282.711 319.106 279.727C320.886 276.735 322.514 267.003 322.514 267.003L335.918 269.987Z" fill="#E7B487"/>
</g>
<path fill-rule="evenodd" clip-rule="evenodd" d="M421.395 63.3931C421.395 63.3931 416.632 74.0922 408.573 78.656C407.525 79.2498 406.372 77.7496 405.489 78.6758C398.646 85.8244 396.651 78.9767 396.651 78.9767L395.185 79.0242L393.117 78.9173C393.117 78.9173 391.466 84.8032 384.965 79.139C384.387 78.6323 383.817 79.6377 383.138 79.3329C373.87 75.1926 369.007 63.8918 369.007 63.8918C367.537 55.3817 360.582 46.349 363.875 60.0484C366.69 71.0523 373.705 87 394.775 87C420.005 87 424.278 64.5647 425.511 61.6554C427.503 56.9293 422.865 54.8829 421.395 63.3931Z" fill="#562B17"/>
<path fill-rule="evenodd" clip-rule="evenodd" d="M402.403 68.0097C397.887 68.2655 395.699 68.2854 395.089 70.4957C394.483 68.6012 392.159 68.4293 387.281 68.4213C380.056 68.4093 382.344 79.984 382.344 79.984L386.386 85C386.386 85 390.766 82.8178 388.04 81.7706C385.315 80.7194 384.724 80.9513 384.724 76.6147C384.724 72.2782 386.125 71.4229 390.4 72.9417C393.76 74.1327 395.984 74.1327 399.348 72.9417C403.619 71.4229 405.474 72.2782 405.474 76.6147C405.474 80.9513 404.884 80.7194 402.158 81.7706C399.436 82.8178 403.23 83.8929 403.23 83.8929L407.85 79.984C407.85 79.984 409.42 67.606 402.403 68.0097Z" fill="#562B17"/>
<path fill-rule="evenodd" clip-rule="evenodd" d="M373.566 78C373.566 78 372.178 75.9031 370.434 73C371.706 76.9023 373.566 78 373.566 78Z" fill="#562B17"/>
<mask id="mask1" mask-type="alpha" maskUnits="userSpaceOnUse" x="359" y="0" width="75" height="74">
<path fill-rule="evenodd" clip-rule="evenodd" d="M359.2 0.0561523H433.747V73.2118H359.2V0.0561523Z" fill="white"/>
</mask>
<g mask="url(#mask1)">
<path fill-rule="evenodd" clip-rule="evenodd" d="M433.386 30.2114C433.194 27.6954 432.558 25.3754 431.866 23.2674C430.97 20.5394 426.802 16.4314 424.666 13.4754C424.438 13.0994 424.19 12.7314 423.934 12.3674C423.926 12.3594 423.926 12.3554 423.918 12.3474C423.634 11.8554 423.266 11.4194 422.818 11.0114C421.15 9.2114 418.854 7.7154 415.366 6.7074C415.074 6.6194 414.778 6.5274 414.486 6.4394C414.07 6.2234 413.65 6.0034 413.246 5.7674C411.566 4.7914 409.71 4.3314 407.646 3.9794C401.134 1.3634 396.434 -0.980603 390.75 0.531398C390.682 0.547398 390.454 0.587398 390.098 0.663398C389.622 0.599398 389.194 0.563398 388.838 0.563398C385.998 0.563398 384.066 2.0034 379.418 3.3274C374.762 4.6594 373.054 6.2114 368.746 9.8674C366.718 11.5834 365.666 12.7914 364.902 14.0914C363.722 15.5874 362.71 17.2354 361.934 19.0594C355.598 33.8874 362.046 51.9834 363.622 58.5674C364.198 60.9754 370.022 72.4994 370.434 73.2114C369.682 70.8154 369.138 67.4194 369.274 62.6634C369.286 62.1074 369.25 61.2354 369.182 60.1474C365.302 28.9754 376.618 27.9154 387.002 31.2754C387.002 31.2754 387.134 31.3114 387.354 31.3754C388.018 31.6754 388.802 31.9914 389.754 32.3354C393.27 33.6194 394.466 32.5994 396.838 31.0874C397.762 30.7994 398.698 30.4314 399.65 29.9354C401.126 29.1594 402.666 28.5034 404.202 27.9634C424.334 25.1554 422.182 50.0714 421.566 53.8554C420.95 57.6394 420.61 68.3274 421.738 63.4314C421.802 63.1434 422.83 64.2514 423.086 61.9154C423.146 62.1074 423.014 61.7594 423.086 61.9154C424.902 65.8794 420.47 72.1074 420.47 72.1074C420.47 72.1074 421.29 70.7394 422.634 67.8074L421.338 72.0994C421.338 72.0994 424.814 66.5994 427.214 61.1714C429.098 56.8994 432.138 43.2154 432.89 37.5434C433.818 34.0394 434.006 32.1154 433.386 30.2114Z" fill="#562B17"/>
</g>
<path fill-rule="evenodd" clip-rule="evenodd" d="M417.427 490C417.312 486.126 416.217 485.794 418.063 481.3C419.941 476.733 419.645 463 419.645 463L435.078 465.026C435.078 465.026 435.841 478.159 441 490H417.427Z" fill="#E7B487"/>
<path fill-rule="evenodd" clip-rule="evenodd" d="M354.375 246C354.375 246 347.904 271.295 346 310.614L347.548 359.055L396.631 360L398.274 285.861L399 270.509V250.351L354.375 246Z" fill="#434495"/>
<path fill-rule="evenodd" clip-rule="evenodd" d="M441.288 247C441.288 247 447.459 268.268 449 310.643V360.049L400.46 361L397.725 286.406L397 270.965V247.666L441.288 247Z" fill="#434495"/>
<path fill-rule="evenodd" clip-rule="evenodd" d="M353.036 243C353.036 243 390.898 246.823 442.884 243L444 253.839C444 253.839 373.335 258.956 352 253.442L353.036 243Z" fill="#39387B"/>
<path fill-rule="evenodd" clip-rule="evenodd" d="M391.84 163.489C390.32 164.449 388.692 165.209 386.996 165.793C385.304 166.377 383.568 166.813 381.792 167.077C378.256 167.589 374.636 167.581 371.18 166.829C367.74 166.117 364.412 164.665 361.98 162.277C360.764 161.097 359.788 159.685 359.164 158.121C358.532 156.553 358.252 154.853 358.228 153.121C358.188 151.165 358.004 149.237 357.704 147.329C357.016 145.641 356.168 144.009 355.268 142.465C355.084 142.141 354.884 141.817 354.684 141.489C354.756 141.793 354.836 142.093 354.904 142.401C355.648 145.953 356.18 149.553 356.132 153.121C356.092 155.065 356.42 157.065 357.144 158.921C357.868 160.781 359.012 162.473 360.424 163.869C361.836 165.261 363.516 166.333 365.264 167.161C367.032 167.981 368.888 168.553 370.764 168.913C372.644 169.261 374.556 169.413 376.456 169.393C378.352 169.381 380.248 169.185 382.1 168.809C385.8 168.069 389.408 166.649 392.464 164.405C393.968 163.269 395.352 161.937 396.424 160.393C397.504 158.853 398.268 157.109 398.64 155.309C397.428 158.813 394.884 161.617 391.84 163.489Z" fill="#4E2512"/>
<path fill-rule="evenodd" clip-rule="evenodd" d="M394.418 173.795C393.722 173.859 393.05 174.011 392.378 174.183C391.05 174.559 389.758 175.075 388.53 175.695C386.078 176.927 383.814 178.499 381.718 180.203C379.658 181.863 377.59 183.515 375.474 185.103C374.422 185.891 373.358 186.687 372.258 187.427C371.17 188.175 370.062 188.907 368.85 189.499C370.214 189.375 371.51 188.879 372.782 188.387C374.034 187.843 375.258 187.239 376.438 186.563C378.798 185.203 381.01 183.635 383.122 181.947C385.178 180.275 387.234 178.667 389.414 177.215C390.502 176.495 391.602 175.791 392.766 175.207C393.346 174.899 393.942 174.635 394.558 174.395C395.17 174.171 395.802 173.959 396.482 173.903C395.818 173.707 395.106 173.735 394.418 173.795Z" fill="#4E2512"/>
<path fill-rule="evenodd" clip-rule="evenodd" d="M374.648 177.21C376.204 176.698 377.608 175.822 378.668 174.626C377.12 175.03 375.696 175.362 374.272 175.498C372.856 175.638 371.468 175.598 370.084 175.394C368.708 175.19 367.332 174.83 365.964 174.354C364.58 173.878 363.212 173.306 361.764 172.654C362.612 174.014 363.848 175.082 365.2 175.93C366.572 176.77 368.128 177.362 369.756 177.602C371.388 177.846 373.088 177.726 374.648 177.21Z" fill="#4E2512"/>
<path fill-rule="evenodd" clip-rule="evenodd" d="M396.113 198.821C394.633 199.313 393.265 199.729 391.897 199.901C390.537 200.081 389.213 200.037 387.901 199.801C386.585 199.565 385.281 199.133 383.985 198.573C382.677 198.013 381.385 197.349 380.029 196.609C380.733 198.005 381.841 199.153 383.113 200.089C384.381 201.013 385.885 201.705 387.501 201.993C389.109 202.297 390.817 202.169 392.341 201.601C393.865 201.033 395.185 200.069 396.113 198.821Z" fill="#4E2512"/>
<path fill-rule="evenodd" clip-rule="evenodd" d="M395.281 207.378C393.921 207.782 392.697 208.126 391.481 208.254C390.269 208.402 389.101 208.354 387.933 208.142C386.773 207.934 385.613 207.558 384.449 207.078C383.281 206.598 382.117 206.026 380.865 205.394C381.465 206.682 382.449 207.734 383.581 208.59C384.721 209.438 386.077 210.07 387.533 210.338C388.997 210.614 390.549 210.49 391.917 209.958C393.289 209.426 394.473 208.534 395.281 207.378Z" fill="#4E2512"/>
<path fill-rule="evenodd" clip-rule="evenodd" d="M388.031 217.417C387.235 217.273 386.431 217.041 385.587 216.745C384.739 216.449 383.879 216.105 382.883 215.749C383.223 216.765 383.907 217.589 384.719 218.261C385.535 218.921 386.531 219.413 387.631 219.609C388.719 219.821 389.899 219.705 390.903 219.269C391.915 218.833 392.759 218.109 393.259 217.173C392.211 217.353 391.315 217.529 390.463 217.569C389.615 217.613 388.823 217.557 388.031 217.417Z" fill="#4E2512"/>
<path fill-rule="evenodd" clip-rule="evenodd" d="M415.101 198.571C413.801 199.131 412.501 199.563 411.181 199.803C409.865 200.035 408.537 200.083 407.185 199.903C405.821 199.727 404.441 199.311 402.973 198.819C403.897 200.067 405.217 201.035 406.745 201.599C408.261 202.171 409.977 202.299 411.585 201.995C413.197 201.703 414.693 201.011 415.977 200.091C417.233 199.155 418.345 198.007 419.053 196.607C417.689 197.347 416.401 198.011 415.101 198.571Z" fill="#4E2512"/>
<path fill-rule="evenodd" clip-rule="evenodd" d="M418.218 205.395C416.97 206.023 415.802 206.595 414.63 207.075C413.466 207.559 412.306 207.931 411.146 208.143C409.982 208.355 408.81 208.399 407.606 208.255C406.382 208.123 405.15 207.783 403.806 207.379C404.614 208.531 405.794 209.423 407.162 209.955C408.534 210.491 410.09 210.611 411.55 210.335C413.006 210.067 414.358 209.435 415.498 208.591C416.634 207.731 417.618 206.683 418.218 205.395Z" fill="#4E2512"/>
<path fill-rule="evenodd" clip-rule="evenodd" d="M411.055 217.417C410.251 217.557 409.467 217.613 408.619 217.569C407.771 217.529 406.871 217.353 405.823 217.173C406.327 218.109 407.171 218.833 408.183 219.269C409.191 219.705 410.367 219.821 411.451 219.609C412.547 219.413 413.551 218.921 414.367 218.261C415.179 217.589 415.863 216.765 416.203 215.749C415.207 216.105 414.339 216.449 413.499 216.745C412.655 217.041 411.847 217.273 411.055 217.417Z" fill="#4E2512"/>
<path fill-rule="evenodd" clip-rule="evenodd" d="M442.34 148.641C442.3 147.797 442.288 146.949 442.332 146.101C442.388 144.589 442.548 143.069 442.784 141.561C441.972 142.453 441.212 143.357 440.536 144.301C440.464 144.865 440.412 145.429 440.372 145.997C440.312 146.897 440.284 147.801 440.3 148.709C440.312 149.605 440.408 150.557 440.432 151.337C440.476 152.953 440.232 154.561 439.64 156.041C439.064 157.525 438.14 158.873 437.016 160.025C434.764 162.377 431.692 163.933 428.484 164.893C425.26 165.877 421.84 166.217 418.456 166.033C415.084 165.817 411.692 165.037 408.72 163.381C407.232 162.565 405.872 161.505 404.736 160.225C403.608 158.945 402.712 157.429 402.132 155.777C402.484 157.493 403.208 159.153 404.256 160.613C405.304 162.069 406.656 163.305 408.152 164.309C411.18 166.301 414.736 167.381 418.304 167.765C421.9 168.173 425.552 167.861 429.064 166.921C432.56 165.949 435.96 164.269 438.616 161.581C439.92 160.229 440.996 158.613 441.672 156.833C442.356 155.053 442.648 153.125 442.548 151.249C442.48 150.281 442.368 149.493 442.34 148.641Z" fill="#4E2512"/>
<path fill-rule="evenodd" clip-rule="evenodd" d="M425.832 188.387C427.096 188.879 428.4 189.375 429.764 189.499C428.548 188.907 427.44 188.175 426.352 187.427C425.252 186.687 424.192 185.891 423.132 185.103C421.028 183.515 418.96 181.863 416.896 180.203C414.8 178.499 412.536 176.927 410.08 175.695C408.852 175.075 407.564 174.559 406.236 174.183C405.564 174.011 404.884 173.859 404.192 173.795C403.504 173.735 402.792 173.707 402.132 173.903C402.808 173.959 403.436 174.171 404.056 174.395C404.668 174.635 405.26 174.899 405.84 175.207C407.012 175.791 408.108 176.495 409.2 177.215C411.38 178.667 413.432 180.275 415.492 181.947C417.6 183.635 419.816 185.203 422.172 186.563C423.356 187.239 424.576 187.843 425.832 188.387Z" fill="#4E2512"/>
<path fill-rule="evenodd" clip-rule="evenodd" d="M424.336 175.497C422.92 175.361 421.484 175.029 419.944 174.629C421 175.821 422.408 176.697 423.964 177.209C425.516 177.729 427.224 177.845 428.852 177.601C430.484 177.361 432.04 176.769 433.408 175.929C434.764 175.081 435.996 174.013 436.852 172.653C435.404 173.305 434.028 173.877 432.652 174.353C431.28 174.829 429.912 175.189 428.528 175.393C427.148 175.597 425.752 175.641 424.336 175.497Z" fill="#4E2512"/>
<path fill-rule="evenodd" clip-rule="evenodd" d="M400.5 206.973C400.5 204.217 400.42 201.465 400.264 198.709C400.084 195.957 399.852 193.201 399.388 190.445C398.92 193.201 398.692 195.957 398.508 198.709C398.352 201.465 398.272 204.217 398.272 206.973C398.272 209.725 398.344 212.477 398.508 215.233C398.684 217.985 398.916 220.741 399.388 223.493C399.852 220.741 400.084 217.985 400.264 215.233C400.42 212.477 400.504 209.725 400.5 206.973Z" fill="#4E2512"/>
<path fill-rule="evenodd" clip-rule="evenodd" d="M344.806 210.881C345.319 211.909 345.549 213.458 345.747 214.61C346.995 221.675 343.424 244.588 339.58 257.638C335.723 270.684 335.658 281 335.658 281L320 278.455C320 278.455 322.241 268.725 321.248 249.85C320.254 230.996 323.417 216.898 327.779 207.24C329.576 203.868 343.881 208.147 344.806 210.881Z" fill="#E7B487"/>
<path fill-rule="evenodd" clip-rule="evenodd" d="M337.609 215.169C337.341 213.708 345.695 215.169 345.695 215.169C345.695 215.169 356.053 179.045 353.088 169.441C353.088 169.441 359.317 148.32 358.073 138.672C367.399 112.293 372.864 97.7548 348.811 103.097C336.057 105.45 326.859 113.902 328.796 130.865C331.108 151.157 327.744 157.556 326.075 166.092C323.831 177.597 325.659 206.389 326.535 211.239C333.633 211.951 331.192 218.218 337.609 215.169Z" fill="#E7B487"/>
<path fill-rule="evenodd" clip-rule="evenodd" d="M329.402 142.528C330.566 146.012 331.502 149.516 332.502 153C332.986 154.748 333.498 156.48 334.014 158.22C334.542 159.948 335.094 161.672 335.738 163.392C334.654 161.896 333.85 160.22 333.158 158.524C332.458 156.824 331.89 155.076 331.382 153.316C330.894 151.548 330.466 149.772 330.134 147.972C329.79 146.176 329.518 144.36 329.402 142.528Z" fill="#4E2512"/>
<path fill-rule="evenodd" clip-rule="evenodd" d="M327.023 198.114C328.107 198.822 328.951 199.65 329.803 200.458L331.055 201.682C331.471 202.098 331.891 202.486 332.391 202.906C331.731 202.95 331.087 202.726 330.519 202.43C329.947 202.126 329.443 201.738 328.987 201.298C328.535 200.858 328.139 200.37 327.803 199.846C327.471 199.314 327.179 198.754 327.023 198.114Z" fill="#4E2512"/>
<path fill-rule="evenodd" clip-rule="evenodd" d="M453.174 210.881C452.669 211.909 452.451 213.458 452.248 214.61C451.023 221.675 454.538 244.588 458.323 257.638C462.12 270.684 462.18 281 462.18 281L478 279.824C478 279.824 475.392 268.725 476.37 249.85C477.352 230.996 474.235 216.898 469.937 207.24C468.168 203.868 454.085 208.147 453.174 210.881Z" fill="#E7B487"/>
<path fill-rule="evenodd" clip-rule="evenodd" d="M459.392 215.169C459.66 213.708 451.307 215.169 451.307 215.169C451.307 215.169 440.946 179.045 443.914 169.441C443.914 169.441 437.686 148.32 438.93 138.672C429.597 112.293 424.14 97.7548 448.191 103.097C460.948 105.45 470.134 113.902 468.201 130.865C465.893 151.157 469.257 157.556 470.926 166.092C473.17 177.597 471.338 206.389 470.466 211.239C463.365 211.951 465.809 218.218 459.392 215.169Z" fill="#E7B487"/>
<path fill-rule="evenodd" clip-rule="evenodd" d="M467.621 142.528C466.461 146.012 465.525 149.516 464.525 153C464.037 154.748 463.533 156.48 463.013 158.22C462.485 159.948 461.937 161.672 461.293 163.392C462.373 161.896 463.173 160.22 463.869 158.524C464.569 156.824 465.133 155.076 465.641 153.316C466.133 151.548 466.557 149.772 466.897 147.972C467.233 146.176 467.509 144.36 467.621 142.528Z" fill="#4E2512"/>
<path fill-rule="evenodd" clip-rule="evenodd" d="M470.003 198.114C468.919 198.822 468.079 199.65 467.223 200.458L465.971 201.682C465.555 202.098 465.131 202.486 464.635 202.906C465.295 202.95 465.943 202.726 466.507 202.43C467.079 202.126 467.587 201.738 468.039 201.298C468.487 200.858 468.883 200.37 469.223 199.846C469.555 199.314 469.851 198.754 470.003 198.114Z" fill="#4E2512"/>
<path fill-rule="evenodd" clip-rule="evenodd" d="M355.593 101.422C355.593 101.422 363.653 139.718 353.081 169.355C353.081 169.355 355.773 196.261 354.337 211.392C352.902 226.523 353.001 243.703 353.001 243.703C353.001 243.703 389.151 248.871 442.844 243.703C442.844 243.703 440.184 227.193 440.632 230.665C441.076 234.081 442.904 189.862 442.468 179.891C442.268 175.369 443 169.355 443 169.355C443 169.355 428.861 131.591 440 101.422L433.397 99C433.397 99 421.169 145.167 399.035 145.167C376.904 145.167 365.233 119.808 361.417 99L355.593 101.422Z" fill="#ECECEB"/>
<path fill-rule="evenodd" clip-rule="evenodd" d="M361 477.932L361.71 473.004L379.527 473L380 478.625C380 478.625 362.368 484.404 361 477.932Z" fill="#FEFEFE"/>
<path fill-rule="evenodd" clip-rule="evenodd" d="M437 477.932L436.282 473.004L418.469 473L418 478.625C418 478.625 435.628 484.404 437 477.932Z" fill="#FEFEFE"/>
<mask id="mask2" mask-type="alpha" maskUnits="userSpaceOnUse" x="352" y="498" width="19" height="20">
<path fill-rule="evenodd" clip-rule="evenodd" d="M352.445 498.307H370.393V518H352.445V498.307Z" fill="white"/>
</mask>
<g mask="url(#mask2)">
<path fill-rule="evenodd" clip-rule="evenodd" d="M352.949 498.307C352.949 498.307 351.913 505.203 352.813 508.643C353.701 512.091 355.989 518.583 370.177 517.959L370.393 514.919C370.393 514.919 352.889 498.831 352.949 498.307Z" fill="#DBDBDB"/>
</g>
<mask id="mask3" mask-type="alpha" maskUnits="userSpaceOnUse" x="368" y="498" width="19" height="20">
<path fill-rule="evenodd" clip-rule="evenodd" d="M368.833 498.307H386.777V518H368.833V498.307Z" fill="white"/>
</mask>
<g mask="url(#mask3)">
<path fill-rule="evenodd" clip-rule="evenodd" d="M386.269 498.307C386.269 498.307 387.309 505.203 386.413 508.643C385.517 512.091 383.233 518.583 369.049 517.959L368.833 514.919C368.833 514.919 386.337 498.831 386.269 498.307Z" fill="#DBDBDB"/>
</g>
<path fill-rule="evenodd" clip-rule="evenodd" d="M359 478.358C359 478.358 368.734 475.367 379 478.263C379 478.263 377.482 484.424 375.917 485.714C374.36 487.004 364.488 488.093 364.184 487.994C363.893 487.895 359 478.358 359 478.358Z" fill="#00000D"/>
<path fill-rule="evenodd" clip-rule="evenodd" d="M382.014 481.397C382.162 469.405 377.152 478.818 376.764 479.874C376.076 481.707 362.936 481.707 362.252 479.874C361.856 478.818 357.562 468.333 356.69 481.836C356.69 481.836 352.183 499.994 353.131 505.635C355.286 514.041 356.698 515 369.502 515C382.314 515 384.758 513.501 385.877 505.635C386.821 499.994 382.014 481.397 382.014 481.397Z" fill="#434495"/>
<path fill-rule="evenodd" clip-rule="evenodd" d="M375 515.484C375 516.72 373.21 516.756 371 516.756C368.79 516.756 367 516.72 367 515.484C367 514.248 368.79 513.244 371 513.244C373.21 513.244 375 514.248 375 515.484Z" fill="#DBDBDB"/>
<path fill-rule="evenodd" clip-rule="evenodd" d="M385.876 505.896C386.16 504.175 385.928 501.274 385.461 498.05C384.702 497.644 383.935 497.304 383.248 497.013C379.185 495.321 371.85 490.417 374.603 498.562C374.603 498.562 384.622 504.003 381.406 514C384.262 512.685 385.269 510.247 385.876 505.896Z" fill="#2E2B63"/>
<path fill-rule="evenodd" clip-rule="evenodd" d="M354 497C356.836 490.744 363 489.427 363 489.427L362.837 486.753C359.466 487.201 356.779 489.696 354.934 492.073C357.397 485.987 362.757 485.114 362.757 485.114L362.613 482C359.61 483.087 357.359 485.043 355.856 486.721C355.249 489.621 354.501 493.445 354 497Z" fill="#2E2B63"/>
<path fill-rule="evenodd" clip-rule="evenodd" d="M376.245 485.153C376.245 485.153 381.653 486.037 384.142 492.2C382.281 489.793 379.566 487.266 376.169 486.813L376 489.52C376 489.52 382.097 490.834 385 497C384.449 493.405 383.66 489.532 383.005 486.563C381.5 484.912 379.297 483.052 376.394 482L376.245 485.153Z" fill="#2E2B63"/>
<path fill-rule="evenodd" clip-rule="evenodd" d="M364.848 498.896C369.206 489.907 360.092 495.727 355.875 497.382C355.132 497.674 354.318 498.014 353.509 498.431C353.056 501.551 352.84 504.371 353.135 506.065C354.297 510.407 355.248 512.746 357.767 514C352.998 503.754 364.848 498.896 364.848 498.896Z" fill="#2E2B63"/>
<path fill-rule="evenodd" clip-rule="evenodd" d="M363.248 479.511C363.248 479.511 364.974 500.751 367.538 503.149C370.102 505.555 372.237 502.861 373.874 495.037C375.51 487.209 376.928 479.184 376.928 479.184C376.928 479.184 377.823 476.384 373.294 475.347C368.385 474.223 361.616 475.891 363.248 479.511Z" fill="#2A275A"/>
<path fill-rule="evenodd" clip-rule="evenodd" d="M367.056 482.001C367.056 482.001 366.479 480.694 363 481.067C363 481.067 363.151 494.184 364.764 499.098C366.385 504.016 367.216 506.394 371.415 505.947C375.607 505.499 376.638 498.796 377.764 493.348C378.894 487.896 379 481.314 379 481.314C379 481.314 376.172 480.482 374.51 482.001C374.51 482.001 373.785 504.13 370.748 504.628C367.707 505.13 366.385 487.021 367.056 482.001Z" fill="#120729"/>
<path fill-rule="evenodd" clip-rule="evenodd" d="M374.369 484.614C374.961 484.81 375.733 484.698 376.085 484.358C376.429 484.018 376.225 483.582 375.625 483.386C375.029 483.19 374.265 483.302 373.921 483.642C373.569 483.982 373.769 484.418 374.369 484.614Z" fill="#FEFEFE"/>
<path fill-rule="evenodd" clip-rule="evenodd" d="M374.505 484.487C374.973 484.643 375.585 484.555 375.857 484.283C376.133 484.011 375.969 483.667 375.497 483.511C375.025 483.359 374.421 483.447 374.141 483.719C373.869 483.987 374.029 484.331 374.505 484.487Z" fill="#1D1D1B"/>
<path fill-rule="evenodd" clip-rule="evenodd" d="M373.254 489.571C373.818 489.807 374.598 489.739 375.006 489.419C375.418 489.107 375.298 488.659 374.746 488.427C374.182 488.195 373.406 488.263 372.998 488.575C372.582 488.891 372.698 489.339 373.254 489.571Z" fill="#FEFEFE"/>
<path fill-rule="evenodd" clip-rule="evenodd" d="M373.414 489.454C373.85 489.634 374.474 489.586 374.802 489.334C375.122 489.086 375.026 488.734 374.59 488.546C374.15 488.366 373.53 488.414 373.206 488.666C372.874 488.914 372.97 489.27 373.414 489.454Z" fill="#1D1D1B"/>
<path fill-rule="evenodd" clip-rule="evenodd" d="M372.143 494.518C372.647 494.786 373.435 494.774 373.907 494.486C374.387 494.198 374.359 493.75 373.859 493.482C373.355 493.214 372.559 493.226 372.087 493.514C371.615 493.798 371.639 494.25 372.143 494.518Z" fill="#FEFEFE"/>
<path fill-rule="evenodd" clip-rule="evenodd" d="M372.325 494.409C372.725 494.621 373.349 494.613 373.729 494.389C374.093 494.161 374.073 493.805 373.681 493.589C373.281 493.377 372.657 493.389 372.277 493.613C371.905 493.841 371.925 494.197 372.325 494.409Z" fill="#1D1D1B"/>
<path fill-rule="evenodd" clip-rule="evenodd" d="M371.998 498.426C372.414 498.742 373.202 498.806 373.746 498.57C374.302 498.334 374.414 497.89 374.006 497.574C373.586 497.258 372.806 497.194 372.25 497.43C371.702 497.666 371.582 498.11 371.998 498.426Z" fill="#FEFEFE"/>
<path fill-rule="evenodd" clip-rule="evenodd" d="M372.208 498.337C372.536 498.585 373.156 498.637 373.6 498.449C374.032 498.261 374.12 497.913 373.796 497.665C373.464 497.417 372.848 497.361 372.408 497.549C371.964 497.737 371.88 498.089 372.208 498.337Z" fill="#1D1D1B"/>
<path fill-rule="evenodd" clip-rule="evenodd" d="M373.373 486.616C373.961 486.812 374.737 486.696 375.081 486.36C375.429 486.016 375.221 485.584 374.621 485.384C374.025 485.188 373.269 485.304 372.917 485.644C372.573 485.98 372.777 486.42 373.373 486.616Z" fill="#FEFEFE"/>
<path fill-rule="evenodd" clip-rule="evenodd" d="M373.5 486.487C373.976 486.643 374.58 486.551 374.852 486.279C375.132 486.011 374.968 485.667 374.5 485.511C374.024 485.359 373.42 485.447 373.144 485.719C372.872 485.987 373.032 486.327 373.5 486.487Z" fill="#1D1D1B"/>
<path fill-rule="evenodd" clip-rule="evenodd" d="M373.254 491.572C373.81 491.808 374.594 491.74 375.002 491.424C375.418 491.108 375.298 490.66 374.738 490.428C374.186 490.192 373.406 490.26 372.994 490.576C372.586 490.892 372.702 491.34 373.254 491.572Z" fill="#FEFEFE"/>
<path fill-rule="evenodd" clip-rule="evenodd" d="M373.414 491.452C373.854 491.636 374.474 491.584 374.794 491.336C375.122 491.084 375.03 490.732 374.586 490.548C374.146 490.364 373.526 490.416 373.202 490.668C372.882 490.916 372.97 491.268 373.414 491.452Z" fill="#1D1D1B"/>
<path fill-rule="evenodd" clip-rule="evenodd" d="M372.145 496.519C372.641 496.787 373.437 496.771 373.909 496.491C374.385 496.203 374.357 495.751 373.857 495.483C373.353 495.211 372.565 495.227 372.093 495.515C371.617 495.799 371.637 496.251 372.145 496.519Z" fill="#FEFEFE"/>
<path fill-rule="evenodd" clip-rule="evenodd" d="M372.317 496.411C372.717 496.623 373.345 496.611 373.725 496.387C374.093 496.159 374.081 495.803 373.681 495.587C373.277 495.379 372.657 495.387 372.281 495.615C371.901 495.839 371.921 496.199 372.317 496.411Z" fill="#1D1D1B"/>
<path fill-rule="evenodd" clip-rule="evenodd" d="M370.998 501.426C371.414 501.738 372.202 501.806 372.746 501.57C373.302 501.334 373.414 500.89 373.002 500.574C372.586 500.262 371.81 500.194 371.25 500.43C370.702 500.666 370.586 501.11 370.998 501.426Z" fill="#FEFEFE"/>
<path fill-rule="evenodd" clip-rule="evenodd" d="M371.207 501.337C371.531 501.589 372.151 501.637 372.599 501.449C373.031 501.261 373.123 500.913 372.791 500.661C372.463 500.413 371.847 500.361 371.407 500.553C370.967 500.737 370.879 501.089 371.207 501.337Z" fill="#1D1D1B"/>
<path fill-rule="evenodd" clip-rule="evenodd" d="M365.628 484.614C365.032 484.81 364.26 484.698 363.924 484.358C363.568 484.018 363.78 483.582 364.38 483.386C364.976 483.19 365.728 483.302 366.08 483.642C366.428 483.982 366.224 484.418 365.628 484.614Z" fill="#FEFEFE"/>
<path fill-rule="evenodd" clip-rule="evenodd" d="M365.499 484.487C365.027 484.643 364.415 484.555 364.147 484.283C363.871 484.011 364.031 483.667 364.503 483.511C364.979 483.359 365.583 483.447 365.855 483.719C366.127 483.987 365.967 484.331 365.499 484.487Z" fill="#1D1D1B"/>
<path fill-rule="evenodd" clip-rule="evenodd" d="M374.902 485.727C374.625 485.431 374.657 485.267 372.961 485.659C369.572 486.443 367.781 484.379 366.546 483.187C366.546 483.187 364.486 483.051 365.122 484.095C365.122 484.095 367.891 486.983 370.404 486.811C370.404 486.811 370.424 486.803 370.455 486.787C370.929 486.835 371.544 486.827 372.353 486.735C375.142 486.415 375.146 485.983 374.902 485.727Z" fill="#C5C5C5"/>
<path fill-rule="evenodd" clip-rule="evenodd" d="M366.744 489.571C366.192 489.807 365.404 489.739 364.996 489.419C364.584 489.107 364.7 488.659 365.26 488.427C365.812 488.195 366.596 488.263 367.004 488.575C367.416 488.891 367.3 489.339 366.744 489.571Z" fill="#FEFEFE"/>
<path fill-rule="evenodd" clip-rule="evenodd" d="M366.588 489.454C366.148 489.634 365.528 489.586 365.204 489.334C364.88 489.086 364.972 488.734 365.412 488.546C365.848 488.366 366.476 488.414 366.796 488.666C367.12 488.914 367.028 489.27 366.588 489.454Z" fill="#1D1D1B"/>
<path fill-rule="evenodd" clip-rule="evenodd" d="M373.934 490.891C373.708 490.579 373.769 490.323 371.976 490.699C371.649 490.767 371.318 490.803 370.995 490.823C368.423 490.371 368.483 489.755 366.468 488.255C366.468 488.255 364.353 488.247 365.201 489.247C365.201 489.247 366.355 490.167 367.817 490.867C368.007 491.367 368.778 491.847 371.152 491.727C374.039 491.587 374.136 491.159 373.934 490.891Z" fill="#C5C5C5"/>
<path fill-rule="evenodd" clip-rule="evenodd" d="M367.861 494.518C367.361 494.786 366.561 494.774 366.093 494.486C365.613 494.198 365.641 493.75 366.145 493.482C366.645 493.214 367.437 493.226 367.909 493.514C368.381 493.798 368.361 494.25 367.861 494.518Z" fill="#FEFEFE"/>
<path fill-rule="evenodd" clip-rule="evenodd" d="M367.681 494.409C367.281 494.621 366.657 494.613 366.277 494.389C365.901 494.161 365.925 493.805 366.321 493.589C366.717 493.377 367.345 493.389 367.717 493.613C368.097 493.841 368.081 494.197 367.681 494.409Z" fill="#1D1D1B"/>
<path fill-rule="evenodd" clip-rule="evenodd" d="M372.993 496.107C372.902 495.919 372.902 495.759 372.568 495.703C372.493 495.663 372.383 495.627 372.21 495.607C369.461 495.343 369.619 494.791 367.31 493.407C367.31 493.407 365.261 493.547 366.288 494.479C366.288 494.479 366.756 494.783 367.464 495.151C371.53 497.443 373.122 496.387 372.993 496.107Z" fill="#C5C5C5"/>
<path fill-rule="evenodd" clip-rule="evenodd" d="M368 498.426C367.592 498.742 366.804 498.806 366.252 498.57C365.696 498.334 365.584 497.89 366 497.574C366.416 497.258 367.196 497.194 367.752 497.43C368.3 497.666 368.416 498.11 368 498.426Z" fill="#FEFEFE"/>
<path fill-rule="evenodd" clip-rule="evenodd" d="M367.791 498.337C367.467 498.585 366.847 498.637 366.407 498.449C365.967 498.261 365.883 497.913 366.207 497.665C366.539 497.417 367.159 497.361 367.595 497.549C368.031 497.737 368.119 498.089 367.791 498.337Z" fill="#1D1D1B"/>
<path fill-rule="evenodd" clip-rule="evenodd" d="M372.478 500.646C370.278 500.242 370.59 499.694 368.079 498.478C368.079 498.478 366.184 498.814 367.417 499.626C367.417 499.626 370.026 501.438 372.166 501.522C372.384 501.498 372.594 501.454 372.79 501.386C372.79 501.386 373.429 500.818 372.478 500.646Z" fill="#C5C5C5"/>
<path fill-rule="evenodd" clip-rule="evenodd" d="M365.63 486.616C365.034 486.812 364.266 486.696 363.918 486.36C363.57 486.016 363.778 485.584 364.37 485.384C364.97 485.188 365.73 485.304 366.082 485.644C366.426 485.98 366.226 486.42 365.63 486.616Z" fill="#FEFEFE"/>
<path fill-rule="evenodd" clip-rule="evenodd" d="M365.497 486.487C365.021 486.643 364.413 486.551 364.149 486.279C363.869 486.011 364.029 485.667 364.501 485.511C364.977 485.359 365.581 485.447 365.857 485.719C366.129 485.987 365.969 486.327 365.497 486.487Z" fill="#1D1D1B"/>
<path fill-rule="evenodd" clip-rule="evenodd" d="M373.456 483.178C372.224 484.37 371.995 485.014 370.984 485.514C370.052 486.01 369.061 486.234 367.043 485.65C365.368 485.166 365.376 485.422 365.096 485.718C364.851 485.974 364.879 486.298 367.643 486.726C372.347 487.45 374.878 484.086 374.878 484.086C375.514 483.038 373.456 483.178 373.456 483.178Z" fill="#FEFEFE"/>
<path fill-rule="evenodd" clip-rule="evenodd" d="M366.743 491.572C366.191 491.808 365.403 491.74 364.995 491.424C364.583 491.108 364.699 490.66 365.259 490.428C365.815 490.192 366.595 490.26 367.003 490.576C367.415 490.892 367.307 491.34 366.743 491.572Z" fill="#FEFEFE"/>
<path fill-rule="evenodd" clip-rule="evenodd" d="M366.59 491.452C366.146 491.636 365.53 491.584 365.206 491.336C364.874 491.084 364.974 490.732 365.406 490.548C365.854 490.364 366.47 490.416 366.794 490.668C367.126 490.916 367.026 491.268 366.59 491.452Z" fill="#1D1D1B"/>
<path fill-rule="evenodd" clip-rule="evenodd" d="M374.797 489.249C375.65 488.249 373.536 488.257 373.536 488.257C371.492 489.773 372.07 490.329 369.168 490.793C368.691 490.837 368.311 490.761 368.028 490.701C366.23 490.329 366.291 490.581 366.065 490.893C365.866 491.161 365.955 491.589 368.853 491.733C372.688 491.921 374.797 489.249 374.797 489.249Z" fill="#FEFEFE"/>
<path fill-rule="evenodd" clip-rule="evenodd" d="M372.985 490.942C372.985 490.942 372.997 490.99 372.997 491.058C373.025 491.026 373.021 490.986 372.985 490.942Z" fill="#FEFEFE"/>
<path fill-rule="evenodd" clip-rule="evenodd" d="M367.855 496.519C367.351 496.787 366.559 496.771 366.091 496.491C365.615 496.203 365.639 495.751 366.135 495.483C366.647 495.211 367.435 495.227 367.911 495.515C368.387 495.799 368.359 496.251 367.855 496.519Z" fill="#FEFEFE"/>
<path fill-rule="evenodd" clip-rule="evenodd" d="M367.68 496.411C367.276 496.623 366.652 496.611 366.28 496.387C365.904 496.159 365.924 495.803 366.32 495.587C366.72 495.379 367.344 495.387 367.724 495.615C368.092 495.839 368.08 496.199 367.68 496.411Z" fill="#1D1D1B"/>
<path fill-rule="evenodd" clip-rule="evenodd" d="M372.684 493.51C370.384 494.894 370.541 495.442 367.793 495.71C367.62 495.73 367.51 495.762 367.439 495.806C367.105 495.862 367.097 496.018 367.01 496.21C366.873 496.49 368.072 496.966 372.539 495.254C373.243 494.886 373.715 494.582 373.715 494.582C374.737 493.65 372.684 493.51 372.684 493.51Z" fill="#FEFEFE"/>
<path fill-rule="evenodd" clip-rule="evenodd" d="M369 501.426C368.592 501.738 367.808 501.806 367.252 501.57C366.696 501.334 366.584 500.89 367 500.574C367.416 500.262 368.196 500.194 368.752 500.43C369.3 500.666 369.416 501.11 369 501.426Z" fill="#FEFEFE"/>
<path fill-rule="evenodd" clip-rule="evenodd" d="M368.793 501.337C368.465 501.589 367.845 501.637 367.409 501.449C366.965 501.261 366.877 500.913 367.205 500.661C367.533 500.413 368.157 500.361 368.593 500.553C369.033 500.737 369.125 501.089 368.793 501.337Z" fill="#1D1D1B"/>
<path fill-rule="evenodd" clip-rule="evenodd" d="M372.814 498.476C370.488 500.2 367.806 500.928 368.046 500.956C368.021 501.024 368.021 501.108 368.004 501.196C367.955 501.488 368.24 502.22 373.365 499.712L373.543 499.628C374.896 498.812 372.814 498.476 372.814 498.476Z" fill="#FEFEFE"/>
<path fill-rule="evenodd" clip-rule="evenodd" d="M370.04 483C370.04 483 382.42 482.478 380.865 476.105C379.31 469.735 371.492 479.596 370 482.32L370.732 482.423C370.732 482.423 375.345 475.84 378.012 475.666C380.675 475.492 380.018 477.619 379.164 478.378C378.412 479.042 376.038 481.233 371.951 482.506C371.701 482.585 370.76 482.257 370.487 482.332C370.123 482.427 370.435 482.917 370.04 483Z" fill="#C5C5C5"/>
<path fill-rule="evenodd" clip-rule="evenodd" d="M371.403 482C371.403 482 367.613 474.539 362.609 475.022C357.614 475.506 357.402 479.149 364.523 481.572L371.643 484L371.683 482.895C371.683 482.895 366.484 481.43 364.116 480.091C361.744 478.753 359.368 477.125 361.553 476.682C363.73 476.242 365.375 476.211 368.223 479.272C369.579 480.737 370.404 482.353 370.993 482.958C371.643 483.616 372 483.192 372 483.192L371.403 482Z" fill="#C5C5C5"/>
<path fill-rule="evenodd" clip-rule="evenodd" d="M370.029 483.415C370.029 483.415 369.65 484.699 367.589 487.19C365.536 489.685 365.75 493.943 365.947 494.118C366.148 494.297 365.615 495 365.615 495C365.615 495 364.865 495.032 364.407 493.675C363.949 492.318 363.191 489.64 366.61 486.528C370.029 483.415 370.456 482.013 370.456 482.013C370.456 482.013 371.928 481.765 370.029 483.415Z" fill="#D9D9D9"/>
<path fill-rule="evenodd" clip-rule="evenodd" d="M371 482C371 482 372.362 486.525 372.668 489.115C372.978 491.7 375.09 495.241 374.859 496.671C374.629 498.101 375.857 497.998 375.857 497.998C375.857 497.998 376.64 497.324 374.545 492.558C372.446 487.788 373.024 485.933 372.488 484.393C371.93 482.772 371.972 482.184 371 482Z" fill="#D9D9D9"/>
<mask id="mask4" mask-type="alpha" maskUnits="userSpaceOnUse" x="426" y="498" width="19" height="20">
<path fill-rule="evenodd" clip-rule="evenodd" d="M426.134 498.307H444.082V518H426.134V498.307Z" fill="white"/>
</mask>
<g mask="url(#mask4)">
<path fill-rule="evenodd" clip-rule="evenodd" d="M443.574 498.307C443.574 498.307 444.614 505.203 443.718 508.643C442.822 512.091 440.538 518.583 426.35 517.959L426.134 514.919C426.134 514.919 443.638 498.831 443.574 498.307Z" fill="#DBDBDB"/>
</g>
<mask id="mask5" mask-type="alpha" maskUnits="userSpaceOnUse" x="409" y="498" width="19" height="20">
<path fill-rule="evenodd" clip-rule="evenodd" d="M409.752 498.307H427.698V518H409.752V498.307Z" fill="white"/>
</mask>
<g mask="url(#mask5)">
<path fill-rule="evenodd" clip-rule="evenodd" d="M410.262 498.307C410.262 498.307 409.218 505.203 410.118 508.643C411.01 512.091 413.294 518.583 427.482 517.959L427.698 514.919C427.698 514.919 410.194 498.831 410.262 498.307Z" fill="#DBDBDB"/>
</g>
<path fill-rule="evenodd" clip-rule="evenodd" d="M437 478.358C437 478.358 427.268 475.367 417 478.263C417 478.263 418.514 484.424 420.082 485.714C421.643 487.004 431.509 488.093 431.813 487.994C432.108 487.895 437 478.358 437 478.358Z" fill="#00000D"/>
<path fill-rule="evenodd" clip-rule="evenodd" d="M413.986 481.397C413.842 469.405 418.845 478.818 419.237 479.874C419.925 481.707 433.066 481.707 433.754 479.874C434.154 478.818 438.437 468.333 439.317 481.836C439.317 481.836 443.82 499.994 442.868 505.635C440.724 514.041 439.305 515 426.495 515C413.69 515 411.239 513.501 410.123 505.635C409.179 499.994 413.986 481.397 413.986 481.397Z" fill="#434495"/>
<path fill-rule="evenodd" clip-rule="evenodd" d="M422 515.484C422 516.72 423.782 516.756 426 516.756C428.21 516.756 430 516.72 430 515.484C430 514.248 428.21 513.244 426 513.244C423.782 513.244 422 514.248 422 515.484Z" fill="#DBDBDB"/>
<path fill-rule="evenodd" clip-rule="evenodd" d="M410.121 505.896C409.842 504.175 410.073 501.274 410.537 498.05C411.296 497.644 412.055 497.304 412.754 497.013C416.817 495.321 424.152 490.417 421.396 498.562C421.396 498.562 411.376 504.003 414.588 514C411.735 512.685 410.732 510.247 410.121 505.896Z" fill="#2E2B63"/>
<path fill-rule="evenodd" clip-rule="evenodd" d="M443 497C440.164 490.744 434 489.427 434 489.427L434.159 486.753C437.526 487.201 440.218 489.696 442.066 492.073C439.599 485.987 434.239 485.114 434.239 485.114L434.383 482C437.386 483.087 439.641 485.043 441.136 486.721C441.751 489.621 442.495 493.445 443 497Z" fill="#2E2B63"/>
<path fill-rule="evenodd" clip-rule="evenodd" d="M419.759 485.153C419.759 485.153 414.346 486.037 411.855 492.2C413.721 489.793 416.435 487.266 419.831 486.813L420 489.52C420 489.52 413.902 490.834 411 497C411.548 493.405 412.338 489.532 412.989 486.563C414.503 484.912 416.707 483.052 419.605 482L419.759 485.153Z" fill="#2E2B63"/>
<path fill-rule="evenodd" clip-rule="evenodd" d="M432.15 498.896C427.796 489.907 436.907 495.727 441.125 497.382C441.868 497.674 442.685 498.014 443.495 498.431C443.943 501.551 444.163 504.371 443.86 506.065C442.706 510.407 441.751 512.746 439.232 514C443.997 503.754 432.15 498.896 432.15 498.896Z" fill="#2E2B63"/>
<path fill-rule="evenodd" clip-rule="evenodd" d="M432.748 479.511C432.748 479.511 431.027 500.751 428.463 503.149C425.907 505.555 423.76 502.861 422.127 495.037C420.49 487.209 419.073 479.184 419.073 479.184C419.073 479.184 418.173 476.384 422.702 475.347C427.62 474.223 434.393 475.891 432.748 479.511Z" fill="#2A275A"/>
<path fill-rule="evenodd" clip-rule="evenodd" d="M429.948 482.001C429.948 482.001 430.521 480.694 434 481.067C434 481.067 433.857 494.184 432.236 499.098C430.615 504.016 429.784 506.394 425.589 505.947C421.389 505.499 420.366 498.796 419.244 493.348C418.102 487.896 418 481.314 418 481.314C418 481.314 420.828 480.482 422.498 482.001C422.498 482.001 423.211 504.13 426.252 504.628C429.293 505.13 430.615 487.021 429.948 482.001Z" fill="#120729"/>
<path fill-rule="evenodd" clip-rule="evenodd" d="M422.634 484.614C422.038 484.81 421.27 484.698 420.918 484.358C420.574 484.018 420.774 483.582 421.374 483.386C421.97 483.19 422.738 483.302 423.082 483.642C423.426 483.982 423.226 484.418 422.634 484.614Z" fill="#FEFEFE"/>
<path fill-rule="evenodd" clip-rule="evenodd" d="M422.497 484.487C422.021 484.643 421.417 484.555 421.141 484.283C420.869 484.011 421.029 483.667 421.501 483.511C421.973 483.359 422.581 483.447 422.857 483.719C423.133 483.987 422.969 484.331 422.497 484.487Z" fill="#1D1D1B"/>
<path fill-rule="evenodd" clip-rule="evenodd" d="M422.745 489.571C422.185 489.807 421.405 489.739 420.993 489.419C420.585 489.107 420.701 488.659 421.257 488.427C421.817 488.195 422.593 488.263 423.005 488.575C423.417 488.891 423.297 489.339 422.745 489.571Z" fill="#FEFEFE"/>
<path fill-rule="evenodd" clip-rule="evenodd" d="M422.589 489.454C422.149 489.634 421.529 489.586 421.201 489.334C420.877 489.086 420.973 488.734 421.413 488.546C421.853 488.366 422.473 488.414 422.797 488.666C423.125 488.914 423.025 489.27 422.589 489.454Z" fill="#1D1D1B"/>
<path fill-rule="evenodd" clip-rule="evenodd" d="M423.856 494.518C423.356 494.786 422.564 494.774 422.092 494.486C421.616 494.198 421.636 493.75 422.14 493.482C422.644 493.214 423.44 493.226 423.916 493.514C424.388 493.798 424.36 494.25 423.856 494.518Z" fill="#FEFEFE"/>
<path fill-rule="evenodd" clip-rule="evenodd" d="M423.677 494.409C423.277 494.621 422.653 494.613 422.277 494.389C421.905 494.161 421.925 493.805 422.321 493.589C422.721 493.377 423.349 493.389 423.721 493.613C424.093 493.841 424.077 494.197 423.677 494.409Z" fill="#1D1D1B"/>
<path fill-rule="evenodd" clip-rule="evenodd" d="M425.005 498.426C424.589 498.742 423.805 498.806 423.249 498.57C422.697 498.334 422.589 497.89 422.993 497.574C423.413 497.258 424.193 497.194 424.749 497.43C425.297 497.666 425.417 498.11 425.005 498.426Z" fill="#FEFEFE"/>
<path fill-rule="evenodd" clip-rule="evenodd" d="M424.796 498.337C424.464 498.585 423.844 498.637 423.404 498.449C422.968 498.261 422.88 497.913 423.208 497.665C423.54 497.417 424.152 497.361 424.592 497.549C425.036 497.737 425.116 498.089 424.796 498.337Z" fill="#1D1D1B"/>
<path fill-rule="evenodd" clip-rule="evenodd" d="M422.629 486.616C422.033 486.812 421.265 486.696 420.921 486.36C420.569 486.016 420.777 485.584 421.377 485.384C421.973 485.188 422.729 485.304 423.081 485.644C423.429 485.98 423.225 486.42 422.629 486.616Z" fill="#FEFEFE"/>
<path fill-rule="evenodd" clip-rule="evenodd" d="M422.493 486.487C422.025 486.643 421.417 486.551 421.145 486.279C420.873 486.011 421.025 485.667 421.501 485.511C421.973 485.359 422.577 485.447 422.857 485.719C423.129 485.987 422.969 486.327 422.493 486.487Z" fill="#1D1D1B"/>
<path fill-rule="evenodd" clip-rule="evenodd" d="M423.745 491.572C423.189 491.808 422.401 491.74 421.997 491.424C421.585 491.108 421.701 490.66 422.261 490.428C422.813 490.192 423.601 490.26 424.001 490.576C424.413 490.892 424.301 491.34 423.745 491.572Z" fill="#FEFEFE"/>
<path fill-rule="evenodd" clip-rule="evenodd" d="M423.589 491.452C423.149 491.636 422.525 491.584 422.201 491.336C421.877 491.084 421.969 490.732 422.413 490.548C422.849 490.364 423.477 490.416 423.797 490.668C424.121 490.916 424.033 491.268 423.589 491.452Z" fill="#1D1D1B"/>
<path fill-rule="evenodd" clip-rule="evenodd" d="M424.862 496.519C424.358 496.787 423.562 496.771 423.09 496.491C422.614 496.203 422.642 495.751 423.146 495.483C423.646 495.211 424.434 495.227 424.91 495.515C425.382 495.799 425.362 496.251 424.862 496.519Z" fill="#FEFEFE"/>
<path fill-rule="evenodd" clip-rule="evenodd" d="M424.679 496.411C424.279 496.623 423.659 496.611 423.279 496.387C422.903 496.159 422.919 495.803 423.327 495.587C423.727 495.379 424.347 495.387 424.719 495.615C425.095 495.839 425.083 496.199 424.679 496.411Z" fill="#1D1D1B"/>
<path fill-rule="evenodd" clip-rule="evenodd" d="M425.003 501.426C424.587 501.738 423.799 501.806 423.251 501.57C422.695 501.334 422.587 500.89 422.999 500.574C423.411 500.262 424.187 500.194 424.751 500.43C425.295 500.666 425.419 501.11 425.003 501.426Z" fill="#FEFEFE"/>
<path fill-rule="evenodd" clip-rule="evenodd" d="M424.792 501.337C424.464 501.589 423.844 501.637 423.408 501.449C422.972 501.261 422.876 500.913 423.208 500.661C423.54 500.413 424.156 500.361 424.592 500.553C425.036 500.737 425.12 501.089 424.792 501.337Z" fill="#1D1D1B"/>
<path fill-rule="evenodd" clip-rule="evenodd" d="M430.373 484.614C430.969 484.81 431.733 484.698 432.081 484.358C432.429 484.018 432.229 483.582 431.629 483.386C431.029 483.19 430.265 483.302 429.917 483.642C429.569 483.982 429.781 484.418 430.373 484.614Z" fill="#FEFEFE"/>
<path fill-rule="evenodd" clip-rule="evenodd" d="M430.505 484.487C430.973 484.643 431.581 484.555 431.857 484.283C432.129 484.011 431.969 483.667 431.493 483.511C431.029 483.359 430.421 483.447 430.145 483.719C429.869 483.987 430.033 484.331 430.505 484.487Z" fill="#1D1D1B"/>
<path fill-rule="evenodd" clip-rule="evenodd" d="M422.098 485.727C422.378 485.431 422.342 485.267 424.043 485.659C427.43 486.443 429.226 484.379 430.457 483.187C430.457 483.187 432.514 483.051 431.878 484.095C431.878 484.095 429.107 486.983 426.597 486.811C426.597 486.811 426.577 486.803 426.542 486.787C426.072 486.835 425.456 486.827 424.651 486.735C421.865 486.415 421.853 485.983 422.098 485.727Z" fill="#C5C5C5"/>
<path fill-rule="evenodd" clip-rule="evenodd" d="M430.255 489.571C430.811 489.807 431.595 489.739 432.003 489.419C432.415 489.107 432.299 488.659 431.743 488.427C431.187 488.195 430.403 488.263 429.995 488.575C429.587 488.891 429.699 489.339 430.255 489.571Z" fill="#FEFEFE"/>
<path fill-rule="evenodd" clip-rule="evenodd" d="M430.412 489.454C430.852 489.634 431.476 489.586 431.796 489.334C432.124 489.086 432.028 488.734 431.588 488.546C431.152 488.366 430.524 488.414 430.2 488.666C429.88 488.914 429.972 489.27 430.412 489.454Z" fill="#1D1D1B"/>
<path fill-rule="evenodd" clip-rule="evenodd" d="M423.066 490.891C423.3 490.579 423.24 490.323 425.028 490.699C425.355 490.767 425.686 490.803 426.005 490.823C428.578 490.371 428.521 489.755 430.528 488.255C430.528 488.255 432.648 488.247 431.8 489.247C431.8 489.247 430.645 490.167 429.179 490.867C428.993 491.367 428.222 491.847 425.856 491.727C422.957 491.587 422.864 491.159 423.066 490.891Z" fill="#C5C5C5"/>
<path fill-rule="evenodd" clip-rule="evenodd" d="M429.139 494.518C429.643 494.786 430.435 494.774 430.911 494.486C431.387 494.198 431.359 493.75 430.855 493.482C430.351 493.214 429.563 493.226 429.091 493.514C428.619 493.798 428.635 494.25 429.139 494.518Z" fill="#FEFEFE"/>
<path fill-rule="evenodd" clip-rule="evenodd" d="M429.319 494.409C429.719 494.621 430.347 494.613 430.723 494.389C431.099 494.161 431.079 493.805 430.683 493.589C430.279 493.377 429.659 493.389 429.279 493.613C428.903 493.841 428.919 494.197 429.319 494.409Z" fill="#1D1D1B"/>
<path fill-rule="evenodd" clip-rule="evenodd" d="M423.007 496.107C423.101 495.919 423.101 495.759 423.435 495.703C423.514 495.663 423.624 495.627 423.789 495.607C426.54 495.343 426.382 494.791 428.685 493.407C428.685 493.407 430.736 493.547 429.715 494.479C429.715 494.479 429.247 494.783 428.54 495.151C424.469 497.443 422.881 496.387 423.007 496.107Z" fill="#C5C5C5"/>
<path fill-rule="evenodd" clip-rule="evenodd" d="M428.999 498.426C429.415 498.742 430.195 498.806 430.747 498.57C431.303 498.334 431.415 497.89 430.999 497.574C430.587 497.258 429.807 497.194 429.251 497.43C428.699 497.666 428.583 498.11 428.999 498.426Z" fill="#FEFEFE"/>
<path fill-rule="evenodd" clip-rule="evenodd" d="M429.208 498.337C429.536 498.585 430.156 498.637 430.592 498.449C431.032 498.261 431.124 497.913 430.792 497.665C430.46 497.417 429.84 497.361 429.408 497.549C428.968 497.737 428.876 498.089 429.208 498.337Z" fill="#1D1D1B"/>
<path fill-rule="evenodd" clip-rule="evenodd" d="M424.209 501.388C424.408 501.456 424.615 501.5 424.833 501.524C426.968 501.44 429.581 499.628 429.581 499.628C430.818 498.812 428.923 498.476 428.923 498.476C426.412 499.696 426.72 500.244 424.521 500.648C423.573 500.82 424.209 501.388 424.209 501.388Z" fill="#C5C5C5"/>
<path fill-rule="evenodd" clip-rule="evenodd" d="M430.369 486.616C430.965 486.812 431.733 486.696 432.081 486.36C432.425 486.016 432.225 485.584 431.629 485.384C431.033 485.188 430.265 485.304 429.917 485.644C429.577 485.98 429.777 486.42 430.369 486.616Z" fill="#FEFEFE"/>
<path fill-rule="evenodd" clip-rule="evenodd" d="M430.503 486.487C430.975 486.643 431.583 486.551 431.859 486.279C432.131 486.011 431.971 485.667 431.499 485.511C431.027 485.359 430.419 485.447 430.143 485.719C429.867 485.987 430.031 486.327 430.503 486.487Z" fill="#1D1D1B"/>
<path fill-rule="evenodd" clip-rule="evenodd" d="M422.543 483.178C423.776 484.37 424.005 485.014 425.012 485.514C425.949 486.01 426.936 486.234 428.959 485.65C430.638 485.166 430.631 485.422 430.903 485.718C431.148 485.974 431.128 486.298 428.355 486.726C423.657 487.45 421.125 484.086 421.125 484.086C420.481 483.038 422.543 483.178 422.543 483.178Z" fill="#FEFEFE"/>
<path fill-rule="evenodd" clip-rule="evenodd" d="M430.257 491.572C430.813 491.808 431.593 491.74 432.005 491.424C432.417 491.108 432.301 490.66 431.745 490.428C431.181 490.192 430.405 490.26 429.997 490.576C429.581 490.892 429.697 491.34 430.257 491.572Z" fill="#FEFEFE"/>
<path fill-rule="evenodd" clip-rule="evenodd" d="M430.413 491.452C430.849 491.636 431.469 491.584 431.797 491.336C432.125 491.084 432.029 490.732 431.585 490.548C431.149 490.364 430.529 490.416 430.201 490.668C429.877 490.916 429.973 491.268 430.413 491.452Z" fill="#1D1D1B"/>
<path fill-rule="evenodd" clip-rule="evenodd" d="M422.201 489.249C421.352 488.249 423.469 488.257 423.469 488.257C425.509 489.773 424.931 490.329 427.831 490.793C428.312 490.837 428.692 490.761 428.974 490.701C430.768 490.329 430.711 490.581 430.937 490.893C431.131 491.161 431.042 491.589 428.146 491.733C424.317 491.921 422.201 489.249 422.201 489.249Z" fill="#FEFEFE"/>
<path fill-rule="evenodd" clip-rule="evenodd" d="M424.013 490.942C424.013 490.942 424.005 490.99 424.005 491.058C423.977 491.026 423.981 490.986 424.013 490.942Z" fill="#FEFEFE"/>
<path fill-rule="evenodd" clip-rule="evenodd" d="M429.144 496.519C429.648 496.787 430.436 496.771 430.904 496.491C431.384 496.203 431.364 495.751 430.856 495.483C430.356 495.211 429.56 495.227 429.088 495.515C428.62 495.799 428.636 496.251 429.144 496.519Z" fill="#FEFEFE"/>
<path fill-rule="evenodd" clip-rule="evenodd" d="M429.324 496.411C429.724 496.623 430.352 496.611 430.72 496.387C431.096 496.159 431.076 495.803 430.684 495.587C430.284 495.379 429.656 495.387 429.276 495.615C428.908 495.839 428.92 496.199 429.324 496.411Z" fill="#1D1D1B"/>
<path fill-rule="evenodd" clip-rule="evenodd" d="M424.309 493.51C426.618 494.894 426.457 495.442 429.211 495.71C429.38 495.73 429.49 495.762 429.569 495.806C429.899 495.862 429.907 496.018 429.99 496.21C430.127 496.49 428.923 496.966 424.462 495.254C423.754 494.886 423.29 494.582 423.29 494.582C422.259 493.65 424.309 493.51 424.309 493.51Z" fill="#FEFEFE"/>
<path fill-rule="evenodd" clip-rule="evenodd" d="M428.001 501.426C428.413 501.738 429.197 501.806 429.749 501.57C430.301 501.334 430.417 500.89 430.001 500.574C429.589 500.262 428.809 500.194 428.249 500.43C427.697 500.666 427.585 501.11 428.001 501.426Z" fill="#FEFEFE"/>
<path fill-rule="evenodd" clip-rule="evenodd" d="M428.209 501.337C428.533 501.589 429.153 501.637 429.593 501.449C430.029 501.261 430.125 500.913 429.793 500.661C429.461 500.413 428.841 500.361 428.409 500.553C427.969 500.737 427.877 501.089 428.209 501.337Z" fill="#1D1D1B"/>
<path fill-rule="evenodd" clip-rule="evenodd" d="M423.456 499.628C423.456 499.628 423.527 499.66 423.638 499.712C428.756 502.22 429.045 501.488 428.996 501.2C428.975 501.108 428.979 501.028 428.954 500.956C429.19 500.928 426.509 500.2 424.189 498.476C424.189 498.476 422.104 498.812 423.456 499.628Z" fill="#FEFEFE"/>
<path fill-rule="evenodd" clip-rule="evenodd" d="M425.956 483C425.956 483 413.576 482.478 415.136 476.105C416.687 469.735 424.508 479.596 426 482.32L425.268 482.423C425.268 482.423 420.657 475.84 417.985 475.666C415.318 475.492 415.979 477.619 416.834 478.378C417.582 479.042 419.96 481.233 424.045 482.506C424.302 482.585 425.24 482.257 425.513 482.332C425.877 482.427 425.569 482.917 425.956 483Z" fill="#C5C5C5"/>
<path fill-rule="evenodd" clip-rule="evenodd" d="M425.605 482C425.605 482 429.386 474.539 434.386 475.022C439.385 475.506 439.601 479.149 432.477 481.572L425.361 484L425.317 482.895C425.317 482.895 430.511 481.43 432.883 480.091C435.255 478.753 437.635 477.125 435.454 476.682C433.269 476.242 431.628 476.211 428.785 479.272C427.417 480.737 426.596 482.353 426.003 482.958C425.357 483.616 425 483.192 425 483.192L425.605 482Z" fill="#C5C5C5"/>
<path fill-rule="evenodd" clip-rule="evenodd" d="M425.973 483.415C425.973 483.415 426.36 484.699 428.412 487.19C430.467 489.685 430.25 493.943 430.053 494.118C429.856 494.297 430.385 495 430.385 495C430.385 495 431.138 495.032 431.592 493.675C432.05 492.318 432.811 489.64 429.39 486.528C425.973 483.415 425.543 482.013 425.543 482.013C425.543 482.013 424.071 481.765 425.973 483.415Z" fill="#D9D9D9"/>
<path fill-rule="evenodd" clip-rule="evenodd" d="M426 482C426 482 424.638 486.525 424.336 489.115C424.026 491.7 421.909 495.241 422.139 496.671C422.37 498.101 421.142 497.998 421.142 497.998C421.142 497.998 420.362 497.324 422.458 492.558C424.566 487.788 423.988 485.933 424.516 484.393C425.078 482.772 425.036 482.184 426 482Z" fill="#D9D9D9"/>
<path fill-rule="evenodd" clip-rule="evenodd" d="M704.236 316.06L718.884 430.716L724.588 430.113L714.969 314.927L704.236 316.06Z" fill="#621100"/>
<path fill-rule="evenodd" clip-rule="evenodd" d="M652.965 430.114L658.668 430.716L673.317 316.061L662.583 314.927L652.965 430.114Z" fill="#621100"/>
<path fill-rule="evenodd" clip-rule="evenodd" d="M649 320.187H728.551V305.259H649V320.187Z" fill="#FFFFED"/>
<path d="M714.306 216.75C701.563 234.248 695.327 257.658 689.585 278.096" stroke="#296C72" stroke-width="2.084"/>
<path fill-rule="evenodd" clip-rule="evenodd" d="M769.456 257.632C769.456 257.632 765.91 237.319 739.478 217.229C713.047 197.138 712.473 218.679 712.473 218.679C712.473 218.679 701.178 224.155 726.109 256.036L729.055 241.572L734.047 259.212L748.227 264.748L748.199 254.467L755.02 264.967C755.02 264.967 768.989 260.937 769.456 257.632Z" fill="#0E4947"/>
<path d="M769.456 257.633C769.456 257.633 730.034 206.29 712.473 218.68" stroke="#296C72" stroke-width="2.084" stroke-linecap="round"/>
<path d="M694.721 187.344C683.813 216.797 686.34 238.429 683.994 277.261" stroke="#296C72" stroke-width="2.084"/>
<mask id="mask6" mask-type="alpha" maskUnits="userSpaceOnUse" x="689" y="151" width="71" height="50">
<path fill-rule="evenodd" clip-rule="evenodd" d="M689.328 151H759.227V200.202H689.328V151Z" fill="white"/>
</mask>
<g mask="url(#mask6)">
<path fill-rule="evenodd" clip-rule="evenodd" d="M758.304 153.721C758.304 153.721 738.823 144.562 707.567 159.85C676.311 175.138 694.703 189.452 694.703 189.452C694.703 189.452 693.548 204.932 734.252 198.739L723.241 186.408L741.158 192.33L753.378 180.792L744.443 174.282L757.12 173.718C757.12 173.718 760.928 156.319 758.304 153.721Z" fill="#0E4947"/>
</g>
<path d="M758.304 153.721C758.304 153.721 693.134 162.92 694.703 189.452" stroke="#296C72" stroke-width="2.084" stroke-linecap="round"/>
<path fill-rule="evenodd" clip-rule="evenodd" d="M674.016 254.659H713.118L702.359 305.283H682.344L674.016 254.659Z" fill="#E12349"/>
<path fill-rule="evenodd" clip-rule="evenodd" d="M0 239.012H42.618V212.855H0V239.012Z" fill="#CCC7B1"/>
<path d="M65.2173 112.359C57.3403 111.926 49.4313 112.032 41.5693 112.676C38.6123 112.918 35.4593 113.317 33.2183 115.208C29.4473 118.39 29.9363 124.192 31.3953 128.835C32.8533 133.477 34.9753 138.389 33.4263 143.003C32.3083 146.333 29.4673 148.81 27.6273 151.821C21.8353 161.299 27.0813 173.669 34.5003 182.006C36.0103 183.704 37.6853 185.482 37.9753 187.709C38.8573 194.466 27.4193 196.982 26.2193 203.692C25.5363 207.513 28.4763 210.928 30.9043 214.005C33.3323 217.082 35.4463 221.414 33.2233 224.635C30.9263 227.962 25.6903 227.529 21.9663 225.813" stroke="#191717" stroke-width="0.817" stroke-linecap="round"/>
<path fill-rule="evenodd" clip-rule="evenodd" d="M68.4656 76.3075C72.2696 72.5035 73.3046 65.6085 73.5426 60.9235L73.5546 71.8675H73.5556L73.5426 60.9235L73.5376 56.0195H79.0906V61.0205C79.3396 65.7035 80.3856 72.5295 84.1636 76.3075C90.2916 82.4355 110.653 110.966 79.0216 118.152H73.6066C41.9766 110.966 62.3366 82.4355 68.4656 76.3075Z" fill="#E12349"/>
<path fill-rule="evenodd" clip-rule="evenodd" d="M100.25 63.111H51.0542L68.4682 28H90.5812L100.25 63.111Z" fill="#FFFFED"/>
<mask id="mask7" mask-type="alpha" maskUnits="userSpaceOnUse" x="0" y="28" width="230" height="212">
<path fill-rule="evenodd" clip-rule="evenodd" d="M0 239.012H229.567V28H0V239.012Z" fill="white"/>
</mask>
<g mask="url(#mask7)">
<path fill-rule="evenodd" clip-rule="evenodd" d="M17.2361 231.232H24.3431V221.418H17.2361V231.232Z" fill="#191717"/>
<path fill-rule="evenodd" clip-rule="evenodd" d="M163.479 109.938L215.66 109.014L215.809 117.449L165.355 118.343L163.479 109.938Z" fill="#F2AF8A"/>
<path fill-rule="evenodd" clip-rule="evenodd" d="M169.436 99.5488L169.618 109.83L220.12 108.935L219.938 98.6548L169.436 99.5488Z" fill="#648070"/>
<path fill-rule="evenodd" clip-rule="evenodd" d="M165.599 99.6163L165.44 90.6543L208.988 89.8823L209.146 98.8453L165.599 99.6163Z" fill="#FE5539"/>
<path fill-rule="evenodd" clip-rule="evenodd" d="M156.476 82.902L156.616 90.81L219.779 89.692L219.62 80.729L156.476 82.902Z" fill="#10342D"/>
<path fill-rule="evenodd" clip-rule="evenodd" d="M165.109 71.938L165.297 82.599L216.311 80.788L216.12 69.98L165.109 71.938Z" fill="#F8DD80"/>
<path fill-rule="evenodd" clip-rule="evenodd" d="M44.959 126.94H229.567V116.958H44.959V126.94Z" fill="#621100"/>
</g>
<path fill-rule="evenodd" clip-rule="evenodd" d="M129 366.488L148.434 517L156 516.209L143.24 365L129 366.488Z" fill="#621100"/>
<path fill-rule="evenodd" clip-rule="evenodd" d="M62 516.209L69.5662 517L89 366.486L74.7595 365L62 516.209Z" fill="#621100"/>
<path fill-rule="evenodd" clip-rule="evenodd" d="M57 374H162V354H57V374Z" fill="#FFFFED"/>
<path fill-rule="evenodd" clip-rule="evenodd" d="M181.562 353.31H138.669V346.493H181.562C183.459 346.493 184.997 348.018 184.997 349.901C184.997 351.784 183.459 353.31 181.562 353.31Z" fill="#151C1E"/>
<path fill-rule="evenodd" clip-rule="evenodd" d="M146.685 353.309H65.9981C61.3507 353.309 57.2721 350.236 56.0266 345.793L40.2922 289.713C38.9005 284.756 42.6593 279.849 47.8459 279.849H121.954C125.056 279.849 127.769 281.923 128.558 284.899L146.685 353.309Z" fill="#242F34"/>
<path fill-rule="evenodd" clip-rule="evenodd" d="M97.5582 319.718C97.5582 323.9 94.1414 327.29 89.9252 327.29C85.7091 327.29 82.291 323.9 82.291 319.718C82.291 315.536 85.7091 312.145 89.9252 312.145C94.1414 312.145 97.5582 315.536 97.5582 319.718Z" fill="white"/>
</svg>
