<svg width="755" height="603" viewBox="0 0 755 603" fill="none" xmlns="http://www.w3.org/2000/svg">
<circle opacity="0.0770322" cx="346.5" cy="301.5" r="301.5" fill="#E13856"/>
<path fill-rule="evenodd" clip-rule="evenodd" d="M728.994 306.273C729.952 304.772 731.242 304.212 732.688 303.173C734.135 302.135 735.575 300.863 736.012 299.137C736.448 297.411 735.364 295.226 733.585 295.16C731.813 295.093 730.653 296.936 729.879 298.531C728.515 301.343 726.527 304.67 725.162 307.483" fill="#FF4F5B"/>
<path fill-rule="evenodd" clip-rule="evenodd" d="M734.412 304.975C739.274 303.79 744.811 303.069 749.696 304.159C752.066 304.688 754.639 306.188 754.826 308.609C754.952 310.24 753.896 311.772 752.555 312.707C749.228 315.027 744.625 314.241 740.946 312.535C737.267 310.828 733.173 307.818 729.887 306.028" fill="#FF4F5B"/>
<path fill-rule="evenodd" clip-rule="evenodd" d="M715.126 311.926C719.862 311.67 724.649 312.409 729.087 314.083C731.088 314.837 733.115 315.863 734.283 317.654C736.055 320.372 735.188 324.313 732.741 326.444C730.294 328.575 726.654 329.002 723.56 328.024C720.466 327.045 717.882 324.826 715.916 322.244C713.949 319.662 712.113 317.443 710.713 314.515" fill="#FF4F5B"/>
<path fill-rule="evenodd" clip-rule="evenodd" d="M702.198 320.553C704.037 318.107 705.331 315.252 705.958 312.256C706.142 311.371 706.27 310.45 706.086 309.565C705.902 308.679 705.356 307.825 704.519 307.481C703.53 307.072 702.35 307.466 701.559 308.19C700.769 308.913 700.293 309.91 699.871 310.895C697.547 316.311 696.612 322.399 695.366 328.159" fill="#FF4F5B"/>
<path fill-rule="evenodd" clip-rule="evenodd" d="M698.808 324.999C705.025 323.955 711.669 325.826 716.427 329.962C717.776 331.134 719.005 332.521 719.602 334.206C720.2 335.89 720.061 337.915 718.906 339.277C717.43 341.017 714.746 341.218 712.579 340.512C709.996 339.669 707.888 337.813 705.86 336.005C702.646 333.138 699.431 330.27 696.216 327.403" fill="#FF4F5B"/>
<path fill-rule="evenodd" clip-rule="evenodd" d="M698.523 299.999C697.645 292.313 693.377 285.078 687.075 280.593C685.124 279.204 682.921 278.048 680.538 277.81C678.154 277.572 675.565 278.395 674.149 280.328C672.414 282.697 672.833 286.063 674.11 288.707C676.188 293.006 680.214 296.136 684.628 297.956C689.043 299.776 693.85 300.409 698.612 300.757" fill="#FF1849"/>
<path fill-rule="evenodd" clip-rule="evenodd" d="M703.129 282.984C702.33 278.1 699.76 273.675 696.764 269.736C695.812 268.483 694.792 267.25 693.494 266.361C692.195 265.472 690.569 264.958 689.03 265.285C686.899 265.737 685.328 267.795 685.076 269.96C684.825 272.125 685.726 274.311 687.134 275.974C688.542 277.637 690.42 278.837 692.356 279.839C695.669 281.554 699.244 282.765 702.919 283.416" fill="#FF1849"/>
<path fill-rule="evenodd" clip-rule="evenodd" d="M705.469 267.89C705.406 261.579 702.851 254.424 698.056 250.322C697.21 249.597 696.017 248.91 695.05 249.462C694.522 249.764 694.239 250.359 694.031 250.931C692.67 254.663 693.205 259.033 695.426 262.327C697.648 265.619 701.498 267.753 705.469 267.89Z" fill="#FF1849"/>
<path fill-rule="evenodd" clip-rule="evenodd" d="M705.85 261.71C706.027 256.253 708.839 251.625 712.237 247.353C713.021 246.367 714.054 245.36 715.312 245.42C717.041 245.501 717.992 247.501 718.164 249.224C718.49 252.469 717.365 255.832 715.154 258.23C712.942 260.626 709.11 261.773 705.85 261.71Z" fill="#FF1849"/>
<path fill-rule="evenodd" clip-rule="evenodd" d="M704.621 246.843C707.443 242.331 707.888 234.826 705.217 230.224C704.347 228.723 703.179 227.355 701.667 226.503C700.155 225.652 698.271 225.371 696.658 226.008C693.907 227.095 692.711 230.572 693.363 233.457C694.016 236.341 696.071 238.697 698.259 240.687C700.446 242.676 702.863 244.465 704.621 246.843Z" fill="#FF1849"/>
<path fill-rule="evenodd" clip-rule="evenodd" d="M704.143 277.881C705.822 275.462 707.583 273.07 709.773 271.102C711.962 269.133 714.626 267.595 717.539 267.166C720.453 266.738 723.621 267.534 725.683 269.637C727.745 271.738 728.443 275.205 726.981 277.761C725.844 279.745 723.683 280.913 721.531 281.685C715.857 283.717 709.456 283.644 703.831 281.484" fill="#FF1849"/>
<path fill-rule="evenodd" clip-rule="evenodd" d="M699.294 297.364C701.48 294.395 704.44 291.934 707.906 290.676C711.372 289.416 715.354 289.431 718.667 291.053C720.274 291.841 721.838 293.25 721.826 295.041C721.815 296.89 720.156 298.28 718.538 299.178C712.65 302.45 705.223 302.788 699.062 300.065" fill="#FF1849"/>
<path fill-rule="evenodd" clip-rule="evenodd" d="M690.795 325.095C691.723 320.496 691.04 316.06 688.621 312.04C686.202 308.022 682.317 304.929 677.895 303.366C676.201 302.768 674.386 302.383 672.611 302.653C670.837 302.921 669.107 303.93 668.313 305.54C666.959 308.285 668.779 311.689 671.339 313.366C673.899 315.044 676.712 316.632 679.617 317.595C684.118 319.086 688.21 324.243 689.964 327.874" fill="#FF1849"/>
<path fill-rule="evenodd" clip-rule="evenodd" d="M685.665 345.637C685.853 339.625 684.228 334.408 681.074 329.285C679.44 326.632 677.3 324.148 674.441 322.904C671.584 321.66 667.907 321.936 665.759 324.194C663.007 327.085 663.787 332.047 666.334 335.12C668.881 338.195 672.691 339.866 676.316 341.537C679.941 343.208 682.785 345.129 684.974 348.467" fill="#FF1849"/>
<path fill-rule="evenodd" clip-rule="evenodd" d="M682.525 362.535C681.121 357.473 679.545 352.327 676.398 348.121C673.253 343.916 668.2 340.769 662.972 341.272C660.492 341.511 657.916 342.748 656.924 345.033C655.695 347.868 657.293 351.146 659.329 353.47C662.179 356.721 665.983 359.127 670.142 360.31C672.472 360.973 674.909 361.263 677.176 362.114C679.445 362.966 681.62 364.533 682.387 366.831" fill="#FF1849"/>
<path fill-rule="evenodd" clip-rule="evenodd" d="M682.1 369.546C683.725 364.197 688.596 360.523 693.501 357.841C697.172 355.835 701.269 354.125 705.42 354.645C709.571 355.164 713.596 358.658 713.331 362.833C713.062 367.082 708.666 369.986 704.453 370.593C700.239 371.198 695.961 370.227 691.705 370.317C687.449 370.407 683.419 371.616 681.651 375.488" fill="#FF1849"/>
<path fill-rule="evenodd" clip-rule="evenodd" d="M684.725 351.194C686.506 345.796 691.222 341.468 696.753 340.157C698.357 339.777 700.138 339.66 701.568 340.478C703.593 341.638 704.247 344.466 703.384 346.635C702.522 348.803 700.463 350.319 698.257 351.08C696.05 351.841 693.681 351.953 691.349 352.049C689.017 352.146 686.649 352.242 684.434 352.976" fill="#FF1849"/>
<path fill-rule="evenodd" clip-rule="evenodd" d="M720.447 309.065C721.654 307.767 722.636 306.525 723.059 304.803C723.188 304.277 723.268 303.687 722.995 303.219C722.637 302.609 721.783 302.446 721.113 302.672C720.442 302.898 719.918 303.418 719.433 303.932C717.373 306.121 715.296 309.642 713.768 312.232" fill="#FF4F5B"/>
<path fill-rule="evenodd" clip-rule="evenodd" d="M698.81 229.542C698.802 229.546 698.854 229.671 698.961 229.908C699.082 230.168 699.245 230.516 699.452 230.958C699.673 231.427 699.942 231.993 700.257 232.659C700.541 233.351 700.867 234.144 701.232 235.034C701.937 236.831 702.691 239.072 703.413 241.718C704.06 244.38 704.759 247.43 705.129 250.864C705.956 257.711 705.94 266.002 704.538 275.026C703.14 284.05 700.459 293.767 697.313 303.827C694.152 313.895 690.839 323.404 688.474 332.257C686.093 341.103 684.541 349.216 683.516 356.063C682.494 362.912 682.017 368.5 681.758 372.36C681.64 374.292 681.561 375.793 681.533 376.812C681.519 377.3 681.508 377.684 681.5 377.97C681.496 378.231 681.498 378.365 681.506 378.365C681.515 378.365 681.532 378.232 681.553 377.973C681.574 377.687 681.602 377.305 681.638 376.816C681.713 375.772 681.822 374.281 681.96 372.375C682.282 368.522 682.813 362.948 683.88 356.118C684.951 349.291 686.537 341.201 688.937 332.382C691.322 323.56 694.645 314.062 697.81 303.982C700.96 293.907 703.633 284.171 705.012 275.099C706.395 266.03 706.372 257.694 705.495 250.818C705.099 247.371 704.372 244.309 703.694 241.643C702.942 238.992 702.157 236.751 701.419 234.959C701.037 234.073 700.696 233.283 700.398 232.595C700.065 231.937 699.78 231.375 699.545 230.911C699.319 230.478 699.141 230.138 699.008 229.884C698.885 229.653 698.818 229.538 698.81 229.542Z" fill="#1A2E35"/>
<path fill-rule="evenodd" clip-rule="evenodd" d="M740.106 304.106C740.104 304.088 739.853 304.102 739.377 304.145C738.901 304.196 738.195 304.242 737.295 304.376C735.493 304.611 732.893 305.063 729.744 305.884C723.459 307.496 714.933 310.874 706.928 316.823C702.922 319.773 699.451 323.039 696.623 326.291C693.812 329.56 691.626 332.788 690.026 335.622C688.418 338.454 687.318 340.851 686.623 342.53C686.26 343.364 686.028 344.032 685.855 344.477C685.688 344.925 685.609 345.164 685.626 345.17C685.642 345.177 685.753 344.952 685.952 344.517C686.156 344.085 686.418 343.43 686.808 342.612C687.558 340.961 688.706 338.599 690.344 335.807C691.975 333.012 694.177 329.832 696.984 326.606C699.809 323.398 703.261 320.17 707.238 317.242C715.179 311.339 723.612 307.933 729.839 306.24C732.96 305.377 735.538 304.872 737.326 304.577C738.217 304.413 738.918 304.334 739.388 304.25C739.86 304.172 740.108 304.124 740.106 304.106Z" fill="#1A2E35"/>
<path fill-rule="evenodd" clip-rule="evenodd" d="M682.895 286.274C682.855 286.346 683.9 286.97 685.512 288.081C687.125 289.19 689.284 290.826 691.459 292.868C693.631 294.916 695.395 296.97 696.6 298.513C697.808 300.055 698.494 301.06 698.564 301.015C698.594 300.996 698.455 300.724 698.176 300.247C697.902 299.768 697.466 299.098 696.895 298.293C695.756 296.68 694.014 294.561 691.816 292.489C689.615 290.421 687.393 288.812 685.714 287.773C684.875 287.253 684.18 286.858 683.685 286.613C683.193 286.365 682.913 286.242 682.895 286.274Z" fill="#1A2E35"/>
<path fill-rule="evenodd" clip-rule="evenodd" d="M676.313 308.386C676.279 308.474 677.624 308.924 679.563 310.08C681.498 311.222 683.997 313.18 685.99 315.982C687.986 318.783 689.017 321.787 689.462 323.989C689.919 326.2 689.905 327.617 689.999 327.615C690.031 327.615 690.068 327.262 690.068 326.621C690.069 325.982 690.01 325.053 689.824 323.92C689.464 321.663 688.464 318.557 686.415 315.68C684.368 312.802 681.761 310.839 679.747 309.761C678.737 309.214 677.878 308.855 677.274 308.646C676.668 308.436 676.324 308.355 676.313 308.386Z" fill="#1A2E35"/>
<path fill-rule="evenodd" clip-rule="evenodd" d="M673.726 329.196C673.676 329.277 674.769 329.941 676.323 331.269C677.877 332.592 679.837 334.657 681.464 337.314C683.081 339.979 684.02 342.668 684.483 344.655C684.952 346.645 685.041 347.921 685.136 347.913C685.172 347.911 685.175 347.592 685.15 347.012C685.134 346.432 685.035 345.597 684.843 344.578C684.466 342.54 683.562 339.766 681.909 337.044C680.247 334.328 678.196 332.254 676.557 330.985C675.739 330.347 675.041 329.876 674.534 329.596C674.03 329.309 673.745 329.166 673.726 329.196Z" fill="#1A2E35"/>
<path fill-rule="evenodd" clip-rule="evenodd" d="M667.136 349.292C667.101 349.377 668.284 349.864 670.058 350.896C671.831 351.921 674.159 353.565 676.34 355.805C678.514 358.053 680.089 360.429 681.061 362.231C682.038 364.035 682.49 365.232 682.576 365.2C682.611 365.188 682.525 364.879 682.34 364.329C682.163 363.775 681.841 362.997 681.388 362.063C680.488 360.191 678.93 357.732 676.714 355.442C674.491 353.16 672.08 351.529 670.237 350.573C669.316 350.093 668.547 349.748 667.999 349.555C667.455 349.354 667.149 349.259 667.136 349.292Z" fill="#1A2E35"/>
<path fill-rule="evenodd" clip-rule="evenodd" d="M698.456 344.176C698.459 344.123 697.494 344.003 695.944 344.2C694.399 344.391 692.282 344.989 690.219 346.204C688.159 347.427 686.614 348.995 685.703 350.256C684.783 351.52 684.424 352.423 684.472 352.445C684.551 352.489 685.022 351.657 685.993 350.484C686.957 349.309 688.489 347.838 690.483 346.653C692.482 345.476 694.51 344.843 696.004 344.564C697.5 344.279 698.456 344.267 698.456 344.176Z" fill="#1A2E35"/>
<path fill-rule="evenodd" clip-rule="evenodd" d="M700.86 362.641C700.879 362.62 700.652 362.374 700.112 362.122C699.578 361.873 698.712 361.667 697.651 361.778C696.589 361.877 695.394 362.325 694.164 362.917C692.931 363.505 691.583 364.164 690.204 364.939C687.437 366.468 685.127 368.228 683.71 369.754C682.986 370.502 682.482 371.18 682.152 371.656C681.837 372.145 681.678 372.422 681.709 372.443C681.789 372.5 682.486 371.422 683.97 370.014C685.428 368.582 687.72 366.908 690.459 365.394C691.822 364.627 693.158 363.958 694.373 363.349C695.581 362.739 696.703 362.282 697.697 362.143C699.726 361.837 700.843 362.73 700.86 362.641Z" fill="#1A2E35"/>
<path fill-rule="evenodd" clip-rule="evenodd" d="M697.597 326.606C697.56 326.779 701.494 327.065 705.714 329.249C709.962 331.383 712.503 334.4 712.621 334.268C712.666 334.23 712.1 333.433 710.967 332.336C709.838 331.24 708.101 329.885 705.951 328.785C703.799 327.691 701.683 327.08 700.132 326.811C698.579 326.538 697.601 326.547 697.597 326.606Z" fill="#1A2E35"/>
<path fill-rule="evenodd" clip-rule="evenodd" d="M697.767 326.156C697.825 326.189 698.271 325.551 698.867 324.443C699.462 323.338 700.187 321.752 700.798 319.931C701.407 318.109 701.784 316.407 701.974 315.165C702.165 313.923 702.194 313.144 702.127 313.135C701.97 313.113 701.519 316.174 700.304 319.766C699.111 323.364 697.626 326.08 697.767 326.156Z" fill="#1A2E35"/>
<path fill-rule="evenodd" clip-rule="evenodd" d="M699.293 299.173C699.373 299.321 702.31 297.507 706.372 296.448C710.427 295.355 713.876 295.476 713.872 295.307C713.875 295.244 713.019 295.132 711.624 295.162C710.231 295.191 708.302 295.401 706.238 295.945C704.178 296.494 702.397 297.268 701.174 297.934C699.948 298.598 699.259 299.12 699.293 299.173Z" fill="#1A2E35"/>
<path fill-rule="evenodd" clip-rule="evenodd" d="M689.316 270.18C689.274 270.246 690.141 270.847 691.505 271.861C692.87 272.872 694.715 274.321 696.634 276.058C698.55 277.799 700.171 279.496 701.31 280.756C702.451 282.016 703.133 282.821 703.195 282.772C703.247 282.733 702.667 281.846 701.589 280.516C700.514 279.187 698.92 277.431 696.984 275.672C695.046 273.917 693.145 272.5 691.717 271.559C690.289 270.617 689.35 270.124 689.316 270.18Z" fill="#1A2E35"/>
<path fill-rule="evenodd" clip-rule="evenodd" d="M703.344 280.987C703.391 281.054 704.259 280.499 705.71 279.701C707.16 278.901 709.217 277.893 711.591 277.041C713.969 276.194 716.198 275.671 717.826 275.37C719.455 275.067 720.479 274.946 720.472 274.865C720.468 274.803 719.431 274.794 717.769 275.006C716.109 275.216 713.829 275.691 711.416 276.55C709.005 277.415 706.942 278.493 705.525 279.383C704.105 280.272 703.309 280.937 703.344 280.987Z" fill="#1A2E35"/>
<path fill-rule="evenodd" clip-rule="evenodd" d="M697.373 256.057C697.262 256.169 699.464 258.407 701.743 261.514C704.038 264.612 705.523 267.376 705.663 267.303C705.724 267.273 705.428 266.539 704.83 265.412C704.233 264.286 703.317 262.775 702.162 261.205C701.005 259.638 699.832 258.316 698.933 257.412C698.033 256.508 697.42 256.009 697.373 256.057Z" fill="#1A2E35"/>
<path fill-rule="evenodd" clip-rule="evenodd" d="M706.023 261.132C706.1 261.169 706.484 260.427 707.242 259.329C707.995 258.227 709.174 256.806 710.652 255.398C712.129 253.989 713.575 252.821 714.611 251.962C715.65 251.106 716.282 250.558 716.238 250.499C716.196 250.444 715.487 250.886 714.386 251.67C713.29 252.458 711.794 253.589 710.292 255.022C708.79 256.453 707.621 257.952 706.932 259.13C706.237 260.305 705.969 261.11 706.023 261.132Z" fill="#1A2E35"/>
<path fill-rule="evenodd" clip-rule="evenodd" d="M712.681 313.189C712.643 313.353 715.837 313.893 719.307 315.739C722.795 317.551 725.051 319.876 725.163 319.751C725.209 319.708 724.706 319.072 723.74 318.19C722.776 317.308 721.321 316.211 719.549 315.278C717.776 314.348 716.047 313.771 714.775 313.477C713.5 313.18 712.691 313.127 712.681 313.189Z" fill="#1A2E35"/>
<path fill-rule="evenodd" clip-rule="evenodd" d="M734.177 305.411C734.166 305.572 737.335 305.756 741.083 306.77C744.84 307.762 747.677 309.183 747.748 309.038C747.779 308.979 747.107 308.548 745.945 307.992C744.783 307.435 743.12 306.777 741.218 306.267C739.315 305.761 737.546 305.501 736.262 305.404C734.978 305.307 734.18 305.345 734.177 305.411Z" fill="#1A2E35"/>
<path fill-rule="evenodd" clip-rule="evenodd" d="M727.732 306.874C727.858 306.943 728.855 305.376 729.958 303.374C731.061 301.371 731.853 299.691 731.727 299.622C731.601 299.553 730.604 301.12 729.502 303.123C728.398 305.125 727.606 306.805 727.732 306.874Z" fill="#1A2E35"/>
<path fill-rule="evenodd" clip-rule="evenodd" d="M681.523 419.854C693.843 419.854 703.831 409.867 703.831 397.546V378.365H659.214V397.546C659.214 409.867 669.203 419.854 681.523 419.854Z" fill="#375A64"/>
<path fill-rule="evenodd" clip-rule="evenodd" d="M659.256 391.854C659.269 391.889 659.883 391.694 660.989 391.332C662.096 390.977 663.691 390.43 665.702 389.935C667.705 389.446 670.162 388.99 672.872 389.216C674.226 389.324 675.613 389.65 677.004 390.164C678.397 390.673 679.797 391.332 681.277 391.933C682.754 392.539 684.269 393.031 685.796 393.2C687.324 393.363 688.806 393.199 690.164 392.906C692.887 392.299 695.183 391.333 697.161 390.717C699.134 390.081 700.781 389.762 701.935 389.683C702.511 389.625 702.959 389.635 703.265 389.639C703.57 389.637 703.733 389.628 703.735 389.611C703.736 389.592 703.577 389.567 703.271 389.535C702.965 389.497 702.511 389.454 701.924 389.481C700.75 389.499 699.058 389.767 697.053 390.365C695.046 390.942 692.731 391.871 690.067 392.435C688.736 392.709 687.31 392.855 685.853 392.693C684.397 392.525 682.932 392.049 681.473 391.451C680.012 390.857 678.602 390.198 677.178 389.684C675.757 389.166 674.306 388.834 672.911 388.739C670.114 388.533 667.622 389.04 665.61 389.579C663.59 390.125 662.01 390.727 660.921 391.141C660.377 391.352 659.958 391.521 659.677 391.643C659.395 391.765 659.249 391.836 659.256 391.854Z" fill="#1A2E35"/>
<path fill-rule="evenodd" clip-rule="evenodd" d="M659.256 389.169C659.269 389.205 659.883 389.009 660.989 388.648C662.096 388.293 663.691 387.746 665.702 387.251C667.705 386.762 670.162 386.306 672.872 386.532C674.226 386.639 675.613 386.965 677.004 387.48C678.397 387.988 679.797 388.648 681.277 389.249C682.754 389.855 684.269 390.347 685.796 390.515C687.324 390.679 688.806 390.514 690.164 390.221C692.887 389.614 695.183 388.648 697.161 388.032C699.134 387.396 700.781 387.078 701.935 386.999C702.511 386.941 702.959 386.951 703.265 386.954C703.57 386.953 703.733 386.943 703.735 386.926C703.736 386.908 703.577 386.882 703.271 386.85C702.965 386.813 702.511 386.77 701.924 386.797C700.75 386.814 699.058 387.083 697.053 387.681C695.046 388.258 692.731 389.186 690.067 389.751C688.736 390.025 687.31 390.17 685.853 390.008C684.397 389.841 682.932 389.364 681.473 388.767C680.012 388.173 678.602 387.514 677.178 386.999C675.757 386.481 674.306 386.149 672.911 386.054C670.114 385.848 667.622 386.356 665.61 386.895C663.59 387.44 662.01 388.042 660.921 388.456C660.377 388.667 659.958 388.837 659.677 388.959C659.395 389.08 659.249 389.152 659.256 389.169Z" fill="#1A2E35"/>
<path fill-rule="evenodd" clip-rule="evenodd" d="M43.8687 322.045L41.3037 322.034L42.1537 117.441L44.7197 117.452L43.8687 322.045Z" fill="#F4F4F4"/>
<mask id="mask0" mask-type="alpha" maskUnits="userSpaceOnUse" x="0" y="101" width="87" height="30">
<path fill-rule="evenodd" clip-rule="evenodd" d="M0 101H86.8849V130.846H0V101Z" fill="white"/>
</mask>
<g mask="url(#mask0)">
<path fill-rule="evenodd" clip-rule="evenodd" d="M86.885 101.36L0.122 101L0 130.485L86.763 130.846L86.885 101.36Z" fill="#D4D4D4"/>
</g>
<path fill-rule="evenodd" clip-rule="evenodd" d="M54.2214 132.293C54.2234 131.606 53.6694 131.048 52.9834 131.045C52.2954 131.042 51.7374 131.597 51.7344 132.283C51.7314 132.97 52.2854 133.529 52.9724 133.531C53.6594 133.534 54.2184 132.98 54.2214 132.293Z" fill="#D4D4D4"/>
<path fill-rule="evenodd" clip-rule="evenodd" d="M54.2097 135.029C54.2127 134.342 53.6577 133.783 52.9717 133.78C52.2847 133.777 51.7257 134.332 51.7227 135.018C51.7197 135.705 52.2737 136.264 52.9607 136.267C53.6477 136.27 54.2067 135.716 54.2097 135.029Z" fill="#D4D4D4"/>
<path fill-rule="evenodd" clip-rule="evenodd" d="M54.1979 137.765C54.2009 137.078 53.6469 136.519 52.9599 136.516C52.2729 136.514 51.7149 137.068 51.7119 137.754C51.7089 138.442 52.2629 139 52.9499 139.003C53.6359 139.006 54.1949 138.452 54.1979 137.765Z" fill="#D4D4D4"/>
<path fill-rule="evenodd" clip-rule="evenodd" d="M54.1872 140.5C54.1902 139.813 53.6352 139.255 52.9492 139.252C52.2612 139.249 51.7032 139.804 51.7002 140.49C51.6972 141.177 52.2512 141.736 52.9382 141.738C53.6252 141.741 54.1842 141.187 54.1872 140.5Z" fill="#D4D4D4"/>
<path fill-rule="evenodd" clip-rule="evenodd" d="M54.1755 143.236C54.1785 142.549 53.6235 141.99 52.9375 141.987C52.2505 141.984 51.6915 142.539 51.6895 143.225C51.6865 143.912 52.2395 144.471 52.9265 144.474C53.6135 144.477 54.1725 143.923 54.1755 143.236Z" fill="#D4D4D4"/>
<path fill-rule="evenodd" clip-rule="evenodd" d="M54.1637 145.972C54.1667 145.285 53.6127 144.726 52.9257 144.724C52.2387 144.721 51.6807 145.275 51.6777 145.961C51.6747 146.649 52.2287 147.207 52.9157 147.21C53.6017 147.213 54.1617 146.659 54.1637 145.972Z" fill="#D4D4D4"/>
<path fill-rule="evenodd" clip-rule="evenodd" d="M54.153 148.707C54.156 148.02 53.601 147.462 52.915 147.459C52.228 147.456 51.669 148.011 51.666 148.697C51.663 149.384 52.217 149.943 52.904 149.946C53.591 149.949 54.15 149.394 54.153 148.707Z" fill="#D4D4D4"/>
<path fill-rule="evenodd" clip-rule="evenodd" d="M54.1413 151.443C54.1443 150.756 53.5893 150.197 52.9033 150.194C52.2163 150.191 51.6573 150.746 51.6543 151.432C51.6513 152.119 52.2053 152.678 52.8933 152.681C53.5793 152.684 54.1383 152.13 54.1413 151.443Z" fill="#D4D4D4"/>
<mask id="mask1" mask-type="alpha" maskUnits="userSpaceOnUse" x="17" y="311" width="96" height="110">
<path fill-rule="evenodd" clip-rule="evenodd" d="M17.1143 311.505H112.363V420.122H17.1143V311.505Z" fill="white"/>
</mask>
<g mask="url(#mask1)">
<path fill-rule="evenodd" clip-rule="evenodd" d="M112.363 311.9L17.5643 311.505L17.1143 419.728L111.913 420.122L112.363 311.9Z" fill="#D4D4D4"/>
</g>
<path fill-rule="evenodd" clip-rule="evenodd" d="M121.989 303.95L6.87613 303.471L6.82812 315.055L121.94 315.534L121.989 303.95Z" fill="#DCDCDC"/>
<path fill-rule="evenodd" clip-rule="evenodd" d="M104.257 361.45L23.2832 361.113L23.4342 325L104.407 325.336L104.257 361.45Z" fill="white"/>
<path fill-rule="evenodd" clip-rule="evenodd" d="M104.08 403.95L23.1064 403.613L23.2574 367.5L104.23 367.836L104.08 403.95Z" fill="white"/>
<path fill-rule="evenodd" clip-rule="evenodd" d="M72.4967 332.258L54.7227 332.184L54.7367 328.516L72.5127 328.59L72.4967 332.258Z" fill="#DCDCDC"/>
<path fill-rule="evenodd" clip-rule="evenodd" d="M72.3189 374.86L54.5439 374.786L54.5589 371.118L72.3339 371.192L72.3189 374.86Z" fill="#DCDCDC"/>
<path fill-rule="evenodd" clip-rule="evenodd" d="M53.2052 278.716L5.29021 278.517L5.28421 279.897L29.8672 279.999C32.3442 280.009 34.3442 282.026 34.3342 284.503C34.3232 286.98 32.3072 288.98 29.8302 288.969L5.24721 288.867L5.24121 290.161L53.1562 290.361C56.3722 290.373 58.9892 287.778 59.0032 284.562C59.0162 281.347 56.4202 278.729 53.2052 278.716Z" fill="#4851EB"/>
<path fill-rule="evenodd" clip-rule="evenodd" d="M36.5192 284.469C36.5332 281.253 33.9372 278.636 30.7212 278.622L5.29019 278.517L5.28519 279.897L29.8682 279.999C32.3442 280.009 34.3442 282.026 34.3342 284.503C34.3242 286.98 32.3072 288.98 29.8312 288.97L5.24819 288.867L5.24219 290.161L30.6732 290.267C33.8882 290.281 36.5062 287.684 36.5192 284.469Z" fill="#3947D2"/>
<path fill-rule="evenodd" clip-rule="evenodd" d="M29.8671 280.002L5.28407 279.9V279.931C7.51607 280.197 9.24307 282.1 9.23307 284.402C9.22307 286.704 7.48107 288.593 5.24707 288.84V288.87L29.8301 288.973C32.3061 288.983 34.3231 286.983 34.3341 284.507C34.3441 282.029 32.3441 280.013 29.8671 280.002Z" fill="white"/>
<path fill-rule="evenodd" clip-rule="evenodd" d="M34.3342 284.459C34.3442 281.982 32.3452 279.966 29.8672 279.955L5.28418 279.854V279.884C6.43818 280.022 7.45718 280.597 8.17118 281.439C13.0892 281.07 27.7552 280.677 29.2662 288.924L29.8302 288.926C32.3072 288.937 34.3232 286.937 34.3342 284.459Z" fill="#ABC6F8"/>
<path fill-rule="evenodd" clip-rule="evenodd" d="M13.005 290.193L63.212 290.401L63.206 291.986L37.446 291.879C34.851 291.868 32.737 294.164 32.726 297.007C32.714 299.851 34.808 302.165 37.403 302.175L63.163 302.283L63.157 303.768L12.949 303.559C9.57905 303.546 6.86005 300.542 6.87605 296.85C6.89205 293.16 9.63505 290.178 13.005 290.193Z" fill="#FF1849"/>
<path fill-rule="evenodd" clip-rule="evenodd" d="M30.4356 296.948C30.4516 293.258 33.1946 290.277 36.5646 290.291L63.2116 290.401L63.2066 291.986L37.4466 291.879C34.8506 291.868 32.7376 294.164 32.7256 297.008C32.7136 299.851 34.8076 302.165 37.4036 302.176L63.1636 302.283L63.1576 303.768L36.5086 303.657C33.1396 303.643 30.4196 300.639 30.4356 296.948Z" fill="#E85F57"/>
<path fill-rule="evenodd" clip-rule="evenodd" d="M37.4466 291.885L63.2066 291.991L63.2056 292.027C60.8646 292.312 59.0386 294.481 59.0266 297.123C59.0156 299.765 60.8246 301.949 63.1636 302.253V302.288L37.4036 302.182C34.8076 302.171 32.7146 299.857 32.7256 297.014C32.7376 294.17 34.8506 291.874 37.4466 291.885Z" fill="white"/>
<path fill-rule="evenodd" clip-rule="evenodd" d="M32.7256 296.959C32.7376 294.115 34.8516 291.818 37.4466 291.829L63.2056 291.937V291.972C61.9956 292.119 60.9226 292.771 60.1676 293.73C55.0176 293.262 39.6536 292.677 37.9956 302.129L37.4046 302.127C34.8086 302.116 32.7136 299.802 32.7256 296.959Z" fill="#ABC6F8"/>
<mask id="mask2" mask-type="alpha" maskUnits="userSpaceOnUse" x="0" y="101" width="755" height="320">
<path fill-rule="evenodd" clip-rule="evenodd" d="M0 420.122H754.837V101H0V420.122Z" fill="white"/>
</mask>
<g mask="url(#mask2)">
<path fill-rule="evenodd" clip-rule="evenodd" d="M198.509 378.662H640.657V311.768H198.509V378.662Z" fill="#DCDCDC"/>
<path fill-rule="evenodd" clip-rule="evenodd" d="M262.66 378.767L251.493 419.257L242.382 419.216L245.956 378.693L262.66 378.767Z" fill="#D4D4D4"/>
<path fill-rule="evenodd" clip-rule="evenodd" d="M167.366 378.767L156.199 419.257L147.088 419.216L150.662 378.693L167.366 378.767Z" fill="#D4D4D4"/>
<path fill-rule="evenodd" clip-rule="evenodd" d="M521.813 378.767L532.981 419.257L542.092 419.216L538.517 378.693L521.813 378.767Z" fill="#D4D4D4"/>
<path fill-rule="evenodd" clip-rule="evenodd" d="M613.809 378.767L624.977 419.257L634.088 419.216L630.513 378.693L613.809 378.767Z" fill="#D4D4D4"/>
<path fill-rule="evenodd" clip-rule="evenodd" d="M138.036 378.662H580.185V311.768H138.036V378.662Z" fill="#DCDCDC"/>
<path fill-rule="evenodd" clip-rule="evenodd" d="M293.238 265.777C278.073 251.231 261.901 248.531 252.246 248.465H179.433C175.156 248.465 171.688 253.677 171.688 260.109V301.791C171.688 307.301 174.66 311.768 178.325 311.768H243.476H274.204H346.672C347.08 272.522 316.896 288.465 293.238 265.777Z" fill="white"/>
<path fill-rule="evenodd" clip-rule="evenodd" d="M165.162 294.085V266.95C165.162 256.426 171.04 248.079 178.03 248.646C187.792 249.437 201.738 253.13 214.925 265.776C238.582 288.465 268.766 272.522 268.357 311.768H176.924C170.428 311.768 165.162 303.851 165.162 294.085Z" fill="#D4D4D4"/>
<path fill-rule="evenodd" clip-rule="evenodd" d="M401.671 311.769L453.674 345.216L492.217 311.769H636.173C636.173 311.769 591.329 294.542 570.528 290.121C549.727 285.698 488.547 301.117 468.969 294.325C449.392 287.534 372.552 275.178 343.674 289.309C314.796 303.441 304.395 309.558 304.395 309.558L401.671 311.769Z" fill="white"/>
<path fill-rule="evenodd" clip-rule="evenodd" d="M112.405 284.7C112.445 275.095 104.69 267.275 95.0852 267.236C85.4792 267.195 77.6612 274.95 77.6212 284.555C77.5812 294.161 85.3352 301.98 94.9402 302.02C104.546 302.06 112.365 294.305 112.405 284.7Z" fill="#FF1849"/>
<path fill-rule="evenodd" clip-rule="evenodd" d="M108.511 284.555C108.543 276.914 102.375 270.695 94.7339 270.662C87.0929 270.631 80.8719 276.799 80.8409 284.441C80.8089 292.081 86.9779 298.301 94.6179 298.333C102.26 298.365 108.48 292.197 108.511 284.555Z" fill="white"/>
<path fill-rule="evenodd" clip-rule="evenodd" d="M96.2093 284.367C96.2133 283.512 95.5223 282.815 94.6663 282.812C93.8113 282.808 93.1143 283.499 93.1113 284.354C93.1073 285.21 93.7983 285.906 94.6533 285.91C95.5093 285.913 96.2053 285.222 96.2093 284.367Z" fill="#FF1849"/>
<path fill-rule="evenodd" clip-rule="evenodd" d="M94.6594 284.668L94.3484 284.666C94.1794 284.665 94.0424 284.527 94.0434 284.357C94.0444 284.188 94.1814 284.051 94.3514 284.052H94.3544L94.4084 274.506L94.0224 275.061C93.9244 275.2 93.7324 275.233 93.5944 275.138C93.4554 275.041 93.4214 274.85 93.5174 274.71L94.4704 273.343C94.5474 273.231 94.6864 273.184 94.8144 273.225C94.9434 273.266 95.0294 273.385 95.0294 273.52L94.9684 284.362C94.9674 284.531 94.8284 284.668 94.6594 284.668Z" fill="#FF1849"/>
<path fill-rule="evenodd" clip-rule="evenodd" d="M95.7604 275.112C95.6714 275.112 95.5824 275.073 95.5224 274.999L94.4824 273.711C94.3754 273.579 94.3964 273.384 94.5294 273.278C94.6594 273.172 94.8544 273.192 94.9604 273.324L96.0004 274.612C96.1074 274.744 96.0864 274.937 95.9534 275.045C95.8974 275.091 95.8284 275.113 95.7604 275.112Z" fill="#FF1849"/>
<path fill-rule="evenodd" clip-rule="evenodd" d="M89.084 285.639C89.004 285.639 88.924 285.608 88.864 285.544L87.954 284.595C87.869 284.506 87.845 284.374 87.895 284.261C87.942 284.148 88.055 284.075 88.178 284.076H88.179L95.392 284.121C95.561 284.122 95.697 284.261 95.697 284.43L95.696 284.741C95.695 284.91 95.557 285.046 95.388 285.046C95.217 285.045 95.08 284.908 95.081 284.738V284.735L88.901 284.695L89.308 285.119C89.425 285.243 89.421 285.437 89.299 285.554C89.238 285.612 89.161 285.64 89.084 285.639Z" fill="#FF1849"/>
<path fill-rule="evenodd" clip-rule="evenodd" d="M88.1751 284.691C88.1071 284.691 88.0381 284.668 87.9821 284.621C87.8501 284.512 87.8311 284.319 87.9391 284.188L88.7971 283.146C88.9061 283.015 89.1001 282.997 89.2301 283.104C89.3621 283.212 89.3791 283.406 89.2721 283.537L88.4141 284.579C88.3531 284.653 88.2641 284.691 88.1751 284.691Z" fill="#FF1849"/>
<path fill-rule="evenodd" clip-rule="evenodd" d="M78.9776 265.839C75.8496 268.478 75.4536 273.152 78.0916 276.279L89.4176 266.725C86.7796 263.597 82.1056 263.2 78.9776 265.839Z" fill="#FF1849"/>
<path fill-rule="evenodd" clip-rule="evenodd" d="M111.493 266.227C108.523 263.413 103.834 263.538 101.018 266.507L111.772 276.703C114.588 273.732 114.463 269.042 111.493 266.227Z" fill="#FF1849"/>
<path fill-rule="evenodd" clip-rule="evenodd" d="M82.8823 295.518L77.4453 303.769H78.9973L84.8333 297.751L82.8823 295.518Z" fill="#F97267"/>
<path fill-rule="evenodd" clip-rule="evenodd" d="M107.112 295.518L112.55 303.769H110.997L105.162 297.751L107.112 295.518Z" fill="#F97267"/>
<path fill-rule="evenodd" clip-rule="evenodd" d="M501.16 378.662H646.619V346.693H501.16V378.662Z" fill="#F4F4F4"/>
<path fill-rule="evenodd" clip-rule="evenodd" d="M138.035 378.662H579.967V346.693H138.035V378.662Z" fill="#F4F4F4"/>
<path fill-rule="evenodd" clip-rule="evenodd" d="M313.613 222.457L359.892 239.96L335.003 243.935L317.863 232.385L313.613 222.457Z" fill="#FFBF9D"/>
<path fill-rule="evenodd" clip-rule="evenodd" d="M396.497 312.31C398.295 312.998 425.676 273.524 422.27 262.501C422.105 261.965 363.277 250.585 353.519 247.825C331.981 241.724 307.665 219.955 295.501 217.905C270.302 213.66 228.535 238.781 235.183 260.454C245.2 293.118 264.156 312.32 295.948 312.024C297.081 312.013 394.516 311.593 396.497 312.31Z" fill="#00A3FF"/>
<path fill-rule="evenodd" clip-rule="evenodd" d="M289.169 217.435C289.169 217.435 301.964 215.39 324.117 223.602C324.117 223.602 322.59 229.991 315.715 233.767C308.839 237.543 289.169 217.435 289.169 217.435Z" fill="#00A3FF"/>
<path fill-rule="evenodd" clip-rule="evenodd" d="M591.257 347.179C593.393 304.828 560.97 268.767 518.643 266.214C486.75 264.291 451.83 260.604 428.66 253.57C375.872 237.543 332.96 238.589 332.96 238.589C332.96 238.589 298.254 274.621 289.925 307.55C289.411 309.578 289.169 311.663 289.169 313.756V352.129C289.169 352.129 353.186 336.417 429.793 352.129C488.695 364.209 591.007 352.129 591.007 352.129L591.257 347.179Z" fill="#0087C4"/>
<path fill-rule="evenodd" clip-rule="evenodd" d="M250.078 277.923C250.078 277.923 323.568 309.682 336.753 301.789C354.544 291.138 317.083 235.059 317.083 235.059L304.877 234.24L319.711 279.955C319.711 279.955 281.456 260.494 263.547 249.218C253.902 243.145 244.783 275.731 250.078 277.923Z" fill="#FFBF9D"/>
<path fill-rule="evenodd" clip-rule="evenodd" d="M292.194 265.601C288.757 277.819 289.938 283.582 274.797 292.243C272.321 293.659 267.873 295.876 267.873 295.876C260.706 289.032 238.863 277.074 235.183 260.454C234.838 258.893 236.607 255.801 237.754 254.677C242.096 250.424 253.579 241.974 263.043 244.347C271.46 246.456 284.706 254.22 291.765 258.602C294.11 260.057 293.002 262.73 292.194 265.601Z" fill="#00A3FF"/>
<path fill-rule="evenodd" clip-rule="evenodd" d="M257.418 176.696C250.827 168.252 238.856 166.29 229.909 172.18L229.021 172.765C219.802 179.638 220.488 191.306 227.613 200.332L252.475 234.24C255.354 238.211 260.645 239.582 265.09 237.509L273.51 233.583C277.797 231.585 279.247 226.213 276.559 222.322C275.716 221.103 271.91 216.182 270.78 214.592C270.78 214.592 279.054 207.09 273.101 197.8C270.225 193.312 263.55 184.552 257.418 176.696Z" fill="#FFBF9D"/>
<path fill-rule="evenodd" clip-rule="evenodd" d="M270.847 214.528C270.847 214.528 265.196 218.757 256.447 218.944C256.447 218.944 263.653 223.706 272.301 216.822L270.847 214.528Z" fill="#FF9A6C"/>
<path fill-rule="evenodd" clip-rule="evenodd" d="M257.937 184.573C258.419 185.252 258.243 186.219 257.542 186.736C256.844 187.252 255.887 187.122 255.405 186.443C254.923 185.764 255.099 184.796 255.797 184.28C256.498 183.763 257.456 183.894 257.937 184.573Z" fill="#1A2E35"/>
<path fill-rule="evenodd" clip-rule="evenodd" d="M258.409 182.514C258.358 182.793 256.876 182.711 255.462 183.648C254.037 184.563 253.477 185.975 253.21 185.903C253.084 185.875 253.046 185.456 253.281 184.829C253.511 184.208 254.06 183.389 254.945 182.812C255.83 182.236 256.786 182.072 257.431 182.123C258.087 182.17 258.438 182.384 258.409 182.514Z" fill="#1A2E35"/>
<path fill-rule="evenodd" clip-rule="evenodd" d="M244.319 194.198C244.801 194.877 244.624 195.844 243.924 196.361C243.226 196.877 242.269 196.746 241.787 196.067C241.304 195.388 241.481 194.42 242.179 193.904C242.88 193.387 243.838 193.519 244.319 194.198Z" fill="#1A2E35"/>
<path fill-rule="evenodd" clip-rule="evenodd" d="M244.662 191.942C244.611 192.221 243.128 192.141 241.715 193.077C240.29 193.991 239.73 195.404 239.462 195.332C239.337 195.304 239.297 194.886 239.534 194.257C239.764 193.636 240.313 192.817 241.198 192.24C242.083 191.665 243.039 191.501 243.684 191.551C244.339 191.6 244.691 191.813 244.662 191.942Z" fill="#1A2E35"/>
<path fill-rule="evenodd" clip-rule="evenodd" d="M256.716 199.06C256.656 198.984 257.437 198.252 258.743 197.131C259.08 196.856 259.375 196.558 259.274 196.271C259.187 195.955 258.779 195.664 258.326 195.359C257.41 194.707 256.45 194.024 255.445 193.309C251.378 190.367 248.181 187.851 248.3 187.688C248.42 187.525 251.814 189.778 255.88 192.721C256.873 193.453 257.822 194.149 258.728 194.817C259.135 195.137 259.678 195.449 259.85 196.112C259.931 196.447 259.794 196.818 259.604 197.033C259.418 197.255 259.217 197.394 259.045 197.522C257.66 198.544 256.775 199.137 256.716 199.06Z" fill="#1A2E35"/>
<path fill-rule="evenodd" clip-rule="evenodd" d="M241.374 186.153C241.487 186.63 239.954 187.379 238.424 188.673C236.868 189.936 235.849 191.304 235.401 191.104C235.194 191.004 235.189 190.488 235.485 189.758C235.777 189.033 236.401 188.115 237.325 187.346C238.251 186.582 239.269 186.138 240.036 185.986C240.808 185.83 241.313 185.93 241.374 186.153Z" fill="#1A2E35"/>
<path fill-rule="evenodd" clip-rule="evenodd" d="M255.19 178.758C255.152 179.243 253.957 179.552 252.773 180.309C251.564 181.024 250.75 181.951 250.299 181.765C250.091 181.668 250.036 181.243 250.269 180.653C250.497 180.068 251.049 179.349 251.872 178.842C252.694 178.337 253.585 178.169 254.21 178.23C254.842 178.287 255.196 178.529 255.19 178.758Z" fill="#1A2E35"/>
<path fill-rule="evenodd" clip-rule="evenodd" d="M233.496 206.237C233.295 206.272 225.932 208.533 230.281 214.7C234.63 220.868 239.925 215.229 239.81 215.045C239.697 214.86 233.496 206.237 233.496 206.237Z" fill="#FFBF9D"/>
<path fill-rule="evenodd" clip-rule="evenodd" d="M236.833 213.671C236.792 213.67 236.778 213.822 236.655 214.033C236.535 214.239 236.271 214.51 235.864 214.616C235.044 214.836 233.766 214.189 232.952 213.099C232.54 212.548 232.281 211.931 232.168 211.348C232.038 210.764 232.107 210.243 232.395 209.953C232.668 209.648 233.038 209.681 233.236 209.801C233.44 209.915 233.488 210.066 233.528 210.053C233.557 210.057 233.588 209.857 233.358 209.637C233.247 209.532 233.071 209.438 232.844 209.422C232.61 209.405 232.35 209.498 232.139 209.684C231.687 210.052 231.566 210.791 231.69 211.431C231.79 212.092 232.068 212.795 232.53 213.413C233.446 214.628 234.902 215.342 235.976 214.971C236.489 214.778 236.759 214.393 236.844 214.115C236.927 213.828 236.862 213.667 236.833 213.671Z" fill="#FF9A6C"/>
<path fill-rule="evenodd" clip-rule="evenodd" d="M225.251 184.806L251.871 168.032C249.857 166.761 247.442 166.276 245.067 166.122C239.947 165.792 234.688 166.949 230.359 169.703C226.031 172.459 220.768 183.431 219.619 188.432C218.7 192.433 220.067 194.466 220.067 194.466C221.923 198.128 226.385 200.736 229.351 203.576C230.88 205.039 235.08 209.752 235.08 209.752H235.081C236.523 208.79 236.299 207.285 235.135 206.001L231.156 200.574C231.156 200.574 233.762 193.827 227.203 188.973C226.492 188.711 224.149 186.903 225.251 184.806Z" fill="#1A2E35"/>
<path fill-rule="evenodd" clip-rule="evenodd" d="M243.921 201.06C243.848 201.133 243.724 201.126 243.645 201.046C243.565 200.966 243.561 200.842 243.634 200.77C243.707 200.697 243.831 200.704 243.91 200.784C243.989 200.864 243.994 200.988 243.921 201.06Z" fill="#FF9A6C"/>
<path fill-rule="evenodd" clip-rule="evenodd" d="M246.223 198.666C246.15 198.738 246.016 198.723 245.925 198.631C245.834 198.538 245.82 198.405 245.893 198.332C245.966 198.26 246.1 198.275 246.191 198.368C246.282 198.46 246.296 198.594 246.223 198.666Z" fill="#FF9A6C"/>
<path fill-rule="evenodd" clip-rule="evenodd" d="M248.015 197.422C247.937 197.488 247.784 197.439 247.674 197.311C247.565 197.183 247.539 197.024 247.618 196.957C247.696 196.89 247.849 196.94 247.958 197.068C248.068 197.196 248.093 197.355 248.015 197.422Z" fill="#FF9A6C"/>
<path fill-rule="evenodd" clip-rule="evenodd" d="M246.369 201.883C246.283 201.94 246.183 201.941 246.147 201.886C246.111 201.83 246.151 201.739 246.237 201.683C246.324 201.626 246.423 201.625 246.46 201.68C246.496 201.736 246.455 201.826 246.369 201.883Z" fill="#FF9A6C"/>
<path fill-rule="evenodd" clip-rule="evenodd" d="M248.472 199.674C248.391 199.738 248.266 199.716 248.194 199.623C248.12 199.531 248.127 199.405 248.208 199.341C248.289 199.278 248.414 199.3 248.487 199.392C248.56 199.484 248.553 199.611 248.472 199.674Z" fill="#FF9A6C"/>
<path fill-rule="evenodd" clip-rule="evenodd" d="M260.37 189.63C260.297 189.702 260.171 189.694 260.089 189.611C260.007 189.528 260 189.402 260.073 189.33C260.146 189.257 260.272 189.266 260.354 189.349C260.436 189.432 260.443 189.558 260.37 189.63Z" fill="#FF9A6C"/>
<path fill-rule="evenodd" clip-rule="evenodd" d="M262.103 188.247C262.023 188.312 261.891 188.283 261.81 188.182C261.728 188.08 261.727 187.945 261.807 187.881C261.887 187.815 262.019 187.846 262.1 187.946C262.182 188.048 262.183 188.183 262.103 188.247Z" fill="#FF9A6C"/>
<path fill-rule="evenodd" clip-rule="evenodd" d="M258.772 190.748C258.699 190.82 258.587 190.827 258.524 190.763C258.46 190.698 258.468 190.587 258.542 190.515C258.615 190.442 258.726 190.436 258.79 190.5C258.853 190.564 258.845 190.676 258.772 190.748Z" fill="#FF9A6C"/>
<path fill-rule="evenodd" clip-rule="evenodd" d="M261.353 191.692C261.297 191.778 261.17 191.796 261.07 191.731C260.97 191.667 260.934 191.544 260.99 191.458C261.045 191.371 261.172 191.352 261.273 191.418C261.374 191.482 261.41 191.605 261.353 191.692Z" fill="#FF9A6C"/>
<path fill-rule="evenodd" clip-rule="evenodd" d="M262.721 190.34C262.622 190.371 262.521 190.33 262.494 190.248C262.467 190.165 262.525 190.072 262.623 190.04C262.721 190.009 262.823 190.049 262.85 190.132C262.876 190.214 262.819 190.308 262.721 190.34Z" fill="#FF9A6C"/>
<path fill-rule="evenodd" clip-rule="evenodd" d="M219.683 188.906C217.494 187.051 216.468 184.05 216.697 181.189C216.925 178.329 218.599 175.62 221.056 174.136C222.315 173.377 223.762 172.919 224.893 171.979C226.998 170.229 227.546 167.252 229.067 164.975C231.436 161.428 236.437 159.921 240.372 161.567C241.958 162.23 243.456 163.356 245.175 163.299C246.662 163.248 247.957 162.312 249.382 161.885C252.263 161.019 255.595 162.482 257.127 165.07C258.66 167.658 258.421 171.113 256.762 173.622C255.103 176.13 252.171 177.675 249.172 177.905C246.464 178.113 243.449 177.406 241.229 178.969C238.928 180.59 238.342 184.157 235.737 185.22C234.371 185.778 232.828 185.464 231.378 185.192C229.928 184.92 228.335 184.72 227.059 185.46C225.784 186.199 226.259 188.31 227.458 189.168L219.683 188.906Z" fill="#1A2E35"/>
<path fill-rule="evenodd" clip-rule="evenodd" d="M249.158 165.039C249.164 165.039 249.17 165.079 249.177 165.159C249.183 165.238 249.196 165.357 249.192 165.514C249.193 165.824 249.161 166.289 249.006 166.865C248.85 167.437 248.561 168.124 248.043 168.8C247.529 169.473 246.76 170.125 245.756 170.517C244.762 170.911 243.536 171.063 242.301 170.749C241.062 170.435 239.941 169.664 238.663 169.181C238.024 168.938 237.332 168.798 236.632 168.872C235.933 168.953 235.244 169.224 234.639 169.64C234.036 170.06 233.526 170.634 233.172 171.302C232.824 171.976 232.676 172.744 232.751 173.525C232.815 174.311 233.007 175.095 232.996 175.907C233.008 176.717 232.653 177.565 231.992 178.041C231.342 178.525 230.551 178.686 229.811 178.724C229.063 178.765 228.335 178.635 227.655 178.491C226.306 178.209 224.968 177.923 223.829 178.359C222.691 178.775 221.968 179.773 221.603 180.721C221.232 181.689 221.221 182.656 221.341 183.471C221.464 184.29 221.696 184.974 221.916 185.516C222.136 186.06 222.34 186.468 222.478 186.745C222.617 187.021 222.692 187.167 222.681 187.173C222.678 187.176 222.652 187.143 222.609 187.075C222.565 187.009 222.502 186.909 222.425 186.774C222.268 186.506 222.046 186.103 221.806 185.561C221.568 185.02 221.315 184.333 221.173 183.497C221.034 182.667 221.028 181.661 221.402 180.645C221.769 179.654 222.514 178.587 223.74 178.123C224.97 177.644 226.369 177.946 227.711 178.217C228.392 178.356 229.084 178.476 229.798 178.434C230.502 178.397 231.239 178.236 231.812 177.804C232.393 177.378 232.701 176.656 232.694 175.902C232.704 175.143 232.516 174.367 232.448 173.551C232.367 172.731 232.529 171.878 232.903 171.163C233.283 170.448 233.827 169.84 234.47 169.395C235.113 168.955 235.849 168.667 236.601 168.583C237.358 168.506 238.102 168.665 238.761 168.919C240.083 169.431 241.183 170.198 242.365 170.505C243.538 170.815 244.717 170.685 245.678 170.316C246.649 169.951 247.398 169.338 247.909 168.695C248.425 168.05 248.722 167.388 248.891 166.832C249.222 165.707 249.115 165.035 249.158 165.039Z" fill="#375A64"/>
<path fill-rule="evenodd" clip-rule="evenodd" d="M253.975 161.988C253.985 161.977 254.163 162.112 254.416 162.423C254.669 162.732 254.983 163.232 255.213 163.917C255.438 164.598 255.568 165.467 255.454 166.419C255.345 167.37 254.972 168.378 254.378 169.301C253.174 171.167 251.408 172.238 250.144 172.845C249.501 173.15 248.963 173.353 248.588 173.48C248.212 173.607 247.999 173.659 247.993 173.64C247.974 173.592 248.801 173.3 250.047 172.653C251.273 172.005 252.965 170.932 254.123 169.136C254.694 168.248 255.058 167.287 255.176 166.384C255.299 165.478 255.199 164.643 255.008 163.98C254.613 162.635 253.918 162.025 253.975 161.988Z" fill="#375A64"/>
<path fill-rule="evenodd" clip-rule="evenodd" d="M255.599 203.573C255.818 203.413 256.804 204.925 258.797 205.157C260.791 205.394 262.294 204.177 262.444 204.381C262.527 204.462 262.276 204.908 261.607 205.369C260.953 205.826 259.838 206.245 258.619 206.103C257.4 205.958 256.489 205.299 256.034 204.712C255.565 204.116 255.49 203.632 255.599 203.573Z" fill="#1A2E35"/>
<path fill-rule="evenodd" clip-rule="evenodd" d="M244.271 277.755L262.055 296.549C262.055 296.549 265.858 299.401 268.04 299.401C270.22 299.401 275.922 295.038 277.77 293.36C279.618 291.683 280.125 290.056 280.125 290.056C280.125 290.056 273.912 291.515 270.892 293.696C267.872 295.877 260.677 289.165 256.975 285.306C253.273 281.446 245.631 275.941 244.271 277.755Z" fill="#0087C4"/>
<path fill-rule="evenodd" clip-rule="evenodd" d="M292.148 265.581C292.576 264.454 292.951 263.302 293.21 262.132C293.333 261.549 293.437 260.953 293.419 260.38C293.411 260.099 293.356 259.811 293.228 259.637C293.139 259.505 292.809 259.386 292.551 259.237L286.132 255.852C283.991 254.727 281.82 253.652 279.733 252.421C277.658 251.168 275.575 249.931 273.598 248.509L273.647 248.421C275.902 249.343 278.049 250.45 280.206 251.54C282.349 252.653 284.41 253.922 286.5 255.142L292.773 258.789L293.164 259.019C293.271 259.077 293.502 259.216 293.596 259.379C293.803 259.716 293.82 260.06 293.819 260.376C293.802 261.015 293.659 261.613 293.502 262.204C293.171 263.38 292.732 264.513 292.24 265.621L292.148 265.581Z" fill="#0087C4"/>
<path fill-rule="evenodd" clip-rule="evenodd" d="M319.806 244.157C319.806 244.157 318.315 239.946 316.699 234.21C316.699 234.21 314.947 228.769 315.415 220.566C315.415 220.566 315.028 212.529 313.882 209.575C313.779 209.308 313.624 209.068 313.435 208.853C312.324 207.59 308.015 202.829 308.332 205.331C308.392 205.797 308.574 206.238 308.826 206.635L311.534 210.898C311.756 211.863 311.814 213.712 311.826 214.94C311.827 215.105 311.595 215.139 311.549 214.981C311.048 213.258 309.701 209.791 306.239 205.576C305.384 204.528 295.869 203.83 296.701 205.622C297.661 207.717 303.419 206.196 304.859 208.996C305.613 210.461 306.826 213.232 307.462 214.709C307.528 214.86 307.326 214.984 307.222 214.855C305.63 212.875 301.587 208.059 299.832 207.977C296.063 207.81 291.088 207.269 290.425 208.103C290.203 208.382 290.555 209.511 292.512 209.806C294.341 210.082 297.488 209.972 298.874 211.432C300.528 213.173 301.903 214.983 302.623 215.977C302.717 216.107 302.583 216.208 302.426 216.175C301.263 215.927 299.597 215.108 295.913 213.848C295.526 213.716 295.116 213.666 294.779 213.898C294.059 214.394 292.395 215.898 290.799 216.78C289.619 217.43 288.009 218.62 286.748 219.066C285.707 219.428 286.78 220.71 288.85 220.648C291.367 220.569 294.289 216.794 295.185 217.355C295.185 217.355 297.988 218.569 299.664 220.688C300.785 222.106 301.251 223.682 300.955 225.664C300.955 225.664 300.401 227.566 298.323 226.477C296.33 225.433 291.967 223.656 289.245 224.445C288.766 224.582 288.198 224.667 287.856 225.03C286.815 226.154 289.502 226.385 289.993 226.467C290.609 226.575 291.588 226.906 292.178 227.147C292.655 227.338 297.264 231.139 298.129 231.886C302.499 235.654 303.12 235.375 305.395 237.127C306.815 238.211 309.067 246.928 309.067 246.928L319.806 244.157Z" fill="#FFBF9D"/>
<path fill-rule="evenodd" clip-rule="evenodd" d="M307.465 214.786C307.469 214.761 307.474 214.736 307.462 214.709C306.825 213.232 305.612 210.461 304.859 208.996C303.719 206.778 299.878 207.265 297.849 206.526C300.432 206.654 304.363 206.881 305.027 207.877C305.831 209.085 306.319 210.49 307.002 212.049C307.504 213.196 307.598 214.717 307.465 214.786Z" fill="#F0A18B"/>
<path fill-rule="evenodd" clip-rule="evenodd" d="M292.512 209.806C291.925 209.717 291.485 209.553 291.158 209.36C291.416 209.434 291.672 209.501 291.921 209.56C293.705 209.977 296.334 209.781 298.04 210.261C298.839 210.486 299.902 211.598 301.175 213.046C302.195 214.206 302.626 215.841 302.56 215.89C301.825 214.881 300.484 213.126 298.874 211.432C297.488 209.972 294.341 210.081 292.512 209.806Z" fill="#F0A18B"/>
<path fill-rule="evenodd" clip-rule="evenodd" d="M311.995 210.611C312.229 211.518 312.465 213.785 312.108 214.655C312 214.755 311.905 214.86 311.816 214.966C311.817 214.958 311.825 214.952 311.825 214.941C311.813 213.713 311.756 211.864 311.533 210.899L308.825 206.635C308.622 206.316 308.468 205.966 308.384 205.598C308.79 206.459 309.472 207.399 310.086 208.257C311.585 210.353 311.882 210.174 311.995 210.611Z" fill="#F0A18B"/>
<path fill-rule="evenodd" clip-rule="evenodd" d="M304.441 235.064C306.052 236.024 306.674 235.837 307.571 237.578C308.309 239.01 308.559 240.448 308.998 241.976C309.424 243.465 309.998 245.215 311.084 246.408L309.066 246.928C309.066 246.928 306.814 238.21 305.394 237.127C303.12 235.375 302.499 235.654 298.129 231.885C297.813 231.613 296.997 230.933 296.068 230.171C300.452 233.098 303.787 234.674 304.441 235.064Z" fill="#F0A18B"/>
<path fill-rule="evenodd" clip-rule="evenodd" d="M287.856 225.031C288.198 224.668 288.766 224.583 289.246 224.446C291.967 223.657 296.331 225.434 298.323 226.478C300.401 227.567 300.956 225.665 300.956 225.665C301.252 223.683 300.785 222.107 299.665 220.689C297.988 218.57 295.185 217.356 295.185 217.356C294.29 216.795 291.367 220.57 288.85 220.649C288.257 220.667 287.753 220.571 287.352 220.422C288.047 220.424 288.689 220.392 288.95 220.353C290.498 220.12 292.074 218.837 292.891 217.863C294.343 216.135 294.867 216.24 296.814 217.55C298.452 218.652 300.763 220.07 301.72 221.724C302.661 223.35 303.584 225.103 303.504 227.05C303.468 227.945 303.518 229.516 302.09 229.208C301.139 229.004 300.183 228.828 299.28 228.453C296.116 227.139 292.315 224.519 288.711 225.233C288.294 225.315 287.946 225.464 287.657 225.656C287.584 225.486 287.624 225.281 287.856 225.031Z" fill="#F0A18B"/>
<path fill-rule="evenodd" clip-rule="evenodd" d="M290.693 225.215C290.693 225.215 288.753 224.836 288.163 225.461C287.251 226.426 290.687 226.475 290.687 226.475C290.986 225.841 290.693 225.215 290.693 225.215Z" fill="#F7DFD2"/>
<path fill-rule="evenodd" clip-rule="evenodd" d="M286.529 219.178C286.529 219.178 287.916 219.58 289.078 218.865C290.144 218.207 289.173 217.771 289.173 217.771C289.173 217.771 286.861 218.772 286.529 219.178Z" fill="#F7DFD2"/>
<path fill-rule="evenodd" clip-rule="evenodd" d="M290.796 207.876C290.796 207.876 291.359 208.46 292.856 208.34C294.12 208.237 293.584 207.656 293.584 207.656C293.584 207.656 292.016 207.436 290.796 207.876Z" fill="#F7DFD2"/>
<path fill-rule="evenodd" clip-rule="evenodd" d="M296.983 204.982C296.983 204.982 297.315 205.437 298.81 205.316C300.075 205.214 299.681 204.524 299.681 204.524C299.681 204.524 297.53 204.522 296.983 204.982Z" fill="#F7DFD2"/>
<path fill-rule="evenodd" clip-rule="evenodd" d="M308.888 204.664C308.888 204.664 308.772 205.147 309.729 206.113C310.536 206.93 310.839 206.131 310.839 206.131C310.839 206.131 309.557 204.704 308.888 204.664Z" fill="#F7DFD2"/>
</g>
<path fill-rule="evenodd" clip-rule="evenodd" d="M288.314 220.838C288.332 220.834 288.349 220.831 288.367 220.826C288.2 221.269 288.104 221.75 288.127 222.098C288.18 222.899 288.622 223.691 289.303 224.144C289.313 224.151 289.324 224.155 289.334 224.162C289.284 224.177 289.234 224.192 289.183 224.205C287.499 224.64 285.939 224.238 285.699 223.309C285.46 222.379 286.629 221.274 288.314 220.838Z" fill="#FF4F5B"/>
<path fill-rule="evenodd" clip-rule="evenodd" d="M289.694 222.487C290.434 222.211 290.967 221.762 291.185 221.158C291.43 221.313 291.601 221.513 291.665 221.758C291.883 222.607 290.755 223.633 289.142 224.049C287.53 224.466 286.045 224.114 285.826 223.264C285.779 223.086 285.796 222.898 285.862 222.712C287.168 223.166 288.371 222.982 289.694 222.487Z" fill="#D8D8D1"/>
<mask id="mask3" mask-type="alpha" maskUnits="userSpaceOnUse" x="0" y="101" width="755" height="320">
<path fill-rule="evenodd" clip-rule="evenodd" d="M0 420.122H754.837V101H0V420.122Z" fill="white"/>
</mask>
<g mask="url(#mask3)">
<path fill-rule="evenodd" clip-rule="evenodd" d="M120.382 420.123H711.254V419.456H120.382V420.123Z" fill="#1A2E35"/>
</g>
</svg>
