<svg width="683" height="625" viewBox="0 0 683 625" fill="none" xmlns="http://www.w3.org/2000/svg">
<circle opacity="0.0770322" cx="301.5" cy="301.5" r="301.5" fill="#E13856"/>
<rect x="257" y="113" width="426" height="333" rx="8" fill="#E2F5FF"/>
<path d="M257 121C257 116.582 260.582 113 265 113H675C679.418 113 683 116.582 683 121V179H257V121Z" fill="#11A9FF"/>
<path d="M310.91 232.264C315.156 232.264 318.72 228.678 318.72 224.432C318.72 220.186 315.156 216.622 310.91 216.622C306.664 216.622 303.056 220.186 303.056 224.432C303.056 228.678 306.664 232.264 310.91 232.264ZM310.91 230.218C307.896 230.218 305.344 227.578 305.344 224.432C305.344 221.308 307.896 218.668 310.91 218.668C313.924 218.668 316.454 221.308 316.454 224.432C316.454 227.578 313.924 230.218 310.91 230.218ZM327.159 220.362C325.619 220.362 324.233 221.154 323.551 222.276V220.626H321.373V232H323.551V224.63C323.727 223.288 325.091 222.254 326.675 222.254C328.215 222.254 329.293 223.442 329.293 225.136V232H331.427V224.762C331.427 222.188 329.667 220.362 327.159 220.362ZM334.543 232H336.699V216.622H334.543V232ZM341.873 235.96C343.501 235.938 344.711 235.08 345.525 233.034L350.541 220.626H348.275L344.821 229.602L341.169 220.626H338.837L343.721 232.066L343.149 233.276C342.775 233.936 342.291 234.156 341.587 234.156C341.147 234.156 340.641 234.046 340.201 233.804L339.717 235.476C340.311 235.784 341.103 235.96 341.873 235.96ZM364.596 229.954C364.354 230.196 363.914 230.372 363.43 230.372C362.792 230.372 362.264 229.8 362.264 229.008V222.474H364.948V220.626H362.264V217.502H360.13V220.626H358.413V222.474H360.13V229.162C360.13 230.988 361.362 232.264 363.122 232.264C363.936 232.264 364.772 231.956 365.388 231.45L364.596 229.954ZM370.489 232H372.491L375.241 223.552L377.969 232H379.971L383.799 220.626H381.577L378.981 229.096L376.165 220.626H374.317L371.501 229.096L368.883 220.626H366.661L370.489 232ZM390.915 232.264C394.149 232.264 396.877 229.536 396.877 226.302C396.877 223.068 394.149 220.362 390.915 220.362C387.659 220.362 384.909 223.068 384.909 226.302C384.909 229.536 387.659 232.264 390.915 232.264ZM390.915 230.372C388.825 230.372 387.087 228.524 387.087 226.302C387.087 224.102 388.825 222.254 390.915 222.254C392.961 222.254 394.699 224.102 394.699 226.302C394.699 228.524 392.961 230.372 390.915 230.372ZM409.505 232H411.551L416.347 220.626H413.993L410.517 229.47L406.975 220.626H404.621L409.505 232ZM419.496 218.734C420.2 218.734 420.794 218.118 420.794 217.414C420.794 216.732 420.2 216.116 419.496 216.116C418.748 216.116 418.176 216.732 418.176 217.414C418.176 218.118 418.748 218.734 419.496 218.734ZM418.396 232H420.574V220.626H418.396V232ZM427.839 232.264C430.325 232.264 432.151 230.9 432.151 228.744C432.151 226.478 430.149 225.862 428.279 225.312C426.365 224.718 425.661 224.454 425.661 223.574C425.661 222.716 426.541 222.232 427.663 222.232C428.653 222.232 429.797 222.606 430.897 223.288L431.865 221.682C430.633 220.868 429.137 220.362 427.663 220.362C425.243 220.362 423.505 221.726 423.527 223.816C423.527 225.664 424.825 226.412 427.443 227.138C428.851 227.534 430.017 227.864 430.017 228.92C430.017 229.8 429.137 230.394 427.861 230.394C426.519 230.394 425.221 229.888 424.011 229.008L422.977 230.57C424.341 231.67 426.167 232.264 427.839 232.264ZM435.76 218.734C436.464 218.734 437.058 218.118 437.058 217.414C437.058 216.732 436.464 216.116 435.76 216.116C435.012 216.116 434.44 216.732 434.44 217.414C434.44 218.118 435.012 218.734 435.76 218.734ZM434.66 232H436.838V220.626H434.66V232ZM445.312 229.954C445.07 230.196 444.63 230.372 444.146 230.372C443.508 230.372 442.98 229.8 442.98 229.008V222.474H445.664V220.626H442.98V217.502H440.846V220.626H439.13V222.474H440.846V229.162C440.846 230.988 442.078 232.264 443.838 232.264C444.652 232.264 445.488 231.956 446.104 231.45L445.312 229.954ZM453.714 232.264C456.948 232.264 459.676 229.536 459.676 226.302C459.676 223.068 456.948 220.362 453.714 220.362C450.458 220.362 447.708 223.068 447.708 226.302C447.708 229.536 450.458 232.264 453.714 232.264ZM453.714 230.372C451.624 230.372 449.886 228.524 449.886 226.302C449.886 224.102 451.624 222.254 453.714 222.254C455.76 222.254 457.498 224.102 457.498 226.302C457.498 228.524 455.76 230.372 453.714 230.372ZM464.513 222.804V220.626H462.335V232H464.513V225.532C464.711 223.552 466.383 222.254 468.737 222.254V220.362C466.779 220.362 465.239 221.308 464.513 222.804ZM474.975 232.264C477.461 232.264 479.287 230.9 479.287 228.744C479.287 226.478 477.285 225.862 475.415 225.312C473.501 224.718 472.797 224.454 472.797 223.574C472.797 222.716 473.677 222.232 474.799 222.232C475.789 222.232 476.933 222.606 478.033 223.288L479.001 221.682C477.769 220.868 476.273 220.362 474.799 220.362C472.379 220.362 470.641 221.726 470.663 223.816C470.663 225.664 471.961 226.412 474.579 227.138C475.987 227.534 477.153 227.864 477.153 228.92C477.153 229.8 476.273 230.394 474.997 230.394C473.655 230.394 472.357 229.888 471.147 229.008L470.113 230.57C471.477 231.67 473.303 232.264 474.975 232.264ZM492.887 220.362C491.633 220.362 490.203 220.692 488.575 221.506L489.367 223.112C490.357 222.606 491.457 222.166 492.579 222.166C494.845 222.166 495.505 223.684 495.505 225.114V225.466C494.405 225.092 493.195 224.85 492.073 224.85C489.565 224.85 487.519 226.368 487.519 228.634C487.519 230.856 489.301 232.264 491.721 232.264C493.107 232.264 494.669 231.626 495.505 230.438V232H497.639V225.114C497.639 222.298 495.945 220.362 492.887 220.362ZM492.139 230.548C490.709 230.548 489.609 229.8 489.609 228.568C489.609 227.336 490.885 226.478 492.403 226.478C493.525 226.478 494.581 226.632 495.505 226.918V228.436C495.131 229.844 493.547 230.548 492.139 230.548ZM506.113 229.954C505.871 230.196 505.431 230.372 504.947 230.372C504.309 230.372 503.781 229.8 503.781 229.008V222.474H506.465V220.626H503.781V217.502H501.647V220.626H499.931V222.474H501.647V229.162C501.647 230.988 502.879 232.264 504.639 232.264C505.453 232.264 506.289 231.956 506.905 231.45L506.113 229.954ZM520.194 220.362C518.94 220.362 517.51 220.692 515.882 221.506L516.674 223.112C517.664 222.606 518.764 222.166 519.886 222.166C522.152 222.166 522.812 223.684 522.812 225.114V225.466C521.712 225.092 520.502 224.85 519.38 224.85C516.872 224.85 514.826 226.368 514.826 228.634C514.826 230.856 516.608 232.264 519.028 232.264C520.414 232.264 521.976 231.626 522.812 230.438V232H524.946V225.114C524.946 222.298 523.252 220.362 520.194 220.362ZM519.446 230.548C518.016 230.548 516.916 229.8 516.916 228.568C516.916 227.336 518.192 226.478 519.71 226.478C520.832 226.478 521.888 226.632 522.812 226.918V228.436C522.438 229.844 520.854 230.548 519.446 230.548ZM539.715 229.954C539.473 230.196 539.033 230.372 538.549 230.372C537.911 230.372 537.383 229.8 537.383 229.008V222.474H540.067V220.626H537.383V217.502H535.249V220.626H533.533V222.474H535.249V229.162C535.249 230.988 536.481 232.264 538.241 232.264C539.055 232.264 539.891 231.956 540.507 231.45L539.715 229.954ZM543.805 218.734C544.509 218.734 545.103 218.118 545.103 217.414C545.103 216.732 544.509 216.116 543.805 216.116C543.057 216.116 542.485 216.732 542.485 217.414C542.485 218.118 543.057 218.734 543.805 218.734ZM542.705 232H544.883V220.626H542.705V232ZM560.749 220.362C559.033 220.362 557.581 221.242 557.053 222.65C556.393 221.242 555.051 220.362 553.401 220.362C551.949 220.362 550.761 221.088 550.189 222.21V220.626H548.011V232H550.189V224.894C550.189 223.332 551.333 222.254 552.961 222.254C554.391 222.254 555.381 223.42 555.381 225.092V232H557.515V224.894C557.515 223.332 558.659 222.254 560.287 222.254C561.717 222.254 562.707 223.42 562.707 225.092V232H564.841V224.762C564.841 222.188 563.125 220.362 560.749 220.362ZM573.185 230.328C571.227 230.328 569.841 228.964 569.555 227.072H578.509C578.509 223.002 576.507 220.362 573.031 220.362C569.885 220.362 567.355 222.87 567.355 226.28C567.355 229.778 570.039 232.264 573.207 232.264C574.813 232.264 576.793 231.582 577.805 230.504L576.441 229.096C575.759 229.8 574.373 230.328 573.185 230.328ZM573.119 222.298C575.077 222.298 576.155 223.574 576.397 225.334H569.577C569.929 223.486 571.359 222.298 573.119 222.298ZM593.642 220.362C591.882 220.362 590.474 221.198 589.594 222.584V220.626H587.438V235.784H589.594V230.02C590.474 231.428 591.882 232.264 593.642 232.264C596.634 232.264 598.878 229.8 598.878 226.302C598.878 222.826 596.634 220.362 593.642 220.362ZM593.114 230.372C591.068 230.372 589.594 228.678 589.594 226.302C589.594 223.926 591.068 222.254 593.114 222.254C595.204 222.254 596.678 223.926 596.678 226.302C596.678 228.678 595.204 230.372 593.114 230.372ZM601.508 232H603.664V216.622H601.508V232ZM612.05 230.328C610.092 230.328 608.706 228.964 608.42 227.072H617.374C617.374 223.002 615.372 220.362 611.896 220.362C608.75 220.362 606.22 222.87 606.22 226.28C606.22 229.778 608.904 232.264 612.072 232.264C613.678 232.264 615.658 231.582 616.67 230.504L615.306 229.096C614.624 229.8 613.238 230.328 612.05 230.328ZM611.984 222.298C613.942 222.298 615.02 223.574 615.262 225.334H608.442C608.794 223.486 610.224 222.298 611.984 222.298ZM624.672 220.362C623.418 220.362 621.988 220.692 620.36 221.506L621.152 223.112C622.142 222.606 623.242 222.166 624.364 222.166C626.63 222.166 627.29 223.684 627.29 225.114V225.466C626.19 225.092 624.98 224.85 623.858 224.85C621.35 224.85 619.304 226.368 619.304 228.634C619.304 230.856 621.086 232.264 623.506 232.264C624.892 232.264 626.454 231.626 627.29 230.438V232H629.424V225.114C629.424 222.298 627.73 220.362 624.672 220.362ZM623.924 230.548C622.494 230.548 621.394 229.8 621.394 228.568C621.394 227.336 622.67 226.478 624.188 226.478C625.31 226.478 626.366 226.632 627.29 226.918V228.436C626.916 229.844 625.332 230.548 623.924 230.548ZM636.688 232.264C639.174 232.264 641 230.9 641 228.744C641 226.478 638.998 225.862 637.128 225.312C635.214 224.718 634.51 224.454 634.51 223.574C634.51 222.716 635.39 222.232 636.512 222.232C637.502 222.232 638.646 222.606 639.746 223.288L640.714 221.682C639.482 220.868 637.986 220.362 636.512 220.362C634.092 220.362 632.354 221.726 632.376 223.816C632.376 225.664 633.674 226.412 636.292 227.138C637.7 227.534 638.866 227.864 638.866 228.92C638.866 229.8 637.986 230.394 636.71 230.394C635.368 230.394 634.07 229.888 632.86 229.008L631.826 230.57C633.19 231.67 635.016 232.264 636.688 232.264ZM648.745 230.328C646.787 230.328 645.401 228.964 645.115 227.072H654.069C654.069 223.002 652.067 220.362 648.591 220.362C645.445 220.362 642.915 222.87 642.915 226.28C642.915 229.778 645.599 232.264 648.767 232.264C650.373 232.264 652.353 231.582 653.365 230.504L652.001 229.096C651.319 229.8 649.933 230.328 648.745 230.328ZM648.679 222.298C650.637 222.298 651.715 223.574 651.957 225.334H645.137C645.489 223.486 646.919 222.298 648.679 222.298ZM657.958 232.264C658.75 232.264 659.388 231.582 659.388 230.768C659.388 230.02 658.75 229.338 657.958 229.338C657.122 229.338 656.484 230.02 656.484 230.768C656.484 231.582 657.122 232.264 657.958 232.264ZM307.698 264.264C310.184 264.264 312.01 262.9 312.01 260.744C312.01 258.478 310.008 257.862 308.138 257.312C306.224 256.718 305.52 256.454 305.52 255.574C305.52 254.716 306.4 254.232 307.522 254.232C308.512 254.232 309.656 254.606 310.756 255.288L311.724 253.682C310.492 252.868 308.996 252.362 307.522 252.362C305.102 252.362 303.364 253.726 303.386 255.816C303.386 257.664 304.684 258.412 307.302 259.138C308.71 259.534 309.876 259.864 309.876 260.92C309.876 261.8 308.996 262.394 307.72 262.394C306.378 262.394 305.08 261.888 303.87 261.008L302.836 262.57C304.2 263.67 306.026 264.264 307.698 264.264ZM322.373 252.626V259.996C322.197 261.338 320.833 262.372 319.249 262.372C317.709 262.372 316.631 261.184 316.631 259.49V252.626H314.497V259.864C314.497 262.438 316.257 264.264 318.765 264.264C320.305 264.264 321.691 263.472 322.373 262.35V264H324.551V252.626H322.373ZM329.999 254.804V252.626H327.821V264H329.999V257.532C330.197 255.552 331.869 254.254 334.223 254.254V252.362C332.265 252.362 330.725 253.308 329.999 254.804ZM344.994 252.626V254.452C344.136 253.176 342.684 252.362 340.968 252.362C337.976 252.362 335.798 254.584 335.798 257.752C335.798 260.92 337.976 263.164 340.968 263.164C342.684 263.164 344.092 262.394 344.994 261.096V262.746C344.994 264.726 343.52 265.892 341.078 265.892C339.714 265.892 338.35 265.43 337.514 264.638L336.656 266.266C337.734 267.146 339.494 267.784 341.408 267.784C344.774 267.784 347.172 265.716 347.172 262.79V252.626H344.994ZM341.518 261.272C339.494 261.272 338.064 259.82 338.064 257.752C338.064 255.706 339.494 254.254 341.518 254.254C343.542 254.254 344.994 255.706 344.994 257.752C344.994 259.82 343.542 261.272 341.518 261.272ZM355.634 262.328C353.676 262.328 352.29 260.964 352.004 259.072H360.958C360.958 255.002 358.956 252.362 355.48 252.362C352.334 252.362 349.804 254.87 349.804 258.28C349.804 261.778 352.488 264.264 355.656 264.264C357.262 264.264 359.242 263.582 360.254 262.504L358.89 261.096C358.208 261.8 356.822 262.328 355.634 262.328ZM355.568 254.298C357.526 254.298 358.604 255.574 358.846 257.334H352.026C352.378 255.486 353.808 254.298 355.568 254.298ZM365.77 254.804V252.626H363.592V264H365.77V257.532C365.968 255.552 367.64 254.254 369.994 254.254V252.362C368.036 252.362 366.496 253.308 365.77 254.804ZM374.121 267.96C375.749 267.938 376.959 267.08 377.773 265.034L382.789 252.626H380.523L377.069 261.602L373.417 252.626H371.085L375.969 264.066L375.397 265.276C375.023 265.936 374.539 266.156 373.835 266.156C373.395 266.156 372.889 266.046 372.449 265.804L371.965 267.476C372.559 267.784 373.351 267.96 374.121 267.96ZM392.598 250.734C393.302 250.734 393.896 250.118 393.896 249.414C393.896 248.732 393.302 248.116 392.598 248.116C391.85 248.116 391.278 248.732 391.278 249.414C391.278 250.118 391.85 250.734 392.598 250.734ZM391.498 264H393.676V252.626H391.498V264ZM400.94 264.264C403.426 264.264 405.252 262.9 405.252 260.744C405.252 258.478 403.25 257.862 401.38 257.312C399.466 256.718 398.762 256.454 398.762 255.574C398.762 254.716 399.642 254.232 400.764 254.232C401.754 254.232 402.898 254.606 403.998 255.288L404.966 253.682C403.734 252.868 402.238 252.362 400.764 252.362C398.344 252.362 396.606 253.726 396.628 255.816C396.628 257.664 397.926 258.412 400.544 259.138C401.952 259.534 403.118 259.864 403.118 260.92C403.118 261.8 402.238 262.394 400.962 262.394C399.62 262.394 398.322 261.888 397.112 261.008L396.078 262.57C397.442 263.67 399.268 264.264 400.94 264.264ZM417.862 264H419.908L424.704 252.626H422.35L418.874 261.47L415.332 252.626H412.978L417.862 264ZM431.237 262.328C429.279 262.328 427.893 260.964 427.607 259.072H436.561C436.561 255.002 434.559 252.362 431.083 252.362C427.937 252.362 425.407 254.87 425.407 258.28C425.407 261.778 428.091 264.264 431.259 264.264C432.865 264.264 434.845 263.582 435.857 262.504L434.493 261.096C433.811 261.8 432.425 262.328 431.237 262.328ZM431.171 254.298C433.129 254.298 434.207 255.574 434.449 257.334H427.629C427.981 255.486 429.411 254.298 431.171 254.298ZM441.374 254.804V252.626H439.196V264H441.374V257.532C441.572 255.552 443.244 254.254 445.598 254.254V252.362C443.64 252.362 442.1 253.308 441.374 254.804ZM449.725 267.96C451.353 267.938 452.563 267.08 453.377 265.034L458.393 252.626H456.127L452.673 261.602L449.021 252.626H446.689L451.573 264.066L451.001 265.276C450.627 265.936 450.143 266.156 449.439 266.156C448.999 266.156 448.493 266.046 448.053 265.804L447.569 267.476C448.163 267.784 448.955 267.96 449.725 267.96ZM472.447 261.954C472.205 262.196 471.765 262.372 471.281 262.372C470.643 262.372 470.115 261.8 470.115 261.008V254.474H472.799V252.626H470.115V249.502H467.981V252.626H466.265V254.474H467.981V261.162C467.981 262.988 469.213 264.264 470.973 264.264C471.787 264.264 472.623 263.956 473.239 263.45L472.447 261.954ZM476.537 250.734C477.241 250.734 477.835 250.118 477.835 249.414C477.835 248.732 477.241 248.116 476.537 248.116C475.789 248.116 475.217 248.732 475.217 249.414C475.217 250.118 475.789 250.734 476.537 250.734ZM475.437 264H477.615V252.626H475.437V264ZM483.054 254.804V252.626H480.876V264H483.054V257.532C483.252 255.552 484.924 254.254 487.278 254.254V252.362C485.32 252.362 483.78 253.308 483.054 254.804ZM490.48 250.734C491.184 250.734 491.778 250.118 491.778 249.414C491.778 248.732 491.184 248.116 490.48 248.116C489.732 248.116 489.16 248.732 489.16 249.414C489.16 250.118 489.732 250.734 490.48 250.734ZM489.38 264H491.558V252.626H489.38V264ZM500.495 252.362C498.955 252.362 497.569 253.154 496.887 254.276V252.626H494.709V264H496.887V256.63C497.063 255.288 498.427 254.254 500.011 254.254C501.551 254.254 502.629 255.442 502.629 257.136V264H504.763V256.762C504.763 254.188 503.003 252.362 500.495 252.362ZM516.525 252.626V254.452C515.667 253.176 514.215 252.362 512.499 252.362C509.507 252.362 507.329 254.584 507.329 257.752C507.329 260.92 509.507 263.164 512.499 263.164C514.215 263.164 515.623 262.394 516.525 261.096V262.746C516.525 264.726 515.051 265.892 512.609 265.892C511.245 265.892 509.881 265.43 509.045 264.638L508.187 266.266C509.265 267.146 511.025 267.784 512.939 267.784C516.305 267.784 518.703 265.716 518.703 262.79V252.626H516.525ZM513.049 261.272C511.025 261.272 509.595 259.82 509.595 257.752C509.595 255.706 511.025 254.254 513.049 254.254C515.073 254.254 516.525 255.706 516.525 257.752C516.525 259.82 515.073 261.272 513.049 261.272ZM532.36 264.264C534.846 264.264 536.672 262.9 536.672 260.744C536.672 258.478 534.67 257.862 532.8 257.312C530.886 256.718 530.182 256.454 530.182 255.574C530.182 254.716 531.062 254.232 532.184 254.232C533.174 254.232 534.318 254.606 535.418 255.288L536.386 253.682C535.154 252.868 533.658 252.362 532.184 252.362C529.764 252.362 528.026 253.726 528.048 255.816C528.048 257.664 529.346 258.412 531.964 259.138C533.372 259.534 534.538 259.864 534.538 260.92C534.538 261.8 533.658 262.394 532.382 262.394C531.04 262.394 529.742 261.888 528.532 261.008L527.498 262.57C528.862 263.67 530.688 264.264 532.36 264.264ZM544.593 264.264C547.827 264.264 550.555 261.536 550.555 258.302C550.555 255.068 547.827 252.362 544.593 252.362C541.337 252.362 538.587 255.068 538.587 258.302C538.587 261.536 541.337 264.264 544.593 264.264ZM544.593 262.372C542.503 262.372 540.765 260.524 540.765 258.302C540.765 256.102 542.503 254.254 544.593 254.254C546.639 254.254 548.377 256.102 548.377 258.302C548.377 260.524 546.639 262.372 544.593 262.372ZM564.722 261.954C564.48 262.196 564.04 262.372 563.556 262.372C562.918 262.372 562.39 261.8 562.39 261.008V254.474H565.074V252.626H562.39V249.502H560.256V252.626H558.54V254.474H560.256V261.162C560.256 262.988 561.488 264.264 563.248 264.264C564.062 264.264 564.898 263.956 565.514 263.45L564.722 261.954ZM570.022 254.804V252.626H567.844V264H570.022V257.532C570.22 255.552 571.892 254.254 574.246 254.254V252.362C572.288 252.362 570.748 253.308 570.022 254.804ZM578.373 267.96C580.001 267.938 581.211 267.08 582.025 265.034L587.041 252.626H584.775L581.321 261.602L577.669 252.626H575.337L580.221 264.066L579.649 265.276C579.275 265.936 578.791 266.156 578.087 266.156C577.647 266.156 577.141 266.046 576.701 265.804L576.217 267.476C576.811 267.784 577.603 267.96 578.373 267.96ZM601.096 261.954C600.854 262.196 600.414 262.372 599.93 262.372C599.292 262.372 598.764 261.8 598.764 261.008V254.474H601.448V252.626H598.764V249.502H596.63V252.626H594.913V254.474H596.63V261.162C596.63 262.988 597.862 264.264 599.622 264.264C600.436 264.264 601.272 263.956 601.888 263.45L601.096 261.954ZM609.497 264.264C612.731 264.264 615.459 261.536 615.459 258.302C615.459 255.068 612.731 252.362 609.497 252.362C606.241 252.362 603.491 255.068 603.491 258.302C603.491 261.536 606.241 264.264 609.497 264.264ZM609.497 262.372C607.407 262.372 605.669 260.524 605.669 258.302C605.669 256.102 607.407 254.254 609.497 254.254C611.543 254.254 613.281 256.102 613.281 258.302C613.281 260.524 611.543 262.372 609.497 262.372ZM313.924 284.626H311.284L305.718 290.434V280.622H303.562V296H305.718V293.074L307.544 291.226L311.108 296H313.704L309.018 289.774L313.924 284.626ZM320.937 294.328C318.979 294.328 317.593 292.964 317.307 291.072H326.261C326.261 287.002 324.259 284.362 320.783 284.362C317.637 284.362 315.107 286.87 315.107 290.28C315.107 293.778 317.791 296.264 320.959 296.264C322.565 296.264 324.545 295.582 325.557 294.504L324.193 293.096C323.511 293.8 322.125 294.328 320.937 294.328ZM320.871 286.298C322.829 286.298 323.907 287.574 324.149 289.334H317.329C317.681 287.486 319.111 286.298 320.871 286.298ZM333.999 294.328C332.041 294.328 330.655 292.964 330.369 291.072H339.323C339.323 287.002 337.321 284.362 333.845 284.362C330.699 284.362 328.169 286.87 328.169 290.28C328.169 293.778 330.853 296.264 334.021 296.264C335.627 296.264 337.607 295.582 338.619 294.504L337.255 293.096C336.573 293.8 335.187 294.328 333.999 294.328ZM333.933 286.298C335.891 286.298 336.969 287.574 337.211 289.334H330.391C330.743 287.486 332.173 286.298 333.933 286.298ZM348.162 284.362C346.402 284.362 344.994 285.198 344.114 286.584V284.626H341.958V299.784H344.114V294.02C344.994 295.428 346.402 296.264 348.162 296.264C351.154 296.264 353.398 293.8 353.398 290.302C353.398 286.826 351.154 284.362 348.162 284.362ZM347.634 294.372C345.588 294.372 344.114 292.678 344.114 290.302C344.114 287.926 345.588 286.254 347.634 286.254C349.724 286.254 351.198 287.926 351.198 290.302C351.198 292.678 349.724 294.372 347.634 294.372ZM366.106 296H368.152L372.948 284.626H370.594L367.118 293.47L363.576 284.626H361.222L366.106 296ZM376.098 282.734C376.802 282.734 377.396 282.118 377.396 281.414C377.396 280.732 376.802 280.116 376.098 280.116C375.35 280.116 374.778 280.732 374.778 281.414C374.778 282.118 375.35 282.734 376.098 282.734ZM374.998 296H377.176V284.626H374.998V296ZM384.44 296.264C386.926 296.264 388.752 294.9 388.752 292.744C388.752 290.478 386.75 289.862 384.88 289.312C382.966 288.718 382.262 288.454 382.262 287.574C382.262 286.716 383.142 286.232 384.264 286.232C385.254 286.232 386.398 286.606 387.498 287.288L388.466 285.682C387.234 284.868 385.738 284.362 384.264 284.362C381.844 284.362 380.106 285.726 380.128 287.816C380.128 289.664 381.426 290.412 384.044 291.138C385.452 291.534 386.618 291.864 386.618 292.92C386.618 293.8 385.738 294.394 384.462 294.394C383.12 294.394 381.822 293.888 380.612 293.008L379.578 294.57C380.942 295.67 382.768 296.264 384.44 296.264ZM392.361 282.734C393.065 282.734 393.659 282.118 393.659 281.414C393.659 280.732 393.065 280.116 392.361 280.116C391.613 280.116 391.041 280.732 391.041 281.414C391.041 282.118 391.613 282.734 392.361 282.734ZM391.261 296H393.439V284.626H391.261V296ZM401.914 293.954C401.672 294.196 401.232 294.372 400.748 294.372C400.11 294.372 399.582 293.8 399.582 293.008V286.474H402.266V284.626H399.582V281.502H397.448V284.626H395.732V286.474H397.448V293.162C397.448 294.988 398.68 296.264 400.44 296.264C401.254 296.264 402.09 295.956 402.706 295.45L401.914 293.954ZM409.04 296.264C411.526 296.264 413.352 294.9 413.352 292.744C413.352 290.478 411.35 289.862 409.48 289.312C407.566 288.718 406.862 288.454 406.862 287.574C406.862 286.716 407.742 286.232 408.864 286.232C409.854 286.232 410.998 286.606 412.098 287.288L413.066 285.682C411.834 284.868 410.338 284.362 408.864 284.362C406.444 284.362 404.706 285.726 404.728 287.816C404.728 289.664 406.026 290.412 408.644 291.138C410.052 291.534 411.218 291.864 411.218 292.92C411.218 293.8 410.338 294.394 409.062 294.394C407.72 294.394 406.422 293.888 405.212 293.008L404.178 294.57C405.542 295.67 407.368 296.264 409.04 296.264ZM427.502 293.954C427.26 294.196 426.82 294.372 426.336 294.372C425.698 294.372 425.17 293.8 425.17 293.008V286.474H427.854V284.626H425.17V281.502H423.036V284.626H421.32V286.474H423.036V293.162C423.036 294.988 424.268 296.264 426.028 296.264C426.842 296.264 427.678 295.956 428.294 295.45L427.502 293.954ZM435.904 296.264C439.138 296.264 441.866 293.536 441.866 290.302C441.866 287.068 439.138 284.362 435.904 284.362C432.648 284.362 429.898 287.068 429.898 290.302C429.898 293.536 432.648 296.264 435.904 296.264ZM435.904 294.372C433.814 294.372 432.076 292.524 432.076 290.302C432.076 288.102 433.814 286.254 435.904 286.254C437.95 286.254 439.688 288.102 439.688 290.302C439.688 292.524 437.95 294.372 435.904 294.372ZM450.709 296H452.865V280.622H450.709V296ZM461.251 294.328C459.293 294.328 457.907 292.964 457.621 291.072H466.575C466.575 287.002 464.573 284.362 461.097 284.362C457.951 284.362 455.421 286.87 455.421 290.28C455.421 293.778 458.105 296.264 461.273 296.264C462.879 296.264 464.859 295.582 465.871 294.504L464.507 293.096C463.825 293.8 462.439 294.328 461.251 294.328ZM461.185 286.298C463.143 286.298 464.221 287.574 464.463 289.334H457.643C457.995 287.486 459.425 286.298 461.185 286.298ZM473.214 296.264C475.7 296.264 477.526 294.9 477.526 292.744C477.526 290.478 475.524 289.862 473.654 289.312C471.74 288.718 471.036 288.454 471.036 287.574C471.036 286.716 471.916 286.232 473.038 286.232C474.028 286.232 475.172 286.606 476.272 287.288L477.24 285.682C476.008 284.868 474.512 284.362 473.038 284.362C470.618 284.362 468.88 285.726 468.902 287.816C468.902 289.664 470.2 290.412 472.818 291.138C474.226 291.534 475.392 291.864 475.392 292.92C475.392 293.8 474.512 294.394 473.236 294.394C471.894 294.394 470.596 293.888 469.386 293.008L468.352 294.57C469.716 295.67 471.542 296.264 473.214 296.264ZM484.171 296.264C486.657 296.264 488.483 294.9 488.483 292.744C488.483 290.478 486.481 289.862 484.611 289.312C482.697 288.718 481.993 288.454 481.993 287.574C481.993 286.716 482.873 286.232 483.995 286.232C484.985 286.232 486.129 286.606 487.229 287.288L488.197 285.682C486.965 284.868 485.469 284.362 483.995 284.362C481.575 284.362 479.837 285.726 479.859 287.816C479.859 289.664 481.157 290.412 483.775 291.138C485.183 291.534 486.349 291.864 486.349 292.92C486.349 293.8 485.469 294.394 484.193 294.394C482.851 294.394 481.553 293.888 480.343 293.008L479.309 294.57C480.673 295.67 482.499 296.264 484.171 296.264ZM502.633 293.954C502.391 294.196 501.951 294.372 501.467 294.372C500.829 294.372 500.301 293.8 500.301 293.008V286.474H502.985V284.626H500.301V281.502H498.167V284.626H496.451V286.474H498.167V293.162C498.167 294.988 499.399 296.264 501.159 296.264C501.973 296.264 502.809 295.956 503.425 295.45L502.633 293.954ZM511.431 284.362C509.869 284.362 508.483 285.176 507.801 286.32V280.622H505.645V296H507.801V288.938C507.801 287.464 509.231 286.254 510.947 286.254C512.487 286.254 513.565 287.442 513.565 289.136V296H515.699V288.762C515.699 286.188 513.939 284.362 511.431 284.362ZM523.588 284.362C522.334 284.362 520.904 284.692 519.276 285.506L520.068 287.112C521.058 286.606 522.158 286.166 523.28 286.166C525.546 286.166 526.206 287.684 526.206 289.114V289.466C525.106 289.092 523.896 288.85 522.774 288.85C520.266 288.85 518.22 290.368 518.22 292.634C518.22 294.856 520.002 296.264 522.422 296.264C523.808 296.264 525.37 295.626 526.206 294.438V296H528.34V289.114C528.34 286.298 526.646 284.362 523.588 284.362ZM522.84 294.548C521.41 294.548 520.31 293.8 520.31 292.568C520.31 291.336 521.586 290.478 523.104 290.478C524.226 290.478 525.282 290.632 526.206 290.918V292.436C525.832 293.844 524.248 294.548 522.84 294.548ZM537.276 284.362C535.736 284.362 534.35 285.154 533.668 286.276V284.626H531.49V296H533.668V288.63C533.844 287.288 535.208 286.254 536.792 286.254C538.332 286.254 539.41 287.442 539.41 289.136V296H541.544V288.762C541.544 286.188 539.784 284.362 537.276 284.362ZM550.405 296H561.163V293.932H553.925L557.467 290.94C560.063 288.828 561.031 287.222 561.031 285.198C561.031 282.448 558.787 280.622 555.971 280.622C553.573 280.622 551.791 281.722 550.471 283.548L551.967 284.868C553.023 283.504 554.233 282.624 555.883 282.624C557.379 282.624 558.743 283.592 558.743 285.242C558.743 286.606 557.973 287.904 555.949 289.598L550.405 294.174V296ZM570.133 296.264C573.895 296.264 576.579 293.03 576.579 288.432C576.579 283.856 573.895 280.622 570.133 280.622C566.327 280.622 563.665 283.856 563.665 288.432C563.665 293.03 566.327 296.264 570.133 296.264ZM570.133 294.218C567.669 294.218 565.931 291.82 565.931 288.432C565.931 285.044 567.669 282.668 570.133 282.668C572.575 282.668 574.291 285.044 574.291 288.432C574.291 291.82 572.575 294.218 570.133 294.218ZM598.368 284.362C596.652 284.362 595.2 285.242 594.672 286.65C594.012 285.242 592.67 284.362 591.02 284.362C589.568 284.362 588.38 285.088 587.808 286.21V284.626H585.63V296H587.808V288.894C587.808 287.332 588.952 286.254 590.58 286.254C592.01 286.254 593 287.42 593 289.092V296H595.134V288.894C595.134 287.332 596.278 286.254 597.906 286.254C599.336 286.254 600.326 287.42 600.326 289.092V296H602.46V288.762C602.46 286.188 600.744 284.362 598.368 284.362ZM606.668 282.734C607.372 282.734 607.966 282.118 607.966 281.414C607.966 280.732 607.372 280.116 606.668 280.116C605.92 280.116 605.348 280.732 605.348 281.414C605.348 282.118 605.92 282.734 606.668 282.734ZM605.568 296H607.746V284.626H605.568V296ZM616.683 284.362C615.143 284.362 613.757 285.154 613.075 286.276V284.626H610.897V296H613.075V288.63C613.251 287.288 614.615 286.254 616.199 286.254C617.739 286.254 618.817 287.442 618.817 289.136V296H620.951V288.762C620.951 286.188 619.191 284.362 616.683 284.362ZM631.898 284.626V291.996C631.722 293.338 630.358 294.372 628.774 294.372C627.234 294.372 626.156 293.184 626.156 291.49V284.626H624.022V291.864C624.022 294.438 625.782 296.264 628.29 296.264C629.83 296.264 631.216 295.472 631.898 294.35V296H634.076V284.626H631.898ZM642.56 293.954C642.318 294.196 641.878 294.372 641.394 294.372C640.756 294.372 640.228 293.8 640.228 293.008V286.474H642.912V284.626H640.228V281.502H638.094V284.626H636.378V286.474H638.094V293.162C638.094 294.988 639.326 296.264 641.086 296.264C641.9 296.264 642.736 295.956 643.352 295.45L642.56 293.954ZM650.786 294.328C648.828 294.328 647.442 292.964 647.156 291.072H656.11C656.11 287.002 654.108 284.362 650.632 284.362C647.486 284.362 644.956 286.87 644.956 290.28C644.956 293.778 647.64 296.264 650.808 296.264C652.414 296.264 654.394 295.582 655.406 294.504L654.042 293.096C653.36 293.8 651.974 294.328 650.786 294.328ZM650.72 286.298C652.678 286.298 653.756 287.574 653.998 289.334H647.178C647.53 287.486 648.96 286.298 650.72 286.298ZM662.749 296.264C665.235 296.264 667.061 294.9 667.061 292.744C667.061 290.478 665.059 289.862 663.189 289.312C661.275 288.718 660.571 288.454 660.571 287.574C660.571 286.716 661.451 286.232 662.573 286.232C663.563 286.232 664.707 286.606 665.807 287.288L666.775 285.682C665.543 284.868 664.047 284.362 662.573 284.362C660.153 284.362 658.415 285.726 658.437 287.816C658.437 289.664 659.735 290.412 662.353 291.138C663.761 291.534 664.927 291.864 664.927 292.92C664.927 293.8 664.047 294.394 662.771 294.394C661.429 294.394 660.131 293.888 658.921 293.008L657.887 294.57C659.251 295.67 661.077 296.264 662.749 296.264ZM670.956 296.264C671.748 296.264 672.386 295.582 672.386 294.768C672.386 294.02 671.748 293.338 670.956 293.338C670.12 293.338 669.482 294.02 669.482 294.768C669.482 295.582 670.12 296.264 670.956 296.264ZM303.65 344H305.872V338.742H310.008C313.198 338.742 315.618 336.696 315.618 333.814C315.618 330.932 313.198 328.886 310.008 328.886H303.65V344ZM305.872 336.674V330.954H309.7C311.878 330.954 313.352 332.032 313.352 333.814C313.352 335.596 311.878 336.674 309.7 336.674H305.872ZM322.645 332.362C321.391 332.362 319.961 332.692 318.333 333.506L319.125 335.112C320.115 334.606 321.215 334.166 322.337 334.166C324.603 334.166 325.263 335.684 325.263 337.114V337.466C324.163 337.092 322.953 336.85 321.831 336.85C319.323 336.85 317.277 338.368 317.277 340.634C317.277 342.856 319.059 344.264 321.479 344.264C322.865 344.264 324.427 343.626 325.263 342.438V344H327.397V337.114C327.397 334.298 325.703 332.362 322.645 332.362ZM321.897 342.548C320.467 342.548 319.367 341.8 319.367 340.568C319.367 339.336 320.643 338.478 322.161 338.478C323.283 338.478 324.339 338.632 325.263 338.918V340.436C324.889 341.844 323.305 342.548 321.897 342.548ZM335.871 341.954C335.629 342.196 335.189 342.372 334.705 342.372C334.067 342.372 333.539 341.8 333.539 341.008V334.474H336.223V332.626H333.539V329.502H331.405V332.626H329.689V334.474H331.405V341.162C331.405 342.988 332.637 344.264 334.397 344.264C335.211 344.264 336.047 343.956 336.663 343.45L335.871 341.954ZM339.961 330.734C340.665 330.734 341.259 330.118 341.259 329.414C341.259 328.732 340.665 328.116 339.961 328.116C339.213 328.116 338.641 328.732 338.641 329.414C338.641 330.118 339.213 330.734 339.961 330.734ZM338.861 344H341.039V332.626H338.861V344ZM349.403 342.328C347.445 342.328 346.059 340.964 345.773 339.072H354.727C354.727 335.002 352.725 332.362 349.249 332.362C346.103 332.362 343.573 334.87 343.573 338.28C343.573 341.778 346.257 344.264 349.425 344.264C351.031 344.264 353.011 343.582 354.023 342.504L352.659 341.096C351.977 341.8 350.591 342.328 349.403 342.328ZM349.337 334.298C351.295 334.298 352.373 335.574 352.615 337.334H345.795C346.147 335.486 347.577 334.298 349.337 334.298ZM363.038 332.362C361.498 332.362 360.112 333.154 359.43 334.276V332.626H357.252V344H359.43V336.63C359.606 335.288 360.97 334.254 362.554 334.254C364.094 334.254 365.172 335.442 365.172 337.136V344H367.306V336.762C367.306 334.188 365.546 332.362 363.038 332.362ZM375.746 341.954C375.504 342.196 375.064 342.372 374.58 342.372C373.942 342.372 373.414 341.8 373.414 341.008V334.474H376.098V332.626H373.414V329.502H371.28V332.626H369.564V334.474H371.28V341.162C371.28 342.988 372.512 344.264 374.272 344.264C375.086 344.264 375.922 343.956 376.538 343.45L375.746 341.954ZM382.872 344.264C385.358 344.264 387.184 342.9 387.184 340.744C387.184 338.478 385.182 337.862 383.312 337.312C381.398 336.718 380.694 336.454 380.694 335.574C380.694 334.716 381.574 334.232 382.696 334.232C383.686 334.232 384.83 334.606 385.93 335.288L386.898 333.682C385.666 332.868 384.17 332.362 382.696 332.362C380.276 332.362 378.538 333.726 378.56 335.816C378.56 337.664 379.858 338.412 382.476 339.138C383.884 339.534 385.05 339.864 385.05 340.92C385.05 341.8 384.17 342.394 382.894 342.394C381.552 342.394 380.254 341.888 379.044 341.008L378.01 342.57C379.374 343.67 381.2 344.264 382.872 344.264ZM390.815 334.694C392.223 333.088 392.729 332.142 392.729 331.108C392.729 329.898 392.113 329.018 391.145 329.018C390.309 329.018 389.671 329.7 389.671 330.47C389.671 331.284 390.309 331.944 391.101 331.944C390.925 332.626 390.529 333.33 389.891 333.99L390.815 334.694ZM407.833 332.362C406.293 332.362 404.907 333.154 404.225 334.276V332.626H402.047V344H404.225V336.63C404.401 335.288 405.765 334.254 407.349 334.254C408.889 334.254 409.967 335.442 409.967 337.136V344H412.101V336.762C412.101 334.188 410.341 332.362 407.833 332.362ZM420.431 342.328C418.473 342.328 417.087 340.964 416.801 339.072H425.755C425.755 335.002 423.753 332.362 420.277 332.362C417.131 332.362 414.601 334.87 414.601 338.28C414.601 341.778 417.285 344.264 420.453 344.264C422.059 344.264 424.039 343.582 425.051 342.504L423.687 341.096C423.005 341.8 421.619 342.328 420.431 342.328ZM420.365 334.298C422.323 334.298 423.401 335.574 423.643 337.334H416.823C417.175 335.486 418.605 334.298 420.365 334.298ZM433.493 342.328C431.535 342.328 430.149 340.964 429.863 339.072H438.817C438.817 335.002 436.815 332.362 433.339 332.362C430.193 332.362 427.663 334.87 427.663 338.28C427.663 341.778 430.347 344.264 433.515 344.264C435.121 344.264 437.101 343.582 438.113 342.504L436.749 341.096C436.067 341.8 434.681 342.328 433.493 342.328ZM433.427 334.298C435.385 334.298 436.463 335.574 436.705 337.334H429.885C430.237 335.486 431.667 334.298 433.427 334.298ZM450.098 328.622V334.584C449.218 333.198 447.81 332.362 446.05 332.362C443.058 332.362 440.814 334.826 440.814 338.302C440.814 341.8 443.058 344.264 446.05 344.264C447.81 344.264 449.218 343.428 450.098 342.02V344H452.254V328.622H450.098ZM446.578 342.372C444.488 342.372 443.014 340.678 443.014 338.302C443.014 335.926 444.488 334.254 446.578 334.254C448.624 334.254 450.098 335.926 450.098 338.302C450.098 340.678 448.624 342.372 446.578 342.372ZM459.636 344.264C462.122 344.264 463.948 342.9 463.948 340.744C463.948 338.478 461.946 337.862 460.076 337.312C458.162 336.718 457.458 336.454 457.458 335.574C457.458 334.716 458.338 334.232 459.46 334.232C460.45 334.232 461.594 334.606 462.694 335.288L463.662 333.682C462.43 332.868 460.934 332.362 459.46 332.362C457.04 332.362 455.302 333.726 455.324 335.816C455.324 337.664 456.622 338.412 459.24 339.138C460.648 339.534 461.814 339.864 461.814 340.92C461.814 341.8 460.934 342.394 459.658 342.394C458.316 342.394 457.018 341.888 455.808 341.008L454.774 342.57C456.138 343.67 457.964 344.264 459.636 344.264ZM476.557 344H478.603L483.399 332.626H481.045L477.569 341.47L474.027 332.626H471.673L476.557 344ZM489.407 332.362C488.153 332.362 486.723 332.692 485.095 333.506L485.887 335.112C486.877 334.606 487.977 334.166 489.099 334.166C491.365 334.166 492.025 335.684 492.025 337.114V337.466C490.925 337.092 489.715 336.85 488.593 336.85C486.085 336.85 484.039 338.368 484.039 340.634C484.039 342.856 485.821 344.264 488.241 344.264C489.627 344.264 491.189 343.626 492.025 342.438V344H494.159V337.114C494.159 334.298 492.465 332.362 489.407 332.362ZM488.659 342.548C487.229 342.548 486.129 341.8 486.129 340.568C486.129 339.336 487.405 338.478 488.923 338.478C490.045 338.478 491.101 338.632 492.025 338.918V340.436C491.651 341.844 490.067 342.548 488.659 342.548ZM499.597 334.804V332.626H497.419V344H499.597V337.532C499.795 335.552 501.467 334.254 503.821 334.254V332.362C501.863 332.362 500.323 333.308 499.597 334.804ZM507.947 347.96C509.575 347.938 510.785 347.08 511.599 345.034L516.615 332.626H514.349L510.895 341.602L507.243 332.626H504.911L509.795 344.066L509.223 345.276C508.849 345.936 508.365 346.156 507.661 346.156C507.221 346.156 506.715 346.046 506.275 345.804L505.791 347.476C506.385 347.784 507.177 347.96 507.947 347.96ZM529.46 344.264C531.946 344.264 533.772 342.9 533.772 340.744C533.772 338.478 531.77 337.862 529.9 337.312C527.986 336.718 527.282 336.454 527.282 335.574C527.282 334.716 528.162 334.232 529.284 334.232C530.274 334.232 531.418 334.606 532.518 335.288L533.486 333.682C532.254 332.868 530.758 332.362 529.284 332.362C526.864 332.362 525.126 333.726 525.148 335.816C525.148 337.664 526.446 338.412 529.064 339.138C530.472 339.534 531.638 339.864 531.638 340.92C531.638 341.8 530.758 342.394 529.482 342.394C528.14 342.394 526.842 341.888 525.632 341.008L524.598 342.57C525.962 343.67 527.788 344.264 529.46 344.264ZM541.693 344.264C544.927 344.264 547.655 341.536 547.655 338.302C547.655 335.068 544.927 332.362 541.693 332.362C538.437 332.362 535.687 335.068 535.687 338.302C535.687 341.536 538.437 344.264 541.693 344.264ZM541.693 342.372C539.603 342.372 537.865 340.524 537.865 338.302C537.865 336.102 539.603 334.254 541.693 334.254C543.739 334.254 545.477 336.102 545.477 338.302C545.477 340.524 543.739 342.372 541.693 342.372ZM560.612 344.264C563.098 344.264 564.924 342.9 564.924 340.744C564.924 338.478 562.922 337.862 561.052 337.312C559.138 336.718 558.434 336.454 558.434 335.574C558.434 334.716 559.314 334.232 560.436 334.232C561.426 334.232 562.57 334.606 563.67 335.288L564.638 333.682C563.406 332.868 561.91 332.362 560.436 332.362C558.016 332.362 556.278 333.726 556.3 335.816C556.3 337.664 557.598 338.412 560.216 339.138C561.624 339.534 562.79 339.864 562.79 340.92C562.79 341.8 561.91 342.394 560.634 342.394C559.292 342.394 557.994 341.888 556.784 341.008L555.75 342.57C557.114 343.67 558.94 344.264 560.612 344.264ZM573.769 332.362C572.009 332.362 570.601 333.198 569.721 334.584V332.626H567.565V347.784H569.721V342.02C570.601 343.428 572.009 344.264 573.769 344.264C576.761 344.264 579.005 341.8 579.005 338.302C579.005 334.826 576.761 332.362 573.769 332.362ZM573.241 342.372C571.195 342.372 569.721 340.678 569.721 338.302C569.721 335.926 571.195 334.254 573.241 334.254C575.331 334.254 576.805 335.926 576.805 338.302C576.805 340.678 575.331 342.372 573.241 342.372ZM586.849 342.328C584.891 342.328 583.505 340.964 583.219 339.072H592.173C592.173 335.002 590.171 332.362 586.695 332.362C583.549 332.362 581.019 334.87 581.019 338.28C581.019 341.778 583.703 344.264 586.871 344.264C588.477 344.264 590.457 343.582 591.469 342.504L590.105 341.096C589.423 341.8 588.037 342.328 586.849 342.328ZM586.783 334.298C588.741 334.298 589.819 335.574 590.061 337.334H583.241C583.593 335.486 585.023 334.298 586.783 334.298ZM599.471 332.362C598.217 332.362 596.787 332.692 595.159 333.506L595.951 335.112C596.941 334.606 598.041 334.166 599.163 334.166C601.429 334.166 602.089 335.684 602.089 337.114V337.466C600.989 337.092 599.779 336.85 598.657 336.85C596.149 336.85 594.103 338.368 594.103 340.634C594.103 342.856 595.885 344.264 598.305 344.264C599.691 344.264 601.253 343.626 602.089 342.438V344H604.223V337.114C604.223 334.298 602.529 332.362 599.471 332.362ZM598.723 342.548C597.293 342.548 596.193 341.8 596.193 340.568C596.193 339.336 597.469 338.478 598.987 338.478C600.109 338.478 601.165 338.632 602.089 338.918V340.436C601.715 341.844 600.131 342.548 598.723 342.548ZM617.713 332.626H615.073L609.507 338.434V328.622H607.351V344H609.507V341.074L611.333 339.226L614.897 344H617.493L612.807 337.774L617.713 332.626ZM631.131 341.954C630.889 342.196 630.449 342.372 629.965 342.372C629.327 342.372 628.799 341.8 628.799 341.008V334.474H631.483V332.626H628.799V329.502H626.665V332.626H624.949V334.474H626.665V341.162C626.665 342.988 627.897 344.264 629.657 344.264C630.471 344.264 631.307 343.956 631.923 343.45L631.131 341.954ZM639.533 344.264C642.767 344.264 645.495 341.536 645.495 338.302C645.495 335.068 642.767 332.362 639.533 332.362C636.277 332.362 633.527 335.068 633.527 338.302C633.527 341.536 636.277 344.264 639.533 344.264ZM639.533 342.372C637.443 342.372 635.705 340.524 635.705 338.302C635.705 336.102 637.443 334.254 639.533 334.254C641.579 334.254 643.317 336.102 643.317 338.302C643.317 340.524 641.579 342.372 639.533 342.372ZM308.908 374.954C308.666 375.196 308.226 375.372 307.742 375.372C307.104 375.372 306.576 374.8 306.576 374.008V367.474H309.26V365.626H306.576V362.502H304.442V365.626H302.726V367.474H304.442V374.162C304.442 375.988 305.674 377.264 307.434 377.264C308.248 377.264 309.084 376.956 309.7 376.45L308.908 374.954ZM317.706 365.362C316.144 365.362 314.758 366.176 314.076 367.32V361.622H311.92V377H314.076V369.938C314.076 368.464 315.506 367.254 317.222 367.254C318.762 367.254 319.84 368.442 319.84 370.136V377H321.974V369.762C321.974 367.188 320.214 365.362 317.706 365.362ZM330.304 375.328C328.346 375.328 326.96 373.964 326.674 372.072H335.628C335.628 368.002 333.626 365.362 330.15 365.362C327.004 365.362 324.474 367.87 324.474 371.28C324.474 374.778 327.158 377.264 330.326 377.264C331.932 377.264 333.912 376.582 334.924 375.504L333.56 374.096C332.878 374.8 331.492 375.328 330.304 375.328ZM330.238 367.298C332.196 367.298 333.274 368.574 333.516 370.334H326.696C327.048 368.486 328.478 367.298 330.238 367.298ZM350.233 365.362C348.693 365.362 347.307 366.154 346.625 367.276V365.626H344.447V377H346.625V369.63C346.801 368.288 348.165 367.254 349.749 367.254C351.289 367.254 352.367 368.442 352.367 370.136V377H354.501V369.762C354.501 367.188 352.741 365.362 350.233 365.362ZM365.449 365.626V372.996C365.273 374.338 363.909 375.372 362.325 375.372C360.785 375.372 359.707 374.184 359.707 372.49V365.626H357.573V372.864C357.573 375.438 359.333 377.264 361.841 377.264C363.381 377.264 364.767 376.472 365.449 375.35V377H367.627V365.626H365.449ZM373.075 367.804V365.626H370.897V377H373.075V370.532C373.273 368.552 374.945 367.254 377.299 367.254V365.362C375.341 365.362 373.801 366.308 373.075 367.804ZM383.538 377.264C386.024 377.264 387.85 375.9 387.85 373.744C387.85 371.478 385.848 370.862 383.978 370.312C382.064 369.718 381.36 369.454 381.36 368.574C381.36 367.716 382.24 367.232 383.362 367.232C384.352 367.232 385.496 367.606 386.596 368.288L387.564 366.682C386.332 365.868 384.836 365.362 383.362 365.362C380.942 365.362 379.204 366.726 379.226 368.816C379.226 370.664 380.524 371.412 383.142 372.138C384.55 372.534 385.716 372.864 385.716 373.92C385.716 374.8 384.836 375.394 383.56 375.394C382.218 375.394 380.92 374.888 379.71 374.008L378.676 375.57C380.04 376.67 381.866 377.264 383.538 377.264ZM395.595 375.328C393.637 375.328 392.251 373.964 391.965 372.072H400.919C400.919 368.002 398.917 365.362 395.441 365.362C392.295 365.362 389.765 367.87 389.765 371.28C389.765 374.778 392.449 377.264 395.617 377.264C397.223 377.264 399.203 376.582 400.215 375.504L398.851 374.096C398.169 374.8 396.783 375.328 395.595 375.328ZM395.529 367.298C397.487 367.298 398.565 368.574 398.807 370.334H391.987C392.339 368.486 393.769 367.298 395.529 367.298ZM412.73 364.372C412.73 363.58 413.258 363.008 413.896 363.008C414.38 363.008 414.82 363.184 415.062 363.426L415.854 361.974C415.238 361.468 414.402 361.16 413.588 361.16C411.828 361.16 410.596 362.436 410.596 364.262V365.626H408.88V367.474H410.596V377H412.73V367.474H415.414V365.626H412.73V364.372ZM423.056 377.264C426.29 377.264 429.018 374.536 429.018 371.302C429.018 368.068 426.29 365.362 423.056 365.362C419.8 365.362 417.05 368.068 417.05 371.302C417.05 374.536 419.8 377.264 423.056 377.264ZM423.056 375.372C420.966 375.372 419.228 373.524 419.228 371.302C419.228 369.102 420.966 367.254 423.056 367.254C425.102 367.254 426.84 369.102 426.84 371.302C426.84 373.524 425.102 375.372 423.056 375.372ZM433.854 367.804V365.626H431.676V377H433.854V370.532C434.052 368.552 435.724 367.254 438.078 367.254V365.362C436.12 365.362 434.58 366.308 433.854 367.804ZM459.214 365.362C457.498 365.362 456.046 366.242 455.518 367.65C454.858 366.242 453.516 365.362 451.866 365.362C450.414 365.362 449.226 366.088 448.654 367.21V365.626H446.476V377H448.654V369.894C448.654 368.332 449.798 367.254 451.426 367.254C452.856 367.254 453.846 368.42 453.846 370.092V377H455.98V369.894C455.98 368.332 457.124 367.254 458.752 367.254C460.182 367.254 461.172 368.42 461.172 370.092V377H463.306V369.762C463.306 367.188 461.59 365.362 459.214 365.362ZM471.826 377.264C475.06 377.264 477.788 374.536 477.788 371.302C477.788 368.068 475.06 365.362 471.826 365.362C468.57 365.362 465.82 368.068 465.82 371.302C465.82 374.536 468.57 377.264 471.826 377.264ZM471.826 375.372C469.736 375.372 467.998 373.524 467.998 371.302C467.998 369.102 469.736 367.254 471.826 367.254C473.872 367.254 475.61 369.102 475.61 371.302C475.61 373.524 473.872 375.372 471.826 375.372ZM482.624 367.804V365.626H480.446V377H482.624V370.532C482.822 368.552 484.494 367.254 486.848 367.254V365.362C484.89 365.362 483.35 366.308 482.624 367.804ZM494.187 375.328C492.229 375.328 490.843 373.964 490.557 372.072H499.511C499.511 368.002 497.509 365.362 494.033 365.362C490.887 365.362 488.357 367.87 488.357 371.28C488.357 374.778 491.041 377.264 494.209 377.264C495.815 377.264 497.795 376.582 498.807 375.504L497.443 374.096C496.761 374.8 495.375 375.328 494.187 375.328ZM494.121 367.298C496.079 367.298 497.157 368.574 497.399 370.334H490.579C490.931 368.486 492.361 367.298 494.121 367.298ZM509.408 363.734C510.112 363.734 510.706 363.118 510.706 362.414C510.706 361.732 510.112 361.116 509.408 361.116C508.66 361.116 508.088 361.732 508.088 362.414C508.088 363.118 508.66 363.734 509.408 363.734ZM508.308 377H510.486V365.626H508.308V377ZM519.423 365.362C517.883 365.362 516.497 366.154 515.815 367.276V365.626H513.637V377H515.815V369.63C515.991 368.288 517.355 367.254 518.939 367.254C520.479 367.254 521.557 368.442 521.557 370.136V377H523.691V369.762C523.691 367.188 521.931 365.362 519.423 365.362ZM535.563 361.622V367.584C534.683 366.198 533.275 365.362 531.515 365.362C528.523 365.362 526.279 367.826 526.279 371.302C526.279 374.8 528.523 377.264 531.515 377.264C533.275 377.264 534.683 376.428 535.563 375.02V377H537.719V361.622H535.563ZM532.043 375.372C529.953 375.372 528.479 373.678 528.479 371.302C528.479 368.926 529.953 367.254 532.043 367.254C534.089 367.254 535.563 368.926 535.563 371.302C535.563 373.678 534.089 375.372 532.043 375.372ZM542.064 363.734C542.768 363.734 543.362 363.118 543.362 362.414C543.362 361.732 542.768 361.116 542.064 361.116C541.316 361.116 540.744 361.732 540.744 362.414C540.744 363.118 541.316 363.734 542.064 363.734ZM540.964 377H543.142V365.626H540.964V377ZM550.077 377H552.123L556.919 365.626H554.565L551.089 374.47L547.547 365.626H545.193L550.077 377ZM560.068 363.734C560.772 363.734 561.366 363.118 561.366 362.414C561.366 361.732 560.772 361.116 560.068 361.116C559.32 361.116 558.748 361.732 558.748 362.414C558.748 363.118 559.32 363.734 560.068 363.734ZM558.968 377H561.146V365.626H558.968V377ZM573.053 361.622V367.584C572.173 366.198 570.765 365.362 569.005 365.362C566.013 365.362 563.769 367.826 563.769 371.302C563.769 374.8 566.013 377.264 569.005 377.264C570.765 377.264 572.173 376.428 573.053 375.02V377H575.209V361.622H573.053ZM569.533 375.372C567.443 375.372 565.969 373.678 565.969 371.302C565.969 368.926 567.443 367.254 569.533 367.254C571.579 367.254 573.053 368.926 573.053 371.302C573.053 373.678 571.579 375.372 569.533 375.372ZM586.309 365.626V372.996C586.133 374.338 584.769 375.372 583.185 375.372C581.645 375.372 580.567 374.184 580.567 372.49V365.626H578.433V372.864C578.433 375.438 580.193 377.264 582.701 377.264C584.241 377.264 585.627 376.472 586.309 375.35V377H588.487V365.626H586.309ZM596.421 365.362C595.167 365.362 593.737 365.692 592.109 366.506L592.901 368.112C593.891 367.606 594.991 367.166 596.113 367.166C598.379 367.166 599.039 368.684 599.039 370.114V370.466C597.939 370.092 596.729 369.85 595.607 369.85C593.099 369.85 591.053 371.368 591.053 373.634C591.053 375.856 592.835 377.264 595.255 377.264C596.641 377.264 598.203 376.626 599.039 375.438V377H601.172V370.114C601.172 367.298 599.479 365.362 596.421 365.362ZM595.673 375.548C594.243 375.548 593.143 374.8 593.143 373.568C593.143 372.336 594.419 371.478 595.937 371.478C597.059 371.478 598.115 371.632 599.039 371.918V373.436C598.665 374.844 597.081 375.548 595.673 375.548ZM604.322 377H606.478V361.622H604.322V377ZM610.728 363.734C611.432 363.734 612.026 363.118 612.026 362.414C612.026 361.732 611.432 361.116 610.728 361.116C609.98 361.116 609.408 361.732 609.408 362.414C609.408 363.118 609.98 363.734 610.728 363.734ZM609.628 377H611.806V365.626H609.628V377ZM619.071 377.264C621.557 377.264 623.383 375.9 623.383 373.744C623.383 371.478 621.381 370.862 619.511 370.312C617.597 369.718 616.893 369.454 616.893 368.574C616.893 367.716 617.773 367.232 618.895 367.232C619.885 367.232 621.029 367.606 622.129 368.288L623.097 366.682C621.865 365.868 620.369 365.362 618.895 365.362C616.475 365.362 614.737 366.726 614.759 368.816C614.759 370.664 616.057 371.412 618.675 372.138C620.083 372.534 621.249 372.864 621.249 373.92C621.249 374.8 620.369 375.394 619.093 375.394C617.751 375.394 616.453 374.888 615.243 374.008L614.209 375.57C615.573 376.67 617.399 377.264 619.071 377.264ZM631.128 375.328C629.17 375.328 627.784 373.964 627.498 372.072H636.452C636.452 368.002 634.45 365.362 630.974 365.362C627.828 365.362 625.298 367.87 625.298 371.28C625.298 374.778 627.982 377.264 631.15 377.264C632.756 377.264 634.736 376.582 635.748 375.504L634.384 374.096C633.702 374.8 632.316 375.328 631.128 375.328ZM631.062 367.298C633.02 367.298 634.098 368.574 634.34 370.334H627.52C627.872 368.486 629.302 367.298 631.062 367.298ZM647.733 361.622V367.584C646.853 366.198 645.445 365.362 643.685 365.362C640.693 365.362 638.449 367.826 638.449 371.302C638.449 374.8 640.693 377.264 643.685 377.264C645.445 377.264 646.853 376.428 647.733 375.02V377H649.889V361.622H647.733ZM644.213 375.372C642.123 375.372 640.649 373.678 640.649 371.302C640.649 368.926 642.123 367.254 644.213 367.254C646.259 367.254 647.733 368.926 647.733 371.302C647.733 373.678 646.259 375.372 644.213 375.372ZM308.358 398.362C307.104 398.362 305.674 398.692 304.046 399.506L304.838 401.112C305.828 400.606 306.928 400.166 308.05 400.166C310.316 400.166 310.976 401.684 310.976 403.114V403.466C309.876 403.092 308.666 402.85 307.544 402.85C305.036 402.85 302.99 404.368 302.99 406.634C302.99 408.856 304.772 410.264 307.192 410.264C308.578 410.264 310.14 409.626 310.976 408.438V410H313.11V403.114C313.11 400.298 311.416 398.362 308.358 398.362ZM307.61 408.548C306.18 408.548 305.08 407.8 305.08 406.568C305.08 405.336 306.356 404.478 307.874 404.478C308.996 404.478 310.052 404.632 310.976 404.918V406.436C310.602 407.844 309.018 408.548 307.61 408.548ZM325.016 394.622V400.584C324.136 399.198 322.728 398.362 320.968 398.362C317.976 398.362 315.732 400.826 315.732 404.302C315.732 407.8 317.976 410.264 320.968 410.264C322.728 410.264 324.136 409.428 325.016 408.02V410H327.172V394.622H325.016ZM321.496 408.372C319.406 408.372 317.932 406.678 317.932 404.302C317.932 401.926 319.406 400.254 321.496 400.254C323.542 400.254 325.016 401.926 325.016 404.302C325.016 406.678 323.542 408.372 321.496 408.372ZM334.223 410H336.269L341.065 398.626H338.711L335.235 407.47L331.693 398.626H329.339L334.223 410ZM344.215 396.734C344.919 396.734 345.513 396.118 345.513 395.414C345.513 394.732 344.919 394.116 344.215 394.116C343.467 394.116 342.895 394.732 342.895 395.414C342.895 396.118 343.467 396.734 344.215 396.734ZM343.115 410H345.293V398.626H343.115V410ZM353.811 410.264C355.505 410.264 356.979 409.56 358.079 408.438L356.605 407.096C355.901 407.888 354.889 408.372 353.833 408.372C351.743 408.372 350.027 406.524 350.027 404.302C350.027 402.102 351.743 400.254 353.811 400.254C354.867 400.254 355.857 400.716 356.539 401.486L358.013 400.122C356.935 399.044 355.461 398.362 353.833 398.362C350.577 398.362 347.827 401.068 347.827 404.302C347.827 407.536 350.577 410.264 353.811 410.264ZM365.624 408.328C363.666 408.328 362.28 406.964 361.994 405.072H370.948C370.948 401.002 368.946 398.362 365.47 398.362C362.324 398.362 359.794 400.87 359.794 404.28C359.794 407.778 362.478 410.264 365.646 410.264C367.252 410.264 369.232 409.582 370.244 408.504L368.88 407.096C368.198 407.8 366.812 408.328 365.624 408.328ZM365.558 400.298C367.516 400.298 368.594 401.574 368.836 403.334H362.016C362.368 401.486 363.798 400.298 365.558 400.298ZM374.837 410.264C375.629 410.264 376.267 409.582 376.267 408.768C376.267 408.02 375.629 407.338 374.837 407.338C374.001 407.338 373.363 408.02 373.363 408.768C373.363 409.582 374.001 410.264 374.837 410.264Z" fill="#333333"/>
<path fill-rule="evenodd" clip-rule="evenodd" d="M259.489 128.456C266.118 120.302 271.579 114.464 271.579 114.464L259.64 106.932L251.09 117.401L259.489 128.456Z" fill="#B45B52"/>
<path fill-rule="evenodd" clip-rule="evenodd" d="M172.958 105.612C173.09 105.951 173.41 106.685 173.655 107.25L174.483 109.133C175.143 110.432 175.745 111.675 176.367 112.899C177.584 115.385 178.884 117.834 180.265 120.244C182.942 124.96 185.943 129.483 189.248 133.784C192.268 137.776 195.737 141.41 199.586 144.612C201.262 145.962 203.051 147.165 204.934 148.209L206.252 148.868L207.514 149.414C207.947 149.583 208.342 149.677 208.757 149.846L209.077 149.941C209.228 149.941 209.077 149.941 209.077 149.941H208.889C208.531 150.035 209.736 150.053 211.355 149.432C213.328 148.658 215.22 147.693 217.005 146.551C221.491 143.685 225.719 140.434 229.641 136.835C233.802 133.087 237.851 129.001 241.806 124.763C243.802 122.635 245.704 120.413 247.568 118.248C249.433 116.082 251.372 113.728 252.992 111.675L273.819 127.833C271.672 130.563 269.695 132.918 267.624 135.365C265.552 137.813 263.424 140.186 261.277 142.578C256.984 147.323 252.502 151.974 247.662 156.475C242.679 161.224 237.306 165.546 231.599 169.393C228.301 171.588 224.794 173.448 221.129 174.949C218.931 175.833 216.655 176.508 214.331 176.964C211.495 177.546 208.587 177.698 205.706 177.416C204.915 177.322 204.105 177.209 203.277 177.039L202.147 176.795L201.356 176.568C200.301 176.267 199.228 176.004 198.23 175.645L195.236 174.535L192.392 173.273C188.85 171.534 185.472 169.479 182.299 167.134C176.563 162.759 171.322 157.77 166.668 152.258C162.278 147.092 158.239 141.637 154.579 135.93C152.758 133.143 151.02 130.306 149.363 127.419C148.515 125.968 147.724 124.5 146.915 123.012L145.728 120.753C145.314 119.942 144.975 119.302 144.485 118.248L172.958 105.612Z" fill="#00A3FF"/>
<path fill-rule="evenodd" clip-rule="evenodd" d="M172.958 105.612C173.09 105.951 173.41 106.685 173.655 107.25L174.483 109.133C175.143 110.432 175.745 111.675 176.367 112.899C177.584 115.385 178.884 117.834 180.265 120.244C182.942 124.96 185.943 129.483 189.248 133.784C192.268 137.776 195.737 141.41 199.586 144.612C201.262 145.962 203.051 147.165 204.934 148.209L206.252 148.868L207.514 149.414C207.947 149.583 208.342 149.677 208.757 149.846L209.077 149.941C209.228 149.941 209.077 149.941 209.077 149.941H208.889C208.531 150.035 209.736 150.053 211.355 149.432C213.328 148.658 215.22 147.693 217.005 146.551C221.491 143.685 225.719 140.434 229.641 136.835C233.802 133.087 237.851 129.001 241.806 124.763C243.802 122.635 245.704 120.413 247.568 118.248C249.433 116.082 251.372 113.728 252.992 111.675L273.819 127.833C271.672 130.563 269.695 132.918 267.624 135.365C265.552 137.813 263.424 140.186 261.277 142.578C256.984 147.323 252.502 151.974 247.662 156.475C242.679 161.224 237.306 165.546 231.599 169.393C228.301 171.588 224.794 173.448 221.129 174.949C218.931 175.833 216.655 176.508 214.331 176.964C211.495 177.546 208.587 177.698 205.706 177.416C204.915 177.322 204.105 177.209 203.277 177.039L202.147 176.795L201.356 176.568C200.301 176.267 199.228 176.004 198.23 175.645L195.236 174.535L192.392 173.273C188.85 171.534 185.472 169.479 182.299 167.134C176.563 162.759 171.322 157.77 166.668 152.258C162.278 147.092 158.239 141.637 154.579 135.93C152.758 133.143 151.02 130.306 149.363 127.419C148.515 125.968 147.724 124.5 146.915 123.012L145.728 120.753C145.314 119.942 144.975 119.302 144.485 118.248L172.958 105.612Z" fill="#00A3FF"/>
<path fill-rule="evenodd" clip-rule="evenodd" d="M140.701 304.001H110.929L87.8789 419.211H148.667L140.701 304.001Z" fill="#00A3FF"/>
<path fill-rule="evenodd" clip-rule="evenodd" d="M140.701 304.001H110.929L87.8789 419.211H148.667L140.701 304.001Z" fill="white"/>
<path fill-rule="evenodd" clip-rule="evenodd" d="M136.294 572.969H151.793L151.133 608.843H135.635L136.294 572.969Z" fill="#B45B52"/>
<path fill-rule="evenodd" clip-rule="evenodd" d="M56.7313 572.969H72.2303L65.3183 608.843H49.8203L56.7313 572.969Z" fill="#B45B52"/>
<mask id="mask0" mask-type="alpha" maskUnits="userSpaceOnUse" x="45" y="607" width="46" height="18">
<path fill-rule="evenodd" clip-rule="evenodd" d="M45 607.054H90.9445V624.661H45V607.054Z" fill="white"/>
</mask>
<g mask="url(#mask0)">
<path fill-rule="evenodd" clip-rule="evenodd" d="M68.9915 607.995C72.8895 611.441 77.4845 615.038 89.4795 617.656C92.1545 618.239 91.4575 624.661 84.9605 624.661C78.4635 624.661 68.7465 624.172 64.0385 624.172C56.3745 624.172 53.4365 624.529 47.3735 624.623C47.2215 624.626 47.0705 624.613 46.9215 624.587C45.6525 624.357 44.8085 623.143 45.0375 621.874L47.7495 608.108C47.8755 607.492 48.4195 607.05 49.0495 607.054H66.3735C67.3315 607.042 68.2615 607.376 68.9915 607.995Z" fill="#FF1849"/>
</g>
<path fill-rule="evenodd" clip-rule="evenodd" d="M154.73 608.203C165.351 614.682 168.232 614.964 180.416 617.619C183.09 618.203 181.489 624.624 175.125 624.624C164.616 624.624 163.882 624.135 154.918 624.135C147.235 624.135 138.422 624.492 132.321 624.605C132.174 624.605 132.028 624.592 131.885 624.565C130.617 624.326 129.784 623.104 130.023 621.838L132.754 608.109C132.872 607.496 133.41 607.053 134.034 607.055H150.982C152.313 607.089 153.609 607.486 154.73 608.203Z" fill="#FF1849"/>
<path fill-rule="evenodd" clip-rule="evenodd" d="M258.51 110.037L258.341 114.237C264.366 116.633 270.944 117.286 277.322 116.12L275.439 103.202L265.421 103.352C261.706 103.389 258.67 106.326 258.51 110.037Z" fill="#B45B52"/>
<mask id="mask1" mask-type="alpha" maskUnits="userSpaceOnUse" x="275" y="103" width="17" height="14">
<path fill-rule="evenodd" clip-rule="evenodd" d="M275.439 103.202H291.107V116.12H275.439V103.202Z" fill="white"/>
</mask>
<g mask="url(#mask1)">
<path fill-rule="evenodd" clip-rule="evenodd" d="M275.439 103.202L277.36 116.12L289.167 111.958L291.107 103.805L275.439 103.202Z" fill="#B45B52"/>
</g>
<path fill-rule="evenodd" clip-rule="evenodd" d="M136.294 572.988L135.955 591.48H151.453L151.793 572.988H136.294Z" fill="black"/>
<path fill-rule="evenodd" clip-rule="evenodd" d="M53.1533 591.481H68.6523L72.2303 572.989H56.7313L53.1533 591.481Z" fill="black"/>
<path fill-rule="evenodd" clip-rule="evenodd" d="M159.551 97.9855C154.785 96.6755 149.915 95.7815 144.994 95.3115C133.459 94.2375 121.869 93.8595 110.288 94.1815C106.917 94.3505 103.509 94.6525 100.289 95.0095C99.9481 95.0485 99.6091 95.0975 99.2721 95.1585C90.3221 96.7445 84.3521 105.287 85.9391 114.237C95.2601 168.603 89.9881 220.822 90.7981 232.366H173.655C182.073 166.475 174.371 125.046 170.078 108.625C168.731 103.447 164.714 99.3865 159.551 97.9855Z" fill="white"/>
<path fill-rule="evenodd" clip-rule="evenodd" d="M135.183 66.7261C133.187 75.5391 132.923 91.1691 145.634 94.1821C145.634 94.1821 155.464 105.669 136.219 105.669C115.165 105.669 110.326 94.1821 110.326 94.1821C118.046 86.6121 116.597 72.5441 114.092 61.2461L135.183 66.7261Z" fill="#B45B52"/>
<path fill-rule="evenodd" clip-rule="evenodd" d="M136.961 103.883C136.393 103.428 135.563 103.519 135.108 104.087L130.362 109.491C129.998 109.97 129.998 110.633 130.362 111.112L133.3 115.423C133.563 115.818 134.013 116.046 134.486 116.027L139.401 115.781C139.938 115.76 140.403 115.406 140.569 114.897L142.019 110.452C142.173 109.994 142.065 109.488 141.736 109.134L137.179 104.106C137.115 104.024 137.042 103.948 136.961 103.883Z" fill="#FF1849"/>
<path fill-rule="evenodd" clip-rule="evenodd" d="M135.504 115.743C135.9 125.573 134.826 162.916 135.712 180.429C136.596 197.942 141.775 207.734 141.775 207.734C144.498 199.026 145.932 189.967 146.031 180.844C145.861 171.182 138.329 115.743 138.329 115.743H135.504Z" fill="#FF1849"/>
<path fill-rule="evenodd" clip-rule="evenodd" d="M114.092 61.2451C114.525 63.1471 114.902 65.1051 115.241 67.1211C117.35 74.7471 119.572 78.3251 125.316 81.9781C127.896 83.6171 134.11 86.0091 135.616 85.3491C133.319 79.3981 133.884 71.9041 135.07 66.7441L114.092 61.2451Z" fill="black"/>
<path fill-rule="evenodd" clip-rule="evenodd" d="M155.317 53.3303C155.527 49.6023 152.676 46.4103 148.949 46.1993C143.977 46.0673 140.719 52.2813 140.061 56.5943C139.307 61.3963 142.339 65.5013 147.028 63.6183C150.552 62.1313 153.329 59.2873 154.73 55.7273C155.071 54.9723 155.27 54.1593 155.317 53.3303Z" fill="#B45B52"/>
<path fill-rule="evenodd" clip-rule="evenodd" d="M155.317 53.3303C155.527 49.6023 152.676 46.4103 148.949 46.1993C143.977 46.0673 140.719 52.2813 140.061 56.5943C139.307 61.3963 142.339 65.5013 147.028 63.6183C150.552 62.1313 153.329 59.2873 154.73 55.7273C155.071 54.9723 155.27 54.1593 155.317 53.3303Z" fill="black"/>
<path fill-rule="evenodd" clip-rule="evenodd" d="M141.679 25.6914C145.897 25.1274 150.021 30.0604 150.926 36.7084C151.829 43.3554 149.137 49.1934 144.918 49.7584C140.7 50.3234 136.557 45.3894 135.672 38.7604C134.73 32.1134 137.461 26.2564 141.679 25.6914Z" fill="#1A2E35"/>
<path fill-rule="evenodd" clip-rule="evenodd" d="M106.439 36.3988C108.992 25.3638 120.006 18.4888 131.041 21.0408C146.859 24.6188 153.168 46.8398 152.508 61.0388C151.793 76.8198 134.562 86.9138 120.966 77.1018C111.908 70.5868 110.439 61.6228 106.673 46.5568C105.744 43.2448 105.664 39.7508 106.439 36.3988Z" fill="#B45B52"/>
<path fill-rule="evenodd" clip-rule="evenodd" d="M97.1257 31.3607C86.8057 38.4407 102.286 63.4677 107.521 64.8047C109.162 67.7727 111.846 70.0277 115.053 71.1317C115.053 71.1317 108.82 57.9877 111.739 59.4377C120.496 51.6607 114.093 36.5947 114.093 36.5947C114.093 36.5947 133.47 35.7667 142.076 30.3997C150.682 25.0337 140.702 17.6707 131.681 15.7867C119.573 13.1697 99.0837 16.7657 97.1257 31.3607Z" fill="#1A2E35"/>
<path fill-rule="evenodd" clip-rule="evenodd" d="M109.46 55.3889C109.354 55.1449 109.462 54.8599 109.705 54.7489L123.282 48.5349C123.321 48.5099 123.364 48.4909 123.409 48.4779C123.668 48.4039 123.939 48.5539 124.014 48.8149C124.088 49.0749 123.938 49.3449 123.678 49.4189L110.119 55.6339H109.912C109.727 55.6449 109.552 55.5499 109.46 55.3889Z" fill="white"/>
<path fill-rule="evenodd" clip-rule="evenodd" d="M104.996 53.6C109.591 51.849 114.92 56.669 117.123 60.436C119.572 64.692 118.253 69.57 113.15 69.306C109.272 69.063 105.642 67.313 103.038 64.428C99.8934 60.87 100.401 55.352 104.996 53.6Z" fill="#B45B52"/>
<path fill-rule="evenodd" clip-rule="evenodd" d="M119.177 232.366C119.177 232.366 128.329 346.559 130.89 399.175C133.244 447.42 130.89 587.884 130.89 587.884H157.122C157.122 587.884 177.554 444.557 178.1 395.427C178.628 348.179 173.656 232.366 173.656 232.366H119.177Z" fill="#1A2E35"/>
<path fill-rule="evenodd" clip-rule="evenodd" d="M161.152 575.248L159.42 588.43H129.176C129.176 588.43 129.534 576.302 129.666 576.302L161.152 575.248Z" fill="#1A2E35"/>
<path fill-rule="evenodd" clip-rule="evenodd" d="M123.602 289.764C125.881 319.876 128.461 356.126 130.042 383.544C136.464 355.41 139.063 320.497 138.159 263.024L123.602 289.764Z" fill="black"/>
<path fill-rule="evenodd" clip-rule="evenodd" d="M90.8352 232.442C90.8352 232.442 79.9512 347.388 74.6972 399.57C69.8382 447.59 47.4482 587.884 47.4482 587.884H75.8272C75.8272 587.884 111.606 443.655 121.022 395.088C129.571 350.741 144.26 232.367 144.26 232.367L90.8352 232.442Z" fill="#1A2E35"/>
<path fill-rule="evenodd" clip-rule="evenodd" d="M80.6286 575.775L77.2016 588.429H46.0166C46.0166 588.429 47.9936 576.942 48.1256 576.942L80.6286 575.775Z" fill="#1A2E35"/>
<path fill-rule="evenodd" clip-rule="evenodd" d="M131.266 44.4671C132.076 44.3351 132.923 45.2201 133.149 46.4631C133.375 47.7061 132.923 48.8171 132.113 48.9481C131.304 49.0801 130.475 48.1961 130.23 46.9521C130.023 45.7101 130.456 44.5991 131.266 44.4671Z" fill="#1A2E35"/>
<path fill-rule="evenodd" clip-rule="evenodd" d="M146.463 40.889C147.273 40.757 148.12 41.642 148.346 42.885C148.572 44.128 148.12 45.24 147.311 45.37C146.501 45.502 145.653 44.618 145.427 43.374C145.201 42.132 145.653 41.021 146.463 40.889Z" fill="#1A2E35"/>
<path fill-rule="evenodd" clip-rule="evenodd" d="M142.678 57.8374C144.782 57.7664 146.744 56.7574 148.026 55.0884C144.68 52.6304 141.678 49.7364 139.1 46.4824L142.678 57.8374Z" fill="#9F2724"/>
<path fill-rule="evenodd" clip-rule="evenodd" d="M129.778 58.967C129.643 58.821 129.652 58.594 129.797 58.458C129.943 58.323 130.17 58.332 130.305 58.478C132.625 60.612 135.812 61.531 138.911 60.963C139.113 60.929 139.306 61.063 139.344 61.265C139.38 61.461 139.256 61.651 139.062 61.697C135.708 62.335 132.253 61.319 129.778 58.967Z" fill="#1A2E35"/>
<path fill-rule="evenodd" clip-rule="evenodd" d="M122.34 42.8855C121.965 42.7295 121.776 42.3095 121.906 41.9255C122.694 39.7115 124.54 38.0415 126.821 37.4815C127.22 37.4105 127.603 37.6685 127.688 38.0655C127.769 38.4595 127.517 38.8465 127.123 38.9315C125.365 39.4375 123.962 40.7645 123.357 42.4895C123.276 42.7065 123.092 42.8685 122.867 42.9235C122.693 42.9745 122.505 42.9615 122.34 42.8855Z" fill="#1A2E35"/>
<path fill-rule="evenodd" clip-rule="evenodd" d="M148.478 37.1984C147.34 35.7024 145.555 34.8414 143.676 34.8824H143.668C143.265 34.9224 142.905 34.6264 142.866 34.2224C142.866 34.2194 142.865 34.2144 142.865 34.2104C142.816 33.8174 143.095 33.4614 143.488 33.4134C145.862 33.3434 148.13 34.3964 149.608 36.2564C149.883 36.5474 149.883 37.0014 149.608 37.2924C149.53 37.3674 149.432 37.4204 149.325 37.4424C149.02 37.5464 148.682 37.4484 148.478 37.1984Z" fill="#1A2E35"/>
<path fill-rule="evenodd" clip-rule="evenodd" d="M128.838 40.2289C127.302 40.5139 125.945 41.4019 125.072 42.6959C123.925 44.4259 123.506 46.5359 123.904 48.5719C124.329 52.3249 127.674 55.0529 131.436 54.7109C132.971 54.4239 134.326 53.5349 135.203 52.2439C136.343 50.5129 136.755 48.4019 136.351 46.3689C135.912 42.9929 133.156 40.3949 129.761 40.1539C129.451 40.1529 129.142 40.1789 128.838 40.2289ZM122.943 48.7409C122.499 46.4569 122.973 44.0889 124.262 42.1499C125.28 40.6499 126.85 39.6139 128.631 39.2699C132.926 38.8379 136.781 41.9139 137.312 46.1989C137.765 48.4839 137.29 50.8549 135.994 52.7899C134.98 54.2949 133.407 55.3319 131.625 55.6709C131.257 55.7299 130.886 55.7619 130.514 55.7659C126.64 55.5239 123.474 52.5859 122.943 48.7409Z" fill="white"/>
<path fill-rule="evenodd" clip-rule="evenodd" d="M136.577 46.6891C136.576 46.6891 136.575 46.6881 136.575 46.6881C136.347 46.5421 136.28 46.2391 136.426 46.0111C137.34 44.3581 139.316 43.6091 141.097 44.2421C141.339 44.3521 141.448 44.6371 141.341 44.8811C141.23 45.1241 140.951 45.2391 140.701 45.1451C139.355 44.6731 137.869 45.2801 137.236 46.5571C137.145 46.6861 136.998 46.7631 136.841 46.7641C136.747 46.7691 136.654 46.7431 136.577 46.6891Z" fill="white"/>
<path fill-rule="evenodd" clip-rule="evenodd" d="M146.294 36.2559C144.762 36.5479 143.407 37.4349 142.528 38.7229C141.376 40.4489 140.956 42.5629 141.36 44.5989C141.785 48.3529 145.13 51.0789 148.893 50.7369C150.428 50.4539 151.786 49.5659 152.659 48.2709C153.813 46.5449 154.233 44.4309 153.827 42.3959C153.387 39.0199 150.631 36.4209 147.235 36.1809C146.92 36.1789 146.605 36.2039 146.294 36.2559ZM140.419 44.7869C139.973 42.4959 140.447 40.1219 141.737 38.1769C142.746 36.6719 144.322 35.6389 146.106 35.3149C150.398 34.8719 154.256 37.9429 154.787 42.2259C155.232 44.5109 154.758 46.8789 153.469 48.8169C152.456 50.3209 150.882 51.3599 149.1 51.6979C148.726 51.7579 148.349 51.7889 147.97 51.7919C144.107 51.5509 140.949 48.6209 140.419 44.7869Z" fill="white"/>
<path fill-rule="evenodd" clip-rule="evenodd" d="M73.7928 606.545C71.9438 606.919 70.1848 607.648 68.6138 608.692C71.2698 609.22 73.2838 609.125 74.1128 608.409C74.4858 608.072 74.6628 607.569 74.5838 607.072C74.5908 606.894 74.4958 606.726 74.3388 606.64C74.1898 606.576 74.0298 606.544 73.8678 606.545H73.7928ZM67.5788 609.257C67.4298 609.227 67.3168 609.106 67.2958 608.956C67.2568 608.811 67.3178 608.657 67.4468 608.579C68.0118 608.24 72.9448 605.171 74.6588 606.037C75.0488 606.248 75.2988 606.649 75.3178 607.092C75.3968 607.798 75.1308 608.499 74.6028 608.975C73.7318 609.558 72.6898 609.83 71.6458 609.747C70.2758 609.737 68.9118 609.573 67.5788 609.257Z" fill="#00A3FF"/>
<path fill-rule="evenodd" clip-rule="evenodd" d="M69.7251 603.307C68.6751 604.715 68.0781 606.41 68.0121 608.165C69.5751 606.96 71.4761 604.38 71.2691 603.364C71.2501 603.269 71.1941 603.005 70.7231 603.005H70.5541C70.2501 603.003 69.9561 603.11 69.7251 603.307ZM67.5791 609.277C67.3781 609.244 67.2251 609.082 67.2021 608.881C67.2211 608.673 67.4841 604.21 69.2351 602.742C69.6651 602.37 70.2341 602.198 70.7981 602.271C71.3671 602.282 71.8561 602.677 71.9851 603.232C72.3621 604.964 69.3291 608.354 67.7481 609.22C67.6931 609.239 67.6331 609.239 67.5791 609.22V609.277Z" fill="#00A3FF"/>
<path fill-rule="evenodd" clip-rule="evenodd" d="M153.75 608.674C157.196 609.257 159.739 609.107 160.661 608.259C160.998 607.963 161.154 607.514 161.076 607.072C161.077 606.91 160.991 606.759 160.85 606.677C160.629 606.587 160.392 606.542 160.153 606.545C157.914 606.887 155.748 607.606 153.75 608.674ZM152.621 609.2C152.499 609.187 152.393 609.111 152.34 609C152.254 608.822 152.329 608.609 152.507 608.523C153.204 608.146 159.381 604.983 161.264 606.056C161.625 606.245 161.86 606.61 161.885 607.017C161.991 607.683 161.75 608.358 161.245 608.805C160.139 609.552 158.808 609.892 157.479 609.766C155.845 609.729 154.219 609.539 152.621 609.2Z" fill="#00A3FF"/>
<path fill-rule="evenodd" clip-rule="evenodd" d="M154.994 603.458C153.886 604.819 153.228 606.49 153.111 608.241C154.994 607.093 157.442 604.456 157.254 603.42C157.235 603.326 157.179 603.006 156.519 603.006H156.293C155.819 602.987 155.354 603.148 154.994 603.458ZM152.395 609.183C152.297 609.098 152.242 608.974 152.244 608.844C152.264 608.674 152.621 604.493 154.504 602.874C155.057 602.39 155.79 602.163 156.519 602.253C157.536 602.347 157.913 602.874 157.913 603.27C158.233 605.04 154.655 608.373 152.772 609.221H152.621C152.544 609.225 152.467 609.212 152.395 609.183Z" fill="#00A3FF"/>
<path fill-rule="evenodd" clip-rule="evenodd" d="M142.075 156.326C144.833 184.259 144.732 212.401 141.774 240.313C134.148 304.542 120.53 367.915 101.098 429.605L60.4043 422.47C60.4043 422.47 81.0613 261.932 82.5493 232.367C85.5063 173.744 81.8153 135.423 80.9113 107.534C80.7013 101.344 85.2683 96.0225 91.4193 95.2935L109.308 93.1455L142.075 156.326Z" fill="#00A3FF"/>
<path fill-rule="evenodd" clip-rule="evenodd" d="M142.075 156.326C144.833 184.259 144.732 212.401 141.774 240.313C134.148 304.542 120.53 367.915 101.098 429.605L60.4043 422.47C60.4043 422.47 81.0613 261.932 82.5493 232.367C85.5063 173.744 81.8153 135.423 80.9113 107.534C80.7013 101.344 85.2683 96.0225 91.4193 95.2935L109.308 93.1455L142.075 156.326Z" fill="#00A3FF"/>
<path fill-rule="evenodd" clip-rule="evenodd" d="M82.5684 141.316C82.9824 149.714 83.3404 158.867 83.5664 168.885C91.4944 154.197 94.6954 132.918 94.6954 128.737L82.5684 141.316Z" fill="#417BFE"/>
<path fill-rule="evenodd" clip-rule="evenodd" d="M164.466 149.622L165.295 150.639C169.583 155.873 174.362 160.685 179.569 165.007C180.981 166.137 182.45 167.248 183.994 168.321C180.623 148.003 173.995 129.397 171.697 125.01L164.466 149.622Z" fill="#417BFE"/>
<path fill-rule="evenodd" clip-rule="evenodd" d="M140.136 152.71C138.989 181.918 139.511 211.166 141.699 240.314C150.23 338.52 156.67 426.914 156.67 426.914L182.036 422.47C182.036 422.47 183.373 261.913 181.49 232.367C180.153 210.579 177.704 148.059 176.499 116.762C176.107 106.23 168.128 97.5406 157.668 96.2536L147.104 94.9736L140.136 152.71Z" fill="#00A3FF"/>
<path fill-rule="evenodd" clip-rule="evenodd" d="M140.136 152.71C138.989 181.918 139.511 211.166 141.699 240.314C150.23 338.52 156.67 426.914 156.67 426.914L182.036 422.47C182.036 422.47 183.373 261.913 181.49 232.367C180.153 210.579 177.704 148.059 176.499 116.762C176.107 106.23 168.128 97.5406 157.668 96.2536L147.104 94.9736L140.136 152.71Z" fill="#00A3FF"/>
<path fill-rule="evenodd" clip-rule="evenodd" d="M112.717 89.6055C110.457 91.4135 106.691 93.6355 106.691 93.6355C105.806 107.25 130.531 115.743 130.531 115.743C131.923 111.501 133.82 107.442 136.181 103.653C113.847 98.1925 112.736 89.6055 112.717 89.6055Z" fill="#F4F4F4"/>
<path fill-rule="evenodd" clip-rule="evenodd" d="M142.641 92.0352C144.959 92.5732 147.232 93.2912 149.439 94.1812C151.958 101.567 149.443 109.735 143.206 114.425C141.363 110.533 139 106.91 136.182 103.653C144.43 100.734 142.641 92.0352 142.641 92.0352Z" fill="#F4F4F4"/>
<path fill-rule="evenodd" clip-rule="evenodd" d="M101.513 255.473L82.1543 264.945L110.495 240.596L101.513 255.473Z" fill="#417BFE"/>
<path fill-rule="evenodd" clip-rule="evenodd" d="M106.653 121.507C105.843 122.43 104.864 123.748 103.96 124.915L101.211 128.588C99.4031 131.055 97.6331 133.578 95.9191 136.12C92.5491 141.224 89.3661 146.458 86.5041 151.732C83.7051 156.822 81.3061 162.124 79.3291 167.587C77.5451 172.259 76.5221 177.186 76.2971 182.182C76.4091 187.31 77.3041 192.39 78.9521 197.246C80.7371 202.756 82.9861 208.105 85.6751 213.235C88.4781 218.6 91.5781 223.806 94.9591 228.827C96.6731 231.426 98.4051 233.911 100.288 236.36L103.075 239.975C103.904 241.143 105.034 242.423 105.787 243.327L85.8821 260.596C84.5271 259.014 83.4901 257.734 82.3981 256.359C81.3061 254.984 80.2331 253.59 79.1971 252.196C77.1131 249.422 75.0921 246.598 73.1331 243.723C69.1341 237.947 65.4571 231.956 62.1171 225.777C58.6091 219.386 55.6361 212.715 53.2291 205.834C50.5701 198.356 49.0411 190.525 48.6901 182.596C48.6121 178.395 48.9341 174.195 49.6511 170.054C50.3281 166.231 51.2591 162.456 52.4381 158.755C54.6511 151.832 57.3631 145.079 60.5541 138.549C63.6421 132.165 66.9941 126.065 70.5531 120.095C72.3231 117.119 74.1501 114.175 76.0331 111.263L78.9151 106.912C79.9311 105.425 80.8351 104.107 82.0411 102.431L106.653 121.507Z" fill="#00A3FF"/>
<path fill-rule="evenodd" clip-rule="evenodd" d="M106.653 121.507C105.843 122.43 104.864 123.748 103.96 124.915L101.211 128.588C99.4031 131.055 97.6331 133.578 95.9191 136.12C92.5491 141.224 89.3661 146.458 86.5041 151.732C83.7051 156.822 81.3061 162.124 79.3291 167.587C77.5451 172.259 76.5221 177.186 76.2971 182.182C76.4091 187.31 77.3041 192.39 78.9521 197.246C80.7371 202.756 82.9861 208.105 85.6751 213.235C88.4781 218.6 91.5781 223.806 94.9591 228.827C96.6731 231.426 98.4051 233.911 100.288 236.36L103.075 239.975C103.904 241.143 105.034 242.423 105.787 243.327L85.8821 260.596C84.5271 259.014 83.4901 257.734 82.3981 256.359C81.3061 254.984 80.2331 253.59 79.1971 252.196C77.1131 249.422 75.0921 246.598 73.1331 243.723C69.1341 237.947 65.4571 231.956 62.1171 225.777C58.6091 219.386 55.6361 212.715 53.2291 205.834C50.5701 198.356 49.0411 190.525 48.6901 182.596C48.6121 178.395 48.9341 174.195 49.6511 170.054C50.3281 166.231 51.2591 162.456 52.4381 158.755C54.6511 151.832 57.3631 145.079 60.5541 138.549C63.6421 132.165 66.9941 126.065 70.5531 120.095C72.3231 117.119 74.1501 114.175 76.0331 111.263L78.9151 106.912C79.9311 105.425 80.8351 104.107 82.0411 102.431L106.653 121.507Z" fill="#00A3FF"/>
<path fill-rule="evenodd" clip-rule="evenodd" d="M107.108 134.123C106.562 131.581 108.18 129.077 110.722 128.531C113.834 127.839 116.999 129.46 118.254 132.392C118.392 132.694 118.497 133.012 118.568 133.337C119.125 135.888 117.509 138.406 114.959 138.964C111.842 139.645 108.681 138.018 107.426 135.084C107.286 134.776 107.179 134.454 107.108 134.123Z" fill="#1A2E35"/>
<path fill-rule="evenodd" clip-rule="evenodd" d="M107.108 134.123C106.562 131.581 108.18 129.077 110.722 128.531C113.834 127.839 116.999 129.46 118.254 132.392C118.392 132.694 118.497 133.012 118.568 133.337C119.125 135.888 117.509 138.406 114.959 138.964C111.842 139.645 108.681 138.018 107.426 135.084C107.286 134.776 107.179 134.454 107.108 134.123Z" fill="white"/>
<path fill-rule="evenodd" clip-rule="evenodd" d="M113.038 131.92C98.6126 111.864 102.756 93.918 102.756 93.748C102.763 93.676 102.78 93.604 102.808 93.535C102.96 93.16 103.388 92.979 103.764 93.131C104.14 93.283 104.321 93.712 104.169 94.087C104.131 94.257 100.214 111.582 114.225 131.072C114.455 131.4 114.38 131.854 114.055 132.089C113.928 132.178 113.777 132.224 113.622 132.221C113.389 132.228 113.168 132.114 113.038 131.92Z" fill="#1A2E35"/>
<path fill-rule="evenodd" clip-rule="evenodd" d="M162.413 122.316C162.015 122.286 161.713 121.943 161.735 121.545C163.204 103.315 153.449 96.3853 153.355 96.3853C153.017 96.1623 152.925 95.7073 153.148 95.3693C153.384 95.0463 153.83 94.9633 154.165 95.1803C154.598 95.4623 164.729 102.524 163.204 121.657C163.166 122.037 162.85 122.328 162.47 122.335L162.413 122.316Z" fill="#1A2E35"/>
<path fill-rule="evenodd" clip-rule="evenodd" d="M109.22 133.777C108.638 131.232 110.23 128.697 112.774 128.115C115.863 127.41 119.019 128.988 120.307 131.881C120.452 132.197 120.562 132.528 120.635 132.868C121.177 135.411 119.554 137.912 117.012 138.454C113.896 139.128 110.74 137.502 109.479 134.575C109.369 134.317 109.282 134.049 109.22 133.777Z" fill="#1A2E35"/>
<path fill-rule="evenodd" clip-rule="evenodd" d="M109.22 133.777C108.638 131.232 110.23 128.697 112.774 128.115C115.863 127.41 119.019 128.988 120.307 131.881C120.452 132.197 120.562 132.528 120.635 132.868C121.177 135.411 119.554 137.912 117.012 138.454C113.896 139.128 110.74 137.502 109.479 134.575C109.369 134.317 109.282 134.049 109.22 133.777Z" fill="white"/>
<path fill-rule="evenodd" clip-rule="evenodd" d="M112.482 133.075C112.187 131.734 113.034 130.408 114.375 130.112C116.014 129.758 117.677 130.608 118.348 132.146C118.418 132.302 118.471 132.464 118.508 132.63C118.803 133.971 117.956 135.297 116.615 135.593C114.975 135.956 113.307 135.102 112.642 133.558C112.572 133.403 112.519 133.241 112.482 133.075Z" fill="white"/>
<path fill-rule="evenodd" clip-rule="evenodd" d="M149.834 160.355L148.44 135.875C148.415 135.512 148.404 135.15 148.408 134.787C148.478 127.09 154.774 120.909 162.47 120.979C170.748 121.078 177.56 127.521 178.119 135.781L179.531 160.261C179.542 160.417 179.546 160.572 179.544 160.727C179.516 164.149 176.719 166.9 173.298 166.872C172.896 166.861 172.573 166.539 172.563 166.136C172.563 165.731 172.892 165.402 173.298 165.402C173.447 165.405 173.596 165.401 173.745 165.389C176.338 165.191 178.279 162.929 178.081 160.336L176.668 135.856C176.159 128.364 169.979 122.52 162.47 122.429C162.146 122.426 161.822 122.435 161.499 122.458C154.619 122.925 149.422 128.882 149.89 135.761L151.284 160.243C151.54 163.091 153.886 165.299 156.745 165.383H156.764C157.159 165.394 157.471 165.723 157.46 166.118C157.46 166.516 157.143 166.842 156.745 166.852C153.103 166.813 150.098 163.989 149.834 160.355Z" fill="#1A2E35"/>
<path fill-rule="evenodd" clip-rule="evenodd" d="M173.166 163.971C173.844 163.971 174.428 164.95 174.503 166.117C174.578 167.285 174.07 168.245 173.411 168.245C172.751 168.245 172.092 167.285 172.092 166.117C172.017 164.931 172.488 163.971 173.166 163.971Z" fill="#1A2E35"/>
<path fill-rule="evenodd" clip-rule="evenodd" d="M156.613 163.971C157.291 163.971 157.875 164.95 157.95 166.117C158.025 167.285 157.535 168.245 156.858 168.245C156.18 168.245 155.521 167.285 155.521 166.117C155.464 164.931 155.935 163.971 156.613 163.971Z" fill="#1A2E35"/>
<path d="M365.792 148.288C368.432 148.288 370.832 147.16 372.488 145.36L369.08 142.384C368.288 143.392 367.112 144.064 365.792 144.064C363.536 144.064 361.616 142.096 361.616 139.744C361.616 137.416 363.536 135.448 365.792 135.448C367.088 135.448 368.288 136.12 369.056 137.128L372.488 134.128C370.832 132.352 368.432 131.224 365.792 131.224C360.92 131.224 356.816 135.112 356.816 139.744C356.816 144.376 360.92 148.288 365.792 148.288ZM374.481 148H379.137V131.512H374.481V148ZM390.448 148.288C393.088 148.288 395.488 147.16 397.144 145.36L393.736 142.384C392.944 143.392 391.768 144.064 390.448 144.064C388.192 144.064 386.272 142.096 386.272 139.744C386.272 137.416 388.192 135.448 390.448 135.448C391.744 135.448 392.944 136.12 393.712 137.128L397.144 134.128C395.488 132.352 393.088 131.224 390.448 131.224C385.576 131.224 381.472 135.112 381.472 139.744C381.472 144.376 385.576 148.288 390.448 148.288ZM406.746 148.288C411.354 148.288 414.594 145.144 414.594 140.68V131.512H409.938V140.44C409.938 142.552 408.618 144.064 406.746 144.064C404.874 144.064 403.554 142.552 403.554 140.44V131.512H398.898V140.68C398.898 145.144 402.138 148.288 406.746 148.288ZM423.31 143.224H430.126V139.432H423.31V143.224ZM450.282 131.512L446.586 141.16L442.866 131.512H437.61L443.946 148H449.202L455.538 131.512H450.282ZM459.235 134.272C460.531 134.272 461.587 133.168 461.587 131.872C461.587 130.624 460.531 129.52 459.235 129.52C457.891 129.52 456.835 130.624 456.835 131.872C456.835 133.168 457.891 134.272 459.235 134.272ZM456.883 148H461.515V135.592H456.883V148ZM469.02 148.288C472.38 148.288 474.42 146.656 474.42 144.088C474.42 141.16 471.828 140.416 469.572 139.912C468.324 139.624 467.772 139.552 467.772 139.144C467.772 138.784 468.204 138.448 468.852 138.448C470.028 138.448 471.444 139.096 472.476 139.768L474.036 136.936C472.62 136 470.772 135.304 468.852 135.304C465.612 135.304 463.668 137.176 463.668 139.576C463.668 142.504 466.188 143.056 468.444 143.536C469.596 143.776 470.316 144.016 470.316 144.448C470.316 144.856 470.004 145.072 469.14 145.072C467.82 145.072 466.044 144.448 464.844 143.608L463.116 146.416C464.628 147.592 466.86 148.288 469.02 148.288ZM478.664 134.272C479.96 134.272 481.016 133.168 481.016 131.872C481.016 130.624 479.96 129.52 478.664 129.52C477.32 129.52 476.264 130.624 476.264 131.872C476.264 133.168 477.32 134.272 478.664 134.272ZM476.312 148H480.944V135.592H476.312V148ZM490.873 144.088C490.633 144.304 490.177 144.448 489.745 144.448C489.121 144.448 488.689 143.92 488.689 143.176V139.24H491.137V135.592H488.689V132.184H484.273V135.592H482.713V139.24H484.273V144.088C484.273 146.56 486.001 148.288 488.473 148.288C489.577 148.288 490.897 147.76 491.665 147.016L490.873 144.088ZM495.938 134.272C497.234 134.272 498.29 133.168 498.29 131.872C498.29 130.624 497.234 129.52 495.938 129.52C494.594 129.52 493.538 130.624 493.538 131.872C493.538 133.168 494.594 134.272 495.938 134.272ZM493.586 148H498.218V135.592H493.586V148ZM508.915 135.304C507.427 135.304 506.179 135.88 505.411 136.84V135.592H500.779V148H505.411V141.04C505.411 139.936 506.155 139.144 507.187 139.144C508.291 139.144 509.059 139.984 509.059 141.184V148H513.475V140.104C513.475 137.296 511.579 135.304 508.915 135.304ZM524.513 135.592V136.96C523.745 136 522.161 135.304 520.673 135.304C517.673 135.304 515.297 137.728 515.297 141.184C515.297 144.64 517.673 147.088 520.673 147.088C522.113 147.088 523.529 146.488 524.513 145.456V146.44C524.513 147.496 523.217 148.288 521.369 148.288C520.001 148.288 518.561 147.88 517.841 147.28L516.329 150.472C517.649 151.432 519.809 152.128 522.113 152.128C526.241 152.128 529.169 149.872 529.169 146.68V135.592H524.513ZM522.281 143.248C520.985 143.248 520.049 142.384 520.049 141.184C520.049 139.984 520.985 139.144 522.281 139.144C523.577 139.144 524.513 139.984 524.513 141.184C524.513 142.384 523.577 143.248 522.281 143.248ZM542.362 148H547.018V135.664H551.89V131.512H537.49V135.664H542.362V148ZM556.078 134.272C557.374 134.272 558.43 133.168 558.43 131.872C558.43 130.624 557.374 129.52 556.078 129.52C554.734 129.52 553.678 130.624 553.678 131.872C553.678 133.168 554.734 134.272 556.078 134.272ZM553.726 148H558.358V135.592H553.726V148ZM576.687 135.304C574.863 135.304 573.375 136.096 572.655 137.344C571.815 136.072 570.375 135.304 568.767 135.304C567.303 135.304 566.151 136 565.551 137.104V135.592H560.919V148H565.551V140.8C565.551 139.84 566.271 139.144 567.303 139.144C568.335 139.144 569.055 139.888 569.055 140.944V148.024H573.471V140.8C573.471 139.84 574.191 139.144 575.223 139.144C576.255 139.144 576.975 139.888 576.975 140.944V148.024H581.391V140.104C581.391 137.296 579.279 135.304 576.687 135.304ZM589.747 144.832C588.571 144.832 587.659 144.064 587.299 142.888H596.083C596.083 138.112 593.731 135.304 589.747 135.304C585.907 135.304 583.195 137.968 583.195 141.76C583.195 145.576 585.979 148.288 589.939 148.288C591.835 148.288 593.947 147.496 595.051 146.368L592.507 143.8C591.691 144.448 590.683 144.832 589.747 144.832ZM589.747 138.76C590.755 138.76 591.547 139.432 591.883 140.464H587.371C587.779 139.432 588.643 138.76 589.747 138.76ZM602.871 148.288C606.231 148.288 608.271 146.656 608.271 144.088C608.271 141.16 605.679 140.416 603.423 139.912C602.175 139.624 601.623 139.552 601.623 139.144C601.623 138.784 602.055 138.448 602.703 138.448C603.879 138.448 605.295 139.096 606.327 139.768L607.887 136.936C606.471 136 604.623 135.304 602.703 135.304C599.463 135.304 597.519 137.176 597.519 139.576C597.519 142.504 600.039 143.056 602.295 143.536C603.447 143.776 604.167 144.016 604.167 144.448C604.167 144.856 603.855 145.072 602.991 145.072C601.671 145.072 599.895 144.448 598.695 143.608L596.967 146.416C598.479 147.592 600.711 148.288 602.871 148.288Z" fill="white"/>
<path fill-rule="evenodd" clip-rule="evenodd" d="M551.872 534.555C556.582 532.124 562.129 531.808 567.358 532.673C570.167 533.137 573.096 533.978 575.008 536.088C576.919 538.198 577.282 541.911 575.087 543.725C573.78 544.804 571.958 544.968 570.263 544.949C566.17 544.901 561.627 544.18 558.357 546.643C556.491 548.048 555.249 550.384 553.018 551.076C550.836 551.752 548.373 550.464 547.216 548.493C546.059 546.524 546.02 544.062 546.559 541.842C546.559 541.842 547.127 537.002 551.872 534.555Z" fill="#D61335"/>
<path fill-rule="evenodd" clip-rule="evenodd" d="M541.081 513.722C543.961 517.836 549.559 516.474 552.154 513.963C554.75 511.452 555.847 507.813 556.846 504.343C559.127 496.413 561.428 488.095 559.731 480.021C559.224 477.607 558.321 475.2 556.625 473.409C554.929 471.618 552.32 470.552 549.935 471.182C547.113 471.928 545.358 474.692 544.091 477.322C540.364 485.052 538.391 493.621 538.361 502.203C538.348 506.21 538.82 510.413 541.081 513.722Z" fill="#D61335"/>
<path fill-rule="evenodd" clip-rule="evenodd" d="M533.171 519.625C536.298 515.914 536.892 510.501 535.5 505.852C534.108 501.201 530.965 497.246 527.342 494.017C523.094 490.23 518.1 487.284 512.733 485.396C510.62 484.654 508.392 484.068 506.163 484.281C503.933 484.493 501.688 485.634 500.649 487.617C499.111 490.549 500.585 494.105 502.18 497.007C504.988 502.119 508.2 507.01 511.775 511.619C514.651 515.327 517.945 518.984 522.329 520.66C526.712 522.336 531.265 522.139 533.588 519.1" fill="#D61335"/>
<path fill-rule="evenodd" clip-rule="evenodd" d="M540.886 575.777C540.94 575.781 541.028 575.114 541.147 573.908C541.279 572.548 541.445 570.84 541.643 568.807C541.881 566.661 542.194 564.106 542.791 561.324C543.385 558.549 544.315 555.543 545.51 552.493C546.747 549.462 548.257 546.706 550.02 544.503C551.771 542.289 553.807 540.686 555.721 539.762C557.629 538.82 559.34 538.437 560.522 538.267C561.716 538.145 562.383 538.05 562.384 537.998C562.384 537.945 561.715 537.936 560.49 537.968C559.276 538.049 557.494 538.357 555.483 539.271C553.466 540.166 551.306 541.794 549.469 544.052C547.617 546.302 546.054 549.119 544.795 552.205C543.579 555.307 542.662 558.345 542.094 561.18C541.528 564.01 541.269 566.592 541.099 568.757C540.937 570.923 540.876 572.677 540.847 573.89C540.82 575.102 540.833 575.774 540.886 575.777Z" fill="#1A2E35"/>
<path fill-rule="evenodd" clip-rule="evenodd" d="M541.237 571.851C541.263 571.85 541.28 571.551 541.287 570.984C541.285 570.331 541.283 569.511 541.28 568.503C541.275 566.351 541.276 563.236 541.391 559.389C541.582 551.697 542.244 543.417 543.523 531.745C544.735 520.769 546.361 507.996 548.077 499.691C548.445 497.801 548.816 496.102 549.164 494.614C549.497 493.122 549.781 491.835 550.055 490.795C550.291 489.816 550.483 489.018 550.635 488.384C550.759 487.83 550.812 487.536 550.787 487.529C550.761 487.521 550.658 487.801 550.485 488.342C550.296 488.966 550.058 489.752 549.765 490.718C549.445 491.749 549.118 493.027 548.745 494.513C548.355 495.995 547.946 497.691 547.543 499.577C545.845 507.102 544.048 517.62 542.756 529.32C541.474 541.017 540.897 551.666 540.845 559.379C540.8 563.235 540.882 566.357 540.98 568.51C541.042 569.518 541.092 570.338 541.132 570.99C541.175 571.556 541.21 571.852 541.237 571.851Z" fill="#1A2E35"/>
<path fill-rule="evenodd" clip-rule="evenodd" d="M541.288 551.31C541.342 551.308 541.332 550.387 541.27 548.718C541.175 547.053 540.946 544.647 540.476 541.699C539.979 538.758 539.285 535.266 538.194 531.472C537.721 529.737 536.609 525.581 533.917 519.37C530.37 510.955 525.55 504.075 521.357 499.813C520.374 498.682 519.279 497.867 518.403 497.067C517.949 496.684 517.549 496.301 517.141 495.998C516.73 495.715 516.348 495.453 515.994 495.208C514.614 494.265 513.842 493.767 513.813 493.812C513.689 493.98 516.904 495.872 520.963 500.191C525.005 504.499 529.69 511.332 533.209 519.676C535.171 524.203 536.539 528.24 537.51 531.666C538.631 535.424 539.376 538.881 539.939 541.792C540.474 544.71 540.784 547.093 540.971 548.743C541.124 550.396 541.235 551.312 541.288 551.31Z" fill="#1A2E35"/>
<path fill-rule="evenodd" clip-rule="evenodd" d="M521.434 587.546L523.493 615.744H559.719L561.778 587.546H521.434Z" fill="#1A2E35"/>
<mask id="mask2" mask-type="alpha" maskUnits="userSpaceOnUse" x="500" y="471" width="77" height="153">
<path fill-rule="evenodd" clip-rule="evenodd" d="M500 623.169H576.592V471H500V623.169Z" fill="white"/>
</mask>
<g mask="url(#mask2)">
<path fill-rule="evenodd" clip-rule="evenodd" d="M517.935 587.546H566.1V576.431H517.935V587.546Z" fill="#1A2E35"/>
<path fill-rule="evenodd" clip-rule="evenodd" d="M517.935 614.665V617.746H520.198H565.304V614.665H517.935Z" fill="#375A64"/>
<path fill-rule="evenodd" clip-rule="evenodd" d="M522.416 623.169L520.198 617.746H563.579L560.99 623.169H522.416Z" fill="#375A64"/>
<path fill-rule="evenodd" clip-rule="evenodd" d="M561.105 596.762C561.113 596.769 561.056 596.857 560.936 597.021C560.793 597.211 560.614 597.448 560.395 597.739C559.88 598.398 559.173 599.302 558.284 600.44L558.19 600.56L558.1 600.434C556.773 598.6 555.001 596.149 552.915 593.263H553.213C551.671 595.447 549.953 597.879 548.109 600.491L547.949 600.718L547.77 600.504C545.886 598.263 543.84 595.829 541.716 593.302L542.065 593.297C541.96 593.43 541.846 593.573 541.732 593.716C539.854 596.07 538.037 598.348 536.319 600.502L536.138 600.728L535.972 600.492C534.134 597.893 532.417 595.463 530.864 593.267L531.162 593.281C528.645 596.149 526.51 598.58 524.872 600.447L524.76 600.575L524.675 600.431C523.846 599.038 523.185 597.927 522.706 597.122C522.5 596.763 522.333 596.473 522.2 596.241C522.089 596.039 522.037 595.933 522.046 595.927C522.056 595.921 522.127 596.016 522.257 596.206C522.404 596.429 522.588 596.708 522.816 597.054C523.319 597.845 524.013 598.935 524.883 600.303L524.687 600.286C526.299 598.398 528.399 595.936 530.876 593.033L531.032 592.85L531.173 593.047C532.739 595.234 534.472 597.653 536.326 600.241L535.979 600.232C537.693 598.074 539.506 595.792 541.379 593.435C541.493 593.291 541.607 593.149 541.712 593.017L541.884 592.8L542.062 593.012C544.18 595.544 546.22 597.984 548.098 600.229L547.759 600.242C549.622 597.644 551.357 595.224 552.915 593.051L553.066 592.84L553.213 593.051C555.255 595.968 556.99 598.445 558.289 600.299L558.105 600.294C559.029 599.185 559.764 598.304 560.3 597.662C560.538 597.386 560.731 597.162 560.887 596.982C561.023 596.83 561.097 596.755 561.105 596.762Z" fill="#E1E1E1"/>
<path fill-rule="evenodd" clip-rule="evenodd" d="M562.281 587.359C562.281 587.483 553.204 587.585 542.009 587.585C530.81 587.585 521.735 587.483 521.735 587.359C521.735 587.234 530.81 587.133 542.009 587.133C553.204 587.133 562.281 587.234 562.281 587.359Z" fill="#375A64"/>
<path fill-rule="evenodd" clip-rule="evenodd" d="M564.112 618.05C564.112 618.175 554.247 618.276 542.08 618.276C529.91 618.276 520.047 618.175 520.047 618.05C520.047 617.926 529.91 617.825 542.08 617.825C554.247 617.825 564.112 617.926 564.112 618.05Z" fill="#1A2E35"/>
</g>
<path fill-rule="evenodd" clip-rule="evenodd" d="M603 624.501C603 624.575 468.004 624.635 301.515 624.635C134.967 624.635 0 624.575 0 624.501C0 624.427 134.967 624.366 301.515 624.366C468.004 624.366 603 624.427 603 624.501Z" fill="#1A2E35"/>
<circle cx="284" cy="224" r="5" fill="#D61335"/>
<circle cx="284" cy="335" r="5" fill="#D61335"/>
</svg>
