<?xml version="1.0" encoding="UTF-8"?>
<svg width="300px" height="300px" viewBox="0 0 300 300" version="1.1" xmlns="http://www.w3.org/2000/svg" xmlns:xlink="http://www.w3.org/1999/xlink">
    <title>Group 3</title>
    <g id="Page-1" stroke="none" stroke-width="1" fill="none" fill-rule="evenodd">
        <g id="For-you-and-your-partner-Copy-4" transform="translate(-57.000000, -1410.000000)">
            <g id="Group-3" transform="translate(57.000000, 1410.000000)">
                <circle id="Mask-Copy" fill="#E13856" opacity="0.0770321801" cx="150" cy="150" r="150"></circle>
                <g id="Asset-33" transform="translate(27.000000, 25.000000)" fill-rule="nonzero">
                    <g id="Group" transform="translate(225.000000, 63.000000)">
                        <polygon id="Path" fill="#006DAB" points="10.964093 9.42804545 15.7864186 10.3768636 19.1218605 39.6365455 14.2995349 38.6877273"></polygon>
                        <path d="M21.064186,8.62622727 L25.8865116,9.58172727 C24.0392565,9.24116241 22.1499088,9.19156044 20.2872558,9.43472727 C18.7574484,9.58682052 17.2484849,9.90268385 15.7864186,10.3768636 L10.964093,9.42804545 C12.4250587,8.94975894 13.9344761,8.63380062 15.4649302,8.48590909 C17.3272455,8.2407582 19.2165572,8.28810463 21.064186,8.62622727" id="Path" fill="#005484"></path>
                        <g transform="translate(25.451163, 0.668182)" id="Path">
                            <path d="M0.207627907,0.307363636 L5.02995349,1.26286364 C5.8282081,1.41846143 6.61745171,1.6169781 7.39423256,1.85754545 L2.5652093,0.902045455 C1.79069497,0.661472477 1.0036803,0.462954065 0.207627907,0.307363636" fill="#006198"></path>
                            <path d="M2.5652093,0.902045455 L7.36744186,1.85754545 C8.13627648,2.09736274 8.89000175,2.38296639 9.62455814,2.71281818 L4.80223256,1.75731818 C4.06419875,1.4303506 3.30841414,1.1448139 2.5384186,0.902045455" fill="#00649D"></path>
                            <path d="M4.82902326,1.75731818 L9.65134884,2.71281818 C10.3406148,3.01652309 11.0115232,3.36010743 11.6606512,3.74181818 L6.83162791,2.78631818 C6.18040664,2.40841219 5.50971282,2.06493777 4.82232558,1.75731818" fill="#0068A3"></path>
                        </g>
                        <path d="M32.2693953,3.4545 C37.2792558,6.35440909 40.8089302,11.5194545 41.7064186,19.4106818 C42.6842791,27.9700909 40.2597209,34.2443182 36.3884651,38.4070909 C32.1555349,42.8772273 25.2435349,45.5833636 16.5432558,46.6190455 C12.7333741,47.0941912 8.89616079,47.3174057 5.05674419,47.2872273 L0.0535813953,3.36095455 C4.47188317,2.1721211 8.97460527,1.32106406 13.5226047,0.815181818 C21.9683721,-0.153681818 27.6212093,0.721636364 32.2693953,3.4545 Z M31.0705116,21.021 C30.0725581,11.7199091 24.1049302,7.45690909 15.4649302,8.48590909 C13.9344761,8.63380062 12.4250587,8.94975894 10.964093,9.42804545 L14.3129302,38.6810455 C15.4890099,38.7286655 16.6669196,38.6592774 17.8292093,38.4739091 L18.0033488,38.4739091 C27.0050233,37.4048182 32.2894884,31.6584545 31.083907,21.0477273" id="Shape" fill="#5A9EFB"></path>
                        <g transform="translate(4.688372, 3.340909)" id="Path">
                            <polyline fill="#0068A3" points="27.5810233 0.113590909 32.4100465 1.06909091 32.8186047 1.31631818 27.9962791 0.360818182 27.5810233 0.113590909"></polyline>
                            <path d="M27.9962791,0.360818182 L32.8186047,1.33636364 C33.6390692,1.83691779 34.4164395,2.40459673 35.1426977,3.03354545 L30.3203721,2.07804545 C29.5924402,1.45119269 28.8152468,0.88364291 27.9962791,0.380863636" fill="#006BA8"></path>
                            <path d="M30.3203721,2.058 L35.1426977,3.0135 C38.2577076,5.79616297 40.3982175,9.50040622 41.2509767,13.5841364 L36.4286512,12.6286364 C35.5741155,8.54558197 33.4339057,4.84185798 30.3203721,2.058" fill="#006EAD"></path>
                            <path d="M36.4286512,12.6286364 L41.2509767,13.5841364 C41.5154974,14.7188608 41.7145223,15.8677953 41.8470698,17.0252727 C41.9006512,17.4863182 41.9408372,17.9473636 41.9743256,18.4017273 L37.152,17.4462273 C37.1185116,16.9918636 37.0716279,16.5375 37.0180465,16.0697727 C36.8909327,14.9119733 36.694112,13.7628519 36.4286512,12.6286364" fill="#006BA8"></path>
                            <path d="M37.152,17.4462273 L41.9743256,18.4017273 C42.0729957,19.6979105 42.0886554,20.9990543 42.0212093,22.2972273 L37.192186,21.3417273 C37.2619155,20.0436976 37.2484928,18.7425503 37.152,17.4462273" fill="#0068A3"></path>
                            <path d="M37.192186,21.3417273 L42.0212093,22.2972273 C41.9648643,23.3096034 41.8508195,24.3179606 41.6796279,25.3174091 L36.8573023,24.3619091 C37.0298434,23.3628354 37.1416753,22.3542679 37.192186,21.3417273" fill="#00649D"></path>
                            <path d="M36.8372093,24.3619091 L41.6595349,25.3174091 C41.5126909,26.1810776 41.3158971,27.03555 41.0701395,27.8765455 L36.247814,26.9210455 C36.490352,26.0792168 36.6871041,25.2249253 36.8372093,24.3619091" fill="#006198"></path>
                            <path d="M36.267907,26.9210455 L41.0902326,27.8765455 C40.8609627,28.6720992 40.583618,29.4530737 40.2597209,30.2151818 L35.4373953,29.2596818 C35.7583424,28.4964329 36.0356251,27.7156328 36.267907,26.9210455" fill="#005E93"></path>
                            <path d="M35.4373953,29.2596818 L40.2597209,30.2151818 C39.9333101,30.9976488 39.5574861,31.7586761 39.1345116,32.4936818 L34.3054884,31.5381818 C34.7319876,30.80401 35.1100906,30.0428982 35.4373953,29.2596818" fill="#005B8E"></path>
                            <path d="M34.3054884,31.5381818 L39.1345116,32.4936818 C38.6342871,33.3542423 38.0701016,34.1761818 37.4466977,34.9525909 L32.6243721,34.0037727 C33.2463223,33.2254197 33.808301,32.4011998 34.3054884,31.5381818" fill="#005789"></path>
                            <path d="M32.6243721,34.0037727 L37.4466977,34.9525909 C37.152,35.3267727 36.843907,35.6809091 36.5224186,36.0216818 C32.2894884,40.4918182 25.384186,43.1979545 16.6772093,44.2336364 C12.8699629,44.7130348 9.03469223,44.9362664 5.19739535,44.9018182 L0.368372093,43.953 C4.2077887,43.9831785 8.04500201,43.7599639 11.8548837,43.2848182 C20.5618605,42.2491364 27.4671628,39.543 31.700093,35.0728636 C32.0171163,34.7343182 32.3252093,34.3801818 32.6243721,34.0104545" fill="#005484"></path>
                        </g>
                    </g>
                    <g id="freepik--Character--inject-11">
                        <path d="M121.477556,79.9503158 C123.96954,82.8018947 124.619046,86.8405263 124.506377,90.6271579 C124.393707,94.4137895 123.631531,98.1805263 123.71769,101.960526 C123.909891,109.799053 127.694259,117.020842 130.292285,124.415053 C132.89031,131.809263 134.136301,140.582842 129.715682,147.055263 C126.401874,147.380211 123.041674,147.718421 119.774259,147.055263 C116.506845,146.392105 113.32559,144.581684 111.821121,141.624 C110.568502,139.183579 110.581757,136.318737 110.634778,133.566632 C110.860117,120.184105 111.081038,106.803789 111.29754,93.4256842" id="Path" fill="#2E353A"></path>
                        <path d="M39.7656904,32.3952632 C42.7878828,37.1965263 39.427682,43.5429474 35.2390293,47.3693684 C31.0503766,51.1957895 25.7615397,54.3325263 23.7003515,59.6112632 C20.2539916,68.4246316 27.4515816,78.9290526 23.587682,87.5633684 C21.486728,92.2651579 16.3635816,95.6074737 15.8930209,100.733684 C15.6477992,103.386316 16.7612385,105.985895 16.9998326,108.651789 C17.5631799,114.991579 13.2419749,120.588632 9.80224268,125.893895 C6.36251046,131.199158 3.66507113,138.454105 7.29037657,143.699684 L54.750728,142.446316 C55.9264492,142.521342 57.1017267,142.292996 58.1639498,141.783158 C60.3112971,140.456842 60.3908285,137.459368 60.2118828,134.959263 L55.6719665,70.9910526" id="Path" fill="#2E353A"></path>
                        <path d="M124.234644,83.6441053 C123.306778,80.01 121.252218,76.7141053 120.470159,73.0335789 C119.469389,68.3914737 120.589456,63.5703158 121.232335,58.8486316 C121.875213,54.1269474 121.948117,48.9476842 119.177774,45.0947368 C117.540753,42.7803158 115.04877,41.1157895 113.564184,38.7284211 C111.655431,35.5983158 111.728335,31.6989474 110.986042,28.1178947 C109.288676,20.2657192 103.660337,13.8466779 96.1004184,11.1410526 L96.0076318,107.119895 L113.63046,112.882737 C116.864736,108.585474 120.118895,104.261684 122.319264,99.3476842 C124.519632,94.4336842 125.566795,88.8631579 124.234644,83.6441053 Z" id="Path" fill="#2E353A"></path>
                        <path d="M96.6173724,10.4115789 C94.3308452,6.96978947 91.5207364,3.74021053 87.8755481,1.79052632 C84.2303598,-0.159157895 79.6506778,-0.716210526 75.945841,1.12736842 C72.3735565,2.93115789 70.1069121,6.63157895 66.614159,8.62105263 C63.0219916,10.6105263 58.6610209,10.5044211 54.6844519,11.5389474 C46.0409711,13.9662882 39.8612169,21.5760754 39.255364,30.5384211 C38.9438661,36.7190526 41.3430628,43.3108421 38.6721339,48.8946316 C36.087364,54.2861053 29.2145272,57.5156842 28.7771046,63.4841053 C28.3728201,69.0413684 33.9598996,73.4314737 34.503364,78.9622105 C35.1661255,86.0248421 27.6106444,91.8341053 28.081205,98.91 C28.4987448,105.442105 35.6300586,109.958211 36.4518828,116.470421 C37.207431,122.266421 32.7669289,128.254737 34.9209038,133.712526 C36.0807364,136.650316 38.8974728,138.540316 41.270159,140.622632 C43.6428452,142.704947 45.9094895,145.636105 45.246728,148.739684 L112.32482,133.991053 C108.195816,120.946737 104.046929,106.960737 107.864435,93.8235789 C109.242979,89.082 111.615665,84.6786316 113.027347,79.9370526 C114.657741,74.4461053 114.949356,68.6633684 114.757155,62.9071579 C114.392636,52.0645263 112.318192,41.3412632 109.554477,30.8501053 C107.446895,22.8391579 104.09995,13.9793684 96.4384268,10.8227368" id="Path" fill="#2E353A"></path>
                        <path d="M113.444887,105.057725 C113.869682,104.256009 114.179794,103.398783 114.366126,102.510947 C114.737578,100.052027 114.46585,97.5387549 113.577439,95.2162105 C113.080368,93.7307368 112.404351,92.1524211 111.748218,90.4149474 C110.985395,88.5823211 110.509251,86.6430556 110.336536,84.6653684 C110.222997,82.4737454 110.469274,80.2783207 111.065573,78.1664211 C111.628921,75.9581053 112.430862,73.7497895 113.18641,71.4817895 C113.974585,69.2943234 114.538619,67.0323942 114.869824,64.7308421 C115.155666,62.5912512 114.94243,60.4144914 114.246828,58.3711579 C113.529694,56.5415425 112.67677,54.7681727 111.695197,53.0658947 C111.262633,52.2808995 110.873233,51.4728544 110.528736,50.6453684 C110.223866,49.8296842 110.011782,49.0338947 109.806326,48.2712632 C109.037523,45.2141053 108.593473,42.7073684 108.215699,40.9765263 C108.036753,40.1144211 107.884318,39.4512632 107.771649,38.9870526 C107.718628,38.7748421 107.672234,38.6090526 107.639096,38.4764211 C107.632788,38.4169037 107.632788,38.3568857 107.639096,38.2973684 C107.670748,38.3483077 107.693183,38.4044287 107.705372,38.4631579 C107.745138,38.5758947 107.811414,38.7416842 107.871063,38.9671579 C108.003615,39.4114737 108.182561,40.068 108.381389,40.9566316 C108.798929,42.6609474 109.282745,45.1676842 110.071431,48.1983158 C110.283515,48.9543158 110.508854,49.7434737 110.813724,50.5392632 C111.15965,51.3553276 111.549029,52.1522595 111.980184,52.9266316 C112.980661,54.6258891 113.849224,56.3995264 114.578209,58.2318947 C115.306113,60.3183711 115.533152,62.5469509 115.240971,64.7374737 C114.913926,67.0620997 114.347568,69.3466654 113.550929,71.5547368 C112.795381,73.836 111.993439,76.0310526 111.430092,78.1863158 C110.845009,80.2664976 110.596642,82.4270132 110.694427,84.5857895 C110.844576,86.5310388 111.286971,88.4425205 112.006695,90.2557895 C112.669456,91.9866316 113.332218,93.5715789 113.802778,95.0835789 C114.672563,97.4395593 114.901282,99.9844407 114.46554,102.457895 C114.327704,103.122541 114.104954,103.766674 113.802778,104.374421 C113.696736,104.58 113.597322,104.725895 113.537674,104.832 C113.478025,104.938105 113.444887,105.064105 113.444887,105.057725 Z" id="Path" fill="#4D5A64"></path>
                        <path d="M54.5386444,98.5253684 L49.3094561,104.387684 C49.3094561,104.387684 29.6453222,111.284526 27.5509958,112.544526 C25.4566695,113.804526 40.9387782,198.529579 40.9387782,198.529579 C40.9387782,198.529579 20.8571046,222.449684 19.6044854,231.024316 C18.3518661,239.598947 16.9534393,251.051684 16.9534393,251.051684 L135.978778,250.819579 L128.9999,202.084105 L130.988184,168.150316 L119.131381,107.305579 L102.23759,103.134316 L93.2439163,96.2242105 L54.5386444,98.5253684 Z" id="Path" fill="#5A9EFB"></path>
                        <path d="M16.9534393,251.071579 L16.9534393,251.071579 C16.9534393,250.958842 18.3386109,239.532632 19.6044854,231.050842 C19.8961004,229.061368 21.195113,226.163368 23.4750126,222.343579 C25.2976067,219.293053 27.7431967,215.665579 30.7653891,211.573895 C35.7891213,204.696947 40.7730879,198.768316 40.9586611,198.549474 C40.8658745,198.045474 37.0218577,176.983579 33.4760837,156.034421 C28.6909456,127.710947 26.7026611,113.081684 27.5775063,112.551158 C29.6386946,111.311053 48.9581925,104.526947 49.3359665,104.394316 L54.5651548,98.532 L54.5651548,98.532 L93.2505439,96.1910526 L93.2505439,96.1910526 L102.244218,103.094526 L119.144636,107.272421 L119.144636,107.272421 L130.994812,168.110526 L129.006527,202.050947 L135.985406,250.799684 L135.985406,250.799684 L16.9534393,251.071579 Z M54.545272,98.5452632 L49.3160837,104.400947 C49.1172552,104.473895 29.6254393,111.317684 27.564251,112.557789 C26.7092887,113.075053 28.7572218,128.095579 33.4760837,156.007895 C37.0483682,177.102947 40.9188954,198.317368 40.9586611,198.529579 L40.9586611,198.529579 C40.9122678,198.589263 35.8819079,204.590842 30.7653891,211.560632 C27.7564519,215.652316 25.3108619,219.279789 23.4750126,222.330316 C21.2083682,226.136842 19.8828452,229.068 19.611113,231.017684 C18.3982594,239.346947 17.0528536,250.501263 16.9600669,251.025158 L135.978778,250.799684 L129.006527,202.084105 L130.994812,168.150316 L119.144636,107.318842 L102.257473,103.147579 L93.2637992,96.2441053 L54.545272,98.5452632 Z" id="Shape" fill="#2E353A"></path>
                        <path d="M27.5509958,112.544526 C27.5509958,112.544526 19.0809038,116.748947 15.5019916,121.424211 C11.9230795,126.099474 6.07752301,149.363053 4.69897908,156.790421 C3.32043515,164.217789 -0.729037657,172.891895 0.112669456,176.472947 L1.21285356,180.325895 C1.21285356,180.325895 0.384401674,195.737684 2.58476987,199.869158 C4.78513808,204.000632 7.53559833,203.184947 7.53559833,203.184947 C7.53559833,203.184947 7.61512971,213.669474 13.6992803,215.022316 C25.0325021,217.535684 38.016,215.625789 41.873272,209.571158 C45.7305439,203.516526 45.4853222,200.950105 45.4853222,200.950105 L40.2627615,178.654737 L37.3201004,172.633263 L34.4635983,155.550316 L27.5509958,112.544526 Z" id="Path" fill="#5A9EFB"></path>
                        <path d="M119.131381,107.305579 C119.131381,107.305579 124.340686,108.757895 132.273941,118.459895 C140.207197,128.161895 159.380887,152.201368 159.380887,152.201368 L159.380887,152.201368 C159.380887,152.201368 170.382728,147.294 173.96164,147.844421 C176.086525,144.278947 179.199034,141.406447 182.922176,139.574842 C188.383331,136.809474 194.189121,138.971368 194.189121,138.971368 L201.645188,155.842105 C202.89118,158.998737 204.733657,165.835895 202.970711,168.740526 C200.644418,172.593474 195.680335,178.933263 188.535766,175.882737 C188.535766,175.882737 165.246326,197.010947 157.021456,199.550842 C146.75528,202.727368 130.510996,197.455263 126.196418,174.032526 C121.881841,150.609789 119.131381,107.305579 119.131381,107.305579 Z" id="Path" fill="#5A9EFB"></path>
                        <path d="M91.8852552,219.538421 C91.8786161,219.458981 91.8786161,219.379125 91.8852552,219.299684 C91.8899193,219.062016 91.8721671,218.824437 91.8322343,218.590105 C91.8322343,217.926947 91.7460753,217.025053 91.6797992,215.851263 C91.5406192,213.457263 91.3351632,210.022105 91.0899414,205.791158 C90.5597322,197.296105 89.684887,185.571474 88.2466946,172.673053 C87.5242845,166.220526 86.7157155,160.073053 85.9071464,154.522421 C85.0985774,148.971789 84.2634979,143.958316 83.5013222,139.773789 C83.143431,137.678211 82.7656569,135.794842 82.454159,134.130316 C82.1426611,132.465789 81.8576736,131.04 81.6190795,129.879474 L81.0822427,127.226842 C81.0292218,126.928421 80.9828285,126.696316 80.9496904,126.523895 C80.9432455,126.442232 80.9432455,126.360189 80.9496904,126.278526 C80.9809672,126.355262 81.003209,126.43538 81.0159665,126.517263 C81.0623598,126.689684 81.1153808,126.915158 81.1816569,127.180421 C81.3208368,127.843579 81.5262929,128.712316 81.7781423,129.833053 C82.0299916,130.953789 82.3481172,132.412737 82.6728703,134.070632 C82.9976234,135.728526 83.3952803,137.618526 83.7730544,139.714105 C84.5683682,143.892 85.4034477,148.892211 86.2517824,154.456105 C87.1001172,160.02 87.895431,166.160842 88.6244686,172.613368 C90.0626611,185.525053 90.8977406,197.256316 91.3683013,205.771263 C91.6002678,210.022105 91.7593305,213.457263 91.8454895,215.838 C91.8852552,217.011789 91.9183933,217.933579 91.9382762,218.576842 L91.9382762,219.293053 C91.9363762,219.377474 91.9183802,219.460755 91.8852552,219.538421 L91.8852552,219.538421 Z" id="Path" fill="#2E353A"></path>
                        <g id="Group" opacity="0.3" transform="translate(26.510460, 167.778947)" fill="#000000">
                            <path d="M0.709154812,48.3375789 C5.98843024,52.2879374 13.2817824,52.1181594 18.371749,47.9264211 C21.6855565,45.0284211 23.4683849,40.7444211 26.0531548,37.1501053 C31.4414059,29.6696842 40.2163682,25.4785263 47.003046,19.2448421 C51.1254226,15.4648421 54.6579414,10.8161053 59.7015565,8.38894737 C65.0964351,5.80263158 71.3595314,6.16073684 77.3442678,6.02810526 C83.3290042,5.89547368 89.8439498,4.94052632 93.9133054,0.576947368 L62.1007531,1.57168421 C58.1241841,1.69768421 53.9951799,1.85021053 50.3632469,3.51473684 C45.2798661,5.83578947 41.9395481,10.71 38.2877322,14.9475789 C34.1568232,19.743609 29.3657707,23.9279603 24.0582427,27.3751579 C21.9837992,28.7014737 19.7237824,30.0742105 18.6169707,32.2957895 C17.9542092,33.6751579 17.7752636,35.2468421 17.3776067,36.7389474 C15.5152469,43.722 7.53559833,48.4237895 0.530209205,46.6863158" id="Path"></path>
                        </g>
                        <path d="M45.4919498,201.964737 C45.5117598,202.072146 45.5117598,202.182275 45.4919498,202.289684 C45.4853304,202.595967 45.4453279,202.900612 45.3726527,203.198211 C45.1022111,204.295853 44.6876961,205.35283 44.1399163,206.341579 C43.342755,207.815356 42.3580874,209.179557 41.2105105,210.400105 C39.8179487,211.925252 38.0885898,213.103827 36.1602678,213.841895 C34.2339781,214.545685 32.2321335,215.021964 30.1954142,215.261053 C28.3264268,215.513053 26.6363849,215.619158 25.2180753,215.672211 C23.7997657,215.725263 22.6531883,215.731895 21.8645021,215.718632 L20.9498912,215.718632 C20.8442625,215.731877 20.7373944,215.731877 20.6317657,215.718632 C21.0376409,215.65893 21.4476923,215.632316 21.8578745,215.639053 C22.6531883,215.605895 23.7997657,215.566105 25.2114477,215.486526 C26.6231297,215.406947 28.2999163,215.267684 30.1490209,215.002421 C32.1537135,214.745963 34.1233637,214.26549 36.0210879,213.57 C37.9014313,212.854939 39.594464,211.72104 40.9719163,210.254211 C42.1110937,209.05276 43.0993019,207.716545 43.9145774,206.275263 C44.4746204,205.31404 44.9195282,204.29014 45.2401004,203.224737 C45.3465978,202.809566 45.4306694,202.388957 45.4919498,201.964737 L45.4919498,201.964737 Z" id="Path" fill="#2E353A"></path>
                        <path d="M33.0784268,145.019368 C33.1158774,145.123511 33.1338505,145.233662 33.1314477,145.344316 C33.1314477,145.589684 33.1712134,145.894737 33.2043515,146.266105 C33.2573724,147.061895 33.3369038,148.222421 33.4694561,149.648211 C33.7014226,152.506421 34.1984937,156.432316 34.7154477,160.782632 C35.2125188,164.927368 35.4709958,168.740526 35.537272,171.519158 L35.451113,171.406421 C36.1421352,171.611407 36.7972141,171.922364 37.3930042,172.328211 C37.842564,172.647678 38.203032,173.076846 38.4401674,173.574947 C38.6449888,173.986298 38.7451571,174.441881 38.7317824,174.901263 C38.6398562,174.458482 38.4998451,174.027079 38.3142427,173.614737 C38.0699437,173.1522 37.7118192,172.759625 37.2737071,172.474105 C36.6868389,172.095381 36.0453178,171.809096 35.3715816,171.625263 L35.2920502,171.625263 L35.2920502,171.539053 C35.1661255,168.740526 34.8745105,164.967158 34.3840669,160.829053 C33.867113,156.505263 33.3965523,152.526316 33.2308619,149.674737 C33.1314477,148.242316 33.091682,147.081789 33.0784268,146.279368 L33.0784268,145.350947 C33.0717985,145.240521 33.0717985,145.129795 33.0784268,145.019368 L33.0784268,145.019368 Z" id="Path" fill="#2E353A"></path>
                        <path d="M129.576502,192.468316 C129.569872,192.406599 129.569872,192.344349 129.576502,192.282632 C129.572585,192.098319 129.585898,191.914043 129.616268,191.732211 C129.662661,191.228211 129.728937,190.518632 129.808469,189.623368 C129.888,188.728105 130.013925,187.594105 130.093456,186.307579 C130.172987,185.021053 130.33205,183.528947 130.385071,181.884316 C130.438092,180.239684 130.570644,178.449158 130.577272,176.519368 C130.577272,175.557789 130.617038,174.529895 130.577272,173.528526 L130.564017,170.365263 C130.449154,165.660413 130.081898,160.965128 129.463833,156.299684 C128.809365,151.641657 127.897779,147.023438 126.733255,142.466211 C126.448268,141.418421 126.169908,140.397158 125.904803,139.402421 C125.639699,138.407684 125.314946,137.466 125.036586,136.544211 C124.493121,134.694 123.876753,133.002947 123.339916,131.451158 C123.081439,130.675263 122.809707,129.939158 122.537975,129.256105 L121.789054,127.326316 C121.331749,126.099474 120.887699,125.071579 120.529808,124.222737 C120.171916,123.373895 119.920067,122.737263 119.721238,122.273053 L119.52241,121.755789 C119.495614,121.698638 119.475595,121.638545 119.462762,121.576737 C119.50004,121.628194 119.53118,121.683835 119.555548,121.742526 C119.615197,121.875158 119.6881,122.034316 119.787515,122.239895 C119.992971,122.704105 120.284586,123.354 120.655732,124.169684 C121.026879,124.985368 121.497439,126.033158 121.981255,127.253368 C122.219849,127.856842 122.478326,128.506737 122.756686,129.196421 C123.035046,129.886105 123.313406,130.608947 123.585138,131.391474 C124.13523,132.936632 124.764854,134.621053 125.321573,136.477895 C125.606561,137.399684 125.931314,138.348 126.209674,139.342737 C126.488033,140.337474 126.766393,141.332211 127.051381,142.406526 C128.236992,146.972025 129.159748,151.601848 129.815096,156.273158 C130.436695,160.949005 130.797354,165.655883 130.895397,170.371895 C130.895397,171.459474 130.895397,172.520526 130.928536,173.548421 C130.961674,174.576316 130.88877,175.577684 130.875515,176.545895 C130.875515,178.482316 130.729707,180.279474 130.643548,181.917474 C130.557389,183.555474 130.398326,185.040947 130.298912,186.340737 C130.199498,187.640526 130.066946,188.761263 129.954276,189.656526 C129.841607,190.551789 129.762075,191.254737 129.702427,191.758737 L129.622895,192.302526 C129.615613,192.359761 129.599982,192.415619 129.576502,192.468316 L129.576502,192.468316 Z" id="Path" fill="#2E353A"></path>
                        <path d="M158.512669,176.976947 C158.385142,176.675945 158.281,176.365551 158.201172,176.048526 C158.015598,175.438421 157.803515,174.549789 157.584803,173.435684 C157.331954,172.133288 157.148332,170.818388 157.034711,169.496526 C156.913257,167.872542 156.884491,166.242947 156.948552,164.615684 C157.033539,162.990441 157.215014,161.371691 157.492017,159.768 C157.727979,158.462301 158.031042,157.169639 158.4,155.895158 C158.724753,154.807579 159.022996,153.905684 159.26159,153.355263 C159.373667,153.046004 159.506522,152.744684 159.659247,152.453368 C159.607544,152.778606 159.51859,153.096807 159.394142,153.401684 C159.188686,153.998526 158.930209,154.873895 158.638594,155.961474 C158.346979,157.049053 158.055364,158.355474 157.803515,159.827684 C157.550552,161.420424 157.380215,163.025205 157.293188,164.635579 C157.226914,166.246964 157.246825,167.860743 157.352837,169.47 C157.465506,170.955474 157.631197,172.281789 157.823397,173.395895 C158.015598,174.51 158.187916,175.385368 158.333724,176.015368 C158.426434,176.328843 158.486403,176.651093 158.512669,176.976947 L158.512669,176.976947 Z" id="Path" fill="#2E353A"></path>
                        <path d="M181.179113,166.870421 C180.973579,166.6911 180.787024,166.4911 180.622393,166.273579 C180.14434,165.711398 179.701647,165.120049 179.29687,164.502947 C176.49338,160.448908 174.723205,155.770392 174.140586,150.875053 C174.034544,149.946632 173.988151,149.184 173.981523,148.660105 C173.948373,148.389222 173.948373,148.115304 173.981523,147.844421 C174.041172,147.844421 174.087565,148.998316 174.359297,150.848526 C175.066773,155.671105 176.812509,160.282423 179.475816,164.363684 C180.489841,165.928737 181.225506,166.830632 181.179113,166.870421 Z" id="Path" fill="#2E353A"></path>
                        <path d="M196.952837,168.727263 C196.691165,168.482105 196.447519,168.218367 196.223799,167.938105 C195.591054,167.199381 194.996019,166.429135 194.440971,165.630316 C192.591422,162.994005 191.108719,160.118295 190.033607,157.082211 C189.450096,155.406533 189.006731,153.685245 188.708084,151.936105 C188.475176,150.504841 188.370926,149.05557 188.396586,147.605684 C188.397582,147.049576 188.428556,146.493927 188.489372,145.941158 C188.515844,145.522617 188.568973,145.106193 188.648435,144.694421 C188.689676,144.338716 188.765139,143.987825 188.873774,143.646632 C188.869488,144.004343 188.838473,144.361233 188.780987,144.714316 C188.721278,145.12512 188.688071,145.539346 188.681573,145.954421 C188.635205,146.503544 188.621926,147.054963 188.641808,147.605684 C188.654839,149.039209 188.781158,150.469458 189.019582,151.883053 C189.328555,153.608269 189.771744,155.306698 190.345105,156.962842 C191.411379,159.974262 192.852047,162.839496 194.633172,165.491053 C195.295933,166.505684 195.892418,167.314737 196.316586,167.858526 C196.55495,168.127886 196.767938,168.4187 196.952837,168.727263 L196.952837,168.727263 Z" id="Path" fill="#2E353A"></path>
                        <path d="M101.077757,103.704632 C101.044546,103.865183 100.997991,104.022677 100.938577,104.175474 C100.832536,104.507053 100.6801,104.951368 100.481272,105.501789 C100.090243,106.649053 99.5136402,108.306947 98.8840167,110.376 C97.22596,115.764865 95.9437485,121.262394 95.0466276,126.828947 C94.6357155,129.375474 94.3242176,131.842421 94.0988787,134.123684 L94.059113,134.534842 L93.8072636,134.209895 C90.2747448,129.707053 87.3585941,125.960211 85.6155314,123.685579 L85.7282008,123.685579 L83.6802678,124.925684 L83.143431,125.237368 C83.0843664,125.276173 83.0194803,125.305277 82.9512301,125.323579 L83.1169205,125.197579 L83.6338745,124.846105 L85.622159,123.519789 L85.6884351,123.473368 L85.7348285,123.539684 C87.5375397,125.761263 90.4934561,129.508105 94.0458577,133.964526 L93.7542427,134.050737 C93.972954,131.742947 94.2778243,129.269368 94.6887364,126.709579 C95.594371,121.12775 96.9237418,115.62308 98.6653054,110.243368 C99.3280669,108.180947 99.9378075,106.536316 100.368603,105.402316 C100.580686,104.858526 100.753004,104.434105 100.885556,104.076 C100.942995,103.948887 101.007153,103.824922 101.077757,103.704632 Z" id="Path" fill="#2E353A"></path>
                        <path d="M59.0984435,115.866947 C59.1945589,115.949505 59.2853201,116.038105 59.3701757,116.132211 L60.0925858,116.941263 C60.708954,117.650842 61.5970544,118.678737 62.6574728,119.985158 C64.7915649,122.578105 67.6414393,126.252 70.5708452,130.456421 C71.8499749,132.286737 73.036318,134.070632 74.0967364,135.708632 L73.8316318,135.708632 L78.8686192,128.506737 L80.3465774,126.457579 C80.5120264,126.202071 80.7006025,125.962326 80.9099247,125.741368 C80.771454,126.012127 80.6118985,126.27156 80.4327364,126.517263 L79.0608201,128.652632 C77.8082008,130.482947 76.0916485,132.996316 74.0967364,135.947368 L73.9575565,136.146316 L73.8250042,135.940737 C72.7579582,134.309368 71.5649874,132.538737 70.2924854,130.708421 C67.3630795,126.510632 64.5463431,122.823474 62.4718996,120.190737 L59.9931715,117.080526 L59.33041,116.231684 C59.2374472,116.120803 59.1594567,115.998173 59.0984435,115.866947 Z" id="Path" fill="#2E353A"></path>
                        <path d="M118.408971,233.590737 L118.296301,233.663684 L117.945038,233.862632 L117.368435,234.180947 L116.997289,234.386526 L116.553238,234.565579 C114.736224,235.294418 112.851358,235.84089 110.926393,236.196947 C106.002075,237.178421 98.9237824,237.795158 90.6657741,237.788579 L90.6657741,237.788579 C76.2297207,236.07089 62.1859499,231.93236 49.1238828,225.546632 C45.4152971,223.783611 41.8205321,221.790246 38.360636,219.578211 L38.5594644,219.677684 L39.1161841,219.982737 L41.2436485,221.196316 L44.6436151,223.046526 C45.9691381,223.709684 47.5067448,224.532 49.2299247,225.334421 C62.2975478,231.608152 76.3036068,235.698683 90.6922845,237.443684 L90.6922845,237.443684 C98.9237824,237.476842 105.995448,236.906526 110.90651,235.978105 C112.822859,235.640818 114.704176,235.12803 116.526728,234.446211 L116.977406,234.280421 L117.35518,234.088105 L117.93841,233.796316 L118.302929,233.623895 L118.408971,233.590737 Z" id="Path" fill="#2E353A"></path>
                        <path d="M113.789523,218.125895 L113.637088,218.165684 L113.199665,218.258526 L111.496368,218.590105 C110.011782,218.822211 107.85118,219.094105 105.173623,219.293053 C99.8052552,219.717474 92.3756987,219.803684 84.1773389,219.578211 C75.9789791,219.352737 68.5693054,218.795684 63.2208201,218.218737 C60.5697741,217.926947 58.3959163,217.621895 56.9113305,217.383158 L55.2080335,217.064842 L54.7706109,216.972 C54.6711967,216.972 54.6181757,216.938842 54.6242488,216.932211 L54.7772385,216.932211 L55.2212887,216.991895 L56.9312134,217.243895 C58.4224268,217.442842 60.5764017,217.708105 63.2473305,217.973368 C68.5891883,218.484 75.9988619,218.981368 84.1905941,219.226737 C92.3823264,219.472105 99.7986276,219.405789 105.153741,219.041053 C107.804787,218.875263 109.9919,218.643158 111.476485,218.450842 L113.18641,218.185579 L113.63046,218.125895 C113.682661,218.112701 113.737322,218.112701 113.789523,218.125895 L113.789523,218.125895 Z" id="Path" fill="#2E353A"></path>
                        <path d="M92.7004519,237.629368 C92.647431,237.629368 93.0053222,236.634632 93.3632134,235.016526 C93.8416003,232.903456 94.1167961,230.749427 94.1850377,228.583895 C94.2883703,226.423843 94.1281253,224.259243 93.7078494,222.138 C93.4912658,221.266783 93.2279898,220.407857 92.9191632,219.564947 C93.066225,219.770941 93.1885712,219.993522 93.283682,220.228105 C93.5604858,220.832497 93.782303,221.460616 93.9464435,222.104842 C94.4498218,224.239 94.6484153,226.433766 94.5363013,228.623684 C94.4701659,230.811295 94.1589303,232.984574 93.6084351,235.102737 C93.5090209,235.507263 93.3897238,235.872 93.2903096,236.183684 C93.1908954,236.495368 93.0914812,236.773895 92.9986946,236.992737 C92.9264896,237.216675 92.8262809,237.430581 92.7004519,237.629368 Z" id="Path" fill="#2E353A"></path>
                        <path d="M91.9183933,251.190947 C91.8015903,250.55685 91.7505079,249.912382 91.7659582,249.267789 C91.7659582,248.080737 91.7261925,246.436105 91.7659582,244.625684 C91.8057238,242.815263 91.8189791,241.309895 91.8388619,239.983579 C91.8188789,239.340879 91.8521307,238.697628 91.9382762,238.060421 C92.0530146,238.692495 92.1018789,239.334778 92.0840837,239.976947 C92.0840837,241.170632 92.1238494,242.815263 92.0840837,244.619053 C92.044318,246.422842 92.0244351,247.934842 92.0045523,249.261158 C92.0221679,249.905657 91.9933738,250.550588 91.9183933,251.190947 Z" id="Path" fill="#2E353A"></path>
                        <path d="M35.1727531,172.135895 C34.9035481,172.181267 34.6301679,172.196834 34.3575565,172.182316 C33.8339749,172.182316 33.0784268,172.182316 32.1439331,172.235368 C27.2723151,172.432892 22.4628101,173.402084 17.8945607,175.106842 C17.0197155,175.425158 16.3105607,175.703684 15.8267448,175.902632 C15.5807223,176.021659 15.323093,176.114995 15.0579414,176.181158 C15.2798852,176.020536 15.5201749,175.886962 15.7737238,175.783263 C16.2442845,175.544526 16.9335565,175.232842 17.8084017,174.874737 C22.3623961,173.042958 27.2162538,172.071606 32.1240502,172.009895 C33.0651715,172.009895 33.8273473,172.009895 34.3509289,172.069579 C34.6263968,172.064149 34.9017148,172.086365 35.1727531,172.135895 L35.1727531,172.135895 Z" id="Path" fill="#2E353A"></path>
                        <path d="M13.6595146,177.945158 C12.660533,178.811922 11.7502704,179.776044 10.9421925,180.823263 C9.09305938,183.432624 7.90574936,186.452744 7.48257741,189.623368 C7.08501569,192.796417 7.04499902,196.004115 7.36328033,199.186105 C7.46269456,200.366526 7.54885356,201.348 7.60850209,202.090737 C7.66265176,202.443878 7.68041857,202.801649 7.66152301,203.158421 C7.57607932,202.811514 7.51408131,202.459244 7.47594979,202.104 C7.37653556,201.440842 7.25061088,200.432842 7.12468619,199.206 C6.72703137,196.006428 6.72703137,192.769888 7.12468619,189.570316 C7.55023468,186.349482 8.78625326,183.289533 10.7168536,180.677368 C11.3172949,179.903236 11.9994697,179.196196 12.7515314,178.568526 C12.9606305,178.393552 13.1821315,178.233976 13.4142929,178.091053 C13.5799833,177.984947 13.6462594,177.938526 13.6595146,177.945158 Z" id="Path" fill="#2E353A"></path>
                        <path d="M54.7838661,157.758632 C54.8899079,157.758632 55.0555983,159.821053 55.870795,162.221684 C56.6859916,164.622316 57.7795481,166.392947 57.660251,166.452632 C57.3370743,166.130403 57.0704491,165.756007 56.8715649,165.345158 C56.3344101,164.388668 55.890522,163.38266 55.5460418,162.341053 C55.2068779,161.306336 54.9737128,160.239801 54.8501423,159.157895 C54.7482198,158.698701 54.7258025,158.225412 54.7838661,157.758632 Z" id="Path" fill="#FFFFFF"></path>
                        <g id="Group" opacity="0.3" transform="translate(50.369874, 124.010526)" fill="#000000">
                            <path d="M0.198828452,37.6408421 C2.37087988,38.4515122 4.74974905,38.5214523 6.96562343,37.8397895 C6.96562343,38.8411579 7.01201674,39.8292632 7.0385272,40.8571579 C18.0950499,37.6535911 25.2117998,26.9159666 23.8594142,15.4781053 C24.2504435,16.3468421 25.5295732,16.4794737 26.3381423,15.9622105 C27.0942801,15.3691456 27.6477544,14.5558166 27.9221423,13.6345263 C29.2800169,10.1836575 30.0701044,6.53543587 30.2616904,2.83168421 L23.5744268,11.6251579 C21.0920415,7.53049737 18.0316289,3.81604797 14.4879665,0.596842105 C11.2732903,13.067109 6.88382822,25.2041916 1.37854393,36.8450526" id="Path"></path>
                        </g>
                        <g id="Group" opacity="0.3" transform="translate(152.435146, 152.526316)" fill="#000000">
                            <path d="M6.6872636,0.842210526 C1.8096769,7.54635167 -0.472145681,15.7931582 0.265104603,24.0527368 C0.290605565,24.7554351 0.464529184,25.4447653 0.775430962,26.0753684 C1.10580282,26.7117661 1.77609233,27.0976073 2.49198326,27.0634737 C3.36682845,26.9507368 3.91029289,26.0554737 4.16876987,25.2198947 C4.83153138,23.0646316 4.52666109,20.7502105 4.38085356,18.4954737 C4.00874359,12.3896446 4.98397026,6.2766821 7.23735565,0.590210526" id="Path"></path>
                        </g>
                        <g id="Group" opacity="0.3" transform="translate(192.863598, 156.505263)" fill="#000000">
                            <path d="M0.450677824,6.87031579 L0.980887029,7.95126316 C1.49121339,8.26957895 1.64364854,9.09189474 2.01479498,9.54284211 C2.46819021,9.99402528 3.1496756,10.1251585 3.7379749,9.87442105 C4.01588843,9.71888763 4.24529595,9.4893429 4.4007364,9.21126316 C6.19191622,6.47466693 7.42819191,3.41254762 8.03929707,0.198947368 C5.16666029,1.99857989 2.60399799,4.25148832 0.450677824,6.87031579 L0.450677824,6.87031579 Z" id="Path"></path>
                        </g>
                        <g id="Group" opacity="0.3" transform="translate(174.306276, 151.200000)" fill="#000000">
                            <path d="M0.0530209205,0.397894737 C-0.0732631467,4.82866046 0.76341562,9.23403303 2.50523849,13.3095789 C4.28144416,17.4003656 7.43614628,20.7376663 11.4193808,22.7396842 C6.92585774,16.0616842 1.69004184,9.56273684 0.0530209205,0.397894737 Z" id="Path"></path>
                        </g>
                        <g id="Group" opacity="0.3" transform="translate(57.660251, 228.126316)" fill="#000000">
                            <path d="M1.25924686,1.69105263 L1.32552301,1.69105263 C0.914610879,1.33294737 0.503698745,0.974842105 0.106041841,0.603473684 L1.25924686,1.69105263 Z" id="Path"></path>
                        </g>
                        <g id="Group" opacity="0.3" transform="translate(58.985774, 229.452632)" fill="#000000">
                            <path d="M0,0.391263158 C16.1211065,14.4379411 39.4122564,16.598341 57.8391967,5.75621053 C38.5021194,10.4869605 18.1384689,8.5981045 0,0.391263158 Z" id="Path"></path>
                        </g>
                        <path d="M26.9743933,184.934842 C26.7611129,185.022853 26.5388798,185.08734 26.3116318,185.127158 C25.688636,185.266421 25.0656402,185.379158 24.4293891,185.458737 C20.2466526,186.007859 15.9938094,185.592754 11.9959833,184.245158 C11.2338075,183.979895 10.6306946,183.747789 10.2197824,183.582 C10.000079,183.501351 9.79090227,183.394473 9.59678661,183.263684 C9.59678661,183.210632 10.5445356,183.582 12.068887,184.039579 C14.0633861,184.632967 16.109308,185.037067 18.1795481,185.246526 C20.249228,185.445461 22.3331988,185.445461 24.4028787,185.246526 C25.9603682,185.054211 26.9611381,184.875158 26.9743933,184.934842 Z" id="Path" fill="#FFFFFF"></path>
                        <path d="M27.3919331,190.989474 C27.14721,191.11156 26.8892402,191.205019 26.6231297,191.268 C26.119431,191.427158 25.3771381,191.612842 24.4558996,191.805158 C19.6037688,192.766694 14.5872009,192.481492 9.87514644,190.976211 C8.98041841,190.684421 8.26463598,190.412526 7.78082008,190.200316 C7.52433785,190.102941 7.2779513,189.980785 7.04515481,189.835579 C7.04515481,189.775895 8.14533891,190.220211 9.94805021,190.744105 C14.6477881,192.102899 19.5935969,192.381735 24.4161339,191.559789 C26.2519833,191.214947 27.3720502,190.896632 27.3919331,190.989474 Z" id="Path" fill="#FFFFFF"></path>
                        <path d="M30.9642176,138.779053 C30.6580476,138.913976 30.3409957,139.022681 30.0164686,139.104 L27.4184435,139.926316 C25.2247029,140.589474 22.2025105,141.544421 18.8953305,142.698316 C15.5881506,143.852211 12.6256067,144.986211 10.4915146,145.828421 L7.95313808,146.79 C7.65225573,146.934057 7.33672432,147.045226 7.01201674,147.121579 C7.29478513,146.946426 7.59188203,146.79557 7.90011715,146.670632 C8.48334728,146.392105 9.33168201,146.007474 10.3854728,145.569789 C12.499682,144.667895 15.4555983,143.494105 18.7694059,142.340211 C22.0832134,141.186316 25.1186611,140.264526 27.3389121,139.687579 C28.4457238,139.382526 29.3271967,139.150421 29.9899582,139.024421 C30.3063545,138.912413 30.6325285,138.830266 30.9642176,138.779053 L30.9642176,138.779053 Z" id="Path" fill="#FFFFFF"></path>
                        <path d="M33.1910962,149.482421 C33.1910962,149.575263 27.186477,150.762316 19.7502929,152.135053 C12.3141088,153.507789 6.26309623,154.548947 6.24981912,154.422947 C6.23658577,154.296947 12.2478326,153.149684 19.6906444,151.770316 C27.1334561,150.390947 33.1712134,149.389579 33.1910962,149.482421 Z" id="Path" fill="#FFFFFF"></path>
                        <path d="M96.3986611,118.207895 C96.3125021,118.274211 95.126159,116.709158 93.2770544,115.183895 C91.4279498,113.658632 89.684887,112.776632 89.7312803,112.677158 C90.1520448,112.784054 90.5542446,112.953973 90.924251,113.181158 C91.8390204,113.673449 92.702643,114.255466 93.5023933,114.918632 C94.3024743,115.580977 95.033071,116.323121 95.6828787,117.133579 C95.9758381,117.452274 96.2173339,117.814734 96.3986611,118.207895 Z" id="Path" fill="#FFFFFF"></path>
                        <path d="M98.2345105,114.892105 C98.1483515,114.951789 97.0614226,113.486211 95.4244017,111.960947 C93.7873808,110.435684 92.2630293,109.434316 92.3226778,109.348105 C93.558795,109.931619 94.6809743,110.731088 95.6364854,111.708947 C96.6889183,112.602917 97.569366,113.681661 98.2345105,114.892105 Z" id="Path" fill="#FFFFFF"></path>
                        <path d="M67.3100586,218.364632 C67.217272,218.364632 65.9845356,212.124316 64.5595983,204.385263 C63.1346611,196.646211 62.0543598,190.359474 62.1471464,190.359474 C62.2399331,190.359474 63.4726695,196.606421 64.8976067,204.345474 C66.3225439,212.084526 67.4028452,218.351368 67.3100586,218.364632 Z" id="Path" fill="#FFFFFF"></path>
                        <path d="M75.5548117,219.074211 C75.502277,218.961788 75.4622704,218.84392 75.4355146,218.722737 C75.3692385,218.457474 75.2764519,218.119263 75.17041,217.708105 C74.9450711,216.826105 74.6335732,215.546211 74.2690544,213.961263 C73.5466444,210.784737 72.6187782,206.381368 71.7439331,201.487263 C70.8690879,196.593158 70.212954,192.136737 69.7954142,188.887263 C69.5899582,187.269158 69.4308954,185.962737 69.3447364,185.054211 L69.2453222,184.013053 C69.2320627,183.889619 69.2320627,183.765118 69.2453222,183.641684 C69.29133,183.758172 69.3181879,183.881344 69.3248536,184.006421 L69.4905439,185.040947 C69.6297238,185.989263 69.8219247,187.275789 70.0538912,188.854105 C70.5310795,192.070421 71.2269791,196.513579 72.0951967,201.407684 C72.9634142,206.301789 73.8581423,210.691895 74.5209038,213.888316 C74.8522845,215.440105 75.1173891,216.72 75.3162176,217.661684 L75.515046,218.689579 C75.5482123,218.81494 75.5616289,218.944711 75.5548117,219.074211 L75.5548117,219.074211 Z" id="Path" fill="#FFFFFF"></path>
                        <path d="M60.2516485,229.843895 C60.039607,227.941539 59.9400194,226.028314 59.9534059,224.114211 C59.8584058,222.204935 59.8761102,220.291714 60.0064268,218.384526 C60.2182846,220.284678 60.317872,222.195685 60.3046695,224.107579 C60.4029924,226.018997 60.3852862,227.934624 60.2516485,229.843895 L60.2516485,229.843895 Z" id="Path" fill="#FFFFFF"></path>
                        <path d="M66.4617238,232.065474 C66.2452584,231.4191 66.0942735,230.752592 66.011046,230.076 C65.4626539,226.870852 65.286957,223.612952 65.4874644,220.367368 C65.5002749,219.697893 65.5802069,219.031395 65.7260586,218.377895 C65.7724623,219.04024 65.7724623,219.705023 65.7260586,220.367368 C65.7260586,221.607474 65.7260586,223.318421 65.8122176,225.208421 C65.8983766,227.098421 66.097205,228.796105 66.2496402,230.029579 C66.3701502,230.702086 66.4410362,231.382555 66.4617238,232.065474 L66.4617238,232.065474 Z" id="Path" fill="#FFFFFF"></path>
                        <path d="M71.0745439,251.655158 C70.9817573,251.655158 70.849205,247.848632 70.7763013,243.153474 C70.7033975,238.458316 70.7299079,234.651789 70.8293222,234.651789 C70.9287364,234.651789 71.0546611,238.451684 71.1275649,243.153474 C71.2004686,247.855263 71.1739582,251.655158 71.0745439,251.655158 Z" id="Path" fill="#FFFFFF"></path>
                        <path d="M78.0799331,250.547684 C77.9871464,250.547684 77.8545941,247.231895 77.7949456,243.160105 C77.7352971,239.088316 77.7551799,235.759263 77.8479665,235.759263 C77.9407531,235.759263 78.0733054,239.075053 78.1395816,243.153474 C78.2058577,247.231895 78.2058577,250.547684 78.0799331,250.547684 Z" id="Path" fill="#FFFFFF"></path>
                        <path d="M144.097607,134.561368 C144.150628,134.634316 140.744033,137.286947 136.489105,140.49 C132.234176,143.693053 128.728167,146.219684 128.675146,146.140105 C128.622126,146.060526 131.988954,143.407895 136.283649,140.211474 C140.578343,137.015053 144.037958,134.481789 144.097607,134.561368 Z" id="Path" fill="#FFFFFF"></path>
                        <path d="M141.830962,129.720316 C141.890611,129.799895 138.444251,132.372947 134.136301,135.529579 C129.828351,138.686211 126.289205,141.139895 126.229556,141.060316 C126.169908,140.980737 129.622895,138.407684 133.930845,135.251053 C138.238795,132.094421 141.830962,129.640737 141.830962,129.720316 Z" id="Path" fill="#FFFFFF"></path>
                        <path d="M171.138276,190.193684 C171.03324,190.096507 170.939828,189.987462 170.859916,189.868737 L170.110996,188.900526 L169.580787,188.197579 C169.395213,187.932316 169.20964,187.633895 169.004184,187.322211 C168.524729,186.618504 168.082287,185.890251 167.678661,185.140421 L166.949623,183.814105 C166.704402,183.363158 166.48569,182.865789 166.240469,182.361789 C165.73677,181.367053 165.312603,180.246316 164.842042,179.085789 C162.925317,173.96213 162.00088,168.520216 162.118092,163.050632 C162.177741,161.790632 162.204251,160.596947 162.356686,159.489474 C162.422962,158.932421 162.462728,158.395263 162.548887,157.884632 C162.635046,157.374 162.721205,156.883263 162.800736,156.412421 C162.939916,155.470737 163.17851,154.648421 163.350828,153.912316 C163.443615,153.547579 163.516519,153.202737 163.609305,152.891053 C163.702092,152.579368 163.794879,152.307474 163.87441,152.048842 C164.033473,151.578 164.159397,151.193368 164.258812,150.894947 C164.297971,150.75718 164.351276,150.623838 164.417874,150.497053 C164.403563,150.639497 164.372417,150.77974 164.325088,150.914842 C164.245556,151.219895 164.139515,151.578 164.006962,152.088632 L163.768368,152.937474 C163.688837,153.249158 163.622561,153.600632 163.536402,153.958737 C163.383967,154.694842 163.165255,155.517158 163.039331,156.458842 C162.966427,156.923053 162.893523,157.413789 162.807364,157.917789 C162.721205,158.421789 162.701322,158.965579 162.641674,159.516 C162.502494,160.623474 162.489238,161.810526 162.436218,163.057263 C162.34915,168.48397 163.265925,173.879988 165.140285,178.973053 C165.59759,180.133579 166.008502,181.247684 166.465808,182.242421 C166.704402,182.746421 166.916485,183.237158 167.128569,183.694737 L167.831096,185.021053 C168.255264,185.863263 168.739079,186.572842 169.156619,187.216105 C169.355448,187.534421 169.534393,187.832842 169.713339,188.104737 L170.217038,188.820947 L170.879799,189.828947 C170.979981,189.939942 171.066739,190.062366 171.138276,190.193684 L171.138276,190.193684 Z" id="Path" fill="#FFFFFF"></path>
                        <path d="M179.058276,183.727895 C178.95999,183.645038 178.871089,183.551636 178.793172,183.449368 L178.077389,182.627053 C177.765891,182.268947 177.414628,181.818 176.997088,181.300737 C176.517396,180.707425 176.074715,180.085086 175.671565,179.437263 C175.227515,178.721053 174.677423,177.958421 174.180351,177.089684 C173.68328,176.220947 173.166326,175.285895 172.642745,174.284526 C170.441082,169.905015 168.94468,165.20498 168.20887,160.358211 C168.056435,159.244105 167.897372,158.183053 167.837724,157.181684 C167.778075,156.180316 167.711799,155.258526 167.691916,154.403053 C167.672033,153.547579 167.691916,152.784947 167.691916,152.108526 C167.696026,151.530276 167.729206,150.952598 167.791331,150.377684 C167.837724,149.900211 167.870862,149.575263 167.897372,149.290105 C167.904285,149.162396 167.924272,149.035733 167.957021,148.912105 C167.97028,149.039973 167.97028,149.16887 167.957021,149.296737 C167.957021,149.581895 167.957021,149.959895 167.917255,150.384316 C167.876959,150.960331 167.865899,151.538021 167.884117,152.115158 C167.884117,152.778316 167.884117,153.554211 167.917255,154.396421 C167.950393,155.238632 167.990159,156.167053 168.102828,157.155158 C168.215498,158.143263 168.341423,159.204316 168.500485,160.311789 C169.269414,165.109193 170.755156,169.763578 172.907849,174.118737 C173.424803,175.113474 173.895364,176.068421 174.412318,176.917263 C174.929272,177.766105 175.393205,178.568526 175.857138,179.271474 C176.321071,179.974421 176.765121,180.597789 177.182661,181.154842 C177.600201,181.711895 177.918326,182.169474 178.216569,182.540842 L178.879331,183.409579 C178.92868,183.52116 178.988602,183.627753 179.058276,183.727895 Z" id="Path" fill="#FFFFFF"></path>
                        <path d="M187.998929,151.471895 C187.352185,151.509775 186.703781,151.509775 186.057038,151.471895 C184.50388,151.520043 182.961032,151.742489 181.457473,152.135053 C179.958099,152.539788 178.51035,153.116118 177.142895,153.852632 C176.089105,154.416316 175.479364,154.840737 175.446226,154.794316 C175.413088,154.747895 175.565523,154.648421 175.837255,154.442842 C176.21251,154.14981 176.606596,153.881759 177.016971,153.640421 C179.746458,152.00886 182.878119,151.174935 186.057038,151.233158 C186.533771,151.238571 187.009692,151.27401 187.481975,151.339263 C187.660057,151.356764 187.834403,151.401494 187.998929,151.471895 Z" id="Path" fill="#FFFFFF"></path>
                        <path d="M189.092485,158.209579 C189.092485,158.262632 188.429724,158.156526 187.316285,158.090211 C184.472647,157.908509 181.622278,158.319497 178.945607,159.297158 C177.918326,159.668526 177.295331,159.960316 177.275448,159.913895 C177.756448,159.55622 178.288092,159.272358 178.85282,159.071684 C180.189442,158.508199 181.592639,158.118189 183.028218,157.911158 C184.464487,157.706572 185.920828,157.68429 187.362678,157.844842 C187.953493,157.884855 188.535774,158.007631 189.092485,158.209579 L189.092485,158.209579 Z" id="Path" fill="#FFFFFF"></path>
                        <path d="M74.5871799,119.945368 C74.6534561,120.018316 73.122477,121.523684 71.3727866,123.499895 C69.6230962,125.476105 68.2909456,127.160526 68.2114142,127.100842 C68.4078039,126.670399 68.6620001,126.268797 68.9669623,125.907158 C69.4839163,125.204211 70.2328368,124.262526 71.1143096,123.254526 C71.8627015,122.402838 72.6546568,121.590488 73.4869958,120.820737 C73.8124056,120.480433 74.1825193,120.185949 74.5871799,119.945368 Z" id="Path" fill="#FFFFFF"></path>
                        <path d="M72.3536736,116.516842 C71.4494755,117.638172 70.4589349,118.686955 69.3911297,119.653579 C68.3972186,120.695869 67.3248131,121.660281 66.183364,122.538316 C67.0875622,121.416986 68.0781028,120.368203 69.1459079,119.401579 C70.1398191,118.359289 71.2122246,117.394877 72.3536736,116.516842 Z" id="Path" fill="#FFFFFF"></path>
                        <path d="M130.285657,183.926842 C130.15821,183.972139 130.027485,184.007611 129.894628,184.032947 L128.754678,184.271684 C127.767163,184.477263 126.322343,184.742526 124.539515,185.040947 C120.96723,185.631158 116.009774,186.307579 110.502226,186.738632 C104.994678,187.169684 99.9908285,187.289053 96.3721506,187.255895 C94.5628117,187.255895 93.0981088,187.209474 92.0907113,187.163053 L90.924251,187.103368 C90.7881093,187.10431 90.6523562,187.088722 90.5199665,187.056947 C90.6544024,187.043691 90.7898151,187.043691 90.924251,187.056947 L96.3721506,187.056947 C99.9842008,187.023789 104.98805,186.877895 110.475715,186.446842 C115.963381,186.015789 120.927464,185.379158 124.499749,184.842 C126.289205,184.576737 127.734025,184.351263 128.728167,184.178842 L129.881372,183.999789 C130.01262,183.95892 130.148409,183.934419 130.285657,183.926842 L130.285657,183.926842 Z" id="Path" fill="#FFFFFF"></path>
                        <path d="M130.564017,189.915158 C130.437624,189.963757 130.306601,189.99931 130.172987,190.021263 L129.033038,190.26 C128.038895,190.465579 126.600703,190.730842 124.811247,191.029263 C121.24559,191.626105 116.288134,192.295895 110.780586,192.733579 C105.273038,193.171263 100.269188,193.277368 96.6505105,193.250842 C94.8411715,193.250842 93.3764686,193.197789 92.3624435,193.151368 L91.2026109,193.091684 C91.0664692,193.092625 90.930716,193.077038 90.7983264,193.045263 C90.9327623,193.032007 91.068175,193.032007 91.2026109,193.045263 L96.6505105,193.045263 C100.262561,193.012105 105.26641,192.859579 110.754075,192.428526 C116.241741,191.997474 121.199197,191.360842 124.778109,190.830316 C126.560937,190.565053 128.005757,190.332947 129.006527,190.167158 L130.159732,189.994737 C130.289879,189.948569 130.426091,189.921757 130.564017,189.915158 L130.564017,189.915158 Z" id="Path" fill="#FFFFFF"></path>
                        <g id="Group" opacity="0.3" transform="translate(125.261925, 136.610526)" fill="#000000">
                            <path d="M7.68803347,53.9677895 C11.3332218,45.5456842 11.5453054,35.4656842 9.67631799,26.4865263 C7.80733054,17.5073684 4.11574895,9.02557895 0.450677824,0.623368421 C5.64010042,19.5034737 5.38825105,32.2493684 5.03035983,49.6970526 L7.68803347,53.9677895 Z" id="Path"></path>
                        </g>
                        <path d="M188.887029,143.646632 L211.473941,123.838105 L218.227481,137.485895 L193.897506,164.463158 C193.897506,164.463158 186.381791,152.227895 188.887029,143.646632 Z" id="Path" fill="#EDBC9C"></path>
                        <path d="M239.48887,121.682842 C239.48887,121.682842 237.261992,119.852526 232.582895,121.384421 C227.903799,122.916316 224.967766,121.152316 223.045757,120.582 C218.738624,119.44013 214.155618,120.816623 211.188954,124.143158 L218.227481,137.485895 L241.059615,138.480632 L259.91518,137.777684 C260.357662,136.721455 259.956537,135.500401 258.974059,134.912842 L262.950628,133.785474 C262.950628,133.785474 262.950628,130.184526 258.662561,130.469684 L259.63682,128.400632 C259.63682,128.400632 257.105071,125.462842 254.652854,128.831684 C254.652854,128.831684 252.253657,126.842211 248.747649,130.038632 L244.983163,131.020105 L235.903331,127.797158 C235.903331,127.797158 243.392536,125.549053 239.48887,121.682842 Z" id="Path" fill="#EDBC9C"></path>
                        <path d="M242.63036,133.327895 C242.284459,133.226852 241.945695,133.102786 241.616335,132.956526 L238.90564,131.842421 C236.619113,130.887474 233.477623,129.547895 230.011381,128.042526 C228.268318,127.299789 226.637925,126.530526 225.09369,126.053053 C223.736744,125.582099 222.297138,125.39696 220.865272,125.509263 C219.900704,125.590599 218.963813,125.872964 218.114812,126.338211 C217.524954,126.676421 217.239967,126.941684 217.220084,126.921789 C217.200201,126.901895 217.279732,126.842211 217.412285,126.709579 C217.6186,126.527122 217.840352,126.362927 218.075046,126.218842 C218.922229,125.696131 219.875621,125.369835 220.865272,125.263895 C222.332404,125.118192 223.813758,125.283137 225.212987,125.748 C226.898504,126.325579 228.55318,126.989616 230.170444,127.737474 C233.636686,129.242842 236.798059,130.622211 239.031565,131.630211 L241.682611,132.850421 C242.014329,132.976016 242.331979,133.136048 242.63036,133.327895 L242.63036,133.327895 Z" id="Path" fill="#D69770"></path>
                        <path d="M246.394845,135.032211 C246.790434,134.663582 247.216079,134.32863 247.667347,134.030842 C248.475916,133.440632 249.582728,132.624947 250.775699,131.676632 C251.968669,130.728316 253.02246,129.846316 253.778008,129.203053 C254.168947,128.825102 254.595047,128.485351 255.05051,128.188421 C254.731107,128.629583 254.359462,129.030398 253.943699,129.382105 C253.221289,130.078421 252.187381,131.000211 250.987782,131.948526 C249.788184,132.896842 248.648234,133.692632 247.806527,134.236421 C247.369764,134.557682 246.895759,134.824886 246.394845,135.032211 L246.394845,135.032211 Z" id="Path" fill="#D69770"></path>
                        <path d="M252.107849,137.850632 C252.034946,137.771053 253.764753,136.298842 255.560837,134.163474 C257.356921,132.028105 258.523381,130.085053 258.616167,130.138105 C258.455898,130.608037 258.232965,131.05417 257.953406,131.464421 C257.326493,132.491197 256.619562,133.466859 255.839197,134.382316 C255.064468,135.301158 254.222658,136.161204 253.320703,136.955368 C252.960504,137.309373 252.552196,137.610763 252.107849,137.850632 L252.107849,137.850632 Z" id="Path" fill="#D69770"></path>
                        <path d="M33.7213054,177.096316 C34.211749,177.096316 78.0070293,156.836842 78.0070293,156.836842 L85.0853222,170.013789 C85.0853222,170.013789 49.2962008,202.336105 41.5816569,203.655789 C33.867113,204.975474 25.0126192,203.781789 25.0126192,195.545368 C25.0126192,187.308947 33.7213054,177.096316 33.7213054,177.096316 Z" id="Path" fill="#EDBC9C"></path>
                        <path d="M106.287063,154.250526 C106.287063,154.250526 104.060184,152.420211 99.3877155,153.952105 C94.7152469,155.484 91.7725858,153.72 89.8439498,153.149684 C85.514735,152.076184 80.9486353,153.508741 78.0070293,156.863368 L85.0323013,170.053579 L107.857808,171.048316 L126.700117,170.345368 C127.142599,169.289139 126.741474,168.068086 125.758996,167.480526 L129.735565,166.353158 C129.735565,166.353158 129.735565,162.752211 125.447498,163.037368 L126.421757,160.968316 C126.421757,160.968316 123.890008,158.030526 121.437791,161.399368 C121.437791,161.399368 119.045222,159.409895 115.539213,162.606316 L111.7681,163.587789 L102.688268,160.364842 C102.688268,160.364842 110.197356,158.116737 106.287063,154.250526 Z" id="Path" fill="#EDBC9C"></path>
                        <path d="M102.648502,160.391368 C102.106745,160.525792 101.549652,160.588223 100.991598,160.577053 C99.9576904,160.630105 98.5327531,160.610211 96.9620084,160.577053 C95.3912636,160.543895 93.9795816,160.490842 92.9854393,160.484211 C92.4298728,160.513035 91.8728244,160.488608 91.3219079,160.411263 C91.8686809,160.294558 92.4263686,160.236755 92.9854393,160.238842 C94.0127197,160.185789 95.4376569,160.179158 97.0084017,160.238842 C98.5791464,160.298526 99.9908285,160.351579 100.984971,160.358211 C101.539502,160.326083 102.09569,160.337169 102.648502,160.391368 Z" id="Path" fill="#D69770"></path>
                        <path d="M127.077891,163.514842 C126.883716,163.594608 126.677685,163.641665 126.468151,163.654105 C126.070494,163.720421 125.493891,163.8 124.778109,163.879579 C123.353172,164.038737 121.364887,164.191263 119.171146,164.237684 C117.296818,164.291303 115.420976,164.249249 113.550929,164.111684 C112.835146,164.065263 112.225406,164.012211 111.854259,163.959158 C111.645119,163.950258 111.437979,163.914599 111.237891,163.853053 C112.012416,163.800006 112.789659,163.800006 113.564184,163.853053 C114.995749,163.853053 116.977406,163.919368 119.164519,163.853053 C121.351632,163.786737 123.326661,163.693895 124.758226,163.594421 C125.529164,163.521545 126.303775,163.494971 127.077891,163.514842 L127.077891,163.514842 Z" id="Path" fill="#D69770"></path>
                        <path d="M107.307715,35.4922105 C106.121372,25.1469474 98.5990293,12.7591579 88.3195983,14.3838947 L56.4473975,24.192 C53.325651,24.6893203 51.0998298,27.4890869 51.3176234,30.6445263 L60.4571046,105.123789 C62.1670293,106.655684 82.3613724,125.104737 82.3613724,125.104737 L94.350728,103.140947 C94.350728,103.140947 93.8205188,89.9905263 93.8337741,90.0767368 C93.8470293,90.1629474 106.976335,87.1986316 108.838695,69.7575789 C109.773188,61.0768421 108.619983,46.9913684 107.307715,35.4922105 Z" id="Path" fill="#EDBC9C"></path>
                        <path d="M103.390795,49.1068421 C103.459905,50.3091794 102.561718,51.348879 101.362745,51.4544211 C100.80288,51.5257698 100.237625,51.3715982 99.7913897,51.0258387 C99.3451543,50.6800793 99.0545116,50.1710701 98.983431,49.6108421 L98.983431,49.5710526 C98.9095981,48.3815694 99.7869326,47.3456955 100.971715,47.2234737 C101.528056,47.1398495 102.094808,47.2808293 102.54725,47.6153887 C102.999692,47.9499481 103.300748,48.4506716 103.384167,49.0073684 C103.389614,49.0402306 103.391834,49.0735473 103.390795,49.1068421 Z" id="Path" fill="#2E353A"></path>
                        <path d="M104.411448,44.3851579 C104.152971,44.6902105 102.423163,43.5296842 100.017339,43.6556842 C97.6115146,43.7816842 95.9479833,45.0682105 95.6696234,44.7896842 C95.5370711,44.6636842 95.7889205,44.1265263 96.5245858,43.5363158 C97.5217277,42.7663891 98.7324848,42.3239553 99.9908285,42.2696842 C101.231746,42.2042162 102.461481,42.5338895 103.503464,43.2113684 C104.26564,43.7684211 104.537372,44.2458947 104.411448,44.3851579 Z" id="Path" fill="#2E353A"></path>
                        <path d="M80.6845858,50.5127368 C80.7572654,51.7162855 79.8572236,52.7581331 78.6565356,52.8603158 C77.505454,53.0140998 76.4448302,52.2129829 76.2772218,51.0631579 C76.2804883,51.0411735 76.2804883,51.0188265 76.2772218,50.9968421 C76.2033889,49.8073589 77.0807234,48.771485 78.2655063,48.6492632 C78.8271649,48.5759388 79.3949163,48.7290395 79.8436887,49.0748383 C80.2924611,49.420637 80.5854368,49.9307641 80.6580753,50.4928421 L80.6845858,50.5127368 Z" id="Path" fill="#2E353A"></path>
                        <path d="M80.6249372,45.6650526 C80.3664603,45.9701053 78.6366527,44.8095789 76.2374561,44.9422105 C73.8382594,45.0748421 72.1614728,46.3481053 71.8897406,46.0695789 C71.7571883,45.9502105 72.00241,45.4064211 72.7447029,44.8162105 C73.7447269,44.0469202 74.957367,43.6046439 76.2175732,43.5495789 C77.458491,43.484111 78.6882261,43.8137842 79.7302092,44.4912632 C80.4791297,45.0217895 80.7574895,45.5324211 80.6249372,45.6650526 Z" id="Path" fill="#2E353A"></path>
                        <path d="M90.7519331,61.9057895 C90.7519331,61.7665263 92.2033808,61.4349474 94.5893222,61.0038947 C95.1990628,60.9110526 95.7690377,60.7585263 95.848569,60.3407368 C95.8695373,59.7071041 95.6960688,59.0822439 95.3514979,58.5502105 L93.3101925,54.0009474 C90.4735732,47.5152632 88.3792469,42.1768421 88.6708619,42.0641053 C88.962477,41.9513684 91.4610879,47.0842105 94.2844519,53.5964211 C94.9737238,55.1968421 95.6364854,56.7243158 96.2727364,58.1788421 C96.6945784,58.8959707 96.8495114,59.7392164 96.710159,60.5595789 C96.5561758,61.0051999 96.2032469,61.353435 95.7557824,61.5012632 C95.4231187,61.610692 95.0779476,61.6775393 94.7285021,61.7002105 C92.2696569,61.9522105 90.7983264,62.0384211 90.7519331,61.9057895 Z" id="Path" fill="#2E353A"></path>
                        <path d="M93.8404017,90.0767368 C85.7042553,90.6191673 77.577378,88.8904268 70.3653891,85.0831579 C70.3653891,85.0831579 76.8140586,96.6817895 94.0392301,94.1750526 L93.8404017,90.0767368 Z" id="Path" fill="#D69770"></path>
                        <path d="M81.6323347,36.4338947 C81.4268787,37.0970526 79.027682,36.9113684 76.2440837,37.3888421 C73.4604854,37.8663158 71.2402343,38.7549474 70.8359498,38.1912632 C70.6570042,37.9193684 71.021523,37.2893684 71.9029958,36.6129474 C74.3013401,34.9323045 77.3369545,34.4435789 80.1411213,35.2866316 C81.1617741,35.6381053 81.7052385,36.1222105 81.6323347,36.4338947 Z" id="Path" fill="#2E353A"></path>
                        <path d="M104.086695,36.2415789 C103.695665,36.8052632 102.025506,36.3277895 100.043849,36.4007368 C98.0621925,36.4736842 96.4119163,36.9511579 95.9943766,36.4007368 C95.815431,36.1288421 96.0473975,35.5717895 96.7565523,35.0213684 C98.7038974,33.6604687 101.279728,33.6107024 103.278126,34.8953684 C104.000536,35.4192632 104.259013,35.9696842 104.086695,36.2415789 Z" id="Path" fill="#2E353A"></path>
                        <path d="M46.9235146,26.6921053 C48.467749,24.0991579 51.3706444,22.7131579 54.1409874,21.4929474 C66.1002389,16.3483894 78.6281139,12.6441003 91.4610879,10.458 C93.1710126,13.0443158 91.8189791,16.7049474 89.4728033,18.7275789 C87.1266276,20.7502105 84.038159,21.6255789 81.1750293,22.8192632 C78.3118996,24.0129474 75.4090042,25.7968421 74.3220753,28.7014737 C73.1688703,31.7851579 74.3750962,35.3330526 73.380954,38.4830526 C71.6842845,43.8877895 64.2878661,45.8905263 62.6243347,51.3018947 C61.3518326,55.4002105 63.8504435,59.6112632 64.6126192,63.8355789 C66.0984357,72.1714132 60.5497385,80.1342509 52.2189791,81.6214737 C51.5612091,81.7342929 50.8972457,81.8073725 50.2306946,81.8403158 C48.759364,66.5744211 47.2946611,51.3085263 45.8365858,36.0426316 C45.5383431,32.8594737 45.2864937,29.4309474 46.9235146,26.6921053 Z" id="Path" fill="#2E353A"></path>
                        <path d="M92.2365188,69.2734737 C91.9423731,70.3296102 91.4958309,71.3371652 90.9109958,72.2643158 C90.3148893,73.1936018 89.3501107,73.8234963 88.2599498,73.9951579 C87.0720726,74.054296 85.9357607,73.5045418 85.2443849,72.5362105 C84.574589,71.5628474 84.231111,70.4017547 84.2634979,69.2204211 C84.2634979,68.166 84.6810377,66.8794737 85.7215732,66.7070526 C86.1616848,66.6717279 86.6036448,66.7469516 87.0073305,66.9258947 L92.6142929,68.9153684" id="Path" fill="#D69770"></path>
                        <path d="M90.2482343,73.9089474 C90.2084686,73.7365263 89.0287531,74.2869474 87.2989456,73.6901053 C86.3160079,73.3629124 85.4894132,72.6823363 84.9792803,71.7802105 C84.3939851,70.6704995 84.3049106,69.3648988 84.7340586,68.1858947 C84.8464176,67.8869062 84.9932152,67.6020376 85.1714812,67.3370526 C85.3769372,67.0983158 85.3371715,67.1115789 85.5757657,67.1314737 C85.8843765,67.207202 86.1859322,67.3092598 86.4771213,67.4365263 L87.3983598,67.7614737 C88.5979582,68.1792632 89.684887,68.544 90.5994979,68.8357895 C92.4353473,69.426 93.5951799,69.7244211 93.6415732,69.5917895 C93.6879665,69.4591579 92.6142929,68.9286316 90.8447197,68.1858947 C89.9566192,67.8078947 88.8962008,67.3768421 87.7098577,66.9126316 L86.8018745,66.5545263 C86.4771213,66.4417895 86.2186444,66.3091579 85.7745941,66.1897895 C85.5026691,66.1253615 85.2173503,66.1485721 84.9593975,66.2561053 C84.72341,66.3719107 84.5222051,66.5480702 84.3761674,66.7667368 C84.1422246,67.0986412 83.9528251,67.4598304 83.8128201,67.8410526 C83.2762869,69.2895491 83.4148466,70.902181 84.1905941,72.2377895 C84.8420862,73.2992271 85.884845,74.0615157 87.0934895,74.3598947 C87.8760381,74.5785885 88.70351,74.5785885 89.4860586,74.3598947 C90.0228954,74.1609474 90.2482343,73.962 90.2482343,73.9089474 Z" id="Path" fill="#2E353A"></path>
                        <path d="M62.9623431,61.8461053 C65.6133891,64.6512632 65.0036485,69.1408421 63.7377741,72.7484211 C62.4718996,76.356 60.6625607,80.0895789 61.3717155,83.8629474 C62.4520167,89.5727368 68.97359,93.3129474 69.3248536,99.1155789 C69.6761172,104.918211 63.4859247,109.666421 63.6251046,115.548632 C63.6980084,118.818 65.7260586,121.656316 67.1377406,124.607368 C68.5494226,127.558421 69.2386946,131.431263 67.0051883,133.825263 C64.22159,136.809474 59.1116987,135.211263 56.0232301,132.538737 C49.7004854,127.087579 46.9301423,118.413474 46.744569,110.070947 C46.5589958,101.728421 48.7328536,93.5317895 50.7874142,85.4412632 C52.8419749,77.3507368 54.836887,69.0944211 54.3464435,60.7585263" id="Path" fill="#2E353A"></path>
                        <path d="M46.6782929,96.0915789 C44.179682,99.7323158 44.1200335,104.526947 44.8424435,108.883895 C45.5648536,113.240842 46.9632803,117.504947 47.0626946,121.928211 C47.1687364,126.742737 45.7371715,131.563895 46.4396987,136.325368 C47.1024603,140.675684 49.5149121,144.535263 51.0790293,148.653474 C52.6431464,152.771684 53.219749,157.791789 50.515682,161.253474 C53.8436627,161.327887 56.9768376,159.687746 58.8134561,156.909789 C58.8134561,158.017263 58.7405523,159.124737 58.7007866,160.225579 C65.8784937,157.765263 69.7689038,149.615053 69.9677322,142.035158 C70.1665607,134.455263 67.4028452,127.140632 65.2223598,119.865789 C63.0418745,112.590947 61.3849707,104.739158 63.6251046,97.4842105" id="Path" fill="#2E353A"></path>
                        <path d="M92.388954,13.5814737 C92.388954,13.5814737 92.3359331,13.4223158 92.2497741,13.1106316 C92.143596,12.6547462 91.9926359,12.2104805 91.7990962,11.7843158 C91.0734171,10.0864798 89.9174699,8.60753675 88.445523,7.49368421 C87.3929659,6.6623857 86.2106561,6.01038207 84.9461423,5.56389474 C83.4583942,5.03946034 81.8818038,4.81409844 80.3068117,4.90073684 C78.5064824,5.007282 76.7724472,5.61857899 75.3029623,6.66473684 C73.66036,7.86777569 72.2877109,9.40163458 71.2733724,11.1675789 C70.1612432,13.1159726 69.1567554,15.1239359 68.2644351,17.1824211 C67.2972066,19.4332948 66.107135,21.5815924 64.7120335,23.5951579 C63.9231647,24.6297136 63.0352745,25.5847665 62.0609874,26.4467368 C61.0801004,27.3221053 60.019682,28.1311579 58.9393808,28.9335789 C56.7721506,30.5317895 54.4392301,32.0570526 52.444318,34.0531579 C51.4180208,35.0406886 50.560517,36.189938 49.9059414,37.4551579 C49.7369533,37.7815117 49.5886439,38.1181761 49.4618912,38.4631579 C49.3187662,38.7943721 49.2077955,39.138587 49.1305105,39.4910526 C49.0310962,39.8425263 48.9449372,40.194 48.8786611,40.5521053 L48.7461088,41.6396842 C48.5406527,44.5907368 49.4088703,47.5616842 50.4228954,50.4596842 C50.9199665,51.9186316 51.4766862,53.3775789 51.9605021,54.8829474 C52.4854467,56.3937846 52.880127,57.9468265 53.1402176,59.5250526 C53.2716912,60.3234166 53.3469893,61.1300309 53.3655565,61.9389474 C53.3644102,62.7561604 53.300152,63.572063 53.1733556,64.3793684 C52.8798006,65.9918065 52.383191,67.5605161 51.6953975,69.048 C50.3698745,72.0653684 48.6268117,74.8307368 47.5862762,77.8348421 C47.0514644,79.3117851 46.7626353,80.8665707 46.7313138,82.4371579 C46.7446268,83.981103 47.0156726,85.5119709 47.5332552,86.9665263 C48.5273975,89.8777895 50.1843013,92.4375789 51.7285356,94.9841053 C52.5105941,96.2573684 53.2396318,97.5372632 53.9090209,98.8436842 C54.5654453,100.135917 55.1023115,101.485545 55.5129038,102.875684 C56.178228,105.597527 56.2325509,108.433065 55.6719665,111.178421 C55.2279163,113.831053 54.5585272,116.377579 54.1542427,118.871053 C53.9545792,120.089034 53.8306256,121.318238 53.7830962,122.551579 C53.7631572,123.740369 53.8563642,124.92836 54.0614561,126.099474 C54.4919709,128.300907 55.1288272,130.456856 55.9635816,132.538737 C56.7323849,134.528211 57.5343264,136.431474 58.177205,138.261789 C58.814673,139.983465 59.2960115,141.759046 59.6153975,143.567053 C59.8880334,145.141821 59.9326754,146.74766 59.7479498,148.335158 C59.5749315,149.669317 59.1854073,150.966268 58.5947448,152.174842 C57.8112006,153.870749 56.5486374,155.300051 54.9628117,156.286421 C54.7246628,156.433759 54.4766435,156.56449 54.2205188,156.677684 C54.0396119,156.765814 53.8537232,156.843314 53.6637992,156.909789 L53.1932385,157.055684 L53.6505439,156.876632 C53.8401841,156.809727 54.0241408,156.727673 54.200636,156.631263 C54.4547542,156.517513 54.6986597,156.382175 54.9296736,156.226737 C56.4818665,155.225574 57.7128934,153.79811 58.4754477,152.115158 C59.0464333,150.915927 59.4223148,149.633136 59.588887,148.315263 C59.7558827,146.743615 59.7001012,145.156241 59.4231967,143.600211 C59.0960801,141.809851 58.6103476,140.052179 57.971749,138.348 C57.3089874,136.530947 56.5136736,134.647579 55.7382427,132.638211 C54.8836124,130.546252 54.2332851,128.376458 53.7963515,126.159158 C53.5886577,124.970447 53.4932411,123.764814 53.511364,122.558211 C53.5510823,121.311727 53.6706245,120.069073 53.8692552,118.837895 C54.2735397,116.331158 54.9363013,113.791263 55.3737238,111.145263 C55.9178541,108.442094 55.8567414,105.651879 55.1947782,102.975158 C54.7885492,101.602524 54.2560632,100.270512 53.6041506,98.9962105 C52.9413891,97.7030526 52.2123515,96.4297895 51.4369205,95.1631579 C49.912569,92.6166316 48.2158996,90.0435789 47.1952469,87.0792632 C46.6636428,85.589016 46.3880161,84.0194708 46.3800502,82.4371579 C46.4091943,80.8306379 46.7025242,79.2398836 47.2482678,77.7287368 C48.3086862,74.6782105 50.0451213,71.8995789 51.3640167,68.9153684 C52.0412972,67.4520855 52.535477,65.9107478 52.8353473,64.3263158 C52.9606457,63.5345133 53.0226997,62.7339807 53.0209205,61.9323158 C53.0023626,61.1387887 52.9270571,60.3476087 52.7955816,59.5648421 C52.5460965,58.0080271 52.1579389,56.476662 51.635749,54.9890526 C51.1519331,53.4969474 50.601841,52.038 50.0981423,50.5724211 C49.0907448,47.6611579 48.209272,44.6504211 48.414728,41.6197895 L48.5539079,40.4990526 C48.6196811,40.1297936 48.7059739,39.7644901 48.8123849,39.4048421 C48.8941252,39.0412279 49.0095011,38.6860126 49.1570209,38.3437895 C49.2895732,37.9989474 49.4420084,37.6806316 49.6076987,37.3291579 C50.2782456,36.0250729 51.1581586,34.8399523 52.2123515,33.8210526 C54.2695196,31.956323 56.4554153,30.2389143 58.7538075,28.6815789 C59.8341088,27.8857895 60.8878996,27.0833684 61.8555314,26.2212632 C62.8085985,25.3729153 63.676523,24.433397 64.4469289,23.4161053 C65.8369422,21.4216037 67.0247422,19.2933926 67.9927029,17.0630526 C68.8943645,14.9955449 69.9122257,12.9807454 71.0414059,11.0283158 C72.0812622,9.24336662 73.480566,7.69417867 75.1505272,6.47905263 C76.6604969,5.39097823 78.449127,4.75607184 80.3068117,4.64873684 C81.9050909,4.57361542 83.5023549,4.81706772 85.0057908,5.36494737 C86.2788156,5.81358401 87.4698606,6.46770643 88.531682,7.30136842 C90.0066268,8.43573318 91.1508988,9.94478568 91.8454895,11.6715789 C92.0355869,12.114935 92.1777836,12.5773505 92.2696569,13.0509474 C92.3558159,13.4223158 92.388954,13.5814737 92.388954,13.5814737 Z" id="Path" fill="#FFFFFF"></path>
                    </g>
                </g>
            </g>
        </g>
    </g>
</svg>