<?xml version="1.0" encoding="UTF-8"?>
<svg width="300px" height="300px" viewBox="0 0 300 300" version="1.1" xmlns="http://www.w3.org/2000/svg" xmlns:xlink="http://www.w3.org/1999/xlink">
    <title>Group 4</title>
    <g id="Page-1" stroke="none" stroke-width="1" fill="none" fill-rule="evenodd">
        <g id="For-you-and-your-partner-Copy-5" transform="translate(-57.000000, -1757.000000)">
            <g id="Group-4" transform="translate(57.000000, 1757.000000)">
                <circle id="Mask-Copy-3" fill="#E13856" opacity="0.0770321801" cx="150" cy="150" r="150"></circle>
                <g id="Group-47" transform="translate(4.000000, 24.000000)">
                    <path d="M129.552605,194.77675 C127.403255,192.09015 122.567655,186.7173 119.881055,184.0307 C117.194105,181.34375 115.045105,165.22415 113.970255,158.7768 C112.895755,152.3291 112.358505,143.19445 109.134655,138.8961 C105.910805,134.59775 104.299055,125.4631 101.612455,107.73175 C99.834455,95.998 96.409705,91.0882 94.296055,89.10895 C93.457105,88.32355 92.360905,87.86995 91.212555,87.829 C72.551255,87.1605 71.522605,71.73145 71.522605,71.73145 L65.612155,71.73145 L59.701705,71.73145 C59.701705,71.73145 58.673055,87.1605 40.011755,87.829 C38.863405,87.86995 37.767205,88.32355 36.928255,89.10895 C34.814605,91.0882 31.389855,95.998 29.611855,107.73175 C26.925255,125.4631 25.313505,134.59775 22.089655,138.8961 C18.865805,143.19445 18.328555,152.3291 17.253705,158.7768 C16.179205,165.22415 14.029855,181.34375 11.343255,184.0307 C8.656655,186.7173 3.821055,192.09015 1.671705,194.77675 C-0.477645,197.46335 0.059955,206.0604 0.059955,207.6725 C0.059955,209.28425 5.970055,203.9114 8.119405,200.6872 C10.268405,197.46335 10.806005,196.3885 11.880505,196.3885 C12.955005,196.3885 9.731155,201.76205 11.880505,202.83655 C14.029855,203.9114 15.641955,197.46335 16.716455,194.77675 C17.791305,192.09015 17.791305,184.56795 18.865805,181.34375 C19.940305,178.1199 33.373305,150.717 35.522655,146.95555 C37.671655,143.19445 38.746505,127.07485 39.283755,124.3886 C39.821005,121.702 42.507605,129.76145 42.507605,129.76145 C42.507605,129.76145 45.731455,142.11995 43.582105,149.10525 C41.432755,156.0902 27.462505,176.50815 27.462505,199.61235 C27.462505,222.71725 40.895505,244.74695 41.432755,252.2695 L64.000055,252.2695 L64.000055,198.53785 L67.224255,198.53785 L67.224255,252.2695 L89.791205,252.2695 C90.328805,244.74695 103.761805,222.71725 103.761805,199.61235 C103.761805,176.50815 89.791205,156.0902 87.642205,149.10525 C85.492855,142.11995 88.716705,129.76145 88.716705,129.76145 C88.716705,129.76145 91.403305,121.702 91.940555,124.3886 C92.477805,127.07485 93.552655,143.19445 95.701655,146.95555 C97.851005,150.717 111.284005,178.1199 112.358505,181.34375 C113.433005,184.56795 113.433005,192.09015 114.507855,194.77675 C115.582355,197.46335 117.194105,203.9114 119.343455,202.83655 C121.493155,201.76205 118.268955,196.3885 119.343455,196.3885 C120.418305,196.3885 120.955905,197.46335 123.104905,200.6872 C125.254255,203.9114 131.164355,209.28425 131.164355,207.6725 C131.164355,206.0604 131.701955,197.46335 129.552605,194.77675" id="Fill-1" fill="#EDBC9C"></path>
                    <path d="M41.741595,127.554525 C42.620795,130.694375 43.337945,133.880425 43.890245,137.098325 C44.167795,138.706575 44.382345,140.327425 44.513945,141.958075 C44.639595,143.587675 44.699095,145.235125 44.463895,146.875575 C44.341045,147.702275 44.060695,148.483825 43.796795,149.255575 C43.524495,150.028375 43.219645,150.786475 42.910595,151.543175 C42.277095,153.049225 41.602995,154.536025 40.887245,156.001475 C39.460295,158.936225 37.941295,161.823025 36.328495,164.656625 C37.071195,163.205525 37.810745,161.753375 38.525795,160.289325 C39.249595,158.829825 39.962545,157.365425 40.643645,155.886325 C41.320195,154.405475 42.000945,152.926725 42.616245,151.421375 C42.918295,150.667125 43.216495,149.911475 43.481445,149.145325 C43.738695,148.376025 44.005745,147.610575 44.118445,146.821325 C44.357495,145.233375 44.311995,143.598525 44.196845,141.982575 C44.082045,140.362775 43.860845,138.749975 43.625645,137.140675 C43.382395,135.531725 43.091895,133.929075 42.771995,132.332025 C42.462945,130.732875 42.112245,129.141775 41.741595,127.554525" id="Fill-3" fill="#000000"></path>
                    <path d="M89.410615,127.554525 C89.040315,129.141775 88.689615,130.732875 88.380215,132.332025 C88.060315,133.929075 87.770165,135.531725 87.526915,137.140675 C87.291715,138.749975 87.070515,140.362775 86.955365,141.982575 C86.840215,143.598525 86.794715,145.233375 87.033765,146.821325 C87.146815,147.610575 87.413515,148.376025 87.671115,149.145325 C87.935715,149.911475 88.234265,150.667125 88.536315,151.421375 C89.151615,152.926725 89.832365,154.405475 90.508915,155.886325 C91.189665,157.365425 91.902615,158.829825 92.626415,160.289325 C93.341815,161.753375 94.081365,163.205525 94.823715,164.656625 C93.210915,161.823025 91.691915,158.936225 90.265315,156.001475 C89.549215,154.536025 88.875465,153.049225 88.241965,151.543175 C87.932915,150.786475 87.628065,150.028375 87.355415,149.255575 C87.091865,148.483825 86.811515,147.702275 86.688665,146.875575 C86.453115,145.235125 86.512615,143.587675 86.638615,141.958075 C86.770215,140.327425 86.984415,138.706575 87.262315,137.098325 C87.814615,133.880425 88.531765,130.694375 89.410615,127.554525" id="Fill-5" fill="#000000"></path>
                    <path d="M92.47791,114.71698 C89.79131,106.11993 85.49296,101.28398 85.49296,101.28398 L85.49296,86.77648 L81.19426,85.16438 L81.19426,100.74673 C81.19426,105.04508 69.91061,123.49288 65.61191,123.94088 C61.31356,123.49288 50.03026,105.04508 50.03026,100.74673 L50.03026,85.16438 L45.73121,86.77648 L45.73121,101.28398 C45.73121,101.28398 41.43286,106.11993 38.74626,114.71698 C36.06001,123.31368 40.35836,131.91108 48.41781,132.98558 C56.47796,134.06043 65.61191,127.88083 65.61191,127.88083 C65.61191,127.88083 74.74656,134.06043 82.80601,132.98558 C90.86616,131.91108 95.16451,123.31368 92.47791,114.71698" id="Fill-7" fill="#00A0FF"></path>
                    <path d="M94.89578,164.65659 C94.89578,164.65659 76.19773,173.32959 65.72013,173.50844 C55.24253,173.32959 36.32853,164.65659 36.32853,164.65659 L32.80613,173.09194 C46.40538,176.50479 58.75093,191.65804 63.52318,198.15824 C64.86858,199.99049 66.39143,199.93589 67.79738,198.02699 C72.63788,191.45644 84.90993,176.48169 98.41818,173.09194 L94.89578,164.65659 Z" id="Fill-9" fill="#00A0FF"></path>
                    <path d="M54.96057,55.94022 C54.96057,55.94022 44.24812,58.61807 44.24812,47.90562 C44.24812,47.90562 34.42782,40.76387 39.78457,30.94357 C45.14062,21.12362 50.49702,26.48002 50.49702,26.48002 C50.49702,26.48002 45.14062,14.87472 54.96057,14.87472 C54.96057,14.87472 61.20982,12.19652 59.42447,9.51797 C57.63877,6.84012 54.96057,3.26907 59.42447,0.59087 C63.88802,-2.08733 66.56622,5.05442 66.56622,7.73297 C66.56622,10.41082 65.67337,5.05442 71.02977,5.94727 C76.38652,6.84012 76.38652,8.62547 75.49332,13.08902 C74.60082,17.55257 86.20612,13.08902 85.31362,30.94357 C85.31362,30.94357 88.88467,30.94357 89.77717,36.29997 C89.77717,36.29997 96.91892,55.94022 79.95722,55.94022 L54.96057,55.94022 Z" id="Fill-11" fill="#2E353A"></path>
                    <path d="M51.389835,39.870985 C51.389835,39.870985 50.753185,59.638635 52.528035,63.734335 C54.459335,68.190885 59.424435,76.472935 65.673685,77.365785 C71.922585,78.258635 79.566585,66.259585 80.460135,62.136235 C81.004735,59.622535 80.850035,35.407435 80.850035,35.407435 C80.850035,35.407435 62.102285,20.231085 51.389835,39.870985" id="Fill-13" fill="#EDBC9C"></path>
                    <path d="M53.17536,52.369135 C53.17536,52.369135 51.38966,47.012735 48.71146,48.798435 C46.03361,50.583785 52.73086,61.978385 52.73086,61.978385 L53.17536,52.369135 Z" id="Fill-15" fill="#EDBC9C"></path>
                    <path d="M79.95722,52.369135 C79.95722,52.369135 79.95722,44.334535 84.42077,48.798435 C88.88467,53.261985 79.95722,59.510885 79.95722,59.510885 L79.95722,52.369135 Z" id="Fill-17" fill="#EDBC9C"></path>
                    <path d="M47.818715,36.2999 C47.818715,36.2999 44.248015,47.0127 54.960465,43.442 L65.673615,39.87095 C65.673615,39.87095 76.386415,33.62205 78.171765,36.2999 C79.957115,38.9781 81.742815,45.5735 81.742815,45.5735 C81.742815,45.5735 85.313515,36.2999 81.742815,30.9435 C78.171765,25.58745 55.853315,21.1239 47.818715,36.2999" id="Fill-19" fill="#2E353A"></path>
                    <path d="M190.69428,107.73168 C188.00733,125.46303 186.39558,134.59768 183.17173,138.89603 C179.94788,143.19438 179.41063,152.32903 178.33578,158.77673 C177.26128,165.22478 175.11193,181.34368 172.42533,184.03028 C169.73873,186.71723 164.90313,192.09008 162.75378,194.77668 C160.60443,197.46328 161.14168,206.06033 161.14168,207.67243 C161.14168,209.28418 167.05213,203.91133 169.20148,200.68748 C171.35048,197.46328 171.88808,196.38878 172.96258,196.38878 C174.03708,196.38878 170.81323,201.76198 172.96258,202.83683 C175.11193,203.91133 176.72368,197.46328 177.79853,194.77668 C178.87338,192.09008 178.87338,184.56753 179.94788,181.34368 C181.02238,178.11983 194.45538,150.71693 196.60473,146.95548 C198.75373,143.19438 199.82858,127.07513 200.36583,124.38853 C200.53208,123.55658 200.90483,123.75643 201.33988,124.42668 C200.61398,116.50583 196.43463,109.94578 191.37118,103.94363 C191.12653,105.12103 190.89903,106.37893 190.69428,107.73168" id="Fill-21" fill="#EDBC9C"></path>
                    <path d="M290.634645,194.77675 C288.485295,192.09015 283.649695,186.7173 280.962745,184.03035 C278.276145,181.34375 276.127145,165.2245 275.052295,158.7768 C273.977795,152.3291 273.440545,143.19445 270.216695,138.8961 C266.992845,134.59775 265.381095,125.4631 262.694495,107.73175 C262.566395,106.88685 262.428845,106.08115 262.284995,105.30555 C258.033545,110.90555 254.818795,117.2311 252.701995,123.84715 C252.839545,123.8664 252.950495,124.0288 253.022595,124.3886 C253.559845,127.07485 254.634695,143.19445 256.783695,146.95555 C258.933045,150.717 272.366045,178.1199 273.440545,181.34375 C274.515045,184.5676 274.515045,192.09015 275.589895,194.77675 C276.664395,197.46335 278.276145,203.9114 280.425495,202.83655 C282.575195,201.76205 279.350995,196.3885 280.425495,196.3885 C281.499995,196.3885 282.037595,197.46335 284.186945,200.68755 C286.336295,203.9114 292.246395,209.28425 292.246395,207.6725 C292.246395,206.0604 292.783995,197.46335 290.634645,194.77675" id="Fill-23" fill="#EDBC9C"></path>
                    <path d="M258.347495,170.13934 C259.179795,168.90034 263.306295,161.98294 259.735945,151.27189 C259.735945,151.27189 258.129445,141.91919 255.483445,135.46029 C254.775745,133.73234 251.945295,127.42114 251.756645,124.92914 C252.113995,124.26239 252.452095,123.81159 252.701995,123.84694 C254.818795,117.23124 258.033895,110.90569 262.284995,105.30569 C260.428945,95.31004 257.339495,90.94519 255.378095,89.10874 C254.539145,88.32334 253.442945,87.86974 252.294595,87.82879 C233.633295,87.16064 232.604645,71.73159 232.604645,71.73159 L226.694195,71.73159 L220.783745,71.73159 C220.783745,71.73159 219.755095,87.16064 201.093795,87.82879 C199.945445,87.86974 198.848895,88.32334 198.009945,89.10874 C196.140595,90.85979 193.245045,94.90894 191.371145,103.94349 C196.434595,109.94599 200.613945,116.50604 201.339845,124.42689 C201.391295,124.50599 201.443445,124.59314 201.496295,124.68484 C201.495245,126.98014 198.033395,132.95919 197.300845,134.74664 C194.654845,141.20554 193.506495,151.27189 193.506495,151.27189 C189.770595,162.47959 194.460595,169.53209 194.987345,170.27304 C191.549995,178.76054 188.544545,188.89724 188.544545,199.61249 C188.544545,222.71739 201.977545,244.74709 202.515145,252.26929 L225.082445,252.26929 L225.082445,198.53799 L228.306295,198.53799 L228.306295,252.26929 L250.873595,252.26929 C251.410845,244.74709 264.843845,222.71739 264.843845,199.61249 C264.843845,188.84124 261.806895,178.65414 258.347495,170.13934" id="Fill-25" fill="#EDBC9C"></path>
                    <path d="M253.55995,114.71698 C250.87335,106.11993 246.575,101.28398 246.575,101.28398 L246.575,86.77648 L242.2763,85.16438 L242.2763,100.74673 C242.2763,105.04508 230.99265,123.49288 226.69395,123.94088 C222.3956,123.49288 211.1123,105.04508 211.1123,100.74673 L211.1123,85.16438 L206.81325,86.77648 L206.81325,101.28398 C206.81325,101.28398 202.5149,106.11993 199.8283,114.71698 C197.14205,123.31368 201.4404,131.91108 209.49985,132.98558 C217.56,134.06043 226.69395,127.88083 226.69395,127.88083 C226.69395,127.88083 235.8286,134.06043 243.88805,132.98558 C251.9482,131.91108 256.24655,123.31368 253.55995,114.71698" id="Fill-27" fill="#00A0FF"></path>
                    <path d="M259.50036,173.08767 C259.50036,173.08767 243.52356,186.29562 226.37076,186.29562 C206.40606,184.89142 193.40006,174.41522 193.40006,174.41522 L192.45051,177.17252 C207.31221,183.96602 219.83311,195.87757 224.60536,202.37777 C225.95076,204.21002 227.47326,204.15507 228.87956,202.24652 C233.72006,195.67597 247.32561,180.24867 260.83421,176.85857 L259.50036,173.08767 Z" id="Fill-29" fill="#00A0FF"></path>
                    <path d="M216.04261,55.94022 C216.04261,55.94022 205.33016,58.61807 205.33016,47.90562 C205.33016,47.90562 195.50986,40.76387 200.86661,30.94357 C206.22266,21.12362 211.57906,26.48002 211.57906,26.48002 C211.57906,26.48002 206.22266,14.87472 216.04261,14.87472 C216.04261,14.87472 222.29186,12.19652 220.50651,9.51797 C218.72081,6.84012 216.04261,3.26907 220.50651,0.59087 C224.97006,-2.08733 227.64826,5.05442 227.64826,7.73297 C227.64826,10.41082 226.75541,5.05442 232.11181,5.94727 C237.46856,6.84012 237.46856,8.62547 236.57536,13.08902 C235.68286,17.55257 247.28816,13.08902 246.39566,30.94357 C246.39566,30.94357 249.96671,30.94357 250.85921,36.29997 C250.85921,36.29997 258.00096,55.94022 241.03926,55.94022 L216.04261,55.94022 Z" id="Fill-31" fill="#2E353A"></path>
                    <path d="M212.47184,39.870985 C212.47184,39.870985 211.83519,59.638635 213.61004,63.734335 C215.54134,68.190885 220.50644,76.472935 226.75569,77.365785 C233.00459,78.258635 240.64859,66.259585 241.54214,62.136235 C242.08674,59.622535 241.93204,35.407435 241.93204,35.407435 C241.93204,35.407435 223.18429,20.231085 212.47184,39.870985" id="Fill-33" fill="#EDBC9C"></path>
                    <path d="M214.2574,52.369135 C214.2574,52.369135 212.4717,47.012735 209.7935,48.798435 C207.11565,50.583785 213.8129,61.978385 213.8129,61.978385 L214.2574,52.369135 Z" id="Fill-35" fill="#EDBC9C"></path>
                    <path d="M241.039225,52.369135 C241.039225,52.369135 241.039225,44.334535 245.502775,48.798435 C249.966675,53.261985 241.039225,59.510885 241.039225,59.510885 L241.039225,52.369135 Z" id="Fill-37" fill="#EDBC9C"></path>
                    <path d="M208.900755,36.2999 C208.900755,36.2999 205.330055,47.0127 216.042505,43.442 L226.755655,39.87095 C226.755655,39.87095 237.468455,33.62205 239.253805,36.2999 C241.039155,38.9781 242.824855,45.5735 242.824855,45.5735 C242.824855,45.5735 246.395555,36.2999 242.824855,30.9435 C239.253805,25.58745 216.935355,21.1239 208.900755,36.2999" id="Fill-39" fill="#2E353A"></path>
                    <path d="M200.62518,128.290085 C198.50488,131.975235 196.72023,135.856035 195.37973,139.886635 C193.99968,143.902535 193.06063,148.069985 192.60493,152.288185 C192.39143,154.400435 192.32598,156.521085 192.37288,158.643135 C192.42958,160.764135 192.50063,162.894235 192.92098,164.965185 C193.32663,167.032985 194.15788,169.023085 195.47143,170.668435 C196.11298,171.499685 196.88998,172.219285 197.66558,172.942035 C198.44293,173.660935 199.25458,174.342385 200.08163,175.003535 C203.39613,177.639735 207.04348,179.878685 210.94738,181.527535 C214.85163,183.172535 219.06353,184.070985 223.29958,184.208185 C224.35903,184.241785 225.41953,184.230235 226.47793,184.173535 C227.53668,184.112985 228.59193,184.006235 229.64368,183.865185 C231.74753,183.582035 233.83948,183.202635 235.90798,182.722085 C237.97648,182.245735 240.02573,181.669985 242.01023,180.911185 C243.98528,180.145385 245.92533,179.213335 247.58258,177.871785 C245.94318,179.236085 244.01118,180.197185 242.04138,180.990985 C240.06248,181.778485 238.01498,182.383985 235.94718,182.889035 C233.87623,183.384635 231.78043,183.772085 229.67098,184.066785 C228.61608,184.213085 227.55488,184.325785 226.49053,184.391235 C225.42583,184.453535 224.35903,184.469985 223.29258,184.441285 C219.02818,184.322985 214.77988,183.437835 210.83538,181.797735 C206.89403,180.153085 203.21378,177.920085 199.86428,175.276885 C199.03373,174.606635 198.21928,173.916085 197.43878,173.187735 C196.66388,172.459035 195.87638,171.723685 195.21978,170.865835 C193.88033,169.173235 193.03753,167.123985 192.63573,165.022585 C192.21888,162.916635 192.15868,160.773585 192.11143,158.648735 C192.07363,156.518635 192.14923,154.383635 192.37393,152.264035 C192.85238,148.028685 193.81068,143.850385 195.21803,139.831335 C196.61663,135.807735 198.45623,131.946535 200.62518,128.290085" id="Fill-41" fill="#2E353A"></path>
                    <path d="M64.14807,83.312005 C53.36667,84.056455 50.06372,94.708005 47.48422,101.312155 C44.93167,107.846655 42.87927,114.708755 39.19062,120.728055 C34.99342,127.577905 29.03887,133.140105 25.83077,140.609455 C22.31257,148.801205 20.68402,158.110855 22.72732,166.896205 C24.63937,175.116655 28.56112,183.008805 34.82262,188.776805 C40.74987,194.237505 48.56467,194.162255 56.14812,193.562355 C60.02087,193.256105 63.90132,192.810205 67.79227,192.896305 C69.56257,192.935155 71.33847,193.087755 73.07167,193.461555 C75.16957,193.914455 77.03927,194.957455 79.19982,195.182505 C83.27522,195.606355 87.48957,194.474455 91.23912,192.955455 C94.40907,191.670955 97.32772,189.903805 99.82357,187.554255 C104.61017,183.047655 107.55682,176.899555 108.92952,170.529555 C110.32567,164.052455 110.20282,157.199455 108.58932,150.773105 C107.76857,147.504455 106.53412,144.362155 104.85797,141.436505 C102.68762,137.648105 99.96637,134.218455 97.52862,130.605755 C95.03242,126.906605 93.22467,123.146555 91.96327,118.869905 C90.52127,113.981805 89.22907,109.056605 88.06917,104.093955 C87.55502,101.895255 87.14727,99.692005 86.14557,97.650805 C85.27197,95.871755 84.27412,94.144155 83.14257,92.517005 C80.95332,89.369105 78.17432,86.527455 74.69637,84.826805 C73.03912,84.016555 71.36507,83.712755 69.60107,83.273505 C69.72637,82.311355 69.47472,81.195205 69.40017,80.225705 C69.32282,79.222955 69.28537,78.207255 69.17127,77.209055 C69.01307,75.826205 68.52237,73.737405 66.88192,73.454955 C65.89772,73.285905 64.78122,73.508505 63.77847,73.449705 C64.77142,73.857105 65.65727,74.336255 65.84837,75.486355 C65.93132,75.983355 65.91452,76.516405 65.94637,77.019355 C66.04857,78.631805 66.36462,80.375155 66.26137,81.987955 C66.21517,82.705105 65.66322,83.276655 64.91142,83.367655 C64.65767,83.398105 64.40707,83.294155 64.14807,83.312005 Z" id="Stroke-43" stroke="#43AF61" stroke-width="2.1" stroke-linecap="round" stroke-linejoin="round"></path>
                    <path d="M222.79754,100.805845 C222.36319,100.792545 221.95439,100.757895 221.61419,100.714495 C220.14874,100.526195 218.76379,99.913345 217.34734,99.523445 C214.78009,98.815745 211.92829,98.822045 209.28754,98.987945 C198.90584,99.639995 189.06279,104.894545 182.15274,112.571795 C175.84539,119.579845 173.56409,128.348045 174.11744,137.644395 C174.47409,143.628345 175.58954,149.692795 177.31959,155.432095 C180.46924,165.880645 186.31424,175.281645 194.63409,182.381395 C198.86559,185.992695 203.73269,189.210945 209.22559,190.459745 C212.30279,191.159395 215.49444,191.229395 218.63604,191.311645 C221.91764,191.397395 225.20099,191.373978 228.48329,191.362395 C233.55619,191.345945 238.71554,191.535645 243.71914,190.544795 C248.97124,189.505295 253.65599,186.942245 257.48254,183.201095 C259.56539,181.164445 261.04449,178.412745 262.59289,175.966945 C264.30544,173.262145 265.93469,170.503795 267.45264,167.684545 C270.33454,162.332695 272.81849,156.750195 274.62099,150.939495 C275.56669,147.892395 276.32269,144.785445 276.85049,141.638595 C277.39544,138.393045 277.81824,135.082745 277.43289,131.793795 C276.76859,126.126595 274.86984,120.525195 271.52944,115.868445 C269.92399,113.630545 268.00179,111.626095 265.87064,109.883795 C263.56519,107.999045 261.03399,106.624945 258.45239,105.171745 C255.99259,103.786795 253.74244,102.196045 251.09469,101.150945 C248.26249,100.033045 245.23394,99.405495 242.18159,99.528345 C239.37634,99.641045 236.62324,100.331945 234.15084,101.654245 C233.23034,102.147045 232.50829,102.016845 231.68929,101.354645 C230.71559,100.567495 230.74779,99.487395 231.21854,98.410095 C232.15514,96.264245 234.02414,94.682245 235.03529,92.579795 C235.37794,91.866495 235.86024,90.808795 235.26909,90.097245 C234.74199,89.463395 233.65874,89.376595 232.90414,89.366095 C232.24334,89.357345 231.22379,89.328295 230.81884,89.955845 C230.54724,90.377245 230.48844,91.137795 230.34354,91.605045 C230.11219,92.350195 229.86019,93.089395 229.59209,93.821945 C228.85044,95.848445 227.82704,99.370145 225.69414,100.394945 C224.95354,100.750895 223.80694,100.836295 222.79754,100.805845 Z" id="Stroke-45" stroke="#D14D4D" stroke-width="2.1"></path>
                </g>
            </g>
        </g>
    </g>
</svg>