<?xml version="1.0" encoding="utf-8"?>
<!-- Generator: Adobe Illustrator 25.0.0, SVG Export Plug-In . SVG Version: 6.00 Build 0)  -->
<svg version="1.1" id="Layer_1" xmlns="http://www.w3.org/2000/svg" xmlns:xlink="http://www.w3.org/1999/xlink" x="0px" y="0px"
	 viewBox="0 0 300 300" style="enable-background:new 0 0 300 300;" xml:space="preserve">
<style type="text/css">
	.st0{opacity:7.703218e-02;fill-rule:evenodd;clip-rule:evenodd;fill:#E13856;enable-background:new    ;}
	.st1{fill-rule:evenodd;clip-rule:evenodd;fill:#EDBC9C;}
	.st2{fill-rule:evenodd;clip-rule:evenodd;}
	.st3{fill-rule:evenodd;clip-rule:evenodd;fill:#00A0FF;}
	.st4{fill-rule:evenodd;clip-rule:evenodd;fill:#2E353A;}
	.st5{fill:none;stroke:#43AF61;stroke-width:2.1;stroke-linecap:round;stroke-linejoin:round;}
	.st6{fill:none;stroke:#D14D4D;stroke-width:2.1;}
</style>
<g id="Page-1">
	<g id="For-you-and-your-partner-Copy-5" transform="translate(-57.000000, -1757.000000)">
		<g id="Group-4" transform="translate(57.000000, 1757.000000)">
			<circle id="Mask-Copy-3" class="st0" cx="150" cy="150" r="150"/>
			<g id="Group-47" transform="translate(4.000000, 24.000000)">
				<path id="Fill-1" class="st1" d="M130.2,187.4c-2.1-2.6-6.7-7.8-9.3-10.3c-2.6-2.6-4.7-18.1-5.7-24.3c-1-6.2-1.6-15-4.7-19.1
					c-3.1-4.1-4.7-12.9-7.2-30c-1.7-11.3-5-16-7-17.9c-0.8-0.8-1.9-1.2-3-1.2C75.3,83.9,74.3,69,74.3,69h-5.7H63
					c0,0-1,14.8-18.9,15.5c-1.1,0-2.2,0.5-3,1.2c-2,1.9-5.3,6.6-7,17.9c-2.6,17.1-4.1,25.9-7.2,30s-3.6,12.9-4.7,19.1
					c-1,6.2-3.1,21.7-5.7,24.3c-2.6,2.6-7.2,7.8-9.3,10.3c-2.1,2.6-1.6,10.9-1.6,12.4c0,1.6,5.7-3.6,7.8-6.7
					c2.1-3.1,2.6-4.1,3.6-4.1s-2.1,5.2,0,6.2c2.1,1,3.6-5.2,4.7-7.8c1-2.6,1-9.8,2.1-12.9c1-3.1,14-29.5,16-33.1
					c2.1-3.6,3.1-19.1,3.6-21.7c0.5-2.6,3.1,5.2,3.1,5.2s3.1,11.9,1,18.6c-2.1,6.7-15.5,26.4-15.5,48.6c0,22.2,12.9,43.4,13.4,50.7
					h21.7V191h3.1v51.7h21.7c0.5-7.2,13.4-28.4,13.4-50.7c0-22.2-13.4-41.9-15.5-48.6c-2.1-6.7,1-18.6,1-18.6s2.6-7.8,3.1-5.2
					c0.5,2.6,1.6,18.1,3.6,21.7c2.1,3.6,15,30,16,33.1c1,3.1,1,10.3,2.1,12.9c1,2.6,2.6,8.8,4.7,7.8c2.1-1-1-6.2,0-6.2
					c1,0,1.6,1,3.6,4.1c2.1,3.1,7.8,8.3,7.8,6.7C131.7,198.3,132.2,190,130.2,187.4"/>
				<path id="Fill-3" class="st2" d="M45.7,122.7c0.8,3,1.5,6.1,2.1,9.2c0.3,1.5,0.5,3.1,0.6,4.7c0.1,1.6,0.2,3.2,0,4.7
					c-0.1,0.8-0.4,1.5-0.6,2.3c-0.3,0.7-0.6,1.5-0.9,2.2c-0.6,1.4-1.3,2.9-1.9,4.3c-1.4,2.8-2.8,5.6-4.4,8.3
					c0.7-1.4,1.4-2.8,2.1-4.2c0.7-1.4,1.4-2.8,2-4.2c0.7-1.4,1.3-2.8,1.9-4.3c0.3-0.7,0.6-1.5,0.8-2.2c0.2-0.7,0.5-1.5,0.6-2.2
					c0.2-1.5,0.2-3.1,0.1-4.7c-0.1-1.6-0.3-3.1-0.5-4.7c-0.2-1.5-0.5-3.1-0.8-4.6C46.4,125.8,46,124.3,45.7,122.7"/>
				<path id="Fill-5" class="st2" d="M91.6,122.7c-0.4,1.5-0.7,3.1-1,4.6c-0.3,1.5-0.6,3.1-0.8,4.6c-0.2,1.5-0.4,3.1-0.5,4.7
					c-0.1,1.6-0.2,3.1,0.1,4.7c0.1,0.8,0.4,1.5,0.6,2.2c0.3,0.7,0.5,1.5,0.8,2.2c0.6,1.4,1.2,2.9,1.9,4.3c0.7,1.4,1.3,2.8,2,4.2
					c0.7,1.4,1.4,2.8,2.1,4.2c-1.6-2.7-3-5.5-4.4-8.3c-0.7-1.4-1.3-2.8-1.9-4.3c-0.3-0.7-0.6-1.5-0.9-2.2c-0.3-0.7-0.5-1.5-0.6-2.3
					c-0.2-1.6-0.2-3.2,0-4.7c0.1-1.6,0.3-3.1,0.6-4.7C90,128.8,90.7,125.8,91.6,122.7"/>
				<path id="Fill-7" class="st3" d="M94.5,110.4c-2.6-8.3-6.7-12.9-6.7-12.9v-14l-4.1-1.6v15c0,4.1-10.9,21.9-15,22.3
					c-4.1-0.4-15-18.2-15-22.3v-15l-4.1,1.6v14c0,0-4.1,4.7-6.7,12.9c-2.6,8.3,1.6,16.5,9.3,17.6c7.8,1,16.5-4.9,16.5-4.9
					s8.8,5.9,16.5,4.9C93,126.9,97.1,118.7,94.5,110.4"/>
				<path id="Fill-9" class="st3" d="M96.8,158.4c0,0-18,8.3-28.1,8.5c-10.1-0.2-28.3-8.5-28.3-8.5l-3.4,8.1
					c13.1,3.3,25,17.9,29.6,24.1c1.3,1.8,2.8,1.7,4.1-0.1c4.7-6.3,16.5-20.7,29.5-24L96.8,158.4z"/>
				<path id="Fill-11" class="st4" d="M58.4,53.8c0,0-10.3,2.6-10.3-7.7c0,0-9.4-6.9-4.3-16.3c5.2-9.4,10.3-4.3,10.3-4.3
					S49,14.3,58.4,14.3c0,0,6-2.6,4.3-5.2c-1.7-2.6-4.3-6,0-8.6C67-2,69.6,4.9,69.6,7.4c0,2.6-0.9-2.6,4.3-1.7
					c5.2,0.9,5.2,2.6,4.3,6.9c-0.9,4.3,10.3,0,9.4,17.2c0,0,3.4,0,4.3,5.2c0,0,6.9,18.9-9.4,18.9H58.4z"/>
				<path id="Fill-13" class="st1" d="M55,38.4c0,0-0.6,19,1.1,23c1.9,4.3,6.6,12.3,12.6,13.1c6,0.9,13.4-10.7,14.2-14.7
					c0.5-2.4,0.4-25.7,0.4-25.7S65.3,19.5,55,38.4"/>
				<path id="Fill-15" class="st1" d="M56.7,50.4c0,0-1.7-5.2-4.3-3.4c-2.6,1.7,3.9,12.7,3.9,12.7L56.7,50.4z"/>
				<path id="Fill-17" class="st1" d="M82.5,50.4c0,0,0-7.7,4.3-3.4c4.3,4.3-4.3,10.3-4.3,10.3V50.4z"/>
				<path id="Fill-19" class="st4" d="M51.5,34.9c0,0-3.4,10.3,6.9,6.9l10.3-3.4c0,0,10.3-6,12-3.4c1.7,2.6,3.4,8.9,3.4,8.9
					s3.4-8.9,0-14.1C80.7,24.6,59.3,20.3,51.5,34.9"/>
				<path id="Fill-21" class="st1" d="M189,103.7c-2.6,17.1-4.1,25.9-7.2,30c-3.1,4.1-3.6,12.9-4.7,19.1c-1,6.2-3.1,21.7-5.7,24.3
					c-2.6,2.6-7.2,7.8-9.3,10.3c-2.1,2.6-1.6,10.9-1.6,12.4c0,1.6,5.7-3.6,7.8-6.7c2.1-3.1,2.6-4.1,3.6-4.1s-2.1,5.2,0,6.2
					c2.1,1,3.6-5.2,4.7-7.8c1-2.6,1-9.8,2.1-12.9c1-3.1,14-29.5,16-33.1c2.1-3.6,3.1-19.1,3.6-21.7c0.2-0.8,0.5-0.6,0.9,0
					c-0.7-7.6-4.7-13.9-9.6-19.7C189.4,101.2,189.2,102.4,189,103.7"/>
				<path id="Fill-23" class="st1" d="M285.2,187.4c-2.1-2.6-6.7-7.8-9.3-10.3c-2.6-2.6-4.7-18.1-5.7-24.3c-1-6.2-1.6-15-4.7-19.1
					s-4.7-12.9-7.2-30c-0.1-0.8-0.3-1.6-0.4-2.3c-4.1,5.4-7.2,11.5-9.2,17.8c0.1,0,0.2,0.2,0.3,0.5c0.5,2.6,1.6,18.1,3.6,21.7
					c2.1,3.6,15,30,16,33.1c1,3.1,1,10.3,2.1,12.9c1,2.6,2.6,8.8,4.7,7.8c2.1-1-1-6.2,0-6.2c1,0,1.6,1,3.6,4.1
					c2.1,3.1,7.8,8.3,7.8,6.7C286.7,198.3,287.2,190,285.2,187.4"/>
				<path id="Fill-25" class="st1" d="M254.1,163.7c0.8-1.2,4.8-7.8,1.3-18.2c0,0-1.5-9-4.1-15.2c-0.7-1.7-3.4-7.7-3.6-10.1
					c0.3-0.6,0.7-1.1,0.9-1c2-6.4,5.1-12.5,9.2-17.8c-1.8-9.6-4.8-13.8-6.6-15.6c-0.8-0.8-1.9-1.2-3-1.2
					c-18-0.6-18.9-15.5-18.9-15.5h-5.7H218c0,0-1,14.8-18.9,15.5c-1.1,0-2.2,0.5-3,1.2c-1.8,1.7-4.6,5.6-6.4,14.3
					c4.9,5.8,8.9,12.1,9.6,19.7c0,0.1,0.1,0.2,0.2,0.2c0,2.2-3.3,8-4,9.7c-2.5,6.2-3.7,15.9-3.7,15.9c-3.6,10.8,0.9,17.6,1.4,18.3
					c-3.3,8.2-6.2,17.9-6.2,28.2c0,22.2,12.9,43.4,13.4,50.7h21.7V191h3.1v51.7h21.7c0.5-7.2,13.4-28.4,13.4-50.7
					C260.4,181.7,257.4,171.9,254.1,163.7"/>
				<path id="Fill-27" class="st3" d="M249.5,110.4c-2.6-8.3-6.7-12.9-6.7-12.9v-14l-4.1-1.6v15c0,4.1-10.9,21.9-15,22.3
					c-4.1-0.4-15-18.2-15-22.3v-15l-4.1,1.6v14c0,0-4.1,4.7-6.7,12.9c-2.6,8.3,1.6,16.5,9.3,17.6c7.8,1,16.5-4.9,16.5-4.9
					s8.8,5.9,16.5,4.9C248,126.9,252.1,118.7,249.5,110.4"/>
				<path id="Fill-29" class="st3" d="M255.2,166.6c0,0-15.4,12.7-31.9,12.7c-19.2-1.4-31.7-11.4-31.7-11.4l-0.9,2.7
					c14.3,6.5,26.3,18,30.9,24.3c1.3,1.8,2.8,1.7,4.1-0.1c4.7-6.3,17.7-21.2,30.7-24.4L255.2,166.6z"/>
				<path id="Fill-31" class="st4" d="M213.4,53.8c0,0-10.3,2.6-10.3-7.7c0,0-9.4-6.9-4.3-16.3c5.2-9.4,10.3-4.3,10.3-4.3
					s-5.2-11.2,4.3-11.2c0,0,6-2.6,4.3-5.2c-1.7-2.6-4.3-6,0-8.6c4.3-2.6,6.9,4.3,6.9,6.9c0,2.6-0.9-2.6,4.3-1.7
					c5.2,0.9,5.2,2.6,4.3,6.9c-0.9,4.3,10.3,0,9.4,17.2c0,0,3.4,0,4.3,5.2c0,0,6.9,18.9-9.4,18.9H213.4z"/>
				<path id="Fill-33" class="st1" d="M210,38.4c0,0-0.6,19,1.1,23c1.9,4.3,6.6,12.3,12.6,13.1c6,0.9,13.4-10.7,14.2-14.7
					c0.5-2.4,0.4-25.7,0.4-25.7S220.3,19.5,210,38.4"/>
				<path id="Fill-35" class="st1" d="M211.7,50.4c0,0-1.7-5.2-4.3-3.4c-2.6,1.7,3.9,12.7,3.9,12.7L211.7,50.4z"/>
				<path id="Fill-37" class="st1" d="M237.5,50.4c0,0,0-7.7,4.3-3.4c4.3,4.3-4.3,10.3-4.3,10.3V50.4z"/>
				<path id="Fill-39" class="st4" d="M206.5,34.9c0,0-3.4,10.3,6.9,6.9l10.3-3.4c0,0,10.3-6,12-3.4c1.7,2.6,3.4,8.9,3.4,8.9
					s3.4-8.9,0-14.1C235.7,24.6,214.3,20.3,206.5,34.9"/>
				<path id="Fill-41" class="st4" d="M198.6,123.4c-2,3.5-3.8,7.3-5,11.2c-1.3,3.9-2.2,7.9-2.7,11.9c-0.2,2-0.3,4.1-0.2,6.1
					c0.1,2,0.1,4.1,0.5,6.1c0.4,2,1.2,3.9,2.5,5.5c0.6,0.8,1.4,1.5,2.1,2.2c0.7,0.7,1.5,1.3,2.3,2c3.2,2.5,6.7,4.7,10.5,6.3
					c3.8,1.6,7.8,2.4,11.9,2.6c1,0,2,0,3.1,0c1-0.1,2-0.2,3-0.3c2-0.3,4-0.6,6-1.1c2-0.5,4-1,5.9-1.7c1.9-0.7,3.8-1.6,5.4-2.9
					c-1.6,1.3-3.4,2.2-5.3,3c-1.9,0.8-3.9,1.3-5.9,1.8c-2,0.5-4,0.8-6,1.1c-1,0.1-2,0.2-3.1,0.3c-1,0.1-2.1,0.1-3.1,0
					c-4.1-0.1-8.2-1-12-2.5c-3.8-1.6-7.3-3.7-10.6-6.3c-0.8-0.6-1.6-1.3-2.3-2c-0.7-0.7-1.5-1.4-2.1-2.2c-1.3-1.6-2.1-3.6-2.5-5.6
					c-0.4-2-0.5-4.1-0.5-6.1c0-2,0-4.1,0.3-6.1c0.5-4.1,1.4-8.1,2.7-12C194.7,130.7,196.5,127,198.6,123.4"/>
				<path id="Stroke-43" class="st5" d="M67.2,80.2c-10.4,0.7-13.6,11-16,17.3c-2.5,6.3-4.4,12.9-8,18.7c-4,6.6-9.8,11.9-12.9,19.1
					c-3.4,7.9-5,16.8-3,25.3c1.8,7.9,5.6,15.5,11.6,21.1c5.7,5.3,13.2,5.2,20.5,4.6c3.7-0.3,7.5-0.7,11.2-0.6c1.7,0,3.4,0.2,5.1,0.5
					c2,0.4,3.8,1.4,5.9,1.7c3.9,0.4,8-0.7,11.6-2.1c3.1-1.2,5.9-2.9,8.3-5.2c4.6-4.3,7.4-10.3,8.8-16.4c1.3-6.2,1.2-12.8-0.3-19
					c-0.8-3.1-2-6.2-3.6-9c-2.1-3.6-4.7-6.9-7.1-10.4c-2.4-3.6-4.1-7.2-5.4-11.3c-1.4-4.7-2.6-9.4-3.7-14.2
					c-0.5-2.1-0.9-4.2-1.9-6.2c-0.8-1.7-1.8-3.4-2.9-4.9c-2.1-3-4.8-5.8-8.1-7.4c-1.6-0.8-3.2-1.1-4.9-1.5c0.1-0.9-0.1-2-0.2-2.9
					c-0.1-1-0.1-1.9-0.2-2.9c-0.2-1.3-0.6-3.3-2.2-3.6c-0.9-0.2-2,0.1-3,0c1,0.4,1.8,0.9,2,2c0.1,0.5,0.1,1,0.1,1.5
					c0.1,1.6,0.4,3.2,0.3,4.8c0,0.7-0.6,1.2-1.3,1.3C67.7,80.3,67.5,80.2,67.2,80.2z"/>
				<path id="Stroke-45" class="st6" d="M219.9,97c-0.4,0-0.8,0-1.1-0.1c-1.4-0.2-2.7-0.8-4.1-1.1c-2.5-0.7-5.2-0.7-7.8-0.5
					c-10,0.6-19.5,5.7-26.1,13.1c-6.1,6.7-8.3,15.2-7.7,24.1c0.3,5.8,1.4,11.6,3.1,17.1c3,10.1,8.7,19.1,16.7,25.9
					c4.1,3.5,8.8,6.6,14,7.8c3,0.7,6,0.7,9.1,0.8c3.2,0.1,6.3,0.1,9.5,0c4.9,0,9.8,0.2,14.7-0.8c5.1-1,9.6-3.5,13.2-7.1
					c2-2,3.4-4.6,4.9-7c1.6-2.6,3.2-5.3,4.7-8c2.8-5.1,5.2-10.5,6.9-16.1c0.9-2.9,1.6-5.9,2.1-8.9c0.5-3.1,0.9-6.3,0.6-9.5
					c-0.6-5.5-2.5-10.8-5.7-15.3c-1.5-2.2-3.4-4.1-5.4-5.8c-2.2-1.8-4.7-3.1-7.1-4.5c-2.4-1.3-4.5-2.9-7.1-3.9
					c-2.7-1.1-5.6-1.7-8.6-1.6c-2.7,0.1-5.3,0.8-7.7,2c-0.9,0.5-1.6,0.3-2.4-0.3c-0.9-0.8-0.9-1.8-0.5-2.8c0.9-2.1,2.7-3.6,3.7-5.6
					c0.3-0.7,0.8-1.7,0.2-2.4c-0.5-0.6-1.5-0.7-2.3-0.7c-0.6,0-1.6,0-2,0.6c-0.3,0.4-0.3,1.1-0.5,1.6c-0.2,0.7-0.5,1.4-0.7,2.1
					c-0.7,2-1.7,5.3-3.8,6.3C222,96.9,220.9,97,219.9,97z"/>
			</g>
		</g>
	</g>
</g>
<g>
	<path d="M186.3,289.7h-4.1l-0.7,2h-1.7l3.5-9.7h1.8l3.5,9.7H187L186.3,289.7z M185.8,288.4l-1.6-4.5l-1.6,4.5H185.8z"/>
	<path d="M192.9,284.2c0.5-0.2,1-0.4,1.6-0.4c0.7,0,1.3,0.2,1.8,0.5c0.6,0.3,1,0.8,1.3,1.4s0.5,1.3,0.5,2.1c0,0.8-0.2,1.5-0.5,2.1
		s-0.8,1.1-1.3,1.4c-0.6,0.3-1.2,0.5-1.8,0.5c-0.6,0-1.1-0.1-1.6-0.4c-0.5-0.2-0.8-0.5-1.1-0.9v4.8h-1.6V284h1.6v1.1
		C192,284.8,192.4,284.5,192.9,284.2z M196.1,286.4c-0.2-0.4-0.5-0.7-0.9-0.9c-0.4-0.2-0.7-0.3-1.2-0.3c-0.4,0-0.8,0.1-1.1,0.3
		c-0.4,0.2-0.6,0.5-0.9,0.9c-0.2,0.4-0.3,0.9-0.3,1.4s0.1,1,0.3,1.4c0.2,0.4,0.5,0.7,0.9,0.9s0.7,0.3,1.1,0.3c0.4,0,0.8-0.1,1.2-0.3
		c0.4-0.2,0.6-0.5,0.9-0.9c0.2-0.4,0.3-0.9,0.3-1.4C196.4,287.3,196.3,286.8,196.1,286.4z"/>
	<path d="M202.3,284.2c0.5-0.2,1-0.4,1.6-0.4c0.7,0,1.3,0.2,1.8,0.5c0.6,0.3,1,0.8,1.3,1.4s0.5,1.3,0.5,2.1c0,0.8-0.2,1.5-0.5,2.1
		s-0.8,1.1-1.3,1.4c-0.6,0.3-1.2,0.5-1.8,0.5c-0.6,0-1.1-0.1-1.6-0.4s-0.8-0.5-1.1-0.9v4.8h-1.6V284h1.6v1.1
		C201.5,284.8,201.9,284.5,202.3,284.2z M205.6,286.4c-0.2-0.4-0.5-0.7-0.9-0.9c-0.4-0.2-0.7-0.3-1.2-0.3c-0.4,0-0.8,0.1-1.1,0.3
		c-0.4,0.2-0.6,0.5-0.9,0.9c-0.2,0.4-0.3,0.9-0.3,1.4s0.1,1,0.3,1.4c0.2,0.4,0.5,0.7,0.9,0.9s0.7,0.3,1.1,0.3c0.4,0,0.8-0.1,1.2-0.3
		s0.6-0.5,0.9-0.9c0.2-0.4,0.3-0.9,0.3-1.4C205.9,287.3,205.8,286.8,205.6,286.4z"/>
	<path d="M210.7,281.3v10.4h-1.6v-10.4H210.7z"/>
	<path d="M219.8,288.4H214c0,0.6,0.3,1.1,0.7,1.5c0.4,0.4,0.9,0.6,1.5,0.6c0.9,0,1.5-0.4,1.8-1.1h1.7c-0.2,0.7-0.7,1.3-1.3,1.7
		c-0.6,0.5-1.4,0.7-2.3,0.7c-0.7,0-1.4-0.2-2-0.5c-0.6-0.3-1-0.8-1.4-1.4c-0.3-0.6-0.5-1.3-0.5-2.1s0.2-1.5,0.5-2.1
		c0.3-0.6,0.8-1.1,1.4-1.4c0.6-0.3,1.3-0.5,2-0.5c0.7,0,1.4,0.2,1.9,0.5s1,0.8,1.3,1.3s0.5,1.2,0.5,2
		C219.9,287.9,219.9,288.2,219.8,288.4z M218.2,287.1c0-0.6-0.2-1.1-0.6-1.4c-0.4-0.4-0.9-0.5-1.5-0.5c-0.6,0-1,0.2-1.4,0.5
		c-0.4,0.4-0.6,0.8-0.7,1.4H218.2z"/>
	<path d="M226.3,291.5c-0.5-0.2-0.9-0.5-1.1-0.9c-0.3-0.4-0.4-0.8-0.4-1.3h1.7c0,0.3,0.2,0.6,0.5,0.8c0.3,0.2,0.6,0.3,1.1,0.3
		c0.4,0,0.8-0.1,1-0.3c0.2-0.2,0.4-0.4,0.4-0.7c0-0.3-0.1-0.5-0.4-0.6c-0.3-0.1-0.7-0.3-1.3-0.5c-0.6-0.2-1-0.3-1.4-0.5
		s-0.7-0.4-0.9-0.7c-0.3-0.3-0.4-0.7-0.4-1.2c0-0.4,0.1-0.8,0.4-1.1c0.2-0.3,0.6-0.6,1-0.8c0.5-0.2,1-0.3,1.6-0.3
		c0.9,0,1.6,0.2,2.1,0.7s0.8,1,0.9,1.8h-1.6c0-0.3-0.2-0.6-0.4-0.8c-0.3-0.2-0.6-0.3-1-0.3c-0.4,0-0.7,0.1-1,0.2
		c-0.2,0.2-0.3,0.4-0.3,0.6c0,0.2,0.1,0.4,0.2,0.5s0.3,0.2,0.5,0.3s0.5,0.2,1,0.3c0.6,0.1,1,0.3,1.4,0.5s0.7,0.4,0.9,0.7
		c0.3,0.3,0.4,0.7,0.4,1.2c0,0.4-0.1,0.8-0.4,1.2c-0.2,0.3-0.6,0.6-1,0.8c-0.4,0.2-1,0.3-1.6,0.3
		C227.3,291.8,226.8,291.7,226.3,291.5z"/>
	<path d="M238.2,284.2c0.5,0.3,0.8,0.6,1.1,1.1c0.3,0.5,0.4,1.1,0.4,1.8v4.5h-1.6v-4.3c0-0.7-0.2-1.2-0.5-1.6
		c-0.3-0.4-0.8-0.6-1.4-0.6c-0.6,0-1.1,0.2-1.4,0.6c-0.4,0.4-0.5,0.9-0.5,1.6v4.3h-1.6v-10.4h1.6v3.5c0.3-0.3,0.6-0.6,1-0.8
		c0.4-0.2,0.9-0.3,1.4-0.3C237.2,283.8,237.7,284,238.2,284.2z"/>
	<path d="M241.6,285.7c0.3-0.6,0.8-1.1,1.3-1.4c0.6-0.3,1.2-0.5,1.8-0.5c0.6,0,1.1,0.1,1.6,0.4c0.5,0.2,0.8,0.5,1.1,0.9V284h1.6v7.7
		h-1.6v-1.1c-0.3,0.4-0.6,0.7-1.1,0.9c-0.5,0.2-1,0.4-1.6,0.4c-0.7,0-1.3-0.2-1.8-0.5s-1-0.8-1.3-1.4s-0.5-1.3-0.5-2.1
		C241.1,287,241.3,286.3,241.6,285.7z M247.1,286.4c-0.2-0.4-0.5-0.7-0.9-0.9c-0.4-0.2-0.7-0.3-1.1-0.3c-0.4,0-0.8,0.1-1.1,0.3
		c-0.4,0.2-0.6,0.5-0.9,0.9c-0.2,0.4-0.3,0.8-0.3,1.4c0,0.5,0.1,1,0.3,1.4c0.2,0.4,0.5,0.7,0.9,0.9s0.7,0.3,1.1,0.3
		c0.4,0,0.8-0.1,1.1-0.3s0.6-0.5,0.9-0.9c0.2-0.4,0.3-0.9,0.3-1.4S247.3,286.8,247.1,286.4z"/>
	<path d="M253.9,284.2c0.5-0.2,1-0.4,1.6-0.4c0.7,0,1.3,0.2,1.8,0.5c0.6,0.3,1,0.8,1.3,1.4s0.5,1.3,0.5,2.1c0,0.8-0.2,1.5-0.5,2.1
		s-0.8,1.1-1.3,1.4c-0.6,0.3-1.2,0.5-1.8,0.5c-0.6,0-1.1-0.1-1.6-0.4s-0.8-0.5-1.1-0.9v4.8h-1.6V284h1.6v1.1
		C253,284.8,253.4,284.5,253.9,284.2z M257.1,286.4c-0.2-0.4-0.5-0.7-0.9-0.9c-0.4-0.2-0.7-0.3-1.2-0.3c-0.4,0-0.8,0.1-1.1,0.3
		c-0.4,0.2-0.6,0.5-0.9,0.9c-0.2,0.4-0.3,0.9-0.3,1.4s0.1,1,0.3,1.4c0.2,0.4,0.5,0.7,0.9,0.9s0.7,0.3,1.1,0.3c0.4,0,0.8-0.1,1.2-0.3
		s0.6-0.5,0.9-0.9c0.2-0.4,0.3-0.9,0.3-1.4C257.5,287.3,257.3,286.8,257.1,286.4z"/>
	<path d="M267.7,288.4h-5.9c0,0.6,0.3,1.1,0.7,1.5c0.4,0.4,0.9,0.6,1.5,0.6c0.9,0,1.5-0.4,1.8-1.1h1.7c-0.2,0.7-0.7,1.3-1.3,1.7
		c-0.6,0.5-1.4,0.7-2.3,0.7c-0.7,0-1.4-0.2-2-0.5c-0.6-0.3-1-0.8-1.4-1.4c-0.3-0.6-0.5-1.3-0.5-2.1s0.2-1.5,0.5-2.1
		c0.3-0.6,0.8-1.1,1.4-1.4c0.6-0.3,1.3-0.5,2-0.5c0.7,0,1.4,0.2,1.9,0.5s1,0.8,1.3,1.3s0.5,1.2,0.5,2
		C267.7,287.9,267.7,288.2,267.7,288.4z M266.1,287.1c0-0.6-0.2-1.1-0.6-1.4c-0.4-0.4-0.9-0.5-1.5-0.5c-0.6,0-1,0.2-1.4,0.5
		c-0.4,0.4-0.6,0.8-0.7,1.4H266.1z"/>
	<path d="M269.2,285.7c0.3-0.6,0.8-1.1,1.3-1.4c0.6-0.3,1.2-0.5,1.9-0.5c0.5,0,1,0.1,1.5,0.3c0.5,0.2,0.9,0.5,1.2,0.9v-3.7h1.6v10.4
		h-1.6v-1.2c-0.3,0.4-0.6,0.7-1.1,0.9c-0.5,0.2-1,0.4-1.6,0.4c-0.7,0-1.3-0.2-1.8-0.5c-0.6-0.3-1-0.8-1.3-1.4
		c-0.3-0.6-0.5-1.3-0.5-2.1C268.8,287,268.9,286.3,269.2,285.7z M274.7,286.4c-0.2-0.4-0.5-0.7-0.9-0.9c-0.4-0.2-0.7-0.3-1.1-0.3
		s-0.8,0.1-1.1,0.3c-0.4,0.2-0.6,0.5-0.9,0.9c-0.2,0.4-0.3,0.8-0.3,1.4c0,0.5,0.1,1,0.3,1.4c0.2,0.4,0.5,0.7,0.9,0.9
		s0.7,0.3,1.1,0.3c0.4,0,0.8-0.1,1.1-0.3c0.4-0.2,0.6-0.5,0.9-0.9c0.2-0.4,0.3-0.9,0.3-1.4S275,286.8,274.7,286.4z"/>
</g>
<g>
	<path d="M35.2,286.3c-0.2,0.4-0.6,0.8-1.1,1.1s-1.2,0.4-2,0.4h-1.8v3.9h-1.6V282h3.4c0.7,0,1.4,0.1,1.9,0.4c0.5,0.3,0.9,0.6,1.2,1
		c0.3,0.4,0.4,0.9,0.4,1.5C35.5,285.4,35.4,285.8,35.2,286.3z M33.4,286c0.3-0.3,0.4-0.7,0.4-1.2c0-1.1-0.6-1.6-1.8-1.6h-1.8v3.2
		h1.8C32.7,286.4,33.1,286.3,33.4,286z"/>
	<path d="M44.1,288.4h-5.9c0,0.6,0.3,1.1,0.7,1.5s0.9,0.6,1.5,0.6c0.9,0,1.5-0.4,1.8-1.1h1.7c-0.2,0.7-0.7,1.3-1.3,1.7
		c-0.6,0.5-1.4,0.7-2.3,0.7c-0.7,0-1.4-0.2-2-0.5c-0.6-0.3-1-0.8-1.4-1.4c-0.3-0.6-0.5-1.3-0.5-2.1s0.2-1.5,0.5-2.1
		c0.3-0.6,0.8-1.1,1.4-1.4c0.6-0.3,1.3-0.5,2-0.5c0.7,0,1.4,0.2,1.9,0.5s1,0.8,1.3,1.3s0.5,1.2,0.5,2
		C44.1,287.9,44.1,288.2,44.1,288.4z M42.4,287.1c0-0.6-0.2-1.1-0.6-1.4c-0.4-0.4-0.9-0.5-1.5-0.5c-0.6,0-1,0.2-1.4,0.5
		c-0.4,0.4-0.6,0.8-0.7,1.4H42.4z"/>
	<path d="M45.6,285.7c0.3-0.6,0.8-1.1,1.3-1.4c0.6-0.3,1.2-0.5,1.8-0.5c0.6,0,1.1,0.1,1.6,0.4c0.5,0.2,0.8,0.5,1.1,0.9V284h1.6v7.7
		h-1.6v-1.1c-0.3,0.4-0.6,0.7-1.1,0.9c-0.5,0.2-1,0.4-1.6,0.4c-0.7,0-1.3-0.2-1.8-0.5c-0.6-0.3-1-0.8-1.3-1.4
		c-0.3-0.6-0.5-1.3-0.5-2.1C45.1,287,45.3,286.3,45.6,285.7z M51.1,286.4c-0.2-0.4-0.5-0.7-0.9-0.9c-0.4-0.2-0.7-0.3-1.1-0.3
		c-0.4,0-0.8,0.1-1.1,0.3c-0.4,0.2-0.6,0.5-0.9,0.9c-0.2,0.4-0.3,0.8-0.3,1.4c0,0.5,0.1,1,0.3,1.4s0.5,0.7,0.9,0.9s0.7,0.3,1.1,0.3
		c0.4,0,0.8-0.1,1.1-0.3c0.4-0.2,0.6-0.5,0.9-0.9c0.2-0.4,0.3-0.9,0.3-1.4S51.3,286.8,51.1,286.4z"/>
	<path d="M57.7,284.2c0.4-0.2,0.8-0.3,1.4-0.3v1.7h-0.4c-0.6,0-1.1,0.2-1.4,0.5c-0.3,0.3-0.5,0.9-0.5,1.7v4.1h-1.6V284h1.6v1.1
		C57,284.7,57.3,284.4,57.7,284.2z"/>
	<path d="M65.6,291.4c-0.5-0.2-0.9-0.6-1.2-1c-0.3-0.4-0.4-0.9-0.4-1.5h1.7c0,0.4,0.2,0.8,0.5,1s0.7,0.4,1.2,0.4
		c0.6,0,1-0.1,1.3-0.4c0.3-0.3,0.5-0.6,0.5-1c0-0.3-0.1-0.6-0.3-0.8c-0.2-0.2-0.4-0.4-0.7-0.5s-0.7-0.2-1.2-0.4
		c-0.6-0.2-1.2-0.3-1.5-0.5s-0.7-0.4-1-0.8c-0.3-0.4-0.4-0.8-0.4-1.5c0-0.6,0.1-1,0.4-1.5c0.3-0.4,0.7-0.7,1.2-1
		c0.5-0.2,1.1-0.3,1.8-0.3c0.9,0,1.7,0.2,2.3,0.7c0.6,0.5,0.9,1.1,1,1.9h-1.8c0-0.4-0.2-0.7-0.5-0.9c-0.3-0.3-0.7-0.4-1.2-0.4
		c-0.5,0-0.8,0.1-1.1,0.3c-0.3,0.2-0.4,0.6-0.4,1c0,0.3,0.1,0.5,0.3,0.7c0.2,0.2,0.4,0.3,0.7,0.5c0.3,0.1,0.7,0.2,1.1,0.4
		c0.6,0.2,1.2,0.4,1.6,0.5c0.4,0.2,0.8,0.5,1,0.8c0.3,0.4,0.4,0.9,0.4,1.5c0,0.5-0.1,1-0.4,1.4c-0.3,0.4-0.7,0.8-1.2,1.1
		c-0.5,0.3-1.1,0.4-1.8,0.4C66.7,291.8,66.1,291.7,65.6,291.4z"/>
	<path d="M78.2,284.2c0.5,0.3,0.8,0.6,1.1,1.1c0.3,0.5,0.4,1.1,0.4,1.8v4.5h-1.6v-4.3c0-0.7-0.2-1.2-0.5-1.6
		c-0.3-0.4-0.8-0.6-1.4-0.6s-1.1,0.2-1.4,0.6c-0.4,0.4-0.5,0.9-0.5,1.6v4.3h-1.6v-10.4h1.6v3.5c0.3-0.3,0.6-0.6,1-0.8
		c0.4-0.2,0.9-0.3,1.4-0.3C77.2,283.8,77.7,284,78.2,284.2z"/>
	<path d="M81.7,285.7c0.3-0.6,0.8-1.1,1.3-1.4c0.6-0.3,1.2-0.5,1.8-0.5c0.6,0,1.1,0.1,1.6,0.4c0.5,0.2,0.8,0.5,1.1,0.9V284h1.6v7.7
		h-1.6v-1.1c-0.3,0.4-0.6,0.7-1.1,0.9c-0.5,0.2-1,0.4-1.6,0.4c-0.7,0-1.3-0.2-1.8-0.5c-0.6-0.3-1-0.8-1.3-1.4
		c-0.3-0.6-0.5-1.3-0.5-2.1C81.2,287,81.4,286.3,81.7,285.7z M87.2,286.4c-0.2-0.4-0.5-0.7-0.9-0.9c-0.4-0.2-0.7-0.3-1.1-0.3
		c-0.4,0-0.8,0.1-1.1,0.3c-0.4,0.2-0.6,0.5-0.9,0.9c-0.2,0.4-0.3,0.8-0.3,1.4c0,0.5,0.1,1,0.3,1.4s0.5,0.7,0.9,0.9s0.7,0.3,1.1,0.3
		c0.4,0,0.8-0.1,1.1-0.3c0.4-0.2,0.6-0.5,0.9-0.9c0.2-0.4,0.3-0.9,0.3-1.4S87.4,286.8,87.2,286.4z"/>
	<path d="M93.9,284.2c0.5-0.2,1-0.4,1.6-0.4c0.7,0,1.3,0.2,1.8,0.5c0.6,0.3,1,0.8,1.3,1.4s0.5,1.3,0.5,2.1c0,0.8-0.2,1.5-0.5,2.1
		s-0.8,1.1-1.3,1.4s-1.2,0.5-1.8,0.5c-0.6,0-1.1-0.1-1.6-0.4c-0.5-0.2-0.8-0.5-1.1-0.9v4.8h-1.6V284h1.6v1.1
		C93.1,284.8,93.5,284.5,93.9,284.2z M97.2,286.4c-0.2-0.4-0.5-0.7-0.9-0.9c-0.4-0.2-0.7-0.3-1.2-0.3c-0.4,0-0.8,0.1-1.1,0.3
		c-0.4,0.2-0.6,0.5-0.9,0.9c-0.2,0.4-0.3,0.9-0.3,1.4s0.1,1,0.3,1.4c0.2,0.4,0.5,0.7,0.9,0.9s0.7,0.3,1.1,0.3c0.4,0,0.8-0.1,1.2-0.3
		c0.4-0.2,0.6-0.5,0.9-0.9s0.3-0.9,0.3-1.4C97.5,287.3,97.4,286.8,97.2,286.4z"/>
	<path d="M107.7,288.4h-5.9c0,0.6,0.3,1.1,0.7,1.5s0.9,0.6,1.5,0.6c0.9,0,1.5-0.4,1.8-1.1h1.7c-0.2,0.7-0.7,1.3-1.3,1.7
		c-0.6,0.5-1.4,0.7-2.3,0.7c-0.7,0-1.4-0.2-2-0.5c-0.6-0.3-1-0.8-1.4-1.4c-0.3-0.6-0.5-1.3-0.5-2.1s0.2-1.5,0.5-2.1
		c0.3-0.6,0.8-1.1,1.4-1.4c0.6-0.3,1.3-0.5,2-0.5c0.7,0,1.4,0.2,1.9,0.5s1,0.8,1.3,1.3s0.5,1.2,0.5,2
		C107.8,287.9,107.8,288.2,107.7,288.4z M106.1,287.1c0-0.6-0.2-1.1-0.6-1.4c-0.4-0.4-0.9-0.5-1.5-0.5c-0.6,0-1,0.2-1.4,0.5
		c-0.4,0.4-0.6,0.8-0.7,1.4H106.1z"/>
	<path d="M109.3,285.7c0.3-0.6,0.8-1.1,1.3-1.4c0.6-0.3,1.2-0.5,1.9-0.5c0.5,0,1,0.1,1.5,0.3c0.5,0.2,0.9,0.5,1.2,0.9v-3.7h1.6v10.4
		h-1.6v-1.2c-0.3,0.4-0.6,0.7-1.1,0.9c-0.5,0.2-1,0.4-1.6,0.4c-0.7,0-1.3-0.2-1.8-0.5s-1-0.8-1.3-1.4c-0.3-0.6-0.5-1.3-0.5-2.1
		C108.8,287,109,286.3,109.3,285.7z M114.8,286.4c-0.2-0.4-0.5-0.7-0.9-0.9c-0.4-0.2-0.7-0.3-1.1-0.3c-0.4,0-0.8,0.1-1.1,0.3
		c-0.4,0.2-0.6,0.5-0.9,0.9c-0.2,0.4-0.3,0.8-0.3,1.4c0,0.5,0.1,1,0.3,1.4s0.5,0.7,0.9,0.9s0.7,0.3,1.1,0.3c0.4,0,0.8-0.1,1.1-0.3
		c0.4-0.2,0.6-0.5,0.9-0.9c0.2-0.4,0.3-0.9,0.3-1.4S115,286.8,114.8,286.4z"/>
</g>
</svg>
