<?xml version="1.0" encoding="UTF-8"?>
<svg width="300px" height="329px" viewBox="0 0 300 329" version="1.1" xmlns="http://www.w3.org/2000/svg" xmlns:xlink="http://www.w3.org/1999/xlink">
    <title>Group 5</title>
    <defs>
        <polygon id="path-1" points="0.112968 0.23575921 17.1396 0.23575921 17.1396 76.8415362 0.112968 76.8415362"></polygon>
        <polygon id="path-3" points="0.057078 0.48006 18.863002 0.48006 18.863002 21.878802 0.057078 21.878802"></polygon>
        <polygon id="path-5" points="0 0.278694 14.778882 0.278694 14.778882 62.782614 0 62.782614"></polygon>
    </defs>
    <g id="Page-1" stroke="none" stroke-width="1" fill="none" fill-rule="evenodd">
        <g id="For-you-and-your-partner-Copy-5" transform="translate(-57.000000, -4491.000000)">
            <g id="Group-5" transform="translate(57.000000, 4491.000000)">
                <circle id="Mask-Copy-5" fill="#E13856" opacity="0.0770321801" cx="150" cy="165" r="150"></circle>
                <g id="Group-244" transform="translate(29.000000, 0.000000)">
                    <g id="Group-3" transform="translate(162.540000, 103.199940)">
                        <mask id="mask-2" fill="white">
                            <use xlink:href="#path-1"></use>
                        </mask>
                        <g id="Clip-2"></g>
                        <path d="M14.691888,6.01938 C14.773968,6.70842 14.845248,7.4034 14.923008,8.10864 C15.670368,15.22854 16.121808,23.1552 16.017588,31.7601 C15.934428,39.13596 15.449508,45.97668 14.742108,52.20126 C14.791788,52.44804 14.840928,52.6959 14.885208,52.93188 C15.021828,53.55936 15.139008,54.15066 15.240528,54.7371 C15.352848,55.35702 15.446268,55.84032 15.527268,56.3112 C17.503128,67.42008 17.368128,69.3954 16.675848,71.19738 C15.614748,73.9584 12.989808,76.9878 10.286028,76.83606 C8.448408,76.73508 7.173468,75.20634 6.732828,74.67228 C3.277908,70.53858 5.085828,63.64332 6.157188,59.55822 C6.893748,56.76102 7.830648,54.53784 8.544528,53.0442 C8.564508,52.99344 8.587728,52.94808 8.610408,52.90272 C7.622208,48.93966 6.679368,44.87346 5.795388,40.70304 C3.823848,31.41558 2.306448,22.44996 1.155708,13.83804 C0.877068,11.75958 0.619488,9.69732 0.387288,7.6545 C0.292248,6.8526 0.199908,6.05502 0.112968,5.25528 C1.256688,2.1573 4.263408,0.13338 7.535268,0.23976 C10.908108,0.34722 13.848408,2.71296 14.691888,6.01938" id="Fill-1" fill="#E49D92" mask="url(#mask-2)"></path>
                    </g>
                    <path d="M72.725526,112.246776 C73.736946,101.012076 76.238226,87.621696 81.821826,73.335996 C83.316006,69.511716 84.914406,65.922876 86.565726,62.568396 C89.521686,59.776056 93.690486,58.805676 97.346826,60.088176 C101.626866,61.588836 103.270086,65.500596 103.522266,66.128616 C102.000546,72.337536 100.190466,78.847776 98.032086,85.604796 C94.520466,96.598116 90.615726,106.588116 86.640246,115.536456 C85.701186,119.211156 82.510866,121.641696 79.386426,121.511556 C75.461166,121.347936 71.885286,117.155376 72.725526,112.246776" id="Fill-4" fill="#E49D92"></path>
                    <path d="M76.139028,91.2909319 C76.303728,91.330632 75.277188,95.570712 74.274948,101.495052 C73.510848,106.011612 73.058328,109.746792 72.791028,112.263192 C71.964288,115.897932 71.206668,119.702232 70.546788,123.669072 C68.822568,134.030052 68.065488,143.686332 67.897548,152.416512 C67.541148,142.176492 68.203728,130.678812 70.767648,118.370592 C71.211528,116.238672 71.695908,114.162372 72.214308,112.140072 C72.358488,108.785592 72.798048,103.768992 74.225808,97.766352 C74.996928,94.526352 75.993768,91.256112 76.139028,91.2909319" id="Fill-6" fill="#FCF9F8"></path>
                    <path d="M86.866776,113.554062 C84.574476,124.559802 81.614736,136.187082 77.799096,148.285242 C76.516056,152.351982 75.187656,156.310182 73.823616,160.160382 C74.396016,161.718822 75.144456,164.076462 75.620196,167.020542 C76.293036,171.191502 77.429196,178.230402 73.595196,182.012562 C73.103256,182.498022 71.686296,183.896082 69.850836,183.821562 C67.142736,183.711402 64.820736,180.446562 64.032336,177.591042 C63.519336,175.733982 63.571716,173.751102 66.604896,162.886302 C66.733416,162.425142 66.874896,161.953182 67.043916,161.346762 C67.203216,160.774362 67.376556,160.198182 67.570416,159.585282 C67.638456,159.353082 67.711896,159.115482 67.785336,158.870862 C67.682736,152.609022 67.858776,145.753182 68.480856,138.401622 C69.278976,128.976462 70.665156,120.435282 72.279756,112.912542 C73.442376,109.698462 76.593276,107.628642 79.963416,107.844642 C83.225016,108.053082 86.021136,110.358882 86.866776,113.554062" id="Fill-8" fill="#E49D92"></path>
                    <path d="M107.128926,5.139558 C106.059186,6.012198 102.765726,8.927658 101.685726,13.961538 C100.888146,17.676738 101.687886,20.723958 102.154446,22.126338 C102.436326,21.969738 102.717666,21.813138 102.999546,21.657078 C102.549186,19.836198 101.661966,15.153318 103.844106,10.113498 C104.807466,7.888158 106.086186,6.247638 107.128926,5.139558" id="Fill-10" fill="#FCF9F8"></path>
                    <path d="M137.195424,36.26235 L140.063904,36.56151 C141.267024,37.48923 143.180784,39.22965 144.586404,41.99877 C146.837664,46.43487 146.327364,50.63985 146.064384,52.16967 C146.987244,52.45803 148.212504,52.96023 149.478264,53.85879 C151.691724,55.43073 152.845164,57.37851 153.384084,58.46931 C153.427824,58.55625 152.389404,55.18125 149.266584,53.08443 C148.285944,52.42617 147.350124,52.04547 146.638944,51.81759 C146.889504,50.34177 147.221604,47.16171 145.888344,43.51239 C144.330444,39.24747 141.416604,36.85851 140.222124,35.98101 C139.213404,36.07443 138.204684,36.16839 137.195424,36.26235" id="Fill-12" fill="#FCF9F8"></path>
                    <path d="M173.767248,119.306358 C173.127888,119.649258 172.443708,119.883078 171.733608,119.985678 C168.638328,120.424158 165.223368,118.322478 163.925748,114.756858 C163.878768,114.674238 163.826388,114.588918 163.781568,114.501438 C163.066608,113.239998 162.344628,111.954258 161.631828,110.639898 C157.581828,103.262418 153.549648,95.156478 149.719428,86.322078 C149.687028,86.248098 149.655708,86.175198 149.623308,86.101218 C146.809908,79.586658 144.362628,73.287558 142.232328,67.263318 C142.424028,66.609918 143.670888,62.555598 147.782448,60.642378 C151.295148,59.006178 155.539008,59.556978 158.756328,62.041518 C160.962228,64.992078 163.158408,68.285538 165.244968,71.938638 C173.282868,86.055318 176.306328,99.825858 177.441408,110.106378 C178.521408,114.030018 176.619528,117.767898 173.767248,119.306358" id="Fill-14" fill="#E49D92"></path>
                    <path d="M97.560288,59.19021 C96.973848,59.01903 94.503888,59.07843 92.155428,59.53419 C91.437228,59.67351 90.758448,59.80851 89.920368,60.12387 C87.958548,60.86097 86.621508,62.02089 85.841748,62.82603 C80.548128,72.78417 75.255048,82.74177 69.961968,92.70045 C76.963068,97.39359 83.965248,102.08673 90.966888,106.78041 C92.274768,103.47183 93.582648,100.16325 94.891068,96.85467 C100.709028,63.08577 98.706708,59.52393 97.560288,59.19021" id="Fill-16" fill="#00A0FF"></path>
                    <path d="M149.076504,58.07646 C147.513204,60.5016 141.641244,68.96178 130.664664,71.74656 C118.825164,74.75112 105.772824,69.95376 97.275924,59.53824 C100.884744,58.70016 104.945004,58.08186 109.394064,57.92256 C110.323944,57.88908 111.234924,57.8772 112.125384,57.88422 C112.323024,57.31722 112.503924,56.72754 112.663764,56.1141 C114.069924,50.72598 113.276124,45.7326 112.156704,42.04224 C119.391084,42.22476 126.620064,42.40728 133.854984,42.5898 C133.595244,43.59798 133.270704,45.14346 133.176744,47.05344 C133.082244,48.82842 133.176744,50.91552 133.695684,53.2035 C133.742124,53.40762 133.962984,54.3726 134.391744,55.64052 C134.634204,56.35926 134.960904,57.2265 135.400464,58.19202 C139.959144,58.15368 144.518364,58.1148 149.076504,58.07646" id="Fill-18" fill="#DD9387"></path>
                    <path d="M139.555278,58.191966 C139.460778,58.629906 137.799198,65.783826 131.488758,67.837446 C128.744478,68.731146 126.285858,68.281866 125.002278,67.936266 C123.066378,64.279386 121.019778,60.550686 118.854378,56.761506 C116.987598,53.492886 115.115418,50.324166 113.247018,47.254266 C115.676478,48.156066 119.992158,49.388346 125.375418,48.910986 C128.577618,48.633966 131.230638,47.831526 133.176258,47.053386 C133.082298,48.828366 133.176258,50.915466 133.695198,53.203446 C133.937118,54.268326 134.194698,55.050246 134.391258,55.640466 C134.625618,56.342466 134.940438,57.203766 135.361638,58.172526 C136.759158,58.179546 138.157218,58.185486 139.555278,58.191966" id="Fill-20" fill="#CD4D40" opacity="0.162063953"></path>
                    <path d="M153.797292,94.814388 C153.764352,99.153828 153.732492,103.498128 153.695772,107.837568 L153.695772,108.104868 C153.695772,108.202068 153.694692,108.300348 153.693612,108.398088 C153.693612,108.402408 153.690912,108.691308 153.690912,108.691308 C153.689832,108.877608 151.898652,113.942268 147.744972,125.449128 C142.819092,125.403228 137.898072,125.361648 132.972192,125.310888 C119.570472,125.191008 106.168752,125.065728 92.767032,124.936668 C92.817792,123.228648 92.868552,121.515768 92.919852,119.807748 C93.034872,115.874928 93.149892,111.946428 93.265452,108.012528 C93.399372,104.545728 93.483072,101.028168 93.505752,97.464168 C93.510072,96.134688 93.510072,94.805208 93.505752,93.484908 C92.665512,92.118708 89.009172,85.826088 90.999072,78.306048 C91.751832,75.471588 93.076452,73.319688 94.216932,71.852508 C94.424832,71.570628 94.632192,71.311968 94.835772,71.081388 C95.273712,67.110768 95.717052,63.140688 96.160392,59.174928 C97.333272,58.999968 98.528292,58.842828 99.747072,58.699728 C102.826152,58.334688 105.790212,58.099788 108.624672,57.961008 C111.552012,63.653148 117.433152,67.244688 123.821892,67.249548 C130.169592,67.253868 136.018872,63.717948 138.978072,58.094928 C139.689252,58.094928 140.399892,58.099788 141.120252,58.108428 C144.425592,58.145688 147.666132,58.247208 150.847272,58.404348 L153.058572,72.110628 C154.166652,73.597248 156.497832,77.142348 156.945492,82.243728 C157.508712,88.646508 154.743372,93.346128 153.797292,94.814388" id="Fill-22" fill="#00A0FF"></path>
                    <path d="M153.677034,110.612034 C153.658674,113.155974 153.635454,115.704234 153.617094,118.247634 C153.589554,118.224954 153.556614,118.196874 153.524754,118.169334 C152.139654,119.221794 150.741054,120.223494 149.337594,121.170114 C130.534794,120.712734 111.727134,120.260214 92.919474,119.807694 C93.034494,115.874874 93.150054,111.946374 93.265614,108.013014 C93.399534,104.546214 93.482694,101.028114 93.505374,97.464114 C93.551814,96.088194 93.546954,94.759254 93.505374,93.484854 C92.665674,92.118654 89.009334,85.826574 90.999234,78.305994 C91.751454,75.471534 93.076074,73.319634 94.217094,71.852454 C94.142574,72.387594 93.736494,73.043154 93.062574,73.542114 C92.508534,74.875914 91.761174,77.202774 91.885374,80.119854 C92.098134,85.096494 94.733874,88.882434 96.700014,90.733014 C101.875374,95.608674 111.745494,95.834934 120.188934,90.243774 C119.007414,91.730394 117.262134,93.540474 114.778674,95.058954 C108.158274,99.121914 101.183094,98.124534 98.962614,97.713594 C100.471914,99.241254 102.096774,100.797534 103.837194,102.362454 C107.091774,105.289254 110.305314,107.833194 113.351994,110.030454 C113.449194,110.099574 113.541534,110.173554 113.638194,110.238354 C113.638194,110.238354 124.934454,116.562834 139.375134,114.827274 C145.459314,114.092874 150.334974,112.227714 153.677034,110.612034" id="Fill-24" fill="#3A1628" opacity="0.359216025"></path>
                    <path d="M153.695502,108.10503 C153.695502,108.29889 153.690642,108.49815 153.690642,108.69147 C153.685782,109.33299 153.682002,109.97019 153.677142,110.61225 C153.648522,114.49863 153.636642,116.44155 153.616662,118.24731 C153.601002,119.75229 153.577242,121.67685 153.541602,123.92649 C152.118162,124.33527 150.132582,124.87959 147.744702,125.44929 C139.259142,127.47429 132.792642,128.12769 131.241222,128.27511 C127.635102,128.61585 124.159122,128.76867 120.831102,128.773076 C109.506762,128.78703 99.909342,127.08819 92.757582,125.28351 C92.762442,125.16795 92.762442,125.05239 92.767302,124.93683 C92.818062,123.22881 92.868282,121.51593 92.919582,119.80791 C93.034602,115.87509 93.150162,111.94605 93.265722,108.01269 C99.479502,108.94581 106.196562,109.66563 113.352102,110.03013 C115.568262,110.14569 117.829782,110.22453 120.133962,110.26557 C126.310482,110.38113 132.773742,110.21967 139.495122,109.70235 C144.439362,109.31949 149.171382,108.77463 153.695502,108.10503" id="Fill-26" fill="#282C39"></path>
                    <path d="M155.677248,102.96288 C162.878148,98.50788 170.079048,94.05288 177.279408,89.59788 C174.196008,82.55952 169.666488,74.3985 162.920268,66.30552 C161.007048,64.01052 159.077088,61.91478 157.170348,60.00372 C156.653568,59.75856 156.137328,59.51394 155.620548,59.26878 C151.769268,57.80052 149.838768,58.55598 148.980708,59.07654 C143.752968,62.24688 146.268828,76.11354 146.671668,78.33456 C146.697588,78.47658 146.720268,78.59646 146.736468,78.68286 C149.716728,86.77584 152.696988,94.8699 155.677248,102.96288" id="Fill-28" fill="#00A0FF"></path>
                    <path d="M141.730074,26.297136 C141.730074,39.995856 133.307154,51.102036 122.918094,51.102036 C112.528494,51.102036 104.105574,39.995856 104.105574,26.297136 C104.105574,12.597876 112.528494,1.491696 122.918094,1.491696 C133.307154,1.491696 141.730074,12.597876 141.730074,26.297136" id="Fill-30" fill="#E49D92"></path>
                    <polygon id="Fill-32" fill="#B9472B" points="123.422778 22.712778 122.082498 29.254878 121.155858 30.082158 121.865958 32.518098 127.274058 32.680638 122.475618 31.815558 122.066298 30.375378 122.864958 29.389878"></polygon>
                    <path d="M116.357418,41.196168 C117.793278,40.600008 120.082338,39.860748 122.961618,39.808368 C126.180018,39.748968 128.721798,40.573008 130.223538,41.196168 C128.280078,40.885668 126.019098,40.657248 123.500538,40.644828 C120.807018,40.631868 118.401858,40.869468 116.357418,41.196168" id="Fill-34" fill="#FCF9F8"></path>
                    <path d="M97.515954,59.13378 C96.326874,59.10516 94.838094,59.18994 93.174354,59.57496 C89.952174,60.32232 87.632334,61.83972 86.294214,62.88678 C81.670734,71.28594 77.047254,79.68456 72.423774,88.08318 C76.887954,79.63542 81.351594,71.18766 85.815774,62.7399 C87.030774,61.6572 89.777214,59.53338 93.763494,59.0598 C95.206374,58.88916 96.485094,58.97232 97.515954,59.13378" id="Fill-36" fill="#282C39"></path>
                    <path d="M93.309354,73.237608 C92.414034,75.016908 90.694674,79.038288 91.052694,84.324888 C91.343214,88.618968 92.874114,91.816308 93.836934,93.498948 C93.798054,98.361108 93.759174,103.223808 93.720294,108.087048 C93.570714,108.064368 93.421674,108.042228 93.272634,108.019548 C93.264534,103.191408 93.255894,98.363268 93.248334,93.535668 C92.354634,92.216448 89.533674,87.695028 90.169794,81.577368 C90.588834,77.545188 92.320074,74.651328 93.309354,73.237608" id="Fill-38" fill="#282C39"></path>
                    <path d="M131.107248,69.44967 C120.931488,73.34793 111.876768,67.28049 111.047328,66.70431 C112.370868,67.75245 114.543288,69.22773 117.522468,70.22403 C119.353608,70.83585 125.720748,72.85275 132.514488,69.66081 C138.776328,66.71835 141.361848,61.24923 142.016868,59.73615 C141.105888,61.41069 137.866428,66.85983 131.107248,69.44967" id="Fill-40" fill="#FCF9F8"></path>
                    <path d="M153.695502,107.837676 L153.695502,108.104976 C153.695502,108.298836 153.690642,108.498096 153.690642,108.691416 C150.261102,109.249776 145.408662,109.915056 139.569102,110.275236 C130.008402,110.870316 121.749642,110.409156 120.133962,110.265516 C119.944422,110.247156 119.847222,110.233656 119.847222,110.228796 C119.852082,110.191536 122.280462,110.283876 126.776502,110.206116 C129.450042,110.159676 133.853742,110.076516 139.204602,109.651536 C143.021862,109.342656 147.939102,108.816156 153.695502,107.837676" id="Fill-42" fill="#282C39"></path>
                    <path d="M139.710312,37.616022 C138.954852,39.461742 137.881332,41.538042 136.334772,43.632162 C135.924372,44.187282 135.508572,44.706222 135.093852,45.189522 C134.671032,47.285802 133.927452,52.541622 136.767312,57.640302 C137.528712,59.006502 138.407292,60.110802 139.249152,60.986682 C139.365252,62.175762 139.590432,64.021482 140.056992,66.238182 C141.976692,75.374442 145.645452,79.679862 147.616452,85.031262 C149.096052,89.049402 150.211692,95.267502 147.826512,104.343822 C149.589612,102.504582 151.609752,99.921222 153.155772,96.495462 C157.674492,86.483862 154.749852,76.797882 153.733032,73.855422 C154.261152,72.126882 155.075472,68.562342 153.964152,64.391922 C151.886232,56.600262 144.839772,53.276562 143.768952,52.792722 C144.060552,51.168942 144.393192,48.073122 143.345592,44.425422 C142.399512,41.129802 140.747112,38.845602 139.710312,37.616022" id="Fill-44" fill="#2A2423"></path>
                    <path d="M166.517316,184.33521 C165.948696,195.94575 164.564676,211.89735 161.079516,232.02423 C160.313256,236.45439 159.440076,241.09083 158.454036,245.92869 C157.930236,246.83751 157.329756,247.68423 156.662316,248.45913 C153.078876,252.66573 147.627576,254.86083 142.180596,254.13939 C133.189596,252.94815 129.490056,244.49931 129.337236,244.13643 C129.001356,240.30621 128.665476,236.47221 128.324736,232.64199 C126.954216,217.03977 125.583696,201.44241 124.212636,185.84019 C124.127856,184.89033 124.047396,183.94101 123.961536,182.99115 C123.876756,181.47699 123.787116,179.96715 123.697476,178.45299 C123.478236,174.60117 123.254136,170.74395 123.030576,166.89159 C122.653656,160.39161 122.282136,153.89217 121.906296,147.39219 C121.493736,140.31873 121.086036,133.24635 120.678336,126.17721 C124.974036,125.87265 129.274596,125.56809 133.570296,125.26785 C140.222556,124.79751 146.874816,124.32717 153.526536,123.86169 C153.768996,124.33203 154.015236,124.81533 154.266336,125.30781 C156.541356,129.84597 158.929236,135.27513 160.994196,141.51969 C164.206116,151.22241 166.651776,162.89613 166.741416,176.27139 C166.750596,177.78609 166.737096,179.89533 166.517316,184.33521" id="Fill-46" fill="#282C39"></path>
                    <path d="M126.425502,126.177102 C126.017802,133.246242 125.610642,140.318622 125.198622,147.392082 C125.180262,147.683142 125.166762,147.969882 125.148942,148.260942 C124.790922,154.470402 124.432362,160.682562 124.074342,166.891482 L124.074342,166.913622 C124.020342,167.832702 123.966342,168.755562 123.912882,169.673562 C123.908022,169.781022 123.898842,169.888482 123.894522,169.995942 C123.729282,172.813662 123.567822,175.635702 123.406362,178.453422 C123.316722,179.967042 123.227082,181.476882 123.142302,182.991042 C123.057522,183.940902 122.976522,184.890762 122.891202,185.840082 C121.565502,200.913642 120.244122,215.978562 118.918422,231.052122 C118.873602,231.580242 118.824462,232.113762 118.779102,232.641882 C118.438902,236.472102 118.103022,240.306642 117.766602,244.136322 C117.614862,244.499202 113.914242,252.948042 104.924322,254.139282 C99.857502,254.811582 94.791222,252.961002 91.221282,249.314922 C90.952362,249.041682 90.692622,248.754942 90.441522,248.459022 C89.774622,247.684662 89.174142,246.837402 88.649802,245.928582 C88.157322,243.518562 87.695622,241.157682 87.261462,238.850802 C86.821902,236.521782 86.409882,234.245682 86.025402,232.024122 C82.539702,211.897242 81.155682,195.945642 80.586522,184.335102 C80.367282,179.895762 80.353782,177.785982 80.362422,176.271822 C80.452062,162.896022 82.898262,151.222302 86.110182,141.519582 C86.526522,140.251662 86.961222,139.019922 87.404562,137.820042 C89.137962,133.106922 91.024182,128.923002 92.838582,125.308242 C92.860722,125.267742 92.878542,125.227242 92.901222,125.187282 C93.129642,124.734762 93.353202,124.291422 93.577302,123.861582 C100.032462,124.314102 106.482762,124.770942 112.937922,125.227242 C113.135022,125.241282 113.336982,125.254242 113.533542,125.267742 C117.829782,125.567982 122.129802,125.873082 126.425502,126.177102" id="Fill-48" fill="#282C39"></path>
                    <path d="M127.53342,237.994038 C127.53342,256.213098 129.48552,267.435378 131.92416,287.101638 C132.47496,291.547998 133.18236,298.005858 133.70238,305.908218 C133.79418,310.600278 133.88544,315.292878 133.97724,319.984938 C139.59324,319.113378 145.21032,318.240738 150.82686,317.368638 C150.74046,314.823078 150.67944,310.937238 150.90408,306.212238 C151.29396,298.005858 152.3124,292.149018 153.1467,287.143218 C153.1467,287.143218 156.22308,267.282558 157.47102,237.198078 C157.49586,236.600838 157.46724,234.654678 156.79494,232.280298 C154.899,225.597798 149.20578,220.860378 142.4898,221.041818 C136.0503,221.211378 130.53852,225.886158 128.4363,232.280298 C128.15982,233.137818 127.94166,234.020178 127.78506,234.939258 C127.78506,234.939258 127.53342,236.435598 127.53342,237.994038" id="Fill-50" fill="#E49D92"></path>
                    <path d="M90.339894,237.19824 C91.396134,262.6668 94.651794,287.0235 94.651794,287.0235 C95.560614,293.47488 96.602814,302.82444 96.891174,314.36802 C97.199514,320.23566 101.427714,324.42822 105.704514,324.472855 C109.718874,324.51408 112.399974,320.8869 112.713174,320.44896 C113.062014,318.03084 113.411394,315.61272 113.760774,313.1946 C113.884434,310.6053 114.077214,307.1169 114.382314,302.9967 C114.878034,296.30718 115.525494,290.94984 115.891074,287.06886 C118.579194,258.57792 120.281814,239.6142 120.277502,237.9942 C120.277502,236.43576 120.026394,234.93888 120.026394,234.93888 C119.869794,234.0198 119.651094,233.13744 119.375154,232.28046 C117.272394,225.88632 111.760614,221.21154 105.321114,221.04198 C98.605674,220.86054 92.912454,225.59796 91.015974,232.28046 C90.344214,234.65484 90.315054,236.601 90.339894,237.19824" id="Fill-52" fill="#DD9387"></path>
                    <path d="M162.047034,208.57824 C161.105274,244.38834 157.794534,277.1793 153.340074,306.44298 L131.813514,306.44298 C128.761434,276.63444 126.444294,245.45484 125.100774,212.99652 C124.482474,198.16866 124.094754,183.6081 123.905214,169.3197 L123.905214,169.30566 C123.858774,168.45624 123.808014,167.62086 123.766434,166.77144 C123.642234,164.49102 123.516954,162.21924 123.387894,159.93936 C123.268014,157.82958 123.222114,157.16916 123.180534,156.357 C123.162174,155.92716 123.152994,155.71494 123.148134,155.62692 C123.074154,153.00522 123.605514,151.13088 124.067214,150.01848 C124.362054,149.3073 124.629894,148.9104 124.694694,148.82724 C124.842654,148.63824 124.985214,148.46274 124.985214,148.46274 C125.087274,148.33368 125.188794,148.20408 125.303814,148.0842 C125.355114,148.02372 125.405874,147.96378 125.447454,147.91302 C125.502534,147.85308 125.544114,147.79746 125.594874,147.74724 C125.673714,147.65004 125.756334,147.5577 125.839494,147.46536 C126.060894,147.22074 126.287154,146.98098 126.458334,146.80062 C126.481554,146.77794 126.499914,146.74986 126.531774,146.71746 L126.597114,146.65266 C126.628974,146.61594 126.661374,146.58354 126.693774,146.54682 C126.726174,146.51874 126.744534,146.50038 126.744534,146.50038 C126.891954,146.34378 127.035054,146.19636 127.192194,146.04786 C127.298034,145.93716 127.404954,145.83132 127.515654,145.72494 C127.561554,145.68336 127.603134,145.63692 127.649574,145.6002 C127.695474,145.5543 127.741914,145.50786 127.782954,145.47114 C127.870974,145.3788 127.963314,145.29564 128.050794,145.21248 C128.217114,145.0602 128.374254,144.90792 128.540034,144.75996 C128.683674,144.62604 128.826234,144.50184 128.979054,144.37278 C128.987694,144.36306 129.002274,144.34956 129.015774,144.33984 C129.163194,144.21078 129.306294,144.08604 129.454794,143.96616 C129.874374,143.6103 130.299354,143.26902 130.728654,142.94124 C131.157954,142.61832 131.592114,142.29972 132.030594,141.99948 C132.205554,141.87906 132.381054,141.75972 132.560874,141.64416 C132.629994,141.59772 132.695334,141.55182 132.773634,141.50538 C132.902694,141.4179 133.027434,141.34392 133.157034,141.25644 C133.276914,141.18678 133.396794,141.10416 133.526394,141.0345 C133.655454,140.95566 133.789374,140.87304 133.922754,140.79906 C133.987554,140.76234 134.052354,140.72076 134.116614,140.68404 C134.311014,140.5728 134.504874,140.4621 134.703054,140.35572 C135.299214,140.0328 135.903474,139.72338 136.508274,139.4604 C136.513134,139.45554 136.521774,139.45554 136.526634,139.45122 C136.660554,139.38642 136.799334,139.32648 136.937574,139.27086 C137.135754,139.1742 137.334474,139.0959 137.533194,139.01274 C137.745414,138.92526 137.958174,138.84156 138.174714,138.76326 C138.405834,138.68064 138.632094,138.59694 138.862674,138.51864 C139.019274,138.46302 139.172094,138.40794 139.329234,138.36636 L139.329234,138.36204 C139.730454,138.23244 140.146254,138.11742 140.552334,138.00672 C140.727834,137.96028 140.911974,137.90952 141.088014,137.86794 C141.240294,137.83068 141.387714,137.79882 141.539994,137.76588 C141.808374,137.70162 142.066494,137.65032 142.334334,137.60442 C142.519014,137.57256 142.708014,137.5353 142.892694,137.50776 C143.216154,137.457 143.539614,137.41542 143.866854,137.38302 C144.111474,137.35062 144.360954,137.32308 144.605574,137.30958 C144.637974,137.30472 144.665514,137.29986 144.697914,137.29986 C144.933354,137.28636 145.163934,137.27232 145.390194,137.26314 C145.639674,137.25396 145.893474,137.2491 146.142954,137.2491 L146.174814,137.2491 C146.387574,137.2491 146.604114,137.25396 146.821734,137.25828 C147.274254,137.27232 147.721914,137.29986 148.174434,137.35062 C148.326714,137.36466 148.483314,137.38302 148.626414,137.40138 C148.995774,137.44728 149.360814,137.49858 149.725854,137.57256 C149.905674,137.60442 150.085494,137.63682 150.269634,137.67354 C150.449994,137.7108 150.629814,137.75724 150.809634,137.79882 C150.828534,137.80314 150.851754,137.80746 150.870114,137.81718 C151.429014,137.95542 151.973874,138.11742 152.495514,138.29238 C152.758494,138.38472 153.021474,138.47706 153.270954,138.58344 C153.395694,138.62934 153.510714,138.68064 153.635454,138.73086 C153.856854,138.81834 154.078794,138.91554 154.295874,139.0176 C154.978974,139.33134 155.629674,139.6818 156.243654,140.04684 C156.451554,140.1624 156.658914,140.29146 156.858174,140.43024 C157.268574,140.68836 157.661154,140.96538 158.039694,141.2424 C158.048874,141.25158 158.067234,141.25644 158.076414,141.26994 C158.177934,141.34392 158.279454,141.4179 158.376654,141.4962 C158.459274,141.55614 158.533254,141.61176 158.612094,141.68088 C158.621274,141.68574 158.630454,141.69006 158.639634,141.69924 C158.815674,141.83316 158.981454,141.9714 159.147774,142.11504 C159.512274,142.41042 159.853554,142.71498 160.181874,143.02008 C160.495614,143.3106 160.795854,143.6103 161.082054,143.9019 C162.213354,164.06604 162.646434,185.68494 162.047034,208.57824" id="Fill-54" fill="#282C39"></path>
                    <path d="M124.91199,151.163172 C124.82883,152.654652 124.74513,154.136412 124.66683,155.627352 C124.57935,157.058352 124.51023,158.503392 124.42275,159.939252 C124.29747,162.219672 124.16841,164.491452 124.04367,166.771332 C123.99777,167.621292 123.95187,168.456132 123.90543,169.306092 L123.90543,169.319592 C123.71103,179.997552 123.35571,190.961712 122.80707,202.198572 C121.98951,218.882412 120.98727,231.319152 120.54933,236.762352 C119.35323,251.700912 117.62685,273.989412 115.27191,306.443412 L95.20011,306.443412 C90.38925,276.316272 86.90409,243.755892 85.56543,209.022012 C85.17771,198.989892 84.98385,189.152712 84.96117,179.518032 C84.96117,179.518032 86.81175,153.596412 86.75667,147.294612 C86.75181,146.657412 86.74695,146.015892 86.74263,145.373832 C86.74263,145.373832 87.17625,143.250552 89.43399,141.496632 C89.59977,141.367032 89.75691,141.252012 89.75691,141.252012 C89.90487,141.145092 90.04797,141.044112 90.18189,140.951772 C90.27369,140.882112 90.36657,140.822712 90.45891,140.762232 C90.56529,140.683932 90.67599,140.614812 90.78237,140.545152 C91.06317,140.365332 91.32723,140.199012 91.57617,140.051592 C91.77489,139.936032 91.96389,139.825332 92.16261,139.714632 C92.25009,139.668192 92.32353,139.622292 92.41155,139.575852 C92.64213,139.451652 92.85975,139.336092 93.03471,139.248072 C93.08115,139.229172 93.11787,139.206492 93.15459,139.188132 C93.30255,139.118472 93.41811,139.068252 93.51477,139.017492 C93.75075,138.915432 93.98133,138.809592 94.23081,138.712392 C94.32747,138.662172 94.42899,138.624912 94.53537,138.583332 C94.79403,138.486132 95.05701,138.384612 95.31999,138.292272 C95.85999,138.112452 96.41835,137.941812 97.00047,137.798712 C97.17597,137.757132 97.36065,137.710692 97.54047,137.673972 C97.72083,137.636712 97.90497,137.604852 98.08533,137.572452 C98.23329,137.539512 98.38071,137.512512 98.52381,137.494152 L98.52381,137.489292 C98.56053,137.484432 98.59833,137.480112 98.63451,137.475252 C98.81487,137.447712 98.99955,137.425032 99.18369,137.401812 C99.33165,137.382912 99.48393,137.364552 99.63621,137.350512 C100.08387,137.299752 100.53639,137.272212 100.99377,137.258172 C101.20653,137.253852 101.42307,137.248992 101.63529,137.248992 L101.66769,137.248992 C101.92149,137.248992 102.17097,137.253852 102.42045,137.263032 C102.68343,137.272212 102.94641,137.286252 103.20507,137.309472 C103.45455,137.322972 103.69917,137.350512 103.94379,137.382912 C104.19759,137.405592 104.44707,137.438532 104.69601,137.475252 L104.69601,137.480112 C104.72841,137.480112 104.75649,137.480112 104.78403,137.484432 C104.83047,137.494152 104.87151,137.498472 104.91309,137.507652 C105.11181,137.535732 105.30513,137.572452 105.49953,137.604852 C105.75765,137.650752 106.01145,137.701512 106.27497,137.765772 C106.42293,137.798712 106.57521,137.831112 106.72263,137.867832 C106.89813,137.909412 107.08281,137.960172 107.25831,138.006612 C107.66007,138.112452 108.05211,138.223152 108.44955,138.352212 C108.62019,138.402972 108.78165,138.458592 108.94797,138.518532 C109.32651,138.643272 109.69533,138.781512 110.06955,138.929472 C110.13435,138.957012 110.20833,138.980232 110.27745,139.012632 C110.47617,139.095792 110.67003,139.174092 110.87307,139.271292 C111.01131,139.326372 111.15009,139.386312 111.28401,139.451652 C111.28833,139.455432 111.29751,139.455432 111.30723,139.460292 C111.91203,139.723272 112.51143,140.033232 113.10759,140.355612 C113.30577,140.462532 113.49963,140.573232 113.69403,140.683932 C113.76315,140.720652 113.82255,140.762232 113.88735,140.799492 C114.02127,140.872932 114.15519,140.956092 114.28425,141.034392 C114.39495,141.094332 114.50619,141.163452 114.60771,141.228792 C114.75513,141.320592 114.89823,141.412932 115.03701,141.505272 C115.11099,141.551712 115.18065,141.597612 115.25355,141.644052 C115.42905,141.759612 115.60509,141.879492 115.78005,141.999372 C115.93719,142.105752 116.08947,142.212132 116.24175,142.322832 C116.52363,142.525872 116.80497,142.728912 117.08199,142.941132 C117.51129,143.268912 117.93627,143.610732 118.35585,143.966052 C118.50381,144.086472 118.65177,144.210672 118.79001,144.339732 C118.81323,144.349452 118.82241,144.362952 118.83645,144.372672 C118.97955,144.501732 119.12697,144.626472 119.27061,144.760392 C119.43639,144.907812 119.59785,145.060092 119.76417,145.212372 C119.89377,145.341972 120.03201,145.471032 120.16107,145.600092 C120.47049,145.891152 120.77073,146.191392 121.07097,146.500272 C121.21839,146.652552 121.36635,146.809692 121.50459,146.966832 C121.54671,147.004092 121.57857,147.040812 121.61097,147.078072 C121.73517,147.207132 121.85559,147.336192 121.97115,147.465252 C122.14665,147.659652 122.31297,147.852972 122.48847,148.051692 C122.69151,148.287132 122.89455,148.536612 123.10191,148.786092 C123.21315,148.924332 123.32385,149.058252 123.43455,149.201352 C123.59169,149.399532 123.74829,149.598252 123.90057,149.801832 L123.90543,149.801832 L123.90543,149.805612 L123.91461,149.815332 C123.96537,149.875272 124.00641,149.944392 124.05771,150.004332 C124.06257,150.009192 124.06743,150.013512 124.06743,150.018372 C124.19595,150.189012 124.32501,150.360192 124.45461,150.530832 C124.57017,150.683112 124.67601,150.839712 124.78725,150.992532 C124.82883,151.047612 124.87041,151.103232 124.91199,151.163172" id="Fill-56" fill="#282C39"></path>
                    <path d="M161.943138,167.781888 C149.321178,167.497848 136.696518,167.204628 124.075098,166.915188 L124.034598,166.915188 C123.942798,166.915188 123.862338,166.909248 123.775938,166.909248 L123.773238,166.909248 C123.523758,166.906008 123.276978,166.897368 123.029658,166.891968 C111.097278,166.619268 99.164358,166.346568 87.228738,166.070628 C86.849658,162.384048 86.588298,158.295708 86.554278,153.865548 L86.554278,153.816408 C86.531058,151.197948 86.585598,148.452588 86.740578,145.601928 L86.740578,145.572768 C86.740578,145.558728 86.743278,145.541448 86.743278,145.526868 C86.752458,145.449648 86.755158,145.371888 86.763258,145.291968 L86.763258,145.286028 L86.763258,145.283328 C86.801058,144.645588 86.841018,144.005688 86.884218,143.359308 C87.025158,141.455808 87.196878,139.606848 87.404238,137.821068 C88.543638,134.722548 89.749998,131.854608 90.958518,129.224808 C91.529298,127.978488 92.103858,126.786708 92.669778,125.647308 C92.727018,125.532288 92.781558,125.419968 92.838798,125.308188 C92.838798,125.305488 92.842038,125.305488 92.842038,125.302248 C92.862018,125.264988 92.879298,125.224488 92.901978,125.187228 C99.580698,125.201808 106.259418,125.213148 112.937598,125.227728 C119.813958,125.242308 126.690858,125.253648 133.569918,125.268228 C138.505518,125.279568 143.441118,125.288208 148.374018,125.296308 C150.337998,125.299548 152.301978,125.305488 154.265418,125.308188 C156.542598,129.844728 158.928318,135.274428 160.992738,141.518988 C161.024598,142.271208 161.053218,143.023428 161.084538,143.778888 C161.087778,143.867448 161.087778,143.956548 161.093178,144.042408 L161.093178,144.131508 C161.096418,144.163368 161.096418,144.197388 161.096418,144.229248 C161.107758,144.398808 161.110458,144.565128 161.119098,144.731448 C161.391798,152.418348 161.667198,160.100928 161.943138,167.781888" id="Fill-58" fill="#282C39"></path>
                    <path d="M133.813566,314.00271 C134.476686,314.45955 140.641326,318.56571 146.739546,315.99369 C148.522626,315.24147 149.819706,314.12151 150.711786,313.13709 C151.184826,314.27055 151.849026,316.30635 151.634646,318.83031 C151.531506,320.05071 150.867306,325.55655 146.056986,327.90987 C143.503326,329.15889 140.019786,329.40459 137.246886,327.75597 C133.253046,325.38105 131.485086,319.52259 133.813566,314.00271" id="Fill-60" fill="#232631"></path>
                    <path d="M133.813566,313.84557 C134.476686,314.21871 140.641326,317.58021 146.739546,315.47529 C148.522626,314.85969 149.819706,313.94277 150.711786,313.13709 C150.948846,313.59663 151.237206,314.24409 151.437546,315.03519 C151.437546,315.03519 151.761546,316.35657 151.634646,317.79675 C151.473186,319.63275 150.095646,323.50131 146.248686,325.37079 C142.824546,327.03561 139.334526,326.19537 137.246886,325.10241 C136.554066,324.73899 135.400086,324.09315 134.420526,322.82199 C132.608826,320.47083 132.176286,317.10501 133.813566,313.84557" id="Fill-62" fill="#282C39"></path>
                    <path d="M96.881562,314.00271 C97.544682,314.45955 103.709322,318.56571 109.807542,315.99369 C111.590622,315.24147 112.887702,314.12151 113.779782,313.13709 C114.252822,314.27055 114.917562,316.30635 114.703182,318.83031 C114.599502,320.05071 113.935302,325.55655 109.124982,327.90987 C106.571862,329.15889 103.087782,329.40459 100.314882,327.75597 C96.321582,325.38105 94.553082,319.52259 96.881562,314.00271" id="Fill-64" fill="#232631"></path>
                    <path d="M96.881562,313.84557 C97.544682,314.21871 103.709322,317.58021 109.807542,315.47529 C111.590622,314.85969 112.887702,313.94277 113.779782,313.13709 C114.016842,313.59663 114.305742,314.24409 114.505542,315.03519 C114.505542,315.03519 114.829542,316.35657 114.703182,317.79675 C114.541182,319.63275 113.163642,323.50131 109.317222,325.37079 C105.892542,327.03561 102.402522,326.19537 100.314882,325.10241 C99.622062,324.73899 98.468082,324.09315 97.488522,322.82199 C95.676822,320.47083 95.244282,317.10501 96.881562,313.84557" id="Fill-66" fill="#282C39"></path>
                    <path d="M121.745862,12.1311 C121.487202,12.11598 121.229622,12.09978 120.971502,12.08412 C118.891962,12.65058 114.395382,14.19714 110.976642,18.4194 C110.112102,19.48698 107.958042,22.40352 106.941222,28.4607 C105.117102,39.32658 108.830142,49.12056 111.117042,54.0351 C109.513782,49.48668 105.943842,37.94526 108.376002,26.99676 C109.450602,22.15782 111.206142,19.6479 112.149522,18.46584 C115.389522,14.40828 119.619342,12.77856 121.745862,12.1311" id="Fill-68" fill="#2A2423"></path>
                    <path d="M121.745862,12.1311 C121.487202,12.11598 121.229622,12.09978 120.971502,12.08412 C118.891962,12.65058 114.395382,14.19714 110.976642,18.4194 C110.112102,19.48698 107.958042,22.40352 106.941222,28.4607 C105.117102,39.32658 108.830142,49.12056 111.117042,54.0351 C109.513782,49.48668 105.943842,37.94526 108.376002,26.99676 C109.450602,22.15782 111.206142,19.6479 112.149522,18.46584 C115.389522,14.40828 119.619342,12.77856 121.745862,12.1311" id="Fill-70" fill="#5F413E"></path>
                    <path d="M123.082146,11.99664 C123.340806,11.98098 123.598386,11.96532 123.856506,11.94966 C125.936046,12.51558 130.432626,14.06214 133.851366,18.28494 C134.715906,19.35252 136.869966,22.26852 137.886786,28.32624 C139.710906,39.19212 135.998406,48.9861 133.710966,53.90064 C135.314766,49.35222 138.884166,37.81026 136.452006,26.8623 C135.377406,22.02336 133.621866,19.5129 132.678486,18.33138 C129.438486,14.27328 125.208666,12.6441 123.082146,11.99664" id="Fill-72" fill="#5F413E"></path>
                    <path d="M106.817778,26.824986 C106.910658,25.525206 107.397738,20.933586 111.145878,17.014806 C115.350318,12.619206 120.639618,12.226626 121.802238,12.167226 C122.151078,9.164826 122.498838,6.161346 122.847678,3.158946 C122.922198,6.110586 122.997258,9.061686 123.072318,12.013866 C124.696638,12.117006 128.431818,12.579786 132.074118,15.245766 C137.093958,18.919386 138.393738,24.186006 138.690738,25.574886 C139.126518,25.850286 139.563378,26.126226 139.998618,26.402166 C140.643918,24.934986 143.864478,17.218926 140.229738,9.628686 C139.488858,8.081586 137.786778,4.657446 133.809678,2.484486 C129.016638,-0.135054 124.277598,0.893106 123.058818,1.196046 C116.792118,-0.347274 110.265138,1.558386 106.298298,6.166206 C102.486978,10.594206 100.756818,17.578026 103.528638,22.900806 C104.487678,24.742746 105.786378,26.007426 106.817778,26.824986" id="Fill-74" fill="#2A2423"></path>
                    <path d="M139.870098,36.631494 C141.056478,37.598634 142.868718,39.343374 144.199278,42.045534 C146.421918,46.559394 145.859778,50.813514 145.571958,52.380594 C147.305358,52.970814 149.515578,54.043794 151.425018,56.052594 C157.716018,62.669214 154.629918,73.010754 154.428498,73.649574 C154.613178,72.578214 156.423798,61.071894 149.219658,55.301454 C148.206618,54.490374 146.790738,53.612334 144.855918,53.002134 C145.137798,50.740614 145.516878,45.012294 141.946938,40.075074 C141.200658,39.043134 140.388498,38.193174 139.588758,37.493874 L139.870098,36.631494 Z" id="Fill-76" fill="#5F413E"></path>
                    <path d="M152.850132,72.739782 C153.484092,73.279242 154.351332,74.145402 155.062512,75.403062 C155.954592,76.981482 156.268872,78.592842 156.352572,80.946162 C156.431952,83.186622 156.322332,86.653422 155.253672,90.984222 C155.327112,90.563022 156.588012,83.111022 155.718612,78.881202 C155.581992,78.214302 155.333052,77.001462 154.546272,75.608262 C153.877752,74.426202 153.099612,73.603782 152.556912,73.102662 C152.654652,72.981162 152.752392,72.860742 152.850132,72.739782" id="Fill-78" fill="#2A2423"></path>
                    <path d="M153.537282,123.905322 C153.737622,123.816222 155.947302,128.221002 157.587822,131.978322 C159.249942,135.784782 160.419582,139.137642 161.232822,141.736662 L161.232822,141.737202 C161.477442,142.446222 161.806302,143.425242 162.171342,144.599202 C162.171342,144.599202 165.130542,154.126962 166.159782,164.401002 C166.302882,165.826602 166.426002,167.403942 166.426002,167.403942 C166.583682,169.436502 166.665222,171.053262 166.723002,172.238022 C167.173902,181.450422 166.617702,191.605662 166.617702,191.605662 C166.514562,193.581522 166.195962,199.215342 165.315222,206.704062 C164.527362,213.401142 163.238922,222.017382 161.021142,232.025742 C160.997922,231.655842 160.974162,231.286482 160.950942,230.917122 C163.003482,220.527522 164.161242,211.493862 164.845962,204.287022 C165.448062,197.948502 165.637602,193.515102 165.924882,186.784002 C166.251582,179.145162 166.222962,175.346802 165.878442,171.111582 C165.627342,168.024402 165.270402,165.471282 164.986362,163.697382 C164.419362,158.944842 163.314522,152.071722 160.950942,144.035982 C157.627782,132.737022 153.255402,124.030602 153.537282,123.905322" id="Fill-80" fill="#FCF9F8"></path>
                    <path d="M136.221966,234.412812 C139.322106,235.192032 144.985626,236.156472 151.707006,234.600732 C155.659266,233.685432 158.776686,232.177212 160.962606,230.881752 C161.070606,230.849352 161.178066,230.817492 161.285526,230.784552 C161.216946,231.202512 161.148366,231.619392 161.080326,232.037352 C157.973706,233.668692 151.979166,236.232612 144.292806,235.867032 C141.113826,235.716372 138.384126,235.099152 136.221966,234.412812" id="Fill-82" fill="#FCF9F8"></path>
                    <path d="M104.407322,125.735706 C104.415426,125.598546 118.080666,127.535526 137.230686,125.688726 C144.009306,125.034786 149.619906,124.086006 153.560286,123.318666 C153.584046,123.607566 153.607266,123.895926 153.631026,124.184286 C149.782446,124.924626 144.402426,125.811306 137.934846,126.392346 C118.802646,128.111166 104.398146,125.876106 104.407322,125.735706" id="Fill-84" fill="#FCF9F8"></path>
                    <g id="Group-88" transform="translate(123.120000, 0.059940)">
                        <mask id="mask-4" fill="white">
                            <use xlink:href="#path-3"></use>
                        </mask>
                        <g id="Clip-87"></g>
                        <path d="M0.057078,0.950022 C0.055998,0.989442 7.717518,-1.187298 13.406958,3.507462 C17.392158,6.795522 18.268038,11.687382 18.580698,13.432122 C19.182798,16.795242 18.641178,20.073042 18.597978,20.322522 C18.485658,20.971602 18.359838,21.506742 18.263718,21.878802 C18.701658,19.124802 19.335078,12.545982 15.553458,6.991542 C15.066378,6.275502 14.219658,5.051862 12.726558,3.859542 C7.321158,-0.458298 0.058158,0.912222 0.057078,0.950022" id="Fill-86" fill="#FCF9F8" mask="url(#mask-4)"></path>
                    </g>
                    <path d="M144.638892,26.06985 C144.229032,28.70127 142.594452,30.63177 140.987952,30.38121 C139.381992,30.13119 138.411612,27.79515 138.821472,25.16373 C139.230792,22.53231 140.865912,20.60235 142.471872,20.85237 C144.078372,21.10239 145.048752,23.43843 144.638892,26.06985" id="Fill-89" fill="#E49D92"></path>
                    <path d="M141.571314,20.718342 C142.054074,20.634102 142.792794,20.586042 143.472114,20.953242 C145.310274,21.946302 145.369134,25.258662 144.762174,27.358182 C144.311814,28.914462 143.432154,30.022542 142.744734,30.713202 C143.414874,30.134322 144.991134,28.600182 145.372374,26.185302 C145.618074,24.624162 145.539774,21.588822 143.676774,20.665422 C142.932654,20.297142 142.137234,20.380842 141.606414,20.501802 C141.595074,20.573622 141.582654,20.645982 141.571314,20.718342" id="Fill-91" fill="#FCF9F8"></path>
                    <path d="M139.18986,38.76093 C139.9977,40.03911 140.99238,41.94477 141.59502,44.41527 C142.48656,48.07323 142.07994,51.16797 141.7122,52.90839 C143.3754,53.55639 146.94318,55.22067 149.6421,59.00877 C154.27044,65.50389 152.51706,72.87435 152.2233,74.02509 C153.04572,75.62727 153.81792,77.56857 154.2996,79.83171 C156.16098,88.57701 152.3664,95.93343 150.81552,98.58969 C152.20062,96.21315 156.04974,88.87833 154.01826,80.21835 C153.43884,77.74785 152.50194,75.68883 151.55424,74.05965 C151.80642,72.90459 153.5058,64.46331 147.95352,58.02327 C145.59048,55.28331 142.80516,53.93871 141.05502,53.28423 C141.51402,51.61293 142.18686,48.22335 141.102,44.25111 C140.52744,42.14619 139.63212,40.51107 138.87612,39.37707 C138.98034,39.17187 139.08564,38.96613 139.18986,38.76093" id="Fill-93" fill="#FCF9F8"></path>
                    <path d="M141.102,21.375414 C141.24834,20.630754 142.49358,13.639914 137.44242,8.142714 C133.03602,3.348054 127.14084,3.280554 126.18018,3.285954 C127.54422,3.380994 132.48738,3.890754 136.52658,7.931574 C141.8904,13.295934 141.20838,20.430414 141.102,21.375414" id="Fill-95" fill="#5F413E"></path>
                    <path d="M121.487418,12.178026 C119.772378,12.880566 117.796518,14.005386 116.044218,15.838146 C109.526958,22.657266 112.006098,33.111666 112.290678,34.232706 C111.958578,32.179086 110.845098,23.800446 116.232138,16.870626 C117.939618,14.674446 119.866338,13.180806 121.487418,12.178026" id="Fill-97" fill="#FCF9F8"></path>
                    <path d="M139.248396,60.838668 C139.948236,65.452428 141.091956,69.025068 142.040736,71.491248 C143.639136,75.646008 144.707256,78.072768 147.483936,84.254148 C148.098996,85.623588 148.672476,87.223068 149.079096,89.040708 C150.525756,95.500728 149.045076,101.047068 147.953196,104.056488 C149.871816,94.970988 148.569876,88.742628 147.014676,84.723408 C145.021536,79.572888 141.592536,75.411648 139.976316,66.986028 C139.478976,64.394568 139.312656,62.230248 139.248396,60.838668" id="Fill-99" fill="#5F413E"></path>
                    <path d="M140.891076,21.19932 C140.762556,19.67112 140.105916,14.06754 135.494856,10.16064 C133.847316,8.76474 132.151716,7.97202 130.825476,7.5087 C132.295356,8.2053 134.670276,9.5688 136.808136,12.08412 C139.851036,15.66432 140.644836,19.49562 140.891076,21.19932" id="Fill-101" fill="#5F413E"></path>
                    <path d="M106.565706,26.630964 C104.393286,22.629564 104.567166,17.801964 107.034966,14.149404 C110.235546,9.411444 115.689546,9.022104 116.325666,8.987004 C115.806726,9.058824 109.554066,10.031364 106.682886,15.885504 C104.141646,21.066804 106.263846,25.966764 106.565706,26.630964" id="Fill-103" fill="#5F413E"></path>
                    <path d="M120.001392,5.367924 C119.052612,5.276124 112.767552,4.771764 108.011232,9.415764 C103.879692,13.449564 102.534552,19.770804 104.573592,25.556364 C102.113892,20.256804 102.975732,14.052744 106.737912,9.836424 C111.886272,4.068684 119.549952,5.288004 120.001392,5.367924" id="Fill-105" fill="#5F413E"></path>
                    <path d="M100.801314,26.849772 C101.916954,29.268432 104.018094,30.676752 105.493914,29.995272 C106.970814,29.314332 107.262954,26.802252 106.147314,24.384132 C105.032214,21.965472 102.931074,20.557692 101.454714,21.238092 C99.978894,21.919032 99.686214,24.431112 100.801314,26.849772" id="Fill-107" fill="#E49D92"></path>
                    <path d="M152.950356,95.51628 C153.974736,97.78428 154.999656,100.05174 156.024036,102.32028 C170.174196,93.5793 177.284376,89.262 177.351336,89.36892 C177.419376,89.47746 170.280576,94.11444 155.930616,103.28202 C154.937016,100.6938 153.943956,98.10504 152.950356,95.51628" id="Fill-109" fill="#282C39" opacity="0.189748365"></path>
                    <path d="M86.200254,230.776236 C86.199174,231.213096 86.198634,231.903216 86.204034,232.746696 C86.204034,232.746696 86.227794,236.563956 86.392494,240.449256 C86.727834,248.355936 87.889914,258.813576 87.889914,258.813576 C88.907814,267.975216 89.874954,276.599556 91.690434,289.080036 C92.423754,294.122556 93.399534,300.502116 94.646934,307.896336 C94.163094,303.961356 93.344994,297.350136 92.300634,289.127016 C89.849574,269.835516 88.938054,263.623356 88.077834,253.839636 C87.651774,248.995296 87.081534,241.497936 86.763474,232.160256 L86.200254,230.776236 Z" id="Fill-111" fill="#282C39"></path>
                    <path d="M114.109884,164.682666 L123.542064,176.883426 C123.613884,184.932126 123.503184,193.292406 123.166224,201.941046 C122.627844,215.792046 121.568364,228.901086 120.162204,241.193646 C120.507804,236.052846 120.866364,230.115546 121.190364,223.513506 C121.591044,215.363286 122.023584,206.461386 122.133744,194.996106 C122.204484,187.652106 122.128344,181.516626 122.040324,177.164766 C119.397024,173.004066 116.753724,168.843366 114.109884,164.682666" id="Fill-113" fill="#FCF9F8"></path>
                    <path d="M122.895468,176.320098 C126.586908,173.442438 130.278348,170.564238 133.969788,167.686038 C130.497048,171.127458 127.024308,174.568338 123.552648,178.009758 C123.333408,177.446538 123.114168,176.883318 122.895468,176.320098" id="Fill-115" fill="#FCF9F8"></path>
                    <path d="M108.372384,57.835998 C112.208004,64.230678 119.204244,67.802238 126.109764,66.915558 C133.940304,65.910618 138.102084,59.629878 138.709044,58.680018 C135.521424,64.759878 129.063564,68.369778 122.378904,67.830858 C116.301744,67.340538 110.927124,63.492498 108.372384,57.835998" id="Fill-117" fill="#282C39"></path>
                    <path d="M114.153138,193.235166 L110.359638,193.327506 C110.521638,183.684186 109.807218,171.587106 106.812378,158.013666 C105.121638,150.354306 102.978918,143.483346 100.721718,137.459106 C100.125558,135.875286 99.525618,134.352486 98.920818,132.886386 C98.857638,132.734646 98.797158,132.583446 98.733438,132.434406 L100.639098,133.204986 L100.817838,133.276806 L101.040858,133.368606 L101.334618,133.486326 L101.523618,133.564086 L101.526858,133.564086 L101.725038,133.642926 L103.255938,134.260686 C103.416318,134.607366 103.577238,134.956206 103.737078,135.310986 C103.784058,135.413046 103.831038,135.514026 103.875318,135.615546 C104.005458,135.904986 104.135598,136.194426 104.265738,136.489266 C104.348358,136.691226 104.427738,136.896426 104.510358,137.101086 C104.538438,137.175606 104.567598,137.252286 104.596218,137.326806 C104.699898,137.590866 104.805738,137.858166 104.909418,138.128166 C104.940198,138.211326 104.974218,138.294486 105.005538,138.377646 C105.096798,138.615246 105.187518,138.852306 105.278778,139.092066 C105.434298,139.504626 105.587118,139.919886 105.742098,140.340006 C105.771258,140.414526 105.799338,140.491206 105.825258,140.565726 L105.825258,140.568426 C106.184358,141.555006 106.541838,142.566966 106.891758,143.601606 C106.917678,143.675586 106.943058,143.752266 106.966278,143.828946 C107.304318,144.825786 107.633178,145.840986 107.956098,146.879406 C107.982018,146.956626 108.005238,147.032766 108.027918,147.109446 C109.079838,150.516306 110.058318,154.135926 110.910978,157.967766 C111.081078,158.723766 111.241458,159.475986 111.395358,160.222266 C111.412098,160.301106 111.428838,160.379946 111.442878,160.459326 C111.658338,161.520966 111.859758,162.572886 112.048218,163.612926 C112.062258,163.691226 112.075758,163.772766 112.090338,163.852146 C112.283658,164.935386 112.460238,166.008366 112.624398,167.066226 C112.635198,167.147226 112.649778,167.226606 112.660578,167.304906 C112.792338,168.176466 112.916538,169.037766 113.026698,169.892586 C113.038038,169.974666 113.048838,170.052966 113.060718,170.131806 C113.199498,171.208026 113.325858,172.268586 113.438718,173.316726 C113.446818,173.395026 113.454918,173.476566 113.463558,173.554866 C113.579658,174.634866 113.679018,175.699206 113.765958,176.745726 C113.771898,176.823486 113.779998,176.905026 113.784858,176.982786 L113.784858,176.986026 C113.871798,178.069806 113.945778,179.135226 114.006798,180.182286 C114.012198,180.263286 114.017598,180.344286 114.020298,180.422046 C114.150978,182.735946 114.220098,184.955346 114.235758,187.073226 L114.235758,187.079166 C114.237378,187.133706 114.238998,187.188786 114.237378,187.243326 C114.245478,188.341146 114.241158,189.411966 114.224958,190.456326 C114.224418,190.536786 114.223878,190.617246 114.220638,190.697706 L114.220638,190.700406 C114.206058,191.566026 114.184458,192.411126 114.153138,193.235166" id="Fill-119" fill="#ECBF60"></path>
                    <path d="M104.599242,137.326752 L104.596002,137.326752 L103.524102,137.607552 L103.463622,137.372652 L104.510142,137.101032 C104.538762,137.175552 104.567382,137.249532 104.599242,137.326752" id="Fill-121" fill="#9B5A27"></path>
                    <path d="M105.826392,140.566212 L104.393772,140.939352 L104.332752,140.707692 L105.742692,140.339412 C105.770232,140.415012 105.798312,140.490612 105.826392,140.566212" id="Fill-123" fill="#9B5A27"></path>
                    <path d="M106.968114,143.827812 L105.263874,144.273312 L105.203394,144.040032 L106.891434,143.600472 C106.918434,143.676072 106.943814,143.752212 106.968114,143.827812" id="Fill-125" fill="#9B5A27"></path>
                    <path d="M108.029106,147.109986 L106.132626,147.604626 L106.072686,147.371886 L107.957286,146.879946 C107.981586,146.957166 108.004806,147.033306 108.029106,147.109986" id="Fill-127" fill="#9B5A27"></path>
                    <polygon id="Fill-129" fill="#9B5A27" points="108.865998 150.20343 108.926478 150.43617 107.003538 150.93783 106.942518 150.70563"></polygon>
                    <polygon id="Fill-131" fill="#9B5A27" points="109.735614 153.536742 109.796094 153.769482 107.873694 154.271142 107.812674 154.038942"></polygon>
                    <polygon id="Fill-133" fill="#9B5A27" points="110.605716 156.869028 110.666196 157.101768 108.743256 157.603428 108.682236 157.371228"></polygon>
                    <path d="M111.443634,160.458678 L109.613574,160.937118 L109.552014,160.704378 L111.395574,160.222698 C111.412314,160.302078 111.427974,160.380378 111.443634,160.458678" id="Fill-135" fill="#9B5A27"></path>
                    <path d="M112.090176,163.851066 L110.482596,164.270106 L110.422116,164.036826 L112.048056,163.612926 C112.062096,163.692306 112.077216,163.772226 112.090176,163.851066" id="Fill-137" fill="#9B5A27"></path>
                    <path d="M112.66074,167.304096 L111.07638,167.487696 L111.04884,167.249016 L112.62456,167.067576 C112.63644,167.146956 112.64886,167.225796 112.66074,167.304096" id="Fill-139" fill="#9B5A27"></path>
                    <path d="M113.061042,170.131752 L111.379482,170.264592 L111.360582,170.024292 L113.028642,169.893072 C113.039442,169.973532 113.050242,170.052912 113.061042,170.131752" id="Fill-141" fill="#9B5A27"></path>
                    <path d="M113.465502,173.555244 L111.650562,173.699424 L111.631662,173.459124 L113.440122,173.316024 C113.448762,173.395944 113.456862,173.476404 113.465502,173.555244" id="Fill-143" fill="#9B5A27"></path>
                    <path d="M113.785614,176.984028 L111.920994,177.131448 L111.902094,176.892768 L113.765634,176.745348 C113.773194,176.825268 113.779674,176.905188 113.785614,176.984028" id="Fill-145" fill="#9B5A27"></path>
                    <path d="M114.021324,180.421776 L112.191804,180.566496 L112.172904,180.326196 L114.008904,180.181476 C114.012684,180.262476 114.017544,180.342396 114.021324,180.421776" id="Fill-147" fill="#9B5A27"></path>
                    <polygon id="Fill-149" fill="#9B5A27" points="113.959602 183.567924 113.978502 183.807144 111.997242 183.963744 111.978342 183.723984"></polygon>
                    <polygon id="Fill-151" fill="#9B5A27" points="114.230682 187.00092 114.249582 187.24014 112.268322 187.39674 112.249422 187.15698"></polygon>
                    <path d="M114.221178,190.698678 L112.539618,190.831518 L112.520718,190.591218 L114.225498,190.456758 C114.223878,190.537218 114.222258,190.618218 114.221178,190.698678" id="Fill-153" fill="#9B5A27"></path>
                    <path d="M105.825312,134.782812 L102.529152,134.536032 L102.342852,134.803332 L102.147372,134.662392 L102.251052,134.513352 L98.130852,134.203392 L94.538772,131.708052 L94.536072,131.708052 L94.306032,131.547132 L91.788552,129.799152 L90.958572,129.224592 C91.529352,127.978272 92.103912,126.786492 92.669832,125.647092 L93.956112,126.536472 L94.079232,126.623412 L94.404312,126.850212 L94.740192,127.082412 L94.937832,127.220112 L97.588152,129.063672 L97.789032,129.198672 L99.377172,130.304052 L99.486252,130.381812 L100.436652,131.041692 L100.438812,131.041692 L100.637532,131.179392 L101.257452,131.610312 L101.260152,131.610312 L101.490192,131.771232 L102.847752,132.715692 L103.287312,133.019712 L103.485492,133.154712 L104.300892,133.723332 L105.825312,134.782812 Z" id="Fill-155" fill="#ECBF60"></path>
                    <polygon id="Fill-157" fill="#9B5A27" points="94.73949 127.08306 94.93821 127.2213 93.79665 128.8656 93.59793 128.72736"></polygon>
                    <polygon id="Fill-159" fill="#9B5A27" points="97.589286 129.062214 97.788006 129.200454 96.646446 130.844754 96.447726 130.706514"></polygon>
                    <polygon id="Fill-161" fill="#9B5A27" points="100.438002 131.040774 100.636722 131.179014 99.495162 132.822774 99.296442 132.685074"></polygon>
                    <path d="M153.5436,123.455988 C153.4599,123.803748 153.65592,124.262748 153.27144,124.586208 C153.2547,124.599708 153.738,124.531128 153.04464,124.614288 C152.35074,124.696908 149.32674,124.913988 148.19112,124.882668 C147.05496,124.851348 145.86966,124.856748 144.82746,124.791948 C143.78634,124.726608 142.17282,124.653708 141.4071,124.609428 C140.64138,124.564608 141.47244,124.618068 140.73264,124.573248 C139.99284,124.527888 136.97694,124.417188 136.44612,124.395048 C135.91476,124.372908 136.25064,124.393428 136.2501,124.393428 C134.18298,124.185528 129.17016,124.688268 127.97946,124.803288 C126.78876,124.918848 127.6965,124.830828 127.69164,124.831368 C127.17648,124.881588 127.79046,124.820028 127.25208,124.873488 C126.7137,124.926948 125.49222,125.090028 124.73838,125.296308 C123.98562,125.502588 122.71986,125.817948 122.07348,126.045828 C121.42602,126.273708 122.54652,125.820108 121.7565,126.151668 C120.96594,126.482688 123.5088,125.369208 121.31532,126.323388 C119.12292,127.276488 123.41376,124.925868 116.95968,128.054088 C110.5056,131.182308 105.49386,135.684288 92.50038,143.249688 C79.50744,150.816168 61.87536,181.607508 54.29754,197.518608 C52.1721,197.438688 51.82812,196.390008 50.39928,195.925068 C50.6925,195.477948 51.10722,194.768928 51.32754,194.412528 C51.54786,194.057208 51.26706,194.504868 51.52788,194.083128 C51.78924,193.660848 52.88922,191.785428 53.08686,191.442528 C53.28396,191.100168 53.12898,191.363688 53.13114,191.360448 C53.30718,191.058048 53.08146,191.448468 53.3277,191.025648 C53.57394,190.602288 54.65718,188.739288 54.8829,188.350488 C55.10916,187.962228 54.99036,188.167968 55.04976,188.066448 C55.1097,187.966548 55.0638,188.036208 55.06434,188.035668 C55.53954,187.248888 56.3436,185.803848 56.65572,185.189868 C56.96892,184.575888 56.56986,185.354568 56.8728,184.761108 C57.17574,184.168728 58.11318,182.282508 58.3956,181.686888 C58.67748,181.091808 58.32702,181.839708 58.60998,181.243548 C58.89294,180.646848 59.89842,178.707168 60.19542,178.126128 C60.49188,177.545088 60.13818,178.246008 60.41736,177.686568 C60.69654,177.127128 61.82514,175.069728 62.0865,174.609108 C62.34678,174.147948 62.19936,174.402828 62.26686,174.282408 C62.3349,174.161448 62.289,174.246228 62.289,174.245688 C62.75934,173.372508 63.72054,171.789228 64.0953,171.168228 C64.47006,170.547228 64.0278,171.288648 64.35342,170.741088 C64.67958,170.194608 65.91564,168.310008 66.20616,167.872608 C66.49614,167.435748 66.33036,167.680908 66.40704,167.566968 C66.48318,167.453028 66.4308,167.534028 66.43134,167.532948 C66.95082,166.723488 67.98924,165.306528 68.4126,164.736828 C68.83542,164.166588 68.31216,164.877228 68.69718,164.351808 C69.08166,163.826928 70.29504,162.183708 70.67466,161.689068 C71.05428,161.193348 70.58988,161.780868 70.95384,161.323488 C71.31726,160.866108 72.61164,159.242328 72.91836,158.837868 C73.22562,158.433948 72.84168,158.935068 73.00746,158.719068 C73.17432,158.502528 72.88758,158.870808 73.2186,158.445828 C73.55016,158.020848 74.78676,156.291228 75.13182,155.796048 C75.47688,155.301408 75.0411,155.926188 75.40722,155.407788 C75.7728,154.888848 77.02614,153.166788 77.4063,152.649468 C77.78646,152.131608 77.30964,152.783928 77.68602,152.266068 C78.06348,151.748208 79.31898,150.089868 79.72344,149.593608 C80.12736,149.096808 79.61868,149.718348 80.02692,149.226408 C80.4357,148.734468 81.83376,147.138228 82.27494,146.690028 C82.71666,146.240748 82.19178,146.787228 82.60056,146.353608 C83.00934,145.919988 84.60072,144.365328 84.98682,144.041328 C85.37238,143.717328 85.15044,143.900928 85.25088,143.817228 C85.35132,143.733528 85.2822,143.793468 85.28274,143.792928 C85.99716,143.172468 87.35958,142.093008 87.9201,141.676128 C88.48008,141.259788 87.78618,141.779808 88.29324,141.398568 C88.80138,141.016788 90.45486,139.937868 90.9711,139.612788 C91.48788,139.287168 90.85554,139.680288 91.35234,139.381128 C91.8486,139.081968 93.4308,138.156948 93.92328,137.870748 C94.4163,137.585088 93.80394,137.935008 94.29102,137.656368 C94.77864,137.377188 96.29226,136.373868 96.75612,136.063908 C97.21998,135.753948 96.63894,136.141128 97.10226,135.836028 C97.56504,135.530928 99.07596,134.542188 99.53658,134.238708 C99.9972,133.935228 99.42534,134.311068 99.88056,134.012988 C100.33578,133.714908 101.83104,132.714828 102.27384,132.420528 C102.7161,132.125148 102.195,132.472908 102.6081,132.196968 C103.02066,131.921568 104.66766,130.821588 104.98356,130.613148 C105.29892,130.404708 105.05484,130.566708 105.05862,130.564548 C105.34968,130.369068 104.96034,130.634748 105.36912,130.360428 C105.77736,130.086108 107.32068,129.029328 107.76996,128.757708 C108.21924,128.486088 107.67438,128.815488 108.11772,128.544408 C108.56106,128.273328 110.15352,127.298088 110.55852,127.052388 C110.96298,126.806148 110.6163,127.015668 110.83986,126.880128 C111.06396,126.744588 111.05046,126.751608 111.34638,126.585828 C111.64284,126.420048 112.3902,126.006948 112.70664,125.838468 C113.02308,125.671068 113.23962,125.550648 113.46642,125.431848 C113.69268,125.312508 113.43942,125.437248 113.73534,125.291988 C114.03072,125.147808 115.20576,124.586208 115.47576,124.458768 C115.74576,124.331868 115.6653,124.372908 115.74684,124.336188 C115.82676,124.299468 115.7652,124.328088 115.76574,124.328088 C115.9731,124.235208 116.24148,124.118568 116.40888,124.042968 C116.57682,123.966828 116.4537,124.024068 116.65296,123.933348 C116.85114,123.843168 117.59796,123.546708 117.77292,123.478128 C117.94788,123.409548 117.88254,123.432768 117.93276,123.413328 C117.98244,123.393888 117.94788,123.407928 117.94842,123.407928 C118.36692,123.234048 119.01546,123.018588 119.36214,122.891688 C119.7099,122.764788 119.25036,122.945148 119.6883,122.776128 C120.12624,122.607108 121.96656,122.049828 122.38236,121.959648 C122.79816,121.868928 122.30244,121.978008 122.50008,121.932108 C122.69718,121.886208 122.445,121.946148 122.78088,121.862448 C123.11676,121.778748 124.61742,121.438548 124.91928,121.379688 C125.22114,121.321908 124.96842,121.368888 125.04294,121.354308 C125.11746,121.340268 125.0559,121.352688 125.05698,121.352148 C125.29998,121.301388 125.4366,121.277088 125.67366,121.225788 C125.91072,121.173948 125.54892,121.258188 126.00036,121.156128 C126.45126,121.054608 128.33262,120.876948 128.83752,120.822948 C129.34296,120.768408 128.72736,120.845628 129.2274,120.777588 C129.72744,120.709008 131.64174,120.538368 132.07536,120.530808 C132.50844,120.523788 132.27678,120.521628 132.38856,120.520008 C132.50034,120.517848 132.4269,120.520008 132.42744,120.520008 C133.21962,120.477348 134.92278,120.509208 135.45684,120.516768 C135.99144,120.523788 135.56754,120.518388 135.80676,120.520548 C136.04706,120.523248 136.38078,120.531348 136.4985,120.534048 C136.61514,120.537288 136.53522,120.535668 136.5363,120.535668 C137.22102,120.550788 138.39066,120.585348 138.9123,120.609648 C139.43394,120.635028 138.78162,120.602628 139.32324,120.631248 C139.86432,120.659328 141.78888,120.765168 142.29324,120.790548 C142.7976,120.816468 142.32078,120.793248 142.641,120.807828 C142.96068,120.822408 143.02332,120.821328 143.48556,120.823488 C143.9478,120.825108 145.2303,120.826188 145.68498,120.824568 C146.13966,120.822948 145.5516,120.826188 146.07648,120.825108 C146.60082,120.824028 148.5189,120.816468 149.03406,120.815928 C149.54976,120.815388 149.01462,120.812148 149.40288,120.814308 C149.7906,120.815928 150.06762,120.805128 150.6519,120.812148 C151.23564,120.818628 152.80002,120.710088 153.35568,120.640428 C153.91242,120.570228 153.82332,120.595608 154.24938,120.541608 C153.99288,121.528188 153.78498,122.455368 153.5436,123.455988" id="Fill-163" fill="#F3DB70"></path>
                    <path d="M91.27647,139.42557 C91.20357,139.46931 91.13013,139.51197 91.05723,139.55571 C91.44387,140.10921 91.83375,140.65893 92.22201,141.21135 C92.29275,141.17085 92.36187,141.12927 92.43207,141.08877 C92.04381,140.53635 91.66311,139.97853 91.27647,139.42557" id="Fill-165" fill="#9B5A27"></path>
                    <path d="M88.219962,141.454782 C88.151922,141.505542 88.083342,141.555762 88.014762,141.606522 C88.427862,142.138962 88.835562,142.674102 89.240562,143.211942 C89.308602,143.161722 89.376102,143.111502 89.444142,143.062362 C89.040222,142.523442 88.633062,141.986682 88.219962,141.454782" id="Fill-167" fill="#9B5A27"></path>
                    <path d="M85.281606,143.79093 C85.216806,143.84709 85.150386,143.90001 85.086126,143.95563 C85.520286,144.45945 85.953906,144.96489 86.392386,145.46655 C86.457726,145.41147 86.523066,145.35639 86.588406,145.30239 C86.150466,144.80073 85.717386,144.29529 85.281606,143.79093" id="Fill-169" fill="#9B5A27"></path>
                    <path d="M82.537326,146.42343 C82.475766,146.48715 82.413666,146.55033 82.351026,146.61459 C82.814886,147.09141 83.260386,147.58497 83.730186,148.05585 C83.788506,147.99375 83.846826,147.93165 83.906226,147.87009 C83.438586,147.39921 82.999026,146.90025 82.537326,146.42343" id="Fill-171" fill="#9B5A27"></path>
                    <path d="M79.961256,149.306922 C79.901856,149.374962 79.844076,149.443542 79.788456,149.513742 C80.274996,149.966802 80.768016,150.412302 81.255096,150.864822 C81.305856,150.796242 81.362016,150.731442 81.416556,150.666102 C80.930016,150.215202 80.447796,149.758362 79.961256,149.306922" id="Fill-173" fill="#9B5A27"></path>
                    <path d="M77.625648,152.349174 C77.572188,152.420454 77.519808,152.492274 77.467968,152.563554 C77.987448,152.983134 78.495048,153.413514 79.001568,153.848214 C79.052328,153.777474 79.102008,153.705654 79.152768,153.634374 C78.648408,153.200214 78.143508,152.767674 77.625648,152.349174" id="Fill-175" fill="#9B5A27"></path>
                    <path d="M75.34485,155.495808 C75.29139,155.570868 75.23793,155.643768 75.18501,155.718828 C75.71637,156.125448 76.24773,156.532608 76.77801,156.940848 C76.83201,156.866328 76.88493,156.791268 76.93839,156.717288 C76.40757,156.310128 75.87621,155.902428 75.34485,155.495808" id="Fill-177" fill="#9B5A27"></path>
                    <path d="M73.144242,158.540166 C73.091862,158.606586 73.041642,158.673546 72.990342,158.741046 C73.515762,159.133626 74.042262,159.524046 74.567682,159.916086 C74.618982,159.849666 74.670282,159.782166 74.721582,159.715206 C74.196162,159.323166 73.670202,158.932206 73.144242,158.540166" id="Fill-179" fill="#9B5A27"></path>
                    <path d="M70.896708,161.394174 C70.842168,161.462754 70.790868,161.533494 70.737948,161.603694 C71.276868,162.002214 71.815788,162.399654 72.354708,162.799254 C72.406548,162.730674 72.459468,162.662634 72.513468,162.596754 C71.976708,162.192834 71.435628,161.794854 70.896708,161.394174" id="Fill-181" fill="#9B5A27"></path>
                    <path d="M68.639184,164.429568 C68.587344,164.500848 68.535504,164.572128 68.483124,164.642868 C69.027984,165.028428 69.572844,165.413988 70.117704,165.800088 C70.169544,165.730428 70.221384,165.659688 70.273764,165.591108 C69.728364,165.205548 69.175404,164.827548 68.639184,164.429568" id="Fill-183" fill="#9B5A27"></path>
                    <path d="M66.430638,167.531382 C66.380958,167.607522 66.329658,167.683122 66.280518,167.759262 C66.834018,168.134562 67.385358,168.513102 67.937238,168.891102 C67.985298,168.816582 68.035518,168.743142 68.085198,168.670242 C67.535478,168.288462 66.979818,167.914782 66.430638,167.531382" id="Fill-185" fill="#9B5A27"></path>
                    <path d="M64.306494,170.821494 C64.258434,170.900874 64.209294,170.979714 64.161774,171.059094 C64.720134,171.428994 65.273634,171.805374 65.840094,172.161774 C65.885454,172.082934 65.932434,172.004634 65.979414,171.926874 C65.417274,171.565614 64.863234,171.190854 64.306494,170.821494" id="Fill-187" fill="#9B5A27"></path>
                    <path d="M62.287866,174.2445 C62.243046,174.3255 62.196606,174.4065 62.152866,174.4875 C62.723106,174.83472 63.284706,175.1976 63.849546,175.55346 C63.893826,175.47246 63.937566,175.392 63.982386,175.31154 C63.417546,174.95514 62.857566,174.59226 62.287866,174.2445" id="Fill-189" fill="#9B5A27"></path>
                    <path d="M60.373566,177.775074 C60.331446,177.859314 60.287706,177.943554 60.245586,178.027794 C60.815826,178.371774 61.389306,178.710354 61.970346,179.037594 C62.011926,178.955514 62.053506,178.873974 62.095626,178.791894 C61.514586,178.463574 60.944886,178.120134 60.373566,177.775074" id="Fill-191" fill="#9B5A27"></path>
                    <path d="M58.563756,181.337778 C58.522716,181.422018 58.482756,181.506258 58.441716,181.591038 C59.017896,181.913418 59.585976,182.259558 60.175116,182.556558 C60.217776,182.475018 60.255576,182.391858 60.297156,182.310318 C59.720436,181.984158 59.141556,181.662318 58.563756,181.337778" id="Fill-193" fill="#9B5A27"></path>
                    <path d="M56.825604,184.85253 C56.785644,184.93137 56.745144,185.01129 56.704644,185.09013 C57.285144,185.38173 57.880224,185.65605 58.445604,185.97627 C58.485564,185.89689 58.524984,185.81589 58.566024,185.73705 C58.000644,185.41737 57.405564,185.14521 56.825604,184.85253" id="Fill-195" fill="#9B5A27"></path>
                    <path d="M55.066392,188.034534 C55.024272,188.106354 54.982692,188.178174 54.941112,188.248914 C55.522692,188.589654 56.109672,188.917434 56.703132,189.236574 C56.743632,189.162594 56.784132,189.088614 56.825172,189.014634 C56.233872,188.697114 55.644732,188.375274 55.066392,188.034534" id="Fill-197" fill="#9B5A27"></path>
                    <path d="M53.276076,191.111562 C53.235036,191.183382 53.193456,191.255202 53.151336,191.325942 C53.737236,191.669382 54.325836,192.001482 54.925236,192.322242 C54.967896,192.253122 55.008396,192.182922 55.051596,192.114342 C54.451656,191.791962 53.863056,191.456622 53.276076,191.111562" id="Fill-199" fill="#9B5A27"></path>
                    <path d="M51.479388,194.161212 C51.437808,194.230332 51.395148,194.299992 51.353568,194.369112 C51.940548,194.679612 52.528608,194.988492 53.113968,195.302772 C53.156088,195.233112 53.197668,195.163452 53.240328,195.094872 C52.654968,194.780052 52.066368,194.472252 51.479388,194.161212" id="Fill-201" fill="#9B5A27"></path>
                    <path d="M149.367078,120.815064 C149.288238,120.815604 149.209938,120.815064 149.131098,120.815604 C149.128938,121.512744 149.119218,122.209884 149.128398,122.906484 C149.206158,122.906484 149.284998,122.906484 149.362758,122.907024 C149.357898,122.209884 149.364378,121.512204 149.367078,120.815064" id="Fill-203" fill="#9B5A27"></path>
                    <path d="M145.983114,120.825594 C145.904274,120.826134 145.825974,120.826134 145.747134,120.826134 C145.746054,121.515714 145.758474,122.206374 145.768194,122.895954 C145.845954,122.895954 145.924254,122.895414 146.002014,122.896494 C145.993374,122.206374 145.981494,121.515714 145.983114,120.825594" id="Fill-205" fill="#9B5A27"></path>
                    <path d="M142.624422,120.807666 C142.548282,120.803886 142.472142,120.799026 142.396002,120.795786 C142.419222,121.455666 142.442982,122.116086 142.467282,122.776506 C142.543422,122.781366 142.619022,122.783526 142.695702,122.788386 C142.670862,122.127966 142.648182,121.468086 142.624422,120.807666" id="Fill-207" fill="#9B5A27"></path>
                    <path d="M139.232034,120.627306 C139.151574,120.623526 139.070574,120.618126 138.989574,120.614886 C139.023594,121.276926 139.061934,121.939506 139.099194,122.601546 C139.177494,122.605866 139.256334,122.607486 139.334634,122.610726 C139.296834,121.949766 139.265514,121.288806 139.232034,120.627306" id="Fill-209" fill="#9B5A27"></path>
                    <path d="M135.817506,120.521358 C135.738666,120.520818 135.658746,120.519198 135.579366,120.517578 C135.640926,121.173138 135.747846,121.821678 135.815886,122.476698 C135.889866,122.479938 135.963846,122.482098 136.037286,122.485338 C135.969246,121.829778 135.877986,121.177458 135.817506,120.521358" id="Fill-211" fill="#9B5A27"></path>
                    <path d="M132.424038,120.520278 C132.345198,120.523518 132.266358,120.526758 132.188058,120.529458 C132.287418,121.173138 132.386778,121.817358 132.486138,122.461038 C132.564978,122.457798 132.643818,122.455098 132.722658,122.452398 C132.623298,121.808718 132.523398,121.164498 132.424038,120.520278" id="Fill-213" fill="#9B5A27"></path>
                    <path d="M129.144996,120.789738 C129.070476,120.798918 128.996496,120.807018 128.922516,120.816738 C129.032676,121.473378 129.141216,122.130018 129.250836,122.786658 C129.324816,122.778018 129.399336,122.767758 129.473316,122.760198 C129.363156,122.103558 129.254076,121.446378 129.144996,120.789738" id="Fill-215" fill="#9B5A27"></path>
                    <path d="M125.900784,121.179456 C125.825184,121.195116 125.749584,121.210776 125.673444,121.225896 C125.844624,121.861476 125.948304,122.507856 126.120024,123.142896 C126.190224,123.135876 126.259884,123.128316 126.330084,123.122376 C126.156204,122.480316 126.073584,121.821516 125.900784,121.179456" id="Fill-217" fill="#9B5A27"></path>
                    <path d="M122.713542,121.881348 C122.641722,121.898628 122.569362,121.915368 122.498622,121.933728 C122.702202,122.552028 122.904702,123.170868 123.108282,123.789168 C123.179562,123.771888 123.251922,123.755148 123.323202,123.736788 C123.120702,123.117948 122.916042,122.500188 122.713542,121.881348" id="Fill-219" fill="#9B5A27"></path>
                    <path d="M119.604816,122.80788 C119.537316,122.83272 119.468736,122.8554 119.400696,122.88078 C119.630196,123.49638 119.859156,124.11252 120.088656,124.72866 C120.156696,124.70544 120.224196,124.68006 120.292236,124.65576 C120.063276,124.03962 119.833776,123.42402 119.604816,122.80788" id="Fill-221" fill="#9B5A27"></path>
                    <path d="M116.62218,123.948036 L116.42292,124.036596 C116.6859,124.640316 116.9478,125.244576 117.21078,125.848836 C117.27774,125.819136 117.34362,125.788356 117.41058,125.759736 C117.1476,125.156016 116.88462,124.552296 116.62218,123.948036" id="Fill-223" fill="#9B5A27"></path>
                    <path d="M113.682744,125.319096 C113.615784,125.352036 113.550444,125.386596 113.485104,125.422236 C113.768064,126.020556 114.052644,126.618336 114.336144,127.216656 C114.400944,127.182096 114.465744,127.148076 114.530004,127.112436 C114.247044,126.515736 113.955984,125.921196 113.682744,125.319096" id="Fill-225" fill="#9B5A27"></path>
                    <path d="M110.837214,126.8811 C110.773494,126.92052 110.708694,126.9594 110.645514,126.99882 C110.956554,127.58958 111.268674,128.18142 111.573234,128.7765 C111.636954,128.73762 111.701214,128.69766 111.765474,128.65932 C111.461454,128.06316 111.147174,127.47348 110.837214,126.8811" id="Fill-227" fill="#9B5A27"></path>
                    <path d="M108.044928,128.5902 C107.978508,128.63124 107.912088,128.67174 107.845668,128.71332 C108.173988,129.29436 108.496908,129.87864 108.825768,130.45914 C108.888408,130.4208 108.949428,130.38084 109.012068,130.34304 C108.708588,129.74904 108.372168,129.17178 108.044928,128.5902" id="Fill-229" fill="#9B5A27"></path>
                    <path d="M105.285852,130.415346 C105.221052,130.459626 105.155172,130.500666 105.090372,130.544946 C105.435432,131.122746 105.776172,131.703246 106.121772,132.281046 C106.184412,132.238386 106.247052,132.195726 106.310232,132.153606 C105.965712,131.575806 105.631452,130.992606 105.285852,130.415346" id="Fill-231" fill="#9B5A27"></path>
                    <path d="M102.542112,132.241572 C102.477852,132.283152 102.414672,132.326352 102.350952,132.368472 C102.697632,132.946812 103.044312,133.524612 103.389912,134.102412 C103.453632,134.060292 103.517352,134.017632 103.581072,133.975512 C103.235472,133.397172 102.888252,132.819912 102.542112,132.241572" id="Fill-233" fill="#9B5A27"></path>
                    <path d="M99.807282,134.062992 C99.743022,134.105652 99.677682,134.147232 99.613422,134.189892 C99.981702,134.753112 100.312182,135.345492 100.657242,135.923832 C100.720422,135.880632 100.784142,135.838512 100.847862,135.796392 C100.502262,135.218592 100.161522,134.636472 99.807282,134.062992" id="Fill-235" fill="#9B5A27"></path>
                    <path d="M97.026066,135.884952 C96.961266,135.927072 96.896466,135.969192 96.832206,136.011852 C97.206426,136.584252 97.574166,137.157732 97.925166,137.744172 C97.988886,137.702592 98.051526,137.658852 98.115786,137.617272 C97.765326,137.030832 97.400286,136.456812 97.026066,135.884952" id="Fill-237" fill="#9B5A27"></path>
                    <path d="M94.214826,137.701134 C94.144626,137.742174 94.073886,137.782674 94.003686,137.824254 C94.363326,138.397194 94.713246,138.976614 95.103126,139.530114 C95.172246,139.489614 95.242446,139.449114 95.312106,139.408074 C94.923306,138.854574 94.575006,138.273534 94.214826,137.701134" id="Fill-239" fill="#9B5A27"></path>
                    <g id="Group-243" transform="translate(0.000000, 56.759940)">
                        <mask id="mask-6" fill="white">
                            <use xlink:href="#path-5"></use>
                        </mask>
                        <g id="Clip-242"></g>
                        <path d="M14.778882,0.278694 C12.287862,2.589354 5.680962,9.396594 2.154222,22.325274 C-3.361338,42.540714 3.349782,60.501654 4.236462,62.782614 C3.269862,59.916294 -2.403378,42.366294 2.910222,22.499154 C6.226362,10.099674 12.150162,3.051594 14.778882,0.278694" id="Fill-241" fill="#FFFFFF" mask="url(#mask-6)"></path>
                    </g>
                </g>
            </g>
        </g>
    </g>
</svg>