<?xml version="1.0" encoding="UTF-8"?>
<svg width="300px" height="305px" viewBox="0 0 300 305" version="1.1" xmlns="http://www.w3.org/2000/svg" xmlns:xlink="http://www.w3.org/1999/xlink">
    <title>Group 2</title>
    <g id="Page-1" stroke="none" stroke-width="1" fill="none" fill-rule="evenodd">
        <g id="For-you-and-your-partner-Copy-4" transform="translate(-57.000000, -157.000000)">
            <g id="Group-2" transform="translate(57.000000, 157.000000)">
                <circle id="Mask" fill="#E13856" opacity="0.0770321801" cx="150" cy="153" r="150"></circle>
                <g id="Asset-34" transform="translate(55.000000, 0.000000)" fill-rule="nonzero">
                    <g id="freepik--Character--inject-125">
                        <path d="M101.096,54.44 C101.208,58.192 98.552,58.552 96.72,58.704 C94.888,58.856 92.792,58.024 91.12,57.232 C87.728,55.632 84.44,53.968 83.072,50.224" id="Path" fill="#EDBC9C"></path>
                        <path d="M139.28,271.896 L145.112,288.8 C145.112,288.8 164.264,288.56 165.64,291.584 L133.256,304.056 L123.112,278.08 L139.28,271.896 Z" id="Path" fill="#D61335"></path>
                        <path d="M134.552,291.264 C133.982501,291.710284 133.841053,292.514118 134.224,293.128 C134.648309,293.713658 135.456762,293.864803 136.064,293.472 C136.665235,292.997101 136.813378,292.146139 136.408,291.496 C135.899747,290.928628 135.033717,290.865001 134.448,291.352" id="Path" fill="#DEDEDE"></path>
                        <g id="Group" opacity="0.6" transform="translate(132.000000, 290.400000)" fill="#FFFFFF">
                            <path d="M1.256,13.664 L0.328,11.04 L31.728,0.072 C31.728,0.072 33.416,0.144 33.64,1.224 L1.256,13.664 Z" id="Path"></path>
                        </g>
                        <path d="M145.6,288.44 C145.656,288.6 144.888,288.976 144.304,289.784 C143.72,290.592 143.568,291.384 143.4,291.384 C143.232,291.384 143.112,290.368 143.832,289.408 C144.552,288.448 145.552,288.288 145.6,288.44 Z" id="Path" fill="#2E353A"></path>
                        <path d="M149.512,288.536 C149.608,288.68 149.024,289.208 148.712,290.088 C148.4,290.968 148.552,291.728 148.392,291.784 C148.232,291.84 147.784,290.984 148.152,289.896 C148.52,288.808 149.448,288.392 149.512,288.536 Z" id="Path" fill="#2E353A"></path>
                        <path d="M153.008,291.84 C152.88,291.928 152.352,291.224 152.424,290.24 C152.496,289.256 153.104,288.584 153.224,288.696 C153.344,288.808 153.056,289.44 153.016,290.296 C152.976,291.152 153.16,291.784 153.008,291.84 Z" id="Path" fill="#2E353A"></path>
                        <path d="M143.816,284.736 C143.816,284.904 143.016,284.968 142.128,285.368 C141.24,285.768 140.664,286.328 140.528,286.224 C140.392,286.12 140.84,285.296 141.872,284.832 C142.904,284.368 143.848,284.584 143.816,284.736 Z" id="Path" fill="#2E353A"></path>
                        <path d="M16.056,265.8 L15.688,266.28 L8.712,275.432 L0,281.384 L11.624,303.784 L24.424,303.784 C24.424,303.784 23.496,300.704 17.344,299.112 L16.936,286.816 L28,274.672" id="Path" fill="#D61335"></path>
                        <g id="Group" opacity="0.6" transform="translate(0.000000, 280.000000)" fill="#FFFFFF">
                            <polygon id="Path" points="0 1.384 11.624 23.776 24.424 23.792 22.984 21.864 12.576 21.28 1.848 0.112"></polygon>
                        </g>
                        <path d="M17.264,293.488 C17.168,293.616 16.464,293.2 15.44,293.224 C14.416,293.248 13.72,293.664 13.624,293.536 C13.528,293.408 14.224,292.672 15.432,292.664 C16.64,292.656 17.384,293.384 17.264,293.488 Z" id="Path" fill="#2E353A"></path>
                        <path d="M17.056,290.44 C16.928,290.528 16.36,289.776 15.336,289.576 C14.312,289.376 13.504,289.84 13.424,289.704 C13.344,289.568 13.528,289.432 13.888,289.24 C14.8790365,288.734301 16.0876969,288.976033 16.808,289.824 C17.064,290.144 17.12,290.4 17.056,290.44 Z" id="Path" fill="#2E353A"></path>
                        <path d="M17.144,286.52 C17,286.592 16.568,285.856 15.68,285.544 C14.792,285.232 13.984,285.544 13.92,285.384 C13.856,285.224 14.048,285.136 14.4,285.008 C14.8735789,284.840221 15.3904211,284.840221 15.864,285.008 C16.3360559,285.176477 16.7385649,285.497358 17.008,285.92 C17.2,286.24 17.208,286.496 17.144,286.52 Z" id="Path" fill="#2E353A"></path>
                        <path d="M20.568,283.488 C20.416,283.544 20.064,282.816 19.264,282.296 C18.464,281.776 17.664,281.704 17.664,281.544 C17.664,281.384 18.616,281.184 19.576,281.832 C20.536,282.48 20.712,283.472 20.568,283.488 Z" id="Path" fill="#2E353A"></path>
                        <g id="Group" opacity="0.6" transform="translate(6.400000, 279.200000)" fill="#FFFFFF">
                            <path d="M3.808,1.8 C3.808,2.63947282 3.12747282,3.32 2.288,3.32 C1.44852718,3.32 0.768,2.63947282 0.768,1.8 C0.768,0.96052718 1.44852718,0.28 2.288,0.28 L2.288,0.28 C3.12747282,0.28 3.808,0.96052718 3.808,1.8 L3.808,1.8 Z" id="Path"></path>
                        </g>
                        <path d="M83.2,164 C86.224,165.12 71.736,224.728 71.736,224.728 L28,277.304 L13.424,264.744 L46.128,214.4 L56.392,133.36 L80,134.64 L83.2,164 Z" id="Path" fill="#2E353A"></path>
                        <path d="M103.28,133.36 C103.696,134.512 128,218.24 128,218.24 L141.512,275.336 L123.912,281.072 C123.912,281.072 100.824,227.64 98.048,218.672 C95.272,209.704 88.712,196.64 88.712,196.64 L75.912,162.8 C75.912,162.8 55.448,151.496 56.952,132.4 L103.28,133.36 Z" id="Path" fill="#2E353A"></path>
                        <polygon id="Path" fill="#2E353A" points="143.584 279.424 142.544 272.552 121.36 279.432 123.824 286.696"></polygon>
                        <path d="M57.1199967,133.36 C57.1199967,133.36 57.1199967,133.584 57.216,134.032 L57.464,136 C57.7543041,138.499424 58.2221531,140.975013 58.864,143.408 C59.3389805,145.138783 60.0071832,146.810632 60.856,148.392 C61.8727687,150.245743 63.1200072,151.963384 64.568,153.504 C68.1169656,157.168268 72.2953232,160.165196 76.904,162.352 L76.976,162.392 L76.976,162.464 C77.776,165.504 78.824,168.648 79.968,171.896 C81.112,175.144 82.368,178.496 83.664,181.952 C86.272,188.856 89.152,196.152 92.136,203.696 C96.296,214.096 100.136,224.088 103.872,233.08 C107.608,242.072 111.008,250.128 113.888,256.896 C116.768,263.664 119.112,269.136 120.664,272.944 C121.464,274.848 122.032,276.336 122.416,277.344 L122.848,278.504 C122.944,278.76 122.984,278.896 122.984,278.896 C122.984,278.896 122.92,278.768 122.808,278.512 L122.344,277.376 L120.52,273.008 C118.92,269.216 116.52,263.752 113.616,257.008 C110.712,250.264 107.216,242.208 103.512,233.216 C99.808,224.224 95.912,214.24 91.76,203.84 C88.776,196.296 85.904,189 83.304,182.08 C82,178.632 80.768,175.264 79.632,172.008 C78.496,168.752 77.448,165.608 76.656,162.544 L76.744,162.656 C72.1087411,160.438316 67.9131227,157.400016 64.36,153.688 C62.9033532,152.124405 61.6507095,150.382531 60.632,148.504 C59.7930293,146.899433 59.1356325,145.206301 58.672,143.456 C58.0470812,141.007349 57.6084939,138.514889 57.36,136 C57.272,135.144 57.208,134.488 57.16,134.024 C57.1331142,133.803692 57.1199967,133.581943 57.1199967,133.36 Z" id="Path" fill="#4D5A64"></path>
                        <path d="M93.008,166.4 C92.8312104,166.551092 92.6277081,166.667766 92.408,166.744 C91.8302054,166.984558 91.2165804,167.127827 90.592,167.168 C88.49684,167.251085 86.4486862,166.533087 84.864,165.16 C83.3340546,163.777306 82.138579,162.064794 81.368,160.152 C81.064,159.432 80.856,158.832 80.72,158.416 C80.6299975,158.205549 80.5785139,157.980647 80.568,157.752 C80.632,157.752 80.968,158.632 81.64,160.024 C82.4646088,161.846364 83.6544956,163.480075 85.136,164.824 C86.649004,166.12837 88.5783729,166.849046 90.576,166.856 C91.4028464,166.808751 92.2202,166.655497 93.008,166.4 L93.008,166.4 Z" id="Path" fill="#4D5A64"></path>
                        <path d="M56.656,217.44 C55.0960679,216.532649 53.4606523,215.761782 51.768,215.136 C50.0316469,214.647364 48.2574607,214.304836 46.464,214.112 C46.9877105,213.986748 47.5297122,213.956938 48.064,214.024 C50.6784297,214.161796 53.2096619,214.989898 55.4,216.424 C55.8743954,216.6873 56.2993925,217.031088 56.656,217.44 Z" id="Path" fill="#4D5A64"></path>
                        <path d="M142.312,272.64 C142.312,272.744 137.688,274.4 131.912,276.336 C126.136,278.272 121.424,279.752 121.384,279.64 C121.344,279.528 126,277.872 131.784,275.944 C137.568,274.016 142.312,272.512 142.312,272.64 Z" id="Path" fill="#4D5A64"></path>
                        <polygon id="Path" fill="#2E353A" points="8.944 269.64 12.84 262.784 29.992 277.312 24.72 283.064"></polygon>
                        <path d="M29.992,277.312 C29.7356963,277.160542 29.4992162,276.977807 29.288,276.768 L27.472,275.168 C25.944,273.824 23.832,271.968 21.408,270.048 C18.984,268.128 16.848,266.288 15.296,264.968 C14.496,264.312 13.896,263.768 13.472,263.368 C13.048,262.968 12.816,262.768 12.84,262.744 C13.1025744,262.882187 13.3493561,263.048497 13.576,263.24 C14.032,263.584 14.68,264.088 15.48,264.712 C17.08,265.976 19.272,267.736 21.672,269.704 C24.072,271.672 26.192,273.528 27.672,274.928 C28.416,275.624 29,276.2 29.4,276.608 C29.6248279,276.818099 29.8235868,277.054461 29.992,277.312 L29.992,277.312 Z" id="Path" fill="#4D5A64"></path>
                        <path d="M93.512,5.44 C94.248,2.704 96.304,1.36 98.976,0.448 C101.711654,-0.458947454 104.718037,0.031158707 107.024,1.76 C108.528,2.904 109.704,4.568 111.488,5.184 C114.432,6.208 117.888,4.008 120.704,5.328 C122.482308,6.11441112 123.437491,8.06573363 122.967754,9.95257486 C122.498018,11.8394161 120.739449,13.1151393 118.8,12.976 C120.72,13.68 121.312,16.416 120.192,18.128 C119.072,19.84 116.768,20.48 114.76,20.104 C112.763042,19.6171891 110.937205,18.5936137 109.48,17.144 C107.96,15.784 106.6,14.232 104.976,12.992 C103.407858,11.6697958 101.427099,10.936915 99.376,10.92 C96.616,11.072 94.248,13.152 92.976,15.632 C91.704,18.112 91.456,20.944 91.304,23.704 C91.152,26.464 91.104,29.304 90.28,31.92 C90.184,32.232 90.04,32.576 89.728,32.672 C89.28,32.808 88.928,32.336 88.68,31.92 C86.1536285,27.2343583 84.5768353,22.0961873 84.04,16.8 C83.728,13.736 83.808,10.84 85.488,8.264 C87.168,5.688 91.424,3.784 93.488,5.416" id="Path" fill="#2E353A"></path>
                        <path d="M88.184,18.24 L86.776,49.232 C86.528,54.504 87.256,62.296 95.576,62.296 L95.576,62.296 C102.816,61.752 104.96,54.984 105.176,50.064 C105.28,47.728 105.376,45.784 105.4,45.544 C105.4,45.544 113.328,45.16 114.248,37.376 C114.696,33.616 114.992,25.8 115.168,18.72 C115.362026,11.1288177 109.701511,4.65766957 102.152,3.84 L101.4,3.76 C93.24,3.352 88.352,10.064 88.184,18.24 Z" id="Path" fill="#EDBC9C"></path>
                        <path d="M105.456,45.44 C101.848207,45.1172723 98.4190046,43.7244198 95.608,41.44 C95.608,41.44 97.408,47.304 105.264,47.432 L105.456,45.44 Z" id="Path" fill="#D69770"></path>
                        <path d="M112.376,23.68 C112.316953,24.2765877 111.7986,24.7208901 111.2,24.688 C110.915645,24.6796386 110.646275,24.5585952 110.45121,24.3515268 C110.256146,24.1444583 110.151385,23.8683471 110.16,23.584 L110.16,23.584 C110.215084,22.9787008 110.74596,22.5297721 111.352,22.576 C111.636355,22.5843614 111.905725,22.7054048 112.10079,22.9124732 C112.295854,23.1195417 112.400615,23.3956529 112.392,23.68 L112.376,23.68 Z" id="Path" fill="#2E353A"></path>
                        <path d="M113.12,22.344 C112.968,22.48 112.192,21.76 110.992,21.64 C109.792,21.52 108.856,22.024 108.736,21.864 C108.616,21.704 108.848,21.544 109.264,21.304 C109.820402,20.9989798 110.457433,20.8732501 111.088,20.944 C111.709931,21.0091591 112.295248,21.2696113 112.76,21.688 C113.096,22.016 113.2,22.288 113.12,22.344 Z" id="Path" fill="#2E353A"></path>
                        <path d="M100.584,22.832 C100.528887,23.4383736 99.9994474,23.8896412 99.392,23.848 C99.1054987,23.8375856 98.8348942,23.7136849 98.6398154,23.5036 C98.4447365,23.2935151 98.3411926,23.0144867 98.352,22.728 L98.352,22.728 C98.4070841,22.1227008 98.9379601,21.6737721 99.544,21.72 C99.8269165,21.7241562 100.096331,21.8416752 100.291842,22.0462099 C100.487353,22.2507446 100.592605,22.5251838 100.584,22.808 L100.584,22.832 Z" id="Path" fill="#2E353A"></path>
                        <path d="M101.328,21.32 C101.168,21.448 100.392,20.736 99.2,20.608 C98.008,20.48 97.056,20.992 96.944,20.832 C96.832,20.672 97.056,20.512 97.464,20.272 C98.0212828,19.9697404 98.6582629,19.8468144 99.288,19.92 C99.9133223,19.9813199 100.502333,20.2421677 100.968,20.664 C101.304,20.984 101.4,21.256 101.328,21.32 Z" id="Path" fill="#2E353A"></path>
                        <path d="M104.712,30.664 C105.364039,30.5283567 106.031208,30.4799331 106.696,30.52 C107,30.52 107.296,30.52 107.368,30.288 C107.430481,29.9753697 107.394135,29.651044 107.264,29.36 C107.056,28.56 106.84,27.76 106.608,26.96 C105.704,23.504 105.088,20.688 105.224,20.648 C105.36,20.608 106.208,23.384 107.112,26.832 L107.728,29.232 C107.871775,29.6245838 107.871775,30.0554162 107.728,30.448 C107.612857,30.656979 107.410443,30.8036553 107.176,30.848 C107.000363,30.863989 106.823637,30.863989 106.648,30.848 C105.997679,30.8629274 105.347865,30.8011682 104.712,30.664 Z" id="Path" fill="#2E353A"></path>
                        <path d="M102.136,16.64 C101.984,16.952 100.8,16.64 99.376,16.696 C97.952,16.752 96.776,16.976 96.624,16.696 C96.552,16.544 96.784,16.264 97.28,15.992 C97.9294044,15.6635512 98.6483026,15.4961741 99.376,15.504 C100.102837,15.4867143 100.822732,15.648828 101.472,15.976 C101.968,16.224 102.2,16.504 102.136,16.64 Z" id="Path" fill="#2E353A"></path>
                        <path d="M113.048,18.832 C112.808,19.08 112.016,18.712 111.024,18.592 C110.032,18.472 109.176,18.592 109.008,18.28 C108.936,18.128 109.104,17.872 109.496,17.656 C110.01693,17.3839695 110.612128,17.2885132 111.192,17.384 C111.774754,17.4540576 112.320608,17.7059902 112.752,18.104 C113.072,18.4 113.16,18.712 113.048,18.832 Z" id="Path" fill="#2E353A"></path>
                        <path d="M88.208,24.064 C88.08,23.992 83.024,21.912 82.608,27.264 C82.192,32.616 87.664,31.904 87.68,31.752 C87.696,31.6 88.208,24.064 88.208,24.064 Z" id="Path" fill="#EDBC9C"></path>
                        <path d="M86.216,29.6 C86.1310839,29.6464641 86.0428424,29.6865739 85.952,29.72 C85.7283157,29.8078465 85.4796843,29.8078465 85.256,29.72 C84.5836376,29.2252221 84.2341105,28.4035269 84.344,27.576 C84.3638694,27.1085384 84.4897042,26.6517034 84.712,26.24 C84.8335696,25.9052751 85.1167985,25.65519 85.464,25.576 C85.6911096,25.5296755 85.9182477,25.65511 86,25.872 C86.032464,25.9597607 86.032464,26.0562393 86,26.144 C86,26.144 86.12,26.056 86.096,25.832 C86.0741178,25.7002351 86.0094544,25.5793426 85.912,25.488 C85.7765474,25.3605367 85.5933538,25.2965644 85.408,25.312 C84.9552105,25.3625027 84.5627886,25.6484535 84.376,26.064 C84.1119747,26.511656 83.9609557,27.016883 83.936,27.536 C83.8081415,28.5039916 84.2794592,29.4529534 85.128,29.936 C85.4136231,30.0387013 85.7300899,30.0093989 85.992,29.856 C86.192,29.728 86.232,29.6 86.216,29.6 Z" id="Path" fill="#D69770"></path>
                        <path d="M117.024,17.256 C113.427488,17.7843151 109.796202,16.5520591 107.264,13.944 C105.544,12.128 104.328,9.664 102.024,8.68 C100.432742,8.0686767 98.662415,8.12345881 97.112,8.832 C95.5880261,9.53808017 94.2262624,10.5512323 93.112,11.808 C94.192,15.928 92.712,20.248 91.248,24.248 C91.1339863,24.7078293 90.8692371,25.116219 90.496,25.408 C89.7280889,25.7148567 88.8509406,25.4202162 88.424,24.712 C87.718904,23.6353135 87.3460973,22.375004 87.352,21.088 C87.0949932,18.1722614 87.4241231,15.234573 88.32,12.448 C89.2238003,9.65312057 90.9291389,7.18552628 93.224,5.352 C96.1831427,3.15358374 99.8802144,2.18987848 103.536,2.664 C107.176741,3.16229432 110.567218,4.79733864 113.224,7.336 C114.507987,8.45009087 115.494909,9.86587085 116.096,11.456" id="Path" fill="#2E353A"></path>
                        <path d="M105.096,34.048 C104.934853,34.5302373 104.702991,34.9858728 104.408,35.4 C104.105008,35.8170373 103.640338,36.0871267 103.128,36.1440212 C102.576772,36.1468331 102.062904,35.8657171 101.768,35.4 C101.479149,34.9362695 101.344712,34.3929194 101.384,33.848 C101.384,33.36 101.632,32.776 102.12,32.72 C102.325156,32.7098696 102.529355,32.7540208 102.712,32.848 L105.264,33.88" id="Path" fill="#D69770"></path>
                        <path d="M104.08,36.144 C103.617436,36.1766282 103.152924,36.1195829 102.712,35.976 C102.26971,35.8006203 101.905932,35.4709463 101.688,35.048 C101.448081,34.5164866 101.448081,33.9075134 101.688,33.376 C101.744149,33.239708 101.816682,33.1107593 101.904,32.992 C102.008,32.888 101.992,32.888 102.096,32.904 L102.512,33.064 L102.928,33.24 C103.472,33.456 103.968,33.656 104.384,33.808 C104.822482,34.0209491 105.292575,34.1614365 105.776,34.224 C105.395055,33.9211902 104.968399,33.6808583 104.512,33.512 C104.112,33.32 103.632,33.096 103.096,32.856 L102.68,32.664 C102.528,32.608 102.416,32.536 102.216,32.472 C102.091098,32.4321727 101.956902,32.4321727 101.832,32.472 C101.720705,32.5209301 101.624167,32.5981598 101.552,32.696 C101.434648,32.8421793 101.337757,33.003664 101.264,33.176 C100.985698,33.8340116 101.015024,34.5818032 101.344,35.216 C101.614804,35.7276203 102.083038,36.1062546 102.64,36.264 C102.996109,36.3837946 103.378837,36.400435 103.744,36.312 C104,36.256 104.088,36.176 104.08,36.144 Z" id="Path" fill="#2E353A"></path>
                        <path d="M130.352,77.024 L115.56,108.64 C114.153233,111.640246 111.310616,113.713364 108.024,114.136 L108.024,114.136 C103.76217,114.681234 99.6509503,112.351977 97.928,108.416 L86.888,83.128 L106.088,60.528 L108,87.672 L120.096,70.48 L130.352,77.024 Z" id="Path" fill="#5A9EFB"></path>
                        <path d="M103.64,98.336 C104.136376,96.4241401 104.775504,94.5522189 105.552,92.736 C106.192639,90.8803086 106.959772,89.0707309 107.848,87.32 C107.343036,89.2162421 106.704097,91.0742453 105.936,92.88 C105.296951,94.7492664 104.529799,96.5722546 103.64,98.336 L103.64,98.336 Z" id="Path" fill="#2E353A"></path>
                        <path d="M103.28,133.36 L106.736,129.512 C107.94289,128.177718 108.537436,126.399879 108.376,124.608 L106.544,119.968 L108.992,64.888 C109.24,60.424 109.184,53.992 104.992,52.184 L86.872,46.824 C86.872,46.824 74.52,49.456 71.6,55.912 C69.304,60.976 65.728,95.2 65.728,95.2 L60.528,109.096 C59.928,111.832 55.96,127.16 55.728,130.696 L56.416,133.36 L103.28,133.36 Z" id="Path" fill="#5A9EFB"></path>
                        <path d="M106.544,120 L106.544,115.776 C106.544,113.048 106.6,109.256 106.632,104.808 L106.632,104.808 C106.888,101.704 107.104,98.248 107.312,94.608 C107.704,87.592 108.008,81.24 108.336,76.64 C108.496,74.344 108.656,72.488 108.776,71.208 C108.848,70.6 108.896,70.112 108.936,69.728 C108.949075,69.5549344 108.978541,69.3834996 109.024,69.216 C109.047984,69.3885036 109.047984,69.5634964 109.024,69.736 C109.024,70.12 108.976,70.608 108.944,71.216 C108.864,72.552 108.76,74.416 108.632,76.664 C108.4,81.304 108.08,87.64 107.728,94.632 C107.52,98.272 107.288,101.736 107.008,104.848 L107.008,104.848 C106.912,109.296 106.832,113.08 106.768,115.816 C106.728,117.12 106.688,118.168 106.664,118.944 C106.674159,119.211324 106.660774,119.479023 106.624,119.744 C106.605833,119.831761 106.579036,119.917511 106.544,120 L106.544,120 Z" id="Path" fill="#2E353A"></path>
                        <path d="M73.8,144.272 L90.168,138.592 L76,100.44 L85.704,67.336 C87.2,61.6 84.584,53.6 78.872,52.136 C78.624,52.072 78.176,50.024 77.928,50.128 C75.68,51.048 70.072,54.848 67.752,58.6 C65.9977238,61.4908751 64.7301853,64.6502621 64,67.952 L58.112,93.264 C56.9423436,98.2077099 57.3221972,103.391595 59.2,108.112 L73.8,144.272 Z" id="Path" fill="#5A9EFB"></path>
                        <path d="M58.312,105.44 C58.3505413,105.487725 58.3803339,105.541894 58.4,105.6 L58.632,106.144 L59.488,108.256 L62.688,116.216 L73.696,144.168 L73.448,144.056 L90.048,138.4 L90.16,138.8 C89.9772904,138.65048 89.8343834,138.458105 89.744,138.24 L89.576,137.8 C89.464,137.512 89.352,137.216 89.232,136.92 C89.008,136.328 88.784,135.728 88.552,135.128 C88.088,133.92 87.624,132.728 87.152,131.448 C82.904,120.136 78.912,109.528 75.52,100.504 L75.52,100.4 C77.8,90.52 79.704,82.272 81.048,76.464 C81.72,73.592 82.256,71.328 82.648,69.76 C82.832,68.96 82.976,68.416 83.08,68 C83.128,67.808 83.168,67.664 83.192,67.544 L83.24,67.392 C83.248005,67.445033 83.248005,67.498967 83.24,67.552 C83.2195227,67.705576 83.1901399,67.8578326 83.152,68.008 C83.056,68.432 82.936,69.024 82.776,69.784 L81.296,76.512 L75.912,100.512 L75.912,100.408 C79.312,109.424 83.32,120.024 87.592,131.336 L88.984,135.008 L89.672,136.808 L90.008,137.688 L90.176,138.12 C90.2000342,138.153465 90.2000342,138.198535 90.176,138.232 C90.1679795,138.258064 90.1679795,138.285936 90.176,138.312 L90.176,138.4 L90.176,138.4 L90.176,138.592 L90.248,138.8 L73.448,144.464 L73.272,144.528 L73.208,144.352 L62.4,116.336 L59.328,108.336 L58.528,106.208 C58.448,105.976 58.384,105.792 58.328,105.656 C58.2963286,105.588406 58.2906336,105.511523 58.312,105.44 L58.312,105.44 Z" id="Path" fill="#2E353A"></path>
                        <path d="M66.992,101.552 C67.300574,101.208191 67.6799318,100.935272 68.104,100.752 C69.0823815,100.236815 70.1439873,99.8982932 71.24,99.752 C72.3348658,99.5982932 73.4483971,99.6416424 74.528,99.88 C74.9841946,99.9361758 75.4217769,100.094799 75.808,100.344 C74.3183777,100.086935 72.8016075,100.025081 71.296,100.16 C69.8076921,100.437968 68.3612105,100.905789 66.992,101.552 L66.992,101.552 Z" id="Path" fill="#2E353A"></path>
                        <g id="Group" opacity="0.3" transform="translate(106.400000, 83.200000)" fill="#000000">
                            <path d="M4.352,0.568 L5.696,29.44 C4.28,30.512 2.32,30.936 0.096,31.04 C0.096,30.136 1.624,4.504 1.624,4.504 L4.352,0.568 Z" id="Path"></path>
                        </g>
                        <path d="M108.976,60.528 C108.880098,60.6065268 108.775396,60.6736435 108.664,60.728 C108.357616,60.9111954 108.039608,61.0742082 107.712,61.216 C106.509496,61.7550841 105.24737,62.1498341 103.952,62.392 C99.6775383,63.1202179 95.2914334,62.8268971 91.152,61.536 C86.9562193,60.2729823 83.1294584,58.0109658 80,54.944 C79.0723135,54.0298799 78.2164466,53.045633 77.44,52 C77.16,51.632 76.968,51.32 76.832,51.12 C76.7599925,51.0170068 76.6983586,50.9071377 76.648,50.792 C76.952,51.136 77.24,51.488 77.512,51.864 C83.8906982,59.6953597 93.9185718,63.5940753 103.912,62.128 C105.195928,61.9150028 106.453634,61.566385 107.664,61.088 C108.090978,60.8779484 108.528944,60.6910117 108.976,60.528 Z" id="Path" fill="#F9F9F9"></path>
                        <path d="M80.8480429,76.4 C80.5828352,76.4400252 80.3131648,76.4400252 80.048,76.4 C79.3335462,76.3384853 78.6230997,76.236993 77.92,76.096 C75.5967535,75.609685 73.3624632,74.7677785 71.296,73.6 C69.2394299,72.4237391 67.3706891,70.9460046 65.752,69.216 C65.264,68.704 64.8,68.168 64.36,67.616 C64.1896077,67.4159031 64.044515,67.1955771 63.928,66.96 C63.984,66.912 64.728,67.76 65.96,69.04 C67.6166645,70.6851084 69.4803022,72.1077121 71.504,73.272 C73.5392759,74.4085879 75.7190772,75.2643618 77.984,75.816 C79.744,76.208 80.856,76.328 80.8480429,76.4 Z" id="Path" fill="#F9F9F9"></path>
                        <path d="M107.384,83.768 C107.05564,83.9303187 106.712813,84.0615573 106.36,84.16 C105.413594,84.490972 104.446099,84.7582358 103.464,84.96 C102.012659,85.2797173 100.539056,85.4883217 99.056,85.584 C97.2377688,85.694675 95.4137162,85.6652548 93.6,85.496 C90.3088239,85.1192102 87.0812918,84.3123271 84,83.096 C82.824,82.632 81.88,82.216 81.256,81.896 C80.9169734,81.7518096 80.5927796,81.5749766 80.288,81.368 C80.6429502,81.4609487 80.988449,81.5868281 81.32,81.744 C81.968,82.024 82.92,82.392 84.104,82.816 C87.1835451,83.9333832 90.3844483,84.6825879 93.64,85.048 C95.4293455,85.2185404 97.2285717,85.2613155 99.024,85.176 C100.492132,85.0856414 101.953462,84.9066486 103.4,84.64 C105.88,84.192 107.36,83.688 107.384,83.768 Z" id="Path" fill="#F9F9F9"></path>
                        <path d="M106.312,105.6 C105.954578,105.796986 105.579634,105.960354 105.192,106.088 C104.747275,106.269121 104.293312,106.426673 103.832,106.56 C103.296,106.72 102.696,106.936 102,107.088 C101.304,107.24 100.568,107.432 99.744,107.56 C98.92,107.688 98.04,107.808 97.112,107.912 C95.0888149,108.08 93.0551851,108.08 91.032,107.912 C89.0129941,107.697781 87.0162487,107.309673 85.064,106.752 C84.168,106.472 83.32,106.216 82.552,105.904 C81.784,105.592 81.064,105.296 80.424,105 C79.784,104.704 79.224,104.392 78.72,104.136 C78.2940604,103.915474 77.8801432,103.672465 77.48,103.408 C77.1251343,103.207608 76.7879232,102.977448 76.472,102.72 C76.8564516,102.863295 77.2239911,103.048406 77.568,103.272 C77.904,103.464 78.368,103.696 78.832,103.928 C79.296,104.16 79.888,104.472 80.544,104.728 C81.2,104.984 81.888,105.312 82.672,105.576 C83.456,105.84 84.272,106.12 85.168,106.376 C87.1168665,106.897853 89.104642,107.261699 91.112,107.464 C93.1095634,107.649273 95.1189431,107.670678 97.12,107.528 C98.04,107.432 98.912,107.368 99.728,107.216 C100.544,107.064 101.328,106.952 101.976,106.8 C102.624,106.648 103.272,106.48 103.808,106.336 C104.344,106.192 104.808,106.056 105.176,105.936 C105.541722,105.78415 105.922519,105.67152 106.312,105.6 Z" id="Path" fill="#F9F9F9"></path>
                        <path d="M119.512,102.12 C118.77876,102.054912 118.059068,101.882401 117.376,101.608 C113.995911,100.458795 110.985049,98.4257722 108.656,95.72 C108.152188,95.1864849 107.724174,94.5861896 107.384,93.936 C107.911204,94.4419169 108.410603,94.9760334 108.88,95.536 C111.289156,98.0865154 114.238566,100.065545 117.512,101.328 C118.72,101.824 119.528,102.056 119.512,102.12 Z" id="Path" fill="#F9F9F9"></path>
                        <path d="M126.312,85.384 C125.65827,85.2970249 125.021621,85.1108861 124.424,84.832 C122.94031,84.2549135 121.534711,83.4943314 120.24,82.568 C118.941391,81.6478374 117.759396,80.5732967 116.72,79.368 C116.265674,78.8908273 115.880583,78.3522386 115.576,77.768 C117.077746,79.3982023 118.718612,80.894522 120.48,82.24 C122.327699,83.4575676 124.279274,84.509651 126.312,85.384 Z" id="Path" fill="#F9F9F9"></path>
                        <path d="M76.2,95.84 C75.9693516,95.9290388 75.7266508,95.9829723 75.48,96 C74.8174585,96.0986572 74.1495892,96.1574297 73.48,96.176 C69.0191339,96.3182704 64.6132924,95.1591311 60.8,92.84 C60.223986,92.4946551 59.6708385,92.112529 59.144,91.696 C58.776,91.4 58.576,91.232 58.592,91.208 C58.608,91.184 59.48,91.768 60.992,92.584 C64.823553,94.720767 69.1329824,95.8545377 73.52,95.88 C75.152,95.888 76.192,95.768 76.2,95.84 Z" id="Path" fill="#F9F9F9"></path>
                        <path d="M77.984,108.12 C77.984,108.192 77.008,108.176 75.464,108.36 C71.4129665,108.836942 67.5797796,110.451208 64.408,113.016 C63.192,113.992 62.528,114.704 62.48,114.616 C62.432,114.528 62.6,114.4 62.888,114.072 C63.2999119,113.617015 63.743701,113.19194 64.216,112.8 C67.3439156,110.060842 71.271441,108.402865 75.416,108.072 C76.0393589,108.031998 76.6646411,108.031998 77.288,108.072 C77.5210351,108.047917 77.7564773,108.064154 77.984,108.12 Z" id="Path" fill="#F9F9F9"></path>
                        <path d="M86.616,129.552 C86.616,129.632 85.592,129.456 83.952,129.472 C82.9946999,129.487764 82.0399688,129.576016 81.096,129.736 C77.8282554,130.298983 74.7690293,131.720915 72.232,133.856 C70.984,134.92 70.336,135.712 70.272,135.664 C70.3818468,135.447911 70.521921,135.248575 70.688,135.072 C71.0859242,134.560002 71.5246942,134.081101 72,133.64 C72.7196496,132.978603 73.4959617,132.381645 74.32,131.856 C75.3347699,131.224637 76.4060477,130.688998 77.52,130.256 C78.6446418,129.842566 79.8077396,129.542412 80.992,129.36 C81.9576263,129.209577 82.9352969,129.150649 83.912,129.184 C84.5696118,129.192014 85.225334,129.256248 85.872,129.376 C86.1278112,129.394535 86.3789975,129.453956 86.616,129.552 L86.616,129.552 Z" id="Path" fill="#F9F9F9"></path>
                        <path d="M65.24,123.776 C62.5631773,123.726516 59.8985209,123.402146 57.288,122.808 C58.627172,122.758827 59.9678124,122.849991 61.288,123.08 C62.6257732,123.175393 63.9501257,123.408629 65.24,123.776 L65.24,123.776 Z" id="Path" fill="#F9F9F9"></path>
                        <g id="Group" opacity="0.3" transform="translate(59.200000, 110.400000)" fill="#000000">
                            <path d="M0.416,2.528 C0.545447937,6.24806345 1.18336594,9.93291472 2.312,13.48 C3.112,16.104 0.352,20.248 3.6,22.96 L10,22.96 C6.888,15.304 3.92,7.272 1.056,0.064" id="Path"></path>
                        </g>
                        <path d="M105.512,120.536 C105.376055,120.737217 105.214724,120.920058 105.032,121.08 C104.565317,121.542689 104.065308,121.970504 103.536,122.36 C102.746687,122.937866 101.908902,123.446426 101.032,123.88 C99.9534468,124.40213 98.8285836,124.822614 97.672,125.136 C96.5069883,125.424881 95.3180696,125.606968 94.12,125.68 C93.1462359,125.740885 92.1689697,125.714111 91.2,125.6 C90.5483084,125.526453 89.9035715,125.400716 89.272,125.224 C89.0337544,125.177419 88.8042958,125.093734 88.592,124.976 C88.592,124.904 89.6,125.168 91.232,125.312 C92.1879795,125.384002 93.1480205,125.384002 94.104,125.312 C95.2753005,125.225667 96.4369528,125.038303 97.576,124.752 C98.7049373,124.440623 99.8071268,124.03934 100.872,123.552 C101.740078,123.143566 102.574656,122.667428 103.368,122.128 C104.712,121.192 105.432,120.48 105.512,120.536 Z" id="Path" fill="#2E353A"></path>
                        <path d="M97.024,125.072 C96.5545104,125.401507 96.0362,125.655263 95.488,125.824 C94.1995458,126.290424 92.8540986,126.581041 91.488,126.688 C90.1118706,126.784226 88.729216,126.719791 87.368,126.496 C86.7991814,126.440755 86.2413785,126.303325 85.712,126.088 C85.712,125.944 88.296,126.496 91.456,126.272 C93.3466876,126.054508 95.2115671,125.652594 97.024,125.072 Z" id="Path" fill="#F9F9F9"></path>
                        <path d="M133.832,62.76 L141.672,62.192 C141.672,62.192 143.384,64.368 142.016,66.064 C140.648,67.76 138.016,72.216 138.016,72.216 L131.912,73.08 L129.464,77.504 L120.2,71.504 L124.408,63.12 L131.2,57.16 L135.528,57.248 L137.928,60.152 C137.928,60.152 135.256,61.464 133.976,59.352 L131.904,59.76 L131.904,60.96 C131.897597,61.4324079 132.079686,61.8878977 132.409985,62.2257035 C132.740284,62.5635094 133.191567,62.7557871 133.664,62.76 L133.832,62.76 Z" id="Path" fill="#EDBC9C"></path>
                        <path d="M141.6,62.488 L146.936,60.952 C147.606236,60.8720815 148.273008,61.1262322 148.72,61.632 L148.88,62.184 L142.336,65.016 L141.6,62.488 Z" id="Path" fill="#EDBC9C"></path>
                        <path d="M129.92,68.352 C130.110032,67.9364696 130.351959,67.5466976 130.64,67.192 C131.278308,66.332738 131.713236,65.3397897 131.912,64.288 C131.998001,63.7186553 131.94587,63.1369789 131.76,62.592 C131.667366,62.3319413 131.597764,62.0642449 131.552,61.792 C131.511999,61.5482972 131.511999,61.2997028 131.552,61.056 C131.599405,60.5944109 131.735208,60.1462598 131.952,59.736 C131.969422,60.1918181 131.934527,60.6481309 131.848,61.096 C131.80141,61.5636235 131.887352,62.03492 132.096,62.456 C132.317642,63.0563604 132.386375,63.7024463 132.296,64.336 C132.090634,65.454765 131.590815,66.4985848 130.848,67.36 C130.312,68 129.96,68.384 129.92,68.352 Z" id="Path" fill="#D69770"></path>
                        <path d="M137.992,71.84 C138.221217,71.5981572 138.34494,71.2751431 138.335938,70.9420557 C138.326935,70.6089683 138.185945,70.2931087 137.944,70.064 L137.944,70.064 C137.41561,69.6236315 136.770961,69.3457655 136.088,69.264 C135.002796,69.0061348 133.891418,68.8745949 132.776,68.872 C132.409501,68.8627627 132.046504,68.945262 131.72,69.112 C131.381852,69.2743203 131.176105,69.6256728 131.2,70 C131.288,70.44 131.752,70.68 132.168,70.8 C133.293243,71.2289771 134.463319,71.5295472 135.656,71.696" id="Path" fill="#EDBC9C"></path>
                        <path d="M135.664,71.784 C134.94392,71.8007742 134.225717,71.7035738 133.536,71.496 C133.216,71.416 132.864,71.312 132.496,71.192 C132.069421,71.0805861 131.66953,70.8847212 131.32,70.616 C131.111486,70.4254283 130.99493,70.1544354 131,69.872 C131.022042,69.5857982 131.153904,69.319207 131.368,69.128 C131.79975,68.798416 132.338821,68.6415435 132.88,68.688 C133.838755,68.6956641 134.793785,68.8083362 135.728,69.024 C136.527829,69.1045676 137.290874,69.4003856 137.936,69.88 C138.37018,70.2620527 138.542043,70.8620085 138.376,71.416 C138.232,71.8 137.992,71.88 137.992,71.864 C138.105189,71.7209375 138.184506,71.5540975 138.224,71.376 C138.302249,70.8944083 138.119618,70.4073915 137.744,70.096 C137.115836,69.6958026 136.39865,69.4567406 135.656,69.4 C134.745434,69.2097756 133.8182,69.1106206 132.888,69.104 C132.449415,69.055054 132.008131,69.1689337 131.648,69.424 C131.395581,69.6103693 131.332411,69.9613092 131.504,70.224 L131.592,70.32 C131.894688,70.5579569 132.239308,70.737051 132.608,70.848 C132.968,70.984 133.304,71.096 133.616,71.192 C134.864,71.592 135.672,71.712 135.664,71.784 Z" id="Path" fill="#D69770"></path>
                        <path d="M140.664,67.608 C138.952,66.856 137.704,66.456 135.992,65.712 C135.461812,65.4069733 134.847506,65.2807462 134.24,65.352 C133.64,65.488 133.16,66.208 133.488,66.72 C133.624058,66.8881259 133.79279,67.0269216 133.984,67.128 L138.96,70.152" id="Path" fill="#EDBC9C"></path>
                        <path d="M138.96,70.152 C138.273999,69.8717122 137.615225,69.5289357 136.992,69.128 L134.912,67.92 L133.68,67.2 C133.407627,67.037706 133.222589,66.7616178 133.176,66.448 C133.161983,66.1310482 133.277503,65.8220308 133.496,65.592 C133.701388,65.3542847 133.985255,65.1981578 134.296,65.152 C134.559734,65.0960665 134.832266,65.0960665 135.096,65.152 C135.561442,65.2875305 136.013895,65.4642279 136.448,65.68 L138.664,66.616 C139.366314,66.856481 140.035572,67.1843907 140.656,67.592 C139.937998,67.4104509 139.234678,67.1751196 138.552,66.888 C137.912,66.656 137.136,66.384 136.296,66.032 C135.879901,65.8319647 135.446014,65.6712655 135,65.552 C134.579501,65.4055839 134.112276,65.5146032 133.8,65.832 C133.6619,65.9880584 133.590144,66.1918444 133.6,66.4 C133.631462,66.5908603 133.749661,66.7563377 133.92,66.848 L135.12,67.592 L137.152,68.88 C137.793603,69.245764 138.398992,69.671679 138.96,70.152 Z" id="Path" fill="#D69770"></path>
                        <path d="M90.944,145.6 C89.344,145.024 89.48,146.152 90.064,147.48 C86.96,149.44 83.568,151.88 79.896,151.904 L76,143.2 L87.12,139.408 L87.32,139.968 C88.4417987,141.032651 89.6573962,141.993883 90.952,142.84 C91.6156137,143.281337 92.3483983,143.608521 93.12,143.808 C94.0716894,144.086048 95.0566227,144.234057 96.048,144.248 C96.5448904,144.171362 97.0100811,144.511309 97.088,145.008 C97.1380086,145.297556 97.0491387,145.593789 96.848,145.808 C96.2,146.32 93.704,146.608 90.944,145.6 Z" id="Path" fill="#EDBC9C"></path>
                        <path d="M91.264,146.616 C90.8785669,147.137492 90.4174923,147.598567 89.896,147.984 C88.689449,148.984493 87.3649257,149.833478 85.952,150.512 C84.5391717,151.189561 83.0478001,151.689372 81.512,152 C80.8828802,152.163346 80.2336695,152.236079 79.584,152.216 C83.8764705,151.339032 87.8858745,149.415398 91.256,146.616 L91.264,146.616 Z" id="Path" fill="#4D5A64"></path>
                    </g>
                    <rect id="Rectangle" fill="#EAEAEA" transform="translate(146.070023, 64.056457) rotate(-61.770000) translate(-146.070023, -64.056457) " x="145.162023" y="56.3044568" width="1.816" height="15.504"></rect>
                    <rect id="Rectangle" fill="#F2F2F2" transform="translate(146.410971, 63.414170) rotate(-61.770000) translate(-146.410971, -63.414170) " x="146.226971" y="55.66217" width="1" height="15.504"></rect>
                    <rect id="Rectangle" fill="#CECECE" transform="translate(145.770640, 64.551156) rotate(-61.780000) translate(-145.770640, -64.551156) " x="145.45464" y="56.7991564" width="1" height="15.504"></rect>
                    <path d="M153.312,66.912 C153.248,66.912 153.008,67.208 152.768,67.648 C152.528,68.088 152.392,68.448 152.456,68.512 C152.52,68.576 152.768,68.216 153,67.776 C153.232,67.336 153.376,66.952 153.312,66.912 Z" id="Path" fill="#6E6F73"></path>
                    <path d="M139.656,59.576 C139.592,59.576 139.352,59.872 139.112,60.312 C138.872,60.752 138.736,61.112 138.8,61.176 C138.864,61.24 139.112,60.88 139.344,60.44 C139.576,60 139.728,59.608 139.656,59.576 Z" id="Path" fill="#F79927"></path>
                    <path d="M143.136,62.472 C143.376,62.032 143.616,61.672 143.68,61.736 L143.68,61.736 L139.68,59.576 L138.824,61.176 L142.824,63.336 C142.76,63.288 142.904,62.912 143.136,62.472 Z" id="Path" fill="#F79927"></path>
                    <path d="M153.216,67.144 C153.176,67.144 153.008,67.344 152.848,67.648 C152.688,67.952 152.592,68.208 152.632,68.232 C152.672,68.256 152.848,68.032 153.008,67.728 C153.168,67.424 153.264,67.2 153.216,67.144 Z" id="Path" fill="#F15A24"></path>
                    <path d="M153.136,67.296 C153.136,67.296 152.968,67.464 152.84,67.704 C152.712,67.944 152.632,68.152 152.672,68.168 C152.712,68.184 152.84,68.008 152.968,67.768 C153.096,67.528 153.168,67.32 153.136,67.296 Z" id="Path" fill="#464749"></path>
                    <circle id="Oval" fill="#D6770F" cx="140.08" cy="60.392" r="1"></circle>
                    <circle id="Oval" fill="#D6770F" cx="139.568" cy="60.736" r="1"></circle>
                    <path d="M141.016,61.88 C140.945206,61.9235676 140.852544,61.9021841 140.808,61.832 C140.77799,61.78627 140.774656,61.7280034 140.799254,61.6791487 C140.823852,61.6302941 140.872645,61.5982734 140.927254,61.5951487 C140.981862,61.5920241 141.03399,61.61827 141.064,61.664 C141.108388,61.7372427 141.087231,61.8324503 141.016,61.88 Z" id="Path" fill="#D6770F"></path>
                    <circle id="Oval" fill="#D6770F" cx="140.752" cy="61.056" r="1"></circle>
                    <circle id="Oval" fill="#D6770F" cx="141.776" cy="61.208" r="1"></circle>
                    <path d="M142.6,62.84 C142.53497,62.8828337 142.450509,62.8821482 142.386183,62.8382646 C142.321857,62.794381 142.290407,62.7159911 142.306565,62.6398168 C142.322723,62.5636426 142.38329,62.5047713 142.459892,62.4907816 C142.536494,62.4767919 142.61396,62.5104544 142.656,62.576 C142.712757,62.6644909 142.687795,62.7821716 142.6,62.84 Z" id="Path" fill="#D6770F"></path>
                    <path d="M141.84,62.176 C141.797088,62.2156429 141.730912,62.2156429 141.688,62.176 C141.666945,62.1563324 141.654993,62.1288117 141.654993,62.1 C141.654993,62.0711883 141.666945,62.0436676 141.688,62.024 C141.707668,62.0029453 141.735188,61.990993 141.764,61.990993 C141.792812,61.990993 141.820332,62.0029453 141.84,62.024 C141.879643,62.0669123 141.879643,62.1330877 141.84,62.176 L141.84,62.176 Z" id="Path" fill="#D6770F"></path>
                    <path d="M142.848,62.08 C142.808969,62.1072328 142.760573,62.1174977 142.713848,62.1084541 C142.667122,62.0994105 142.626051,62.0718293 142.6,62.032 C142.546981,61.9502619 142.570262,61.8410194 142.652,61.788 C142.733738,61.7349807 142.842981,61.7582619 142.896,61.84 C142.922875,61.8777538 142.932961,61.9249321 142.923873,61.9703746 C142.914784,62.015817 142.887328,62.0554869 142.848,62.08 Z" id="Path" fill="#D6770F"></path>
                    <path d="M142.616,61.68 C142.599375,61.6976166 142.576223,61.7076013 142.552,61.7076013 C142.527777,61.7076013 142.504625,61.6976166 142.488,61.68 C142.470383,61.6633747 142.460399,61.6402229 142.460399,61.616 C142.460399,61.5917771 142.470383,61.5686253 142.488,61.552 C142.524442,61.5194056 142.579558,61.5194056 142.616,61.552 C142.633617,61.5686253 142.643601,61.5917771 142.643601,61.616 C142.643601,61.6402229 142.633617,61.6633747 142.616,61.68 L142.616,61.68 Z" id="Path" fill="#D6770F"></path>
                    <path d="M140.368,61.768 C140.318235,61.801212 140.257252,61.8131356 140.198643,61.8011133 C140.140034,61.7890909 140.088671,61.7541218 140.056,61.704 C139.986031,61.5978193 140.014574,61.4551017 140.12,61.384 C140.226181,61.3140306 140.368898,61.3425742 140.44,61.448 C140.475136,61.4993414 140.487337,61.5629825 140.47368,61.623678 C140.460024,61.6843736 140.42174,61.7366557 140.368,61.768 Z" id="Path" fill="#D6770F"></path>
                    <path d="M143.712,64.672 L149.144,63.512 C149.816487,63.4783933 150.462531,63.7774874 150.872,64.312 L151,64.872 L145.344,66.872 L144.272,67.248 L143.712,64.672 Z" id="Path" fill="#EDBC9C"></path>
                    <path d="M140.112,68 C140.112,68 144.552,67.472 145.712,66.72 C146.872,65.968 144.64,64.464 144.64,64.464 L140.136,64.816 L140.112,68 Z" id="Path" fill="#EDBC9C"></path>
                    <path d="M139.672,65.096 L142.752,64.624 C141.790661,65.0695462 140.722645,65.2332161 139.672,65.096 L139.672,65.096 Z" id="Path" fill="#D69770"></path>
                    <path d="M147.352,63.896 C147.352,63.896 147.76,64.936 147.976,65.016 C148.192,65.096 147.368,64.952 147.352,63.896 Z" id="Path" fill="#D69770"></path>
                    <path d="M143.712,64.672 C143.712,64.672 143.76,65.776 144.112,65.984" id="Path" fill="#D69770"></path>
                    <path d="M145.456,61.456 C145.456,61.456 145.512,62.176 145.776,62.408" id="Path" fill="#D69770"></path>
                    <path d="M142.656,63.248 C142.656,63.248 142.704,63.936 142.56,64.048" id="Path" fill="#D69770"></path>
                    <path d="M160.099971,67.328 C159.351594,64.5516615 160.097831,61.5884566 162.074263,59.4883583 C162.940835,58.4777511 164.046614,57.6965491 165.292358,57.2148622 C166.694105,56.6660873 168.313025,56.9208756 169.240942,55.5881365 C171.86675,52.1974915 166.299247,47.023328 163.851125,45.2594086 C161.403003,43.4954892 158.06645,42.8095206 155.578843,40.9672048 C149.498024,36.4594108 150.070569,25.2879214 158.263879,23.7983894 C166.45719,22.3088575 192.419127,23.7983894 190.385606,36.5182081 C189.832805,40.065646 187.108282,43.2603 185.153733,46.1805665 C180.691834,52.7658655 175.282274,61.8598499 166.45719,62.5850168 C158.658738,63.0945935 160.099971,67.328 160.099971,67.328 Z" id="Path" fill="#E6ABB5"></path>
                </g>
            </g>
        </g>
    </g>
</svg>