<?xml version="1.0" encoding="UTF-8"?>
<svg width="300px" height="300px" viewBox="0 0 300 300" version="1.1" xmlns="http://www.w3.org/2000/svg" xmlns:xlink="http://www.w3.org/1999/xlink">
    <title>Group 4</title>
    <g id="Page-1" stroke="none" stroke-width="1" fill="none" fill-rule="evenodd">
        <g id="For-you-and-your-partner-Copy-4" transform="translate(-57.000000, -1998.000000)">
            <g id="Group-4" transform="translate(57.000000, 1998.000000)">
                <circle id="Mask-Copy-2" fill="#E13856" opacity="0.0770321801" cx="150" cy="150" r="150"></circle>
                <g id="Asset-32" transform="translate(48.000000, 15.000000)" fill-rule="nonzero">
                    <path d="M103.392,233.064 C46.3157632,233.002272 0.061727927,186.748237 0,129.672 C0,72.664 46.4,26.288 103.392,26.288 C160.384,26.288 206.784,72.688 206.784,129.672 C206.722272,186.748237 160.468237,233.002272 103.392,233.064 L103.392,233.064 Z M103.392,40.992 C67.5195966,40.9887643 35.1777723,62.5957158 21.4485031,95.7368761 C7.71923394,128.878036 15.3064944,167.026266 40.6721142,192.391886 C66.0377339,217.757506 104.185964,225.344766 137.327124,211.615497 C170.468284,197.886228 192.075236,165.544403 192.072,129.672 C192.005897,80.7227953 152.341205,41.058103 103.392,40.992 Z" id="Shape" fill="#D61335"></path>
                    <g id="freepik--Hand--inject-169" transform="translate(7.200000, 0.000000)">
                        <path d="M0.72,88.552 C0.56,89 6.208,97.768 9.36,101.792 C11.688,104.8 19.016,113.064 21.872,119.2 C24.728,125.336 28.616,135.04 32.56,142.08 C36.504,149.12 44.536,162.4 49.6,167.072 C55.24,172.312 55.76,172.568 59.608,177.704 C62.32,184.264 66.008,192.504 67.872,199.208 C69.736,205.912 69.56,211.056 69.08,217.608 C88.784,216.528 108.64,215.584 128.328,214.504 C128,204 126.096,192.8 127.152,182.4 C128.208,172 132.456,161.184 134.64,151.432 C136.824,141.68 139.344,132.728 143.68,124.312 C148.016,115.896 153.56,109.392 157.536,100.928 C161.408,89.6 160.92,77.48 164.528,66.048 C162.736,63.768 164.312,61.92 160.392,60.448 C156.472,58.976 149.808,60.992 148.6,67.888 C147.392,74.784 143.96,89.392 140.64,94.352 C137.32,99.312 138.24,99.784 134.288,100.632 C137.192,91.464 140.808,86.664 144.344,77.056 C147.88,67.448 154.312,43.456 156.56,35.528 C158.808,27.6 159.576,28.592 155.6,24.992 C150.136,20.04 145,24.192 141.448,31.24 C137.896,38.288 133.6,54.792 131.544,61.696 C129.488,68.6 125.056,78.144 122.448,80.592 C119.84,83.04 117.384,84.312 118.52,78.096 C119.656,71.88 127.752,61.936 129.04,49.904 C130.328,37.872 124.8,15 122.92,0.96 C117.136,-0.936 113.656,-0.544 110.92,6.952 C108.184,14.448 111.512,33.296 111.312,40.392 C111.112,47.488 110.832,45.84 109.928,51.456 C109.024,57.072 105.688,73.856 102.096,76.792 C98.504,79.728 94.744,78.72 97.352,71.48 C99.96,64.24 104.96,42.776 103.6,32.504 C102.24,22.232 100.728,14.4 99.504,4.448 C91.352,5.408 87.392,5.656 84.944,16.616 C83.128,24.752 84.584,34.288 82.944,47.336 C81.824,56.2 75.968,76.568 70.904,88.488 C65.84,100.408 61.592,115.688 44.448,112.232 C37.96,105.224 34.784,100.8 28.696,92 C22.608,83.2 7.32,69.664 0.72,88.552 Z" id="Path" fill="#EDBC9C"></path>
                        <g id="Group" opacity="0.3" transform="translate(0.000000, 83.200000)" fill="#FFFFFF">
                            <path d="M7.824,14.744 C10.592,13.992 14,13.144 15.288,10.344 C16.4,7.944 15.216,5.704 14.064,3.576 C13.5232672,2.49116996 12.6925395,1.57736949 11.664,0.936 C10.511304,0.276265878 9.16667677,0.0333290277 7.856,0.248 C5.26467277,0.606885813 2.91772709,1.96851647 1.32,4.04 C1.168,4.24 0.944,4.592 0.784,4.84 C3.128,8.104 5.464,11.408 7.824,14.744 Z" id="Path"></path>
                        </g>
                        <path d="M23.2,100.592 C23.2096847,101.157583 23.053977,101.713682 22.752,102.192 C22.126616,103.50039 21.2452459,104.67011 20.16,105.632 C19.0497041,106.542916 17.7686441,107.222884 16.392,107.632 C15.84,107.8 15.064,107.968 14.752,107.76 C14.712,107.76 15.664,107.52 16.448,107.272 C18.9265869,106.274717 21.0150094,104.500681 22.4,102.216 C22.776,101.472 23.2,100.552 23.2,100.592 Z" id="Path" fill="#D69770"></path>
                        <path d="M23.504,106.48 C22.0852035,108.720771 19.9640438,110.428389 17.472,111.336 C18.176,110.44 19.768,109.84 20.672,109.128 C21.576,108.416 22.472,106.96 23.504,106.48 Z" id="Path" fill="#D69770"></path>
                        <path d="M61.688,107.2 C61.6075011,107.515152 61.5004518,107.822919 61.368,108.12 C60.992,108.992 60.848,109.392 60.336,110.52 C59.304,112.736 57.936,115.544 56.664,117.84 C55.392,120.136 53.872,122.84 52.552,124.888 C51.888,125.896 51.664,126.248 51.12,127.008 C50.9438403,127.291741 50.7430667,127.559439 50.52,127.808 C50.6426537,127.516064 50.7898479,127.235056 50.96,126.968 C51.464,126.168 51.672,125.784 52.28,124.776 C53.568,122.616 55,120.016 56.28,117.656 C57.56,115.296 58.864,112.76 60.096,110.328 C60.464,109.608 60.896,108.8 61.216,108.088 C61.3434317,107.77705 61.501547,107.479579 61.688,107.2 L61.688,107.2 Z" id="Path" fill="#D69770"></path>
                        <path d="M99.512,51.584 C99.32,51.896 98.656,52.088 98.168,52.216 C96.9603735,52.5177416 95.7156508,52.6443692 94.472,52.592 C93.2504903,52.5523686 92.0432069,52.3173939 90.896,51.896 C90.424,51.712 89.856,51.392 89.768,51.032 C89.768,50.976 90.568,51.456 91.112,51.64 C92.219187,51.9431206 93.357063,52.1202428 94.504,52.168 C95.6771554,52.2093079 96.8514326,52.1288779 98.008,51.928 C98.5012217,51.7803789 99.0036463,51.6654626 99.512,51.584 L99.512,51.584 Z" id="Path" fill="#D69770"></path>
                        <path d="M100.512,50.112 C99.0230139,49.6088117 97.4913828,49.24197 95.936,49.016 C94.33796,48.9040009 92.73404,48.9040009 91.136,49.016 C94.384,48.448 97.28,49.936 100.488,50.12 C100.52,50.136 100.536,50.12 100.512,50.112 Z" id="Path" fill="#D69770"></path>
                        <path d="M101.112,47 C101.112,47.048 100.232,46.488 99.424,46.056 C97.304,44.936 93.24,44.896 91.008,45.792 C90.16,46.136 89.288,46.64 89.2959454,46.592 C89.6815119,46.1452759 90.1742844,45.803914 90.728,45.6 C92.1532084,44.9780326 93.6930208,44.6618941 95.248,44.672 C96.7972853,44.7368515 98.3120833,45.1497297 99.68,45.88 C100.24,46.184 101.008,46.624 101.112,47 Z" id="Path" fill="#D69770"></path>
                        <g id="Group" opacity="0.3" transform="translate(90.400000, 4.000000)" fill="#FFFFFF">
                            <path d="M10.648,11.816 C8.392,13.048 5.896,14.488 3.328,13.52 C1.392,12.792 0.64,10.992 0.472,9.08 C0.256,6.592 0.792,4.104 1.272,1.664 C3.816,0.528 6.424,-0.184 9.144,0.6 C9.6,4.344 10.144,8.064 10.648,11.816 Z" id="Path"></path>
                        </g>
                        <g id="Group" opacity="0.3" transform="translate(114.400000, 0.000000)" fill="#FFFFFF">
                            <path d="M1.096,3.328 C0.296,4.488 0.296,6.92 0.616,8.568 C0.936,10.216 1.168,11.912 2.88,13.008 C4.592,14.104 8.056,13.56 9.72,12.264 C9.024,8.512 8.92,4.616 8.528,0.792 C5.512,0.264 3.08,0.512 1.096,3.328 Z" id="Path"></path>
                        </g>
                        <path d="M100.312,86.4 C99.815431,86.1760209 99.3650471,85.8612948 98.984,85.472 C98.0614685,84.5397568 97.3208159,83.4436995 96.8,82.24 C96.290724,80.9668798 96.0195607,79.6110632 96,78.24 C95.9687264,77.6552331 96.0308385,77.0692185 96.184,76.504 C96.1029549,80.2371876 97.6020836,83.8310291 100.312,86.4 L100.312,86.4 Z" id="Path" fill="#D69770"></path>
                        <g id="Group" opacity="0.3" transform="translate(148.000000, 22.400000)" fill="#FFFFFF">
                            <path d="M1.4,2.352 C0.144,4.84 -0.576,7.272 0.76,9.84 C1.92602627,12.4012878 4.90037336,13.5924362 7.512,12.544 C8.416,10.144 9.272,7.744 10.16,5.288 C9.208,1.928 5.744,0.88 2.712,0.232 C2.4,0.872 1.704,1.752 1.4,2.352 Z" id="Path"></path>
                        </g>
                        <g id="Group" opacity="0.3" transform="translate(156.800000, 60.000000)" fill="#FFFFFF">
                            <path d="M5.784,12.544 C3.664,11.592 1.096,10.704 0.52,8.064 C-0.056,5.424 2.232,2.272 4.048,0.464 C6.096,1.728 6.984,3.848 7.64,6.064 C6.984,8.208 6.4,10.352 5.784,12.544 Z" id="Path"></path>
                        </g>
                        <path d="M99.056,16.28 C98.9648435,16.487474 98.8375295,16.6770907 98.68,16.84 C98.2632584,17.2953621 97.749166,17.6508516 97.176,17.88 C96.3038042,18.2175615 95.3495404,18.2817371 94.44,18.064 C93.4015832,17.7902904 92.4770625,17.1935543 91.8,16.36 C91.1492788,15.5269909 90.7150153,14.5457753 90.536,13.504 C90.4003726,12.634591 90.4003726,11.749409 90.536,10.88 C90.6037595,10.304554 90.7352324,9.73841568 90.928,9.192 C90.984,9.024 91.08,8.352 91.184,8.688 C91.288,9.024 90.912,10.008 90.824,11.032 C90.6767979,12.8181277 91.1485263,14.6005266 92.16,16.08 C92.78118,16.8422364 93.6174818,17.3997709 94.56,17.68 C95.3888123,17.8887569 96.2598278,17.8582436 97.072,17.592 C97.8218952,17.3061344 98.4993731,16.8581249 99.056,16.28 L99.056,16.28 Z" id="Path" fill="#D69770"></path>
                        <path d="M100.256,18.72 C98.3241555,19.5154202 96.2961057,20.0533645 94.224,20.32 C95.1648968,19.8846444 96.1489777,19.549467 97.16,19.32 C98.1662422,19.0045627 99.2047695,18.8032977 100.256,18.72 L100.256,18.72 Z" id="Path" fill="#D69770"></path>
                        <g id="Group" opacity="0.3" transform="translate(44.000000, 106.400000)" fill="#D69770">
                            <path d="M0.352,5.84 C2.144,7.352 3.96,8.04 6.064,9.112 C9.912,11.072 14.176,8.24 15.664,5.632 C16.64,3.896 15.312,6.352 15.928,5.152 C16.6405126,3.60448525 17.218642,1.9985704 17.656,0.352 C15.52,2.792 13.304,4.88 10.12,5.952 C6.936,7.024 3.608,6.608 0.392,5.904 L0.352,5.84 Z" id="Path"></path>
                        </g>
                        <g id="Group" opacity="0.3" transform="translate(96.000000, 73.600000)" fill="#D69770">
                            <path d="M7.136,2.656 C6.48044892,5.09377992 5.64344664,7.47910271 4.632,9.792 C4.32,10.464 3.976,11.248 3.168,11.392 C2.36,11.536 1.84,10.768 1.496,9.984 C0.219403587,7.07857127 -0.154098456,3.85641932 0.424,0.736 C0.312,2.712 1.144,4.24 3.184,4.6 L3.264,4.6 C4.728,4.528 6.568,4.272 7.136,2.656 Z" id="Path"></path>
                        </g>
                        <path d="M93.88,91.152 C94.024,90.72 93.976,91.544 93.984,91.728 C94.0129338,92.3592295 93.9780906,92.9917676 93.88,93.616 C93.2139611,97.837889 90.7664931,101.570278 87.16,103.864 C86.6250369,104.1908 86.0564226,104.459014 85.464,104.664 C85.272,104.736 84.664,105.072 84.936,104.736 C85.008,104.632 86.088,104.16 87.192,103.464 C90.096,101.632 92.976,97.216 93.592,93.728 C93.776,92.408 93.728,91.584 93.88,91.152 Z" id="Path" fill="#D69770"></path>
                        <g id="Group" opacity="0.3" transform="translate(86.400000, 94.400000)" fill="#D69770">
                            <path d="M0.104,9.8 C1.41950739,10.4766949 3.00108839,10.3720767 4.216,9.528 C7.416,7.296 8.32,4.12 7.36,0.392 C6.50724507,2.15837254 5.54261751,3.86851558 4.472,5.512 C3.37460036,7.11953219 1.95529634,8.48162817 0.304,9.512 L0.104,9.8 Z" id="Path"></path>
                        </g>
                        <path d="M118.152,97.008 C118.312,96.608 118.28,97.4 118.304,97.576 C118.373284,98.1980768 118.373284,98.8259232 118.304,99.448 C117.776,103.8 116.304,107.2 112.704,109.848 C112.181954,110.192308 111.627279,110.484383 111.048,110.72 C110.864,110.8 110.296,111.144 110.512,110.808 C110.584,110.704 111.656,110.208 112.696,109.472 C115.44,107.52 117.672,102.976 117.984,99.576 C117.995273,98.7176597 118.051349,97.8604932 118.152,97.008 Z" id="Path" fill="#D69770"></path>
                        <g id="Group" opacity="0.3" transform="translate(112.000000, 100.000000)" fill="#D69770">
                            <path d="M0.112,10.216 C1.43238478,10.8022005 2.96779346,10.6179515 4.112,9.736 C7.112,7.336 7.496,4.136 6.24,0.648 C5.56998987,2.41021533 4.80623294,4.13534461 3.952,5.816 C3.0639197,7.4743429 1.79096758,8.8954403 0.24,9.96 L0.112,10.216 Z" id="Path"></path>
                        </g>
                        <path d="M133.44,108.656 C133.656,108.264 133.528,109.048 133.528,109.232 C133.540683,109.854971 133.48434,110.477432 133.36,111.088 C132.368,115.544 130.16,118.432 126.096,120.48 C125.525277,120.738185 124.930369,120.939167 124.32,121.08 C124.144,121.12 123.392,121.432 123.736,121.128 C124.08,120.824 124.888,120.72 126.136,120.128 C129.615193,118.278927 132.136796,115.029379 133.064,111.2 C133.336,109.864 133.224,109.056 133.44,108.656 Z" id="Path" fill="#D69770"></path>
                        <g id="Group" opacity="0.3" transform="translate(124.800000, 112.000000)" fill="#D69770">
                            <path d="M0.6,8.736 C1.88041915,9.52516513 3.48468885,9.57091426 4.808,8.856 C8.368,6.984 9.24,3.992 8.408,0.208 C7.5267204,1.88441374 6.51563546,3.48931046 5.384,5.008 C4.11340558,6.46264552 2.55177223,7.63455188 0.8,8.448 L0.6,8.736 Z" id="Path"></path>
                        </g>
                        <g id="Group" opacity="0.3" transform="translate(89.600000, 51.200000)" fill="#D69770">
                            <path d="M0.648,0.232 C1.65624076,1.84967606 3.39228552,2.87158192 5.296,2.968 C7.13227976,3.10118125 8.90840522,2.28259281 10,0.8 C7.82322699,1.23755807 5.59337792,1.34810681 3.384,1.128 C2.42809971,1.13687375 1.49644757,0.827261251 0.736,0.248 L0.648,0.232 Z" id="Path"></path>
                        </g>
                        <path d="M125.816,55.112 C125.6,55.424 124.872,55.504 124.384,55.592 C123.137472,55.7358884 121.878528,55.7358884 120.632,55.592 C119.440451,55.4119 118.281569,55.0588453 117.192,54.544 C116.632,54.28 115.888,53.744 116.048,53.576 C116.208,53.408 116.76,54.04 117.328,54.256 C118.414395,54.6652402 119.540475,54.960166 120.688,55.136 C121.86933,55.2748771 123.060578,55.3096776 124.248,55.24 C124.765797,55.1506055 125.29056,55.1077677 125.816,55.112 L125.816,55.112 Z" id="Path" fill="#D69770"></path>
                        <path d="M126.984,53.768 C125.531678,53.1192811 124.031166,52.5843392 122.496,52.168 C120.929408,51.8710034 119.338495,51.7210183 117.744,51.72 C120.974507,51.107969 124.31464,51.8482931 126.984,53.768 Z" id="Path" fill="#D69770"></path>
                        <path d="M127.936,50.608 C127.936,50.648 127.176,49.976 126.408,49.488 C123.816927,48.1307615 120.82426,47.7502897 117.976,48.416 C117.112,48.696 116.144,49.128 116.16,49.088 C116.312,48.704 117.104,48.352 117.712,48.152 C119.202638,47.6695666 120.776955,47.5006952 122.336,47.656 C123.899603,47.8297967 125.398093,48.3786942 126.704,49.256 C127.248,49.6 127.904,50.232 127.936,50.608 Z" id="Path" fill="#D69770"></path>
                        <g id="Group" opacity="0.3" transform="translate(116.000000, 53.600000)" fill="#D69770">
                            <path d="M0.488,0.4 C1.32035876,2.1508124 2.97034592,3.3718029 4.888,3.656 C6.872,4 8.44,3.232 9.88,1.912 C7.64977738,2.12419004 5.40073512,2.01914495 3.2,1.6 C2.24584687,1.48125173 1.35171304,1.070509 0.64,0.424 L0.488,0.4 Z" id="Path"></path>
                        </g>
                        <path d="M141.44,78.4 C140.963247,78.5325775 140.462504,78.5544679 139.976,78.464 C138.846847,78.3062914 137.759629,77.9284831 136.776,77.352 C135.788233,76.7747473 134.917236,76.0177131 134.208,75.12 C133.904,74.744 133.528,74.12 133.6,73.792 C133.6,73.744 134.128,74.536 134.488,74.952 C135.966324,76.5592052 137.90085,77.6758149 140.032,78.152 C140.504,78.208 141.008,78.28 141.44,78.4 Z" id="Path" fill="#D69770"></path>
                        <path d="M142.8,77.296 C141.731238,76.227134 140.581116,75.242844 139.36,74.352 C138.116533,73.6023412 136.82279,72.9394315 135.488,72.368 C138.499559,72.93464 141.144528,74.7172445 142.8,77.296 L142.8,77.296 Z" id="Path" fill="#D69770"></path>
                        <path d="M144.616,74.552 C144.616,74.6 143.992,73.544 143.624,72.952 C142.774718,71.8367971 141.724738,70.8899155 140.528,70.16 C139.294683,69.5531619 137.955184,69.1917962 136.584,69.096 C135.92,69.096 134.776,69.208 134.816,69.168 C135.304876,68.8461134 135.889545,68.7020646 136.472,68.76 C139.495565,68.7720019 142.307601,70.3135037 143.944,72.856 C144.330278,73.3427352 144.564072,73.9327863 144.616,74.552 L144.616,74.552 Z" id="Path" fill="#D69770"></path>
                        <g id="Group" opacity="0.3" transform="translate(133.600000, 74.400000)" fill="#D69770">
                            <path d="M0.28,0 C0.420270263,1.9177272 1.43905552,3.66295064 3.04,4.728 C4.712,5.784 6.112,5.272 7.704,4.376 C5.71493285,3.99528019 3.82853869,3.19928728 2.168,2.04 C1.37888883,1.57221811 0.761674915,0.86242211 0.408,0.016 L0.28,0 Z" id="Path"></path>
                        </g>
                        <path d="M156.136,100.728 C155.668825,100.791019 155.193497,100.750043 154.744,100.608 C153.675086,100.290818 152.652871,99.8335114 151.704,99.248 C150.697625,98.6125528 149.796188,97.8244702 149.032,96.912 C148.712,96.536 148.336,95.96 148.424,95.616 C148.424,95.568 148.928,96.416 149.296,96.8 C150.068275,97.60323 150.932964,98.3121677 151.872,98.912 C152.799216,99.4766751 153.779986,99.948302 154.8,100.32 C155.2,100.464 155.72,100.568 156.136,100.728 Z" id="Path" fill="#D69770"></path>
                        <path d="M157.312,99.864 C156.2,98.824 155.088,97.624 153.904,96.664 C152.723969,95.8137963 151.471093,95.0695666 150.16,94.44 C153.36,95.368 155.36,97.264 157.312,99.864 Z" id="Path" fill="#D69770"></path>
                        <path d="M158.784,97.416 C158.784,97.464 158.152,96.488 157.664,95.816 C156.376,94.056 152.96,91.936 150.816,91.672 C150.016,91.576 149.216,91.592 149.216,91.56 C149.632215,91.3037276 150.135051,91.2285913 150.608,91.352 C153.537327,91.7727151 156.176314,93.3486173 157.936,95.728 C158.363562,96.2053707 158.656261,96.7880077 158.784,97.416 L158.784,97.416 Z" id="Path" fill="#D69770"></path>
                        <g id="Group" opacity="0.3" transform="translate(148.000000, 96.000000)" fill="#D69770">
                            <path d="M0.624,0.184 C0.874515153,2.06165639 1.90952735,3.74500487 3.472,4.816 C5.024,5.904 6.376,5.816 8.008,5.08 C6.05256203,4.46074105 4.21403162,3.51984607 2.568,2.296 C1.77112998,1.79666551 1.13291349,1.0807531 0.728,0.232 L0.624,0.184 Z" id="Path"></path>
                        </g>
                        <path d="M123.144,13.36 C123.424,13.464 122.824,13.568 122.656,13.624 C122.111223,13.8271845 121.544805,13.9667759 120.968,14.04 C120.062529,14.1428609 119.145852,14.0777713 118.264,13.848 C117.331768,13.61006 116.504661,13.0699085 115.912,12.312 C115.360263,11.4982815 114.979253,10.5811362 114.792,9.616 C114.627667,8.80268715 114.555212,7.97348846 114.576,7.144 C114.579408,6.37563725 114.67339,5.61035542 114.856,4.864 C114.928,5.608 114.856,6.368 114.856,7.112 C114.870694,8.84998102 115.345459,10.5530624 116.232,12.048 C116.760021,12.7939715 117.523642,13.3406232 118.4,13.6 C119.204819,13.8179972 120.039588,13.9044458 120.872,13.856 C121.64,13.768 122.864,13.264 123.144,13.36 Z" id="Path" fill="#D69770"></path>
                        <path d="M157.728,29.096 C157.96,29.36 157.096,31.6 156.664,32.184 C156.417456,32.6981564 156.136831,33.1952637 155.824,33.672 C155.496,34.048 155.088,34.888 154.448,35.112 C152.916548,35.662656 151.206849,35.3378746 149.984,34.264 C148.776302,33.2559686 147.998165,31.8255691 147.808,30.264 C147.663896,29.0552626 147.820534,27.8296444 148.264,26.696 C148.574999,25.9325368 148.977976,25.2098653 149.464,24.544 C149.634545,24.3001263 149.83029,24.0748849 150.048,23.872 C149.475703,24.8032551 148.980712,25.7798591 148.568,26.792 C148.142149,27.9078688 148.009928,29.1143863 148.184,30.296 C148.399512,31.7212622 149.124261,33.0201248 150.224,33.952 C151.321022,34.9093424 152.843156,35.2137693 154.224,34.752 C154.832,34.544 155.176,33.848 155.536,33.432 C155.861266,32.9781673 156.150165,32.499344 156.4,32 C156.76,31.44 157.2,30.224 157.392,29.888 C157.584,29.552 157.496,28.8 157.728,29.096 Z" id="Path" fill="#D69770"></path>
                        <path d="M154.792,37.104 C151.528,36.848 149.368,35.448 147.472,32.816 C148.495882,33.8248508 149.609851,34.7379843 150.8,35.544 C152.063108,36.2226056 153.403454,36.746388 154.792,37.104 L154.792,37.104 Z" id="Path" fill="#D69770"></path>
                        <path d="M161.784,72.376 C161.590325,72.4037881 161.393675,72.4037881 161.2,72.376 C160.67218,72.258037 160.168754,72.0496292 159.712,71.76 C159.031646,71.338298 158.456945,70.7663338 158.032,70.088 C157.5609,69.2945695 157.299366,68.3943441 157.272,67.472 C157.279519,65.8475121 157.784893,64.2643796 158.72,62.936 C159.088,62.384 159.616,61.696 160.016,61.576 C160.016,61.576 159.344,62.584 158.92,63.176 C158.147844,64.4665803 157.725936,65.9363621 157.696,67.44 C157.752306,68.2818615 157.992622,69.1011195 158.4,69.84 C158.780701,70.4674455 159.284077,71.0116352 159.88,71.44 C160.473106,71.8302574 161.112749,72.1447039 161.784,72.376 Z" id="Path" fill="#D69770"></path>
                        <path d="M12.752,85.504 C12.911941,85.8066746 13.0882005,86.1004405 13.28,86.384 C13.688,87.024 14.32,87.816 14.88,88.504 C15.2833003,88.9950383 15.6270275,89.5321119 15.904,90.104 C16.2467136,90.7659162 16.3779594,91.5170889 16.28,92.256 C15.897315,93.8981895 14.7870557,95.2764425 13.264,96 C12.5229934,96.3964093 11.7619765,96.7542207 10.984,97.072 C10.2537349,97.4077548 9.45975105,97.5823767 8.656,97.584 C7.90907717,97.5301944 7.20829466,97.2025928 6.688,96.664 C6.22139942,96.2164561 5.83213355,95.6947317 5.536,95.12 C5.14069526,94.3598248 4.70266073,93.6226448 4.224,92.912 C3.992,92.608 3.552,92.168 3.576,92.168 C3.816,92.168 4.104,92.488 4.32,92.744 C4.88390064,93.448436 5.38956795,94.1975727 5.832,94.984 C6.13286188,95.5112552 6.51334605,95.9888843 6.96,96.4 C7.42333816,96.876477 8.04847671,97.1619284 8.712,97.2 C9.45504345,97.1845089 10.1861336,97.0099202 10.856,96.688 C11.615239,96.3780015 12.357603,96.0281824 13.08,95.64 C13.7934622,95.2476037 14.4346779,94.7362545 14.976,94.128 C15.4640403,93.5718802 15.7783348,92.8848825 15.88,92.152 C16.04,90.816 15.28,89.616 14.64,88.68 C14,87.744 13.6,87.288 13.096,86.4 C12.9397386,86.1190104 12.8239292,85.8173672 12.752,85.504 L12.752,85.504 Z" id="Path" fill="#D69770"></path>
                        <g id="Group" opacity="0.3" transform="translate(116.800000, 79.200000)" fill="#D69770">
                            <path d="M1.272,0.16 C0.36,3.544 0.4,6.432 1.968,9.568 C2.112,9.864 2.368,10.112 2.608,10.04 C2.848,9.968 2.856,9.792 2.928,9.6 C3.88,7.032 4.848,4.432 5.824,1.88 C4.984,2.576 3.768,3.304 2.688,2.68 C1.608,2.056 1.464,1.288 1.28,0.16 L1.272,0.16 Z" id="Path"></path>
                        </g>
                        <path d="M119.32,90.128 C118.958217,89.7471956 118.670633,89.3022544 118.472,88.816 C117.371913,86.3977715 117.045035,83.6989335 117.536,81.088 C117.624,80.552 117.744,79.432 118,79.784 C118.072,79.872 117.552,83.784 117.712,85.168 C118.037086,86.8824267 118.577359,88.5489419 119.32,90.128 L119.32,90.128 Z" id="Path" fill="#D69770"></path>
                        <path d="M61.488,274.4 C60.1013333,250.629333 58.7146667,226.861333 57.328,203.096 C82.576,201.08 107.821333,199.04 133.064,196.976 C133.757333,211.824 134.541333,226.672 135.416,241.52 L61.488,274.4 Z" id="Path" fill="#00A2FE"></path>
                        <polygon id="Path" fill="#4D5A64" points="103.44 240 103.44 240 103.168 239.344"></polygon>
                        <path d="M108.168,239.488 C108.168,239.592 108.168,239.616 108.232,239.552 C108.296,239.488 108.136,239.376 108.168,239.488 Z" id="Path" fill="#4D5A64"></path>
                        <path d="M95.488,247.08 C95.488,247.08 95.488,247.224 95.488,247.216 C95.488,247.208 95.496,247.096 95.488,247.08 Z" id="Path" fill="#4D5A64"></path>
                        <path d="M73.6,259.84 L73.6,259.84 C73.6,259.84 73.44,259.736 73.488,259.72 C73.536,259.704 73.6,259.816 73.6,259.84 Z" id="Path" fill="#4D5A64"></path>
                        <path d="M73.44,259.376 C73.584,259.464 73.576,259.688 73.6,259.792 C73.656,260.032 74.008,260.048 73.968,259.888 C73.872,259.568 73.6,259.624 73.44,259.376 Z" id="Path" fill="#4D5A64"></path>
                        <path d="M61.264,267.608 C61.32,267.608 61.312,267.432 61.264,267.44 C61.216,267.448 61.208,267.608 61.264,267.608 Z" id="Path" fill="#4D5A64"></path>
                        <path d="M105.664,265.6 C105.664,265.6 105.664,265.704 105.664,265.704 C105.664,265.704 105.672,265.6 105.664,265.6 Z" id="Path" fill="#4D5A64"></path>
                        <path d="M63.496,266.96 L63.208,266.336 C63.2925087,266.549114 63.3886534,266.757427 63.496,266.96 L63.496,266.96 Z" id="Path" fill="#4D5A64"></path>
                        <path d="M103.2,239.328 C103.28,239.328 103.2,239.056 103.112,239.096 C103.024,239.136 103.088,239.368 103.2,239.328 Z" id="Path" fill="#4D5A64"></path>
                        <polygon id="Path" fill="#4D5A64" points="112.104 238.064 112.36 238.528 112.36 238.528"></polygon>
                        <path d="M135.456,239.2 C135.456,239.12 135.384,239.04 135.344,238.96 L135.464,239.448 C135.48518,239.366278 135.482403,239.280187 135.456,239.2 Z" id="Path" fill="#4D5A64"></path>
                        <path d="M118.488,238.256 C118.488,238.088 118.488,238.136 118.392,238 C118.296,237.864 117.88,237.928 117.704,238.048 C117.808,238.304 117.928,238.576 118.04,238.848 C118.168,238.688 118.456,238.4 118.488,238.256 Z" id="Path" fill="#4D5A64"></path>
                        <path d="M132.24,253.376 L131.008,252.08 C132.256,251.048 133.816,251.28 134.744,249.92 C134.824,249.776 134.616,250.496 134.792,250.2 C135.664,248.752 135.592,248.528 137.936,250.2 C137.984,250.2 137.936,250.36 138.024,250.336 C138.112,250.312 138.024,250.024 138.28,250.336 L137.48,249.576 C137.528,249.072 137.408,248.44 137.72,248.016 C137.887776,248.224937 138.025138,248.456567 138.128,248.704 L138.808,248.12 C139.032,248.416 139.256,248.712 139.472,249.016 C139.4,248.488 138.552,246.56 139.632,247.2 C139.232,246.496 139.44,246.096 139.192,245.464 C139.336,245.68 139.496,245.888 139.656,246.096 C140.141411,245.591448 140.408682,244.916086 140.400205,244.216 C139.792,243.672 139.496,243.416 138.8,242.768 C137.983967,242.012978 137.212027,241.211655 136.488,240.368 C137.168,240.472 136.432,239.92 136.24,239.68 C136.28,239.8 136.32,239.936 136.352,240.056 C135.864,239.752 135.616,239.08 135.224,238.76 C135.144,238.688 135.264,239.04 135.32,238.984 C135.376,238.928 135.248,238.896 135.32,238.856 C135.392,238.816 135.44,239.152 135.448,239.216 C135.456,239.28 135.568,239.624 135.448,239.568 C135.328,239.512 135.536,239.504 135.448,239.456 C135.36,239.408 135.096,239.704 134.936,239.568 C134.766985,239.34482 134.654453,239.084075 134.608,238.808 C134.536,239.968 132.208,237.624 131.608,237.352 C130.864,236.736 131.032,237.752 130.328,237.624 C129.528,237.624 129.36,236.52 128.88,236.192 C128.4,235.864 129.2,236.992 129.208,237.128 C128.888,236.856 128.56,236.56 128.232,236.288 C128.448,235.976 128.112,235.656 127.936,235.4 C127.136,235.256 126.336,234.64 126.664,235.952 C126.216,235.696 125.68,235 125.176,234.904 C125.418557,235.122308 125.633488,235.369479 125.816,235.64 C125.312,235.16 125.768,235.808 125.936,235.96 C125.304,236.472 123.24,234.272 123.536,235.752 L123.392,235.44 C123.920875,236.47495 124.336611,237.563911 124.632,238.688 L124.208,238.208 L124.208,238.864 C123.985964,238.618558 123.817093,238.329843 123.712,238.016 C123.432,238.712 122.76,238.416 122.112,238.416 L124.208,241.568 C123.896,241.32 122.136,239.736 122.36,240.856 C122.111828,240.510835 121.844754,240.179663 121.56,239.864 C119.76,238.032 121.424,240.8 120.76,240.528 C120.472,240.4 120.064,239.768 119.776,239.536 C119.912,239.456 120.056,239.416 120.2,239.344 C119.555274,238.944457 118.954602,238.477864 118.408,237.952 L118.408,237.952 C118.464,237.952 118.544,238.072 118.536,238.112 C118.528,238.152 118.536,238.168 118.536,238.176 C118.344,238.528 118.928,239.216 118.376,239.456 C117.824,239.696 117.624,240.256 116.776,239.528 C116.896,239.984 117.064,240.424 117.208,240.872 L116.344,240.368 L115.864,239.36 C116.508393,238.942013 117.13057,238.490735 117.728,238.008 C117.666562,237.852521 117.597136,237.700318 117.52,237.552 C117.256,237.616 116.928,238.472 116.664,238.352 C116.087357,237.916829 115.680077,237.294596 115.512,236.592 C115.592,236.944 115.672,237.32 115.752,237.68 C114.616,238.36 114.008,238.288 112.728,237.96 C112.848,238.104 112.96,238.256 113.08,238.408 C112.912,239.008 112.728,238.936 112.384,238.408 C111.24631,238.568831 110.098661,238.190225 109.28,237.384 L109.744,238.616 C109.216,238.288 108.632,237.328 109.16,238.616 C109.12,238.84 109.112,239.096 109.056,239.304 C108.872,239.632 108.712,239.768 108.44,239.56 L108.44,239.56 C108.176,239.352 108.44,239.52 108.304,239.432 C108.168,239.344 108.384,239.536 108.304,239.504 C107.576,239.424 108.8,240.4 107.92,240.184 C107.52,239.784 108.296,241.4 108.056,241.648 C107.544,241.152 107.48,240.6 106.864,240.112 C106.248,239.624 106.304,241.024 105.96,241.504 C105.040657,240.663382 104.363778,239.591426 104,238.4 C104.225785,239.052788 104.328852,239.741715 104.304,240.432 C104.030272,240.00814 103.825086,239.543772 103.696,239.056 C103.04,238.688 103.64,239.552 103.456,239.856 C103.928,240.96 104.208,242.104 104.792,243.168 C104.877446,243.278835 104.973942,243.380693 105.08,243.472 C105.08,244.112 105.016,244.688 104.28,244.32 L103.992,243.72 L103.768,244.208 C103.632,243.952 103.496,243.688 103.352,243.408 L102.944,243.912 C102.984,244.04 103.12,243.912 103.112,244.12 C103.104,244.328 102.648,244.776 102.312,244.432 C102.227986,244.302362 102.160781,244.162577 102.112,244.016 C100.832,243.352 101.016,244.816 100.408,245.616 L100.072,244.704 C99.496,244.24 100.584,245.752 100.136,245.808 C99.944,245.456 99.752,245.104 99.568,244.752 C99.888,246.152 98.936,244.592 98.592,244.208 L99.392,245.56 C99.2181911,245.53885 99.046765,245.501351 98.88,245.448 C98.08,244.992 97.752,243.896 97.4,243.048 C97.504,243.456 97.6,243.848 97.696,244.288 L97.008,243.08 C97.448,244.424 96.824,243.08 96.744,243.88 C96.584,243.592 96.48,243.184 96.208,242.984 L96.544,245.016 C96.544,244.688 96.504,244.4 96.488,244.048 C96.768,244.888 97.112,244.96 97.376,245.984 C97.64,247.008 96.96,246.184 96.808,246.56 C96.768,246.392 96.736,246.152 96.704,245.952 C96.432,246.536 95.96,245.8 95.656,245.584 C95.864,245.792 96.272,246.384 96.208,246.6 C96.144,246.816 95.68,245.888 95.608,245.872 C95.72,246.056 96.488,247.912 95.72,247.472 C95.536,247.36 95.632,247.152 95.496,247.024 C95.496,247.112 95.632,247.68 95.384,247.336 C95.1263323,246.913887 94.9195591,246.462746 94.768,245.992 L95.2,247.376 C94.776,247.224 94.944,248.136 94.68,247.264 C94.6713921,247.160178 94.6713921,247.055822 94.68,246.952 L93.352,247.256 L92.64,246.344 C93,247.44 92.088,246.664 92.728,247.944 C91.928,247.28 92.064,248.52 91.288,246.976 C90.432,247.616 91.016,249.072 89.624,248.912 C88.624,247.888 88.264,248.112 87.08,248.528 C86.4571661,249.762631 85.7709168,250.964234 85.024,252.128 C83.008,250.528 83.912,253.432 82.208,252.928 C82.312,253.288 82.416,253.648 82.512,254.008 C81.392,253.208 81.136,254.56 79.904,253.92 C80.024,254.144 79.904,254.44 79.976,254.656 C80.048,254.872 80.4,255.136 80.488,255.456 C79.792,255.152 79.688,255.64 79.312,254.656 C79.312,254.656 79.312,254.536 79.312,254.512 C79,253.504 78.992,255.072 78.208,254.512 L79.008,255.76 L78.512,255.76 C78.512,255.656 78.512,255.552 78.512,255.448 C78.016,258.28 75.808,256.344 75.312,258.992 C74.84,257.728 75.312,259.6 74.56,258.344 C73.232,256.944 73.936,259.032 74.008,259.864 C74.036967,259.968043 74.080033,260.067633 74.136,260.16 L73.472,260.272 C72.784,258.256 73.872,261.912 73.344,260.272 C71.128,259.992 69.944,261.784 67.912,262.304 L68.256,262.776 C67.664,263.072 67.456,263.624 66.808,263.16 C66.16,262.696 66.68,264.76 66.664,264.936 C66.56,265.88 65.696,264.808 65.736,264.472 C65.6,265.04 66.032,266.64 65.12,266.424 C63.896,265.184 64.6,268.544 63.52,266.936 L63.608,267.104 C62.272,266.552 62.44,268.704 61.392,267.904 C61.344,267.864 61.32,267.688 61.304,267.616 C61.768,269.816 62.24,271.992 62.696,274.208 C63.936,276.104 65.096,278.52 66.344,280.296 C67.592,282.072 68.984,283.216 70.272,284.872 C71.296,283.856 72.312,282.888 73.328,281.888 L77.248,282.4 L83.848,278.04 C83.768,277.48 83.68,276.92 83.592,276.352 C85.992,277.424 86.56,274.896 88.888,275.328 C88.68,274.912 88.472,274.528 88.272,274.08 C88.72,273.896 88.952,274.448 89.224,274.72 C92.808,272.248 95.768,269.184 100.184,268.392 C100.944,268.824 101.656,268.224 102.392,268.744 C102.574947,267.255518 103.630219,266.020692 105.072,265.608 C105.076206,265.66125 105.076206,265.71475 105.072,265.768 L105.472,265.256 C105.5487,265.358873 105.610634,265.471968 105.656,265.592 C105.912,264.28 107.104,264.72 108.112,264.848 L108.112,265.008 C112.28,262.696 115.312,259.248 120.176,258.36 C122.984,258.8 124.248,256.088 127.032,256.144 C128.84,256.8 131.336,254.84 132.24,253.376 Z" id="Path" fill="#00A2FE"></path>
                        <path d="M138.136,248.704 L138.136,248.704 C138.304,249.128 138.288,249.048 138.136,248.704 Z" id="Path" fill="#4D5A64"></path>
                        <path d="M122.032,238.44 L122.072,238.44 C121.92,238.216 121.76,237.968 121.6,237.744 L122.032,238.44 Z" id="Path" fill="#4D5A64"></path>
                        <path d="M128.08,235.136 C128.011839,235.11248 127.936533,235.140085 127.899721,235.202084 C127.862909,235.264084 127.874721,235.343415 127.928,235.392 C128.056,235.488 128.192,235.2 128.08,235.136 Z" id="Path" fill="#4D5A64"></path>
                        <path d="M139.928,246.712 C140.072,246.712 139.752,246.104 139.664,246.112 C139.576,246.12 139.432,246.256 139.48,246.304 C139.528,246.352 139.784,246.688 139.928,246.712 Z" id="Path" fill="#4D5A64"></path>
                        <path d="M136.264,239.672 L136.12,239.208 C136.106848,239.375396 136.158385,239.541463 136.264,239.672 Z" id="Path" fill="#4D5A64"></path>
                        <path d="M99.2,269.096 C99.2,269.096 99.2,269.016 99.2,268.992 C99.2,268.968 99.2,269.104 99.2,269.096 Z" id="Path" fill="#4D5A64"></path>
                        <path d="M61.448,203.144 C61.1528643,203.417306 60.9920974,203.806069 61.008,204.208 C61.3251274,203.950537 61.4906607,203.550247 61.448,203.144 L61.448,203.144 Z" id="Path" fill="#606D74"></path>
                        <polygon id="Path" fill="#606D74" points="61 204.216 61 204.216 61.008 204.208"></polygon>
                        <path d="M81.424,278.936 C81.424,278.832 81.424,278.728 81.424,278.616 C81.4038851,278.721718 81.4038851,278.830282 81.424,278.936 L81.424,278.936 Z" id="Path" fill="#606D74"></path>
                        <path d="M86.272,201.952 C85.9774547,202.348675 85.8278023,202.83434 85.848,203.328 C86.1790666,202.950771 86.3333303,202.450142 86.272,201.952 L86.272,201.952 Z" id="Path" fill="#606D74"></path>
                        <path d="M109.224,199.352 C108.925332,199.64617 108.765427,200.0532 108.784,200.472 C109.110364,200.196905 109.275847,199.775678 109.224,199.352 L109.224,199.352 Z" id="Path" fill="#606D74"></path>
                        <path d="M131.592245,230.08 C131.688,230.696 103.592,234.424 97.304,235.352 C91.016,236.28 63.032,240.8 62.9437937,240.2 C62.856,239.6 90.944,235.864 97.24,234.928 C103.536,233.992 131.504,229.464 131.592245,230.08 Z" id="Path" fill="#2E353A"></path>
                        <path d="M109.512,266.032189 C108.872,266.088 107.84,253.672 107.504,250.904 C107.168,248.136 105.4,235.8 105.904,235.704 C106.408,235.608 107.56,248.056 107.896,250.816 C108.232,253.576 110.144,265.968 109.512,266.032189 Z" id="Path" fill="#2E353A"></path>
                        <path d="M114.872,267.784 C114.304,267.904 111.96,254.816 111.36,251.896 C110.76,248.976 107.712,236.04 108.248,235.896 C108.784,235.752 111.16,248.872 111.76,251.784 C112.36,254.696 115.44,267.664 114.872,267.784 Z" id="Path" fill="#2E353A"></path>
                        <path d="M74.984,224.696 C74.896,226.208 73.432,229.208 70.848,229.08 C68.264,228.952 66.504,227.48 66.216,224.872 C65.928,222.264 68.216,220.52 70.136,220.216 C71.424,220.016 69.112,220.28 70.624,220.216 C72.136,220.152 75.072,222.288 74.984,224.216 C74.92,225.528 75.08,223.2 74.984,224.696 Z" id="Path" fill="#DEDEDE"></path>
                        <path d="M70.864,229.44 C69.591518,229.516242 68.3420297,229.076291 67.3980317,228.219617 C66.4540338,227.362943 65.8952443,226.161888 65.848,224.888 C65.7422452,223.622144 66.1582783,222.368037 66.9996627,221.416381 C67.8410471,220.464726 69.0347244,219.898155 70.304,219.848 C71.5807357,219.76504 72.8369845,220.200416 73.7885747,221.055642 C74.7401648,221.910869 75.3066906,223.113683 75.36,224.392 L75.36,224.392 C75.4588712,225.663722 75.0352685,226.920825 74.1868965,227.873356 C73.3385244,228.825888 72.1386406,229.391596 70.864,229.44 L70.864,229.44 Z M70.352,220.64 C69.2966233,220.682144 68.3042693,221.153597 67.6049033,221.945104 C66.9055374,222.736611 66.5598681,223.779466 66.648,224.832 C66.6868686,225.891572 67.1524364,226.890428 67.9388892,227.60155 C68.7253421,228.312673 69.7658764,228.675655 70.824,228.608 C71.8813074,228.569859 72.8771861,228.101611 73.5810168,227.31169 C74.2848474,226.521768 74.6355822,225.478688 74.552,224.424 L74.552,224.424 C74.4272621,222.226311 72.5502932,220.542402 70.352,220.656 L70.352,220.64 Z" id="Shape" fill="#2E353A"></path>
                        <g id="Group" opacity="0.3" transform="translate(61.600000, 229.600000)" fill="#000000">
                            <path d="M0,10.976 C24.64,14.24 49.848,11.776 72.088,0.168 L0,10.976 Z" id="Path"></path>
                        </g>
                        <path d="M133.888,233.552094 C133.28,233.592 132.936,220.896 132.784,218.072 C132.632,215.248 131.656,202.544 132.264,202.51194 C132.872,202.48 133.064,215.216 133.208,218.048 C133.352,220.88 134.496,233.52 133.888,233.552094 Z" id="Path" fill="#5A9EFB"></path>
                        <path d="M62.712,270.856048 C62.096,270.896 61.056,246.056 60.728,240.504 C60.4,234.952 58.552,210.16 59.128,210.103906 C59.704,210.048 60.784,234.904 61.112,240.464 C61.44,246.024 63.328,270.824 62.712,270.856048 Z" id="Path" fill="#5A9EFB"></path>
                    </g>
                    <rect id="Rectangle" fill="#EAEAEA" transform="translate(113.076312, 43.922333) rotate(61.270000) translate(-113.076312, -43.922333) " x="105.984312" y="2.12233321" width="14.184" height="83.6"></rect>
                    <rect id="Rectangle" fill="#F2F2F2" transform="translate(110.361160, 38.968347) rotate(61.270000) translate(-110.361160, -38.968347) " x="108.92116" y="-2.83165327" width="2.88" height="83.6"></rect>
                    <rect id="Rectangle" fill="#CECECE" transform="translate(115.295836, 47.971335) rotate(61.270000) translate(-115.295836, -47.971335) " x="112.819836" y="6.17133523" width="4.952" height="83.6"></rect>
                    <path d="M146.328,17.6 C145.832,17.872 146.952,20.88 148.832,24.312 C150.712,27.744 152.648,30.312 153.152,30.032 C153.656,29.752 152.528,26.752 150.648,23.32 C148.768,19.888 146.832,17.328 146.328,17.6 Z" id="Path" fill="#6E6F73"></path>
                    <path d="M73.024,57.792 C72.52,58.072 73.64,61.08 75.528,64.512 C77.416,67.944 79.336,70.504 79.84,70.232 C80.344,69.96 79.224,66.944 77.344,63.512 C75.464,60.08 73.528,57.52 73.024,57.792 Z" id="Path" fill="#F79927"></path>
                    <path d="M106.808,47.368 C104.92,43.936 103.8,40.928 104.304,40.656 L104.304,40.656 L73.016,57.8 L79.84,70.232 L111.104,53.096 C110.568,53.296 108.664,50.76 106.808,47.368 Z" id="Path" fill="#F79927"></path>
                    <path d="M147.432,19.2 C147.096,19.392 147.856,21.432 149.136,23.768 C150.416,26.104 151.728,27.848 152.072,27.656 C152.416,27.464 151.648,25.424 150.368,23.088 C149.088,20.752 147.776,19.032 147.432,19.2 Z" id="Path" fill="#F15A24"></path>
                    <path d="M148.096,20.416 C147.824,20.568 148.432,22.208 149.456,24.072 C150.48,25.936 151.536,27.336 151.808,27.184 C152.08,27.032 151.472,25.4 150.448,23.528 C149.424,21.656 148.368,20.272 148.096,20.416 Z" id="Path" fill="#464749"></path>
                    <circle id="Oval" fill="#D6770F" cx="80.184" cy="58.536" r="1.552"></circle>
                    <circle id="Oval" fill="#D6770F" cx="80.232" cy="63.328" r="1"></circle>
                    <path d="M93.888,58.688 C93.888,59.3419051 93.3579051,59.872 92.704,59.872 C92.0500949,59.872 91.52,59.3419051 91.52,58.688 C91.52,58.0340949 92.0500949,57.504 92.704,57.504 C93.3579051,57.504 93.888,58.0340949 93.888,58.688 L93.888,58.688 Z" id="Path" fill="#D6770F"></path>
                    <circle id="Oval" fill="#D6770F" cx="87.376" cy="56.952" r="1"></circle>
                    <circle id="Oval" fill="#D6770F" cx="92.76" cy="50.904" r="1"></circle>
                    <path d="M106.912022,52.432 C106.91524,53.0313215 106.55671,53.5734336 106.003937,53.8050323 C105.451163,54.0366309 104.813281,53.9119907 104.388344,53.4893503 C103.963406,53.0667098 103.83531,52.4295127 104.06391,51.8754918 C104.292509,51.3214709 104.83267,50.96 105.432,50.96 C106.246267,50.96 106.907599,51.6177445 106.912022,52.432 L106.912022,52.432 Z" id="Path" fill="#D6770F"></path>
                    <path d="M99.304,54.6 C99.304,55.0683375 98.9243375,55.448 98.456,55.448 C97.9876625,55.448 97.608,55.0683375 97.608,54.6 C97.608,54.1316625 97.9876625,53.752 98.456,53.752 C98.9243375,53.752 99.304,54.1316625 99.304,54.6 Z" id="Path" fill="#D6770F"></path>
                    <path d="M103.016023,47.624 C103.019235,48.1819828 102.685175,48.6866757 102.170278,48.9017035 C101.655382,49.1167312 101.061604,48.9995159 100.667044,48.6049558 C100.272484,48.2103957 100.155269,47.6166183 100.370297,47.1017218 C100.585324,46.5868254 101.090017,46.2527652 101.648,46.2559767 C102.401708,46.2603694 103.011631,46.8702918 103.016023,47.624 L103.016023,47.624 Z" id="Path" fill="#D6770F"></path>
                    <path d="M99.408,47.44 C99.4112339,47.7326436 99.2370081,47.9981279 98.9672471,48.1116168 C98.6974861,48.2251057 98.38587,48.1640158 98.1789271,47.9570729 C97.9719842,47.75013 97.9108943,47.4385139 98.0243832,47.1687529 C98.1378721,46.8989919 98.4033564,46.7247661 98.696,46.728 C99.0892267,46.728 99.408,47.0467733 99.408,47.44 L99.408,47.44 Z" id="Path" fill="#D6770F"></path>
                    <path d="M90.4000177,62.48 C90.403235,63.2127137 89.9639201,63.8749313 89.287595,64.1568251 C88.6112699,64.4387189 87.8316804,64.2845433 87.3135686,63.7664314 C86.7954567,63.2483196 86.6412811,62.4687301 86.9231749,61.792405 C87.2050687,61.1160799 87.8672863,60.676765 88.6,60.6799823 C89.5941125,60.6799823 90.4000177,61.4858875 90.4000177,62.48 L90.4000177,62.48 Z" id="Path" fill="#D6770F"></path>
                    <path d="M84.36,70.904 L106.64,64.504 C109.442556,54.6738819 110.90114,44.5095427 110.976,34.288 L110.976,34.288 C106.912,36.464 96.136,40.488 90.512,43.936 C90.344,51.752 87.584,61.184 84.36,70.904 Z" id="Path" fill="#EDBC9C"></path>
                    <rect id="Rectangle" fill="#D61335" transform="translate(100.586703, 133.371446) rotate(-45.000000) translate(-100.586703, -133.371446) " x="90.0427025" y="35.0274456" width="21.088" height="196.688"></rect>
                </g>
            </g>
        </g>
    </g>
</svg>