<?xml version="1.0" encoding="UTF-8"?>
<svg width="300px" height="350px" viewBox="0 0 300 350" version="1.1" xmlns="http://www.w3.org/2000/svg" xmlns:xlink="http://www.w3.org/1999/xlink">
    <title>Group 7</title>
    <defs>
        <polygon id="path-1" points="0.113184 0.49873921 17.1396 0.49873921 17.1396 77.1045162 0.113184 77.1045162"></polygon>
        <polygon id="path-3" points="0.0567 0.20304 18.862887 0.20304 18.862887 21.601782 0.0567 21.601782"></polygon>
        <polygon id="path-5" points="0 0.001728 14.778558 0.001728 14.778558 62.505648 0 62.505648"></polygon>
    </defs>
    <g id="Page-1" stroke="none" stroke-width="1" fill="none" fill-rule="evenodd">
        <g id="For-you-and-your-partner-Copy-5" transform="translate(-57.000000, -5254.000000)">
            <g id="Group-7" transform="translate(57.000000, 5254.000000)">
                <circle id="Mask-Copy-6" fill="#E13856" opacity="0.0770321801" cx="150" cy="171" r="150"></circle>
                <g id="Group-126" transform="translate(28.000000, 0.000000)">
                    <polygon id="Fill-1" fill="#D61335" points="166.672566 345.015828 82.263546 345.015828 89.583246 297.750168 157.125906 297.750168"></polygon>
                    <polygon id="Fill-2" fill="#2E353A" points="82.263276 345.015882 83.807136 349.717122 166.672836 349.717122 166.672836 345.015882"></polygon>
                    <polygon id="Fill-3" fill="#FFFFFF" points="115.74846 341.58564 133.18722 341.58564 133.18722 335.6775 115.74846 335.6775"></polygon>
                    <g id="Group-125" transform="translate(0.000000, 0.336960)">
                        <g id="Group-6" transform="translate(162.540000, 102.600000)">
                            <mask id="mask-2" fill="white">
                                <use xlink:href="#path-1"></use>
                            </mask>
                            <g id="Clip-5"></g>
                            <path d="M14.691564,6.28236 C14.773644,6.9714 14.845464,7.66638 14.923224,8.37162 C15.670044,15.49152 16.122024,23.41818 16.017804,32.02308 C15.934104,39.39894 15.449184,46.23966 14.741784,52.46424 C14.791464,52.71102 14.841144,52.95888 14.884884,53.19486 C15.021504,53.82234 15.139224,54.41364 15.240744,55.00008 C15.353064,55.62 15.446484,56.1033 15.527484,56.57418 C17.503344,67.68306 17.367804,69.65838 16.676064,71.46036 C15.614964,74.22138 12.990024,77.25078 10.286244,77.09904 C8.448084,76.99806 7.173144,75.46932 6.733044,74.93526 C3.278124,70.80156 5.085504,63.9063 6.157404,59.8212 C6.893424,57.024 7.830324,54.80082 8.544744,53.30718 C8.564724,53.25642 8.587404,53.21106 8.610084,53.1657 C7.622424,49.20264 6.679584,45.13644 5.795064,40.96602 C3.823524,31.67856 2.306664,22.71294 1.155924,14.10102 C0.877284,12.02256 0.619704,9.9603 0.387504,7.91748 C0.291924,7.11558 0.200124,6.318 0.113184,5.51826 C1.256904,2.42028 4.263084,0.39636 7.535484,0.50274 C10.908324,0.6102 13.848084,2.97594 14.691564,6.28236" id="Fill-4" fill="#E49D92" mask="url(#mask-2)"></path>
                        </g>
                        <path d="M72.725742,111.90987 C73.736622,100.67517 76.237902,87.28479 81.821502,72.99909 C83.316222,69.17481 84.914622,65.58597 86.565402,62.23149 C89.521902,59.43915 93.690702,58.46877 97.347042,59.75127 C101.627082,61.25193 103.269762,65.16369 103.521942,65.79171 C102.000762,72.00063 100.190142,78.51087 98.031762,85.26789 C94.520142,96.26121 90.615942,106.25121 86.640462,115.19955 C85.701402,118.87425 82.511082,121.30479 79.386102,121.17465 C75.460842,121.01103 71.884962,116.81847 72.725742,111.90987" id="Fill-7" fill="#E49D92"></path>
                        <path d="M76.139244,90.9539719 C76.303404,90.993672 75.277404,95.233752 74.275164,101.158092 C73.511064,105.674652 73.058544,109.409832 72.791244,111.926232 C71.964504,115.560972 71.206884,119.365272 70.547004,123.332112 C68.822784,133.693092 68.065704,143.349372 67.897764,152.079552 C67.541364,141.839532 68.203944,130.341852 70.767864,118.033632 C71.211744,115.901712 71.696124,113.825412 72.214524,111.803112 C72.358164,108.448632 72.798264,103.432032 74.226024,97.429392 C74.996604,94.189392 75.993984,90.919152 76.139244,90.9539719" id="Fill-9" fill="#FCF9F8"></path>
                        <path d="M86.866452,113.217156 C84.574692,124.222896 81.614952,135.850176 77.798772,147.948336 C76.516272,152.015076 75.187872,155.973276 73.823832,159.823476 C74.396232,161.381916 75.144672,163.739556 75.619872,166.683636 C76.293252,170.854596 77.429412,177.893496 73.594872,181.675656 C73.103472,182.161116 71.686512,183.559176 69.851052,183.484656 C67.142952,183.374496 64.820952,180.109656 64.032012,177.254136 C63.519552,175.397076 63.571932,173.414196 66.605112,162.549396 C66.733632,162.088236 66.875112,161.616276 67.044132,161.009856 C67.203432,160.437456 67.376232,159.861276 67.570632,159.248376 C67.638132,159.016176 67.712112,158.778576 67.785552,158.533956 C67.682412,152.272116 67.858992,145.416276 68.481072,138.064716 C69.279192,128.639556 70.665372,120.098376 72.279432,112.575636 C73.442052,109.361556 76.593492,107.291736 79.963092,107.507736 C83.224692,107.716176 86.021352,110.021976 86.866452,113.217156" id="Fill-11" fill="#E49D92"></path>
                        <path d="M107.128602,4.802652 C106.059402,5.675292 102.765402,8.590752 101.685402,13.624632 C100.888362,17.339832 101.688102,20.387052 102.154662,21.789432 C102.436542,21.632832 102.717882,21.476232 102.999762,21.320172 C102.549402,19.499292 101.662182,14.816412 103.844322,9.776592 C104.807682,7.551252 106.085862,5.910732 107.128602,4.802652" id="Fill-13" fill="#FCF9F8"></path>
                        <path d="M137.195586,35.925444 L140.064066,36.224604 C141.266646,37.152324 143.180946,38.892744 144.586566,41.661864 C146.837826,46.097964 146.326986,50.302944 146.064546,51.832764 C146.987406,52.121124 148.212126,52.623324 149.477886,53.521884 C151.691346,55.093824 152.845326,57.041604 153.384246,58.132404 C153.427986,58.219344 152.389566,54.844344 149.266746,52.747524 C148.286106,52.089264 147.349746,51.708564 146.639106,51.480684 C146.889126,50.004864 147.221766,46.824804 145.888506,43.175484 C144.330066,38.910564 141.416226,36.521604 140.221746,35.644104 L137.195586,35.925444 Z" id="Fill-15" fill="#FCF9F8"></path>
                        <path d="M173.766924,118.969398 C173.127564,119.312298 172.443924,119.546118 171.733284,119.648718 C168.638544,120.087198 165.223044,117.985518 163.925424,114.419898 C163.878444,114.337278 163.826064,114.251958 163.781784,114.164478 C163.066284,112.903038 162.344304,111.617298 161.632044,110.302938 C157.582044,102.925458 153.549864,94.819518 149.719644,85.985118 C149.687244,85.911138 149.655384,85.838238 149.622984,85.764258 C146.809584,79.249698 144.362844,72.950598 142.232544,66.926358 C142.424244,66.272958 143.671104,62.218638 147.782664,60.305418 C151.294824,58.669218 155.538684,59.220018 158.756544,61.704558 C160.962444,64.655118 163.158084,67.948578 165.245184,71.601678 C173.283084,85.718358 176.306544,99.488898 177.441084,109.769418 C178.521084,113.693058 176.619204,117.430938 173.766924,118.969398" id="Fill-17" fill="#E49D92"></path>
                        <path d="M97.56045,58.85325 C96.97401,58.68207 94.50351,58.74147 92.15559,59.19723 C91.43685,59.33655 90.75861,59.47155 89.91999,59.78691 C87.95871,60.52401 86.62167,61.68393 85.84191,62.48907 C80.54829,72.44721 75.25467,82.40481 69.96213,92.36349 L90.96651,106.44345 C92.27493,103.13487 93.58281,99.82629 94.89069,96.51771 C100.70865,62.74881 98.70687,59.18697 97.56045,58.85325" id="Fill-19" fill="#00A0FF"></path>
                        <path d="M149.076666,57.7395 C147.513366,60.16464 141.640866,68.62482 130.664826,71.4096 C118.825326,74.41416 105.772986,69.6168 97.275546,59.20128 C100.884906,58.3632 104.944626,57.7449 109.394226,57.5856 C110.324106,57.55212 111.235086,57.54024 112.125546,57.54726 C112.323186,56.98026 112.504086,56.39058 112.663926,55.77714 C114.069546,50.38902 113.275746,45.39564 112.156326,41.70528 C119.391246,41.8878 126.619686,42.07032 133.855146,42.25284 C133.595406,43.26102 133.270326,44.8065 133.176906,46.71648 C133.082406,48.49146 133.176906,50.57856 133.695846,52.86654 C133.741746,53.07066 133.963146,54.03564 134.391906,55.30356 C134.634366,56.0223 134.961066,56.88954 135.400626,57.85506 C139.958766,57.81672 144.517986,57.77784 149.076666,57.7395" id="Fill-21" fill="#DD9387"></path>
                        <path d="M139.554954,57.855006 C139.460454,58.292946 137.799414,65.446866 131.488434,67.500486 C128.744694,68.394186 126.286074,67.944906 125.002494,67.599306 C123.066594,63.942426 121.019454,60.213726 118.854594,56.424546 C116.987274,53.155926 115.115634,49.987206 113.247234,46.917306 C115.676694,47.819106 119.992374,49.051386 125.375634,48.574026 C128.577294,48.297006 131.230854,47.494566 133.176474,46.716426 C133.082514,48.491406 133.176474,50.578506 133.695414,52.866486 C133.937334,53.931366 134.194914,54.713286 134.391474,55.303506 C134.625294,56.005506 134.940654,56.866806 135.361314,57.835566 C136.759374,57.842586 138.157434,57.848526 139.554954,57.855006" id="Fill-23" fill="#CD4D40" opacity="0.0154206032"></path>
                        <path d="M153.796914,94.477482 C153.764514,98.816922 153.732654,103.161222 153.695934,107.500662 L153.695934,107.767962 C153.695934,107.865162 153.694314,107.963442 153.693234,108.061182 C153.693234,108.065502 153.691074,108.354402 153.691074,108.354402 C153.689454,108.540702 151.898814,113.605362 147.745134,125.112222 C142.818714,125.066322 137.898234,125.024742 132.972354,124.973982 C119.570094,124.854102 106.168914,124.728822 92.766654,124.599762 C92.817414,122.891742 92.868714,121.178862 92.919474,119.470842 C93.035034,115.538022 93.150054,111.609522 93.265614,107.675622 C93.399534,104.208822 93.482694,100.691262 93.505914,97.127262 C93.510234,95.797782 93.510234,94.468302 93.505914,93.148002 C92.665674,91.781802 89.008794,85.489182 90.998694,77.969142 C91.751994,75.134682 93.076614,72.982782 94.216554,71.515602 C94.424454,71.233722 94.632354,70.975062 94.835394,70.744482 C95.273874,66.773862 95.716674,62.803782 96.160554,58.838022 C97.332894,58.663062 98.528454,58.505922 99.747234,58.362822 C102.826314,57.997782 105.790374,57.762882 108.624834,57.624102 C111.551634,63.316242 117.432774,66.907782 123.822054,66.912642 C130.169754,66.916962 136.019034,63.381042 138.978234,57.758022 C139.688874,57.758022 140.400054,57.762882 141.119874,57.771522 C144.425754,57.808782 147.665754,57.910302 150.846894,58.067442 L153.058734,71.773722 C154.166274,73.260342 156.497994,76.805442 156.945114,81.906822 C157.508874,88.309602 154.743534,93.009222 153.796914,94.477482" id="Fill-25" fill="#00A0FF"></path>
                        <path d="M153.67671,110.275074 C153.65835,112.819014 153.63567,115.367274 153.61731,117.910674 C153.58923,117.887994 153.55683,117.859914 153.52443,117.832374 C152.13933,118.884834 150.74073,119.886534 149.33781,120.833154 C130.53501,120.375774 111.72681,119.923254 92.91915,119.470734 C93.03471,115.537914 93.15027,111.609414 93.26583,107.676054 C93.39975,104.209254 93.48237,100.691154 93.50559,97.127154 C93.55203,95.751234 93.54717,94.422294 93.50559,93.147894 C92.66589,91.781694 89.00901,85.489614 90.99891,77.969034 C91.75167,75.134574 93.07629,72.982674 94.21677,71.515494 C94.14279,72.050634 93.73671,72.706194 93.06279,73.205154 C92.50875,74.538954 91.76085,76.865814 91.88559,79.782894 C92.09781,84.759534 94.73409,88.545474 96.70023,90.396054 C101.87505,95.271714 111.74571,95.497974 120.18861,89.906814 C119.00763,91.393434 117.26181,93.203514 114.77889,94.721994 C108.15849,98.784954 101.18277,97.787574 98.96229,97.376634 C100.47213,98.904294 102.09699,100.460574 103.83741,102.025494 C107.09199,104.952294 110.30553,107.496234 113.35221,109.693494 C113.44887,109.762614 113.54121,109.836594 113.63787,109.901394 C113.63787,109.901394 124.93467,116.225874 139.37535,114.490314 C145.45953,113.755914 150.33519,111.890754 153.67671,110.275074" id="Fill-27" fill="#3A1628" opacity="0.391033794"></path>
                        <path d="M153.695664,107.768124 C153.695664,107.961984 153.690804,108.161244 153.690804,108.354564 C153.685944,108.996084 153.681624,109.633284 153.676764,110.275344 C153.648144,114.161724 153.636804,116.104644 153.616824,117.910404 C153.600624,119.415384 153.577404,121.339944 153.541764,123.589584 C152.117784,123.998364 150.132744,124.542684 147.744864,125.112384 C139.258764,127.137384 132.792804,127.790784 131.240844,127.938204 C127.635264,128.278944 124.159284,128.431764 120.830724,128.43617 C109.506384,128.450124 99.908964,126.751284 92.757744,124.946604 C92.762604,124.831044 92.762604,124.715484 92.766924,124.599924 C92.817684,122.891904 92.868444,121.179024 92.919204,119.471004 C93.034764,115.538184 93.150324,111.609144 93.265884,107.675784 C99.479664,108.608904 106.196724,109.328724 113.352264,109.693224 C115.568424,109.808784 117.829944,109.887624 120.134124,109.928664 C126.310644,110.044224 132.773904,109.882764 139.495284,109.365444 C144.438984,108.982584 149.171544,108.437724 153.695664,107.768124" id="Fill-29" fill="#282C39"></path>
                        <path d="M155.67741,102.625974 C162.87831,98.170974 170.07921,93.715974 177.27957,89.260974 C174.19617,82.222614 169.66665,74.061594 162.92043,65.968614 C161.00721,63.673614 159.07671,61.577874 157.16997,59.666814 C156.65373,59.421654 156.13695,59.177034 155.62071,58.931874 C151.76889,57.463614 149.83893,58.219074 148.98033,58.739634 C143.75259,61.909974 146.26899,75.776634 146.67183,77.997654 C146.69775,78.139674 146.71989,78.259554 146.73663,78.345954 C149.71689,86.438934 152.69715,94.532994 155.67741,102.625974" id="Fill-31" fill="#00A0FF"></path>
                        <path d="M141.730236,25.96023 C141.730236,39.65895 133.307316,50.76513 122.917716,50.76513 C112.528116,50.76513 104.105736,39.65895 104.105736,25.96023 C104.105736,12.26097 112.528116,1.15479 122.917716,1.15479 C133.307316,1.15479 141.730236,12.26097 141.730236,25.96023" id="Fill-33" fill="#E49D92"></path>
                        <polygon id="Fill-35" fill="#B9472B" points="123.422454 22.375872 122.082714 28.917972 121.156074 29.745252 121.865634 32.181192 127.274274 32.343732 122.475294 31.478652 122.066514 30.038472 122.865174 29.052972"></polygon>
                        <path d="M116.357094,40.859262 C117.793494,40.263102 120.082554,39.523842 122.961834,39.471462 C126.180234,39.412062 128.722014,40.236102 130.223754,40.859262 C128.280294,40.548762 126.019314,40.320342 123.500214,40.307922 C120.807234,40.294962 118.402074,40.532562 116.357094,40.859262" id="Fill-37" fill="#FCF9F8"></path>
                        <path d="M97.51617,58.796874 C96.32709,58.768254 94.83831,58.853034 93.17457,59.238054 C89.95239,59.985414 87.63255,61.502814 86.29443,62.549874 C81.67095,70.949034 77.04747,79.347654 72.42399,87.746274 C76.88817,79.298514 81.35181,70.850754 85.81599,62.402994 C87.03045,61.320294 89.77743,59.196474 93.76317,58.722894 C95.20659,58.552254 96.48477,58.635414 97.51617,58.796874" id="Fill-39" fill="#282C39"></path>
                        <path d="M93.309516,72.900648 C92.414196,74.679948 90.694836,78.701328 91.052856,83.987928 C91.343376,88.282008 92.873736,91.479348 93.837096,93.161988 C93.797676,98.024148 93.759336,102.886848 93.720456,107.750088 C93.570876,107.727408 93.421836,107.705268 93.272796,107.682588 C93.264156,102.854448 93.256056,98.026308 93.247956,93.198708 C92.354256,91.879488 89.533836,87.358068 90.169956,81.240408 C90.588996,77.208228 92.319696,74.314368 93.309516,72.900648" id="Fill-41" fill="#282C39"></path>
                        <path d="M131.10741,69.112764 C120.93165,73.011024 111.87639,66.943584 111.04695,66.367404 C112.37103,67.415544 114.54345,68.890824 117.52263,69.887124 C119.35377,70.498944 125.72091,72.515844 132.51465,69.323904 C138.77649,66.381444 141.36147,60.912324 142.01703,59.399244 C141.10551,61.073784 137.86659,66.522924 131.10741,69.112764" id="Fill-43" fill="#FCF9F8"></path>
                        <path d="M153.695664,107.500716 L153.695664,107.768016 C153.695664,107.961876 153.690804,108.161136 153.690804,108.354456 C150.260724,108.912816 145.408824,109.578096 139.569264,109.938276 C130.008564,110.533356 121.749804,110.072196 120.134124,109.928556 C119.944584,109.910196 119.847384,109.896696 119.847384,109.891836 C119.851704,109.854576 122.280084,109.946916 126.776664,109.869156 C129.449664,109.822716 133.853904,109.739556 139.204224,109.314576 C143.022024,109.005696 147.938724,108.479196 153.695664,107.500716" id="Fill-45" fill="#282C39"></path>
                        <path d="M139.710528,37.279116 C138.955068,39.124836 137.881548,41.201136 136.334448,43.295256 C135.924048,43.850376 135.508788,44.369316 135.094068,44.852616 C134.671248,46.948896 133.927668,52.204716 136.767528,57.303396 C137.528388,58.669596 138.407508,59.773896 139.248828,60.649776 C139.365468,61.838856 139.590648,63.684576 140.056668,65.901276 C141.976908,75.037536 145.645128,79.342956 147.616128,84.694356 C149.096268,88.712496 150.211368,94.930596 147.826728,104.006916 C149.589828,102.167676 151.609968,99.584316 153.155448,96.158556 C157.674168,86.146956 154.750068,76.460976 153.733248,73.518516 C154.261368,71.789976 155.075688,68.225436 153.963828,64.055016 C151.886448,56.263356 144.839988,52.939656 143.769168,52.455816 C144.060768,50.832036 144.393408,47.736216 143.345808,44.088516 C142.399728,40.792896 140.747328,38.508696 139.710528,37.279116" id="Fill-47" fill="#2A2423"></path>
                        <path d="M166.517532,183.99825 C165.948372,195.60879 164.564892,211.56039 161.079732,231.68727 C160.313472,236.11743 159.440292,240.75387 158.454252,245.59173 C157.930452,246.50055 157.329972,247.34727 156.662532,248.12217 C153.078552,252.32877 147.627792,254.52387 142.180272,253.80243 C133.189812,252.61119 129.489732,244.16235 129.337452,243.79947 C129.001032,239.96925 128.665152,236.13525 128.324952,232.30503 C126.954432,216.70281 125.583372,201.10545 124.212852,185.50323 C124.128072,184.55337 124.047072,183.60405 123.961752,182.65419 C123.876972,181.14003 123.787332,179.63019 123.697692,178.11603 C123.478452,174.26421 123.254352,170.40699 123.030252,166.55463 C122.653872,160.05465 122.282352,153.55521 121.905972,147.05523 C121.493952,139.98177 121.086252,132.90939 120.678552,125.84025 C124.974252,125.53569 129.274812,125.23113 133.570512,124.93089 C140.222772,124.46055 146.874492,123.99021 153.526752,123.52473 C153.769212,123.99507 154.015452,124.47837 154.266012,124.97085 C156.541572,129.50901 158.928912,134.93817 160.993872,141.18273 C164.206332,150.88545 166.651992,162.55917 166.741632,175.93443 C166.750812,177.44913 166.736772,179.55837 166.517532,183.99825" id="Fill-49" fill="#282C39"></path>
                        <path d="M126.425664,125.840196 C126.017964,132.909336 125.610264,139.981716 125.198244,147.055176 C125.180424,147.346236 125.166924,147.632976 125.149104,147.924036 C124.791084,154.133496 124.432524,160.345656 124.074504,166.554576 L124.074504,166.576716 C124.019964,167.495796 123.965964,168.418656 123.913044,169.336656 C123.908184,169.444116 123.899004,169.551576 123.894684,169.659036 C123.728904,172.476756 123.567984,175.298796 123.406524,178.116516 C123.316884,179.630136 123.227244,181.139976 123.142464,182.654136 C123.057144,183.603996 122.976144,184.553856 122.891364,185.503176 C121.565124,200.576736 120.244284,215.641656 118.918584,230.715216 C118.873224,231.243336 118.824084,231.776856 118.779264,232.304976 C118.438524,236.135196 118.102644,239.969736 117.766764,243.799416 C117.614484,244.162296 113.914404,252.611136 104.923944,253.802376 C99.857664,254.474676 94.791384,252.624096 91.221444,248.978016 C90.952524,248.704776 90.692244,248.418036 90.441684,248.122116 C89.774244,247.347756 89.174304,246.500496 88.649964,245.591676 C88.156944,243.181656 87.695784,240.820776 87.261084,238.513896 C86.822064,236.184876 86.410044,233.908776 86.025024,231.687216 C82.539864,211.560336 81.155844,195.608736 80.586684,183.998196 C80.367444,179.558856 80.353944,177.449076 80.362584,175.934916 C80.452224,162.559116 82.898424,150.885396 86.110344,141.182676 C86.526684,139.914756 86.960844,138.683016 87.404724,137.483136 C89.138124,132.770016 91.023804,128.586096 92.838204,124.971336 C92.860884,124.930836 92.878704,124.890336 92.900844,124.850376 C93.129264,124.397856 93.353364,123.954516 93.577464,123.524676 C100.032624,123.977196 106.482924,124.434036 112.937544,124.890336 C113.135184,124.904376 113.336604,124.917336 113.533704,124.930836 C117.829404,125.231076 122.129964,125.536176 126.425664,125.840196" id="Fill-51" fill="#282C39"></path>
                        <path d="M127.533636,237.657078 C127.533636,255.876138 129.485736,267.098418 131.923836,286.764678 C132.475176,291.211038 133.182576,297.668898 133.702596,305.571258 C133.794396,310.263318 133.885656,314.955918 133.976916,319.647978 C139.593456,318.776418 145.209996,317.903778 150.827076,317.031678 C150.740676,314.486118 150.679656,310.600278 150.903756,305.875278 C151.294176,297.668898 152.312616,291.812058 153.146916,286.806258 C153.146916,286.806258 156.223296,266.945598 157.470696,236.861118 C157.495536,236.263878 157.467456,234.317718 156.795156,231.943338 C154.899216,225.260838 149.205456,220.523418 142.489476,220.704858 C136.049976,220.874418 130.538196,225.549198 128.435976,231.943338 C128.160036,232.800858 127.941336,233.683218 127.785276,234.602298 C127.785276,234.602298 127.533636,236.098638 127.533636,237.657078" id="Fill-53" fill="#E49D92"></path>
                        <path d="M90.340056,236.861334 C91.396296,262.329894 94.651956,286.686594 94.651956,286.686594 C95.560776,293.137974 96.602976,302.487534 96.891336,314.031114 C97.199676,319.898754 101.427876,324.091314 105.704676,324.135949 C109.719036,324.177174 112.399596,320.549994 112.712796,320.112054 C113.062176,317.693934 113.411556,315.275814 113.760396,312.857694 C113.884596,310.268394 114.076836,306.779994 114.382476,302.659794 C114.877656,295.970274 115.525656,290.612934 115.891236,286.731954 C118.579356,258.241014 120.281436,239.277294 120.277662,237.657294 C120.277662,236.098854 120.026556,234.601974 120.026556,234.601974 C119.869956,233.682894 119.650716,232.800534 119.374776,231.943554 C117.272556,225.549414 111.760236,220.874634 105.320736,220.705074 C98.605836,220.523634 92.912616,225.261054 91.015596,231.943554 C90.343836,234.317934 90.314676,236.264094 90.340056,236.861334" id="Fill-55" fill="#DD9387"></path>
                        <path d="M162.04671,208.241334 C161.10495,244.051434 157.79475,276.842394 153.33975,306.106074 L131.81373,306.106074 C128.76165,276.297534 126.44451,245.117934 125.10099,212.659614 C124.48269,197.831754 124.09443,183.271194 123.90543,168.982794 L123.90543,168.968754 C123.85899,168.119334 123.80823,167.283954 123.76665,166.434534 C123.64245,164.154114 123.51717,161.882334 123.38811,159.602454 C123.26823,157.492674 123.22233,156.832254 123.18021,156.020094 C123.16185,155.590254 123.15321,155.378034 123.14835,155.290014 C123.07437,152.668314 123.60519,150.793974 124.06689,149.681574 C124.36227,148.970394 124.63011,148.573494 124.69491,148.490334 C124.84287,148.301334 124.98543,148.125834 124.98543,148.125834 C125.08749,147.996774 125.18847,147.867174 125.30403,147.747294 C125.35533,147.686814 125.40555,147.626874 125.44713,147.576114 C125.50275,147.516174 125.54379,147.460554 125.59455,147.410334 C125.67393,147.313134 125.75655,147.220794 125.83971,147.128454 C126.06111,146.883834 126.28737,146.644074 126.45855,146.463714 C126.48177,146.441034 126.50013,146.412954 126.53199,146.380554 C126.55467,146.357334 126.57789,146.334114 126.59679,146.315754 C126.62919,146.279034 126.66159,146.246634 126.69345,146.209914 C126.72585,146.181834 126.74421,146.163474 126.74421,146.163474 C126.89163,146.006874 127.03527,145.859454 127.19241,145.710954 C127.29825,145.600254 127.40463,145.494414 127.51533,145.388034 C127.56177,145.346454 127.60335,145.300014 127.64925,145.263294 C127.69569,145.217394 127.74159,145.170954 127.78317,145.134234 C127.87065,145.041894 127.96353,144.958734 128.05101,144.875574 C128.21733,144.723294 128.37447,144.571014 128.54025,144.423054 C128.68335,144.289134 128.82591,144.164934 128.97873,144.035874 C128.98791,144.026154 129.00195,144.012654 129.01545,144.002934 C129.16341,143.873874 129.30651,143.749134 129.45447,143.629254 C129.87459,143.273394 130.29903,142.932114 130.72833,142.604334 C131.15817,142.281414 131.59179,141.962814 132.03027,141.662574 C132.20577,141.542154 132.38073,141.422814 132.56109,141.307254 C132.63021,141.260814 132.69555,141.214914 132.77385,141.168474 C132.90237,141.080994 133.02765,141.007014 133.15671,140.919534 C133.27713,140.849874 133.39647,140.767254 133.52607,140.697594 C133.65567,140.618754 133.78905,140.536134 133.92297,140.462154 C133.98777,140.425434 134.05203,140.383854 134.11683,140.347134 C134.31123,140.235894 134.50455,140.125194 134.70327,140.018814 C135.29889,139.695894 135.90369,139.386474 136.50849,139.123494 C136.51335,139.118634 136.52199,139.118634 136.52685,139.114314 C136.66023,139.049514 136.79901,138.989574 136.93779,138.933954 C137.13597,138.837294 137.33469,138.758994 137.53287,138.675834 C137.74563,138.588354 137.95785,138.504654 138.17493,138.426354 C138.40551,138.343734 138.63231,138.260034 138.86235,138.181734 C139.01949,138.126114 139.17231,138.071034 139.32891,138.029454 L139.32891,138.025134 C139.73067,137.895534 140.14593,137.780514 140.55201,137.669814 C140.72805,137.623374 140.91219,137.572614 141.08769,137.531034 C141.24051,137.493774 141.38793,137.461914 141.54021,137.428974 C141.80805,137.364714 142.06671,137.313414 142.33401,137.267514 C142.51923,137.235654 142.70823,137.198394 142.89291,137.170854 C143.21637,137.120094 143.53929,137.078514 143.86707,137.046114 C144.11169,137.013714 144.36117,136.986174 144.60525,136.972674 C144.63819,136.967814 144.66519,136.962954 144.69813,136.962954 C144.93357,136.949454 145.16415,136.935414 145.39041,136.926234 C145.63989,136.917054 145.89369,136.912194 146.14317,136.912194 L146.17503,136.912194 C146.38779,136.912194 146.60433,136.917054 146.82195,136.921374 C147.27447,136.935414 147.72213,136.962954 148.17411,137.013714 C148.32639,137.027754 148.48353,137.046114 148.62609,137.064474 C148.99599,137.110374 149.36103,137.161674 149.72553,137.235654 C149.90535,137.267514 150.08571,137.299914 150.26985,137.336634 C150.44967,137.373894 150.63003,137.420334 150.80985,137.461914 C150.82875,137.466234 150.85197,137.470554 150.87033,137.480274 C151.42869,137.618514 151.97355,137.780514 152.49573,137.955474 C152.75871,138.047814 153.02115,138.140154 153.27063,138.246534 C153.39537,138.292434 153.51039,138.343734 153.63567,138.393954 C153.85707,138.481434 154.07847,138.578634 154.29555,138.680694 C154.97865,138.994434 155.62935,139.344894 156.24387,139.709934 C156.45177,139.825494 156.65913,139.954554 156.85785,140.093334 C157.26825,140.351454 157.66137,140.628474 158.03937,140.905494 C158.04909,140.914674 158.06745,140.919534 158.07609,140.933034 C158.17815,141.007014 158.27967,141.080994 158.37633,141.159294 C158.45949,141.219234 158.53347,141.274854 158.61231,141.343974 C158.62095,141.348834 158.63067,141.353154 158.63931,141.362334 C158.81535,141.496254 158.98113,141.634494 159.14745,141.778134 C159.51249,142.073514 159.85377,142.378074 160.18155,142.683174 C160.49529,142.973694 160.79553,143.273394 161.08173,143.564994 C162.21303,163.729134 162.64665,185.348034 162.04671,208.241334" id="Fill-57" fill="#282C39"></path>
                        <path d="M124.911666,150.826266 C124.829046,152.317746 124.745346,153.799506 124.667046,155.290446 C124.579566,156.721446 124.510446,158.166486 124.422426,159.602346 C124.297686,161.882766 124.168626,164.154546 124.043886,166.434426 C123.997986,167.284386 123.951546,168.119226 123.905646,168.969186 L123.905646,168.982686 C123.711246,179.660646 123.355926,190.624806 122.806746,201.861666 C121.989726,218.545506 120.987486,230.982246 120.549006,236.425446 C119.353446,251.364006 117.627066,273.652506 115.272126,306.106506 L95.200326,306.106506 C90.389466,275.979366 86.904306,243.418986 85.565646,208.685106 C85.177386,198.652986 84.984066,188.815806 84.960846,179.181126 C84.960846,179.181126 86.811426,153.259506 86.756346,146.957706 C86.752026,146.320506 86.747166,145.678986 86.742306,145.036926 C86.742306,145.036926 87.176466,142.913646 89.434206,141.159726 C89.599986,141.030126 89.757126,140.915106 89.757126,140.915106 C89.905086,140.808186 90.047646,140.707206 90.182106,140.614866 C90.273906,140.545206 90.366246,140.485806 90.458586,140.425326 C90.565506,140.347026 90.676206,140.277906 90.782046,140.208246 C91.063386,140.028426 91.326906,139.862106 91.576386,139.714686 C91.774566,139.599126 91.963566,139.488426 92.162286,139.377726 C92.250306,139.331286 92.323746,139.285386 92.411226,139.238946 C92.642346,139.114746 92.859966,138.999186 93.034926,138.911166 C93.081366,138.892266 93.118086,138.869586 93.154806,138.851226 C93.302766,138.781566 93.418326,138.731346 93.514986,138.680586 C93.750426,138.578526 93.981546,138.472686 94.230486,138.375486 C94.327686,138.325266 94.429206,138.288006 94.535046,138.246426 C94.794246,138.149226 95.056686,138.047706 95.320206,137.955366 C95.860206,137.775546 96.418566,137.604906 97.000146,137.461806 C97.176186,137.420226 97.360326,137.373786 97.540146,137.337066 C97.720506,137.299806 97.905186,137.267946 98.085006,137.235546 C98.233506,137.202606 98.380926,137.175606 98.524026,137.157246 L98.524026,137.152386 C98.560746,137.147526 98.598006,137.143206 98.634726,137.138346 C98.814546,137.110806 98.999766,137.088126 99.183906,137.064906 C99.331866,137.046006 99.484146,137.027646 99.636426,137.013606 C100.084086,136.962846 100.536606,136.935306 100.993986,136.921266 C101.206206,136.916946 101.422746,136.912086 101.635506,136.912086 L101.667906,136.912086 C101.921706,136.912086 102.171186,136.916946 102.420666,136.926126 C102.683106,136.935306 102.946626,136.949346 103.204746,136.972566 C103.454226,136.986066 103.698846,137.013606 103.943466,137.046006 C104.197806,137.068686 104.447286,137.101626 104.696226,137.138346 L104.696226,137.143206 C104.728626,137.143206 104.756166,137.143206 104.784246,137.147526 C104.830146,137.157246 104.871726,137.161566 104.913306,137.170746 C105.111486,137.198826 105.305346,137.235546 105.499746,137.267946 C105.757866,137.313846 106.011666,137.364606 106.274646,137.428866 C106.422606,137.461806 106.574886,137.494206 106.722306,137.530926 C106.898346,137.572506 107.082486,137.623266 107.258526,137.669706 C107.660286,137.775546 108.051786,137.886246 108.449766,138.015306 C108.620406,138.066066 108.781866,138.121686 108.948186,138.181626 C109.326726,138.306366 109.695546,138.444606 110.069766,138.592566 C110.134566,138.620106 110.208006,138.643326 110.277126,138.675726 C110.475846,138.758886 110.669706,138.837186 110.873286,138.934386 C111.011526,138.989466 111.150306,139.049406 111.283686,139.114746 C111.288006,139.118526 111.297726,139.118526 111.306906,139.123386 C111.911706,139.386366 112.511646,139.696326 113.107266,140.018706 C113.305986,140.125626 113.499846,140.236326 113.693706,140.347026 C113.762826,140.383746 113.822766,140.425326 113.887566,140.462586 C114.021486,140.536026 114.155406,140.619186 114.284466,140.697486 C114.395166,140.757426 114.505866,140.826546 114.607926,140.891886 C114.755346,140.983686 114.898446,141.076026 115.037226,141.168366 C115.111206,141.214806 115.180326,141.260706 115.253766,141.307146 C115.429266,141.422706 115.605306,141.542586 115.780266,141.662466 C115.937406,141.768846 116.089686,141.875226 116.241966,141.985926 C116.523306,142.188966 116.805186,142.392006 117.082206,142.604226 C117.511506,142.932006 117.935946,143.273826 118.356066,143.629146 C118.504026,143.749566 118.651986,143.873766 118.790226,144.002826 C118.813446,144.012546 118.822626,144.026046 118.836666,144.035766 C118.979766,144.164826 119.127186,144.289566 119.270286,144.423486 C119.436066,144.570906 119.598066,144.723186 119.764386,144.875466 C119.893446,145.005066 120.032226,145.134126 120.161286,145.263186 C120.470706,145.554246 120.770946,145.854486 121.070646,146.163366 C121.218606,146.315646 121.366566,146.472786 121.504266,146.629926 C121.546386,146.667186 121.578786,146.703906 121.611186,146.741166 C121.735386,146.870226 121.855806,146.999286 121.971366,147.128346 C122.146326,147.322746 122.312646,147.516066 122.488146,147.714786 C122.691186,147.950226 122.894766,148.199706 123.101586,148.449186 C123.212826,148.587426 123.323526,148.721346 123.434766,148.864446 C123.591366,149.062626 123.748506,149.261346 123.900786,149.464926 L123.905646,149.464926 L123.905646,149.468706 C123.909966,149.473566 123.909966,149.473566 123.914286,149.478426 C123.965046,149.538366 124.006626,149.607486 124.057926,149.667426 C124.062246,149.672286 124.067106,149.676606 124.067106,149.681466 L124.454286,150.193926 C124.569846,150.346206 124.676226,150.502806 124.786926,150.655626 C124.829046,150.710706 124.870086,150.766326 124.911666,150.826266" id="Fill-59" fill="#282C39"></path>
                        <path d="M161.943354,167.444982 C149.321394,167.160942 136.696734,166.867722 124.074774,166.578282 L124.034814,166.578282 C123.943014,166.578282 123.862014,166.572342 123.776154,166.572342 L123.773454,166.572342 C123.523974,166.569102 123.277194,166.560462 123.029334,166.555062 C111.096954,166.282362 99.164034,166.009662 87.228954,165.733722 C86.849874,162.047142 86.588514,157.958802 86.554494,153.528642 L86.554494,153.479502 C86.531274,150.861042 86.585274,148.115682 86.740254,145.265022 L86.740254,145.235862 C86.740254,145.221822 86.743494,145.204542 86.743494,145.189962 C86.752134,145.112742 86.755374,145.034982 86.763474,144.955062 L86.763474,144.949122 L86.763474,144.946422 C86.801274,144.308682 86.841234,143.668782 86.884434,143.022402 C87.024834,141.118902 87.197094,139.269942 87.403914,137.484162 C88.543854,134.385642 89.749674,131.517702 90.958734,128.887902 C91.529514,127.641582 92.104074,126.449802 92.669994,125.310402 C92.727234,125.195382 92.781774,125.083062 92.839014,124.971282 C92.839014,124.968582 92.841714,124.968582 92.841714,124.965342 C92.861694,124.928082 92.879514,124.887582 92.902194,124.850322 C99.580914,124.864902 106.259094,124.876242 112.937274,124.890822 C119.813634,124.905402 126.690534,124.916742 133.570134,124.931322 C138.505734,124.942662 143.440794,124.951302 148.373694,124.959402 C150.337674,124.962642 152.301654,124.968582 154.265634,124.971282 C156.542274,129.507822 158.928534,134.937522 160.992414,141.182082 C161.024274,141.934302 161.053434,142.686522 161.084754,143.441982 C161.087454,143.530542 161.087454,143.619642 161.093394,143.705502 L161.093394,143.794602 C161.096634,143.826462 161.096634,143.860482 161.096634,143.892342 C161.107434,144.061902 161.110674,144.228222 161.119314,144.394542 C161.392014,152.081442 161.667414,159.764022 161.943354,167.444982" id="Fill-61" fill="#282C39"></path>
                        <path d="M133.813242,313.66575 C134.476362,314.12259 140.641002,318.22875 146.739222,315.65673 C148.522302,314.90451 149.819922,313.78455 150.711462,312.80013 C151.185042,313.93359 151.849242,315.96939 151.634862,318.49335 C151.531722,319.71375 150.867522,325.21959 146.056662,327.57291 C143.503542,328.82193 140.019462,329.06763 137.246562,327.41901 C133.253262,325.04409 131.485302,319.18563 133.813242,313.66575" id="Fill-63" fill="#232631"></path>
                        <path d="M133.813242,313.50861 C134.476362,313.88175 140.641002,317.24325 146.739222,315.13833 C148.522302,314.52273 149.819922,313.60581 150.711462,312.80013 C150.949062,313.25967 151.237422,313.90713 151.437762,314.69823 C151.437762,314.69823 151.761762,316.01961 151.634862,317.45979 C151.472862,319.29579 150.095322,323.16435 146.248902,325.03383 C142.824222,326.69865 139.334742,325.85841 137.246562,324.76545 C136.553742,324.40203 135.399762,323.75619 134.420742,322.48503 C132.609042,320.13387 132.176502,316.76805 133.813242,313.50861" id="Fill-65" fill="#282C39"></path>
                        <path d="M96.881778,313.66575 C97.544898,314.12259 103.709538,318.22875 109.807758,315.65673 C111.590838,314.90451 112.887918,313.78455 113.779998,312.80013 C114.253038,313.93359 114.917238,315.96939 114.702858,318.49335 C114.599718,319.71375 113.935518,325.21959 109.125198,327.57291 C106.571538,328.82193 103.087998,329.06763 100.315098,327.41901 C96.321258,325.04409 94.553298,319.18563 96.881778,313.66575" id="Fill-67" fill="#232631"></path>
                        <path d="M96.881778,313.50861 C97.544898,313.88175 103.709538,317.24325 109.807758,315.13833 C111.590838,314.52273 112.887918,313.60581 113.779998,312.80013 C114.017058,313.25967 114.305418,313.90713 114.505758,314.69823 C114.505758,314.69823 114.829758,316.01961 114.702858,317.45979 C114.540858,319.29579 113.163858,323.16435 109.316898,325.03383 C105.892758,326.69865 102.402738,325.85841 100.315098,324.76545 C99.622278,324.40203 98.468298,323.75619 97.488738,322.48503 C95.677038,320.13387 95.244498,316.76805 96.881778,313.50861" id="Fill-69" fill="#282C39"></path>
                        <path d="M121.745484,11.794194 C121.487364,11.779074 121.229784,11.762874 120.971124,11.747214 C118.892124,12.313674 114.395544,13.860234 110.976804,18.082494 C110.111724,19.150074 107.957664,22.066614 106.940844,28.123794 C105.117264,38.989674 108.829764,48.783654 111.117204,53.698194 C109.513404,49.149774 105.944004,37.608354 108.375624,26.659854 C109.450224,21.820914 111.206304,19.310994 112.149144,18.128934 C115.389144,14.071374 119.618964,12.441654 121.745484,11.794194" id="Fill-71" fill="#2A2423"></path>
                        <path d="M121.745484,11.794194 C121.487364,11.779074 121.229784,11.762874 120.971124,11.747214 C118.892124,12.313674 114.395544,13.860234 110.976804,18.082494 C110.111724,19.150074 107.957664,22.066614 106.940844,28.123794 C105.117264,38.989674 108.829764,48.783654 111.117204,53.698194 C109.513404,49.149774 105.944004,37.608354 108.375624,26.659854 C109.450224,21.820914 111.206304,19.310994 112.149144,18.128934 C115.389144,14.071374 119.618964,12.441654 121.745484,11.794194" id="Fill-73" fill="#5F413E"></path>
                        <path d="M123.082308,11.65968 C123.340428,11.64402 123.598548,11.62836 123.856668,11.6127 C125.936208,12.17862 130.432788,13.72518 133.850988,17.94798 C134.716068,19.01556 136.870128,21.93156 137.886948,27.98928 C139.710528,38.85516 135.998028,48.64914 133.711128,53.56368 C135.314388,49.01526 138.883788,37.4733 136.452168,26.52534 C135.377568,21.6864 133.622028,19.17594 132.678648,17.99442 C129.438648,13.93632 125.208828,12.30714 123.082308,11.65968" id="Fill-75" fill="#5F413E"></path>
                        <path d="M106.817994,26.48808 C106.910874,25.1883 107.397954,20.59668 111.146094,16.6779 C115.349994,12.2823 120.639294,11.88972 121.802454,11.83032 C122.151294,8.82792 122.499054,5.82444 122.847894,2.82204 C122.922414,5.77368 122.996934,8.72478 123.071994,11.67696 C124.696314,11.7801 128.432034,12.24288 132.074334,14.90886 C137.093634,18.58248 138.393954,23.8491 138.690414,25.23798 L139.998834,26.06526 C140.643594,24.59808 143.864694,16.88202 140.229954,9.29178 C139.489074,7.74468 137.786994,4.32054 133.809894,2.14758 C129.016854,-0.47196 124.277274,0.5562 123.059034,0.85914 C116.792334,-0.68418 110.265354,1.22148 106.298514,5.8293 C102.486654,10.2573 100.757034,17.24112 103.528854,22.5639 C104.487894,24.40584 105.786594,25.67052 106.817994,26.48808" id="Fill-77" fill="#2A2423"></path>
                        <path d="M139.870314,36.294588 C141.056694,37.261728 142.868394,39.006468 144.199494,41.708628 C146.422134,46.222488 145.859994,50.476608 145.571634,52.043688 C147.305034,52.633908 149.515254,53.706888 151.425234,55.715688 C157.715694,62.332308 154.629594,72.673848 154.428714,73.312668 C154.612854,72.241308 156.424014,60.734988 149.219874,54.964548 C148.206834,54.153468 146.790414,53.275428 144.856134,52.665228 C145.137474,50.403708 145.517094,44.675388 141.947154,39.738168 C141.200874,38.706228 140.388714,37.856268 139.588974,37.156968 L139.870314,36.294588 Z" id="Fill-79" fill="#5F413E"></path>
                        <path d="M152.850348,72.402822 C153.483768,72.942282 154.351548,73.808442 155.062728,75.066102 C155.954808,76.644522 156.269088,78.255882 156.352248,80.609202 C156.432168,82.849662 156.322548,86.316462 155.253348,90.647262 C155.326788,90.226062 156.588228,82.774062 155.718828,78.544242 C155.582208,77.877342 155.332728,76.664502 154.545948,75.271302 C153.877968,74.089242 153.099288,73.266822 152.557128,72.765702 C152.654868,72.644202 152.752068,72.523782 152.850348,72.402822" id="Fill-81" fill="#2A2423"></path>
                        <path d="M153.536958,123.568362 C153.737298,123.479262 155.947518,127.884042 157.588038,131.641362 C159.249618,135.447822 160.419798,138.800682 161.232498,141.399702 C161.232498,141.399702 161.233038,141.399702 161.233038,141.400242 C161.477658,142.109262 161.806518,143.088282 162.171018,144.262242 C162.171018,144.262242 165.130758,153.790002 166.159998,164.064042 C166.303098,165.489642 166.425678,167.066982 166.425678,167.066982 C166.583898,169.099542 166.664898,170.716302 166.723218,171.901062 C167.174118,181.113462 166.617378,191.268702 166.617378,191.268702 C166.514778,193.244562 166.195638,198.878382 165.315438,206.367102 C164.527578,213.064182 163.239138,221.680422 161.021358,231.688782 C160.998138,231.318882 160.974378,230.949522 160.951158,230.580162 C163.003698,220.190562 164.161458,211.156902 164.845638,203.950062 C165.448278,197.611542 165.637278,193.178142 165.925098,186.447042 C166.251798,178.808202 166.223178,175.009842 165.878118,170.774622 C165.627018,167.687442 165.270078,165.134322 164.986578,163.360422 C164.419578,158.607882 163.314198,151.734762 160.951158,143.699022 C157.627998,132.400062 153.255618,123.693642 153.536958,123.568362" id="Fill-83" fill="#FCF9F8"></path>
                        <path d="M136.222128,234.075906 C139.321728,234.855126 144.985788,235.819566 151.707168,234.263826 C155.659428,233.348526 158.776308,231.840306 160.962768,230.544846 C161.070768,230.512446 161.178228,230.480586 161.285688,230.447646 C161.217108,230.865606 161.148528,231.282486 161.079948,231.700446 C157.973868,233.331786 151.978788,235.895706 144.292968,235.530126 C141.113988,235.379466 138.384288,234.762246 136.222128,234.075906" id="Fill-85" fill="#FCF9F8"></path>
                        <path d="M104.406944,125.3988 C104.415588,125.26164 118.080828,127.19862 137.230848,125.35182 C144.009468,124.69788 149.620068,123.7491 153.560448,122.98176 C153.583668,123.27066 153.607428,123.55902 153.630648,123.84738 C149.782608,124.58772 144.402588,125.4744 137.935008,126.05544 C118.802268,127.77426 104.398308,125.5392 104.406944,125.3988" id="Fill-87" fill="#FCF9F8"></path>
                        <g id="Group-91" transform="translate(123.120000, 0.000000)">
                            <mask id="mask-4" fill="white">
                                <use xlink:href="#path-3"></use>
                            </mask>
                            <g id="Clip-90"></g>
                            <path d="M0.0567,0.673002 C0.05562,0.712422 7.71768,-1.464318 13.40712,3.230442 C17.39232,6.518502 18.2682,11.410362 18.58032,13.155102 C19.18296,16.518222 18.6408,19.796022 18.59814,20.045502 C18.48582,20.694582 18.36,21.229722 18.26388,21.601782 C18.70182,18.847782 19.33524,12.268962 15.55362,6.714522 C15.066,5.998482 14.21928,4.774842 12.72672,3.582522 C7.32132,-0.735318 0.05778,0.635202 0.0567,0.673002" id="Fill-89" fill="#FCF9F8" mask="url(#mask-4)"></path>
                        </g>
                        <path d="M144.638568,25.732944 C144.228708,28.364364 142.594668,30.294864 140.988168,30.044304 C139.382208,29.794284 138.411828,27.458244 138.821688,24.826824 C139.231008,22.195404 140.865588,20.265444 142.472088,20.515464 C144.078588,20.765484 145.048428,23.101524 144.638568,25.732944" id="Fill-92" fill="#E49D92"></path>
                        <path d="M141.57153,20.381436 C142.05375,20.297196 142.79301,20.249136 143.47233,20.616336 C145.31049,21.609396 145.36935,24.921756 144.76239,27.021276 C144.31203,28.577556 143.43237,29.685636 142.74441,30.376296 C143.41509,29.797416 144.99135,28.263276 145.37205,25.848396 C145.61829,24.287256 145.53999,21.251916 143.67699,20.328516 C142.93287,19.960236 142.13745,20.043936 141.60609,20.164896 L141.57153,20.381436 Z" id="Fill-94" fill="#FCF9F8"></path>
                        <path d="M139.190022,38.42397 C139.997862,39.70215 140.992542,41.60781 141.594642,44.07831 C142.486722,47.73627 142.080102,50.83101 141.712362,52.57143 C143.375022,53.21943 146.943342,54.88371 149.642262,58.67181 C154.270602,65.16693 152.517222,72.53739 152.223462,73.68813 C153.045882,75.29031 153.818082,77.23161 154.299222,79.49475 C156.161142,88.24005 152.366022,95.59647 150.815142,98.25273 C152.200242,95.87619 156.049362,88.54137 154.017882,79.88139 C153.438462,77.41089 152.502102,75.35187 151.554402,73.72269 C151.806582,72.56763 153.505422,64.12635 147.953142,57.68631 C145.590642,54.94635 142.805322,53.60175 141.055182,52.94727 C141.514182,51.27597 142.187022,47.88639 141.102162,43.91415 C140.527602,41.80923 139.632282,40.17411 138.876282,39.04011 C138.980502,38.83491 139.085262,38.62917 139.190022,38.42397" id="Fill-96" fill="#FCF9F8"></path>
                        <path d="M141.102162,21.038508 C141.248502,20.293848 142.493202,13.303008 137.442042,7.805808 C133.036182,3.011148 127.141002,2.943648 126.179802,2.949048 C127.543842,3.044088 132.487002,3.553848 136.526742,7.594668 C141.890562,12.959028 141.208542,20.093508 141.102162,21.038508" id="Fill-98" fill="#5F413E"></path>
                        <path d="M121.487634,11.84112 C119.772594,12.54366 117.796194,13.66848 116.044434,15.50124 C109.527174,22.32036 112.006314,32.77476 112.290354,33.8958 C111.958794,31.84218 110.845314,23.46354 116.232354,16.53372 C117.939294,14.33754 119.866014,12.8439 121.487634,11.84112" id="Fill-100" fill="#FCF9F8"></path>
                        <path d="M139.248558,60.501762 C139.948398,65.115522 141.092118,68.688162 142.040898,71.154342 C143.639298,75.309102 144.707418,77.735862 147.484098,83.917242 C148.099158,85.286682 148.672098,86.886162 149.079258,88.703802 C150.525918,95.163822 149.045238,100.710162 147.952818,103.719582 C149.871438,94.634082 148.569498,88.405722 147.014838,84.386502 C145.021698,79.235982 141.592698,75.074742 139.975938,66.649122 C139.478598,64.057662 139.312278,61.893342 139.248558,60.501762" id="Fill-102" fill="#5F413E"></path>
                        <path d="M140.890698,20.86236 C140.762718,19.33416 140.106078,13.73058 135.494478,9.82368 C133.846938,8.42778 132.151338,7.63506 130.825638,7.17174 C132.294978,7.86834 134.670438,9.23184 136.808298,11.74716 C139.851198,15.32736 140.644998,19.15866 140.890698,20.86236" id="Fill-104" fill="#5F413E"></path>
                        <path d="M106.565922,26.294004 C104.393502,22.292604 104.566842,17.465004 107.034642,13.812444 C110.235222,9.074484 115.689762,8.685144 116.325882,8.650044 C115.806942,8.721864 109.554282,9.694404 106.683102,15.548544 C104.141322,20.729844 106.264062,25.629804 106.565922,26.294004" id="Fill-106" fill="#5F413E"></path>
                        <path d="M120.001068,5.031018 C119.052828,4.939218 112.767768,4.434858 108.010908,9.078858 C103.879368,13.112658 102.534768,19.433898 104.573808,25.219458 C102.114108,19.919898 102.975408,13.715838 106.738128,9.499518 C111.886488,3.731778 119.550168,4.951098 120.001068,5.031018" id="Fill-108" fill="#5F413E"></path>
                        <path d="M100.80153,26.512866 C101.91663,28.931526 104.01777,30.339846 105.49413,29.658366 C106.97049,28.977426 107.26317,26.465346 106.14753,24.047226 C105.03243,21.628566 102.93129,20.220786 101.45493,20.901186 C99.97911,21.582126 99.68643,24.094206 100.80153,26.512866" id="Fill-110" fill="#E49D92"></path>
                        <path d="M152.950518,95.179374 C153.974898,97.447374 154.999818,99.714834 156.023658,101.983374 C170.174358,93.242394 177.283998,88.925094 177.351498,89.032014 C177.419538,89.140554 170.280198,93.777534 155.930238,102.945114 C154.937178,100.356894 153.944118,97.768134 152.950518,95.179374" id="Fill-112" fill="#282C39"></path>
                        <path d="M86.200416,230.43933 C86.199336,230.87619 86.198256,231.56631 86.203656,232.40979 C86.203656,232.40979 86.227956,236.22705 86.392116,240.11235 C86.727996,248.01903 87.889536,258.47667 87.889536,258.47667 C88.907976,267.63831 89.875116,276.26265 91.690596,288.74313 C92.423916,293.78565 93.399156,300.16521 94.647096,307.55943 C94.163256,303.62445 93.345156,297.01323 92.300796,288.79011 C89.849736,269.49861 88.937676,263.28645 88.077456,253.50273 C87.651396,248.65839 87.081696,241.16103 86.763636,231.82335 L86.200416,230.43933 Z" id="Fill-114" fill="#282C39"></path>
                        <path d="M114.1101,164.34576 L123.54228,176.54652 C123.61356,184.59522 123.50286,192.9555 123.16644,201.60414 C122.62752,215.45514 121.56858,228.56418 120.16188,240.85674 C120.50802,235.71594 120.86658,229.77864 121.19004,223.1766 C121.59126,215.02638 122.0238,206.12448 122.13396,194.6592 C122.2047,187.3152 122.12856,181.17972 122.04054,176.82786 C119.3967,172.66716 116.75394,168.50646 114.1101,164.34576" id="Fill-116" fill="#FCF9F8"></path>
                        <path d="M122.89563,175.983192 C126.58707,173.105532 130.27851,170.227332 133.96941,167.349132 C130.49721,170.790552 127.02447,174.231432 123.55227,177.672852 L122.89563,175.983192 Z" id="Fill-118" fill="#FCF9F8"></path>
                        <path d="M108.37206,57.499038 C112.20822,63.893718 119.20392,67.465278 126.10998,66.578598 C133.94052,65.573658 138.1023,59.292918 138.70926,58.343058 C135.5211,64.422918 129.06324,68.032818 122.37912,67.493898 C116.30196,67.003578 110.92734,63.155538 108.37206,57.499038" id="Fill-120" fill="#282C39"></path>
                        <g id="Group-124" transform="translate(0.000000, 56.700000)">
                            <mask id="mask-6" fill="white">
                                <use xlink:href="#path-5"></use>
                            </mask>
                            <g id="Clip-123"></g>
                            <path d="M14.778558,0.001728 C12.287538,2.312388 5.681178,9.119628 2.153898,22.048308 C-3.361122,42.263748 3.349458,60.224688 4.236678,62.505648 C3.270078,59.639328 -2.403162,42.089328 2.909898,22.222188 C6.226578,9.822708 12.149838,2.774628 14.778558,0.001728" id="Fill-122" fill="#FFFFFF" mask="url(#mask-6)"></path>
                        </g>
                    </g>
                </g>
            </g>
        </g>
    </g>
</svg>