<?xml version="1.0" encoding="UTF-8"?>
<svg width="336px" height="300px" viewBox="0 0 336 300" version="1.1" xmlns="http://www.w3.org/2000/svg" xmlns:xlink="http://www.w3.org/1999/xlink">
    <title>Group 7</title>
    <g id="Page-1" stroke="none" stroke-width="1" fill="none" fill-rule="evenodd">
        <g id="For-you-and-your-partner" transform="translate(-44.000000, -2295.000000)">
            <g id="Group-4" transform="translate(44.000000, 2295.000000)">
                <circle id="Mask-Copy-3" fill="#E13856" opacity="0.0770321801" cx="175" cy="150" r="150"></circle>
                <g id="Asset-21" transform="translate(0.000000, 26.000000)" fill-rule="nonzero">
                    <path d="M31.284,138.0816 C31.284,138.0816 26.028,138.2328 27.684,149.8824 C29.34,161.532 31.1688,167.6376 31.1688,167.6376 C31.1688,167.6376 31.2768,170.244 29.2176,169.9416 C27.1584,169.6392 23.1264,167.4936 21.4488,169.5672 C19.7712,171.6408 20.7288,174.6504 23.6088,177.9264 C26.4888,181.2024 32.7024,188.64 33.2496,189.2808 C33.7968,189.9216 34.1208,191.2464 32.6808,191.268 C31.2408,191.2896 21.3048,188.9928 20.5056,193.7736 C19.7064,198.5544 29.3472,206.3376 30.384,207.2088 C31.4208,208.08 31.536,208.692 31.212,209.3112 C30.888,209.9304 27.612,208.8504 24.732,208.3176 C21.852,207.7848 18.4752,207.6624 18.252,210.4776 C18.0288,213.2928 22.6944,220.9176 38.0088,227.9016 L45.36,230.6592 L51.5232,225.792 C64.08,214.56 66.24,205.92 65.2032,203.2848 C64.1664,200.6496 60.9336,201.8448 58.3704,203.1624 C55.8072,204.48 53.0064,206.5248 52.5096,206.0424 C52.0128,205.56 51.948,204.9336 52.6824,203.7888 C53.4168,202.644 60.3072,192.3552 58.1256,188.028 C55.944,183.7008 47.124,188.8344 45.7488,189.2448 C44.3736,189.6552 44.3088,188.316 44.6184,187.524 C44.928,186.732 48.6072,177.84 50.4,173.808 C52.1928,169.776 52.2936,166.716 49.9968,165.168 C47.7,163.62 44.568,166.932 42.6888,167.832 C40.8096,168.732 40.1472,166.212 40.1472,166.212 C40.1472,166.212 40.068,159.84 38.196,148.212 C36.324,136.584 31.176,138.096 31.176,138.096" id="Path" fill="#EBEBEB"></path>
                    <path d="M45.1368,232.56 C43.7904,224.028 41.6664,208.8 39.7656,195.768 C37.8648,182.736 36.1656,170.9208 34.848,162.3744 C34.1928,158.112 33.6672,154.6632 33.3,152.2944 C33.12,151.1064 32.976,150.1848 32.8824,149.544 C32.8392,149.2344 32.8032,148.9968 32.7816,148.824 C32.76,148.6512 32.7816,148.5792 32.7816,148.5792 C32.7816,148.5792 32.7816,148.6656 32.832,148.824 C32.8824,148.9824 32.904,149.2272 32.9616,149.544 C33.0696,150.1776 33.2208,151.0992 33.4224,152.2872 C33.8256,154.6704 34.38,158.1192 35.0496,162.3672 C36.3888,170.8992 38.1384,182.7072 40.0392,195.7464 C41.94,208.7856 44.0352,224.0064 45.3312,232.5528" id="Path" fill="#E0E0E0"></path>
                    <path d="M26.9784,172.8 C27.1414567,172.897433 27.2978064,173.005675 27.4464,173.124 C27.7344,173.34 28.1664,173.664 28.6488,174.0744 C29.6568,174.8952 31.0248,176.0616 32.508,177.372 L36.288,180.72 L37.44,181.7352 C37.5880881,181.85234 37.7254323,181.982455 37.8504,182.124 C37.679539,182.042217 37.5218092,181.935446 37.3824,181.8072 C37.0872,181.5912 36.6624,181.2672 36.1728,180.8496 C35.172,180.0216 33.8256,178.8408 32.3424,177.5232 L28.5408,174.1752 L27.36,173.1816 C27.108,172.944 26.964,172.8 26.9784,172.8 Z" id="Path" fill="#E0E0E0"></path>
                    <path d="M38.5128,181.8432 C38.4624,181.8 40.7448,178.884 43.6104,175.3272 C46.476,171.7704 48.8376,168.9192 48.888,168.9624 C48.9384,169.0056 46.6632,171.9216 43.7976,175.4784 C40.932,179.0352 38.5704,181.8864 38.5128,181.8432 Z" id="Path" fill="#E0E0E0"></path>
                    <path d="M40.5216,202.0104 C40.6615089,201.875921 40.8160775,201.757579 40.9824,201.6576 L42.264,200.7576 C43.3512,199.9944 44.8416,198.9432 46.4472,197.7192 C48.0528,196.4952 49.4712,195.336 50.4936,194.4936 L51.7032,193.4928 C51.8440727,193.361541 51.9985469,193.245685 52.164,193.1472 C52.0449133,193.300412 51.9097406,193.440412 51.7608,193.5648 C51.4944,193.824 51.0984,194.184 50.6016,194.6232 C49.6152,195.5016 48.2112,196.6824 46.5984,197.9136 C44.9856,199.1448 43.4736,200.16 42.3648,200.88 C41.8032,201.24 41.3496,201.5208 41.0328,201.7152 C40.8723607,201.829921 40.7011567,201.928785 40.5216,202.0104 L40.5216,202.0104 Z" id="Path" fill="#E0E0E0"></path>
                    <path d="M28.2816,196.1136 C28.4566333,196.155121 28.6259016,196.217992 28.7856,196.3008 L30.1176,196.8768 C31.2336,197.3736 32.7744,198.072 34.4376,198.864 C36.1008,199.656 37.6632,200.376 38.7576,200.916 L40.0608,201.564 C40.2237576,201.635528 40.3782983,201.724872 40.5216,201.8304 C40.3473046,201.789751 40.1782125,201.729361 40.0176,201.6504 L38.6856,201.0672 C37.5696,200.5704 36.0288,199.872 34.3656,199.08 C32.7024,198.288 31.1472,197.568 30.0456,197.028 L28.7424,196.38 C28.5777011,196.311956 28.4227509,196.222376 28.2816,196.1136 L28.2816,196.1136 Z" id="Path" fill="#E0E0E0"></path>
                    <path d="M27.792,214.1424 C28.0121717,214.202601 28.226603,214.282109 28.4328,214.38 L30.1392,215.1 C31.5792,215.7264 33.5592,216.612 35.7408,217.6056 C37.9224,218.5992 39.888,219.5064 41.3064,220.1688 L42.984,220.9752 C43.1922452,221.065611 43.3922037,221.174023 43.5816,221.2992 C43.361877,221.23761 43.147562,221.158145 42.9408,221.0616 L41.2344,220.3416 C39.7944,219.7152 37.8216,218.8296 35.64,217.836 C33.4584,216.8424 31.4928,215.9424 30.0672,215.2728 L28.3968,214.4664 C28.1858632,214.376815 27.9834421,214.268375 27.792,214.1424 L27.792,214.1424 Z" id="Path" fill="#E0E0E0"></path>
                    <path d="M43.2576,221.04 C43.4280889,220.864974 43.616299,220.708132 43.8192,220.572 C44.2296,220.2624 44.7696,219.852 45.4104,219.3768 C46.7496,218.3688 48.6,216.9576 50.5944,215.352 C52.5888,213.7464 54.36,212.2416 55.6344,211.1472 C56.2464,210.6216 56.7504,210.1824 57.1464,209.8512 C57.3207647,209.681825 57.5112708,209.529902 57.7152,209.3976 C57.5577866,209.584979 57.3869346,209.760643 57.204,209.9232 C56.8656,210.2472 56.3688,210.7152 55.764,211.2768 C54.5184,212.4072 52.7616,213.9336 50.724,215.5392 C48.6864,217.1448 46.8576,218.5344 45.4896,219.5136 C44.7696,220.0032 44.244,220.392 43.8552,220.6512 C43.6659855,220.795537 43.4662269,220.925501 43.2576,221.04 L43.2576,221.04 Z" id="Path" fill="#E0E0E0"></path>
                    <path d="M260.2584,189.864 L276.0408,207.3096 C276.0408,207.3096 299.0808,197.136 302.2992,200.0736 L269.568,231.8832 L243.8712,205.704 L260.2584,189.864 Z" id="Path" fill="#D61335"></path>
                    <g id="Group" opacity="0.3" transform="translate(243.360000, 189.360000)" fill="#000000">
                        <path d="M16.8984,0.504 L32.6808,17.9496 C32.6808,17.9496 55.7208,7.776 58.9392,10.7136 L26.208,42.5232 L0.5112,16.344 L16.8984,0.504 Z" id="Path"></path>
                    </g>
                    <path d="M264.5352,215.7264 C264.079189,216.560477 264.320694,217.603901 265.0968,218.1528 C265.912839,218.64112 266.968183,218.407301 267.5016,217.62 C267.986788,216.736878 267.725587,215.629883 266.8968,215.0568 C266.076,214.6464 264.7368,215.0136 264.456,215.8848" id="Path" fill="#E0E0E0"></path>
                    <path d="M269.568,231.8832 L267.12,229.14 L299.4336,199.6704 C299.4336,199.6704 301.5072,198.8856 302.3136,200.0736 L269.568,231.8832 Z" id="Path" fill="#263238"></path>
                    <path d="M276.408,206.64 C276.5592,206.8056 275.8248,207.6552 275.544,208.9368 C275.2632,210.2184 275.4864,211.2912 275.2776,211.3704 C275.0688,211.4496 274.4136,210.2976 274.788,208.7568 C275.1624,207.216 276.3,206.4456 276.408,206.64 Z" id="Path" fill="#263238"></path>
                    <path d="M281.2176,204.7104 C281.4048,204.8328 280.98,205.776 281.0952,206.9784 C281.2104,208.1808 281.7432,209.052 281.5776,209.196 C281.412,209.34 280.4328,208.5408 280.3176,207.036 C280.2024,205.5312 281.0664,204.5664 281.2176,204.7104 Z" id="Path" fill="#263238"></path>
                    <path d="M287.1648,206.928 C287.0496,207.1008 286.0488,206.5176 285.6096,205.2432 C285.1704,203.9688 285.6096,202.896 285.7752,202.9608 C285.9408,203.0256 285.9696,203.9472 286.344,204.9912 C286.7184,206.0352 287.28,206.7552 287.1648,206.928 Z" id="Path" fill="#263238"></path>
                    <path d="M272.3688,203.04 C272.4408,203.2488 271.4976,203.76 270.6552,204.6816 C269.8128,205.6032 269.3808,206.5896 269.1648,206.532 C268.9488,206.4744 269.0712,205.2504 270.0792,204.156 C271.0872,203.0616 272.3256,202.8528 272.3688,203.04 Z" id="Path" fill="#263238"></path>
                    <path d="M256.4424,193.7808 L272.2176,211.2264 C272.2176,211.2264 295.2576,201.0456 298.4832,203.9904 L265.752,235.8 L240.048,209.6208 L256.4424,193.7808 Z" id="Path" fill="#D61335"></path>
                    <path d="M260.7192,219.6432 C260.259714,220.476797 260.501783,221.522659 261.2808,222.0696 C262.096839,222.55792 263.152183,222.324101 263.6856,221.5368 C264.170788,220.653678 263.909587,219.546683 263.0808,218.9736 C262.26,218.5632 260.9208,218.9304 260.64,219.8016" id="Path" fill="#E0E0E0"></path>
                    <path d="M265.752,235.8 L263.268,233.0568 L295.5744,203.5872 C295.5744,203.5872 297.648,202.8024 298.4544,203.9904 L265.752,235.8 Z" id="Path" fill="#263238"></path>
                    <path d="M272.5848,210.5424 C272.736,210.708 272.0088,211.5576 271.7208,212.8392 C271.4328,214.1208 271.6704,215.1936 271.4616,215.2728 C271.2528,215.352 270.5904,214.2 270.9648,212.6592 C271.3392,211.1184 272.484,210.3624 272.5848,210.5424 Z" id="Path" fill="#263238"></path>
                    <path d="M277.4016,208.6272 C277.5888,208.7496 277.1568,209.6928 277.272,210.8952 C277.3872,212.0976 277.9272,212.9688 277.7616,213.1128 C277.596,213.2568 276.6168,212.4576 276.5016,210.9528 C276.3864,209.448 277.2504,208.476 277.4016,208.6272 Z" id="Path" fill="#263238"></path>
                    <path d="M283.3416,210.8448 C283.2336,211.0176 282.2328,210.4344 281.7936,209.16 C281.3544,207.8856 281.7936,206.8128 281.9592,206.8776 C282.1248,206.9424 282.1464,207.864 282.528,208.908 C282.9096,209.952 283.4856,210.672 283.3416,210.8448 Z" id="Path" fill="#263238"></path>
                    <path d="M268.56,206.964 C268.632,207.18 267.6888,207.684 266.8392,208.6056 C265.9896,209.5272 265.572,210.5208 265.356,210.4632 C265.14,210.4056 265.2624,209.1744 266.2704,208.0872 C267.2784,207 268.5096,206.7624 268.56,206.964 Z" id="Path" fill="#263238"></path>
                    <path d="M134.9424,31.5072 C134.407446,31.0075914 134.170852,30.2657085 134.317793,29.5486362 C134.464734,28.831564 134.974057,28.242533 135.6624,27.9936 C134.9424,27 135.9504,25.6104 137.1024,25.1712 C138.2544,24.732 139.5504,24.7536 140.5872,24.1056 C139.905821,23.9376271 139.326503,23.4908273 138.990935,22.8744777 C138.655367,22.2581282 138.594492,21.5290648 138.8232,20.8656 C137.944398,20.5397677 137.401218,19.6564697 137.506968,18.7251927 C137.612717,17.7939157 138.340116,17.0548957 139.2696,16.9344 C138.2832,16.3512 139.1832,14.6952 140.3208,14.5296 C141.4584,14.364 142.5672,14.9544 143.712,14.9616 C146.325818,13.8598123 149.219941,13.6079304 151.9848,14.2416 C151.0776,12.528 150.1776,10.8072 149.2704,9.0864 C149.018556,8.69650121 148.874471,8.24685608 148.8528,7.7832 C148.8528,6.7752 149.9832,6.1632 150.9624,5.8968 C153.049746,5.3446818 155.253501,5.41980981 157.2984,6.1128 C157.9464,6.336 158.688,6.8328 158.6088,7.488 C160.2144,7.488 161.6976,8.2872 163.1088,9.0576 C163.949811,9.39696421 164.640095,10.0284464 165.0528,10.836 C165.011372,9.93765075 164.806417,9.05439371 164.448,8.2296 C164.096437,7.39257777 164.114741,6.44600525 164.4984,5.6232 C164.9592,4.86 166.2624,4.6296 166.716,5.4 C166.14,4.68 166.8096,3.5352 167.7024,3.312 C168.618803,3.19144993 169.549167,3.3815788 170.3448,3.852 C170.928,4.1112 171.6192,4.572 171.5112,5.1912 C172.3896,4.0248 174.6792,4.9032 174.564,6.3576 C175.14305,6.1870039 175.766735,6.2614709 176.289342,6.56360301 C176.811949,6.86573512 177.187697,7.36906573 177.3288,7.956 C178.148798,7.9230171 178.943921,8.24142173 179.514512,8.83126125 C180.085103,9.42110076 180.376961,10.2263472 180.3168,11.0448 C180.1728,9.4392 180.0216,7.8264 179.8776,6.2136 C179.7912,5.2992 180.3528,3.9384 181.1376,4.4136 C179.9496,3.8592 180.0504,1.9224 181.1376,1.1664 C182.2248,0.4104 183.7296,0.6624 184.8312,1.3608 C184.932,2.0232 185.04,2.6784 185.148,3.3336 C186.235049,3.17637319 187.307163,3.7024238 187.848,4.6584 C188.346698,5.63468984 188.19825,6.81656742 187.4736,7.6392 C188.1936,7.3584 188.9784,8.0784 189.072,8.8416 C189.085826,9.60829742 188.867468,10.3612539 188.4456,11.0016 C190.0512,10.584 191.628,12.7152 190.7568,14.1264 C192.059622,14.1184335 193.340521,14.4616646 194.4648,15.12 C194.337749,13.9855855 194.982596,12.9056274 196.04153,12.4793686 C197.100464,12.0531098 198.313683,12.3851304 199.008,13.2912 C199.416726,12.6781884 200.073896,12.2754436 200.805645,12.1895185 C201.537394,12.1035934 202.269986,12.3431465 202.8096,12.8448 C203.832,11.6496 206.1072,11.4984 206.7696,12.924 C207.432,14.3496 205.9776,15.9192 204.6744,16.8768 L200.412,20.0016 L209.6208,19.5768 C209.905896,19.535486 210.196831,19.580631 210.456,19.7064 C210.7872,19.9224 210.8808,20.3616 211.1256,20.6712 C211.464,21.1032 212.0544,21.2544 212.4576,21.6216 C213.5592,22.6368 212.5944,24.6024 211.2192,25.2216 C209.844,25.8408 208.26,25.6608 206.82,26.0928 L209.7864,28.2528 C210.457046,27.4879134 211.413461,27.0334794 212.430055,26.9966857 C213.44665,26.9598921 214.433414,27.3439966 215.1576,28.0584 C216.1728,27.0648 217.8576,27.684 219.1176,28.3464 C220.2408,28.944 221.4576,29.6424 221.8824,30.8448 C222.4224,32.3784 221.3568,34.1064 219.9168,34.8696 C218.4768,35.6328 216.7848,35.6616 215.1576,35.6832 C214.9128,36.7632 216.0288,37.6704 217.0872,37.9944 C218.1456,38.3184 219.3624,38.4264 220.1256,39.2256 C221.1696,40.3056 220.9248,42.2064 221.976,43.2792 C222.334924,43.5579864 222.663171,43.8741656 222.9552,44.2224 C223.216246,44.82292 223.236863,45.5007238 223.0128,46.116 C222.8328,46.8936 222.66,47.6784 222.48,48.456 C222.416955,48.8510946 222.272281,49.2287191 222.0552,49.5648 C221.2776,50.6016 219.5496,50.0832 218.6784,49.1184 C217.8072,48.1536 217.2816,46.8 216.2088,46.08 C217.368,47.5776 218.5848,49.1904 218.7288,51.0768 C218.8728,52.9632 217.4256,55.0944 215.5464,54.9072 C213.6672,54.72 212.7024,52.5384 212.1192,50.7096 C211.536,48.8808 210.4776,46.728 208.5624,46.692" id="Path" fill="#263238"></path>
                    <path d="M137.7792,31.6224 C136.9872,30.1176 134.3016,30.3264 133.7544,31.9392 C131.989239,31.6334775 130.19962,32.3280906 129.102918,33.7446019 C128.006215,35.1611131 127.781943,37.0676607 128.52,38.7 C129.096,39.9672 130.9896,40.9104 131.7888,39.7656 C131.69994,41.0199413 132.239474,42.2365898 133.2288,43.0128 C132.372026,43.5669872 131.786929,44.4550787 131.615851,45.4610195 C131.444772,46.4669603 131.703395,47.4985415 132.3288,48.3048 C129.7296,48.7152 128.3976,52.4448 130.1688,54.4032 C128.916218,55.4669004 128.7631,57.3446182 129.8268,58.5972 C130.8905,59.8497818 132.768218,60.0029004 134.0208,58.9392 C133.847812,60.1422401 134.025298,61.369645 134.532,62.4744 C135.1368,63.5184 136.692,64.116 137.592,63.3456 C137.401827,64.5528398 137.761536,65.7818637 138.572607,66.6960611 C139.383679,67.6102584 140.561102,68.1138097 141.7824,68.0688 C140.937404,69.2617351 141.219465,70.9138043 142.4124,71.7588 C143.605335,72.6037957 145.257404,72.3217351 146.1024,71.1288 L152.0208,74.5344 C153.306101,75.329482 154.663266,76.0020379 156.0744,76.5432 C157.902929,77.1835387 159.857813,77.3785334 161.7768,77.112 C162.383195,76.9717397 163.013605,76.9717397 163.62,77.112 C164.271034,77.4100379 164.835842,77.8683253 165.2616,78.444 C167.908071,81.2256766 171.810597,82.4310692 175.5648,81.6264 C176.130549,81.4490504 176.721701,81.3663378 177.3144,81.3816 C177.98808,81.5072301 178.628125,81.7720764 179.1936,82.1592 C180.652013,82.9875399 182.210208,83.6263034 183.8304,84.06 C185.22,84.4344 186.804,84.6288 188.0136,83.8584 C189.2232,83.088 189.5688,80.9784 188.316,80.2584 C188.656056,79.3723853 189.382848,78.6906863 190.2888,78.408 C191.226789,78.1627342 192.195656,78.6800903 192.5136,79.596 C192.7368,80.5032 191.7432,81.5328 190.8792,81.1656 C191.6712,82.8648 194.4792,82.7928 195.48,81.1656 C196.4808,79.5384 195.6456,77.2776 194.04,76.3128 C195.038005,75.3427412 195.780115,74.1405234 196.2,72.8136 C196.475427,74.3939231 197.931925,75.4878735 199.5264,75.312 C199.535874,76.7623105 200.145846,78.1438706 201.2112,79.128 C202.331277,80.096238 203.975599,80.1502487 205.1568,79.2576 C206.2224,78.3072 206.0928,76.2408 204.7824,75.6576 C206.46,74.7792 206.4024,71.8848 204.696,71.0784 C205.877905,69.5749482 205.898601,67.4639352 204.7464,65.9376 C205.078955,66.4939104 205.639593,66.8755706 206.279092,66.9809979 C206.918591,67.0864251 207.572071,66.9049229 208.0656,66.4848 C208.1232,68.1048 210.1176,68.8896 211.7376,68.8896 C213.012,68.8896 214.3872,68.6376 214.9416,67.0536 C215.192782,66.3074543 215.172383,65.4965717 214.884,64.764 C214.2216,63.036 212.6304,62.0208 211.1112,61.0704 C211.270796,58.6842602 211.825542,56.341188 212.7528,54.1368 C214.49628,55.2529678 216.793559,54.9287179 218.16,53.3736 L211.8672,43.632 C211.8672,43.632 192.7944,30.6072 192.06,30.24 C191.3256,29.8728 137.6928,31.4784 137.6928,31.4784 C136.2024,32.0472 134.4816,30.6432 134.3448,29.052 C134.331803,27.423355 135.213928,25.9190413 136.6416,25.1352 C138.05578,24.3767024 139.598918,23.8883675 141.192,23.6952 C139.86,22.9392 138.4488,22.1112 137.9088,20.6208 C137.529641,19.7044171 137.746321,18.6495297 138.456,17.9568 C139.5216,17.0136 140.8536,17.748 142.056,17.496 C142.744207,17.2801731 143.382882,16.9302476 143.9352,16.4664" id="Path" fill="#263238"></path>
                    <path d="M166.4928,27.8352 L192.1752,32.8104 C199.8936,35.4888 200.5272,46.836 197.5248,54.4104 C194.1912,62.8488 189.792,73.0224 185.9472,78.6816 C178.2144,90.0648 168.0552,87.2064 168.0552,87.2064 C168.0552,87.2064 167.2128,88.992 165.06,93.4416 L163.62,95.868 L137.88,84.1032 L160.56,30.3984 C161.573195,28.1342813 164.149707,27.0211283 166.4928,27.8352 L166.4928,27.8352 Z" id="Path" fill="#9D7C6D"></path>
                    <path d="M190.2888,62.136 C189.89599,62.9952786 188.889918,63.3849318 188.0208,63.0144 C187.606085,62.8566068 187.271616,62.5396407 187.09178,62.1339973 C186.911945,61.728354 186.901656,61.2676682 187.0632,60.8544 C187.246488,60.4288186 187.592381,60.0942256 188.023814,59.925169 C188.455246,59.7561124 188.936374,59.7666378 189.36,59.9544 C189.773554,60.1191825 190.104223,60.442227 190.278606,60.8518251 C190.45299,61.2614231 190.456659,61.7236852 190.2888,62.136 Z" id="Path" fill="#263238"></path>
                    <path d="M192.9024,58.6296 C192.6072,58.7448 191.8296,57.2976 190.1304,56.4696 C188.4312,55.6416 186.7896,55.9368 186.7032,55.6488 C186.6528,55.512 187.0272,55.2312 187.7544,55.0944 C188.732947,54.9245338 189.740123,55.0655385 190.6344,55.4976 C191.51529,55.9104867 192.243454,56.5907781 192.7152,57.4416 C193.0392,58.1256 193.0392,58.5792 192.9024,58.6296 Z" id="Path" fill="#263238"></path>
                    <path d="M174.3696,55.0008 C173.976707,55.8723439 172.952882,56.2619125 172.08,55.872 C171.66403,55.7158195 171.328271,55.3990297 171.148191,54.9928341 C170.968111,54.5866385 170.958818,54.1251156 171.1224,53.712 C171.51521,52.8527214 172.521282,52.4630682 173.3904,52.8336 C173.809557,52.9886479 174.149103,53.3051958 174.33312,53.712468 C174.517137,54.1197402 174.530276,54.5837676 174.3696,55.0008 L174.3696,55.0008 Z" id="Path" fill="#263238"></path>
                    <path d="M176.0688,51.12 C175.7736,51.2352 174.996,49.788 173.2968,48.96 C171.5976,48.132 169.956,48.4344 169.8696,48.1392 C169.8192,48.0096 170.1936,47.7288 170.9208,47.592 C171.899347,47.4221338 172.906523,47.5631385 173.8008,47.9952 C174.684919,48.4060089 175.415967,49.0866393 175.8888,49.9392 C176.2056,50.6088 176.2056,51.0624 176.0688,51.12 Z" id="Path" fill="#263238"></path>
                    <path d="M176.3136,66.5928 C176.3496,66.492 177.4944,66.8016 179.3088,67.3848 C179.7624,67.5432 180.2088,67.6512 180.4248,67.3848 C180.673822,66.9481332 180.781946,66.4452289 180.7344,65.9448 C180.8208,64.6992 180.9144,63.4032 181.008,62.0424 C181.4328,56.5056 181.9584,52.0344 182.1816,52.0559221 C182.4048,52.0776 182.2392,56.5776 181.8144,62.136 C181.692,63.4896 181.584,64.7928 181.4832,66.0312 C181.506628,66.682175 181.303004,67.3210448 180.9072,67.8384 C180.631993,68.0873087 180.257766,68.1961266 179.892,68.1336 C179.622342,68.089962 179.360425,68.0075064 179.1144,67.8888 C177.3504,67.1832 176.2776,66.6864 176.3136,66.5928 Z" id="Path" fill="#263238"></path>
                    <path d="M168.0552,87.228 C162.224835,84.5947458 157.239798,80.3948523 153.6552,75.096 C153.6552,75.096 153.792,85.5648 166.6152,90.216 L168.0552,87.228 Z" id="Path" fill="#7E6256"></path>
                    <path d="M172.2096,66.4128 C171.247312,65.9395191 170.101758,66.040086 169.236652,66.6737917 C168.371545,67.3074974 167.930173,68.3693818 168.0912,69.4296 C168.314113,70.6150242 169.234209,71.5465147 170.4168,71.784 C171.26488,72.0523385 172.17512,72.0523385 173.0232,71.784 L173.1384,71.6688 C173.890592,70.9226634 174.232492,69.8570731 174.054829,68.8125882 C173.877166,67.7681033 173.202182,66.8754809 172.2456,66.42 L172.2096,66.4128 Z" id="Path" fill="#7E6256"></path>
                    <path d="M173.088,72.5256 C172.7856,72.5256 172.9584,70.488 171.3456,68.9256 C169.7328,67.3632 167.5584,67.3704 167.565582,67.0824 C167.565582,66.9528 168.084,66.7296 169.0056,66.7872 C170.195441,66.8817838 171.31421,67.3914734 172.1664,68.2272 C172.984886,69.0092267 173.469808,70.0770863 173.52,71.208 C173.52,72.0648 173.2248,72.5472 173.088,72.5256 Z" id="Path" fill="#263238"></path>
                    <path d="M170.28,44.46 C170.5896,44.0208 172.332,44.748 174.5208,45.0792 C176.7096,45.4104 178.5888,45.3096 178.7472,45.7992 C178.812,46.044 178.3872,46.4256 177.5664,46.7064 C175.362073,47.3783275 172.971033,46.9957612 171.0864,45.6696 C170.424,45.1656 170.136,44.676 170.28,44.46 Z" id="Path" fill="#263238"></path>
                    <path d="M194.58,53.424 C194.1048,53.6688 193.14,52.704 191.7,52.0416 C190.26,51.3792 188.9784,51.0768 188.892,50.544 C188.892,50.292 189.2376,49.9968 189.9288,49.8744 C191.776757,49.6560853 193.574662,50.5706596 194.4864,52.1928 C194.8248,52.8264 194.8032,53.28 194.58,53.424 Z" id="Path" fill="#263238"></path>
                    <path d="M155.196,43.2792 C154.463717,43.9445935 154.24542,45.0069715 154.656,45.9072 C154.890788,46.2790927 155.271446,46.5348056 155.704505,46.6115503 C156.137564,46.6882949 156.582913,46.5789629 156.9312,46.3104 C157.1184,47.2896 158.7024,47.1456 158.9832,46.1232 C159.4656,46.8432 160.7616,46.3392 160.9488,45.4032 C161.5752,46.0656 162.6336,45.0432 163.4328,44.4024 C163.88255,44.0829133 164.348794,43.7873049 164.8296,43.5168 C166.350397,42.5371333 167.559487,41.1431824 168.3144,39.4992 C169.8624,38.844 170.964,37.2096 171.9144,35.676 L173.7576,32.796 L174.6648,32.364 C174.316972,33.0675313 174.452778,33.9141565 175.0032,34.4736 C175.535709,34.9198466 176.176429,35.2178561 176.8608,35.3376 L178.8552,35.8632 L179.8344,36.7416 C179.0424,37.5264 178.8624,38.7576 178.7328,39.8664 C178.563402,40.5945275 178.655141,41.3590234 178.992,42.0264 C179.219753,42.2908767 179.573363,42.4104921 179.914903,42.3385891 C180.256442,42.2666861 180.531812,42.0146538 180.6336,41.6808 C180.753964,41.9808584 181.004043,42.2100466 181.313437,42.3038447 C181.622831,42.3976428 181.958077,42.3459063 182.2248,42.1632 C182.845488,41.7690377 183.326564,41.1897317 183.6,40.5072 C184.325578,38.9023125 184.558614,37.1182114 184.2696,35.3808 C184.8456,36.8784 185.424,38.376 186.0048,39.8736 C186.09047,40.2067599 186.27952,40.5041988 186.5448,40.7232 C186.399555,40.9569198 186.365423,41.2430125 186.451606,41.5043426 C186.53779,41.7656727 186.735415,41.9753346 186.9912,42.0768 C187.519969,42.1786184 188.06761,42.1000217 188.5464,41.8536 C189.7056,41.4144 191.1888,40.4136 190.944,39.1896 C191.3328,39.2904 191.8152,38.772 191.7288,38.3328 L193.9968,42.7968 C193.7448,42.4152 193.0752,42.7968 192.9312,43.2864 C192.840926,43.7794288 192.924924,44.288506 193.1688,44.7264 C192.605968,45.0797508 192.171771,45.6048264 191.9304,46.224 C191.5632,45.3384 190.0728,45.9432 189.8352,46.944 C189.66131,47.9155435 190.139842,48.8871975 191.016,49.3416 C191.684945,49.8063953 192.597353,49.6880626 193.1256,49.068 C193.8456,49.6152 195.1128,48.8952 195.2856,47.8728 C195.6672,48.528 196.6608,47.7432 197.0712,46.9872 C197.812227,45.5977707 198.283717,44.0806971 198.4608,42.516 C198.3384,42.7032 198.4608,42.9768 198.6768,42.9336 C198.774717,42.901306 198.852008,42.8252533 198.88588,42.7278714 C198.919752,42.6304895 198.90634,42.5228876 198.8496,42.4368 C198.7344,44.4 198.6144,46.3704 198.4896,48.348 C198.489034,49.9365693 198.193631,51.511236 197.6184,52.992 C197.3448,53.5896 197.0208,54.432 197.4888,54.72 C197.624491,54.7885763 197.776444,54.8184687 197.928,54.8064 C199.811112,54.672373 201.590746,53.8944184 202.968,52.6032 C203.478417,52.1832199 203.916264,51.6821287 204.264,51.12 C204.984,49.9104 205.0488,48.4416 205.5744,47.1312 C205.852095,46.5716399 206.092616,45.9943894 206.2944,45.4032 C206.453154,44.4616217 206.368893,43.4951024 206.0496,42.5952 C205.1928,39.42 204.264,36.1152 202.1112,33.9552 C200.7936,32.6448 199.0944,31.8456 197.7912,30.5424 C197.002105,29.6870807 196.261736,28.7880613 195.5736,27.8496 C192.4848,24.1416 188.28,21.816 183.9096,20.16 C181.474163,19.1357476 178.8744,18.5577515 176.2344,18.4536 C173.2896,18.4536 170.2944,19.2888 167.364,20.3112 C163.0008,21.8448 158.6376,23.796 154.836,26.8848 C151.9128,29.2608 149.3064,32.4144 148.1544,36.1296 C147.0024,39.8448 147.5856,44.1216 150.1416,46.2096 L151.92,45.468" id="Path" fill="#263238"></path>
                    <path d="M156.7224,46.9008 C156.5928,46.7424 150.9624,41.4432 147.7368,48.3408 C144.5112,55.2384 152.0568,56.9808 152.1936,56.8224 C152.3304,56.664 156.7224,46.9008 156.7224,46.9008 Z" id="Path" fill="#9D7C6D"></path>
                    <path d="M151.308,53.2224 C151.308,53.2224 151.1496,53.2224 150.9048,53.2224 C150.564429,53.2137472 150.241135,53.0714977 150.0048,52.8264 C149.4,52.2216 149.328,50.7816 149.8752,49.5288 C150.132433,48.9311604 150.518415,48.3976689 151.0056,47.9664 C151.340677,47.5915253 151.838876,47.4057107 152.3376,47.4696 C152.657595,47.5284379 152.890442,47.8066441 152.892,48.132 C152.892,48.3624 152.784,48.4776 152.82,48.5064 C152.856,48.5352 153.0216,48.4632 153.0936,48.1536 C153.137428,47.9669044 153.114502,47.7707557 153.0288,47.5992 C152.904693,47.3669945 152.69579,47.1916186 152.4456,47.1096 C151.818236,46.9580428 151.157047,47.1403459 150.696,47.592 C150.126004,48.0507371 149.676254,48.641342 149.3856,49.3128 C148.788,50.7528 148.8888,52.344 149.7456,53.1 C150.070169,53.3808626 150.50311,53.5022972 150.9264,53.4312 C151.2,53.3808 151.3296,53.28 151.308,53.2224 Z" id="Path" fill="#7E6256"></path>
                    <path d="M213.12,51.3792 C213.265708,51.0514653 213.265708,50.6773347 213.12,50.3496 C212.957568,49.967805 212.656587,49.6616798 212.2776,49.4928 C211.758012,49.2874378 211.208384,49.1682708 210.6504,49.14 L210.4488,49.14 L210.5568,48.9672 C210.86674,48.3332651 210.671646,47.5681281 210.096,47.16 C209.403193,46.6963333 208.589626,46.4460052 207.756,46.44 L206.64,46.3536 L207.756,46.1376 C208.061444,46.0182642 208.304897,45.7793521 208.429961,45.476208 C208.555025,45.1730638 208.550849,44.8319912 208.4184,44.532 C208.066415,43.8628111 207.454462,43.3680407 206.7264,43.164 L206.64,43.128 L206.0136,42.8976 L206.676,42.7968 C207.062119,42.6858468 207.374952,42.4021007 207.52294,42.0286064 C207.670928,41.6551121 207.637338,41.234104 207.432,40.8888 C206.955179,40.253341 206.141701,39.9689081 205.3728,40.1688 L204.48,40.32 L205.2,39.8376 C206.084897,39.2363278 206.575221,38.203342 206.4816,37.1376 C206.390806,36.3067912 205.927178,35.5623366 205.2216,35.1144 C204.760839,34.8147003 204.229606,34.6409324 203.6808,34.6104 C203.2992,34.6104 203.0976,34.6104 203.0904,34.6104 C203.0832,34.6104 203.1408,34.6104 203.2344,34.5528 C203.409409,34.537867 203.585466,34.5402787 203.76,34.56 C204.336664,34.546326 204.904751,34.7014866 205.3944,35.0064 C206.185312,35.4620846 206.717965,36.2610637 206.8344,37.1664 C206.962804,38.3382206 206.437359,39.4859021 205.4664,40.1544 L205.344,39.8664 C206.252287,39.6322626 207.210994,39.9814035 207.756,40.7448 C208.020703,41.1785545 208.068601,41.7107522 207.8856,42.1848 C207.724547,42.6973991 207.291506,43.0776982 206.7624,43.1712 L206.7984,42.84 L206.8992,42.84 C207.724339,43.0753848 208.411903,43.6479195 208.7928,44.4168 C208.943964,44.8132803 208.943964,45.2515197 208.7928,45.648 C208.651032,46.0506933 208.314996,46.3542095 207.9,46.4544 L207.9,46.1376 C208.796099,46.1419846 209.669781,46.4181483 210.4056,46.9296 C211.064357,47.4406717 211.264243,48.3492445 210.8808,49.0896 L210.7944,48.8952 C211.376357,48.9381971 211.946427,49.0819326 212.4792,49.32 C212.88866,49.5212693 213.205543,49.8716437 213.3648,50.2992 C213.462721,50.5689896 213.462721,50.8646104 213.3648,51.1344 C213.2352,51.3144 213.156,51.3864 213.12,51.3792 Z" id="Path" fill="#455A64"></path>
                    <path d="M212.0184,31.5648 C211.858825,31.5886389 211.69586,31.5738239 211.5432,31.5216 C211.115314,31.396813 210.702436,31.2253842 210.312,31.0104 C209.754499,30.670387 209.120957,30.47488 208.4688,30.4416 C208.096569,30.4434771 207.744925,30.6126891 207.5112,30.9024 C207.239014,31.1890847 207.191865,31.6222708 207.396,31.9608 L207.108,32.004 C207.2376,31.5792 206.8632,31.0968 206.5464,30.6216 C206.234357,30.1286028 205.848229,29.6866193 205.4016,29.3112 C204.968051,28.9399501 204.398664,28.7675669 203.832,28.836 C203.310785,28.8648734 202.852025,29.1893624 202.6512,29.6712 L202.5144,30.0744 L202.3488,29.6784 C202.02231,28.9219589 201.455423,28.2943336 200.736,27.8928 C200.175042,27.5594277 199.543764,27.3621536 198.8928,27.3168 C198.309379,27.294497 197.726117,27.3649744 197.1648,27.5256 C197.291846,27.4296391 197.436019,27.3587745 197.5896,27.3168 C198.010665,27.1711137 198.454616,27.1028136 198.9,27.1152 C199.588895,27.1358291 200.262856,27.3209832 200.8656,27.6552 C201.653935,28.0725523 202.279965,28.7416697 202.644,29.556 L202.3488,29.556 C202.581646,28.9516858 203.142816,28.5364202 203.7888,28.4904 C204.446167,28.4033739 205.109836,28.5967262 205.6176,29.0232 C206.095289,29.4207311 206.506109,29.8923233 206.8344,30.42 C207.006001,30.6479921 207.160043,30.8886839 207.2952,31.14 C207.456886,31.4159254 207.503443,31.7444122 207.4248,32.0544 L207.324,32.3712 L207.144,32.1048 C206.855123,31.6488034 206.914547,31.0545636 207.288,30.6648 C207.573509,30.3074942 208.011779,30.1070662 208.4688,30.1248 C209.163844,30.1704625 209.834481,30.3989757 210.4128,30.7872 C210.784715,31.0136805 211.174867,31.2087563 211.5792,31.3704 C211.729092,31.4270051 211.875718,31.4919054 212.0184,31.5648 L212.0184,31.5648 Z" id="Path" fill="#455A64"></path>
                    <path d="M199.5624,18.3384 C199.288099,18.2085443 198.997448,18.1165049 198.6984,18.0648 C198.360392,18.0218148 198.017002,18.0613418 197.6976,18.18 C197.281037,18.3220796 196.928757,18.6079878 196.704,18.9864 L196.6104,19.1448 L196.4808,19.0152 C196.04073,18.6961129 195.435861,18.7354294 195.0408,19.1088 C194.601623,19.5743978 194.300065,20.152593 194.1696,20.7792 L193.9752,21.4272 L193.8384,20.7576 L193.8384,20.6496 C193.710499,20.2143984 193.385013,19.8649015 192.96,19.7064 C192.573734,19.5308406 192.133682,19.5153093 191.736,19.6632 C191.044627,19.9328928 190.502013,20.4859926 190.2456,21.1824 C190.070085,21.6629739 189.972848,22.1686055 189.9576,22.68 C189.960932,22.8729196 189.946471,23.0657356 189.9144,23.256 C189.845365,23.0720927 189.813549,22.8763039 189.8208,22.68 C189.78606,22.1463288 189.854508,21.6109639 190.0224,21.1032 C190.271473,20.3099114 190.863488,19.6703236 191.6352,19.3608 C192.127034,19.1715814 192.675226,19.1942056 193.149796,19.4233083 C193.624366,19.652411 193.983049,20.0675886 194.1408,20.5704 L194.1408,20.7072 L193.8024,20.7072 C193.9541,20.0159448 194.298613,19.3818411 194.796,18.8784 C195.31944,18.4210083 196.094906,18.4028334 196.6392,18.8352 L196.416,18.8352 C196.683185,18.4115994 197.09512,18.0994501 197.5752,17.9568 C197.934476,17.8469185 198.315272,17.8271369 198.684,17.8992 C198.91849,17.9416742 199.141602,18.0323901 199.3392,18.1656 C199.512,18.2592 199.5696,18.324 199.5624,18.3384 Z" id="Path" fill="#455A64"></path>
                    <path d="M144.8136,29.7792 C144.784251,29.6904349 144.764931,29.5986635 144.756,29.5056 C144.712558,29.2438435 144.690884,28.9789368 144.6912,28.7136 C144.672672,28.2791048 144.774849,27.8479677 144.9864,27.468 C145.124968,27.2257964 145.32013,27.0207527 145.5552,26.8704 C145.828232,26.6884534 146.160919,26.6188213 146.484,26.676 L146.34,26.8056 C146.256238,26.1557651 146.577546,25.5206202 147.150678,25.2030958 C147.72381,24.8855714 148.432682,24.9499792 148.9392,25.3656 L148.6872,25.5096 C148.606921,24.9516356 148.898575,24.4062426 149.4072,24.1632 C149.917701,23.9218021 150.509499,23.9218021 151.02,24.1632 C151.253797,24.284486 151.49417,24.3926536 151.74,24.4872 C151.956664,24.5397124 152.185109,24.4771621 152.3448,24.3216 C152.558603,24.1266898 152.801529,23.9663587 153.0648,23.8464 C153.33978,23.730157 153.643545,23.7000315 153.936,23.76 C154.517593,23.9378166 155.077784,24.1792783 155.6064,24.48 C156.058346,24.7647756 156.605913,24.8556042 157.1256,24.732 C157.356,24.6456 157.572,24.4728 157.8456,24.3432 C158.108934,24.2114245 158.400869,24.1470998 158.6952,24.156 C159.269874,24.1711904 159.803655,24.4567635 160.1352,24.9264 L159.8616,25.0344 C159.850834,24.4864139 160.168175,23.9849004 160.668,23.76 C161.129424,23.5711454 161.646576,23.5711454 162.108,23.76 C162.811325,24.0447008 163.455804,24.4572654 164.0088,24.9768 C164.367363,25.2984223 164.69518,25.6527537 164.988,26.0352 C165.094339,26.1690351 165.186061,26.3138585 165.2616,26.4672 C165.2256,26.4672 164.8296,25.8984 163.8936,25.1064 C163.335805,24.6130156 162.694592,24.2229239 162,23.9544 C161.601634,23.8000215 161.159966,23.8000215 160.7616,23.9544 C160.338334,24.1276718 160.070103,24.5487659 160.092,25.0056 L160.1928,25.6464 L159.8184,25.1136 C159.548,24.7359537 159.116306,24.5067829 158.652,24.4944 C158.402801,24.4795539 158.154176,24.5317651 157.932,24.6456 C157.700694,24.7971195 157.460235,24.9341814 157.212,25.056 C156.912302,25.1536938 156.592672,25.1735158 156.2832,25.1136 C155.986298,25.041529 155.698771,24.9352167 155.4264,24.7968 C154.920068,24.5068148 154.387261,24.2657257 153.8352,24.0768 C153.597034,24.0111063 153.343802,24.0263003 153.1152,24.12 C152.879067,24.2273713 152.662496,24.3733744 152.4744,24.552 C152.226581,24.7645216 151.89168,24.844898 151.5744,24.768 C151.326496,24.667267 151.085914,24.5493815 150.8544,24.4152 C150.436808,24.2098815 149.950473,24.1967373 149.5224,24.3792 C149.1421,24.5631719 148.919716,24.9675068 148.968,25.3872 L149.0616,25.8192 L148.7232,25.5312 C148.269769,25.1691869 147.63667,25.1344966 147.1464,25.4448 C146.723818,25.7333207 146.496367,26.2326039 146.556,26.7408 L146.556,26.9064 L146.3904,26.8704 C145.867053,26.8139381 145.360317,27.0743833 145.1016,27.5328 C144.897964,27.8832414 144.786492,28.2795869 144.7776,28.6848 C144.7992,29.3976 144.8496,29.7792 144.8136,29.7792 Z" id="Path" fill="#455A64"></path>
                    <path d="M136.3464,48.8376 C136.3464,48.8376 136.2384,48.7728 136.0944,48.6 C135.885333,48.3365539 135.733317,48.0325215 135.648,47.7072 C135.515103,47.1883319 135.552975,46.6404477 135.756,46.1448 C136.020152,45.4889141 136.540114,44.9689517 137.196,44.7048 L137.1024,44.8632 C136.950161,44.233652 136.925679,43.5799719 137.0304,42.9408 C137.119884,42.5767984 137.309429,42.2450948 137.5776,41.9832 C137.869699,41.6959198 138.270338,41.5466621 138.6792,41.5728 L138.5136,41.832 C138.160099,41.2167629 138.160099,40.4600371 138.5136,39.8448 C138.699125,39.4951511 138.975135,39.2017346 139.3128,38.9952 C139.647053,38.7970872 140.03416,38.7065946 140.4216,38.736 C140.714279,38.7988192 141.011897,38.6529864 141.1416,38.3832 C141.296512,38.0725808 141.514804,37.7978761 141.7824,37.5768 C142.285114,37.1904165 142.886455,36.9533734 143.5176,36.8928 C144.0792,36.792 144.5976,36.6912 145.08,36.6192 C145.842176,36.4600036 146.629024,36.4600036 147.3912,36.6192 C147.596879,36.6675766 147.795358,36.7426113 147.9816,36.8424 C148.1112,36.9144 148.1688,36.9576 148.1688,36.972 C148.1688,36.9864 147.888,36.8424 147.3624,36.7488 C146.616795,36.6381601 145.856971,36.6699212 145.1232,36.8424 L143.5752,37.1592 C142.996416,37.2242057 142.446299,37.4457462 141.984,37.8 C141.752921,38.0022954 141.562347,38.246621 141.4224,38.52 C141.330304,38.7012523 141.184452,38.8496196 141.0048,38.9448 C140.821715,39.0174402 140.625673,39.0517475 140.4288,39.0456 C139.804457,39.0303359 139.21822,39.3450061 138.885894,39.8737744 C138.553567,40.4025427 138.524275,41.0672483 138.8088,41.6232 L138.996,41.9112 L138.6504,41.9112 C138.008903,41.9273008 137.465831,42.3893619 137.3472,43.02 C137.242341,43.6145346 137.257027,44.2240059 137.3904,44.8128 L137.3904,44.9352 L137.2824,44.9712 C136.686665,45.192217 136.202615,45.640028 135.936,46.2168 C135.732205,46.6679597 135.676747,47.172129 135.7776,47.6568 C135.887195,48.0841614 136.080531,48.4855173 136.3464,48.8376 L136.3464,48.8376 Z" id="Path" fill="#455A64"></path>
                    <path d="M149.8608,45.4248 C149.718412,45.3477774 149.589524,45.2480714 149.4792,45.1296 C149.14965,44.8175085 148.874652,44.4524669 148.6656,44.0496 C148.329146,43.4240212 148.14187,42.7291289 148.1184,42.0192 C148.072716,41.5596713 148.201189,41.0997346 148.4784,40.7304 C148.661124,40.5270316 148.925261,40.416094 149.1984,40.428 C149.519141,40.4101772 149.812887,40.606987 149.9184,40.9104 L149.6232,40.9104 C149.609035,40.4528966 149.731889,40.0015949 149.976,39.6144 C150.137904,39.4080233 150.367328,39.2652704 150.624,39.2112 C150.899012,39.1714167 151.177192,39.2588448 151.38,39.4488 C151.5672,39.5928 151.7472,39.7656 151.884,39.78 C152.0208,39.7944 152.1,39.6648 152.2008,39.4272 C152.44219,38.9506643 152.857042,38.5847699 153.36,38.4048 C154.168021,38.0681831 155.097502,38.2249631 155.7504,38.808 L155.4624,38.8944 C155.543726,38.2145413 155.975458,37.6270577 156.6,37.3464 C156.92608,37.2480497 157.278913,37.2980783 157.5648,37.4832 C157.863782,37.6506854 158.038062,37.9767569 158.0112,38.3184 L157.7232,38.2464 C158.340909,36.8144338 159.611865,35.7687106 161.136,35.4384 C161.54906,35.3449891 161.974056,35.3158466 162.396,35.352 C162.548292,35.3582435 162.698777,35.3873697 162.8424,35.4384 C162.280786,35.4311058 161.720227,35.4890947 161.172,35.6112 C160.557258,35.7743796 159.980136,36.0556043 159.4728,36.4392 C158.829301,36.9364841 158.331832,37.5981176 158.0328,38.3544 L157.572,39.5136 L157.7448,38.2824 C157.8024,37.8576 157.1832,37.4904 156.7296,37.656 C156.220444,37.9022544 155.876578,38.3962207 155.8224,38.9592 L155.7648,39.2688 L155.5416,39.0456 C154.98347,38.562111 154.199601,38.4365804 153.5184,38.7216 C153.07086,38.8637053 152.69962,39.1804279 152.4888,39.6 C152.436272,39.7253977 152.368567,39.8438817 152.2872,39.9528 C152.173936,40.0874637 152.001489,40.1575205 151.8264,40.14 C151.568573,40.0739725 151.335768,39.9337888 151.1568,39.7368 C151.027423,39.6045394 150.843528,39.5405758 150.66,39.564 C150.479944,39.5999871 150.318899,39.6996822 150.2064,39.8448 C150.001086,40.1802852 149.896149,40.5675538 149.904,40.9608 L149.832,41.8464 L149.6016,40.9896 C149.5152,40.6512 148.8816,40.6224 148.6872,40.9104 C148.453753,41.2253937 148.341316,41.6138103 148.3704,42.0048 C148.373468,42.683281 148.528462,43.3524602 148.824,43.9632 C149.100241,44.4960658 149.449177,44.9879682 149.8608,45.4248 L149.8608,45.4248 Z" id="Path" fill="#455A64"></path>
                    <path d="M174.456,33.768 C174.163547,33.551082 173.91853,33.2766631 173.736,32.9616 C173.499874,32.6268957 173.335624,32.2469161 173.2536,31.8456 C173.155007,31.325649 173.277644,30.7881345 173.592,30.3624 C173.670878,30.2592689 173.765663,30.1693448 173.8728,30.096 L173.8368,30.3408 C173.542394,29.9445729 173.441917,29.4368988 173.5632,28.9584 C173.662497,28.5869935 173.906188,28.2707144 174.24,28.08 C174.816,27.7416 175.2408,27.8856 175.2192,27.9144 C174.920179,27.9895411 174.633891,28.1084232 174.3696,28.2672 C174.111542,28.4617403 173.932535,28.7430358 173.8656,29.0592 C173.782947,29.4445279 173.872329,29.8467442 174.1104,30.1608 L174.2112,30.2976 L174.0672,30.4056 C173.990648,30.4652057 173.920654,30.5327859 173.8584,30.6072 C173.600487,30.9594043 173.494189,31.4001492 173.5632,31.8312 C173.626027,32.1949397 173.75539,32.5439756 173.9448,32.8608 C174.143141,33.1465821 174.314288,33.4503077 174.456,33.768 L174.456,33.768 Z" id="Path" fill="#455A64"></path>
                    <path d="M183.24,33.876 C183.595692,33.6256757 183.860888,33.2670296 183.996,32.8536 C184.130226,32.3973556 184.030529,31.9042622 183.7296,31.536 C183.340578,31.0805196 182.721103,30.8946771 182.1456,31.0608 L181.8648,31.1472 L181.9368,30.8592 C182.033666,30.507908 182.062985,30.1414241 182.0232,29.7792 C181.990155,29.4137281 181.804555,29.0791252 181.512,28.8576 C181.0512,28.5552 180.2808,28.7496 180.216,29.2248 L179.8992,29.1456 C180.116427,28.5080815 180.077707,27.8111332 179.7912,27.2016 C179.559099,26.7145495 179.178431,26.3137134 178.704,26.0568 C178.263895,25.8419553 177.787929,25.7101494 177.3,25.668 C177.427587,25.6158213 177.566106,25.596033 177.7032,25.6104 C178.084866,25.6157737 178.460781,25.7042243 178.8048,25.8696 C179.339289,26.1223077 179.774839,26.5451961 180.0432,27.072 C180.379795,27.7420505 180.441787,28.516959 180.216,29.232 L179.892,29.1456 C179.975505,28.7881822 180.254582,28.5091051 180.612,28.4256 C180.975277,28.3279365 181.362667,28.3825351 181.6848,28.5768 C182.065488,28.8490888 182.305536,29.2764275 182.34,29.7432 C182.388098,30.1490758 182.353814,30.5604835 182.2392,30.9528 L182.0304,30.7584 C182.729332,30.5660024 183.475821,30.8063494 183.9312,31.3704 C184.271128,31.8112953 184.360851,32.395852 184.1688,32.9184 C184.056623,33.2497773 183.84238,33.5371148 183.5568,33.7392 C183.3696,33.84 183.24,33.8904 183.24,33.876 Z" id="Path" fill="#455A64"></path>
                    <path d="M203.6088,52.38 C206.1432,46.9224 205.7112,40.32 203.0112,34.9416 C200.3112,29.5632 195.5304,25.3872 190.0512,22.8528 C184.530263,20.4284908 178.539155,19.2627332 172.512,19.44 C168.5448,19.476 164.4624,19.98 160.992,21.9312 C157.5216,23.8824 154.9944,27.1368 152.6832,30.384 C151.033241,32.5240386 149.719705,34.9034562 148.788,37.44 C147.9528,40.0104 147.8952,42.948 149.184,45.324 C147.3552,45.0144 146.4624,42.9192 146.1168,41.0904 C144.8136,34.0632 148.7088,27.2592 153.5904,22.032 C157.536,17.8128 162.8496,15.7392 166.7376,14.832 C172.368,13.5432 178.5312,14.7096 183.9744,16.6464 C190.0368,18.8064 195.7968,21.1464 199.8144,26.1648 C203.832,31.1832 209.5128,42.0048 203.6088,52.3872" id="Path" fill="#D61335"></path>
                    <path d="M197.1792,54.1728 C197.1792,54.1728 197.2368,54.2952 197.4024,54.4536 C197.639071,54.6842824 197.917675,54.8675747 198.2232,54.9936 C199.263335,55.4011461 200.433733,55.3027263 201.3912,54.7272 C202.329709,54.1755565 203.09532,53.3725381 203.6016,52.4088 C203.835795,52.0304725 204.008349,51.6173151 204.1128,51.1848 C204.0696,51.1848 203.8608,51.624 203.4288,52.308 C202.902702,53.198809 202.159609,53.9419017 201.2688,54.468 C200.375341,54.9978753 199.296548,55.1159913 198.3096,54.792 C197.909838,54.6306092 197.530434,54.422783 197.1792,54.1728 L197.1792,54.1728 Z" id="Path" fill="#455A64"></path>
                    <path d="M188.136,23.9688 C188.136,23.9688 188.3376,23.8752 188.7264,23.76 C189.279816,23.6022904 189.863809,23.5849686 190.4256,23.7096 C191.283255,23.8803189 192.030132,24.4026101 192.4848,25.1496 C193.040282,26.1268216 193.064656,27.3184811 192.5496,28.3176 L192.4272,28.548 L192.6864,28.5048 C193.42463,28.3831645 194.18122,28.553591 194.796,28.98 C195.467255,29.426785 195.897009,30.1563061 195.9624,30.96 C196.029274,31.748332 195.768898,32.5294589 195.2424,33.12 L195.0408,33.336 L195.336,33.336 C196.159837,33.3730319 196.852148,33.9672905 197.0136,34.776 C197.112981,35.5174147 196.75081,36.2446081 196.0992,36.612 L195.7464,36.792 L196.1424,36.792 C196.933186,36.8632703 197.660961,37.2531496 198.1584,37.872 C198.577116,38.3628503 198.849103,38.9617186 198.9432,39.6 C199.030722,40.1296753 198.991239,40.6725619 198.828,41.184 C198.900832,41.0600852 198.956539,40.9268735 198.9936,40.788 C199.105515,40.3949848 199.132513,39.9826528 199.0728,39.5784 C198.978949,38.9462634 198.715158,38.3514898 198.3096,37.8576 C197.784522,37.1803398 197.00275,36.7503652 196.1496,36.6696 L196.1928,36.8856 C196.998274,36.468482 197.419071,35.5588755 197.21548,34.674949 C197.011888,33.7910226 196.235585,33.1571399 195.3288,33.1344 L195.4224,33.3576 C196.009985,32.7071515 196.297355,31.8398155 196.2144,30.9672 C196.132044,30.0916647 195.661774,29.2990754 194.9328,28.8072 C194.256944,28.339484 193.423437,28.1582868 192.6144,28.3032 L192.7512,28.4904 C193.302196,27.4144446 193.261403,26.1307986 192.6432,25.092 C192.159246,24.2943977 191.357546,23.7415912 190.44,23.5728 C189.850713,23.4622543 189.242803,23.506917 188.676,23.7024 C188.483958,23.7643575 188.302027,23.8541102 188.136,23.9688 L188.136,23.9688 Z" id="Path" fill="#455A64"></path>
                    <path d="M174.06,57.5424 C173.381655,58.1514202 172.515164,58.5097053 171.6048,58.5576 C170.71638,58.7379712 169.793097,58.6136832 168.984,58.2048 C168.984,58.0824 170.1576,58.3416 171.5544,58.1472 C172.9512,57.9528 173.9952,57.4344 174.06,57.5424 Z" id="Path" fill="#7E6256"></path>
                    <path d="M185.9256,66.1608 C185.313251,65.6423062 184.869525,64.9529019 184.6512,64.1808 C184.306742,63.4573817 184.183992,62.6482295 184.2984,61.8552 C184.4136,61.8552 184.5864,62.8632 185.0184,64.0152 C185.4504,65.1672 186.0192,66.096 185.9256,66.1608 Z" id="Path" fill="#7E6256"></path>
                    <path d="M165.2256,55.9872 C164.937919,56.1121886 164.676512,56.2905313 164.4552,56.5128 C164.259982,56.7520561 164.157712,57.0537521 164.1672,57.3624 C164.179835,57.7623498 164.412569,58.1225338 164.772,58.2984 C165.4056,58.6872 166.0464,58.2192 166.6368,57.6288 C167.243511,56.9492647 167.634476,56.1046802 167.76,55.2024 C166.880609,55.33536 166.026239,55.5999234 165.2256,55.9872 L165.2256,55.9872 Z" id="Path" fill="#F5F5F5"></path>
                    <path d="M189.6768,66.3552 C189.615807,66.5703569 189.59386,66.7947019 189.612,67.0176 C189.655787,67.2325997 189.77601,67.4244449 189.9504,67.5576 C190.174215,67.7323739 190.476559,67.7684332 190.7352,67.6512 C191.232,67.4784 191.268,66.9312 191.2104,66.3264 C191.115488,65.6849184 190.832334,65.0860343 190.3968,64.6056 C190.072496,65.1504343 189.829911,65.7399158 189.6768,66.3552 L189.6768,66.3552 Z" id="Path" fill="#F5F5F5"></path>
                    <path d="M167.4144,53.496 L165.7512,53.604 C165.541446,53.5905773 165.336299,53.6694799 165.1896,53.82 C165.087222,54.0242451 165.155581,54.2728239 165.348,54.396 C165.542366,54.5066539 165.772068,54.537625 165.9888,54.4824 C166.534024,54.3205412 167.029408,54.0233108 167.4288,53.6184" id="Path" fill="#F5F5F5"></path>
                    <path d="M171.9648,59.2056 C170.665873,59.8533368 169.138127,59.8533368 167.8392,59.2056 C168.526275,59.187742 169.213808,59.2093777 169.8984,59.2704 C170.585289,59.2075777 171.275324,59.185939 171.9648,59.2056 L171.9648,59.2056 Z" id="Path" fill="#7E6256"></path>
                    <path d="M185.4504,67.68 C184.930295,67.2174255 184.54054,66.6265871 184.32,65.9664 C183.980251,65.3522877 183.808862,64.6592823 183.8232,63.9576 C184.188824,64.5360976 184.481448,65.1576214 184.6944,65.808 C185.025226,66.3971948 185.27929,67.0263048 185.4504,67.68 Z" id="Path" fill="#7E6256"></path>
                    <path d="M165.492,67.9536 C165.384,67.9536 165.1896,67.32 165.4488,66.5136 C165.708,65.7072 166.2552,65.3256 166.3272,65.412 C166.3992,65.4984 166.0536,65.9664 165.8376,66.6432 C165.6216,67.32 165.6,67.9392 165.492,67.9536 Z" id="Path" fill="#7E6256"></path>
                    <path d="M176.4648,98.5176 C176.4648,98.5176 203.4576,112.1976 203.976,111.2904 C204.4944,110.3832 202.932,92.9952 202.2408,88.8696 C201.5496,84.744 197.8272,68.9688 197.8272,68.9688 L206.9424,64.8 C206.9424,64.8 216,89.4024 220.32,104.1912 C224.64,118.98 223.5456,133.236 222.1056,134.7912 C220.6656,136.3464 169.7616,116.568 169.7616,116.568 L176.4648,98.5176 Z" id="Path" fill="#9D7C6D"></path>
                    <path d="M207.0072,121.6008 C206.471154,121.365776 206.003098,120.999256 205.6464,120.5352 C204.743147,119.452977 204.148652,118.147077 203.9256,116.7552 C203.682042,115.38919 203.626327,113.9963 203.76,112.6152 C203.774585,112.040329 203.871573,111.470524 204.048,110.9232 C204.102703,111.490685 204.102703,112.062115 204.048,112.6296 C203.999743,113.986899 204.093857,115.345519 204.3288,116.6832 C204.545571,118.0116 205.073551,119.269869 205.8696,120.3552 C206.5032,121.1688 207.0504,121.5432 207.0072,121.6008 Z" id="Path" fill="#7E6256"></path>
                    <path d="M207.0936,66.0528 L208.5696,50.616 L201.8448,31.7952 C201.8448,31.7952 200.304,31.9536 200.6496,34.74 L197.7696,32.6304 C197.7696,32.6304 196.9704,34.5456 197.4816,35.6688 C197.9928,36.792 200.6064,39.7944 200.6064,39.7944 L196.1424,38.448 C196.1424,38.448 195.0552,40.1832 197.4096,41.1696 L200.5416,43.92 L201.7656,49.9752 C201.7656,49.9752 198.6192,59.1984 197.7264,62.172 C196.8336,65.1456 197.8272,68.976 197.8272,68.976 L207.0936,66.0528 Z" id="Path" fill="#9D7C6D"></path>
                    <path d="M204.804,48.4992 C204.628908,47.9984197 204.512922,47.4788982 204.4584,46.9512 C204.2629,45.7209068 203.939549,44.514373 203.4936,43.3512 C203.02606,42.1970934 202.28474,41.1740714 201.3336,40.3704 C200.6136,39.7656 200.016,39.5568 200.0448,39.492 C200.574122,39.5753045 201.071404,39.7990816 201.4848,40.14 C202.548637,40.9181869 203.374033,41.9779849 203.868,43.2 C204.334973,44.3981246 204.630684,45.6561064 204.7464,46.9368 C204.832477,47.4529795 204.851836,47.9780836 204.804,48.4992 L204.804,48.4992 Z" id="Path" fill="#7E6256"></path>
                    <path d="M204.5376,40.2048 C203.729433,39.274551 202.988368,38.2880684 202.32,37.2528 C201.530441,36.3013965 200.808666,35.295723 200.16,34.2432 C201.109137,35.0425905 201.936286,35.9764689 202.6152,37.0152 C203.41393,37.9748394 204.062135,39.0503255 204.5376,40.2048 Z" id="Path" fill="#7E6256"></path>
                    <path d="M176.2632,115.416 C176.2632,115.416 187.9416,108.36 193.8168,110.376 C199.692,112.392 271.1376,200.5128 271.1376,200.5128 L257.2416,213.7824 L194.0544,160.596 L177.84,143.9064 L176.2632,115.416 Z" id="Path" fill="#263238"></path>
                    <path d="M64.4112,197.604 C64.4112,197.604 67.572,210.0672 74.16,218.88 C79.0128,225.36 86.3136,231.0624 97.0272,231.1704 C122.3064,231.4368 136.944,210.4128 142.5312,203.4936 C148.1184,196.5744 178.1928,157.1904 180.324,156.924 C182.4552,156.6576 183.78,164.124 193.0968,175.2912 C202.4136,186.4584 250.0128,220.4856 250.0128,220.4856 L265.7088,205.848 L212.1048,143.7696 C212.1048,143.7696 188.8416,117.1296 180.5904,115.596 C172.3392,114.0624 162.3816,122.1624 157.3488,126.7344 C152.316,131.3064 64.4112,197.604 64.4112,197.604 Z" id="Path" fill="#263238"></path>
                    <path d="M261.1152,210.1752 C261.1152,210.1752 260.9568,210.0312 260.6688,209.7288 L259.38,208.3896 L254.4696,203.22 C250.2144,198.7128 244.0656,192.204 236.4696,184.1544 C232.668,180.1296 228.5136,175.716 224.0496,170.9784 C219.5856,166.2408 214.56,161.4672 209.3184,156.3336 C204.0768,151.2 198.576,145.8648 192.7584,140.4144 C189.8784,137.6928 186.8832,134.9352 183.7728,132.2568 C182.9952,131.5872 182.2104,130.9248 181.3968,130.284 C180.9936,129.9672 180.5904,129.6432 180.1656,129.3552 C179.960948,129.202729 179.746927,129.063255 179.5248,128.9376 L179.2008,128.7432 C179.0928,128.6928 178.992,128.664 178.884,128.6208 C177.877909,128.497782 176.857043,128.601099 175.896,128.9232 C174.891829,129.206827 173.907985,129.558028 172.9512,129.9744 C171.092521,130.778802 169.286524,131.699837 167.544,132.732 L167.58,132.732 L134.1504,163.62 L119.6352,177.0264 C115.609439,181.102403 111.305487,184.893923 106.7544,188.3736 C102.97643,191.226221 98.7531776,193.435158 94.2552,194.9112 C90.8597604,196.001649 87.2995793,196.489011 83.736,196.3512 C81.4914519,196.261056 79.27207,195.84386 77.148,195.1128 C76.5971434,194.924998 76.0564148,194.708706 75.528,194.4648 C75.168,194.3064 74.988,194.2128 74.988,194.2128 L75.5424,194.4288 C76.073606,194.659324 76.616785,194.861214 77.1696,195.0336 C79.2934942,195.735757 81.5073891,196.128584 83.7432,196.2 C87.2868029,196.303395 90.8215151,195.791824 94.1904,194.688 C98.6520929,193.194844 102.838221,190.978945 106.5816,188.1288 C111.119752,184.647419 115.407153,180.850832 119.412,176.7672 L133.92,163.3176 L167.328,132.408 L167.328,132.408 L167.328,132.408 C169.090556,131.356814 170.918253,130.418917 172.8,129.6 C173.772783,129.176537 174.773546,128.820497 175.7952,128.5344 C176.820907,128.189447 177.9119,128.08355 178.9848,128.2248 C179.124385,128.270079 179.26139,128.322958 179.3952,128.3832 L179.7408,128.5848 C179.969162,128.719462 180.190269,128.866065 180.4032,129.024 C180.8424,129.3192 181.2456,129.6432 181.656,129.9672 C182.4768,130.608 183.2688,131.2776 184.0464,131.9472 C187.164,134.64 190.1376,137.3976 193.0392,140.1192 C198.8424,145.584 204.3504,150.9192 209.5992,156.0672 C214.848,161.2152 219.7728,166.0752 224.316,170.7408 C228.8592,175.4064 232.9128,179.9136 236.6928,183.96 C244.2528,192.0384 250.3728,198.5832 254.5992,203.112 L259.452,208.3392 L260.712,209.7 C260.9784,210.0096 261.1152,210.1752 261.1152,210.1752 Z" id="Path" fill="#455A64"></path>
                    <path d="M105.6744,230.436 C105.682466,230.292156 105.706617,230.149668 105.7464,230.0112 L106.0272,228.7872 C106.2936,227.6784 106.668,226.152 107.1288,224.2512 L107.172,224.3808 L98.4456,216.9216 L98.6184,216.9648 C96.0947508,217.499702 93.4965011,217.58501 90.9432,217.2168 C87.7214235,216.775718 84.5551247,215.99621 81.4968,214.8912 C78.9856673,214.013529 76.5348065,212.972094 74.16,211.7736 L74.376,211.644 C74.376,214.0128 74.3256,215.964 74.3112,217.3536 C74.3112,217.9944 74.3112,218.5056 74.2752,218.9016 C74.2794262,219.084994 74.2649515,219.268341 74.232,219.4488 C74.1878804,219.262293 74.1637444,219.071618 74.16,218.88 C74.16,218.484 74.16,217.9728 74.1168,217.332 C74.1168,215.9352 74.1168,213.9912 74.052,211.6224 L74.052,211.3848 L74.268,211.4928 C76.6516729,212.648377 79.1043258,213.655888 81.612,214.5096 C84.6456136,215.588903 87.7820762,216.353717 90.972,216.792 C93.4765199,217.151888 96.0243889,217.076377 98.5032,216.5688 L98.604,216.5688 L98.676,216.6336 L107.316,224.1792 L107.3808,224.2368 L107.3808,224.316 C106.8696,226.2024 106.4592,227.7216 106.1568,228.8232 C106.0128,229.32 105.9048,229.716 105.8112,230.0328 C105.78494,230.173004 105.73888,230.308763 105.6744,230.436 L105.6744,230.436 Z" id="Path" fill="#455A64"></path>
                    <path d="M265.7232,205.877115 C265.6368,205.9488 254.9232,193.6728 241.776,178.452 C228.6288,163.2312 218.052,150.84 218.16,150.76042 C218.268,150.6816 228.96,163.0008 242.1072,178.1928 C255.2544,193.3848 265.8096,205.8048 265.7232,205.877115 Z" id="Path" fill="#455A64"></path>
                    <polygon id="Path" fill="#00A0FF" points="168.6096 92.2248 165.9528 90.5976 152.7552 100.7712 172.1088 111.2904 185.5008 102.5784"></polygon>
                    <path d="M140.0976,78.8184 C140.0976,78.8184 124.7112,76.9752 112.1472,92.2248 C103.3488,102.9024 94.608,127.3032 85.8312,139.8168 C82.116,145.1088 62.0712,166.284 62.4816,191.1744 L63.54,197.7048 L82.8792,190.44 C87.296076,188.438187 91.3937245,185.796187 95.04,182.5992 L117.8496,162.6192 L158.436,125.784 C159.5016,126.3672 170.496,110.88 168.516,100.4184 C167.5728,95.3784 166.4496,90.864 166.284,90.9072 C160.0056,92.5056 153.2952,88.8624 140.0976,78.8184 Z" id="Path" fill="#00A0FF"></path>
                    <g id="Group" opacity="0.3" transform="translate(126.000000, 110.880000)" fill="#000000">
                        <path d="M4.32,0.3312 L0.432,0 C3.924,5.5512 7.5456,11.2464 12.8592,15.12 C14.9256,16.6176 17.28,17.8632 18.7704,19.944 C19.8144,21.384 20.7936,23.4504 22.5792,23.364 C23.2992,23.328 24.4152,22.3056 24.9408,21.7872 C27.6624,19.0656 32.2128,15.084 32.2128,15.084 C23.3832175,9.32834577 14.0469197,4.39027811 4.32,0.3312 Z" id="Path"></path>
                    </g>
                    <path d="M103.104,176.1408 C103.021394,176.234214 102.927005,176.316502 102.8232,176.3856 L101.9736,177.0264 C101.5992,177.3072 101.1384,177.6384 100.584,177.9912 C100.0296,178.344 99.4104,178.776 98.6832,179.1792 C97.0079265,180.16887 95.2716507,181.051436 93.4848,181.8216 C89.1025169,183.715998 84.4630471,184.94866 79.7184,185.4792 C77.7845177,185.693701 75.8391478,185.787483 73.8936,185.76 C73.0656,185.76 72.3168,185.7096 71.6616,185.6736 C71.0064,185.6376 70.4376,185.5872 69.9768,185.5224 L68.9184,185.3928 C68.7925743,185.386041 68.6686252,185.359307 68.5512,185.3136 C68.6754039,185.29635 68.8013961,185.29635 68.9256,185.3136 L69.9912,185.3784 C70.452,185.3784 71.0136,185.4432 71.6688,185.4504 C72.324,185.4576 73.0728,185.508 73.8936,185.4504 C75.8190022,185.437112 77.742097,185.314515 79.6536,185.0832 C82.0005526,184.788901 84.3261512,184.343983 86.616,183.7512 C88.8963057,183.126769 91.1351176,182.359658 93.3192,181.4544 C95.0988351,180.703854 96.8344273,179.852885 98.5176,178.9056 C99.2376,178.524 99.8784,178.1136 100.44,177.7752 C101.0016,177.4368 101.4768,177.1344 101.88,176.8752 L102.7728,176.2992 C102.96,176.1912 103.0968,176.1264 103.104,176.1408 Z" id="Path" fill="#263238"></path>
                    <g id="Group" opacity="0.3" transform="translate(73.440000, 176.400000)" fill="#000000">
                        <path d="M10.8,3.9528 C7.2,4.0464 2.9664,3.9528 0.6192,6.7608 C0.154385242,7.18188504 -0.00554242954,7.84444254 0.216,8.4312 C0.504,8.9136 1.1664,8.9784 1.7352,8.9784 C11.364215,9.01515673 20.782589,6.1608 28.7712,0.7848 L29.3112,2.04636308e-14 C23.4383515,2.45105183 17.1617554,3.79132847 10.8,3.9528 L10.8,3.9528 Z" id="Path"></path>
                    </g>
                    <path d="M169.128,105.7104 C168.995753,105.020861 168.909165,104.323345 168.8688,103.6224 C168.7248,102.3408 168.4656,100.5696 168.0768,98.6328 C167.688,96.696 167.2848,94.9536 167.0184,93.6792 C166.828394,93.0022878 166.710143,92.3072612 166.6656,91.6056 C166.936767,92.2547882 167.148826,92.9271121 167.2992,93.6144 C167.6376,94.8672 168.0912,96.6096 168.48,98.5536 C168.819105,100.216397 169.045222,101.900249 169.1568,103.5936 C169.236948,104.297569 169.22727,105.008872 169.128,105.7104 L169.128,105.7104 Z" id="Path" fill="#263238"></path>
                    <path d="M142.0128,83.9304 C142.0128,83.9304 126.8928,84.8088 123.5376,94.6656 C122.1768,98.6472 121.428,103.3056 123.9624,107.6256 C126.1224,111.2256 135.684,119.4696 135.684,119.4696 L164.6064,102.1896 C164.6064,102.1896 148.0032,84.5568 142.0128,83.9304 Z" id="Path" fill="#00A0FF"></path>
                    <path d="M124.9848,109.44 C125.057149,109.488616 125.124659,109.544071 125.1864,109.6056 L125.7624,110.1096 L127.9224,112.0896 L135.7848,119.3904 L135.5976,119.3904 L158.8608,105.3792 L162,103.464 L163.5264,102.528 L164.2464,102.0672 L164.6136,101.8368 L164.7936,101.7216 L164.88,101.664 L164.9232,101.664 L164.9232,101.664 C164.9232,101.664 164.9232,101.664 164.9232,101.664 L164.9232,101.664 L164.9232,101.664 C164.885633,101.72595 164.885633,101.80365 164.9232,101.8656 C164.963727,101.916487 165.023878,101.94787 165.0888,101.952 L164.952,101.8944 L155.3904,92.0304 C153.9504,90.54 152.5896,89.0712 151.2792,87.8184 C150.026021,86.685032 148.65219,85.6926861 147.1824,84.8592 C145.069247,83.6709286 142.807972,82.767871 140.4576,82.1736 C139.6296,81.9576 138.9816,81.828 138.5424,81.7416 L138.0456,81.6408 C137.9304,81.6408 137.8728,81.6048 137.88,81.5976 C137.93705,81.5863452 137.99575,81.5863452 138.0528,81.5976 L138.5568,81.6624 C138.996,81.72 139.6512,81.8352 140.4864,82.0296 C142.872875,82.5694974 145.170883,83.4445828 147.312,84.6288 C148.812503,85.4495537 150.213698,86.4400536 151.488,87.5808 C152.8416,88.8552 154.1736,90.3024 155.6496,91.7784 L165.2328,101.5992 L165.096,101.5416 C165.162398,101.546539 165.223123,101.580862 165.2616,101.6352 C165.299167,101.69715 165.299167,101.77485 165.2616,101.8368 L165.2616,101.8368 L165.2616,101.8368 L165.2616,101.8368 L165.2616,101.8368 L165.2112,101.8728 L165.1176,101.9376 L164.9304,102.06 L164.5632,102.2904 L163.8432,102.7584 L162.324,103.6944 L159.2064,105.5808 L146.5272,113.1912 L140.76,116.64 L138.1752,118.1736 L136.944,118.8936 L136.3464,119.2536 L136.0512,119.4264 L135.9072,119.5128 L135.8352,119.556 L135.8352,119.556 L135.7992,119.556 L135.7992,119.5056 L135.6408,119.5056 C132.3864,116.4096 129.7296,113.8824 127.872,112.104 L125.6976,110.16 C125.4744,109.9368 125.2944,109.764 125.1576,109.62 C125.0208,109.476 124.9776,109.44 124.9848,109.44 Z" id="Path" fill="#263238"></path>
                    <path d="M120.096,104.5584 C119.920971,104.338437 119.775718,104.09635 119.664,103.8384 C119.316438,103.143678 119.027436,102.421173 118.8,101.6784 C117.259406,96.6750183 118.342014,91.2322028 121.68,87.1992 C122.168708,86.599396 122.708314,86.0429277 123.2928,85.536 C123.495344,85.3339562 123.725662,85.161824 123.9768,85.0248 C124.0272,85.0824 123.0768,85.8456 121.9032,87.3792 C118.781695,91.4132468 117.741397,96.6814215 119.0952,101.5992 C119.5848,103.464 120.168,104.5224 120.096,104.5584 Z" id="Path" fill="#263238"></path>
                    <path d="M227.2392,131.2272 C227.2032,131.2848 226.872,131.148 226.3104,131.0832 C225.567607,131.006434 224.817465,131.042849 224.0856,131.1912 C222.3576,131.5224 220.9968,132.0552 220.9464,131.9112 C221.874056,131.312428 222.920483,130.92186 224.0136,130.7664 C224.787402,130.602364 225.586998,130.602364 226.3608,130.7664 C226.9512,130.9464 227.2608,131.1912 227.2392,131.2272 Z" id="Path" fill="#7E6256"></path>
                    <path d="M137.8584,118.224 C138.2328,118.5984 192.816,147.096 206.1792,151.092 C219.5424,155.088 228.024,143.4744 228.024,143.4744 L224.1504,132.8688 C224.1504,132.8688 220.8384,131.6736 213.7536,129.564 C206.6688,127.4544 202.6008,128.7864 202.6008,128.7864 L163.8216,102.672 L137.8584,118.224 Z" id="Path" fill="#9D7C6D"></path>
                    <path d="M213.2784,144.7992 C213.235709,145.181482 213.099721,145.547414 212.8824,145.8648 C211.94807,147.494752 210.386873,148.670854 208.5624,149.1192 C208.197088,149.246063 207.805082,149.275836 207.4248,149.2056 C208.623628,148.849549 209.760239,148.310388 210.7944,147.6072 C211.759479,146.802039 212.596984,145.855293 213.2784,144.7992 Z" id="Path" fill="#7E6256"></path>
                    <path d="M221.76,131.5728 C221.76,131.5728 226.4904,129.96 227.6496,131.5728 C228.8088,133.1856 231.7392,138.8736 231.912,140.7384 C232.0848,142.6032 230.3136,142.7832 229.5144,144.2952 C228.837259,145.779849 228.271693,147.312894 227.8224,148.8816 L224.2656,144.5616 L222.7608,140.1408 L221.76,131.5728 Z" id="Path" fill="#9D7C6D"></path>
                    <path d="M163.8216,102.672 C163.999045,102.757662 164.169911,102.856331 164.3328,102.9672 L165.7728,103.8744 L170.9208,107.2656 L187.812,118.5768 L197.0856,124.848 L201.1248,127.5912 C201.7512,128.0376 202.3776,128.4264 202.968,128.8296 C203.532653,129.217471 204.075851,129.635685 204.5952,130.0824 C206.171822,131.42299 207.540382,132.990524 208.656,134.7336 C209.0448,135.3528 209.3184,135.8568 209.4912,136.1736 C209.584683,136.34448 209.664144,136.522665 209.7288,136.7064 C209.606642,136.555989 209.502718,136.391645 209.4192,136.2168 C209.2248,135.8856 208.9296,135.4032 208.5264,134.7768 C207.375161,133.083995 205.991159,131.561834 204.4152,130.2552 C203.9112,129.8448 203.3784,129.4344 202.788,129.0384 C202.1976,128.6424 201.5712,128.2608 200.9448,127.8288 L196.884,125.1144 L187.5888,118.8648 L170.7552,107.4528 C168.6456,106.0128 166.9176,104.8032 165.6792,103.9536 L164.3112,102.9816 C164.13801,102.895117 163.97398,102.791392 163.8216,102.672 Z" id="Path" fill="#7E6256"></path>
                    <path d="M224.2512,132.5952 C223.953661,132.600513 223.656501,132.571522 223.3656,132.5088 C222.565555,132.381257 221.772527,132.213039 220.9896,132.0048 C219.0024,131.5152 216.3384,130.5648 213.3648,129.6576 C210.844733,128.851932 208.212855,128.450954 205.5672,128.4696 C204.477542,128.54108 203.393178,128.678128 202.32,128.88 C202.586172,128.742346 202.869449,128.640657 203.1624,128.5776 C203.948698,128.366582 204.754467,128.236308 205.5672,128.1888 C208.250478,128.084992 210.931151,128.452976 213.4872,129.276 C216.4824,130.176 219.1176,131.1768 221.076,131.7384 C222.0552,132.0264 222.8472,132.228 223.4016,132.3648 C223.692674,132.408882 223.977735,132.486187 224.2512,132.5952 Z" id="Path" fill="#7E6256"></path>
                    <path d="M228.7368,142.3512 C228.78,142.3512 228.7368,142.6968 228.492,143.1864 C228.171617,143.806709 227.758915,144.374782 227.268,144.8712 C226.620504,145.607464 225.838535,146.213489 224.964,146.6568 C224.8776,146.5632 225.864,145.7064 226.9728,144.5832 C227.606216,143.876247 228.195339,143.130827 228.7368,142.3512 Z" id="Path" fill="#7E6256"></path>
                    <path d="M334.3824,232.56 C334.3824,232.6752 259.5024,232.7688 167.1984,232.7688 C74.8944,232.7688 0,232.6392 0,232.56 C0,232.4808 74.88,232.3584 167.1984,232.3584 C259.5168,232.3584 334.3824,232.416 334.3824,232.56 Z" id="Path" fill="#263238"></path>
                    <g id="freepik--Plant--inject-2" transform="translate(301.680000, 187.200000)">
                        <path d="M13.5648,0.72 C15.7536737,1.38968499 17.574182,2.92411333 18.6048,4.968 C19.6065545,6.99963842 20.1310905,9.23322596 20.1384,11.4984 C20.2752,15.8544 18.4752,20.5344 16.344,24.3504 C12.2688,21.7296 10.6488,16.3224 9.9864,13.5504 C8.9496,9.1512 9.7416,0.5904 13.5864,0.6984" id="Path" fill="#D61335"></path>
                        <path d="M21.5496,30.7872 C20.6911975,28.3632671 21.1906766,25.6655308 22.86,23.7096 C24.5561586,21.8020675 26.948803,20.6576465 29.4984,20.5344 C30.6576,20.4552 31.9464,20.6064 32.7456,21.456 C33.45123,22.3147358 33.638426,23.4874637 33.2352,24.5232 C32.8260392,25.5369107 32.1552114,26.4238941 31.2912,27.0936 C28.4112,29.52 25.2432,31.3416 21.5496,30.7872" id="Path" fill="#D61335"></path>
                        <path d="M18.8352,44.64 C18.8064203,44.3406902 18.8064203,44.0393098 18.8352,43.74 C18.8352,43.0992 18.8928,42.3 18.9288,41.2992 C18.9561767,38.583437 19.4205157,35.8897849 20.304,33.3216 C21.2308187,30.7530836 22.8235751,28.4770073 24.9192,26.7264 C25.5547947,26.2108634 26.2482658,25.7711013 26.9856,25.416 C27.252,25.2864 27.468,25.2216 27.612,25.1568 C27.756,25.092 27.828,25.0848 27.8352,25.0992 C24.4024003,26.7992276 21.7918384,29.8012442 20.5848,33.4368 C19.7211063,35.9775718 19.2359113,38.6315883 19.1448,41.3136 C19.08,42.336 19.0152,43.1712 18.9576,43.7472 C18.9455246,44.0480365 18.9045358,44.3470137 18.8352,44.64 L18.8352,44.64 Z" id="Path" fill="#2E353A"></path>
                        <path d="M13.536,7.2648 C13.5805214,7.38886144 13.6142467,7.51653569 13.6368,7.6464 C13.6944,7.9272 13.7736,8.2944 13.86,8.7408 C14.0544,9.6912 14.3208,11.0736 14.6232,12.78 C15.2352,16.2288 15.9984,20.9448 16.7472,26.2008 C17.496,31.4568 18.0576,36.216 18.4176,39.6792 C18.5976,41.4072 18.7272,42.804 18.8136,43.776 C18.8136,44.2368 18.8712,44.604 18.8928,44.892 C18.9144168,45.0206986 18.9144168,45.1521014 18.8928,45.2808 C18.858386,45.1533465 18.8343079,45.023325 18.8208,44.892 C18.8208,44.6112 18.7416,44.244 18.6768,43.7832 C18.5544,42.7824 18.3888,41.4 18.18,39.7008 C17.7696,36.2592 17.172,31.4928 16.4304,26.2368 C15.6888,20.9808 14.9544,16.2864 14.4,12.8376 C14.1264,11.1528 13.9032,9.7704 13.68,8.7768 C13.6152,8.316 13.5576,7.956 13.5072,7.668 C13.5023308,7.5329564 13.5119862,7.39778052 13.536,7.2648 L13.536,7.2648 Z" id="Path" fill="#2E353A"></path>
                        <path d="M15.6816,34.308 C14.0304212,29.1791228 10.0104772,25.1591788 4.8816,23.508 C3.5928,23.0976 2.0016,22.9536 1.0944,23.9976 C0.1872,25.0416 0.6984,26.6184 1.3608,27.7992 C4.30271116,32.7758148 9.94951731,35.4941214 15.6744,34.6896" id="Path" fill="#D61335"></path>
                        <path d="M6.0336,27.4608 C6.31034877,27.5099864 6.58249776,27.5822383 6.8472,27.6768 C7.16316758,27.7712903 7.47330323,27.8842855 7.776,28.0152 C8.136,28.1736 8.5608,28.3176 8.9856,28.548 C9.4104,28.7784 9.9144,29.0376 10.3608,29.3112 C10.8865907,29.6285126 11.3960383,29.9721493 11.8872,30.3408 C14.1448343,32.0381835 15.951968,34.2631088 17.1504,36.8208 C17.4213953,37.3735603 17.6617589,37.9408184 17.8704,38.52 C18.0518065,39.0186917 18.2009149,39.5285464 18.3168,40.0464 C18.4226739,40.4734599 18.5044034,40.9061455 18.5616,41.3424 C18.6240766,41.6681459 18.6649656,41.9976634 18.684,42.3288 C18.7055893,42.609185 18.7055893,42.890815 18.684,43.1712 C18.612,43.1712 18.5616,41.9616 18.072,40.0968 C17.9411103,39.5900969 17.7849145,39.0902703 17.604,38.5992 C17.4002767,38.0297906 17.1597701,37.4742203 16.884,36.936 C16.2773174,35.7080193 15.5359617,34.5513112 14.6736,33.4872 C13.7910929,32.4259279 12.799217,31.4605986 11.7144,30.6072 C11.2378996,30.2411362 10.7428424,29.8998832 10.2312,29.5848 C9.78668887,29.2973856 9.32768193,29.033036 8.856,28.7928 C7.2,27.8568 6.0048,27.5184 6.0336,27.4608 Z" id="Path" fill="#2E353A"></path>
                    </g>
                </g>
            </g>
        </g>
    </g>
</svg>