<?xml version="1.0" encoding="UTF-8"?>
<svg width="331px" height="300px" viewBox="0 0 331 300" version="1.1" xmlns="http://www.w3.org/2000/svg" xmlns:xlink="http://www.w3.org/1999/xlink">
    <title>Group 2</title>
    <g id="Page-1" stroke="none" stroke-width="1" fill="none" fill-rule="evenodd">
        <g id="Exercise-target-for-life" transform="translate(-36.000000, -107.000000)">
            <g id="Group-2" transform="translate(36.000000, 107.000000)">
                <circle id="Mask" fill="#E13856" opacity="0.0770321801" cx="171" cy="150" r="150"></circle>
                <g id="Asset-26" transform="translate(0.000000, 46.000000)" fill-rule="nonzero">
                    <g id="freepik--Desk--inject-2" transform="translate(47.400000, 223.200000)" fill="#2E353A">
                        <path d="M274.8,0.372 C274.8,0.456 213.378,0.528 137.634,0.528 C61.89,0.528 0.456,0.462 0.456,0.372 C0.456,0.282 61.86,0.216 137.634,0.216 C213.408,0.216 274.8,0.288 274.8,0.372 Z" id="Path"></path>
                    </g>
                    <g id="freepik--background-complete--inject-92">
                        <rect id="Rectangle" fill="#E9E9E9" x="0" y="200.214" width="330.234" height="1"></rect>
                        <rect id="Rectangle" fill="#E9E9E9" x="34.65" y="206.502" width="10.608" height="1"></rect>
                        <rect id="Rectangle" fill="#E9E9E9" x="113.034" y="204.714" width="35.358" height="1"></rect>
                        <rect id="Rectangle" fill="#E9E9E9" x="45.918" y="212.64" width="23.94" height="1"></rect>
                        <rect id="Rectangle" fill="#E9E9E9" x="250.41" y="204.63" width="28.524" height="1"></rect>
                        <rect id="Rectangle" fill="#E9E9E9" x="284.82" y="204.63" width="4.182" height="1"></rect>
                        <rect id="Rectangle" fill="#E9E9E9" x="209.37" y="208.74" width="35.592" height="1"></rect>
                        <path d="M295.2,158.922 C288.621335,160.925831 282.399161,163.952889 276.762,167.892 C279.66,150.378 270.732,136.578 270.732,136.578 C270.732,136.578 258.6,147.498 252.3,162.24 C250.438292,160.019827 248.32401,158.024348 246,156.294 C246.770267,153.394011 247.31786,150.439414 247.638,147.456 C239.23091,150.012141 231.279318,153.877583 224.076,158.91 C227.778,136.542 216.372,118.92 216.372,118.92 C216.372,118.92 200.94,132.882 192.87,151.734 C189.880734,148.157334 186.359651,145.061209 182.43,142.554 C182.43,142.554 174.306,156.354 173.526,171.354 C168.134896,170.160209 162.594336,169.788007 157.092,170.25 C157.092,170.25 157.416,188.082 169.164,197.79 C170.279864,198.706821 171.465451,199.535327 172.71,200.268 L280.11,200.268 C285.416688,196.710738 290.070771,192.265714 293.868,187.128 C290.794922,186.202815 287.60887,185.70613 284.4,185.652 C294,173.4 295.2,158.922 295.2,158.922 Z" id="Path" fill="#E4E4E4"></path>
                        <path d="M190.8,153.36 C183.32884,155.637504 176.26393,159.07985 169.866,163.56 C173.166,143.688 163.02,128.034 163.02,128.034 C163.02,128.034 149.268,140.4 142.14,157.128 C140.025802,154.623165 137.63,152.370305 135,150.414 C135.87135,147.123553 136.493116,143.772034 136.86,140.388 C127.317557,143.288316 118.292563,147.676282 110.118,153.39 C114.318,128.004 101.382,108.006 101.382,108.006 C101.382,108.006 83.856,123.858 74.73,145.206 C71.3429864,141.139845 67.3454087,137.624001 62.88,134.784 C62.88,134.784 53.61,150.45 52.734,167.46 C46.6195518,166.086076 40.3330174,165.641083 34.086,166.14 C34.086,166.14 34.452,186.366 47.784,197.394 C49.048504,198.438265 50.3948319,199.37929 51.81,200.208 L173.706,200.208 C179.724322,196.173989 185.001694,191.13207 189.306,185.304 C185.816943,184.260812 182.201182,183.701591 178.56,183.642 C189.45,169.8 190.8,153.36 190.8,153.36 Z" id="Path" fill="#F4F4F4"></path>
                        <circle id="Oval" fill="#F4F4F4" cx="83.688" cy="19.23" r="13.824"></circle>
                        <path d="M71.364,76.038 C77.3402403,72.0299781 84.347189,69.8339258 91.542,69.714 C100.692,69.714 105.63,74.034 103.542,79.71 C105.287812,79.2411108 107.086365,78.9971366 108.894,78.984 C115.128,78.984 118.14,82.29 115.668,86.31 C115.422501,86.7006713 115.149829,87.0735915 114.852,87.426 L53.454,87.426 C53.5977863,86.4851058 53.9392843,85.5853506 54.456,84.786 C57.186,80.364 64.434,76.71 71.364,76.038 Z" id="Path" fill="#D61335"></path>
                        <path d="M204.3,52.92 C208.72292,49.9424955 213.914902,48.3125758 219.246,48.228 C226.02,48.228 229.68,51.432 228.156,55.632 C229.447373,55.2836004 230.778469,55.1041042 232.116,55.098 C236.742,55.098 238.986,57.498 237.138,60.498 C236.958838,60.7866191 236.758275,61.0613902 236.538,61.32 L191.022,61.32 C191.129596,60.6154391 191.382994,59.9410733 191.766,59.34 C193.8,56.118 199.158,53.4 204.3,52.92 Z" id="Path" fill="#F4F4F4"></path>
                        <path d="M76.326,49.746 C75.87,47.55 73.212,46.05 69.126,46.05 C63.78,46.05 57.78,48.57 54.894,51.888 C54.0613011,51.5884615 53.180754,51.4440762 52.296,51.462 C48.648,51.462 44.496,53.388 43.044,55.746 C42.9185333,55.9579207 42.8082565,56.1784742 42.714,56.406 L78.6,56.406 C79.1141123,55.9564215 79.560708,55.4350563 79.926,54.858 C81.492,52.272 79.92,50.136 76.326,49.746 Z" id="Path" fill="#F4F4F4"></path>
                        <path d="M281.898,76.446 C281.604,75.042 279.912,74.088 277.272,74.088 C273.864,74.088 270.042,75.696 268.206,77.808 C267.672585,77.6194082 267.109683,77.527962 266.544,77.538 C264.222,77.538 261.588,78.738 260.658,80.268 C260.573838,80.3983474 260.50346,80.5370936 260.448,80.682 L283.344,80.682 C283.668877,80.3984502 283.94815,80.0665606 284.172,79.698 C285.192,78 284.172,76.656 281.898,76.446 Z" id="Path" fill="#F4F4F4"></path>
                        <path d="M233.244,11.556 C233.682,11.556 234.114,11.556 234.528,11.616 C239.159298,8.24061886 244.721864,6.38153963 250.452,6.294 C251.81514,6.28146028 253.17486,6.43254028 254.502,6.744 C260.641309,2.46573392 267.917963,0.117482723 275.4,4.17266222e-15 C284.358,4.17266222e-15 289.32,4.086 287.766,9.552 C292.506,10.248 294.564,13.236 292.386,16.818 C292.13645,17.2161211 291.857684,17.5951631 291.552,17.952 L219.552,17.952 L219.552,17.904 C221.736,14.4 227.856,11.556 233.244,11.556 Z" id="Path" fill="#D61335"></path>
                    </g>
                    <g id="freepik--Character--inject-92" transform="translate(59.400000, 17.400000)">
                        <polygon id="Path" fill="#E4897B" points="95.496 149.916 101.112 150.384 105.462 137.574 99.846 137.112"></polygon>
                        <path d="M101.592,149.196 L95.412,149.076 C95.1829204,149.076908 94.9832686,149.232192 94.926,149.454 L93.726,154.464 C93.6703416,154.702723 93.7241282,154.953831 93.872685,155.148811 C94.0212418,155.343792 94.2490662,155.462299 94.494,155.472 C96.72,155.472 99.942,155.412 102.738,155.472 C106.044,155.532 107.04,155.76 110.874,155.844 C113.202,155.88 113.874,153.552 112.914,153.318 C108.516,152.268 106.704,152.118 102.93,149.664 C102.533245,149.3924 102.071544,149.230908 101.592,149.196 Z" id="Path" fill="#D61335"></path>
                        <polygon id="Path" fill="#00A0FF" points="105.462 137.58 103.224 144.186 97.602 143.718 99.84 137.112"></polygon>
                        <path d="M117.822,104.76 C116.364,94.05 95.274,82.932 95.274,82.932 L75.882,78.6 C75.882,78.6 68.496,80.31 71.31,88.452 C74.124,96.594 94.332,101.334 104.208,109.182 C103.074,122.532 97.134,139.782 97.134,139.782 L105.294,141.66 C105.294,141.66 119.658,118.2 117.822,104.76 Z" id="Path" fill="#00A0FF"></path>
                        <path d="M117.822,104.76 C116.364,94.05 95.274,82.932 95.274,82.932 L75.882,78.6 C75.882,78.6 68.496,80.31 71.31,88.452 C74.124,96.594 94.332,101.334 104.208,109.182 C103.074,122.532 97.134,139.782 97.134,139.782 L105.294,141.66 C105.294,141.66 119.658,118.2 117.822,104.76 Z" id="Path" fill="#263238"></path>
                        <polygon id="Path" fill="#00A0FF" points="106.512 143.4 95.25 141.6 95.832 137.964 107.814 139.686"></polygon>
                        <path d="M102.132,150 C102.085076,149.978497 102.054991,149.931616 102.054991,149.88 C102.054991,149.828384 102.085076,149.781503 102.132,149.76 C102.39,149.634 104.682,148.524 105.36,148.92 C105.492004,148.988891 105.575116,149.125103 105.576,149.274 L105.576,149.274 C105.607896,149.52483 105.508084,149.774362 105.312,149.934 C104.652,150.474 103.068,150.222 102.156,150.024 L102.132,150 Z M105.132,149.124 C104.712,148.974 103.476,149.412 102.57,149.826 C103.812,150.054 104.742,150.024 105.096,149.718 C105.2195,149.615475 105.282724,149.457415 105.264,149.298 C105.269697,149.237024 105.239189,149.178355 105.186,149.148 L105.132,149.148 L105.132,149.124 Z" id="Shape" fill="#2E353A"></path>
                        <path d="M102.132,150 L102.132,150 C102.092701,149.976328 102.071421,149.931404 102.078,149.886 C102.078,149.82 102.264,148.296 102.996,147.726 C103.205269,147.552826 103.476187,147.472634 103.746,147.504 L103.746,147.504 C104.106,147.552 104.214,147.738 104.232,147.888 C104.322,148.548 102.948,149.724 102.252,150.024 C102.21054,150.037266 102.165169,150.028192 102.132,150 Z M103.818,147.78 L103.68,147.78 C103.481158,147.762124 103.28317,147.822382 103.128,147.948 C102.696843,148.42796 102.424431,149.029362 102.348,149.67 C103.056,149.268 103.986,148.35 103.932,147.942 C103.937559,147.867706 103.889808,147.79985 103.818,147.78 L103.818,147.78 Z" id="Shape" fill="#2E353A"></path>
                        <path d="M87.156,92.898 L87.156,99.882 C92.556,102.432 98.352,105.006 102.678,108.03 C100.152,102.414 91.71,94.2 87.156,92.898 Z" id="Path" fill="#00A0FF"></path>
                        <path d="M42.498,126.264 C62.8276016,126.264 79.308,142.744398 79.308,163.074 C79.308,183.403602 62.8276016,199.884 42.498,199.884 C22.1683984,199.884 5.688,183.403602 5.688,163.074 C5.688,142.744398 22.1683984,126.264 42.498,126.264 M42.498,120.984 C19.2546792,120.990627 0.416687638,139.836677 0.420000856,163.079998 C0.423314073,186.323319 19.2666777,205.163998 42.5099994,205.163998 C65.7533212,205.163998 84.5966857,186.323321 84.6,163.08 L84.6,163.08 C84.6,139.834335 65.7556651,120.99 42.51,120.99 L42.51,120.99 L42.498,120.984 Z" id="Shape" fill="#2E353A"></path>
                        <path d="M42.498,127.835999 C61.9594096,127.832687 77.7386854,143.60659 77.7419995,163.068 C77.7453126,182.529409 61.9714093,198.308685 42.5099997,198.312 C23.0485901,198.315313 7.26931399,182.54141 7.266,163.08 L7.266,163.08 C7.28583741,143.629155 23.0471585,127.86515 42.498,127.842 M42.498,122.79 C20.2472298,122.796627 2.2144792,140.839227 2.22000042,163.089998 C2.22552418,185.340768 20.2672286,203.374415 42.5179994,203.369998 C64.7687702,203.36558 82.8033126,185.324771 82.8,163.074 C82.8,152.386348 78.5535262,142.13661 70.9950899,134.580424 C63.4366536,127.024239 53.1856514,122.780817 42.498,122.783998 L42.498,122.79 Z" id="Shape" fill="#00A0FF"></path>
                        <path d="M168.936,126.263998 C183.8248,126.259146 197.250364,135.223888 202.951985,148.977721 C208.653607,162.731553 205.508361,178.565687 194.982964,189.096233 C184.457566,199.62678 168.624972,202.779768 154.868353,197.084874 C141.111734,191.389979 132.140428,177.968801 132.138,163.08 L132.138,163.08 C132.157845,142.758624 148.626624,126.289845 168.948,126.27 M168.948,120.99 C145.702335,120.99 126.858,139.834335 126.858,163.08 C126.858,186.325665 145.702335,205.17 168.948,205.17 C192.193665,205.17 211.038,186.325665 211.038,163.08 C211.034687,139.835707 192.192293,120.993313 168.948,120.99 L168.948,120.99 Z" id="Shape" fill="#2E353A"></path>
                        <path d="M168.936,127.835998 C183.188986,127.831146 196.041342,136.412882 201.499647,149.579299 C206.957952,162.745715 203.947201,177.903704 193.871392,187.984661 C183.795583,198.065619 168.639135,201.084113 155.469931,195.632535 C142.300728,190.180956 133.712428,177.332986 133.71,163.08 L133.71,163.08 C133.726531,143.630126 149.486132,127.865155 168.936,127.842 M168.936,122.79 C152.640216,122.79 137.94902,132.606343 131.712894,147.661685 C125.476767,162.717026 128.923809,180.046473 140.446668,191.569332 C151.969527,203.092191 169.298974,206.539233 184.354315,200.303106 C199.409657,194.06698 209.226,179.375784 209.226,163.08 C209.227591,152.393388 204.983467,142.143927 197.427454,134.586789 C189.871441,127.029651 179.622612,122.784 168.936,122.784 L168.936,122.79 Z" id="Shape" fill="#00A0FF"></path>
                        <path d="M98.79,171.18 C102.378746,171.18 105.288,174.089254 105.288,177.678 C105.288,181.266746 102.378746,184.176 98.79,184.176 C95.2012537,184.176 92.292,181.266746 92.292,177.678 L92.292,177.678 C92.292,174.089254 95.2012537,171.18 98.79,171.18 M98.79,167.874 C93.3761826,167.877313 88.9897923,172.26818 88.992,177.681998 C88.9942093,183.095816 93.3841805,187.483102 98.7979988,187.481998 C104.211817,187.480894 108.600002,183.091818 108.600002,177.678 L108.600002,177.678 C108.601592,175.079409 107.570832,172.586617 105.734475,170.74801 C103.898119,168.909403 101.406591,167.875591 98.808,167.874 L98.79,167.874 Z" id="Shape" fill="#2E353A"></path>
                        <circle id="Oval" fill="#2E353A" cx="42.498" cy="163.074" r="6.492"></circle>
                        <circle id="Oval" fill="#2E353A" cx="168.936" cy="163.074" r="6.492"></circle>
                        <path d="M42.492,158.556 L42.492,158.556 C42.898121,158.558239 43.3019688,158.616797 43.692,158.73 L43.842,158.73 L100.8,170.076 C104.690049,170.991957 107.258484,174.699915 106.748527,178.663676 C106.238569,182.627437 102.815216,185.564522 98.82,185.466 C98.1827619,185.466221 97.5479428,185.387625 96.93,185.232 L41.346,167.4 L41.274,167.4 C39.1150729,166.783205 37.7366864,164.674566 38.0379729,162.449565 C38.3392595,160.224564 40.2287862,158.558432 42.474,158.538 M42.474,156.558 C39.1856937,156.508282 36.3786624,158.923161 35.9367067,162.182011 C35.4947509,165.440862 37.5572244,168.516129 40.74,169.344 L96.366,187.2 C97.1606907,187.39896 97.9767818,187.5 98.796,187.5 C103.737364,187.496981 107.903198,183.814922 108.513096,178.91134 C109.122994,174.007759 105.986069,169.417396 101.196,168.204 L44.232,156.804 C43.6621192,156.64169 43.0725434,156.558908 42.48,156.558 L42.474,156.558 Z" id="Shape" fill="#2E353A"></path>
                        <path d="M98.79,179.658044 L98.508,179.658044 C97.8159479,179.560251 97.2271759,179.103839 96.96,178.458 L61.698,94.914 C61.3417943,93.921394 61.8235106,92.8234697 62.7951226,92.4134462 C63.7667346,92.0034228 64.8893891,92.4242973 65.352,93.372 L99.33,173.874 L153.492,107.598 C154.186222,106.753004 155.434004,106.630778 156.279,107.325 C157.123996,108.019222 157.246222,109.267004 156.552,110.112 L100.344,178.932 C99.961507,179.395344 99.3908101,179.661963 98.79,179.658044 Z" id="Path" fill="#2E353A"></path>
                        <path d="M42.498,164.4 C41.7680072,164.4 41.1753031,163.809985 41.1719326,163.08 C41.1699416,162.872579 41.2150797,162.667406 41.304,162.48 L67.8,106.548 C68.0783515,105.87366 68.8506603,105.552649 69.525,105.831 C70.1993397,106.109352 70.5203515,106.88166 70.242,107.556 L70.188,107.682 L43.686,163.638 C43.4704376,164.100156 43.0079462,164.396805 42.498,164.4 L42.498,164.4 Z" id="Path" fill="#2E353A"></path>
                        <path d="M168.936,165.054007 C168.028714,165.056411 167.236614,164.440058 167.016,163.56 L151.11,101.676 L69.174,109.086 C68.0804762,109.183754 67.1147544,108.376524 67.017,107.283 C66.9192456,106.189476 67.7264762,105.223754 68.82,105.126 L152.436,97.56 C153.404393,97.4733677 154.29313,98.1005622 154.536,99.042 L170.862,162.558 C171.127313,163.614622 170.489199,164.687083 169.434,164.958 C169.272719,165.010898 169.105388,165.043155 168.936,165.054007 Z" id="Path" fill="#2E353A"></path>
                        <path d="M152.61,101.532104 C151.61776,101.542108 150.771275,100.816183 150.63,99.834 L148.272,83.478 C148.170179,82.7770449 148.450048,82.075015 149.006183,81.6363582 C149.562317,81.1977013 150.310228,81.0890599 150.968183,81.3513582 C151.626138,81.6136564 152.094179,82.2070449 152.196,82.908 L154.596,99.264 C154.753147,100.349175 154.001105,101.356373 152.916,101.514 L152.916,101.514 C152.81444,101.525976 152.712264,101.532104 152.61,101.532104 Z" id="Path" fill="#2E353A"></path>
                        <path d="M143.4,89.8740169 C142.532308,89.8656516 141.775919,89.2815466 141.54843,88.4441647 C141.320942,87.6067829 141.677805,86.7202443 142.422,86.274 L154.8,79.008 C155.395919,78.654307 156.135264,78.6454002 156.73953,78.9846348 C157.343797,79.3238693 157.721183,79.9597073 157.729672,80.6526348 C157.737878,81.3455623 157.375919,81.9903071 156.78,82.344 L144.396,89.61 C144.093117,89.7843583 143.749481,89.8754426 143.4,89.8740169 Z" id="Path" fill="#00A0FF"></path>
                        <path d="M49.8,93.828 C53.256,98.226 67.872,93.312 72.306,91.848 C76.74,90.384 86.832,93.312 85.32,89.868 C83.808,86.424 61.626,87.774 58.542,86.562 C52.002,84 43.878,86.268 49.8,93.828 Z" id="Path" fill="#00A0FF"></path>
                        <path d="M92.952,200.052014 C92.6014248,200.053604 92.2647446,199.915049 92.0168479,199.667152 C91.7689512,199.419255 91.6303955,199.082575 91.6319639,198.732 C91.631151,198.614686 91.6452648,198.497743 91.674,198.384 L103.356,156.264 C103.584684,155.605396 104.286116,155.238191 104.957653,155.425523 C105.629191,155.612855 106.039257,156.290123 105.894,156.972 L94.2,199.062 C94.0542558,199.635289 93.5434137,200.040525 92.952,200.052014 Z" id="Path" fill="#2E353A"></path>
                        <path d="M107.904,157.944 L96.234,157.944 C95.5378511,157.897092 94.9971459,157.318727 94.9971459,156.621 C94.9971459,155.923273 95.5378511,155.344908 96.234,155.298 L107.904,155.298 C108.600149,155.344908 109.140854,155.923273 109.140854,156.621 C109.140854,157.318727 108.600149,157.897092 107.904,157.944 Z" id="Path" fill="#2E353A"></path>
                        <path d="M101.34,200.052 L89.676,200.052 C88.9469841,200.052 88.356,199.461016 88.356,198.732 C88.356,198.002984 88.9469841,197.412 89.676,197.412 L101.34,197.412 C102.069016,197.412 102.66,198.002984 102.66,198.732 C102.66,199.461016 102.069016,200.052 101.34,200.052 L101.34,200.052 Z" id="Path" fill="#2E353A"></path>
                        <polygon id="Path" fill="#E4897B" points="88.158 192.96 93.804 192.504 93.834 179.394 88.194 179.844"></polygon>
                        <path d="M94.728,191.226 L87.84,191.298 C87.6095083,191.29915 87.4115269,191.462046 87.366,191.688 L86.298,196.728 C86.2097405,197.178422 86.5020218,197.615504 86.952,197.706 C87.0138592,197.711909 87.0761408,197.711909 87.138,197.706 C89.352,197.64 90.972,197.496 93.738,197.466 C95.454,197.466 100.632,197.574 102.984,197.544 C105.336,197.514 105.624,195.174 104.67,194.97 C100.302,194.064 97.008,192.786 95.598,191.55 C95.3556907,191.34209 95.0472788,191.227233 94.728,191.226 Z" id="Path" fill="#D61335"></path>
                        <path d="M112.62,42.6 C114.786,46.446 117.06,50.4 119.364,54.186 C121.580412,57.9606122 124.0062,61.6083084 126.63,65.112 C128.88,68.112 132.36,70.566 136.098,72.786 C137.964,73.896 139.908,74.928 141.9,75.918 C142.896,76.404 143.88,76.908 144.9,77.37 L147.9,78.69 L146.7,82.764 C142.034369,81.8479361 137.478938,80.4400766 133.11,78.564 C130.861537,77.5903828 128.689421,76.4491693 126.612,75.15 C125.536992,74.476993 124.499454,73.7459093 123.504,72.96 C122.994,72.552 122.496,72.096 122.01,71.64 L121.284,70.902 C121.044,70.656 120.87,70.44 120.624,70.2 C119.01031,68.4103757 117.496033,66.5335546 116.088,64.578 C114.666,62.676 113.352,60.738 112.074,58.776 C109.512,54.81 107.184,50.85 104.976,46.71 L112.62,42.6 Z" id="Path" fill="#E4897B"></path>
                        <path d="M104.454,50.016 C104.909536,54.4153344 106.735479,58.5604361 109.674,61.866 L120.744,53.466 C120.744,53.466 118.344,45.336 113.904,40.914 C105.6,32.73 103.854,43.584 104.454,50.016 Z" id="Path" fill="#00A0FF"></path>
                        <path d="M107.7,48.858 L104.4,49.65 L104.4,50.016 C104.697413,52.8987249 105.596817,55.6868784 107.04,58.2 C108.474,55.668 108.36,51 107.7,48.858 Z" id="Path" fill="#00A0FF"></path>
                        <polygon id="Path" fill="#00A0FF" points="88.194 179.85 93.834 179.4 93.816 186.156 88.17 186.606"></polygon>
                        <path d="M80.286,34.26 C77.424,54.66 66.54,72.06 65.754,76.308 C70.074,77.292 86.364,80.934 95.25,82.908 C105.87,65.766 111.102,38.88 111.102,38.88 C111.102,38.88 109.416,37.848 107.04,36.678 C106.29,36.318 105.48,35.94 104.64,35.568 C104.166,35.364 103.68,35.166 103.194,34.968 C99.145592,33.5477443 95.0187617,32.3617814 90.834,31.416 C90.048,31.23 89.244,31.062 88.434,30.906 C87.624,30.75 86.982,30.642 86.298,30.54 L85.35,30.39 C82.9018131,30.0478628 80.6388398,31.7524749 80.292,34.2 L80.286,34.26 Z" id="Path" fill="#00A0FF"></path>
                        <path d="M82.86,42.456 C82.2,45.024 78.606,49.656 75.726,52.41 C76.8935604,49.1326339 77.894836,45.7983861 78.726,42.42 L82.86,42.456 Z" id="Path" fill="#00A0FF"></path>
                        <path d="M82.86,42.456 C82.2,45.024 78.606,49.656 75.726,52.41 C76.8935604,49.1326339 77.894836,45.7983861 78.726,42.42 L82.86,42.456 Z" id="Path" fill="#00A0FF"></path>
                        <path d="M146.172,78.528 L153.438,78.36 L152.898,82.884 C152.898,82.884 148.698,84.912 145.452,82.092 L146.172,78.528 Z" id="Path" fill="#E4897B"></path>
                        <polygon id="Path" fill="#E4897B" points="156.462 79.686 154.5 83.592 152.91 82.884 153.45 78.36"></polygon>
                        <path d="M89.91,14.79 C88.962,19.224 92.31,23.376 98.31,22.716 C104.31,22.056 91.398,7.83 89.91,14.79 Z" id="Path" fill="#2E353A"></path>
                        <path d="M96.066,17.892 C95.706,22.092 94.386,29.592 90.846,31.446 C92.382,34.218 94.494,37.506 99.168,39.03 C103.842,40.554 103.968,37.05 103.194,35.004 C99.066,32.664 100.122,29.412 101.79,26.55 L96.066,17.892 Z" id="Path" fill="#E4897B"></path>
                        <path d="M98.4,21.396 L101.784,26.514 C101.395427,27.1777209 101.066152,27.8744203 100.8,28.596 C98.917401,27.6738581 97.6188323,25.8734162 97.338,23.796 C97.2,22.53 97.926,21.432 98.4,21.396 Z" id="Path" fill="#00A0FF"></path>
                        <path d="M107.886,7.386 C110.778,7.428 110.22,13.164 108.546,14.586 C106.872,16.008 104.73,7.35 107.886,7.386 Z" id="Path" fill="#2E353A"></path>
                        <path d="M93.9,12.456 C93.996,18.066 93.768,21.348 96.462,24.342 C100.524,28.848 107.55,26.586 109.128,21.042 C110.544,16.068 110.148,7.728 104.772,5.262 C102.360184,4.14383523 99.5409631,4.3568336 97.3245253,5.8246732 C95.1080875,7.29251281 93.811743,9.80505432 93.9,12.462 L93.9,12.456 Z" id="Path" fill="#E4897B"></path>
                        <path d="M93.552,16.608 C96.42,14.298 98.124,11.424 97.194,9.066 C100.158,10.17 110.796,10.446 109.824,5.928 C108.852,1.41 101.754,0.528 101.754,0.528 C101.754,0.528 103.368,1.59 103.29,2.418 C99.636,1.092 95.364,1.02 93.87,1.35 C94.938,2.088 95.07,2.586 95.07,2.586 C95.07,2.586 88.302,3.006 89.784,5.226 C87.114,5.142 85.242,14.646 93.552,16.608 Z" id="Path" fill="#2E353A"></path>
                        <path d="M91.314,18.096 C92.0118353,19.3222077 93.1689752,20.2202865 94.53,20.592 C96.33,21.072 97.218,19.452 96.696,17.754 C96.228,16.23 94.716,14.154 92.916,14.412 C91.116,14.67 90.474,16.608 91.314,18.096 Z" id="Path" fill="#E4897B"></path>
                        <path d="M84.762,80.55 C84.762,80.55 98.85,114.78 97.794,131.31 C96.648,149.418 96.24,183.36 96.24,183.36 L86.454,184.128 C86.454,184.128 82.524,151.698 83.454,134.046 C84.54,113.928 57.57,90.81 65.754,76.314 C75.03,78.252 84.762,80.55 84.762,80.55 Z" id="Path" fill="#00A0FF"></path>
                        <path d="M84.762,80.55 C84.762,80.55 98.85,114.78 97.794,131.31 C96.648,149.418 96.24,183.36 96.24,183.36 L86.454,184.128 C86.454,184.128 82.524,151.698 83.454,134.046 C84.54,113.928 57.57,90.81 65.754,76.314 C75.03,78.252 84.762,80.55 84.762,80.55 Z" id="Path" fill="#263238"></path>
                        <polygon id="Path" fill="#00A0FF" points="97.08 184.434 84.948 185.628 84.588 182.01 97.602 180.498"></polygon>
                        <path d="M102.318,14.4 C102.318,14.856 102.522,15.234 102.816,15.246 C103.11,15.258 103.374,14.904 103.416,14.448 C103.458,13.992 103.212,13.608 102.918,13.596 C102.624,13.584 102.336,13.938 102.318,14.4 Z" id="Path" fill="#2E353A"></path>
                        <path d="M107.46,14.622 C107.46,15.078 107.664,15.45 107.964,15.468 C108.264,15.486 108.528,15.12 108.564,14.664 C108.6,14.208 108.36,13.836 108.054,13.818 C107.748,13.8 107.484,14.166 107.46,14.622 Z" id="Path" fill="#2E353A"></path>
                        <path d="M105.816,14.79 C106.290181,16.2062684 106.95639,17.5508001 107.796,18.786 C106.962,19.5 105.606,19.098 105.606,19.098 L105.816,14.79 Z" id="Path" fill="#DE5753"></path>
                        <path d="M103.65,20.214 C102.62953,20.0429686 101.724554,19.4591831 101.148,18.6 C101.11171,18.5370182 101.133169,18.4565496 101.196,18.42 C101.225068,18.4003608 101.261007,18.393729 101.29517,18.4017003 C101.329333,18.4096716 101.358626,18.4315243 101.376,18.462 C102.0341,19.4070628 103.10462,19.9802371 104.256,20.004 C104.291604,20.0038381 104.325615,20.0187473 104.349622,20.0450408 C104.373629,20.0713342 104.385391,20.1065573 104.382,20.142 L104.382,20.142 C104.382037,20.1780734 104.36731,20.2125904 104.341241,20.2375252 C104.315173,20.2624599 104.280036,20.2756397 104.244,20.274 C104.046,20.268 103.848,20.244 103.65,20.214 Z" id="Path" fill="#2E353A"></path>
                        <path d="M100.8,12.66 C100.755218,12.6493467 100.712599,12.6310812 100.674,12.606 C100.61839,12.562456 100.583063,12.4980178 100.57626,12.4277168 C100.569457,12.3574157 100.591772,12.2873993 100.638,12.234 L100.638,12.234 C101.171132,11.5549836 102.001991,11.1787454 102.864,11.226 C102.934207,11.2335192 102.998475,11.2688485 103.042446,11.3240939 C103.086417,11.3793393 103.106425,11.4498964 103.098,11.52 L103.098,11.52 C103.082235,11.6644714 102.954946,11.7705462 102.81,11.76 L102.81,11.76 C102.128963,11.7286966 101.475321,12.030894 101.058,12.57 C100.99625,12.6468169 100.896131,12.6817422 100.8,12.66 Z" id="Path" fill="#2E353A"></path>
                        <path d="M109.758,12.948 C109.672653,12.9268617 109.600522,12.8700317 109.56,12.792 C109.309318,12.1575423 108.76915,11.6821045 108.108,11.514 C107.979501,11.474422 107.899704,11.3463274 107.920829,11.213541 C107.941954,11.0807546 108.057563,10.9837471 108.192,10.986 L108.192,10.986 C109.033604,11.1821315 109.727329,11.7751549 110.052,12.576 C110.081967,12.6410814 110.084194,12.7155477 110.058171,12.7823039 C110.032147,12.84906 109.980108,12.9023716 109.914,12.93 L109.914,12.93 C109.8641,12.9480187 109.810692,12.9541812 109.758,12.948 Z" id="Path" fill="#2E353A"></path>
                        <path d="M96.6,192.192 C96.1009218,192.186107 95.6039781,192.12575 95.118,192.012 C95.0657225,191.995494 95.0266133,191.951784 95.016,191.898 C95.0049702,191.847067 95.0264343,191.794599 95.07,191.766 C95.28,191.634 97.092,190.494 97.716,190.806 C97.8564474,190.879725 97.9443016,191.025378 97.944,191.184 C97.9799231,191.452275 97.8784479,191.720621 97.674,191.898 C97.3588279,192.113081 96.9807747,192.21657 96.6,192.192 Z M95.502,191.82 C96.468,191.994 97.206,191.958 97.482,191.694 C97.6191498,191.569507 97.6864301,191.385608 97.662,191.202 C97.6674358,191.137939 97.6344746,191.076725 97.578,191.046 C97.272,190.884 96.24,191.376 95.502,191.796 L95.502,191.82 Z" id="Shape" fill="#2E353A"></path>
                        <path d="M95.148,192 L95.07,192 C95.0326763,191.968687 95.0107841,191.922713 95.01,191.874 C95.01,191.808 95.136,190.176 95.784,189.63 C95.9387293,189.490225 96.1475877,189.426468 96.354,189.456 L96.354,189.456 C96.560027,189.451962 96.7394067,189.595971 96.78,189.798 C96.912,190.458 95.79,191.682 95.208,192.006 L95.148,192 Z M96.264,189.69 C96.1516058,189.700092 96.0449127,189.744024 95.958,189.816 C95.5597769,190.33476 95.3295039,190.962777 95.298,191.616 C95.868,191.172 96.618,190.224 96.498,189.858 C96.498,189.822 96.498,189.744 96.3,189.72 L96.252,189.72 L96.264,189.69 Z" id="Shape" fill="#2E353A"></path>
                        <path d="M87.222,39.636 C86.622,39.918 86.166,40.134 85.638,40.362 L84.102,41.028 C83.064,41.442 82.032,41.838 80.988,42.228 C78.912,42.992 76.792,43.666 74.628,44.25 C70.2312089,45.4927879 65.7003913,46.1999097 61.134,46.356 C59.9428224,46.3809621 58.7511582,46.342909 57.564,46.242 C56.964,46.182 56.364,46.128 55.764,46.026 L55.308,45.96 L55.08,45.96 L54.894,45.924 L54.654,45.87 C53.9293117,45.7132569 53.2410701,45.4200415 52.626,45.006 C51.9492275,44.5527199 51.3798987,43.9567678 50.958,43.26 C50.6002618,42.6890837 50.3463489,42.0593797 50.208,41.4 C50.0221457,40.4960477 49.9856624,39.5677503 50.1,38.652 C50.2746559,37.3323787 50.6091099,36.0388878 51.096,34.8 C51.9430547,32.6598554 52.9833555,30.6013451 54.204,28.65 C54.768,27.696 55.362,26.766 56.004,25.866 C56.646,24.966 57.252,24.066 57.984,23.196 L61.632,25.362 L60.504,28.248 L59.4,31.152 C58.7216266,32.9989071 58.152641,34.8841726 57.696,36.798 C57.5140723,37.5732778 57.4155128,38.3657771 57.402,39.162 C57.402,39.444 57.474,39.666 57.492,39.57 C57.4861617,39.4374684 57.4447076,39.3089608 57.372,39.198 C57.2291518,38.959907 57.0368104,38.7552886 56.808,38.598 C56.6341287,38.4780602 56.4442746,38.3831331 56.244,38.316 L56.7,38.316 C57.138,38.364 57.594,38.37 58.02,38.388 C58.932,38.388 59.856,38.388 60.804,38.304 C62.7268111,38.1601682 64.6373707,37.8835079 66.522,37.476 C68.448,37.086 70.38,36.582 72.3,36.012 C74.22,35.442 76.14,34.812 78.042,34.116 C78.99,33.768 79.938,33.414 80.874,33.036 L82.266,32.472 L83.586,31.908 L87.222,39.636 Z" id="Path" fill="#E4897B"></path>
                        <path d="M87.336,41.532 C83.652,45.498 72.474,48.18 72.474,48.18 L68.07,35.4 C68.07,35.4 75.384,31.02 82.338,30.408 C93,29.478 91.14,37.446 87.336,41.532 Z" id="Path" fill="#00A0FF"></path>
                        <path d="M61.524,25.704 L64.362,20.718 L57.162,20.076 C57.162,20.076 55.692,24.876 58.14,25.92 L61.524,25.704 Z" id="Path" fill="#E4897B"></path>
                        <polygon id="Path" fill="#E4897B" points="63.114 15.138 57.72 15.804 57.168 20.094 64.362 20.718"></polygon>
                    </g>
                </g>
            </g>
        </g>
    </g>
</svg>