<?xml version="1.0" encoding="UTF-8"?>
<svg width="329px" height="320px" viewBox="0 0 329 320" version="1.1" xmlns="http://www.w3.org/2000/svg" xmlns:xlink="http://www.w3.org/1999/xlink">
    <title>Group 5</title>
    <defs>
        <polygon id="path-1" points="0 103 52 103 52 0 0 0"></polygon>
    </defs>
    <g id="Page-1" stroke="none" stroke-width="1" fill="none" fill-rule="evenodd">
        <g id="For-you-and-your-partner" transform="translate(-28.000000, -168.000000)">
            <g id="Group-2" transform="translate(28.000000, 168.000000)">
                <circle id="Mask" fill="#E13856" opacity="0.0770321801" cx="179" cy="170" r="150"></circle>
                <g id="Group-22-Copy-3" transform="translate(244.000000, 194.000000)">
                    <path d="M34.9056685,43.5849281 C38.1627602,41.9235134 41.9986599,41.70755 45.6146541,42.2987157 C47.5571532,42.6158265 49.5826355,43.1905898 50.904835,44.632624 C52.2263429,46.0746581 52.4773671,48.6122281 50.9594656,49.8519673 C50.0556399,50.5893867 48.7956779,50.7014689 47.6235398,50.6884838 C44.7931202,50.6556792 41.6515134,50.1629273 39.3902205,51.8462117 C38.0998313,52.8064287 37.2409548,54.4029176 35.6981583,54.8758502 C34.1892466,55.3378478 32.4860158,54.4575919 31.6859192,53.1105544 C30.8858226,51.7648837 30.858853,50.0822827 31.231586,48.5650715 C31.231586,48.5650715 31.6243733,45.2572776 34.9056685,43.5849281" id="Fill-1" fill="#D61335"></path>
                    <path d="M26.8583698,29.2072272 C28.8258687,32.0197759 32.6501946,31.0886404 34.4229931,29.3719876 C36.1964747,27.6553347 36.9459005,25.1675212 37.6283767,22.795245 C39.1866631,17.3738762 40.7586127,11.68725 39.5992913,6.16743507 C39.2529296,4.51709656 38.6360367,2.87154362 37.4773985,1.64712097 C36.3187602,0.422698325 34.5363975,-0.306075847 32.9070625,0.124625587 C30.9791869,0.634630777 29.7802423,2.52424786 28.9146794,4.32225543 C26.3685446,9.60689366 25.0206712,15.4651168 25.0001764,21.3322275 C24.9912954,24.0716253 25.3137466,26.9450192 26.8583698,29.2072272" id="Fill-3" fill="#D61335"></path>
                    <path d="M21.9858988,33.553163 C24.0584866,30.9783876 24.4521922,27.2227263 23.5295691,23.9971453 C22.606946,20.7701767 20.5237533,18.0261086 18.1224148,15.7857557 C15.3068237,13.1582498 11.996781,11.1142486 8.43951233,9.80431165 C7.03900766,9.28949533 5.56228053,8.88291533 4.0848906,9.03069953 C2.60683787,9.1777899 1.11884308,9.96944141 0.430189808,11.3452915 C-0.589202616,13.3795791 0.387770357,15.8468121 1.4449426,17.860285 C3.306096,21.4071058 5.43502218,24.8005918 7.80454618,27.9984199 C9.71077025,30.5711138 11.8940463,33.1084228 14.7997787,34.2712694 C17.7048483,35.4341159 20.7225945,35.2974329 22.262288,33.1889062" id="Fill-5" fill="#D61335"></path>
                    <path d="M28.0342153,71 C28.0692954,71.002737 28.126463,70.5442884 28.2037692,69.7153693 C28.2895206,68.7806015 28.3973595,67.606643 28.5259866,66.2093026 C28.6805989,64.734294 28.8839337,62.9781676 29.2717639,61.0660176 C29.6576452,59.1586788 30.2618028,57.092567 31.0381128,54.9962127 C31.8417073,52.9129176 32.8226514,51.0186381 33.9679523,49.5044517 C35.1054576,47.9827047 36.4281079,46.8809158 37.6715032,46.2458236 C38.9110007,45.5983594 40.0225208,45.3351123 40.7903856,45.2182663 C41.5660459,45.1344121 41.9993504,45.0691159 42,45.0333747 C42,44.9969463 41.5653963,44.9907603 40.7695973,45.0127549 C39.9809443,45.0684285 38.8233004,45.2801259 37.5168909,45.9083449 C36.2065835,46.5235046 34.8033788,47.6424767 33.6100051,49.1944662 C32.406887,50.7409571 31.3915125,52.6771637 30.5736261,54.7982619 C29.7836738,56.9303573 29.1879614,59.0184637 28.8189705,60.9670422 C28.4512789,62.912184 28.2830243,64.6868682 28.1725869,66.1749361 C28.0673465,67.6636914 28.027719,68.8692669 28.0088797,69.7029973 C27.9913396,70.5360404 27.9997848,70.9979257 28.0342153,71" id="Fill-7" fill="#1A2E35"></path>
                    <path d="M28.2843805,68 C28.3026523,67.9993223 28.3145992,67.7972046 28.3195186,67.4139247 C28.318113,66.9725105 28.3167075,66.4182079 28.3145992,65.7368212 C28.3110854,64.2821148 28.3117882,62.1764408 28.3926058,59.5759503 C28.5268333,54.3763213 28.9920617,48.7792167 29.8908941,40.889192 C30.7426414,33.4696485 31.8853322,24.8353711 33.0912716,19.2213671 C33.3498879,17.9437671 33.6106126,16.7952791 33.8551737,15.7894226 C34.0891934,14.7808622 34.2887778,13.9108775 34.4813345,13.2078595 C34.6471863,12.5460763 34.7821166,12.0066452 34.8889364,11.5780746 C34.9760789,11.2035823 35.0133252,11.0048446 34.9957562,11 C34.9774844,10.9947049 34.9050999,11.1839789 34.7835221,11.5496835 C34.6507001,11.9714943 34.4834428,12.5028136 34.2775336,13.1558092 C34.0526498,13.8527433 33.8228467,14.7166442 33.5607165,15.7211488 C33.2866394,16.7229494 32.9992098,17.8694094 32.7159967,19.1443055 C31.5227071,24.231046 30.259844,31.3409912 29.3518757,39.2499433 C28.450935,47.1568675 28.0454414,54.3553659 28.0088978,59.5691905 C27.9772735,62.1757648 28.0349,64.2861707 28.1037707,65.7415531 C28.1473419,66.4229397 28.18248,66.9772423 28.2105905,67.4179805 C28.2408092,67.8005845 28.2654059,68.0006743 28.2843805,68" id="Fill-9" fill="#1A2E35"></path>
                    <path d="M27.9770165,55 C28.0123445,54.9986413 28.0058023,54.3739718 27.9652405,53.2419703 C27.9030895,52.1126818 27.7532726,50.4808091 27.4457883,48.4813241 C27.1206401,46.4865869 26.6666101,44.1181332 25.952854,41.5448475 C25.643407,40.3680815 24.9159123,37.5492689 23.154747,33.3366497 C20.8342219,27.6291647 17.6808724,22.9627954 14.93772,20.0720881 C14.2946199,19.3049859 13.5782469,18.752211 13.0051485,18.2096099 C12.7081318,17.9498397 12.4464431,17.6900694 12.1795205,17.4845592 C11.9106353,17.2926141 11.6607226,17.1149123 11.429128,16.9487407 C10.5263018,16.3091497 10.0212425,15.9713805 10.0022701,16.0019018 C9.92114655,16.115848 12.0244699,17.3990996 14.6799566,20.3284671 C17.3243215,23.250374 20.389351,27.8848654 22.6915579,33.5441947 C23.9751412,36.6146385 24.8701168,39.3527392 25.5053662,41.6764283 C26.238749,44.2252969 26.7261443,46.5700118 27.0944712,48.5444015 C27.4444799,50.5235389 27.6472887,52.1398119 27.7696282,53.2589266 C27.8697241,54.3800761 27.9423428,55.0013543 27.9770165,55" id="Fill-11" fill="#1A2E35"></path>
                    <polygon id="Fill-13" fill="#1A2E35" points="14 79 15.3779744 98 39.6220256 98 41 79"></polygon>
                    <mask id="mask-2" fill="white">
                        <use xlink:href="#path-1"></use>
                    </mask>
                    <g id="Clip-16"></g>
                    <polygon id="Fill-15" fill="#1A2E35" mask="url(#mask-2)" points="12 79 45 79 45 71 12 71"></polygon>
                    <polygon id="Fill-17" fill="#375A64" mask="url(#mask-2)" points="12 98 12 100 13.5287635 100 44 100 44 98"></polygon>
                    <polygon id="Fill-18" fill="#375A64" mask="url(#mask-2)" points="14.4827229 103 13 99 42 99 40.2692653 103"></polygon>
                    <path d="M40.9995081,85.9984864 C41.0048332,86.0037841 40.9668923,86.0703835 40.8870167,86.1945005 C40.7918316,86.3382947 40.6726838,86.5176589 40.5269108,86.737891 C40.1841113,87.2366297 39.7135109,87.9207871 39.1217657,88.7820383 L39.0591965,88.8728557 L38.9992898,88.7774975 C38.1159987,87.3895055 36.9365022,85.534561 35.5479979,83.3504036 L35.7463557,83.3504036 C34.7199541,85.0032795 33.5764017,86.8438446 32.3489798,88.8206357 L32.242479,88.9924319 L32.1233312,88.8304743 C30.8692842,87.1344601 29.5074051,85.2923814 28.0936068,83.3799193 L28.3259117,83.3761352 C28.2560206,83.4767911 28.1801387,83.5850151 28.1042569,83.6932392 C26.8542036,85.474773 25.6447538,87.1987891 24.5012014,88.8289606 L24.3807223,89 L24.2702277,88.8213925 C23.0467997,86.85444 21.9039128,85.0153885 20.8701894,83.3534309 L21.0685471,83.3640262 C19.3931562,85.534561 17.972036,87.3743693 16.881734,88.787336 L16.8071834,88.8842079 L16.7506049,88.775227 C16.1987976,87.7209889 15.7588161,86.8801715 15.4399793,86.2709384 C15.3028595,85.9992432 15.1916993,85.7797679 15.1031705,85.6041877 C15.0292855,85.4513118 14.9946728,85.3710898 15.0006634,85.3665489 C15.0073197,85.3620081 15.0545795,85.4339051 15.1411114,85.5776993 C15.238959,85.7464682 15.3614349,85.9576186 15.5131986,86.2194753 C15.8480105,86.818113 16.3099578,87.6430373 16.8890559,88.6783552 L16.7585924,88.6654894 C17.8315881,87.2366297 19.2294112,85.3733602 20.8781769,83.176337 L20.9820152,83.0378406 L21.075869,83.1869324 C22.1182457,84.8420787 23.2717826,86.6728052 24.5058608,88.6314329 L24.2748871,88.6246216 C25.4157771,86.9914228 26.6225644,85.2643794 27.8692895,83.4805752 C27.9451713,83.3715943 28.0210531,83.2641271 28.0909443,83.1642281 L28.2054327,83 L28.3239148,83.160444 C29.7337193,85.0766902 31.0916046,86.9233098 32.3416579,88.6223512 L32.1160093,88.6321897 C33.3560781,86.6659939 34.5109463,84.8345106 35.5479979,83.1899596 L35.6485081,83.0302725 L35.7463557,83.1899596 C37.1055723,85.3975782 38.2604404,87.2721998 39.1250939,88.675328 L39.002618,88.6715439 C39.6176601,87.8322402 40.1068982,87.1654894 40.4636759,86.6796165 C40.6220959,86.4707366 40.7505625,86.3012109 40.8544008,86.1649849 C40.9449265,86.0499495 40.9941831,85.9931887 40.9995081,85.9984864" id="Fill-19" fill="#E1E1E1" mask="url(#mask-2)"></path>
                    <path d="M42,79.5 C42,79.624 35.955532,79.726 28.5006659,79.726 C21.0431362,79.726 15,79.624 15,79.5 C15,79.375 21.0431362,79.274 28.5006659,79.274 C35.955532,79.274 42,79.375 42,79.5" id="Fill-20" fill="#375A64" mask="url(#mask-2)"></path>
                    <path d="M43,99.4995 C43,99.6245 36.2837853,99.7255 28.0003404,99.7255 C19.7148531,99.7255 13,99.6245 13,99.4995 C13,99.3755 19.7148531,99.2745 28.0003404,99.2745 C36.2837853,99.2745 43,99.3755 43,99.4995" id="Fill-21" fill="#1A2E35" mask="url(#mask-2)"></path>
                </g>
                <g id="Asset-19" fill-rule="nonzero">
                    <g id="freepik--background-complete--inject-2" transform="translate(17.500000, 0.000000)">
                        <polygon id="Path" fill="#DEDEDE" points="130.732 22.127 131.782 11.046 125.993 11.172 122.934 1.785 123.592 13.776 129.465 13.629"></polygon>
                        <polygon id="Path" fill="#DEDEDE" points="128.065 23.723 123.998 17.388 120.967 19.873 115.423 16.149 120.778 22.253 123.844 19.726"></polygon>
                        <polygon id="Path" fill="#DEDEDE" points="134.491 22.932 139.041 18.396 136.423 16.317 138.53 11.011 134.4 16.583 137.06 18.683"></polygon>
                        <polygon id="Path" fill="#DEDEDE" points="93.45 73.178 86.975 64.134 82.691 68.026 74.221 62.944 82.586 71.561 86.919 67.592"></polygon>
                        <polygon id="Path" fill="#DEDEDE" points="92.484 76.132 85.26 74.025 84.602 77.882 77.973 78.715 86.023 79.807 86.674 75.887"></polygon>
                        <polygon id="Path" fill="#DEDEDE" points="161.028 71.876 167.503 62.825 171.787 66.717 180.257 61.635 171.892 70.252 167.559 66.29"></polygon>
                        <polygon id="Path" fill="#DEDEDE" points="161.994 74.823 169.218 72.716 169.876 76.573 176.505 77.406 168.455 78.498 167.804 74.578"></polygon>
                        <path d="M1.68,73.01 C1.68,72.94 2.142,73.01 2.38,73.591 C2.49925464,73.9451124 2.43641468,74.3352438 2.212,74.634 C1.88730657,74.9854461 1.38287906,75.106697 0.933929671,74.9412139 C0.484980284,74.7757309 0.179921182,74.3561027 0.161,73.878 C0.183336105,73.5054973 0.387508635,73.1678274 0.707,72.975 C1.253,72.653 1.645,72.919 1.596,72.975 C1.33787614,73.0127325 1.09542875,73.1218339 0.896,73.29 C0.725291374,73.4446878 0.624317562,73.6617815 0.616,73.892 C0.652902389,74.2765732 0.994391924,74.558537 1.379,74.522 C1.53719489,74.5062551 1.68531853,74.4371308 1.799,74.326 C1.93942874,74.1425391 2.00226501,73.9113016 1.974,73.682 C1.946,73.227 1.645,73.066 1.68,73.01 Z" id="Path" fill="#DEDEDE"></path>
                        <rect id="Rectangle" fill="#DEDEDE" x="222.607" y="0.014" width="58.198" height="60.662"></rect>
                        <rect id="Rectangle" fill="#F9F9F9" x="218.666" y="0.014" width="58.198" height="60.662"></rect>
                        <path d="M276.878,60.697 L218.645,60.697 L218.645,0 L276.878,0 L276.878,60.697 Z M218.687,60.697 L276.843,60.697 L276.843,0.035 L218.687,0.035 L218.687,60.697 Z" id="Shape" fill="#DEDEDE"></path>
                        <rect id="Rectangle" fill="#F9F9F9" x="226.492" y="8.169" width="42.546" height="44.352"></rect>
                        <path d="M226.492,52.822 C226.184325,53.2626457 225.832504,53.670758 225.442,54.04 C224.742,54.74 223.804,55.727 222.733,56.784 C221.662,57.841 220.682,58.772 219.933,59.444 C219.563491,59.8314358 219.150028,60.1744226 218.701,60.466 C219.004764,60.0223297 219.356928,59.6138187 219.751,59.248 C220.451,58.548 221.389,57.561 222.46,56.504 C223.531,55.447 224.518,54.502 225.26,53.837 C225.624742,53.4464903 226.038909,53.1052732 226.492,52.822 L226.492,52.822 Z" id="Path" fill="#DEDEDE"></path>
                        <path d="M269.038,52.71 C269.484647,53.0098769 269.893587,53.362411 270.256,53.76 C270.956,54.46 271.95,55.391 273,56.462 C274.05,57.533 274.995,58.52 275.66,59.262 C276.049657,59.6313346 276.394982,60.0447854 276.689,60.494 C276.24091,60.1987297 275.831704,59.8483175 275.471,59.451 C274.771,58.751 273.777,57.813 272.72,56.742 C271.663,55.671 270.725,54.642 270.06,53.942 C269.667315,53.5774224 269.323761,53.1632758 269.038,52.71 L269.038,52.71 Z" id="Path" fill="#DEDEDE"></path>
                        <path d="M268.919,8.288 C269.222764,7.84432968 269.574928,7.43581875 269.969,7.07 C270.669,6.37 271.607,5.383 272.678,4.326 C273.749,3.269 274.729,2.331 275.478,1.666 C275.842578,1.27331478 276.256724,0.929761352 276.71,0.644 C276.406096,1.08543632 276.05392,1.49161213 275.66,1.855 C274.96,2.555 274.029,3.549 272.951,4.606 C271.873,5.663 270.893,6.601 270.151,7.266 C269.786422,7.65868522 269.372276,8.00223865 268.919,8.288 L268.919,8.288 Z" id="Path" fill="#DEDEDE"></path>
                        <path d="M226.373,8.4 C225.92933,8.09623621 225.520819,7.74407162 225.155,7.35 C224.455,6.65 223.468,5.712 222.411,4.641 C221.354,3.57 220.416,2.59 219.751,1.841 C219.358315,1.4764224 219.014761,1.06227581 218.729,0.609 C219.170436,0.912904283 219.576612,1.26507984 219.94,1.659 C220.64,2.359 221.634,3.297 222.691,4.368 C223.748,5.439 224.686,6.426 225.351,7.168 C225.743685,7.5325776 226.087239,7.94672419 226.373,8.4 L226.373,8.4 Z" id="Path" fill="#DEDEDE"></path>
                        <path d="M268.919,52.5 L268.919,49.294 C268.919,47.194 268.919,44.135 268.877,40.257 C268.877,32.487 268.828,21.42 268.793,8.169 L268.954,8.337 L226.527,8.337 L226.716,8.148 L226.716,52.5 L226.555,52.339 L257.278,52.423 L265.909,52.465 L266,52.465 L257.376,52.5 L226.576,52.577 L226.415,52.577 L226.415,7.98 L269.199,7.98 L269.199,8.141 C269.164,21.441 269.136,32.536 269.115,40.341 C269.115,44.205 269.08,47.25 269.073,49.343 L269.073,52.304 C269.030615,52.3758934 268.978824,52.4418086 268.919,52.5 L268.919,52.5 Z" id="Path" fill="#DEDEDE"></path>
                        <path d="M249.046,25.578 C247.50444,23.2263921 244.790716,21.917767 241.990734,22.1757757 C239.190753,22.4337845 236.761865,24.2162839 235.676,26.81 C234.820843,28.9733152 234.858604,31.3874881 235.781,33.523 C236.719585,35.6371667 238.245344,37.4374645 240.177,38.71 C245.154,42.098 252.371,41.944 256.977,38.087 C258.760606,36.7006412 259.973584,34.7080708 260.386,32.487 C260.736693,29.8685517 259.58335,27.2757066 257.403829,25.7827419 C255.224307,24.2897772 252.389912,24.1510352 250.075,25.424" id="Path" fill="#DEDEDE"></path>
                        <path d="M249.046,25.564 C248.712979,24.3195172 247.528092,23.4989826 246.246,23.625 L247.905,25.606 C246.985597,25.7353451 246.205764,26.3469267 245.861,27.209 C245.784,27.412 245.763,27.699 245.952,27.804 C246.092596,27.8481534 246.245344,27.8303329 246.372,27.755 L248.346,26.922 C248.486848,28.0495625 248.900079,29.1258855 249.55,30.058 C250.011466,29.06678 250.270847,27.9935617 250.313,26.901 L252.546,27.888 C252.368499,27.2449787 252.002849,26.6696896 251.496,26.236 C252.155889,26.1164601 252.78894,25.8793622 253.365,25.536 C253.54,25.431 253.729,25.242 253.652,25.053 C253.575,24.864 253.407,24.871 253.253,24.857 C251.799361,24.720225 250.337798,25.0174095 249.053,25.711" id="Path" fill="#E9E9E9"></path>
                        <path d="M248.878,26.397 C249.228285,24.1378476 249.038785,21.8278612 248.325,19.656 C248.857,19.537 249.515,19.453 249.858,19.88 C250.031868,20.1447307 250.110834,20.4605938 250.082,20.776 C250.109403,22.9093888 249.704605,25.0262427 248.892,26.999" id="Path" fill="#E9E9E9"></path>
                        <path d="M238,34.51 C237.869944,34.4075386 237.752461,34.2900561 237.65,34.16 C237.362972,33.8105486 237.112029,33.4329601 236.901,33.033 C235.453277,30.2895748 236.011461,26.9175719 238.266,24.787 C238.612859,24.4732865 238.993142,24.1986382 239.4,23.968 C239.535604,23.8727491 239.684099,23.7973232 239.841,23.744 C239.349272,24.1026329 238.881601,24.4931381 238.441,24.913 C236.321201,27.0326416 235.786399,30.2667883 237.111,32.956 C237.379502,33.4894326 237.676257,34.008169 238,34.51 L238,34.51 Z" id="Path" fill="#FFFFFF"></path>
                        <path d="M240.275,36.197 C240.275,36.26 239.897,36.197 239.54,35.924 C239.183,35.651 238.994,35.364 239.05,35.322 C239.106,35.28 239.358,35.497 239.68,35.728 C240.002,35.959 240.296,36.134 240.275,36.197 Z" id="Path" fill="#FFFFFF"></path>
                    </g>
                    <g id="freepik--Floor--inject-2" transform="translate(0.000000, 296.800000)" fill="#2E353A">
                        <path d="M296.457,0.91 C296.457,1.015 230.09,1.092 148.239,1.092 C66.388,1.092 0,1.001 0,0.91 C0,0.819 66.36,0.7 148.239,0.7 C230.118,0.7 296.457,0.798 296.457,0.91 Z" id="Path"></path>
                    </g>
                    <g id="freepik--Character--inject-2" transform="translate(72.800000, 30.100000)">
                        <rect id="Rectangle" fill="#4D5A64" x="15.729" y="193.228" width="116.788" height="74.2"></rect>
                        <rect id="Rectangle" fill="#4D5A64" x="0.063" y="191.114" width="142.618" height="26.04" rx="12.712"></rect>
                        <path d="M132.671,216.804 C132.671,216.902 105.371,216.986 71.771,216.986 C38.171,216.986 10.871,216.902 10.871,216.804 C10.871,216.706 38.171,216.615 71.806,216.615 C105.441,216.615 132.671,216.699 132.671,216.804 Z" id="Path" fill="#2E353A"></path>
                        <path d="M31.346,268.03 C31.248,268.03 31.164,256.718 31.164,242.767 C31.164,228.816 31.248,217.504 31.346,217.504 C31.444,217.504 31.528,228.809 31.528,242.767 C31.528,256.725 31.43,268.03 31.346,268.03 Z" id="Path" fill="#2E353A"></path>
                        <path d="M105.147,206.647 C104.965,206.017 104.811,205.373 104.692,204.729 C104.322384,203.191361 103.81638,201.689747 103.18,200.242 C102.53726,198.80014 101.764041,197.420063 100.87,196.119 C100.471986,195.594268 100.10052,195.049919 99.757,194.488 C100.266599,194.927589 100.711947,195.436558 101.08,196 C102.046053,197.279792 102.863312,198.665375 103.516,200.13 C104.152707,201.59873 104.622322,203.134368 104.916,204.708 C105.073795,205.342128 105.151401,205.993549 105.147,206.647 L105.147,206.647 Z" id="Path" fill="#2E353A"></path>
                        <path d="M111.419,202.755 C111.356,202.755 111.097,202.006 110.474,200.879 C109.656225,199.415828 108.593087,198.104071 107.331,197.001 C106.061168,195.90855 104.614911,195.039849 103.054,194.432 C102.377809,194.239015 101.713927,194.005253 101.066,193.732 C101.25641,193.716641 101.448048,193.733202 101.633,193.781 C102.144331,193.864804 102.647754,193.991245 103.138,194.159 C106.426321,195.270085 109.144798,197.631463 110.705,200.732 C110.937542,201.196075 111.131852,201.678339 111.286,202.174 C111.365492,202.357903 111.410572,202.554829 111.419,202.755 Z" id="Path" fill="#2E353A"></path>
                        <polygon id="Path" fill="#00A0FF" points="56.602 58.555 39.179 61.39 37.905 96.523 37.905 165.914 116.235 165.914 116.235 84.56 106.064 61.39"></polygon>
                        <path d="M39.2,61.39 C39.2,61.39 25.095,68.187 22.701,83.391 C20.307,98.595 14,115.5 12.775,118.923 C11.55,122.346 7.651,136.514 13.629,142.324 C19.607,148.134 22.169,147.616 25.928,147.105 C29.687,146.594 36.463,140.868 39.41,137.886 C42.959,134.288 41.062,128.086 41.062,128.086 L39.2,61.39 Z" id="Path" fill="#00A0FF"></path>
                        <path d="M106.064,61.39 C106.064,61.39 116.235,63.651 121.009,70.952 C125.146,77.252 130.97,96.943 130.97,96.943 C130.97,96.943 140.175,122.143 139.048,129.388 C137.921,136.633 127.967,146.048 121.912,141.911 C116.494,138.201 112.161,134.911 109.795,132.069 C108.946521,130.725578 108.508614,129.163711 108.535,127.575 L110.999,91.987 L106.064,61.39 Z" id="Path" fill="#00A0FF"></path>
                        <path d="M17.647,123.704 C17.1847958,123.165661 16.8903472,122.50376 16.8,121.8 C16.449099,120.109683 16.6275262,118.352297 17.311,116.767 C17.6806628,115.889048 18.2289479,115.09761 18.921,114.443 C19.5181468,113.916643 20.2812603,113.616848 21.077,113.596 C21.5983446,113.581659 22.11853,113.652594 22.617,113.806 C22.8020106,113.847775 22.9792161,113.918658 23.142,114.016 C22.4638649,113.906516 21.7779123,113.85267 21.091,113.855 C20.3631409,113.903611 19.6738905,114.200062 19.138,114.695 C18.4998028,115.333466 17.9911268,116.089349 17.64,116.921 C16.9949443,118.446515 16.7935578,120.123119 17.059,121.758 C17.1823269,122.426441 17.3795366,123.079111 17.647,123.704 L17.647,123.704 Z" id="Path" fill="#2E353A"></path>
                        <path d="M40.6,95.368 C40.4739946,93.2091704 40.4739946,91.0448296 40.6,88.886 C40.6069305,86.7217427 40.740157,84.5597341 40.999,82.411 C41.1063581,84.5706704 41.0946738,86.7346149 40.964,88.893 C40.9582872,91.0562821 40.8367801,93.2177076 40.6,95.368 L40.6,95.368 Z" id="Path" fill="#2E353A"></path>
                        <path d="M18.683,114.8 C18.683,114.905 17.983,114.8 17.171,114.961 C16.359,115.122 15.771,115.472 15.722,115.388 C15.673,115.304 16.198,114.779 17.122,114.597 C17.647096,114.434449 18.2169437,114.508555 18.683,114.8 L18.683,114.8 Z" id="Path" fill="#2E353A"></path>
                        <path d="M108.941,88.9 C108.77917,88.2517635 108.669156,87.5916821 108.612,86.926 C108.437,85.708 108.178,84.028 107.821,82.187 C107.464,80.346 107.065,78.687 106.764,77.497 C106.568318,76.8579574 106.420903,76.2051217 106.323,75.544 C106.625112,76.143909 106.859875,76.7754228 107.023,77.427 C107.490815,78.9692865 107.878665,80.5347048 108.185,82.117 C108.501912,83.6973061 108.735567,85.2931728 108.885,86.898 C108.970081,87.5618196 108.98884,88.2324623 108.941,88.9 Z" id="Path" fill="#2E353A"></path>
                        <path d="M94.85,133.427 C94.764339,133.545177 94.6707927,133.657433 94.57,133.763 L93.716,134.68 C93.352,135.079 92.89,135.555 92.316,136.08 C91.742,136.605 91.133,137.235 90.391,137.865 C89.649,138.495 88.865,139.216 87.962,139.916 C87.059,140.616 86.1,141.4 85.057,142.1 C82.7771644,143.695839 80.4072334,145.158933 77.959,146.482 C75.4860846,147.777981 72.9382493,148.925682 70.329,149.919 C69.118,150.346 67.97,150.773 66.871,151.088 C65.772,151.403 64.771,151.718 63.812,151.956 C62.853,152.194 62.006,152.383 61.257,152.544 C60.508,152.705 59.857,152.831 59.311,152.915 L58.072,153.104 C57.9290564,153.132169 57.7836925,153.146236 57.638,153.146003 C57.7750432,153.089345 57.9184076,153.049391 58.065,153.027 L59.283,152.775 C59.815,152.67 60.466,152.537 61.215,152.348 C61.964,152.159 62.818,151.984 63.742,151.704 C64.666,151.424 65.702,151.165 66.78,150.801 C67.858,150.437 69.006,150.038 70.21,149.604 C75.4139373,147.623263 80.3517292,145.003882 84.91,141.806 C85.946,141.057 86.94,140.357 87.822,139.636 L90.272,137.634 C90.972,137.032 91.672,136.402 92.218,135.891 C92.764,135.38 93.268,134.911 93.618,134.533 L94.5,133.7 C94.724,133.511 94.836,133.413 94.85,133.427 Z" id="Path" fill="#2E353A"></path>
                        <g id="Group" opacity="0.3" transform="translate(127.400000, 109.900000)" fill="#000000">
                            <path d="M0.119,12.243 C0.119,13.104 0.294,13.412 0.819,13.587 C1.27742289,13.6318522 1.73321655,13.4790722 2.072,13.167 C3.13638861,12.043056 3.76443363,10.5759627 3.843,9.03 C4.20333256,5.94166816 3.59419934,2.8177199 2.1,0.091 C2.5689075,1.84757882 2.5689075,3.69642118 2.1,5.453 L0.119,12.243 Z" id="Path"></path>
                        </g>
                        <g id="Group" opacity="0.3" transform="translate(15.400000, 114.100000)" fill="#000000">
                            <path d="M5.6,14.476 C4.837,12.376 2.863,10.976 1.841,8.967 C0.63,6.615 1.568,2.667 3.241,0.665 C0.847,2.184 0.441,5.663 0.35,8.267 C0.243932793,10.9080792 1.1163411,13.495393 2.8,15.533 C3.13606753,15.9610293 3.57408819,16.2979683 4.074,16.513 C4.59031681,16.7048005 5.17111902,16.5760377 5.558,16.184 C5.86385379,15.6595066 5.87970496,15.0148924 5.6,14.476 Z" id="Path"></path>
                        </g>
                        <path d="M32.536,88.788 C31.513181,87.6536331 30.5772033,86.443882 29.736,85.169 C28.7980076,83.9604186 27.959909,82.6775191 27.23,81.333 C28.252819,82.4673669 29.1887967,83.677118 30.03,84.952 C30.9679924,86.1605814 31.806091,87.4434809 32.536,88.788 L32.536,88.788 Z" id="Path" fill="#FFFFFF"></path>
                        <path d="M27.454,103.656 C26.4948051,104.465692 25.4612061,105.182883 24.367,105.798 C23.3364111,106.515085 22.2365882,107.12714 21.084,107.625 C22.0444031,106.813624 23.0804901,106.096333 24.178,105.483 C25.2102847,104.772605 26.3071181,104.16091 27.454,103.656 L27.454,103.656 Z" id="Path" fill="#FFFFFF"></path>
                        <path d="M41.902,108.885 C40.793624,108.063652 39.7584266,107.1479 38.808,106.148 C37.7763726,105.235354 36.8255052,104.235303 35.966,103.159 C37.0747352,103.979758 38.1057333,104.900626 39.046,105.91 C40.0819698,106.817494 41.0375289,107.812868 41.902,108.885 Z" id="Path" fill="#FFFFFF"></path>
                        <path d="M20.146,126 C20.273305,124.413486 20.6415281,122.85562 21.238,121.38 C21.2370333,122.178494 21.1118705,122.971979 20.867,123.732 C20.7473397,124.52119 20.50402,125.286584 20.146,126 L20.146,126 Z" id="Path" fill="#FFFFFF"></path>
                        <path d="M18.389,138.551 C18.305,138.621 16.884,136.948 14.938,135.051 C12.992,133.154 11.284,131.803 11.347,131.712 C11.7851147,131.921626 12.1925465,132.190107 12.558,132.51 C14.4043715,133.924877 16.0814463,135.547929 17.556,137.347 C17.8859313,137.709537 18.1660649,138.114436 18.389,138.551 L18.389,138.551 Z" id="Path" fill="#FFFFFF"></path>
                        <path d="M27.146,135.667 C26.5297036,137.101478 25.8091069,138.48886 24.99,139.818 C24.2665917,141.204581 23.438175,142.533792 22.512,143.794 C23.1226689,142.356863 23.8434814,140.969065 24.668,139.643 C25.3888259,138.254946 26.2173644,136.925539 27.146,135.667 L27.146,135.667 Z" id="Path" fill="#FFFFFF"></path>
                        <path d="M35.546,135.912 C35.469,135.982 34.405,134.82 32.949,133.553 C31.493,132.286 30.212,131.383 30.268,131.292 C31.3496843,131.782747 32.339325,132.455134 33.194,133.28 C34.1254078,134.013547 34.9213919,134.904291 35.546,135.912 L35.546,135.912 Z" id="Path" fill="#FFFFFF"></path>
                        <path d="M39.9,70.973 C39.2133128,72.2054504 38.421719,73.3764471 37.534,74.473 C36.744663,75.6495387 35.8571622,76.7571585 34.881,77.784 C35.5677371,76.5532108 36.3568562,75.382411 37.24,74.284 C38.031755,73.1073293 38.9215917,71.9997167 39.9,70.973 L39.9,70.973 Z" id="Path" fill="#FFFFFF"></path>
                        <path d="M50.512,70.574 C49.3844871,69.4898658 48.3430124,68.3196696 47.397,67.074 C46.3686236,65.8996304 45.4325053,64.6475722 44.597,63.329 C45.722695,64.4148819 46.7640407,65.5849333 47.712,66.829 C48.7381934,68.0051354 49.6741834,69.2570221 50.512,70.574 Z" id="Path" fill="#FFFFFF"></path>
                        <path d="M51.912,93.31 C50.960282,92.1824069 50.1601603,90.9351584 49.532,89.6 C48.7958704,88.3230471 48.222097,86.9591597 47.824,85.54 C47.922,85.54 48.727,87.297 49.854,89.432 C50.981,91.567 51.996,93.268 51.912,93.31 Z" id="Path" fill="#FFFFFF"></path>
                        <path d="M65.688,85.967 C64.0943819,85.5893576 62.5331693,85.0861182 61.019,84.462 C59.4601671,83.9581852 57.9395794,83.342932 56.469,82.621 C58.0609782,83.0015352 59.6217909,83.5023057 61.138,84.119 C62.696981,84.6251993 64.2175648,85.2427903 65.688,85.967 L65.688,85.967 Z" id="Path" fill="#FFFFFF"></path>
                        <path d="M68.117,68.18 C68.166,68.271 66.983,69.02 65.639,70.091 C64.295,71.162 63.294,72.149 63.217,72.072 C64.4886055,70.3750155 66.1762535,69.0345408 68.117,68.18 L68.117,68.18 Z" id="Path" fill="#FFFFFF"></path>
                        <path d="M60.34,110.187 C59.8995248,108.460886 59.5767823,106.70685 59.374,104.937 C59.0522009,103.183998 58.8487412,101.411326 58.765,99.631 C59.2077709,101.356964 59.5328517,103.110997 59.738,104.881 C60.0609426,106.633645 60.2620907,108.406555 60.34,110.187 Z" id="Path" fill="#FFFFFF"></path>
                        <path d="M58.002,121.149 C56.443186,120.433985 54.9388292,119.60577 53.501,118.671 C52.0016391,117.840566 50.5630334,116.904888 49.196,115.871 C50.7517918,116.587557 52.2537112,117.415718 53.69,118.349 C55.1906321,119.181032 56.6314558,120.116632 58.002,121.149 L58.002,121.149 Z" id="Path" fill="#FFFFFF"></path>
                        <path d="M48.3,135.709 C47.7183765,134.530938 47.2496174,133.300445 46.9,132.034 C46.4330591,130.804097 46.0792605,129.53417 45.843,128.24 C46.4246235,129.418062 46.8933826,130.648555 47.243,131.915 C47.7099409,133.144903 48.0637395,134.41483 48.3,135.709 Z" id="Path" fill="#FFFFFF"></path>
                        <path d="M53.368,150.213 C51.8984088,149.626359 50.4776266,148.92416 49.119,148.113 C47.7054109,147.415105 46.3459579,146.612536 45.052,145.712 C46.5193256,146.298683 47.9377782,147.000887 49.294,147.812 C50.7112756,148.507207 52.0732544,149.309885 53.368,150.213 Z" id="Path" fill="#FFFFFF"></path>
                        <path d="M67.998,132.349 C67.3972278,134.389595 66.6820972,136.394765 65.856,138.355 C65.1396561,140.358186 64.3099836,142.319018 63.371,144.228 C63.9729006,142.187772 64.6880088,140.182664 65.513,138.222 C66.2293439,136.218814 67.0590164,134.257982 67.998,132.349 Z" id="Path" fill="#FFFFFF"></path>
                        <path d="M78.883,124.04 C78.799,124.124 77.007,122.297 74.382,120.603 C71.757,118.909 69.384,117.978 69.426,117.873 C69.9774134,117.973609 70.5121863,118.150296 71.015,118.398 C73.5064454,119.449101 75.7894911,120.937941 77.756,122.794 C78.1869926,123.155723 78.5662096,123.574982 78.883,124.04 Z" id="Path" fill="#FFFFFF"></path>
                        <path d="M88.802,106.89 C87.9467179,108.06946 86.9962025,109.176834 85.96,110.201 C85.0108748,111.305327 83.9712691,112.328542 82.852,113.26 C83.7054967,112.079132 84.6561346,110.971615 85.694,109.949 C86.6413281,108.842995 87.6810813,107.819634 88.802,106.89 Z" id="Path" fill="#FFFFFF"></path>
                        <path d="M78.883,104.678 C78.771,104.678 78.449,102.851 77.588,100.73 C76.727,98.609 75.712,97.041 75.803,96.978 C76.7269652,98.037043 77.4397789,99.2630826 77.903,100.59 C78.4923666,101.875983 78.825248,103.264575 78.883,104.678 L78.883,104.678 Z" id="Path" fill="#FFFFFF"></path>
                        <path d="M83.3,80.5 C83.377,80.57 81.984,82.271 80.437,84.497 C78.89,86.723 77.763,88.613 77.672,88.557 C77.8139488,88.0935581 78.0213776,87.6527719 78.288,87.248 C79.4210421,85.2115569 80.7578958,83.2953999 82.278,81.529 C82.5657398,81.1372051 82.9101783,80.7904074 83.3,80.5 L83.3,80.5 Z" id="Path" fill="#FFFFFF"></path>
                        <path d="M80.269,74.067 C79.5235257,72.9420597 78.8815653,71.7518558 78.351,70.511 C77.7123144,69.3248362 77.1828014,68.0830578 76.769,66.801 C77.5095799,67.9276825 78.1490708,69.1176509 78.68,70.357 C79.3168926,71.5449387 79.8485881,72.7863423 80.269,74.067 L80.269,74.067 Z" id="Path" fill="#FFFFFF"></path>
                        <path d="M101.171,116.858 C100.182367,117.930796 99.1077976,118.921085 97.958,119.819 C96.8857986,120.811889 95.7287126,121.708982 94.5,122.5 C95.4922384,121.430816 96.5665083,120.440803 97.713,119.539 C98.7887931,118.550355 99.945503,117.653554 101.171,116.858 L101.171,116.858 Z" id="Path" fill="#FFFFFF"></path>
                        <path d="M97.363,98.518 C95.9549513,98.2588348 94.572813,97.8746472 93.233,97.37 C91.8566699,96.9860016 90.5149681,96.4872538 89.222,95.879 C90.6262401,96.1447468 92.0054888,96.5287821 93.345,97.027 C94.7236046,97.4109716 96.067634,97.9097142 97.363,98.518 L97.363,98.518 Z" id="Path" fill="#FFFFFF"></path>
                        <path d="M99.946,87.5 C100.555075,86.0251713 101.273404,84.5978715 102.095,83.23 C102.815239,81.8052028 103.641217,80.4363714 104.566,79.135 C103.959772,80.6111291 103.241336,82.0386402 102.417,83.405 C101.702024,84.8327032 100.875807,86.2019296 99.946,87.5 L99.946,87.5 Z" id="Path" fill="#FFFFFF"></path>
                        <path d="M109.263,68.04 C107.246587,67.8093043 105.245709,67.4586832 103.271,66.99 C101.270669,66.6427205 99.2930839,66.1752064 97.349,65.59 C99.3657707,65.8148914 101.366857,66.1632114 103.341,66.633 C105.341468,66.9826287 107.319052,67.4524802 109.263,68.04 Z" id="Path" fill="#FFFFFF"></path>
                        <path d="M113.638,77.399 C114.107228,75.9779096 114.69496,74.5987309 115.395,73.276 C115.981693,71.8983207 116.684212,70.5729008 117.495,69.314 C117.019051,70.73136 116.429123,72.1078572 115.731,73.43 C115.142487,74.8077444 114.442497,76.1351519 113.638,77.399 Z" id="Path" fill="#FFFFFF"></path>
                        <path d="M123.249,93.751 C121.811142,92.6375406 120.447881,91.4309495 119.168,90.139 C117.809062,88.9328882 116.532219,87.6373368 115.346,86.261 C116.783077,87.3727431 118.14412,88.5794409 119.42,89.873 C120.782911,91.0772216 122.062205,92.3728876 123.249,93.751 Z" id="Path" fill="#FFFFFF"></path>
                        <path d="M121.548,108.185 C122.283385,107.013126 123.119552,105.907606 124.047,104.881 C124.886944,103.775315 125.824003,102.746893 126.847,101.808 C126.109299,102.978274 125.273278,104.083601 124.348,105.112 C123.508056,106.217685 122.570997,107.246107 121.548,108.185 Z" id="Path" fill="#FFFFFF"></path>
                        <path d="M108.185,138.81 C108.823223,137.013573 109.576104,135.259967 110.439,133.56 C111.19448,131.809876 112.057115,130.107983 113.022,128.464 C112.383777,130.260427 111.630896,132.014033 110.768,133.714 C110.01252,135.464124 109.149885,137.166017 108.185,138.81 Z" id="Path" fill="#FFFFFF"></path>
                        <path d="M102.816,148.036 C101.564869,146.573927 100.412009,145.030546 99.365,143.416 C98.2183417,141.868718 97.1664171,140.253429 96.215,138.579 C97.4585274,140.049584 98.6110094,141.594798 99.666,143.206 C100.812645,144.750862 101.864575,146.363821 102.816,148.036 Z" id="Path" fill="#FFFFFF"></path>
                        <path d="M89.194,154.378 C88.7017429,155.738137 88.0952447,157.054167 87.381,158.312 C86.7728979,159.625519 86.058873,160.887353 85.246,162.085 C85.7368564,160.722042 86.3434008,159.403569 87.059,158.144 C87.6686888,156.833529 88.3826511,155.574147 89.194,154.378 Z" id="Path" fill="#FFFFFF"></path>
                        <path d="M77.091,163.877 C74.9863908,161.463717 73.0742,158.889164 71.372,156.177 C72.4612607,157.351921 73.4648362,158.603466 74.375,159.922 C75.3806194,161.168582 76.288643,162.490833 77.091,163.877 Z" id="Path" fill="#FFFFFF"></path>
                        <path d="M51.583,162.547 C50.6720308,161.597879 49.8474374,160.569479 49.119,159.474 C48.2934916,158.445761 47.5669327,157.34186 46.949,156.177 C47.8600484,157.128563 48.6846323,158.159293 49.413,159.257 C50.2360952,160.284509 50.9625147,161.385855 51.583,162.547 Z" id="Path" fill="#FFFFFF"></path>
                        <path d="M84.189,141.4 C84.084,141.4 84,140 83.622,138.404 C83.244,136.808 82.733,135.513 82.831,135.464 C83.4090739,136.327866 83.8001097,137.303071 83.979,138.327 C84.2652572,139.325004 84.3368286,140.372332 84.189,141.4 L84.189,141.4 Z" id="Path" fill="#FFFFFF"></path>
                        <path d="M82.845,151.095 C82.599992,150.082951 82.599992,149.027049 82.845,148.015 C83.090008,149.027049 83.090008,150.082951 82.845,151.095 Z" id="Path" fill="#FFFFFF"></path>
                        <path d="M130.578,133.273 C130.522,133.364 129.073,132.573 127.19,131.789 C125.307,131.005 123.732,130.515 123.76,130.389 C126.22788,130.800655 128.563823,131.788754 130.578,133.273 L130.578,133.273 Z" id="Path" fill="#FFFFFF"></path>
                        <path d="M137.396,119 C136.383951,119.245008 135.328049,119.245008 134.316,119 C135.328049,118.754992 136.383951,118.754992 137.396,119 L137.396,119 Z" id="Path" fill="#FFFFFF"></path>
                        <g id="Group" opacity="0.3" transform="translate(85.400000, 65.800000)" fill="#000000">
                            <path d="M3.248,0.322 C0.679,4.522 0.154,9.66 0.812,14.511 C1.47,19.362 3.22,23.982 4.963,28.553 C8.97166667,39.1043333 12.985,49.651 17.003,60.193 C18.165,63.266 19.376,66.402 21.518,68.894 C23.896073,71.4506904 27.3814958,72.6709811 30.835,72.156 C27.965,69.398 23.835,65.527 23.66,65.079 C22.848,62.524 23.485,58.079 23.128,55.44 C22.582,51.366 19.957,47.18 18.193,43.47 C13.993,34.6033333 9.77666667,25.7506667 5.544,16.912 C4.081,13.832 2.59,10.29 3.878,7.112 C4.431,5.761 5.474,4.585 5.698,3.143 C5.922,1.701 4.62,-0.084 3.276,0.49" id="Path"></path>
                        </g>
                        <g id="Group" opacity="0.3" transform="translate(37.800000, 75.600000)" fill="#000000">
                            <path d="M0.105,69.58 C5.201,67.823 7.203,61.845 9.338,56.896 C15.0686667,43.6146667 20.804,30.338 26.544,17.066 C27.734,14.266 28.945,11.466 29.148,8.47 C29.351,5.474 28.35,2.212 25.9,0.469 C18.109,10.318 10.339,20.314 4.83,31.598 C0.952,39.536 1.701,46.424 3.955,54.187 C5.278,58.744 0.105,63.161 0.105,63.805 L0.105,69.58" id="Path"></path>
                        </g>
                        <path d="M56.35,42.84 C54.915,38.192 53.501,33.509 52.892,28.679 C52.283,23.849 52.507,18.837 54.292,14.301 C54.558,13.601 56.819,9.016 57.554,9.1 C58.079,9.156 56.658,13.461 56.917,13.923 C59.381,18.305 59.99,23.541 59.507,28.553 C58.9966349,33.4172027 57.9447863,38.2092185 56.371,42.84" id="Path" fill="#2E353A"></path>
                        <path d="M83.216,70.21 C83.307,66.773 83.384,64.064 83.412,64.064 C83.44,64.064 95.214,63.056 96.166,51.387 C96.628,45.787 96.628,34.062 96.509,23.492 C96.3758393,12.1308896 87.5436139,2.77482184 76.209,1.988 L75.082,1.911 C62.881,1.778 55.958,12.068 56.182,24.269 L55.552,66.969 L74.627,83.258 L83.216,70.21 Z" id="Path" fill="#B68776"></path>
                        <path d="M83.496,64.071 C78.1018821,63.6837566 72.9320713,61.7572246 68.6,58.52 C68.6,58.52 71.722,67.27 83.447,67.025 L83.496,64.071 Z" id="Path" fill="#92615D"></path>
                        <path d="M91.35,32.2 C91.3300783,32.6432916 91.1341344,33.0603194 90.8056158,33.3586143 C90.4770972,33.6569092 90.0431518,33.8118208 89.6,33.789 C88.7240124,33.7851663 88.0148337,33.0759876 88.011,32.2 L88.011,32.2 C88.0672218,31.2969479 88.8285277,30.6006316 89.733,30.625 C90.1562963,30.6193937 90.5644787,30.7821897 90.8677331,31.0775673 C91.1709875,31.372945 91.3444669,31.7767028 91.35,32.2 L91.35,32.2 Z" id="Path" fill="#2E353A"></path>
                        <path d="M93.646,28.21 C93.429,28.413 92.246,27.391 90.433,27.272 C88.62,27.153 87.262,27.972 87.08,27.72 C86.989,27.622 87.227,27.244 87.829,26.866 C88.6430675,26.3816921 89.5863284,26.1593171 90.531,26.229 C91.474745,26.2854831 92.3753555,26.6437642 93.1,27.251 C93.646,27.678 93.8,28.084 93.646,28.21 Z" id="Path" fill="#2E353A"></path>
                        <path d="M74.599,31.864 C74.5499728,32.7704746 73.784241,33.4708391 72.877,33.439 C71.9932334,33.4429176 71.2715188,32.7337002 71.26,31.85 L71.26,31.85 C71.3162787,30.9480226 72.0787093,30.2537768 72.982,30.282 C73.4052963,30.2763937 73.8134787,30.4391897 74.1167331,30.7345673 C74.4199875,31.029945 74.5934669,31.4337028 74.599,31.857 L74.599,31.864 Z" id="Path" fill="#2E353A"></path>
                        <path d="M76.048,27.685 C75.824,27.888 74.648,26.866 72.828,26.747 C71.008,26.628 69.657,27.447 69.482,27.202 C69.391,27.097 69.629,26.719 70.231,26.341 C71.0444675,25.8556957 71.9887796,25.6355193 72.933,25.711 C73.8652292,25.7756041 74.7538169,26.1305496 75.474,26.726 C75.992,27.188 76.146,27.594 76.048,27.685 Z" id="Path" fill="#2E353A"></path>
                        <path d="M81.529,41.916 C81.529,41.818 82.663,41.699 84.483,41.594 C84.945,41.594 85.386,41.517 85.484,41.209 C85.5589789,40.7318393 85.4856773,40.2431623 85.274,39.809 C84.917,38.668 84.574,37.478 84.161,36.225 C82.621,31.129 81.536,26.95 81.746,26.887 C81.956,26.824 83.363,30.912 84.903,35.987 L85.96,39.592 C86.2060081,40.1651643 86.2455911,40.8059145 86.072,41.405 C85.9186663,41.7252055 85.6225975,41.9537498 85.274,42.021 C85.0158791,42.0711984 84.7526352,42.0900015 84.49,42.077 C82.663,42.091 81.529,42 81.529,41.916 Z" id="Path" fill="#2E353A"></path>
                        <path d="M80.171,49.084 C79.884,49.126 79.702,47.187 77.91,45.955 C76.118,44.723 74.067,45.129 74.032,44.863 C73.99,44.744 74.459,44.443 75.327,44.338 C76.4659439,44.2202362 77.6101659,44.5050533 78.561,45.143 C79.4817574,45.7644818 80.1225107,46.7218427 80.346,47.81 C80.5,48.58 80.304,49.084 80.171,49.084 Z" id="Path" fill="#2E353A"></path>
                        <path d="M68.201,23.261 C68.201,22.743 69.965,22.337 71.855,21.371 C73.745,20.405 75.152,19.271 75.565,19.579 C75.754,19.733 75.635,20.279 75.152,20.979 C73.815212,22.7238059 71.7499175,23.7564532 69.552,23.779 C68.712,23.73 68.208,23.506 68.201,23.261 Z" id="Path" fill="#2E353A"></path>
                        <path d="M86.513,19.81 C86.989,19.502 88.368,20.272 90.139,20.713 C91.91,21.154 93.492,21.231 93.737,21.728 C93.842,21.966 93.506,22.309 92.757,22.526 C90.6850591,23.0032492 88.5108484,22.4328786 86.94,21 C86.408,20.405 86.303,19.943 86.513,19.81 Z" id="Path" fill="#2E353A"></path>
                        <path d="M56.546,32.984 C56.357,32.886 48.685,30.058 48.391,38.059 C48.097,46.06 56.189,44.709 56.21,44.478 C56.231,44.247 56.546,32.984 56.546,32.984 Z" id="Path" fill="#B68776"></path>
                        <path d="M53.844,41.356 C53.7227461,41.4343953 53.5937302,41.5000761 53.459,41.552 C53.1243107,41.6863399 52.7506893,41.6863399 52.416,41.552 C51.583,41.209 50.925,39.844 50.939,38.402 C50.9439116,37.7155437 51.1017367,37.038809 51.401,36.421 C51.5715042,35.9139125 51.983741,35.5253071 52.5,35.385 C52.8332032,35.3074593 53.1736397,35.482118 53.305,35.798 C53.403,36.029 53.347,36.183 53.389,36.204 C53.431,36.225 53.564,36.071 53.515,35.742 C53.4779749,35.5431847 53.3742696,35.3629349 53.221,35.231 C53.0073702,35.0502712 52.7293506,34.9643379 52.451,34.993 C51.7794044,35.1037616 51.2128036,35.553865 50.953,36.183 C50.5851865,36.862571 50.3904489,37.622288 50.386,38.395 C50.386,40.012 51.149,41.545 52.29,41.895 C52.7195028,42.0365132 53.1898737,41.9773956 53.571,41.734 C53.823,41.552 53.9,41.377 53.844,41.356 Z" id="Path" fill="#92615D"></path>
                        <path d="M91.7,10.094 C93.016,9.394 89.25,5.11 86.1,3.577 C81.354,1.26 74.039,-0.294 69.573,0.84 C64.19,2.205 59.675,4.732 56.854,9.52 C54.033,14.308 52.871,19.943 52.871,25.494 C52.871,27.188 52.997,28.994 53.858,30.394 C54.929,32.193 57.043,33.369 56.875,35.805 C56.7949117,36.6969111 57.068989,37.584519 57.638,38.276 C59.038,39.872 60.893,38.458 61.761,37.016 C63.609,33.929 63.91,30.198 64.162,26.607 C64.344,24.059 64.526,21.455 63.875,18.984 C63.518,17.633 62.923,16.359 62.643,14.994 C62.2846942,13.630029 62.5404058,12.1775872 63.343,11.018 C63.5539059,10.7801658 63.7884451,10.5643897 64.043,10.374 C66.3729679,8.4594493 69.5536262,7.94851092 72.366,9.037 C76.832,10.752 84.462,13.356 86.513,11.879 C89.467,9.779 90.202,8.379 90.202,8.379 L91.7,10.094 Z" id="Path" fill="#2E353A"></path>
                        <path d="M81.746,1.645 C82.2591894,1.94974161 82.7161767,2.34043017 83.097,2.8 C84.1242479,3.84716442 84.9584023,5.06758919 85.561,6.405 C86.1696808,7.77111201 86.3384742,9.29269876 86.044,10.759 C85.9673382,11.3756096 85.6921569,11.950542 85.26,12.397 C85.176,12.355 85.512,11.753 85.659,10.689 C85.8197969,9.30332234 85.6096308,7.89979951 85.05,6.622 C84.458467,5.34419084 83.7031214,4.14881531 82.803,3.066 C82.103,2.233 81.669,1.701 81.746,1.645 Z" id="Path" fill="#4D5A64"></path>
                        <path d="M87.178,5.635 C87.241,5.635 87.479,5.992 87.64,6.692 C88.0393367,8.55591815 87.5418442,10.4992482 86.296,11.942 C85.813,12.481 85.421,12.698 85.379,12.642 C86.1374048,11.6538015 86.7004565,10.530074 87.038,9.331 C87.5,7.329 87.017,5.677 87.178,5.635 Z" id="Path" fill="#4D5A64"></path>
                        <path d="M76.23,34.23 C75.9294711,34.4891295 75.5793739,34.6844218 75.201,34.804 C73.3948394,35.4965235 71.3929503,35.4765046 69.601,34.748 C69.2218055,34.6294705 68.8746597,34.4259712 68.586,34.153 C69.8081275,34.6073774 71.0920155,34.8740674 72.394,34.944 C73.7004801,34.8928754 74.9926199,34.6523676 76.23,34.23 Z" id="Path" fill="#92615D"></path>
                        <path d="M73.948,36.4 C73.7310086,36.5877105 73.4674283,36.7134552 73.185,36.764 C72.5154973,36.9525426 71.8122153,36.9884244 71.127,36.869 C70.4431433,36.7570047 69.7913923,36.4991691 69.216,36.113 C68.782,35.812 68.579,35.553 68.607,35.518 C70.1929501,36.527033 72.121841,36.8455654 73.948,36.4 L73.948,36.4 Z" id="Path" fill="#92615D"></path>
                        <path d="M94.682,33.187 C94.4825804,33.5626647 94.2114712,33.8956058 93.884,34.167 C92.2662177,35.5642565 89.9628023,35.8411093 88.06,34.867 C87.6633617,34.7046579 87.315926,34.4416684 87.052,34.104 C87.052,34.055 87.472,34.342 88.172,34.636 C90.0146743,35.4099453 92.1301519,35.1431763 93.723,33.936 C94.346,33.523 94.633,33.145 94.682,33.187 Z" id="Path" fill="#92615D"></path>
                        <path d="M92.295,90.3 C92.547,90.678 106.099,124.467 112.805,130.025 C119.14,124.187 130.158,114.744 119.896,105.35 L100.73,77.7 L92.295,90.3 Z" id="Path" fill="#B68776"></path>
                        <path d="M92.358,90.594 C92.659,90.951 89.628,83.594 88.858,80.507 C88.403,78.68 86.709,75.159 87.724,72.632 C88.4600464,70.8554776 89.3039521,69.1255879 90.251,67.452 L86.051,63.917 C86.051,63.917 77.203,61.894 76.573,60.417 C75.943,58.94 76.573,58.142 76.573,58.142 L83.902,59.15 C83.902,59.15 73.668,53.214 76.825,49.294 C76.825,49.294 81.725,53.109 85.302,53.816 L90.846,56.84 C90.846,56.84 91.854,56.378 91.602,53.074 C91.35,49.77 90.846,48.755 90.846,48.755 C90.846,48.755 85.946,42.315 86.8,39.403 L87.815,37.387 L93.625,43.827 L95.144,46.858 C95.144,46.858 94.507,37.002 98.175,36.498 L99.435,47.873 L98.175,55.895 C98.7275195,57.5223758 99.1488655,59.1913741 99.435,60.886 C99.687,62.909 100.702,77.434 100.702,77.434 L103.096,80.934" id="Path" fill="#B68776"></path>
                        <path d="M103.11,80.899 C103.048029,80.8314934 102.991831,80.7589054 102.942,80.682 L102.473,80.031 C102.06,79.436 101.451,78.582 100.667,77.469 L100.667,77.469 C100.492,75.306 100.254,72.359 99.967,68.712 C99.827,66.892 99.666,64.89 99.498,62.734 C99.3692941,60.4207639 98.8974721,58.1395047 98.098,55.965 L98.098,55.902 C98.49,53.403 98.91,50.708 99.351,47.88 L99.351,47.88 C98.952,44.38 98.518,40.53 98.07,36.512 L98.252,36.652 C97.3856619,36.8626627 96.6848712,37.4975896 96.39,38.339 C96.0143018,39.1960217 95.7575894,40.1004032 95.627,41.027 C95.3483938,42.9526526 95.261635,44.9012067 95.368,46.844 L95.41,47.656 L95.046,46.956 C94.57,46.018 94.052,44.975 93.527,43.925 L93.527,43.967 L87.717,37.527 L88.011,37.485 C87.689,38.115 87.346,38.808 86.996,39.508 L86.996,39.508 C86.8346946,40.3044234 86.9051455,41.1303991 87.199,41.888 C87.460235,42.6998122 87.7928683,43.4868881 88.193,44.24 C89.0064482,45.7961037 89.9427521,47.2848269 90.993,48.692 L90.993,48.692 C91.3330133,49.6667715 91.5493699,50.6803555 91.637,51.709 C91.7559064,52.6046503 91.8120432,53.5075186 91.805,54.411 C91.7978684,54.868382 91.7415442,55.323669 91.637,55.769 C91.5844573,56.0097056 91.5070415,56.244299 91.406,56.469 C91.2996457,56.7101634 91.1273731,56.9164052 90.909,57.064 L90.832,57.106 L90.741,57.057 L85.246,53.942 L85.295,53.942 C83.6935524,53.5393504 82.1619936,52.8974645 80.752,52.038 C79.3602444,51.2404231 78.0226685,50.3518237 76.748,49.378 L77,49.378 C76.6518833,49.7962318 76.4524542,50.3181943 76.433,50.862 C76.4410477,51.4092992 76.5726582,51.947706 76.818,52.437 C77.3362391,53.4181395 78.0153202,54.3054405 78.827,55.062 C80.4083954,56.5563054 82.1503351,57.8709768 84.021,58.982 L84.721,59.395 L83.923,59.29 L76.594,58.268 L76.741,58.212 C76.4870425,58.6607754 76.4215837,59.1919984 76.559,59.689 C76.6114889,59.9325039 76.6962368,60.1679148 76.811,60.389 C76.9675944,60.5864498 77.1599401,60.7526745 77.378,60.879 C78.3018275,61.3912547 79.2751183,61.8087143 80.283,62.125 C82.1924202,62.7730051 84.1340007,63.3220682 86.1,63.77 L86.1,63.77 L90.258,67.312 L90.342,67.382 L90.286,67.48 C89.3979173,69.049667 88.5963859,70.6667507 87.885,72.324 C87.185,73.878 87.472,75.558 87.829,76.993 C88.186,78.428 88.739,79.758 89.033,81.018 C89.3352663,82.1556584 89.7021959,83.2751442 90.132,84.371 C90.832,86.359 91.42,87.906 91.812,88.97 C92.001,89.495 92.148,89.894 92.232,90.167 C92.2696866,90.2673494 92.3000986,90.3702822 92.323,90.475 C92.3298865,90.5049425 92.3298865,90.5360575 92.323,90.566 L92.323,90.566 C92.1770484,90.0310232 91.9874111,89.5089354 91.756,89.005 C91.35,87.962 90.748,86.429 90.013,84.434 C89.649,83.44 89.25,82.334 88.879,81.081 C88.508,79.828 88.039,78.526 87.647,77.056 C87.4304525,76.2980181 87.2966718,75.5188039 87.248,74.732 C87.1935454,73.8802845 87.3448015,73.0279686 87.689,72.247 C88.3920962,70.5689832 89.1914245,68.9329312 90.083,67.347 L90.083,67.508 L85.883,64.008 L85.946,64.008 C84.035,63.56 82.075,63.049 80.066,62.384 C79.0336604,62.0614153 78.0368523,61.6345468 77.091,61.11 C76.8331875,60.9648479 76.6089563,60.7668566 76.433,60.529 C76.2916404,60.2703968 76.1901619,59.991921 76.132,59.703 C75.9690414,59.1131236 76.0577402,58.4820947 76.377,57.96 L76.419,57.89 L76.517,57.89 L83.846,58.898 L83.741,59.206 C81.8444758,58.0851683 80.0788928,56.7562854 78.477,55.244 C77.6279273,54.4617326 76.9178366,53.5409816 76.377,52.521 C76.1019265,51.9861067 75.957968,51.3934777 75.957,50.792 C75.9763981,50.1691336 76.203027,49.5705377 76.601,49.091 L76.706,48.965 L76.846,49.063 C78.1083421,50.0251136 79.4317897,50.9042943 80.808,51.695 C82.1871477,52.5300138 83.682855,53.1551912 85.246,53.55 L85.246,53.55 L90.79,56.602 L90.629,56.602 C90.7702121,56.4915702 90.8810186,56.34704 90.951,56.182 C91.0416241,55.9939893 91.1120191,55.7968833 91.161,55.594 C91.2544509,55.1707564 91.3060327,54.7393449 91.315,54.306 C91.3220407,53.4211259 91.265898,52.536878 91.147,51.66 C91.0592623,50.6762283 90.8572343,49.7060242 90.545,48.769 L90.545,48.769 C89.4746073,47.346113 88.5217954,45.8384695 87.696,44.261 C87.2882609,43.4884837 86.9463833,42.6829638 86.674,41.853 C86.3613615,41.0239552 86.2933329,40.1225773 86.478,39.256 L86.478,39.256 L87.493,37.233 L87.612,37.002 L87.787,37.198 L93.59,43.638 L93.59,43.638 L95.102,46.669 L94.78,46.76 C94.6678691,44.7911739 94.7593543,42.8160312 95.053,40.866 C95.1929308,39.9020586 95.4588722,38.9606733 95.844,38.066 C96.0416664,37.6182874 96.3191914,37.210302 96.663,36.862 C97.0066457,36.4898086 97.4650038,36.2433795 97.965,36.162 L98.126,36.162 L98.126,36.4 C98.567,40.418 98.987,44.247 99.372,47.768 L99.372,47.81 C98.917,50.61 98.49,53.333 98.091,55.832 L98.091,55.769 C98.483,56.952 98.791,58.114 99.071,59.269 C99.2040712,59.8293768 99.3022596,60.3974673 99.365,60.97 C99.407,61.53 99.442,62.083 99.484,62.622 C99.645,64.785 99.792,66.822 99.925,68.614 C100.184,72.261 100.401,75.215 100.555,77.378 L100.555,77.378 L102.319,79.968 L102.767,80.668 C102.887169,80.7359583 103.001851,80.8131929 103.11,80.899 L103.11,80.899 Z" id="Path" fill="#92615D"></path>
                        <path d="M94.346,70.952 C93.4595623,70.6726149 92.6383056,70.2179482 91.931,69.615 C91.1402072,69.0987173 90.53838,68.339678 90.216,67.452 C90.8220823,68.1176392 91.4697118,68.7442266 92.155,69.328 C92.9215726,69.8186492 93.6536208,70.3612536 94.346,70.952 L94.346,70.952 Z" id="Path" fill="#92615D"></path>
                        <path d="M91.259,79.863 C91.062689,79.3869472 90.9376767,78.8845393 90.888,78.372 C90.4956605,75.90963 90.7762221,73.3869945 91.7,71.071 C91.8577016,70.5702002 92.0939811,70.0976412 92.4,69.671 C92.526,69.713 91.511,71.848 91.196,74.683 C90.881,77.518 91.392,79.849 91.259,79.863 Z" id="Path" fill="#92615D"></path>
                        <path d="M95.823,63.651 C95.2424847,63.4080116 94.6829327,63.1177001 94.15,62.783 C92.8252219,62.061706 91.4603331,61.4166559 90.062,60.851 C88.6653935,60.2797164 87.222903,59.8277673 85.75,59.5 C85.127,59.395 84.518,59.262 83.909,59.101 C84.5424422,59.06018 85.1784857,59.1072944 85.799,59.241 C87.3050357,59.4997759 88.7788529,59.9198608 90.195,60.494 C91.6105483,61.061779 92.9757149,61.7478748 94.276,62.545 C94.8300202,62.8568349 95.348701,63.2276564 95.823,63.651 L95.823,63.651 Z" id="Path" fill="#92615D"></path>
                        <path d="M98.063,59.983 C97.659588,59.974509 97.260162,59.9012415 96.88,59.766 C95.9429359,59.5213159 95.023775,59.2125901 94.129,58.842 C92.843553,58.3622904 91.6571894,57.6504723 90.629,56.742 C90.692,56.644 92.218,57.666 94.269,58.534 C96.32,59.402 98.098,59.864 98.063,59.983 Z" id="Path" fill="#92615D"></path>
                        <path d="M98.189,55.895 C97.8810687,55.5236113 97.6438155,55.0989282 97.489,54.642 C97.0471024,53.5764272 96.6638625,52.487465 96.341,51.38 C95.956,50.092 95.641,48.916 95.41,48.062 C95.249598,47.6082939 95.1369879,47.1390854 95.074,46.662 C95.3393949,47.0628333 95.5357784,47.5052877 95.655,47.971 C95.949,48.804 96.306,49.973 96.691,51.261 C97.076,52.549 97.433,53.711 97.734,54.537 C97.9138513,54.9797302 98.0658151,55.4332836 98.189,55.895 L98.189,55.895 Z" id="Path" fill="#92615D"></path>
                        <path d="M60.2,87.836 C62.584134,86.6048241 64.2116275,84.2813286 64.554,81.62 C65.072,77.168 65.485,71.778 65.485,71.778 C66.0148562,70.8851687 66.4668586,69.9483761 66.836,68.978 C67.039,68.145 78.491,61.726 78.491,61.726 C78.491,61.726 78.897,59.983 75.537,60.172 C72.177,60.361 65.898,63.385 65.898,63.385 L67.767,57.785 C69.7335984,55.8700041 71.4761197,53.7376465 72.961,51.429 C73.7997403,49.9674752 73.4526136,48.1131657 72.142,47.054 L71.834,46.809 C71.834,46.809 71.834,44.835 70.77,44.422 C70.77,44.422 61.964,49.399 61.67,50.022 C61.376,50.645 65.814,43.288 60.214,41.734 L56.903,50.645 L55.573,53.851 L55.573,53.851 C55.573,53.851 55.013,59.528 54.803,61.39 C54.593,63.252 53.69,76.79 52.444,78.722" id="Path" fill="#B68776"></path>
                        <path d="M52.395,78.722 L52.563,78.302 C52.7082862,77.8910448 52.8229332,77.4698927 52.906,77.042 C53.151,75.915 53.403,74.242 53.648,72.065 C53.893,69.888 54.145,67.256 54.397,64.19 C54.649,61.124 55.02,57.652 55.384,53.837 L55.384,53.795 L56.532,50.995 C56.924,50.036 57.232,49.035 57.652,48.02 L60.004,41.664 L60.06,41.524 L60.207,41.566 C61.0191412,41.7619498 61.751919,42.2016165 62.307,42.826 C62.8514196,43.5050771 63.1477552,44.3496335 63.147,45.22 C63.1536565,46.0802658 63.0212844,46.9359571 62.755,47.754 C62.6284148,48.1780678 62.4764746,48.5941502 62.3,49 C62.216,49.203 62.125,49.399 62.027,49.595 L61.88,49.889 L61.796,50.036 L61.754,50.113 L61.754,50.113 L61.754,50.155 L61.754,50.155 C61.53,50.295 61.369,49.777 61.46,49.98 L61.46,49.98 C61.6078787,49.7789951 61.7903995,49.6059559 61.999,49.469 L62.545,49.098 C62.909,48.853 63.245,48.615 63.658,48.398 L65.94,46.998 C67.48,46.0646667 69.0526667,45.1546667 70.658,44.268 L70.735,44.219 L70.819,44.219 C71.2685584,44.4467785 71.6014229,44.8533306 71.736,45.339 C71.8920317,45.7900431 71.9793415,46.2619878 71.995,46.739 L71.932,46.599 C72.3818634,46.9238224 72.764574,47.3326809 73.059,47.803 C73.3600141,48.30187 73.5353725,48.8663801 73.57,49.448 C73.5972045,49.9058631 73.5353979,50.3646585 73.388,50.799 C73.2345078,51.2191136 73.0299753,51.6187749 72.779,51.989 C72.311667,52.7146846 71.8069883,53.4156272 71.267,54.089 C70.2099247,55.40962 69.076312,56.667112 67.872,57.855 L67.914,57.778 C67.284,59.6726667 66.661,61.5393333 66.045,63.378 L65.8,63.161 C67.9821889,62.1184604 70.237504,61.2364544 72.548,60.522 C73.6641826,60.1703651 74.8225382,59.9702426 75.992,59.927 C76.573828,59.9034272 77.1545079,59.9962408 77.7,60.2 C77.9819353,60.3195377 78.2245223,60.5160332 78.4,60.767 C78.5871364,61.0307593 78.6602955,61.3587136 78.603,61.677 L78.603,61.74 L78.533,61.782 C75.768,63.336 73.157,64.841 70.749,66.297 C69.552,67.039 68.376,67.746 67.347,68.523 C67.2222509,68.6161003 67.1052056,68.7191002 66.997,68.831 C66.941,68.908 66.941,68.88 66.906,68.992 C66.871,69.104 66.857,69.153 66.829,69.23 C66.7156516,69.5313955 66.5847611,69.825899 66.437,70.112 C66.157,70.686 65.863,71.225 65.562,71.75 L65.562,71.701 C65.289,74.452 65.044,76.937 64.862,79.114 C64.806,79.66 64.757,80.185 64.701,80.689 C64.6660416,81.177563 64.6029369,81.6637034 64.512,82.145 C64.3449907,82.9884788 64.0424023,83.799321 63.616,84.546 C63.016372,85.5669243 62.2076926,86.4495538 61.243,87.136 C60.992394,87.3101266 60.7330561,87.4713367 60.466,87.619 C60.3736057,87.6680908 60.2776719,87.7102081 60.179,87.745 L60.445,87.584 C60.7055287,87.4266381 60.9578568,87.2560829 61.201,87.073 C62.1385687,86.3763804 62.9205499,85.4918834 63.497,84.476 C63.9058271,83.7378347 64.1941254,82.9391067 64.351,82.11 C64.4338545,81.6326275 64.492264,81.1513335 64.526,80.668 C64.568,80.164 64.617,79.639 64.666,79.093 C64.862,76.916 65.086,74.431 65.366,71.68 L65.366,71.68 C65.66,71.162 65.954,70.616 66.227,70.056 C66.36,69.776 66.493,69.489 66.598,69.195 C66.598,69.118 66.654,69.048 66.675,68.971 C66.6960084,68.8730808 66.7445855,68.7832132 66.815,68.712 C66.9332379,68.5868151 67.0620481,68.4720569 67.2,68.369 C68.257,67.557 69.419,66.857 70.616,66.108 C73.024,64.631 75.635,63.126 78.4,61.558 L78.323,61.663 C78.3716515,61.1755747 78.0834056,60.7172637 77.623,60.55 C77.1150669,60.3622922 76.5750866,60.2766565 76.034,60.298 C74.8969682,60.3395243 73.7710655,60.5373817 72.688,60.886 C70.3960229,61.5958339 68.1593287,62.4731983 65.996,63.511 L65.625,63.686 L65.751,63.301 L67.613,57.701 L67.613,57.659 L67.648,57.659 C68.8406723,56.4827542 69.9626364,55.2369065 71.008,53.928 C71.5457088,53.2578123 72.043567,52.5566035 72.499,51.828 C72.7354706,51.4845708 72.9282855,51.1130495 73.073,50.722 C73.1998364,50.3290667 73.2543851,49.9163936 73.234,49.504 C73.2015447,48.9793847 73.0430657,48.4703309 72.772,48.02 C72.4975809,47.5905195 72.1435548,47.2174853 71.729,46.921 L71.666,46.872 L71.666,46.781 C71.6499377,46.3332166 71.5697898,45.8900455 71.428,45.465 C71.3336957,45.0781514 71.0791286,44.7497599 70.728,44.562 L70.889,44.562 C69.286,45.465 67.718,46.368 66.171,47.285 C65.401,47.74 64.638,48.195 63.889,48.685 L62.79,49.385 L62.251,49.749 C62.0984483,49.855045 61.9576508,49.9770694 61.831,50.113 C61.7999093,50.0893417 61.7641029,50.072632 61.726,50.064 L61.656,50.064 L61.586,50.001 C61.516,49.945 61.53,50.001 61.53,50.001 L61.53,50.001 L61.572,49.931 L61.649,49.798 L61.789,49.511 C61.887,49.322 61.971,49.126 62.055,48.937 C62.2226503,48.5482948 62.3698515,48.1510853 62.496,47.747 C62.7536574,46.9657838 62.8813545,46.1475765 62.874,45.325 C62.8765622,44.5323993 62.6100233,43.7623981 62.118,43.141 C61.599029,42.5656391 60.9182567,42.1605917 60.165,41.979 L60.368,41.881 C59.542,44.0743333 58.751,46.1906667 57.995,48.23 C57.603,49.238 57.253,50.246 56.861,51.198 L55.699,53.998 L55.699,53.956 C55.314,57.778 54.901,61.243 54.656,64.302 C54.411,67.361 54.117,70.014 53.837,72.177 C53.6481799,73.8464448 53.374829,75.5052412 53.018,77.147 C52.9248341,77.5792298 52.7960614,78.0030091 52.633,78.414 L52.395,78.722 Z" id="Path" fill="#92615D"></path>
                        <path d="M66.402,63.14 C65.9318771,63.553326 65.384738,63.8697151 64.792,64.071 C64.2495599,64.3793946 63.6532089,64.5813461 63.035,64.666 C63.5051229,64.252674 64.052262,63.9362849 64.645,63.735 C65.1874401,63.4266054 65.7837911,63.2246539 66.402,63.14 L66.402,63.14 Z" id="Path" fill="#92615D"></path>
                        <path d="M71.785,46.676 C71.7238035,46.9054556 71.629478,47.1247623 71.505,47.327 C71.1979196,47.8949067 70.8468468,48.4378992 70.455,48.951 C69.1198693,50.6057092 67.6443924,52.1420788 66.045,53.543 C64.4907733,54.9558468 63.2445018,56.6739381 62.384,58.59 C61.726,60.067 61.481,61.047 61.418,61.026 C61.4245949,60.7876617 61.4670719,60.5516783 61.544,60.326 C61.6980979,59.6980715 61.8993353,59.0826595 62.146,58.485 C62.9525193,56.4919281 64.2020758,54.7085573 65.8,53.27 C67.3829576,51.8760537 68.8725066,50.3794895 70.259,48.79 C71.246,47.544 71.729,46.641 71.785,46.676 Z" id="Path" fill="#92615D"></path>
                        <path d="M61.761,49.868 C61.5507958,50.3716403 61.2703462,50.8429842 60.928,51.268 C60.6060831,51.7310241 60.3115782,52.2125162 60.046,52.71 C59.7373976,53.3363957 59.5024945,53.9964733 59.346,54.677 C58.835,56.077 58.604,57.428 58.338,58.394 C58.2391858,58.923078 58.0522548,59.4318141 57.785,59.899 C57.8542205,59.3708381 57.9547306,58.8472507 58.086,58.331 C58.2981781,57.0576724 58.6023071,55.8013855 58.996,54.572 C59.1562366,53.8678471 59.4080465,53.1877249 59.745,52.549 C60.0243393,52.0366751 60.3475483,51.5495196 60.711,51.093 C61.0263816,50.6562223 61.3775957,50.2464725 61.761,49.868 L61.761,49.868 Z" id="Path" fill="#92615D"></path>
                        <path d="M22.295,114.898 C22.638,114.38 32.193,105.098 34.944,102.046 C37.695,98.994 51.541,81.382 52.395,78.722 C53.249,76.062 61.117,86.31 61.117,86.31 L61.117,86.31 C61.117,86.31 51.562,109.165 47.817,115.675 C44.072,122.185 37.933,134.295 37.933,134.295 C37.933,134.295 27.804,135.149 23.863,126.924 C19.922,118.699 22.295,114.898 22.295,114.898 Z" id="Path" fill="#B68776"></path>
                        <path d="M60.13,233.688 L73.003,265.188 L33.922,281.4 C32.606,277.571 49.714,261.688 49.714,261.688 L40.614,241.857 L60.13,233.688 Z" id="Path" fill="#D61335"></path>
                        <g id="Group" opacity="0.6" transform="translate(59.500000, 254.800000)" fill="#FFFFFF">
                            <path d="M1.589,0.161 C2.46793972,0.0709338693 3.27242915,0.660691163 3.451,1.526 C3.57033266,2.40019706 2.98165174,3.21387121 2.114,3.374 C1.18501807,3.467763 0.336741549,2.84064428 0.154,1.925 C0.105,1.078 0.91,0.063 1.757,0.147" id="Path"></path>
                        </g>
                        <g id="Group" opacity="0.6" transform="translate(33.600000, 261.800000)" fill="#FFFFFF">
                            <path d="M39.403,3.36 L38.003,0.238 L1.064,16.954 C1.064,16.954 -0.336,18.431 0.364,19.579 L39.403,3.36 Z" id="Path"></path>
                        </g>
                        <path d="M49,261.73 C49.091,261.919 50.078,261.611 51.268,261.835 C52.458,262.059 53.298,262.654 53.445,262.5 C53.592,262.346 52.843,261.373 51.394,261.1 C49.945,260.827 48.881,261.576 49,261.73 Z" id="Path" fill="#2E353A"></path>
                        <path d="M45.598,265.125 C45.598,265.328 46.592,265.314 47.579,265.825 C48.566,266.336 49.098,267.141 49.287,267.057 C49.476,266.973 49.147,265.839 47.887,265.195 C46.627,264.551 45.5,264.943 45.598,265.125 Z" id="Path" fill="#2E353A"></path>
                        <path d="M45.304,270.998 C45.5,270.998 45.367,269.906 44.443,269.059 C43.519,268.212 42.455,268.177 42.441,268.359 C42.427,268.541 43.211,268.884 43.96,269.584 C44.709,270.284 45.108,271.061 45.304,270.998 Z" id="Path" fill="#2E353A"></path>
                        <path d="M47.446,256.984 C47.6,257.124 48.37,256.494 49.476,256.123 C50.582,255.752 51.576,255.738 51.576,255.535 C51.576,255.332 50.519,254.982 49.217,255.444 C47.915,255.906 47.271,256.9 47.446,256.984 Z" id="Path" fill="#2E353A"></path>
                        <path d="M46.438,251.958 C46.438,252.042 47.271,251.846 48.391,251.139 C49.0410515,250.714573 49.6400056,250.216619 50.176,249.655 C50.4904917,249.322202 50.7827873,248.969109 51.051,248.598 C51.2186822,248.386219 51.3532171,248.150193 51.45,247.898 C51.5974829,247.512496 51.4578891,247.076265 51.114,246.848 C50.8091183,246.658791 50.432676,246.625041 50.099,246.757 C49.8478678,246.859013 49.612249,246.995672 49.399,247.163 C49.0272284,247.442668 48.6784472,247.751655 48.356,248.087 C47.8240434,248.660755 47.3826418,249.312235 47.047,250.019 C46.487,251.237 46.473,252.077 46.55,252.084048 C46.627,252.091 46.858,251.335 47.495,250.257 C47.8660697,249.633024 48.3153775,249.059039 48.832,248.549 C49.1343118,248.250217 49.4622336,247.97851 49.812,247.737 C50.183,247.457 50.512,247.303 50.715,247.443 C50.778,247.499 50.799,247.527 50.764,247.681 C50.686704,247.864624 50.5880225,248.038491 50.47,248.199 C49.811144,249.158556 49.008396,250.010886 48.09,250.726 C47.103,251.51 46.389,251.86 46.438,251.958 Z" id="Path" fill="#2E353A"></path>
                        <path d="M46.795,252.133 C46.879,252.133 46.97,251.293 46.529,250.033 C46.2526196,249.29628 45.8525438,248.612126 45.346,248.01 C45.0468132,247.650134 44.7139716,247.319636 44.352,247.023 C43.9175523,246.589886 43.2899053,246.41245 42.693,246.554 C42.341259,246.711318 42.1121248,247.057747 42.105,247.443 C42.099108,247.712329 42.1321148,247.981099 42.203,248.241 C42.3098872,248.70719 42.4944645,249.152069 42.749,249.557 C43.1555551,250.24952 43.7311834,250.827557 44.422,251.237 C45.605,251.937 46.522,251.832 46.487,251.755 C45.8707541,251.481881 45.2743069,251.166115 44.702,250.81 C44.1224073,250.394543 43.6438878,249.853816 43.302,249.228 C43.1052198,248.869587 42.9591585,248.485588 42.868,248.087 C42.756,247.646 42.77,247.247 42.945,247.219 C43.2935982,247.226793 43.6292334,247.352656 43.897,247.576 C44.7982137,248.283411 45.5180598,249.195216 45.997,250.236 C46.585,251.342 46.683,252.147 46.795,252.133 Z" id="Path" fill="#2E353A"></path>
                        <path d="M123.977,235.361 L122.906,269.346 L165.2,270.9 C165.102,266.847 143.5,257.936 143.5,257.936 L145.082,236.187 L123.977,235.361 Z" id="Path" fill="#D61335"></path>
                        <g id="Group" opacity="0.6" transform="translate(128.800000, 255.500000)" fill="#FFFFFF">
                            <path d="M1.701,0.126 C0.847225571,0.351901824 0.300929384,1.18492806 0.434,2.058 C0.629592002,2.91704673 1.46255228,3.47337813 2.331,3.325 C3.23477808,3.08814273 3.81056382,2.20325097 3.661,1.281 C3.409,0.469 2.303,-0.196 1.561,0.175" id="Path"></path>
                        </g>
                        <g id="Group" opacity="0.6" transform="translate(122.500000, 265.300000)" fill="#FFFFFF">
                            <path d="M0.406,4.046 L0.644,0.63 L41.09,3.43 C41.09,3.43 42.945,4.312 42.686,5.635 L0.406,4.046 Z" id="Path"></path>
                        </g>
                        <path d="M144.2,257.747 C144.2,257.957 143.15,258.013 142.1,258.636 C141.05,259.259 140.483,260.113 140.294,260.036 C140.105,259.959 140.462,258.769 141.736,258.034 C143.01,257.299 144.256,257.6 144.2,257.747 Z" id="Path" fill="#2E353A"></path>
                        <path d="M148.568,259.749 C148.61,259.945 147.7,260.267 146.972,261.149 C146.244,262.031 145.999,262.913 145.796,262.899 C145.593,262.885 145.502,261.709 146.433,260.673 C147.364,259.637 148.575,259.546 148.568,259.749 Z" id="Path" fill="#2E353A"></path>
                        <path d="M150.892,265.146 C150.703,265.146 150.451,264.138 151.025,263.046 C151.599,261.954 152.579,261.52 152.663,261.695 C152.747,261.87 152.124,262.451 151.669,263.368 C151.214,264.285 151.102,265.132 150.892,265.146 Z" id="Path" fill="#2E353A"></path>
                        <path d="M144.046,252.756 C143.955,252.938 143.017,252.616 141.848,252.658 C140.679,252.7 139.748,253.029 139.65,252.847 C139.552,252.665 140.455,251.958 141.834,251.937 C143.213,251.916 144.116,252.595 144.046,252.756 Z" id="Path" fill="#2E353A"></path>
                        <path d="M143.185,247.702 C143.185,247.786 142.366,247.884 141.085,247.611 C139.876643,247.345735 138.729438,246.854075 137.704,246.162 C137.471848,246.01831 137.26196,245.841438 137.081,245.637 C136.804795,245.316681 136.790204,244.84684 137.046,244.51 C137.263321,244.220707 137.608406,244.056007 137.97,244.069 C138.239025,244.077406 138.505433,244.124558 138.761,244.209 C139.208766,244.336072 139.644453,244.502383 140.063,244.706 C140.763797,245.057941 141.406034,245.516007 141.967,246.064 C142.912,247.002 143.22,247.786 143.15,247.828 C143.08,247.87 142.597,247.226 141.624,246.428 C141.059896,245.971299 140.438662,245.590087 139.776,245.294 C139.387437,245.119775 138.984622,244.979258 138.572,244.874 C138.131,244.741 137.753,244.72 137.627,244.916 C137.585,244.993 137.578,245.021 137.669,245.154 C137.802298,245.302587 137.9554,245.432134 138.124,245.539 C138.474074,245.793377 138.838693,246.027107 139.216,246.239 C139.861841,246.588804 140.539159,246.877074 141.239,247.1 C141.900445,247.256756 142.550582,247.457877 143.185,247.702 Z" id="Path" fill="#2E353A"></path>
                        <path d="M142.905,248.01 C142.835,248.045 142.45,247.31 142.422,245.945 C142.412531,244.689189 142.746573,243.454686 143.388,242.375 C143.640192,241.809992 144.173015,241.421031 144.788,241.353 C145.172461,241.373509 145.509294,241.617234 145.649,241.976 C145.753679,242.225493 145.817496,242.490215 145.838,242.76 C145.895297,243.226344 145.878761,243.698803 145.789,244.16 C145.644542,244.949604 145.305289,245.690666 144.802,246.316 C143.941,247.38 143.066,247.597 143.052,247.527 C143.564545,247.0843 144.016445,246.575913 144.396,246.015 C144.780376,245.419548 145.033336,244.748966 145.138,244.048 C145.194002,243.641587 145.194002,243.229413 145.138,242.823 C145.082,242.375 144.928,242.004 144.76,242.046 C144.432495,242.184273 144.162915,242.431594 143.997,242.746 C143.77347,243.103276 143.583652,243.480568 143.43,243.873 C143.16585,244.545583 143.000793,245.252967 142.94,245.973 C142.8,247.177 143.024,247.961 142.905,248.01 Z" id="Path" fill="#2E353A"></path>
                        <path d="M41.062,128.1 C41.1191779,128.163904 41.1685267,128.234403 41.209,128.31 C41.3434641,128.519393 41.4605234,128.739465 41.559,128.968 C41.9300765,129.813933 42.1047783,130.732912 42.07,131.656 C41.9870845,133.021686 41.5996177,134.351511 40.936,135.548 C40.136526,137.002696 39.1531107,138.348423 38.01,139.552 C35.9885057,141.778179 33.6256251,143.668484 31.01,145.152 C30.2168746,145.592902 29.4014494,145.992437 28.567,146.349 C28.267576,146.495 27.9530238,146.607675 27.629,146.685 C27.9068037,146.504077 28.1995311,146.347175 28.504,146.216 C29.078,145.936 29.904,145.516 30.877,144.928 C33.4220176,143.388574 35.7283897,141.485463 37.723,139.279 C38.8379899,138.102003 39.8042213,136.792537 40.6,135.38 C41.2582932,134.229406 41.6572621,132.948883 41.769,131.628 C41.8202558,130.738222 41.6892453,129.847351 41.384,129.01 C41.202,128.436 41.034,128.1 41.062,128.1 Z" id="Path" fill="#2E353A"></path>
                        <path d="M40.446,133.483 C40.3576724,133.552699 40.2582988,133.607118 40.152,133.644 C39.8722846,133.789057 39.5821478,133.913068 39.284,134.015 C38.1824566,134.408067 37.0234789,134.61621 35.854,134.631 C31.9334287,134.691425 28.1859728,133.018774 25.613,130.06 C24.9068431,129.219375 24.2634424,128.327973 23.688,127.393 C23.1653199,126.513335 22.7135572,125.593425 22.337,124.642 C21.7015827,123.025726 21.3556374,121.310216 21.315,119.574 C21.29988,118.407292 21.4555281,117.244647 21.777,116.123 C21.8617669,115.818477 21.9646161,115.51928 22.085,115.227 C22.162,115.024 22.211,114.919 22.225,114.926 C22.239,114.933 22.106,115.367 21.917,116.158 C21.6490129,117.27359 21.5336271,118.420384 21.574,119.567 C21.6510496,121.268001 22.0155335,122.94368 22.652,124.523 C23.0279266,125.451015 23.4773549,126.347531 23.996,127.204 C24.5645904,128.121125 25.1985674,128.99606 25.893,129.822 C27.245752,131.400388 28.9606259,132.6277 30.891,133.399 C32.4641215,134.042154 34.1474832,134.372644 35.847,134.372 C36.9943815,134.377549 38.1362076,134.212409 39.235,133.882 C40.033,133.637 40.446,133.455 40.446,133.483 Z" id="Path" fill="#2E353A"></path>
                        <path d="M118.006,139.37 C117.785716,139.259723 117.580948,139.120857 117.397,138.957 C117.019,138.67 116.48,138.257 115.815,137.711 C114.499,136.633 112.637,135.212 110.761,133.399 C110.307324,132.95958 109.881813,132.491985 109.487,131.999 C109.115441,131.51625 108.844126,130.9641 108.689,130.375 C108.450356,129.394741 108.339768,128.387687 108.36,127.379 C108.359942,126.704321 108.409072,126.030535 108.507,125.363 C108.528024,125.122634 108.584642,124.886726 108.675,124.663 C108.731,124.663 108.57,125.713 108.619,127.4 C108.626963,128.380966 108.75867,129.357008 109.011,130.305 C109.263,131.376 110.124,132.272 111.02,133.189 C112.868,134.974 114.716,136.437 115.976,137.557 C116.62,138.117 117.131,138.572 117.488,138.894 C117.681677,139.028163 117.855978,139.188331 118.006,139.37 L118.006,139.37 Z" id="Path" fill="#2E353A"></path>
                        <path d="M124.11,109.2 C124.196429,109.522557 124.248057,109.853445 124.264,110.187 C124.333993,111.095654 124.333993,112.008346 124.264,112.917 C124.060621,115.942281 123.018311,118.851053 121.254,121.317 C119.463672,123.723403 117.485839,125.984452 115.339,128.079 C114.670918,128.68649 113.969854,129.256688 113.239,129.787 C112.97772,129.995831 112.693566,130.174309 112.392,130.319 C112.626472,130.081849 112.881838,129.866311 113.155,129.675 C113.652,129.269 114.366,128.674 115.192,127.89 C117.282183,125.764137 119.219038,123.492778 120.988,121.093 C122.710318,118.689262 123.75915,115.869017 124.026,112.924 C124.116945,111.684885 124.144981,110.441955 124.11,109.2 L124.11,109.2 Z" id="Path" fill="#2E353A"></path>
                        <path d="M129.5,115.353 C129.688701,114.526477 129.78032,113.680759 129.773,112.833 C129.722699,111.91959 129.521652,111.020792 129.178,110.173 C128.756259,109.13603 128.121972,108.198905 127.316,107.422 C125.784064,106.063496 123.897957,105.167777 121.877,104.839 C121.029411,104.762014 120.176589,104.762014 119.329,104.839 C119.551771,104.741923 119.787643,104.678238 120.029,104.65 C120.657436,104.539294 121.298132,104.515739 121.933,104.58 C124.038279,104.844307 126.013361,105.742737 127.596,107.156 C129.134111,108.646284 130.019945,110.684708 130.06,112.826 C130.065354,113.4629 129.978109,114.097197 129.801,114.709 C129.736749,114.938753 129.635052,115.156339 129.5,115.353 L129.5,115.353 Z" id="Path" fill="#2E353A"></path>
                        <path d="M50.897,158.935 C50.897,158.935 35.189,145.005 28.301,145.124 C21.413,145.243 -1.204,143.724 8.281,175.063 C17.843,206.647 34.951,254.94 35.42,253.211 L64.876,240.261 L52.906,195.335 C52.906,195.335 93.058,195.79 100.807,194.768 C108.556,193.746 123.067,183.568 123.067,183.568 L120.764,240.31 L151.564,238.595 C151.564,238.595 155.883,170.408 157.164,156.394 C158.249,144.186 144.564,130.494 130.564,133.588 C121.464,135.604 88.781,158.648 88.781,158.648 L50.897,158.935 Z" id="Path" fill="#2E353A"></path>
                        <path d="M124.124,153.356 C124.157821,153.853028 124.146106,154.352107 124.089,154.847 C124.033,155.897 123.963,157.255 123.879,158.886 C123.725,162.295 123.613,167.013 123.529,172.235 C123.445,177.457 123.347,182.175 123.165,185.591 C123.088,187.306 122.983,188.685 122.892,189.637 C122.872427,190.13433 122.806813,190.628777 122.696,191.114 C122.653983,190.617888 122.653983,190.119112 122.696,189.623 C122.696,188.573 122.766,187.215 122.808,185.577 C122.864,182.077 122.941,177.394 123.018,172.221 C123.095,167.048 123.27,162.281 123.522,158.865 C123.648,157.157 123.774,155.778 123.893,154.826 C123.927814,154.330295 124.005097,153.838491 124.124,153.356 L124.124,153.356 Z" id="Path" fill="#4D5A64"></path>
                        <path d="M122.878,179.935 C122.331348,179.474279 121.871449,178.919555 121.52,178.297 C120.56815,176.862666 119.825678,175.29994 119.315,173.656 C118.803082,172.011428 118.525025,170.303027 118.489,168.581 C118.432501,167.875347 118.496412,167.165225 118.678,166.481 C118.846,166.481 118.608,169.743 119.812,173.523 C121.016,177.303 123.046,179.844 122.878,179.935 Z" id="Path" fill="#4D5A64"></path>
                        <path d="M80.99,191.436 C80.941,191.436 80.871,190.666 80.633,189.273 C80.3038198,187.316527 79.7640146,185.401392 79.023,183.561 C77.9254755,180.832512 76.4247697,178.284144 74.571,176.001 C72.2914507,173.216782 69.4994246,170.895242 66.346,169.162 C59.668,165.298 53.795,161.504 49.693,158.536 C47.642,157.059 46.032,155.792 44.961,154.861 C44.422,154.406 44.023,154.021 43.757,153.769 C43.6081886,153.649769 43.4763099,153.510825 43.365,153.356 C43.365,153.356 43.981,153.832 45.094,154.707 C46.207,155.582 47.831,156.807 49.903,158.242 C54.047,161.119 59.941,164.857 66.605,168.742 C69.8241741,170.500141 72.6626181,172.879389 74.956,175.742 C76.8179153,178.064636 78.3079902,180.66223 79.373,183.442 C80.0939613,185.315666 80.5897692,187.26835 80.85,189.259 C80.9270587,189.797426 80.9761246,190.339488 80.997,190.883 C81.0121735,191.067139 81.0098297,191.252304 80.99,191.436 Z" id="Path" fill="#4D5A64"></path>
                        <path d="M91.854,158.2 C91.723373,158.653068 91.5523539,159.093501 91.343,159.516 C90.972,160.342 90.475,161.56 89.943,163.072 C86.9491196,170.971963 85.5524862,179.387453 85.834,187.831 C85.883,189.448 85.967,190.757 86.051,191.66 C86.1186548,192.123417 86.1374246,192.59266 86.107,193.06 C85.9749995,192.602948 85.888249,192.134026 85.848,191.66 C85.701,190.764 85.568,189.455 85.463,187.831 C84.9803595,179.322788 86.3933802,170.813582 89.6,162.918 C90.216,161.413 90.769,160.216 91.196,159.418 C91.3755614,158.99174 91.5959202,158.583842 91.854,158.2 Z" id="Path" fill="#4D5A64"></path>
                        <path d="M32.795,154.098 C32.9479885,154.173974 33.0913401,154.267975 33.222,154.378 L34.405,155.232 C34.657,155.428 34.944,155.638 35.252,155.862 C35.56,156.086 35.854,156.401 36.19,156.702 C36.9656819,157.365702 37.6953629,158.081351 38.374,158.844 L39.571,160.167 C39.949,160.657 40.327,161.175 40.733,161.707 L41.342,162.526 C41.538,162.813 41.72,163.114 41.909,163.415 C42.28,164.017 42.686,164.626 43.064,165.277 C44.632669,168.131265 45.9535143,171.114877 47.012,174.195 C48.174,177.457 49.056,180.635 49.812,183.519 L51.863,191.219 C52.458,193.403 52.941,195.167 53.305,196.378 C53.473,196.959 53.599,197.428 53.704,197.778 C53.7586518,197.939283 53.7961915,198.105865 53.816,198.275 C53.7379112,198.123555 53.6768709,197.963911 53.634,197.799 L53.172,196.399 C52.766,195.202 52.241,193.445 51.611,191.268 C50.981,189.091 50.288,186.48 49.511,183.61 C48.734,180.74 47.824,177.562 46.662,174.314 C45.6128597,171.253748 44.3086114,168.286993 42.763,165.445 C42.399,164.794 42,164.192 41.629,163.583 C41.447,163.289 41.272,162.988 41.076,162.701 L40.481,161.889 C40.089,161.357 39.718,160.832 39.34,160.349 L38.178,159.019 C37.5241844,158.252357 36.8228,157.527593 36.078,156.849 C35.749,156.548 35.462,156.24 35.168,155.995 L34.342,155.344 L33.208,154.434 C33.0618016,154.332915 32.9237156,154.220574 32.795,154.098 L32.795,154.098 Z" id="Path" fill="#4D5A64"></path>
                        <path d="M50.575,158.648 C56.175,162.351 62.349,163.219 68.943,164.479 C72.751,165.179 76.734,165.879 80.444,164.773 C88.41,162.421 96.11,153.356 101.227,150.122 L85.4,145.18 L50.575,158.648 Z" id="Path" fill="#00A0FF"></path>
                        <path d="M61.873,162.33 C62.1995634,161.040959 62.6447977,159.78493 63.203,158.578 C63.6515022,157.324138 64.2114057,156.112966 64.876,154.959 C64.5459228,156.247895 64.0983834,157.503817 63.539,158.711 C63.0929189,159.96469 62.5353544,161.175871 61.873,162.33 L61.873,162.33 Z" id="Path" fill="#FFFFFF"></path>
                        <path d="M82.901,161 C81.8745647,160.771894 80.8784262,160.424186 79.933,159.964 C78.9470241,159.611019 78.00697,159.140992 77.133,158.564 C79.1482265,159.146234 81.0904509,159.956473 82.922,160.979 L82.901,161 Z" id="Path" fill="#FFFFFF"></path>
                        <path d="M88.326,151.2 C87.1672004,151.366672 85.9941066,151.41125 84.826,151.333 C83.6545148,151.375137 82.4817855,151.297737 81.326,151.102 C82.4847996,150.935328 83.6578934,150.89075 84.826,150.969 C85.9974852,150.926863 87.1702145,151.004263 88.326,151.2 L88.326,151.2 Z" id="Path" fill="#FFFFFF"></path>
                    </g>
                </g>
            </g>
        </g>
    </g>
</svg>