<svg width="24" height="24" viewBox="0 0 24 24" fill="none" xmlns="http://www.w3.org/2000/svg">
<g clip-path="url(#clip0_1_4065)">
<path opacity="0.2" d="M6 19.5V19.1719C5.99997 17.9183 6.34903 16.6895 7.00805 15.6231C7.66708 14.5568 8.61003 13.695 9.73125 13.1344L14.2687 10.8656C15.39 10.305 16.3329 9.44323 16.9919 8.37687C17.651 7.31051 18 6.08169 18 4.82812V4.5H6V4.82812C5.99997 6.08169 6.34903 7.31051 7.00805 8.37687C7.66708 9.44323 8.61003 10.305 9.73125 10.8656L14.2687 13.1344C15.39 13.695 16.3329 14.5568 16.9919 15.6231C17.651 16.6895 18 17.9183 18 19.1719V19.5H6Z" fill="#0097F6"/>
<path d="M9 4.5H18" stroke="#0097F6" stroke-width="2" stroke-linecap="round" stroke-linejoin="round"/>
<path d="M6 2.25V4.82812C5.99997 6.08169 6.34903 7.31051 7.00805 8.37687C7.66708 9.44323 8.61003 10.305 9.73125 10.8656L14.2687 13.1344C15.39 13.695 16.3329 14.5568 16.9919 15.6231C17.651 16.6895 18 17.9183 18 19.1719V21.75" stroke="#0097F6" stroke-width="2" stroke-linecap="round" stroke-linejoin="round"/>
<path d="M6 19.5H15" stroke="#0097F6" stroke-width="2" stroke-linecap="round" stroke-linejoin="round"/>
<path d="M10.1147 7.5H17.4488" stroke="#0097F6" stroke-width="2" stroke-linecap="round" stroke-linejoin="round"/>
<path d="M6.55127 16.5H13.8853" stroke="#0097F6" stroke-width="2" stroke-linecap="round" stroke-linejoin="round"/>
<path d="M8.75437 13.7316C7.90057 14.3586 7.20634 15.1779 6.72784 16.123C6.24934 17.0681 6.00001 18.1125 6 19.1719V21.75" stroke="#0097F6" stroke-width="2" stroke-linecap="round" stroke-linejoin="round"/>
<path d="M18 2.25V4.82812C17.9995 5.88699 17.75 6.93089 17.2715 7.87548C16.793 8.82007 16.099 9.63884 15.2456 10.2656" stroke="#0097F6" stroke-width="2" stroke-linecap="round" stroke-linejoin="round"/>
</g>
<defs>
<clipPath id="clip0_1_4065">
<rect width="24" height="24" fill="white"/>
</clipPath>
</defs>
</svg>
