<svg id="Layer_1" data-name="Layer 1" xmlns="http://www.w3.org/2000/svg" xmlns:xlink="http://www.w3.org/1999/xlink" viewBox="0 0 600 600"><defs><style>.cls-1{fill:#ff3556;opacity:0.09;}.cls-2,.cls-6{fill:#fff;}.cls-3{fill:#c8cfd7;}.cls-4{fill:#161b43;}.cls-5{fill:#0086c3;}.cls-11,.cls-12,.cls-26,.cls-6,.cls-7,.cls-8{opacity:0.5;}.cls-7{fill:#b4acaa;}.cls-8{fill:#acacac;}.cls-9{fill:#757c83;opacity:0.3;}.cls-10{fill:#decfca;}.cls-11{fill:#8fd2f8;}.cls-12{fill:#929292;}.cls-13{fill:#f9f0ef;}.cls-14{fill:#fdebe7;}.cls-15{fill:#59adda;}.cls-16{fill:#e1f0fd;}.cls-17{fill:#1a2e35;}.cls-18{fill:#e8e8e8;}.cls-19{fill:#d1d1d1;}.cls-20{fill:#bebebf;}.cls-21{fill:#eee;}.cls-22{fill:#ffbf9d;}.cls-23{fill:#00a2ff;}.cls-24{opacity:0.2;}.cls-25{fill:#ff9a6c;}.cls-27{fill:url(#linear-gradient);}.cls-28{fill:#375a64;}.cls-29{fill:#bababa;}.cls-30{fill:#006783;}</style><linearGradient id="linear-gradient" x1="1056.28" y1="-232.22" x2="997.53" y2="-159.88" gradientTransform="translate(-642.61 678.11) rotate(-17.86)" gradientUnits="userSpaceOnUse"><stop offset="0.05" stop-color="#007100"/><stop offset="0.09" stop-color="#0e7509"/><stop offset="0.29" stop-color="#568b35"/><stop offset="0.47" stop-color="#929d59"/><stop offset="0.64" stop-color="#c1ab76"/><stop offset="0.79" stop-color="#e3b68b"/><stop offset="0.92" stop-color="#f8bc97"/><stop offset="1" stop-color="#ffbe9c"/></linearGradient></defs><title>all vect</title><circle class="cls-1" cx="301.52" cy="302.09" r="285.91"/><path class="cls-2" d="M459.07,452.36H436.42V196.66H429.7v255.7H408.94a4.19,4.19,0,1,0,0,8.37h50.13a4.19,4.19,0,0,0,0-8.37Z"/><path class="cls-3" d="M447.2,184.68h-5.43v-15.9H427.34v15.9h-4.71A11.65,11.65,0,0,0,411,196.34h47.87A11.65,11.65,0,0,0,447.2,184.68Z"/><path class="cls-2" d="M482.79,86.39H387a11.52,11.52,0,0,0-11.49,11.49v63.21A11.52,11.52,0,0,0,387,172.58h95.75a10,10,0,0,0,1.9-.17,11.52,11.52,0,0,0,9.59-11.32V97.88A11.52,11.52,0,0,0,482.79,86.39Z"/><path class="cls-4" d="M463.62,157.24a3.84,3.84,0,1,1-3.83,3.83A3.82,3.82,0,0,1,463.62,157.24Z"/><path class="cls-4" d="M406.21,157.24a3.84,3.84,0,1,1-3.83,3.83A3.83,3.83,0,0,1,406.21,157.24Z"/><path class="cls-5" d="M482.79,94.05H387a3.84,3.84,0,0,0-3.83,3.83v49.79A3.84,3.84,0,0,0,387,151.5h95.75a3.84,3.84,0,0,0,3.83-3.83V97.88A3.84,3.84,0,0,0,482.79,94.05Z"/><path class="cls-3" d="M446.46,163a1.92,1.92,0,0,1-1.92-1.92,1.9,1.9,0,0,1,1.9-1.91h0a1.92,1.92,0,1,1,0,3.83Z"/><path class="cls-3" d="M438.8,163a1.92,1.92,0,0,1-1.92-1.92,1.9,1.9,0,0,1,1.9-1.91h0a1.92,1.92,0,1,1,0,3.83Z"/><path class="cls-3" d="M431.14,163a1.92,1.92,0,0,1,0-3.83h0a1.92,1.92,0,1,1,0,3.83Z"/><path class="cls-3" d="M423.49,163a1.93,1.93,0,0,1-1.93-1.92,1.91,1.91,0,0,1,1.9-1.91h0a1.92,1.92,0,0,1,0,3.83Z"/><path class="cls-4" d="M467.6,204.71H400.9a4.19,4.19,0,0,1-4.18-4.19h0a4.18,4.18,0,0,1,4.18-4.18h66.7a4.19,4.19,0,0,1,4.19,4.18h0A4.2,4.2,0,0,1,467.6,204.71Z"/><path class="cls-6" d="M462.79,119.51a1.26,1.26,0,0,0-1.61.76l-4,11.07-5.08-10.52a1.3,1.3,0,0,0-.74-.73,1.22,1.22,0,0,0-.26-.06h-.24a1.47,1.47,0,0,0-.49.12,1.26,1.26,0,0,0-.66.81l-3.79,10.41-7.64-21.84s0,0,0,0l-.06-.12-.06-.1a.86.86,0,0,0-.07-.1l-.08-.09-.1-.09-.08-.06-.12-.08-.1,0a.15.15,0,0,0-.07,0l-.06,0-.1,0-.14,0h-.25l-.1,0a.35.35,0,0,0-.14,0h-.05l0,0-.13.06-.09.06-.11.08-.08.07a.94.94,0,0,0-.1.1l-.06.09-.07.11,0,.11,0,.06-4.73,13H418l-.15,0h-.1l-.14,0-.09,0-.13.07-.08,0-.12.1-.07.06L417,123l-.06.08-.06.11-.06.12s0,0,0,0L413,133.91l-7.65-21.86s0,0,0-.06l-.06-.12-.06-.1a.86.86,0,0,0-.07-.1l-.08-.09-.1-.09-.08-.06-.12-.07-.1,0-.07,0-.06,0-.1,0-.14,0h-.25l-.1,0-.14,0h-.05l-.05,0a.31.31,0,0,0-.13.06l-.09,0-.11.08-.08.07-.1.11-.06.08a.75.75,0,0,0-.07.12.31.31,0,0,0-.05.1l0,.06-4.74,13H386.53a1.26,1.26,0,1,0,0,2.52h12.61a1.27,1.27,0,0,0,.34,0l.06,0a1.48,1.48,0,0,0,.31-.15h0a1,1,0,0,0,.24-.23s0,0,0,0a1.23,1.23,0,0,0,.17-.32h0l3.83-10.54,7.65,21.87,0,0a1.08,1.08,0,0,0,.16.3s0,0,0,.05a1.14,1.14,0,0,0,.19.19l.08.06a1.05,1.05,0,0,0,.26.13h0a1.2,1.2,0,0,0,.42.08l.15,0a1,1,0,0,0,.24,0h0a1.32,1.32,0,0,0,.29-.15l0,0a1.2,1.2,0,0,0,.26-.24h0a1.45,1.45,0,0,0,.18-.32s0,0,0,0l4.74-13H432a1.26,1.26,0,0,0,1.18-.83L437,113.69l7.59,21.69a1.25,1.25,0,0,0,.8.94h.05a1.28,1.28,0,0,0,.27,0l.11,0h0l.16,0a.78.78,0,0,0,.21,0h.05a1.26,1.26,0,0,0,.81-.94l3.95-10.87,5.11,10.58a1.26,1.26,0,0,0,.66.61l.06,0h0a1.07,1.07,0,0,0,.3.06h.2l.08,0a1.68,1.68,0,0,0,.32-.09h0l0,0a1.19,1.19,0,0,0,.62-.68l5-13.85A1.27,1.27,0,0,0,462.79,119.51Z"/><rect class="cls-3" x="411.7" y="204.71" width="42.71" height="14.82"/><path class="cls-2" d="M421.57,214a1.92,1.92,0,0,1,0-3.83h0a1.92,1.92,0,0,1,0,3.83Z"/><path class="cls-2" d="M432.56,214a1.92,1.92,0,0,1,0-3.83h0a1.92,1.92,0,1,1,0,3.83Z"/><path class="cls-2" d="M443.77,214a1.92,1.92,0,1,1,0-3.83h0a1.92,1.92,0,0,1,0,3.83Z"/><rect class="cls-2" x="517.96" y="255.57" width="21.38" height="196.04" transform="translate(973.09 808.53) rotate(-168.11)"/><rect class="cls-7" x="518.12" y="254.02" width="6.36" height="196.04" transform="matrix(-0.98, -0.21, 0.21, -0.98, 958.86, 803.95)"/><rect class="cls-2" x="497.99" y="187.85" width="102.01" height="88.31" transform="translate(1097.99 464.02) rotate(-180)"/><rect class="cls-8" x="506.53" y="191.46" width="79.93" height="20.73" transform="translate(1092.99 403.64) rotate(-180)"/><rect class="cls-9" x="506.53" y="191.46" width="79.93" height="6.18" transform="translate(1092.99 389.1) rotate(-180)"/><rect class="cls-10" x="487.39" y="187.85" width="10.6" height="88.31"/><rect class="cls-8" x="572.18" y="217.95" width="24.73" height="7.07" transform="translate(1169.09 442.97) rotate(-180)"/><rect class="cls-8" x="572.18" y="226.79" width="24.73" height="7.07" transform="translate(1169.09 460.64) rotate(-180)"/><rect class="cls-8" x="572.18" y="235.62" width="24.73" height="7.07" transform="translate(1169.09 478.31) rotate(-180)"/><rect class="cls-8" x="572.18" y="244.45" width="24.73" height="7.07" transform="translate(1169.09 495.97) rotate(-180)"/><rect class="cls-8" x="548.99" y="217.95" width="18.77" height="11.06"/><rect class="cls-8" x="548.99" y="231.78" width="18.77" height="11.06"/><rect class="cls-8" x="548.99" y="245.61" width="18.77" height="11.06"/><rect class="cls-8" x="548.99" y="259.44" width="18.77" height="11.06"/><rect class="cls-11" x="506.53" y="217.95" width="26.79" height="14.06" transform="translate(1039.85 449.96) rotate(-180)"/><circle class="cls-8" cx="543.03" cy="221.49" r="3.5"/><circle class="cls-8" cx="543.03" cy="230.32" r="3.5"/><circle class="cls-8" cx="543.03" cy="239.15" r="3.5"/><circle class="cls-8" cx="543.03" cy="247.99" r="3.5"/><circle class="cls-8" cx="543.03" cy="256.82" r="3.5"/><circle class="cls-8" cx="577.92" cy="257.98" r="3.5"/><circle class="cls-8" cx="577.92" cy="266.81" r="3.5"/><circle class="cls-8" cx="517.86" cy="247.99" r="8.83"/><circle class="cls-12" cx="517.86" cy="247.99" r="6.01"/><path class="cls-13" d="M489.84,446h75.07a0,0,0,0,1,0,0v1.65A13.29,13.29,0,0,1,551.62,461H503.78A13.94,13.94,0,0,1,489.84,447v-1A0,0,0,0,1,489.84,446Z" transform="translate(1054.76 907.03) rotate(-180)"/><path class="cls-14" d="M489.84,453.51h75.07a0,0,0,0,1,0,0v.5a7,7,0,0,1-7,7h-68.1a0,0,0,0,1,0,0v-7.47A0,0,0,0,1,489.84,453.51Z" transform="translate(1054.76 914.5) rotate(-180)"/><path class="cls-2" d="M241,132.7c-.93,0-1.69-1-1.69-2.29V121.2c0-1.28.76-2.3,1.69-2.3s1.69,1,1.69,2.3v9.21C242.72,131.68,242,132.7,241,132.7Z"/><path class="cls-2" d="M274.86,132.7c-.93,0-1.69-1-1.69-2.29V121.2c0-1.28.76-2.3,1.69-2.3s1.69,1,1.69,2.3v9.21C276.55,131.68,275.8,132.7,274.86,132.7Z"/><path class="cls-2" d="M257.14,194.19c-.93,0-1.69-1.16-1.69-2.6v-7.78h3.38v7.78C258.83,193,258.07,194.19,257.14,194.19Z"/><path class="cls-15" d="M261.15,207.23a2.36,2.36,0,0,1-2,2.6h-4a2.36,2.36,0,0,1-2-2.6v-7.91l8-.07Z"/><path class="cls-16" d="M259.14,191.62h-4a2.37,2.37,0,0,0-2,2.6v5.2h8v-5.2A2.37,2.37,0,0,0,259.14,191.62Z"/><path class="cls-16" d="M278.87,130.6v44.59a11.72,11.72,0,0,1-3.48,8.34l-.05,0a11.69,11.69,0,0,1-8.23,3.38h-20a11.72,11.72,0,0,1-8.29-3.43h0a11.71,11.71,0,0,1-3.43-8.28V130.6Z"/><path class="cls-15" d="M276.49,159v14a10.4,10.4,0,0,1-3.1,7.42l0,.05a10.46,10.46,0,0,1-7.33,3h-17.8a10.46,10.46,0,0,1-7.38-3.05h0a10.46,10.46,0,0,1-3.05-7.38V159Z"/><path class="cls-2" d="M318.38,459.32l-5-2.67a6.59,6.59,0,0,0-3.07-.77H295.68V121.56a2.65,2.65,0,0,0-2.61-2.65H225.42c-1.44,0-2,.75-2,1.69s.53,1.68,2,1.68H292.3V455.88H276.49a6.52,6.52,0,0,0-3.06.77l-5,2.67a1.69,1.69,0,0,0,.8,3.17,1.61,1.61,0,0,0,.8-.2l4.91-2.63a3.49,3.49,0,0,1,1.61-.4h33.1a5.78,5.78,0,0,1,2.73.68l4.39,2.35a1.61,1.61,0,0,0,.8.2h0A1.69,1.69,0,0,0,318.38,459.32Z"/><rect class="cls-17" x="63.44" y="461.29" width="467.27" height="0.31"/><path class="cls-18" d="M315,333.44H105.08l-91.95-91a13.57,13.57,0,0,1,1.44-20.53l4.67-3.48,186,2.77Z"/><path class="cls-19" d="M106.54,335.82,89.2,348.72,9.85,242a13.33,13.33,0,0,1,2.74-18.64l6.65-5Z"/><path class="cls-19" d="M13.36,348.72h516a11.46,11.46,0,0,0,11.46-11.46h0a11.46,11.46,0,0,0-11.46-11.46h-516A11.46,11.46,0,0,0,1.9,337.26h0A11.46,11.46,0,0,0,13.36,348.72Z"/><rect class="cls-19" x="89.2" y="348.72" width="8.25" height="104.43"/><rect class="cls-19" x="508.69" y="348.72" width="8.25" height="112.41"/><rect class="cls-19" x="383.57" y="348.72" width="8.25" height="104.43"/><rect class="cls-19" x="234.6" y="348.72" width="8.25" height="104.43"/><rect class="cls-19" x="89.2" y="415.35" width="381.41" height="8.73"/><rect class="cls-19" x="334.13" y="415.35" width="182.81" height="8.73"/><circle class="cls-20" cx="93.32" cy="453.14" r="9.35" transform="translate(-168.58 71.75) rotate(-22.84)"/><circle class="cls-21" cx="93.32" cy="453.14" r="5.21" transform="translate(-362.12 534.53) rotate(-88.49)"/><path class="cls-20" d="M229.37,453.14a9.35,9.35,0,1,1,9.35,9.35A9.35,9.35,0,0,1,229.37,453.14Z"/><circle class="cls-21" cx="238.72" cy="453.14" r="5.21" transform="translate(-220.54 679.87) rotate(-88.49)"/><circle class="cls-20" cx="387.7" cy="453.14" r="9.35" transform="matrix(0.92, -0.38, 0.38, 0.92, -143.9, 182.86)"/><path class="cls-21" d="M382.48,453.14a5.22,5.22,0,1,1,5.22,5.22A5.22,5.22,0,0,1,382.48,453.14Z"/><polygon class="cls-19" points="20.76 236.33 20.76 330.81 32.34 330.81 32.34 249.27 20.76 236.33"/><rect class="cls-19" x="360.25" y="257.11" width="180.57" height="91.61" rx="10.86" ry="10.86"/><path class="cls-22" d="M262.21,429.49l2.25,18.79s19.9,3.82,20.66,7.24l-36.37,6.08L244,432.47Z"/><path class="cls-22" d="M253,448.59a1.52,1.52,0,0,0-.76,1.86,1.43,1.43,0,0,0,1.83.75,1.59,1.59,0,0,0,.8-2,1.48,1.48,0,0,0-2-.57"/><path class="cls-22" d="M248.75,461.6l-.36-3,35-4.73s1.73.44,1.73,1.6Z"/><path class="cls-22" d="M265,448c0,.18-.86.41-1.64,1.12s-1.13,1.54-1.31,1.5-.07-1.11.9-2S265,447.83,265,448Z"/><path class="cls-22" d="M269.08,448.94c.07.16-.65.59-1.14,1.44s-.54,1.67-.71,1.69-.45-1,.17-2S269.05,448.77,269.08,448.94Z"/><path class="cls-22" d="M272,453.13c-.16.06-.54-.78-.24-1.83s1.08-1.57,1.18-1.43-.34.74-.58,1.6S272.13,453.08,272,453.13Z"/><path class="cls-22" d="M264,443.78c0,.17-.9.06-1.9.3s-1.72.68-1.84.54.54-.89,1.71-1.15S264.09,443.62,264,443.78Z"/><path class="cls-22" d="M263.5,440a3.57,3.57,0,0,1-1.82.29,8.19,8.19,0,0,1-2-.27,9.28,9.28,0,0,1-1.13-.37,2.43,2.43,0,0,1-.62-.34.77.77,0,0,1-.22-.93,1,1,0,0,1,.71-.53,2.09,2.09,0,0,1,.7,0,6.57,6.57,0,0,1,3,1c1,.64,1.36,1.26,1.31,1.3s-.57-.41-1.53-.91a7.14,7.14,0,0,0-1.77-.64,6.34,6.34,0,0,0-1.1-.15c-.4,0-.73,0-.8.2s0,.1.07.2a2,2,0,0,0,.46.24,7.44,7.44,0,0,0,1.05.39,10.08,10.08,0,0,0,1.86.38A10.72,10.72,0,0,1,263.5,440Z"/><path class="cls-22" d="M263.31,440.29c-.06,0-.51-.54-.75-1.68a5.84,5.84,0,0,1-.06-2,5.34,5.34,0,0,1,.29-1.18,1.54,1.54,0,0,1,1-1.11.87.87,0,0,1,.84.38,3,3,0,0,1,.29.64,4,4,0,0,1,.19,1.22,4.29,4.29,0,0,1-.48,2c-.57,1-1.28,1.39-1.3,1.33a14.1,14.1,0,0,0,.89-1.52,4.15,4.15,0,0,0,.31-1.8,3.46,3.46,0,0,0-.19-1c-.12-.38-.32-.67-.45-.6s-.45.37-.55.7a7,7,0,0,0-.3,1.06,6.68,6.68,0,0,0-.06,1.87C263.11,439.61,263.41,440.24,263.31,440.29Z"/><path class="cls-22" d="M318.26,420.8l5.4,18.11s20.24.16,21.56,3.41l-34.77,12.54L300.88,427Z"/><path class="cls-22" d="M312.4,441.29a1.52,1.52,0,0,0-.43,2,1.43,1.43,0,0,0,1.93.41,1.63,1.63,0,0,0,.45-2.09,1.48,1.48,0,0,0-2.06-.2"/><path class="cls-22" d="M310.45,454.86,309.6,452l33.65-11s1.78.11,2,1.27Z"/><path class="cls-22" d="M324.16,438.53c.06.17-.77.56-1.42,1.4s-.85,1.72-1,1.71-.26-1.08.55-2.09S324.15,438.36,324.16,438.53Z"/><path class="cls-22" d="M328.32,438.72c.09.15-.54.7-.88,1.63s-.24,1.74-.41,1.8-.61-.87-.17-2S328.26,438.56,328.32,438.72Z"/><path class="cls-22" d="M331.86,442.33c-.14.09-.66-.67-.54-1.76s.79-1.74.91-1.62-.2.79-.29,1.68S332,442.25,331.86,442.33Z"/><path class="cls-22" d="M322.48,434.55c0,.18-.88.23-1.82.64s-1.58,1-1.72.87.38-1,1.49-1.45S322.52,434.39,322.48,434.55Z"/><path class="cls-22" d="M321.32,430.92a3.43,3.43,0,0,1-1.74.62,8.5,8.5,0,0,1-2,.1,8.39,8.39,0,0,1-1.18-.17,2.37,2.37,0,0,1-.67-.22.77.77,0,0,1-.38-.87,1,1,0,0,1,.61-.66,2.41,2.41,0,0,1,.69-.14,6.06,6.06,0,0,1,1.2,0,6.2,6.2,0,0,1,2,.47c1.05.45,1.54,1,1.5,1s-.63-.31-1.66-.62a7.24,7.24,0,0,0-1.85-.32,7,7,0,0,0-1.1.06c-.4,0-.72.14-.76.34s0,.1.11.18a1.92,1.92,0,0,0,.48.16,9.41,9.41,0,0,0,1.1.19,10.32,10.32,0,0,0,1.9,0A13.7,13.7,0,0,1,321.32,430.92Z"/><path class="cls-22" d="M321.18,431.24c-.05.05-.59-.44-1-1.51a6.09,6.09,0,0,1-.4-2,5.57,5.57,0,0,1,.09-1.21,1.55,1.55,0,0,1,.81-1.28.84.84,0,0,1,.89.22,2.38,2.38,0,0,1,.4.57,4,4,0,0,1,.39,1.17,4.35,4.35,0,0,1-.13,2.07c-.38,1.14-1,1.6-1.05,1.55s.39-.61.62-1.66a4.33,4.33,0,0,0,0-1.83,4.17,4.17,0,0,0-.37-1c-.18-.34-.42-.59-.55-.5a1.08,1.08,0,0,0-.41.78,6.16,6.16,0,0,0-.12,1.1,7.15,7.15,0,0,0,.25,1.86C320.87,430.61,321.27,431.18,321.18,431.24Z"/><path class="cls-22" d="M297,212.63c-3.22-6.66-10.75-9.67-16.85-6.73a12.33,12.33,0,0,0-6.62,12.31,14.58,14.58,0,0,0,1.4,5.08l24.3,49.92c3.22,6.66,10.76,9.67,16.85,6.73s8.44-10.73,5.23-17.39Z"/><polygon class="cls-23" points="207.28 319.28 303.16 366.12 321.57 335.09 234.11 274.09 207.28 319.28"/><path class="cls-23" d="M311,333.93h0c-9.25,3.06-16.27,14.56-15,24.64,2.41,31,5.09,81.63,7.13,85l21.46-7.11c3-3.77,1.82-56.6,2.37-89.27C327.05,337,319.81,331,311,333.93Z"/><polygon class="cls-24" points="237.51 327.52 247.38 306.71 230.05 316.69 237.51 327.52"/><path class="cls-23" d="M168.66,306.76,170.1,312a53.42,53.42,0,0,0,18,27.38l46.35,41.89,27.08-17.88-53.67-80.26Z"/><path class="cls-23" d="M243.31,356.36h0a16.15,16.15,0,0,0-10.57,18.18c4.66,29.88,9.69,73.66,13.7,78.79l18.46-6.42c2.73-3.7-.15-46-1.15-75.4C263.58,360.66,253.3,353.05,243.31,356.36Z"/><path class="cls-24" d="M169.74,310.72s8.12,9.81,25.63,14.1S233,318.23,233,318.23l-64.31-11.12Z"/><path class="cls-23" d="M264.22,180l-49.74,20.51s-13.16,3-31.35,48.37c-16.43,41-14.6,58.16-14.6,58.16s23,22.47,56.85,13.82c28.92-7.38,27.7-32.16,27.7-32.16l38.6-73.19a12.74,12.74,0,0,0-3.42-12.25Z"/><polygon class="cls-24" points="211.8 292.82 216.56 254.21 201.12 268.74 211.8 292.82"/><path class="cls-23" d="M223.68,199.57c-6.3-2.28-13.52,1.55-16.12,8.55l-16.2,44.39-6.33,17c-2.61,7,.38,14.53,6.68,16.82s13.52-1.55,16.12-8.55l6.34-17,16.19-44.39a14.68,14.68,0,0,0,.94-5.23C231.28,206,228.41,201.29,223.68,199.57Z"/><path class="cls-22" d="M186.5,269.62a12.36,12.36,0,0,0-1.78,18.47l45.44,38.16,9.9-6.86L203.36,273A12.1,12.1,0,0,0,186.5,269.62Z"/><path class="cls-2" d="M269.1,159.13c-1.4.88-2,2.49-1.35,3.59s2.31,1.29,3.71.42,3-4.66,3-4.66S270.49,158.26,269.1,159.13Z"/><path class="cls-22" d="M302,161.12c2.59-12.61-4.63-25.18-16.59-28.89l-1.19-.37c-13.05-3.21-22.95,6.44-25.66,20L247,201a12.48,12.48,0,0,0,6.54,14.17l9.82,4.74A8.8,8.8,0,0,0,275.64,214c.46-1.72,2-9,2.57-11.3h0s12.9,1.84,16.73-10.82C296.79,185.77,299.6,172.84,302,161.12Z"/><path class="cls-25" d="M278.32,202.72a31.18,31.18,0,0,1-14.74-9.89s1.15,10.33,13.78,13Z"/><g class="cls-26"><path class="cls-27" d="M302,161.12c2.59-12.61-4.63-25.18-16.59-28.89l-1.19-.37c-13.05-3.21-22.95,6.44-25.66,20L247,201a12.48,12.48,0,0,0,6.54,14.17l9.82,4.74A8.8,8.8,0,0,0,275.64,214c.46-1.72,2-9,2.57-11.3h0s12.9,1.84,16.73-10.82C296.79,185.77,299.6,172.84,302,161.12Z"/></g><path class="cls-25" d="M278.32,202.72a31.18,31.18,0,0,1-14.74-9.89s1.15,10.33,13.78,13Z"/><path class="cls-17" d="M295,170.46a1.84,1.84,0,1,1-1.34-2.2A1.83,1.83,0,0,1,295,170.46Z"/><path class="cls-17" d="M297.57,166.52c-.29.17-1.33-1.26-3.22-1.84s-3.57,0-3.7-.34c-.07-.14.27-.5,1-.77a5,5,0,0,1,3,0,4.86,4.86,0,0,1,2.47,1.77C297.63,166,297.71,166.45,297.57,166.52Z"/><path class="cls-17" d="M276.22,165.32a1.84,1.84,0,1,1-1.34-2.2A1.81,1.81,0,0,1,276.22,165.32Z"/><path class="cls-17" d="M278.85,161.11c-.29.17-1.33-1.27-3.22-1.85s-3.57,0-3.7-.34c-.07-.13.27-.49,1-.76a4.94,4.94,0,0,1,5.52,1.74C278.91,160.54,279,161,278.85,161.11Z"/><path class="cls-17" d="M281.53,177.73a12.86,12.86,0,0,1,3.24.38c.5.1,1,.15,1.17-.17a2.78,2.78,0,0,0,.1-1.58c-.1-1.35-.21-2.76-.33-4.24-.42-6-.57-10.92-.34-10.94s.77,4.86,1.19,10.89c.09,1.48.18,2.89.27,4.24a3.12,3.12,0,0,1-.32,2,1.26,1.26,0,0,1-1,.48,3.9,3.9,0,0,1-.85-.13A12.22,12.22,0,0,1,281.53,177.73Z"/><path class="cls-17" d="M281.55,153.6c-.34.48-2.16-.36-4.46-.78s-4.28-.34-4.43-.91c-.07-.27.39-.67,1.26-1a7.18,7.18,0,0,1,3.53-.16,7.39,7.39,0,0,1,3.25,1.45C281.41,152.83,281.7,153.37,281.55,153.6Z"/><path class="cls-17" d="M298.51,160.65c-.46.34-1.64-.52-3.2-1s-3-.6-3.15-1.16c-.07-.27.27-.65,1-.89a4.46,4.46,0,0,1,2.81.08,4.59,4.59,0,0,1,2.3,1.69C298.67,160,298.72,160.48,298.51,160.65Z"/><path class="cls-22" d="M257.72,161.83c-.18-.16-7.72-5.21-10,3.57s6.75,9.31,6.83,9.06S257.72,161.83,257.72,161.83Z"/><path class="cls-25" d="M253.59,170.65s-.18.07-.46.12a1.51,1.51,0,0,1-1.11-.29c-.82-.58-1.2-2.26-.83-3.86a5.29,5.29,0,0,1,1-2.07,1.77,1.77,0,0,1,1.42-.87.8.8,0,0,1,.76.66c.06.28,0,.44,0,.47s.22-.1.24-.48a1,1,0,0,0-.19-.64,1.14,1.14,0,0,0-.76-.45,2.11,2.11,0,0,0-1.9.93,5.51,5.51,0,0,0-1.14,2.31c-.4,1.78.06,3.68,1.19,4.38a1.58,1.58,0,0,0,1.42.14C253.52,170.86,253.61,170.67,253.59,170.65Z"/><path class="cls-17" d="M270.67,137.68l34.92,11.63a17.63,17.63,0,0,0-3.39-7.76A28.87,28.87,0,0,0,288,130.74c-5.71-1.87-19.45,1.74-24.77,4.53-4.26,2.25-5,5.08-5,5.08-1.88,4.54-.86,10.67-1.17,15.6-.16,2.54-1.22,10.06-1.22,10.06h0c1.94.59,3.11-.78,3.39-2.85L261,155.3s8-2.8,7.39-12.6C268.11,141.84,268,138.28,270.67,137.68Z"/><path class="cls-25" d="M270.15,167.46a.23.23,0,0,1-.19-.26.23.23,0,0,1,.24-.23.23.23,0,0,1,.19.27A.23.23,0,0,1,270.15,167.46Z"/><path class="cls-25" d="M274,167.74a.25.25,0,0,1-.19-.3c0-.16.12-.28.24-.26s.2.14.19.3A.25.25,0,0,1,274,167.74Z"/><path class="cls-25" d="M276.47,168.43c-.12,0-.19-.2-.16-.4s.16-.34.28-.32.19.2.15.4S276.59,168.45,276.47,168.43Z"/><path class="cls-25" d="M271.26,170.36c-.12,0-.2-.13-.17-.21s.13-.1.24-.07.2.13.17.2S271.37,170.39,271.26,170.36Z"/><path class="cls-25" d="M274.8,170.59a.24.24,0,0,1-.16-.29.24.24,0,0,1,.26-.21.26.26,0,0,1,.17.3A.23.23,0,0,1,274.8,170.59Z"/><path class="cls-25" d="M292.69,173.83a.26.26,0,0,1-.2-.28.24.24,0,0,1,.24-.23.25.25,0,0,1,.2.28A.25.25,0,0,1,292.69,173.83Z"/><path class="cls-25" d="M295.22,174.36a.26.26,0,0,1-.16-.32c0-.16.15-.26.26-.24a.27.27,0,0,1,.17.32A.26.26,0,0,1,295.22,174.36Z"/><path class="cls-25" d="M290.49,173.21a.21.21,0,0,1-.2-.21.22.22,0,0,1,.24-.18.21.21,0,0,1,.2.22A.2.2,0,0,1,290.49,173.21Z"/><path class="cls-25" d="M291.58,176.33a.27.27,0,0,1-.06-.52.24.24,0,0,1,.25.23A.25.25,0,0,1,291.58,176.33Z"/><path class="cls-25" d="M293.81,176.55a.21.21,0,0,1-.08-.28.2.2,0,0,1,.28-.05.22.22,0,0,1,.09.28A.21.21,0,0,1,293.81,176.55Z"/><path class="cls-17" d="M262.83,135.7a11.16,11.16,0,0,1,4.65-8.71,10.46,10.46,0,0,1,9.57-1.42c1.62.57,3.11,1.56,4.8,1.87,3.14.6,6.21-1.19,9.38-1.55a11.2,11.2,0,0,1,11.51,7.81c.6,2,.72,4.23,2.06,5.77,1.16,1.34,3,1.81,4.41,2.8a8.58,8.58,0,0,1,3,9.61,9.66,9.66,0,0,1-7.91,6.26,11.58,11.58,0,0,1-9.51-3.7c-2.22-2.34-3.85-5.67-6.91-6.52s-6.79,1.34-9.69-.24c-1.52-.83-2.4-2.5-3.24-4.05s-1.86-3.17-3.48-3.78-3.14,1.46-3,3.23l-5.6-7.38"/><path class="cls-28" d="M306.23,144.49a.38.38,0,0,1-.09.11,3.23,3.23,0,0,1-.31.29,5.72,5.72,0,0,1-1.34.87,6.46,6.46,0,0,1-2.45.61,6.15,6.15,0,0,1-3.25-.79,6.74,6.74,0,0,1-2.8-3,47.25,47.25,0,0,1-1.32-4.57,5.39,5.39,0,0,0-1.25-2.11,5.11,5.11,0,0,0-2.18-1.25,5.36,5.36,0,0,0-2.58-.07,4.59,4.59,0,0,0-2.3,1.32c-.66.67-1.21,1.45-1.94,2.07a3,3,0,0,1-2.66.72,4.59,4.59,0,0,1-2.25-1.49,10.15,10.15,0,0,1-1.4-2.17c-.76-1.46-1.51-2.92-2.76-3.63a4.48,4.48,0,0,0-3.77-.24,6.34,6.34,0,0,0-2.65,1.89,10.6,10.6,0,0,0-1.4,2.1c-.32.63-.53,1.13-.67,1.47a3.61,3.61,0,0,1-.23.52s0,0,0-.14.07-.23.13-.4a14.44,14.44,0,0,1,.62-1.51,10.74,10.74,0,0,1,1.37-2.18,6.43,6.43,0,0,1,2.72-2,4.71,4.71,0,0,1,4,.21c1.35.77,2.13,2.29,2.89,3.74a10,10,0,0,0,1.37,2.1,4.28,4.28,0,0,0,2.08,1.37,2.62,2.62,0,0,0,2.35-.65c.69-.58,1.24-1.35,1.92-2.05a5,5,0,0,1,2.47-1.42,5.28,5.28,0,0,1,6.39,3.68c.54,1.61.68,3.22,1.29,4.55a6.46,6.46,0,0,0,2.65,2.91,5.83,5.83,0,0,0,3.12.81,6.36,6.36,0,0,0,2.4-.53A8.07,8.07,0,0,0,306.23,144.49Z"/><path class="cls-28" d="M312.56,146.59a1.83,1.83,0,0,1-.05.74,6,6,0,0,1-.74,1.89,7,7,0,0,1-2,2.15,7.7,7.7,0,0,1-3.38,1.23,11.57,11.57,0,0,1-6.34-1.17,16.58,16.58,0,0,1-1.73-1,3,3,0,0,1-.59-.42c0-.06.91.48,2.42,1.13a12.1,12.1,0,0,0,6.2,1.05,7.73,7.73,0,0,0,3.24-1.15,7,7,0,0,0,2-2A8.07,8.07,0,0,0,312.56,146.59Z"/><path class="cls-17" d="M283,185.63c-.22.23-1.67-1.34-4-1.19s-3.8,1.92-4,1.71.09-.66.75-1.35a5.21,5.21,0,0,1,3.27-1.52,4.48,4.48,0,0,1,3.26,1.09C282.91,185,283.1,185.53,283,185.63Z"/><path class="cls-22" d="M316.81,259.69A10.79,10.79,0,0,0,302.18,265l-26.87,47.27,9.72,5,35.73-40.85C324.58,270.64,322.72,262.74,316.81,259.69Z"/><path class="cls-23" d="M279.13,234.26s11.51,30.07,14.83,30.32,22.9-15,22.9-15-20.95-49.67-27.95-44.14C286.17,207.58,279.13,234.26,279.13,234.26Z"/><polygon class="cls-18" points="289.15 326.17 225.56 326.17 213.18 307.87 301.1 307.87 289.15 326.17"/><ellipse class="cls-29" cx="257.14" cy="307.87" rx="43.96" ry="3.81"/><path class="cls-5" d="M308.63,455.46c-2.29-.54-2.87-1.79-1.18-4l40.82-11.72c1.46-.51,4.14.23,2.57,2.2Z"/><path class="cls-30" d="M348.27,439.73a18.89,18.89,0,0,0-11.16-2.22c-6.56.68-2.46,8.28-2.46,8.28Z"/><path class="cls-5" d="M246,463.83c-2.21-.78-2.67-2.09-.75-4.11l41.84-7.31c1.5-.36,4.09.67,2.32,2.46Z"/><path class="cls-30" d="M287.08,452.41A18.92,18.92,0,0,0,276.22,449c-6.59,0-3.33,8-3.33,8Z"/></svg>