<svg id="Layer_1" data-name="Layer 1" xmlns="http://www.w3.org/2000/svg" viewBox="0 0 600 600"><defs><style>.cls-1{fill:#ff3556;opacity:0.09;}.cls-2,.cls-20{fill:none;stroke-miterlimit:10;}.cls-2{stroke:#1a2e35;stroke-width:0.5px;}.cls-3{fill:#ffbf9d;}.cls-4{fill:#0086c3;}.cls-5{fill:#00a2ff;}.cls-6{fill:#007881;opacity:0.49;}.cls-7{fill:#b55c40;opacity:0.25;}.cls-8{fill:#ff1849;}.cls-9{fill:#ff9a6c;}.cls-10{fill:#1a2e35;}.cls-11{fill:#375a64;}.cls-12,.cls-17{fill:#fff;}.cls-12{opacity:0.5;}.cls-13{fill:#ddd;}.cls-14{fill:#d1d1d1;}.cls-15{fill:#e0e0e0;}.cls-16{fill:#ccc;}.cls-18{fill:#ededed;}.cls-19{fill:#f1f1f1;}.cls-20{stroke:#ccc;}.cls-21{fill:#006783;}</style></defs><title>all vect</title><circle class="cls-1" cx="299.94" cy="299" r="299"/><line class="cls-2" x1="474.55" y1="534.54" x2="118.26" y2="534.54"/><g id="man"><path class="cls-3" d="M254.6,325s-1.3,8.92-1.48,11.07c-.52,6.05-.62,11.44,4.44,14.79,2.61,1.74,7.53,6.52,9.75,4.31,4.19-4.17,3.15-23.44,3.15-23.44s-4.41-5.82-6.58-6.73S254.6,325,254.6,325Z"/><polygon class="cls-3" points="245.74 245.12 254.6 325.04 265.39 325.04 267.31 243.59 245.74 245.12"/><path class="cls-3" d="M255.84,493.58l-1.86,23s-24.82,5.64-25.59,9.85l46,5.56,4.42-35.69Z"/><path class="cls-3" d="M268.44,516.36a1.73,1.73,0,1,1-1.21,3.23,1.74,1.74,0,1,1,1.37-3.16"/><path class="cls-4" d="M274.56,532.81c1.47-1.31,1.56-2.78.15-4.45l-44.23-4c-1.28-.17-4.32,1.15-1.94,2.87Z"/><path class="cls-3" d="M253.26,516.25c0,.22,1.09.45,2.12,1.28s1.5,1.82,1.72,1.75,0-1.35-1.23-2.33S253.24,516,253.26,516.25Z"/><path class="cls-3" d="M248.21,517.59c-.08.21.85.69,1.5,1.7s.76,2,1,2,.51-1.19-.33-2.43S248.23,517.39,248.21,517.59Z"/><path class="cls-3" d="M244.8,522.84c.2.07.64-1,.21-2.23s-1.43-1.86-1.55-1.69.46.88.8,1.92S244.58,522.79,244.8,522.84Z"/><path class="cls-3" d="M254.29,511.06c.07.21,1.13,0,2.39.27s2.21.75,2.35.57-.72-1.06-2.21-1.32S254.2,510.88,254.29,511.06Z"/><path class="cls-3" d="M254.75,506.43a4.54,4.54,0,0,0,2.31.27,11,11,0,0,0,2.49-.42,12,12,0,0,0,1.4-.52,2.9,2.9,0,0,0,.76-.44.92.92,0,0,0,.24-1.14,1.26,1.26,0,0,0-.92-.62,3.19,3.19,0,0,0-.88,0,9.35,9.35,0,0,0-1.49.3,8.43,8.43,0,0,0-2.29,1.09c-1.18.83-1.64,1.6-1.56,1.65s.69-.54,1.87-1.19a9.16,9.16,0,0,1,2.19-.87,9.53,9.53,0,0,1,1.37-.24c.5-.06.91,0,1,.21s0,.12-.08.24a2,2,0,0,1-.55.32,13.69,13.69,0,0,1-1.3.53,12.25,12.25,0,0,1-2.33.55A16.52,16.52,0,0,0,254.75,506.43Z"/><path class="cls-3" d="M317.24,496.49l1.65,23s-23.67,9.34-23.8,13.62l46.33-1.49-1-35.94Z"/><path class="cls-3" d="M333.15,517.1a1.73,1.73,0,1,1-.71,3.38,1.93,1.93,0,0,1-1.44-2.17,1.89,1.89,0,0,1,2.32-1.16"/><path class="cls-4" d="M341.41,532.38c2.06-1.33,2.21-2.77-.24-4.37l-44.33,2.78c-1.62,0-4,1.68-1.76,3.07Z"/><path class="cls-3" d="M318.13,519.29c0,.22,1.15.28,2.29,1s1.76,1.56,2,1.47-.18-1.34-1.57-2.13S318.08,519.09,318.13,519.29Z"/><path class="cls-3" d="M313.34,521.39c0,.21,1,.55,1.75,1.45s1.05,1.87,1.28,1.85.32-1.25-.69-2.35S313.34,521.18,313.34,521.39Z"/><path class="cls-3" d="M310.77,527.09c.21,0,.49-1.06-.14-2.24s-1.69-1.62-1.78-1.43.59.8,1.08,1.77S310.55,527.08,310.77,527.09Z"/><path class="cls-3" d="M318.36,514c.1.2,1.13-.14,2.41-.1s2.29.4,2.4.21-.87-.94-2.38-1S318.24,513.84,318.36,514Z"/><path class="cls-3" d="M318.11,509.36a4.49,4.49,0,0,0,2.32-.08,10.43,10.43,0,0,0,2.41-.8,11.41,11.41,0,0,0,1.31-.72,3.41,3.41,0,0,0,.68-.55.94.94,0,0,0,.06-1.17,1.29,1.29,0,0,0-1-.47,3,3,0,0,0-.86.15,9.23,9.23,0,0,0-1.43.52,8.12,8.12,0,0,0-2.09,1.43c-1,1-1.38,1.82-1.3,1.86s.6-.63,1.67-1.46a9.29,9.29,0,0,1,2-1.19,7.57,7.57,0,0,1,1.32-.44c.48-.14.9-.16,1,.05s.06.11,0,.25a2.49,2.49,0,0,1-.5.4c-.4.27-.81.51-1.2.72a13.44,13.44,0,0,1-2.22.9A20.12,20.12,0,0,0,318.11,509.36Z"/><path class="cls-5" d="M265.28,318.65h82c-1.07,76.93-.47,178.28-5.82,192.86h-24c-8.08-9.93-10-93.78-13.79-156.17l-.2,1c-8.56,61.81-17.3,144.76-25.43,155l-24.14-3C248.37,499.22,260,390.31,265.28,318.65Z"/><path class="cls-6" d="M263.67,341c20.56.29,53.24.55,70.82-.31a40.39,40.39,0,0,0,12.38-2.42l.37-19.57h-82Z"/><path class="cls-5" d="M317,170l-16.48,3.94-15.82-3.57-23,16.53,2.22,139.27s40.75,12.61,84.39,0l7.18-137.94Z"/><path class="cls-5" d="M261.66,186.9s-20.85,24.27-20.85,62.16h25.31Z"/><path class="cls-3" d="M296.3,291.09c-1.94-3.37-9.43-8.44-13.09-8.39a22.82,22.82,0,0,1-9.38-4.14c-3.39-.93-2.45,2-2.05,2.92,1.65,3.26,4.39,3.45,6.45,4.54,1.64.88,1.67,2,1.53,2.4h0S268.85,293,267,296.21c-2.12,3.81-.44,11.2,3.76,13.9,7,4.5,23.88-4,23.88-4S301.68,300.46,296.3,291.09Z"/><path class="cls-3" d="M348.41,242.2l4.17,23.16-63.15,25.79.6,11.3s77.82-6.31,87.75-20.49c6.58-9.4-5.58-43.77-5.58-43.77Z"/><path class="cls-7" d="M375.4,248.5l-25.51,1.9-1.48-8.2,23.79-4S373.73,242.51,375.4,248.5Z"/><path class="cls-5" d="M355.45,188.24s23,24.93,21.69,62.64H348.2S345.72,198.23,355.45,188.24Z"/><g id="pain_symbol" data-name="pain symbol"><polygon class="cls-8" points="275.69 255.84 281.49 267.68 288.53 265.12 287.98 274.48 298.99 268.21 298.87 281.37 296.97 271.4 286.77 276.39 286.53 268.28 279.43 269.49 275.69 255.84"/><polygon class="cls-8" points="302.82 275.49 306.5 266.76 301.79 264.15 307.12 260.04 298.53 257.03 305.71 250.88 301.21 256.62 308.73 259.79 304.45 263.75 308.45 267.02 302.82 275.49"/><polygon class="cls-8" points="305.94 278.23 311.62 276.17 310.79 272.84 315.03 273.54 312.71 268.22 318.7 268.92 314.06 269.3 315.84 274.19 312.13 273.9 312.34 277.19 305.94 278.23"/></g><g id="pain_symbol-2" data-name="pain symbol"><polygon class="cls-8" points="332.25 324.56 323.7 314.51 317.51 318.73 315.74 309.53 306.62 318.31 303.48 305.53 307.79 314.73 316.44 307.37 318.68 315.18 325.26 312.25 332.25 324.56"/><polygon class="cls-8" points="301.11 312.21 299.7 321.57 304.9 322.94 300.75 328.24 309.81 329.04 304.37 336.76 307.32 330.1 299.25 328.88 302.43 323.99 297.74 321.8 301.11 312.21"/><polygon class="cls-8" points="297.41 310.31 292.42 313.72 294.04 316.74 289.76 317.1 293.31 321.68 287.34 322.49 291.74 320.98 288.81 316.68 292.47 316.04 291.46 312.9 297.41 310.31"/></g></g><path class="cls-3" d="M270.4,125a23.4,23.4,0,0,1,20.78-24l1.2-.14c13.08-.71,21,10,21.34,23.1l3,47.81a11.66,11.66,0,0,1-8.66,12l-10.23,2.71a8.7,8.7,0,0,1-10.88-7.64c-.15-1.68-.41-8.76-.58-11h0s-12.71-.54-14.27-13C271.3,148.86,270.76,136.32,270.4,125Z"/><path class="cls-9" d="M286.23,167.88a30.48,30.48,0,0,0,15.82-6.64s-2.84,9.43-15.42,9.71Z"/><path class="cls-9" d="M286.23,167.88a30.48,30.48,0,0,0,15.82-6.64s-2.84,9.43-15.42,9.71Z"/><path class="cls-10" d="M274.66,134.58a1.8,1.8,0,0,0,1.93,1.61,1.71,1.71,0,0,0,1.65-1.82,1.79,1.79,0,0,0-1.92-1.6A1.71,1.71,0,0,0,274.66,134.58Z"/><path class="cls-10" d="M273.85,132.5c.32,0,.76-1.59,2.27-2.79s3.22-1.32,3.24-1.64c0-.15-.43-.34-1.19-.3a5,5,0,0,0-2.77,1.08,4.76,4.76,0,0,0-1.63,2.45C273.59,132,273.7,132.49,273.85,132.5Z"/><path class="cls-10" d="M293.6,133.08a1.79,1.79,0,0,0,1.92,1.6,1.72,1.72,0,0,0,1.66-1.81,1.8,1.8,0,0,0-1.92-1.61A1.72,1.72,0,0,0,293.6,133.08Z"/><path class="cls-10" d="M293.27,127.66c.09.31,1.76,0,3.47,1s2.51,2.42,2.8,2.31c.14,0,.14-.53-.2-1.21a4.87,4.87,0,0,0-2.11-2.1,4.71,4.71,0,0,0-2.9-.51C293.6,127.23,293.22,127.51,293.27,127.66Z"/><path class="cls-10" d="M287.32,144a12.92,12.92,0,0,0-3.18-.21c-.5,0-1,0-1.1-.37a2.52,2.52,0,0,1,.17-1.49c.32-1.23.67-2.53,1-3.89,1.41-5.54,2.37-10.08,2.15-10.13s-1.55,4.39-3,9.93l-1,3.91a2.88,2.88,0,0,0,0,2,1.25,1.25,0,0,0,.89.63,3.53,3.53,0,0,0,.85,0A12.48,12.48,0,0,0,287.32,144Z"/><path class="cls-10" d="M291.33,121.56c.25.5,2.14,0,4.42,0s4.17.43,4.42-.08c.11-.24-.26-.69-1.06-1.11a7.69,7.69,0,0,0-6.73,0C291.59,120.86,291.22,121.32,291.33,121.56Z"/><path class="cls-10" d="M273.85,125.16c.39.39,1.66-.21,3.24-.41s3,0,3.23-.53c.11-.23-.15-.65-.78-1a4.73,4.73,0,0,0-5.22.75C273.81,124.49,273.68,125,273.85,125.16Z"/><path class="cls-3" d="M312.87,133.39c.2-.12,8.3-3.51,9,5.06s-8.06,7.5-8.09,7.25S312.87,133.39,312.87,133.39Z"/><path class="cls-9" d="M315.37,142.33s.16.09.42.19a1.54,1.54,0,0,0,1.12-.07c.88-.41,1.52-1.9,1.44-3.45a4.94,4.94,0,0,0-.59-2.11,1.71,1.71,0,0,0-1.22-1,.75.75,0,0,0-.84.48c-.1.25,0,.42-.08.43s-.19-.13-.15-.48a1,1,0,0,1,.29-.57,1.16,1.16,0,0,1,.81-.28,2.1,2.1,0,0,1,1.67,1.2A5.19,5.19,0,0,1,319,139c.08,1.73-.67,3.41-1.88,3.87a1.61,1.61,0,0,1-1.39-.11C315.4,142.54,315.34,142.35,315.37,142.33Z"/><path class="cls-10" d="M304.46,108.62l-35.53,4.73a16.39,16.39,0,0,1,4.57-6.63A28,28,0,0,1,289,99.13c5.8-.75,18.4,5,23,8.56,3.73,2.83,4,5.61,4,5.61,1,4.56-1,10.09-1.48,14.74-.27,2.4-.51,9.58-.51,9.58h0c-2,.21-2.87-1.27-2.78-3.24l-.48-7.65a11.58,11.58,0,0,1-5-13C306.22,113,307,109.65,304.46,108.62Z"/><path class="cls-9" d="M300,136.46a.22.22,0,0,0,.23-.21A.21.21,0,0,0,300,136a.22.22,0,0,0-.23.21A.23.23,0,0,0,300,136.46Z"/><path class="cls-9" d="M296.21,136c.12,0,.22-.1.24-.25a.25.25,0,0,0-.19-.28c-.12,0-.22.1-.24.25A.24.24,0,0,0,296.21,136Z"/><path class="cls-9" d="M293.74,136.26c.11,0,.21-.15.21-.35s-.09-.34-.21-.35-.21.16-.21.35S293.62,136.26,293.74,136.26Z"/><path class="cls-9" d="M298.43,139c.12,0,.2-.09.2-.16s-.11-.13-.23-.11-.21.08-.2.15S298.31,139,298.43,139Z"/><path class="cls-9" d="M295,138.56a.23.23,0,0,0,.21-.24.24.24,0,0,0-.22-.24.23.23,0,0,0-.21.25A.22.22,0,0,0,295,138.56Z"/><path class="cls-9" d="M277.24,138.45a.24.24,0,0,0,0-.48.24.24,0,0,0,0,.48Z"/><path class="cls-9" d="M274.72,138.5a.25.25,0,0,0,.21-.27c0-.15-.1-.27-.22-.26a.24.24,0,0,0-.21.27A.24.24,0,0,0,274.72,138.5Z"/><path class="cls-9" d="M279.46,138.26a.19.19,0,0,0,.22-.17.2.2,0,0,0-.19-.2.21.21,0,0,0-.23.17A.2.2,0,0,0,279.46,138.26Z"/><path class="cls-9" d="M277.88,141a.23.23,0,0,0,.28-.17.24.24,0,0,0-.13-.3.23.23,0,0,0-.27.17A.22.22,0,0,0,277.88,141Z"/><path class="cls-9" d="M275.7,140.78a.19.19,0,0,0,.13-.24.21.21,0,0,0-.39.16A.19.19,0,0,0,275.7,140.78Z"/><path class="cls-10" d="M312.32,108.15a10.59,10.59,0,0,0-12-11.92c-1.65.25-3.25.9-4.93.9-3.12,0-5.77-2.2-8.76-3.08a10.92,10.92,0,0,0-12.38,5.26c-.9,1.74-1.39,3.81-2.94,5-1.34,1-3.15,1.16-4.71,1.83a8,8,0,0,0-4.46,8.43,9.42,9.42,0,0,0,6.56,7.22,11.47,11.47,0,0,0,9.76-1.79c2.52-1.79,4.65-4.61,7.73-4.86s6.31,2.44,9.37,1.47c1.6-.51,2.72-1.91,3.79-3.2s2.32-2.63,4-2.92,2.77,1.91,2.35,3.54l6.61-5.9"/><path class="cls-11" d="M269.12,108.75a.34.34,0,0,0,.08.12,2,2,0,0,0,.24.32,5.62,5.62,0,0,0,1.15,1,6.23,6.23,0,0,0,5.51.83,6.44,6.44,0,0,0,3.19-2.32,44.56,44.56,0,0,0,2-4,4.64,4.64,0,0,1,3.86-2.53,5.35,5.35,0,0,1,2.49.39,4.53,4.53,0,0,1,2,1.64c.52.73.92,1.56,1.52,2.26a3,3,0,0,0,2.44,1.14,4.42,4.42,0,0,0,2.4-1,9.26,9.26,0,0,0,1.72-1.77c1-1.23,1.94-2.46,3.26-2.91a4.51,4.51,0,0,1,3.67.45,6.13,6.13,0,0,1,2.23,2.21,10.7,10.7,0,0,1,1,2.21c.2.64.32,1.14.4,1.49a2.46,2.46,0,0,0,.14.52s0,0,0-.14,0-.22-.06-.4a15.24,15.24,0,0,0-.34-1.51,10.35,10.35,0,0,0-.95-2.27,6.47,6.47,0,0,0-2.28-2.33,4.75,4.75,0,0,0-3.89-.5,8.23,8.23,0,0,0-3.41,3,9,9,0,0,1-1.66,1.71,4.2,4.2,0,0,1-2.23.92,2.65,2.65,0,0,1-2.16-1c-.56-.66-1-1.48-1.49-2.24a4.88,4.88,0,0,0-2.14-1.76,5.85,5.85,0,0,0-2.66-.41,5.4,5.4,0,0,0-2.46.85,5.26,5.26,0,0,0-1.65,1.87,44.1,44.1,0,0,1-2,4,6.2,6.2,0,0,1-3,2.25,5.93,5.93,0,0,1-3.14.21,6.4,6.4,0,0,1-2.21-.91A8.65,8.65,0,0,1,269.12,108.75Z"/><path class="cls-11" d="M262.68,109.59a2.24,2.24,0,0,0-.06.71,5.26,5.26,0,0,0,.39,1.88,6.62,6.62,0,0,0,1.61,2.37,8,8,0,0,0,3,1.74,11.68,11.68,0,0,0,6.29,0,16.71,16.71,0,0,0,1.83-.57,3.07,3.07,0,0,0,.64-.3c0-.06-1,.29-2.52.64a12.18,12.18,0,0,1-6.13-.11,7.79,7.79,0,0,1-2.93-1.64,6.74,6.74,0,0,1-1.61-2.23A7.84,7.84,0,0,1,262.68,109.59Z"/><path class="cls-10" d="M284.57,152.4c.24.19,1.43-1.49,3.71-1.66s3.94,1.27,4.12,1-.17-.61-.91-1.16a5.13,5.13,0,0,0-3.37-1,4.46,4.46,0,0,0-3,1.47C284.55,151.78,284.45,152.33,284.57,152.4Z"/><path class="cls-10" d="M262.65,200q1.1,12.24,2.11,24.48c.35,4.08.75,8.16,1,12.25s.43,8.18.43,12.28h-.1c-.58-4.06-.94-8.14-1.33-12.22s-.54-8.17-.78-12.26q-.73-12.27-1.41-24.54Z"/><path class="cls-10" d="M346.1,200A158.8,158.8,0,0,0,345,224.54c.11,4.1.41,8.18.63,12.28s.5,8.18.66,12.29l-.1,0c-.73-4.06-1.18-8.15-1.56-12.24s-.42-8.22-.43-12.34A146.5,146.5,0,0,1,346,200Z"/><circle class="cls-12" cx="393.19" cy="93.65" r="35.76" transform="translate(290.89 484.68) rotate(-88.74)"/><path class="cls-13" d="M393.19,62.83a30.83,30.83,0,1,1-30.83,30.82,30.86,30.86,0,0,1,30.83-30.82m0-4.93a35.76,35.76,0,1,0,35.75,35.75A35.76,35.76,0,0,0,393.19,57.9Z"/><path class="cls-14" d="M393.19,65.15A1.23,1.23,0,0,0,392,66.38v1.23a1.23,1.23,0,0,0,2.46,0V66.38A1.23,1.23,0,0,0,393.19,65.15Z"/><path class="cls-14" d="M393.19,118.16A1.23,1.23,0,0,0,392,119.4v1.23a1.23,1.23,0,0,0,2.46,0V119.4A1.23,1.23,0,0,0,393.19,118.16Z"/><path class="cls-14" d="M420.31,92.27h-1.23a1.24,1.24,0,0,0,0,2.47h1.23a1.24,1.24,0,1,0,0-2.47Z"/><path class="cls-14" d="M367.3,92.27h-1.24a1.24,1.24,0,0,0,0,2.47h1.24a1.24,1.24,0,0,0,0-2.47Z"/><path class="cls-14" d="M411.5,73.45l-.88.87a1.24,1.24,0,0,0,0,1.75,1.26,1.26,0,0,0,.88.36,1.24,1.24,0,0,0,.87-.36l.87-.88a1.23,1.23,0,1,0-1.74-1.74Z"/><path class="cls-14" d="M374,110.94l-.87.87a1.21,1.21,0,0,0,0,1.74,1.19,1.19,0,0,0,.87.37,1.2,1.2,0,0,0,.87-.37l.87-.87a1.23,1.23,0,0,0-1.74-1.74Z"/><path class="cls-14" d="M412.37,110.94a1.23,1.23,0,0,0-1.75,1.74l.88.87a1.19,1.19,0,0,0,.87.37,1.2,1.2,0,0,0,.87-.37,1.23,1.23,0,0,0,0-1.74Z"/><path class="cls-14" d="M374.88,73.45a1.23,1.23,0,0,0-1.74,0,1.21,1.21,0,0,0,0,1.74l.87.88a1.23,1.23,0,0,0,1.74,0,1.24,1.24,0,0,0,0-1.75Z"/><path class="cls-14" d="M389.49,94.35h-9.86a.85.85,0,1,1,0-1.69h9.86a.85.85,0,1,1,0,1.69Z"/><path class="cls-14" d="M393.19,90.65a.85.85,0,0,1-.85-.85V76.24a.85.85,0,0,1,1.7,0V89.8A.85.85,0,0,1,393.19,90.65Z"/><path class="cls-14" d="M393.19,89.8a3.7,3.7,0,1,1-3.7,3.7A3.7,3.7,0,0,1,393.19,89.8Z"/><rect class="cls-15" x="112.06" y="119.54" width="93.56" height="122.15" rx="4.81" ry="4.81"/><path class="cls-12" d="M147.48,138.06h-6v-5.95a1.18,1.18,0,0,0-1.18-1.19h-8.9a1.18,1.18,0,0,0-1.18,1.19v5.95h-6a1.19,1.19,0,0,0-1.19,1.19v8.89a1.19,1.19,0,0,0,1.19,1.19h6v6a1.18,1.18,0,0,0,1.18,1.18h8.9a1.18,1.18,0,0,0,1.18-1.18v-6h6a1.19,1.19,0,0,0,1.19-1.19v-8.89A1.19,1.19,0,0,0,147.48,138.06Z"/><path class="cls-12" d="M121.81,166.32h74.06a2,2,0,0,1,1.95,2h0a2,2,0,0,1-1.95,1.95H121.81a2,2,0,0,1-2-1.95h0A2,2,0,0,1,121.81,166.32Z"/><path class="cls-12" d="M128,186.13H189.7a1.63,1.63,0,0,1,1.63,1.63h0a1.62,1.62,0,0,1-1.63,1.62H128a1.62,1.62,0,0,1-1.63-1.62h0A1.63,1.63,0,0,1,128,186.13Z"/><path class="cls-12" d="M173.46,132.53h22.41a1.63,1.63,0,0,1,1.63,1.63h0a1.63,1.63,0,0,1-1.63,1.62H173.46a1.62,1.62,0,0,1-1.62-1.62h0A1.62,1.62,0,0,1,173.46,132.53Z"/><path class="cls-12" d="M173.46,142.93h22.41a1.63,1.63,0,0,1,1.63,1.62h0a1.63,1.63,0,0,1-1.63,1.63H173.46a1.62,1.62,0,0,1-1.62-1.63h0A1.62,1.62,0,0,1,173.46,142.93Z"/><path class="cls-12" d="M128,197.4H189.7a1.62,1.62,0,0,1,1.63,1.62h0a1.63,1.63,0,0,1-1.63,1.63H128a1.63,1.63,0,0,1-1.63-1.63h0A1.62,1.62,0,0,1,128,197.4Z"/><path class="cls-12" d="M128,208.66h28.91a1.62,1.62,0,0,1,1.63,1.62h0a1.63,1.63,0,0,1-1.63,1.63H128a1.63,1.63,0,0,1-1.63-1.63h0A1.62,1.62,0,0,1,128,208.66Z"/><path class="cls-16" d="M421.6,252.25c0,14.1,6.42,27,10.48,40.21,2,6.56,3.49,13.37,3.19,20.27a46.57,46.57,0,0,1-6,20.16c-3.89,7.15-9.09,13.49-14.6,19.43-.45.48.27,1.21.72.73,9.56-10.3,18.7-22.39,20.6-36.71s-4.18-27.67-8.64-40.8c-2.56-7.52-4.72-15.28-4.72-23.29a.51.51,0,0,0-1,0Z"/><path class="cls-17" d="M404.7,173.19c-1,0-1.83-1.11-1.83-2.49v-10c0-1.38.82-2.5,1.83-2.5s1.83,1.12,1.83,2.5v10C406.53,172.08,405.71,173.19,404.7,173.19Z"/><path class="cls-17" d="M441.44,173.19c-1,0-1.83-1.11-1.83-2.49v-10c0-1.38.81-2.5,1.83-2.5s1.83,1.12,1.83,2.5v10C443.27,172.08,442.45,173.19,441.44,173.19Z"/><path class="cls-17" d="M422.19,240c-1,0-1.83-1.27-1.83-2.83V228.7H424v8.44C424,238.7,423.21,240,422.19,240Z"/><path class="cls-16" d="M426.54,254.13c0,1.56-1,2.83-2.17,2.83H420c-1.2,0-2.18-1.27-2.18-2.83v-8.59l8.7-.07Z"/><path class="cls-18" d="M424.37,237.18H420c-1.2,0-2.18,1.27-2.18,2.82v5.65h8.7V240C426.54,238.45,425.56,237.18,424.37,237.18Z"/><path class="cls-19" d="M445.79,170.91v48.43a12.72,12.72,0,0,1-3.78,9l-.05.05a12.72,12.72,0,0,1-8.94,3.67h-21.7a12.71,12.71,0,0,1-9-3.73h0a12.71,12.71,0,0,1-3.73-9V170.91Z"/><path class="cls-16" d="M443.21,201.78V217a11.31,11.31,0,0,1-3.37,8.06l0,0a11.3,11.3,0,0,1-8,3.27H412.51a11.33,11.33,0,0,1-8-3.32h0a11.34,11.34,0,0,1-3.31-8V201.78Z"/><path class="cls-17" d="M488.7,527.9,483.29,525a7.06,7.06,0,0,0-3.33-.84H464V161.1a2.88,2.88,0,0,0-2.82-2.89H387.74c-1.56,0-2.13.82-2.13,1.83s.57,1.84,2.13,1.84h72.64v362.3H443.21a7,7,0,0,0-3.33.84l-5.41,2.89a1.83,1.83,0,0,0,.86,3.45,1.86,1.86,0,0,0,.87-.21l5.34-2.86a3.69,3.69,0,0,1,1.75-.44h35.94a6.26,6.26,0,0,1,3,.74l4.76,2.56a1.89,1.89,0,0,0,.87.21h0A1.83,1.83,0,0,0,488.7,527.9Z"/><path class="cls-20" d="M414.51,353.21s-7.37,8.2-9.78,14.4S384.55,430,462.31,438.15"/><path class="cls-21" d="M230.48,524.39s7-3.89,12.16-4.83,5,7.07,5,7.07Z"/><path class="cls-21" d="M296.84,530.79a19.81,19.81,0,0,1,10.22-6.1c6.7-1.63,5.32,7.29,5.32,7.29Z"/></svg>